<?xml version="1.0" encoding="UTF-8" standalone="no"?>
<!DOCTYPE svg PUBLIC "-//W3C//DTD SVG 1.1//EN"
 "http://www.w3.org/Graphics/SVG/1.1/DTD/svg11.dtd">
<!-- Generated by graphviz version 2.43.0 (0)
 -->
<!-- Title: di::container::ViewInterface&lt; Self &gt; Pages: 1 -->
<svg width="507pt" height="182pt"
 viewBox="0.00 0.00 507.00 182.00" xmlns="http://www.w3.org/2000/svg" xmlns:xlink="http://www.w3.org/1999/xlink">
<g id="graph0" class="graph" transform="scale(1 1) rotate(0) translate(4 178)">
<title>di::container::ViewInterface&lt; Self &gt;</title>
<!-- Node1 -->
<g id="Node000001" class="node">
<title>Node1</title>
<g id="a_Node000001"><a xlink:title=" ">
<polygon fill="#999999" stroke="#666666" points="321,-102 170,-102 170,-72 321,-72 321,-102"/>
<text text-anchor="start" x="178" y="-90" font-family="Helvetica,sans-Serif" font-size="10.00">di::container::ViewInterface</text>
<text text-anchor="middle" x="245.5" y="-79" font-family="Helvetica,sans-Serif" font-size="10.00">&lt; Self &gt;</text>
</a>
</g>
</g>
<!-- Node3 -->
<g id="Node000003" class="node">
<title>Node3</title>
<g id="a_Node000003"><a xlink:href="classdi_1_1container_1_1IotaView.html" target="_top" xlink:title=" ">
<polygon fill="white" stroke="#666666" points="491,-174 365,-174 365,-144 491,-144 491,-174"/>
<text text-anchor="start" x="373" y="-162" font-family="Helvetica,sans-Serif" font-size="10.00">di::container::IotaView</text>
<text text-anchor="middle" x="428" y="-151" font-family="Helvetica,sans-Serif" font-size="10.00">&lt; T, Bound &gt;</text>
</a>
</g>
</g>
<!-- Node1&#45;&gt;Node3 -->
<g id="edge2_Node000001_Node000003" class="edge">
<title>Node1&#45;&gt;Node3</title>
<g id="a_edge2_Node000001_Node000003"><a xlink:title=" ">
<path fill="none" stroke="#63b8ff" d="M288.92,-106.37C309.34,-115.45 334.27,-126.18 357,-135 364.79,-138.02 373.13,-141.05 381.25,-143.9"/>
<polygon fill="#63b8ff" stroke="#63b8ff" points="290.14,-103.08 279.58,-102.19 287.28,-109.47 290.14,-103.08"/>
</a>
</g>
</g>
<!-- Node4 -->
<g id="Node000004" class="node">
<title>Node4</title>
<g id="a_Node000004"><a xlink:href="classdi_1_1container_1_1RepeatView.html" target="_top" xlink:title=" ">
<polygon fill="white" stroke="#666666" points="499,-126 357,-126 357,-96 499,-96 499,-126"/>
<text text-anchor="start" x="365" y="-114" font-family="Helvetica,sans-Serif" font-size="10.00">di::container::RepeatView</text>
<text text-anchor="middle" x="428" y="-103" font-family="Helvetica,sans-Serif" font-size="10.00">&lt; T, Bound &gt;</text>
</a>
</g>
</g>
<!-- Node1&#45;&gt;Node4 -->
<g id="edge3_Node000001_Node000004" class="edge">
<title>Node1&#45;&gt;Node4</title>
<g id="a_edge3_Node000001_Node000004"><a xlink:title=" ">
<path fill="none" stroke="#63b8ff" d="M331.27,-98.27C339.88,-99.42 348.55,-100.57 356.97,-101.69"/>
<polygon fill="#63b8ff" stroke="#63b8ff" points="331.59,-94.78 321.22,-96.93 330.67,-101.72 331.59,-94.78"/>
</a>
</g>
</g>
<!-- Node5 -->
<g id="Node000005" class="node">
<title>Node5</title>
<g id="a_Node000005"><a xlink:href="classdi_1_1container_1_1View.html" target="_top" xlink:title=" ">
<polygon fill="white" stroke="#666666" points="492,-78 364,-78 364,-48 492,-48 492,-78"/>
<text text-anchor="start" x="372" y="-66" font-family="Helvetica,sans-Serif" font-size="10.00">di::container::View</text>
<text text-anchor="middle" x="428" y="-55" font-family="Helvetica,sans-Serif" font-size="10.00">&lt; Iter, Sent, is_sized &gt;</text>
</a>
</g>
</g>
<!-- Node1&#45;&gt;Node5 -->
<g id="edge4_Node000001_Node000005" class="edge">
<title>Node1&#45;&gt;Node5</title>
<g id="a_edge4_Node000001_Node000005"><a xlink:title=" ">
<path fill="none" stroke="#63b8ff" d="M331.24,-75.73C342.21,-74.27 353.29,-72.8 363.83,-71.4"/>
<polygon fill="#63b8ff" stroke="#63b8ff" points="330.67,-72.28 321.22,-77.07 331.59,-79.22 330.67,-72.28"/>
</a>
</g>
</g>
<!-- Node6 -->
<g id="Node000006" class="node">
<title>Node6</title>
<g id="a_Node000006"><a xlink:href="classdi_1_1function_1_1Generator.html" target="_top" xlink:title=" ">
<polygon fill="white" stroke="#666666" points="491,-30 365,-30 365,0 491,0 491,-30"/>
<text text-anchor="start" x="373" y="-18" font-family="Helvetica,sans-Serif" font-size="10.00">di::function::Generator</text>
<text text-anchor="middle" x="428" y="-7" font-family="Helvetica,sans-Serif" font-size="10.00">&lt; Ref, Value &gt;</text>
</a>
</g>
</g>
<!-- Node1&#45;&gt;Node6 -->
<g id="edge5_Node000001_Node000006" class="edge">
<title>Node1&#45;&gt;Node6</title>
<g id="a_edge5_Node000001_Node000006"><a xlink:title=" ">
<path fill="none" stroke="#63b8ff" d="M288.92,-67.63C309.34,-58.55 334.27,-47.82 357,-39 364.79,-35.98 373.13,-32.95 381.25,-30.1"/>
<polygon fill="#63b8ff" stroke="#63b8ff" points="287.28,-64.53 279.58,-71.81 290.14,-70.92 287.28,-64.53"/>
</a>
</g>
</g>
<!-- Node2 -->
<g id="Node000002" class="node">
<title>Node2</title>
<g id="a_Node000002"><a xlink:href="classdi_1_1meta_1_1EnableView.html" target="_top" xlink:title=" ">
<polygon fill="white" stroke="#666666" points="134,-102 0,-102 0,-72 134,-72 134,-102"/>
<text text-anchor="start" x="8" y="-90" font-family="Helvetica,sans-Serif" font-size="10.00">di::meta::EnableView</text>
<text text-anchor="middle" x="67" y="-79" font-family="Helvetica,sans-Serif" font-size="10.00">&lt; Self, should_enable &gt;</text>
</a>
</g>
</g>
<!-- Node2&#45;&gt;Node1 -->
<g id="edge1_Node000001_Node000002" class="edge">
<title>Node2&#45;&gt;Node1</title>
<g id="a_edge1_Node000001_Node000002"><a xlink:title=" ">
<path fill="none" stroke="#63b8ff" d="M144.43,-87C152.88,-87 161.48,-87 169.9,-87"/>
<polygon fill="#63b8ff" stroke="#63b8ff" points="144.22,-83.5 134.22,-87 144.22,-90.5 144.22,-83.5"/>
</a>
</g>
</g>
</g>
</svg>
