<?xml version="1.0" encoding="UTF-8" standalone="no"?>
<!DOCTYPE svg PUBLIC "-//W3C//DTD SVG 1.1//EN"
 "http://www.w3.org/Graphics/SVG/1.1/DTD/svg11.dtd">
<!-- Generated by graphviz version 2.43.0 (0)
 -->
<!-- Title: di::vocab::Span&lt; T, dynamic_extent &gt; Pages: 1 -->
<svg width="331pt" height="157pt"
 viewBox="0.00 0.00 331.00 156.50" xmlns="http://www.w3.org/2000/svg" xmlns:xlink="http://www.w3.org/1999/xlink">
<g id="graph0" class="graph" transform="scale(1 1) rotate(0) translate(4 152.5)">
<title>di::vocab::Span&lt; T, dynamic_extent &gt;</title>
<!-- Node1 -->
<g id="Node000001" class="node">
<title>Node1</title>
<g id="a_Node000001"><a xlink:title=" ">
<polygon fill="#999999" stroke="#666666" points="323,-94.5 212,-94.5 212,-64.5 323,-64.5 323,-94.5"/>
<text text-anchor="start" x="220" y="-82.5" font-family="Helvetica,sans-Serif" font-size="10.00">di::vocab::Span&lt; T,</text>
<text text-anchor="middle" x="267.5" y="-71.5" font-family="Helvetica,sans-Serif" font-size="10.00"> dynamic_extent &gt;</text>
</a>
</g>
</g>
<!-- Node2 -->
<g id="Node000002" class="node">
<title>Node2</title>
<g id="a_Node000002"><a xlink:href="classdi_1_1meta_1_1EnableView.html" target="_top" xlink:title=" ">
<polygon fill="white" stroke="#666666" points="176,-148.5 0,-148.5 0,-118.5 176,-118.5 176,-148.5"/>
<text text-anchor="start" x="8" y="-136.5" font-family="Helvetica,sans-Serif" font-size="10.00">di::meta::EnableView</text>
<text text-anchor="middle" x="88" y="-125.5" font-family="Helvetica,sans-Serif" font-size="10.00">&lt; Span&lt; T, dynamic_extent &gt; &gt;</text>
</a>
</g>
</g>
<!-- Node2&#45;&gt;Node1 -->
<g id="edge1_Node000001_Node000002" class="edge">
<title>Node2&#45;&gt;Node1</title>
<g id="a_edge1_Node000001_Node000002"><a xlink:title=" ">
<path fill="none" stroke="#63b8ff" d="M154.95,-115.69C162.07,-113.65 169.2,-111.56 176,-109.5 191.21,-104.89 207.73,-99.51 222.45,-94.6"/>
<polygon fill="#63b8ff" stroke="#63b8ff" points="153.95,-112.33 145.28,-118.43 155.86,-119.07 153.95,-112.33"/>
</a>
</g>
</g>
<!-- Node3 -->
<g id="Node000003" class="node">
<title>Node3</title>
<g id="a_Node000003"><a xlink:href="classdi_1_1meta_1_1EnableBorrowedContainer.html" target="_top" xlink:title=" ">
<polygon fill="white" stroke="#666666" points="170,-100 6,-100 6,-59 170,-59 170,-100"/>
<text text-anchor="start" x="14" y="-88" font-family="Helvetica,sans-Serif" font-size="10.00">di::meta::EnableBorrowed</text>
<text text-anchor="start" x="14" y="-77" font-family="Helvetica,sans-Serif" font-size="10.00">Container&lt; Span&lt; T, dynamic</text>
<text text-anchor="middle" x="88" y="-66" font-family="Helvetica,sans-Serif" font-size="10.00">_extent &gt; &gt;</text>
</a>
</g>
</g>
<!-- Node3&#45;&gt;Node1 -->
<g id="edge2_Node000001_Node000003" class="edge">
<title>Node3&#45;&gt;Node1</title>
<g id="a_edge2_Node000001_Node000003"><a xlink:title=" ">
<path fill="none" stroke="#63b8ff" d="M180.52,-79.5C191.27,-79.5 201.97,-79.5 211.98,-79.5"/>
<polygon fill="#63b8ff" stroke="#63b8ff" points="180.22,-76 170.22,-79.5 180.22,-83 180.22,-76"/>
</a>
</g>
</g>
<!-- Node4 -->
<g id="Node000004" class="node">
<title>Node4</title>
<g id="a_Node000004"><a xlink:href="classdi_1_1container_1_1ConstantVectorInterface.html" target="_top" xlink:title=" ">
<polygon fill="white" stroke="#666666" points="168.5,-41 7.5,-41 7.5,0 168.5,0 168.5,-41"/>
<text text-anchor="start" x="15.5" y="-29" font-family="Helvetica,sans-Serif" font-size="10.00">di::container::ConstantVector</text>
<text text-anchor="start" x="15.5" y="-18" font-family="Helvetica,sans-Serif" font-size="10.00">Interface&lt; Span&lt; T, dynamic</text>
<text text-anchor="middle" x="88" y="-7" font-family="Helvetica,sans-Serif" font-size="10.00">_extent &gt;, T &gt;</text>
</a>
</g>
</g>
<!-- Node4&#45;&gt;Node1 -->
<g id="edge3_Node000001_Node000004" class="edge">
<title>Node4&#45;&gt;Node1</title>
<g id="a_edge3_Node000001_Node000004"><a xlink:title=" ">
<path fill="none" stroke="#63b8ff" d="M160.68,-44.33C181.13,-51.12 202.84,-58.34 221.23,-64.45"/>
<polygon fill="#63b8ff" stroke="#63b8ff" points="161.67,-40.97 151.08,-41.14 159.47,-47.61 161.67,-40.97"/>
</a>
</g>
</g>
</g>
</svg>
