<?xml version="1.0" encoding="UTF-8" standalone="no"?>
<!DOCTYPE svg PUBLIC "-//W3C//DTD SVG 1.1//EN"
 "http://www.w3.org/Graphics/SVG/1.1/DTD/svg11.dtd">
<!-- Generated by graphviz version 2.43.0 (0)
 -->
<!-- Title: di::container::TakeView&lt; View &gt; Pages: 1 -->
<svg width="520pt" height="108pt"
 viewBox="0.00 0.00 520.00 108.00" xmlns="http://www.w3.org/2000/svg" xmlns:xlink="http://www.w3.org/1999/xlink">
<g id="graph0" class="graph" transform="scale(1 1) rotate(0) translate(4 104)">
<title>di::container::TakeView&lt; View &gt;</title>
<!-- Node1 -->
<g id="Node000001" class="node">
<title>Node1</title>
<g id="a_Node000001"><a xlink:title=" ">
<polygon fill="#999999" stroke="#666666" points="512,-70 383,-70 383,-40 512,-40 512,-70"/>
<text text-anchor="start" x="391" y="-58" font-family="Helvetica,sans-Serif" font-size="10.00">di::container::TakeView</text>
<text text-anchor="middle" x="447.5" y="-47" font-family="Helvetica,sans-Serif" font-size="10.00">&lt; View &gt;</text>
</a>
</g>
</g>
<!-- Node2 -->
<g id="Node000002" class="node">
<title>Node2</title>
<g id="a_Node000002"><a xlink:href="classdi_1_1container_1_1ViewInterface.html" target="_top" xlink:title=" ">
<polygon fill="white" stroke="#666666" points="334,-100 183,-100 183,-70 334,-70 334,-100"/>
<text text-anchor="start" x="191" y="-88" font-family="Helvetica,sans-Serif" font-size="10.00">di::container::ViewInterface</text>
<text text-anchor="middle" x="258.5" y="-77" font-family="Helvetica,sans-Serif" font-size="10.00">&lt; TakeView&lt; View &gt; &gt;</text>
</a>
</g>
</g>
<!-- Node2&#45;&gt;Node1 -->
<g id="edge1_Node000001_Node000002" class="edge">
<title>Node2&#45;&gt;Node1</title>
<g id="a_edge1_Node000001_Node000002"><a xlink:title=" ">
<path fill="none" stroke="#63b8ff" d="M344.47,-71.37C357.34,-69.3 370.43,-67.2 382.74,-65.23"/>
<polygon fill="#63b8ff" stroke="#63b8ff" points="343.53,-67.97 334.21,-73.01 344.64,-74.89 343.53,-67.97"/>
</a>
</g>
</g>
<!-- Node3 -->
<g id="Node000003" class="node">
<title>Node3</title>
<g id="a_Node000003"><a xlink:href="classdi_1_1meta_1_1EnableView.html" target="_top" xlink:title=" ">
<polygon fill="white" stroke="#666666" points="134,-100 0,-100 0,-70 134,-70 134,-100"/>
<text text-anchor="start" x="8" y="-88" font-family="Helvetica,sans-Serif" font-size="10.00">di::meta::EnableView</text>
<text text-anchor="middle" x="67" y="-77" font-family="Helvetica,sans-Serif" font-size="10.00">&lt; Self, should_enable &gt;</text>
</a>
</g>
</g>
<!-- Node3&#45;&gt;Node2 -->
<g id="edge2_Node000002_Node000003" class="edge">
<title>Node3&#45;&gt;Node2</title>
<g id="a_edge2_Node000002_Node000003"><a xlink:title=" ">
<path fill="none" stroke="#63b8ff" d="M144.15,-85C156.95,-85 170.22,-85 182.97,-85"/>
<polygon fill="#63b8ff" stroke="#63b8ff" points="144.01,-81.5 134.01,-85 144.01,-88.5 144.01,-81.5"/>
</a>
</g>
</g>
<!-- Node4 -->
<g id="Node000004" class="node">
<title>Node4</title>
<g id="a_Node000004"><a xlink:href="classdi_1_1meta_1_1EnableBorrowedContainer.html" target="_top" xlink:title=" ">
<polygon fill="white" stroke="#666666" points="347,-52 170,-52 170,0 347,0 347,-52"/>
<text text-anchor="start" x="178" y="-40" font-family="Helvetica,sans-Serif" font-size="10.00">di::meta::EnableBorrowed</text>
<text text-anchor="start" x="178" y="-29" font-family="Helvetica,sans-Serif" font-size="10.00">Container&lt; TakeView&lt; View</text>
<text text-anchor="start" x="178" y="-18" font-family="Helvetica,sans-Serif" font-size="10.00"> &gt;, concepts::BorrowedContainer</text>
<text text-anchor="middle" x="258.5" y="-7" font-family="Helvetica,sans-Serif" font-size="10.00">&lt; View &gt; &gt;</text>
</a>
</g>
</g>
<!-- Node4&#45;&gt;Node1 -->
<g id="edge3_Node000001_Node000004" class="edge">
<title>Node4&#45;&gt;Node1</title>
<g id="a_edge3_Node000001_Node000004"><a xlink:title=" ">
<path fill="none" stroke="#63b8ff" d="M357.15,-41.14C365.91,-42.5 374.63,-43.85 382.98,-45.15"/>
<polygon fill="#63b8ff" stroke="#63b8ff" points="357.67,-37.68 347.25,-39.61 356.6,-44.6 357.67,-37.68"/>
</a>
</g>
</g>
</g>
</svg>
