<?xml version="1.0" encoding="UTF-8" standalone="no"?>
<!DOCTYPE svg PUBLIC "-//W3C//DTD SVG 1.1//EN"
 "http://www.w3.org/Graphics/SVG/1.1/DTD/svg11.dtd">
<!-- Generated by graphviz version 2.43.0 (0)
 -->
<!-- Title: di::meta::EnableView&lt; Self, should_enable &gt; Pages: 1 -->
<svg width="622pt" height="1754pt"
 viewBox="0.00 0.00 622.00 1753.50" xmlns="http://www.w3.org/2000/svg" xmlns:xlink="http://www.w3.org/1999/xlink">
<g id="graph0" class="graph" transform="scale(1 1) rotate(0) translate(4 1749.5)">
<title>di::meta::EnableView&lt; Self, should_enable &gt;</title>
<!-- Node1 -->
<g id="Node000001" class="node">
<title>Node1</title>
<g id="a_Node000001"><a xlink:title=" ">
<polygon fill="#999999" stroke="#666666" points="134,-882 0,-882 0,-852 134,-852 134,-882"/>
<text text-anchor="start" x="8" y="-870" font-family="Helvetica,sans-Serif" font-size="10.00">di::meta::EnableView</text>
<text text-anchor="middle" x="67" y="-859" font-family="Helvetica,sans-Serif" font-size="10.00">&lt; Self, should_enable &gt;</text>
</a>
</g>
</g>
<!-- Node2 -->
<g id="Node000002" class="node">
<title>Node2</title>
<g id="a_Node000002"><a xlink:href="classdi_1_1container_1_1ViewInterface.html" target="_top" xlink:title=" ">
<polygon fill="white" stroke="#666666" points="362.5,-1745.5 210.5,-1745.5 210.5,-1704.5 362.5,-1704.5 362.5,-1745.5"/>
<text text-anchor="start" x="218.5" y="-1733.5" font-family="Helvetica,sans-Serif" font-size="10.00">di::container::ViewInterface</text>
<text text-anchor="start" x="218.5" y="-1722.5" font-family="Helvetica,sans-Serif" font-size="10.00">&lt; AdjacentTransformView&lt;</text>
<text text-anchor="middle" x="286.5" y="-1711.5" font-family="Helvetica,sans-Serif" font-size="10.00"> View, F, N &gt; &gt;</text>
</a>
</g>
</g>
<!-- Node1&#45;&gt;Node2 -->
<g id="edge1_Node000001_Node000002" class="edge">
<title>Node1&#45;&gt;Node2</title>
<g id="a_edge1_Node000001_Node000002"><a xlink:title=" ">
<path fill="none" stroke="#63b8ff" d="M69.46,-892.57C77.24,-1025.39 115.62,-1632.95 170,-1695 180.51,-1707 195.15,-1714.49 210.48,-1719.11"/>
<polygon fill="#63b8ff" stroke="#63b8ff" points="72.93,-891.97 68.85,-882.19 65.94,-892.37 72.93,-891.97"/>
</a>
</g>
</g>
<!-- Node4 -->
<g id="Node000004" class="node">
<title>Node4</title>
<g id="a_Node000004"><a xlink:href="classdi_1_1container_1_1ViewInterface.html" target="_top" xlink:title=" ">
<polygon fill="white" stroke="#666666" points="369.5,-1686 203.5,-1686 203.5,-1656 369.5,-1656 369.5,-1686"/>
<text text-anchor="start" x="211.5" y="-1674" font-family="Helvetica,sans-Serif" font-size="10.00">di::container::ViewInterface</text>
<text text-anchor="middle" x="286.5" y="-1663" font-family="Helvetica,sans-Serif" font-size="10.00">&lt; AdjacentView&lt; View, N &gt; &gt;</text>
</a>
</g>
</g>
<!-- Node1&#45;&gt;Node4 -->
<g id="edge3_Node000001_Node000004" class="edge">
<title>Node1&#45;&gt;Node4</title>
<g id="a_edge3_Node000001_Node000004"><a xlink:title=" ">
<path fill="none" stroke="#63b8ff" d="M67.54,-892.44C65.9,-1013.95 65.17,-1534.02 170,-1647 178.98,-1656.68 190.77,-1663.01 203.38,-1667.06"/>
<polygon fill="#63b8ff" stroke="#63b8ff" points="71.05,-892.3 67.7,-882.25 64.05,-892.2 71.05,-892.3"/>
</a>
</g>
</g>
<!-- Node6 -->
<g id="Node000006" class="node">
<title>Node6</title>
<g id="a_Node000006"><a xlink:href="classdi_1_1container_1_1ViewInterface.html" target="_top" xlink:title=" ">
<polygon fill="white" stroke="#666666" points="362,-1638 211,-1638 211,-1608 362,-1608 362,-1638"/>
<text text-anchor="start" x="219" y="-1626" font-family="Helvetica,sans-Serif" font-size="10.00">di::container::ViewInterface</text>
<text text-anchor="middle" x="286.5" y="-1615" font-family="Helvetica,sans-Serif" font-size="10.00">&lt; AsConstView&lt; View &gt; &gt;</text>
</a>
</g>
</g>
<!-- Node1&#45;&gt;Node6 -->
<g id="edge5_Node000001_Node000006" class="edge">
<title>Node1&#45;&gt;Node6</title>
<g id="a_edge5_Node000001_Node000006"><a xlink:title=" ">
<path fill="none" stroke="#63b8ff" d="M67.78,-892.35C67.33,-1009.1 71.48,-1493.71 170,-1599 180.77,-1610.52 195.52,-1617.27 210.87,-1621.1"/>
<polygon fill="#63b8ff" stroke="#63b8ff" points="71.29,-892.25 67.84,-882.23 64.29,-892.21 71.29,-892.25"/>
</a>
</g>
</g>
<!-- Node8 -->
<g id="Node000008" class="node">
<title>Node8</title>
<g id="a_Node000008"><a xlink:href="classdi_1_1container_1_1ViewInterface.html" target="_top" xlink:title=" ">
<polygon fill="white" stroke="#666666" points="364,-1590 209,-1590 209,-1560 364,-1560 364,-1590"/>
<text text-anchor="start" x="217" y="-1578" font-family="Helvetica,sans-Serif" font-size="10.00">di::container::ViewInterface</text>
<text text-anchor="middle" x="286.5" y="-1567" font-family="Helvetica,sans-Serif" font-size="10.00">&lt; AsRValueView&lt; View &gt; &gt;</text>
</a>
</g>
</g>
<!-- Node1&#45;&gt;Node8 -->
<g id="edge7_Node000001_Node000008" class="edge">
<title>Node1&#45;&gt;Node8</title>
<g id="a_edge7_Node000001_Node000008"><a xlink:title=" ">
<path fill="none" stroke="#63b8ff" d="M68.06,-892.45C68.85,-1004.6 77.83,-1453.44 170,-1551 180.34,-1561.94 194.26,-1568.58 208.86,-1572.48"/>
<polygon fill="#63b8ff" stroke="#63b8ff" points="71.56,-892.09 68,-882.11 64.56,-892.13 71.56,-892.09"/>
</a>
</g>
</g>
<!-- Node10 -->
<g id="Node000010" class="node">
<title>Node10</title>
<g id="a_Node000010"><a xlink:href="classdi_1_1container_1_1ViewInterface.html" target="_top" xlink:title=" ">
<polygon fill="white" stroke="#666666" points="371.5,-1541.5 201.5,-1541.5 201.5,-1500.5 371.5,-1500.5 371.5,-1541.5"/>
<text text-anchor="start" x="209.5" y="-1529.5" font-family="Helvetica,sans-Serif" font-size="10.00">di::container::ViewInterface</text>
<text text-anchor="start" x="209.5" y="-1518.5" font-family="Helvetica,sans-Serif" font-size="10.00">&lt; CartesianProductView&lt; First,</text>
<text text-anchor="middle" x="286.5" y="-1507.5" font-family="Helvetica,sans-Serif" font-size="10.00"> Rest... &gt; &gt;</text>
</a>
</g>
</g>
<!-- Node1&#45;&gt;Node10 -->
<g id="edge9_Node000001_Node000010" class="edge">
<title>Node1&#45;&gt;Node10</title>
<g id="a_edge9_Node000001_Node000010"><a xlink:title=" ">
<path fill="none" stroke="#63b8ff" d="M68.57,-892.14C71.47,-997.32 87.85,-1400.91 170,-1491 178.52,-1500.34 189.53,-1506.93 201.37,-1511.55"/>
<polygon fill="#63b8ff" stroke="#63b8ff" points="72.07,-892.02 68.31,-882.12 65.07,-892.2 72.07,-892.02"/>
</a>
</g>
</g>
<!-- Node12 -->
<g id="Node000012" class="node">
<title>Node12</title>
<g id="a_Node000012"><a xlink:href="classdi_1_1container_1_1ViewInterface.html" target="_top" xlink:title=" ">
<polygon fill="white" stroke="#666666" points="377,-1482 196,-1482 196,-1452 377,-1452 377,-1482"/>
<text text-anchor="start" x="204" y="-1470" font-family="Helvetica,sans-Serif" font-size="10.00">di::container::ViewInterface</text>
<text text-anchor="middle" x="286.5" y="-1459" font-family="Helvetica,sans-Serif" font-size="10.00">&lt; ChunkByView&lt; View, Pred &gt; &gt;</text>
</a>
</g>
</g>
<!-- Node1&#45;&gt;Node12 -->
<g id="edge11_Node000001_Node000012" class="edge">
<title>Node1&#45;&gt;Node12</title>
<g id="a_edge11_Node000001_Node000012"><a xlink:title=" ">
<path fill="none" stroke="#63b8ff" d="M68.83,-892.21C72.66,-992.64 91.93,-1362.58 170,-1443 177.28,-1450.49 186.24,-1455.96 195.92,-1459.9"/>
<polygon fill="#63b8ff" stroke="#63b8ff" points="72.32,-891.95 68.46,-882.09 65.33,-892.21 72.32,-891.95"/>
</a>
</g>
</g>
<!-- Node14 -->
<g id="Node000014" class="node">
<title>Node14</title>
<g id="a_Node000014"><a xlink:href="classdi_1_1container_1_1ViewInterface.html" target="_top" xlink:title=" ">
<polygon fill="white" stroke="#666666" points="362,-1434 211,-1434 211,-1404 362,-1404 362,-1434"/>
<text text-anchor="start" x="219" y="-1422" font-family="Helvetica,sans-Serif" font-size="10.00">di::container::ViewInterface</text>
<text text-anchor="middle" x="286.5" y="-1411" font-family="Helvetica,sans-Serif" font-size="10.00">&lt; ChunkView&lt; View &gt; &gt;</text>
</a>
</g>
</g>
<!-- Node1&#45;&gt;Node14 -->
<g id="edge13_Node000001_Node000014" class="edge">
<title>Node1&#45;&gt;Node14</title>
<g id="a_edge13_Node000001_Node000014"><a xlink:title=" ">
<path fill="none" stroke="#63b8ff" d="M69.27,-892.24C74.59,-987.32 98.2,-1322.18 170,-1395 180.93,-1406.08 195.55,-1412.7 210.7,-1416.53"/>
<polygon fill="#63b8ff" stroke="#63b8ff" points="72.76,-891.9 68.73,-882.1 65.77,-892.28 72.76,-891.9"/>
</a>
</g>
</g>
<!-- Node16 -->
<g id="Node000016" class="node">
<title>Node16</title>
<g id="a_Node000016"><a xlink:href="classdi_1_1container_1_1ViewInterface.html" target="_top" xlink:title=" ">
<polygon fill="white" stroke="#666666" points="362,-1386 211,-1386 211,-1356 362,-1356 362,-1386"/>
<text text-anchor="start" x="219" y="-1374" font-family="Helvetica,sans-Serif" font-size="10.00">di::container::ViewInterface</text>
<text text-anchor="middle" x="286.5" y="-1363" font-family="Helvetica,sans-Serif" font-size="10.00">&lt; ValueType &gt;</text>
</a>
</g>
</g>
<!-- Node1&#45;&gt;Node16 -->
<g id="edge15_Node000001_Node000016" class="edge">
<title>Node1&#45;&gt;Node16</title>
<g id="a_edge15_Node000001_Node000016"><a xlink:title=" ">
<path fill="none" stroke="#63b8ff" d="M69.82,-892.55C76.76,-982.37 104.51,-1281.8 170,-1347 181.03,-1357.98 195.69,-1364.56 210.86,-1368.38"/>
<polygon fill="#63b8ff" stroke="#63b8ff" points="73.3,-892.14 69.06,-882.43 66.32,-892.67 73.3,-892.14"/>
</a>
</g>
</g>
<!-- Node17 -->
<g id="Node000017" class="node">
<title>Node17</title>
<g id="a_Node000017"><a xlink:href="classdi_1_1container_1_1ViewInterface.html" target="_top" xlink:title=" ">
<polygon fill="white" stroke="#666666" points="363.5,-1338 209.5,-1338 209.5,-1308 363.5,-1308 363.5,-1338"/>
<text text-anchor="start" x="217.5" y="-1326" font-family="Helvetica,sans-Serif" font-size="10.00">di::container::ViewInterface</text>
<text text-anchor="middle" x="286.5" y="-1315" font-family="Helvetica,sans-Serif" font-size="10.00">&lt; CommonView&lt; View &gt; &gt;</text>
</a>
</g>
</g>
<!-- Node1&#45;&gt;Node17 -->
<g id="edge16_Node000001_Node000017" class="edge">
<title>Node1&#45;&gt;Node17</title>
<g id="a_edge16_Node000001_Node000017"><a xlink:title=" ">
<path fill="none" stroke="#63b8ff" d="M70.46,-892.42C79.08,-976.15 110.68,-1241.26 170,-1299 180.71,-1309.43 194.71,-1315.86 209.24,-1319.73"/>
<polygon fill="#63b8ff" stroke="#63b8ff" points="73.92,-891.87 69.44,-882.27 66.96,-892.57 73.92,-891.87"/>
</a>
</g>
</g>
<!-- Node19 -->
<g id="Node000019" class="node">
<title>Node19</title>
<g id="a_Node000019"><a xlink:href="classdi_1_1container_1_1ViewInterface.html" target="_top" xlink:title=" ">
<polygon fill="white" stroke="#666666" points="365.5,-1290 207.5,-1290 207.5,-1260 365.5,-1260 365.5,-1290"/>
<text text-anchor="start" x="215.5" y="-1278" font-family="Helvetica,sans-Serif" font-size="10.00">di::container::ViewInterface</text>
<text text-anchor="middle" x="286.5" y="-1267" font-family="Helvetica,sans-Serif" font-size="10.00">&lt; ConcatView&lt; Views... &gt; &gt;</text>
</a>
</g>
</g>
<!-- Node1&#45;&gt;Node19 -->
<g id="edge18_Node000001_Node000019" class="edge">
<title>Node1&#45;&gt;Node19</title>
<g id="a_edge18_Node000001_Node000019"><a xlink:title=" ">
<path fill="none" stroke="#63b8ff" d="M71.29,-892.6C81.77,-970.22 116.88,-1200.72 170,-1251 180.34,-1260.79 193.57,-1267.03 207.37,-1270.93"/>
<polygon fill="#63b8ff" stroke="#63b8ff" points="74.71,-891.75 69.92,-882.3 67.77,-892.67 74.71,-891.75"/>
</a>
</g>
</g>
<!-- Node21 -->
<g id="Node000021" class="node">
<title>Node21</title>
<g id="a_Node000021"><a xlink:href="classdi_1_1container_1_1ViewInterface.html" target="_top" xlink:title=" ">
<polygon fill="white" stroke="#666666" points="362,-1242 211,-1242 211,-1212 362,-1212 362,-1242"/>
<text text-anchor="start" x="219" y="-1230" font-family="Helvetica,sans-Serif" font-size="10.00">di::container::ViewInterface</text>
<text text-anchor="middle" x="286.5" y="-1219" font-family="Helvetica,sans-Serif" font-size="10.00">&lt; CycleView&lt; View &gt; &gt;</text>
</a>
</g>
</g>
<!-- Node1&#45;&gt;Node21 -->
<g id="edge20_Node000001_Node000021" class="edge">
<title>Node1&#45;&gt;Node21</title>
<g id="a_edge20_Node000001_Node000021"><a xlink:title=" ">
<path fill="none" stroke="#63b8ff" d="M67.55,-892.35C67.91,-955.17 78.1,-1119 170,-1203 181.34,-1213.36 195.95,-1219.71 210.94,-1223.51"/>
<polygon fill="#63b8ff" stroke="#63b8ff" points="71.05,-892.18 67.58,-882.17 64.05,-892.16 71.05,-892.18"/>
</a>
</g>
</g>
<!-- Node23 -->
<g id="Node000023" class="node">
<title>Node23</title>
<g id="a_Node000023"><a xlink:href="classdi_1_1container_1_1ViewInterface.html" target="_top" xlink:title=" ">
<polygon fill="white" stroke="#666666" points="362,-1194 211,-1194 211,-1164 362,-1164 362,-1194"/>
<text text-anchor="start" x="219" y="-1182" font-family="Helvetica,sans-Serif" font-size="10.00">di::container::ViewInterface</text>
<text text-anchor="middle" x="286.5" y="-1171" font-family="Helvetica,sans-Serif" font-size="10.00">&lt; DropView&lt; View &gt; &gt;</text>
</a>
</g>
</g>
<!-- Node1&#45;&gt;Node23 -->
<g id="edge22_Node000001_Node000023" class="edge">
<title>Node1&#45;&gt;Node23</title>
<g id="a_edge22_Node000001_Node000023"><a xlink:title=" ">
<path fill="none" stroke="#63b8ff" d="M69.03,-892.17C72.75,-948.48 90.02,-1085.18 170,-1155 181.49,-1165.03 196.08,-1171.26 210.99,-1175.05"/>
<polygon fill="#63b8ff" stroke="#63b8ff" points="72.51,-891.8 68.45,-882.02 65.52,-892.2 72.51,-891.8"/>
</a>
</g>
</g>
<!-- Node25 -->
<g id="Node000025" class="node">
<title>Node25</title>
<g id="a_Node000025"><a xlink:href="classdi_1_1container_1_1ViewInterface.html" target="_top" xlink:title=" ">
<polygon fill="white" stroke="#666666" points="380.5,-1146 192.5,-1146 192.5,-1116 380.5,-1116 380.5,-1146"/>
<text text-anchor="start" x="200.5" y="-1134" font-family="Helvetica,sans-Serif" font-size="10.00">di::container::ViewInterface</text>
<text text-anchor="middle" x="286.5" y="-1123" font-family="Helvetica,sans-Serif" font-size="10.00">&lt; DropWhileView&lt; View, Pred &gt; &gt;</text>
</a>
</g>
</g>
<!-- Node1&#45;&gt;Node25 -->
<g id="edge24_Node000001_Node000025" class="edge">
<title>Node1&#45;&gt;Node25</title>
<g id="a_edge24_Node000001_Node000025"><a xlink:title=" ">
<path fill="none" stroke="#63b8ff" d="M71.07,-892.38C78.45,-941.85 101.98,-1051.22 170,-1107 176.65,-1112.45 184.23,-1116.77 192.25,-1120.16"/>
<polygon fill="#63b8ff" stroke="#63b8ff" points="74.5,-891.65 69.65,-882.23 67.57,-892.62 74.5,-891.65"/>
</a>
</g>
</g>
<!-- Node27 -->
<g id="Node000027" class="node">
<title>Node27</title>
<g id="a_Node000027"><a xlink:href="classdi_1_1container_1_1ViewInterface.html" target="_top" xlink:title=" ">
<polygon fill="#fff0f0" stroke="red" points="380.5,-1098 192.5,-1098 192.5,-1068 380.5,-1068 380.5,-1098"/>
<text text-anchor="start" x="200.5" y="-1086" font-family="Helvetica,sans-Serif" font-size="10.00">di::container::ViewInterface</text>
<text text-anchor="middle" x="286.5" y="-1075" font-family="Helvetica,sans-Serif" font-size="10.00">&lt; ElementsView&lt; View, index &gt; &gt;</text>
</a>
</g>
</g>
<!-- Node1&#45;&gt;Node27 -->
<g id="edge26_Node000001_Node000027" class="edge">
<title>Node1&#45;&gt;Node27</title>
<g id="a_edge26_Node000001_Node000027"><a xlink:title=" ">
<path fill="none" stroke="#63b8ff" d="M73.89,-891.96C85.08,-933.54 113.48,-1016.59 170,-1059 176.8,-1064.1 184.43,-1068.18 192.44,-1071.43"/>
<polygon fill="#63b8ff" stroke="#63b8ff" points="77.24,-890.91 71.36,-882.1 70.46,-892.65 77.24,-890.91"/>
</a>
</g>
</g>
<!-- Node29 -->
<g id="Node000029" class="node">
<title>Node29</title>
<g id="a_Node000029"><a xlink:href="classdi_1_1container_1_1ViewInterface.html" target="_top" xlink:title=" ">
<polygon fill="#fff0f0" stroke="red" points="362,-1050 211,-1050 211,-1020 362,-1020 362,-1050"/>
<text text-anchor="start" x="219" y="-1038" font-family="Helvetica,sans-Serif" font-size="10.00">di::container::ViewInterface</text>
<text text-anchor="middle" x="286.5" y="-1027" font-family="Helvetica,sans-Serif" font-size="10.00">&lt; EmptyView&lt; T &gt; &gt;</text>
</a>
</g>
</g>
<!-- Node1&#45;&gt;Node29 -->
<g id="edge27_Node000001_Node000029" class="edge">
<title>Node1&#45;&gt;Node29</title>
<g id="a_edge27_Node000001_Node000029"><a xlink:title=" ">
<path fill="none" stroke="#63b8ff" d="M78.26,-891.35C93.34,-924.01 124.7,-981.34 170,-1011 182.17,-1018.97 196.47,-1024.36 210.78,-1027.99"/>
<polygon fill="#63b8ff" stroke="#63b8ff" points="81.38,-889.76 74.1,-882.06 74.99,-892.62 81.38,-889.76"/>
</a>
</g>
</g>
<!-- Node31 -->
<g id="Node000031" class="node">
<title>Node31</title>
<g id="a_Node000031"><a xlink:href="classdi_1_1container_1_1ViewInterface.html" target="_top" xlink:title=" ">
<polygon fill="#fff0f0" stroke="red" points="368,-1002 205,-1002 205,-972 368,-972 368,-1002"/>
<text text-anchor="start" x="213" y="-990" font-family="Helvetica,sans-Serif" font-size="10.00">di::container::ViewInterface</text>
<text text-anchor="middle" x="286.5" y="-979" font-family="Helvetica,sans-Serif" font-size="10.00">&lt; EnumerateView&lt; View &gt; &gt;</text>
</a>
</g>
</g>
<!-- Node1&#45;&gt;Node31 -->
<g id="edge28_Node000001_Node000031" class="edge">
<title>Node1&#45;&gt;Node31</title>
<g id="a_edge28_Node000001_Node000031"><a xlink:title=" ">
<path fill="none" stroke="#63b8ff" d="M85.85,-889.96C104.42,-912.19 135.57,-945.08 170,-963 180.81,-968.63 192.83,-972.93 204.92,-976.23"/>
<polygon fill="#63b8ff" stroke="#63b8ff" points="88.4,-887.55 79.37,-882.01 82.98,-891.97 88.4,-887.55"/>
</a>
</g>
</g>
<!-- Node33 -->
<g id="Node000033" class="node">
<title>Node33</title>
<g id="a_Node000033"><a xlink:href="classdi_1_1container_1_1ViewInterface.html" target="_top" xlink:title=" ">
<polygon fill="#fff0f0" stroke="red" points="367.5,-954 205.5,-954 205.5,-924 367.5,-924 367.5,-954"/>
<text text-anchor="start" x="213.5" y="-942" font-family="Helvetica,sans-Serif" font-size="10.00">di::container::ViewInterface</text>
<text text-anchor="middle" x="286.5" y="-931" font-family="Helvetica,sans-Serif" font-size="10.00">&lt; FilterView&lt; View, Pred &gt; &gt;</text>
</a>
</g>
</g>
<!-- Node1&#45;&gt;Node33 -->
<g id="edge29_Node000001_Node000033" class="edge">
<title>Node1&#45;&gt;Node33</title>
<g id="a_edge29_Node000001_Node000033"><a xlink:title=" ">
<path fill="none" stroke="#63b8ff" d="M104.36,-886.67C123.45,-896.33 147.51,-907.49 170,-915 181.27,-918.76 193.36,-922.05 205.32,-924.89"/>
<polygon fill="#63b8ff" stroke="#63b8ff" points="105.91,-883.53 95.41,-882.06 102.7,-889.75 105.91,-883.53"/>
</a>
</g>
</g>
<!-- Node35 -->
<g id="Node000035" class="node">
<title>Node35</title>
<g id="a_Node000035"><a xlink:href="classdi_1_1container_1_1ViewInterface.html" target="_top" xlink:title=" ">
<polygon fill="white" stroke="#666666" points="395.5,-906 177.5,-906 177.5,-876 395.5,-876 395.5,-906"/>
<text text-anchor="start" x="185.5" y="-894" font-family="Helvetica,sans-Serif" font-size="10.00">di::container::ViewInterface</text>
<text text-anchor="middle" x="286.5" y="-883" font-family="Helvetica,sans-Serif" font-size="10.00">&lt; IotaView&lt; T, UnreachableSentinel &gt; &gt;</text>
</a>
</g>
</g>
<!-- Node1&#45;&gt;Node35 -->
<g id="edge30_Node000001_Node000035" class="edge">
<title>Node1&#45;&gt;Node35</title>
<g id="a_edge30_Node000001_Node000035"><a xlink:title=" ">
<path fill="none" stroke="#63b8ff" d="M144.21,-875.41C154.88,-876.59 166,-877.81 177.12,-879.04"/>
<polygon fill="#63b8ff" stroke="#63b8ff" points="144.47,-871.92 134.14,-874.3 143.7,-878.87 144.47,-871.92"/>
</a>
</g>
</g>
<!-- Node36 -->
<g id="Node000036" class="node">
<title>Node36</title>
<g id="a_Node000036"><a xlink:href="classdi_1_1container_1_1ViewInterface.html" target="_top" xlink:title=" ">
<polygon fill="#fff0f0" stroke="red" points="362,-858 211,-858 211,-828 362,-828 362,-858"/>
<text text-anchor="start" x="219" y="-846" font-family="Helvetica,sans-Serif" font-size="10.00">di::container::ViewInterface</text>
<text text-anchor="middle" x="286.5" y="-835" font-family="Helvetica,sans-Serif" font-size="10.00">&lt; JoinView&lt; View &gt; &gt;</text>
</a>
</g>
</g>
<!-- Node1&#45;&gt;Node36 -->
<g id="edge31_Node000001_Node000036" class="edge">
<title>Node1&#45;&gt;Node36</title>
<g id="a_edge31_Node000001_Node000036"><a xlink:title=" ">
<path fill="none" stroke="#63b8ff" d="M144.26,-858.59C165.89,-856.2 189.4,-853.6 210.93,-851.23"/>
<polygon fill="#63b8ff" stroke="#63b8ff" points="143.7,-855.13 134.14,-859.7 144.47,-862.08 143.7,-855.13"/>
</a>
</g>
</g>
<!-- Node38 -->
<g id="Node000038" class="node">
<title>Node38</title>
<g id="a_Node000038"><a xlink:href="classdi_1_1container_1_1ViewInterface.html" target="_top" xlink:title=" ">
<polygon fill="#fff0f0" stroke="red" points="382,-810 191,-810 191,-780 382,-780 382,-810"/>
<text text-anchor="start" x="199" y="-798" font-family="Helvetica,sans-Serif" font-size="10.00">di::container::ViewInterface</text>
<text text-anchor="middle" x="286.5" y="-787" font-family="Helvetica,sans-Serif" font-size="10.00">&lt; JoinWithView&lt; View, Pattern &gt; &gt;</text>
</a>
</g>
</g>
<!-- Node1&#45;&gt;Node38 -->
<g id="edge32_Node000001_Node000038" class="edge">
<title>Node1&#45;&gt;Node38</title>
<g id="a_edge32_Node000001_Node000038"><a xlink:title=" ">
<path fill="none" stroke="#63b8ff" d="M104.36,-847.33C123.45,-837.67 147.51,-826.51 170,-819 180.1,-815.63 190.86,-812.63 201.6,-810"/>
<polygon fill="#63b8ff" stroke="#63b8ff" points="102.7,-844.25 95.41,-851.94 105.91,-850.47 102.7,-844.25"/>
</a>
</g>
</g>
<!-- Node40 -->
<g id="Node000040" class="node">
<title>Node40</title>
<g id="a_Node000040"><a xlink:href="classdi_1_1container_1_1ViewInterface.html" target="_top" xlink:title=" ">
<polygon fill="#fff0f0" stroke="red" points="362,-762 211,-762 211,-732 362,-732 362,-762"/>
<text text-anchor="start" x="219" y="-750" font-family="Helvetica,sans-Serif" font-size="10.00">di::container::ViewInterface</text>
<text text-anchor="middle" x="286.5" y="-739" font-family="Helvetica,sans-Serif" font-size="10.00">&lt; OwningView&lt; Cont &gt; &gt;</text>
</a>
</g>
</g>
<!-- Node1&#45;&gt;Node40 -->
<g id="edge33_Node000001_Node000040" class="edge">
<title>Node1&#45;&gt;Node40</title>
<g id="a_edge33_Node000001_Node000040"><a xlink:title=" ">
<path fill="none" stroke="#63b8ff" d="M85.85,-844.04C104.42,-821.81 135.57,-788.92 170,-771 182.53,-764.47 196.7,-759.72 210.71,-756.26"/>
<polygon fill="#63b8ff" stroke="#63b8ff" points="82.98,-842.03 79.37,-851.99 88.4,-846.45 82.98,-842.03"/>
</a>
</g>
</g>
<!-- Node42 -->
<g id="Node000042" class="node">
<title>Node42</title>
<g id="a_Node000042"><a xlink:href="classdi_1_1container_1_1ViewInterface.html" target="_top" xlink:title=" ">
<polygon fill="#fff0f0" stroke="red" points="362,-714 211,-714 211,-684 362,-684 362,-714"/>
<text text-anchor="start" x="219" y="-702" font-family="Helvetica,sans-Serif" font-size="10.00">di::container::ViewInterface</text>
<text text-anchor="middle" x="286.5" y="-691" font-family="Helvetica,sans-Serif" font-size="10.00">&lt; RefView&lt; Cont &gt; &gt;</text>
</a>
</g>
</g>
<!-- Node1&#45;&gt;Node42 -->
<g id="edge34_Node000001_Node000042" class="edge">
<title>Node1&#45;&gt;Node42</title>
<g id="a_edge34_Node000001_Node000042"><a xlink:title=" ">
<path fill="none" stroke="#63b8ff" d="M78.26,-842.65C93.34,-809.99 124.7,-752.66 170,-723 182.17,-715.03 196.47,-709.64 210.78,-706.01"/>
<polygon fill="#63b8ff" stroke="#63b8ff" points="74.99,-841.38 74.1,-851.94 81.38,-844.24 74.99,-841.38"/>
</a>
</g>
</g>
<!-- Node44 -->
<g id="Node000044" class="node">
<title>Node44</title>
<g id="a_Node000044"><a xlink:href="classdi_1_1container_1_1ViewInterface.html" target="_top" xlink:title=" ">
<polygon fill="white" stroke="#666666" points="403,-666 170,-666 170,-636 403,-636 403,-666"/>
<text text-anchor="start" x="178" y="-654" font-family="Helvetica,sans-Serif" font-size="10.00">di::container::ViewInterface</text>
<text text-anchor="middle" x="286.5" y="-643" font-family="Helvetica,sans-Serif" font-size="10.00">&lt; RepeatView&lt; T, UnreachableSentinel &gt; &gt;</text>
</a>
</g>
</g>
<!-- Node1&#45;&gt;Node44 -->
<g id="edge35_Node000001_Node000044" class="edge">
<title>Node1&#45;&gt;Node44</title>
<g id="a_edge35_Node000001_Node000044"><a xlink:title=" ">
<path fill="none" stroke="#63b8ff" d="M73.89,-842.04C85.08,-800.46 113.48,-717.41 170,-675 174.59,-671.56 179.55,-668.58 184.76,-666.01"/>
<polygon fill="#63b8ff" stroke="#63b8ff" points="70.46,-841.35 71.36,-851.9 77.24,-843.09 70.46,-841.35"/>
</a>
</g>
</g>
<!-- Node45 -->
<g id="Node000045" class="node">
<title>Node45</title>
<g id="a_Node000045"><a xlink:href="classdi_1_1container_1_1ViewInterface.html" target="_top" xlink:title=" ">
<polygon fill="#fff0f0" stroke="red" points="362,-618 211,-618 211,-588 362,-588 362,-618"/>
<text text-anchor="start" x="219" y="-606" font-family="Helvetica,sans-Serif" font-size="10.00">di::container::ViewInterface</text>
<text text-anchor="middle" x="286.5" y="-595" font-family="Helvetica,sans-Serif" font-size="10.00">&lt; ReverseView&lt; View &gt; &gt;</text>
</a>
</g>
</g>
<!-- Node1&#45;&gt;Node45 -->
<g id="edge36_Node000001_Node000045" class="edge">
<title>Node1&#45;&gt;Node45</title>
<g id="a_edge36_Node000001_Node000045"><a xlink:title=" ">
<path fill="none" stroke="#63b8ff" d="M71.07,-841.62C78.45,-792.15 101.98,-682.78 170,-627 181.64,-617.45 196.12,-611.41 210.84,-607.65"/>
<polygon fill="#63b8ff" stroke="#63b8ff" points="67.57,-841.38 69.65,-851.77 74.5,-842.35 67.57,-841.38"/>
</a>
</g>
</g>
<!-- Node47 -->
<g id="Node000047" class="node">
<title>Node47</title>
<g id="a_Node000047"><a xlink:href="classdi_1_1container_1_1ViewInterface.html" target="_top" xlink:title=" ">
<polygon fill="#fff0f0" stroke="red" points="362,-570 211,-570 211,-540 362,-540 362,-570"/>
<text text-anchor="start" x="219" y="-558" font-family="Helvetica,sans-Serif" font-size="10.00">di::container::ViewInterface</text>
<text text-anchor="middle" x="286.5" y="-547" font-family="Helvetica,sans-Serif" font-size="10.00">&lt; SingleView&lt; T &gt; &gt;</text>
</a>
</g>
</g>
<!-- Node1&#45;&gt;Node47 -->
<g id="edge37_Node000001_Node000047" class="edge">
<title>Node1&#45;&gt;Node47</title>
<g id="a_edge37_Node000001_Node000047"><a xlink:title=" ">
<path fill="none" stroke="#63b8ff" d="M69.03,-841.83C72.75,-785.52 90.02,-648.82 170,-579 181.49,-568.97 196.08,-562.74 210.99,-558.95"/>
<polygon fill="#63b8ff" stroke="#63b8ff" points="65.52,-841.8 68.45,-851.98 72.51,-842.2 65.52,-841.8"/>
</a>
</g>
</g>
<!-- Node49 -->
<g id="Node000049" class="node">
<title>Node49</title>
<g id="a_Node000049"><a xlink:href="classdi_1_1container_1_1ViewInterface.html" target="_top" xlink:title=" ">
<polygon fill="#fff0f0" stroke="red" points="362,-522 211,-522 211,-492 362,-492 362,-522"/>
<text text-anchor="start" x="219" y="-510" font-family="Helvetica,sans-Serif" font-size="10.00">di::container::ViewInterface</text>
<text text-anchor="middle" x="286.5" y="-499" font-family="Helvetica,sans-Serif" font-size="10.00">&lt; SlideView&lt; View &gt; &gt;</text>
</a>
</g>
</g>
<!-- Node1&#45;&gt;Node49 -->
<g id="edge38_Node000001_Node000049" class="edge">
<title>Node1&#45;&gt;Node49</title>
<g id="a_edge38_Node000001_Node000049"><a xlink:title=" ">
<path fill="none" stroke="#63b8ff" d="M67.55,-841.65C67.91,-778.83 78.1,-615 170,-531 181.34,-520.64 195.95,-514.29 210.94,-510.49"/>
<polygon fill="#63b8ff" stroke="#63b8ff" points="64.05,-841.84 67.58,-851.83 71.05,-841.82 64.05,-841.84"/>
</a>
</g>
</g>
<!-- Node51 -->
<g id="Node000051" class="node">
<title>Node51</title>
<g id="a_Node000051"><a xlink:href="classdi_1_1container_1_1ViewInterface.html" target="_top" xlink:title=" ">
<polygon fill="#fff0f0" stroke="red" points="372.5,-474 200.5,-474 200.5,-444 372.5,-444 372.5,-474"/>
<text text-anchor="start" x="208.5" y="-462" font-family="Helvetica,sans-Serif" font-size="10.00">di::container::ViewInterface</text>
<text text-anchor="middle" x="286.5" y="-451" font-family="Helvetica,sans-Serif" font-size="10.00">&lt; SplitView&lt; View, Pattern &gt; &gt;</text>
</a>
</g>
</g>
<!-- Node1&#45;&gt;Node51 -->
<g id="edge39_Node000001_Node000051" class="edge">
<title>Node1&#45;&gt;Node51</title>
<g id="a_edge39_Node000001_Node000051"><a xlink:title=" ">
<path fill="none" stroke="#63b8ff" d="M71.29,-841.4C81.77,-763.78 116.88,-533.28 170,-483 178.55,-474.9 189.09,-469.23 200.29,-465.31"/>
<polygon fill="#63b8ff" stroke="#63b8ff" points="67.77,-841.33 69.92,-851.7 74.71,-842.25 67.77,-841.33"/>
</a>
</g>
</g>
<!-- Node53 -->
<g id="Node000053" class="node">
<title>Node53</title>
<g id="a_Node000053"><a xlink:href="classdi_1_1container_1_1ViewInterface.html" target="_top" xlink:title=" ">
<polygon fill="#fff0f0" stroke="red" points="362,-426 211,-426 211,-396 362,-396 362,-426"/>
<text text-anchor="start" x="219" y="-414" font-family="Helvetica,sans-Serif" font-size="10.00">di::container::ViewInterface</text>
<text text-anchor="middle" x="286.5" y="-403" font-family="Helvetica,sans-Serif" font-size="10.00">&lt; StrideView&lt; View &gt; &gt;</text>
</a>
</g>
</g>
<!-- Node1&#45;&gt;Node53 -->
<g id="edge40_Node000001_Node000053" class="edge">
<title>Node1&#45;&gt;Node53</title>
<g id="a_edge40_Node000001_Node000053"><a xlink:title=" ">
<path fill="none" stroke="#63b8ff" d="M70.46,-841.58C79.08,-757.85 110.68,-492.74 170,-435 181.08,-424.21 195.67,-417.7 210.74,-413.88"/>
<polygon fill="#63b8ff" stroke="#63b8ff" points="66.96,-841.43 69.44,-851.73 73.92,-842.13 66.96,-841.43"/>
</a>
</g>
</g>
<!-- Node55 -->
<g id="Node000055" class="node">
<title>Node55</title>
<g id="a_Node000055"><a xlink:href="classdi_1_1container_1_1ViewInterface.html" target="_top" xlink:title=" ">
<polygon fill="#fff0f0" stroke="red" points="362,-378 211,-378 211,-348 362,-348 362,-378"/>
<text text-anchor="start" x="219" y="-366" font-family="Helvetica,sans-Serif" font-size="10.00">di::container::ViewInterface</text>
<text text-anchor="middle" x="286.5" y="-355" font-family="Helvetica,sans-Serif" font-size="10.00">&lt; TakeView&lt; View &gt; &gt;</text>
</a>
</g>
</g>
<!-- Node1&#45;&gt;Node55 -->
<g id="edge41_Node000001_Node000055" class="edge">
<title>Node1&#45;&gt;Node55</title>
<g id="a_edge41_Node000001_Node000055"><a xlink:title=" ">
<path fill="none" stroke="#63b8ff" d="M69.82,-841.45C76.76,-751.63 104.51,-452.2 170,-387 181.03,-376.02 195.69,-369.44 210.86,-365.62"/>
<polygon fill="#63b8ff" stroke="#63b8ff" points="66.32,-841.33 69.06,-851.57 73.3,-841.86 66.32,-841.33"/>
</a>
</g>
</g>
<!-- Node57 -->
<g id="Node000057" class="node">
<title>Node57</title>
<g id="a_Node000057"><a xlink:href="classdi_1_1container_1_1ViewInterface.html" target="_top" xlink:title=" ">
<polygon fill="#fff0f0" stroke="red" points="380,-330 193,-330 193,-300 380,-300 380,-330"/>
<text text-anchor="start" x="201" y="-318" font-family="Helvetica,sans-Serif" font-size="10.00">di::container::ViewInterface</text>
<text text-anchor="middle" x="286.5" y="-307" font-family="Helvetica,sans-Serif" font-size="10.00">&lt; TakeWhileView&lt; View, Pred &gt; &gt;</text>
</a>
</g>
</g>
<!-- Node1&#45;&gt;Node57 -->
<g id="edge42_Node000001_Node000057" class="edge">
<title>Node1&#45;&gt;Node57</title>
<g id="a_edge42_Node000001_Node000057"><a xlink:title=" ">
<path fill="none" stroke="#63b8ff" d="M69.27,-841.76C74.59,-746.68 98.2,-411.82 170,-339 176.54,-332.36 184.41,-327.33 192.92,-323.54"/>
<polygon fill="#63b8ff" stroke="#63b8ff" points="65.77,-841.72 68.73,-851.9 72.76,-842.1 65.77,-841.72"/>
</a>
</g>
</g>
<!-- Node59 -->
<g id="Node000059" class="node">
<title>Node59</title>
<g id="a_Node000059"><a xlink:href="classdi_1_1container_1_1ViewInterface.html" target="_top" xlink:title=" ">
<polygon fill="#fff0f0" stroke="red" points="371.5,-282 201.5,-282 201.5,-252 371.5,-252 371.5,-282"/>
<text text-anchor="start" x="209.5" y="-270" font-family="Helvetica,sans-Serif" font-size="10.00">di::container::ViewInterface</text>
<text text-anchor="middle" x="286.5" y="-259" font-family="Helvetica,sans-Serif" font-size="10.00">&lt; TransformView&lt; View, F &gt; &gt;</text>
</a>
</g>
</g>
<!-- Node1&#45;&gt;Node59 -->
<g id="edge43_Node000001_Node000059" class="edge">
<title>Node1&#45;&gt;Node59</title>
<g id="a_edge43_Node000001_Node000059"><a xlink:title=" ">
<path fill="none" stroke="#63b8ff" d="M68.83,-841.79C72.66,-741.36 91.93,-371.42 170,-291 178.63,-282.11 189.63,-276.08 201.4,-272.06"/>
<polygon fill="#63b8ff" stroke="#63b8ff" points="65.33,-841.79 68.46,-851.91 72.32,-842.05 65.33,-841.79"/>
</a>
</g>
</g>
<!-- Node61 -->
<g id="Node000061" class="node">
<title>Node61</title>
<g id="a_Node000061"><a xlink:href="classdi_1_1container_1_1ViewInterface.html" target="_top" xlink:title=" ">
<polygon fill="white" stroke="#666666" points="380.5,-233.5 192.5,-233.5 192.5,-192.5 380.5,-192.5 380.5,-233.5"/>
<text text-anchor="start" x="200.5" y="-221.5" font-family="Helvetica,sans-Serif" font-size="10.00">di::container::ViewInterface</text>
<text text-anchor="start" x="200.5" y="-210.5" font-family="Helvetica,sans-Serif" font-size="10.00">&lt; View&lt; Iter, Iter, concepts</text>
<text text-anchor="middle" x="286.5" y="-199.5" font-family="Helvetica,sans-Serif" font-size="10.00">::SizedSentinelFor&lt; Iter, Iter &gt; &gt; &gt;</text>
</a>
</g>
</g>
<!-- Node1&#45;&gt;Node61 -->
<g id="edge44_Node000001_Node000061" class="edge">
<title>Node1&#45;&gt;Node61</title>
<g id="a_edge44_Node000001_Node000061"><a xlink:title=" ">
<path fill="none" stroke="#63b8ff" d="M68.57,-841.86C71.47,-736.68 87.85,-333.09 170,-243 176.28,-236.11 183.92,-230.72 192.25,-226.51"/>
<polygon fill="#63b8ff" stroke="#63b8ff" points="65.07,-841.8 68.31,-851.88 72.07,-841.98 65.07,-841.8"/>
</a>
</g>
</g>
<!-- Node62 -->
<g id="Node000062" class="node">
<title>Node62</title>
<g id="a_Node000062"><a xlink:href="classdi_1_1container_1_1ViewInterface.html" target="_top" xlink:title=" ">
<polygon fill="#fff0f0" stroke="red" points="386.5,-174 186.5,-174 186.5,-144 386.5,-144 386.5,-174"/>
<text text-anchor="start" x="194.5" y="-162" font-family="Helvetica,sans-Serif" font-size="10.00">di::container::ViewInterface</text>
<text text-anchor="middle" x="286.5" y="-151" font-family="Helvetica,sans-Serif" font-size="10.00">&lt; ZipTransformView&lt; F, Views... &gt; &gt;</text>
</a>
</g>
</g>
<!-- Node1&#45;&gt;Node62 -->
<g id="edge45_Node000001_Node000062" class="edge">
<title>Node1&#45;&gt;Node62</title>
<g id="a_edge45_Node000001_Node000062"><a xlink:title=" ">
<path fill="none" stroke="#63b8ff" d="M68.06,-841.55C68.85,-729.4 77.83,-280.56 170,-183 174.78,-177.94 180.33,-173.8 186.36,-170.42"/>
<polygon fill="#63b8ff" stroke="#63b8ff" points="64.56,-841.87 68,-851.89 71.56,-841.91 64.56,-841.87"/>
</a>
</g>
</g>
<!-- Node64 -->
<g id="Node000064" class="node">
<title>Node64</title>
<g id="a_Node000064"><a xlink:href="classdi_1_1container_1_1ViewInterface.html" target="_top" xlink:title=" ">
<polygon fill="#fff0f0" stroke="red" points="362,-126 211,-126 211,-96 362,-96 362,-126"/>
<text text-anchor="start" x="219" y="-114" font-family="Helvetica,sans-Serif" font-size="10.00">di::container::ViewInterface</text>
<text text-anchor="middle" x="286.5" y="-103" font-family="Helvetica,sans-Serif" font-size="10.00">&lt; ZipView&lt; Views... &gt; &gt;</text>
</a>
</g>
</g>
<!-- Node1&#45;&gt;Node64 -->
<g id="edge46_Node000001_Node000064" class="edge">
<title>Node1&#45;&gt;Node64</title>
<g id="a_edge46_Node000001_Node000064"><a xlink:title=" ">
<path fill="none" stroke="#63b8ff" d="M67.78,-841.65C67.33,-724.9 71.48,-240.29 170,-135 180.77,-123.48 195.52,-116.73 210.87,-112.9"/>
<polygon fill="#63b8ff" stroke="#63b8ff" points="64.29,-841.79 67.84,-851.77 71.29,-841.75 64.29,-841.79"/>
</a>
</g>
</g>
<!-- Node67 -->
<g id="Node000067" class="node">
<title>Node67</title>
<g id="a_Node000067"><a xlink:href="classdi_1_1container_1_1ViewInterface.html" target="_top" xlink:title=" ">
<polygon fill="white" stroke="#666666" points="363.5,-78 209.5,-78 209.5,-48 363.5,-48 363.5,-78"/>
<text text-anchor="start" x="217.5" y="-66" font-family="Helvetica,sans-Serif" font-size="10.00">di::container::ViewInterface</text>
<text text-anchor="middle" x="286.5" y="-55" font-family="Helvetica,sans-Serif" font-size="10.00">&lt; Generator&lt; Ref, void &gt; &gt;</text>
</a>
</g>
</g>
<!-- Node1&#45;&gt;Node67 -->
<g id="edge47_Node000001_Node000067" class="edge">
<title>Node1&#45;&gt;Node67</title>
<g id="a_edge47_Node000001_Node000067"><a xlink:title=" ">
<path fill="none" stroke="#63b8ff" d="M67.54,-841.56C65.9,-720.05 65.17,-199.98 170,-87 180.38,-75.81 194.5,-69.11 209.3,-65.22"/>
<polygon fill="#63b8ff" stroke="#63b8ff" points="64.05,-841.8 67.7,-851.75 71.05,-841.7 64.05,-841.8"/>
</a>
</g>
</g>
<!-- Node68 -->
<g id="Node000068" class="node">
<title>Node68</title>
<g id="a_Node000068"><a xlink:href="classdi_1_1container_1_1ViewInterface.html" target="_top" xlink:title=" ">
<polygon fill="#fff0f0" stroke="red" points="362,-30 211,-30 211,0 362,0 362,-30"/>
<text text-anchor="start" x="219" y="-18" font-family="Helvetica,sans-Serif" font-size="10.00">di::container::ViewInterface</text>
<text text-anchor="middle" x="286.5" y="-7" font-family="Helvetica,sans-Serif" font-size="10.00">&lt; Self &gt;</text>
</a>
</g>
</g>
<!-- Node1&#45;&gt;Node68 -->
<g id="edge48_Node000001_Node000068" class="edge">
<title>Node1&#45;&gt;Node68</title>
<g id="a_edge48_Node000001_Node000068"><a xlink:title=" ">
<path fill="none" stroke="#63b8ff" d="M69.38,-841.78C76.83,-709.53 114.05,-99.75 170,-39 180.68,-27.4 195.39,-20.61 210.73,-16.78"/>
<polygon fill="#63b8ff" stroke="#63b8ff" points="65.88,-841.6 68.82,-851.78 72.87,-841.99 65.88,-841.6"/>
</a>
</g>
</g>
<!-- Node3 -->
<g id="Node000003" class="node">
<title>Node3</title>
<g id="a_Node000003"><a xlink:href="classdi_1_1container_1_1AdjacentTransformView.html" target="_top" xlink:title=" ">
<polygon fill="white" stroke="#666666" points="614,-1740 439,-1740 439,-1710 614,-1710 614,-1740"/>
<text text-anchor="start" x="447" y="-1728" font-family="Helvetica,sans-Serif" font-size="10.00">di::container::AdjacentTransform</text>
<text text-anchor="middle" x="526.5" y="-1717" font-family="Helvetica,sans-Serif" font-size="10.00">View&lt; View, F, N &gt;</text>
</a>
</g>
</g>
<!-- Node2&#45;&gt;Node3 -->
<g id="edge2_Node000002_Node000003" class="edge">
<title>Node2&#45;&gt;Node3</title>
<g id="a_edge2_Node000002_Node000003"><a xlink:title=" ">
<path fill="none" stroke="#63b8ff" d="M372.83,-1725C394.22,-1725 417.19,-1725 438.65,-1725"/>
<polygon fill="#63b8ff" stroke="#63b8ff" points="372.8,-1721.5 362.8,-1725 372.8,-1728.5 372.8,-1721.5"/>
</a>
</g>
</g>
<!-- Node5 -->
<g id="Node000005" class="node">
<title>Node5</title>
<g id="a_Node000005"><a xlink:href="classdi_1_1container_1_1AdjacentView.html" target="_top" xlink:title=" ">
<polygon fill="white" stroke="#666666" points="601.5,-1686 451.5,-1686 451.5,-1656 601.5,-1656 601.5,-1686"/>
<text text-anchor="start" x="459.5" y="-1674" font-family="Helvetica,sans-Serif" font-size="10.00">di::container::AdjacentView</text>
<text text-anchor="middle" x="526.5" y="-1663" font-family="Helvetica,sans-Serif" font-size="10.00">&lt; View, N &gt;</text>
</a>
</g>
</g>
<!-- Node4&#45;&gt;Node5 -->
<g id="edge4_Node000004_Node000005" class="edge">
<title>Node4&#45;&gt;Node5</title>
<g id="a_edge4_Node000004_Node000005"><a xlink:title=" ">
<path fill="none" stroke="#63b8ff" d="M379.78,-1671C403.45,-1671 428.6,-1671 451.23,-1671"/>
<polygon fill="#63b8ff" stroke="#63b8ff" points="379.74,-1667.5 369.74,-1671 379.74,-1674.5 379.74,-1667.5"/>
</a>
</g>
</g>
<!-- Node7 -->
<g id="Node000007" class="node">
<title>Node7</title>
<g id="a_Node000007"><a xlink:href="classdi_1_1container_1_1AsConstView.html" target="_top" xlink:title=" ">
<polygon fill="white" stroke="#666666" points="600,-1638 453,-1638 453,-1608 600,-1608 600,-1638"/>
<text text-anchor="start" x="461" y="-1626" font-family="Helvetica,sans-Serif" font-size="10.00">di::container::AsConstView</text>
<text text-anchor="middle" x="526.5" y="-1615" font-family="Helvetica,sans-Serif" font-size="10.00">&lt; View &gt;</text>
</a>
</g>
</g>
<!-- Node6&#45;&gt;Node7 -->
<g id="edge6_Node000006_Node000007" class="edge">
<title>Node6&#45;&gt;Node7</title>
<g id="a_edge6_Node000006_Node000007"><a xlink:title=" ">
<path fill="none" stroke="#63b8ff" d="M372.47,-1623C398.72,-1623 427.39,-1623 452.74,-1623"/>
<polygon fill="#63b8ff" stroke="#63b8ff" points="372.15,-1619.5 362.15,-1623 372.15,-1626.5 372.15,-1619.5"/>
</a>
</g>
</g>
<!-- Node9 -->
<g id="Node000009" class="node">
<title>Node9</title>
<g id="a_Node000009"><a xlink:href="classdi_1_1container_1_1AsRValueView.html" target="_top" xlink:title=" ">
<polygon fill="white" stroke="#666666" points="603,-1590 450,-1590 450,-1560 603,-1560 603,-1590"/>
<text text-anchor="start" x="458" y="-1578" font-family="Helvetica,sans-Serif" font-size="10.00">di::container::AsRValueView</text>
<text text-anchor="middle" x="526.5" y="-1567" font-family="Helvetica,sans-Serif" font-size="10.00">&lt; View &gt;</text>
</a>
</g>
</g>
<!-- Node8&#45;&gt;Node9 -->
<g id="edge8_Node000008_Node000009" class="edge">
<title>Node8&#45;&gt;Node9</title>
<g id="a_edge8_Node000008_Node000009"><a xlink:title=" ">
<path fill="none" stroke="#63b8ff" d="M374.23,-1575C399,-1575 425.79,-1575 449.84,-1575"/>
<polygon fill="#63b8ff" stroke="#63b8ff" points="374.11,-1571.5 364.11,-1575 374.11,-1578.5 374.11,-1571.5"/>
</a>
</g>
</g>
<!-- Node11 -->
<g id="Node000011" class="node">
<title>Node11</title>
<g id="a_Node000011"><a xlink:href="classdi_1_1container_1_1CartesianProductView.html" target="_top" xlink:title=" ">
<polygon fill="white" stroke="#666666" points="601,-1536 452,-1536 452,-1506 601,-1506 601,-1536"/>
<text text-anchor="start" x="460" y="-1524" font-family="Helvetica,sans-Serif" font-size="10.00">di::container::Cartesian</text>
<text text-anchor="middle" x="526.5" y="-1513" font-family="Helvetica,sans-Serif" font-size="10.00">ProductView&lt; First, Rest &gt;</text>
</a>
</g>
</g>
<!-- Node10&#45;&gt;Node11 -->
<g id="edge10_Node000010_Node000011" class="edge">
<title>Node10&#45;&gt;Node11</title>
<g id="a_edge10_Node000010_Node000011"><a xlink:title=" ">
<path fill="none" stroke="#63b8ff" d="M381.94,-1521C405.12,-1521 429.6,-1521 451.65,-1521"/>
<polygon fill="#63b8ff" stroke="#63b8ff" points="381.74,-1517.5 371.74,-1521 381.74,-1524.5 381.74,-1517.5"/>
</a>
</g>
</g>
<!-- Node13 -->
<g id="Node000013" class="node">
<title>Node13</title>
<g id="a_Node000013"><a xlink:href="classdi_1_1container_1_1ChunkByView.html" target="_top" xlink:title=" ">
<polygon fill="white" stroke="#666666" points="602,-1482 451,-1482 451,-1452 602,-1452 602,-1482"/>
<text text-anchor="start" x="459" y="-1470" font-family="Helvetica,sans-Serif" font-size="10.00">di::container::ChunkByView</text>
<text text-anchor="middle" x="526.5" y="-1459" font-family="Helvetica,sans-Serif" font-size="10.00">&lt; View, Pred &gt;</text>
</a>
</g>
</g>
<!-- Node12&#45;&gt;Node13 -->
<g id="edge12_Node000012_Node000013" class="edge">
<title>Node12&#45;&gt;Node13</title>
<g id="a_edge12_Node000012_Node000013"><a xlink:title=" ">
<path fill="none" stroke="#63b8ff" d="M387.17,-1467C408.44,-1467 430.55,-1467 450.7,-1467"/>
<polygon fill="#63b8ff" stroke="#63b8ff" points="387.14,-1463.5 377.14,-1467 387.14,-1470.5 387.14,-1463.5"/>
</a>
</g>
</g>
<!-- Node15 -->
<g id="Node000015" class="node">
<title>Node15</title>
<g id="a_Node000015"><a xlink:href="classdi_1_1container_1_1ChunkView_3_01View_01_4.html" target="_top" xlink:title=" ">
<polygon fill="white" stroke="#666666" points="595.5,-1434 457.5,-1434 457.5,-1404 595.5,-1404 595.5,-1434"/>
<text text-anchor="start" x="465.5" y="-1422" font-family="Helvetica,sans-Serif" font-size="10.00">di::container::ChunkView</text>
<text text-anchor="middle" x="526.5" y="-1411" font-family="Helvetica,sans-Serif" font-size="10.00">&lt; View &gt;</text>
</a>
</g>
</g>
<!-- Node14&#45;&gt;Node15 -->
<g id="edge14_Node000014_Node000015" class="edge">
<title>Node14&#45;&gt;Node15</title>
<g id="a_edge14_Node000014_Node000015"><a xlink:title=" ">
<path fill="none" stroke="#63b8ff" d="M372.28,-1419C400.13,-1419 430.71,-1419 457.18,-1419"/>
<polygon fill="#63b8ff" stroke="#63b8ff" points="372.15,-1415.5 362.15,-1419 372.15,-1422.5 372.15,-1415.5"/>
</a>
</g>
</g>
<!-- Node18 -->
<g id="Node000018" class="node">
<title>Node18</title>
<g id="a_Node000018"><a xlink:href="classdi_1_1container_1_1CommonView.html" target="_top" xlink:title=" ">
<polygon fill="white" stroke="#666666" points="602.5,-1338 450.5,-1338 450.5,-1308 602.5,-1308 602.5,-1338"/>
<text text-anchor="start" x="458.5" y="-1326" font-family="Helvetica,sans-Serif" font-size="10.00">di::container::CommonView</text>
<text text-anchor="middle" x="526.5" y="-1315" font-family="Helvetica,sans-Serif" font-size="10.00">&lt; View &gt;</text>
</a>
</g>
</g>
<!-- Node17&#45;&gt;Node18 -->
<g id="edge17_Node000017_Node000018" class="edge">
<title>Node17&#45;&gt;Node18</title>
<g id="a_edge17_Node000017_Node000018"><a xlink:title=" ">
<path fill="none" stroke="#63b8ff" d="M374.01,-1323C399.05,-1323 426.18,-1323 450.46,-1323"/>
<polygon fill="#63b8ff" stroke="#63b8ff" points="373.79,-1319.5 363.79,-1323 373.79,-1326.5 373.79,-1319.5"/>
</a>
</g>
</g>
<!-- Node20 -->
<g id="Node000020" class="node">
<title>Node20</title>
<g id="a_Node000020"><a xlink:href="classdi_1_1container_1_1ConcatView.html" target="_top" xlink:title=" ">
<polygon fill="white" stroke="#666666" points="597,-1290 456,-1290 456,-1260 597,-1260 597,-1290"/>
<text text-anchor="start" x="464" y="-1278" font-family="Helvetica,sans-Serif" font-size="10.00">di::container::ConcatView</text>
<text text-anchor="middle" x="526.5" y="-1267" font-family="Helvetica,sans-Serif" font-size="10.00">&lt; Views &gt;</text>
</a>
</g>
</g>
<!-- Node19&#45;&gt;Node20 -->
<g id="edge19_Node000019_Node000020" class="edge">
<title>Node19&#45;&gt;Node20</title>
<g id="a_edge19_Node000019_Node000020"><a xlink:title=" ">
<path fill="none" stroke="#63b8ff" d="M376.09,-1275C402.35,-1275 430.72,-1275 455.62,-1275"/>
<polygon fill="#63b8ff" stroke="#63b8ff" points="375.76,-1271.5 365.76,-1275 375.76,-1278.5 375.76,-1271.5"/>
</a>
</g>
</g>
<!-- Node22 -->
<g id="Node000022" class="node">
<title>Node22</title>
<g id="a_Node000022"><a xlink:href="classdi_1_1container_1_1CycleView.html" target="_top" xlink:title=" ">
<polygon fill="white" stroke="#666666" points="593.5,-1242 459.5,-1242 459.5,-1212 593.5,-1212 593.5,-1242"/>
<text text-anchor="start" x="467.5" y="-1230" font-family="Helvetica,sans-Serif" font-size="10.00">di::container::CycleView</text>
<text text-anchor="middle" x="526.5" y="-1219" font-family="Helvetica,sans-Serif" font-size="10.00">&lt; View &gt;</text>
</a>
</g>
</g>
<!-- Node21&#45;&gt;Node22 -->
<g id="edge21_Node000021_Node000022" class="edge">
<title>Node21&#45;&gt;Node22</title>
<g id="a_edge21_Node000021_Node000022"><a xlink:title=" ">
<path fill="none" stroke="#63b8ff" d="M372.51,-1227C401,-1227 432.32,-1227 459.17,-1227"/>
<polygon fill="#63b8ff" stroke="#63b8ff" points="372.15,-1223.5 362.15,-1227 372.15,-1230.5 372.15,-1223.5"/>
</a>
</g>
</g>
<!-- Node24 -->
<g id="Node000024" class="node">
<title>Node24</title>
<g id="a_Node000024"><a xlink:href="classdi_1_1container_1_1DropView.html" target="_top" xlink:title=" ">
<polygon fill="white" stroke="#666666" points="592,-1194 461,-1194 461,-1164 592,-1164 592,-1194"/>
<text text-anchor="start" x="469" y="-1182" font-family="Helvetica,sans-Serif" font-size="10.00">di::container::DropView</text>
<text text-anchor="middle" x="526.5" y="-1171" font-family="Helvetica,sans-Serif" font-size="10.00">&lt; View &gt;</text>
</a>
</g>
</g>
<!-- Node23&#45;&gt;Node24 -->
<g id="edge23_Node000023_Node000024" class="edge">
<title>Node23&#45;&gt;Node24</title>
<g id="a_edge23_Node000023_Node000024"><a xlink:title=" ">
<path fill="none" stroke="#63b8ff" d="M372.31,-1179C401.41,-1179 433.5,-1179 460.75,-1179"/>
<polygon fill="#63b8ff" stroke="#63b8ff" points="372.15,-1175.5 362.15,-1179 372.15,-1182.5 372.15,-1175.5"/>
</a>
</g>
</g>
<!-- Node26 -->
<g id="Node000026" class="node">
<title>Node26</title>
<g id="a_Node000026"><a xlink:href="classdi_1_1container_1_1DropWhileView.html" target="_top" xlink:title=" ">
<polygon fill="white" stroke="#666666" points="593.5,-1146 459.5,-1146 459.5,-1116 593.5,-1116 593.5,-1146"/>
<text text-anchor="start" x="467.5" y="-1134" font-family="Helvetica,sans-Serif" font-size="10.00">di::container::DropWhile</text>
<text text-anchor="middle" x="526.5" y="-1123" font-family="Helvetica,sans-Serif" font-size="10.00">View&lt; View, Pred &gt;</text>
</a>
</g>
</g>
<!-- Node25&#45;&gt;Node26 -->
<g id="edge25_Node000025_Node000026" class="edge">
<title>Node25&#45;&gt;Node26</title>
<g id="a_edge25_Node000025_Node000026"><a xlink:title=" ">
<path fill="none" stroke="#63b8ff" d="M390.8,-1131C414.06,-1131 438.14,-1131 459.39,-1131"/>
<polygon fill="#63b8ff" stroke="#63b8ff" points="390.54,-1127.5 380.54,-1131 390.54,-1134.5 390.54,-1127.5"/>
</a>
</g>
</g>
</g>
</svg>
