<?xml version="1.0" encoding="UTF-8" standalone="no"?>
<!DOCTYPE svg PUBLIC "-//W3C//DTD SVG 1.1//EN"
 "http://www.w3.org/Graphics/SVG/1.1/DTD/svg11.dtd">
<!-- Generated by graphviz version 2.43.0 (0)
 -->
<!-- Title: di::container::OwningNodeHashTable&lt; Value, Eq, Hasher, Buckets, Tag, Alloc, Interface, is_multi, is_map &gt; Pages: 1 -->
<svg width="510pt" height="82pt"
 viewBox="0.00 0.00 510.00 82.00" xmlns="http://www.w3.org/2000/svg" xmlns:xlink="http://www.w3.org/1999/xlink">
<g id="graph0" class="graph" transform="scale(1 1) rotate(0) translate(4 78)">
<title>di::container::OwningNodeHashTable&lt; Value, Eq, Hasher, Buckets, Tag, Alloc, Interface, is_multi, is_map &gt;</title>
<!-- Node1 -->
<g id="Node000001" class="node">
<title>Node1</title>
<g id="a_Node000001"><a xlink:title=" ">
<polygon fill="#999999" stroke="#666666" points="502,-63 335,-63 335,-11 502,-11 502,-63"/>
<text text-anchor="start" x="343" y="-51" font-family="Helvetica,sans-Serif" font-size="10.00">di::container::OwningNode</text>
<text text-anchor="start" x="343" y="-40" font-family="Helvetica,sans-Serif" font-size="10.00">HashTable&lt; Value, Eq, Hasher,</text>
<text text-anchor="start" x="343" y="-29" font-family="Helvetica,sans-Serif" font-size="10.00"> Buckets, Tag, Alloc, Interface,</text>
<text text-anchor="middle" x="418.5" y="-18" font-family="Helvetica,sans-Serif" font-size="10.00"> is_multi, is_map &gt;</text>
</a>
</g>
</g>
<!-- Node2 -->
<g id="Node000002" class="node">
<title>Node2</title>
<g id="a_Node000002"><a xlink:href="classdi_1_1container_1_1NodeHashTable.html" target="_top" xlink:title=" ">
<polygon fill="white" stroke="#666666" points="299,-74 96,-74 96,0 299,0 299,-74"/>
<text text-anchor="start" x="104" y="-62" font-family="Helvetica,sans-Serif" font-size="10.00">di::container::NodeHashTable</text>
<text text-anchor="start" x="104" y="-51" font-family="Helvetica,sans-Serif" font-size="10.00">&lt; Value, Eq, Hasher, Buckets,</text>
<text text-anchor="start" x="104" y="-40" font-family="Helvetica,sans-Serif" font-size="10.00"> Tag, Interface, is_multi, is</text>
<text text-anchor="start" x="104" y="-29" font-family="Helvetica,sans-Serif" font-size="10.00">_map, OwningNodeHashTable&lt; Value,</text>
<text text-anchor="start" x="104" y="-18" font-family="Helvetica,sans-Serif" font-size="10.00"> Eq, Hasher, Buckets, Tag, Alloc,</text>
<text text-anchor="middle" x="197.5" y="-7" font-family="Helvetica,sans-Serif" font-size="10.00"> Interface, is_multi, is_map &gt; &gt;</text>
</a>
</g>
</g>
<!-- Node2&#45;&gt;Node1 -->
<g id="edge1_Node000001_Node000002" class="edge">
<title>Node2&#45;&gt;Node1</title>
<g id="a_edge1_Node000001_Node000002"><a xlink:title=" ">
<path fill="none" stroke="#63b8ff" d="M309.2,-37C317.87,-37 326.54,-37 334.97,-37"/>
<polygon fill="#63b8ff" stroke="#63b8ff" points="309.03,-33.5 299.03,-37 309.03,-40.5 309.03,-33.5"/>
</a>
</g>
</g>
<!-- Node3 -->
<g id="Node000003" class="node">
<title>Node3</title>
<g id="a_Node000003"><a xlink:title=" ">
<polygon fill="white" stroke="#666666" points="60,-46.5 0,-46.5 0,-27.5 60,-27.5 60,-46.5"/>
<text text-anchor="middle" x="30" y="-34.5" font-family="Helvetica,sans-Serif" font-size="10.00">Interface</text>
</a>
</g>
</g>
<!-- Node3&#45;&gt;Node2 -->
<g id="edge2_Node000002_Node000003" class="edge">
<title>Node3&#45;&gt;Node2</title>
<g id="a_edge2_Node000002_Node000003"><a xlink:title=" ">
<path fill="none" stroke="#63b8ff" d="M70.22,-37C78.19,-37 86.92,-37 95.95,-37"/>
<polygon fill="#63b8ff" stroke="#63b8ff" points="70.21,-33.5 60.21,-37 70.21,-40.5 70.21,-33.5"/>
</a>
</g>
</g>
</g>
</svg>
