<?xml version="1.0" encoding="UTF-8" standalone="no"?>
<!DOCTYPE svg PUBLIC "-//W3C//DTD SVG 1.1//EN"
 "http://www.w3.org/Graphics/SVG/1.1/DTD/svg11.dtd">
<!-- Generated by graphviz version 2.43.0 (0)
 -->
<!-- Title: di::container::string::StringViewImpl&lt; Enc &gt; Pages: 1 -->
<svg width="357pt" height="216pt"
 viewBox="0.00 0.00 357.00 216.00" xmlns="http://www.w3.org/2000/svg" xmlns:xlink="http://www.w3.org/1999/xlink">
<g id="graph0" class="graph" transform="scale(1 1) rotate(0) translate(4 212)">
<title>di::container::string::StringViewImpl&lt; Enc &gt;</title>
<!-- Node1 -->
<g id="Node000001" class="node">
<title>Node1</title>
<g id="a_Node000001"><a xlink:title=" ">
<polygon fill="#999999" stroke="#666666" points="349,-121.5 212,-121.5 212,-91.5 349,-91.5 349,-121.5"/>
<text text-anchor="start" x="220" y="-109.5" font-family="Helvetica,sans-Serif" font-size="10.00">di::container::string</text>
<text text-anchor="middle" x="280.5" y="-98.5" font-family="Helvetica,sans-Serif" font-size="10.00">::StringViewImpl&lt; Enc &gt;</text>
</a>
</g>
</g>
<!-- Node2 -->
<g id="Node000002" class="node">
<title>Node2</title>
<g id="a_Node000002"><a xlink:href="classdi_1_1container_1_1string_1_1ConstantStringInterface.html" target="_top" xlink:title=" ">
<polygon fill="white" stroke="#666666" points="176,-208 0,-208 0,-167 176,-167 176,-208"/>
<text text-anchor="start" x="8" y="-196" font-family="Helvetica,sans-Serif" font-size="10.00">di::container::string</text>
<text text-anchor="start" x="8" y="-185" font-family="Helvetica,sans-Serif" font-size="10.00">::ConstantStringInterface</text>
<text text-anchor="middle" x="88" y="-174" font-family="Helvetica,sans-Serif" font-size="10.00">&lt; StringViewImpl&lt; Enc &gt;, Enc &gt;</text>
</a>
</g>
</g>
<!-- Node2&#45;&gt;Node1 -->
<g id="edge1_Node000001_Node000002" class="edge">
<title>Node2&#45;&gt;Node1</title>
<g id="a_edge1_Node000001_Node000002"><a xlink:title=" ">
<path fill="none" stroke="#63b8ff" d="M161.28,-163.36C166.29,-161.45 171.24,-159.49 176,-157.5 202.07,-146.63 230.82,-132.26 251.39,-121.55"/>
<polygon fill="#63b8ff" stroke="#63b8ff" points="159.76,-160.19 151.61,-166.97 162.21,-166.75 159.76,-160.19"/>
</a>
</g>
</g>
<!-- Node3 -->
<g id="Node000003" class="node">
<title>Node3</title>
<g id="a_Node000003"><a xlink:href="classdi_1_1meta_1_1EnableView.html" target="_top" xlink:title=" ">
<polygon fill="white" stroke="#666666" points="164.5,-148.5 11.5,-148.5 11.5,-118.5 164.5,-118.5 164.5,-148.5"/>
<text text-anchor="start" x="19.5" y="-136.5" font-family="Helvetica,sans-Serif" font-size="10.00">di::meta::EnableView</text>
<text text-anchor="middle" x="88" y="-125.5" font-family="Helvetica,sans-Serif" font-size="10.00">&lt; StringViewImpl&lt; Enc &gt; &gt;</text>
</a>
</g>
</g>
<!-- Node3&#45;&gt;Node1 -->
<g id="edge2_Node000001_Node000003" class="edge">
<title>Node3&#45;&gt;Node1</title>
<g id="a_edge2_Node000001_Node000003"><a xlink:title=" ">
<path fill="none" stroke="#63b8ff" d="M174.51,-121.38C186.98,-119.61 199.69,-117.81 211.75,-116.1"/>
<polygon fill="#63b8ff" stroke="#63b8ff" points="173.97,-117.92 164.56,-122.79 174.96,-124.85 173.97,-117.92"/>
</a>
</g>
</g>
<!-- Node4 -->
<g id="Node000004" class="node">
<title>Node4</title>
<g id="a_Node000004"><a xlink:href="classdi_1_1meta_1_1EnableBorrowedContainer.html" target="_top" xlink:title=" ">
<polygon fill="white" stroke="#666666" points="162.5,-100 13.5,-100 13.5,-59 162.5,-59 162.5,-100"/>
<text text-anchor="start" x="21.5" y="-88" font-family="Helvetica,sans-Serif" font-size="10.00">di::meta::EnableBorrowed</text>
<text text-anchor="start" x="21.5" y="-77" font-family="Helvetica,sans-Serif" font-size="10.00">Container&lt; StringViewImpl</text>
<text text-anchor="middle" x="88" y="-66" font-family="Helvetica,sans-Serif" font-size="10.00">&lt; Enc &gt; &gt;</text>
</a>
</g>
</g>
<!-- Node4&#45;&gt;Node1 -->
<g id="edge3_Node000001_Node000004" class="edge">
<title>Node4&#45;&gt;Node1</title>
<g id="a_edge3_Node000001_Node000004"><a xlink:title=" ">
<path fill="none" stroke="#63b8ff" d="M172.63,-91.35C185.79,-93.22 199.24,-95.12 211.97,-96.93"/>
<polygon fill="#63b8ff" stroke="#63b8ff" points="173.04,-87.88 162.65,-89.94 172.06,-94.81 173.04,-87.88"/>
</a>
</g>
</g>
<!-- Node5 -->
<g id="Node000005" class="node">
<title>Node5</title>
<g id="a_Node000005"><a xlink:href="structdi_1_1util_1_1OwnedType.html" target="_top" xlink:title=" ">
<polygon fill="white" stroke="#666666" points="155.5,-41 20.5,-41 20.5,0 155.5,0 155.5,-41"/>
<text text-anchor="start" x="28.5" y="-29" font-family="Helvetica,sans-Serif" font-size="10.00">di::util::OwnedType</text>
<text text-anchor="start" x="28.5" y="-18" font-family="Helvetica,sans-Serif" font-size="10.00">&lt; StringViewImpl&lt; Enc</text>
<text text-anchor="middle" x="88" y="-7" font-family="Helvetica,sans-Serif" font-size="10.00"> &gt;, StringImpl&lt; Enc &gt; &gt;</text>
</a>
</g>
</g>
<!-- Node5&#45;&gt;Node1 -->
<g id="edge4_Node000001_Node000005" class="edge">
<title>Node5&#45;&gt;Node1</title>
<g id="a_edge4_Node000001_Node000005"><a xlink:title=" ">
<path fill="none" stroke="#63b8ff" d="M162.31,-44.8C166.97,-46.65 171.57,-48.55 176,-50.5 203.5,-62.58 233.54,-79.25 254.14,-91.26"/>
<polygon fill="#63b8ff" stroke="#63b8ff" points="163.26,-41.42 152.67,-41.1 160.75,-47.95 163.26,-41.42"/>
</a>
</g>
</g>
</g>
</svg>
