<?xml version="1.0" encoding="UTF-8" standalone="no"?>
<!DOCTYPE svg PUBLIC "-//W3C//DTD SVG 1.1//EN"
 "http://www.w3.org/Graphics/SVG/1.1/DTD/svg11.dtd">
<!-- Generated by graphviz version 2.43.0 (0)
 -->
<!-- Title: di::vocab::Span&lt; T, extent &gt; Pages: 1 -->
<svg width="331pt" height="134pt"
 viewBox="0.00 0.00 331.00 134.00" xmlns="http://www.w3.org/2000/svg" xmlns:xlink="http://www.w3.org/1999/xlink">
<g id="graph0" class="graph" transform="scale(1 1) rotate(0) translate(4 130)">
<title>di::vocab::Span&lt; T, extent &gt;</title>
<!-- Node1 -->
<g id="Node000001" class="node">
<title>Node1</title>
<g id="a_Node000001"><a xlink:title=" ">
<polygon fill="#999999" stroke="#666666" points="323,-78 212,-78 212,-48 323,-48 323,-78"/>
<text text-anchor="start" x="220" y="-66" font-family="Helvetica,sans-Serif" font-size="10.00">di::vocab::Span&lt; T,</text>
<text text-anchor="middle" x="267.5" y="-55" font-family="Helvetica,sans-Serif" font-size="10.00"> extent &gt;</text>
</a>
</g>
</g>
<!-- Node2 -->
<g id="Node000002" class="node">
<title>Node2</title>
<g id="a_Node000002"><a xlink:href="classdi_1_1meta_1_1EnableView.html" target="_top" xlink:title=" ">
<polygon fill="white" stroke="#666666" points="152.5,-126 23.5,-126 23.5,-96 152.5,-96 152.5,-126"/>
<text text-anchor="start" x="31.5" y="-114" font-family="Helvetica,sans-Serif" font-size="10.00">di::meta::EnableView</text>
<text text-anchor="middle" x="88" y="-103" font-family="Helvetica,sans-Serif" font-size="10.00">&lt; Span&lt; T, extent &gt; &gt;</text>
</a>
</g>
</g>
<!-- Node2&#45;&gt;Node1 -->
<g id="edge1_Node000001_Node000002" class="edge">
<title>Node2&#45;&gt;Node1</title>
<g id="a_edge1_Node000001_Node000002"><a xlink:title=" ">
<path fill="none" stroke="#63b8ff" d="M154.41,-93.31C173.32,-88.2 193.76,-82.67 211.93,-77.76"/>
<polygon fill="#63b8ff" stroke="#63b8ff" points="153.41,-89.96 144.68,-95.94 155.24,-96.71 153.41,-89.96"/>
</a>
</g>
</g>
<!-- Node3 -->
<g id="Node000003" class="node">
<title>Node3</title>
<g id="a_Node000003"><a xlink:href="classdi_1_1meta_1_1EnableBorrowedContainer.html" target="_top" xlink:title=" ">
<polygon fill="white" stroke="#666666" points="176,-78 0,-78 0,-48 176,-48 176,-78"/>
<text text-anchor="start" x="8" y="-66" font-family="Helvetica,sans-Serif" font-size="10.00">di::meta::EnableBorrowed</text>
<text text-anchor="middle" x="88" y="-55" font-family="Helvetica,sans-Serif" font-size="10.00">Container&lt; Span&lt; T, extent &gt; &gt;</text>
</a>
</g>
</g>
<!-- Node3&#45;&gt;Node1 -->
<g id="edge2_Node000001_Node000003" class="edge">
<title>Node3&#45;&gt;Node1</title>
<g id="a_edge2_Node000001_Node000003"><a xlink:title=" ">
<path fill="none" stroke="#63b8ff" d="M186.39,-63C195.05,-63 203.6,-63 211.7,-63"/>
<polygon fill="#63b8ff" stroke="#63b8ff" points="186.19,-59.5 176.19,-63 186.19,-66.5 186.19,-59.5"/>
</a>
</g>
</g>
<!-- Node4 -->
<g id="Node000004" class="node">
<title>Node4</title>
<g id="a_Node000004"><a xlink:href="structdi_1_1util_1_1AddMemberGet.html" target="_top" xlink:title=" ">
<polygon fill="white" stroke="#666666" points="153,-30 23,-30 23,0 153,0 153,-30"/>
<text text-anchor="start" x="31" y="-18" font-family="Helvetica,sans-Serif" font-size="10.00">di::util::AddMemberGet</text>
<text text-anchor="middle" x="88" y="-7" font-family="Helvetica,sans-Serif" font-size="10.00">&lt; Span&lt; T, extent &gt; &gt;</text>
</a>
</g>
</g>
<!-- Node4&#45;&gt;Node1 -->
<g id="edge3_Node000001_Node000004" class="edge">
<title>Node4&#45;&gt;Node1</title>
<g id="a_edge3_Node000001_Node000004"><a xlink:title=" ">
<path fill="none" stroke="#63b8ff" d="M154.41,-32.69C173.32,-37.8 193.76,-43.33 211.93,-48.24"/>
<polygon fill="#63b8ff" stroke="#63b8ff" points="155.24,-29.29 144.68,-30.06 153.41,-36.04 155.24,-29.29"/>
</a>
</g>
</g>
</g>
</svg>
