<?xml version="1.0" encoding="UTF-8" standalone="no"?>
<!DOCTYPE svg PUBLIC "-//W3C//DTD SVG 1.1//EN"
 "http://www.w3.org/Graphics/SVG/1.1/DTD/svg11.dtd">
<!-- Generated by graphviz version 2.43.0 (0)
 -->
<!-- Title: di::meta::EnableBorrowedContainer&lt; Self, should_enable &gt; Pages: 1 -->
<svg width="280pt" height="115pt"
 viewBox="0.00 0.00 280.00 115.00" xmlns="http://www.w3.org/2000/svg" xmlns:xlink="http://www.w3.org/1999/xlink">
<g id="graph0" class="graph" transform="scale(1 1) rotate(0) translate(4 111)">
<title>di::meta::EnableBorrowedContainer&lt; Self, should_enable &gt;</title>
<!-- Node1 -->
<g id="Node000001" class="node">
<title>Node1</title>
<g id="a_Node000001"><a xlink:title=" ">
<polygon fill="#999999" stroke="#666666" points="206.5,-107 63.5,-107 63.5,-66 206.5,-66 206.5,-107"/>
<text text-anchor="start" x="71.5" y="-95" font-family="Helvetica,sans-Serif" font-size="10.00">di::meta::EnableBorrowed</text>
<text text-anchor="start" x="71.5" y="-84" font-family="Helvetica,sans-Serif" font-size="10.00">Container&lt; Self, should</text>
<text text-anchor="middle" x="135" y="-73" font-family="Helvetica,sans-Serif" font-size="10.00">_enable &gt;</text>
</a>
</g>
</g>
<!-- Node2 -->
<g id="Node000002" class="node">
<title>Node2</title>
<g id="a_Node000002"><a xlink:href="classdi_1_1container_1_1IotaView.html" target="_top" xlink:title=" ">
<polygon fill="white" stroke="#666666" points="126,-30 0,-30 0,0 126,0 126,-30"/>
<text text-anchor="start" x="8" y="-18" font-family="Helvetica,sans-Serif" font-size="10.00">di::container::IotaView</text>
<text text-anchor="middle" x="63" y="-7" font-family="Helvetica,sans-Serif" font-size="10.00">&lt; T, Bound &gt;</text>
</a>
</g>
</g>
<!-- Node1&#45;&gt;Node2 -->
<g id="edge1_Node000001_Node000002" class="edge">
<title>Node1&#45;&gt;Node2</title>
<g id="a_edge1_Node000001_Node000002"><a xlink:title=" ">
<path fill="none" stroke="#63b8ff" d="M107.08,-58.55C97,-48.81 86.02,-38.22 77.54,-30.04"/>
<polygon fill="#63b8ff" stroke="#63b8ff" points="104.93,-61.34 114.56,-65.77 109.8,-56.31 104.93,-61.34"/>
</a>
</g>
</g>
<!-- Node3 -->
<g id="Node000003" class="node">
<title>Node3</title>
<g id="a_Node000003"><a xlink:href="classdi_1_1container_1_1View.html" target="_top" xlink:title=" ">
<polygon fill="white" stroke="#666666" points="272,-30 144,-30 144,0 272,0 272,-30"/>
<text text-anchor="start" x="152" y="-18" font-family="Helvetica,sans-Serif" font-size="10.00">di::container::View</text>
<text text-anchor="middle" x="208" y="-7" font-family="Helvetica,sans-Serif" font-size="10.00">&lt; Iter, Sent, is_sized &gt;</text>
</a>
</g>
</g>
<!-- Node1&#45;&gt;Node3 -->
<g id="edge2_Node000001_Node000003" class="edge">
<title>Node1&#45;&gt;Node3</title>
<g id="a_edge2_Node000001_Node000003"><a xlink:title=" ">
<path fill="none" stroke="#63b8ff" d="M163.01,-58.83C173.31,-49.02 184.58,-38.3 193.25,-30.04"/>
<polygon fill="#63b8ff" stroke="#63b8ff" points="160.55,-56.34 155.72,-65.77 165.38,-61.41 160.55,-56.34"/>
</a>
</g>
</g>
</g>
</svg>
