<?xml version="1.0" encoding="UTF-8" standalone="no"?>
<!DOCTYPE svg PUBLIC "-//W3C//DTD SVG 1.1//EN"
 "http://www.w3.org/Graphics/SVG/1.1/DTD/svg11.dtd">
<!-- Generated by graphviz version 2.43.0 (0)
 -->
<!-- Title: di::container::EnumerateView&lt; View &gt; Pages: 1 -->
<svg width="563pt" height="108pt"
 viewBox="0.00 0.00 563.00 108.00" xmlns="http://www.w3.org/2000/svg" xmlns:xlink="http://www.w3.org/1999/xlink">
<g id="graph0" class="graph" transform="scale(1 1) rotate(0) translate(4 104)">
<title>di::container::EnumerateView&lt; View &gt;</title>
<!-- Node1 -->
<g id="Node000001" class="node">
<title>Node1</title>
<g id="a_Node000001"><a xlink:title=" ">
<polygon fill="#999999" stroke="#666666" points="555,-70 418,-70 418,-40 555,-40 555,-70"/>
<text text-anchor="start" x="426" y="-58" font-family="Helvetica,sans-Serif" font-size="10.00">di::container::Enumerate</text>
<text text-anchor="middle" x="486.5" y="-47" font-family="Helvetica,sans-Serif" font-size="10.00">View&lt; View &gt;</text>
</a>
</g>
</g>
<!-- Node2 -->
<g id="Node000002" class="node">
<title>Node2</title>
<g id="a_Node000002"><a xlink:href="classdi_1_1container_1_1ViewInterface.html" target="_top" xlink:title=" ">
<polygon fill="white" stroke="#666666" points="357.5,-100 194.5,-100 194.5,-70 357.5,-70 357.5,-100"/>
<text text-anchor="start" x="202.5" y="-88" font-family="Helvetica,sans-Serif" font-size="10.00">di::container::ViewInterface</text>
<text text-anchor="middle" x="276" y="-77" font-family="Helvetica,sans-Serif" font-size="10.00">&lt; EnumerateView&lt; View &gt; &gt;</text>
</a>
</g>
</g>
<!-- Node2&#45;&gt;Node1 -->
<g id="edge1_Node000001_Node000002" class="edge">
<title>Node2&#45;&gt;Node1</title>
<g id="a_edge1_Node000001_Node000002"><a xlink:title=" ">
<path fill="none" stroke="#63b8ff" d="M367.51,-71.98C384.44,-69.54 401.87,-67.03 417.95,-64.72"/>
<polygon fill="#63b8ff" stroke="#63b8ff" points="367.01,-68.51 357.61,-73.4 368.01,-75.44 367.01,-68.51"/>
</a>
</g>
</g>
<!-- Node3 -->
<g id="Node000003" class="node">
<title>Node3</title>
<g id="a_Node000003"><a xlink:href="classdi_1_1meta_1_1EnableView.html" target="_top" xlink:title=" ">
<polygon fill="white" stroke="#666666" points="134,-100 0,-100 0,-70 134,-70 134,-100"/>
<text text-anchor="start" x="8" y="-88" font-family="Helvetica,sans-Serif" font-size="10.00">di::meta::EnableView</text>
<text text-anchor="middle" x="67" y="-77" font-family="Helvetica,sans-Serif" font-size="10.00">&lt; Self, should_enable &gt;</text>
</a>
</g>
</g>
<!-- Node3&#45;&gt;Node2 -->
<g id="edge2_Node000002_Node000003" class="edge">
<title>Node3&#45;&gt;Node2</title>
<g id="a_edge2_Node000002_Node000003"><a xlink:title=" ">
<path fill="none" stroke="#63b8ff" d="M144.11,-85C160.47,-85 177.81,-85 194.34,-85"/>
<polygon fill="#63b8ff" stroke="#63b8ff" points="144.07,-81.5 134.07,-85 144.07,-88.5 144.07,-81.5"/>
</a>
</g>
</g>
<!-- Node4 -->
<g id="Node000004" class="node">
<title>Node4</title>
<g id="a_Node000004"><a xlink:href="classdi_1_1meta_1_1EnableBorrowedContainer.html" target="_top" xlink:title=" ">
<polygon fill="white" stroke="#666666" points="382,-52 170,-52 170,0 382,0 382,-52"/>
<text text-anchor="start" x="178" y="-40" font-family="Helvetica,sans-Serif" font-size="10.00">di::meta::EnableBorrowed</text>
<text text-anchor="start" x="178" y="-29" font-family="Helvetica,sans-Serif" font-size="10.00">Container&lt; EnumerateView</text>
<text text-anchor="start" x="178" y="-18" font-family="Helvetica,sans-Serif" font-size="10.00">&lt; View &gt;, concepts::BorrowedContainer</text>
<text text-anchor="middle" x="276" y="-7" font-family="Helvetica,sans-Serif" font-size="10.00">&lt; View &gt; &gt;</text>
</a>
</g>
</g>
<!-- Node4&#45;&gt;Node1 -->
<g id="edge3_Node000001_Node000004" class="edge">
<title>Node4&#45;&gt;Node1</title>
<g id="a_edge3_Node000001_Node000004"><a xlink:title=" ">
<path fill="none" stroke="#63b8ff" d="M392.11,-42.01C400.89,-43.23 409.57,-44.44 417.89,-45.6"/>
<polygon fill="#63b8ff" stroke="#63b8ff" points="392.55,-38.54 382.17,-40.63 391.59,-45.47 392.55,-38.54"/>
</a>
</g>
</g>
</g>
</svg>
