<?xml version="1.0" encoding="UTF-8" standalone="no"?>
<!DOCTYPE svg PUBLIC "-//W3C//DTD SVG 1.1//EN"
 "http://www.w3.org/Graphics/SVG/1.1/DTD/svg11.dtd">
<!-- Generated by graphviz version 2.43.0 (0)
 -->
<!-- Title: di::container::AsRValueView&lt; View &gt; Pages: 1 -->
<svg width="579pt" height="108pt"
 viewBox="0.00 0.00 579.00 108.00" xmlns="http://www.w3.org/2000/svg" xmlns:xlink="http://www.w3.org/1999/xlink">
<g id="graph0" class="graph" transform="scale(1 1) rotate(0) translate(4 104)">
<title>di::container::AsRValueView&lt; View &gt;</title>
<!-- Node1 -->
<g id="Node000001" class="node">
<title>Node1</title>
<g id="a_Node000001"><a xlink:title=" ">
<polygon fill="#999999" stroke="#666666" points="571,-70 418,-70 418,-40 571,-40 571,-70"/>
<text text-anchor="start" x="426" y="-58" font-family="Helvetica,sans-Serif" font-size="10.00">di::container::AsRValueView</text>
<text text-anchor="middle" x="494.5" y="-47" font-family="Helvetica,sans-Serif" font-size="10.00">&lt; View &gt;</text>
</a>
</g>
</g>
<!-- Node2 -->
<g id="Node000002" class="node">
<title>Node2</title>
<g id="a_Node000002"><a xlink:href="classdi_1_1container_1_1ViewInterface.html" target="_top" xlink:title=" ">
<polygon fill="white" stroke="#666666" points="353.5,-100 198.5,-100 198.5,-70 353.5,-70 353.5,-100"/>
<text text-anchor="start" x="206.5" y="-88" font-family="Helvetica,sans-Serif" font-size="10.00">di::container::ViewInterface</text>
<text text-anchor="middle" x="276" y="-77" font-family="Helvetica,sans-Serif" font-size="10.00">&lt; AsRValueView&lt; View &gt; &gt;</text>
</a>
</g>
</g>
<!-- Node2&#45;&gt;Node1 -->
<g id="edge1_Node000001_Node000002" class="edge">
<title>Node2&#45;&gt;Node1</title>
<g id="a_edge1_Node000001_Node000002"><a xlink:title=" ">
<path fill="none" stroke="#63b8ff" d="M363.99,-72.95C381.77,-70.48 400.35,-67.91 417.7,-65.5"/>
<polygon fill="#63b8ff" stroke="#63b8ff" points="363.06,-69.54 353.63,-74.38 364.02,-76.48 363.06,-69.54"/>
</a>
</g>
</g>
<!-- Node3 -->
<g id="Node000003" class="node">
<title>Node3</title>
<g id="a_Node000003"><a xlink:href="classdi_1_1meta_1_1EnableView.html" target="_top" xlink:title=" ">
<polygon fill="white" stroke="#666666" points="134,-100 0,-100 0,-70 134,-70 134,-100"/>
<text text-anchor="start" x="8" y="-88" font-family="Helvetica,sans-Serif" font-size="10.00">di::meta::EnableView</text>
<text text-anchor="middle" x="67" y="-77" font-family="Helvetica,sans-Serif" font-size="10.00">&lt; Self, should_enable &gt;</text>
</a>
</g>
</g>
<!-- Node3&#45;&gt;Node2 -->
<g id="edge2_Node000002_Node000003" class="edge">
<title>Node3&#45;&gt;Node2</title>
<g id="a_edge2_Node000002_Node000003"><a xlink:title=" ">
<path fill="none" stroke="#63b8ff" d="M144.31,-85C161.95,-85 180.73,-85 198.38,-85"/>
<polygon fill="#63b8ff" stroke="#63b8ff" points="144.07,-81.5 134.07,-85 144.07,-88.5 144.07,-81.5"/>
</a>
</g>
</g>
<!-- Node4 -->
<g id="Node000004" class="node">
<title>Node4</title>
<g id="a_Node000004"><a xlink:href="classdi_1_1meta_1_1EnableBorrowedContainer.html" target="_top" xlink:title=" ">
<polygon fill="white" stroke="#666666" points="382,-52 170,-52 170,0 382,0 382,-52"/>
<text text-anchor="start" x="178" y="-40" font-family="Helvetica,sans-Serif" font-size="10.00">di::meta::EnableBorrowed</text>
<text text-anchor="start" x="178" y="-29" font-family="Helvetica,sans-Serif" font-size="10.00">Container&lt; AsRValueView</text>
<text text-anchor="start" x="178" y="-18" font-family="Helvetica,sans-Serif" font-size="10.00">&lt; View &gt;, concepts::BorrowedContainer</text>
<text text-anchor="middle" x="276" y="-7" font-family="Helvetica,sans-Serif" font-size="10.00">&lt; View &gt; &gt;</text>
</a>
</g>
</g>
<!-- Node4&#45;&gt;Node1 -->
<g id="edge3_Node000001_Node000004" class="edge">
<title>Node4&#45;&gt;Node1</title>
<g id="a_edge3_Node000001_Node000004"><a xlink:title=" ">
<path fill="none" stroke="#63b8ff" d="M392.26,-41.44C400.92,-42.6 409.52,-43.75 417.84,-44.86"/>
<polygon fill="#63b8ff" stroke="#63b8ff" points="392.46,-37.93 382.08,-40.08 391.53,-44.87 392.46,-37.93"/>
</a>
</g>
</g>
</g>
</svg>
