<?xml version="1.0" encoding="UTF-8" standalone="no"?>
<!DOCTYPE svg PUBLIC "-//W3C//DTD SVG 1.1//EN"
 "http://www.w3.org/Graphics/SVG/1.1/DTD/svg11.dtd">
<!-- Generated by graphviz version 2.43.0 (0)
 -->
<!-- Title: di::any::AnyT&lt; UserInterface, Storage, VTablePolicy &gt;::Type Pages: 1 -->
<svg width="390pt" height="98pt"
 viewBox="0.00 0.00 390.00 97.50" xmlns="http://www.w3.org/2000/svg" xmlns:xlink="http://www.w3.org/1999/xlink">
<g id="graph0" class="graph" transform="scale(1 1) rotate(0) translate(4 93.5)">
<title>di::any::AnyT&lt; UserInterface, Storage, VTablePolicy &gt;::Type</title>
<!-- Node1 -->
<g id="Node000001" class="node">
<title>Node1</title>
<g id="a_Node000001"><a xlink:title=" ">
<polygon fill="#999999" stroke="#666666" points="382,-51.5 218,-51.5 218,-21.5 382,-21.5 382,-51.5"/>
<text text-anchor="start" x="226" y="-39.5" font-family="Helvetica,sans-Serif" font-size="10.00">di::any::AnyT&lt; UserInterface,</text>
<text text-anchor="middle" x="300" y="-28.5" font-family="Helvetica,sans-Serif" font-size="10.00"> Storage, VTablePolicy &gt;::Type</text>
</a>
</g>
</g>
<!-- Node2 -->
<g id="Node000002" class="node">
<title>Node2</title>
<g id="a_Node000002"><a xlink:title=" ">
<polygon fill="white" stroke="#666666" points="182,-89.5 0,-89.5 0,-37.5 182,-37.5 182,-89.5"/>
<text text-anchor="start" x="8" y="-77.5" font-family="Helvetica,sans-Serif" font-size="10.00">detail::MethodImpl</text>
<text text-anchor="start" x="8" y="-66.5" font-family="Helvetica,sans-Serif" font-size="10.00">&lt; Type, Storage, meta</text>
<text text-anchor="start" x="8" y="-55.5" font-family="Helvetica,sans-Serif" font-size="10.00">::MergeInterfaces&lt; UserInterface,</text>
<text text-anchor="middle" x="91" y="-44.5" font-family="Helvetica,sans-Serif" font-size="10.00"> Storage::Interface &gt; &gt;</text>
</a>
</g>
</g>
<!-- Node2&#45;&gt;Node1 -->
<g id="edge1_Node000001_Node000002" class="edge">
<title>Node2&#45;&gt;Node1</title>
<g id="a_edge1_Node000001_Node000002"><a xlink:title=" ">
<path fill="none" stroke="#8b1a1a" d="M192.25,-50.42C200.85,-49.3 209.47,-48.18 217.89,-47.08"/>
<polygon fill="#8b1a1a" stroke="#8b1a1a" points="191.65,-46.97 182.19,-51.74 192.56,-53.91 191.65,-46.97"/>
</a>
</g>
</g>
<!-- Node3 -->
<g id="Node000003" class="node">
<title>Node3</title>
<g id="a_Node000003"><a xlink:title=" ">
<polygon fill="white" stroke="#666666" points="118,-19 64,-19 64,0 118,0 118,-19"/>
<text text-anchor="middle" x="91" y="-7" font-family="Helvetica,sans-Serif" font-size="10.00">Storage</text>
</a>
</g>
</g>
<!-- Node3&#45;&gt;Node1 -->
<g id="edge2_Node000001_Node000003" class="edge">
<title>Node3&#45;&gt;Node1</title>
<g id="a_edge2_Node000001_Node000003"><a xlink:title=" ">
<path fill="none" stroke="#63b8ff" d="M128.22,-14.22C152.94,-17.45 186.69,-21.85 217.66,-25.89"/>
<polygon fill="#63b8ff" stroke="#63b8ff" points="128.59,-10.74 118.22,-12.92 127.68,-17.68 128.59,-10.74"/>
</a>
</g>
</g>
</g>
</svg>
