<?xml version="1.0" encoding="UTF-8" standalone="no"?>
<!DOCTYPE svg PUBLIC "-//W3C//DTD SVG 1.1//EN"
 "http://www.w3.org/Graphics/SVG/1.1/DTD/svg11.dtd">
<!-- Generated by graphviz version 2.43.0 (0)
 -->
<!-- Title: di::vocab::StatusCode&lt; T &gt; Pages: 1 -->
<svg width="159pt" height="159pt"
 viewBox="0.00 0.00 159.00 159.00" xmlns="http://www.w3.org/2000/svg" xmlns:xlink="http://www.w3.org/1999/xlink">
<g id="graph0" class="graph" transform="scale(1 1) rotate(0) translate(4 155)">
<title>di::vocab::StatusCode&lt; T &gt;</title>
<!-- Node1 -->
<g id="Node000001" class="node">
<title>Node1</title>
<g id="a_Node000001"><a xlink:title=" ">
<polygon fill="#999999" stroke="#666666" points="151,-19 0,-19 0,0 151,0 151,-19"/>
<text text-anchor="middle" x="75.5" y="-7" font-family="Helvetica,sans-Serif" font-size="10.00">di::vocab::StatusCode&lt; T &gt;</text>
</a>
</g>
</g>
<!-- Node2 -->
<g id="Node000002" class="node">
<title>Node2</title>
<g id="a_Node000002"><a xlink:href="classdi_1_1vocab_1_1detail_1_1StatusCodeStorage.html" target="_top" xlink:title=" ">
<polygon fill="white" stroke="#666666" points="144.5,-85 6.5,-85 6.5,-55 144.5,-55 144.5,-85"/>
<text text-anchor="start" x="14.5" y="-73" font-family="Helvetica,sans-Serif" font-size="10.00">di::vocab::detail::</text>
<text text-anchor="middle" x="75.5" y="-62" font-family="Helvetica,sans-Serif" font-size="10.00">StatusCodeStorage&lt; T &gt;</text>
</a>
</g>
</g>
<!-- Node2&#45;&gt;Node1 -->
<g id="edge1_Node000001_Node000002" class="edge">
<title>Node2&#45;&gt;Node1</title>
<g id="a_edge1_Node000001_Node000002"><a xlink:title=" ">
<path fill="none" stroke="#63b8ff" d="M75.5,-44.75C75.5,-35.72 75.5,-26.03 75.5,-19.27"/>
<polygon fill="#63b8ff" stroke="#63b8ff" points="72,-44.84 75.5,-54.84 79,-44.84 72,-44.84"/>
</a>
</g>
</g>
<!-- Node3 -->
<g id="Node000003" class="node">
<title>Node3</title>
<g id="a_Node000003"><a xlink:href="classdi_1_1vocab_1_1StatusCode_3_01void_01_4.html" target="_top" xlink:title=" ">
<polygon fill="white" stroke="#666666" points="136.5,-151 14.5,-151 14.5,-121 136.5,-121 136.5,-151"/>
<text text-anchor="start" x="22.5" y="-139" font-family="Helvetica,sans-Serif" font-size="10.00">di::vocab::StatusCode</text>
<text text-anchor="middle" x="75.5" y="-128" font-family="Helvetica,sans-Serif" font-size="10.00">&lt; void &gt;</text>
</a>
</g>
</g>
<!-- Node3&#45;&gt;Node2 -->
<g id="edge2_Node000002_Node000003" class="edge">
<title>Node3&#45;&gt;Node2</title>
<g id="a_edge2_Node000002_Node000003"><a xlink:title=" ">
<path fill="none" stroke="#63b8ff" d="M75.5,-110.54C75.5,-101.96 75.5,-92.61 75.5,-85.16"/>
<polygon fill="#63b8ff" stroke="#63b8ff" points="72,-110.8 75.5,-120.8 79,-110.8 72,-110.8"/>
</a>
</g>
</g>
</g>
</svg>
