<?xml version="1.0" encoding="UTF-8" standalone="no"?>
<!DOCTYPE svg PUBLIC "-//W3C//DTD SVG 1.1//EN"
 "http://www.w3.org/Graphics/SVG/1.1/DTD/svg11.dtd">
<!-- Generated by graphviz version 2.43.0 (0)
 -->
<!-- Title: di::container::TreeMultiSet&lt; Value, Comp, Alloc &gt; Pages: 1 -->
<svg width="652pt" height="71pt"
 viewBox="0.00 0.00 652.00 71.00" xmlns="http://www.w3.org/2000/svg" xmlns:xlink="http://www.w3.org/1999/xlink">
<g id="graph0" class="graph" transform="scale(1 1) rotate(0) translate(4 67)">
<title>di::container::TreeMultiSet&lt; Value, Comp, Alloc &gt;</title>
<!-- Node1 -->
<g id="Node000001" class="node">
<title>Node1</title>
<g id="a_Node000001"><a xlink:title=" ">
<polygon fill="#999999" stroke="#666666" points="644,-46.5 498,-46.5 498,-16.5 644,-16.5 644,-46.5"/>
<text text-anchor="start" x="506" y="-34.5" font-family="Helvetica,sans-Serif" font-size="10.00">di::container::TreeMulti</text>
<text text-anchor="middle" x="571" y="-23.5" font-family="Helvetica,sans-Serif" font-size="10.00">Set&lt; Value, Comp, Alloc &gt;</text>
</a>
</g>
</g>
<!-- Node2 -->
<g id="Node000002" class="node">
<title>Node2</title>
<g id="a_Node000002"><a xlink:href="classdi_1_1container_1_1OwningRBTree.html" target="_top" xlink:title=" ">
<polygon fill="white" stroke="#666666" points="462,-52 308,-52 308,-11 462,-11 462,-52"/>
<text text-anchor="start" x="316" y="-40" font-family="Helvetica,sans-Serif" font-size="10.00">di::container::OwningRBTree</text>
<text text-anchor="start" x="316" y="-29" font-family="Helvetica,sans-Serif" font-size="10.00">&lt; Value, Comp, Tag, Alloc,</text>
<text text-anchor="middle" x="385" y="-18" font-family="Helvetica,sans-Serif" font-size="10.00"> Interface, is_multi &gt;</text>
</a>
</g>
</g>
<!-- Node2&#45;&gt;Node1 -->
<g id="edge1_Node000001_Node000002" class="edge">
<title>Node2&#45;&gt;Node1</title>
<g id="a_edge1_Node000001_Node000002"><a xlink:title=" ">
<path fill="none" stroke="#63b8ff" d="M472.44,-31.5C480.9,-31.5 489.43,-31.5 497.73,-31.5"/>
<polygon fill="#63b8ff" stroke="#63b8ff" points="472.17,-28 462.17,-31.5 472.17,-35 472.17,-28"/>
</a>
</g>
</g>
<!-- Node3 -->
<g id="Node000003" class="node">
<title>Node3</title>
<g id="a_Node000003"><a xlink:href="classdi_1_1container_1_1RBTree.html" target="_top" xlink:title=" ">
<polygon fill="white" stroke="#666666" points="272,-63 96,-63 96,0 272,0 272,-63"/>
<text text-anchor="start" x="104" y="-51" font-family="Helvetica,sans-Serif" font-size="10.00">di::container::RBTree</text>
<text text-anchor="start" x="104" y="-40" font-family="Helvetica,sans-Serif" font-size="10.00">&lt; Value, Comp, Tag, Interface,</text>
<text text-anchor="start" x="104" y="-29" font-family="Helvetica,sans-Serif" font-size="10.00"> is_multi, OwningRBTree&lt; Value,</text>
<text text-anchor="start" x="104" y="-18" font-family="Helvetica,sans-Serif" font-size="10.00"> Comp, Tag, Alloc, Interface,</text>
<text text-anchor="middle" x="184" y="-7" font-family="Helvetica,sans-Serif" font-size="10.00"> is_multi &gt; &gt;</text>
</a>
</g>
</g>
<!-- Node3&#45;&gt;Node2 -->
<g id="edge2_Node000002_Node000003" class="edge">
<title>Node3&#45;&gt;Node2</title>
<g id="a_edge2_Node000002_Node000003"><a xlink:title=" ">
<path fill="none" stroke="#63b8ff" d="M282.56,-31.5C291,-31.5 299.47,-31.5 307.71,-31.5"/>
<polygon fill="#63b8ff" stroke="#63b8ff" points="282.28,-28 272.28,-31.5 282.28,-35 282.28,-28"/>
</a>
</g>
</g>
<!-- Node4 -->
<g id="Node000004" class="node">
<title>Node4</title>
<g id="a_Node000004"><a xlink:title=" ">
<polygon fill="white" stroke="#666666" points="60,-41 0,-41 0,-22 60,-22 60,-41"/>
<text text-anchor="middle" x="30" y="-29" font-family="Helvetica,sans-Serif" font-size="10.00">Interface</text>
</a>
</g>
</g>
<!-- Node4&#45;&gt;Node3 -->
<g id="edge3_Node000003_Node000004" class="edge">
<title>Node4&#45;&gt;Node3</title>
<g id="a_edge3_Node000003_Node000004"><a xlink:title=" ">
<path fill="none" stroke="#63b8ff" d="M70.34,-31.5C78.32,-31.5 87,-31.5 95.89,-31.5"/>
<polygon fill="#63b8ff" stroke="#63b8ff" points="70.31,-28 60.31,-31.5 70.31,-35 70.31,-28"/>
</a>
</g>
</g>
</g>
</svg>
