<?xml version="1.0" encoding="UTF-8" standalone="no"?>
<!DOCTYPE svg PUBLIC "-//W3C//DTD SVG 1.1//EN"
 "http://www.w3.org/Graphics/SVG/1.1/DTD/svg11.dtd">
<!-- Generated by graphviz version 2.43.0 (0)
 -->
<!-- Title: di::container::string::StringImpl&lt; Enc, Vec &gt; Pages: 1 -->
<svg width="149pt" height="203pt"
 viewBox="0.00 0.00 149.00 203.00" xmlns="http://www.w3.org/2000/svg" xmlns:xlink="http://www.w3.org/1999/xlink">
<g id="graph0" class="graph" transform="scale(1 1) rotate(0) translate(4 199)">
<title>di::container::string::StringImpl&lt; Enc, Vec &gt;</title>
<!-- Node1 -->
<g id="Node000001" class="node">
<title>Node1</title>
<g id="a_Node000001"><a xlink:title=" ">
<polygon fill="#999999" stroke="#666666" points="138.5,-30 2.5,-30 2.5,0 138.5,0 138.5,-30"/>
<text text-anchor="start" x="10.5" y="-18" font-family="Helvetica,sans-Serif" font-size="10.00">di::container::string</text>
<text text-anchor="middle" x="70.5" y="-7" font-family="Helvetica,sans-Serif" font-size="10.00">::StringImpl&lt; Enc, Vec &gt;</text>
</a>
</g>
</g>
<!-- Node2 -->
<g id="Node000002" class="node">
<title>Node2</title>
<g id="a_Node000002"><a xlink:href="classdi_1_1container_1_1string_1_1MutableStringInterface.html" target="_top" xlink:title=" ">
<polygon fill="white" stroke="#666666" points="141,-118 0,-118 0,-66 141,-66 141,-118"/>
<text text-anchor="start" x="8" y="-106" font-family="Helvetica,sans-Serif" font-size="10.00">di::container::string</text>
<text text-anchor="start" x="8" y="-95" font-family="Helvetica,sans-Serif" font-size="10.00">::MutableStringInterface</text>
<text text-anchor="start" x="8" y="-84" font-family="Helvetica,sans-Serif" font-size="10.00">&lt; StringImpl&lt; Enc, Vec &gt;</text>
<text text-anchor="middle" x="70.5" y="-73" font-family="Helvetica,sans-Serif" font-size="10.00">, Enc &gt;</text>
</a>
</g>
</g>
<!-- Node2&#45;&gt;Node1 -->
<g id="edge1_Node000001_Node000002" class="edge">
<title>Node2&#45;&gt;Node1</title>
<g id="a_edge1_Node000001_Node000002"><a xlink:title=" ">
<path fill="none" stroke="#63b8ff" d="M70.5,-55.41C70.5,-46.57 70.5,-37.58 70.5,-30.43"/>
<polygon fill="#63b8ff" stroke="#63b8ff" points="67,-55.61 70.5,-65.61 74,-55.61 67,-55.61"/>
</a>
</g>
</g>
<!-- Node3 -->
<g id="Node000003" class="node">
<title>Node3</title>
<g id="a_Node000003"><a xlink:href="classdi_1_1container_1_1string_1_1ConstantStringInterface.html" target="_top" xlink:title=" ">
<polygon fill="white" stroke="#666666" points="139.5,-195 1.5,-195 1.5,-154 139.5,-154 139.5,-195"/>
<text text-anchor="start" x="9.5" y="-183" font-family="Helvetica,sans-Serif" font-size="10.00">di::container::string</text>
<text text-anchor="start" x="9.5" y="-172" font-family="Helvetica,sans-Serif" font-size="10.00">::ConstantStringInterface</text>
<text text-anchor="middle" x="70.5" y="-161" font-family="Helvetica,sans-Serif" font-size="10.00">&lt; Self, Enc &gt;</text>
</a>
</g>
</g>
<!-- Node3&#45;&gt;Node2 -->
<g id="edge2_Node000002_Node000003" class="edge">
<title>Node3&#45;&gt;Node2</title>
<g id="a_edge2_Node000002_Node000003"><a xlink:title=" ">
<path fill="none" stroke="#63b8ff" d="M70.5,-143.49C70.5,-135.15 70.5,-126.19 70.5,-118.16"/>
<polygon fill="#63b8ff" stroke="#63b8ff" points="67,-143.6 70.5,-153.6 74,-143.6 67,-143.6"/>
</a>
</g>
</g>
</g>
</svg>
