<?xml version="1.0" encoding="UTF-8" standalone="no"?>
<!DOCTYPE svg PUBLIC "-//W3C//DTD SVG 1.1//EN"
 "http://www.w3.org/Graphics/SVG/1.1/DTD/svg11.dtd">
<!-- Generated by graphviz version 2.43.0 (0)
 -->
<!-- Title: dius::filesystem::RecursiveDirectoryIterator Pages: 1 -->
<svg width="360pt" height="179pt"
 viewBox="0.00 0.00 360.00 178.50" xmlns="http://www.w3.org/2000/svg" xmlns:xlink="http://www.w3.org/1999/xlink">
<g id="graph0" class="graph" transform="scale(1 1) rotate(0) translate(4 174.5)">
<title>dius::filesystem::RecursiveDirectoryIterator</title>
<!-- Node1 -->
<g id="Node000001" class="node">
<title>Node1</title>
<g id="a_Node000001"><a xlink:title=" ">
<polygon fill="#999999" stroke="#666666" points="352,-84 204,-84 204,-54 352,-54 352,-84"/>
<text text-anchor="start" x="212" y="-72" font-family="Helvetica,sans-Serif" font-size="10.00">dius::filesystem::Recursive</text>
<text text-anchor="middle" x="278" y="-61" font-family="Helvetica,sans-Serif" font-size="10.00">DirectoryIterator</text>
</a>
</g>
</g>
<!-- Node2 -->
<g id="Node000002" class="node">
<title>Node2</title>
<g id="a_Node000002"><a xlink:href="structdi_1_1container_1_1IteratorBase.html" target="_top" xlink:title=" ">
<polygon fill="white" stroke="#666666" points="164,-170.5 4,-170.5 4,-107.5 164,-107.5 164,-170.5"/>
<text text-anchor="start" x="12" y="-158.5" font-family="Helvetica,sans-Serif" font-size="10.00">di::container::IteratorBase</text>
<text text-anchor="start" x="12" y="-147.5" font-family="Helvetica,sans-Serif" font-size="10.00">&lt; RecursiveDirectoryIterator,</text>
<text text-anchor="start" x="12" y="-136.5" font-family="Helvetica,sans-Serif" font-size="10.00"> di::InputIteratorTag, di::</text>
<text text-anchor="start" x="12" y="-125.5" font-family="Helvetica,sans-Serif" font-size="10.00">Expected&lt; DirectoryEntry, di</text>
<text text-anchor="middle" x="84" y="-114.5" font-family="Helvetica,sans-Serif" font-size="10.00">::GenericCode &gt;, i64 &gt;</text>
</a>
</g>
</g>
<!-- Node2&#45;&gt;Node1 -->
<g id="edge1_Node000001_Node000002" class="edge">
<title>Node2&#45;&gt;Node1</title>
<g id="a_edge1_Node000001_Node000002"><a xlink:title=" ">
<path fill="none" stroke="#63b8ff" d="M173.77,-106.64C195.43,-98.74 217.58,-90.66 235.79,-84.03"/>
<polygon fill="#63b8ff" stroke="#63b8ff" points="172.4,-103.41 164.2,-110.12 174.8,-109.99 172.4,-103.41"/>
</a>
</g>
</g>
<!-- Node3 -->
<g id="Node000003" class="node">
<title>Node3</title>
<g id="a_Node000003"><a xlink:href="classdi_1_1meta_1_1EnableBorrowedContainer.html" target="_top" xlink:title=" ">
<polygon fill="white" stroke="#666666" points="168,-89.5 0,-89.5 0,-48.5 168,-48.5 168,-89.5"/>
<text text-anchor="start" x="8" y="-77.5" font-family="Helvetica,sans-Serif" font-size="10.00">di::meta::EnableBorrowed</text>
<text text-anchor="start" x="8" y="-66.5" font-family="Helvetica,sans-Serif" font-size="10.00">Container&lt; RecursiveDirectory</text>
<text text-anchor="middle" x="84" y="-55.5" font-family="Helvetica,sans-Serif" font-size="10.00">Iterator &gt;</text>
</a>
</g>
</g>
<!-- Node3&#45;&gt;Node1 -->
<g id="edge2_Node000001_Node000003" class="edge">
<title>Node3&#45;&gt;Node1</title>
<g id="a_edge2_Node000001_Node000003"><a xlink:title=" ">
<path fill="none" stroke="#63b8ff" d="M178.15,-69C186.74,-69 195.36,-69 203.73,-69"/>
<polygon fill="#63b8ff" stroke="#63b8ff" points="178.1,-65.5 168.1,-69 178.1,-72.5 178.1,-65.5"/>
</a>
</g>
</g>
<!-- Node4 -->
<g id="Node000004" class="node">
<title>Node4</title>
<g id="a_Node000004"><a xlink:href="classdi_1_1meta_1_1EnableView.html" target="_top" xlink:title=" ">
<polygon fill="white" stroke="#666666" points="168,-30 0,-30 0,0 168,0 168,-30"/>
<text text-anchor="start" x="8" y="-18" font-family="Helvetica,sans-Serif" font-size="10.00">di::meta::EnableView</text>
<text text-anchor="middle" x="84" y="-7" font-family="Helvetica,sans-Serif" font-size="10.00">&lt; RecursiveDirectoryIterator &gt;</text>
</a>
</g>
</g>
<!-- Node4&#45;&gt;Node1 -->
<g id="edge3_Node000001_Node000004" class="edge">
<title>Node4&#45;&gt;Node1</title>
<g id="a_edge3_Node000001_Node000004"><a xlink:title=" ">
<path fill="none" stroke="#63b8ff" d="M148.34,-32.81C172.66,-39.65 200.16,-47.39 223.47,-53.95"/>
<polygon fill="#63b8ff" stroke="#63b8ff" points="149.06,-29.38 138.48,-30.04 147.16,-36.12 149.06,-29.38"/>
</a>
</g>
</g>
</g>
</svg>
