<?xml version="1.0" encoding="UTF-8" standalone="no"?>
<!DOCTYPE svg PUBLIC "-//W3C//DTD SVG 1.1//EN"
 "http://www.w3.org/Graphics/SVG/1.1/DTD/svg11.dtd">
<!-- Generated by graphviz version 2.43.0 (0)
 -->
<!-- Title: di::parser::detail::AlternationParser&lt; Parsers &gt; Pages: 1 -->
<svg width="341pt" height="86pt"
 viewBox="0.00 0.00 341.00 86.00" xmlns="http://www.w3.org/2000/svg" xmlns:xlink="http://www.w3.org/1999/xlink">
<g id="graph0" class="graph" transform="scale(1 1) rotate(0) translate(4 82)">
<title>di::parser::detail::AlternationParser&lt; Parsers &gt;</title>
<!-- Node1 -->
<g id="Node000001" class="node">
<title>Node1</title>
<g id="a_Node000001"><a xlink:title=" ">
<polygon fill="#999999" stroke="#666666" points="333,-59.5 226,-59.5 226,-18.5 333,-18.5 333,-59.5"/>
<text text-anchor="start" x="234" y="-47.5" font-family="Helvetica,sans-Serif" font-size="10.00">di::parser::detail</text>
<text text-anchor="start" x="234" y="-36.5" font-family="Helvetica,sans-Serif" font-size="10.00">::AlternationParser</text>
<text text-anchor="middle" x="279.5" y="-25.5" font-family="Helvetica,sans-Serif" font-size="10.00">&lt; Parsers &gt;</text>
</a>
</g>
</g>
<!-- Node2 -->
<g id="Node000002" class="node">
<title>Node2</title>
<g id="a_Node000002"><a xlink:href="classdi_1_1parser_1_1ParserBase.html" target="_top" xlink:title=" ">
<polygon fill="white" stroke="#666666" points="190,-78 0,-78 0,-48 190,-48 190,-78"/>
<text text-anchor="start" x="8" y="-66" font-family="Helvetica,sans-Serif" font-size="10.00">di::parser::ParserBase</text>
<text text-anchor="middle" x="95" y="-55" font-family="Helvetica,sans-Serif" font-size="10.00">&lt; AlternationParser&lt; Parsers... &gt; &gt;</text>
</a>
</g>
</g>
<!-- Node2&#45;&gt;Node1 -->
<g id="edge1_Node000001_Node000002" class="edge">
<title>Node2&#45;&gt;Node1</title>
<g id="a_edge1_Node000001_Node000002"><a xlink:title=" ">
<path fill="none" stroke="#63b8ff" d="M200.17,-49.3C208.96,-48.15 217.58,-47.01 225.71,-45.94"/>
<polygon fill="#63b8ff" stroke="#63b8ff" points="199.65,-45.84 190.19,-50.61 200.56,-52.78 199.65,-45.84"/>
</a>
</g>
</g>
<!-- Node3 -->
<g id="Node000003" class="node">
<title>Node3</title>
<g id="a_Node000003"><a xlink:href="structdi_1_1parser_1_1detail_1_1AlternationParserMarker.html" target="_top" xlink:title=" ">
<polygon fill="white" stroke="#666666" points="165,-30 25,-30 25,0 165,0 165,-30"/>
<text text-anchor="start" x="33" y="-18" font-family="Helvetica,sans-Serif" font-size="10.00">di::parser::detail</text>
<text text-anchor="middle" x="95" y="-7" font-family="Helvetica,sans-Serif" font-size="10.00">::AlternationParserMarker</text>
</a>
</g>
</g>
<!-- Node3&#45;&gt;Node1 -->
<g id="edge2_Node000001_Node000003" class="edge">
<title>Node3&#45;&gt;Node1</title>
<g id="a_edge2_Node000001_Node000003"><a xlink:title=" ">
<path fill="none" stroke="#63b8ff" d="M175.24,-25.42C192.33,-27.67 209.99,-29.99 225.78,-32.07"/>
<polygon fill="#63b8ff" stroke="#63b8ff" points="175.63,-21.94 165.26,-24.11 174.71,-28.88 175.63,-21.94"/>
</a>
</g>
</g>
</g>
</svg>
