<?xml version="1.0" encoding="UTF-8" standalone="no"?>
<!DOCTYPE svg PUBLIC "-//W3C//DTD SVG 1.1//EN"
 "http://www.w3.org/Graphics/SVG/1.1/DTD/svg11.dtd">
<!-- Generated by graphviz version 2.43.0 (0)
 -->
<!-- Title: di::vocab::Optional&lt; T &gt; Pages: 1 -->
<svg width="385pt" height="157pt"
 viewBox="0.00 0.00 385.00 156.50" xmlns="http://www.w3.org/2000/svg" xmlns:xlink="http://www.w3.org/1999/xlink">
<g id="graph0" class="graph" transform="scale(1 1) rotate(0) translate(4 152.5)">
<title>di::vocab::Optional&lt; T &gt;</title>
<!-- Node1 -->
<g id="Node000001" class="node">
<title>Node1</title>
<g id="a_Node000001"><a xlink:title=" ">
<polygon fill="#999999" stroke="#666666" points="377,-89 240,-89 240,-70 377,-70 377,-89"/>
<text text-anchor="middle" x="308.5" y="-77" font-family="Helvetica,sans-Serif" font-size="10.00">di::vocab::Optional&lt; T &gt;</text>
</a>
</g>
</g>
<!-- Node2 -->
<g id="Node000002" class="node">
<title>Node2</title>
<g id="a_Node000002"><a xlink:href="classdi_1_1meta_1_1EnableView.html" target="_top" xlink:title=" ">
<polygon fill="white" stroke="#666666" points="162,-148.5 42,-148.5 42,-118.5 162,-118.5 162,-148.5"/>
<text text-anchor="start" x="50" y="-136.5" font-family="Helvetica,sans-Serif" font-size="10.00">di::meta::EnableView</text>
<text text-anchor="middle" x="102" y="-125.5" font-family="Helvetica,sans-Serif" font-size="10.00">&lt; Optional&lt; T &gt; &gt;</text>
</a>
</g>
</g>
<!-- Node2&#45;&gt;Node1 -->
<g id="edge1_Node000001_Node000002" class="edge">
<title>Node2&#45;&gt;Node1</title>
<g id="a_edge1_Node000001_Node000002"><a xlink:title=" ">
<path fill="none" stroke="#63b8ff" d="M171.93,-117.6C182.69,-114.98 193.66,-112.23 204,-109.5 228.24,-103.11 255.46,-95.19 275.9,-89.09"/>
<polygon fill="#63b8ff" stroke="#63b8ff" points="171.04,-114.21 162.14,-119.96 172.68,-121.02 171.04,-114.21"/>
</a>
</g>
</g>
<!-- Node3 -->
<g id="Node000003" class="node">
<title>Node3</title>
<g id="a_Node000003"><a xlink:href="classdi_1_1meta_1_1EnableBorrowedContainer.html" target="_top" xlink:title=" ">
<polygon fill="white" stroke="#666666" points="204,-100 0,-100 0,-59 204,-59 204,-100"/>
<text text-anchor="start" x="8" y="-88" font-family="Helvetica,sans-Serif" font-size="10.00">di::meta::EnableBorrowed</text>
<text text-anchor="start" x="8" y="-77" font-family="Helvetica,sans-Serif" font-size="10.00">Container&lt; Optional&lt; T</text>
<text text-anchor="middle" x="102" y="-66" font-family="Helvetica,sans-Serif" font-size="10.00"> &gt;, concepts::LValueReference&lt; T &gt; &gt;</text>
</a>
</g>
</g>
<!-- Node3&#45;&gt;Node1 -->
<g id="edge2_Node000001_Node000003" class="edge">
<title>Node3&#45;&gt;Node1</title>
<g id="a_edge2_Node000001_Node000003"><a xlink:title=" ">
<path fill="none" stroke="#63b8ff" d="M214.32,-79.5C223.04,-79.5 231.67,-79.5 239.96,-79.5"/>
<polygon fill="#63b8ff" stroke="#63b8ff" points="214.05,-76 204.05,-79.5 214.05,-83 214.05,-76"/>
</a>
</g>
</g>
<!-- Node4 -->
<g id="Node000004" class="node">
<title>Node4</title>
<g id="a_Node000004"><a xlink:href="classdi_1_1function_1_1monad_1_1MonadInterface.html" target="_top" xlink:title=" ">
<polygon fill="white" stroke="#666666" points="178,-41 26,-41 26,0 178,0 178,-41"/>
<text text-anchor="start" x="34" y="-29" font-family="Helvetica,sans-Serif" font-size="10.00">di::function::monad</text>
<text text-anchor="start" x="34" y="-18" font-family="Helvetica,sans-Serif" font-size="10.00">::MonadInterface&lt; Optional</text>
<text text-anchor="middle" x="102" y="-7" font-family="Helvetica,sans-Serif" font-size="10.00">&lt; T &gt; &gt;</text>
</a>
</g>
</g>
<!-- Node4&#45;&gt;Node1 -->
<g id="edge3_Node000001_Node000004" class="edge">
<title>Node4&#45;&gt;Node1</title>
<g id="a_edge3_Node000001_Node000004"><a xlink:title=" ">
<path fill="none" stroke="#63b8ff" d="M183.92,-43.85C215.46,-52.95 249.83,-62.86 274.3,-69.92"/>
<polygon fill="#63b8ff" stroke="#63b8ff" points="184.82,-40.46 174.24,-41.05 182.87,-47.19 184.82,-40.46"/>
</a>
</g>
</g>
</g>
</svg>
