<?xml version="1.0" encoding="UTF-8" standalone="no"?>
<!DOCTYPE svg PUBLIC "-//W3C//DTD SVG 1.1//EN"
 "http://www.w3.org/Graphics/SVG/1.1/DTD/svg11.dtd">
<!-- Generated by graphviz version 2.43.0 (0)
 -->
<!-- Title: iris::mm::BackingObject Pages: 1 -->
<svg width="334pt" height="148pt"
 viewBox="0.00 0.00 334.00 148.00" xmlns="http://www.w3.org/2000/svg" xmlns:xlink="http://www.w3.org/1999/xlink">
<g id="graph0" class="graph" transform="scale(1 1) rotate(0) translate(4 144)">
<title>iris::mm::BackingObject</title>
<!-- Node1 -->
<g id="Node000001" class="node">
<title>Node1</title>
<g id="a_Node000001"><a xlink:title=" ">
<polygon fill="#999999" stroke="#666666" points="244.5,-19 110.5,-19 110.5,0 244.5,0 244.5,-19"/>
<text text-anchor="middle" x="177.5" y="-7" font-family="Helvetica,sans-Serif" font-size="10.00">iris::mm::BackingObject</text>
</a>
</g>
</g>
<!-- Node2 -->
<g id="Node000002" class="node">
<title>Node2</title>
<g id="a_Node000002"><a xlink:href="structdi_1_1vocab_1_1IntrusiveRefCount.html" target="_top" xlink:title=" ">
<polygon fill="white" stroke="#666666" points="183,-79.5 0,-79.5 0,-60.5 183,-60.5 183,-79.5"/>
<text text-anchor="middle" x="91.5" y="-67.5" font-family="Helvetica,sans-Serif" font-size="10.00">di::vocab::IntrusiveRefCount&lt; T &gt;</text>
</a>
</g>
</g>
<!-- Node2&#45;&gt;Node1 -->
<g id="edge1_Node000001_Node000002" class="edge">
<title>Node2&#45;&gt;Node1</title>
<g id="a_edge1_Node000001_Node000002"><a xlink:title=" ">
<path fill="none" stroke="#63b8ff" d="M112.58,-54.66C128.92,-43.55 151.02,-28.51 164.76,-19.17"/>
<polygon fill="#63b8ff" stroke="#63b8ff" points="110.49,-51.85 104.19,-60.37 114.43,-57.64 110.49,-51.85"/>
</a>
</g>
</g>
<!-- Node3 -->
<g id="Node000003" class="node">
<title>Node3</title>
<g id="a_Node000003"><a xlink:href="structdi_1_1util_1_1Immovable.html" target="_top" xlink:title=" ">
<polygon fill="white" stroke="#666666" points="146,-140 37,-140 37,-121 146,-121 146,-140"/>
<text text-anchor="middle" x="91.5" y="-128" font-family="Helvetica,sans-Serif" font-size="10.00">di::util::Immovable</text>
</a>
</g>
</g>
<!-- Node3&#45;&gt;Node2 -->
<g id="edge2_Node000002_Node000003" class="edge">
<title>Node3&#45;&gt;Node2</title>
<g id="a_edge2_Node000002_Node000003"><a xlink:title=" ">
<path fill="none" stroke="#63b8ff" d="M91.5,-110.66C91.5,-100.24 91.5,-87.8 91.5,-79.67"/>
<polygon fill="#63b8ff" stroke="#63b8ff" points="88,-110.87 91.5,-120.87 95,-110.87 88,-110.87"/>
</a>
</g>
</g>
<!-- Node4 -->
<g id="Node000004" class="node">
<title>Node4</title>
<g id="a_Node000004"><a xlink:href="classdi_1_1sync_1_1Synchronized.html" target="_top" xlink:title=" ">
<polygon fill="white" stroke="#666666" points="326,-85 201,-85 201,-55 326,-55 326,-85"/>
<text text-anchor="start" x="209" y="-73" font-family="Helvetica,sans-Serif" font-size="10.00">di::sync::Synchronized</text>
<text text-anchor="middle" x="263.5" y="-62" font-family="Helvetica,sans-Serif" font-size="10.00">&lt; Value, Lock &gt;</text>
</a>
</g>
</g>
<!-- Node4&#45;&gt;Node1 -->
<g id="edge3_Node000001_Node000004" class="edge">
<title>Node4&#45;&gt;Node1</title>
<g id="a_edge3_Node000001_Node000004"><a xlink:title=" ">
<path fill="none" stroke="#63b8ff" d="M234.19,-49.06C219.18,-38.85 201.68,-26.95 190.13,-19.09"/>
<polygon fill="#63b8ff" stroke="#63b8ff" points="232.44,-52.11 242.68,-54.84 236.38,-46.32 232.44,-52.11"/>
</a>
</g>
</g>
</g>
</svg>
