<?xml version="1.0" encoding="UTF-8" standalone="no"?>
<!DOCTYPE svg PUBLIC "-//W3C//DTD SVG 1.1//EN"
 "http://www.w3.org/Graphics/SVG/1.1/DTD/svg11.dtd">
<!-- Generated by graphviz version 2.43.0 (0)
 -->
<!-- Title: di::container::IntrusiveTreeSet&lt; T, Tag, Comp &gt; Pages: 1 -->
<svg width="172pt" height="170pt"
 viewBox="0.00 0.00 172.00 170.00" xmlns="http://www.w3.org/2000/svg" xmlns:xlink="http://www.w3.org/1999/xlink">
<g id="graph0" class="graph" transform="scale(1 1) rotate(0) translate(4 166)">
<title>di::container::IntrusiveTreeSet&lt; T, Tag, Comp &gt;</title>
<!-- Node1 -->
<g id="Node000001" class="node">
<title>Node1</title>
<g id="a_Node000001"><a xlink:title=" ">
<polygon fill="#999999" stroke="#666666" points="151,-30 13,-30 13,0 151,0 151,-30"/>
<text text-anchor="start" x="21" y="-18" font-family="Helvetica,sans-Serif" font-size="10.00">di::container::Intrusive</text>
<text text-anchor="middle" x="82" y="-7" font-family="Helvetica,sans-Serif" font-size="10.00">TreeSet&lt; T, Tag, Comp &gt;</text>
</a>
</g>
</g>
<!-- Node2 -->
<g id="Node000002" class="node">
<title>Node2</title>
<g id="a_Node000002"><a xlink:href="classdi_1_1container_1_1RBTree.html" target="_top" xlink:title="General implementation of the Red&#45;Black self&#45;balancing binary tree.">
<polygon fill="white" stroke="#666666" points="164,-107 0,-107 0,-66 164,-66 164,-107"/>
<text text-anchor="start" x="8" y="-95" font-family="Helvetica,sans-Serif" font-size="10.00">di::container::RBTree</text>
<text text-anchor="start" x="8" y="-84" font-family="Helvetica,sans-Serif" font-size="10.00">&lt; Value, Comp, Tag, Interface,</text>
<text text-anchor="middle" x="82" y="-73" font-family="Helvetica,sans-Serif" font-size="10.00"> is_multi, Self &gt;</text>
</a>
</g>
</g>
<!-- Node2&#45;&gt;Node1 -->
<g id="edge1_Node000001_Node000002" class="edge">
<title>Node2&#45;&gt;Node1</title>
<g id="a_edge1_Node000001_Node000002"><a xlink:title=" ">
<path fill="none" stroke="#63b8ff" d="M82,-55.66C82,-46.76 82,-37.42 82,-30.04"/>
<polygon fill="#63b8ff" stroke="#63b8ff" points="78.5,-55.77 82,-65.77 85.5,-55.77 78.5,-55.77"/>
</a>
</g>
</g>
<!-- Node3 -->
<g id="Node000003" class="node">
<title>Node3</title>
<g id="a_Node000003"><a xlink:title=" ">
<polygon fill="white" stroke="#666666" points="112,-162 52,-162 52,-143 112,-143 112,-162"/>
<text text-anchor="middle" x="82" y="-150" font-family="Helvetica,sans-Serif" font-size="10.00">Interface</text>
</a>
</g>
</g>
<!-- Node3&#45;&gt;Node2 -->
<g id="edge2_Node000002_Node000003" class="edge">
<title>Node3&#45;&gt;Node2</title>
<g id="a_edge2_Node000002_Node000003"><a xlink:title=" ">
<path fill="none" stroke="#63b8ff" d="M82,-132.63C82,-124.56 82,-115.15 82,-107.01"/>
<polygon fill="#63b8ff" stroke="#63b8ff" points="78.5,-132.87 82,-142.87 85.5,-132.87 78.5,-132.87"/>
</a>
</g>
</g>
</g>
</svg>
