<?xml version="1.0" encoding="UTF-8" standalone="no"?>
<!DOCTYPE svg PUBLIC "-//W3C//DTD SVG 1.1//EN"
 "http://www.w3.org/Graphics/SVG/1.1/DTD/svg11.dtd">
<!-- Generated by graphviz version 2.43.0 (0)
 -->
<!-- Title: di::sync::Synchronized&lt; Value, Lock &gt; Pages: 1 -->
<svg width="313pt" height="167pt"
 viewBox="0.00 0.00 313.00 167.00" xmlns="http://www.w3.org/2000/svg" xmlns:xlink="http://www.w3.org/1999/xlink">
<g id="graph0" class="graph" transform="scale(1 1) rotate(0) translate(4 163)">
<title>di::sync::Synchronized&lt; Value, Lock &gt;</title>
<!-- Node1 -->
<g id="Node000001" class="node">
<title>Node1</title>
<g id="a_Node000001"><a xlink:title=" ">
<polygon fill="#999999" stroke="#666666" points="125,-94.5 0,-94.5 0,-64.5 125,-64.5 125,-94.5"/>
<text text-anchor="start" x="8" y="-82.5" font-family="Helvetica,sans-Serif" font-size="10.00">di::sync::Synchronized</text>
<text text-anchor="middle" x="62.5" y="-71.5" font-family="Helvetica,sans-Serif" font-size="10.00">&lt; Value, Lock &gt;</text>
</a>
</g>
</g>
<!-- Node2 -->
<g id="Node000002" class="node">
<title>Node2</title>
<g id="a_Node000002"><a xlink:href="classiris_1_1TaskNamespace.html" target="_top" xlink:title=" ">
<polygon fill="white" stroke="#666666" points="305,-159 161,-159 161,-118 305,-118 305,-159"/>
<text text-anchor="start" x="169" y="-147" font-family="Helvetica,sans-Serif" font-size="10.00">iris::TaskNamespace</text>
<text text-anchor="start" x="169" y="-136" font-family="Helvetica,sans-Serif" font-size="10.00">&lt; LockedTaskNamespace,</text>
<text text-anchor="middle" x="233" y="-125" font-family="Helvetica,sans-Serif" font-size="10.00"> InterruptibleSpinlock &gt;</text>
</a>
</g>
</g>
<!-- Node1&#45;&gt;Node2 -->
<g id="edge1_Node000001_Node000002" class="edge">
<title>Node1&#45;&gt;Node2</title>
<g id="a_edge1_Node000001_Node000002"><a xlink:title=" ">
<path fill="none" stroke="#63b8ff" d="M116,-97.88C134.15,-104.24 154.61,-111.4 173.23,-117.92"/>
<polygon fill="#63b8ff" stroke="#63b8ff" points="117.05,-94.54 106.46,-94.54 114.74,-101.15 117.05,-94.54"/>
</a>
</g>
</g>
<!-- Node3 -->
<g id="Node000003" class="node">
<title>Node3</title>
<g id="a_Node000003"><a xlink:href="classiris_1_1mm_1_1AddressSpace.html" target="_top" xlink:title=" ">
<polygon fill="white" stroke="#666666" points="299.5,-100 166.5,-100 166.5,-59 299.5,-59 299.5,-100"/>
<text text-anchor="start" x="174.5" y="-88" font-family="Helvetica,sans-Serif" font-size="10.00">iris::mm::AddressSpace</text>
<text text-anchor="start" x="174.5" y="-77" font-family="Helvetica,sans-Serif" font-size="10.00">&lt; LockedAddressSpace,</text>
<text text-anchor="middle" x="233" y="-66" font-family="Helvetica,sans-Serif" font-size="10.00"> InterruptibleSpinlock &gt;</text>
</a>
</g>
</g>
<!-- Node1&#45;&gt;Node3 -->
<g id="edge2_Node000001_Node000003" class="edge">
<title>Node1&#45;&gt;Node3</title>
<g id="a_edge2_Node000001_Node000003"><a xlink:title=" ">
<path fill="none" stroke="#63b8ff" d="M135.42,-79.5C145.66,-79.5 156.14,-79.5 166.25,-79.5"/>
<polygon fill="#63b8ff" stroke="#63b8ff" points="135.29,-76 125.29,-79.5 135.29,-83 135.29,-76"/>
</a>
</g>
</g>
<!-- Node4 -->
<g id="Node000004" class="node">
<title>Node4</title>
<g id="a_Node000004"><a xlink:href="classiris_1_1mm_1_1BackingObject.html" target="_top" xlink:title=" ">
<polygon fill="white" stroke="#666666" points="300.5,-41 165.5,-41 165.5,0 300.5,0 300.5,-41"/>
<text text-anchor="start" x="173.5" y="-29" font-family="Helvetica,sans-Serif" font-size="10.00">iris::mm::BackingObject</text>
<text text-anchor="start" x="173.5" y="-18" font-family="Helvetica,sans-Serif" font-size="10.00">&lt; LockedBackingObject,</text>
<text text-anchor="middle" x="233" y="-7" font-family="Helvetica,sans-Serif" font-size="10.00"> InterruptibleSpinlock &gt;</text>
</a>
</g>
</g>
<!-- Node1&#45;&gt;Node4 -->
<g id="edge3_Node000001_Node000004" class="edge">
<title>Node1&#45;&gt;Node4</title>
<g id="a_edge3_Node000001_Node000004"><a xlink:title=" ">
<path fill="none" stroke="#63b8ff" d="M116,-61.12C134.15,-54.76 154.61,-47.6 173.23,-41.08"/>
<polygon fill="#63b8ff" stroke="#63b8ff" points="114.74,-57.85 106.46,-64.46 117.05,-64.46 114.74,-57.85"/>
</a>
</g>
</g>
</g>
</svg>
