<?xml version="1.0" encoding="UTF-8" standalone="no"?>
<!DOCTYPE svg PUBLIC "-//W3C//DTD SVG 1.1//EN"
 "http://www.w3.org/Graphics/SVG/1.1/DTD/svg11.dtd">
<!-- Generated by graphviz version 2.43.0 (0)
 -->
<!-- Title: di::container::OwningRBTree&lt; Value, Comp, Tag, Alloc, Interface, is_multi &gt; Pages: 1 -->
<svg width="661pt" height="409pt"
 viewBox="0.00 0.00 661.00 409.00" xmlns="http://www.w3.org/2000/svg" xmlns:xlink="http://www.w3.org/1999/xlink">
<g id="graph0" class="graph" transform="scale(1 1) rotate(0) translate(4 405)">
<title>di::container::OwningRBTree&lt; Value, Comp, Tag, Alloc, Interface, is_multi &gt;</title>
<!-- Node1 -->
<g id="Node000001" class="node">
<title>Node1</title>
<g id="a_Node000001"><a xlink:title=" ">
<polygon fill="#999999" stroke="#666666" points="462,-215.5 308,-215.5 308,-174.5 462,-174.5 462,-215.5"/>
<text text-anchor="start" x="316" y="-203.5" font-family="Helvetica,sans-Serif" font-size="10.00">di::container::OwningRBTree</text>
<text text-anchor="start" x="316" y="-192.5" font-family="Helvetica,sans-Serif" font-size="10.00">&lt; Value, Comp, Tag, Alloc,</text>
<text text-anchor="middle" x="385" y="-181.5" font-family="Helvetica,sans-Serif" font-size="10.00"> Interface, is_multi &gt;</text>
</a>
</g>
</g>
<!-- Node4 -->
<g id="Node000004" class="node">
<title>Node4</title>
<g id="a_Node000004"><a xlink:href="classdi_1_1container_1_1TreeMap.html" target="_top" xlink:title=" ">
<polygon fill="white" stroke="#666666" points="645.5,-401 505.5,-401 505.5,-371 645.5,-371 645.5,-401"/>
<text text-anchor="start" x="513.5" y="-389" font-family="Helvetica,sans-Serif" font-size="10.00">di::container::TreeMap</text>
<text text-anchor="middle" x="575.5" y="-378" font-family="Helvetica,sans-Serif" font-size="10.00">&lt; u32, iris::Processor * &gt;</text>
</a>
</g>
</g>
<!-- Node1&#45;&gt;Node4 -->
<g id="edge3_Node000001_Node000004" class="edge">
<title>Node1&#45;&gt;Node4</title>
<g id="a_edge3_Node000001_Node000004"><a xlink:title=" ">
<path fill="none" stroke="#63b8ff" d="M398.56,-225.15C415.65,-262.59 449.75,-325.92 498,-362 502.57,-365.42 507.64,-368.36 512.93,-370.88"/>
<polygon fill="#63b8ff" stroke="#63b8ff" points="401.65,-223.48 394.38,-215.77 395.25,-226.33 401.65,-223.48"/>
</a>
</g>
</g>
<!-- Node5 -->
<g id="Node000005" class="node">
<title>Node5</title>
<g id="a_Node000005"><a xlink:href="classdi_1_1container_1_1TreeMap.html" target="_top" xlink:title=" ">
<polygon fill="white" stroke="#666666" points="641.5,-352.5 509.5,-352.5 509.5,-311.5 641.5,-311.5 641.5,-352.5"/>
<text text-anchor="start" x="517.5" y="-340.5" font-family="Helvetica,sans-Serif" font-size="10.00">di::container::TreeMap</text>
<text text-anchor="start" x="517.5" y="-329.5" font-family="Helvetica,sans-Serif" font-size="10.00">&lt; di::TransparentString,</text>
<text text-anchor="middle" x="575.5" y="-318.5" font-family="Helvetica,sans-Serif" font-size="10.00"> di::Arc&lt; iris::Inode &gt; &gt;</text>
</a>
</g>
</g>
<!-- Node1&#45;&gt;Node5 -->
<g id="edge4_Node000001_Node000005" class="edge">
<title>Node1&#45;&gt;Node5</title>
<g id="a_edge4_Node000001_Node000005"><a xlink:title=" ">
<path fill="none" stroke="#63b8ff" d="M409.71,-223.61C430.8,-247.54 463.56,-281.18 498,-303 502.8,-306.04 507.97,-308.84 513.27,-311.4"/>
<polygon fill="#63b8ff" stroke="#63b8ff" points="412.21,-221.16 403.02,-215.9 406.92,-225.75 412.21,-221.16"/>
</a>
</g>
</g>
<!-- Node6 -->
<g id="Node000006" class="node">
<title>Node6</title>
<g id="a_Node000006"><a xlink:href="classdi_1_1container_1_1TreeMap.html" target="_top" xlink:title=" ">
<polygon fill="white" stroke="#666666" points="639,-293.5 512,-293.5 512,-252.5 639,-252.5 639,-293.5"/>
<text text-anchor="start" x="520" y="-281.5" font-family="Helvetica,sans-Serif" font-size="10.00">di::container::TreeMap</text>
<text text-anchor="start" x="520" y="-270.5" font-family="Helvetica,sans-Serif" font-size="10.00">&lt; di::util::StrongInt,</text>
<text text-anchor="middle" x="575.5" y="-259.5" font-family="Helvetica,sans-Serif" font-size="10.00"> di::Arc&lt; iris::Task &gt; &gt;</text>
</a>
</g>
</g>
<!-- Node1&#45;&gt;Node6 -->
<g id="edge5_Node000001_Node000006" class="edge">
<title>Node1&#45;&gt;Node6</title>
<g id="a_edge5_Node000001_Node000006"><a xlink:title=" ">
<path fill="none" stroke="#63b8ff" d="M442.61,-219.67C460.3,-227.27 479.92,-235.58 498,-243 505.52,-246.09 513.49,-249.29 521.33,-252.39"/>
<polygon fill="#63b8ff" stroke="#63b8ff" points="443.57,-216.27 433,-215.53 440.8,-222.7 443.57,-216.27"/>
</a>
</g>
</g>
<!-- Node7 -->
<g id="Node000007" class="node">
<title>Node7</title>
<g id="a_Node000007"><a xlink:href="classdi_1_1container_1_1TreeSet.html" target="_top" xlink:title=" ">
<polygon fill="white" stroke="#666666" points="635,-234 516,-234 516,-204 635,-204 635,-234"/>
<text text-anchor="start" x="524" y="-222" font-family="Helvetica,sans-Serif" font-size="10.00">di::container::TreeSet</text>
<text text-anchor="middle" x="575.5" y="-211" font-family="Helvetica,sans-Serif" font-size="10.00">&lt; pm::Package &gt;</text>
</a>
</g>
</g>
<!-- Node1&#45;&gt;Node7 -->
<g id="edge6_Node000001_Node000007" class="edge">
<title>Node1&#45;&gt;Node7</title>
<g id="a_edge6_Node000001_Node000007"><a xlink:title=" ">
<path fill="none" stroke="#63b8ff" d="M472.26,-205.98C486.99,-207.86 501.98,-209.77 515.78,-211.52"/>
<polygon fill="#63b8ff" stroke="#63b8ff" points="472.49,-202.48 462.13,-204.69 471.6,-209.43 472.49,-202.48"/>
</a>
</g>
</g>
<!-- Node8 -->
<g id="Node000008" class="node">
<title>Node8</title>
<g id="a_Node000008"><a xlink:href="classdi_1_1container_1_1TreeMap.html" target="_top" xlink:title=" ">
<polygon fill="white" stroke="#666666" points="653,-186 498,-186 498,-156 653,-156 653,-186"/>
<text text-anchor="start" x="506" y="-174" font-family="Helvetica,sans-Serif" font-size="10.00">di::container::TreeMap</text>
<text text-anchor="middle" x="575.5" y="-163" font-family="Helvetica,sans-Serif" font-size="10.00">&lt; Key, Value, Comp, Alloc &gt;</text>
</a>
</g>
</g>
<!-- Node1&#45;&gt;Node8 -->
<g id="edge7_Node000001_Node000008" class="edge">
<title>Node1&#45;&gt;Node8</title>
<g id="a_edge7_Node000001_Node000008"><a xlink:title=" ">
<path fill="none" stroke="#63b8ff" d="M472.12,-184.04C480.68,-182.95 489.33,-181.84 497.78,-180.77"/>
<polygon fill="#63b8ff" stroke="#63b8ff" points="471.6,-180.57 462.13,-185.31 472.49,-187.52 471.6,-180.57"/>
</a>
</g>
</g>
<!-- Node9 -->
<g id="Node000009" class="node">
<title>Node9</title>
<g id="a_Node000009"><a xlink:href="classdi_1_1container_1_1TreeMultiMap.html" target="_top" xlink:title=" ">
<polygon fill="white" stroke="#666666" points="644,-137.5 507,-137.5 507,-96.5 644,-96.5 644,-137.5"/>
<text text-anchor="start" x="515" y="-125.5" font-family="Helvetica,sans-Serif" font-size="10.00">di::container::TreeMulti</text>
<text text-anchor="start" x="515" y="-114.5" font-family="Helvetica,sans-Serif" font-size="10.00">Map&lt; Key, Value, Comp,</text>
<text text-anchor="middle" x="575.5" y="-103.5" font-family="Helvetica,sans-Serif" font-size="10.00"> Alloc &gt;</text>
</a>
</g>
</g>
<!-- Node1&#45;&gt;Node9 -->
<g id="edge8_Node000001_Node000009" class="edge">
<title>Node1&#45;&gt;Node9</title>
<g id="a_edge8_Node000001_Node000009"><a xlink:title=" ">
<path fill="none" stroke="#63b8ff" d="M442.61,-170.33C460.3,-162.73 479.92,-154.42 498,-147 505.52,-143.91 513.49,-140.71 521.33,-137.61"/>
<polygon fill="#63b8ff" stroke="#63b8ff" points="440.8,-167.3 433,-174.47 443.57,-173.73 440.8,-167.3"/>
</a>
</g>
</g>
<!-- Node10 -->
<g id="Node000010" class="node">
<title>Node10</title>
<g id="a_Node000010"><a xlink:href="classdi_1_1container_1_1TreeMultiSet.html" target="_top" xlink:title=" ">
<polygon fill="white" stroke="#666666" points="648.5,-78 502.5,-78 502.5,-48 648.5,-48 648.5,-78"/>
<text text-anchor="start" x="510.5" y="-66" font-family="Helvetica,sans-Serif" font-size="10.00">di::container::TreeMulti</text>
<text text-anchor="middle" x="575.5" y="-55" font-family="Helvetica,sans-Serif" font-size="10.00">Set&lt; Value, Comp, Alloc &gt;</text>
</a>
</g>
</g>
<!-- Node1&#45;&gt;Node10 -->
<g id="edge9_Node000001_Node000010" class="edge">
<title>Node1&#45;&gt;Node10</title>
<g id="a_edge9_Node000001_Node000010"><a xlink:title=" ">
<path fill="none" stroke="#63b8ff" d="M409.02,-166.31C429.9,-142.03 462.73,-107.93 498,-87 503.75,-83.59 510.03,-80.62 516.44,-78.03"/>
<polygon fill="#63b8ff" stroke="#63b8ff" points="406.19,-164.23 402.41,-174.13 411.54,-168.75 406.19,-164.23"/>
</a>
</g>
</g>
<!-- Node11 -->
<g id="Node000011" class="node">
<title>Node11</title>
<g id="a_Node000011"><a xlink:href="classdi_1_1container_1_1TreeSet.html" target="_top" xlink:title=" ">
<polygon fill="white" stroke="#666666" points="641,-30 510,-30 510,0 641,0 641,-30"/>
<text text-anchor="start" x="518" y="-18" font-family="Helvetica,sans-Serif" font-size="10.00">di::container::TreeSet</text>
<text text-anchor="middle" x="575.5" y="-7" font-family="Helvetica,sans-Serif" font-size="10.00">&lt; Value, Comp, Alloc &gt;</text>
</a>
</g>
</g>
<!-- Node1&#45;&gt;Node11 -->
<g id="edge10_Node000001_Node000011" class="edge">
<title>Node1&#45;&gt;Node11</title>
<g id="a_edge10_Node000001_Node000011"><a xlink:title=" ">
<path fill="none" stroke="#63b8ff" d="M400.02,-164.98C417.93,-129.81 452.19,-72.13 498,-39 502.74,-35.57 507.98,-32.63 513.43,-30.09"/>
<polygon fill="#63b8ff" stroke="#63b8ff" points="396.72,-163.76 395.4,-174.27 402.99,-166.87 396.72,-163.76"/>
</a>
</g>
</g>
<!-- Node2 -->
<g id="Node000002" class="node">
<title>Node2</title>
<g id="a_Node000002"><a xlink:href="classdi_1_1container_1_1RBTree.html" target="_top" xlink:title=" ">
<polygon fill="white" stroke="#666666" points="272,-226.5 96,-226.5 96,-163.5 272,-163.5 272,-226.5"/>
<text text-anchor="start" x="104" y="-214.5" font-family="Helvetica,sans-Serif" font-size="10.00">di::container::RBTree</text>
<text text-anchor="start" x="104" y="-203.5" font-family="Helvetica,sans-Serif" font-size="10.00">&lt; Value, Comp, Tag, Interface,</text>
<text text-anchor="start" x="104" y="-192.5" font-family="Helvetica,sans-Serif" font-size="10.00"> is_multi, OwningRBTree&lt; Value,</text>
<text text-anchor="start" x="104" y="-181.5" font-family="Helvetica,sans-Serif" font-size="10.00"> Comp, Tag, Alloc, Interface,</text>
<text text-anchor="middle" x="184" y="-170.5" font-family="Helvetica,sans-Serif" font-size="10.00"> is_multi &gt; &gt;</text>
</a>
</g>
</g>
<!-- Node2&#45;&gt;Node1 -->
<g id="edge1_Node000001_Node000002" class="edge">
<title>Node2&#45;&gt;Node1</title>
<g id="a_edge1_Node000001_Node000002"><a xlink:title=" ">
<path fill="none" stroke="#63b8ff" d="M282.56,-195C291,-195 299.47,-195 307.71,-195"/>
<polygon fill="#63b8ff" stroke="#63b8ff" points="282.28,-191.5 272.28,-195 282.28,-198.5 282.28,-191.5"/>
</a>
</g>
</g>
<!-- Node3 -->
<g id="Node000003" class="node">
<title>Node3</title>
<g id="a_Node000003"><a xlink:title=" ">
<polygon fill="white" stroke="#666666" points="60,-204.5 0,-204.5 0,-185.5 60,-185.5 60,-204.5"/>
<text text-anchor="middle" x="30" y="-192.5" font-family="Helvetica,sans-Serif" font-size="10.00">Interface</text>
</a>
</g>
</g>
<!-- Node3&#45;&gt;Node2 -->
<g id="edge2_Node000002_Node000003" class="edge">
<title>Node3&#45;&gt;Node2</title>
<g id="a_edge2_Node000002_Node000003"><a xlink:title=" ">
<path fill="none" stroke="#63b8ff" d="M70.34,-195C78.32,-195 87,-195 95.89,-195"/>
<polygon fill="#63b8ff" stroke="#63b8ff" points="70.31,-191.5 60.31,-195 70.31,-198.5 70.31,-191.5"/>
</a>
</g>
</g>
</g>
</svg>
