<?xml version="1.0" encoding="UTF-8" standalone="no"?>
<!DOCTYPE svg PUBLIC "-//W3C//DTD SVG 1.1//EN"
 "http://www.w3.org/Graphics/SVG/1.1/DTD/svg11.dtd">
<!-- Generated by graphviz version 2.43.0 (0)
 -->
<!-- Title: di::container::IotaView&lt; T, Bound &gt; Pages: 1 -->
<svg width="491pt" height="98pt"
 viewBox="0.00 0.00 491.00 97.50" xmlns="http://www.w3.org/2000/svg" xmlns:xlink="http://www.w3.org/1999/xlink">
<g id="graph0" class="graph" transform="scale(1 1) rotate(0) translate(4 93.5)">
<title>di::container::IotaView&lt; T, Bound &gt;</title>
<!-- Node1 -->
<g id="Node000001" class="node">
<title>Node1</title>
<g id="a_Node000001"><a xlink:title=" ">
<polygon fill="#999999" stroke="#666666" points="483,-62.5 357,-62.5 357,-32.5 483,-32.5 483,-62.5"/>
<text text-anchor="start" x="365" y="-50.5" font-family="Helvetica,sans-Serif" font-size="10.00">di::container::IotaView</text>
<text text-anchor="middle" x="420" y="-39.5" font-family="Helvetica,sans-Serif" font-size="10.00">&lt; T, Bound &gt;</text>
</a>
</g>
</g>
<!-- Node2 -->
<g id="Node000002" class="node">
<title>Node2</title>
<g id="a_Node000002"><a xlink:href="classdi_1_1container_1_1ViewInterface.html" target="_top" xlink:title=" ">
<polygon fill="white" stroke="#666666" points="321,-89.5 170,-89.5 170,-59.5 321,-59.5 321,-89.5"/>
<text text-anchor="start" x="178" y="-77.5" font-family="Helvetica,sans-Serif" font-size="10.00">di::container::ViewInterface</text>
<text text-anchor="middle" x="245.5" y="-66.5" font-family="Helvetica,sans-Serif" font-size="10.00">&lt; Self &gt;</text>
</a>
</g>
</g>
<!-- Node2&#45;&gt;Node1 -->
<g id="edge1_Node000001_Node000002" class="edge">
<title>Node2&#45;&gt;Node1</title>
<g id="a_edge1_Node000001_Node000002"><a xlink:title=" ">
<path fill="none" stroke="#63b8ff" d="M331.27,-61.23C339.91,-59.88 348.58,-58.52 356.91,-57.22"/>
<polygon fill="#63b8ff" stroke="#63b8ff" points="330.5,-57.81 321.16,-62.81 331.58,-64.73 330.5,-57.81"/>
</a>
</g>
</g>
<!-- Node3 -->
<g id="Node000003" class="node">
<title>Node3</title>
<g id="a_Node000003"><a xlink:href="classdi_1_1meta_1_1EnableView.html" target="_top" xlink:title=" ">
<polygon fill="white" stroke="#666666" points="134,-89.5 0,-89.5 0,-59.5 134,-59.5 134,-89.5"/>
<text text-anchor="start" x="8" y="-77.5" font-family="Helvetica,sans-Serif" font-size="10.00">di::meta::EnableView</text>
<text text-anchor="middle" x="67" y="-66.5" font-family="Helvetica,sans-Serif" font-size="10.00">&lt; Self, should_enable &gt;</text>
</a>
</g>
</g>
<!-- Node3&#45;&gt;Node2 -->
<g id="edge2_Node000002_Node000003" class="edge">
<title>Node3&#45;&gt;Node2</title>
<g id="a_edge2_Node000002_Node000003"><a xlink:title=" ">
<path fill="none" stroke="#63b8ff" d="M144.43,-74.5C152.88,-74.5 161.48,-74.5 169.9,-74.5"/>
<polygon fill="#63b8ff" stroke="#63b8ff" points="144.22,-71 134.22,-74.5 144.22,-78 144.22,-71"/>
</a>
</g>
</g>
<!-- Node4 -->
<g id="Node000004" class="node">
<title>Node4</title>
<g id="a_Node000004"><a xlink:href="classdi_1_1meta_1_1EnableBorrowedContainer.html" target="_top" xlink:title=" ">
<polygon fill="white" stroke="#666666" points="317,-41 174,-41 174,0 317,0 317,-41"/>
<text text-anchor="start" x="182" y="-29" font-family="Helvetica,sans-Serif" font-size="10.00">di::meta::EnableBorrowed</text>
<text text-anchor="start" x="182" y="-18" font-family="Helvetica,sans-Serif" font-size="10.00">Container&lt; Self, should</text>
<text text-anchor="middle" x="245.5" y="-7" font-family="Helvetica,sans-Serif" font-size="10.00">_enable &gt;</text>
</a>
</g>
</g>
<!-- Node4&#45;&gt;Node1 -->
<g id="edge3_Node000001_Node000004" class="edge">
<title>Node4&#45;&gt;Node1</title>
<g id="a_edge3_Node000001_Node000004"><a xlink:title=" ">
<path fill="none" stroke="#63b8ff" d="M327.07,-33.11C337.04,-34.67 347.11,-36.25 356.74,-37.76"/>
<polygon fill="#63b8ff" stroke="#63b8ff" points="327.58,-29.65 317.16,-31.56 326.5,-36.56 327.58,-29.65"/>
</a>
</g>
</g>
</g>
</svg>
