<?xml version="1.0" encoding="UTF-8" standalone="no"?>
<!DOCTYPE svg PUBLIC "-//W3C//DTD SVG 1.1//EN"
 "http://www.w3.org/Graphics/SVG/1.1/DTD/svg11.dtd">
<!-- Generated by graphviz version 2.43.0 (0)
 -->
<!-- Title: di::container::IntrusiveForwardListNode&lt; Tag &gt; Pages: 1 -->
<svg width="685pt" height="301pt"
 viewBox="0.00 0.00 685.00 301.00" xmlns="http://www.w3.org/2000/svg" xmlns:xlink="http://www.w3.org/1999/xlink">
<g id="graph0" class="graph" transform="scale(1 1) rotate(0) translate(4 297)">
<title>di::container::IntrusiveForwardListNode&lt; Tag &gt;</title>
<!-- Node1 -->
<g id="Node000001" class="node">
<title>Node1</title>
<g id="a_Node000001"><a xlink:title=" ">
<polygon fill="#999999" stroke="#666666" points="282,-153 145,-153 145,-123 282,-123 282,-153"/>
<text text-anchor="start" x="153" y="-141" font-family="Helvetica,sans-Serif" font-size="10.00">di::container::Intrusive</text>
<text text-anchor="middle" x="213.5" y="-130" font-family="Helvetica,sans-Serif" font-size="10.00">ForwardListNode&lt; Tag &gt;</text>
</a>
</g>
</g>
<!-- Node3 -->
<g id="Node000003" class="node">
<title>Node3</title>
<g id="a_Node000003"><a xlink:href="structdi_1_1container_1_1HashNode.html" target="_top" xlink:title=" ">
<polygon fill="white" stroke="#666666" points="461,-260 327,-260 327,-230 461,-230 461,-260"/>
<text text-anchor="start" x="335" y="-248" font-family="Helvetica,sans-Serif" font-size="10.00">di::container::HashNode</text>
<text text-anchor="middle" x="394" y="-237" font-family="Helvetica,sans-Serif" font-size="10.00">&lt; Tag &gt;</text>
</a>
</g>
</g>
<!-- Node1&#45;&gt;Node3 -->
<g id="edge2_Node000001_Node000003" class="edge">
<title>Node1&#45;&gt;Node3</title>
<g id="a_edge2_Node000001_Node000003"><a xlink:title=" ">
<path fill="none" stroke="#63b8ff" d="M248.57,-158.42C283.43,-179.32 336.76,-211.29 367.93,-229.97"/>
<polygon fill="#63b8ff" stroke="#63b8ff" points="250.07,-155.24 239.7,-153.1 246.47,-161.25 250.07,-155.24"/>
</a>
</g>
</g>
<!-- Node5 -->
<g id="Node000005" class="node">
<title>Node5</title>
<g id="a_Node000005"><a xlink:href="structdius_1_1linux_1_1OperationStateBase.html" target="_top" xlink:title=" ">
<polygon fill="white" stroke="#666666" points="467,-153 321,-153 321,-123 467,-123 467,-153"/>
<text text-anchor="start" x="329" y="-141" font-family="Helvetica,sans-Serif" font-size="10.00">dius::linux::OperationState</text>
<text text-anchor="middle" x="394" y="-130" font-family="Helvetica,sans-Serif" font-size="10.00">Base&lt;&gt;</text>
</a>
</g>
</g>
<!-- Node1&#45;&gt;Node5 -->
<g id="edge4_Node000001_Node000005" class="edge">
<title>Node1&#45;&gt;Node5</title>
<g id="a_edge4_Node000001_Node000005"><a xlink:title=" ">
<path fill="none" stroke="#63b8ff" d="M292.41,-138C301.86,-138 311.48,-138 320.85,-138"/>
<polygon fill="#63b8ff" stroke="#63b8ff" points="292.24,-134.5 282.24,-138 292.24,-141.5 292.24,-134.5"/>
</a>
</g>
</g>
<!-- Node11 -->
<g id="Node000011" class="node">
<title>Node11</title>
<g id="a_Node000011"><a xlink:href="structiris_1_1detail_1_1InternalObjectFreed.html" target="_top" xlink:title=" ">
<polygon fill="white" stroke="#666666" points="470,-105 318,-105 318,-75 470,-75 470,-105"/>
<text text-anchor="start" x="326" y="-93" font-family="Helvetica,sans-Serif" font-size="10.00">iris::detail::InternalObject</text>
<text text-anchor="middle" x="394" y="-82" font-family="Helvetica,sans-Serif" font-size="10.00">Freed&lt; InternalObjectTag &gt;</text>
</a>
</g>
</g>
<!-- Node1&#45;&gt;Node11 -->
<g id="edge10_Node000001_Node000011" class="edge">
<title>Node1&#45;&gt;Node11</title>
<g id="a_edge10_Node000001_Node000011"><a xlink:title=" ">
<path fill="none" stroke="#63b8ff" d="M280.39,-120.28C299.06,-115.26 319.2,-109.85 337.21,-105"/>
<polygon fill="#63b8ff" stroke="#63b8ff" points="279.24,-116.97 270.49,-122.94 281.05,-123.73 279.24,-116.97"/>
</a>
</g>
</g>
<!-- Node2 -->
<g id="Node000002" class="node">
<title>Node2</title>
<g id="a_Node000002"><a xlink:href="structdi_1_1util_1_1Immovable.html" target="_top" xlink:title=" ">
<polygon fill="white" stroke="#666666" points="109,-147.5 0,-147.5 0,-128.5 109,-128.5 109,-147.5"/>
<text text-anchor="middle" x="54.5" y="-135.5" font-family="Helvetica,sans-Serif" font-size="10.00">di::util::Immovable</text>
</a>
</g>
</g>
<!-- Node2&#45;&gt;Node1 -->
<g id="edge1_Node000001_Node000002" class="edge">
<title>Node2&#45;&gt;Node1</title>
<g id="a_edge1_Node000001_Node000002"><a xlink:title=" ">
<path fill="none" stroke="#8b1a1a" d="M119.28,-138C127.75,-138 136.46,-138 144.99,-138"/>
<polygon fill="#8b1a1a" stroke="#8b1a1a" points="119.09,-134.5 109.09,-138 119.09,-141.5 119.09,-134.5"/>
</a>
</g>
</g>
<!-- Node4 -->
<g id="Node000004" class="node">
<title>Node4</title>
<g id="a_Node000004"><a xlink:href="structdi_1_1container_1_1OwningHashNode.html" target="_top" xlink:title=" ">
<polygon fill="white" stroke="#666666" points="664,-293 519,-293 519,-263 664,-263 664,-293"/>
<text text-anchor="start" x="527" y="-281" font-family="Helvetica,sans-Serif" font-size="10.00">di::container::OwningHash</text>
<text text-anchor="middle" x="591.5" y="-270" font-family="Helvetica,sans-Serif" font-size="10.00">Node&lt; T, Tag &gt;</text>
</a>
</g>
</g>
<!-- Node3&#45;&gt;Node4 -->
<g id="edge3_Node000003_Node000004" class="edge">
<title>Node3&#45;&gt;Node4</title>
<g id="a_edge3_Node000003_Node000004"><a xlink:title=" ">
<path fill="none" stroke="#63b8ff" d="M471.31,-257.88C486.9,-260.51 503.25,-263.27 518.68,-265.88"/>
<polygon fill="#63b8ff" stroke="#63b8ff" points="471.63,-254.39 461.19,-256.17 470.47,-261.29 471.63,-254.39"/>
</a>
</g>
</g>
<!-- Node6 -->
<g id="Node000006" class="node">
<title>Node6</title>
<g id="a_Node000006"><a xlink:href="structdius_1_1linux_1_1CloseSender_1_1OperationStateT_1_1Type.html" target="_top" xlink:title=" ">
<polygon fill="white" stroke="#666666" points="658.5,-244.5 524.5,-244.5 524.5,-203.5 658.5,-203.5 658.5,-244.5"/>
<text text-anchor="start" x="532.5" y="-232.5" font-family="Helvetica,sans-Serif" font-size="10.00">dius::linux::CloseSender</text>
<text text-anchor="start" x="532.5" y="-221.5" font-family="Helvetica,sans-Serif" font-size="10.00">::OperationStateT&lt; Rec</text>
<text text-anchor="middle" x="591.5" y="-210.5" font-family="Helvetica,sans-Serif" font-size="10.00"> &gt;::Type</text>
</a>
</g>
</g>
<!-- Node5&#45;&gt;Node6 -->
<g id="edge5_Node000005_Node000006" class="edge">
<title>Node5&#45;&gt;Node6</title>
<g id="a_edge5_Node000005_Node000006"><a xlink:title=" ">
<path fill="none" stroke="#63b8ff" d="M430.9,-158.1C452.34,-169.68 480.3,-184.06 506,-195 512.85,-197.92 520.1,-200.76 527.36,-203.45"/>
<polygon fill="#63b8ff" stroke="#63b8ff" points="432.3,-154.88 421.85,-153.17 428.95,-161.03 432.3,-154.88"/>
</a>
</g>
</g>
<!-- Node7 -->
<g id="Node000007" class="node">
<title>Node7</title>
<g id="a_Node000007"><a xlink:href="structdius_1_1linux_1_1OpenSender_1_1OperationStateT_1_1Type.html" target="_top" xlink:title=" ">
<polygon fill="white" stroke="#666666" points="657.5,-185.5 525.5,-185.5 525.5,-144.5 657.5,-144.5 657.5,-185.5"/>
<text text-anchor="start" x="533.5" y="-173.5" font-family="Helvetica,sans-Serif" font-size="10.00">dius::linux::OpenSender</text>
<text text-anchor="start" x="533.5" y="-162.5" font-family="Helvetica,sans-Serif" font-size="10.00">::OperationStateT&lt; Rec</text>
<text text-anchor="middle" x="591.5" y="-151.5" font-family="Helvetica,sans-Serif" font-size="10.00"> &gt;::Type</text>
</a>
</g>
</g>
<!-- Node5&#45;&gt;Node7 -->
<g id="edge6_Node000005_Node000007" class="edge">
<title>Node5&#45;&gt;Node7</title>
<g id="a_edge6_Node000005_Node000007"><a xlink:title=" ">
<path fill="none" stroke="#63b8ff" d="M477.16,-149.35C493.24,-151.57 509.9,-153.87 525.34,-156"/>
<polygon fill="#63b8ff" stroke="#63b8ff" points="477.63,-145.88 467.24,-147.98 476.67,-152.81 477.63,-145.88"/>
</a>
</g>
</g>
<!-- Node8 -->
<g id="Node000008" class="node">
<title>Node8</title>
<g id="a_Node000008"><a xlink:href="structdius_1_1linux_1_1ReadSomeSender_1_1OperationStateT_1_1Type.html" target="_top" xlink:title=" ">
<polygon fill="white" stroke="#666666" points="677,-126 506,-126 506,-96 677,-96 677,-126"/>
<text text-anchor="start" x="514" y="-114" font-family="Helvetica,sans-Serif" font-size="10.00">dius::linux::ReadSomeSender</text>
<text text-anchor="middle" x="591.5" y="-103" font-family="Helvetica,sans-Serif" font-size="10.00">::OperationStateT&lt; Rec &gt;::Type</text>
</a>
</g>
</g>
<!-- Node5&#45;&gt;Node8 -->
<g id="edge7_Node000005_Node000008" class="edge">
<title>Node5&#45;&gt;Node8</title>
<g id="a_edge7_Node000005_Node000008"><a xlink:title=" ">
<path fill="none" stroke="#63b8ff" d="M477.41,-126.62C486.86,-125.31 496.52,-123.98 506,-122.67"/>
<polygon fill="#63b8ff" stroke="#63b8ff" points="476.67,-123.19 467.24,-128.02 477.63,-130.12 476.67,-123.19"/>
</a>
</g>
</g>
<!-- Node9 -->
<g id="Node000009" class="node">
<title>Node9</title>
<g id="a_Node000009"><a xlink:href="structdius_1_1linux_1_1ScheduleSender_1_1OperationStateT_1_1Type.html" target="_top" xlink:title=" ">
<polygon fill="white" stroke="#666666" points="677,-78 506,-78 506,-48 677,-48 677,-78"/>
<text text-anchor="start" x="514" y="-66" font-family="Helvetica,sans-Serif" font-size="10.00">dius::linux::ScheduleSender</text>
<text text-anchor="middle" x="591.5" y="-55" font-family="Helvetica,sans-Serif" font-size="10.00">::OperationStateT&lt; Rec &gt;::Type</text>
</a>
</g>
</g>
<!-- Node5&#45;&gt;Node9 -->
<g id="edge8_Node000005_Node000009" class="edge">
<title>Node5&#45;&gt;Node9</title>
<g id="a_edge8_Node000005_Node000009"><a xlink:title=" ">
<path fill="none" stroke="#63b8ff" d="M459.03,-119.14C462.79,-117.53 466.48,-115.82 470,-114 487.77,-104.82 488.08,-95.88 506,-87 512.83,-83.61 520.22,-80.64 527.68,-78.03"/>
<polygon fill="#63b8ff" stroke="#63b8ff" points="457.53,-115.97 449.54,-122.93 460.13,-122.47 457.53,-115.97"/>
</a>
</g>
</g>
<!-- Node10 -->
<g id="Node000010" class="node">
<title>Node10</title>
<g id="a_Node000010"><a xlink:href="structdius_1_1linux_1_1WriteSomeSender_1_1OperationStateT_1_1Type.html" target="_top" xlink:title=" ">
<polygon fill="white" stroke="#666666" points="677,-30 506,-30 506,0 677,0 677,-30"/>
<text text-anchor="start" x="514" y="-18" font-family="Helvetica,sans-Serif" font-size="10.00">dius::linux::WriteSomeSender</text>
<text text-anchor="middle" x="591.5" y="-7" font-family="Helvetica,sans-Serif" font-size="10.00">::OperationStateT&lt; Rec &gt;::Type</text>
</a>
</g>
</g>
<!-- Node5&#45;&gt;Node10 -->
<g id="edge9_Node000005_Node000010" class="edge">
<title>Node5&#45;&gt;Node10</title>
<g id="a_edge9_Node000005_Node000010"><a xlink:title=" ">
<path fill="none" stroke="#63b8ff" d="M465.8,-117.35C467.25,-116.29 468.65,-115.17 470,-114 497.88,-89.72 477.72,-62.82 506,-39 510.08,-35.56 514.63,-32.61 519.43,-30.09"/>
<polygon fill="#63b8ff" stroke="#63b8ff" points="463.63,-114.58 457.01,-122.85 467.34,-120.51 463.63,-114.58"/>
</a>
</g>
</g>
</g>
</svg>
