<?xml version="1.0" encoding="UTF-8" standalone="no"?>
<!DOCTYPE svg PUBLIC "-//W3C//DTD SVG 1.1//EN"
 "http://www.w3.org/Graphics/SVG/1.1/DTD/svg11.dtd">
<!-- Generated by graphviz version 2.43.0 (0)
 -->
<!-- Title: di::container::IntrusiveList&lt; T, Tag, Self &gt; Pages: 1 -->
<svg width="307pt" height="205pt"
 viewBox="0.00 0.00 307.00 205.00" xmlns="http://www.w3.org/2000/svg" xmlns:xlink="http://www.w3.org/1999/xlink">
<g id="graph0" class="graph" transform="scale(1 1) rotate(0) translate(4 201)">
<title>di::container::IntrusiveList&lt; T, Tag, Self &gt;</title>
<!-- Node1 -->
<g id="Node000001" class="node">
<title>Node1</title>
<g id="a_Node000001"><a xlink:title=" ">
<polygon fill="#999999" stroke="#666666" points="126,-113 0,-113 0,-83 126,-83 126,-113"/>
<text text-anchor="start" x="8" y="-101" font-family="Helvetica,sans-Serif" font-size="10.00">di::container::Intrusive</text>
<text text-anchor="middle" x="63" y="-90" font-family="Helvetica,sans-Serif" font-size="10.00">List&lt; T, Tag, Self &gt;</text>
</a>
</g>
</g>
<!-- Node2 -->
<g id="Node000002" class="node">
<title>Node2</title>
<g id="a_Node000002"><a xlink:href="classdi_1_1container_1_1LinkedList.html" target="_top" xlink:title=" ">
<polygon fill="white" stroke="#666666" points="296.5,-197 164.5,-197 164.5,-167 296.5,-167 296.5,-197"/>
<text text-anchor="start" x="172.5" y="-185" font-family="Helvetica,sans-Serif" font-size="10.00">di::container::LinkedList</text>
<text text-anchor="middle" x="230.5" y="-174" font-family="Helvetica,sans-Serif" font-size="10.00">&lt; iris::Processor &gt;</text>
</a>
</g>
</g>
<!-- Node1&#45;&gt;Node2 -->
<g id="edge1_Node000001_Node000002" class="edge">
<title>Node1&#45;&gt;Node2</title>
<g id="a_edge1_Node000001_Node000002"><a xlink:title=" ">
<path fill="none" stroke="#63b8ff" d="M94.32,-118.83C113.22,-131.24 138.38,-146.72 162,-158 168.73,-161.22 176.02,-164.24 183.23,-166.99"/>
<polygon fill="#63b8ff" stroke="#63b8ff" points="96.1,-115.81 85.83,-113.19 92.22,-121.64 96.1,-115.81"/>
</a>
</g>
</g>
<!-- Node3 -->
<g id="Node000003" class="node">
<title>Node3</title>
<g id="a_Node000003"><a xlink:href="classdi_1_1container_1_1LinkedList.html" target="_top" xlink:title=" ">
<polygon fill="white" stroke="#666666" points="299,-148.5 162,-148.5 162,-107.5 299,-107.5 299,-148.5"/>
<text text-anchor="start" x="170" y="-136.5" font-family="Helvetica,sans-Serif" font-size="10.00">di::container::LinkedList</text>
<text text-anchor="start" x="170" y="-125.5" font-family="Helvetica,sans-Serif" font-size="10.00">&lt; di::sync::Synchronized</text>
<text text-anchor="middle" x="230.5" y="-114.5" font-family="Helvetica,sans-Serif" font-size="10.00">&lt; IrqController &gt; &gt;</text>
</a>
</g>
</g>
<!-- Node1&#45;&gt;Node3 -->
<g id="edge2_Node000001_Node000003" class="edge">
<title>Node1&#45;&gt;Node3</title>
<g id="a_edge2_Node000001_Node000003"><a xlink:title=" ">
<path fill="none" stroke="#63b8ff" d="M136.04,-111.06C144.59,-112.61 153.3,-114.19 161.79,-115.73"/>
<polygon fill="#63b8ff" stroke="#63b8ff" points="136.56,-107.6 126.1,-109.26 135.31,-114.48 136.56,-107.6"/>
</a>
</g>
</g>
<!-- Node4 -->
<g id="Node000004" class="node">
<title>Node4</title>
<g id="a_Node000004"><a xlink:href="classdi_1_1container_1_1LinkedList.html" target="_top" xlink:title=" ">
<polygon fill="white" stroke="#666666" points="299,-89.5 162,-89.5 162,-48.5 299,-48.5 299,-89.5"/>
<text text-anchor="start" x="170" y="-77.5" font-family="Helvetica,sans-Serif" font-size="10.00">di::container::LinkedList</text>
<text text-anchor="start" x="170" y="-66.5" font-family="Helvetica,sans-Serif" font-size="10.00">&lt; di::sync::Synchronized</text>
<text text-anchor="middle" x="230.5" y="-55.5" font-family="Helvetica,sans-Serif" font-size="10.00">&lt; Timer &gt; &gt;</text>
</a>
</g>
</g>
<!-- Node1&#45;&gt;Node4 -->
<g id="edge3_Node000001_Node000004" class="edge">
<title>Node1&#45;&gt;Node4</title>
<g id="a_edge3_Node000001_Node000004"><a xlink:title=" ">
<path fill="none" stroke="#63b8ff" d="M136.04,-85.38C144.59,-83.88 153.3,-82.35 161.79,-80.87"/>
<polygon fill="#63b8ff" stroke="#63b8ff" points="135.34,-81.95 126.1,-87.12 136.55,-88.84 135.34,-81.95"/>
</a>
</g>
</g>
<!-- Node5 -->
<g id="Node000005" class="node">
<title>Node5</title>
<g id="a_Node000005"><a xlink:href="classdi_1_1container_1_1LinkedList.html" target="_top" xlink:title=" ">
<polygon fill="white" stroke="#666666" points="296.5,-30 164.5,-30 164.5,0 296.5,0 296.5,-30"/>
<text text-anchor="start" x="172.5" y="-18" font-family="Helvetica,sans-Serif" font-size="10.00">di::container::LinkedList</text>
<text text-anchor="middle" x="230.5" y="-7" font-family="Helvetica,sans-Serif" font-size="10.00">&lt; T, Alloc &gt;</text>
</a>
</g>
</g>
<!-- Node1&#45;&gt;Node5 -->
<g id="edge4_Node000001_Node000005" class="edge">
<title>Node1&#45;&gt;Node5</title>
<g id="a_edge4_Node000001_Node000005"><a xlink:title=" ">
<path fill="none" stroke="#63b8ff" d="M95.21,-77.57C114.08,-65.72 138.89,-51.01 162,-40 169.45,-36.45 177.54,-33.07 185.45,-30.01"/>
<polygon fill="#63b8ff" stroke="#63b8ff" points="93.29,-74.65 86.72,-82.96 97.04,-80.56 93.29,-74.65"/>
</a>
</g>
</g>
</g>
</svg>
