<?xml version="1.0" encoding="UTF-8" standalone="no"?>
<!DOCTYPE svg PUBLIC "-//W3C//DTD SVG 1.1//EN"
 "http://www.w3.org/Graphics/SVG/1.1/DTD/svg11.dtd">
<!-- Generated by graphviz version 2.43.0 (0)
 -->
<!-- Title: di::container::MutableVectorInterface&lt; Self, Value &gt; Pages: 1 -->
<svg width="590pt" height="1016pt"
 viewBox="0.00 0.00 590.00 1016.00" xmlns="http://www.w3.org/2000/svg" xmlns:xlink="http://www.w3.org/1999/xlink">
<g id="graph0" class="graph" transform="scale(1 1) rotate(0) translate(4 1012)">
<title>di::container::MutableVectorInterface&lt; Self, Value &gt;</title>
<!-- Node1 -->
<g id="Node000001" class="node">
<title>Node1</title>
<g id="a_Node000001"><a xlink:title=" ">
<polygon fill="#999999" stroke="#666666" points="348,-525 194,-525 194,-495 348,-495 348,-525"/>
<text text-anchor="start" x="202" y="-513" font-family="Helvetica,sans-Serif" font-size="10.00">di::container::MutableVector</text>
<text text-anchor="middle" x="271" y="-502" font-family="Helvetica,sans-Serif" font-size="10.00">Interface&lt; Self, Value &gt;</text>
</a>
</g>
</g>
<!-- Node3 -->
<g id="Node000003" class="node">
<title>Node3</title>
<g id="a_Node000003"><a xlink:href="classdi_1_1container_1_1StaticVector.html" target="_top" xlink:title=" ">
<polygon fill="white" stroke="#666666" points="554,-1008 412,-1008 412,-956 554,-956 554,-1008"/>
<text text-anchor="start" x="420" y="-996" font-family="Helvetica,sans-Serif" font-size="10.00">di::container::StaticVector</text>
<text text-anchor="start" x="420" y="-985" font-family="Helvetica,sans-Serif" font-size="10.00">&lt; di::function::function</text>
<text text-anchor="start" x="420" y="-974" font-family="Helvetica,sans-Serif" font-size="10.00">_ns::Function, di::meta::</text>
<text text-anchor="middle" x="483" y="-963" font-family="Helvetica,sans-Serif" font-size="10.00">Constexpr&lt; 8zu &gt; &gt;</text>
</a>
</g>
</g>
<!-- Node1&#45;&gt;Node3 -->
<g id="edge2_Node000001_Node000003" class="edge">
<title>Node1&#45;&gt;Node3</title>
<g id="a_edge2_Node000001_Node000003"><a xlink:title=" ">
<path fill="none" stroke="#63b8ff" d="M275.36,-535.42C286.89,-619.2 327.31,-884.83 384,-947 391.67,-955.41 401.5,-961.8 411.96,-966.66"/>
<polygon fill="#63b8ff" stroke="#63b8ff" points="278.79,-534.71 273.98,-525.27 271.86,-535.65 278.79,-534.71"/>
</a>
</g>
</g>
<!-- Node4 -->
<g id="Node000004" class="node">
<title>Node4</title>
<g id="a_Node000004"><a xlink:href="classdi_1_1container_1_1Vector.html" target="_top" xlink:title=" ">
<polygon fill="white" stroke="#666666" points="540,-938 426,-938 426,-908 540,-908 540,-938"/>
<text text-anchor="start" x="434" y="-926" font-family="Helvetica,sans-Serif" font-size="10.00">di::container::Vector</text>
<text text-anchor="middle" x="483" y="-915" font-family="Helvetica,sans-Serif" font-size="10.00">&lt; Value &gt;</text>
</a>
</g>
</g>
<!-- Node1&#45;&gt;Node4 -->
<g id="edge3_Node000001_Node000004" class="edge">
<title>Node1&#45;&gt;Node4</title>
<g id="a_edge3_Node000001_Node000004"><a xlink:title=" ">
<path fill="none" stroke="#63b8ff" d="M271.21,-535.77C270.57,-605.24 278.86,-798 384,-899 395.31,-909.86 410.68,-916.06 425.91,-919.53"/>
<polygon fill="#63b8ff" stroke="#63b8ff" points="274.72,-535.4 271.39,-525.35 267.72,-535.29 274.72,-535.4"/>
</a>
</g>
</g>
<!-- Node5 -->
<g id="Node000005" class="node">
<title>Node5</title>
<g id="a_Node000005"><a xlink:href="classdi_1_1container_1_1Vector.html" target="_top" xlink:title=" ">
<polygon fill="white" stroke="#666666" points="540,-890 426,-890 426,-860 540,-860 540,-890"/>
<text text-anchor="start" x="434" y="-878" font-family="Helvetica,sans-Serif" font-size="10.00">di::container::Vector</text>
<text text-anchor="middle" x="483" y="-867" font-family="Helvetica,sans-Serif" font-size="10.00">&lt; byte, Alloc &gt;</text>
</a>
</g>
</g>
<!-- Node1&#45;&gt;Node5 -->
<g id="edge4_Node000001_Node000005" class="edge">
<title>Node1&#45;&gt;Node5</title>
<g id="a_edge4_Node000001_Node000005"><a xlink:title=" ">
<path fill="none" stroke="#63b8ff" d="M272.43,-535.58C274.94,-599 290.6,-764.55 384,-851 395.44,-861.59 410.77,-867.72 425.9,-871.21"/>
<polygon fill="#63b8ff" stroke="#63b8ff" points="275.92,-535.19 272.11,-525.3 268.92,-535.41 275.92,-535.19"/>
</a>
</g>
</g>
<!-- Node6 -->
<g id="Node000006" class="node">
<title>Node6</title>
<g id="a_Node000006"><a xlink:href="classdi_1_1container_1_1Vector.html" target="_top" xlink:title=" ">
<polygon fill="white" stroke="#666666" points="540,-842 426,-842 426,-812 540,-812 540,-842"/>
<text text-anchor="start" x="434" y="-830" font-family="Helvetica,sans-Serif" font-size="10.00">di::container::Vector</text>
<text text-anchor="middle" x="483" y="-819" font-family="Helvetica,sans-Serif" font-size="10.00">&lt; byte &gt;</text>
</a>
</g>
</g>
<!-- Node1&#45;&gt;Node6 -->
<g id="edge5_Node000001_Node000006" class="edge">
<title>Node1&#45;&gt;Node6</title>
<g id="a_edge5_Node000001_Node000006"><a xlink:title=" ">
<path fill="none" stroke="#63b8ff" d="M274,-535.45C279.87,-592.43 302.26,-730.89 384,-803 395.62,-813.26 410.92,-819.29 425.97,-822.79"/>
<polygon fill="#63b8ff" stroke="#63b8ff" points="277.45,-534.81 273.03,-525.18 270.48,-535.47 277.45,-534.81"/>
</a>
</g>
</g>
<!-- Node7 -->
<g id="Node000007" class="node">
<title>Node7</title>
<g id="a_Node000007"><a xlink:href="classdi_1_1container_1_1Vector.html" target="_top" xlink:title=" ">
<polygon fill="white" stroke="#666666" points="540,-794 426,-794 426,-764 540,-764 540,-794"/>
<text text-anchor="start" x="434" y="-782" font-family="Helvetica,sans-Serif" font-size="10.00">di::container::Vector</text>
<text text-anchor="middle" x="483" y="-771" font-family="Helvetica,sans-Serif" font-size="10.00">&lt; di::Byte &gt;</text>
</a>
</g>
</g>
<!-- Node1&#45;&gt;Node7 -->
<g id="edge6_Node000001_Node000007" class="edge">
<title>Node1&#45;&gt;Node7</title>
<g id="a_edge6_Node000001_Node000007"><a xlink:title=" ">
<path fill="none" stroke="#63b8ff" d="M276.05,-535.06C285.47,-584.94 313.66,-696.82 384,-755 395.81,-764.77 411,-770.66 425.87,-774.19"/>
<polygon fill="#63b8ff" stroke="#63b8ff" points="279.48,-534.36 274.27,-525.13 272.59,-535.59 279.48,-534.36"/>
</a>
</g>
</g>
<!-- Node8 -->
<g id="Node000008" class="node">
<title>Node8</title>
<g id="a_Node000008"><a xlink:href="classdi_1_1container_1_1Vector.html" target="_top" xlink:title=" ">
<polygon fill="white" stroke="#666666" points="561,-745.5 405,-745.5 405,-704.5 561,-704.5 561,-745.5"/>
<text text-anchor="start" x="413" y="-733.5" font-family="Helvetica,sans-Serif" font-size="10.00">di::container::Vector</text>
<text text-anchor="start" x="413" y="-722.5" font-family="Helvetica,sans-Serif" font-size="10.00">&lt; dius::filesystem::Directory</text>
<text text-anchor="middle" x="483" y="-711.5" font-family="Helvetica,sans-Serif" font-size="10.00">Iterator &gt;</text>
</a>
</g>
</g>
<!-- Node1&#45;&gt;Node8 -->
<g id="edge7_Node000001_Node000008" class="edge">
<title>Node1&#45;&gt;Node8</title>
<g id="a_edge7_Node000001_Node000008"><a xlink:title=" ">
<path fill="none" stroke="#63b8ff" d="M280.23,-534.42C294.81,-574.02 328.96,-652.13 384,-695 390.32,-699.92 397.44,-704.04 404.89,-707.48"/>
<polygon fill="#63b8ff" stroke="#63b8ff" points="283.52,-533.24 276.86,-525 276.93,-535.6 283.52,-533.24"/>
</a>
</g>
</g>
<!-- Node9 -->
<g id="Node000009" class="node">
<title>Node9</title>
<g id="a_Node000009"><a xlink:href="classdi_1_1container_1_1Vector.html" target="_top" xlink:title=" ">
<polygon fill="white" stroke="#666666" points="553,-686 413,-686 413,-656 553,-656 553,-686"/>
<text text-anchor="start" x="421" y="-674" font-family="Helvetica,sans-Serif" font-size="10.00">di::container::Vector</text>
<text text-anchor="middle" x="483" y="-663" font-family="Helvetica,sans-Serif" font-size="10.00">&lt; di::TransparentString &gt;</text>
</a>
</g>
</g>
<!-- Node1&#45;&gt;Node9 -->
<g id="edge8_Node000001_Node000009" class="edge">
<title>Node1&#45;&gt;Node9</title>
<g id="a_edge8_Node000001_Node000009"><a xlink:title=" ">
<path fill="none" stroke="#63b8ff" d="M284.92,-533.9C302.93,-564.88 338.55,-618.33 384,-647 392.74,-652.51 402.66,-656.76 412.74,-660.03"/>
<polygon fill="#63b8ff" stroke="#63b8ff" points="287.88,-532.03 279.9,-525.06 281.79,-535.48 287.88,-532.03"/>
</a>
</g>
</g>
<!-- Node10 -->
<g id="Node000010" class="node">
<title>Node10</title>
<g id="a_Node000010"><a xlink:href="classdi_1_1container_1_1Vector.html" target="_top" xlink:title=" ">
<polygon fill="white" stroke="#666666" points="550,-638 416,-638 416,-608 550,-608 550,-638"/>
<text text-anchor="start" x="424" y="-626" font-family="Helvetica,sans-Serif" font-size="10.00">di::container::Vector</text>
<text text-anchor="middle" x="483" y="-615" font-family="Helvetica,sans-Serif" font-size="10.00">&lt; dius::test::TestCase &gt;</text>
</a>
</g>
</g>
<!-- Node1&#45;&gt;Node10 -->
<g id="edge9_Node000001_Node000010" class="edge">
<title>Node1&#45;&gt;Node10</title>
<g id="a_edge9_Node000001_Node000010"><a xlink:title=" ">
<path fill="none" stroke="#63b8ff" d="M293.69,-532.03C314.9,-552.34 349.04,-581.86 384,-599 393.91,-603.86 404.88,-607.78 415.78,-610.93"/>
<polygon fill="#63b8ff" stroke="#63b8ff" points="296.08,-529.48 286.48,-525 291.2,-534.49 296.08,-529.48"/>
</a>
</g>
</g>
<!-- Node11 -->
<g id="Node000011" class="node">
<title>Node11</title>
<g id="a_Node000011"><a xlink:href="classdi_1_1container_1_1Vector.html" target="_top" xlink:title=" ">
<polygon fill="white" stroke="#666666" points="582,-589.5 384,-589.5 384,-548.5 582,-548.5 582,-589.5"/>
<text text-anchor="start" x="392" y="-577.5" font-family="Helvetica,sans-Serif" font-size="10.00">di::container::Vector</text>
<text text-anchor="start" x="392" y="-566.5" font-family="Helvetica,sans-Serif" font-size="10.00">&lt; generate_presets::CMakeConfigure</text>
<text text-anchor="middle" x="483" y="-555.5" font-family="Helvetica,sans-Serif" font-size="10.00">Preset &gt;</text>
</a>
</g>
</g>
<!-- Node1&#45;&gt;Node11 -->
<g id="edge10_Node000001_Node000011" class="edge">
<title>Node1&#45;&gt;Node11</title>
<g id="a_edge10_Node000001_Node000011"><a xlink:title=" ">
<path fill="none" stroke="#63b8ff" d="M335.24,-527.77C358.4,-534.27 384.8,-541.69 408.75,-548.42"/>
<polygon fill="#63b8ff" stroke="#63b8ff" points="336.11,-524.38 325.54,-525.04 334.22,-531.12 336.11,-524.38"/>
</a>
</g>
</g>
<!-- Node12 -->
<g id="Node000012" class="node">
<title>Node12</title>
<g id="a_Node000012"><a xlink:href="classdi_1_1container_1_1Vector.html" target="_top" xlink:title=" ">
<polygon fill="white" stroke="#666666" points="571,-530.5 395,-530.5 395,-489.5 571,-489.5 571,-530.5"/>
<text text-anchor="start" x="403" y="-518.5" font-family="Helvetica,sans-Serif" font-size="10.00">di::container::Vector</text>
<text text-anchor="start" x="403" y="-507.5" font-family="Helvetica,sans-Serif" font-size="10.00">&lt; generate_presets::CMakeBuild</text>
<text text-anchor="middle" x="483" y="-496.5" font-family="Helvetica,sans-Serif" font-size="10.00">Preset &gt;</text>
</a>
</g>
</g>
<!-- Node1&#45;&gt;Node12 -->
<g id="edge11_Node000001_Node000012" class="edge">
<title>Node1&#45;&gt;Node12</title>
<g id="a_edge11_Node000001_Node000012"><a xlink:title=" ">
<path fill="none" stroke="#63b8ff" d="M358.16,-510C370.23,-510 382.65,-510 394.75,-510"/>
<polygon fill="#63b8ff" stroke="#63b8ff" points="358.11,-506.5 348.11,-510 358.11,-513.5 358.11,-506.5"/>
</a>
</g>
</g>
<!-- Node13 -->
<g id="Node000013" class="node">
<title>Node13</title>
<g id="a_Node000013"><a xlink:href="classdi_1_1container_1_1Vector.html" target="_top" xlink:title=" ">
<polygon fill="white" stroke="#666666" points="568.5,-471.5 397.5,-471.5 397.5,-430.5 568.5,-430.5 568.5,-471.5"/>
<text text-anchor="start" x="405.5" y="-459.5" font-family="Helvetica,sans-Serif" font-size="10.00">di::container::Vector</text>
<text text-anchor="start" x="405.5" y="-448.5" font-family="Helvetica,sans-Serif" font-size="10.00">&lt; generate_presets::CMakeTest</text>
<text text-anchor="middle" x="483" y="-437.5" font-family="Helvetica,sans-Serif" font-size="10.00">Preset &gt;</text>
</a>
</g>
</g>
<!-- Node1&#45;&gt;Node13 -->
<g id="edge12_Node000001_Node000013" class="edge">
<title>Node1&#45;&gt;Node13</title>
<g id="a_edge12_Node000001_Node000013"><a xlink:title=" ">
<path fill="none" stroke="#63b8ff" d="M335.24,-492.23C358.4,-485.73 384.8,-478.31 408.75,-471.58"/>
<polygon fill="#63b8ff" stroke="#63b8ff" points="334.22,-488.88 325.54,-494.96 336.11,-495.62 334.22,-488.88"/>
</a>
</g>
</g>
<!-- Node14 -->
<g id="Node000014" class="node">
<title>Node14</title>
<g id="a_Node000014"><a xlink:href="classdi_1_1container_1_1Vector.html" target="_top" xlink:title=" ">
<polygon fill="white" stroke="#666666" points="548.5,-412 417.5,-412 417.5,-360 548.5,-360 548.5,-412"/>
<text text-anchor="start" x="425.5" y="-400" font-family="Helvetica,sans-Serif" font-size="10.00">di::container::Vector</text>
<text text-anchor="start" x="425.5" y="-389" font-family="Helvetica,sans-Serif" font-size="10.00">&lt; di::vocab::Tuple&lt; di</text>
<text text-anchor="start" x="425.5" y="-378" font-family="Helvetica,sans-Serif" font-size="10.00">::TransparentString, di</text>
<text text-anchor="middle" x="483" y="-367" font-family="Helvetica,sans-Serif" font-size="10.00">::Arc&lt; iris::Inode &gt; &gt; &gt;</text>
</a>
</g>
</g>
<!-- Node1&#45;&gt;Node14 -->
<g id="edge13_Node000001_Node000014" class="edge">
<title>Node1&#45;&gt;Node14</title>
<g id="a_edge13_Node000001_Node000014"><a xlink:title=" ">
<path fill="none" stroke="#63b8ff" d="M294.84,-488.09C316.4,-468.37 350.36,-439.7 384,-421 394.42,-415.21 405.98,-410.08 417.41,-405.65"/>
<polygon fill="#63b8ff" stroke="#63b8ff" points="292.44,-485.55 287.49,-494.92 297.2,-490.68 292.44,-485.55"/>
</a>
</g>
</g>
<!-- Node15 -->
<g id="Node000015" class="node">
<title>Node15</title>
<g id="a_Node000015"><a xlink:href="classdi_1_1container_1_1Vector.html" target="_top" xlink:title=" ">
<polygon fill="white" stroke="#666666" points="557,-341.5 409,-341.5 409,-300.5 557,-300.5 557,-341.5"/>
<text text-anchor="start" x="417" y="-329.5" font-family="Helvetica,sans-Serif" font-size="10.00">di::container::Vector</text>
<text text-anchor="start" x="417" y="-318.5" font-family="Helvetica,sans-Serif" font-size="10.00">&lt; iris::acpi::ProcessorLocal</text>
<text text-anchor="middle" x="483" y="-307.5" font-family="Helvetica,sans-Serif" font-size="10.00">ApicStructure &gt;</text>
</a>
</g>
</g>
<!-- Node1&#45;&gt;Node15 -->
<g id="edge14_Node000001_Node000015" class="edge">
<title>Node1&#45;&gt;Node15</title>
<g id="a_edge14_Node000001_Node000015"><a xlink:title=" ">
<path fill="none" stroke="#63b8ff" d="M282.94,-485.3C299.68,-450.28 334.98,-386.53 384,-351 391.49,-345.57 399.98,-341.11 408.76,-337.45"/>
<polygon fill="#63b8ff" stroke="#63b8ff" points="279.57,-484.23 278.52,-494.78 285.92,-487.19 279.57,-484.23"/>
</a>
</g>
</g>
<!-- Node16 -->
<g id="Node000016" class="node">
<title>Node16</title>
<g id="a_Node000016"><a xlink:href="classdi_1_1container_1_1Vector.html" target="_top" xlink:title=" ">
<polygon fill="white" stroke="#666666" points="563.5,-282 402.5,-282 402.5,-252 563.5,-252 563.5,-282"/>
<text text-anchor="start" x="410.5" y="-270" font-family="Helvetica,sans-Serif" font-size="10.00">di::container::Vector</text>
<text text-anchor="middle" x="483" y="-259" font-family="Helvetica,sans-Serif" font-size="10.00">&lt; iris::acpi::IoApicStructure &gt;</text>
</a>
</g>
</g>
<!-- Node1&#45;&gt;Node16 -->
<g id="edge15_Node000001_Node000016" class="edge">
<title>Node1&#45;&gt;Node16</title>
<g id="a_edge15_Node000001_Node000016"><a xlink:title=" ">
<path fill="none" stroke="#63b8ff" d="M277.59,-484.72C289.11,-438.78 319.96,-341.64 384,-291 389.5,-286.65 395.67,-283.08 402.17,-280.14"/>
<polygon fill="#63b8ff" stroke="#63b8ff" points="274.12,-484.2 275.18,-494.74 280.92,-485.83 274.12,-484.2"/>
</a>
</g>
</g>
<!-- Node17 -->
<g id="Node000017" class="node">
<title>Node17</title>
<g id="a_Node000017"><a xlink:href="classdi_1_1container_1_1Vector.html" target="_top" xlink:title=" ">
<polygon fill="white" stroke="#666666" points="558,-233.5 408,-233.5 408,-192.5 558,-192.5 558,-233.5"/>
<text text-anchor="start" x="416" y="-221.5" font-family="Helvetica,sans-Serif" font-size="10.00">di::container::Vector</text>
<text text-anchor="start" x="416" y="-210.5" font-family="Helvetica,sans-Serif" font-size="10.00">&lt; iris::acpi::InterruptSource</text>
<text text-anchor="middle" x="483" y="-199.5" font-family="Helvetica,sans-Serif" font-size="10.00">OverrideStructure &gt;</text>
</a>
</g>
</g>
<!-- Node1&#45;&gt;Node17 -->
<g id="edge16_Node000001_Node000017" class="edge">
<title>Node1&#45;&gt;Node17</title>
<g id="a_edge16_Node000001_Node000017"><a xlink:title=" ">
<path fill="none" stroke="#63b8ff" d="M275.4,-484.57C283.83,-431.72 310.57,-309.43 384,-243 390.86,-236.79 398.98,-231.87 407.56,-227.97"/>
<polygon fill="#63b8ff" stroke="#63b8ff" points="271.9,-484.34 273.87,-494.75 278.82,-485.38 271.9,-484.34"/>
</a>
</g>
</g>
<!-- Node18 -->
<g id="Node000018" class="node">
<title>Node18</title>
<g id="a_Node000018"><a xlink:href="classdi_1_1container_1_1Vector.html" target="_top" xlink:title=" ">
<polygon fill="white" stroke="#666666" points="547,-174 419,-174 419,-144 547,-144 547,-174"/>
<text text-anchor="start" x="427" y="-162" font-family="Helvetica,sans-Serif" font-size="10.00">di::container::Vector</text>
<text text-anchor="middle" x="483" y="-151" font-family="Helvetica,sans-Serif" font-size="10.00">&lt; iris::initrd::FSNode &gt;</text>
</a>
</g>
</g>
<!-- Node1&#45;&gt;Node18 -->
<g id="edge17_Node000001_Node000018" class="edge">
<title>Node1&#45;&gt;Node18</title>
<g id="a_edge17_Node000001_Node000018"><a xlink:title=" ">
<path fill="none" stroke="#63b8ff" d="M272.83,-484.64C276.28,-423.18 293.93,-265.32 384,-183 393.7,-174.14 406.12,-168.41 418.85,-164.74"/>
<polygon fill="#63b8ff" stroke="#63b8ff" points="269.32,-484.79 272.34,-494.95 276.31,-485.13 269.32,-484.79"/>
</a>
</g>
</g>
<!-- Node19 -->
<g id="Node000019" class="node">
<title>Node19</title>
<g id="a_Node000019"><a xlink:href="classdi_1_1container_1_1Vector.html" target="_top" xlink:title=" ">
<polygon fill="white" stroke="#666666" points="547,-126 419,-126 419,-96 547,-96 547,-126"/>
<text text-anchor="start" x="427" y="-114" font-family="Helvetica,sans-Serif" font-size="10.00">di::container::Vector</text>
<text text-anchor="middle" x="483" y="-103" font-family="Helvetica,sans-Serif" font-size="10.00">&lt; iris::test::TestCase &gt;</text>
</a>
</g>
</g>
<!-- Node1&#45;&gt;Node19 -->
<g id="edge18_Node000001_Node000019" class="edge">
<title>Node1&#45;&gt;Node19</title>
<g id="a_edge18_Node000001_Node000019"><a xlink:title=" ">
<path fill="none" stroke="#63b8ff" d="M271.54,-484.68C271.76,-417.25 282.1,-231.92 384,-135 393.58,-125.89 406.04,-120.06 418.84,-116.38"/>
<polygon fill="#63b8ff" stroke="#63b8ff" points="268.04,-484.82 271.58,-494.8 275.04,-484.79 268.04,-484.82"/>
</a>
</g>
</g>
<!-- Node20 -->
<g id="Node000020" class="node">
<title>Node20</title>
<g id="a_Node000020"><a xlink:href="classdi_1_1container_1_1Vector.html" target="_top" xlink:title=" ">
<polygon fill="white" stroke="#666666" points="540,-78 426,-78 426,-48 540,-48 540,-78"/>
<text text-anchor="start" x="434" y="-66" font-family="Helvetica,sans-Serif" font-size="10.00">di::container::Vector</text>
<text text-anchor="middle" x="483" y="-55" font-family="Helvetica,sans-Serif" font-size="10.00">&lt; pm::Step &gt;</text>
</a>
</g>
</g>
<!-- Node1&#45;&gt;Node20 -->
<g id="edge19_Node000001_Node000020" class="edge">
<title>Node1&#45;&gt;Node20</title>
<g id="a_edge19_Node000001_Node000020"><a xlink:title=" ">
<path fill="none" stroke="#63b8ff" d="M275.31,-484.61C286.56,-402.17 325.89,-144.04 384,-87 395.19,-76.02 410.53,-69.78 425.76,-66.31"/>
<polygon fill="#63b8ff" stroke="#63b8ff" points="271.83,-484.24 273.97,-494.62 278.77,-485.17 271.83,-484.24"/>
</a>
</g>
</g>
<!-- Node21 -->
<g id="Node000021" class="node">
<title>Node21</title>
<g id="a_Node000021"><a xlink:href="classdi_1_1container_1_1Vector.html" target="_top" xlink:title=" ">
<polygon fill="white" stroke="#666666" points="540,-30 426,-30 426,0 540,0 540,-30"/>
<text text-anchor="start" x="434" y="-18" font-family="Helvetica,sans-Serif" font-size="10.00">di::container::Vector</text>
<text text-anchor="middle" x="483" y="-7" font-family="Helvetica,sans-Serif" font-size="10.00">&lt; di::String &gt;</text>
</a>
</g>
</g>
<!-- Node1&#45;&gt;Node21 -->
<g id="edge20_Node000001_Node000021" class="edge">
<title>Node1&#45;&gt;Node21</title>
<g id="a_edge20_Node000001_Node000021"><a xlink:title=" ">
<path fill="none" stroke="#63b8ff" d="M274.57,-484.71C284.03,-396.41 319.81,-103.62 384,-39 395.11,-27.82 410.52,-21.53 425.84,-18.08"/>
<polygon fill="#63b8ff" stroke="#63b8ff" points="271.06,-484.58 273.5,-494.89 278.02,-485.31 271.06,-484.58"/>
</a>
</g>
</g>
<!-- Node2 -->
<g id="Node000002" class="node">
<title>Node2</title>
<g id="a_Node000002"><a xlink:href="classdi_1_1container_1_1ConstantVectorInterface.html" target="_top" xlink:title=" ">
<polygon fill="white" stroke="#666666" points="158,-525 0,-525 0,-495 158,-495 158,-525"/>
<text text-anchor="start" x="8" y="-513" font-family="Helvetica,sans-Serif" font-size="10.00">di::container::ConstantVector</text>
<text text-anchor="middle" x="79" y="-502" font-family="Helvetica,sans-Serif" font-size="10.00">Interface&lt; Self, Value &gt;</text>
</a>
</g>
</g>
<!-- Node2&#45;&gt;Node1 -->
<g id="edge1_Node000001_Node000002" class="edge">
<title>Node2&#45;&gt;Node1</title>
<g id="a_edge1_Node000001_Node000002"><a xlink:title=" ">
<path fill="none" stroke="#63b8ff" d="M168.38,-510C176.85,-510 185.39,-510 193.73,-510"/>
<polygon fill="#63b8ff" stroke="#63b8ff" points="168.1,-506.5 158.1,-510 168.1,-513.5 168.1,-506.5"/>
</a>
</g>
</g>
</g>
</svg>
