<?xml version="1.0" encoding="UTF-8" standalone="no"?>
<!DOCTYPE svg PUBLIC "-//W3C//DTD SVG 1.1//EN"
 "http://www.w3.org/Graphics/SVG/1.1/DTD/svg11.dtd">
<!-- Generated by graphviz version 2.43.0 (0)
 -->
<!-- Title: di::container::OwningView&lt; Cont &gt; Pages: 1 -->
<svg width="569pt" height="108pt"
 viewBox="0.00 0.00 569.00 108.00" xmlns="http://www.w3.org/2000/svg" xmlns:xlink="http://www.w3.org/1999/xlink">
<g id="graph0" class="graph" transform="scale(1 1) rotate(0) translate(4 104)">
<title>di::container::OwningView&lt; Cont &gt;</title>
<!-- Node1 -->
<g id="Node000001" class="node">
<title>Node1</title>
<g id="a_Node000001"><a xlink:title=" ">
<polygon fill="#999999" stroke="#666666" points="561,-70 417,-70 417,-40 561,-40 561,-70"/>
<text text-anchor="start" x="425" y="-58" font-family="Helvetica,sans-Serif" font-size="10.00">di::container::OwningView</text>
<text text-anchor="middle" x="489" y="-47" font-family="Helvetica,sans-Serif" font-size="10.00">&lt; Cont &gt;</text>
</a>
</g>
</g>
<!-- Node2 -->
<g id="Node000002" class="node">
<title>Node2</title>
<g id="a_Node000002"><a xlink:href="classdi_1_1container_1_1ViewInterface.html" target="_top" xlink:title=" ">
<polygon fill="white" stroke="#666666" points="351,-100 200,-100 200,-70 351,-70 351,-100"/>
<text text-anchor="start" x="208" y="-88" font-family="Helvetica,sans-Serif" font-size="10.00">di::container::ViewInterface</text>
<text text-anchor="middle" x="275.5" y="-77" font-family="Helvetica,sans-Serif" font-size="10.00">&lt; OwningView&lt; Cont &gt; &gt;</text>
</a>
</g>
</g>
<!-- Node2&#45;&gt;Node1 -->
<g id="edge1_Node000001_Node000002" class="edge">
<title>Node2&#45;&gt;Node1</title>
<g id="a_edge1_Node000001_Node000002"><a xlink:title=" ">
<path fill="none" stroke="#63b8ff" d="M361.22,-72.98C379.7,-70.36 399.06,-67.61 416.94,-65.08"/>
<polygon fill="#63b8ff" stroke="#63b8ff" points="360.48,-69.55 351.07,-74.42 361.46,-76.48 360.48,-69.55"/>
</a>
</g>
</g>
<!-- Node3 -->
<g id="Node000003" class="node">
<title>Node3</title>
<g id="a_Node000003"><a xlink:href="classdi_1_1meta_1_1EnableView.html" target="_top" xlink:title=" ">
<polygon fill="white" stroke="#666666" points="134,-100 0,-100 0,-70 134,-70 134,-100"/>
<text text-anchor="start" x="8" y="-88" font-family="Helvetica,sans-Serif" font-size="10.00">di::meta::EnableView</text>
<text text-anchor="middle" x="67" y="-77" font-family="Helvetica,sans-Serif" font-size="10.00">&lt; Self, should_enable &gt;</text>
</a>
</g>
</g>
<!-- Node3&#45;&gt;Node2 -->
<g id="edge2_Node000002_Node000003" class="edge">
<title>Node3&#45;&gt;Node2</title>
<g id="a_edge2_Node000002_Node000003"><a xlink:title=" ">
<path fill="none" stroke="#63b8ff" d="M144.38,-85C162.46,-85 181.72,-85 199.72,-85"/>
<polygon fill="#63b8ff" stroke="#63b8ff" points="144.19,-81.5 134.19,-85 144.19,-88.5 144.19,-81.5"/>
</a>
</g>
</g>
<!-- Node4 -->
<g id="Node000004" class="node">
<title>Node4</title>
<g id="a_Node000004"><a xlink:href="classdi_1_1meta_1_1EnableBorrowedContainer.html" target="_top" xlink:title=" ">
<polygon fill="white" stroke="#666666" points="381,-52 170,-52 170,0 381,0 381,-52"/>
<text text-anchor="start" x="178" y="-40" font-family="Helvetica,sans-Serif" font-size="10.00">di::meta::EnableBorrowed</text>
<text text-anchor="start" x="178" y="-29" font-family="Helvetica,sans-Serif" font-size="10.00">Container&lt; OwningView</text>
<text text-anchor="start" x="178" y="-18" font-family="Helvetica,sans-Serif" font-size="10.00">&lt; Cont &gt;, concepts::BorrowedContainer</text>
<text text-anchor="middle" x="275.5" y="-7" font-family="Helvetica,sans-Serif" font-size="10.00">&lt; Cont &gt; &gt;</text>
</a>
</g>
</g>
<!-- Node4&#45;&gt;Node1 -->
<g id="edge3_Node000001_Node000004" class="edge">
<title>Node4&#45;&gt;Node1</title>
<g id="a_edge3_Node000001_Node000004"><a xlink:title=" ">
<path fill="none" stroke="#63b8ff" d="M390.99,-41.7C399.81,-42.91 408.55,-44.11 416.96,-45.26"/>
<polygon fill="#63b8ff" stroke="#63b8ff" points="391.39,-38.22 381.01,-40.33 390.44,-45.16 391.39,-38.22"/>
</a>
</g>
</g>
</g>
</svg>
