<?xml version="1.0" encoding="UTF-8" standalone="no"?>
<!DOCTYPE svg PUBLIC "-//W3C//DTD SVG 1.1//EN"
 "http://www.w3.org/Graphics/SVG/1.1/DTD/svg11.dtd">
<!-- Generated by graphviz version 2.43.0 (0)
 -->
<!-- Title: iris::Task Pages: 1 -->
<svg width="336pt" height="148pt"
 viewBox="0.00 0.00 335.50 148.00" xmlns="http://www.w3.org/2000/svg" xmlns:xlink="http://www.w3.org/1999/xlink">
<g id="graph0" class="graph" transform="scale(1 1) rotate(0) translate(4 144)">
<title>iris::Task</title>
<!-- Node1 -->
<g id="Node000001" class="node">
<title>Node1</title>
<g id="a_Node000001"><a xlink:title=" ">
<polygon fill="#999999" stroke="#666666" points="178.5,-19 119.5,-19 119.5,0 178.5,0 178.5,-19"/>
<text text-anchor="middle" x="149" y="-7" font-family="Helvetica,sans-Serif" font-size="10.00">iris::Task</text>
</a>
</g>
</g>
<!-- Node2 -->
<g id="Node000002" class="node">
<title>Node2</title>
<g id="a_Node000002"><a xlink:href="classdi_1_1container_1_1IntrusiveListNode.html" target="_top" xlink:title=" ">
<polygon fill="white" stroke="#666666" points="126,-85 0,-85 0,-55 126,-55 126,-85"/>
<text text-anchor="start" x="8" y="-73" font-family="Helvetica,sans-Serif" font-size="10.00">di::container::Intrusive</text>
<text text-anchor="middle" x="63" y="-62" font-family="Helvetica,sans-Serif" font-size="10.00">ListNode&lt; Tag &gt;</text>
</a>
</g>
</g>
<!-- Node2&#45;&gt;Node1 -->
<g id="edge1_Node000001_Node000002" class="edge">
<title>Node2&#45;&gt;Node1</title>
<g id="a_edge1_Node000001_Node000002"><a xlink:title=" ">
<path fill="none" stroke="#63b8ff" d="M92.31,-49.06C107.32,-38.85 124.82,-26.95 136.37,-19.09"/>
<polygon fill="#63b8ff" stroke="#63b8ff" points="90.12,-46.32 83.82,-54.84 94.06,-52.11 90.12,-46.32"/>
</a>
</g>
</g>
<!-- Node3 -->
<g id="Node000003" class="node">
<title>Node3</title>
<g id="a_Node000003"><a xlink:href="structdi_1_1util_1_1Immovable.html" target="_top" xlink:title=" ">
<polygon fill="white" stroke="#666666" points="203.5,-140 94.5,-140 94.5,-121 203.5,-121 203.5,-140"/>
<text text-anchor="middle" x="149" y="-128" font-family="Helvetica,sans-Serif" font-size="10.00">di::util::Immovable</text>
</a>
</g>
</g>
<!-- Node3&#45;&gt;Node2 -->
<g id="edge2_Node000002_Node000003" class="edge">
<title>Node3&#45;&gt;Node2</title>
<g id="a_edge2_Node000002_Node000003"><a xlink:title=" ">
<path fill="none" stroke="#8b1a1a" d="M127.73,-115.03C114.31,-105.9 97.07,-94.17 83.75,-85.11"/>
<polygon fill="#8b1a1a" stroke="#8b1a1a" points="126.07,-118.14 136.31,-120.87 130.01,-112.35 126.07,-118.14"/>
</a>
</g>
</g>
<!-- Node4 -->
<g id="Node000004" class="node">
<title>Node4</title>
<g id="a_Node000004"><a xlink:href="structdi_1_1vocab_1_1IntrusiveRefCount.html" target="_top" xlink:title=" ">
<polygon fill="white" stroke="#666666" points="327.5,-79.5 144.5,-79.5 144.5,-60.5 327.5,-60.5 327.5,-79.5"/>
<text text-anchor="middle" x="236" y="-67.5" font-family="Helvetica,sans-Serif" font-size="10.00">di::vocab::IntrusiveRefCount&lt; T &gt;</text>
</a>
</g>
</g>
<!-- Node3&#45;&gt;Node4 -->
<g id="edge4_Node000004_Node000003" class="edge">
<title>Node3&#45;&gt;Node4</title>
<g id="a_edge4_Node000004_Node000003"><a xlink:title=" ">
<path fill="none" stroke="#63b8ff" d="M170.33,-115.16C186.86,-104.05 209.21,-89.01 223.11,-79.67"/>
<polygon fill="#63b8ff" stroke="#63b8ff" points="168.18,-112.38 161.84,-120.87 172.09,-118.19 168.18,-112.38"/>
</a>
</g>
</g>
<!-- Node4&#45;&gt;Node1 -->
<g id="edge3_Node000001_Node000004" class="edge">
<title>Node4&#45;&gt;Node1</title>
<g id="a_edge3_Node000001_Node000004"><a xlink:title=" ">
<path fill="none" stroke="#63b8ff" d="M214.67,-54.66C198.14,-43.55 175.79,-28.51 161.89,-19.17"/>
<polygon fill="#63b8ff" stroke="#63b8ff" points="212.91,-57.69 223.16,-60.37 216.82,-51.88 212.91,-57.69"/>
</a>
</g>
</g>
</g>
</svg>
