<?xml version="1.0" encoding="UTF-8" standalone="no"?>
<!DOCTYPE svg PUBLIC "-//W3C//DTD SVG 1.1//EN"
 "http://www.w3.org/Graphics/SVG/1.1/DTD/svg11.dtd">
<!-- Generated by graphviz version 2.43.0 (0)
 -->
<!-- Title: di::container::View&lt; Iter, Sent, is_sized &gt; Pages: 1 -->
<svg width="493pt" height="146pt"
 viewBox="0.00 0.00 493.00 146.00" xmlns="http://www.w3.org/2000/svg" xmlns:xlink="http://www.w3.org/1999/xlink">
<g id="graph0" class="graph" transform="scale(1 1) rotate(0) translate(4 142)">
<title>di::container::View&lt; Iter, Sent, is_sized &gt;</title>
<!-- Node1 -->
<g id="Node000001" class="node">
<title>Node1</title>
<g id="a_Node000001"><a xlink:title=" ">
<polygon fill="#999999" stroke="#666666" points="485,-84 357,-84 357,-54 485,-54 485,-84"/>
<text text-anchor="start" x="365" y="-72" font-family="Helvetica,sans-Serif" font-size="10.00">di::container::View</text>
<text text-anchor="middle" x="421" y="-61" font-family="Helvetica,sans-Serif" font-size="10.00">&lt; Iter, Sent, is_sized &gt;</text>
</a>
</g>
</g>
<!-- Node2 -->
<g id="Node000002" class="node">
<title>Node2</title>
<g id="a_Node000002"><a xlink:href="classdi_1_1container_1_1ViewInterface.html" target="_top" xlink:title=" ">
<polygon fill="white" stroke="#666666" points="321,-138 170,-138 170,-108 321,-108 321,-138"/>
<text text-anchor="start" x="178" y="-126" font-family="Helvetica,sans-Serif" font-size="10.00">di::container::ViewInterface</text>
<text text-anchor="middle" x="245.5" y="-115" font-family="Helvetica,sans-Serif" font-size="10.00">&lt; Self &gt;</text>
</a>
</g>
</g>
<!-- Node2&#45;&gt;Node1 -->
<g id="edge1_Node000001_Node000002" class="edge">
<title>Node2&#45;&gt;Node1</title>
<g id="a_edge1_Node000001_Node000002"><a xlink:title=" ">
<path fill="none" stroke="#63b8ff" d="M304.61,-104.91C326.37,-98.14 350.84,-90.52 371.63,-84.05"/>
<polygon fill="#63b8ff" stroke="#63b8ff" points="303.34,-101.64 294.83,-107.96 305.42,-108.33 303.34,-101.64"/>
</a>
</g>
</g>
<!-- Node3 -->
<g id="Node000003" class="node">
<title>Node3</title>
<g id="a_Node000003"><a xlink:href="classdi_1_1meta_1_1EnableView.html" target="_top" xlink:title=" ">
<polygon fill="white" stroke="#666666" points="134,-138 0,-138 0,-108 134,-108 134,-138"/>
<text text-anchor="start" x="8" y="-126" font-family="Helvetica,sans-Serif" font-size="10.00">di::meta::EnableView</text>
<text text-anchor="middle" x="67" y="-115" font-family="Helvetica,sans-Serif" font-size="10.00">&lt; Self, should_enable &gt;</text>
</a>
</g>
</g>
<!-- Node3&#45;&gt;Node2 -->
<g id="edge2_Node000002_Node000003" class="edge">
<title>Node3&#45;&gt;Node2</title>
<g id="a_edge2_Node000002_Node000003"><a xlink:title=" ">
<path fill="none" stroke="#63b8ff" d="M144.43,-123C152.88,-123 161.48,-123 169.9,-123"/>
<polygon fill="#63b8ff" stroke="#63b8ff" points="144.22,-119.5 134.22,-123 144.22,-126.5 144.22,-119.5"/>
</a>
</g>
</g>
<!-- Node4 -->
<g id="Node000004" class="node">
<title>Node4</title>
<g id="a_Node000004"><a xlink:href="classdi_1_1meta_1_1EnableBorrowedContainer.html" target="_top" xlink:title=" ">
<polygon fill="white" stroke="#666666" points="317,-89.5 174,-89.5 174,-48.5 317,-48.5 317,-89.5"/>
<text text-anchor="start" x="182" y="-77.5" font-family="Helvetica,sans-Serif" font-size="10.00">di::meta::EnableBorrowed</text>
<text text-anchor="start" x="182" y="-66.5" font-family="Helvetica,sans-Serif" font-size="10.00">Container&lt; Self, should</text>
<text text-anchor="middle" x="245.5" y="-55.5" font-family="Helvetica,sans-Serif" font-size="10.00">_enable &gt;</text>
</a>
</g>
</g>
<!-- Node4&#45;&gt;Node1 -->
<g id="edge3_Node000001_Node000004" class="edge">
<title>Node4&#45;&gt;Node1</title>
<g id="a_edge3_Node000001_Node000004"><a xlink:title=" ">
<path fill="none" stroke="#63b8ff" d="M327.31,-69C337.19,-69 347.18,-69 356.75,-69"/>
<polygon fill="#63b8ff" stroke="#63b8ff" points="327.07,-65.5 317.07,-69 327.07,-72.5 327.07,-65.5"/>
</a>
</g>
</g>
<!-- Node5 -->
<g id="Node000005" class="node">
<title>Node5</title>
<g id="a_Node000005"><a xlink:href="structdi_1_1util_1_1AddMemberGet.html" target="_top" xlink:title=" ">
<polygon fill="white" stroke="#666666" points="310.5,-30 180.5,-30 180.5,0 310.5,0 310.5,-30"/>
<text text-anchor="start" x="188.5" y="-18" font-family="Helvetica,sans-Serif" font-size="10.00">di::util::AddMemberGet</text>
<text text-anchor="middle" x="245.5" y="-7" font-family="Helvetica,sans-Serif" font-size="10.00">&lt; Self &gt;</text>
</a>
</g>
</g>
<!-- Node5&#45;&gt;Node1 -->
<g id="edge4_Node000001_Node000005" class="edge">
<title>Node5&#45;&gt;Node1</title>
<g id="a_edge4_Node000001_Node000005"><a xlink:title=" ">
<path fill="none" stroke="#63b8ff" d="M304.61,-33.09C326.37,-39.86 350.84,-47.48 371.63,-53.95"/>
<polygon fill="#63b8ff" stroke="#63b8ff" points="305.42,-29.67 294.83,-30.04 303.34,-36.36 305.42,-29.67"/>
</a>
</g>
</g>
</g>
</svg>
