<?xml version="1.0" encoding="UTF-8" standalone="no"?>
<!DOCTYPE svg PUBLIC "-//W3C//DTD SVG 1.1//EN"
 "http://www.w3.org/Graphics/SVG/1.1/DTD/svg11.dtd">
<!-- Generated by graphviz version 2.43.0 (0)
 -->
<!-- Title: dius::filesystem::DirectoryIterator Pages: 1 -->
<svg width="414pt" height="156pt"
 viewBox="0.00 0.00 414.00 156.00" xmlns="http://www.w3.org/2000/svg" xmlns:xlink="http://www.w3.org/1999/xlink">
<g id="graph0" class="graph" transform="scale(1 1) rotate(0) translate(4 152)">
<title>dius::filesystem::DirectoryIterator</title>
<!-- Node1 -->
<g id="Node000001" class="node">
<title>Node1</title>
<g id="a_Node000001"><a xlink:title=" ">
<polygon fill="#999999" stroke="#666666" points="406,-78 261,-78 261,-48 406,-48 406,-78"/>
<text text-anchor="start" x="269" y="-66" font-family="Helvetica,sans-Serif" font-size="10.00">dius::filesystem::Directory</text>
<text text-anchor="middle" x="333.5" y="-55" font-family="Helvetica,sans-Serif" font-size="10.00">Iterator</text>
</a>
</g>
</g>
<!-- Node2 -->
<g id="Node000002" class="node">
<title>Node2</title>
<g id="a_Node000002"><a xlink:href="structdi_1_1container_1_1IteratorBase.html" target="_top" xlink:title=" ">
<polygon fill="white" stroke="#666666" points="225,-148 0,-148 0,-96 225,-96 225,-148"/>
<text text-anchor="start" x="8" y="-136" font-family="Helvetica,sans-Serif" font-size="10.00">di::container::IteratorBase</text>
<text text-anchor="start" x="8" y="-125" font-family="Helvetica,sans-Serif" font-size="10.00">&lt; DirectoryIterator, di</text>
<text text-anchor="start" x="8" y="-114" font-family="Helvetica,sans-Serif" font-size="10.00">::InputIteratorTag, di::Expected</text>
<text text-anchor="middle" x="112.5" y="-103" font-family="Helvetica,sans-Serif" font-size="10.00">&lt; DirectoryEntry, di::GenericCode &gt;, i64 &gt;</text>
</a>
</g>
</g>
<!-- Node2&#45;&gt;Node1 -->
<g id="edge1_Node000001_Node000002" class="edge">
<title>Node2&#45;&gt;Node1</title>
<g id="a_edge1_Node000001_Node000002"><a xlink:title=" ">
<path fill="none" stroke="#63b8ff" d="M220.07,-93.29C239.59,-88.03 259.23,-82.74 276.52,-78.08"/>
<polygon fill="#63b8ff" stroke="#63b8ff" points="218.94,-89.97 210.19,-95.95 220.76,-96.73 218.94,-89.97"/>
</a>
</g>
</g>
<!-- Node3 -->
<g id="Node000003" class="node">
<title>Node3</title>
<g id="a_Node000003"><a xlink:href="classdi_1_1meta_1_1EnableBorrowedContainer.html" target="_top" xlink:title=" ">
<polygon fill="white" stroke="#666666" points="196,-78 29,-78 29,-48 196,-48 196,-78"/>
<text text-anchor="start" x="37" y="-66" font-family="Helvetica,sans-Serif" font-size="10.00">di::meta::EnableBorrowed</text>
<text text-anchor="middle" x="112.5" y="-55" font-family="Helvetica,sans-Serif" font-size="10.00">Container&lt; DirectoryIterator &gt;</text>
</a>
</g>
</g>
<!-- Node3&#45;&gt;Node1 -->
<g id="edge2_Node000001_Node000003" class="edge">
<title>Node3&#45;&gt;Node1</title>
<g id="a_edge2_Node000001_Node000003"><a xlink:title=" ">
<path fill="none" stroke="#63b8ff" d="M206.32,-63C224.51,-63 243.33,-63 260.7,-63"/>
<polygon fill="#63b8ff" stroke="#63b8ff" points="206.29,-59.5 196.29,-63 206.29,-66.5 206.29,-59.5"/>
</a>
</g>
</g>
<!-- Node4 -->
<g id="Node000004" class="node">
<title>Node4</title>
<g id="a_Node000004"><a xlink:href="classdi_1_1meta_1_1EnableView.html" target="_top" xlink:title=" ">
<polygon fill="white" stroke="#666666" points="172.5,-30 52.5,-30 52.5,0 172.5,0 172.5,-30"/>
<text text-anchor="start" x="60.5" y="-18" font-family="Helvetica,sans-Serif" font-size="10.00">di::meta::EnableView</text>
<text text-anchor="middle" x="112.5" y="-7" font-family="Helvetica,sans-Serif" font-size="10.00">&lt; DirectoryIterator &gt;</text>
</a>
</g>
</g>
<!-- Node4&#45;&gt;Node1 -->
<g id="edge3_Node000001_Node000004" class="edge">
<title>Node4&#45;&gt;Node1</title>
<g id="a_edge3_Node000001_Node000004"><a xlink:title=" ">
<path fill="none" stroke="#63b8ff" d="M182.62,-29.79C196.65,-32.82 211.3,-36 225,-39 238.08,-41.87 252.04,-44.96 265.42,-47.94"/>
<polygon fill="#63b8ff" stroke="#63b8ff" points="183.05,-26.31 172.54,-27.62 181.58,-33.15 183.05,-26.31"/>
</a>
</g>
</g>
</g>
</svg>
