<?xml version="1.0" encoding="UTF-8" standalone="no"?>
<!DOCTYPE svg PUBLIC "-//W3C//DTD SVG 1.1//EN"
 "http://www.w3.org/Graphics/SVG/1.1/DTD/svg11.dtd">
<!-- Generated by graphviz version 2.43.0 (0)
 -->
<!-- Title: di::container::PathViewImpl&lt; Enc &gt; Pages: 1 -->
<svg width="342pt" height="227pt"
 viewBox="0.00 0.00 342.00 227.00" xmlns="http://www.w3.org/2000/svg" xmlns:xlink="http://www.w3.org/1999/xlink">
<g id="graph0" class="graph" transform="scale(1 1) rotate(0) translate(4 223)">
<title>di::container::PathViewImpl&lt; Enc &gt;</title>
<!-- Node1 -->
<g id="Node000001" class="node">
<title>Node1</title>
<g id="a_Node000001"><a xlink:title=" ">
<polygon fill="#999999" stroke="#666666" points="334,-135 184,-135 184,-105 334,-105 334,-135"/>
<text text-anchor="start" x="192" y="-123" font-family="Helvetica,sans-Serif" font-size="10.00">di::container::PathViewImpl</text>
<text text-anchor="middle" x="259" y="-112" font-family="Helvetica,sans-Serif" font-size="10.00">&lt; Enc &gt;</text>
</a>
</g>
</g>
<!-- Node2 -->
<g id="Node000002" class="node">
<title>Node2</title>
<g id="a_Node000002"><a xlink:href="classdi_1_1meta_1_1EnableView.html" target="_top" xlink:title=" ">
<polygon fill="white" stroke="#666666" points="147,-219 1,-219 1,-189 147,-189 147,-219"/>
<text text-anchor="start" x="9" y="-207" font-family="Helvetica,sans-Serif" font-size="10.00">di::meta::EnableView</text>
<text text-anchor="middle" x="74" y="-196" font-family="Helvetica,sans-Serif" font-size="10.00">&lt; PathViewImpl&lt; Enc &gt; &gt;</text>
</a>
</g>
</g>
<!-- Node2&#45;&gt;Node1 -->
<g id="edge1_Node000001_Node000002" class="edge">
<title>Node2&#45;&gt;Node1</title>
<g id="a_edge1_Node000001_Node000002"><a xlink:title=" ">
<path fill="none" stroke="#63b8ff" d="M134.46,-185.46C139.08,-183.72 143.64,-181.89 148,-180 178.34,-166.87 211.43,-148.18 233.31,-135.16"/>
<polygon fill="#63b8ff" stroke="#63b8ff" points="133.13,-182.22 124.93,-188.93 135.53,-188.8 133.13,-182.22"/>
</a>
</g>
</g>
<!-- Node3 -->
<g id="Node000003" class="node">
<title>Node3</title>
<g id="a_Node000003"><a xlink:href="classdi_1_1meta_1_1EnableBorrowedContainer.html" target="_top" xlink:title=" ">
<polygon fill="white" stroke="#666666" points="145.5,-170.5 2.5,-170.5 2.5,-129.5 145.5,-129.5 145.5,-170.5"/>
<text text-anchor="start" x="10.5" y="-158.5" font-family="Helvetica,sans-Serif" font-size="10.00">di::meta::EnableBorrowed</text>
<text text-anchor="start" x="10.5" y="-147.5" font-family="Helvetica,sans-Serif" font-size="10.00">Container&lt; PathViewImpl</text>
<text text-anchor="middle" x="74" y="-136.5" font-family="Helvetica,sans-Serif" font-size="10.00">&lt; Enc &gt; &gt;</text>
</a>
</g>
</g>
<!-- Node3&#45;&gt;Node1 -->
<g id="edge2_Node000001_Node000003" class="edge">
<title>Node3&#45;&gt;Node1</title>
<g id="a_edge2_Node000001_Node000003"><a xlink:title=" ">
<path fill="none" stroke="#63b8ff" d="M155.79,-136.76C165.11,-135.23 174.58,-133.68 183.8,-132.16"/>
<polygon fill="#63b8ff" stroke="#63b8ff" points="155.05,-133.33 145.75,-138.4 156.19,-140.24 155.05,-133.33"/>
</a>
</g>
</g>
<!-- Node4 -->
<g id="Node000004" class="node">
<title>Node4</title>
<g id="a_Node000004"><a xlink:href="classdi_1_1container_1_1ConstantPathInterface.html" target="_top" xlink:title=" ">
<polygon fill="white" stroke="#666666" points="148,-111.5 0,-111.5 0,-70.5 148,-70.5 148,-111.5"/>
<text text-anchor="start" x="8" y="-99.5" font-family="Helvetica,sans-Serif" font-size="10.00">di::container::ConstantPath</text>
<text text-anchor="start" x="8" y="-88.5" font-family="Helvetica,sans-Serif" font-size="10.00">Interface&lt; PathViewImpl</text>
<text text-anchor="middle" x="74" y="-77.5" font-family="Helvetica,sans-Serif" font-size="10.00">&lt; Enc &gt;, Enc &gt;</text>
</a>
</g>
</g>
<!-- Node4&#45;&gt;Node1 -->
<g id="edge3_Node000001_Node000004" class="edge">
<title>Node4&#45;&gt;Node1</title>
<g id="a_edge3_Node000001_Node000004"><a xlink:title=" ">
<path fill="none" stroke="#63b8ff" d="M158.11,-104.17C166.68,-105.53 175.34,-106.9 183.8,-108.24"/>
<polygon fill="#63b8ff" stroke="#63b8ff" points="158.54,-100.69 148.12,-102.59 157.44,-107.61 158.54,-100.69"/>
</a>
</g>
</g>
<!-- Node5 -->
<g id="Node000005" class="node">
<title>Node5</title>
<g id="a_Node000005"><a xlink:href="structdi_1_1util_1_1OwnedType.html" target="_top" xlink:title=" ">
<polygon fill="white" stroke="#666666" points="141.5,-52 6.5,-52 6.5,0 141.5,0 141.5,-52"/>
<text text-anchor="start" x="14.5" y="-40" font-family="Helvetica,sans-Serif" font-size="10.00">di::util::OwnedType</text>
<text text-anchor="start" x="14.5" y="-29" font-family="Helvetica,sans-Serif" font-size="10.00">&lt; PathViewImpl&lt; Enc</text>
<text text-anchor="start" x="14.5" y="-18" font-family="Helvetica,sans-Serif" font-size="10.00"> &gt;, PathImpl&lt; string</text>
<text text-anchor="middle" x="74" y="-7" font-family="Helvetica,sans-Serif" font-size="10.00">::StringImpl&lt; Enc &gt; &gt; &gt;</text>
</a>
</g>
</g>
<!-- Node5&#45;&gt;Node1 -->
<g id="edge4_Node000001_Node000005" class="edge">
<title>Node5&#45;&gt;Node1</title>
<g id="a_edge4_Node000001_Node000005"><a xlink:title=" ">
<path fill="none" stroke="#63b8ff" d="M137.75,-56.81C141.22,-58.56 144.66,-60.29 148,-62 175.89,-76.22 207.47,-92.94 229.62,-104.77"/>
<polygon fill="#63b8ff" stroke="#63b8ff" points="139.02,-53.53 128.51,-52.18 135.88,-59.79 139.02,-53.53"/>
</a>
</g>
</g>
</g>
</svg>
