<?xml version="1.0" encoding="UTF-8" standalone="no"?>
<!DOCTYPE svg PUBLIC "-//W3C//DTD SVG 1.1//EN"
 "http://www.w3.org/Graphics/SVG/1.1/DTD/svg11.dtd">
<!-- Generated by graphviz version 2.43.0 (0)
 -->
<!-- Title: di::container::IntrusiveListNode&lt; Tag &gt; Pages: 1 -->
<svg width="274pt" height="159pt"
 viewBox="0.00 0.00 273.50 159.00" xmlns="http://www.w3.org/2000/svg" xmlns:xlink="http://www.w3.org/1999/xlink">
<g id="graph0" class="graph" transform="scale(1 1) rotate(0) translate(4 155)">
<title>di::container::IntrusiveListNode&lt; Tag &gt;</title>
<!-- Node1 -->
<g id="Node000001" class="node">
<title>Node1</title>
<g id="a_Node000001"><a xlink:title=" ">
<polygon fill="#999999" stroke="#666666" points="172,-96 46,-96 46,-66 172,-66 172,-96"/>
<text text-anchor="start" x="54" y="-84" font-family="Helvetica,sans-Serif" font-size="10.00">di::container::Intrusive</text>
<text text-anchor="middle" x="109" y="-73" font-family="Helvetica,sans-Serif" font-size="10.00">ListNode&lt; Tag &gt;</text>
</a>
</g>
</g>
<!-- Node3 -->
<g id="Node000003" class="node">
<title>Node3</title>
<g id="a_Node000003"><a xlink:href="classiris_1_1Task.html" target="_top" xlink:title=" ">
<polygon fill="white" stroke="#666666" points="76,-24.5 0,-24.5 0,-5.5 76,-5.5 76,-24.5"/>
<text text-anchor="middle" x="38" y="-12.5" font-family="Helvetica,sans-Serif" font-size="10.00">iris::Task&lt;&gt;</text>
</a>
</g>
</g>
<!-- Node1&#45;&gt;Node3 -->
<g id="edge2_Node000001_Node000003" class="edge">
<title>Node1&#45;&gt;Node3</title>
<g id="a_edge2_Node000001_Node000003"><a xlink:title=" ">
<path fill="none" stroke="#63b8ff" d="M85.63,-58.93C72.78,-47.35 57.53,-33.61 47.81,-24.84"/>
<polygon fill="#63b8ff" stroke="#63b8ff" points="83.47,-61.7 93.24,-65.8 88.16,-56.5 83.47,-61.7"/>
</a>
</g>
</g>
<!-- Node4 -->
<g id="Node000004" class="node">
<title>Node4</title>
<g id="a_Node000004"><a xlink:href="structiris_1_1mm_1_1PageStructurePhysicalPage.html" target="_top" xlink:title="A physical page of memory used for the page tables themselves.">
<polygon fill="white" stroke="#666666" points="265.5,-30 94.5,-30 94.5,0 265.5,0 265.5,-30"/>
<text text-anchor="start" x="102.5" y="-18" font-family="Helvetica,sans-Serif" font-size="10.00">iris::mm::PageStructurePhysical</text>
<text text-anchor="middle" x="180" y="-7" font-family="Helvetica,sans-Serif" font-size="10.00">Page&lt;&gt;</text>
</a>
</g>
</g>
<!-- Node1&#45;&gt;Node4 -->
<g id="edge3_Node000001_Node000004" class="edge">
<title>Node1&#45;&gt;Node4</title>
<g id="a_edge3_Node000001_Node000004"><a xlink:title=" ">
<path fill="none" stroke="#63b8ff" d="M132.38,-58.92C142.85,-49.49 154.92,-38.61 164.29,-30.16"/>
<polygon fill="#63b8ff" stroke="#63b8ff" points="129.84,-56.5 124.76,-65.8 134.53,-61.7 129.84,-56.5"/>
</a>
</g>
</g>
<!-- Node2 -->
<g id="Node000002" class="node">
<title>Node2</title>
<g id="a_Node000002"><a xlink:href="structdi_1_1util_1_1Immovable.html" target="_top" xlink:title=" ">
<polygon fill="white" stroke="#666666" points="163.5,-151 54.5,-151 54.5,-132 163.5,-132 163.5,-151"/>
<text text-anchor="middle" x="109" y="-139" font-family="Helvetica,sans-Serif" font-size="10.00">di::util::Immovable</text>
</a>
</g>
</g>
<!-- Node2&#45;&gt;Node1 -->
<g id="edge1_Node000001_Node000002" class="edge">
<title>Node2&#45;&gt;Node1</title>
<g id="a_edge1_Node000001_Node000002"><a xlink:title=" ">
<path fill="none" stroke="#8b1a1a" d="M109,-121.65C109,-113.36 109,-103.78 109,-96.11"/>
<polygon fill="#8b1a1a" stroke="#8b1a1a" points="105.5,-121.87 109,-131.87 112.5,-121.87 105.5,-121.87"/>
</a>
</g>
</g>
</g>
</svg>
