<?xml version="1.0" encoding="UTF-8" standalone="no"?>
<!DOCTYPE svg PUBLIC "-//W3C//DTD SVG 1.1//EN"
 "http://www.w3.org/Graphics/SVG/1.1/DTD/svg11.dtd">
<!-- Generated by graphviz version 2.43.0 (0)
 -->
<!-- Title: di::vocab::Optional&lt; T &gt; Pages: 1 -->
<svg width="354pt" height="442pt"
 viewBox="0.00 0.00 354.00 442.00" xmlns="http://www.w3.org/2000/svg" xmlns:xlink="http://www.w3.org/1999/xlink">
<g id="graph0" class="graph" transform="scale(1 1) rotate(0) translate(4 438)">
<title>di::vocab::Optional&lt; T &gt;</title>
<!-- Node1 -->
<g id="Node000001" class="node">
<title>Node1</title>
<g id="a_Node000001"><a xlink:title=" ">
<polygon fill="#999999" stroke="#666666" points="137,-223.5 0,-223.5 0,-204.5 137,-204.5 137,-223.5"/>
<text text-anchor="middle" x="68.5" y="-211.5" font-family="Helvetica,sans-Serif" font-size="10.00">di::vocab::Optional&lt; T &gt;</text>
</a>
</g>
</g>
<!-- Node2 -->
<g id="Node000002" class="node">
<title>Node2</title>
<g id="a_Node000002"><a xlink:href="classdi_1_1util_1_1NonPropagatingCache.html" target="_top" xlink:title=" ">
<polygon fill="white" stroke="#666666" points="325,-434 194,-434 194,-404 325,-404 325,-434"/>
<text text-anchor="start" x="202" y="-422" font-family="Helvetica,sans-Serif" font-size="10.00">di::util::NonPropagating</text>
<text text-anchor="middle" x="259.5" y="-411" font-family="Helvetica,sans-Serif" font-size="10.00">Cache&lt; Iterator &gt;</text>
</a>
</g>
</g>
<!-- Node1&#45;&gt;Node2 -->
<g id="edge1_Node000001_Node000002" class="edge">
<title>Node1&#45;&gt;Node2</title>
<g id="a_edge1_Node000001_Node000002"><a xlink:title=" ">
<path fill="none" stroke="#63b8ff" d="M75.05,-233.18C86.79,-270.25 117.67,-351.84 173,-395 179.2,-399.84 186.32,-403.7 193.75,-406.78"/>
<polygon fill="#63b8ff" stroke="#63b8ff" points="78.39,-232.14 72.13,-223.59 71.7,-234.18 78.39,-232.14"/>
</a>
</g>
</g>
<!-- Node3 -->
<g id="Node000003" class="node">
<title>Node3</title>
<g id="a_Node000003"><a xlink:href="classdi_1_1util_1_1NonPropagatingCache.html" target="_top" xlink:title=" ">
<polygon fill="white" stroke="#666666" points="325,-386 194,-386 194,-356 325,-356 325,-386"/>
<text text-anchor="start" x="202" y="-374" font-family="Helvetica,sans-Serif" font-size="10.00">di::util::NonPropagating</text>
<text text-anchor="middle" x="259.5" y="-363" font-family="Helvetica,sans-Serif" font-size="10.00">Cache&lt; Iter &gt;</text>
</a>
</g>
</g>
<!-- Node1&#45;&gt;Node3 -->
<g id="edge2_Node000001_Node000003" class="edge">
<title>Node1&#45;&gt;Node3</title>
<g id="a_edge2_Node000001_Node000003"><a xlink:title=" ">
<path fill="none" stroke="#63b8ff" d="M79.01,-232.81C94.62,-261.78 128.46,-317.08 173,-347 179.4,-351.3 186.56,-354.83 193.94,-357.74"/>
<polygon fill="#63b8ff" stroke="#63b8ff" points="82,-230.98 74.26,-223.75 75.8,-234.23 82,-230.98"/>
</a>
</g>
</g>
<!-- Node4 -->
<g id="Node000004" class="node">
<title>Node4</title>
<g id="a_Node000004"><a xlink:href="classdi_1_1util_1_1NonPropagatingCache.html" target="_top" xlink:title=" ">
<polygon fill="white" stroke="#666666" points="344,-338 175,-338 175,-286 344,-286 344,-338"/>
<text text-anchor="start" x="183" y="-326" font-family="Helvetica,sans-Serif" font-size="10.00">di::util::NonPropagating</text>
<text text-anchor="start" x="183" y="-315" font-family="Helvetica,sans-Serif" font-size="10.00">Cache&lt; di::container::</text>
<text text-anchor="start" x="183" y="-304" font-family="Helvetica,sans-Serif" font-size="10.00">ReverseIterator&lt; meta::</text>
<text text-anchor="middle" x="259.5" y="-293" font-family="Helvetica,sans-Serif" font-size="10.00">ContainerIterator&lt; View &gt; &gt; &gt;</text>
</a>
</g>
</g>
<!-- Node1&#45;&gt;Node4 -->
<g id="edge3_Node000001_Node000004" class="edge">
<title>Node1&#45;&gt;Node4</title>
<g id="a_edge3_Node000001_Node000004"><a xlink:title=" ">
<path fill="none" stroke="#63b8ff" d="M91.85,-229.03C112.43,-242.52 144.05,-262.38 173,-277 179.01,-280.04 185.35,-283.02 191.75,-285.88"/>
<polygon fill="#63b8ff" stroke="#63b8ff" points="93.76,-226.1 83.49,-223.5 89.9,-231.94 93.76,-226.1"/>
</a>
</g>
</g>
<!-- Node5 -->
<g id="Node000005" class="node">
<title>Node5</title>
<g id="a_Node000005"><a xlink:href="classdi_1_1util_1_1NonPropagatingCache.html" target="_top" xlink:title=" ">
<polygon fill="white" stroke="#666666" points="346,-267.5 173,-267.5 173,-226.5 346,-226.5 346,-267.5"/>
<text text-anchor="start" x="181" y="-255.5" font-family="Helvetica,sans-Serif" font-size="10.00">di::util::NonPropagating</text>
<text text-anchor="start" x="181" y="-244.5" font-family="Helvetica,sans-Serif" font-size="10.00">Cache&lt; meta::ContainerIterator</text>
<text text-anchor="middle" x="259.5" y="-233.5" font-family="Helvetica,sans-Serif" font-size="10.00">&lt; View &gt; &gt;</text>
</a>
</g>
</g>
<!-- Node1&#45;&gt;Node5 -->
<g id="edge4_Node000001_Node000005" class="edge">
<title>Node1&#45;&gt;Node5</title>
<g id="a_edge4_Node000001_Node000005"><a xlink:title=" ">
<path fill="none" stroke="#63b8ff" d="M133.78,-225.22C146.33,-227.41 159.67,-229.74 172.78,-232.03"/>
<polygon fill="#63b8ff" stroke="#63b8ff" points="134.37,-221.77 123.91,-223.5 133.16,-228.67 134.37,-221.77"/>
</a>
</g>
</g>
<!-- Node6 -->
<g id="Node000006" class="node">
<title>Node6</title>
<g id="a_Node000006"><a xlink:href="classdi_1_1util_1_1NonPropagatingCache.html" target="_top" xlink:title=" ">
<polygon fill="white" stroke="#666666" points="339.5,-208 179.5,-208 179.5,-156 339.5,-156 339.5,-208"/>
<text text-anchor="start" x="187.5" y="-196" font-family="Helvetica,sans-Serif" font-size="10.00">di::util::NonPropagating</text>
<text text-anchor="start" x="187.5" y="-185" font-family="Helvetica,sans-Serif" font-size="10.00">Cache&lt; meta::RemoveCVRef</text>
<text text-anchor="start" x="187.5" y="-174" font-family="Helvetica,sans-Serif" font-size="10.00">&lt; meta::ContainerReference</text>
<text text-anchor="middle" x="259.5" y="-163" font-family="Helvetica,sans-Serif" font-size="10.00">&lt; View &gt; &gt; &gt;</text>
</a>
</g>
</g>
<!-- Node1&#45;&gt;Node6 -->
<g id="edge5_Node000001_Node000006" class="edge">
<title>Node1&#45;&gt;Node6</title>
<g id="a_edge5_Node000001_Node000006"><a xlink:title=" ">
<path fill="none" stroke="#63b8ff" d="M135.78,-202.78C149.88,-200.39 164.91,-197.85 179.44,-195.39"/>
<polygon fill="#63b8ff" stroke="#63b8ff" points="134.97,-199.37 125.69,-204.49 136.14,-206.27 134.97,-199.37"/>
</a>
</g>
</g>
<!-- Node7 -->
<g id="Node000007" class="node">
<title>Node7</title>
<g id="a_Node000007"><a xlink:href="classdi_1_1util_1_1NonPropagatingCache.html" target="_top" xlink:title=" ">
<polygon fill="white" stroke="#666666" points="339.5,-137.5 179.5,-137.5 179.5,-96.5 339.5,-96.5 339.5,-137.5"/>
<text text-anchor="start" x="187.5" y="-125.5" font-family="Helvetica,sans-Serif" font-size="10.00">di::util::NonPropagating</text>
<text text-anchor="start" x="187.5" y="-114.5" font-family="Helvetica,sans-Serif" font-size="10.00">Cache&lt; meta::RemoveCVRef</text>
<text text-anchor="middle" x="259.5" y="-103.5" font-family="Helvetica,sans-Serif" font-size="10.00">&lt; InnerContainer &gt; &gt;</text>
</a>
</g>
</g>
<!-- Node1&#45;&gt;Node7 -->
<g id="edge6_Node000001_Node000007" class="edge">
<title>Node1&#45;&gt;Node7</title>
<g id="a_edge6_Node000001_Node000007"><a xlink:title=" ">
<path fill="none" stroke="#63b8ff" d="M90.51,-198.27C110.82,-183.59 142.87,-161.78 173,-147 179.78,-143.68 187.02,-140.54 194.32,-137.65"/>
<polygon fill="#63b8ff" stroke="#63b8ff" points="88.3,-195.55 82.3,-204.28 92.44,-201.19 88.3,-195.55"/>
</a>
</g>
</g>
<!-- Node8 -->
<g id="Node000008" class="node">
<title>Node8</title>
<g id="a_Node000008"><a xlink:href="classdi_1_1util_1_1NonPropagatingCache.html" target="_top" xlink:title=" ">
<polygon fill="white" stroke="#666666" points="335.5,-78 183.5,-78 183.5,-48 335.5,-48 335.5,-78"/>
<text text-anchor="start" x="191.5" y="-66" font-family="Helvetica,sans-Serif" font-size="10.00">di::util::NonPropagating</text>
<text text-anchor="middle" x="259.5" y="-55" font-family="Helvetica,sans-Serif" font-size="10.00">Cache&lt; Iterator&lt; false &gt; &gt;</text>
</a>
</g>
</g>
<!-- Node1&#45;&gt;Node8 -->
<g id="edge7_Node000001_Node000008" class="edge">
<title>Node1&#45;&gt;Node8</title>
<g id="a_edge7_Node000001_Node000008"><a xlink:title=" ">
<path fill="none" stroke="#63b8ff" d="M79.75,-195.48C95.95,-167.92 130.08,-116.35 173,-88 178.81,-84.16 185.21,-80.9 191.83,-78.14"/>
<polygon fill="#63b8ff" stroke="#63b8ff" points="76.54,-194.04 74.61,-204.46 82.62,-197.52 76.54,-194.04"/>
</a>
</g>
</g>
<!-- Node9 -->
<g id="Node000009" class="node">
<title>Node9</title>
<g id="a_Node000009"><a xlink:href="classdi_1_1util_1_1NonPropagatingCache.html" target="_top" xlink:title=" ">
<polygon fill="white" stroke="#666666" points="325,-30 194,-30 194,0 325,0 325,-30"/>
<text text-anchor="start" x="202" y="-18" font-family="Helvetica,sans-Serif" font-size="10.00">di::util::NonPropagating</text>
<text text-anchor="middle" x="259.5" y="-7" font-family="Helvetica,sans-Serif" font-size="10.00">Cache&lt; T &gt;</text>
</a>
</g>
</g>
<!-- Node1&#45;&gt;Node9 -->
<g id="edge8_Node000001_Node000009" class="edge">
<title>Node1&#45;&gt;Node9</title>
<g id="a_edge8_Node000001_Node000009"><a xlink:title=" ">
<path fill="none" stroke="#63b8ff" d="M75.57,-194.47C87.87,-158.19 119.23,-80.32 173,-39 179.23,-34.21 186.38,-30.37 193.82,-27.31"/>
<polygon fill="#63b8ff" stroke="#63b8ff" points="72.14,-193.72 72.36,-204.31 78.79,-195.89 72.14,-193.72"/>
</a>
</g>
</g>
</g>
</svg>
