<?xml version="1.0" encoding="UTF-8" standalone="no"?>
<!DOCTYPE svg PUBLIC "-//W3C//DTD SVG 1.1//EN"
 "http://www.w3.org/Graphics/SVG/1.1/DTD/svg11.dtd">
<!-- Generated by graphviz version 2.43.0 (0)
 -->
<!-- Title: di::container::ZipTransformView&lt; F, Views &gt; Pages: 1 -->
<svg width="208pt" height="170pt"
 viewBox="0.00 0.00 208.00 170.00" xmlns="http://www.w3.org/2000/svg" xmlns:xlink="http://www.w3.org/1999/xlink">
<g id="graph0" class="graph" transform="scale(1 1) rotate(0) translate(4 166)">
<title>di::container::ZipTransformView&lt; F, Views &gt;</title>
<!-- Node1 -->
<g id="Node000001" class="node">
<title>Node1</title>
<g id="a_Node000001"><a xlink:title=" ">
<polygon fill="#999999" stroke="#666666" points="174,-30 26,-30 26,0 174,0 174,-30"/>
<text text-anchor="start" x="34" y="-18" font-family="Helvetica,sans-Serif" font-size="10.00">di::container::ZipTransform</text>
<text text-anchor="middle" x="100" y="-7" font-family="Helvetica,sans-Serif" font-size="10.00">View&lt; F, Views &gt;</text>
</a>
</g>
</g>
<!-- Node2 -->
<g id="Node000002" class="node">
<title>Node2</title>
<g id="a_Node000002"><a xlink:href="classdi_1_1container_1_1ViewInterface.html" target="_top" xlink:title=" ">
<polygon fill="white" stroke="#666666" points="200,-96 0,-96 0,-66 200,-66 200,-96"/>
<text text-anchor="start" x="8" y="-84" font-family="Helvetica,sans-Serif" font-size="10.00">di::container::ViewInterface</text>
<text text-anchor="middle" x="100" y="-73" font-family="Helvetica,sans-Serif" font-size="10.00">&lt; ZipTransformView&lt; F, Views... &gt; &gt;</text>
</a>
</g>
</g>
<!-- Node2&#45;&gt;Node1 -->
<g id="edge1_Node000001_Node000002" class="edge">
<title>Node2&#45;&gt;Node1</title>
<g id="a_edge1_Node000001_Node000002"><a xlink:title=" ">
<path fill="none" stroke="#63b8ff" d="M100,-55.54C100,-46.96 100,-37.61 100,-30.16"/>
<polygon fill="#63b8ff" stroke="#63b8ff" points="96.5,-55.8 100,-65.8 103.5,-55.8 96.5,-55.8"/>
</a>
</g>
</g>
<!-- Node3 -->
<g id="Node000003" class="node">
<title>Node3</title>
<g id="a_Node000003"><a xlink:href="classdi_1_1meta_1_1EnableView.html" target="_top" xlink:title=" ">
<polygon fill="white" stroke="#666666" points="167,-162 33,-162 33,-132 167,-132 167,-162"/>
<text text-anchor="start" x="41" y="-150" font-family="Helvetica,sans-Serif" font-size="10.00">di::meta::EnableView</text>
<text text-anchor="middle" x="100" y="-139" font-family="Helvetica,sans-Serif" font-size="10.00">&lt; Self, should_enable &gt;</text>
</a>
</g>
</g>
<!-- Node3&#45;&gt;Node2 -->
<g id="edge2_Node000002_Node000003" class="edge">
<title>Node3&#45;&gt;Node2</title>
<g id="a_edge2_Node000002_Node000003"><a xlink:title=" ">
<path fill="none" stroke="#63b8ff" d="M100,-121.54C100,-112.96 100,-103.61 100,-96.16"/>
<polygon fill="#63b8ff" stroke="#63b8ff" points="96.5,-121.8 100,-131.8 103.5,-121.8 96.5,-121.8"/>
</a>
</g>
</g>
</g>
</svg>
