<?xml version="1.0" encoding="UTF-8" standalone="no"?>
<!DOCTYPE svg PUBLIC "-//W3C//DTD SVG 1.1//EN"
 "http://www.w3.org/Graphics/SVG/1.1/DTD/svg11.dtd">
<!-- Generated by graphviz version 2.43.0 (0)
 -->
<!-- Title: libs/di/include/di/bit/operation Pages: 1 -->
<svg width="160pt" height="117pt"
 viewBox="0.00 0.00 160.00 117.00" xmlns="http://www.w3.org/2000/svg" xmlns:xlink="http://www.w3.org/1999/xlink">
<g id="graph0" class="graph" transform="scale(1 1) rotate(0) translate(4 113)">
<title>libs/di/include/di/bit/operation</title>
<g id="clust1" class="cluster">
<title>clusterdir_143f1d6bc6d46924c644ec67dc1fb4fc</title>
<g id="a_clust1"><a xlink:href="dir_143f1d6bc6d46924c644ec67dc1fb4fc.html" target="_top" xlink:title="bit">
<polygon fill="#edf0f7" stroke="#7f7f7f" stroke-dasharray="5,2" points="31,-47 31,-101 111,-101 111,-47 31,-47"/>
<text text-anchor="middle" x="71" y="-89" font-family="Helvetica,sans-Serif" font-size="10.00">bit</text>
</a>
</g>
</g>
<!-- dir_ed2711737aff2fecea23f82ff0788684 -->
<g id="node1" class="node">
<title>dir_ed2711737aff2fecea23f82ff0788684</title>
<g id="a_node1"><a xlink:href="dir_ed2711737aff2fecea23f82ff0788684.html" target="_top" xlink:title="operation">
<polygon fill="#edf0f7" stroke="#404040" stroke-width="2" points="102.5,-74 39.5,-74 39.5,-55 102.5,-55 102.5,-74"/>
<text text-anchor="middle" x="71" y="-62" font-family="Helvetica,sans-Serif" font-size="10.00">operation</text>
</a>
</g>
</g>
<!-- dir_4535887b2cdca47e625f259d07db0112 -->
<g id="node2" class="node">
<title>dir_4535887b2cdca47e625f259d07db0112</title>
<g id="a_node2"><a xlink:href="dir_4535887b2cdca47e625f259d07db0112.html" target="_top" xlink:title="util">
<polygon fill="#edf0f7" stroke="#7f7f7f" points="32,-19 0,-19 0,0 32,0 32,-19"/>
<text text-anchor="middle" x="16" y="-7" font-family="Helvetica,sans-Serif" font-size="10.00">util</text>
</a>
</g>
</g>
<!-- dir_ed2711737aff2fecea23f82ff0788684&#45;&gt;dir_4535887b2cdca47e625f259d07db0112 -->
<g id="edge1" class="edge">
<title>dir_ed2711737aff2fecea23f82ff0788684&#45;&gt;dir_4535887b2cdca47e625f259d07db0112</title>
<path fill="none" stroke="#63b8ff" d="M61.92,-54.75C53.91,-47.03 42.04,-35.6 32.38,-26.28"/>
<polygon fill="#63b8ff" stroke="#63b8ff" points="34.54,-23.51 24.91,-19.09 29.69,-28.55 34.54,-23.51"/>
<g id="a_edge1&#45;headlabel"><a xlink:href="dir_000130_000185.html" target="_top" xlink:title="1">
<text text-anchor="middle" x="39.1" y="-21.46" font-family="Helvetica,sans-Serif" font-size="10.00" fill="#63b8ff">1</text>
</a>
</g>
</g>
<!-- dir_60d1624911c2c9f7b6f38e44ec895aaa -->
<g id="node3" class="node">
<title>dir_60d1624911c2c9f7b6f38e44ec895aaa</title>
<g id="a_node3"><a xlink:href="dir_60d1624911c2c9f7b6f38e44ec895aaa.html" target="_top" xlink:title="math">
<polygon fill="#edf0f7" stroke="red" stroke-dasharray="5,2" points="92,-19 50,-19 50,0 92,0 92,-19"/>
<text text-anchor="middle" x="71" y="-7" font-family="Helvetica,sans-Serif" font-size="10.00">math</text>
</a>
</g>
</g>
<!-- dir_ed2711737aff2fecea23f82ff0788684&#45;&gt;dir_60d1624911c2c9f7b6f38e44ec895aaa -->
<g id="edge2" class="edge">
<title>dir_ed2711737aff2fecea23f82ff0788684&#45;&gt;dir_60d1624911c2c9f7b6f38e44ec895aaa</title>
<path fill="none" stroke="#63b8ff" d="M71,-54.75C71,-47.8 71,-37.85 71,-29.13"/>
<polygon fill="#63b8ff" stroke="#63b8ff" points="74.5,-29.09 71,-19.09 67.5,-29.09 74.5,-29.09"/>
<g id="a_edge2&#45;headlabel"><a xlink:href="dir_000130_000117.html" target="_top" xlink:title="5">
<text text-anchor="middle" x="77.34" y="-30.18" font-family="Helvetica,sans-Serif" font-size="10.00" fill="#63b8ff">5</text>
</a>
</g>
</g>
<!-- dir_f555f996eeee1ebe901dc71e0c5de8ff -->
<g id="node4" class="node">
<title>dir_f555f996eeee1ebe901dc71e0c5de8ff</title>
<g id="a_node4"><a xlink:href="dir_f555f996eeee1ebe901dc71e0c5de8ff.html" target="_top" xlink:title="meta">
<polygon fill="#edf0f7" stroke="#7f7f7f" points="152,-19 110,-19 110,0 152,0 152,-19"/>
<text text-anchor="middle" x="131" y="-7" font-family="Helvetica,sans-Serif" font-size="10.00">meta</text>
</a>
</g>
</g>
<!-- dir_ed2711737aff2fecea23f82ff0788684&#45;&gt;dir_f555f996eeee1ebe901dc71e0c5de8ff -->
<g id="edge3" class="edge">
<title>dir_ed2711737aff2fecea23f82ff0788684&#45;&gt;dir_f555f996eeee1ebe901dc71e0c5de8ff</title>
<path fill="none" stroke="#63b8ff" d="M80.64,-54.98C89.51,-47.15 102.87,-35.34 113.61,-25.86"/>
<polygon fill="#63b8ff" stroke="#63b8ff" points="116.01,-28.41 121.18,-19.17 111.37,-23.17 116.01,-28.41"/>
<g id="a_edge3&#45;headlabel"><a xlink:href="dir_000130_000122.html" target="_top" xlink:title="8">
<text text-anchor="middle" x="115.19" y="-30.42" font-family="Helvetica,sans-Serif" font-size="10.00" fill="#63b8ff">8</text>
</a>
</g>
</g>
</g>
</svg>
