<?xml version="1.0" encoding="UTF-8" standalone="no"?>
<!DOCTYPE svg PUBLIC "-//W3C//DTD SVG 1.1//EN"
 "http://www.w3.org/Graphics/SVG/1.1/DTD/svg11.dtd">
<!-- Generated by graphviz version 2.43.0 (0)
 -->
<!-- Title: libs/di/include/di/format Pages: 1 -->
<svg width="535pt" height="251pt"
 viewBox="0.00 0.00 535.00 251.00" xmlns="http://www.w3.org/2000/svg" xmlns:xlink="http://www.w3.org/1999/xlink">
<g id="graph0" class="graph" transform="scale(1 1) rotate(0) translate(4 247)">
<title>libs/di/include/di/format</title>
<g id="clust1" class="cluster">
<title>clusterdir_f95a1a0ab1b96e316090c1bcac3c2c99</title>
<g id="a_clust1"><a xlink:href="dir_f95a1a0ab1b96e316090c1bcac3c2c99.html" target="_top" xlink:title="di">
<polygon fill="#edf0f7" stroke="#7f7f7f" stroke-dasharray="5,2" points="8,-8 8,-235 519,-235 519,-8 8,-8"/>
<text text-anchor="middle" x="263.5" y="-223" font-family="Helvetica,sans-Serif" font-size="10.00">di</text>
</a>
</g>
</g>
<g id="clust2" class="cluster">
<title>clusterdir_e41b746b2bc627b26c4c637af42fb69a</title>
<g id="a_clust2"><a xlink:href="dir_e41b746b2bc627b26c4c637af42fb69a.html" target="_top">
<polygon fill="#edf0f7" stroke="#404040" stroke-width="2" points="180,-63 180,-208 316,-208 316,-63 180,-63"/>
</a>
</g>
</g>
<!-- dir_0669efae56692bb73da75efb5ebbccdf -->
<g id="node1" class="node">
<title>dir_0669efae56692bb73da75efb5ebbccdf</title>
<g id="a_node1"><a xlink:href="dir_0669efae56692bb73da75efb5ebbccdf.html" target="_top" xlink:title="function">
<polygon fill="#a2b4d6" stroke="red" points="112,-90 56,-90 56,-71 112,-71 112,-90"/>
<text text-anchor="middle" x="84" y="-78" font-family="Helvetica,sans-Serif" font-size="10.00">function</text>
</a>
</g>
</g>
<!-- dir_30ecaf38acae77be14fb9173f98f8612 -->
<g id="node2" class="node">
<title>dir_30ecaf38acae77be14fb9173f98f8612</title>
<g id="a_node2"><a xlink:href="dir_30ecaf38acae77be14fb9173f98f8612.html" target="_top" xlink:title="types">
<polygon fill="#a2b4d6" stroke="#404040" points="480,-90 436,-90 436,-71 480,-71 480,-90"/>
<text text-anchor="middle" x="458" y="-78" font-family="Helvetica,sans-Serif" font-size="10.00">types</text>
</a>
</g>
</g>
<!-- dir_4535887b2cdca47e625f259d07db0112 -->
<g id="node3" class="node">
<title>dir_4535887b2cdca47e625f259d07db0112</title>
<g id="a_node3"><a xlink:href="dir_4535887b2cdca47e625f259d07db0112.html" target="_top" xlink:title="util">
<polygon fill="#a2b4d6" stroke="#404040" points="48,-145 16,-145 16,-126 48,-126 48,-145"/>
<text text-anchor="middle" x="32" y="-133" font-family="Helvetica,sans-Serif" font-size="10.00">util</text>
</a>
</g>
</g>
<!-- dir_521de572ae4fe2915cc70a876c52f5b7 -->
<g id="node4" class="node">
<title>dir_521de572ae4fe2915cc70a876c52f5b7</title>
<g id="a_node4"><a xlink:href="dir_521de572ae4fe2915cc70a876c52f5b7.html" target="_top" xlink:title="container">
<polygon fill="#a2b4d6" stroke="red" points="199,-35 137,-35 137,-16 199,-16 199,-35"/>
<text text-anchor="middle" x="168" y="-23" font-family="Helvetica,sans-Serif" font-size="10.00">container</text>
</a>
</g>
</g>
<!-- dir_60d1624911c2c9f7b6f38e44ec895aaa -->
<g id="node5" class="node">
<title>dir_60d1624911c2c9f7b6f38e44ec895aaa</title>
<g id="a_node5"><a xlink:href="dir_60d1624911c2c9f7b6f38e44ec895aaa.html" target="_top" xlink:title="math">
<polygon fill="#a2b4d6" stroke="red" points="172,-90 130,-90 130,-71 172,-71 172,-90"/>
<text text-anchor="middle" x="151" y="-78" font-family="Helvetica,sans-Serif" font-size="10.00">math</text>
</a>
</g>
</g>
<!-- dir_942cfae36a92b6b1c4b510e99e852d40 -->
<g id="node6" class="node">
<title>dir_942cfae36a92b6b1c4b510e99e852d40</title>
<g id="a_node6"><a xlink:href="dir_942cfae36a92b6b1c4b510e99e852d40.html" target="_top" xlink:title="vocab">
<polygon fill="#a2b4d6" stroke="red" points="341,-35 295,-35 295,-16 341,-16 341,-35"/>
<text text-anchor="middle" x="318" y="-23" font-family="Helvetica,sans-Serif" font-size="10.00">vocab</text>
</a>
</g>
</g>
<!-- dir_a60d4453151dca6bdd8e5fcc350e379b -->
<g id="node7" class="node">
<title>dir_a60d4453151dca6bdd8e5fcc350e379b</title>
<g id="a_node7"><a xlink:href="dir_a60d4453151dca6bdd8e5fcc350e379b.html" target="_top" xlink:title="assert">
<polygon fill="#a2b4d6" stroke="#404040" points="373.5,-145 326.5,-145 326.5,-126 373.5,-126 373.5,-145"/>
<text text-anchor="middle" x="350" y="-133" font-family="Helvetica,sans-Serif" font-size="10.00">assert</text>
</a>
</g>
</g>
<!-- dir_aaf67126bd5deefc4d96704f76f22cc2 -->
<g id="node8" class="node">
<title>dir_aaf67126bd5deefc4d96704f76f22cc2</title>
<g id="a_node8"><a xlink:href="dir_aaf67126bd5deefc4d96704f76f22cc2.html" target="_top" xlink:title="platform">
<polygon fill="#a2b4d6" stroke="#404040" points="450.5,-145 391.5,-145 391.5,-126 450.5,-126 450.5,-145"/>
<text text-anchor="middle" x="421" y="-133" font-family="Helvetica,sans-Serif" font-size="10.00">platform</text>
</a>
</g>
</g>
<!-- dir_c63ec87f2f7fd7fbd5b69a04f05a2815 -->
<g id="node9" class="node">
<title>dir_c63ec87f2f7fd7fbd5b69a04f05a2815</title>
<g id="a_node9"><a xlink:href="dir_c63ec87f2f7fd7fbd5b69a04f05a2815.html" target="_top" xlink:title="parser">
<polygon fill="#a2b4d6" stroke="red" points="395.5,-90 348.5,-90 348.5,-71 395.5,-71 395.5,-90"/>
<text text-anchor="middle" x="372" y="-78" font-family="Helvetica,sans-Serif" font-size="10.00">parser</text>
</a>
</g>
</g>
<!-- dir_f555f996eeee1ebe901dc71e0c5de8ff -->
<g id="node10" class="node">
<title>dir_f555f996eeee1ebe901dc71e0c5de8ff</title>
<g id="a_node10"><a xlink:href="dir_f555f996eeee1ebe901dc71e0c5de8ff.html" target="_top" xlink:title="meta">
<polygon fill="#a2b4d6" stroke="#404040" points="259,-35 217,-35 217,-16 259,-16 259,-35"/>
<text text-anchor="middle" x="238" y="-23" font-family="Helvetica,sans-Serif" font-size="10.00">meta</text>
</a>
</g>
</g>
<!-- dir_e41b746b2bc627b26c4c637af42fb69a -->
<g id="node11" class="node">
<title>dir_e41b746b2bc627b26c4c637af42fb69a</title>
<text text-anchor="middle" x="283" y="-188" font-family="Helvetica,sans-Serif" font-size="10.00">format</text>
</g>
<!-- dir_e41b746b2bc627b26c4c637af42fb69a&#45;&gt;dir_0669efae56692bb73da75efb5ebbccdf -->
<g id="edge1" class="edge">
<title>dir_e41b746b2bc627b26c4c637af42fb69a&#45;&gt;dir_0669efae56692bb73da75efb5ebbccdf</title>
<path fill="none" stroke="#63b8ff" d="M259.95,-180.9C238.71,-172.65 206.55,-159.37 180,-145 152.39,-130.06 122.51,-109.54 103.55,-95.91"/>
<polygon fill="#63b8ff" stroke="#63b8ff" points="105.56,-93.05 95.41,-90.01 101.45,-98.72 105.56,-93.05"/>
<g id="a_edge1&#45;headlabel"><a xlink:href="dir_000079_000082.html" target="_top" xlink:title="5">
<text text-anchor="middle" x="110.14" y="-90.36" font-family="Helvetica,sans-Serif" font-size="10.00" fill="#63b8ff">5</text>
</a>
</g>
</g>
<!-- dir_e41b746b2bc627b26c4c637af42fb69a&#45;&gt;dir_30ecaf38acae77be14fb9173f98f8612 -->
<g id="edge2" class="edge">
<title>dir_e41b746b2bc627b26c4c637af42fb69a&#45;&gt;dir_30ecaf38acae77be14fb9173f98f8612</title>
<path fill="none" stroke="#63b8ff" d="M308.09,-187.2C353.74,-182.43 447.49,-169.79 467,-145 476.99,-132.31 472.77,-113.62 467.24,-99.8"/>
<polygon fill="#63b8ff" stroke="#63b8ff" points="470.28,-98.02 462.96,-90.36 463.9,-100.91 470.28,-98.02"/>
<g id="a_edge2&#45;headlabel"><a xlink:href="dir_000079_000180.html" target="_top" xlink:title="4">
<text text-anchor="middle" x="474.35" y="-97.63" font-family="Helvetica,sans-Serif" font-size="10.00" fill="#63b8ff">4</text>
</a>
</g>
</g>
<!-- dir_e41b746b2bc627b26c4c637af42fb69a&#45;&gt;dir_4535887b2cdca47e625f259d07db0112 -->
<g id="edge3" class="edge">
<title>dir_e41b746b2bc627b26c4c637af42fb69a&#45;&gt;dir_4535887b2cdca47e625f259d07db0112</title>
<path fill="none" stroke="#63b8ff" d="M257.67,-185.06C216.45,-177.68 132.37,-162.03 62,-145 60.73,-144.69 59.43,-144.37 58.12,-144.03"/>
<polygon fill="#63b8ff" stroke="#63b8ff" points="58.7,-140.56 48.13,-141.32 56.87,-147.32 58.7,-140.56"/>
<g id="a_edge3&#45;headlabel"><a xlink:href="dir_000079_000185.html" target="_top" xlink:title="6">
<text text-anchor="middle" x="62.91" y="-136.26" font-family="Helvetica,sans-Serif" font-size="10.00" fill="#63b8ff">6</text>
</a>
</g>
</g>
<!-- dir_e41b746b2bc627b26c4c637af42fb69a&#45;&gt;dir_521de572ae4fe2915cc70a876c52f5b7 -->
<g id="edge4" class="edge">
<title>dir_e41b746b2bc627b26c4c637af42fb69a&#45;&gt;dir_521de572ae4fe2915cc70a876c52f5b7</title>
<path fill="none" stroke="#63b8ff" d="M257.96,-189.44C216.76,-188.23 133.43,-181.1 75,-145 68.34,-140.89 33.59,-97.38 31,-90 27.03,-78.68 23.69,-72.52 31,-63 42.67,-47.81 90.79,-37.6 126.72,-31.93"/>
<polygon fill="#63b8ff" stroke="#63b8ff" points="127.6,-35.34 136.96,-30.38 126.55,-28.41 127.6,-35.34"/>
<g id="a_edge4&#45;headlabel"><a xlink:href="dir_000079_000046.html" target="_top" xlink:title="32">
<text text-anchor="middle" x="124.47" y="-36.18" font-family="Helvetica,sans-Serif" font-size="10.00" fill="#63b8ff">32</text>
</a>
</g>
</g>
<!-- dir_e41b746b2bc627b26c4c637af42fb69a&#45;&gt;dir_942cfae36a92b6b1c4b510e99e852d40 -->
<g id="edge5" class="edge">
<title>dir_e41b746b2bc627b26c4c637af42fb69a&#45;&gt;dir_942cfae36a92b6b1c4b510e99e852d40</title>
<path fill="none" stroke="#63b8ff" d="M308.23,-186.9C354.76,-181.59 451.46,-168.04 475,-145 493.03,-127.36 485.86,-115.03 489,-90 490.49,-78.09 496.55,-72.33 489,-63 472.03,-42.03 396.19,-32.58 351.41,-28.77"/>
<polygon fill="#63b8ff" stroke="#63b8ff" points="351.53,-25.27 341.28,-27.96 350.97,-32.24 351.53,-25.27"/>
<g id="a_edge5&#45;headlabel"><a xlink:href="dir_000079_000189.html" target="_top" xlink:title="10">
<text text-anchor="middle" x="355.34" y="-20.22" font-family="Helvetica,sans-Serif" font-size="10.00" fill="#63b8ff">10</text>
</a>
</g>
</g>
<!-- dir_e41b746b2bc627b26c4c637af42fb69a&#45;&gt;dir_a60d4453151dca6bdd8e5fcc350e379b -->
<g id="edge6" class="edge">
<title>dir_e41b746b2bc627b26c4c637af42fb69a&#45;&gt;dir_a60d4453151dca6bdd8e5fcc350e379b</title>
<path fill="none" stroke="#63b8ff" d="M293.76,-180.98C303.77,-173.07 318.89,-161.11 330.93,-151.58"/>
<polygon fill="#63b8ff" stroke="#63b8ff" points="333.37,-154.12 339.04,-145.17 329.03,-148.63 333.37,-154.12"/>
<g id="a_edge6&#45;headlabel"><a xlink:href="dir_000079_000018.html" target="_top" xlink:title="2">
<text text-anchor="middle" x="332.31" y="-156.08" font-family="Helvetica,sans-Serif" font-size="10.00" fill="#63b8ff">2</text>
</a>
</g>
</g>
<!-- dir_e41b746b2bc627b26c4c637af42fb69a&#45;&gt;dir_aaf67126bd5deefc4d96704f76f22cc2 -->
<g id="edge7" class="edge">
<title>dir_e41b746b2bc627b26c4c637af42fb69a&#45;&gt;dir_aaf67126bd5deefc4d96704f76f22cc2</title>
<path fill="none" stroke="#63b8ff" d="M305.17,-180.98C327.77,-172.3 363.06,-158.75 388.75,-148.88"/>
<polygon fill="#63b8ff" stroke="#63b8ff" points="390.34,-152.02 398.42,-145.17 387.83,-145.49 390.34,-152.02"/>
<g id="a_edge7&#45;headlabel"><a xlink:href="dir_000079_000135.html" target="_top" xlink:title="1">
<text text-anchor="middle" x="388.01" y="-153.46" font-family="Helvetica,sans-Serif" font-size="10.00" fill="#63b8ff">1</text>
</a>
</g>
</g>
<!-- dir_e41b746b2bc627b26c4c637af42fb69a&#45;&gt;dir_c63ec87f2f7fd7fbd5b69a04f05a2815 -->
<g id="edge8" class="edge">
<title>dir_e41b746b2bc627b26c4c637af42fb69a&#45;&gt;dir_c63ec87f2f7fd7fbd5b69a04f05a2815</title>
<path fill="none" stroke="#63b8ff" d="M308.19,-186.93C352.49,-181.82 441.44,-168.8 460,-145 479,-120.63 437.52,-101.42 405.27,-90.76"/>
<polygon fill="#63b8ff" stroke="#63b8ff" points="406.22,-87.39 395.63,-87.73 404.12,-94.07 406.22,-87.39"/>
<g id="a_edge8&#45;headlabel"><a xlink:href="dir_000079_000133.html" target="_top" xlink:title="3">
<text text-anchor="middle" x="410.5" y="-83.26" font-family="Helvetica,sans-Serif" font-size="10.00" fill="#63b8ff">3</text>
</a>
</g>
</g>
<!-- dir_e41b746b2bc627b26c4c637af42fb69a&#45;&gt;dir_f555f996eeee1ebe901dc71e0c5de8ff -->
<g id="edge11" class="edge">
<title>dir_e41b746b2bc627b26c4c637af42fb69a&#45;&gt;dir_f555f996eeee1ebe901dc71e0c5de8ff</title>
<path fill="none" stroke="#63b8ff" d="M257.86,-188.08C206.64,-183.63 91.31,-165.3 47,-90 -8.95,5.09 82.18,-59.12 206.95,-34.89"/>
<polygon fill="#63b8ff" stroke="#63b8ff" points="207.71,-38.31 216.76,-32.81 206.26,-31.46 207.71,-38.31"/>
<g id="a_edge11&#45;headlabel"><a xlink:href="dir_000079_000122.html" target="_top" xlink:title="9">
<text text-anchor="middle" x="204.78" y="-39.33" font-family="Helvetica,sans-Serif" font-size="10.00" fill="#63b8ff">9</text>
</a>
</g>
</g>
<!-- dir_e975c0b35c1e73197e1608db31437f28 -->
<g id="node12" class="node">
<title>dir_e975c0b35c1e73197e1608db31437f28</title>
<g id="a_node12"><a xlink:href="dir_e975c0b35c1e73197e1608db31437f28.html" target="_top" xlink:title="builtin_formatter">
<polygon fill="#a2b4d6" stroke="#404040" points="287.5,-145 188.5,-145 188.5,-126 287.5,-126 287.5,-145"/>
<text text-anchor="middle" x="238" y="-133" font-family="Helvetica,sans-Serif" font-size="10.00">builtin_formatter</text>
</a>
</g>
</g>
<!-- dir_e41b746b2bc627b26c4c637af42fb69a&#45;&gt;dir_e975c0b35c1e73197e1608db31437f28 -->
<g id="edge10" class="edge">
<title>dir_e41b746b2bc627b26c4c637af42fb69a&#45;&gt;dir_e975c0b35c1e73197e1608db31437f28</title>
<path fill="none" stroke="#63b8ff" d="M275.57,-180.75C269.15,-173.18 259.69,-162.05 251.88,-152.84"/>
<polygon fill="#63b8ff" stroke="#63b8ff" points="254.43,-150.45 245.29,-145.09 249.1,-154.98 254.43,-150.45"/>
<g id="a_edge10&#45;headlabel"><a xlink:href="dir_000079_000029.html" target="_top" xlink:title="1">
<text text-anchor="middle" x="258.92" y="-148.85" font-family="Helvetica,sans-Serif" font-size="10.00" fill="#63b8ff">1</text>
</a>
</g>
</g>
<!-- dir_e6fc299be1ce7cfcb6bece793d7977d6 -->
<g id="node13" class="node">
<title>dir_e6fc299be1ce7cfcb6bece793d7977d6</title>
<g id="a_node13"><a xlink:href="dir_e6fc299be1ce7cfcb6bece793d7977d6.html" target="_top" xlink:title="concepts">
<polygon fill="#a2b4d6" stroke="#404040" points="299,-90 239,-90 239,-71 299,-71 299,-90"/>
<text text-anchor="middle" x="269" y="-78" font-family="Helvetica,sans-Serif" font-size="10.00">concepts</text>
</a>
</g>
</g>
<!-- dir_e41b746b2bc627b26c4c637af42fb69a&#45;&gt;dir_e6fc299be1ce7cfcb6bece793d7977d6 -->
<g id="edge9" class="edge">
<title>dir_e41b746b2bc627b26c4c637af42fb69a&#45;&gt;dir_e6fc299be1ce7cfcb6bece793d7977d6</title>
<path fill="none" stroke="#63b8ff" d="M287.66,-180.78C293.63,-168.47 302.57,-145.31 297,-126 294.13,-116.06 288.32,-106.2 282.72,-98.29"/>
<polygon fill="#63b8ff" stroke="#63b8ff" points="285.5,-96.16 276.67,-90.3 279.92,-100.39 285.5,-96.16"/>
<g id="a_edge9&#45;headlabel"><a xlink:href="dir_000079_000039.html" target="_top" xlink:title="14">
<text text-anchor="middle" x="289.93" y="-94.82" font-family="Helvetica,sans-Serif" font-size="10.00" fill="#63b8ff">14</text>
</a>
</g>
</g>
<!-- dir_e975c0b35c1e73197e1608db31437f28&#45;&gt;dir_0669efae56692bb73da75efb5ebbccdf -->
<g id="edge12" class="edge">
<title>dir_e975c0b35c1e73197e1608db31437f28&#45;&gt;dir_0669efae56692bb73da75efb5ebbccdf</title>
<path fill="none" stroke="#63b8ff" d="M213.26,-125.98C187.63,-117.16 147.37,-103.31 118.59,-93.41"/>
<polygon fill="#63b8ff" stroke="#63b8ff" points="119.53,-90.03 108.94,-90.08 117.25,-96.65 119.53,-90.03"/>
<g id="a_edge12&#45;headlabel"><a xlink:href="dir_000029_000082.html" target="_top" xlink:title="1">
<text text-anchor="middle" x="123.85" y="-86.01" font-family="Helvetica,sans-Serif" font-size="10.00" fill="#63b8ff">1</text>
</a>
</g>
</g>
<!-- dir_e975c0b35c1e73197e1608db31437f28&#45;&gt;dir_30ecaf38acae77be14fb9173f98f8612 -->
<g id="edge13" class="edge">
<title>dir_e975c0b35c1e73197e1608db31437f28&#45;&gt;dir_30ecaf38acae77be14fb9173f98f8612</title>
<path fill="none" stroke="#63b8ff" d="M273.35,-125.98C315.47,-115.84 385.25,-99.03 425.89,-89.23"/>
<polygon fill="#63b8ff" stroke="#63b8ff" points="426.91,-92.59 435.81,-86.85 425.27,-85.79 426.91,-92.59"/>
<g id="a_edge13&#45;headlabel"><a xlink:href="dir_000029_000180.html" target="_top" xlink:title="3">
<text text-anchor="middle" x="424.08" y="-93.69" font-family="Helvetica,sans-Serif" font-size="10.00" fill="#63b8ff">3</text>
</a>
</g>
</g>
<!-- dir_e975c0b35c1e73197e1608db31437f28&#45;&gt;dir_521de572ae4fe2915cc70a876c52f5b7 -->
<g id="edge14" class="edge">
<title>dir_e975c0b35c1e73197e1608db31437f28&#45;&gt;dir_521de572ae4fe2915cc70a876c52f5b7</title>
<path fill="none" stroke="#63b8ff" d="M232.27,-125.66C220.68,-107.77 194.25,-67 179.14,-43.69"/>
<polygon fill="#63b8ff" stroke="#63b8ff" points="181.99,-41.65 173.61,-35.16 176.11,-45.45 181.99,-41.65"/>
<g id="a_edge14&#45;headlabel"><a xlink:href="dir_000029_000046.html" target="_top" xlink:title="14">
<text text-anchor="middle" x="186.33" y="-40.62" font-family="Helvetica,sans-Serif" font-size="10.00" fill="#63b8ff">14</text>
</a>
</g>
</g>
<!-- dir_e975c0b35c1e73197e1608db31437f28&#45;&gt;dir_60d1624911c2c9f7b6f38e44ec895aaa -->
<g id="edge15" class="edge">
<title>dir_e975c0b35c1e73197e1608db31437f28&#45;&gt;dir_60d1624911c2c9f7b6f38e44ec895aaa</title>
<path fill="none" stroke="#63b8ff" d="M224.02,-125.98C210.53,-117.77 189.87,-105.18 173.96,-95.49"/>
<polygon fill="#63b8ff" stroke="#63b8ff" points="175.59,-92.38 165.23,-90.17 171.95,-98.36 175.59,-92.38"/>
<g id="a_edge15&#45;headlabel"><a xlink:href="dir_000029_000117.html" target="_top" xlink:title="3">
<text text-anchor="middle" x="180.14" y="-89.33" font-family="Helvetica,sans-Serif" font-size="10.00" fill="#63b8ff">3</text>
</a>
</g>
</g>
<!-- dir_e975c0b35c1e73197e1608db31437f28&#45;&gt;dir_942cfae36a92b6b1c4b510e99e852d40 -->
<g id="edge16" class="edge">
<title>dir_e975c0b35c1e73197e1608db31437f28&#45;&gt;dir_942cfae36a92b6b1c4b510e99e852d40</title>
<path fill="none" stroke="#63b8ff" d="M260.95,-125.91C276.76,-118.76 296.87,-106.98 308,-90 316.7,-76.73 318.82,-58.61 318.99,-45.12"/>
<polygon fill="#63b8ff" stroke="#63b8ff" points="322.49,-45.01 318.77,-35.09 315.49,-45.17 322.49,-45.01"/>
<g id="a_edge16&#45;headlabel"><a xlink:href="dir_000029_000189.html" target="_top" xlink:title="1">
<text text-anchor="middle" x="325.4" y="-46.05" font-family="Helvetica,sans-Serif" font-size="10.00" fill="#63b8ff">1</text>
</a>
</g>
</g>
<!-- dir_e975c0b35c1e73197e1608db31437f28&#45;&gt;dir_c63ec87f2f7fd7fbd5b69a04f05a2815 -->
<g id="edge17" class="edge">
<title>dir_e975c0b35c1e73197e1608db31437f28&#45;&gt;dir_c63ec87f2f7fd7fbd5b69a04f05a2815</title>
<path fill="none" stroke="#63b8ff" d="M259.53,-125.98C281.47,-117.3 315.74,-103.75 340.69,-93.88"/>
<polygon fill="#63b8ff" stroke="#63b8ff" points="342.07,-97.1 350.08,-90.17 339.49,-90.59 342.07,-97.1"/>
<g id="a_edge17&#45;headlabel"><a xlink:href="dir_000029_000133.html" target="_top" xlink:title="1">
<text text-anchor="middle" x="339.77" y="-98.57" font-family="Helvetica,sans-Serif" font-size="10.00" fill="#63b8ff">1</text>
</a>
</g>
</g>
<!-- dir_e975c0b35c1e73197e1608db31437f28&#45;&gt;dir_f555f996eeee1ebe901dc71e0c5de8ff -->
<g id="edge19" class="edge">
<title>dir_e975c0b35c1e73197e1608db31437f28&#45;&gt;dir_f555f996eeee1ebe901dc71e0c5de8ff</title>
<path fill="none" stroke="#63b8ff" d="M235.77,-125.7C232.63,-112.2 227.55,-85.6 230,-63 230.64,-57.1 231.84,-50.77 233.12,-45.05"/>
<polygon fill="#63b8ff" stroke="#63b8ff" points="236.58,-45.66 235.56,-35.12 229.78,-43.99 236.58,-45.66"/>
<g id="a_edge19&#45;headlabel"><a xlink:href="dir_000029_000122.html" target="_top" xlink:title="4">
<text text-anchor="middle" x="238.48" y="-47.33" font-family="Helvetica,sans-Serif" font-size="10.00" fill="#63b8ff">4</text>
</a>
</g>
</g>
<!-- dir_e975c0b35c1e73197e1608db31437f28&#45;&gt;dir_e6fc299be1ce7cfcb6bece793d7977d6 -->
<g id="edge18" class="edge">
<title>dir_e975c0b35c1e73197e1608db31437f28&#45;&gt;dir_e6fc299be1ce7cfcb6bece793d7977d6</title>
<path fill="none" stroke="#63b8ff" d="M243.12,-125.75C247.36,-118.49 253.53,-107.95 258.78,-98.98"/>
<polygon fill="#63b8ff" stroke="#63b8ff" points="261.95,-100.49 263.98,-90.09 255.91,-96.95 261.95,-100.49"/>
<g id="a_edge18&#45;headlabel"><a xlink:href="dir_000029_000039.html" target="_top" xlink:title="2">
<text text-anchor="middle" x="262.58" y="-102.52" font-family="Helvetica,sans-Serif" font-size="10.00" fill="#63b8ff">2</text>
</a>
</g>
</g>
<!-- dir_e6fc299be1ce7cfcb6bece793d7977d6&#45;&gt;dir_521de572ae4fe2915cc70a876c52f5b7 -->
<g id="edge20" class="edge">
<title>dir_e6fc299be1ce7cfcb6bece793d7977d6&#45;&gt;dir_521de572ae4fe2915cc70a876c52f5b7</title>
<path fill="none" stroke="#63b8ff" d="M252.77,-70.98C236.82,-62.61 212.22,-49.7 193.62,-39.95"/>
<polygon fill="#63b8ff" stroke="#63b8ff" points="195,-36.72 184.52,-35.17 191.75,-42.92 195,-36.72"/>
<g id="a_edge20&#45;headlabel"><a xlink:href="dir_000039_000046.html" target="_top" xlink:title="2">
<text text-anchor="middle" x="199.51" y="-33.37" font-family="Helvetica,sans-Serif" font-size="10.00" fill="#63b8ff">2</text>
</a>
</g>
</g>
<!-- dir_e6fc299be1ce7cfcb6bece793d7977d6&#45;&gt;dir_942cfae36a92b6b1c4b510e99e852d40 -->
<g id="edge21" class="edge">
<title>dir_e6fc299be1ce7cfcb6bece793d7977d6&#45;&gt;dir_942cfae36a92b6b1c4b510e99e852d40</title>
<path fill="none" stroke="#63b8ff" d="M277.09,-70.75C284.16,-63.11 294.59,-51.82 303.15,-42.56"/>
<polygon fill="#63b8ff" stroke="#63b8ff" points="305.84,-44.81 310.06,-35.09 300.7,-40.06 305.84,-44.81"/>
<g id="a_edge21&#45;headlabel"><a xlink:href="dir_000039_000189.html" target="_top" xlink:title="1">
<text text-anchor="middle" x="305.49" y="-46.87" font-family="Helvetica,sans-Serif" font-size="10.00" fill="#63b8ff">1</text>
</a>
</g>
</g>
<!-- dir_e6fc299be1ce7cfcb6bece793d7977d6&#45;&gt;dir_f555f996eeee1ebe901dc71e0c5de8ff -->
<g id="edge22" class="edge">
<title>dir_e6fc299be1ce7cfcb6bece793d7977d6&#45;&gt;dir_f555f996eeee1ebe901dc71e0c5de8ff</title>
<path fill="none" stroke="#63b8ff" d="M263.88,-70.75C259.64,-63.49 253.47,-52.95 248.22,-43.98"/>
<polygon fill="#63b8ff" stroke="#63b8ff" points="251.09,-41.95 243.02,-35.09 245.05,-45.49 251.09,-41.95"/>
<g id="a_edge22&#45;headlabel"><a xlink:href="dir_000039_000122.html" target="_top" xlink:title="1">
<text text-anchor="middle" x="255.36" y="-41.12" font-family="Helvetica,sans-Serif" font-size="10.00" fill="#63b8ff">1</text>
</a>
</g>
</g>
</g>
</svg>
