<?xml version="1.0" encoding="UTF-8" standalone="no"?>
<!DOCTYPE svg PUBLIC "-//W3C//DTD SVG 1.1//EN"
 "http://www.w3.org/Graphics/SVG/1.1/DTD/svg11.dtd">
<!-- Generated by graphviz version 2.43.0 (0)
 -->
<!-- Title: libs/di/include/di/container/associative Pages: 1 -->
<svg width="590pt" height="133pt"
 viewBox="0.00 0.00 590.00 133.00" xmlns="http://www.w3.org/2000/svg" xmlns:xlink="http://www.w3.org/1999/xlink">
<g id="graph0" class="graph" transform="scale(1 1) rotate(0) translate(4 129)">
<title>libs/di/include/di/container/associative</title>
<g id="clust1" class="cluster">
<title>clusterdir_521de572ae4fe2915cc70a876c52f5b7</title>
<g id="a_clust1"><a xlink:href="dir_521de572ae4fe2915cc70a876c52f5b7.html" target="_top" xlink:title="container">
<polygon fill="#edf0f7" stroke="#7f7f7f" stroke-dasharray="5,2" points="8,-8 8,-117 356,-117 356,-8 8,-8"/>
<text text-anchor="middle" x="182" y="-105" font-family="Helvetica,sans-Serif" font-size="10.00">container</text>
</a>
</g>
</g>
<!-- dir_093cb0cf41c3d9bb25543a4e1702223c -->
<g id="node1" class="node">
<title>dir_093cb0cf41c3d9bb25543a4e1702223c</title>
<g id="a_node1"><a xlink:href="dir_093cb0cf41c3d9bb25543a4e1702223c.html" target="_top" xlink:title="iterator">
<polygon fill="#a2b4d6" stroke="#404040" points="69.5,-35 16.5,-35 16.5,-16 69.5,-16 69.5,-35"/>
<text text-anchor="middle" x="43" y="-23" font-family="Helvetica,sans-Serif" font-size="10.00">iterator</text>
</a>
</g>
</g>
<!-- dir_838362f34bc8d8c3545343b0166aa672 -->
<g id="node2" class="node">
<title>dir_838362f34bc8d8c3545343b0166aa672</title>
<g id="a_node2"><a xlink:href="dir_838362f34bc8d8c3545343b0166aa672.html" target="_top" xlink:title="concepts">
<polygon fill="#a2b4d6" stroke="#404040" points="148,-35 88,-35 88,-16 148,-16 148,-35"/>
<text text-anchor="middle" x="118" y="-23" font-family="Helvetica,sans-Serif" font-size="10.00">concepts</text>
</a>
</g>
</g>
<!-- dir_9f8d33513cfc97e5f9ea6bf2671e5446 -->
<g id="node3" class="node">
<title>dir_9f8d33513cfc97e5f9ea6bf2671e5446</title>
<g id="a_node3"><a xlink:href="dir_9f8d33513cfc97e5f9ea6bf2671e5446.html" target="_top" xlink:title="meta">
<polygon fill="#a2b4d6" stroke="#404040" points="208,-35 166,-35 166,-16 208,-16 208,-35"/>
<text text-anchor="middle" x="187" y="-23" font-family="Helvetica,sans-Serif" font-size="10.00">meta</text>
</a>
</g>
</g>
<!-- dir_a7b99681c56fba2abd28393cbbc3f22c -->
<g id="node4" class="node">
<title>dir_a7b99681c56fba2abd28393cbbc3f22c</title>
<g id="a_node4"><a xlink:href="dir_a7b99681c56fba2abd28393cbbc3f22c.html" target="_top" xlink:title="types">
<polygon fill="#a2b4d6" stroke="#404040" points="270,-35 226,-35 226,-16 270,-16 270,-35"/>
<text text-anchor="middle" x="248" y="-23" font-family="Helvetica,sans-Serif" font-size="10.00">types</text>
</a>
</g>
</g>
<!-- dir_dd6c062645334da7e8440ac2e54ccb1d -->
<g id="node5" class="node">
<title>dir_dd6c062645334da7e8440ac2e54ccb1d</title>
<g id="a_node5"><a xlink:href="dir_dd6c062645334da7e8440ac2e54ccb1d.html" target="_top" xlink:title="interface">
<polygon fill="#a2b4d6" stroke="#404040" points="348,-35 288,-35 288,-16 348,-16 348,-35"/>
<text text-anchor="middle" x="318" y="-23" font-family="Helvetica,sans-Serif" font-size="10.00">interface</text>
</a>
</g>
</g>
<!-- dir_8ac75f3e92965d7b87f5a77c8eb4a6b1 -->
<g id="node6" class="node">
<title>dir_8ac75f3e92965d7b87f5a77c8eb4a6b1</title>
<g id="a_node6"><a xlink:href="dir_8ac75f3e92965d7b87f5a77c8eb4a6b1.html" target="_top" xlink:title="associative">
<polygon fill="#edf0f7" stroke="#404040" stroke-width="2" points="348,-90 276,-90 276,-71 348,-71 348,-90"/>
<text text-anchor="middle" x="312" y="-78" font-family="Helvetica,sans-Serif" font-size="10.00">associative</text>
</a>
</g>
</g>
<!-- dir_8ac75f3e92965d7b87f5a77c8eb4a6b1&#45;&gt;dir_093cb0cf41c3d9bb25543a4e1702223c -->
<g id="edge1" class="edge">
<title>dir_8ac75f3e92965d7b87f5a77c8eb4a6b1&#45;&gt;dir_093cb0cf41c3d9bb25543a4e1702223c</title>
<path fill="none" stroke="#63b8ff" d="M275.98,-73.12C232.08,-65.23 155.42,-51.11 79.87,-35.11"/>
<polygon fill="#63b8ff" stroke="#63b8ff" points="80.22,-31.6 69.71,-32.94 78.76,-38.45 80.22,-31.6"/>
<g id="a_edge1&#45;headlabel"><a xlink:href="dir_000019_000108.html" target="_top" xlink:title="3">
<text text-anchor="middle" x="84.32" y="-27.07" font-family="Helvetica,sans-Serif" font-size="10.00" fill="#63b8ff">3</text>
</a>
</g>
</g>
<!-- dir_8ac75f3e92965d7b87f5a77c8eb4a6b1&#45;&gt;dir_838362f34bc8d8c3545343b0166aa672 -->
<g id="edge4" class="edge">
<title>dir_8ac75f3e92965d7b87f5a77c8eb4a6b1&#45;&gt;dir_838362f34bc8d8c3545343b0166aa672</title>
<path fill="none" stroke="#63b8ff" d="M280.83,-70.98C247.45,-61.86 194.36,-47.36 157.94,-37.41"/>
<polygon fill="#63b8ff" stroke="#63b8ff" points="158.7,-33.99 148.13,-34.73 156.86,-40.74 158.7,-33.99"/>
<g id="a_edge4&#45;headlabel"><a xlink:href="dir_000019_000037.html" target="_top" xlink:title="3">
<text text-anchor="middle" x="162.92" y="-29.7" font-family="Helvetica,sans-Serif" font-size="10.00" fill="#63b8ff">3</text>
</a>
</g>
</g>
<!-- dir_8ac75f3e92965d7b87f5a77c8eb4a6b1&#45;&gt;dir_9f8d33513cfc97e5f9ea6bf2671e5446 -->
<g id="edge6" class="edge">
<title>dir_8ac75f3e92965d7b87f5a77c8eb4a6b1&#45;&gt;dir_9f8d33513cfc97e5f9ea6bf2671e5446</title>
<path fill="none" stroke="#63b8ff" d="M291.92,-70.98C271.63,-62.38 240.04,-48.99 216.83,-39.15"/>
<polygon fill="#63b8ff" stroke="#63b8ff" points="218.02,-35.85 207.45,-35.17 215.29,-42.3 218.02,-35.85"/>
<g id="a_edge6&#45;headlabel"><a xlink:href="dir_000019_000120.html" target="_top" xlink:title="3">
<text text-anchor="middle" x="222.44" y="-32.14" font-family="Helvetica,sans-Serif" font-size="10.00" fill="#63b8ff">3</text>
</a>
</g>
</g>
<!-- dir_8ac75f3e92965d7b87f5a77c8eb4a6b1&#45;&gt;dir_a7b99681c56fba2abd28393cbbc3f22c -->
<g id="edge7" class="edge">
<title>dir_8ac75f3e92965d7b87f5a77c8eb4a6b1&#45;&gt;dir_a7b99681c56fba2abd28393cbbc3f22c</title>
<path fill="none" stroke="#63b8ff" d="M301.72,-70.98C292.16,-63.07 277.72,-51.11 266.22,-41.58"/>
<polygon fill="#63b8ff" stroke="#63b8ff" points="268.4,-38.85 258.47,-35.17 263.94,-44.24 268.4,-38.85"/>
<g id="a_edge7&#45;headlabel"><a xlink:href="dir_000019_000178.html" target="_top" xlink:title="3">
<text text-anchor="middle" x="272.98" y="-36.46" font-family="Helvetica,sans-Serif" font-size="10.00" fill="#63b8ff">3</text>
</a>
</g>
</g>
<!-- dir_8ac75f3e92965d7b87f5a77c8eb4a6b1&#45;&gt;dir_dd6c062645334da7e8440ac2e54ccb1d -->
<g id="edge8" class="edge">
<title>dir_8ac75f3e92965d7b87f5a77c8eb4a6b1&#45;&gt;dir_dd6c062645334da7e8440ac2e54ccb1d</title>
<path fill="none" stroke="#63b8ff" d="M312.99,-70.75C313.78,-63.8 314.9,-53.85 315.89,-45.13"/>
<polygon fill="#63b8ff" stroke="#63b8ff" points="319.38,-45.42 317.03,-35.09 312.42,-44.63 319.38,-45.42"/>
<g id="a_edge8&#45;headlabel"><a xlink:href="dir_000019_000095.html" target="_top" xlink:title="3">
<text text-anchor="middle" x="321.8" y="-46.81" font-family="Helvetica,sans-Serif" font-size="10.00" fill="#63b8ff">3</text>
</a>
</g>
</g>
<!-- dir_4535887b2cdca47e625f259d07db0112 -->
<g id="node7" class="node">
<title>dir_4535887b2cdca47e625f259d07db0112</title>
<g id="a_node7"><a xlink:href="dir_4535887b2cdca47e625f259d07db0112.html" target="_top" xlink:title="util">
<polygon fill="#edf0f7" stroke="#7f7f7f" points="398,-35 366,-35 366,-16 398,-16 398,-35"/>
<text text-anchor="middle" x="382" y="-23" font-family="Helvetica,sans-Serif" font-size="10.00">util</text>
</a>
</g>
</g>
<!-- dir_8ac75f3e92965d7b87f5a77c8eb4a6b1&#45;&gt;dir_4535887b2cdca47e625f259d07db0112 -->
<g id="edge2" class="edge">
<title>dir_8ac75f3e92965d7b87f5a77c8eb4a6b1&#45;&gt;dir_4535887b2cdca47e625f259d07db0112</title>
<path fill="none" stroke="#63b8ff" d="M323.25,-70.98C333.8,-63 349.8,-50.88 362.44,-41.31"/>
<polygon fill="#63b8ff" stroke="#63b8ff" points="364.69,-44 370.55,-35.17 360.46,-38.42 364.69,-44"/>
<g id="a_edge2&#45;headlabel"><a xlink:href="dir_000019_000185.html" target="_top" xlink:title="2">
<text text-anchor="middle" x="363.54" y="-45.93" font-family="Helvetica,sans-Serif" font-size="10.00" fill="#63b8ff">2</text>
</a>
</g>
</g>
<!-- dir_60d1624911c2c9f7b6f38e44ec895aaa -->
<g id="node8" class="node">
<title>dir_60d1624911c2c9f7b6f38e44ec895aaa</title>
<g id="a_node8"><a xlink:href="dir_60d1624911c2c9f7b6f38e44ec895aaa.html" target="_top" xlink:title="math">
<polygon fill="#edf0f7" stroke="red" stroke-dasharray="5,2" points="458,-35 416,-35 416,-16 458,-16 458,-35"/>
<text text-anchor="middle" x="437" y="-23" font-family="Helvetica,sans-Serif" font-size="10.00">math</text>
</a>
</g>
</g>
<!-- dir_8ac75f3e92965d7b87f5a77c8eb4a6b1&#45;&gt;dir_60d1624911c2c9f7b6f38e44ec895aaa -->
<g id="edge3" class="edge">
<title>dir_8ac75f3e92965d7b87f5a77c8eb4a6b1&#45;&gt;dir_60d1624911c2c9f7b6f38e44ec895aaa</title>
<path fill="none" stroke="#63b8ff" d="M332.08,-70.98C352.37,-62.38 383.96,-48.99 407.17,-39.15"/>
<polygon fill="#63b8ff" stroke="#63b8ff" points="408.71,-42.3 416.55,-35.17 405.98,-35.85 408.71,-42.3"/>
<g id="a_edge3&#45;headlabel"><a xlink:href="dir_000019_000117.html" target="_top" xlink:title="3">
<text text-anchor="middle" x="406.51" y="-43.81" font-family="Helvetica,sans-Serif" font-size="10.00" fill="#63b8ff">3</text>
</a>
</g>
</g>
<!-- dir_942cfae36a92b6b1c4b510e99e852d40 -->
<g id="node9" class="node">
<title>dir_942cfae36a92b6b1c4b510e99e852d40</title>
<g id="a_node9"><a xlink:href="dir_942cfae36a92b6b1c4b510e99e852d40.html" target="_top" xlink:title="vocab">
<polygon fill="#edf0f7" stroke="red" stroke-dasharray="5,2" points="522,-35 476,-35 476,-16 522,-16 522,-35"/>
<text text-anchor="middle" x="499" y="-23" font-family="Helvetica,sans-Serif" font-size="10.00">vocab</text>
</a>
</g>
</g>
<!-- dir_8ac75f3e92965d7b87f5a77c8eb4a6b1&#45;&gt;dir_942cfae36a92b6b1c4b510e99e852d40 -->
<g id="edge5" class="edge">
<title>dir_8ac75f3e92965d7b87f5a77c8eb4a6b1&#45;&gt;dir_942cfae36a92b6b1c4b510e99e852d40</title>
<path fill="none" stroke="#63b8ff" d="M342.04,-70.98C375.97,-61.37 430.99,-45.78 466.06,-35.84"/>
<polygon fill="#63b8ff" stroke="#63b8ff" points="467.16,-39.16 475.82,-33.07 465.25,-32.43 467.16,-39.16"/>
<g id="a_edge5&#45;headlabel"><a xlink:href="dir_000019_000189.html" target="_top" xlink:title="6">
<text text-anchor="middle" x="464.47" y="-40.38" font-family="Helvetica,sans-Serif" font-size="10.00" fill="#63b8ff">6</text>
</a>
</g>
</g>
<!-- dir_f555f996eeee1ebe901dc71e0c5de8ff -->
<g id="node10" class="node">
<title>dir_f555f996eeee1ebe901dc71e0c5de8ff</title>
<g id="a_node10"><a xlink:href="dir_f555f996eeee1ebe901dc71e0c5de8ff.html" target="_top" xlink:title="meta">
<polygon fill="#edf0f7" stroke="#7f7f7f" points="582,-35 540,-35 540,-16 582,-16 582,-35"/>
<text text-anchor="middle" x="561" y="-23" font-family="Helvetica,sans-Serif" font-size="10.00">meta</text>
</a>
</g>
</g>
<!-- dir_8ac75f3e92965d7b87f5a77c8eb4a6b1&#45;&gt;dir_f555f996eeee1ebe901dc71e0c5de8ff -->
<g id="edge9" class="edge">
<title>dir_8ac75f3e92965d7b87f5a77c8eb4a6b1&#45;&gt;dir_f555f996eeee1ebe901dc71e0c5de8ff</title>
<path fill="none" stroke="#63b8ff" d="M348.23,-73.01C389.85,-65.36 460.4,-51.81 529.94,-35.11"/>
<polygon fill="#63b8ff" stroke="#63b8ff" points="530.85,-38.49 539.75,-32.74 529.2,-31.69 530.85,-38.49"/>
<g id="a_edge9&#45;headlabel"><a xlink:href="dir_000019_000122.html" target="_top" xlink:title="1">
<text text-anchor="middle" x="528.03" y="-39.6" font-family="Helvetica,sans-Serif" font-size="10.00" fill="#63b8ff">1</text>
</a>
</g>
</g>
</g>
</svg>
