<?xml version="1.0" encoding="UTF-8" standalone="no"?>
<!DOCTYPE svg PUBLIC "-//W3C//DTD SVG 1.1//EN"
 "http://www.w3.org/Graphics/SVG/1.1/DTD/svg11.dtd">
<!-- Generated by graphviz version 2.43.0 (0)
 -->
<!-- Title: libs/ccpp/getopt Pages: 1 -->
<svg width="124pt" height="133pt"
 viewBox="0.00 0.00 123.50 133.00" xmlns="http://www.w3.org/2000/svg" xmlns:xlink="http://www.w3.org/1999/xlink">
<g id="graph0" class="graph" transform="scale(1 1) rotate(0) translate(4 129)">
<title>libs/ccpp/getopt</title>
<g id="clust1" class="cluster">
<title>clusterdir_048287677304621c659962c2a2c2732d</title>
<g id="a_clust1"><a xlink:href="dir_048287677304621c659962c2a2c2732d.html" target="_top" xlink:title="ccpp">
<polygon fill="#edf0f7" stroke="#7f7f7f" stroke-dasharray="5,2" points="8,-8 8,-117 76,-117 76,-8 8,-8"/>
<text text-anchor="middle" x="42" y="-105" font-family="Helvetica,sans-Serif" font-size="10.00">ccpp</text>
</a>
</g>
</g>
<!-- dir_4a059f36db6300b3f1d6a7b4bd94b473 -->
<g id="node1" class="node">
<title>dir_4a059f36db6300b3f1d6a7b4bd94b473</title>
<g id="a_node1"><a xlink:href="dir_4a059f36db6300b3f1d6a7b4bd94b473.html" target="_top" xlink:title="include">
<polygon fill="#a2b4d6" stroke="red" points="68,-35 16,-35 16,-16 68,-16 68,-35"/>
<text text-anchor="middle" x="42" y="-23" font-family="Helvetica,sans-Serif" font-size="10.00">include</text>
</a>
</g>
</g>
<!-- dir_5134f736a7dc8e5d5daa7facadb46105 -->
<g id="node2" class="node">
<title>dir_5134f736a7dc8e5d5daa7facadb46105</title>
<g id="a_node2"><a xlink:href="dir_5134f736a7dc8e5d5daa7facadb46105.html" target="_top" xlink:title="getopt">
<polygon fill="#edf0f7" stroke="#404040" stroke-width="2" points="67,-90 19,-90 19,-71 67,-71 67,-90"/>
<text text-anchor="middle" x="43" y="-78" font-family="Helvetica,sans-Serif" font-size="10.00">getopt</text>
</a>
</g>
</g>
<!-- dir_5134f736a7dc8e5d5daa7facadb46105&#45;&gt;dir_4a059f36db6300b3f1d6a7b4bd94b473 -->
<g id="edge1" class="edge">
<title>dir_5134f736a7dc8e5d5daa7facadb46105&#45;&gt;dir_4a059f36db6300b3f1d6a7b4bd94b473</title>
<path fill="none" stroke="#63b8ff" d="M42.83,-70.75C42.7,-63.8 42.52,-53.85 42.35,-45.13"/>
<polygon fill="#63b8ff" stroke="#63b8ff" points="45.85,-45.02 42.16,-35.09 38.85,-45.15 45.85,-45.02"/>
<g id="a_edge1&#45;headlabel"><a xlink:href="dir_000084_000091.html" target="_top" xlink:title="7">
<text text-anchor="middle" x="48.76" y="-46.06" font-family="Helvetica,sans-Serif" font-size="10.00" fill="#63b8ff">7</text>
</a>
</g>
</g>
<!-- dir_984cd133b143ec7cf21a4bdcb401bfa5 -->
<g id="node3" class="node">
<title>dir_984cd133b143ec7cf21a4bdcb401bfa5</title>
<g id="a_node3"><a xlink:href="dir_984cd133b143ec7cf21a4bdcb401bfa5.html" target="_top" xlink:title="di">
<polygon fill="#edf0f7" stroke="red" stroke-dasharray="5,2" points="115.5,-35 86.5,-35 86.5,-16 115.5,-16 115.5,-35"/>
<text text-anchor="middle" x="101" y="-23" font-family="Helvetica,sans-Serif" font-size="10.00">di</text>
</a>
</g>
</g>
<!-- dir_5134f736a7dc8e5d5daa7facadb46105&#45;&gt;dir_984cd133b143ec7cf21a4bdcb401bfa5 -->
<g id="edge2" class="edge">
<title>dir_5134f736a7dc8e5d5daa7facadb46105&#45;&gt;dir_984cd133b143ec7cf21a4bdcb401bfa5</title>
<path fill="none" stroke="#63b8ff" d="M52.32,-70.98C60.81,-63.23 73.56,-51.58 83.88,-42.14"/>
<polygon fill="#63b8ff" stroke="#63b8ff" points="86.49,-44.5 91.51,-35.17 81.77,-39.33 86.49,-44.5"/>
<g id="a_edge2&#45;headlabel"><a xlink:href="dir_000084_000058.html" target="_top" xlink:title="3">
<text text-anchor="middle" x="85.75" y="-46.52" font-family="Helvetica,sans-Serif" font-size="10.00" fill="#63b8ff">3</text>
</a>
</g>
</g>
</g>
</svg>
