<?xml version="1.0" encoding="UTF-8" standalone="no"?>
<!DOCTYPE svg PUBLIC "-//W3C//DTD SVG 1.1//EN"
 "http://www.w3.org/Graphics/SVG/1.1/DTD/svg11.dtd">
<!-- Generated by graphviz version 2.43.0 (0)
 -->
<!-- Title: iris/boot Pages: 1 -->
<svg width="128pt" height="133pt"
 viewBox="0.00 0.00 128.00 133.00" xmlns="http://www.w3.org/2000/svg" xmlns:xlink="http://www.w3.org/1999/xlink">
<g id="graph0" class="graph" transform="scale(1 1) rotate(0) translate(4 129)">
<title>iris/boot</title>
<g id="clust1" class="cluster">
<title>clusterdir_2605f0c6ea8f9a17a384edc9a2df15f4</title>
<g id="a_clust1"><a xlink:href="dir_2605f0c6ea8f9a17a384edc9a2df15f4.html" target="_top" xlink:title="iris">
<polygon fill="#edf0f7" stroke="#404040" stroke-dasharray="5,2" points="8,-8 8,-117 76,-117 76,-8 8,-8"/>
<text text-anchor="middle" x="42" y="-105" font-family="Helvetica,sans-Serif" font-size="10.00">iris</text>
</a>
</g>
</g>
<!-- dir_29a765eed241630f2929477fec556e75 -->
<g id="node1" class="node">
<title>dir_29a765eed241630f2929477fec556e75</title>
<g id="a_node1"><a xlink:href="dir_29a765eed241630f2929477fec556e75.html" target="_top" xlink:title="include">
<polygon fill="#a2b4d6" stroke="red" points="68,-35 16,-35 16,-16 68,-16 68,-35"/>
<text text-anchor="middle" x="42" y="-23" font-family="Helvetica,sans-Serif" font-size="10.00">include</text>
</a>
</g>
</g>
<!-- dir_137ec6a6d255f62d8ed043aa6445439f -->
<g id="node2" class="node">
<title>dir_137ec6a6d255f62d8ed043aa6445439f</title>
<g id="a_node2"><a xlink:href="dir_137ec6a6d255f62d8ed043aa6445439f.html" target="_top" xlink:title="boot">
<polygon fill="#edf0f7" stroke="#404040" stroke-width="2" points="64,-90 26,-90 26,-71 64,-71 64,-90"/>
<text text-anchor="middle" x="45" y="-78" font-family="Helvetica,sans-Serif" font-size="10.00">boot</text>
</a>
</g>
</g>
<!-- dir_137ec6a6d255f62d8ed043aa6445439f&#45;&gt;dir_29a765eed241630f2929477fec556e75 -->
<g id="edge1" class="edge">
<title>dir_137ec6a6d255f62d8ed043aa6445439f&#45;&gt;dir_29a765eed241630f2929477fec556e75</title>
<path fill="none" stroke="#63b8ff" d="M44.5,-70.75C44.11,-63.8 43.55,-53.85 43.05,-45.13"/>
<polygon fill="#63b8ff" stroke="#63b8ff" points="46.55,-44.88 42.49,-35.09 39.56,-45.27 46.55,-44.88"/>
<g id="a_edge1&#45;headlabel"><a xlink:href="dir_000027_000090.html" target="_top" xlink:title="17">
<text text-anchor="middle" x="49.58" y="-45.8" font-family="Helvetica,sans-Serif" font-size="10.00" fill="#63b8ff">17</text>
</a>
</g>
</g>
<!-- dir_6719ab1f1f7655efc2fa43f7eb574fd1 -->
<g id="node3" class="node">
<title>dir_6719ab1f1f7655efc2fa43f7eb574fd1</title>
<g id="a_node3"><a xlink:href="dir_6719ab1f1f7655efc2fa43f7eb574fd1.html" target="_top" xlink:title="libs">
<polygon fill="#edf0f7" stroke="red" points="120,-35 86,-35 86,-16 120,-16 120,-35"/>
<text text-anchor="middle" x="103" y="-23" font-family="Helvetica,sans-Serif" font-size="10.00">libs</text>
</a>
</g>
</g>
<!-- dir_137ec6a6d255f62d8ed043aa6445439f&#45;&gt;dir_6719ab1f1f7655efc2fa43f7eb574fd1 -->
<g id="edge2" class="edge">
<title>dir_137ec6a6d255f62d8ed043aa6445439f&#45;&gt;dir_6719ab1f1f7655efc2fa43f7eb574fd1</title>
<path fill="none" stroke="#63b8ff" d="M54.32,-70.98C62.81,-63.23 75.56,-51.58 85.88,-42.14"/>
<polygon fill="#63b8ff" stroke="#63b8ff" points="88.49,-44.5 93.51,-35.17 83.77,-39.33 88.49,-44.5"/>
<g id="a_edge2&#45;headlabel"><a xlink:href="dir_000027_000109.html" target="_top" xlink:title="2">
<text text-anchor="middle" x="87.75" y="-46.52" font-family="Helvetica,sans-Serif" font-size="10.00" fill="#63b8ff">2</text>
</a>
</g>
</g>
</g>
</svg>
