<?xml version="1.0" encoding="UTF-8" standalone="no"?>
<!DOCTYPE svg PUBLIC "-//W3C//DTD SVG 1.1//EN"
 "http://www.w3.org/Graphics/SVG/1.1/DTD/svg11.dtd">
<!-- Generated by graphviz version 2.43.0 (0)
 -->
<!-- Title: libs/dius/include/dius Pages: 1 -->
<svg width="690pt" height="182pt"
 viewBox="0.00 0.00 689.99 181.58" xmlns="http://www.w3.org/2000/svg" xmlns:xlink="http://www.w3.org/1999/xlink">
<g id="graph0" class="graph" transform="scale(1 1) rotate(0) translate(4 177.58)">
<title>libs/dius/include/dius</title>
<g id="clust1" class="cluster">
<title>clusterdir_6ac4aa95e4478b160428441746083760</title>
<g id="a_clust1"><a xlink:href="dir_6ac4aa95e4478b160428441746083760.html" target="_top" xlink:title="include">
<polygon fill="#edf0f7" stroke="#7f7f7f" stroke-dasharray="5,2" points="8,-40.58 8,-165.58 457,-165.58 457,-40.58 8,-40.58"/>
<text text-anchor="middle" x="232.5" y="-153.58" font-family="Helvetica,sans-Serif" font-size="10.00">include</text>
</a>
</g>
</g>
<g id="clust2" class="cluster">
<title>clusterdir_2992e835a4b361d9b2ca5047c35dfcd3</title>
<g id="a_clust2"><a xlink:href="dir_2992e835a4b361d9b2ca5047c35dfcd3.html" target="_top">
<polygon fill="#edf0f7" stroke="#404040" stroke-width="2" points="16,-48.58 16,-138.58 449,-138.58 449,-48.58 16,-48.58"/>
</a>
</g>
</g>
<!-- dir_2992e835a4b361d9b2ca5047c35dfcd3 -->
<g id="node1" class="node">
<title>dir_2992e835a4b361d9b2ca5047c35dfcd3</title>
<text text-anchor="middle" x="241" y="-118.58" font-family="Helvetica,sans-Serif" font-size="10.00">dius</text>
</g>
<!-- dir_984cd133b143ec7cf21a4bdcb401bfa5 -->
<g id="node10" class="node">
<title>dir_984cd133b143ec7cf21a4bdcb401bfa5</title>
<g id="a_node10"><a xlink:href="dir_984cd133b143ec7cf21a4bdcb401bfa5.html" target="_top" xlink:title="di">
<polygon fill="#edf0f7" stroke="red" stroke-dasharray="5,2" points="488.5,-20.58 459.5,-20.58 459.5,-1.58 488.5,-1.58 488.5,-20.58"/>
<text text-anchor="middle" x="474" y="-8.58" font-family="Helvetica,sans-Serif" font-size="10.00">di</text>
</a>
</g>
</g>
<!-- dir_2992e835a4b361d9b2ca5047c35dfcd3&#45;&gt;dir_984cd133b143ec7cf21a4bdcb401bfa5 -->
<g id="edge1" class="edge">
<title>dir_2992e835a4b361d9b2ca5047c35dfcd3&#45;&gt;dir_984cd133b143ec7cf21a4bdcb401bfa5</title>
<path fill="none" stroke="#63b8ff" d="M259.55,-113.91C262.68,-113.03 265.91,-112.21 269,-111.58 341.93,-96.7 552.28,-130.96 602,-75.58 612.39,-64 611.73,-52.71 602,-40.58 589.33,-24.78 532.46,-17.17 498.94,-14"/>
<polygon fill="#63b8ff" stroke="#63b8ff" points="498.83,-10.48 488.56,-13.09 498.22,-17.45 498.83,-10.48"/>
<g id="a_edge1&#45;headlabel"><a xlink:href="dir_000064_000058.html" target="_top" xlink:title="96">
<text text-anchor="middle" x="502.66" y="-5.47" font-family="Helvetica,sans-Serif" font-size="10.00" fill="#63b8ff">96</text>
</a>
</g>
</g>
<!-- dir_a2be59232e4535b0da75437f5985543f -->
<g id="node2" class="node">
<title>dir_a2be59232e4535b0da75437f5985543f</title>
<g id="a_node2"><a xlink:href="dir_a2be59232e4535b0da75437f5985543f.html" target="_top" xlink:title="arch">
<polygon fill="#a2b4d6" stroke="#404040" points="387,-130.58 349,-130.58 349,-111.58 387,-111.58 387,-130.58"/>
<text text-anchor="middle" x="368" y="-118.58" font-family="Helvetica,sans-Serif" font-size="10.00">arch</text>
</a>
</g>
</g>
<!-- dir_f31f7b577afa3fa4833a664a74923a48 -->
<g id="node3" class="node">
<title>dir_f31f7b577afa3fa4833a664a74923a48</title>
<g id="a_node3"><a xlink:href="dir_f31f7b577afa3fa4833a664a74923a48.html" target="_top" xlink:title="filesystem">
<polygon fill="#a2b4d6" stroke="#404040" points="92,-130.58 24,-130.58 24,-111.58 92,-111.58 92,-130.58"/>
<text text-anchor="middle" x="58" y="-118.58" font-family="Helvetica,sans-Serif" font-size="10.00">filesystem</text>
</a>
</g>
</g>
<!-- dir_f31f7b577afa3fa4833a664a74923a48&#45;&gt;dir_984cd133b143ec7cf21a4bdcb401bfa5 -->
<g id="edge2" class="edge">
<title>dir_f31f7b577afa3fa4833a664a74923a48&#45;&gt;dir_984cd133b143ec7cf21a4bdcb401bfa5</title>
<path fill="none" stroke="#63b8ff" d="M92.09,-113.37C95.43,-112.75 98.78,-112.14 102,-111.58 203.48,-93.8 234.34,-111.22 331,-75.58 358.89,-65.29 361.04,-53.11 388,-40.58 407.96,-31.29 431.8,-23.64 449.31,-18.61"/>
<polygon fill="#63b8ff" stroke="#63b8ff" points="450.61,-21.88 459.3,-15.83 448.73,-15.14 450.61,-21.88"/>
<g id="a_edge2&#45;headlabel"><a xlink:href="dir_000074_000058.html" target="_top" xlink:title="23">
<text text-anchor="middle" x="447.91" y="-23.08" font-family="Helvetica,sans-Serif" font-size="10.00" fill="#63b8ff">23</text>
</a>
</g>
</g>
<!-- dir_d58431dfd3180a78b714558c6ee761e7 -->
<g id="node4" class="node">
<title>dir_d58431dfd3180a78b714558c6ee761e7</title>
<g id="a_node4"><a xlink:href="dir_d58431dfd3180a78b714558c6ee761e7.html" target="_top" xlink:title="iros">
<polygon fill="#a2b4d6" stroke="#404040" points="145.5,-130.58 110.5,-130.58 110.5,-111.58 145.5,-111.58 145.5,-130.58"/>
<text text-anchor="middle" x="128" y="-118.58" font-family="Helvetica,sans-Serif" font-size="10.00">iros</text>
</a>
</g>
</g>
<!-- dir_9b74ca6f6a343c08895628384376fe76 -->
<g id="node7" class="node">
<title>dir_9b74ca6f6a343c08895628384376fe76</title>
<g id="a_node7"><a xlink:href="dir_9b74ca6f6a343c08895628384376fe76.html" target="_top" xlink:title="runtime">
<polygon fill="#a2b4d6" stroke="#404040" points="211.5,-75.58 156.5,-75.58 156.5,-56.58 211.5,-56.58 211.5,-75.58"/>
<text text-anchor="middle" x="184" y="-63.58" font-family="Helvetica,sans-Serif" font-size="10.00">runtime</text>
</a>
</g>
</g>
<!-- dir_d58431dfd3180a78b714558c6ee761e7&#45;&gt;dir_9b74ca6f6a343c08895628384376fe76 -->
<g id="edge5" class="edge">
<title>dir_d58431dfd3180a78b714558c6ee761e7&#45;&gt;dir_9b74ca6f6a343c08895628384376fe76</title>
<path fill="none" stroke="#63b8ff" d="M137,-111.56C145.19,-103.8 157.51,-92.15 167.47,-82.72"/>
<polygon fill="#63b8ff" stroke="#63b8ff" points="169.98,-85.16 174.84,-75.75 165.17,-80.08 169.98,-85.16"/>
<g id="a_edge5&#45;headlabel"><a xlink:href="dir_000106_000147.html" target="_top" xlink:title="1">
<text text-anchor="middle" x="169.32" y="-87.2" font-family="Helvetica,sans-Serif" font-size="10.00" fill="#63b8ff">1</text>
</a>
</g>
</g>
<!-- dir_d58431dfd3180a78b714558c6ee761e7&#45;&gt;dir_984cd133b143ec7cf21a4bdcb401bfa5 -->
<g id="edge4" class="edge">
<title>dir_d58431dfd3180a78b714558c6ee761e7&#45;&gt;dir_984cd133b143ec7cf21a4bdcb401bfa5</title>
<path fill="none" stroke="#63b8ff" d="M145.61,-114.11C148.72,-113.18 151.94,-112.29 155,-111.58 257.05,-87.78 291.27,-115.86 388,-75.58 415.14,-64.27 441.62,-42.65 457.86,-27.8"/>
<polygon fill="#63b8ff" stroke="#63b8ff" points="460.48,-30.14 465.37,-20.75 455.69,-25.04 460.48,-30.14"/>
<g id="a_edge4&#45;headlabel"><a xlink:href="dir_000106_000058.html" target="_top" xlink:title="5">
<text text-anchor="middle" x="459.8" y="-32.17" font-family="Helvetica,sans-Serif" font-size="10.00" fill="#63b8ff">5</text>
</a>
</g>
</g>
<!-- dir_2605f0c6ea8f9a17a384edc9a2df15f4 -->
<g id="node11" class="node">
<title>dir_2605f0c6ea8f9a17a384edc9a2df15f4</title>
<g id="a_node11"><a xlink:href="dir_2605f0c6ea8f9a17a384edc9a2df15f4.html" target="_top" xlink:title="iris">
<polygon fill="#edf0f7" stroke="red" points="497,-75.58 465,-75.58 465,-56.58 497,-56.58 497,-75.58"/>
<text text-anchor="middle" x="481" y="-63.58" font-family="Helvetica,sans-Serif" font-size="10.00">iris</text>
</a>
</g>
</g>
<!-- dir_d58431dfd3180a78b714558c6ee761e7&#45;&gt;dir_2605f0c6ea8f9a17a384edc9a2df15f4 -->
<g id="edge3" class="edge">
<title>dir_d58431dfd3180a78b714558c6ee761e7&#45;&gt;dir_2605f0c6ea8f9a17a384edc9a2df15f4</title>
<path fill="none" stroke="#63b8ff" d="M145.59,-114.02C148.7,-113.1 151.93,-112.24 155,-111.58 285.4,-83.43 322.45,-103.06 453,-75.58 453.61,-75.45 454.22,-75.31 454.83,-75.17"/>
<polygon fill="#63b8ff" stroke="#63b8ff" points="456.08,-78.46 464.84,-72.51 454.27,-71.7 456.08,-78.46"/>
<g id="a_edge3&#45;headlabel"><a xlink:href="dir_000106_000102.html" target="_top" xlink:title="2">
<text text-anchor="middle" x="453.34" y="-79.63" font-family="Helvetica,sans-Serif" font-size="10.00" fill="#63b8ff">2</text>
</a>
</g>
</g>
<!-- dir_e043b7fd757103055e525488867886a8 -->
<g id="node5" class="node">
<title>dir_e043b7fd757103055e525488867886a8</title>
<g id="a_node5"><a xlink:href="dir_e043b7fd757103055e525488867886a8.html" target="_top" xlink:title="linux">
<polygon fill="#a2b4d6" stroke="#404040" points="204.5,-130.58 163.5,-130.58 163.5,-111.58 204.5,-111.58 204.5,-130.58"/>
<text text-anchor="middle" x="184" y="-118.58" font-family="Helvetica,sans-Serif" font-size="10.00">linux</text>
</a>
</g>
</g>
<!-- dir_8663e1f92e7e252284972f31150b7e2c -->
<g id="node6" class="node">
<title>dir_8663e1f92e7e252284972f31150b7e2c</title>
<g id="a_node6"><a xlink:href="dir_8663e1f92e7e252284972f31150b7e2c.html" target="_top" xlink:title="posix">
<polygon fill="#a2b4d6" stroke="#404040" points="321.5,-75.58 278.5,-75.58 278.5,-56.58 321.5,-56.58 321.5,-75.58"/>
<text text-anchor="middle" x="300" y="-63.58" font-family="Helvetica,sans-Serif" font-size="10.00">posix</text>
</a>
</g>
</g>
<!-- dir_e043b7fd757103055e525488867886a8&#45;&gt;dir_8663e1f92e7e252284972f31150b7e2c -->
<g id="edge7" class="edge">
<title>dir_e043b7fd757103055e525488867886a8&#45;&gt;dir_8663e1f92e7e252284972f31150b7e2c</title>
<path fill="none" stroke="#63b8ff" d="M202.64,-111.56C221.3,-103.03 250.25,-89.81 271.74,-79.99"/>
<polygon fill="#63b8ff" stroke="#63b8ff" points="273.38,-83.09 281.02,-75.75 270.47,-76.72 273.38,-83.09"/>
<g id="a_edge7&#45;headlabel"><a xlink:href="dir_000113_000137.html" target="_top" xlink:title="1">
<text text-anchor="middle" x="271.29" y="-84.66" font-family="Helvetica,sans-Serif" font-size="10.00" fill="#63b8ff">1</text>
</a>
</g>
</g>
<!-- dir_e043b7fd757103055e525488867886a8&#45;&gt;dir_9b74ca6f6a343c08895628384376fe76 -->
<g id="edge9" class="edge">
<title>dir_e043b7fd757103055e525488867886a8&#45;&gt;dir_9b74ca6f6a343c08895628384376fe76</title>
<path fill="none" stroke="#63b8ff" d="M184,-111.32C184,-104.38 184,-94.42 184,-85.71"/>
<polygon fill="#63b8ff" stroke="#63b8ff" points="187.5,-85.67 184,-75.67 180.5,-85.67 187.5,-85.67"/>
<g id="a_edge9&#45;headlabel"><a xlink:href="dir_000113_000147.html" target="_top" xlink:title="1">
<text text-anchor="middle" x="190.34" y="-86.76" font-family="Helvetica,sans-Serif" font-size="10.00" fill="#63b8ff">1</text>
</a>
</g>
</g>
<!-- dir_e043b7fd757103055e525488867886a8&#45;&gt;dir_984cd133b143ec7cf21a4bdcb401bfa5 -->
<g id="edge8" class="edge">
<title>dir_e043b7fd757103055e525488867886a8&#45;&gt;dir_984cd133b143ec7cf21a4bdcb401bfa5</title>
<path fill="none" stroke="#63b8ff" d="M204.56,-113.8C207.7,-112.97 210.92,-112.2 214,-111.58 278.08,-98.63 462.69,-124.55 506,-75.58 516.3,-63.92 512.37,-54.77 506,-40.58 503.77,-35.61 500.21,-31.16 496.25,-27.33"/>
<polygon fill="#63b8ff" stroke="#63b8ff" points="498.32,-24.5 488.4,-20.76 493.83,-29.87 498.32,-24.5"/>
<g id="a_edge8&#45;headlabel"><a xlink:href="dir_000113_000058.html" target="_top" xlink:title="21">
<text text-anchor="middle" x="502.9" y="-22.13" font-family="Helvetica,sans-Serif" font-size="10.00" fill="#63b8ff">21</text>
</a>
</g>
</g>
<!-- dir_048287677304621c659962c2a2c2732d -->
<g id="node12" class="node">
<title>dir_048287677304621c659962c2a2c2732d</title>
<g id="a_node12"><a xlink:href="dir_048287677304621c659962c2a2c2732d.html" target="_top" xlink:title="ccpp">
<polygon fill="#edf0f7" stroke="red" stroke-dasharray="5,2" points="592.5,-75.58 553.5,-75.58 553.5,-56.58 592.5,-56.58 592.5,-75.58"/>
<text text-anchor="middle" x="573" y="-63.58" font-family="Helvetica,sans-Serif" font-size="10.00">ccpp</text>
</a>
</g>
</g>
<!-- dir_e043b7fd757103055e525488867886a8&#45;&gt;dir_048287677304621c659962c2a2c2732d -->
<g id="edge6" class="edge">
<title>dir_e043b7fd757103055e525488867886a8&#45;&gt;dir_048287677304621c659962c2a2c2732d</title>
<path fill="none" stroke="#63b8ff" d="M204.55,-113.77C207.69,-112.95 210.92,-112.18 214,-111.58 356.62,-83.67 395.96,-101.26 539,-75.58 540.46,-75.31 541.95,-75.02 543.45,-74.72"/>
<polygon fill="#63b8ff" stroke="#63b8ff" points="544.34,-78.1 553.32,-72.47 542.79,-71.28 544.34,-78.1"/>
<g id="a_edge6&#45;headlabel"><a xlink:href="dir_000113_000030.html" target="_top" xlink:title="2">
<text text-anchor="middle" x="541.47" y="-79.17" font-family="Helvetica,sans-Serif" font-size="10.00" fill="#63b8ff">2</text>
</a>
</g>
</g>
<!-- dir_8663e1f92e7e252284972f31150b7e2c&#45;&gt;dir_984cd133b143ec7cf21a4bdcb401bfa5 -->
<g id="edge10" class="edge">
<title>dir_8663e1f92e7e252284972f31150b7e2c&#45;&gt;dir_984cd133b143ec7cf21a4bdcb401bfa5</title>
<path fill="none" stroke="#63b8ff" d="M318.93,-56.54C330.61,-51.47 345.99,-45.16 360,-40.58 390.3,-30.66 426.08,-22.23 449.36,-17.17"/>
<polygon fill="#63b8ff" stroke="#63b8ff" points="450.37,-20.53 459.42,-15.02 448.91,-13.69 450.37,-20.53"/>
<g id="a_edge10&#45;headlabel"><a xlink:href="dir_000137_000058.html" target="_top" xlink:title="3">
<text text-anchor="middle" x="447.44" y="-21.56" font-family="Helvetica,sans-Serif" font-size="10.00" fill="#63b8ff">3</text>
</a>
</g>
</g>
<!-- dir_9b74ca6f6a343c08895628384376fe76&#45;&gt;dir_984cd133b143ec7cf21a4bdcb401bfa5 -->
<g id="edge11" class="edge">
<title>dir_9b74ca6f6a343c08895628384376fe76&#45;&gt;dir_984cd133b143ec7cf21a4bdcb401bfa5</title>
<path fill="none" stroke="#63b8ff" d="M210.49,-56.5C227.37,-51.29 249.8,-44.84 270,-40.58 333.69,-27.12 409.95,-18.39 448.7,-14.47"/>
<polygon fill="#63b8ff" stroke="#63b8ff" points="449.42,-17.92 459.03,-13.45 448.74,-10.95 449.42,-17.92"/>
<g id="a_edge11&#45;headlabel"><a xlink:href="dir_000147_000058.html" target="_top" xlink:title="1">
<text text-anchor="middle" x="446.13" y="-18.59" font-family="Helvetica,sans-Serif" font-size="10.00" fill="#63b8ff">1</text>
</a>
</g>
</g>
<!-- dir_364bb6b77e8224ee250c62b823290aee -->
<g id="node8" class="node">
<title>dir_364bb6b77e8224ee250c62b823290aee</title>
<g id="a_node8"><a xlink:href="dir_364bb6b77e8224ee250c62b823290aee.html" target="_top" xlink:title="system">
<polygon fill="#a2b4d6" stroke="#404040" points="330.5,-130.58 277.5,-130.58 277.5,-111.58 330.5,-111.58 330.5,-130.58"/>
<text text-anchor="middle" x="304" y="-118.58" font-family="Helvetica,sans-Serif" font-size="10.00">system</text>
</a>
</g>
</g>
<!-- dir_364bb6b77e8224ee250c62b823290aee&#45;&gt;dir_984cd133b143ec7cf21a4bdcb401bfa5 -->
<g id="edge12" class="edge">
<title>dir_364bb6b77e8224ee250c62b823290aee&#45;&gt;dir_984cd133b143ec7cf21a4bdcb401bfa5</title>
<path fill="none" stroke="#63b8ff" d="M330.67,-113.43C333.8,-112.76 336.97,-112.12 340,-111.58 405.01,-99.97 591.22,-125.02 635,-75.58 645.31,-63.93 644.99,-52.5 635,-40.58 617.92,-20.2 539.63,-14.39 498.85,-12.73"/>
<polygon fill="#63b8ff" stroke="#63b8ff" points="498.78,-9.23 488.66,-12.37 498.53,-16.22 498.78,-9.23"/>
<g id="a_edge12&#45;headlabel"><a xlink:href="dir_000165_000058.html" target="_top" xlink:title="4">
<text text-anchor="middle" x="502.47" y="-4.01" font-family="Helvetica,sans-Serif" font-size="10.00" fill="#63b8ff">4</text>
</a>
</g>
</g>
<!-- dir_e83ec42c01766ad33edd35d129ab452c -->
<g id="node9" class="node">
<title>dir_e83ec42c01766ad33edd35d129ab452c</title>
<g id="a_node9"><a xlink:href="dir_e83ec42c01766ad33edd35d129ab452c.html" target="_top" xlink:title="test">
<polygon fill="#a2b4d6" stroke="#404040" points="440.5,-130.58 405.5,-130.58 405.5,-111.58 440.5,-111.58 440.5,-130.58"/>
<text text-anchor="middle" x="423" y="-118.58" font-family="Helvetica,sans-Serif" font-size="10.00">test</text>
</a>
</g>
</g>
<!-- dir_e83ec42c01766ad33edd35d129ab452c&#45;&gt;dir_984cd133b143ec7cf21a4bdcb401bfa5 -->
<g id="edge13" class="edge">
<title>dir_e83ec42c01766ad33edd35d129ab452c&#45;&gt;dir_984cd133b143ec7cf21a4bdcb401bfa5</title>
<path fill="none" stroke="#63b8ff" d="M440.69,-119.74C492.67,-118.34 643.13,-111.23 673,-75.58 721,-18.28 562.69,-12.08 499.18,-11.84"/>
<polygon fill="#63b8ff" stroke="#63b8ff" points="498.83,-8.34 488.83,-11.85 498.84,-15.34 498.83,-8.34"/>
<g id="a_edge13&#45;headlabel"><a xlink:href="dir_000169_000058.html" target="_top" xlink:title="5">
<text text-anchor="middle" x="502.42" y="-3" font-family="Helvetica,sans-Serif" font-size="10.00" fill="#63b8ff">5</text>
</a>
</g>
</g>
</g>
</svg>
