<?xml version="1.0" encoding="UTF-8" standalone="no"?>
<!DOCTYPE svg PUBLIC "-//W3C//DTD SVG 1.1//EN"
 "http://www.w3.org/Graphics/SVG/1.1/DTD/svg11.dtd">
<!-- Generated by graphviz version 2.43.0 (0)
 -->
<!-- Title: libs/di/include/di/parser Pages: 1 -->
<svg width="516pt" height="361pt"
 viewBox="0.00 0.00 515.50 361.00" xmlns="http://www.w3.org/2000/svg" xmlns:xlink="http://www.w3.org/1999/xlink">
<g id="graph0" class="graph" transform="scale(1 1) rotate(0) translate(4 357)">
<title>libs/di/include/di/parser</title>
<g id="clust1" class="cluster">
<title>clusterdir_f95a1a0ab1b96e316090c1bcac3c2c99</title>
<g id="a_clust1"><a xlink:href="dir_f95a1a0ab1b96e316090c1bcac3c2c99.html" target="_top" xlink:title="di">
<polygon fill="#edf0f7" stroke="#7f7f7f" stroke-dasharray="5,2" points="8,-8 8,-345 458,-345 458,-8 8,-8"/>
<text text-anchor="middle" x="233" y="-333" font-family="Helvetica,sans-Serif" font-size="10.00">di</text>
</a>
</g>
</g>
<g id="clust2" class="cluster">
<title>clusterdir_c63ec87f2f7fd7fbd5b69a04f05a2815</title>
<g id="a_clust2"><a xlink:href="dir_c63ec87f2f7fd7fbd5b69a04f05a2815.html" target="_top">
<polygon fill="#edf0f7" stroke="#404040" stroke-width="2" points="222,-63 222,-318 396,-318 396,-63 222,-63"/>
</a>
</g>
</g>
<!-- dir_0669efae56692bb73da75efb5ebbccdf -->
<g id="node1" class="node">
<title>dir_0669efae56692bb73da75efb5ebbccdf</title>
<g id="a_node1"><a xlink:href="dir_0669efae56692bb73da75efb5ebbccdf.html" target="_top" xlink:title="function">
<polygon fill="#a2b4d6" stroke="red" points="192,-145 136,-145 136,-126 192,-126 192,-145"/>
<text text-anchor="middle" x="164" y="-133" font-family="Helvetica,sans-Serif" font-size="10.00">function</text>
</a>
</g>
</g>
<!-- dir_30ecaf38acae77be14fb9173f98f8612 -->
<g id="node2" class="node">
<title>dir_30ecaf38acae77be14fb9173f98f8612</title>
<g id="a_node2"><a xlink:href="dir_30ecaf38acae77be14fb9173f98f8612.html" target="_top" xlink:title="types">
<polygon fill="#a2b4d6" stroke="#404040" points="106,-90 62,-90 62,-71 106,-71 106,-90"/>
<text text-anchor="middle" x="84" y="-78" font-family="Helvetica,sans-Serif" font-size="10.00">types</text>
</a>
</g>
</g>
<!-- dir_4535887b2cdca47e625f259d07db0112 -->
<g id="node3" class="node">
<title>dir_4535887b2cdca47e625f259d07db0112</title>
<g id="a_node3"><a xlink:href="dir_4535887b2cdca47e625f259d07db0112.html" target="_top" xlink:title="util">
<polygon fill="#a2b4d6" stroke="#404040" points="227,-35 195,-35 195,-16 227,-16 227,-35"/>
<text text-anchor="middle" x="211" y="-23" font-family="Helvetica,sans-Serif" font-size="10.00">util</text>
</a>
</g>
</g>
<!-- dir_521de572ae4fe2915cc70a876c52f5b7 -->
<g id="node4" class="node">
<title>dir_521de572ae4fe2915cc70a876c52f5b7</title>
<g id="a_node4"><a xlink:href="dir_521de572ae4fe2915cc70a876c52f5b7.html" target="_top" xlink:title="container">
<polygon fill="#a2b4d6" stroke="red" points="186,-90 124,-90 124,-71 186,-71 186,-90"/>
<text text-anchor="middle" x="155" y="-78" font-family="Helvetica,sans-Serif" font-size="10.00">container</text>
</a>
</g>
</g>
<!-- dir_60d1624911c2c9f7b6f38e44ec895aaa -->
<g id="node5" class="node">
<title>dir_60d1624911c2c9f7b6f38e44ec895aaa</title>
<g id="a_node5"><a xlink:href="dir_60d1624911c2c9f7b6f38e44ec895aaa.html" target="_top" xlink:title="math">
<polygon fill="#a2b4d6" stroke="red" points="158,-200 116,-200 116,-181 158,-181 158,-200"/>
<text text-anchor="middle" x="137" y="-188" font-family="Helvetica,sans-Serif" font-size="10.00">math</text>
</a>
</g>
</g>
<!-- dir_942cfae36a92b6b1c4b510e99e852d40 -->
<g id="node6" class="node">
<title>dir_942cfae36a92b6b1c4b510e99e852d40</title>
<g id="a_node6"><a xlink:href="dir_942cfae36a92b6b1c4b510e99e852d40.html" target="_top" xlink:title="vocab">
<polygon fill="#a2b4d6" stroke="red" points="441,-35 395,-35 395,-16 441,-16 441,-35"/>
<text text-anchor="middle" x="418" y="-23" font-family="Helvetica,sans-Serif" font-size="10.00">vocab</text>
</a>
</g>
</g>
<!-- dir_f555f996eeee1ebe901dc71e0c5de8ff -->
<g id="node7" class="node">
<title>dir_f555f996eeee1ebe901dc71e0c5de8ff</title>
<g id="a_node7"><a xlink:href="dir_f555f996eeee1ebe901dc71e0c5de8ff.html" target="_top" xlink:title="meta">
<polygon fill="#a2b4d6" stroke="#404040" points="330,-35 288,-35 288,-16 330,-16 330,-35"/>
<text text-anchor="middle" x="309" y="-23" font-family="Helvetica,sans-Serif" font-size="10.00">meta</text>
</a>
</g>
</g>
<!-- dir_c63ec87f2f7fd7fbd5b69a04f05a2815 -->
<g id="node8" class="node">
<title>dir_c63ec87f2f7fd7fbd5b69a04f05a2815</title>
<text text-anchor="middle" x="254" y="-298" font-family="Helvetica,sans-Serif" font-size="10.00">parser</text>
</g>
<!-- dir_c63ec87f2f7fd7fbd5b69a04f05a2815&#45;&gt;dir_0669efae56692bb73da75efb5ebbccdf -->
<g id="edge1" class="edge">
<title>dir_c63ec87f2f7fd7fbd5b69a04f05a2815&#45;&gt;dir_0669efae56692bb73da75efb5ebbccdf</title>
<path fill="none" stroke="#63b8ff" d="M230.4,-291.76C195.79,-278.96 132.59,-249.73 107,-200 96.88,-180.33 117.96,-162 137.29,-150.14"/>
<polygon fill="#63b8ff" stroke="#63b8ff" points="139.29,-153.03 146.21,-145.01 135.8,-146.96 139.29,-153.03"/>
<g id="a_edge1&#45;headlabel"><a xlink:href="dir_000133_000082.html" target="_top" xlink:title="9">
<text text-anchor="middle" x="137.58" y="-154.78" font-family="Helvetica,sans-Serif" font-size="10.00" fill="#63b8ff">9</text>
</a>
</g>
</g>
<!-- dir_c63ec87f2f7fd7fbd5b69a04f05a2815&#45;&gt;dir_30ecaf38acae77be14fb9173f98f8612 -->
<g id="edge2" class="edge">
<title>dir_c63ec87f2f7fd7fbd5b69a04f05a2815&#45;&gt;dir_30ecaf38acae77be14fb9173f98f8612</title>
<path fill="none" stroke="#63b8ff" d="M230.44,-298.89C198.51,-296.76 141.71,-288.2 109,-255 67.75,-213.14 74.51,-135.71 80.32,-100.19"/>
<polygon fill="#63b8ff" stroke="#63b8ff" points="83.78,-100.69 82.11,-90.23 76.89,-99.45 83.78,-100.69"/>
<g id="a_edge2&#45;headlabel"><a xlink:href="dir_000133_000180.html" target="_top" xlink:title="3">
<text text-anchor="middle" x="85.94" y="-102.23" font-family="Helvetica,sans-Serif" font-size="10.00" fill="#63b8ff">3</text>
</a>
</g>
</g>
<!-- dir_c63ec87f2f7fd7fbd5b69a04f05a2815&#45;&gt;dir_4535887b2cdca47e625f259d07db0112 -->
<g id="edge4" class="edge">
<title>dir_c63ec87f2f7fd7fbd5b69a04f05a2815&#45;&gt;dir_4535887b2cdca47e625f259d07db0112</title>
<path fill="none" stroke="#63b8ff" d="M230.45,-297.94C179.27,-294.05 60.19,-282.25 32,-255 11.15,-234.85 17,-220.5 17,-191.5 17,-191.5 17,-191.5 17,-134.5 17,-102.03 8.98,-85.89 32,-63 53.24,-41.88 140.62,-32.05 184.95,-28.35"/>
<polygon fill="#63b8ff" stroke="#63b8ff" points="185.28,-31.84 194.97,-27.56 184.73,-24.86 185.28,-31.84"/>
<g id="a_edge4&#45;headlabel"><a xlink:href="dir_000133_000185.html" target="_top" xlink:title="3">
<text text-anchor="middle" x="181.92" y="-32.45" font-family="Helvetica,sans-Serif" font-size="10.00" fill="#63b8ff">3</text>
</a>
</g>
</g>
<!-- dir_c63ec87f2f7fd7fbd5b69a04f05a2815&#45;&gt;dir_521de572ae4fe2915cc70a876c52f5b7 -->
<g id="edge5" class="edge">
<title>dir_c63ec87f2f7fd7fbd5b69a04f05a2815&#45;&gt;dir_521de572ae4fe2915cc70a876c52f5b7</title>
<path fill="none" stroke="#63b8ff" d="M230.49,-295.87C203.99,-290.74 160.87,-279.16 132,-255 110.31,-236.85 107.37,-227.3 100,-200 89.58,-161.36 119.65,-119.69 139.35,-97.52"/>
<polygon fill="#63b8ff" stroke="#63b8ff" points="142.06,-99.74 146.29,-90.03 136.92,-94.99 142.06,-99.74"/>
<g id="a_edge5&#45;headlabel"><a xlink:href="dir_000133_000046.html" target="_top" xlink:title="16">
<text text-anchor="middle" x="141.7" y="-101.81" font-family="Helvetica,sans-Serif" font-size="10.00" fill="#63b8ff">16</text>
</a>
</g>
</g>
<!-- dir_c63ec87f2f7fd7fbd5b69a04f05a2815&#45;&gt;dir_60d1624911c2c9f7b6f38e44ec895aaa -->
<g id="edge6" class="edge">
<title>dir_c63ec87f2f7fd7fbd5b69a04f05a2815&#45;&gt;dir_60d1624911c2c9f7b6f38e44ec895aaa</title>
<path fill="none" stroke="#63b8ff" d="M244.43,-290.66C224.62,-272.38 178.9,-230.18 153.97,-207.17"/>
<polygon fill="#63b8ff" stroke="#63b8ff" points="156.1,-204.37 146.38,-200.16 151.35,-209.51 156.1,-204.37"/>
<g id="a_edge6&#45;headlabel"><a xlink:href="dir_000133_000117.html" target="_top" xlink:title="4">
<text text-anchor="middle" x="160.67" y="-202.22" font-family="Helvetica,sans-Serif" font-size="10.00" fill="#63b8ff">4</text>
</a>
</g>
</g>
<!-- dir_c63ec87f2f7fd7fbd5b69a04f05a2815&#45;&gt;dir_942cfae36a92b6b1c4b510e99e852d40 -->
<g id="edge7" class="edge">
<title>dir_c63ec87f2f7fd7fbd5b69a04f05a2815&#45;&gt;dir_942cfae36a92b6b1c4b510e99e852d40</title>
<path fill="none" stroke="#63b8ff" d="M277.52,-297.41C329.39,-291.39 449,-269.09 449,-191.5 449,-191.5 449,-191.5 449,-134.5 449,-101.79 435.7,-65.6 426.52,-44.52"/>
<polygon fill="#63b8ff" stroke="#63b8ff" points="429.63,-42.88 422.31,-35.22 423.25,-45.77 429.63,-42.88"/>
<g id="a_edge7&#45;headlabel"><a xlink:href="dir_000133_000189.html" target="_top" xlink:title="15">
<text text-anchor="middle" x="433.7" y="-42.48" font-family="Helvetica,sans-Serif" font-size="10.00" fill="#63b8ff">15</text>
</a>
</g>
</g>
<!-- dir_c63ec87f2f7fd7fbd5b69a04f05a2815&#45;&gt;dir_f555f996eeee1ebe901dc71e0c5de8ff -->
<g id="edge11" class="edge">
<title>dir_c63ec87f2f7fd7fbd5b69a04f05a2815&#45;&gt;dir_f555f996eeee1ebe901dc71e0c5de8ff</title>
<path fill="none" stroke="#63b8ff" d="M230.36,-298.54C174.12,-294.87 37,-277.14 37,-191.5 37,-191.5 37,-191.5 37,-134.5 37,-101.94 29.09,-85.1 53,-63 57.11,-59.2 210.03,-39.19 277.53,-30.52"/>
<polygon fill="#63b8ff" stroke="#63b8ff" points="278.12,-33.97 287.59,-29.22 277.23,-27.03 278.12,-33.97"/>
<g id="a_edge11&#45;headlabel"><a xlink:href="dir_000133_000122.html" target="_top" xlink:title="18">
<text text-anchor="middle" x="274.91" y="-34.74" font-family="Helvetica,sans-Serif" font-size="10.00" fill="#63b8ff">18</text>
</a>
</g>
</g>
<!-- dir_352cf3ee91da28188575262295232890 -->
<g id="node9" class="node">
<title>dir_352cf3ee91da28188575262295232890</title>
<g id="a_node9"><a xlink:href="dir_352cf3ee91da28188575262295232890.html" target="_top" xlink:title="basic">
<polygon fill="#a2b4d6" stroke="#404040" points="298,-255 256,-255 256,-236 298,-236 298,-255"/>
<text text-anchor="middle" x="277" y="-243" font-family="Helvetica,sans-Serif" font-size="10.00">basic</text>
</a>
</g>
</g>
<!-- dir_c63ec87f2f7fd7fbd5b69a04f05a2815&#45;&gt;dir_352cf3ee91da28188575262295232890 -->
<g id="edge3" class="edge">
<title>dir_c63ec87f2f7fd7fbd5b69a04f05a2815&#45;&gt;dir_352cf3ee91da28188575262295232890</title>
<path fill="none" stroke="#63b8ff" d="M257.8,-290.75C260.91,-283.57 265.42,-273.18 269.29,-264.27"/>
<polygon fill="#63b8ff" stroke="#63b8ff" points="272.5,-265.66 273.27,-255.09 266.08,-262.87 272.5,-265.66"/>
<g id="a_edge3&#45;headlabel"><a xlink:href="dir_000133_000020.html" target="_top" xlink:title="13">
<text text-anchor="middle" x="273.68" y="-267.58" font-family="Helvetica,sans-Serif" font-size="10.00" fill="#63b8ff">13</text>
</a>
</g>
</g>
<!-- dir_b90494a72034161169528f50be8b61b3 -->
<g id="node10" class="node">
<title>dir_b90494a72034161169528f50be8b61b3</title>
<g id="a_node10"><a xlink:href="dir_b90494a72034161169528f50be8b61b3.html" target="_top" xlink:title="combinator">
<polygon fill="#a2b4d6" stroke="#404040" points="368,-200 296,-200 296,-181 368,-181 368,-200"/>
<text text-anchor="middle" x="332" y="-188" font-family="Helvetica,sans-Serif" font-size="10.00">combinator</text>
</a>
</g>
</g>
<!-- dir_c63ec87f2f7fd7fbd5b69a04f05a2815&#45;&gt;dir_b90494a72034161169528f50be8b61b3 -->
<g id="edge10" class="edge">
<title>dir_c63ec87f2f7fd7fbd5b69a04f05a2815&#45;&gt;dir_b90494a72034161169528f50be8b61b3</title>
<path fill="none" stroke="#63b8ff" d="M267.85,-290.77C279.65,-282.73 296.33,-269.82 307,-255 316.73,-241.48 323.31,-223.65 327.27,-210.33"/>
<polygon fill="#63b8ff" stroke="#63b8ff" points="330.73,-210.96 329.99,-200.39 323.98,-209.11 330.73,-210.96"/>
<g id="a_edge10&#45;headlabel"><a xlink:href="dir_000133_000034.html" target="_top" xlink:title="16">
<text text-anchor="middle" x="332.52" y="-212.68" font-family="Helvetica,sans-Serif" font-size="10.00" fill="#63b8ff">16</text>
</a>
</g>
</g>
<!-- dir_967eafbc0b7c635d33b7b0b328f0cb12 -->
<g id="node11" class="node">
<title>dir_967eafbc0b7c635d33b7b0b328f0cb12</title>
<g id="a_node11"><a xlink:href="dir_967eafbc0b7c635d33b7b0b328f0cb12.html" target="_top" xlink:title="concepts">
<polygon fill="#a2b4d6" stroke="#404040" points="290,-145 230,-145 230,-126 290,-126 290,-145"/>
<text text-anchor="middle" x="260" y="-133" font-family="Helvetica,sans-Serif" font-size="10.00">concepts</text>
</a>
</g>
</g>
<!-- dir_c63ec87f2f7fd7fbd5b69a04f05a2815&#45;&gt;dir_967eafbc0b7c635d33b7b0b328f0cb12 -->
<g id="edge8" class="edge">
<title>dir_c63ec87f2f7fd7fbd5b69a04f05a2815&#45;&gt;dir_967eafbc0b7c635d33b7b0b328f0cb12</title>
<path fill="none" stroke="#63b8ff" d="M252.2,-290.68C250.47,-281.74 247.98,-267.48 247,-255 244.23,-219.54 251.04,-178.28 255.81,-154.99"/>
<polygon fill="#63b8ff" stroke="#63b8ff" points="259.26,-155.62 257.94,-145.11 252.41,-154.14 259.26,-155.62"/>
<g id="a_edge8&#45;headlabel"><a xlink:href="dir_000133_000040.html" target="_top" xlink:title="28">
<text text-anchor="middle" x="261.28" y="-157.23" font-family="Helvetica,sans-Serif" font-size="10.00" fill="#63b8ff">28</text>
</a>
</g>
</g>
<!-- dir_979062da5ab806b052b4261920d5e719 -->
<g id="node12" class="node">
<title>dir_979062da5ab806b052b4261920d5e719</title>
<g id="a_node12"><a xlink:href="dir_979062da5ab806b052b4261920d5e719.html" target="_top" xlink:title="meta">
<polygon fill="#a2b4d6" stroke="#404040" points="330,-90 288,-90 288,-71 330,-71 330,-90"/>
<text text-anchor="middle" x="309" y="-78" font-family="Helvetica,sans-Serif" font-size="10.00">meta</text>
</a>
</g>
</g>
<!-- dir_c63ec87f2f7fd7fbd5b69a04f05a2815&#45;&gt;dir_979062da5ab806b052b4261920d5e719 -->
<g id="edge9" class="edge">
<title>dir_c63ec87f2f7fd7fbd5b69a04f05a2815&#45;&gt;dir_979062da5ab806b052b4261920d5e719</title>
<path fill="none" stroke="#63b8ff" d="M273.85,-290.83C303.19,-276.74 356.87,-245.76 377,-200 380.4,-192.27 379.49,-189.07 377,-181 375.56,-176.33 339.99,-125.46 320.88,-98.32"/>
<polygon fill="#63b8ff" stroke="#63b8ff" points="323.73,-96.29 315.11,-90.13 318.01,-100.32 323.73,-96.29"/>
<g id="a_edge9&#45;headlabel"><a xlink:href="dir_000133_000123.html" target="_top" xlink:title="15">
<text text-anchor="middle" x="328.12" y="-95.09" font-family="Helvetica,sans-Serif" font-size="10.00" fill="#63b8ff">15</text>
</a>
</g>
</g>
<!-- dir_352cf3ee91da28188575262295232890&#45;&gt;dir_30ecaf38acae77be14fb9173f98f8612 -->
<g id="edge13" class="edge">
<title>dir_352cf3ee91da28188575262295232890&#45;&gt;dir_30ecaf38acae77be14fb9173f98f8612</title>
<path fill="none" stroke="#63b8ff" d="M255.72,-235.89C231.6,-225.89 194.06,-209.56 182,-200 173.57,-193.32 174.7,-188.51 167,-181 147.91,-162.38 136.49,-165.13 119,-145 107.14,-131.36 97.57,-113.04 91.46,-99.58"/>
<polygon fill="#63b8ff" stroke="#63b8ff" points="94.5,-97.8 87.32,-90.02 88.08,-100.58 94.5,-97.8"/>
<g id="a_edge13&#45;headlabel"><a xlink:href="dir_000020_000180.html" target="_top" xlink:title="1">
<text text-anchor="middle" x="98.53" y="-97.47" font-family="Helvetica,sans-Serif" font-size="10.00" fill="#63b8ff">1</text>
</a>
</g>
</g>
<!-- dir_352cf3ee91da28188575262295232890&#45;&gt;dir_4535887b2cdca47e625f259d07db0112 -->
<g id="edge14" class="edge">
<title>dir_352cf3ee91da28188575262295232890&#45;&gt;dir_4535887b2cdca47e625f259d07db0112</title>
<path fill="none" stroke="#63b8ff" d="M270.35,-235.77C258.09,-219.16 232.19,-181.38 221,-145 210.52,-110.91 209.63,-68.88 210.16,-45.14"/>
<polygon fill="#63b8ff" stroke="#63b8ff" points="213.66,-45.18 210.5,-35.07 206.66,-44.94 213.66,-45.18"/>
<g id="a_edge14&#45;headlabel"><a xlink:href="dir_000020_000185.html" target="_top" xlink:title="1">
<text text-anchor="middle" x="216.38" y="-46.37" font-family="Helvetica,sans-Serif" font-size="10.00" fill="#63b8ff">1</text>
</a>
</g>
</g>
<!-- dir_352cf3ee91da28188575262295232890&#45;&gt;dir_521de572ae4fe2915cc70a876c52f5b7 -->
<g id="edge15" class="edge">
<title>dir_352cf3ee91da28188575262295232890&#45;&gt;dir_521de572ae4fe2915cc70a876c52f5b7</title>
<path fill="none" stroke="#63b8ff" d="M264.12,-235.83C245.88,-223.57 211.45,-200.48 182,-181 157.63,-164.88 140.89,-170.7 127,-145 118.63,-129.52 128.92,-111.04 139.3,-98.02"/>
<polygon fill="#63b8ff" stroke="#63b8ff" points="142.05,-100.19 145.95,-90.34 136.76,-95.61 142.05,-100.19"/>
<g id="a_edge15&#45;headlabel"><a xlink:href="dir_000020_000046.html" target="_top" xlink:title="10">
<text text-anchor="middle" x="141.85" y="-102.27" font-family="Helvetica,sans-Serif" font-size="10.00" fill="#63b8ff">10</text>
</a>
</g>
</g>
<!-- dir_352cf3ee91da28188575262295232890&#45;&gt;dir_60d1624911c2c9f7b6f38e44ec895aaa -->
<g id="edge16" class="edge">
<title>dir_352cf3ee91da28188575262295232890&#45;&gt;dir_60d1624911c2c9f7b6f38e44ec895aaa</title>
<path fill="none" stroke="#63b8ff" d="M255.74,-236.45C232.27,-227.57 194.29,-213.19 167.62,-203.09"/>
<polygon fill="#63b8ff" stroke="#63b8ff" points="168.6,-199.72 158,-199.45 166.12,-206.27 168.6,-199.72"/>
<g id="a_edge16&#45;headlabel"><a xlink:href="dir_000020_000117.html" target="_top" xlink:title="3">
<text text-anchor="middle" x="172.96" y="-195.84" font-family="Helvetica,sans-Serif" font-size="10.00" fill="#63b8ff">3</text>
</a>
</g>
</g>
<!-- dir_352cf3ee91da28188575262295232890&#45;&gt;dir_942cfae36a92b6b1c4b510e99e852d40 -->
<g id="edge17" class="edge">
<title>dir_352cf3ee91da28188575262295232890&#45;&gt;dir_942cfae36a92b6b1c4b510e99e852d40</title>
<path fill="none" stroke="#63b8ff" d="M298.18,-236.93C330.54,-225.27 388.91,-203.85 392,-200 428.43,-154.5 424.92,-80.07 420.83,-45.39"/>
<polygon fill="#63b8ff" stroke="#63b8ff" points="424.27,-44.7 419.48,-35.25 417.33,-45.63 424.27,-44.7"/>
<g id="a_edge17&#45;headlabel"><a xlink:href="dir_000020_000189.html" target="_top" xlink:title="8">
<text text-anchor="middle" x="427.56" y="-45.39" font-family="Helvetica,sans-Serif" font-size="10.00" fill="#63b8ff">8</text>
</a>
</g>
</g>
<!-- dir_352cf3ee91da28188575262295232890&#45;&gt;dir_f555f996eeee1ebe901dc71e0c5de8ff -->
<g id="edge21" class="edge">
<title>dir_352cf3ee91da28188575262295232890&#45;&gt;dir_f555f996eeee1ebe901dc71e0c5de8ff</title>
<path fill="none" stroke="#63b8ff" d="M298.38,-236.42C326.37,-225.63 372.42,-207.05 377,-200 397.04,-169.15 431.2,-210.25 346,-63 341.49,-55.2 334.87,-47.93 328.47,-41.97"/>
<polygon fill="#63b8ff" stroke="#63b8ff" points="330.5,-39.1 320.66,-35.17 325.9,-44.38 330.5,-39.1"/>
<g id="a_edge21&#45;headlabel"><a xlink:href="dir_000020_000122.html" target="_top" xlink:title="5">
<text text-anchor="middle" x="335.07" y="-36.82" font-family="Helvetica,sans-Serif" font-size="10.00" fill="#63b8ff">5</text>
</a>
</g>
</g>
<!-- dir_352cf3ee91da28188575262295232890&#45;&gt;dir_b90494a72034161169528f50be8b61b3 -->
<g id="edge20" class="edge">
<title>dir_352cf3ee91da28188575262295232890&#45;&gt;dir_b90494a72034161169528f50be8b61b3</title>
<path fill="none" stroke="#63b8ff" d="M286.08,-235.75C294.09,-228.03 305.96,-216.6 315.62,-207.28"/>
<polygon fill="#63b8ff" stroke="#63b8ff" points="318.31,-209.55 323.09,-200.09 313.46,-204.51 318.31,-209.55"/>
<g id="a_edge20&#45;headlabel"><a xlink:href="dir_000020_000034.html" target="_top" xlink:title="6">
<text text-anchor="middle" x="317.7" y="-211.59" font-family="Helvetica,sans-Serif" font-size="10.00" fill="#63b8ff">6</text>
</a>
</g>
</g>
<!-- dir_352cf3ee91da28188575262295232890&#45;&gt;dir_967eafbc0b7c635d33b7b0b328f0cb12 -->
<g id="edge18" class="edge">
<title>dir_352cf3ee91da28188575262295232890&#45;&gt;dir_967eafbc0b7c635d33b7b0b328f0cb12</title>
<path fill="none" stroke="#63b8ff" d="M275.61,-235.66C272.86,-218.17 266.66,-178.8 262.96,-155.27"/>
<polygon fill="#63b8ff" stroke="#63b8ff" points="266.38,-154.49 261.36,-145.16 259.46,-155.58 266.38,-154.49"/>
<g id="a_edge18&#45;headlabel"><a xlink:href="dir_000020_000040.html" target="_top" xlink:title="7">
<text text-anchor="middle" x="269.74" y="-155.1" font-family="Helvetica,sans-Serif" font-size="10.00" fill="#63b8ff">7</text>
</a>
</g>
</g>
<!-- dir_352cf3ee91da28188575262295232890&#45;&gt;dir_979062da5ab806b052b4261920d5e719 -->
<g id="edge19" class="edge">
<title>dir_352cf3ee91da28188575262295232890&#45;&gt;dir_979062da5ab806b052b4261920d5e719</title>
<path fill="none" stroke="#63b8ff" d="M277.91,-235.78C279.3,-223.46 282.3,-200.3 287,-181 290.99,-164.61 295.01,-161.39 299,-145 302.6,-130.22 305.2,-113.18 306.85,-100.48"/>
<polygon fill="#63b8ff" stroke="#63b8ff" points="310.36,-100.57 308.09,-90.22 303.41,-99.72 310.36,-100.57"/>
<g id="a_edge19&#45;headlabel"><a xlink:href="dir_000020_000123.html" target="_top" xlink:title="6">
<text text-anchor="middle" x="312.75" y="-101.98" font-family="Helvetica,sans-Serif" font-size="10.00" fill="#63b8ff">6</text>
</a>
</g>
</g>
<!-- dir_048287677304621c659962c2a2c2732d -->
<g id="node13" class="node">
<title>dir_048287677304621c659962c2a2c2732d</title>
<g id="a_node13"><a xlink:href="dir_048287677304621c659962c2a2c2732d.html" target="_top" xlink:title="ccpp">
<polygon fill="#edf0f7" stroke="red" stroke-dasharray="5,2" points="507.5,-200 468.5,-200 468.5,-181 507.5,-181 507.5,-200"/>
<text text-anchor="middle" x="488" y="-188" font-family="Helvetica,sans-Serif" font-size="10.00">ccpp</text>
</a>
</g>
</g>
<!-- dir_352cf3ee91da28188575262295232890&#45;&gt;dir_048287677304621c659962c2a2c2732d -->
<g id="edge12" class="edge">
<title>dir_352cf3ee91da28188575262295232890&#45;&gt;dir_048287677304621c659962c2a2c2732d</title>
<path fill="none" stroke="#63b8ff" d="M298.23,-239.97C331.02,-232.86 396.14,-218.24 458.48,-200.88"/>
<polygon fill="#63b8ff" stroke="#63b8ff" points="459.78,-204.15 468.46,-198.07 457.89,-197.41 459.78,-204.15"/>
<g id="a_edge12&#45;headlabel"><a xlink:href="dir_000020_000030.html" target="_top" xlink:title="2">
<text text-anchor="middle" x="457.09" y="-205.36" font-family="Helvetica,sans-Serif" font-size="10.00" fill="#63b8ff">2</text>
</a>
</g>
</g>
<!-- dir_b90494a72034161169528f50be8b61b3&#45;&gt;dir_0669efae56692bb73da75efb5ebbccdf -->
<g id="edge22" class="edge">
<title>dir_b90494a72034161169528f50be8b61b3&#45;&gt;dir_0669efae56692bb73da75efb5ebbccdf</title>
<path fill="none" stroke="#63b8ff" d="M305.01,-180.98C276.8,-172.09 232.36,-158.07 200.92,-148.15"/>
<polygon fill="#63b8ff" stroke="#63b8ff" points="201.79,-144.75 191.2,-145.08 199.69,-151.43 201.79,-144.75"/>
<g id="a_edge22&#45;headlabel"><a xlink:href="dir_000034_000082.html" target="_top" xlink:title="5">
<text text-anchor="middle" x="206.08" y="-140.63" font-family="Helvetica,sans-Serif" font-size="10.00" fill="#63b8ff">5</text>
</a>
</g>
</g>
<!-- dir_b90494a72034161169528f50be8b61b3&#45;&gt;dir_942cfae36a92b6b1c4b510e99e852d40 -->
<g id="edge23" class="edge">
<title>dir_b90494a72034161169528f50be8b61b3&#45;&gt;dir_942cfae36a92b6b1c4b510e99e852d40</title>
<path fill="none" stroke="#63b8ff" d="M336.62,-180.74C350.21,-154.98 390.23,-79.13 408.59,-44.33"/>
<polygon fill="#63b8ff" stroke="#63b8ff" points="411.78,-45.78 413.35,-35.31 405.59,-42.52 411.78,-45.78"/>
<g id="a_edge23&#45;headlabel"><a xlink:href="dir_000034_000189.html" target="_top" xlink:title="3">
<text text-anchor="middle" x="412.62" y="-47.79" font-family="Helvetica,sans-Serif" font-size="10.00" fill="#63b8ff">3</text>
</a>
</g>
</g>
<!-- dir_b90494a72034161169528f50be8b61b3&#45;&gt;dir_f555f996eeee1ebe901dc71e0c5de8ff -->
<g id="edge26" class="edge">
<title>dir_b90494a72034161169528f50be8b61b3&#45;&gt;dir_f555f996eeee1ebe901dc71e0c5de8ff</title>
<path fill="none" stroke="#63b8ff" d="M334.71,-180.88C340.83,-159.95 354.06,-105.04 339,-63 336.3,-55.46 331.3,-48.36 326.14,-42.47"/>
<polygon fill="#63b8ff" stroke="#63b8ff" points="328.66,-40.04 319.21,-35.24 323.61,-44.88 328.66,-40.04"/>
<g id="a_edge26&#45;headlabel"><a xlink:href="dir_000034_000122.html" target="_top" xlink:title="4">
<text text-anchor="middle" x="333.2" y="-38.17" font-family="Helvetica,sans-Serif" font-size="10.00" fill="#63b8ff">4</text>
</a>
</g>
</g>
<!-- dir_b90494a72034161169528f50be8b61b3&#45;&gt;dir_967eafbc0b7c635d33b7b0b328f0cb12 -->
<g id="edge24" class="edge">
<title>dir_b90494a72034161169528f50be8b61b3&#45;&gt;dir_967eafbc0b7c635d33b7b0b328f0cb12</title>
<path fill="none" stroke="#63b8ff" d="M320.43,-180.98C309.58,-173 293.12,-160.88 280.12,-151.31"/>
<polygon fill="#63b8ff" stroke="#63b8ff" points="281.91,-148.28 271.78,-145.17 277.76,-153.92 281.91,-148.28"/>
<g id="a_edge24&#45;headlabel"><a xlink:href="dir_000034_000040.html" target="_top" xlink:title="10">
<text text-anchor="middle" x="286.48" y="-145.62" font-family="Helvetica,sans-Serif" font-size="10.00" fill="#63b8ff">10</text>
</a>
</g>
</g>
<!-- dir_b90494a72034161169528f50be8b61b3&#45;&gt;dir_979062da5ab806b052b4261920d5e719 -->
<g id="edge25" class="edge">
<title>dir_b90494a72034161169528f50be8b61b3&#45;&gt;dir_979062da5ab806b052b4261920d5e719</title>
<path fill="none" stroke="#63b8ff" d="M330.12,-180.66C326.38,-163.09 317.93,-123.45 312.93,-99.95"/>
<polygon fill="#63b8ff" stroke="#63b8ff" points="316.35,-99.21 310.84,-90.16 309.5,-100.67 316.35,-99.21"/>
<g id="a_edge25&#45;headlabel"><a xlink:href="dir_000034_000123.html" target="_top" xlink:title="6">
<text text-anchor="middle" x="319.88" y="-99.63" font-family="Helvetica,sans-Serif" font-size="10.00" fill="#63b8ff">6</text>
</a>
</g>
</g>
<!-- dir_967eafbc0b7c635d33b7b0b328f0cb12&#45;&gt;dir_30ecaf38acae77be14fb9173f98f8612 -->
<g id="edge27" class="edge">
<title>dir_967eafbc0b7c635d33b7b0b328f0cb12&#45;&gt;dir_30ecaf38acae77be14fb9173f98f8612</title>
<path fill="none" stroke="#63b8ff" d="M231.72,-125.98C200.02,-116.44 148.74,-101 115.7,-91.05"/>
<polygon fill="#63b8ff" stroke="#63b8ff" points="116.66,-87.68 106.08,-88.15 114.64,-94.38 116.66,-87.68"/>
<g id="a_edge27&#45;headlabel"><a xlink:href="dir_000040_000180.html" target="_top" xlink:title="1">
<text text-anchor="middle" x="120.92" y="-83.5" font-family="Helvetica,sans-Serif" font-size="10.00" fill="#63b8ff">1</text>
</a>
</g>
</g>
<!-- dir_967eafbc0b7c635d33b7b0b328f0cb12&#45;&gt;dir_521de572ae4fe2915cc70a876c52f5b7 -->
<g id="edge28" class="edge">
<title>dir_967eafbc0b7c635d33b7b0b328f0cb12&#45;&gt;dir_521de572ae4fe2915cc70a876c52f5b7</title>
<path fill="none" stroke="#63b8ff" d="M243.13,-125.98C226.39,-117.54 200.5,-104.47 181.11,-94.68"/>
<polygon fill="#63b8ff" stroke="#63b8ff" points="182.68,-91.55 172.18,-90.17 179.53,-97.8 182.68,-91.55"/>
<g id="a_edge28&#45;headlabel"><a xlink:href="dir_000040_000046.html" target="_top" xlink:title="3">
<text text-anchor="middle" x="187.17" y="-88.14" font-family="Helvetica,sans-Serif" font-size="10.00" fill="#63b8ff">3</text>
</a>
</g>
</g>
<!-- dir_967eafbc0b7c635d33b7b0b328f0cb12&#45;&gt;dir_f555f996eeee1ebe901dc71e0c5de8ff -->
<g id="edge30" class="edge">
<title>dir_967eafbc0b7c635d33b7b0b328f0cb12&#45;&gt;dir_f555f996eeee1ebe901dc71e0c5de8ff</title>
<path fill="none" stroke="#63b8ff" d="M261.1,-125.7C263.12,-111.77 268.22,-84.03 279,-63 282.76,-55.67 288.18,-48.48 293.38,-42.44"/>
<polygon fill="#63b8ff" stroke="#63b8ff" points="296,-44.77 300.17,-35.02 290.84,-40.04 296,-44.77"/>
<g id="a_edge30&#45;headlabel"><a xlink:href="dir_000040_000122.html" target="_top" xlink:title="4">
<text text-anchor="middle" x="295.67" y="-46.83" font-family="Helvetica,sans-Serif" font-size="10.00" fill="#63b8ff">4</text>
</a>
</g>
</g>
<!-- dir_967eafbc0b7c635d33b7b0b328f0cb12&#45;&gt;dir_979062da5ab806b052b4261920d5e719 -->
<g id="edge29" class="edge">
<title>dir_967eafbc0b7c635d33b7b0b328f0cb12&#45;&gt;dir_979062da5ab806b052b4261920d5e719</title>
<path fill="none" stroke="#63b8ff" d="M262.93,-125.75C268.46,-117.95 278.82,-106.37 288.46,-97"/>
<polygon fill="#63b8ff" stroke="#63b8ff" points="290.97,-99.45 295.93,-90.09 286.21,-94.32 290.97,-99.45"/>
<g id="a_edge29&#45;headlabel"><a xlink:href="dir_000040_000123.html" target="_top" xlink:title="1">
<text text-anchor="middle" x="290.26" y="-101.48" font-family="Helvetica,sans-Serif" font-size="10.00" fill="#63b8ff">1</text>
</a>
</g>
</g>
<!-- dir_979062da5ab806b052b4261920d5e719&#45;&gt;dir_4535887b2cdca47e625f259d07db0112 -->
<g id="edge31" class="edge">
<title>dir_979062da5ab806b052b4261920d5e719&#45;&gt;dir_4535887b2cdca47e625f259d07db0112</title>
<path fill="none" stroke="#63b8ff" d="M296.72,-70.98C292.73,-68.32 288.23,-65.44 284,-63 268.55,-54.08 250.63,-45.1 236.41,-38.28"/>
<polygon fill="#63b8ff" stroke="#63b8ff" points="237.78,-35.05 227.24,-33.93 234.78,-41.38 237.78,-35.05"/>
<g id="a_edge31&#45;headlabel"><a xlink:href="dir_000123_000185.html" target="_top" xlink:title="1">
<text text-anchor="middle" x="242.24" y="-31.53" font-family="Helvetica,sans-Serif" font-size="10.00" fill="#63b8ff">1</text>
</a>
</g>
</g>
<!-- dir_979062da5ab806b052b4261920d5e719&#45;&gt;dir_942cfae36a92b6b1c4b510e99e852d40 -->
<g id="edge32" class="edge">
<title>dir_979062da5ab806b052b4261920d5e719&#45;&gt;dir_942cfae36a92b6b1c4b510e99e852d40</title>
<path fill="none" stroke="#63b8ff" d="M321.2,-70.84C325.19,-68.17 329.7,-65.33 334,-63 350.67,-53.97 370.04,-45.43 385.97,-38.88"/>
<polygon fill="#63b8ff" stroke="#63b8ff" points="387.43,-42.07 395.39,-35.08 384.81,-35.58 387.43,-42.07"/>
<g id="a_edge32&#45;headlabel"><a xlink:href="dir_000123_000189.html" target="_top" xlink:title="1">
<text text-anchor="middle" x="385.16" y="-43.55" font-family="Helvetica,sans-Serif" font-size="10.00" fill="#63b8ff">1</text>
</a>
</g>
</g>
<!-- dir_979062da5ab806b052b4261920d5e719&#45;&gt;dir_f555f996eeee1ebe901dc71e0c5de8ff -->
<g id="edge34" class="edge">
<title>dir_979062da5ab806b052b4261920d5e719&#45;&gt;dir_f555f996eeee1ebe901dc71e0c5de8ff</title>
<path fill="none" stroke="#63b8ff" d="M309,-70.75C309,-63.8 309,-53.85 309,-45.13"/>
<polygon fill="#63b8ff" stroke="#63b8ff" points="312.5,-45.09 309,-35.09 305.5,-45.09 312.5,-45.09"/>
<g id="a_edge34&#45;headlabel"><a xlink:href="dir_000123_000122.html" target="_top" xlink:title="1">
<text text-anchor="middle" x="315.34" y="-46.18" font-family="Helvetica,sans-Serif" font-size="10.00" fill="#63b8ff">1</text>
</a>
</g>
</g>
<!-- dir_979062da5ab806b052b4261920d5e719&#45;&gt;dir_967eafbc0b7c635d33b7b0b328f0cb12 -->
<g id="edge33" class="edge">
<title>dir_979062da5ab806b052b4261920d5e719&#45;&gt;dir_967eafbc0b7c635d33b7b0b328f0cb12</title>
<path fill="none" stroke="#63b8ff" d="M306.13,-90.17C300.61,-97.98 290.17,-109.64 280.49,-119.04"/>
<polygon fill="#63b8ff" stroke="#63b8ff" points="277.95,-116.62 272.99,-125.98 282.7,-121.76 277.95,-116.62"/>
<g id="a_edge33&#45;headlabel"><a xlink:href="dir_000123_000040.html" target="_top" xlink:title="3">
<text text-anchor="middle" x="278.66" y="-109.6" font-family="Helvetica,sans-Serif" font-size="10.00" fill="#63b8ff">3</text>
</a>
</g>
</g>
</g>
</svg>
