<?xml version="1.0" encoding="UTF-8" standalone="no"?>
<!DOCTYPE svg PUBLIC "-//W3C//DTD SVG 1.1//EN"
 "http://www.w3.org/Graphics/SVG/1.1/DTD/svg11.dtd">
<!-- Generated by graphviz version 2.43.0 (0)
 -->
<!-- Title: libs/di/include/di/parser/combinator Pages: 1 -->
<svg width="342pt" height="133pt"
 viewBox="0.00 0.00 342.00 133.00" xmlns="http://www.w3.org/2000/svg" xmlns:xlink="http://www.w3.org/1999/xlink">
<g id="graph0" class="graph" transform="scale(1 1) rotate(0) translate(4 129)">
<title>libs/di/include/di/parser/combinator</title>
<g id="clust1" class="cluster">
<title>clusterdir_c63ec87f2f7fd7fbd5b69a04f05a2815</title>
<g id="a_clust1"><a xlink:href="dir_c63ec87f2f7fd7fbd5b69a04f05a2815.html" target="_top" xlink:title="parser">
<polygon fill="#edf0f7" stroke="#7f7f7f" stroke-dasharray="5,2" points="8,-8 8,-117 144,-117 144,-8 8,-8"/>
<text text-anchor="middle" x="76" y="-105" font-family="Helvetica,sans-Serif" font-size="10.00">parser</text>
</a>
</g>
</g>
<!-- dir_967eafbc0b7c635d33b7b0b328f0cb12 -->
<g id="node1" class="node">
<title>dir_967eafbc0b7c635d33b7b0b328f0cb12</title>
<g id="a_node1"><a xlink:href="dir_967eafbc0b7c635d33b7b0b328f0cb12.html" target="_top" xlink:title="concepts">
<polygon fill="#a2b4d6" stroke="#404040" points="76,-35 16,-35 16,-16 76,-16 76,-35"/>
<text text-anchor="middle" x="46" y="-23" font-family="Helvetica,sans-Serif" font-size="10.00">concepts</text>
</a>
</g>
</g>
<!-- dir_979062da5ab806b052b4261920d5e719 -->
<g id="node2" class="node">
<title>dir_979062da5ab806b052b4261920d5e719</title>
<g id="a_node2"><a xlink:href="dir_979062da5ab806b052b4261920d5e719.html" target="_top" xlink:title="meta">
<polygon fill="#a2b4d6" stroke="#404040" points="136,-35 94,-35 94,-16 136,-16 136,-35"/>
<text text-anchor="middle" x="115" y="-23" font-family="Helvetica,sans-Serif" font-size="10.00">meta</text>
</a>
</g>
</g>
<!-- dir_b90494a72034161169528f50be8b61b3 -->
<g id="node3" class="node">
<title>dir_b90494a72034161169528f50be8b61b3</title>
<g id="a_node3"><a xlink:href="dir_b90494a72034161169528f50be8b61b3.html" target="_top" xlink:title="combinator">
<polygon fill="#edf0f7" stroke="#404040" stroke-width="2" points="136,-90 64,-90 64,-71 136,-71 136,-90"/>
<text text-anchor="middle" x="100" y="-78" font-family="Helvetica,sans-Serif" font-size="10.00">combinator</text>
</a>
</g>
</g>
<!-- dir_b90494a72034161169528f50be8b61b3&#45;&gt;dir_967eafbc0b7c635d33b7b0b328f0cb12 -->
<g id="edge3" class="edge">
<title>dir_b90494a72034161169528f50be8b61b3&#45;&gt;dir_967eafbc0b7c635d33b7b0b328f0cb12</title>
<path fill="none" stroke="#63b8ff" d="M91.08,-70.75C83.22,-63.03 71.57,-51.6 62.08,-42.28"/>
<polygon fill="#63b8ff" stroke="#63b8ff" points="64.34,-39.6 54.75,-35.09 59.44,-44.59 64.34,-39.6"/>
<g id="a_edge3&#45;headlabel"><a xlink:href="dir_000034_000040.html" target="_top" xlink:title="10">
<text text-anchor="middle" x="68.89" y="-37.59" font-family="Helvetica,sans-Serif" font-size="10.00" fill="#63b8ff">10</text>
</a>
</g>
</g>
<!-- dir_b90494a72034161169528f50be8b61b3&#45;&gt;dir_979062da5ab806b052b4261920d5e719 -->
<g id="edge4" class="edge">
<title>dir_b90494a72034161169528f50be8b61b3&#45;&gt;dir_979062da5ab806b052b4261920d5e719</title>
<path fill="none" stroke="#63b8ff" d="M102.48,-70.75C104.46,-63.72 107.32,-53.62 109.81,-44.84"/>
<polygon fill="#63b8ff" stroke="#63b8ff" points="113.21,-45.66 112.57,-35.09 106.48,-43.76 113.21,-45.66"/>
<g id="a_edge4&#45;headlabel"><a xlink:href="dir_000034_000123.html" target="_top" xlink:title="6">
<text text-anchor="middle" x="114.97" y="-47.4" font-family="Helvetica,sans-Serif" font-size="10.00" fill="#63b8ff">6</text>
</a>
</g>
</g>
<!-- dir_0669efae56692bb73da75efb5ebbccdf -->
<g id="node4" class="node">
<title>dir_0669efae56692bb73da75efb5ebbccdf</title>
<g id="a_node4"><a xlink:href="dir_0669efae56692bb73da75efb5ebbccdf.html" target="_top" xlink:title="function">
<polygon fill="#edf0f7" stroke="red" stroke-dasharray="5,2" points="210,-35 154,-35 154,-16 210,-16 210,-35"/>
<text text-anchor="middle" x="182" y="-23" font-family="Helvetica,sans-Serif" font-size="10.00">function</text>
</a>
</g>
</g>
<!-- dir_b90494a72034161169528f50be8b61b3&#45;&gt;dir_0669efae56692bb73da75efb5ebbccdf -->
<g id="edge1" class="edge">
<title>dir_b90494a72034161169528f50be8b61b3&#45;&gt;dir_0669efae56692bb73da75efb5ebbccdf</title>
<path fill="none" stroke="#63b8ff" d="M113.17,-70.98C125.77,-62.84 145,-50.41 159.94,-40.76"/>
<polygon fill="#63b8ff" stroke="#63b8ff" points="162.09,-43.54 168.59,-35.17 158.29,-37.66 162.09,-43.54"/>
<g id="a_edge1&#45;headlabel"><a xlink:href="dir_000034_000082.html" target="_top" xlink:title="5">
<text text-anchor="middle" x="160.61" y="-45.37" font-family="Helvetica,sans-Serif" font-size="10.00" fill="#63b8ff">5</text>
</a>
</g>
</g>
<!-- dir_942cfae36a92b6b1c4b510e99e852d40 -->
<g id="node5" class="node">
<title>dir_942cfae36a92b6b1c4b510e99e852d40</title>
<g id="a_node5"><a xlink:href="dir_942cfae36a92b6b1c4b510e99e852d40.html" target="_top" xlink:title="vocab">
<polygon fill="#edf0f7" stroke="red" stroke-dasharray="5,2" points="274,-35 228,-35 228,-16 274,-16 274,-35"/>
<text text-anchor="middle" x="251" y="-23" font-family="Helvetica,sans-Serif" font-size="10.00">vocab</text>
</a>
</g>
</g>
<!-- dir_b90494a72034161169528f50be8b61b3&#45;&gt;dir_942cfae36a92b6b1c4b510e99e852d40 -->
<g id="edge2" class="edge">
<title>dir_b90494a72034161169528f50be8b61b3&#45;&gt;dir_942cfae36a92b6b1c4b510e99e852d40</title>
<path fill="none" stroke="#63b8ff" d="M124.26,-70.98C149.77,-62.03 190.04,-47.9 218.33,-37.97"/>
<polygon fill="#63b8ff" stroke="#63b8ff" points="219.51,-41.26 227.79,-34.65 217.2,-34.66 219.51,-41.26"/>
<g id="a_edge2&#45;headlabel"><a xlink:href="dir_000034_000189.html" target="_top" xlink:title="3">
<text text-anchor="middle" x="217.06" y="-42.63" font-family="Helvetica,sans-Serif" font-size="10.00" fill="#63b8ff">3</text>
</a>
</g>
</g>
<!-- dir_f555f996eeee1ebe901dc71e0c5de8ff -->
<g id="node6" class="node">
<title>dir_f555f996eeee1ebe901dc71e0c5de8ff</title>
<g id="a_node6"><a xlink:href="dir_f555f996eeee1ebe901dc71e0c5de8ff.html" target="_top" xlink:title="meta">
<polygon fill="#edf0f7" stroke="#7f7f7f" points="334,-35 292,-35 292,-16 334,-16 334,-35"/>
<text text-anchor="middle" x="313" y="-23" font-family="Helvetica,sans-Serif" font-size="10.00">meta</text>
</a>
</g>
</g>
<!-- dir_b90494a72034161169528f50be8b61b3&#45;&gt;dir_f555f996eeee1ebe901dc71e0c5de8ff -->
<g id="edge5" class="edge">
<title>dir_b90494a72034161169528f50be8b61b3&#45;&gt;dir_f555f996eeee1ebe901dc71e0c5de8ff</title>
<path fill="none" stroke="#63b8ff" d="M136.21,-71.12C171.18,-62.93 225.86,-49.88 281.97,-35.2"/>
<polygon fill="#63b8ff" stroke="#63b8ff" points="282.94,-38.56 291.72,-32.64 281.16,-31.79 282.94,-38.56"/>
<g id="a_edge5&#45;headlabel"><a xlink:href="dir_000034_000122.html" target="_top" xlink:title="4">
<text text-anchor="middle" x="280.19" y="-39.72" font-family="Helvetica,sans-Serif" font-size="10.00" fill="#63b8ff">4</text>
</a>
</g>
</g>
</g>
</svg>
