<?xml version="1.0" encoding="UTF-8" standalone="no"?>
<!DOCTYPE svg PUBLIC "-//W3C//DTD SVG 1.1//EN"
 "http://www.w3.org/Graphics/SVG/1.1/DTD/svg11.dtd">
<!-- Generated by graphviz version 2.43.0 (0)
 -->
<!-- Title: libs/di/include/di/any/meta Pages: 1 -->
<svg width="144pt" height="133pt"
 viewBox="0.00 0.00 144.00 133.00" xmlns="http://www.w3.org/2000/svg" xmlns:xlink="http://www.w3.org/1999/xlink">
<g id="graph0" class="graph" transform="scale(1 1) rotate(0) translate(4 129)">
<title>libs/di/include/di/any/meta</title>
<g id="clust1" class="cluster">
<title>clusterdir_e44b40e2f7a090819cf1915a0b103ff1</title>
<g id="a_clust1"><a xlink:href="dir_e44b40e2f7a090819cf1915a0b103ff1.html" target="_top" xlink:title="any">
<polygon fill="#edf0f7" stroke="#7f7f7f" stroke-dasharray="5,2" points="8,-8 8,-117 84,-117 84,-8 8,-8"/>
<text text-anchor="middle" x="46" y="-105" font-family="Helvetica,sans-Serif" font-size="10.00">any</text>
</a>
</g>
</g>
<!-- dir_93a143d10651dfa76952b16fed4fc196 -->
<g id="node1" class="node">
<title>dir_93a143d10651dfa76952b16fed4fc196</title>
<g id="a_node1"><a xlink:href="dir_93a143d10651dfa76952b16fed4fc196.html" target="_top" xlink:title="concepts">
<polygon fill="#a2b4d6" stroke="#404040" points="76,-35 16,-35 16,-16 76,-16 76,-35"/>
<text text-anchor="middle" x="46" y="-23" font-family="Helvetica,sans-Serif" font-size="10.00">concepts</text>
</a>
</g>
</g>
<!-- dir_67d9f0ef52e6a8291cee5653a1bfd29e -->
<g id="node2" class="node">
<title>dir_67d9f0ef52e6a8291cee5653a1bfd29e</title>
<g id="a_node2"><a xlink:href="dir_67d9f0ef52e6a8291cee5653a1bfd29e.html" target="_top" xlink:title="meta">
<polygon fill="#edf0f7" stroke="#404040" stroke-width="2" points="71,-90 29,-90 29,-71 71,-71 71,-90"/>
<text text-anchor="middle" x="50" y="-78" font-family="Helvetica,sans-Serif" font-size="10.00">meta</text>
</a>
</g>
</g>
<!-- dir_67d9f0ef52e6a8291cee5653a1bfd29e&#45;&gt;dir_93a143d10651dfa76952b16fed4fc196 -->
<g id="edge1" class="edge">
<title>dir_67d9f0ef52e6a8291cee5653a1bfd29e&#45;&gt;dir_93a143d10651dfa76952b16fed4fc196</title>
<path fill="none" stroke="#63b8ff" d="M49.34,-70.75C48.82,-63.8 48.06,-53.85 47.41,-45.13"/>
<polygon fill="#63b8ff" stroke="#63b8ff" points="50.89,-44.8 46.65,-35.09 43.91,-45.32 50.89,-44.8"/>
<g id="a_edge1&#45;headlabel"><a xlink:href="dir_000119_000035.html" target="_top" xlink:title="4">
<text text-anchor="middle" x="53.99" y="-45.67" font-family="Helvetica,sans-Serif" font-size="10.00" fill="#63b8ff">4</text>
</a>
</g>
</g>
<!-- dir_f555f996eeee1ebe901dc71e0c5de8ff -->
<g id="node3" class="node">
<title>dir_f555f996eeee1ebe901dc71e0c5de8ff</title>
<g id="a_node3"><a xlink:href="dir_f555f996eeee1ebe901dc71e0c5de8ff.html" target="_top" xlink:title="meta">
<polygon fill="#edf0f7" stroke="#7f7f7f" points="136,-35 94,-35 94,-16 136,-16 136,-35"/>
<text text-anchor="middle" x="115" y="-23" font-family="Helvetica,sans-Serif" font-size="10.00">meta</text>
</a>
</g>
</g>
<!-- dir_67d9f0ef52e6a8291cee5653a1bfd29e&#45;&gt;dir_f555f996eeee1ebe901dc71e0c5de8ff -->
<g id="edge2" class="edge">
<title>dir_67d9f0ef52e6a8291cee5653a1bfd29e&#45;&gt;dir_f555f996eeee1ebe901dc71e0c5de8ff</title>
<path fill="none" stroke="#63b8ff" d="M60.44,-70.98C70.15,-63.07 84.82,-51.11 96.5,-41.58"/>
<polygon fill="#63b8ff" stroke="#63b8ff" points="98.83,-44.2 104.37,-35.17 94.4,-38.78 98.83,-44.2"/>
<g id="a_edge2&#45;headlabel"><a xlink:href="dir_000119_000122.html" target="_top" xlink:title="4">
<text text-anchor="middle" x="97.84" y="-46.17" font-family="Helvetica,sans-Serif" font-size="10.00" fill="#63b8ff">4</text>
</a>
</g>
</g>
</g>
</svg>
