<?xml version="1.0" encoding="UTF-8" standalone="no"?>
<!DOCTYPE svg PUBLIC "-//W3C//DTD SVG 1.1//EN"
 "http://www.w3.org/Graphics/SVG/1.1/DTD/svg11.dtd">
<!-- Generated by graphviz version 2.43.0 (0)
 -->
<!-- Title: libs/di/include/di/sync Pages: 1 -->
<svg width="424pt" height="196pt"
 viewBox="0.00 0.00 424.00 196.00" xmlns="http://www.w3.org/2000/svg" xmlns:xlink="http://www.w3.org/1999/xlink">
<g id="graph0" class="graph" transform="scale(1 1) rotate(0) translate(4 192)">
<title>libs/di/include/di/sync</title>
<g id="clust1" class="cluster">
<title>clusterdir_f95a1a0ab1b96e316090c1bcac3c2c99</title>
<g id="a_clust1"><a xlink:href="dir_f95a1a0ab1b96e316090c1bcac3c2c99.html" target="_top" xlink:title="di">
<polygon fill="#edf0f7" stroke="#7f7f7f" stroke-dasharray="5,2" points="8,-8 8,-180 408,-180 408,-8 8,-8"/>
<text text-anchor="middle" x="208" y="-168" font-family="Helvetica,sans-Serif" font-size="10.00">di</text>
</a>
</g>
</g>
<g id="clust2" class="cluster">
<title>clusterdir_9bfc08b7c5b17d043ebb5b9fbb866539</title>
<g id="a_clust2"><a xlink:href="dir_9bfc08b7c5b17d043ebb5b9fbb866539.html" target="_top">
<polygon fill="#edf0f7" stroke="#404040" stroke-width="2" points="28,-63 28,-153 192,-153 192,-63 28,-63"/>
</a>
</g>
</g>
<!-- dir_0669efae56692bb73da75efb5ebbccdf -->
<g id="node1" class="node">
<title>dir_0669efae56692bb73da75efb5ebbccdf</title>
<g id="a_node1"><a xlink:href="dir_0669efae56692bb73da75efb5ebbccdf.html" target="_top" xlink:title="function">
<polygon fill="#a2b4d6" stroke="red" points="72,-35 16,-35 16,-16 72,-16 72,-35"/>
<text text-anchor="middle" x="44" y="-23" font-family="Helvetica,sans-Serif" font-size="10.00">function</text>
</a>
</g>
</g>
<!-- dir_30ecaf38acae77be14fb9173f98f8612 -->
<g id="node2" class="node">
<title>dir_30ecaf38acae77be14fb9173f98f8612</title>
<g id="a_node2"><a xlink:href="dir_30ecaf38acae77be14fb9173f98f8612.html" target="_top" xlink:title="types">
<polygon fill="#a2b4d6" stroke="#404040" points="350,-90 306,-90 306,-71 350,-71 350,-90"/>
<text text-anchor="middle" x="328" y="-78" font-family="Helvetica,sans-Serif" font-size="10.00">types</text>
</a>
</g>
</g>
<!-- dir_4535887b2cdca47e625f259d07db0112 -->
<g id="node3" class="node">
<title>dir_4535887b2cdca47e625f259d07db0112</title>
<g id="a_node3"><a xlink:href="dir_4535887b2cdca47e625f259d07db0112.html" target="_top" xlink:title="util">
<polygon fill="#a2b4d6" stroke="#404040" points="400,-90 368,-90 368,-71 400,-71 400,-90"/>
<text text-anchor="middle" x="384" y="-78" font-family="Helvetica,sans-Serif" font-size="10.00">util</text>
</a>
</g>
</g>
<!-- dir_521de572ae4fe2915cc70a876c52f5b7 -->
<g id="node4" class="node">
<title>dir_521de572ae4fe2915cc70a876c52f5b7</title>
<g id="a_node4"><a xlink:href="dir_521de572ae4fe2915cc70a876c52f5b7.html" target="_top" xlink:title="container">
<polygon fill="#a2b4d6" stroke="red" points="212,-35 150,-35 150,-16 212,-16 212,-35"/>
<text text-anchor="middle" x="181" y="-23" font-family="Helvetica,sans-Serif" font-size="10.00">container</text>
</a>
</g>
</g>
<!-- dir_942cfae36a92b6b1c4b510e99e852d40 -->
<g id="node5" class="node">
<title>dir_942cfae36a92b6b1c4b510e99e852d40</title>
<g id="a_node5"><a xlink:href="dir_942cfae36a92b6b1c4b510e99e852d40.html" target="_top" xlink:title="vocab">
<polygon fill="#a2b4d6" stroke="red" points="248,-90 202,-90 202,-71 248,-71 248,-90"/>
<text text-anchor="middle" x="225" y="-78" font-family="Helvetica,sans-Serif" font-size="10.00">vocab</text>
</a>
</g>
</g>
<!-- dir_aaf67126bd5deefc4d96704f76f22cc2 -->
<g id="node6" class="node">
<title>dir_aaf67126bd5deefc4d96704f76f22cc2</title>
<g id="a_node6"><a xlink:href="dir_aaf67126bd5deefc4d96704f76f22cc2.html" target="_top" xlink:title="platform">
<polygon fill="#a2b4d6" stroke="#404040" points="302.5,-35 243.5,-35 243.5,-16 302.5,-16 302.5,-35"/>
<text text-anchor="middle" x="273" y="-23" font-family="Helvetica,sans-Serif" font-size="10.00">platform</text>
</a>
</g>
</g>
<!-- dir_f555f996eeee1ebe901dc71e0c5de8ff -->
<g id="node7" class="node">
<title>dir_f555f996eeee1ebe901dc71e0c5de8ff</title>
<g id="a_node7"><a xlink:href="dir_f555f996eeee1ebe901dc71e0c5de8ff.html" target="_top" xlink:title="meta">
<polygon fill="#a2b4d6" stroke="#404040" points="132,-35 90,-35 90,-16 132,-16 132,-35"/>
<text text-anchor="middle" x="111" y="-23" font-family="Helvetica,sans-Serif" font-size="10.00">meta</text>
</a>
</g>
</g>
<!-- dir_9bfc08b7c5b17d043ebb5b9fbb866539 -->
<g id="node8" class="node">
<title>dir_9bfc08b7c5b17d043ebb5b9fbb866539</title>
<text text-anchor="middle" x="164" y="-133" font-family="Helvetica,sans-Serif" font-size="10.00">sync</text>
</g>
<!-- dir_9bfc08b7c5b17d043ebb5b9fbb866539&#45;&gt;dir_0669efae56692bb73da75efb5ebbccdf -->
<g id="edge1" class="edge">
<title>dir_9bfc08b7c5b17d043ebb5b9fbb866539&#45;&gt;dir_0669efae56692bb73da75efb5ebbccdf</title>
<path fill="none" stroke="#63b8ff" d="M144,-134.75C112.99,-133.93 54.05,-127.23 27,-90 17.08,-76.35 24.29,-57.28 32.15,-43.61"/>
<polygon fill="#63b8ff" stroke="#63b8ff" points="35.12,-45.46 37.5,-35.14 29.2,-41.73 35.12,-45.46"/>
<g id="a_edge1&#45;headlabel"><a xlink:href="dir_000162_000082.html" target="_top" xlink:title="2">
<text text-anchor="middle" x="35.61" y="-47.52" font-family="Helvetica,sans-Serif" font-size="10.00" fill="#63b8ff">2</text>
</a>
</g>
</g>
<!-- dir_9bfc08b7c5b17d043ebb5b9fbb866539&#45;&gt;dir_30ecaf38acae77be14fb9173f98f8612 -->
<g id="edge2" class="edge">
<title>dir_9bfc08b7c5b17d043ebb5b9fbb866539&#45;&gt;dir_30ecaf38acae77be14fb9173f98f8612</title>
<path fill="none" stroke="#63b8ff" d="M183.78,-128.11C211.65,-119.1 262.79,-102.57 296.08,-91.82"/>
<polygon fill="#63b8ff" stroke="#63b8ff" points="297.35,-95.08 305.79,-88.68 295.2,-88.42 297.35,-95.08"/>
<g id="a_edge2&#45;headlabel"><a xlink:href="dir_000162_000180.html" target="_top" xlink:title="2">
<text text-anchor="middle" x="294.81" y="-96.39" font-family="Helvetica,sans-Serif" font-size="10.00" fill="#63b8ff">2</text>
</a>
</g>
</g>
<!-- dir_9bfc08b7c5b17d043ebb5b9fbb866539&#45;&gt;dir_4535887b2cdca47e625f259d07db0112 -->
<g id="edge4" class="edge">
<title>dir_9bfc08b7c5b17d043ebb5b9fbb866539&#45;&gt;dir_4535887b2cdca47e625f259d07db0112</title>
<path fill="none" stroke="#63b8ff" d="M183.54,-130.74C217.27,-124.1 288.72,-109.38 358.16,-90"/>
<polygon fill="#63b8ff" stroke="#63b8ff" points="359.27,-93.32 367.94,-87.23 357.36,-86.59 359.27,-93.32"/>
<g id="a_edge4&#45;headlabel"><a xlink:href="dir_000162_000185.html" target="_top" xlink:title="5">
<text text-anchor="middle" x="356.58" y="-94.53" font-family="Helvetica,sans-Serif" font-size="10.00" fill="#63b8ff">5</text>
</a>
</g>
</g>
<!-- dir_9bfc08b7c5b17d043ebb5b9fbb866539&#45;&gt;dir_942cfae36a92b6b1c4b510e99e852d40 -->
<g id="edge5" class="edge">
<title>dir_9bfc08b7c5b17d043ebb5b9fbb866539&#45;&gt;dir_942cfae36a92b6b1c4b510e99e852d40</title>
<path fill="none" stroke="#63b8ff" d="M173.8,-125.98C182.82,-118.15 196.41,-106.34 207.32,-96.86"/>
<polygon fill="#63b8ff" stroke="#63b8ff" points="209.77,-99.37 215.02,-90.17 205.18,-94.09 209.77,-99.37"/>
<g id="a_edge5&#45;headlabel"><a xlink:href="dir_000162_000189.html" target="_top" xlink:title="1">
<text text-anchor="middle" x="208.92" y="-101.37" font-family="Helvetica,sans-Serif" font-size="10.00" fill="#63b8ff">1</text>
</a>
</g>
</g>
<!-- dir_9bfc08b7c5b17d043ebb5b9fbb866539&#45;&gt;dir_aaf67126bd5deefc4d96704f76f22cc2 -->
<g id="edge7" class="edge">
<title>dir_9bfc08b7c5b17d043ebb5b9fbb866539&#45;&gt;dir_aaf67126bd5deefc4d96704f76f22cc2</title>
<path fill="none" stroke="#63b8ff" d="M183.69,-131.54C206.83,-126.95 244.54,-115.79 264,-90 273.54,-77.36 275.26,-59.17 274.9,-45.5"/>
<polygon fill="#63b8ff" stroke="#63b8ff" points="278.38,-45.05 274.24,-35.3 271.39,-45.5 278.38,-45.05"/>
<g id="a_edge7&#45;headlabel"><a xlink:href="dir_000162_000135.html" target="_top" xlink:title="2">
<text text-anchor="middle" x="281.44" y="-45.95" font-family="Helvetica,sans-Serif" font-size="10.00" fill="#63b8ff">2</text>
</a>
</g>
</g>
<!-- dir_9bfc08b7c5b17d043ebb5b9fbb866539&#45;&gt;dir_f555f996eeee1ebe901dc71e0c5de8ff -->
<g id="edge8" class="edge">
<title>dir_9bfc08b7c5b17d043ebb5b9fbb866539&#45;&gt;dir_f555f996eeee1ebe901dc71e0c5de8ff</title>
<path fill="none" stroke="#63b8ff" d="M183.6,-128.92C217.45,-118.32 281.06,-93.56 257,-63 226.05,-23.69 195.92,-45.6 142.21,-34.93"/>
<polygon fill="#63b8ff" stroke="#63b8ff" points="142.81,-31.48 132.28,-32.64 141.23,-38.3 142.81,-31.48"/>
<g id="a_edge8&#45;headlabel"><a xlink:href="dir_000162_000122.html" target="_top" xlink:title="12">
<text text-anchor="middle" x="146.95" y="-27.02" font-family="Helvetica,sans-Serif" font-size="10.00" fill="#63b8ff">12</text>
</a>
</g>
</g>
<!-- dir_aa189b53646e1612615e17ae790051e7 -->
<g id="node9" class="node">
<title>dir_aa189b53646e1612615e17ae790051e7</title>
<g id="a_node9"><a xlink:href="dir_aa189b53646e1612615e17ae790051e7.html" target="_top" xlink:title="concepts">
<polygon fill="#a2b4d6" stroke="#404040" points="96,-90 36,-90 36,-71 96,-71 96,-90"/>
<text text-anchor="middle" x="66" y="-78" font-family="Helvetica,sans-Serif" font-size="10.00">concepts</text>
</a>
</g>
</g>
<!-- dir_9bfc08b7c5b17d043ebb5b9fbb866539&#45;&gt;dir_aa189b53646e1612615e17ae790051e7 -->
<g id="edge6" class="edge">
<title>dir_9bfc08b7c5b17d043ebb5b9fbb866539&#45;&gt;dir_aa189b53646e1612615e17ae790051e7</title>
<path fill="none" stroke="#63b8ff" d="M148.25,-125.98C132.77,-117.61 108.91,-104.7 90.86,-94.95"/>
<polygon fill="#63b8ff" stroke="#63b8ff" points="92.49,-91.85 82.03,-90.17 89.16,-98.01 92.49,-91.85"/>
<g id="a_edge6&#45;headlabel"><a xlink:href="dir_000162_000042.html" target="_top" xlink:title="6">
<text text-anchor="middle" x="97.01" y="-88.56" font-family="Helvetica,sans-Serif" font-size="10.00" fill="#63b8ff">6</text>
</a>
</g>
</g>
<!-- dir_3b5a57c4d126affc15d801943d3b2259 -->
<g id="node10" class="node">
<title>dir_3b5a57c4d126affc15d801943d3b2259</title>
<g id="a_node10"><a xlink:href="dir_3b5a57c4d126affc15d801943d3b2259.html" target="_top" xlink:title="stop_token">
<polygon fill="#a2b4d6" stroke="#404040" points="184,-90 114,-90 114,-71 184,-71 184,-90"/>
<text text-anchor="middle" x="149" y="-78" font-family="Helvetica,sans-Serif" font-size="10.00">stop_token</text>
</a>
</g>
</g>
<!-- dir_9bfc08b7c5b17d043ebb5b9fbb866539&#45;&gt;dir_3b5a57c4d126affc15d801943d3b2259 -->
<g id="edge3" class="edge">
<title>dir_9bfc08b7c5b17d043ebb5b9fbb866539&#45;&gt;dir_3b5a57c4d126affc15d801943d3b2259</title>
<path fill="none" stroke="#63b8ff" d="M161.52,-125.75C159.54,-118.72 156.68,-108.62 154.19,-99.84"/>
<polygon fill="#63b8ff" stroke="#63b8ff" points="157.52,-98.76 151.43,-90.09 150.79,-100.66 157.52,-98.76"/>
<g id="a_edge3&#45;headlabel"><a xlink:href="dir_000162_000158.html" target="_top" xlink:title="1">
<text text-anchor="middle" x="161.23" y="-98.94" font-family="Helvetica,sans-Serif" font-size="10.00" fill="#63b8ff">1</text>
</a>
</g>
</g>
<!-- dir_aa189b53646e1612615e17ae790051e7&#45;&gt;dir_0669efae56692bb73da75efb5ebbccdf -->
<g id="edge9" class="edge">
<title>dir_aa189b53646e1612615e17ae790051e7&#45;&gt;dir_0669efae56692bb73da75efb5ebbccdf</title>
<path fill="none" stroke="#63b8ff" d="M62.37,-70.75C59.42,-63.65 55.17,-53.4 51.49,-44.56"/>
<polygon fill="#63b8ff" stroke="#63b8ff" points="54.63,-42.98 47.57,-35.09 48.17,-45.67 54.63,-42.98"/>
<g id="a_edge9&#45;headlabel"><a xlink:href="dir_000042_000082.html" target="_top" xlink:title="1">
<text text-anchor="middle" x="58.63" y="-42.71" font-family="Helvetica,sans-Serif" font-size="10.00" fill="#63b8ff">1</text>
</a>
</g>
</g>
<!-- dir_aa189b53646e1612615e17ae790051e7&#45;&gt;dir_f555f996eeee1ebe901dc71e0c5de8ff -->
<g id="edge10" class="edge">
<title>dir_aa189b53646e1612615e17ae790051e7&#45;&gt;dir_f555f996eeee1ebe901dc71e0c5de8ff</title>
<path fill="none" stroke="#63b8ff" d="M73.43,-70.75C79.85,-63.18 89.31,-52.05 97.12,-42.84"/>
<polygon fill="#63b8ff" stroke="#63b8ff" points="99.9,-44.98 103.71,-35.09 94.57,-40.45 99.9,-44.98"/>
<g id="a_edge10&#45;headlabel"><a xlink:href="dir_000042_000122.html" target="_top" xlink:title="5">
<text text-anchor="middle" x="99.74" y="-47.06" font-family="Helvetica,sans-Serif" font-size="10.00" fill="#63b8ff">5</text>
</a>
</g>
</g>
<!-- dir_3b5a57c4d126affc15d801943d3b2259&#45;&gt;dir_521de572ae4fe2915cc70a876c52f5b7 -->
<g id="edge11" class="edge">
<title>dir_3b5a57c4d126affc15d801943d3b2259&#45;&gt;dir_521de572ae4fe2915cc70a876c52f5b7</title>
<path fill="none" stroke="#63b8ff" d="M154.28,-70.75C158.71,-63.42 165.16,-52.73 170.62,-43.7"/>
<polygon fill="#63b8ff" stroke="#63b8ff" points="173.64,-45.46 175.81,-35.09 167.65,-41.84 173.64,-45.46"/>
<g id="a_edge11&#45;headlabel"><a xlink:href="dir_000158_000046.html" target="_top" xlink:title="2">
<text text-anchor="middle" x="174.21" y="-47.5" font-family="Helvetica,sans-Serif" font-size="10.00" fill="#63b8ff">2</text>
</a>
</g>
</g>
<!-- dir_3b5a57c4d126affc15d801943d3b2259&#45;&gt;dir_aaf67126bd5deefc4d96704f76f22cc2 -->
<g id="edge12" class="edge">
<title>dir_3b5a57c4d126affc15d801943d3b2259&#45;&gt;dir_aaf67126bd5deefc4d96704f76f22cc2</title>
<path fill="none" stroke="#63b8ff" d="M168.92,-70.98C189.05,-62.38 220.38,-48.99 243.41,-39.15"/>
<polygon fill="#63b8ff" stroke="#63b8ff" points="244.9,-42.32 252.71,-35.17 242.14,-35.88 244.9,-42.32"/>
<g id="a_edge12&#45;headlabel"><a xlink:href="dir_000158_000135.html" target="_top" xlink:title="1">
<text text-anchor="middle" x="242.71" y="-43.84" font-family="Helvetica,sans-Serif" font-size="10.00" fill="#63b8ff">1</text>
</a>
</g>
</g>
</g>
</svg>
