<?xml version="1.0" encoding="UTF-8" standalone="no"?>
<!DOCTYPE svg PUBLIC "-//W3C//DTD SVG 1.1//EN"
 "http://www.w3.org/Graphics/SVG/1.1/DTD/svg11.dtd">
<!-- Generated by graphviz version 2.43.0 (0)
 -->
<!-- Title: libs/di/include/di/reflect Pages: 1 -->
<svg width="496pt" height="133pt"
 viewBox="0.00 0.00 496.00 133.00" xmlns="http://www.w3.org/2000/svg" xmlns:xlink="http://www.w3.org/1999/xlink">
<g id="graph0" class="graph" transform="scale(1 1) rotate(0) translate(4 129)">
<title>libs/di/include/di/reflect</title>
<g id="clust1" class="cluster">
<title>clusterdir_f95a1a0ab1b96e316090c1bcac3c2c99</title>
<g id="a_clust1"><a xlink:href="dir_f95a1a0ab1b96e316090c1bcac3c2c99.html" target="_top" xlink:title="di">
<polygon fill="#edf0f7" stroke="#7f7f7f" stroke-dasharray="5,2" points="8,-8 8,-117 480,-117 480,-8 8,-8"/>
<text text-anchor="middle" x="244" y="-105" font-family="Helvetica,sans-Serif" font-size="10.00">di</text>
</a>
</g>
</g>
<!-- dir_0669efae56692bb73da75efb5ebbccdf -->
<g id="node1" class="node">
<title>dir_0669efae56692bb73da75efb5ebbccdf</title>
<g id="a_node1"><a xlink:href="dir_0669efae56692bb73da75efb5ebbccdf.html" target="_top" xlink:title="function">
<polygon fill="#a2b4d6" stroke="red" points="72,-35 16,-35 16,-16 72,-16 72,-35"/>
<text text-anchor="middle" x="44" y="-23" font-family="Helvetica,sans-Serif" font-size="10.00">function</text>
</a>
</g>
</g>
<!-- dir_30ecaf38acae77be14fb9173f98f8612 -->
<g id="node2" class="node">
<title>dir_30ecaf38acae77be14fb9173f98f8612</title>
<g id="a_node2"><a xlink:href="dir_30ecaf38acae77be14fb9173f98f8612.html" target="_top" xlink:title="types">
<polygon fill="#a2b4d6" stroke="#404040" points="134,-35 90,-35 90,-16 134,-16 134,-35"/>
<text text-anchor="middle" x="112" y="-23" font-family="Helvetica,sans-Serif" font-size="10.00">types</text>
</a>
</g>
</g>
<!-- dir_521de572ae4fe2915cc70a876c52f5b7 -->
<g id="node3" class="node">
<title>dir_521de572ae4fe2915cc70a876c52f5b7</title>
<g id="a_node3"><a xlink:href="dir_521de572ae4fe2915cc70a876c52f5b7.html" target="_top" xlink:title="container">
<polygon fill="#a2b4d6" stroke="red" points="214,-35 152,-35 152,-16 214,-16 214,-35"/>
<text text-anchor="middle" x="183" y="-23" font-family="Helvetica,sans-Serif" font-size="10.00">container</text>
</a>
</g>
</g>
<!-- dir_942cfae36a92b6b1c4b510e99e852d40 -->
<g id="node4" class="node">
<title>dir_942cfae36a92b6b1c4b510e99e852d40</title>
<g id="a_node4"><a xlink:href="dir_942cfae36a92b6b1c4b510e99e852d40.html" target="_top" xlink:title="vocab">
<polygon fill="#a2b4d6" stroke="red" points="278,-35 232,-35 232,-16 278,-16 278,-35"/>
<text text-anchor="middle" x="255" y="-23" font-family="Helvetica,sans-Serif" font-size="10.00">vocab</text>
</a>
</g>
</g>
<!-- dir_c63ec87f2f7fd7fbd5b69a04f05a2815 -->
<g id="node5" class="node">
<title>dir_c63ec87f2f7fd7fbd5b69a04f05a2815</title>
<g id="a_node5"><a xlink:href="dir_c63ec87f2f7fd7fbd5b69a04f05a2815.html" target="_top" xlink:title="parser">
<polygon fill="#a2b4d6" stroke="red" points="343.5,-35 296.5,-35 296.5,-16 343.5,-16 343.5,-35"/>
<text text-anchor="middle" x="320" y="-23" font-family="Helvetica,sans-Serif" font-size="10.00">parser</text>
</a>
</g>
</g>
<!-- dir_e41b746b2bc627b26c4c637af42fb69a -->
<g id="node6" class="node">
<title>dir_e41b746b2bc627b26c4c637af42fb69a</title>
<g id="a_node6"><a xlink:href="dir_e41b746b2bc627b26c4c637af42fb69a.html" target="_top" xlink:title="format">
<polygon fill="#a2b4d6" stroke="red" points="412,-35 362,-35 362,-16 412,-16 412,-35"/>
<text text-anchor="middle" x="387" y="-23" font-family="Helvetica,sans-Serif" font-size="10.00">format</text>
</a>
</g>
</g>
<!-- dir_f555f996eeee1ebe901dc71e0c5de8ff -->
<g id="node7" class="node">
<title>dir_f555f996eeee1ebe901dc71e0c5de8ff</title>
<g id="a_node7"><a xlink:href="dir_f555f996eeee1ebe901dc71e0c5de8ff.html" target="_top" xlink:title="meta">
<polygon fill="#a2b4d6" stroke="#404040" points="472,-35 430,-35 430,-16 472,-16 472,-35"/>
<text text-anchor="middle" x="451" y="-23" font-family="Helvetica,sans-Serif" font-size="10.00">meta</text>
</a>
</g>
</g>
<!-- dir_9971a148f77c599abaa54299590fb7b2 -->
<g id="node8" class="node">
<title>dir_9971a148f77c599abaa54299590fb7b2</title>
<g id="a_node8"><a xlink:href="dir_9971a148f77c599abaa54299590fb7b2.html" target="_top" xlink:title="reflect">
<polygon fill="#edf0f7" stroke="#404040" stroke-width="2" points="278.5,-90 231.5,-90 231.5,-71 278.5,-71 278.5,-90"/>
<text text-anchor="middle" x="255" y="-78" font-family="Helvetica,sans-Serif" font-size="10.00">reflect</text>
</a>
</g>
</g>
<!-- dir_9971a148f77c599abaa54299590fb7b2&#45;&gt;dir_0669efae56692bb73da75efb5ebbccdf -->
<g id="edge1" class="edge">
<title>dir_9971a148f77c599abaa54299590fb7b2&#45;&gt;dir_0669efae56692bb73da75efb5ebbccdf</title>
<path fill="none" stroke="#63b8ff" d="M231.21,-73.52C194.89,-64.4 125.28,-46.92 81.94,-36.03"/>
<polygon fill="#63b8ff" stroke="#63b8ff" points="82.6,-32.59 72.05,-33.55 80.9,-39.38 82.6,-32.59"/>
<g id="a_edge1&#45;headlabel"><a xlink:href="dir_000145_000082.html" target="_top" xlink:title="2">
<text text-anchor="middle" x="86.78" y="-28.21" font-family="Helvetica,sans-Serif" font-size="10.00" fill="#63b8ff">2</text>
</a>
</g>
</g>
<!-- dir_9971a148f77c599abaa54299590fb7b2&#45;&gt;dir_30ecaf38acae77be14fb9173f98f8612 -->
<g id="edge2" class="edge">
<title>dir_9971a148f77c599abaa54299590fb7b2&#45;&gt;dir_30ecaf38acae77be14fb9173f98f8612</title>
<path fill="none" stroke="#63b8ff" d="M232.02,-70.98C208.22,-62.16 170.84,-48.31 144.11,-38.4"/>
<polygon fill="#63b8ff" stroke="#63b8ff" points="145.04,-35.01 134.45,-34.82 142.61,-41.58 145.04,-35.01"/>
<g id="a_edge2&#45;headlabel"><a xlink:href="dir_000145_000180.html" target="_top" xlink:title="2">
<text text-anchor="middle" x="149.4" y="-31.1" font-family="Helvetica,sans-Serif" font-size="10.00" fill="#63b8ff">2</text>
</a>
</g>
</g>
<!-- dir_9971a148f77c599abaa54299590fb7b2&#45;&gt;dir_521de572ae4fe2915cc70a876c52f5b7 -->
<g id="edge3" class="edge">
<title>dir_9971a148f77c599abaa54299590fb7b2&#45;&gt;dir_521de572ae4fe2915cc70a876c52f5b7</title>
<path fill="none" stroke="#63b8ff" d="M243.43,-70.98C232.58,-63 216.12,-50.88 203.12,-41.31"/>
<polygon fill="#63b8ff" stroke="#63b8ff" points="204.91,-38.28 194.78,-35.17 200.76,-43.92 204.91,-38.28"/>
<g id="a_edge3&#45;headlabel"><a xlink:href="dir_000145_000046.html" target="_top" xlink:title="5">
<text text-anchor="middle" x="209.48" y="-35.62" font-family="Helvetica,sans-Serif" font-size="10.00" fill="#63b8ff">5</text>
</a>
</g>
</g>
<!-- dir_9971a148f77c599abaa54299590fb7b2&#45;&gt;dir_942cfae36a92b6b1c4b510e99e852d40 -->
<g id="edge4" class="edge">
<title>dir_9971a148f77c599abaa54299590fb7b2&#45;&gt;dir_942cfae36a92b6b1c4b510e99e852d40</title>
<path fill="none" stroke="#63b8ff" d="M255,-70.75C255,-63.8 255,-53.85 255,-45.13"/>
<polygon fill="#63b8ff" stroke="#63b8ff" points="258.5,-45.09 255,-35.09 251.5,-45.09 258.5,-45.09"/>
<g id="a_edge4&#45;headlabel"><a xlink:href="dir_000145_000189.html" target="_top" xlink:title="5">
<text text-anchor="middle" x="261.34" y="-46.18" font-family="Helvetica,sans-Serif" font-size="10.00" fill="#63b8ff">5</text>
</a>
</g>
</g>
<!-- dir_9971a148f77c599abaa54299590fb7b2&#45;&gt;dir_c63ec87f2f7fd7fbd5b69a04f05a2815 -->
<g id="edge5" class="edge">
<title>dir_9971a148f77c599abaa54299590fb7b2&#45;&gt;dir_c63ec87f2f7fd7fbd5b69a04f05a2815</title>
<path fill="none" stroke="#63b8ff" d="M265.44,-70.98C275.15,-63.07 289.82,-51.11 301.5,-41.58"/>
<polygon fill="#63b8ff" stroke="#63b8ff" points="303.83,-44.2 309.37,-35.17 299.4,-38.78 303.83,-44.2"/>
<g id="a_edge5&#45;headlabel"><a xlink:href="dir_000145_000133.html" target="_top" xlink:title="3">
<text text-anchor="middle" x="302.84" y="-46.17" font-family="Helvetica,sans-Serif" font-size="10.00" fill="#63b8ff">3</text>
</a>
</g>
</g>
<!-- dir_9971a148f77c599abaa54299590fb7b2&#45;&gt;dir_e41b746b2bc627b26c4c637af42fb69a -->
<g id="edge6" class="edge">
<title>dir_9971a148f77c599abaa54299590fb7b2&#45;&gt;dir_e41b746b2bc627b26c4c637af42fb69a</title>
<path fill="none" stroke="#63b8ff" d="M276.21,-70.98C297.73,-62.34 331.28,-48.87 355.83,-39.02"/>
<polygon fill="#63b8ff" stroke="#63b8ff" points="357.43,-42.14 365.41,-35.17 354.82,-35.65 357.43,-42.14"/>
<g id="a_edge6&#45;headlabel"><a xlink:href="dir_000145_000079.html" target="_top" xlink:title="3">
<text text-anchor="middle" x="355.15" y="-43.62" font-family="Helvetica,sans-Serif" font-size="10.00" fill="#63b8ff">3</text>
</a>
</g>
</g>
<!-- dir_9971a148f77c599abaa54299590fb7b2&#45;&gt;dir_f555f996eeee1ebe901dc71e0c5de8ff -->
<g id="edge7" class="edge">
<title>dir_9971a148f77c599abaa54299590fb7b2&#45;&gt;dir_f555f996eeee1ebe901dc71e0c5de8ff</title>
<path fill="none" stroke="#63b8ff" d="M278.67,-73.27C309.14,-65.22 363.95,-50.66 419.97,-35.26"/>
<polygon fill="#63b8ff" stroke="#63b8ff" points="420.99,-38.6 429.71,-32.57 419.13,-31.86 420.99,-38.6"/>
<g id="a_edge7&#45;headlabel"><a xlink:href="dir_000145_000122.html" target="_top" xlink:title="10">
<text text-anchor="middle" x="418.28" y="-39.8" font-family="Helvetica,sans-Serif" font-size="10.00" fill="#63b8ff">10</text>
</a>
</g>
</g>
</g>
</svg>
