<?xml version="1.0" encoding="UTF-8" standalone="no"?>
<!DOCTYPE svg PUBLIC "-//W3C//DTD SVG 1.1//EN"
 "http://www.w3.org/Graphics/SVG/1.1/DTD/svg11.dtd">
<!-- Generated by graphviz version 2.43.0 (0)
 -->
<!-- Title: libs Pages: 1 -->
<svg width="132pt" height="208pt"
 viewBox="0.00 0.00 132.00 208.00" xmlns="http://www.w3.org/2000/svg" xmlns:xlink="http://www.w3.org/1999/xlink">
<g id="graph0" class="graph" transform="scale(1 1) rotate(0) translate(4 204)">
<title>libs</title>
<g id="clust1" class="cluster">
<title>clusterdir_6719ab1f1f7655efc2fa43f7eb574fd1</title>
<g id="a_clust1"><a xlink:href="dir_6719ab1f1f7655efc2fa43f7eb574fd1.html" target="_top">
<polygon fill="#edf0f7" stroke="#404040" stroke-width="2" points="8,-47 8,-192 116,-192 116,-47 8,-47"/>
</a>
</g>
</g>
<!-- dir_6719ab1f1f7655efc2fa43f7eb574fd1 -->
<g id="node1" class="node">
<title>dir_6719ab1f1f7655efc2fa43f7eb574fd1</title>
<text text-anchor="middle" x="91" y="-172" font-family="Helvetica,sans-Serif" font-size="10.00">libs</text>
</g>
<!-- dir_048287677304621c659962c2a2c2732d -->
<g id="node2" class="node">
<title>dir_048287677304621c659962c2a2c2732d</title>
<g id="a_node2"><a xlink:href="dir_048287677304621c659962c2a2c2732d.html" target="_top" xlink:title="ccpp">
<polygon fill="#a2b4d6" stroke="#404040" points="55.5,-184 16.5,-184 16.5,-165 55.5,-165 55.5,-184"/>
<text text-anchor="middle" x="36" y="-172" font-family="Helvetica,sans-Serif" font-size="10.00">ccpp</text>
</a>
</g>
</g>
<!-- dir_984cd133b143ec7cf21a4bdcb401bfa5 -->
<g id="node3" class="node">
<title>dir_984cd133b143ec7cf21a4bdcb401bfa5</title>
<g id="a_node3"><a xlink:href="dir_984cd133b143ec7cf21a4bdcb401bfa5.html" target="_top" xlink:title="di">
<polygon fill="#a2b4d6" stroke="#404040" points="47.5,-129 18.5,-129 18.5,-110 47.5,-110 47.5,-129"/>
<text text-anchor="middle" x="33" y="-117" font-family="Helvetica,sans-Serif" font-size="10.00">di</text>
</a>
</g>
</g>
<!-- dir_048287677304621c659962c2a2c2732d&#45;&gt;dir_984cd133b143ec7cf21a4bdcb401bfa5 -->
<g id="edge2" class="edge">
<title>dir_048287677304621c659962c2a2c2732d&#45;&gt;dir_984cd133b143ec7cf21a4bdcb401bfa5</title>
<path fill="none" stroke="#63b8ff" d="M30.34,-164.75C28.45,-157.8 27.45,-147.85 27.58,-139.13"/>
<polygon fill="#63b8ff" stroke="#63b8ff" points="31.07,-139.33 28.36,-129.09 24.09,-138.79 31.07,-139.33"/>
<g id="a_edge2&#45;headlabel"><a xlink:href="dir_000030_000058.html" target="_top" xlink:title="72">
<text text-anchor="middle" x="33.62" y="-140.63" font-family="Helvetica,sans-Serif" font-size="10.00" fill="#63b8ff">72</text>
</a>
</g>
</g>
<!-- dir_2bc9e3f402dd86ba93785edd287294d9 -->
<g id="node4" class="node">
<title>dir_2bc9e3f402dd86ba93785edd287294d9</title>
<g id="a_node4"><a xlink:href="dir_2bc9e3f402dd86ba93785edd287294d9.html" target="_top" xlink:title="dius">
<polygon fill="#a2b4d6" stroke="#404040" points="69.5,-74 32.5,-74 32.5,-55 69.5,-55 69.5,-74"/>
<text text-anchor="middle" x="51" y="-62" font-family="Helvetica,sans-Serif" font-size="10.00">dius</text>
</a>
</g>
</g>
<!-- dir_048287677304621c659962c2a2c2732d&#45;&gt;dir_2bc9e3f402dd86ba93785edd287294d9 -->
<g id="edge1" class="edge">
<title>dir_048287677304621c659962c2a2c2732d&#45;&gt;dir_2bc9e3f402dd86ba93785edd287294d9</title>
<path fill="none" stroke="#63b8ff" d="M34.69,-164.72C37.74,-156.03 45.05,-142.17 48,-129 51.3,-114.27 49.39,-97.23 48.23,-84.51"/>
<polygon fill="#63b8ff" stroke="#63b8ff" points="51.71,-83.99 47.56,-74.24 44.72,-84.44 51.71,-83.99"/>
<g id="a_edge1&#45;headlabel"><a xlink:href="dir_000030_000063.html" target="_top" xlink:title="11">
<text text-anchor="middle" x="54.77" y="-84.89" font-family="Helvetica,sans-Serif" font-size="10.00" fill="#63b8ff">11</text>
</a>
</g>
</g>
<!-- dir_984cd133b143ec7cf21a4bdcb401bfa5&#45;&gt;dir_048287677304621c659962c2a2c2732d -->
<g id="edge3" class="edge">
<title>dir_984cd133b143ec7cf21a4bdcb401bfa5&#45;&gt;dir_048287677304621c659962c2a2c2732d</title>
<path fill="none" stroke="#63b8ff" d="M38.62,-129.09C40.52,-135.99 41.53,-145.93 41.43,-154.66"/>
<polygon fill="#63b8ff" stroke="#63b8ff" points="37.93,-154.51 40.67,-164.75 44.91,-155.04 37.93,-154.51"/>
<g id="a_edge3&#45;headlabel"><a xlink:href="dir_000058_000030.html" target="_top" xlink:title="2">
<text text-anchor="middle" x="35.36" y="-148.22" font-family="Helvetica,sans-Serif" font-size="10.00" fill="#63b8ff">2</text>
</a>
</g>
</g>
<!-- dir_984cd133b143ec7cf21a4bdcb401bfa5&#45;&gt;dir_2bc9e3f402dd86ba93785edd287294d9 -->
<g id="edge4" class="edge">
<title>dir_984cd133b143ec7cf21a4bdcb401bfa5&#45;&gt;dir_2bc9e3f402dd86ba93785edd287294d9</title>
<path fill="none" stroke="#63b8ff" d="M30.81,-109.75C31.7,-102.57 34.81,-92.18 38.55,-83.27"/>
<polygon fill="#63b8ff" stroke="#63b8ff" points="41.79,-84.62 42.95,-74.09 35.47,-81.59 41.79,-84.62"/>
<g id="a_edge4&#45;headlabel"><a xlink:href="dir_000058_000063.html" target="_top" xlink:title="2">
<text text-anchor="middle" x="42.79" y="-86.59" font-family="Helvetica,sans-Serif" font-size="10.00" fill="#63b8ff">2</text>
</a>
</g>
</g>
<!-- dir_2bc9e3f402dd86ba93785edd287294d9&#45;&gt;dir_048287677304621c659962c2a2c2732d -->
<g id="edge5" class="edge">
<title>dir_2bc9e3f402dd86ba93785edd287294d9&#45;&gt;dir_048287677304621c659962c2a2c2732d</title>
<path fill="none" stroke="#63b8ff" d="M59.51,-74.24C65.73,-86.58 70.31,-109.77 66,-129 63.86,-138.57 59.41,-148.5 54.35,-156.55"/>
<polygon fill="#63b8ff" stroke="#63b8ff" points="51.47,-154.56 48.46,-164.72 57.15,-158.65 51.47,-154.56"/>
<g id="a_edge5&#45;headlabel"><a xlink:href="dir_000063_000030.html" target="_top" xlink:title="15">
<text text-anchor="middle" x="51.27" y="-147.48" font-family="Helvetica,sans-Serif" font-size="10.00" fill="#63b8ff">15</text>
</a>
</g>
</g>
<!-- dir_2bc9e3f402dd86ba93785edd287294d9&#45;&gt;dir_984cd133b143ec7cf21a4bdcb401bfa5 -->
<g id="edge6" class="edge">
<title>dir_2bc9e3f402dd86ba93785edd287294d9&#45;&gt;dir_984cd133b143ec7cf21a4bdcb401bfa5</title>
<path fill="none" stroke="#63b8ff" d="M53.21,-74.09C52.35,-81.22 49.26,-91.6 45.53,-100.53"/>
<polygon fill="#63b8ff" stroke="#63b8ff" points="42.28,-99.22 41.14,-109.75 48.6,-102.23 42.28,-99.22"/>
<g id="a_edge6&#45;headlabel"><a xlink:href="dir_000063_000058.html" target="_top" xlink:title="138">
<text text-anchor="middle" x="41.26" y="-92.25" font-family="Helvetica,sans-Serif" font-size="10.00" fill="#63b8ff">138</text>
</a>
</g>
</g>
<!-- dir_2605f0c6ea8f9a17a384edc9a2df15f4 -->
<g id="node5" class="node">
<title>dir_2605f0c6ea8f9a17a384edc9a2df15f4</title>
<g id="a_node5"><a xlink:href="dir_2605f0c6ea8f9a17a384edc9a2df15f4.html" target="_top" xlink:title="iris">
<polygon fill="#edf0f7" stroke="red" points="67,-19 35,-19 35,0 67,0 67,-19"/>
<text text-anchor="middle" x="51" y="-7" font-family="Helvetica,sans-Serif" font-size="10.00">iris</text>
</a>
</g>
</g>
<!-- dir_2bc9e3f402dd86ba93785edd287294d9&#45;&gt;dir_2605f0c6ea8f9a17a384edc9a2df15f4 -->
<g id="edge7" class="edge">
<title>dir_2bc9e3f402dd86ba93785edd287294d9&#45;&gt;dir_2605f0c6ea8f9a17a384edc9a2df15f4</title>
<path fill="none" stroke="#63b8ff" d="M51,-54.75C51,-47.8 51,-37.85 51,-29.13"/>
<polygon fill="#63b8ff" stroke="#63b8ff" points="54.5,-29.09 51,-19.09 47.5,-29.09 54.5,-29.09"/>
<g id="a_edge7&#45;headlabel"><a xlink:href="dir_000063_000102.html" target="_top" xlink:title="5">
<text text-anchor="middle" x="57.34" y="-30.18" font-family="Helvetica,sans-Serif" font-size="10.00" fill="#63b8ff">5</text>
</a>
</g>
</g>
</g>
</svg>
