<?xml version="1.0" encoding="UTF-8" standalone="no"?>
<!DOCTYPE svg PUBLIC "-//W3C//DTD SVG 1.1//EN"
 "http://www.w3.org/Graphics/SVG/1.1/DTD/svg11.dtd">
<!-- Generated by graphviz version 2.43.0 (0)
 -->
<!-- Title: libs/dius/runtime Pages: 1 -->
<svg width="126pt" height="133pt"
 viewBox="0.00 0.00 125.50 133.00" xmlns="http://www.w3.org/2000/svg" xmlns:xlink="http://www.w3.org/1999/xlink">
<g id="graph0" class="graph" transform="scale(1 1) rotate(0) translate(4 129)">
<title>libs/dius/runtime</title>
<g id="clust1" class="cluster">
<title>clusterdir_2bc9e3f402dd86ba93785edd287294d9</title>
<g id="a_clust1"><a xlink:href="dir_2bc9e3f402dd86ba93785edd287294d9.html" target="_top" xlink:title="dius">
<polygon fill="#edf0f7" stroke="#7f7f7f" stroke-dasharray="5,2" points="8,-8 8,-117 80,-117 80,-8 8,-8"/>
<text text-anchor="middle" x="44" y="-105" font-family="Helvetica,sans-Serif" font-size="10.00">dius</text>
</a>
</g>
</g>
<!-- dir_6ac4aa95e4478b160428441746083760 -->
<g id="node1" class="node">
<title>dir_6ac4aa95e4478b160428441746083760</title>
<g id="a_node1"><a xlink:href="dir_6ac4aa95e4478b160428441746083760.html" target="_top" xlink:title="include">
<polygon fill="#a2b4d6" stroke="red" points="70,-35 18,-35 18,-16 70,-16 70,-35"/>
<text text-anchor="middle" x="44" y="-23" font-family="Helvetica,sans-Serif" font-size="10.00">include</text>
</a>
</g>
</g>
<!-- dir_31e18d227c2c24cfedcd1fb5687b87ef -->
<g id="node2" class="node">
<title>dir_31e18d227c2c24cfedcd1fb5687b87ef</title>
<g id="a_node2"><a xlink:href="dir_31e18d227c2c24cfedcd1fb5687b87ef.html" target="_top" xlink:title="runtime">
<polygon fill="#edf0f7" stroke="#404040" stroke-width="2" points="71.5,-90 16.5,-90 16.5,-71 71.5,-71 71.5,-90"/>
<text text-anchor="middle" x="44" y="-78" font-family="Helvetica,sans-Serif" font-size="10.00">runtime</text>
</a>
</g>
</g>
<!-- dir_31e18d227c2c24cfedcd1fb5687b87ef&#45;&gt;dir_6ac4aa95e4478b160428441746083760 -->
<g id="edge1" class="edge">
<title>dir_31e18d227c2c24cfedcd1fb5687b87ef&#45;&gt;dir_6ac4aa95e4478b160428441746083760</title>
<path fill="none" stroke="#63b8ff" d="M44,-70.75C44,-63.8 44,-53.85 44,-45.13"/>
<polygon fill="#63b8ff" stroke="#63b8ff" points="47.5,-45.09 44,-35.09 40.5,-45.09 47.5,-45.09"/>
<g id="a_edge1&#45;headlabel"><a xlink:href="dir_000148_000093.html" target="_top" xlink:title="5">
<text text-anchor="middle" x="50.34" y="-46.18" font-family="Helvetica,sans-Serif" font-size="10.00" fill="#63b8ff">5</text>
</a>
</g>
</g>
<!-- dir_984cd133b143ec7cf21a4bdcb401bfa5 -->
<g id="node3" class="node">
<title>dir_984cd133b143ec7cf21a4bdcb401bfa5</title>
<g id="a_node3"><a xlink:href="dir_984cd133b143ec7cf21a4bdcb401bfa5.html" target="_top" xlink:title="di">
<polygon fill="#edf0f7" stroke="red" stroke-dasharray="5,2" points="117.5,-35 88.5,-35 88.5,-16 117.5,-16 117.5,-35"/>
<text text-anchor="middle" x="103" y="-23" font-family="Helvetica,sans-Serif" font-size="10.00">di</text>
</a>
</g>
</g>
<!-- dir_31e18d227c2c24cfedcd1fb5687b87ef&#45;&gt;dir_984cd133b143ec7cf21a4bdcb401bfa5 -->
<g id="edge2" class="edge">
<title>dir_31e18d227c2c24cfedcd1fb5687b87ef&#45;&gt;dir_984cd133b143ec7cf21a4bdcb401bfa5</title>
<path fill="none" stroke="#63b8ff" d="M53.48,-70.98C62.2,-63.15 75.34,-51.34 85.9,-41.86"/>
<polygon fill="#63b8ff" stroke="#63b8ff" points="88.25,-44.46 93.35,-35.17 83.57,-39.25 88.25,-44.46"/>
<g id="a_edge2&#45;headlabel"><a xlink:href="dir_000148_000058.html" target="_top" xlink:title="15">
<text text-anchor="middle" x="87.47" y="-46.47" font-family="Helvetica,sans-Serif" font-size="10.00" fill="#63b8ff">15</text>
</a>
</g>
</g>
</g>
</svg>
