<?xml version="1.0" encoding="UTF-8" standalone="no"?>
<!DOCTYPE svg PUBLIC "-//W3C//DTD SVG 1.1//EN"
 "http://www.w3.org/Graphics/SVG/1.1/DTD/svg11.dtd">
<!-- Generated by graphviz version 2.43.0 (0)
 -->
<!-- Title: libs/ccpp/include Pages: 1 -->
<svg width="193pt" height="204pt"
 viewBox="0.00 0.00 192.50 204.00" xmlns="http://www.w3.org/2000/svg" xmlns:xlink="http://www.w3.org/1999/xlink">
<g id="graph0" class="graph" transform="scale(1 1) rotate(0) translate(4 200)">
<title>libs/ccpp/include</title>
<g id="clust1" class="cluster">
<title>clusterdir_048287677304621c659962c2a2c2732d</title>
<g id="a_clust1"><a xlink:href="dir_048287677304621c659962c2a2c2732d.html" target="_top" xlink:title="ccpp">
<polygon fill="#edf0f7" stroke="#7f7f7f" stroke-dasharray="5,2" points="8,-8 8,-188 92,-188 92,-8 8,-8"/>
<text text-anchor="middle" x="50" y="-176" font-family="Helvetica,sans-Serif" font-size="10.00">ccpp</text>
</a>
</g>
</g>
<g id="clust2" class="cluster">
<title>clusterdir_4a059f36db6300b3f1d6a7b4bd94b473</title>
<g id="a_clust2"><a xlink:href="dir_4a059f36db6300b3f1d6a7b4bd94b473.html" target="_top">
<polygon fill="#edf0f7" stroke="#404040" stroke-width="2" points="16,-16 16,-161 84,-161 84,-16 16,-16"/>
</a>
</g>
</g>
<!-- dir_4a059f36db6300b3f1d6a7b4bd94b473 -->
<g id="node1" class="node">
<title>dir_4a059f36db6300b3f1d6a7b4bd94b473</title>
<text text-anchor="middle" x="50" y="-141" font-family="Helvetica,sans-Serif" font-size="10.00">include</text>
</g>
<!-- dir_aa9f8c7577a92311a8c2e40690a7e137 -->
<g id="node2" class="node">
<title>dir_aa9f8c7577a92311a8c2e40690a7e137</title>
<g id="a_node2"><a xlink:href="dir_aa9f8c7577a92311a8c2e40690a7e137.html" target="_top" xlink:title="ccpp">
<polygon fill="#a2b4d6" stroke="#404040" points="75.5,-98 36.5,-98 36.5,-79 75.5,-79 75.5,-98"/>
<text text-anchor="middle" x="56" y="-86" font-family="Helvetica,sans-Serif" font-size="10.00">ccpp</text>
</a>
</g>
</g>
<!-- dir_4a059f36db6300b3f1d6a7b4bd94b473&#45;&gt;dir_aa9f8c7577a92311a8c2e40690a7e137 -->
<g id="edge1" class="edge">
<title>dir_4a059f36db6300b3f1d6a7b4bd94b473&#45;&gt;dir_aa9f8c7577a92311a8c2e40690a7e137</title>
<path fill="none" stroke="#63b8ff" d="M50.99,-133.75C51.78,-126.8 52.9,-116.85 53.89,-108.13"/>
<polygon fill="#63b8ff" stroke="#63b8ff" points="57.38,-108.42 55.03,-98.09 50.42,-107.63 57.38,-108.42"/>
<g id="a_edge1&#45;headlabel"><a xlink:href="dir_000091_000031.html" target="_top" xlink:title="48">
<text text-anchor="middle" x="59.8" y="-109.81" font-family="Helvetica,sans-Serif" font-size="10.00" fill="#63b8ff">48</text>
</a>
</g>
</g>
<!-- dir_5371168e787cb85082629e1689d1d049 -->
<g id="node3" class="node">
<title>dir_5371168e787cb85082629e1689d1d049</title>
<g id="a_node3"><a xlink:href="dir_5371168e787cb85082629e1689d1d049.html" target="_top" xlink:title="sys">
<polygon fill="#a2b4d6" stroke="#404040" points="72.5,-43 39.5,-43 39.5,-24 72.5,-24 72.5,-43"/>
<text text-anchor="middle" x="56" y="-31" font-family="Helvetica,sans-Serif" font-size="10.00">sys</text>
</a>
</g>
</g>
<!-- dir_aa9f8c7577a92311a8c2e40690a7e137&#45;&gt;dir_5371168e787cb85082629e1689d1d049 -->
<g id="edge3" class="edge">
<title>dir_aa9f8c7577a92311a8c2e40690a7e137&#45;&gt;dir_5371168e787cb85082629e1689d1d049</title>
<path fill="none" stroke="#63b8ff" d="M50.83,-78.75C49.34,-71.8 48.9,-61.85 49.52,-53.13"/>
<polygon fill="#63b8ff" stroke="#63b8ff" points="53.01,-53.47 50.87,-43.09 46.07,-52.53 53.01,-53.47"/>
<g id="a_edge3&#45;headlabel"><a xlink:href="dir_000031_000163.html" target="_top" xlink:title="3">
<text text-anchor="middle" x="55.34" y="-54.91" font-family="Helvetica,sans-Serif" font-size="10.00" fill="#63b8ff">3</text>
</a>
</g>
</g>
<!-- dir_2bc9e3f402dd86ba93785edd287294d9 -->
<g id="node4" class="node">
<title>dir_2bc9e3f402dd86ba93785edd287294d9</title>
<g id="a_node4"><a xlink:href="dir_2bc9e3f402dd86ba93785edd287294d9.html" target="_top" xlink:title="dius">
<polygon fill="#edf0f7" stroke="red" stroke-dasharray="5,2" points="137.5,-43 100.5,-43 100.5,-24 137.5,-24 137.5,-43"/>
<text text-anchor="middle" x="119" y="-31" font-family="Helvetica,sans-Serif" font-size="10.00">dius</text>
</a>
</g>
</g>
<!-- dir_aa9f8c7577a92311a8c2e40690a7e137&#45;&gt;dir_2bc9e3f402dd86ba93785edd287294d9 -->
<g id="edge2" class="edge">
<title>dir_aa9f8c7577a92311a8c2e40690a7e137&#45;&gt;dir_2bc9e3f402dd86ba93785edd287294d9</title>
<path fill="none" stroke="#63b8ff" d="M66.12,-78.98C75.44,-71.15 89.47,-59.34 100.74,-49.86"/>
<polygon fill="#63b8ff" stroke="#63b8ff" points="103.29,-52.29 108.69,-43.17 98.79,-46.93 103.29,-52.29"/>
<g id="a_edge2&#45;headlabel"><a xlink:href="dir_000031_000063.html" target="_top" xlink:title="4">
<text text-anchor="middle" x="102.37" y="-54.27" font-family="Helvetica,sans-Serif" font-size="10.00" fill="#63b8ff">4</text>
</a>
</g>
</g>
<!-- dir_984cd133b143ec7cf21a4bdcb401bfa5 -->
<g id="node5" class="node">
<title>dir_984cd133b143ec7cf21a4bdcb401bfa5</title>
<g id="a_node5"><a xlink:href="dir_984cd133b143ec7cf21a4bdcb401bfa5.html" target="_top" xlink:title="di">
<polygon fill="#edf0f7" stroke="red" stroke-dasharray="5,2" points="184.5,-43 155.5,-43 155.5,-24 184.5,-24 184.5,-43"/>
<text text-anchor="middle" x="170" y="-31" font-family="Helvetica,sans-Serif" font-size="10.00">di</text>
</a>
</g>
</g>
<!-- dir_aa9f8c7577a92311a8c2e40690a7e137&#45;&gt;dir_984cd133b143ec7cf21a4bdcb401bfa5 -->
<g id="edge4" class="edge">
<title>dir_aa9f8c7577a92311a8c2e40690a7e137&#45;&gt;dir_984cd133b143ec7cf21a4bdcb401bfa5</title>
<path fill="none" stroke="#63b8ff" d="M74.32,-78.98C93.86,-69.9 124.88,-55.48 146.28,-45.53"/>
<polygon fill="#63b8ff" stroke="#63b8ff" points="147.76,-48.7 155.35,-41.31 144.81,-42.35 147.76,-48.7"/>
<g id="a_edge4&#45;headlabel"><a xlink:href="dir_000031_000058.html" target="_top" xlink:title="13">
<text text-anchor="middle" x="145.7" y="-50.29" font-family="Helvetica,sans-Serif" font-size="10.00" fill="#63b8ff">13</text>
</a>
</g>
</g>
<!-- dir_5371168e787cb85082629e1689d1d049&#45;&gt;dir_aa9f8c7577a92311a8c2e40690a7e137 -->
<g id="edge5" class="edge">
<title>dir_5371168e787cb85082629e1689d1d049&#45;&gt;dir_aa9f8c7577a92311a8c2e40690a7e137</title>
<path fill="none" stroke="#63b8ff" d="M61.13,-43.09C62.64,-49.99 63.09,-59.93 62.49,-68.66"/>
<polygon fill="#63b8ff" stroke="#63b8ff" points="59,-68.38 61.17,-78.75 65.94,-69.29 59,-68.38"/>
<g id="a_edge5&#45;headlabel"><a xlink:href="dir_000163_000031.html" target="_top" xlink:title="14">
<text text-anchor="middle" x="56.65" y="-61.94" font-family="Helvetica,sans-Serif" font-size="10.00" fill="#63b8ff">14</text>
</a>
</g>
</g>
</g>
</svg>
