<?xml version="1.0" encoding="UTF-8" standalone="no"?>
<!DOCTYPE svg PUBLIC "-//W3C//DTD SVG 1.1//EN"
 "http://www.w3.org/Graphics/SVG/1.1/DTD/svg11.dtd">
<!-- Generated by graphviz version 2.43.0 (0)
 -->
<!-- Title: libs/di/include/di/execution/algorithm Pages: 1 -->
<svg width="1280pt" height="133pt"
 viewBox="0.00 0.00 1280.00 133.00" xmlns="http://www.w3.org/2000/svg" xmlns:xlink="http://www.w3.org/1999/xlink">
<g id="graph0" class="graph" transform="scale(1 1) rotate(0) translate(4 129)">
<title>libs/di/include/di/execution/algorithm</title>
<g id="clust1" class="cluster">
<title>clusterdir_182dab0b86097ba072332b7ad8fceb7f</title>
<g id="a_clust1"><a xlink:href="dir_182dab0b86097ba072332b7ad8fceb7f.html" target="_top" xlink:title="execution">
<polygon fill="#edf0f7" stroke="#7f7f7f" stroke-dasharray="5,2" points="8,-8 8,-117 574,-117 574,-8 8,-8"/>
<text text-anchor="middle" x="291" y="-105" font-family="Helvetica,sans-Serif" font-size="10.00">execution</text>
</a>
</g>
</g>
<!-- dir_27e1a0af1927749316784e6421682a5e -->
<g id="node1" class="node">
<title>dir_27e1a0af1927749316784e6421682a5e</title>
<g id="a_node1"><a xlink:href="dir_27e1a0af1927749316784e6421682a5e.html" target="_top" xlink:title="interface">
<polygon fill="#a2b4d6" stroke="#404040" points="76,-35 16,-35 16,-16 76,-16 76,-35"/>
<text text-anchor="middle" x="46" y="-23" font-family="Helvetica,sans-Serif" font-size="10.00">interface</text>
</a>
</g>
</g>
<!-- dir_327ae4384e5e6037a079ed60a15477ad -->
<g id="node2" class="node">
<title>dir_327ae4384e5e6037a079ed60a15477ad</title>
<g id="a_node2"><a xlink:href="dir_327ae4384e5e6037a079ed60a15477ad.html" target="_top" xlink:title="context">
<polygon fill="#a2b4d6" stroke="#404040" points="147.5,-35 94.5,-35 94.5,-16 147.5,-16 147.5,-35"/>
<text text-anchor="middle" x="121" y="-23" font-family="Helvetica,sans-Serif" font-size="10.00">context</text>
</a>
</g>
</g>
<!-- dir_38011a79da39fb3448319eccf8c364d9 -->
<g id="node3" class="node">
<title>dir_38011a79da39fb3448319eccf8c364d9</title>
<g id="a_node3"><a xlink:href="dir_38011a79da39fb3448319eccf8c364d9.html" target="_top" xlink:title="query">
<polygon fill="#a2b4d6" stroke="#404040" points="210,-35 166,-35 166,-16 210,-16 210,-35"/>
<text text-anchor="middle" x="188" y="-23" font-family="Helvetica,sans-Serif" font-size="10.00">query</text>
</a>
</g>
</g>
<!-- dir_569ed69d6bb9bf9a95676c3a98a04440 -->
<g id="node4" class="node">
<title>dir_569ed69d6bb9bf9a95676c3a98a04440</title>
<g id="a_node4"><a xlink:href="dir_569ed69d6bb9bf9a95676c3a98a04440.html" target="_top" xlink:title="types">
<polygon fill="#a2b4d6" stroke="#404040" points="272,-35 228,-35 228,-16 272,-16 272,-35"/>
<text text-anchor="middle" x="250" y="-23" font-family="Helvetica,sans-Serif" font-size="10.00">types</text>
</a>
</g>
</g>
<!-- dir_57df25969c72935fa0fddf8bd8d3498c -->
<g id="node5" class="node">
<title>dir_57df25969c72935fa0fddf8bd8d3498c</title>
<g id="a_node5"><a xlink:href="dir_57df25969c72935fa0fddf8bd8d3498c.html" target="_top" xlink:title="meta">
<polygon fill="#a2b4d6" stroke="#404040" points="332,-35 290,-35 290,-16 332,-16 332,-35"/>
<text text-anchor="middle" x="311" y="-23" font-family="Helvetica,sans-Serif" font-size="10.00">meta</text>
</a>
</g>
</g>
<!-- dir_72b20bf6291bd35729057dcb4ccbac76 -->
<g id="node6" class="node">
<title>dir_72b20bf6291bd35729057dcb4ccbac76</title>
<g id="a_node6"><a xlink:href="dir_72b20bf6291bd35729057dcb4ccbac76.html" target="_top" xlink:title="concepts">
<polygon fill="#a2b4d6" stroke="#404040" points="410,-35 350,-35 350,-16 410,-16 410,-35"/>
<text text-anchor="middle" x="380" y="-23" font-family="Helvetica,sans-Serif" font-size="10.00">concepts</text>
</a>
</g>
</g>
<!-- dir_8620533e8531467fdbfb737d3ec42837 -->
<g id="node7" class="node">
<title>dir_8620533e8531467fdbfb737d3ec42837</title>
<g id="a_node7"><a xlink:href="dir_8620533e8531467fdbfb737d3ec42837.html" target="_top" xlink:title="receiver">
<polygon fill="#a2b4d6" stroke="#404040" points="484,-35 428,-35 428,-16 484,-16 484,-35"/>
<text text-anchor="middle" x="456" y="-23" font-family="Helvetica,sans-Serif" font-size="10.00">receiver</text>
</a>
</g>
</g>
<!-- dir_b7ad26a73b774414b6d3658268280d20 -->
<g id="node8" class="node">
<title>dir_b7ad26a73b774414b6d3658268280d20</title>
<g id="a_node8"><a xlink:href="dir_b7ad26a73b774414b6d3658268280d20.html" target="_top" xlink:title="sequence">
<polygon fill="#a2b4d6" stroke="#404040" points="565.5,-35 502.5,-35 502.5,-16 565.5,-16 565.5,-35"/>
<text text-anchor="middle" x="534" y="-23" font-family="Helvetica,sans-Serif" font-size="10.00">sequence</text>
</a>
</g>
</g>
<!-- dir_42e3132b523eec61d254ecfd76390a40 -->
<g id="node9" class="node">
<title>dir_42e3132b523eec61d254ecfd76390a40</title>
<g id="a_node9"><a xlink:href="dir_42e3132b523eec61d254ecfd76390a40.html" target="_top" xlink:title="algorithm">
<polygon fill="#edf0f7" stroke="#404040" stroke-width="2" points="566,-90 502,-90 502,-71 566,-71 566,-90"/>
<text text-anchor="middle" x="534" y="-78" font-family="Helvetica,sans-Serif" font-size="10.00">algorithm</text>
</a>
</g>
</g>
<!-- dir_42e3132b523eec61d254ecfd76390a40&#45;&gt;dir_27e1a0af1927749316784e6421682a5e -->
<g id="edge2" class="edge">
<title>dir_42e3132b523eec61d254ecfd76390a40&#45;&gt;dir_27e1a0af1927749316784e6421682a5e</title>
<path fill="none" stroke="#63b8ff" d="M501.8,-77.53C427.95,-72.73 240.85,-59.07 86,-35 85.9,-34.98 85.8,-34.97 85.7,-34.95"/>
<polygon fill="#63b8ff" stroke="#63b8ff" points="86.53,-31.55 76.08,-33.26 85.32,-38.44 86.53,-31.55"/>
<g id="a_edge2&#45;headlabel"><a xlink:href="dir_000004_000096.html" target="_top" xlink:title="31">
<text text-anchor="middle" x="90.56" y="-26.87" font-family="Helvetica,sans-Serif" font-size="10.00" fill="#63b8ff">31</text>
</a>
</g>
</g>
<!-- dir_42e3132b523eec61d254ecfd76390a40&#45;&gt;dir_327ae4384e5e6037a079ed60a15477ad -->
<g id="edge5" class="edge">
<title>dir_42e3132b523eec61d254ecfd76390a40&#45;&gt;dir_327ae4384e5e6037a079ed60a15477ad</title>
<path fill="none" stroke="#63b8ff" d="M501.79,-76.95C438.04,-71.63 291.13,-58.05 157.66,-34.91"/>
<polygon fill="#63b8ff" stroke="#63b8ff" points="158.12,-31.44 147.67,-33.15 156.91,-38.33 158.12,-31.44"/>
<g id="a_edge5&#45;headlabel"><a xlink:href="dir_000004_000048.html" target="_top" xlink:title="1">
<text text-anchor="middle" x="162.15" y="-26.76" font-family="Helvetica,sans-Serif" font-size="10.00" fill="#63b8ff">1</text>
</a>
</g>
</g>
<!-- dir_42e3132b523eec61d254ecfd76390a40&#45;&gt;dir_38011a79da39fb3448319eccf8c364d9 -->
<g id="edge6" class="edge">
<title>dir_42e3132b523eec61d254ecfd76390a40&#45;&gt;dir_38011a79da39fb3448319eccf8c364d9</title>
<path fill="none" stroke="#63b8ff" d="M501.57,-76.3C445.94,-70.5 328.61,-57 220.38,-35.05"/>
<polygon fill="#63b8ff" stroke="#63b8ff" points="220.77,-31.56 210.27,-32.97 219.36,-38.41 220.77,-31.56"/>
<g id="a_edge6&#45;headlabel"><a xlink:href="dir_000004_000139.html" target="_top" xlink:title="29">
<text text-anchor="middle" x="224.86" y="-27" font-family="Helvetica,sans-Serif" font-size="10.00" fill="#63b8ff">29</text>
</a>
</g>
</g>
<!-- dir_42e3132b523eec61d254ecfd76390a40&#45;&gt;dir_569ed69d6bb9bf9a95676c3a98a04440 -->
<g id="edge9" class="edge">
<title>dir_42e3132b523eec61d254ecfd76390a40&#45;&gt;dir_569ed69d6bb9bf9a95676c3a98a04440</title>
<path fill="none" stroke="#63b8ff" d="M501.86,-74.83C455.41,-67.88 366.66,-53.78 282.05,-35.06"/>
<polygon fill="#63b8ff" stroke="#63b8ff" points="282.81,-31.65 272.29,-32.88 281.28,-38.48 282.81,-31.65"/>
<g id="a_edge9&#45;headlabel"><a xlink:href="dir_000004_000179.html" target="_top" xlink:title="20">
<text text-anchor="middle" x="286.94" y="-27.16" font-family="Helvetica,sans-Serif" font-size="10.00" fill="#63b8ff">20</text>
</a>
</g>
</g>
<!-- dir_42e3132b523eec61d254ecfd76390a40&#45;&gt;dir_57df25969c72935fa0fddf8bd8d3498c -->
<g id="edge10" class="edge">
<title>dir_42e3132b523eec61d254ecfd76390a40&#45;&gt;dir_57df25969c72935fa0fddf8bd8d3498c</title>
<path fill="none" stroke="#63b8ff" d="M501.78,-72.58C465.32,-64.64 403.93,-50.94 342.18,-35.21"/>
<polygon fill="#63b8ff" stroke="#63b8ff" points="342.83,-31.76 332.27,-32.67 341.09,-38.54 342.83,-31.76"/>
<g id="a_edge10&#45;headlabel"><a xlink:href="dir_000004_000121.html" target="_top" xlink:title="44">
<text text-anchor="middle" x="347.01" y="-27.4" font-family="Helvetica,sans-Serif" font-size="10.00" fill="#63b8ff">44</text>
</a>
</g>
</g>
<!-- dir_42e3132b523eec61d254ecfd76390a40&#45;&gt;dir_72b20bf6291bd35729057dcb4ccbac76 -->
<g id="edge12" class="edge">
<title>dir_42e3132b523eec61d254ecfd76390a40&#45;&gt;dir_72b20bf6291bd35729057dcb4ccbac76</title>
<path fill="none" stroke="#63b8ff" d="M509.26,-70.98C483.63,-62.16 443.37,-48.31 414.59,-38.41"/>
<polygon fill="#63b8ff" stroke="#63b8ff" points="415.53,-35.03 404.94,-35.08 413.25,-41.65 415.53,-35.03"/>
<g id="a_edge12&#45;headlabel"><a xlink:href="dir_000004_000038.html" target="_top" xlink:title="42">
<text text-anchor="middle" x="419.85" y="-31.01" font-family="Helvetica,sans-Serif" font-size="10.00" fill="#63b8ff">42</text>
</a>
</g>
</g>
<!-- dir_42e3132b523eec61d254ecfd76390a40&#45;&gt;dir_8620533e8531467fdbfb737d3ec42837 -->
<g id="edge13" class="edge">
<title>dir_42e3132b523eec61d254ecfd76390a40&#45;&gt;dir_8620533e8531467fdbfb737d3ec42837</title>
<path fill="none" stroke="#63b8ff" d="M521.47,-70.98C509.6,-62.92 491.54,-50.65 477.39,-41.03"/>
<polygon fill="#63b8ff" stroke="#63b8ff" points="479,-37.9 468.76,-35.17 475.06,-43.69 479,-37.9"/>
<g id="a_edge13&#45;headlabel"><a xlink:href="dir_000004_000144.html" target="_top" xlink:title="33">
<text text-anchor="middle" x="483.57" y="-35.07" font-family="Helvetica,sans-Serif" font-size="10.00" fill="#63b8ff">33</text>
</a>
</g>
</g>
<!-- dir_42e3132b523eec61d254ecfd76390a40&#45;&gt;dir_b7ad26a73b774414b6d3658268280d20 -->
<g id="edge18" class="edge">
<title>dir_42e3132b523eec61d254ecfd76390a40&#45;&gt;dir_b7ad26a73b774414b6d3658268280d20</title>
<path fill="none" stroke="#63b8ff" d="M534,-70.75C534,-63.8 534,-53.85 534,-45.13"/>
<polygon fill="#63b8ff" stroke="#63b8ff" points="537.5,-45.09 534,-35.09 530.5,-45.09 537.5,-45.09"/>
<g id="a_edge18&#45;headlabel"><a xlink:href="dir_000004_000150.html" target="_top" xlink:title="6">
<text text-anchor="middle" x="540.34" y="-46.18" font-family="Helvetica,sans-Serif" font-size="10.00" fill="#63b8ff">6</text>
</a>
</g>
</g>
<!-- dir_0669efae56692bb73da75efb5ebbccdf -->
<g id="node10" class="node">
<title>dir_0669efae56692bb73da75efb5ebbccdf</title>
<g id="a_node10"><a xlink:href="dir_0669efae56692bb73da75efb5ebbccdf.html" target="_top" xlink:title="function">
<polygon fill="#edf0f7" stroke="red" stroke-dasharray="5,2" points="640,-35 584,-35 584,-16 640,-16 640,-35"/>
<text text-anchor="middle" x="612" y="-23" font-family="Helvetica,sans-Serif" font-size="10.00">function</text>
</a>
</g>
</g>
<!-- dir_42e3132b523eec61d254ecfd76390a40&#45;&gt;dir_0669efae56692bb73da75efb5ebbccdf -->
<g id="edge1" class="edge">
<title>dir_42e3132b523eec61d254ecfd76390a40&#45;&gt;dir_0669efae56692bb73da75efb5ebbccdf</title>
<path fill="none" stroke="#63b8ff" d="M546.53,-70.98C558.4,-62.92 576.46,-50.65 590.61,-41.03"/>
<polygon fill="#63b8ff" stroke="#63b8ff" points="592.94,-43.69 599.24,-35.17 589,-37.9 592.94,-43.69"/>
<g id="a_edge1&#45;headlabel"><a xlink:href="dir_000004_000082.html" target="_top" xlink:title="32">
<text text-anchor="middle" x="591.56" y="-45.55" font-family="Helvetica,sans-Serif" font-size="10.00" fill="#63b8ff">32</text>
</a>
</g>
</g>
<!-- dir_2bc9e3f402dd86ba93785edd287294d9 -->
<g id="node11" class="node">
<title>dir_2bc9e3f402dd86ba93785edd287294d9</title>
<g id="a_node11"><a xlink:href="dir_2bc9e3f402dd86ba93785edd287294d9.html" target="_top" xlink:title="dius">
<polygon fill="#edf0f7" stroke="red" stroke-dasharray="5,2" points="695.5,-35 658.5,-35 658.5,-16 695.5,-16 695.5,-35"/>
<text text-anchor="middle" x="677" y="-23" font-family="Helvetica,sans-Serif" font-size="10.00">dius</text>
</a>
</g>
</g>
<!-- dir_42e3132b523eec61d254ecfd76390a40&#45;&gt;dir_2bc9e3f402dd86ba93785edd287294d9 -->
<g id="edge3" class="edge">
<title>dir_42e3132b523eec61d254ecfd76390a40&#45;&gt;dir_2bc9e3f402dd86ba93785edd287294d9</title>
<path fill="none" stroke="#63b8ff" d="M556.98,-70.98C581.9,-61.75 621.71,-46.99 648.58,-37.03"/>
<polygon fill="#63b8ff" stroke="#63b8ff" points="650.03,-40.23 658.19,-33.47 647.6,-33.66 650.03,-40.23"/>
<g id="a_edge3&#45;headlabel"><a xlink:href="dir_000004_000063.html" target="_top" xlink:title="2">
<text text-anchor="middle" x="647.65" y="-41.64" font-family="Helvetica,sans-Serif" font-size="10.00" fill="#63b8ff">2</text>
</a>
</g>
</g>
<!-- dir_30ecaf38acae77be14fb9173f98f8612 -->
<g id="node12" class="node">
<title>dir_30ecaf38acae77be14fb9173f98f8612</title>
<g id="a_node12"><a xlink:href="dir_30ecaf38acae77be14fb9173f98f8612.html" target="_top" xlink:title="types">
<polygon fill="#edf0f7" stroke="#7f7f7f" points="758,-35 714,-35 714,-16 758,-16 758,-35"/>
<text text-anchor="middle" x="736" y="-23" font-family="Helvetica,sans-Serif" font-size="10.00">types</text>
</a>
</g>
</g>
<!-- dir_42e3132b523eec61d254ecfd76390a40&#45;&gt;dir_30ecaf38acae77be14fb9173f98f8612 -->
<g id="edge4" class="edge">
<title>dir_42e3132b523eec61d254ecfd76390a40&#45;&gt;dir_30ecaf38acae77be14fb9173f98f8612</title>
<path fill="none" stroke="#63b8ff" d="M566.18,-71.26C598.63,-62.92 650.41,-49.53 704.27,-35.17"/>
<polygon fill="#63b8ff" stroke="#63b8ff" points="705.24,-38.53 713.99,-32.57 703.43,-31.77 705.24,-38.53"/>
<g id="a_edge4&#45;headlabel"><a xlink:href="dir_000004_000180.html" target="_top" xlink:title="7">
<text text-anchor="middle" x="702.5" y="-39.71" font-family="Helvetica,sans-Serif" font-size="10.00" fill="#63b8ff">7</text>
</a>
</g>
</g>
<!-- dir_4535887b2cdca47e625f259d07db0112 -->
<g id="node13" class="node">
<title>dir_4535887b2cdca47e625f259d07db0112</title>
<g id="a_node13"><a xlink:href="dir_4535887b2cdca47e625f259d07db0112.html" target="_top" xlink:title="util">
<polygon fill="#edf0f7" stroke="#7f7f7f" points="808,-35 776,-35 776,-16 808,-16 808,-35"/>
<text text-anchor="middle" x="792" y="-23" font-family="Helvetica,sans-Serif" font-size="10.00">util</text>
</a>
</g>
</g>
<!-- dir_42e3132b523eec61d254ecfd76390a40&#45;&gt;dir_4535887b2cdca47e625f259d07db0112 -->
<g id="edge7" class="edge">
<title>dir_42e3132b523eec61d254ecfd76390a40&#45;&gt;dir_4535887b2cdca47e625f259d07db0112</title>
<path fill="none" stroke="#63b8ff" d="M566.35,-74.78C609.78,-68.13 689.44,-54.82 766.14,-34.91"/>
<polygon fill="#63b8ff" stroke="#63b8ff" points="767.19,-38.25 775.96,-32.32 765.4,-31.49 767.19,-38.25"/>
<g id="a_edge7&#45;headlabel"><a xlink:href="dir_000004_000185.html" target="_top" xlink:title="31">
<text text-anchor="middle" x="764.43" y="-39.42" font-family="Helvetica,sans-Serif" font-size="10.00" fill="#63b8ff">31</text>
</a>
</g>
</g>
<!-- dir_521de572ae4fe2915cc70a876c52f5b7 -->
<g id="node14" class="node">
<title>dir_521de572ae4fe2915cc70a876c52f5b7</title>
<g id="a_node14"><a xlink:href="dir_521de572ae4fe2915cc70a876c52f5b7.html" target="_top" xlink:title="container">
<polygon fill="#edf0f7" stroke="red" stroke-dasharray="5,2" points="888,-35 826,-35 826,-16 888,-16 888,-35"/>
<text text-anchor="middle" x="857" y="-23" font-family="Helvetica,sans-Serif" font-size="10.00">container</text>
</a>
</g>
</g>
<!-- dir_42e3132b523eec61d254ecfd76390a40&#45;&gt;dir_521de572ae4fe2915cc70a876c52f5b7 -->
<g id="edge8" class="edge">
<title>dir_42e3132b523eec61d254ecfd76390a40&#45;&gt;dir_521de572ae4fe2915cc70a876c52f5b7</title>
<path fill="none" stroke="#63b8ff" d="M566.35,-74.99C617.27,-67.76 719.44,-52.75 815.69,-35.16"/>
<polygon fill="#63b8ff" stroke="#63b8ff" points="816.39,-38.59 825.59,-33.34 815.12,-31.71 816.39,-38.59"/>
<g id="a_edge8&#45;headlabel"><a xlink:href="dir_000004_000046.html" target="_top" xlink:title="14">
<text text-anchor="middle" x="813.37" y="-39.54" font-family="Helvetica,sans-Serif" font-size="10.00" fill="#63b8ff">14</text>
</a>
</g>
</g>
<!-- dir_60d1624911c2c9f7b6f38e44ec895aaa -->
<g id="node15" class="node">
<title>dir_60d1624911c2c9f7b6f38e44ec895aaa</title>
<g id="a_node15"><a xlink:href="dir_60d1624911c2c9f7b6f38e44ec895aaa.html" target="_top" xlink:title="math">
<polygon fill="#edf0f7" stroke="red" stroke-dasharray="5,2" points="948,-35 906,-35 906,-16 948,-16 948,-35"/>
<text text-anchor="middle" x="927" y="-23" font-family="Helvetica,sans-Serif" font-size="10.00">math</text>
</a>
</g>
</g>
<!-- dir_42e3132b523eec61d254ecfd76390a40&#45;&gt;dir_60d1624911c2c9f7b6f38e44ec895aaa -->
<g id="edge11" class="edge">
<title>dir_42e3132b523eec61d254ecfd76390a40&#45;&gt;dir_60d1624911c2c9f7b6f38e44ec895aaa</title>
<path fill="none" stroke="#63b8ff" d="M566.32,-77.22C628.43,-72.48 768.88,-60.01 895.9,-34.93"/>
<polygon fill="#63b8ff" stroke="#63b8ff" points="896.68,-38.34 905.79,-32.95 895.3,-31.48 896.68,-38.34"/>
<g id="a_edge11&#45;headlabel"><a xlink:href="dir_000004_000117.html" target="_top" xlink:title="1">
<text text-anchor="middle" x="893.71" y="-39.33" font-family="Helvetica,sans-Serif" font-size="10.00" fill="#63b8ff">1</text>
</a>
</g>
</g>
<!-- dir_942cfae36a92b6b1c4b510e99e852d40 -->
<g id="node16" class="node">
<title>dir_942cfae36a92b6b1c4b510e99e852d40</title>
<g id="a_node16"><a xlink:href="dir_942cfae36a92b6b1c4b510e99e852d40.html" target="_top" xlink:title="vocab">
<polygon fill="#edf0f7" stroke="red" stroke-dasharray="5,2" points="1012,-35 966,-35 966,-16 1012,-16 1012,-35"/>
<text text-anchor="middle" x="989" y="-23" font-family="Helvetica,sans-Serif" font-size="10.00">vocab</text>
</a>
</g>
</g>
<!-- dir_42e3132b523eec61d254ecfd76390a40&#45;&gt;dir_942cfae36a92b6b1c4b510e99e852d40 -->
<g id="edge14" class="edge">
<title>dir_42e3132b523eec61d254ecfd76390a40&#45;&gt;dir_942cfae36a92b6b1c4b510e99e852d40</title>
<path fill="none" stroke="#63b8ff" d="M566.08,-77.82C635.52,-73.84 805,-62.15 955.77,-34.96"/>
<polygon fill="#63b8ff" stroke="#63b8ff" points="956.47,-38.39 965.68,-33.14 955.21,-31.5 956.47,-38.39"/>
<g id="a_edge14&#45;headlabel"><a xlink:href="dir_000004_000189.html" target="_top" xlink:title="21">
<text text-anchor="middle" x="953.45" y="-39.33" font-family="Helvetica,sans-Serif" font-size="10.00" fill="#63b8ff">21</text>
</a>
</g>
</g>
<!-- dir_9bfc08b7c5b17d043ebb5b9fbb866539 -->
<g id="node17" class="node">
<title>dir_9bfc08b7c5b17d043ebb5b9fbb866539</title>
<g id="a_node17"><a xlink:href="dir_9bfc08b7c5b17d043ebb5b9fbb866539.html" target="_top" xlink:title="sync">
<polygon fill="#edf0f7" stroke="red" stroke-dasharray="5,2" points="1069.5,-35 1030.5,-35 1030.5,-16 1069.5,-16 1069.5,-35"/>
<text text-anchor="middle" x="1050" y="-23" font-family="Helvetica,sans-Serif" font-size="10.00">sync</text>
</a>
</g>
</g>
<!-- dir_42e3132b523eec61d254ecfd76390a40&#45;&gt;dir_9bfc08b7c5b17d043ebb5b9fbb866539 -->
<g id="edge15" class="edge">
<title>dir_42e3132b523eec61d254ecfd76390a40&#45;&gt;dir_9bfc08b7c5b17d043ebb5b9fbb866539</title>
<path fill="none" stroke="#63b8ff" d="M566.21,-78.71C643.21,-76.37 844.05,-67.57 1020.49,-34.67"/>
<polygon fill="#63b8ff" stroke="#63b8ff" points="1021.3,-38.08 1030.47,-32.78 1019.99,-31.21 1021.3,-38.08"/>
<g id="a_edge15&#45;headlabel"><a xlink:href="dir_000004_000162.html" target="_top" xlink:title="11">
<text text-anchor="middle" x="1018.29" y="-39.04" font-family="Helvetica,sans-Serif" font-size="10.00" fill="#63b8ff">11</text>
</a>
</g>
</g>
<!-- dir_a60d4453151dca6bdd8e5fcc350e379b -->
<g id="node18" class="node">
<title>dir_a60d4453151dca6bdd8e5fcc350e379b</title>
<g id="a_node18"><a xlink:href="dir_a60d4453151dca6bdd8e5fcc350e379b.html" target="_top" xlink:title="assert">
<polygon fill="#edf0f7" stroke="#7f7f7f" points="1134.5,-35 1087.5,-35 1087.5,-16 1134.5,-16 1134.5,-35"/>
<text text-anchor="middle" x="1111" y="-23" font-family="Helvetica,sans-Serif" font-size="10.00">assert</text>
</a>
</g>
</g>
<!-- dir_42e3132b523eec61d254ecfd76390a40&#45;&gt;dir_a60d4453151dca6bdd8e5fcc350e379b -->
<g id="edge16" class="edge">
<title>dir_42e3132b523eec61d254ecfd76390a40&#45;&gt;dir_a60d4453151dca6bdd8e5fcc350e379b</title>
<path fill="none" stroke="#63b8ff" d="M566.19,-78.87C649.41,-76.81 878.5,-68.48 1077.3,-35"/>
<polygon fill="#63b8ff" stroke="#63b8ff" points="1078.07,-38.42 1087.34,-33.29 1076.89,-31.52 1078.07,-38.42"/>
<g id="a_edge16&#45;headlabel"><a xlink:href="dir_000004_000018.html" target="_top" xlink:title="2">
<text text-anchor="middle" x="1075.01" y="-39.33" font-family="Helvetica,sans-Serif" font-size="10.00" fill="#63b8ff">2</text>
</a>
</g>
</g>
<!-- dir_aaf67126bd5deefc4d96704f76f22cc2 -->
<g id="node19" class="node">
<title>dir_aaf67126bd5deefc4d96704f76f22cc2</title>
<g id="a_node19"><a xlink:href="dir_aaf67126bd5deefc4d96704f76f22cc2.html" target="_top" xlink:title="platform">
<polygon fill="#edf0f7" stroke="#7f7f7f" points="1211.5,-35 1152.5,-35 1152.5,-16 1211.5,-16 1211.5,-35"/>
<text text-anchor="middle" x="1182" y="-23" font-family="Helvetica,sans-Serif" font-size="10.00">platform</text>
</a>
</g>
</g>
<!-- dir_42e3132b523eec61d254ecfd76390a40&#45;&gt;dir_aaf67126bd5deefc4d96704f76f22cc2 -->
<g id="edge17" class="edge">
<title>dir_42e3132b523eec61d254ecfd76390a40&#45;&gt;dir_aaf67126bd5deefc4d96704f76f22cc2</title>
<path fill="none" stroke="#63b8ff" d="M566.26,-78.82C656.11,-76.56 916.92,-67.61 1142.18,-35.07"/>
<polygon fill="#63b8ff" stroke="#63b8ff" points="1142.82,-38.51 1152.21,-33.6 1141.81,-31.59 1142.82,-38.51"/>
<g id="a_edge17&#45;headlabel"><a xlink:href="dir_000004_000135.html" target="_top" xlink:title="8">
<text text-anchor="middle" x="1139.67" y="-39.34" font-family="Helvetica,sans-Serif" font-size="10.00" fill="#63b8ff">8</text>
</a>
</g>
</g>
<!-- dir_f555f996eeee1ebe901dc71e0c5de8ff -->
<g id="node20" class="node">
<title>dir_f555f996eeee1ebe901dc71e0c5de8ff</title>
<g id="a_node20"><a xlink:href="dir_f555f996eeee1ebe901dc71e0c5de8ff.html" target="_top" xlink:title="meta">
<polygon fill="#edf0f7" stroke="#7f7f7f" points="1272,-35 1230,-35 1230,-16 1272,-16 1272,-35"/>
<text text-anchor="middle" x="1251" y="-23" font-family="Helvetica,sans-Serif" font-size="10.00">meta</text>
</a>
</g>
</g>
<!-- dir_42e3132b523eec61d254ecfd76390a40&#45;&gt;dir_f555f996eeee1ebe901dc71e0c5de8ff -->
<g id="edge19" class="edge">
<title>dir_42e3132b523eec61d254ecfd76390a40&#45;&gt;dir_f555f996eeee1ebe901dc71e0c5de8ff</title>
<path fill="none" stroke="#63b8ff" d="M566.13,-79.82C663.49,-80.28 963.82,-77.97 1219.96,-34.79"/>
<polygon fill="#63b8ff" stroke="#63b8ff" points="1220.56,-38.24 1229.82,-33.1 1219.38,-31.34 1220.56,-38.24"/>
<g id="a_edge19&#45;headlabel"><a xlink:href="dir_000004_000122.html" target="_top" xlink:title="43">
<text text-anchor="middle" x="1217.49" y="-39.14" font-family="Helvetica,sans-Serif" font-size="10.00" fill="#63b8ff">43</text>
</a>
</g>
</g>
</g>
</svg>
