<?xml version="1.0" encoding="UTF-8" standalone="no"?>
<!DOCTYPE svg PUBLIC "-//W3C//DTD SVG 1.1//EN"
 "http://www.w3.org/Graphics/SVG/1.1/DTD/svg11.dtd">
<!-- Generated by graphviz version 2.43.0 (0)
 -->
<!-- Title: libs/di/include/di/container/iterator Pages: 1 -->
<svg width="594pt" height="133pt"
 viewBox="0.00 0.00 594.00 133.00" xmlns="http://www.w3.org/2000/svg" xmlns:xlink="http://www.w3.org/1999/xlink">
<g id="graph0" class="graph" transform="scale(1 1) rotate(0) translate(4 129)">
<title>libs/di/include/di/container/iterator</title>
<g id="clust1" class="cluster">
<title>clusterdir_521de572ae4fe2915cc70a876c52f5b7</title>
<g id="a_clust1"><a xlink:href="dir_521de572ae4fe2915cc70a876c52f5b7.html" target="_top" xlink:title="container">
<polygon fill="#edf0f7" stroke="#7f7f7f" stroke-dasharray="5,2" points="8,-8 8,-117 284,-117 284,-8 8,-8"/>
<text text-anchor="middle" x="146" y="-105" font-family="Helvetica,sans-Serif" font-size="10.00">container</text>
</a>
</g>
</g>
<!-- dir_838362f34bc8d8c3545343b0166aa672 -->
<g id="node1" class="node">
<title>dir_838362f34bc8d8c3545343b0166aa672</title>
<g id="a_node1"><a xlink:href="dir_838362f34bc8d8c3545343b0166aa672.html" target="_top" xlink:title="concepts">
<polygon fill="#a2b4d6" stroke="#404040" points="76,-35 16,-35 16,-16 76,-16 76,-35"/>
<text text-anchor="middle" x="46" y="-23" font-family="Helvetica,sans-Serif" font-size="10.00">concepts</text>
</a>
</g>
</g>
<!-- dir_9f8d33513cfc97e5f9ea6bf2671e5446 -->
<g id="node2" class="node">
<title>dir_9f8d33513cfc97e5f9ea6bf2671e5446</title>
<g id="a_node2"><a xlink:href="dir_9f8d33513cfc97e5f9ea6bf2671e5446.html" target="_top" xlink:title="meta">
<polygon fill="#a2b4d6" stroke="#404040" points="136,-35 94,-35 94,-16 136,-16 136,-35"/>
<text text-anchor="middle" x="115" y="-23" font-family="Helvetica,sans-Serif" font-size="10.00">meta</text>
</a>
</g>
</g>
<!-- dir_a7b99681c56fba2abd28393cbbc3f22c -->
<g id="node3" class="node">
<title>dir_a7b99681c56fba2abd28393cbbc3f22c</title>
<g id="a_node3"><a xlink:href="dir_a7b99681c56fba2abd28393cbbc3f22c.html" target="_top" xlink:title="types">
<polygon fill="#a2b4d6" stroke="#404040" points="198,-35 154,-35 154,-16 198,-16 198,-35"/>
<text text-anchor="middle" x="176" y="-23" font-family="Helvetica,sans-Serif" font-size="10.00">types</text>
</a>
</g>
</g>
<!-- dir_dd6c062645334da7e8440ac2e54ccb1d -->
<g id="node4" class="node">
<title>dir_dd6c062645334da7e8440ac2e54ccb1d</title>
<g id="a_node4"><a xlink:href="dir_dd6c062645334da7e8440ac2e54ccb1d.html" target="_top" xlink:title="interface">
<polygon fill="#a2b4d6" stroke="#404040" points="276,-35 216,-35 216,-16 276,-16 276,-35"/>
<text text-anchor="middle" x="246" y="-23" font-family="Helvetica,sans-Serif" font-size="10.00">interface</text>
</a>
</g>
</g>
<!-- dir_093cb0cf41c3d9bb25543a4e1702223c -->
<g id="node5" class="node">
<title>dir_093cb0cf41c3d9bb25543a4e1702223c</title>
<g id="a_node5"><a xlink:href="dir_093cb0cf41c3d9bb25543a4e1702223c.html" target="_top" xlink:title="iterator">
<polygon fill="#edf0f7" stroke="#404040" stroke-width="2" points="275.5,-90 222.5,-90 222.5,-71 275.5,-71 275.5,-90"/>
<text text-anchor="middle" x="249" y="-78" font-family="Helvetica,sans-Serif" font-size="10.00">iterator</text>
</a>
</g>
</g>
<!-- dir_093cb0cf41c3d9bb25543a4e1702223c&#45;&gt;dir_838362f34bc8d8c3545343b0166aa672 -->
<g id="edge4" class="edge">
<title>dir_093cb0cf41c3d9bb25543a4e1702223c&#45;&gt;dir_838362f34bc8d8c3545343b0166aa672</title>
<path fill="none" stroke="#63b8ff" d="M222.46,-72.57C187.69,-63.49 126.39,-47.49 85.98,-36.94"/>
<polygon fill="#63b8ff" stroke="#63b8ff" points="86.74,-33.52 76.18,-34.38 84.97,-40.29 86.74,-33.52"/>
<g id="a_edge4&#45;headlabel"><a xlink:href="dir_000108_000037.html" target="_top" xlink:title="23">
<text text-anchor="middle" x="90.94" y="-29.18" font-family="Helvetica,sans-Serif" font-size="10.00" fill="#63b8ff">23</text>
</a>
</g>
</g>
<!-- dir_093cb0cf41c3d9bb25543a4e1702223c&#45;&gt;dir_9f8d33513cfc97e5f9ea6bf2671e5446 -->
<g id="edge6" class="edge">
<title>dir_093cb0cf41c3d9bb25543a4e1702223c&#45;&gt;dir_9f8d33513cfc97e5f9ea6bf2671e5446</title>
<path fill="none" stroke="#63b8ff" d="M227.47,-70.98C205.26,-62.2 170.44,-48.43 145.43,-38.53"/>
<polygon fill="#63b8ff" stroke="#63b8ff" points="146.62,-35.24 136.03,-34.82 144.05,-41.75 146.62,-35.24"/>
<g id="a_edge6&#45;headlabel"><a xlink:href="dir_000108_000120.html" target="_top" xlink:title="19">
<text text-anchor="middle" x="151.01" y="-31.42" font-family="Helvetica,sans-Serif" font-size="10.00" fill="#63b8ff">19</text>
</a>
</g>
</g>
<!-- dir_093cb0cf41c3d9bb25543a4e1702223c&#45;&gt;dir_a7b99681c56fba2abd28393cbbc3f22c -->
<g id="edge7" class="edge">
<title>dir_093cb0cf41c3d9bb25543a4e1702223c&#45;&gt;dir_a7b99681c56fba2abd28393cbbc3f22c</title>
<path fill="none" stroke="#63b8ff" d="M237.27,-70.98C226.27,-63 209.58,-50.88 196.4,-41.31"/>
<polygon fill="#63b8ff" stroke="#63b8ff" points="198.09,-38.21 187.94,-35.17 193.98,-43.88 198.09,-38.21"/>
<g id="a_edge7&#45;headlabel"><a xlink:href="dir_000108_000178.html" target="_top" xlink:title="4">
<text text-anchor="middle" x="202.67" y="-35.53" font-family="Helvetica,sans-Serif" font-size="10.00" fill="#63b8ff">4</text>
</a>
</g>
</g>
<!-- dir_093cb0cf41c3d9bb25543a4e1702223c&#45;&gt;dir_dd6c062645334da7e8440ac2e54ccb1d -->
<g id="edge8" class="edge">
<title>dir_093cb0cf41c3d9bb25543a4e1702223c&#45;&gt;dir_dd6c062645334da7e8440ac2e54ccb1d</title>
<path fill="none" stroke="#63b8ff" d="M248.5,-70.75C248.11,-63.8 247.55,-53.85 247.05,-45.13"/>
<polygon fill="#63b8ff" stroke="#63b8ff" points="250.55,-44.88 246.49,-35.09 243.56,-45.27 250.55,-44.88"/>
<g id="a_edge8&#45;headlabel"><a xlink:href="dir_000108_000095.html" target="_top" xlink:title="4">
<text text-anchor="middle" x="253.58" y="-45.8" font-family="Helvetica,sans-Serif" font-size="10.00" fill="#63b8ff">4</text>
</a>
</g>
</g>
<!-- dir_0669efae56692bb73da75efb5ebbccdf -->
<g id="node6" class="node">
<title>dir_0669efae56692bb73da75efb5ebbccdf</title>
<g id="a_node6"><a xlink:href="dir_0669efae56692bb73da75efb5ebbccdf.html" target="_top" xlink:title="function">
<polygon fill="#edf0f7" stroke="red" stroke-dasharray="5,2" points="350,-35 294,-35 294,-16 350,-16 350,-35"/>
<text text-anchor="middle" x="322" y="-23" font-family="Helvetica,sans-Serif" font-size="10.00">function</text>
</a>
</g>
</g>
<!-- dir_093cb0cf41c3d9bb25543a4e1702223c&#45;&gt;dir_0669efae56692bb73da75efb5ebbccdf -->
<g id="edge1" class="edge">
<title>dir_093cb0cf41c3d9bb25543a4e1702223c&#45;&gt;dir_0669efae56692bb73da75efb5ebbccdf</title>
<path fill="none" stroke="#63b8ff" d="M260.73,-70.98C271.73,-63 288.42,-50.88 301.6,-41.31"/>
<polygon fill="#63b8ff" stroke="#63b8ff" points="304.02,-43.88 310.06,-35.17 299.91,-38.21 304.02,-43.88"/>
<g id="a_edge1&#45;headlabel"><a xlink:href="dir_000108_000082.html" target="_top" xlink:title="5">
<text text-anchor="middle" x="302.78" y="-45.79" font-family="Helvetica,sans-Serif" font-size="10.00" fill="#63b8ff">5</text>
</a>
</g>
</g>
<!-- dir_30ecaf38acae77be14fb9173f98f8612 -->
<g id="node7" class="node">
<title>dir_30ecaf38acae77be14fb9173f98f8612</title>
<g id="a_node7"><a xlink:href="dir_30ecaf38acae77be14fb9173f98f8612.html" target="_top" xlink:title="types">
<polygon fill="#edf0f7" stroke="#7f7f7f" points="412,-35 368,-35 368,-16 412,-16 412,-35"/>
<text text-anchor="middle" x="390" y="-23" font-family="Helvetica,sans-Serif" font-size="10.00">types</text>
</a>
</g>
</g>
<!-- dir_093cb0cf41c3d9bb25543a4e1702223c&#45;&gt;dir_30ecaf38acae77be14fb9173f98f8612 -->
<g id="edge2" class="edge">
<title>dir_093cb0cf41c3d9bb25543a4e1702223c&#45;&gt;dir_30ecaf38acae77be14fb9173f98f8612</title>
<path fill="none" stroke="#63b8ff" d="M271.65,-70.98C295.12,-62.16 331.99,-48.31 358.33,-38.4"/>
<polygon fill="#63b8ff" stroke="#63b8ff" points="359.74,-41.61 367.87,-34.82 357.27,-35.06 359.74,-41.61"/>
<g id="a_edge2&#45;headlabel"><a xlink:href="dir_000108_000180.html" target="_top" xlink:title="6">
<text text-anchor="middle" x="357.37" y="-43.04" font-family="Helvetica,sans-Serif" font-size="10.00" fill="#63b8ff">6</text>
</a>
</g>
</g>
<!-- dir_4535887b2cdca47e625f259d07db0112 -->
<g id="node8" class="node">
<title>dir_4535887b2cdca47e625f259d07db0112</title>
<g id="a_node8"><a xlink:href="dir_4535887b2cdca47e625f259d07db0112.html" target="_top" xlink:title="util">
<polygon fill="#edf0f7" stroke="#7f7f7f" points="462,-35 430,-35 430,-16 462,-16 462,-35"/>
<text text-anchor="middle" x="446" y="-23" font-family="Helvetica,sans-Serif" font-size="10.00">util</text>
</a>
</g>
</g>
<!-- dir_093cb0cf41c3d9bb25543a4e1702223c&#45;&gt;dir_4535887b2cdca47e625f259d07db0112 -->
<g id="edge3" class="edge">
<title>dir_093cb0cf41c3d9bb25543a4e1702223c&#45;&gt;dir_4535887b2cdca47e625f259d07db0112</title>
<path fill="none" stroke="#63b8ff" d="M275.69,-73.25C307.79,-65.59 363.5,-51.85 420.09,-35.1"/>
<polygon fill="#63b8ff" stroke="#63b8ff" points="421.34,-38.38 429.92,-32.16 419.34,-31.67 421.34,-38.38"/>
<g id="a_edge3&#45;headlabel"><a xlink:href="dir_000108_000185.html" target="_top" xlink:title="14">
<text text-anchor="middle" x="418.71" y="-39.63" font-family="Helvetica,sans-Serif" font-size="10.00" fill="#63b8ff">14</text>
</a>
</g>
</g>
<!-- dir_942cfae36a92b6b1c4b510e99e852d40 -->
<g id="node9" class="node">
<title>dir_942cfae36a92b6b1c4b510e99e852d40</title>
<g id="a_node9"><a xlink:href="dir_942cfae36a92b6b1c4b510e99e852d40.html" target="_top" xlink:title="vocab">
<polygon fill="#edf0f7" stroke="red" stroke-dasharray="5,2" points="526,-35 480,-35 480,-16 526,-16 526,-35"/>
<text text-anchor="middle" x="503" y="-23" font-family="Helvetica,sans-Serif" font-size="10.00">vocab</text>
</a>
</g>
</g>
<!-- dir_093cb0cf41c3d9bb25543a4e1702223c&#45;&gt;dir_942cfae36a92b6b1c4b510e99e852d40 -->
<g id="edge5" class="edge">
<title>dir_093cb0cf41c3d9bb25543a4e1702223c&#45;&gt;dir_942cfae36a92b6b1c4b510e99e852d40</title>
<path fill="none" stroke="#63b8ff" d="M275.77,-74.69C315.89,-67.36 394.17,-52.59 470.23,-35.06"/>
<polygon fill="#63b8ff" stroke="#63b8ff" points="471.02,-38.47 479.97,-32.8 469.44,-31.65 471.02,-38.47"/>
<g id="a_edge5&#45;headlabel"><a xlink:href="dir_000108_000189.html" target="_top" xlink:title="1">
<text text-anchor="middle" x="468.16" y="-39.55" font-family="Helvetica,sans-Serif" font-size="10.00" fill="#63b8ff">1</text>
</a>
</g>
</g>
<!-- dir_f555f996eeee1ebe901dc71e0c5de8ff -->
<g id="node10" class="node">
<title>dir_f555f996eeee1ebe901dc71e0c5de8ff</title>
<g id="a_node10"><a xlink:href="dir_f555f996eeee1ebe901dc71e0c5de8ff.html" target="_top" xlink:title="meta">
<polygon fill="#edf0f7" stroke="#7f7f7f" points="586,-35 544,-35 544,-16 586,-16 586,-35"/>
<text text-anchor="middle" x="565" y="-23" font-family="Helvetica,sans-Serif" font-size="10.00">meta</text>
</a>
</g>
</g>
<!-- dir_093cb0cf41c3d9bb25543a4e1702223c&#45;&gt;dir_f555f996eeee1ebe901dc71e0c5de8ff -->
<g id="edge9" class="edge">
<title>dir_093cb0cf41c3d9bb25543a4e1702223c&#45;&gt;dir_f555f996eeee1ebe901dc71e0c5de8ff</title>
<path fill="none" stroke="#63b8ff" d="M275.62,-76.46C324.77,-70.61 433.21,-56.6 533.76,-35.04"/>
<polygon fill="#63b8ff" stroke="#63b8ff" points="534.75,-38.4 543.78,-32.86 533.26,-31.56 534.75,-38.4"/>
<g id="a_edge9&#45;headlabel"><a xlink:href="dir_000108_000122.html" target="_top" xlink:title="20">
<text text-anchor="middle" x="531.84" y="-39.44" font-family="Helvetica,sans-Serif" font-size="10.00" fill="#63b8ff">20</text>
</a>
</g>
</g>
</g>
</svg>
