<?xml version="1.0" encoding="UTF-8" standalone="no"?>
<!DOCTYPE svg PUBLIC "-//W3C//DTD SVG 1.1//EN"
 "http://www.w3.org/Graphics/SVG/1.1/DTD/svg11.dtd">
<!-- Generated by graphviz version 2.43.0 (0)
 -->
<!-- Title: userland Pages: 1 -->
<svg width="397pt" height="98pt"
 viewBox="0.00 0.00 397.00 98.00" xmlns="http://www.w3.org/2000/svg" xmlns:xlink="http://www.w3.org/1999/xlink">
<g id="graph0" class="graph" transform="scale(1 1) rotate(0) translate(4 94)">
<title>userland</title>
<g id="clust1" class="cluster">
<title>clusterdir_902ccc1d1f35ec7608c008c090ce6a24</title>
<g id="a_clust1"><a xlink:href="dir_902ccc1d1f35ec7608c008c090ce6a24.html" target="_top">
<polygon fill="#edf0f7" stroke="#404040" stroke-width="2" points="8,-47 8,-82 381,-82 381,-47 8,-47"/>
</a>
</g>
</g>
<!-- dir_902ccc1d1f35ec7608c008c090ce6a24 -->
<g id="node1" class="node">
<title>dir_902ccc1d1f35ec7608c008c090ce6a24</title>
<text text-anchor="middle" x="343" y="-62" font-family="Helvetica,sans-Serif" font-size="10.00">userland</text>
</g>
<!-- dir_f26eb22439381742a9730da2154ddbb5 -->
<g id="node2" class="node">
<title>dir_f26eb22439381742a9730da2154ddbb5</title>
<g id="a_node2"><a xlink:href="dir_f26eb22439381742a9730da2154ddbb5.html" target="_top" xlink:title="core">
<polygon fill="#a2b4d6" stroke="#404040" points="178,-74 140,-74 140,-55 178,-55 178,-74"/>
<text text-anchor="middle" x="159" y="-62" font-family="Helvetica,sans-Serif" font-size="10.00">core</text>
</a>
</g>
</g>
<!-- dir_6719ab1f1f7655efc2fa43f7eb574fd1 -->
<g id="node7" class="node">
<title>dir_6719ab1f1f7655efc2fa43f7eb574fd1</title>
<g id="a_node7"><a xlink:href="dir_6719ab1f1f7655efc2fa43f7eb574fd1.html" target="_top" xlink:title="libs">
<polygon fill="#edf0f7" stroke="red" points="205,-19 171,-19 171,0 205,0 205,-19"/>
<text text-anchor="middle" x="188" y="-7" font-family="Helvetica,sans-Serif" font-size="10.00">libs</text>
</a>
</g>
</g>
<!-- dir_f26eb22439381742a9730da2154ddbb5&#45;&gt;dir_6719ab1f1f7655efc2fa43f7eb574fd1 -->
<g id="edge1" class="edge">
<title>dir_f26eb22439381742a9730da2154ddbb5&#45;&gt;dir_6719ab1f1f7655efc2fa43f7eb574fd1</title>
<path fill="none" stroke="#63b8ff" d="M163.79,-54.75C167.76,-47.49 173.53,-36.95 178.43,-27.98"/>
<polygon fill="#63b8ff" stroke="#63b8ff" points="181.57,-29.54 183.3,-19.09 175.43,-26.18 181.57,-29.54"/>
<g id="a_edge1&#45;headlabel"><a xlink:href="dir_000053_000109.html" target="_top" xlink:title="7">
<text text-anchor="middle" x="182.34" y="-31.56" font-family="Helvetica,sans-Serif" font-size="10.00" fill="#63b8ff">7</text>
</a>
</g>
</g>
<!-- dir_b6cf1a0ed9c479d543b4d81871daf012 -->
<g id="node3" class="node">
<title>dir_b6cf1a0ed9c479d543b4d81871daf012</title>
<g id="a_node3"><a xlink:href="dir_b6cf1a0ed9c479d543b4d81871daf012.html" target="_top" xlink:title="package_manager">
<polygon fill="#a2b4d6" stroke="#404040" points="122,-74 16,-74 16,-55 122,-55 122,-74"/>
<text text-anchor="middle" x="69" y="-62" font-family="Helvetica,sans-Serif" font-size="10.00">package_manager</text>
</a>
</g>
</g>
<!-- dir_b6cf1a0ed9c479d543b4d81871daf012&#45;&gt;dir_6719ab1f1f7655efc2fa43f7eb574fd1 -->
<g id="edge2" class="edge">
<title>dir_b6cf1a0ed9c479d543b4d81871daf012&#45;&gt;dir_6719ab1f1f7655efc2fa43f7eb574fd1</title>
<path fill="none" stroke="#63b8ff" d="M88.12,-54.98C108.04,-46.11 139.38,-32.15 161.64,-22.24"/>
<polygon fill="#63b8ff" stroke="#63b8ff" points="163.15,-25.4 170.86,-18.13 160.3,-19.01 163.15,-25.4"/>
<g id="a_edge2&#45;headlabel"><a xlink:href="dir_000132_000109.html" target="_top" xlink:title="30">
<text text-anchor="middle" x="161.02" y="-26.96" font-family="Helvetica,sans-Serif" font-size="10.00" fill="#63b8ff">30</text>
</a>
</g>
</g>
<!-- dir_b17b2d9d1c69636aa80abc811d5e1128 -->
<g id="node4" class="node">
<title>dir_b17b2d9d1c69636aa80abc811d5e1128</title>
<g id="a_node4"><a xlink:href="dir_b17b2d9d1c69636aa80abc811d5e1128.html" target="_top" xlink:title="shell">
<polygon fill="#a2b4d6" stroke="#404040" points="236,-74 196,-74 196,-55 236,-55 236,-74"/>
<text text-anchor="middle" x="216" y="-62" font-family="Helvetica,sans-Serif" font-size="10.00">shell</text>
</a>
</g>
</g>
<!-- dir_b17b2d9d1c69636aa80abc811d5e1128&#45;&gt;dir_6719ab1f1f7655efc2fa43f7eb574fd1 -->
<g id="edge3" class="edge">
<title>dir_b17b2d9d1c69636aa80abc811d5e1128&#45;&gt;dir_6719ab1f1f7655efc2fa43f7eb574fd1</title>
<path fill="none" stroke="#63b8ff" d="M211.38,-54.75C207.54,-47.49 201.98,-36.95 197.24,-27.98"/>
<polygon fill="#63b8ff" stroke="#63b8ff" points="200.3,-26.3 192.54,-19.09 194.11,-29.57 200.3,-26.3"/>
<g id="a_edge3&#45;headlabel"><a xlink:href="dir_000153_000109.html" target="_top" xlink:title="3">
<text text-anchor="middle" x="204.49" y="-25.65" font-family="Helvetica,sans-Serif" font-size="10.00" fill="#63b8ff">3</text>
</a>
</g>
</g>
<!-- dir_db7f99a50b1d5589d04ef6bdf0f260c5 -->
<g id="node5" class="node">
<title>dir_db7f99a50b1d5589d04ef6bdf0f260c5</title>
<g id="a_node5"><a xlink:href="dir_db7f99a50b1d5589d04ef6bdf0f260c5.html" target="_top" xlink:title="tools">
<polygon fill="#a2b4d6" stroke="#404040" points="295.5,-74 254.5,-74 254.5,-55 295.5,-55 295.5,-74"/>
<text text-anchor="middle" x="275" y="-62" font-family="Helvetica,sans-Serif" font-size="10.00">tools</text>
</a>
</g>
</g>
<!-- dir_2605f0c6ea8f9a17a384edc9a2df15f4 -->
<g id="node6" class="node">
<title>dir_2605f0c6ea8f9a17a384edc9a2df15f4</title>
<g id="a_node6"><a xlink:href="dir_2605f0c6ea8f9a17a384edc9a2df15f4.html" target="_top" xlink:title="iris">
<polygon fill="#edf0f7" stroke="red" points="291,-19 259,-19 259,0 291,0 291,-19"/>
<text text-anchor="middle" x="275" y="-7" font-family="Helvetica,sans-Serif" font-size="10.00">iris</text>
</a>
</g>
</g>
<!-- dir_db7f99a50b1d5589d04ef6bdf0f260c5&#45;&gt;dir_2605f0c6ea8f9a17a384edc9a2df15f4 -->
<g id="edge4" class="edge">
<title>dir_db7f99a50b1d5589d04ef6bdf0f260c5&#45;&gt;dir_2605f0c6ea8f9a17a384edc9a2df15f4</title>
<path fill="none" stroke="#63b8ff" d="M275,-54.75C275,-47.8 275,-37.85 275,-29.13"/>
<polygon fill="#63b8ff" stroke="#63b8ff" points="278.5,-29.09 275,-19.09 271.5,-29.09 278.5,-29.09"/>
<g id="a_edge4&#45;headlabel"><a xlink:href="dir_000174_000102.html" target="_top" xlink:title="1">
<text text-anchor="middle" x="281.34" y="-30.18" font-family="Helvetica,sans-Serif" font-size="10.00" fill="#63b8ff">1</text>
</a>
</g>
</g>
<!-- dir_db7f99a50b1d5589d04ef6bdf0f260c5&#45;&gt;dir_6719ab1f1f7655efc2fa43f7eb574fd1 -->
<g id="edge5" class="edge">
<title>dir_db7f99a50b1d5589d04ef6bdf0f260c5&#45;&gt;dir_6719ab1f1f7655efc2fa43f7eb574fd1</title>
<path fill="none" stroke="#63b8ff" d="M261.02,-54.98C247.53,-46.77 226.87,-34.18 210.96,-24.49"/>
<polygon fill="#63b8ff" stroke="#63b8ff" points="212.59,-21.38 202.23,-19.17 208.95,-27.36 212.59,-21.38"/>
<g id="a_edge5&#45;headlabel"><a xlink:href="dir_000174_000109.html" target="_top" xlink:title="15">
<text text-anchor="middle" x="217.14" y="-18.33" font-family="Helvetica,sans-Serif" font-size="10.00" fill="#63b8ff">15</text>
</a>
</g>
</g>
</g>
</svg>
