<?xml version="1.0" encoding="UTF-8" standalone="no"?>
<!DOCTYPE svg PUBLIC "-//W3C//DTD SVG 1.1//EN"
 "http://www.w3.org/Graphics/SVG/1.1/DTD/svg11.dtd">
<!-- Generated by graphviz version 2.43.0 (0)
 -->
<!-- Title: libs/di/include/di/vocab/span Pages: 1 -->
<svg width="518pt" height="133pt"
 viewBox="0.00 0.00 518.00 133.00" xmlns="http://www.w3.org/2000/svg" xmlns:xlink="http://www.w3.org/1999/xlink">
<g id="graph0" class="graph" transform="scale(1 1) rotate(0) translate(4 129)">
<title>libs/di/include/di/vocab/span</title>
<g id="clust1" class="cluster">
<title>clusterdir_942cfae36a92b6b1c4b510e99e852d40</title>
<g id="a_clust1"><a xlink:href="dir_942cfae36a92b6b1c4b510e99e852d40.html" target="_top" xlink:title="vocab">
<polygon fill="#edf0f7" stroke="#7f7f7f" stroke-dasharray="5,2" points="8,-8 8,-117 140,-117 140,-8 8,-8"/>
<text text-anchor="middle" x="74" y="-105" font-family="Helvetica,sans-Serif" font-size="10.00">vocab</text>
</a>
</g>
</g>
<!-- dir_b61fbbcfa25ab30881b2aeba2d77b3a9 -->
<g id="node1" class="node">
<title>dir_b61fbbcfa25ab30881b2aeba2d77b3a9</title>
<g id="a_node1"><a xlink:href="dir_b61fbbcfa25ab30881b2aeba2d77b3a9.html" target="_top" xlink:title="tuple">
<polygon fill="#a2b4d6" stroke="#404040" points="57.5,-35 16.5,-35 16.5,-16 57.5,-16 57.5,-35"/>
<text text-anchor="middle" x="37" y="-23" font-family="Helvetica,sans-Serif" font-size="10.00">tuple</text>
</a>
</g>
</g>
<!-- dir_fb93aeb8b3e9feea147f4ddef093a0f6 -->
<g id="node2" class="node">
<title>dir_fb93aeb8b3e9feea147f4ddef093a0f6</title>
<g id="a_node2"><a xlink:href="dir_fb93aeb8b3e9feea147f4ddef093a0f6.html" target="_top" xlink:title="optional">
<polygon fill="#a2b4d6" stroke="#404040" points="132,-35 76,-35 76,-16 132,-16 132,-35"/>
<text text-anchor="middle" x="104" y="-23" font-family="Helvetica,sans-Serif" font-size="10.00">optional</text>
</a>
</g>
</g>
<!-- dir_470b886410dd06990f67532f35a9ce13 -->
<g id="node3" class="node">
<title>dir_470b886410dd06990f67532f35a9ce13</title>
<g id="a_node3"><a xlink:href="dir_470b886410dd06990f67532f35a9ce13.html" target="_top" xlink:title="span">
<polygon fill="#edf0f7" stroke="#404040" stroke-width="2" points="132,-90 92,-90 92,-71 132,-71 132,-90"/>
<text text-anchor="middle" x="112" y="-78" font-family="Helvetica,sans-Serif" font-size="10.00">span</text>
</a>
</g>
</g>
<!-- dir_470b886410dd06990f67532f35a9ce13&#45;&gt;dir_b61fbbcfa25ab30881b2aeba2d77b3a9 -->
<g id="edge6" class="edge">
<title>dir_470b886410dd06990f67532f35a9ce13&#45;&gt;dir_b61fbbcfa25ab30881b2aeba2d77b3a9</title>
<path fill="none" stroke="#63b8ff" d="M99.95,-70.98C88.54,-62.92 71.17,-50.65 57.57,-41.03"/>
<polygon fill="#63b8ff" stroke="#63b8ff" points="59.46,-38.08 49.27,-35.17 55.42,-43.8 59.46,-38.08"/>
<g id="a_edge6&#45;headlabel"><a xlink:href="dir_000154_000176.html" target="_top" xlink:title="4">
<text text-anchor="middle" x="64.03" y="-35.34" font-family="Helvetica,sans-Serif" font-size="10.00" fill="#63b8ff">4</text>
</a>
</g>
</g>
<!-- dir_470b886410dd06990f67532f35a9ce13&#45;&gt;dir_fb93aeb8b3e9feea147f4ddef093a0f6 -->
<g id="edge8" class="edge">
<title>dir_470b886410dd06990f67532f35a9ce13&#45;&gt;dir_fb93aeb8b3e9feea147f4ddef093a0f6</title>
<path fill="none" stroke="#63b8ff" d="M110.68,-70.75C109.63,-63.8 108.13,-53.85 106.81,-45.13"/>
<polygon fill="#63b8ff" stroke="#63b8ff" points="110.25,-44.45 105.3,-35.09 103.33,-45.5 110.25,-44.45"/>
<g id="a_edge8&#45;headlabel"><a xlink:href="dir_000154_000131.html" target="_top" xlink:title="2">
<text text-anchor="middle" x="113.59" y="-45.09" font-family="Helvetica,sans-Serif" font-size="10.00" fill="#63b8ff">2</text>
</a>
</g>
</g>
<!-- dir_30ecaf38acae77be14fb9173f98f8612 -->
<g id="node4" class="node">
<title>dir_30ecaf38acae77be14fb9173f98f8612</title>
<g id="a_node4"><a xlink:href="dir_30ecaf38acae77be14fb9173f98f8612.html" target="_top" xlink:title="types">
<polygon fill="#edf0f7" stroke="#7f7f7f" points="194,-35 150,-35 150,-16 194,-16 194,-35"/>
<text text-anchor="middle" x="172" y="-23" font-family="Helvetica,sans-Serif" font-size="10.00">types</text>
</a>
</g>
</g>
<!-- dir_470b886410dd06990f67532f35a9ce13&#45;&gt;dir_30ecaf38acae77be14fb9173f98f8612 -->
<g id="edge1" class="edge">
<title>dir_470b886410dd06990f67532f35a9ce13&#45;&gt;dir_30ecaf38acae77be14fb9173f98f8612</title>
<path fill="none" stroke="#63b8ff" d="M121.64,-70.98C130.51,-63.15 143.87,-51.34 154.61,-41.86"/>
<polygon fill="#63b8ff" stroke="#63b8ff" points="157.01,-44.41 162.18,-35.17 152.37,-39.17 157.01,-44.41"/>
<g id="a_edge1&#45;headlabel"><a xlink:href="dir_000154_000180.html" target="_top" xlink:title="4">
<text text-anchor="middle" x="156.19" y="-46.42" font-family="Helvetica,sans-Serif" font-size="10.00" fill="#63b8ff">4</text>
</a>
</g>
</g>
<!-- dir_4535887b2cdca47e625f259d07db0112 -->
<g id="node5" class="node">
<title>dir_4535887b2cdca47e625f259d07db0112</title>
<g id="a_node5"><a xlink:href="dir_4535887b2cdca47e625f259d07db0112.html" target="_top" xlink:title="util">
<polygon fill="#edf0f7" stroke="#7f7f7f" points="244,-35 212,-35 212,-16 244,-16 244,-35"/>
<text text-anchor="middle" x="228" y="-23" font-family="Helvetica,sans-Serif" font-size="10.00">util</text>
</a>
</g>
</g>
<!-- dir_470b886410dd06990f67532f35a9ce13&#45;&gt;dir_4535887b2cdca47e625f259d07db0112 -->
<g id="edge2" class="edge">
<title>dir_470b886410dd06990f67532f35a9ce13&#45;&gt;dir_4535887b2cdca47e625f259d07db0112</title>
<path fill="none" stroke="#63b8ff" d="M130.64,-70.98C150.08,-62.1 180.68,-48.12 202.39,-38.2"/>
<polygon fill="#63b8ff" stroke="#63b8ff" points="204.02,-41.31 211.66,-33.97 201.11,-34.94 204.02,-41.31"/>
<g id="a_edge2&#45;headlabel"><a xlink:href="dir_000154_000185.html" target="_top" xlink:title="4">
<text text-anchor="middle" x="201.93" y="-42.88" font-family="Helvetica,sans-Serif" font-size="10.00" fill="#63b8ff">4</text>
</a>
</g>
</g>
<!-- dir_521de572ae4fe2915cc70a876c52f5b7 -->
<g id="node6" class="node">
<title>dir_521de572ae4fe2915cc70a876c52f5b7</title>
<g id="a_node6"><a xlink:href="dir_521de572ae4fe2915cc70a876c52f5b7.html" target="_top" xlink:title="container">
<polygon fill="#edf0f7" stroke="red" stroke-dasharray="5,2" points="324,-35 262,-35 262,-16 324,-16 324,-35"/>
<text text-anchor="middle" x="293" y="-23" font-family="Helvetica,sans-Serif" font-size="10.00">container</text>
</a>
</g>
</g>
<!-- dir_470b886410dd06990f67532f35a9ce13&#45;&gt;dir_521de572ae4fe2915cc70a876c52f5b7 -->
<g id="edge3" class="edge">
<title>dir_470b886410dd06990f67532f35a9ce13&#45;&gt;dir_521de572ae4fe2915cc70a876c52f5b7</title>
<path fill="none" stroke="#63b8ff" d="M132.06,-73.63C161.34,-65.05 216.36,-48.94 253.83,-37.97"/>
<polygon fill="#63b8ff" stroke="#63b8ff" points="255.29,-41.19 263.9,-35.02 253.32,-34.47 255.29,-41.19"/>
<g id="a_edge3&#45;headlabel"><a xlink:href="dir_000154_000046.html" target="_top" xlink:title="26">
<text text-anchor="middle" x="252.64" y="-42.43" font-family="Helvetica,sans-Serif" font-size="10.00" fill="#63b8ff">26</text>
</a>
</g>
</g>
<!-- dir_60d1624911c2c9f7b6f38e44ec895aaa -->
<g id="node7" class="node">
<title>dir_60d1624911c2c9f7b6f38e44ec895aaa</title>
<g id="a_node7"><a xlink:href="dir_60d1624911c2c9f7b6f38e44ec895aaa.html" target="_top" xlink:title="math">
<polygon fill="#edf0f7" stroke="red" stroke-dasharray="5,2" points="384,-35 342,-35 342,-16 384,-16 384,-35"/>
<text text-anchor="middle" x="363" y="-23" font-family="Helvetica,sans-Serif" font-size="10.00">math</text>
</a>
</g>
</g>
<!-- dir_470b886410dd06990f67532f35a9ce13&#45;&gt;dir_60d1624911c2c9f7b6f38e44ec895aaa -->
<g id="edge4" class="edge">
<title>dir_470b886410dd06990f67532f35a9ce13&#45;&gt;dir_60d1624911c2c9f7b6f38e44ec895aaa</title>
<path fill="none" stroke="#63b8ff" d="M132.23,-75.97C169.65,-69.32 252.42,-54.08 331.61,-35.19"/>
<polygon fill="#63b8ff" stroke="#63b8ff" points="332.85,-38.49 341.75,-32.74 331.21,-31.68 332.85,-38.49"/>
<g id="a_edge4&#45;headlabel"><a xlink:href="dir_000154_000117.html" target="_top" xlink:title="1">
<text text-anchor="middle" x="330.02" y="-39.59" font-family="Helvetica,sans-Serif" font-size="10.00" fill="#63b8ff">1</text>
</a>
</g>
</g>
<!-- dir_a60d4453151dca6bdd8e5fcc350e379b -->
<g id="node8" class="node">
<title>dir_a60d4453151dca6bdd8e5fcc350e379b</title>
<g id="a_node8"><a xlink:href="dir_a60d4453151dca6bdd8e5fcc350e379b.html" target="_top" xlink:title="assert">
<polygon fill="#edf0f7" stroke="#7f7f7f" points="449.5,-35 402.5,-35 402.5,-16 449.5,-16 449.5,-35"/>
<text text-anchor="middle" x="426" y="-23" font-family="Helvetica,sans-Serif" font-size="10.00">assert</text>
</a>
</g>
</g>
<!-- dir_470b886410dd06990f67532f35a9ce13&#45;&gt;dir_a60d4453151dca6bdd8e5fcc350e379b -->
<g id="edge5" class="edge">
<title>dir_470b886410dd06990f67532f35a9ce13&#45;&gt;dir_a60d4453151dca6bdd8e5fcc350e379b</title>
<path fill="none" stroke="#63b8ff" d="M132.22,-76.97C177.14,-71.21 288.76,-56.1 392.28,-34.96"/>
<polygon fill="#63b8ff" stroke="#63b8ff" points="393.19,-38.35 402.27,-32.9 391.77,-31.5 393.19,-38.35"/>
<g id="a_edge5&#45;headlabel"><a xlink:href="dir_000154_000018.html" target="_top" xlink:title="1">
<text text-anchor="middle" x="390.24" y="-39.36" font-family="Helvetica,sans-Serif" font-size="10.00" fill="#63b8ff">1</text>
</a>
</g>
</g>
<!-- dir_f555f996eeee1ebe901dc71e0c5de8ff -->
<g id="node9" class="node">
<title>dir_f555f996eeee1ebe901dc71e0c5de8ff</title>
<g id="a_node9"><a xlink:href="dir_f555f996eeee1ebe901dc71e0c5de8ff.html" target="_top" xlink:title="meta">
<polygon fill="#edf0f7" stroke="#7f7f7f" points="510,-35 468,-35 468,-16 510,-16 510,-35"/>
<text text-anchor="middle" x="489" y="-23" font-family="Helvetica,sans-Serif" font-size="10.00">meta</text>
</a>
</g>
</g>
<!-- dir_470b886410dd06990f67532f35a9ce13&#45;&gt;dir_f555f996eeee1ebe901dc71e0c5de8ff -->
<g id="edge7" class="edge">
<title>dir_470b886410dd06990f67532f35a9ce13&#45;&gt;dir_f555f996eeee1ebe901dc71e0c5de8ff</title>
<path fill="none" stroke="#63b8ff" d="M132.12,-77.97C184.34,-73.79 328.55,-60.82 457.73,-34.98"/>
<polygon fill="#63b8ff" stroke="#63b8ff" points="458.69,-38.35 467.79,-32.93 457.29,-31.49 458.69,-38.35"/>
<g id="a_edge7&#45;headlabel"><a xlink:href="dir_000154_000122.html" target="_top" xlink:title="11">
<text text-anchor="middle" x="455.73" y="-39.35" font-family="Helvetica,sans-Serif" font-size="10.00" fill="#63b8ff">11</text>
</a>
</g>
</g>
</g>
</svg>
