<?xml version="1.0" encoding="UTF-8" standalone="no"?>
<!DOCTYPE svg PUBLIC "-//W3C//DTD SVG 1.1//EN"
 "http://www.w3.org/Graphics/SVG/1.1/DTD/svg11.dtd">
<!-- Generated by graphviz version 2.43.0 (0)
 -->
<!-- Title: libs/di/include/di/any/container Pages: 1 -->
<svg width="685pt" height="133pt"
 viewBox="0.00 0.00 685.00 133.00" xmlns="http://www.w3.org/2000/svg" xmlns:xlink="http://www.w3.org/1999/xlink">
<g id="graph0" class="graph" transform="scale(1 1) rotate(0) translate(4 129)">
<title>libs/di/include/di/any/container</title>
<g id="clust1" class="cluster">
<title>clusterdir_e44b40e2f7a090819cf1915a0b103ff1</title>
<g id="a_clust1"><a xlink:href="dir_e44b40e2f7a090819cf1915a0b103ff1.html" target="_top" xlink:title="any">
<polygon fill="#edf0f7" stroke="#7f7f7f" stroke-dasharray="5,2" points="8,-8 8,-117 343,-117 343,-8 8,-8"/>
<text text-anchor="middle" x="175.5" y="-105" font-family="Helvetica,sans-Serif" font-size="10.00">any</text>
</a>
</g>
</g>
<!-- dir_1955f3f9c14887c1467e6cfea7b00bb3 -->
<g id="node1" class="node">
<title>dir_1955f3f9c14887c1467e6cfea7b00bb3</title>
<g id="a_node1"><a xlink:href="dir_1955f3f9c14887c1467e6cfea7b00bb3.html" target="_top" xlink:title="vtable">
<polygon fill="#a2b4d6" stroke="#404040" points="63.5,-35 16.5,-35 16.5,-16 63.5,-16 63.5,-35"/>
<text text-anchor="middle" x="40" y="-23" font-family="Helvetica,sans-Serif" font-size="10.00">vtable</text>
</a>
</g>
</g>
<!-- dir_24863a0596479db7df20b0f483688857 -->
<g id="node2" class="node">
<title>dir_24863a0596479db7df20b0f483688857</title>
<g id="a_node2"><a xlink:href="dir_24863a0596479db7df20b0f483688857.html" target="_top" xlink:title="storage">
<polygon fill="#a2b4d6" stroke="#404040" points="134.5,-35 81.5,-35 81.5,-16 134.5,-16 134.5,-35"/>
<text text-anchor="middle" x="108" y="-23" font-family="Helvetica,sans-Serif" font-size="10.00">storage</text>
</a>
</g>
</g>
<!-- dir_67d9f0ef52e6a8291cee5653a1bfd29e -->
<g id="node3" class="node">
<title>dir_67d9f0ef52e6a8291cee5653a1bfd29e</title>
<g id="a_node3"><a xlink:href="dir_67d9f0ef52e6a8291cee5653a1bfd29e.html" target="_top" xlink:title="meta">
<polygon fill="#a2b4d6" stroke="#404040" points="195,-35 153,-35 153,-16 195,-16 195,-35"/>
<text text-anchor="middle" x="174" y="-23" font-family="Helvetica,sans-Serif" font-size="10.00">meta</text>
</a>
</g>
</g>
<!-- dir_93a143d10651dfa76952b16fed4fc196 -->
<g id="node4" class="node">
<title>dir_93a143d10651dfa76952b16fed4fc196</title>
<g id="a_node4"><a xlink:href="dir_93a143d10651dfa76952b16fed4fc196.html" target="_top" xlink:title="concepts">
<polygon fill="#a2b4d6" stroke="#404040" points="273,-35 213,-35 213,-16 273,-16 273,-35"/>
<text text-anchor="middle" x="243" y="-23" font-family="Helvetica,sans-Serif" font-size="10.00">concepts</text>
</a>
</g>
</g>
<!-- dir_d6a825e771e88c34a7e5a1c5f3d40fba -->
<g id="node5" class="node">
<title>dir_d6a825e771e88c34a7e5a1c5f3d40fba</title>
<g id="a_node5"><a xlink:href="dir_d6a825e771e88c34a7e5a1c5f3d40fba.html" target="_top" xlink:title="types">
<polygon fill="#a2b4d6" stroke="#404040" points="335,-35 291,-35 291,-16 335,-16 335,-35"/>
<text text-anchor="middle" x="313" y="-23" font-family="Helvetica,sans-Serif" font-size="10.00">types</text>
</a>
</g>
</g>
<!-- dir_cda844dca1e2e0dccf7b3a760fb23d6e -->
<g id="node6" class="node">
<title>dir_cda844dca1e2e0dccf7b3a760fb23d6e</title>
<g id="a_node6"><a xlink:href="dir_cda844dca1e2e0dccf7b3a760fb23d6e.html" target="_top" xlink:title="container">
<polygon fill="#edf0f7" stroke="#404040" stroke-width="2" points="335,-90 273,-90 273,-71 335,-71 335,-90"/>
<text text-anchor="middle" x="304" y="-78" font-family="Helvetica,sans-Serif" font-size="10.00">container</text>
</a>
</g>
</g>
<!-- dir_cda844dca1e2e0dccf7b3a760fb23d6e&#45;&gt;dir_1955f3f9c14887c1467e6cfea7b00bb3 -->
<g id="edge2" class="edge">
<title>dir_cda844dca1e2e0dccf7b3a760fb23d6e&#45;&gt;dir_1955f3f9c14887c1467e6cfea7b00bb3</title>
<path fill="none" stroke="#63b8ff" d="M272.86,-74.13C230.2,-66.64 150.97,-52.24 73.66,-35.03"/>
<polygon fill="#63b8ff" stroke="#63b8ff" points="74.27,-31.58 63.75,-32.8 72.74,-38.41 74.27,-31.58"/>
<g id="a_edge2&#45;headlabel"><a xlink:href="dir_000045_000190.html" target="_top" xlink:title="1">
<text text-anchor="middle" x="78.4" y="-27.1" font-family="Helvetica,sans-Serif" font-size="10.00" fill="#63b8ff">1</text>
</a>
</g>
</g>
<!-- dir_cda844dca1e2e0dccf7b3a760fb23d6e&#45;&gt;dir_24863a0596479db7df20b0f483688857 -->
<g id="edge3" class="edge">
<title>dir_cda844dca1e2e0dccf7b3a760fb23d6e&#45;&gt;dir_24863a0596479db7df20b0f483688857</title>
<path fill="none" stroke="#63b8ff" d="M272.94,-71.1C238.02,-61.66 181.36,-46.34 144.38,-36.34"/>
<polygon fill="#63b8ff" stroke="#63b8ff" points="145.08,-32.9 134.51,-33.67 143.25,-39.66 145.08,-32.9"/>
<g id="a_edge3&#45;headlabel"><a xlink:href="dir_000045_000159.html" target="_top" xlink:title="2">
<text text-anchor="middle" x="149.29" y="-28.6" font-family="Helvetica,sans-Serif" font-size="10.00" fill="#63b8ff">2</text>
</a>
</g>
</g>
<!-- dir_cda844dca1e2e0dccf7b3a760fb23d6e&#45;&gt;dir_67d9f0ef52e6a8291cee5653a1bfd29e -->
<g id="edge6" class="edge">
<title>dir_cda844dca1e2e0dccf7b3a760fb23d6e&#45;&gt;dir_67d9f0ef52e6a8291cee5653a1bfd29e</title>
<path fill="none" stroke="#63b8ff" d="M283.11,-70.98C261.92,-62.34 228.87,-48.87 204.7,-39.02"/>
<polygon fill="#63b8ff" stroke="#63b8ff" points="205.85,-35.7 195.27,-35.17 203.21,-42.19 205.85,-35.7"/>
<g id="a_edge6&#45;headlabel"><a xlink:href="dir_000045_000119.html" target="_top" xlink:title="1">
<text text-anchor="middle" x="210.25" y="-31.93" font-family="Helvetica,sans-Serif" font-size="10.00" fill="#63b8ff">1</text>
</a>
</g>
</g>
<!-- dir_cda844dca1e2e0dccf7b3a760fb23d6e&#45;&gt;dir_93a143d10651dfa76952b16fed4fc196 -->
<g id="edge7" class="edge">
<title>dir_cda844dca1e2e0dccf7b3a760fb23d6e&#45;&gt;dir_93a143d10651dfa76952b16fed4fc196</title>
<path fill="none" stroke="#63b8ff" d="M294.2,-70.98C285.18,-63.15 271.59,-51.34 260.68,-41.86"/>
<polygon fill="#63b8ff" stroke="#63b8ff" points="262.82,-39.09 252.98,-35.17 258.23,-44.37 262.82,-39.09"/>
<g id="a_edge7&#45;headlabel"><a xlink:href="dir_000045_000035.html" target="_top" xlink:title="1">
<text text-anchor="middle" x="267.4" y="-36.8" font-family="Helvetica,sans-Serif" font-size="10.00" fill="#63b8ff">1</text>
</a>
</g>
</g>
<!-- dir_cda844dca1e2e0dccf7b3a760fb23d6e&#45;&gt;dir_d6a825e771e88c34a7e5a1c5f3d40fba -->
<g id="edge9" class="edge">
<title>dir_cda844dca1e2e0dccf7b3a760fb23d6e&#45;&gt;dir_d6a825e771e88c34a7e5a1c5f3d40fba</title>
<path fill="none" stroke="#63b8ff" d="M305.49,-70.75C306.67,-63.8 308.36,-53.85 309.84,-45.13"/>
<polygon fill="#63b8ff" stroke="#63b8ff" points="313.32,-45.53 311.54,-35.09 306.42,-44.36 313.32,-45.53"/>
<g id="a_edge9&#45;headlabel"><a xlink:href="dir_000045_000177.html" target="_top" xlink:title="1">
<text text-anchor="middle" x="315.52" y="-47.05" font-family="Helvetica,sans-Serif" font-size="10.00" fill="#63b8ff">1</text>
</a>
</g>
</g>
<!-- dir_0669efae56692bb73da75efb5ebbccdf -->
<g id="node7" class="node">
<title>dir_0669efae56692bb73da75efb5ebbccdf</title>
<g id="a_node7"><a xlink:href="dir_0669efae56692bb73da75efb5ebbccdf.html" target="_top" xlink:title="function">
<polygon fill="#edf0f7" stroke="red" stroke-dasharray="5,2" points="409,-35 353,-35 353,-16 409,-16 409,-35"/>
<text text-anchor="middle" x="381" y="-23" font-family="Helvetica,sans-Serif" font-size="10.00">function</text>
</a>
</g>
</g>
<!-- dir_cda844dca1e2e0dccf7b3a760fb23d6e&#45;&gt;dir_0669efae56692bb73da75efb5ebbccdf -->
<g id="edge1" class="edge">
<title>dir_cda844dca1e2e0dccf7b3a760fb23d6e&#45;&gt;dir_0669efae56692bb73da75efb5ebbccdf</title>
<path fill="none" stroke="#63b8ff" d="M316.37,-70.98C328.09,-62.92 345.92,-50.65 359.89,-41.03"/>
<polygon fill="#63b8ff" stroke="#63b8ff" points="362.15,-43.72 368.4,-35.17 358.18,-37.96 362.15,-43.72"/>
<g id="a_edge1&#45;headlabel"><a xlink:href="dir_000045_000082.html" target="_top" xlink:title="1">
<text text-anchor="middle" x="360.8" y="-45.6" font-family="Helvetica,sans-Serif" font-size="10.00" fill="#63b8ff">1</text>
</a>
</g>
</g>
<!-- dir_4535887b2cdca47e625f259d07db0112 -->
<g id="node8" class="node">
<title>dir_4535887b2cdca47e625f259d07db0112</title>
<g id="a_node8"><a xlink:href="dir_4535887b2cdca47e625f259d07db0112.html" target="_top" xlink:title="util">
<polygon fill="#edf0f7" stroke="#7f7f7f" points="459,-35 427,-35 427,-16 459,-16 459,-35"/>
<text text-anchor="middle" x="443" y="-23" font-family="Helvetica,sans-Serif" font-size="10.00">util</text>
</a>
</g>
</g>
<!-- dir_cda844dca1e2e0dccf7b3a760fb23d6e&#45;&gt;dir_4535887b2cdca47e625f259d07db0112 -->
<g id="edge4" class="edge">
<title>dir_cda844dca1e2e0dccf7b3a760fb23d6e&#45;&gt;dir_4535887b2cdca47e625f259d07db0112</title>
<path fill="none" stroke="#63b8ff" d="M326.33,-70.98C351.13,-61.53 391.09,-46.29 417.2,-36.34"/>
<polygon fill="#63b8ff" stroke="#63b8ff" points="418.71,-39.51 426.8,-32.68 416.21,-32.97 418.71,-39.51"/>
<g id="a_edge4&#45;headlabel"><a xlink:href="dir_000045_000185.html" target="_top" xlink:title="5">
<text text-anchor="middle" x="416.36" y="-40.94" font-family="Helvetica,sans-Serif" font-size="10.00" fill="#63b8ff">5</text>
</a>
</g>
</g>
<!-- dir_521de572ae4fe2915cc70a876c52f5b7 -->
<g id="node9" class="node">
<title>dir_521de572ae4fe2915cc70a876c52f5b7</title>
<g id="a_node9"><a xlink:href="dir_521de572ae4fe2915cc70a876c52f5b7.html" target="_top" xlink:title="container">
<polygon fill="#edf0f7" stroke="red" stroke-dasharray="5,2" points="539,-35 477,-35 477,-16 539,-16 539,-35"/>
<text text-anchor="middle" x="508" y="-23" font-family="Helvetica,sans-Serif" font-size="10.00">container</text>
</a>
</g>
</g>
<!-- dir_cda844dca1e2e0dccf7b3a760fb23d6e&#45;&gt;dir_521de572ae4fe2915cc70a876c52f5b7 -->
<g id="edge5" class="edge">
<title>dir_cda844dca1e2e0dccf7b3a760fb23d6e&#45;&gt;dir_521de572ae4fe2915cc70a876c52f5b7</title>
<path fill="none" stroke="#63b8ff" d="M335.43,-71.33C370.72,-62.17 428.12,-47.25 466.94,-37.17"/>
<polygon fill="#63b8ff" stroke="#63b8ff" points="468.07,-40.49 476.87,-34.59 466.31,-33.71 468.07,-40.49"/>
<g id="a_edge5&#45;headlabel"><a xlink:href="dir_000045_000046.html" target="_top" xlink:title="3">
<text text-anchor="middle" x="465.31" y="-41.64" font-family="Helvetica,sans-Serif" font-size="10.00" fill="#63b8ff">3</text>
</a>
</g>
</g>
<!-- dir_aaf67126bd5deefc4d96704f76f22cc2 -->
<g id="node10" class="node">
<title>dir_aaf67126bd5deefc4d96704f76f22cc2</title>
<g id="a_node10"><a xlink:href="dir_aaf67126bd5deefc4d96704f76f22cc2.html" target="_top" xlink:title="platform">
<polygon fill="#edf0f7" stroke="#7f7f7f" points="616.5,-35 557.5,-35 557.5,-16 616.5,-16 616.5,-35"/>
<text text-anchor="middle" x="587" y="-23" font-family="Helvetica,sans-Serif" font-size="10.00">platform</text>
</a>
</g>
</g>
<!-- dir_cda844dca1e2e0dccf7b3a760fb23d6e&#45;&gt;dir_aaf67126bd5deefc4d96704f76f22cc2 -->
<g id="edge8" class="edge">
<title>dir_cda844dca1e2e0dccf7b3a760fb23d6e&#45;&gt;dir_aaf67126bd5deefc4d96704f76f22cc2</title>
<path fill="none" stroke="#63b8ff" d="M335.26,-74.15C379.93,-66.43 464.82,-51.48 547.18,-35.11"/>
<polygon fill="#63b8ff" stroke="#63b8ff" points="548.09,-38.49 557.21,-33.1 546.72,-31.63 548.09,-38.49"/>
<g id="a_edge8&#45;headlabel"><a xlink:href="dir_000045_000135.html" target="_top" xlink:title="3">
<text text-anchor="middle" x="545.12" y="-39.48" font-family="Helvetica,sans-Serif" font-size="10.00" fill="#63b8ff">3</text>
</a>
</g>
</g>
<!-- dir_f555f996eeee1ebe901dc71e0c5de8ff -->
<g id="node11" class="node">
<title>dir_f555f996eeee1ebe901dc71e0c5de8ff</title>
<g id="a_node11"><a xlink:href="dir_f555f996eeee1ebe901dc71e0c5de8ff.html" target="_top" xlink:title="meta">
<polygon fill="#edf0f7" stroke="#7f7f7f" points="677,-35 635,-35 635,-16 677,-16 677,-35"/>
<text text-anchor="middle" x="656" y="-23" font-family="Helvetica,sans-Serif" font-size="10.00">meta</text>
</a>
</g>
</g>
<!-- dir_cda844dca1e2e0dccf7b3a760fb23d6e&#45;&gt;dir_f555f996eeee1ebe901dc71e0c5de8ff -->
<g id="edge10" class="edge">
<title>dir_cda844dca1e2e0dccf7b3a760fb23d6e&#45;&gt;dir_f555f996eeee1ebe901dc71e0c5de8ff</title>
<path fill="none" stroke="#63b8ff" d="M335.33,-76.63C391.49,-71.17 513.11,-57.93 624.71,-35.01"/>
<polygon fill="#63b8ff" stroke="#63b8ff" points="625.71,-38.37 634.79,-32.9 624.28,-31.52 625.71,-38.37"/>
<g id="a_edge10&#45;headlabel"><a xlink:href="dir_000045_000122.html" target="_top" xlink:title="3">
<text text-anchor="middle" x="622.77" y="-39.39" font-family="Helvetica,sans-Serif" font-size="10.00" fill="#63b8ff">3</text>
</a>
</g>
</g>
</g>
</svg>
