<?xml version="1.0" encoding="UTF-8" standalone="no"?>
<!DOCTYPE svg PUBLIC "-//W3C//DTD SVG 1.1//EN"
 "http://www.w3.org/Graphics/SVG/1.1/DTD/svg11.dtd">
<!-- Generated by graphviz version 2.43.0 (0)
 -->
<!-- Title: libs/di/include/di/exec/elf Pages: 1 -->
<svg width="150pt" height="117pt"
 viewBox="0.00 0.00 149.50 117.00" xmlns="http://www.w3.org/2000/svg" xmlns:xlink="http://www.w3.org/1999/xlink">
<g id="graph0" class="graph" transform="scale(1 1) rotate(0) translate(4 113)">
<title>libs/di/include/di/exec/elf</title>
<g id="clust1" class="cluster">
<title>clusterdir_148d86568bc05e274222eb394c98fc85</title>
<g id="a_clust1"><a xlink:href="dir_148d86568bc05e274222eb394c98fc85.html" target="_top" xlink:title="exec">
<polygon fill="#edf0f7" stroke="#7f7f7f" stroke-dasharray="5,2" points="46.5,-47 46.5,-101 92.5,-101 92.5,-47 46.5,-47"/>
<text text-anchor="middle" x="69.5" y="-89" font-family="Helvetica,sans-Serif" font-size="10.00">exec</text>
</a>
</g>
</g>
<!-- dir_e09e9e5836bbc774c68d27951c9d977a -->
<g id="node1" class="node">
<title>dir_e09e9e5836bbc774c68d27951c9d977a</title>
<g id="a_node1"><a xlink:href="dir_e09e9e5836bbc774c68d27951c9d977a.html" target="_top" xlink:title="elf">
<polygon fill="#edf0f7" stroke="#404040" stroke-width="2" points="84,-74 55,-74 55,-55 84,-55 84,-74"/>
<text text-anchor="middle" x="69.5" y="-62" font-family="Helvetica,sans-Serif" font-size="10.00">elf</text>
</a>
</g>
</g>
<!-- dir_143f1d6bc6d46924c644ec67dc1fb4fc -->
<g id="node2" class="node">
<title>dir_143f1d6bc6d46924c644ec67dc1fb4fc</title>
<g id="a_node2"><a xlink:href="dir_143f1d6bc6d46924c644ec67dc1fb4fc.html" target="_top" xlink:title="bit">
<polygon fill="#edf0f7" stroke="red" stroke-dasharray="5,2" points="29,-19 0,-19 0,0 29,0 29,-19"/>
<text text-anchor="middle" x="14.5" y="-7" font-family="Helvetica,sans-Serif" font-size="10.00">bit</text>
</a>
</g>
</g>
<!-- dir_e09e9e5836bbc774c68d27951c9d977a&#45;&gt;dir_143f1d6bc6d46924c644ec67dc1fb4fc -->
<g id="edge1" class="edge">
<title>dir_e09e9e5836bbc774c68d27951c9d977a&#45;&gt;dir_143f1d6bc6d46924c644ec67dc1fb4fc</title>
<path fill="none" stroke="#63b8ff" d="M60.42,-54.75C52.41,-47.03 40.54,-35.6 30.88,-26.28"/>
<polygon fill="#63b8ff" stroke="#63b8ff" points="33.04,-23.51 23.41,-19.09 28.19,-28.55 33.04,-23.51"/>
<g id="a_edge1&#45;headlabel"><a xlink:href="dir_000067_000022.html" target="_top" xlink:title="1">
<text text-anchor="middle" x="37.6" y="-21.46" font-family="Helvetica,sans-Serif" font-size="10.00" fill="#63b8ff">1</text>
</a>
</g>
</g>
<!-- dir_30ecaf38acae77be14fb9173f98f8612 -->
<g id="node3" class="node">
<title>dir_30ecaf38acae77be14fb9173f98f8612</title>
<g id="a_node3"><a xlink:href="dir_30ecaf38acae77be14fb9173f98f8612.html" target="_top" xlink:title="types">
<polygon fill="#edf0f7" stroke="#7f7f7f" points="91.5,-19 47.5,-19 47.5,0 91.5,0 91.5,-19"/>
<text text-anchor="middle" x="69.5" y="-7" font-family="Helvetica,sans-Serif" font-size="10.00">types</text>
</a>
</g>
</g>
<!-- dir_e09e9e5836bbc774c68d27951c9d977a&#45;&gt;dir_30ecaf38acae77be14fb9173f98f8612 -->
<g id="edge2" class="edge">
<title>dir_e09e9e5836bbc774c68d27951c9d977a&#45;&gt;dir_30ecaf38acae77be14fb9173f98f8612</title>
<path fill="none" stroke="#63b8ff" d="M69.5,-54.75C69.5,-47.8 69.5,-37.85 69.5,-29.13"/>
<polygon fill="#63b8ff" stroke="#63b8ff" points="73,-29.09 69.5,-19.09 66,-29.09 73,-29.09"/>
<g id="a_edge2&#45;headlabel"><a xlink:href="dir_000067_000180.html" target="_top" xlink:title="1">
<text text-anchor="middle" x="75.84" y="-30.18" font-family="Helvetica,sans-Serif" font-size="10.00" fill="#63b8ff">1</text>
</a>
</g>
</g>
<!-- dir_4535887b2cdca47e625f259d07db0112 -->
<g id="node4" class="node">
<title>dir_4535887b2cdca47e625f259d07db0112</title>
<g id="a_node4"><a xlink:href="dir_4535887b2cdca47e625f259d07db0112.html" target="_top" xlink:title="util">
<polygon fill="#edf0f7" stroke="#7f7f7f" points="141.5,-19 109.5,-19 109.5,0 141.5,0 141.5,-19"/>
<text text-anchor="middle" x="125.5" y="-7" font-family="Helvetica,sans-Serif" font-size="10.00">util</text>
</a>
</g>
</g>
<!-- dir_e09e9e5836bbc774c68d27951c9d977a&#45;&gt;dir_4535887b2cdca47e625f259d07db0112 -->
<g id="edge3" class="edge">
<title>dir_e09e9e5836bbc774c68d27951c9d977a&#45;&gt;dir_4535887b2cdca47e625f259d07db0112</title>
<path fill="none" stroke="#63b8ff" d="M78.5,-54.98C86.69,-47.23 99.01,-35.58 108.97,-26.14"/>
<polygon fill="#63b8ff" stroke="#63b8ff" points="111.48,-28.59 116.34,-19.17 106.67,-23.5 111.48,-28.59"/>
<g id="a_edge3&#45;headlabel"><a xlink:href="dir_000067_000185.html" target="_top" xlink:title="1">
<text text-anchor="middle" x="110.82" y="-30.62" font-family="Helvetica,sans-Serif" font-size="10.00" fill="#63b8ff">1</text>
</a>
</g>
</g>
</g>
</svg>
