<?xml version="1.0" encoding="UTF-8" standalone="no"?>
<!DOCTYPE svg PUBLIC "-//W3C//DTD SVG 1.1//EN"
 "http://www.w3.org/Graphics/SVG/1.1/DTD/svg11.dtd">
<!-- Generated by graphviz version 2.43.0 (0)
 -->
<!-- Title: iris/include/iris Pages: 1 -->
<svg width="288pt" height="290pt"
 viewBox="0.00 0.00 288.00 290.00" xmlns="http://www.w3.org/2000/svg" xmlns:xlink="http://www.w3.org/1999/xlink">
<g id="graph0" class="graph" transform="scale(1 1) rotate(0) translate(4 286)">
<title>iris/include/iris</title>
<g id="clust1" class="cluster">
<title>clusterdir_29a765eed241630f2929477fec556e75</title>
<g id="a_clust1"><a xlink:href="dir_29a765eed241630f2929477fec556e75.html" target="_top" xlink:title="include">
<polygon fill="#edf0f7" stroke="#7f7f7f" stroke-dasharray="5,2" points="8,-39 8,-274 272,-274 272,-39 8,-39"/>
<text text-anchor="middle" x="140" y="-262" font-family="Helvetica,sans-Serif" font-size="10.00">include</text>
</a>
</g>
</g>
<g id="clust2" class="cluster">
<title>clusterdir_ffe5edf85fa540270b5bdba28be40ae5</title>
<g id="a_clust2"><a xlink:href="dir_ffe5edf85fa540270b5bdba28be40ae5.html" target="_top">
<polygon fill="#edf0f7" stroke="#404040" stroke-width="2" points="16,-47 16,-247 264,-247 264,-47 16,-47"/>
</a>
</g>
</g>
<!-- dir_ffe5edf85fa540270b5bdba28be40ae5 -->
<g id="node1" class="node">
<title>dir_ffe5edf85fa540270b5bdba28be40ae5</title>
<text text-anchor="middle" x="240" y="-227" font-family="Helvetica,sans-Serif" font-size="10.00">iris</text>
</g>
<!-- dir_5fe499bcb7f32920606defa2f08a6cab -->
<g id="node2" class="node">
<title>dir_5fe499bcb7f32920606defa2f08a6cab</title>
<g id="a_node2"><a xlink:href="dir_5fe499bcb7f32920606defa2f08a6cab.html" target="_top" xlink:title="arch">
<polygon fill="#a2b4d6" stroke="#404040" points="206,-239 168,-239 168,-220 206,-220 206,-239"/>
<text text-anchor="middle" x="187" y="-227" font-family="Helvetica,sans-Serif" font-size="10.00">arch</text>
</a>
</g>
</g>
<!-- dir_be381e3b7aa79a91c125f50d5abcc4e9 -->
<g id="node4" class="node">
<title>dir_be381e3b7aa79a91c125f50d5abcc4e9</title>
<g id="a_node4"><a xlink:href="dir_be381e3b7aa79a91c125f50d5abcc4e9.html" target="_top" xlink:title="core">
<polygon fill="#a2b4d6" stroke="#404040" points="206,-184 168,-184 168,-165 206,-165 206,-184"/>
<text text-anchor="middle" x="187" y="-172" font-family="Helvetica,sans-Serif" font-size="10.00">core</text>
</a>
</g>
</g>
<!-- dir_5fe499bcb7f32920606defa2f08a6cab&#45;&gt;dir_be381e3b7aa79a91c125f50d5abcc4e9 -->
<g id="edge4" class="edge">
<title>dir_5fe499bcb7f32920606defa2f08a6cab&#45;&gt;dir_be381e3b7aa79a91c125f50d5abcc4e9</title>
<path fill="none" stroke="#63b8ff" d="M187,-219.75C187,-212.8 187,-202.85 187,-194.13"/>
<polygon fill="#63b8ff" stroke="#63b8ff" points="190.5,-194.09 187,-184.09 183.5,-194.09 190.5,-194.09"/>
<g id="a_edge4&#45;headlabel"><a xlink:href="dir_000011_000052.html" target="_top" xlink:title="1">
<text text-anchor="middle" x="193.34" y="-195.18" font-family="Helvetica,sans-Serif" font-size="10.00" fill="#63b8ff">1</text>
</a>
</g>
</g>
<!-- dir_7cd5da72e38cd0f075d57a788b4f2242 -->
<g id="node6" class="node">
<title>dir_7cd5da72e38cd0f075d57a788b4f2242</title>
<g id="a_node6"><a xlink:href="dir_7cd5da72e38cd0f075d57a788b4f2242.html" target="_top" xlink:title="hw">
<polygon fill="#a2b4d6" stroke="#404040" points="238.5,-129 207.5,-129 207.5,-110 238.5,-110 238.5,-129"/>
<text text-anchor="middle" x="223" y="-117" font-family="Helvetica,sans-Serif" font-size="10.00">hw</text>
</a>
</g>
</g>
<!-- dir_5fe499bcb7f32920606defa2f08a6cab&#45;&gt;dir_7cd5da72e38cd0f075d57a788b4f2242 -->
<g id="edge3" class="edge">
<title>dir_5fe499bcb7f32920606defa2f08a6cab&#45;&gt;dir_7cd5da72e38cd0f075d57a788b4f2242</title>
<path fill="none" stroke="#63b8ff" d="M194.03,-219.9C200.62,-211.35 210.14,-197.58 215,-184 220.15,-169.6 222.08,-152.32 222.75,-139.43"/>
<polygon fill="#63b8ff" stroke="#63b8ff" points="226.25,-139.51 223.08,-129.41 219.26,-139.29 226.25,-139.51"/>
<g id="a_edge3&#45;headlabel"><a xlink:href="dir_000011_000089.html" target="_top" xlink:title="4">
<text text-anchor="middle" x="228.97" y="-140.7" font-family="Helvetica,sans-Serif" font-size="10.00" fill="#63b8ff">4</text>
</a>
</g>
</g>
<!-- dir_945708b8d3397c2507c5e618c4393ffa -->
<g id="node7" class="node">
<title>dir_945708b8d3397c2507c5e618c4393ffa</title>
<g id="a_node7"><a xlink:href="dir_945708b8d3397c2507c5e618c4393ffa.html" target="_top" xlink:title="mm">
<polygon fill="#a2b4d6" stroke="#404040" points="163,-74 127,-74 127,-55 163,-55 163,-74"/>
<text text-anchor="middle" x="145" y="-62" font-family="Helvetica,sans-Serif" font-size="10.00">mm</text>
</a>
</g>
</g>
<!-- dir_5fe499bcb7f32920606defa2f08a6cab&#45;&gt;dir_945708b8d3397c2507c5e618c4393ffa -->
<g id="edge2" class="edge">
<title>dir_5fe499bcb7f32920606defa2f08a6cab&#45;&gt;dir_945708b8d3397c2507c5e618c4393ffa</title>
<path fill="none" stroke="#63b8ff" d="M179.91,-219.89C166.94,-203.47 139.88,-166.01 131,-129 127.34,-113.73 131.79,-96.32 136.61,-83.59"/>
<polygon fill="#63b8ff" stroke="#63b8ff" points="139.93,-84.73 140.59,-74.15 133.48,-82.01 139.93,-84.73"/>
<g id="a_edge2&#45;headlabel"><a xlink:href="dir_000011_000126.html" target="_top" xlink:title="4">
<text text-anchor="middle" x="141.15" y="-86.64" font-family="Helvetica,sans-Serif" font-size="10.00" fill="#63b8ff">4</text>
</a>
</g>
</g>
<!-- dir_0d9b91d0f0b9ec0856341172f56c0a57 -->
<g id="node9" class="node">
<title>dir_0d9b91d0f0b9ec0856341172f56c0a57</title>
<g id="a_node9"><a xlink:href="dir_0d9b91d0f0b9ec0856341172f56c0a57.html" target="_top" xlink:title="uapi">
<polygon fill="#a2b4d6" stroke="#404040" points="109,-74 71,-74 71,-55 109,-55 109,-74"/>
<text text-anchor="middle" x="90" y="-62" font-family="Helvetica,sans-Serif" font-size="10.00">uapi</text>
</a>
</g>
</g>
<!-- dir_5fe499bcb7f32920606defa2f08a6cab&#45;&gt;dir_0d9b91d0f0b9ec0856341172f56c0a57 -->
<g id="edge5" class="edge">
<title>dir_5fe499bcb7f32920606defa2f08a6cab&#45;&gt;dir_0d9b91d0f0b9ec0856341172f56c0a57</title>
<path fill="none" stroke="#63b8ff" d="M175.93,-219.96C165.77,-211.67 150.85,-198.27 141,-184 118.71,-151.71 103.05,-108.13 95.38,-83.82"/>
<polygon fill="#63b8ff" stroke="#63b8ff" points="98.68,-82.67 92.42,-74.12 91.99,-84.71 98.68,-82.67"/>
<g id="a_edge5&#45;headlabel"><a xlink:href="dir_000011_000181.html" target="_top" xlink:title="1">
<text text-anchor="middle" x="102.45" y="-82.78" font-family="Helvetica,sans-Serif" font-size="10.00" fill="#63b8ff">1</text>
</a>
</g>
</g>
<!-- dir_6719ab1f1f7655efc2fa43f7eb574fd1 -->
<g id="node10" class="node">
<title>dir_6719ab1f1f7655efc2fa43f7eb574fd1</title>
<g id="a_node10"><a xlink:href="dir_6719ab1f1f7655efc2fa43f7eb574fd1.html" target="_top" xlink:title="libs">
<polygon fill="#edf0f7" stroke="red" points="227,-19 193,-19 193,0 227,0 227,-19"/>
<text text-anchor="middle" x="210" y="-7" font-family="Helvetica,sans-Serif" font-size="10.00">libs</text>
</a>
</g>
</g>
<!-- dir_5fe499bcb7f32920606defa2f08a6cab&#45;&gt;dir_6719ab1f1f7655efc2fa43f7eb574fd1 -->
<g id="edge1" class="edge">
<title>dir_5fe499bcb7f32920606defa2f08a6cab&#45;&gt;dir_6719ab1f1f7655efc2fa43f7eb574fd1</title>
<path fill="none" stroke="#63b8ff" d="M197.06,-219.91C214.73,-204.08 250.71,-168.31 264,-129 272.1,-105.04 267.68,-61.92 253,-39 248.82,-32.47 242.54,-27.09 236.07,-22.84"/>
<polygon fill="#63b8ff" stroke="#63b8ff" points="237.7,-19.74 227.3,-17.73 234.18,-25.79 237.7,-19.74"/>
<g id="a_edge1&#45;headlabel"><a xlink:href="dir_000011_000109.html" target="_top" xlink:title="23">
<text text-anchor="middle" x="242.23" y="-16.59" font-family="Helvetica,sans-Serif" font-size="10.00" fill="#63b8ff">23</text>
</a>
</g>
</g>
<!-- dir_9fdded5c4b67c8302fcdd3b50b7b5c11 -->
<g id="node3" class="node">
<title>dir_9fdded5c4b67c8302fcdd3b50b7b5c11</title>
<g id="a_node3"><a xlink:href="dir_9fdded5c4b67c8302fcdd3b50b7b5c11.html" target="_top" xlink:title="boot">
<polygon fill="#a2b4d6" stroke="#404040" points="150,-239 112,-239 112,-220 150,-220 150,-239"/>
<text text-anchor="middle" x="131" y="-227" font-family="Helvetica,sans-Serif" font-size="10.00">boot</text>
</a>
</g>
</g>
<!-- dir_a21c0d42bc7a96803f2e083bf7f05619 -->
<g id="node5" class="node">
<title>dir_a21c0d42bc7a96803f2e083bf7f05619</title>
<g id="a_node5"><a xlink:href="dir_a21c0d42bc7a96803f2e083bf7f05619.html" target="_top" xlink:title="fs">
<polygon fill="#a2b4d6" stroke="#404040" points="168.5,-129 139.5,-129 139.5,-110 168.5,-110 168.5,-129"/>
<text text-anchor="middle" x="154" y="-117" font-family="Helvetica,sans-Serif" font-size="10.00">fs</text>
</a>
</g>
</g>
<!-- dir_be381e3b7aa79a91c125f50d5abcc4e9&#45;&gt;dir_a21c0d42bc7a96803f2e083bf7f05619 -->
<g id="edge10" class="edge">
<title>dir_be381e3b7aa79a91c125f50d5abcc4e9&#45;&gt;dir_a21c0d42bc7a96803f2e083bf7f05619</title>
<path fill="none" stroke="#63b8ff" d="M176.38,-164.75C170.37,-157.57 163.49,-147.18 158.65,-138.27"/>
<polygon fill="#63b8ff" stroke="#63b8ff" points="161.72,-136.57 154.22,-129.09 155.41,-139.62 161.72,-136.57"/>
<g id="a_edge10&#45;headlabel"><a xlink:href="dir_000052_000081.html" target="_top" xlink:title="6">
<text text-anchor="middle" x="165.84" y="-136.07" font-family="Helvetica,sans-Serif" font-size="10.00" fill="#63b8ff">6</text>
</a>
</g>
</g>
<!-- dir_be381e3b7aa79a91c125f50d5abcc4e9&#45;&gt;dir_7cd5da72e38cd0f075d57a788b4f2242 -->
<g id="edge8" class="edge">
<title>dir_be381e3b7aa79a91c125f50d5abcc4e9&#45;&gt;dir_7cd5da72e38cd0f075d57a788b4f2242</title>
<path fill="none" stroke="#63b8ff" d="M187.78,-164.75C191.29,-157.18 198.48,-146.05 205.61,-136.84"/>
<polygon fill="#63b8ff" stroke="#63b8ff" points="208.35,-139.02 212.03,-129.09 202.96,-134.56 208.35,-139.02"/>
<g id="a_edge8&#45;headlabel"><a xlink:href="dir_000052_000089.html" target="_top" xlink:title="3">
<text text-anchor="middle" x="208.24" y="-141.1" font-family="Helvetica,sans-Serif" font-size="10.00" fill="#63b8ff">3</text>
</a>
</g>
</g>
<!-- dir_be381e3b7aa79a91c125f50d5abcc4e9&#45;&gt;dir_945708b8d3397c2507c5e618c4393ffa -->
<g id="edge9" class="edge">
<title>dir_be381e3b7aa79a91c125f50d5abcc4e9&#45;&gt;dir_945708b8d3397c2507c5e618c4393ffa</title>
<path fill="none" stroke="#63b8ff" d="M181.23,-164.94C177.97,-152.4 176.61,-128.54 169,-110 164.91,-100.02 158.07,-90.25 152.43,-82.41"/>
<polygon fill="#63b8ff" stroke="#63b8ff" points="155.25,-80.34 146.6,-74.21 149.54,-84.39 155.25,-80.34"/>
<g id="a_edge9&#45;headlabel"><a xlink:href="dir_000052_000126.html" target="_top" xlink:title="6">
<text text-anchor="middle" x="159.64" y="-79.12" font-family="Helvetica,sans-Serif" font-size="10.00" fill="#63b8ff">6</text>
</a>
</g>
</g>
<!-- dir_be381e3b7aa79a91c125f50d5abcc4e9&#45;&gt;dir_0d9b91d0f0b9ec0856341172f56c0a57 -->
<g id="edge6" class="edge">
<title>dir_be381e3b7aa79a91c125f50d5abcc4e9&#45;&gt;dir_0d9b91d0f0b9ec0856341172f56c0a57</title>
<path fill="none" stroke="#63b8ff" d="M173.53,-164.68C161.5,-156.39 143.84,-143.17 131,-129 118.36,-115.05 107.01,-96.8 99.48,-83.45"/>
<polygon fill="#63b8ff" stroke="#63b8ff" points="102.37,-81.44 94.5,-74.34 96.23,-84.79 102.37,-81.44"/>
<g id="a_edge6&#45;headlabel"><a xlink:href="dir_000052_000181.html" target="_top" xlink:title="1">
<text text-anchor="middle" x="106.58" y="-80.73" font-family="Helvetica,sans-Serif" font-size="10.00" fill="#63b8ff">1</text>
</a>
</g>
</g>
<!-- dir_be381e3b7aa79a91c125f50d5abcc4e9&#45;&gt;dir_6719ab1f1f7655efc2fa43f7eb574fd1 -->
<g id="edge7" class="edge">
<title>dir_be381e3b7aa79a91c125f50d5abcc4e9&#45;&gt;dir_6719ab1f1f7655efc2fa43f7eb574fd1</title>
<path fill="none" stroke="#63b8ff" d="M206.01,-165.51C220.45,-158.3 239.27,-146.18 248,-129 265.37,-94.82 240.4,-51.09 223.45,-27.47"/>
<polygon fill="#63b8ff" stroke="#63b8ff" points="226.04,-25.09 217.23,-19.2 220.44,-29.3 226.04,-25.09"/>
<g id="a_edge7&#45;headlabel"><a xlink:href="dir_000052_000109.html" target="_top" xlink:title="55">
<text text-anchor="middle" x="230.47" y="-23.76" font-family="Helvetica,sans-Serif" font-size="10.00" fill="#63b8ff">55</text>
</a>
</g>
</g>
<!-- dir_a21c0d42bc7a96803f2e083bf7f05619&#45;&gt;dir_be381e3b7aa79a91c125f50d5abcc4e9 -->
<g id="edge14" class="edge">
<title>dir_a21c0d42bc7a96803f2e083bf7f05619&#45;&gt;dir_be381e3b7aa79a91c125f50d5abcc4e9</title>
<path fill="none" stroke="#63b8ff" d="M164.48,-129.09C170.48,-136.22 177.37,-146.6 182.24,-155.53"/>
<polygon fill="#63b8ff" stroke="#63b8ff" points="179.2,-157.28 186.72,-164.75 185.5,-154.22 179.2,-157.28"/>
<g id="a_edge14&#45;headlabel"><a xlink:href="dir_000081_000052.html" target="_top" xlink:title="8">
<text text-anchor="middle" x="175.08" y="-152.79" font-family="Helvetica,sans-Serif" font-size="10.00" fill="#63b8ff">8</text>
</a>
</g>
</g>
<!-- dir_a21c0d42bc7a96803f2e083bf7f05619&#45;&gt;dir_945708b8d3397c2507c5e618c4393ffa -->
<g id="edge13" class="edge">
<title>dir_a21c0d42bc7a96803f2e083bf7f05619&#45;&gt;dir_945708b8d3397c2507c5e618c4393ffa</title>
<path fill="none" stroke="#63b8ff" d="M152.51,-109.75C151.33,-102.8 149.64,-92.85 148.16,-84.13"/>
<polygon fill="#63b8ff" stroke="#63b8ff" points="151.58,-83.36 146.46,-74.09 144.68,-84.53 151.58,-83.36"/>
<g id="a_edge13&#45;headlabel"><a xlink:href="dir_000081_000126.html" target="_top" xlink:title="2">
<text text-anchor="middle" x="154.98" y="-83.93" font-family="Helvetica,sans-Serif" font-size="10.00" fill="#63b8ff">2</text>
</a>
</g>
</g>
<!-- dir_a21c0d42bc7a96803f2e083bf7f05619&#45;&gt;dir_0d9b91d0f0b9ec0856341172f56c0a57 -->
<g id="edge11" class="edge">
<title>dir_a21c0d42bc7a96803f2e083bf7f05619&#45;&gt;dir_0d9b91d0f0b9ec0856341172f56c0a57</title>
<path fill="none" stroke="#63b8ff" d="M143.72,-109.98C134.16,-102.07 119.72,-90.11 108.22,-80.58"/>
<polygon fill="#63b8ff" stroke="#63b8ff" points="110.4,-77.85 100.47,-74.17 105.94,-83.24 110.4,-77.85"/>
<g id="a_edge11&#45;headlabel"><a xlink:href="dir_000081_000181.html" target="_top" xlink:title="5">
<text text-anchor="middle" x="114.98" y="-75.46" font-family="Helvetica,sans-Serif" font-size="10.00" fill="#63b8ff">5</text>
</a>
</g>
</g>
<!-- dir_a21c0d42bc7a96803f2e083bf7f05619&#45;&gt;dir_6719ab1f1f7655efc2fa43f7eb574fd1 -->
<g id="edge12" class="edge">
<title>dir_a21c0d42bc7a96803f2e083bf7f05619&#45;&gt;dir_6719ab1f1f7655efc2fa43f7eb574fd1</title>
<path fill="none" stroke="#63b8ff" d="M158.58,-109.66C167.78,-91.93 188.62,-51.73 200.76,-28.32"/>
<polygon fill="#63b8ff" stroke="#63b8ff" points="204.01,-29.65 205.51,-19.16 197.8,-26.42 204.01,-29.65"/>
<g id="a_edge12&#45;headlabel"><a xlink:href="dir_000081_000109.html" target="_top" xlink:title="21">
<text text-anchor="middle" x="204.88" y="-31.65" font-family="Helvetica,sans-Serif" font-size="10.00" fill="#63b8ff">21</text>
</a>
</g>
</g>
<!-- dir_7cd5da72e38cd0f075d57a788b4f2242&#45;&gt;dir_be381e3b7aa79a91c125f50d5abcc4e9 -->
<g id="edge16" class="edge">
<title>dir_7cd5da72e38cd0f075d57a788b4f2242&#45;&gt;dir_be381e3b7aa79a91c125f50d5abcc4e9</title>
<path fill="none" stroke="#63b8ff" d="M222.3,-129.09C218.84,-136.6 211.68,-147.72 204.54,-156.96"/>
<polygon fill="#63b8ff" stroke="#63b8ff" points="201.78,-154.81 198.11,-164.75 207.18,-159.27 201.78,-154.81"/>
<g id="a_edge16&#45;headlabel"><a xlink:href="dir_000089_000052.html" target="_top" xlink:title="2">
<text text-anchor="middle" x="201.88" y="-147.73" font-family="Helvetica,sans-Serif" font-size="10.00" fill="#63b8ff">2</text>
</a>
</g>
</g>
<!-- dir_7cd5da72e38cd0f075d57a788b4f2242&#45;&gt;dir_6719ab1f1f7655efc2fa43f7eb574fd1 -->
<g id="edge15" class="edge">
<title>dir_7cd5da72e38cd0f075d57a788b4f2242&#45;&gt;dir_6719ab1f1f7655efc2fa43f7eb574fd1</title>
<path fill="none" stroke="#63b8ff" d="M221.94,-109.66C219.83,-92.17 215.09,-52.8 212.26,-29.27"/>
<polygon fill="#63b8ff" stroke="#63b8ff" points="215.71,-28.67 211.04,-19.16 208.76,-29.51 215.71,-28.67"/>
<g id="a_edge15&#45;headlabel"><a xlink:href="dir_000089_000109.html" target="_top" xlink:title="9">
<text text-anchor="middle" x="218.96" y="-29.4" font-family="Helvetica,sans-Serif" font-size="10.00" fill="#63b8ff">9</text>
</a>
</g>
</g>
<!-- dir_945708b8d3397c2507c5e618c4393ffa&#45;&gt;dir_be381e3b7aa79a91c125f50d5abcc4e9 -->
<g id="edge18" class="edge">
<title>dir_945708b8d3397c2507c5e618c4393ffa&#45;&gt;dir_be381e3b7aa79a91c125f50d5abcc4e9</title>
<path fill="none" stroke="#63b8ff" d="M160.53,-74.21C170.3,-82.63 181.3,-96.12 187,-110 192.89,-124.34 195.03,-141.86 194.32,-154.87"/>
<polygon fill="#63b8ff" stroke="#63b8ff" points="190.83,-154.56 192.97,-164.94 197.77,-155.49 190.83,-154.56"/>
<g id="a_edge18&#45;headlabel"><a xlink:href="dir_000126_000052.html" target="_top" xlink:title="6">
<text text-anchor="middle" x="188.49" y="-148.12" font-family="Helvetica,sans-Serif" font-size="10.00" fill="#63b8ff">6</text>
</a>
</g>
</g>
<!-- dir_945708b8d3397c2507c5e618c4393ffa&#45;&gt;dir_6719ab1f1f7655efc2fa43f7eb574fd1 -->
<g id="edge17" class="edge">
<title>dir_945708b8d3397c2507c5e618c4393ffa&#45;&gt;dir_6719ab1f1f7655efc2fa43f7eb574fd1</title>
<path fill="none" stroke="#63b8ff" d="M155.44,-54.98C165.15,-47.07 179.82,-35.11 191.5,-25.58"/>
<polygon fill="#63b8ff" stroke="#63b8ff" points="193.83,-28.2 199.37,-19.17 189.4,-22.78 193.83,-28.2"/>
<g id="a_edge17&#45;headlabel"><a xlink:href="dir_000126_000109.html" target="_top" xlink:title="20">
<text text-anchor="middle" x="192.84" y="-30.17" font-family="Helvetica,sans-Serif" font-size="10.00" fill="#63b8ff">20</text>
</a>
</g>
</g>
<!-- dir_cf1530f6af73bf6ea3944fb0da239c6a -->
<g id="node8" class="node">
<title>dir_cf1530f6af73bf6ea3944fb0da239c6a</title>
<g id="a_node8"><a xlink:href="dir_cf1530f6af73bf6ea3944fb0da239c6a.html" target="_top" xlink:title="third_party">
<polygon fill="#a2b4d6" stroke="#404040" points="94,-239 24,-239 24,-220 94,-220 94,-239"/>
<text text-anchor="middle" x="59" y="-227" font-family="Helvetica,sans-Serif" font-size="10.00">third_party</text>
</a>
</g>
</g>
<!-- dir_0d9b91d0f0b9ec0856341172f56c0a57&#45;&gt;dir_6719ab1f1f7655efc2fa43f7eb574fd1 -->
<g id="edge19" class="edge">
<title>dir_0d9b91d0f0b9ec0856341172f56c0a57&#45;&gt;dir_6719ab1f1f7655efc2fa43f7eb574fd1</title>
<path fill="none" stroke="#63b8ff" d="M98.11,-54.75C103.35,-49.54 110.56,-43.16 118,-39 138.44,-27.57 164.06,-20.12 183.06,-15.71"/>
<polygon fill="#63b8ff" stroke="#63b8ff" points="183.84,-19.12 192.87,-13.57 182.35,-12.28 183.84,-19.12"/>
<g id="a_edge19&#45;headlabel"><a xlink:href="dir_000181_000109.html" target="_top" xlink:title="6">
<text text-anchor="middle" x="180.94" y="-20.16" font-family="Helvetica,sans-Serif" font-size="10.00" fill="#63b8ff">6</text>
</a>
</g>
</g>
</g>
</svg>
