<?xml version="1.0" encoding="UTF-8" standalone="no"?>
<!DOCTYPE svg PUBLIC "-//W3C//DTD SVG 1.1//EN"
 "http://www.w3.org/Graphics/SVG/1.1/DTD/svg11.dtd">
<!-- Generated by graphviz version 2.43.0 (0)
 -->
<!-- Title: libs/di/include/di/math Pages: 1 -->
<svg width="464pt" height="196pt"
 viewBox="0.00 0.00 464.00 196.00" xmlns="http://www.w3.org/2000/svg" xmlns:xlink="http://www.w3.org/1999/xlink">
<g id="graph0" class="graph" transform="scale(1 1) rotate(0) translate(4 192)">
<title>libs/di/include/di/math</title>
<g id="clust1" class="cluster">
<title>clusterdir_f95a1a0ab1b96e316090c1bcac3c2c99</title>
<g id="a_clust1"><a xlink:href="dir_f95a1a0ab1b96e316090c1bcac3c2c99.html" target="_top" xlink:title="di">
<polygon fill="#edf0f7" stroke="#7f7f7f" stroke-dasharray="5,2" points="8,-8 8,-180 448,-180 448,-8 8,-8"/>
<text text-anchor="middle" x="228" y="-168" font-family="Helvetica,sans-Serif" font-size="10.00">di</text>
</a>
</g>
</g>
<g id="clust2" class="cluster">
<title>clusterdir_60d1624911c2c9f7b6f38e44ec895aaa</title>
<g id="a_clust2"><a xlink:href="dir_60d1624911c2c9f7b6f38e44ec895aaa.html" target="_top">
<polygon fill="#edf0f7" stroke="#404040" stroke-width="2" points="190,-63 190,-153 328,-153 328,-63 190,-63"/>
</a>
</g>
</g>
<!-- dir_0669efae56692bb73da75efb5ebbccdf -->
<g id="node1" class="node">
<title>dir_0669efae56692bb73da75efb5ebbccdf</title>
<g id="a_node1"><a xlink:href="dir_0669efae56692bb73da75efb5ebbccdf.html" target="_top" xlink:title="function">
<polygon fill="#a2b4d6" stroke="red" points="112,-90 56,-90 56,-71 112,-71 112,-90"/>
<text text-anchor="middle" x="84" y="-78" font-family="Helvetica,sans-Serif" font-size="10.00">function</text>
</a>
</g>
</g>
<!-- dir_143f1d6bc6d46924c644ec67dc1fb4fc -->
<g id="node2" class="node">
<title>dir_143f1d6bc6d46924c644ec67dc1fb4fc</title>
<g id="a_node2"><a xlink:href="dir_143f1d6bc6d46924c644ec67dc1fb4fc.html" target="_top" xlink:title="bit">
<polygon fill="#a2b4d6" stroke="red" points="179.5,-90 150.5,-90 150.5,-71 179.5,-71 179.5,-90"/>
<text text-anchor="middle" x="165" y="-78" font-family="Helvetica,sans-Serif" font-size="10.00">bit</text>
</a>
</g>
</g>
<!-- dir_30ecaf38acae77be14fb9173f98f8612 -->
<g id="node3" class="node">
<title>dir_30ecaf38acae77be14fb9173f98f8612</title>
<g id="a_node3"><a xlink:href="dir_30ecaf38acae77be14fb9173f98f8612.html" target="_top" xlink:title="types">
<polygon fill="#a2b4d6" stroke="#404040" points="169,-35 125,-35 125,-16 169,-16 169,-35"/>
<text text-anchor="middle" x="147" y="-23" font-family="Helvetica,sans-Serif" font-size="10.00">types</text>
</a>
</g>
</g>
<!-- dir_521de572ae4fe2915cc70a876c52f5b7 -->
<g id="node4" class="node">
<title>dir_521de572ae4fe2915cc70a876c52f5b7</title>
<g id="a_node4"><a xlink:href="dir_521de572ae4fe2915cc70a876c52f5b7.html" target="_top" xlink:title="container">
<polygon fill="#a2b4d6" stroke="red" points="400,-90 338,-90 338,-71 400,-71 400,-90"/>
<text text-anchor="middle" x="369" y="-78" font-family="Helvetica,sans-Serif" font-size="10.00">container</text>
</a>
</g>
</g>
<!-- dir_942cfae36a92b6b1c4b510e99e852d40 -->
<g id="node5" class="node">
<title>dir_942cfae36a92b6b1c4b510e99e852d40</title>
<g id="a_node5"><a xlink:href="dir_942cfae36a92b6b1c4b510e99e852d40.html" target="_top" xlink:title="vocab">
<polygon fill="#a2b4d6" stroke="red" points="424,-35 378,-35 378,-16 424,-16 424,-35"/>
<text text-anchor="middle" x="401" y="-23" font-family="Helvetica,sans-Serif" font-size="10.00">vocab</text>
</a>
</g>
</g>
<!-- dir_a60d4453151dca6bdd8e5fcc350e379b -->
<g id="node6" class="node">
<title>dir_a60d4453151dca6bdd8e5fcc350e379b</title>
<g id="a_node6"><a xlink:href="dir_a60d4453151dca6bdd8e5fcc350e379b.html" target="_top" xlink:title="assert">
<polygon fill="#a2b4d6" stroke="#404040" points="343.5,-35 296.5,-35 296.5,-16 343.5,-16 343.5,-35"/>
<text text-anchor="middle" x="320" y="-23" font-family="Helvetica,sans-Serif" font-size="10.00">assert</text>
</a>
</g>
</g>
<!-- dir_f555f996eeee1ebe901dc71e0c5de8ff -->
<g id="node7" class="node">
<title>dir_f555f996eeee1ebe901dc71e0c5de8ff</title>
<g id="a_node7"><a xlink:href="dir_f555f996eeee1ebe901dc71e0c5de8ff.html" target="_top" xlink:title="meta">
<polygon fill="#a2b4d6" stroke="#404040" points="246,-35 204,-35 204,-16 246,-16 246,-35"/>
<text text-anchor="middle" x="225" y="-23" font-family="Helvetica,sans-Serif" font-size="10.00">meta</text>
</a>
</g>
</g>
<!-- dir_60d1624911c2c9f7b6f38e44ec895aaa -->
<g id="node8" class="node">
<title>dir_60d1624911c2c9f7b6f38e44ec895aaa</title>
<text text-anchor="middle" x="219" y="-133" font-family="Helvetica,sans-Serif" font-size="10.00">math</text>
</g>
<!-- dir_60d1624911c2c9f7b6f38e44ec895aaa&#45;&gt;dir_0669efae56692bb73da75efb5ebbccdf -->
<g id="edge1" class="edge">
<title>dir_60d1624911c2c9f7b6f38e44ec895aaa&#45;&gt;dir_0669efae56692bb73da75efb5ebbccdf</title>
<path fill="none" stroke="#63b8ff" d="M197.91,-126.22C175.78,-117.53 140.75,-103.78 115.38,-93.82"/>
<polygon fill="#63b8ff" stroke="#63b8ff" points="116.43,-90.47 105.84,-90.07 113.87,-96.99 116.43,-90.47"/>
<g id="a_edge1&#45;headlabel"><a xlink:href="dir_000117_000082.html" target="_top" xlink:title="11">
<text text-anchor="middle" x="120.81" y="-86.64" font-family="Helvetica,sans-Serif" font-size="10.00" fill="#63b8ff">11</text>
</a>
</g>
</g>
<!-- dir_60d1624911c2c9f7b6f38e44ec895aaa&#45;&gt;dir_30ecaf38acae77be14fb9173f98f8612 -->
<g id="edge2" class="edge">
<title>dir_60d1624911c2c9f7b6f38e44ec895aaa&#45;&gt;dir_30ecaf38acae77be14fb9173f98f8612</title>
<path fill="none" stroke="#63b8ff" d="M197.71,-132.59C153.69,-128.14 55.07,-115.5 35,-90 27.58,-80.57 27.95,-72.71 35,-63 53.06,-38.13 88.51,-29.88 114.72,-27.31"/>
<polygon fill="#63b8ff" stroke="#63b8ff" points="115.24,-30.78 124.95,-26.54 114.72,-23.8 115.24,-30.78"/>
<g id="a_edge2&#45;headlabel"><a xlink:href="dir_000117_000180.html" target="_top" xlink:title="8">
<text text-anchor="middle" x="111.87" y="-31.38" font-family="Helvetica,sans-Serif" font-size="10.00" fill="#63b8ff">8</text>
</a>
</g>
</g>
<!-- dir_60d1624911c2c9f7b6f38e44ec895aaa&#45;&gt;dir_f555f996eeee1ebe901dc71e0c5de8ff -->
<g id="edge5" class="edge">
<title>dir_60d1624911c2c9f7b6f38e44ec895aaa&#45;&gt;dir_f555f996eeee1ebe901dc71e0c5de8ff</title>
<path fill="none" stroke="#63b8ff" d="M197.86,-133.35C143.26,-129.61 4.69,-114.87 47,-63 49.33,-60.14 143.42,-41.95 193.84,-32.37"/>
<polygon fill="#63b8ff" stroke="#63b8ff" points="194.71,-35.77 203.88,-30.47 193.4,-28.89 194.71,-35.77"/>
<g id="a_edge5&#45;headlabel"><a xlink:href="dir_000117_000122.html" target="_top" xlink:title="22">
<text text-anchor="middle" x="191.7" y="-36.73" font-family="Helvetica,sans-Serif" font-size="10.00" fill="#63b8ff">22</text>
</a>
</g>
</g>
<!-- dir_96f7d32698a29650115b9c86e570fc5e -->
<g id="node10" class="node">
<title>dir_96f7d32698a29650115b9c86e570fc5e</title>
<g id="a_node10"><a xlink:href="dir_96f7d32698a29650115b9c86e570fc5e.html" target="_top" xlink:title="intcmp">
<polygon fill="#a2b4d6" stroke="#404040" points="320,-90 270,-90 270,-71 320,-71 320,-90"/>
<text text-anchor="middle" x="295" y="-78" font-family="Helvetica,sans-Serif" font-size="10.00">intcmp</text>
</a>
</g>
</g>
<!-- dir_60d1624911c2c9f7b6f38e44ec895aaa&#45;&gt;dir_96f7d32698a29650115b9c86e570fc5e -->
<g id="edge3" class="edge">
<title>dir_60d1624911c2c9f7b6f38e44ec895aaa&#45;&gt;dir_96f7d32698a29650115b9c86e570fc5e</title>
<path fill="none" stroke="#63b8ff" d="M231.21,-125.98C242.78,-117.92 260.38,-105.65 274.16,-96.03"/>
<polygon fill="#63b8ff" stroke="#63b8ff" points="276.37,-98.76 282.57,-90.17 272.36,-93.02 276.37,-98.76"/>
<g id="a_edge3&#45;headlabel"><a xlink:href="dir_000117_000094.html" target="_top" xlink:title="1">
<text text-anchor="middle" x="275.04" y="-100.65" font-family="Helvetica,sans-Serif" font-size="10.00" fill="#63b8ff">1</text>
</a>
</g>
</g>
<!-- dir_c8f8998a7451d590aa603b46847dceda -->
<g id="node11" class="node">
<title>dir_c8f8998a7451d590aa603b46847dceda</title>
<g id="a_node11"><a xlink:href="dir_c8f8998a7451d590aa603b46847dceda.html" target="_top" xlink:title="rational">
<polygon fill="#a2b4d6" stroke="#404040" points="252,-90 198,-90 198,-71 252,-71 252,-90"/>
<text text-anchor="middle" x="225" y="-78" font-family="Helvetica,sans-Serif" font-size="10.00">rational</text>
</a>
</g>
</g>
<!-- dir_60d1624911c2c9f7b6f38e44ec895aaa&#45;&gt;dir_c8f8998a7451d590aa603b46847dceda -->
<g id="edge4" class="edge">
<title>dir_60d1624911c2c9f7b6f38e44ec895aaa&#45;&gt;dir_c8f8998a7451d590aa603b46847dceda</title>
<path fill="none" stroke="#63b8ff" d="M219.99,-125.75C220.78,-118.8 221.9,-108.85 222.89,-100.13"/>
<polygon fill="#63b8ff" stroke="#63b8ff" points="226.38,-100.42 224.03,-90.09 219.42,-99.63 226.38,-100.42"/>
<g id="a_edge4&#45;headlabel"><a xlink:href="dir_000117_000143.html" target="_top" xlink:title="1">
<text text-anchor="middle" x="228.8" y="-101.81" font-family="Helvetica,sans-Serif" font-size="10.00" fill="#63b8ff">1</text>
</a>
</g>
</g>
<!-- dir_a6d9e40a1db007d90a1d86f0cd034598 -->
<g id="node9" class="node">
<title>dir_a6d9e40a1db007d90a1d86f0cd034598</title>
<g id="a_node9"><a xlink:href="dir_a6d9e40a1db007d90a1d86f0cd034598.html" target="_top" xlink:title="bigint">
<polygon fill="#a2b4d6" stroke="#404040" points="311,-145 267,-145 267,-126 311,-126 311,-145"/>
<text text-anchor="middle" x="289" y="-133" font-family="Helvetica,sans-Serif" font-size="10.00">bigint</text>
</a>
</g>
</g>
<!-- dir_a6d9e40a1db007d90a1d86f0cd034598&#45;&gt;dir_0669efae56692bb73da75efb5ebbccdf -->
<g id="edge6" class="edge">
<title>dir_a6d9e40a1db007d90a1d86f0cd034598&#45;&gt;dir_0669efae56692bb73da75efb5ebbccdf</title>
<path fill="none" stroke="#63b8ff" d="M266.67,-128.73C231.89,-119.74 164.38,-102.28 121.88,-91.29"/>
<polygon fill="#63b8ff" stroke="#63b8ff" points="122.73,-87.9 112.18,-88.78 120.98,-94.68 122.73,-87.9"/>
<g id="a_edge6&#45;headlabel"><a xlink:href="dir_000021_000082.html" target="_top" xlink:title="1">
<text text-anchor="middle" x="126.93" y="-83.55" font-family="Helvetica,sans-Serif" font-size="10.00" fill="#63b8ff">1</text>
</a>
</g>
</g>
<!-- dir_a6d9e40a1db007d90a1d86f0cd034598&#45;&gt;dir_143f1d6bc6d46924c644ec67dc1fb4fc -->
<g id="edge7" class="edge">
<title>dir_a6d9e40a1db007d90a1d86f0cd034598&#45;&gt;dir_143f1d6bc6d46924c644ec67dc1fb4fc</title>
<path fill="none" stroke="#63b8ff" d="M269.08,-125.98C247.27,-116.66 212.32,-101.73 189.02,-91.77"/>
<polygon fill="#63b8ff" stroke="#63b8ff" points="190.39,-88.54 179.81,-87.83 187.63,-94.98 190.39,-88.54"/>
<g id="a_edge7&#45;headlabel"><a xlink:href="dir_000021_000022.html" target="_top" xlink:title="2">
<text text-anchor="middle" x="194.81" y="-84.85" font-family="Helvetica,sans-Serif" font-size="10.00" fill="#63b8ff">2</text>
</a>
</g>
</g>
<!-- dir_a6d9e40a1db007d90a1d86f0cd034598&#45;&gt;dir_30ecaf38acae77be14fb9173f98f8612 -->
<g id="edge8" class="edge">
<title>dir_a6d9e40a1db007d90a1d86f0cd034598&#45;&gt;dir_30ecaf38acae77be14fb9173f98f8612</title>
<path fill="none" stroke="#63b8ff" d="M266.85,-129.33C227.68,-119.96 149.59,-100.22 142,-90 132.54,-77.25 135.26,-58.82 139.48,-45.1"/>
<polygon fill="#63b8ff" stroke="#63b8ff" points="142.91,-45.89 142.98,-35.3 136.32,-43.54 142.91,-45.89"/>
<g id="a_edge8&#45;headlabel"><a xlink:href="dir_000021_000180.html" target="_top" xlink:title="3">
<text text-anchor="middle" x="144.38" y="-47.73" font-family="Helvetica,sans-Serif" font-size="10.00" fill="#63b8ff">3</text>
</a>
</g>
</g>
<!-- dir_a6d9e40a1db007d90a1d86f0cd034598&#45;&gt;dir_521de572ae4fe2915cc70a876c52f5b7 -->
<g id="edge9" class="edge">
<title>dir_a6d9e40a1db007d90a1d86f0cd034598&#45;&gt;dir_521de572ae4fe2915cc70a876c52f5b7</title>
<path fill="none" stroke="#63b8ff" d="M301.85,-125.98C314.14,-117.84 332.91,-105.41 347.48,-95.76"/>
<polygon fill="#63b8ff" stroke="#63b8ff" points="349.51,-98.61 355.91,-90.17 345.64,-92.78 349.51,-98.61"/>
<g id="a_edge9&#45;headlabel"><a xlink:href="dir_000021_000046.html" target="_top" xlink:title="6">
<text text-anchor="middle" x="348.08" y="-100.46" font-family="Helvetica,sans-Serif" font-size="10.00" fill="#63b8ff">6</text>
</a>
</g>
</g>
<!-- dir_a6d9e40a1db007d90a1d86f0cd034598&#45;&gt;dir_942cfae36a92b6b1c4b510e99e852d40 -->
<g id="edge10" class="edge">
<title>dir_a6d9e40a1db007d90a1d86f0cd034598&#45;&gt;dir_942cfae36a92b6b1c4b510e99e852d40</title>
<path fill="none" stroke="#63b8ff" d="M311.49,-134.01C341.11,-132 392.21,-123.54 416,-90 425.6,-76.47 419.3,-57.64 412.16,-44"/>
<polygon fill="#63b8ff" stroke="#63b8ff" points="415.07,-42.03 407.03,-35.13 409.01,-45.54 415.07,-42.03"/>
<g id="a_edge10&#45;headlabel"><a xlink:href="dir_000021_000189.html" target="_top" xlink:title="5">
<text text-anchor="middle" x="419.33" y="-41.22" font-family="Helvetica,sans-Serif" font-size="10.00" fill="#63b8ff">5</text>
</a>
</g>
</g>
<!-- dir_a6d9e40a1db007d90a1d86f0cd034598&#45;&gt;dir_a60d4453151dca6bdd8e5fcc350e379b -->
<g id="edge11" class="edge">
<title>dir_a6d9e40a1db007d90a1d86f0cd034598&#45;&gt;dir_a60d4453151dca6bdd8e5fcc350e379b</title>
<path fill="none" stroke="#63b8ff" d="M311.25,-133.5C339.42,-130.89 386.92,-121.74 409,-90 415.85,-80.15 415.68,-72.97 409,-63 396.72,-44.69 373.44,-35.56 353.78,-31.01"/>
<polygon fill="#63b8ff" stroke="#63b8ff" points="354.39,-27.56 343.9,-29.02 353.01,-34.43 354.39,-27.56"/>
<g id="a_edge11&#45;headlabel"><a xlink:href="dir_000021_000018.html" target="_top" xlink:title="1">
<text text-anchor="middle" x="358.47" y="-22.99" font-family="Helvetica,sans-Serif" font-size="10.00" fill="#63b8ff">1</text>
</a>
</g>
</g>
<!-- dir_96f7d32698a29650115b9c86e570fc5e&#45;&gt;dir_30ecaf38acae77be14fb9173f98f8612 -->
<g id="edge12" class="edge">
<title>dir_96f7d32698a29650115b9c86e570fc5e&#45;&gt;dir_30ecaf38acae77be14fb9173f98f8612</title>
<path fill="none" stroke="#63b8ff" d="M278.61,-70.96C273.09,-68.25 266.85,-65.34 261,-63 233.78,-52.1 201.92,-42.13 178.82,-35.37"/>
<polygon fill="#63b8ff" stroke="#63b8ff" points="179.76,-32 169.18,-32.59 177.82,-38.72 179.76,-32"/>
<g id="a_edge12&#45;headlabel"><a xlink:href="dir_000094_000180.html" target="_top" xlink:title="1">
<text text-anchor="middle" x="184" y="-27.77" font-family="Helvetica,sans-Serif" font-size="10.00" fill="#63b8ff">1</text>
</a>
</g>
</g>
<!-- dir_96f7d32698a29650115b9c86e570fc5e&#45;&gt;dir_942cfae36a92b6b1c4b510e99e852d40 -->
<g id="edge13" class="edge">
<title>dir_96f7d32698a29650115b9c86e570fc5e&#45;&gt;dir_942cfae36a92b6b1c4b510e99e852d40</title>
<path fill="none" stroke="#63b8ff" d="M309.64,-70.89C314.2,-68.28 319.27,-65.46 324,-63 339.78,-54.79 357.72,-46.23 372.32,-39.48"/>
<polygon fill="#63b8ff" stroke="#63b8ff" points="374.2,-42.47 381.82,-35.11 371.27,-36.11 374.2,-42.47"/>
<g id="a_edge13&#45;headlabel"><a xlink:href="dir_000094_000189.html" target="_top" xlink:title="2">
<text text-anchor="middle" x="372.11" y="-44.05" font-family="Helvetica,sans-Serif" font-size="10.00" fill="#63b8ff">2</text>
</a>
</g>
</g>
<!-- dir_96f7d32698a29650115b9c86e570fc5e&#45;&gt;dir_f555f996eeee1ebe901dc71e0c5de8ff -->
<g id="edge14" class="edge">
<title>dir_96f7d32698a29650115b9c86e570fc5e&#45;&gt;dir_f555f996eeee1ebe901dc71e0c5de8ff</title>
<path fill="none" stroke="#63b8ff" d="M283.75,-70.98C273.2,-63 257.2,-50.88 244.56,-41.31"/>
<polygon fill="#63b8ff" stroke="#63b8ff" points="246.54,-38.42 236.45,-35.17 242.31,-44 246.54,-38.42"/>
<g id="a_edge14&#45;headlabel"><a xlink:href="dir_000094_000122.html" target="_top" xlink:title="4">
<text text-anchor="middle" x="251.12" y="-35.82" font-family="Helvetica,sans-Serif" font-size="10.00" fill="#63b8ff">4</text>
</a>
</g>
</g>
<!-- dir_c8f8998a7451d590aa603b46847dceda&#45;&gt;dir_30ecaf38acae77be14fb9173f98f8612 -->
<g id="edge15" class="edge">
<title>dir_c8f8998a7451d590aa603b46847dceda&#45;&gt;dir_30ecaf38acae77be14fb9173f98f8612</title>
<path fill="none" stroke="#63b8ff" d="M212.47,-70.98C200.6,-62.92 182.54,-50.65 168.39,-41.03"/>
<polygon fill="#63b8ff" stroke="#63b8ff" points="170,-37.9 159.76,-35.17 166.06,-43.69 170,-37.9"/>
<g id="a_edge15&#45;headlabel"><a xlink:href="dir_000143_000180.html" target="_top" xlink:title="1">
<text text-anchor="middle" x="174.57" y="-35.07" font-family="Helvetica,sans-Serif" font-size="10.00" fill="#63b8ff">1</text>
</a>
</g>
</g>
<!-- dir_c8f8998a7451d590aa603b46847dceda&#45;&gt;dir_a60d4453151dca6bdd8e5fcc350e379b -->
<g id="edge16" class="edge">
<title>dir_c8f8998a7451d590aa603b46847dceda&#45;&gt;dir_a60d4453151dca6bdd8e5fcc350e379b</title>
<path fill="none" stroke="#63b8ff" d="M240.26,-70.98C255.13,-62.69 277.98,-49.94 295.42,-40.22"/>
<polygon fill="#63b8ff" stroke="#63b8ff" points="297.43,-43.1 304.46,-35.17 294.02,-36.99 297.43,-43.1"/>
<g id="a_edge16&#45;headlabel"><a xlink:href="dir_000143_000018.html" target="_top" xlink:title="1">
<text text-anchor="middle" x="295.68" y="-44.83" font-family="Helvetica,sans-Serif" font-size="10.00" fill="#63b8ff">1</text>
</a>
</g>
</g>
<!-- dir_c8f8998a7451d590aa603b46847dceda&#45;&gt;dir_f555f996eeee1ebe901dc71e0c5de8ff -->
<g id="edge17" class="edge">
<title>dir_c8f8998a7451d590aa603b46847dceda&#45;&gt;dir_f555f996eeee1ebe901dc71e0c5de8ff</title>
<path fill="none" stroke="#63b8ff" d="M225,-70.75C225,-63.8 225,-53.85 225,-45.13"/>
<polygon fill="#63b8ff" stroke="#63b8ff" points="228.5,-45.09 225,-35.09 221.5,-45.09 228.5,-45.09"/>
<g id="a_edge17&#45;headlabel"><a xlink:href="dir_000143_000122.html" target="_top" xlink:title="2">
<text text-anchor="middle" x="231.34" y="-46.18" font-family="Helvetica,sans-Serif" font-size="10.00" fill="#63b8ff">2</text>
</a>
</g>
</g>
</g>
</svg>
