<?xml version="1.0" encoding="UTF-8" standalone="no"?>
<!DOCTYPE svg PUBLIC "-//W3C//DTD SVG 1.1//EN"
 "http://www.w3.org/Graphics/SVG/1.1/DTD/svg11.dtd">
<!-- Generated by graphviz version 2.43.0 (0)
 -->
<!-- Title: iris/include/iris/hw Pages: 1 -->
<svg width="177pt" height="141pt"
 viewBox="0.00 0.00 177.00 141.00" xmlns="http://www.w3.org/2000/svg" xmlns:xlink="http://www.w3.org/1999/xlink">
<g id="graph0" class="graph" transform="scale(1 1) rotate(0) translate(4 137)">
<title>iris/include/iris/hw</title>
<g id="clust1" class="cluster">
<title>clusterdir_ffe5edf85fa540270b5bdba28be40ae5</title>
<g id="a_clust1"><a xlink:href="dir_ffe5edf85fa540270b5bdba28be40ae5.html" target="_top" xlink:title="iris">
<polygon fill="#edf0f7" stroke="#7f7f7f" stroke-dasharray="5,2" points="8,-8 8,-125 127,-125 127,-8 8,-8"/>
<text text-anchor="middle" x="67.5" y="-113" font-family="Helvetica,sans-Serif" font-size="10.00">iris</text>
</a>
</g>
</g>
<g id="clust2" class="cluster">
<title>clusterdir_7cd5da72e38cd0f075d57a788b4f2242</title>
<g id="a_clust2"><a xlink:href="dir_7cd5da72e38cd0f075d57a788b4f2242.html" target="_top">
<polygon fill="#edf0f7" stroke="#404040" stroke-width="2" points="16,-63 16,-98 119,-98 119,-63 16,-63"/>
</a>
</g>
</g>
<!-- dir_be381e3b7aa79a91c125f50d5abcc4e9 -->
<g id="node1" class="node">
<title>dir_be381e3b7aa79a91c125f50d5abcc4e9</title>
<g id="a_node1"><a xlink:href="dir_be381e3b7aa79a91c125f50d5abcc4e9.html" target="_top" xlink:title="core">
<polygon fill="#a2b4d6" stroke="#404040" points="59,-35 21,-35 21,-16 59,-16 59,-35"/>
<text text-anchor="middle" x="40" y="-23" font-family="Helvetica,sans-Serif" font-size="10.00">core</text>
</a>
</g>
</g>
<!-- dir_7cd5da72e38cd0f075d57a788b4f2242 -->
<g id="node2" class="node">
<title>dir_7cd5da72e38cd0f075d57a788b4f2242</title>
<text text-anchor="middle" x="40" y="-78" font-family="Helvetica,sans-Serif" font-size="10.00">hw</text>
</g>
<!-- dir_7cd5da72e38cd0f075d57a788b4f2242&#45;&gt;dir_be381e3b7aa79a91c125f50d5abcc4e9 -->
<g id="edge2" class="edge">
<title>dir_7cd5da72e38cd0f075d57a788b4f2242&#45;&gt;dir_be381e3b7aa79a91c125f50d5abcc4e9</title>
<path fill="none" stroke="#63b8ff" d="M40,-70.75C40,-63.8 40,-53.85 40,-45.13"/>
<polygon fill="#63b8ff" stroke="#63b8ff" points="43.5,-45.09 40,-35.09 36.5,-45.09 43.5,-45.09"/>
<g id="a_edge2&#45;headlabel"><a xlink:href="dir_000089_000052.html" target="_top" xlink:title="2">
<text text-anchor="middle" x="46.34" y="-46.18" font-family="Helvetica,sans-Serif" font-size="10.00" fill="#63b8ff">2</text>
</a>
</g>
</g>
<!-- dir_6719ab1f1f7655efc2fa43f7eb574fd1 -->
<g id="node4" class="node">
<title>dir_6719ab1f1f7655efc2fa43f7eb574fd1</title>
<g id="a_node4"><a xlink:href="dir_6719ab1f1f7655efc2fa43f7eb574fd1.html" target="_top" xlink:title="libs">
<polygon fill="#edf0f7" stroke="red" points="169,-35 135,-35 135,-16 169,-16 169,-35"/>
<text text-anchor="middle" x="152" y="-23" font-family="Helvetica,sans-Serif" font-size="10.00">libs</text>
</a>
</g>
</g>
<!-- dir_7cd5da72e38cd0f075d57a788b4f2242&#45;&gt;dir_6719ab1f1f7655efc2fa43f7eb574fd1 -->
<g id="edge1" class="edge">
<title>dir_7cd5da72e38cd0f075d57a788b4f2242&#45;&gt;dir_6719ab1f1f7655efc2fa43f7eb574fd1</title>
<path fill="none" stroke="#63b8ff" d="M51.41,-70.94C55.29,-68.22 59.73,-65.32 64,-63 66.9,-61.42 100.47,-47.59 125.28,-37.42"/>
<polygon fill="#63b8ff" stroke="#63b8ff" points="126.69,-40.63 134.61,-33.6 124.03,-34.15 126.69,-40.63"/>
<g id="a_edge1&#45;headlabel"><a xlink:href="dir_000089_000109.html" target="_top" xlink:title="9">
<text text-anchor="middle" x="124.43" y="-42.12" font-family="Helvetica,sans-Serif" font-size="10.00" fill="#63b8ff">9</text>
</a>
</g>
</g>
<!-- dir_6934733eeb0ac549ecc4f3d6db8654db -->
<g id="node3" class="node">
<title>dir_6934733eeb0ac549ecc4f3d6db8654db</title>
<g id="a_node3"><a xlink:href="dir_6934733eeb0ac549ecc4f3d6db8654db.html" target="_top" xlink:title="acpi">
<polygon fill="#a2b4d6" stroke="#404040" points="110.5,-90 73.5,-90 73.5,-71 110.5,-71 110.5,-90"/>
<text text-anchor="middle" x="92" y="-78" font-family="Helvetica,sans-Serif" font-size="10.00">acpi</text>
</a>
</g>
</g>
<!-- dir_6934733eeb0ac549ecc4f3d6db8654db&#45;&gt;dir_6719ab1f1f7655efc2fa43f7eb574fd1 -->
<g id="edge3" class="edge">
<title>dir_6934733eeb0ac549ecc4f3d6db8654db&#45;&gt;dir_6719ab1f1f7655efc2fa43f7eb574fd1</title>
<path fill="none" stroke="#63b8ff" d="M101.64,-70.98C110.51,-63.15 123.87,-51.34 134.61,-41.86"/>
<polygon fill="#63b8ff" stroke="#63b8ff" points="137.01,-44.41 142.18,-35.17 132.37,-39.17 137.01,-44.41"/>
<g id="a_edge3&#45;headlabel"><a xlink:href="dir_000001_000109.html" target="_top" xlink:title="4">
<text text-anchor="middle" x="136.19" y="-46.42" font-family="Helvetica,sans-Serif" font-size="10.00" fill="#63b8ff">4</text>
</a>
</g>
</g>
</g>
</svg>
