<?xml version="1.0" encoding="UTF-8" standalone="no"?>
<!DOCTYPE svg PUBLIC "-//W3C//DTD SVG 1.1//EN"
 "http://www.w3.org/Graphics/SVG/1.1/DTD/svg11.dtd">
<!-- Generated by graphviz version 2.43.0 (0)
 -->
<!-- Title: libs/di/include/di/serialization Pages: 1 -->
<svg width="772pt" height="133pt"
 viewBox="0.00 0.00 772.00 133.00" xmlns="http://www.w3.org/2000/svg" xmlns:xlink="http://www.w3.org/1999/xlink">
<g id="graph0" class="graph" transform="scale(1 1) rotate(0) translate(4 129)">
<title>libs/di/include/di/serialization</title>
<g id="clust1" class="cluster">
<title>clusterdir_f95a1a0ab1b96e316090c1bcac3c2c99</title>
<g id="a_clust1"><a xlink:href="dir_f95a1a0ab1b96e316090c1bcac3c2c99.html" target="_top" xlink:title="di">
<polygon fill="#edf0f7" stroke="#7f7f7f" stroke-dasharray="5,2" points="8,-8 8,-117 756,-117 756,-8 8,-8"/>
<text text-anchor="middle" x="382" y="-105" font-family="Helvetica,sans-Serif" font-size="10.00">di</text>
</a>
</g>
</g>
<!-- dir_0669efae56692bb73da75efb5ebbccdf -->
<g id="node1" class="node">
<title>dir_0669efae56692bb73da75efb5ebbccdf</title>
<g id="a_node1"><a xlink:href="dir_0669efae56692bb73da75efb5ebbccdf.html" target="_top" xlink:title="function">
<polygon fill="#a2b4d6" stroke="red" points="72,-35 16,-35 16,-16 72,-16 72,-35"/>
<text text-anchor="middle" x="44" y="-23" font-family="Helvetica,sans-Serif" font-size="10.00">function</text>
</a>
</g>
</g>
<!-- dir_143f1d6bc6d46924c644ec67dc1fb4fc -->
<g id="node2" class="node">
<title>dir_143f1d6bc6d46924c644ec67dc1fb4fc</title>
<g id="a_node2"><a xlink:href="dir_143f1d6bc6d46924c644ec67dc1fb4fc.html" target="_top" xlink:title="bit">
<polygon fill="#a2b4d6" stroke="red" points="119.5,-35 90.5,-35 90.5,-16 119.5,-16 119.5,-35"/>
<text text-anchor="middle" x="105" y="-23" font-family="Helvetica,sans-Serif" font-size="10.00">bit</text>
</a>
</g>
</g>
<!-- dir_30ecaf38acae77be14fb9173f98f8612 -->
<g id="node3" class="node">
<title>dir_30ecaf38acae77be14fb9173f98f8612</title>
<g id="a_node3"><a xlink:href="dir_30ecaf38acae77be14fb9173f98f8612.html" target="_top" xlink:title="types">
<polygon fill="#a2b4d6" stroke="#404040" points="182,-35 138,-35 138,-16 182,-16 182,-35"/>
<text text-anchor="middle" x="160" y="-23" font-family="Helvetica,sans-Serif" font-size="10.00">types</text>
</a>
</g>
</g>
<!-- dir_4535887b2cdca47e625f259d07db0112 -->
<g id="node4" class="node">
<title>dir_4535887b2cdca47e625f259d07db0112</title>
<g id="a_node4"><a xlink:href="dir_4535887b2cdca47e625f259d07db0112.html" target="_top" xlink:title="util">
<polygon fill="#a2b4d6" stroke="#404040" points="232,-35 200,-35 200,-16 232,-16 232,-35"/>
<text text-anchor="middle" x="216" y="-23" font-family="Helvetica,sans-Serif" font-size="10.00">util</text>
</a>
</g>
</g>
<!-- dir_521de572ae4fe2915cc70a876c52f5b7 -->
<g id="node5" class="node">
<title>dir_521de572ae4fe2915cc70a876c52f5b7</title>
<g id="a_node5"><a xlink:href="dir_521de572ae4fe2915cc70a876c52f5b7.html" target="_top" xlink:title="container">
<polygon fill="#a2b4d6" stroke="red" points="312,-35 250,-35 250,-16 312,-16 312,-35"/>
<text text-anchor="middle" x="281" y="-23" font-family="Helvetica,sans-Serif" font-size="10.00">container</text>
</a>
</g>
</g>
<!-- dir_942cfae36a92b6b1c4b510e99e852d40 -->
<g id="node6" class="node">
<title>dir_942cfae36a92b6b1c4b510e99e852d40</title>
<g id="a_node6"><a xlink:href="dir_942cfae36a92b6b1c4b510e99e852d40.html" target="_top" xlink:title="vocab">
<polygon fill="#a2b4d6" stroke="red" points="376,-35 330,-35 330,-16 376,-16 376,-35"/>
<text text-anchor="middle" x="353" y="-23" font-family="Helvetica,sans-Serif" font-size="10.00">vocab</text>
</a>
</g>
</g>
<!-- dir_9971a148f77c599abaa54299590fb7b2 -->
<g id="node7" class="node">
<title>dir_9971a148f77c599abaa54299590fb7b2</title>
<g id="a_node7"><a xlink:href="dir_9971a148f77c599abaa54299590fb7b2.html" target="_top" xlink:title="reflect">
<polygon fill="#a2b4d6" stroke="#404040" points="441.5,-35 394.5,-35 394.5,-16 441.5,-16 441.5,-35"/>
<text text-anchor="middle" x="418" y="-23" font-family="Helvetica,sans-Serif" font-size="10.00">reflect</text>
</a>
</g>
</g>
<!-- dir_aaf67126bd5deefc4d96704f76f22cc2 -->
<g id="node8" class="node">
<title>dir_aaf67126bd5deefc4d96704f76f22cc2</title>
<g id="a_node8"><a xlink:href="dir_aaf67126bd5deefc4d96704f76f22cc2.html" target="_top" xlink:title="platform">
<polygon fill="#a2b4d6" stroke="#404040" points="518.5,-35 459.5,-35 459.5,-16 518.5,-16 518.5,-35"/>
<text text-anchor="middle" x="489" y="-23" font-family="Helvetica,sans-Serif" font-size="10.00">platform</text>
</a>
</g>
</g>
<!-- dir_cd43612992eaeb46558dd8835da126ed -->
<g id="node9" class="node">
<title>dir_cd43612992eaeb46558dd8835da126ed</title>
<g id="a_node9"><a xlink:href="dir_cd43612992eaeb46558dd8835da126ed.html" target="_top" xlink:title="io">
<polygon fill="#a2b4d6" stroke="red" points="565.5,-35 536.5,-35 536.5,-16 565.5,-16 565.5,-35"/>
<text text-anchor="middle" x="551" y="-23" font-family="Helvetica,sans-Serif" font-size="10.00">io</text>
</a>
</g>
</g>
<!-- dir_e41b746b2bc627b26c4c637af42fb69a -->
<g id="node10" class="node">
<title>dir_e41b746b2bc627b26c4c637af42fb69a</title>
<g id="a_node10"><a xlink:href="dir_e41b746b2bc627b26c4c637af42fb69a.html" target="_top" xlink:title="format">
<polygon fill="#a2b4d6" stroke="red" points="634,-35 584,-35 584,-16 634,-16 634,-35"/>
<text text-anchor="middle" x="609" y="-23" font-family="Helvetica,sans-Serif" font-size="10.00">format</text>
</a>
</g>
</g>
<!-- dir_e44b40e2f7a090819cf1915a0b103ff1 -->
<g id="node11" class="node">
<title>dir_e44b40e2f7a090819cf1915a0b103ff1</title>
<g id="a_node11"><a xlink:href="dir_e44b40e2f7a090819cf1915a0b103ff1.html" target="_top" xlink:title="any">
<polygon fill="#a2b4d6" stroke="red" points="687.5,-35 652.5,-35 652.5,-16 687.5,-16 687.5,-35"/>
<text text-anchor="middle" x="670" y="-23" font-family="Helvetica,sans-Serif" font-size="10.00">any</text>
</a>
</g>
</g>
<!-- dir_f555f996eeee1ebe901dc71e0c5de8ff -->
<g id="node12" class="node">
<title>dir_f555f996eeee1ebe901dc71e0c5de8ff</title>
<g id="a_node12"><a xlink:href="dir_f555f996eeee1ebe901dc71e0c5de8ff.html" target="_top" xlink:title="meta">
<polygon fill="#a2b4d6" stroke="#404040" points="748,-35 706,-35 706,-16 748,-16 748,-35"/>
<text text-anchor="middle" x="727" y="-23" font-family="Helvetica,sans-Serif" font-size="10.00">meta</text>
</a>
</g>
</g>
<!-- dir_74bda9cbed187d8a7ee6c4f00e4e3b0a -->
<g id="node13" class="node">
<title>dir_74bda9cbed187d8a7ee6c4f00e4e3b0a</title>
<g id="a_node13"><a xlink:href="dir_74bda9cbed187d8a7ee6c4f00e4e3b0a.html" target="_top" xlink:title="serialization">
<polygon fill="#edf0f7" stroke="#404040" stroke-width="2" points="423.5,-90 346.5,-90 346.5,-71 423.5,-71 423.5,-90"/>
<text text-anchor="middle" x="385" y="-78" font-family="Helvetica,sans-Serif" font-size="10.00">serialization</text>
</a>
</g>
</g>
<!-- dir_74bda9cbed187d8a7ee6c4f00e4e3b0a&#45;&gt;dir_0669efae56692bb73da75efb5ebbccdf -->
<g id="edge1" class="edge">
<title>dir_74bda9cbed187d8a7ee6c4f00e4e3b0a&#45;&gt;dir_0669efae56692bb73da75efb5ebbccdf</title>
<path fill="none" stroke="#63b8ff" d="M346.11,-74.73C288.29,-67.42 176.37,-52.46 82,-35 81.9,-34.98 81.8,-34.96 81.7,-34.94"/>
<polygon fill="#63b8ff" stroke="#63b8ff" points="82.67,-31.57 72.17,-33.05 81.3,-38.43 82.67,-31.57"/>
<g id="a_edge1&#45;headlabel"><a xlink:href="dir_000151_000082.html" target="_top" xlink:title="7">
<text text-anchor="middle" x="86.75" y="-26.99" font-family="Helvetica,sans-Serif" font-size="10.00" fill="#63b8ff">7</text>
</a>
</g>
</g>
<!-- dir_74bda9cbed187d8a7ee6c4f00e4e3b0a&#45;&gt;dir_143f1d6bc6d46924c644ec67dc1fb4fc -->
<g id="edge2" class="edge">
<title>dir_74bda9cbed187d8a7ee6c4f00e4e3b0a&#45;&gt;dir_143f1d6bc6d46924c644ec67dc1fb4fc</title>
<path fill="none" stroke="#63b8ff" d="M346.4,-74.85C297.83,-68.55 211.8,-55.91 129.37,-34.67"/>
<polygon fill="#63b8ff" stroke="#63b8ff" points="130.16,-31.26 119.6,-32.11 128.39,-38.03 130.16,-31.26"/>
<g id="a_edge2&#45;headlabel"><a xlink:href="dir_000151_000022.html" target="_top" xlink:title="1">
<text text-anchor="middle" x="134.36" y="-26.93" font-family="Helvetica,sans-Serif" font-size="10.00" fill="#63b8ff">1</text>
</a>
</g>
</g>
<!-- dir_74bda9cbed187d8a7ee6c4f00e4e3b0a&#45;&gt;dir_30ecaf38acae77be14fb9173f98f8612 -->
<g id="edge3" class="edge">
<title>dir_74bda9cbed187d8a7ee6c4f00e4e3b0a&#45;&gt;dir_30ecaf38acae77be14fb9173f98f8612</title>
<path fill="none" stroke="#63b8ff" d="M346.24,-71.11C309.06,-62.96 251.13,-49.96 192.17,-35.22"/>
<polygon fill="#63b8ff" stroke="#63b8ff" points="192.87,-31.79 182.32,-32.74 191.17,-38.57 192.87,-31.79"/>
<g id="a_edge3&#45;headlabel"><a xlink:href="dir_000151_000180.html" target="_top" xlink:title="8">
<text text-anchor="middle" x="197.05" y="-27.41" font-family="Helvetica,sans-Serif" font-size="10.00" fill="#63b8ff">8</text>
</a>
</g>
</g>
<!-- dir_74bda9cbed187d8a7ee6c4f00e4e3b0a&#45;&gt;dir_4535887b2cdca47e625f259d07db0112 -->
<g id="edge4" class="edge">
<title>dir_74bda9cbed187d8a7ee6c4f00e4e3b0a&#45;&gt;dir_4535887b2cdca47e625f259d07db0112</title>
<path fill="none" stroke="#63b8ff" d="M356.51,-70.95C329.34,-62.75 287.04,-49.82 241.81,-35.2"/>
<polygon fill="#63b8ff" stroke="#63b8ff" points="242.71,-31.81 232.12,-32.05 240.55,-38.47 242.71,-31.81"/>
<g id="a_edge4&#45;headlabel"><a xlink:href="dir_000151_000185.html" target="_top" xlink:title="16">
<text text-anchor="middle" x="247" y="-27.72" font-family="Helvetica,sans-Serif" font-size="10.00" fill="#63b8ff">16</text>
</a>
</g>
</g>
<!-- dir_74bda9cbed187d8a7ee6c4f00e4e3b0a&#45;&gt;dir_521de572ae4fe2915cc70a876c52f5b7 -->
<g id="edge5" class="edge">
<title>dir_74bda9cbed187d8a7ee6c4f00e4e3b0a&#45;&gt;dir_521de572ae4fe2915cc70a876c52f5b7</title>
<path fill="none" stroke="#63b8ff" d="M368.29,-70.98C351.79,-62.57 326.3,-49.59 307.12,-39.81"/>
<polygon fill="#63b8ff" stroke="#63b8ff" points="308.51,-36.59 298.01,-35.17 305.33,-42.83 308.51,-36.59"/>
<g id="a_edge5&#45;headlabel"><a xlink:href="dir_000151_000046.html" target="_top" xlink:title="30">
<text text-anchor="middle" x="313" y="-33.19" font-family="Helvetica,sans-Serif" font-size="10.00" fill="#63b8ff">30</text>
</a>
</g>
</g>
<!-- dir_74bda9cbed187d8a7ee6c4f00e4e3b0a&#45;&gt;dir_942cfae36a92b6b1c4b510e99e852d40 -->
<g id="edge6" class="edge">
<title>dir_74bda9cbed187d8a7ee6c4f00e4e3b0a&#45;&gt;dir_942cfae36a92b6b1c4b510e99e852d40</title>
<path fill="none" stroke="#63b8ff" d="M379.72,-70.75C375.29,-63.42 368.84,-52.73 363.38,-43.7"/>
<polygon fill="#63b8ff" stroke="#63b8ff" points="366.35,-41.84 358.19,-35.09 360.36,-45.46 366.35,-41.84"/>
<g id="a_edge6&#45;headlabel"><a xlink:href="dir_000151_000189.html" target="_top" xlink:title="25">
<text text-anchor="middle" x="370.64" y="-40.95" font-family="Helvetica,sans-Serif" font-size="10.00" fill="#63b8ff">25</text>
</a>
</g>
</g>
<!-- dir_74bda9cbed187d8a7ee6c4f00e4e3b0a&#45;&gt;dir_9971a148f77c599abaa54299590fb7b2 -->
<g id="edge7" class="edge">
<title>dir_74bda9cbed187d8a7ee6c4f00e4e3b0a&#45;&gt;dir_9971a148f77c599abaa54299590fb7b2</title>
<path fill="none" stroke="#63b8ff" d="M390.45,-70.75C395.01,-63.42 401.67,-52.73 407.29,-43.7"/>
<polygon fill="#63b8ff" stroke="#63b8ff" points="410.34,-45.43 412.65,-35.09 404.4,-41.73 410.34,-45.43"/>
<g id="a_edge7&#45;headlabel"><a xlink:href="dir_000151_000145.html" target="_top" xlink:title="6">
<text text-anchor="middle" x="410.85" y="-47.48" font-family="Helvetica,sans-Serif" font-size="10.00" fill="#63b8ff">6</text>
</a>
</g>
</g>
<!-- dir_74bda9cbed187d8a7ee6c4f00e4e3b0a&#45;&gt;dir_aaf67126bd5deefc4d96704f76f22cc2 -->
<g id="edge8" class="edge">
<title>dir_74bda9cbed187d8a7ee6c4f00e4e3b0a&#45;&gt;dir_aaf67126bd5deefc4d96704f76f22cc2</title>
<path fill="none" stroke="#63b8ff" d="M401.71,-70.98C418.21,-62.57 443.7,-49.59 462.88,-39.81"/>
<polygon fill="#63b8ff" stroke="#63b8ff" points="464.67,-42.83 471.99,-35.17 461.49,-36.59 464.67,-42.83"/>
<g id="a_edge8&#45;headlabel"><a xlink:href="dir_000151_000135.html" target="_top" xlink:title="3">
<text text-anchor="middle" x="462.75" y="-44.49" font-family="Helvetica,sans-Serif" font-size="10.00" fill="#63b8ff">3</text>
</a>
</g>
</g>
<!-- dir_74bda9cbed187d8a7ee6c4f00e4e3b0a&#45;&gt;dir_cd43612992eaeb46558dd8835da126ed -->
<g id="edge9" class="edge">
<title>dir_74bda9cbed187d8a7ee6c4f00e4e3b0a&#45;&gt;dir_cd43612992eaeb46558dd8835da126ed</title>
<path fill="none" stroke="#63b8ff" d="M413.9,-70.99C440.96,-62.92 482.72,-50.19 526.97,-35.24"/>
<polygon fill="#63b8ff" stroke="#63b8ff" points="528.1,-38.55 536.44,-32.01 525.85,-31.92 528.1,-38.55"/>
<g id="a_edge9&#45;headlabel"><a xlink:href="dir_000151_000100.html" target="_top" xlink:title="18">
<text text-anchor="middle" x="525.61" y="-39.89" font-family="Helvetica,sans-Serif" font-size="10.00" fill="#63b8ff">18</text>
</a>
</g>
</g>
<!-- dir_74bda9cbed187d8a7ee6c4f00e4e3b0a&#45;&gt;dir_e41b746b2bc627b26c4c637af42fb69a -->
<g id="edge10" class="edge">
<title>dir_74bda9cbed187d8a7ee6c4f00e4e3b0a&#45;&gt;dir_e41b746b2bc627b26c4c637af42fb69a</title>
<path fill="none" stroke="#63b8ff" d="M422.17,-70.97C458.48,-62.59 515.57,-49.33 573.99,-35.22"/>
<polygon fill="#63b8ff" stroke="#63b8ff" points="574.86,-38.61 583.76,-32.85 573.22,-31.8 574.86,-38.61"/>
<g id="a_edge10&#45;headlabel"><a xlink:href="dir_000151_000079.html" target="_top" xlink:title="1">
<text text-anchor="middle" x="572.04" y="-39.71" font-family="Helvetica,sans-Serif" font-size="10.00" fill="#63b8ff">1</text>
</a>
</g>
</g>
<!-- dir_74bda9cbed187d8a7ee6c4f00e4e3b0a&#45;&gt;dir_e44b40e2f7a090819cf1915a0b103ff1 -->
<g id="edge11" class="edge">
<title>dir_74bda9cbed187d8a7ee6c4f00e4e3b0a&#45;&gt;dir_e44b40e2f7a090819cf1915a0b103ff1</title>
<path fill="none" stroke="#63b8ff" d="M423.8,-74.46C472.64,-67.76 559.22,-54.68 642.5,-34.81"/>
<polygon fill="#63b8ff" stroke="#63b8ff" points="643.48,-38.18 652.38,-32.42 641.83,-31.37 643.48,-38.18"/>
<g id="a_edge11&#45;headlabel"><a xlink:href="dir_000151_000008.html" target="_top" xlink:title="1">
<text text-anchor="middle" x="640.66" y="-39.28" font-family="Helvetica,sans-Serif" font-size="10.00" fill="#63b8ff">1</text>
</a>
</g>
</g>
<!-- dir_74bda9cbed187d8a7ee6c4f00e4e3b0a&#45;&gt;dir_f555f996eeee1ebe901dc71e0c5de8ff -->
<g id="edge12" class="edge">
<title>dir_74bda9cbed187d8a7ee6c4f00e4e3b0a&#45;&gt;dir_f555f996eeee1ebe901dc71e0c5de8ff</title>
<path fill="none" stroke="#63b8ff" d="M423.72,-75.67C481.13,-69.63 592.35,-56.5 695.8,-35"/>
<polygon fill="#63b8ff" stroke="#63b8ff" points="696.72,-38.38 705.78,-32.89 695.28,-31.53 696.72,-38.38"/>
<g id="a_edge12&#45;headlabel"><a xlink:href="dir_000151_000122.html" target="_top" xlink:title="17">
<text text-anchor="middle" x="693.79" y="-39.4" font-family="Helvetica,sans-Serif" font-size="10.00" fill="#63b8ff">17</text>
</a>
</g>
</g>
</g>
</svg>
