<?xml version="1.0" encoding="UTF-8" standalone="no"?>
<!DOCTYPE svg PUBLIC "-//W3C//DTD SVG 1.1//EN"
 "http://www.w3.org/Graphics/SVG/1.1/DTD/svg11.dtd">
<!-- Generated by graphviz version 2.43.0 (0)
 -->
<!-- Title: libs/dius Pages: 1 -->
<svg width="481pt" height="196pt"
 viewBox="0.00 0.00 481.00 196.00" xmlns="http://www.w3.org/2000/svg" xmlns:xlink="http://www.w3.org/1999/xlink">
<g id="graph0" class="graph" transform="scale(1 1) rotate(0) translate(4 192)">
<title>libs/dius</title>
<g id="clust1" class="cluster">
<title>clusterdir_6719ab1f1f7655efc2fa43f7eb574fd1</title>
<g id="a_clust1"><a xlink:href="dir_6719ab1f1f7655efc2fa43f7eb574fd1.html" target="_top" xlink:title="libs">
<polygon fill="#edf0f7" stroke="#404040" stroke-dasharray="5,2" points="8,-8 8,-180 433,-180 433,-8 8,-8"/>
<text text-anchor="middle" x="220.5" y="-168" font-family="Helvetica,sans-Serif" font-size="10.00">libs</text>
</a>
</g>
</g>
<g id="clust2" class="cluster">
<title>clusterdir_2bc9e3f402dd86ba93785edd287294d9</title>
<g id="a_clust2"><a xlink:href="dir_2bc9e3f402dd86ba93785edd287294d9.html" target="_top">
<polygon fill="#edf0f7" stroke="#404040" stroke-width="2" points="16,-63 16,-153 425,-153 425,-63 16,-63"/>
</a>
</g>
</g>
<!-- dir_048287677304621c659962c2a2c2732d -->
<g id="node1" class="node">
<title>dir_048287677304621c659962c2a2c2732d</title>
<g id="a_node1"><a xlink:href="dir_048287677304621c659962c2a2c2732d.html" target="_top" xlink:title="ccpp">
<polygon fill="#a2b4d6" stroke="red" points="312.5,-35 273.5,-35 273.5,-16 312.5,-16 312.5,-35"/>
<text text-anchor="middle" x="293" y="-23" font-family="Helvetica,sans-Serif" font-size="10.00">ccpp</text>
</a>
</g>
</g>
<!-- dir_984cd133b143ec7cf21a4bdcb401bfa5 -->
<g id="node2" class="node">
<title>dir_984cd133b143ec7cf21a4bdcb401bfa5</title>
<g id="a_node2"><a xlink:href="dir_984cd133b143ec7cf21a4bdcb401bfa5.html" target="_top" xlink:title="di">
<polygon fill="#a2b4d6" stroke="red" points="187.5,-35 158.5,-35 158.5,-16 187.5,-16 187.5,-35"/>
<text text-anchor="middle" x="173" y="-23" font-family="Helvetica,sans-Serif" font-size="10.00">di</text>
</a>
</g>
</g>
<!-- dir_2bc9e3f402dd86ba93785edd287294d9 -->
<g id="node3" class="node">
<title>dir_2bc9e3f402dd86ba93785edd287294d9</title>
<text text-anchor="middle" x="99" y="-133" font-family="Helvetica,sans-Serif" font-size="10.00">dius</text>
</g>
<!-- dir_2bc9e3f402dd86ba93785edd287294d9&#45;&gt;dir_048287677304621c659962c2a2c2732d -->
<g id="edge1" class="edge">
<title>dir_2bc9e3f402dd86ba93785edd287294d9&#45;&gt;dir_048287677304621c659962c2a2c2732d</title>
<path fill="none" stroke="#63b8ff" d="M111.66,-125.78C132.36,-111.71 174.95,-83.5 213,-63 229.43,-54.15 248.4,-45.43 263.75,-38.73"/>
<polygon fill="#63b8ff" stroke="#63b8ff" points="265.45,-41.81 273.25,-34.65 262.68,-35.39 265.45,-41.81"/>
<g id="a_edge1&#45;headlabel"><a xlink:href="dir_000063_000030.html" target="_top" xlink:title="15">
<text text-anchor="middle" x="263.27" y="-43.34" font-family="Helvetica,sans-Serif" font-size="10.00" fill="#63b8ff">15</text>
</a>
</g>
</g>
<!-- dir_2bc9e3f402dd86ba93785edd287294d9&#45;&gt;dir_984cd133b143ec7cf21a4bdcb401bfa5 -->
<g id="edge3" class="edge">
<title>dir_2bc9e3f402dd86ba93785edd287294d9&#45;&gt;dir_984cd133b143ec7cf21a4bdcb401bfa5</title>
<path fill="none" stroke="#63b8ff" d="M100.67,-125.84C103.73,-111.6 111.34,-82.86 126,-63 132.37,-54.36 141.32,-46.72 149.69,-40.7"/>
<polygon fill="#63b8ff" stroke="#63b8ff" points="151.76,-43.52 158.09,-35.02 147.84,-37.72 151.76,-43.52"/>
<g id="a_edge3&#45;headlabel"><a xlink:href="dir_000063_000058.html" target="_top" xlink:title="138">
<text text-anchor="middle" x="150.37" y="-45.39" font-family="Helvetica,sans-Serif" font-size="10.00" fill="#63b8ff">138</text>
</a>
</g>
</g>
<!-- dir_6ac4aa95e4478b160428441746083760 -->
<g id="node5" class="node">
<title>dir_6ac4aa95e4478b160428441746083760</title>
<g id="a_node5"><a xlink:href="dir_6ac4aa95e4478b160428441746083760.html" target="_top" xlink:title="include">
<polygon fill="#a2b4d6" stroke="#404040" points="274,-90 222,-90 222,-71 274,-71 274,-90"/>
<text text-anchor="middle" x="248" y="-78" font-family="Helvetica,sans-Serif" font-size="10.00">include</text>
</a>
</g>
</g>
<!-- dir_2bc9e3f402dd86ba93785edd287294d9&#45;&gt;dir_6ac4aa95e4478b160428441746083760 -->
<g id="edge2" class="edge">
<title>dir_2bc9e3f402dd86ba93785edd287294d9&#45;&gt;dir_6ac4aa95e4478b160428441746083760</title>
<path fill="none" stroke="#63b8ff" d="M117.57,-127.89C141.75,-119.29 184.46,-104.1 214.39,-93.45"/>
<polygon fill="#63b8ff" stroke="#63b8ff" points="215.76,-96.68 224.01,-90.03 213.42,-90.09 215.76,-96.68"/>
<g id="a_edge2&#45;headlabel"><a xlink:href="dir_000063_000093.html" target="_top" xlink:title="60">
<text text-anchor="middle" x="213.33" y="-98.06" font-family="Helvetica,sans-Serif" font-size="10.00" fill="#63b8ff">60</text>
</a>
</g>
</g>
<!-- dir_39053a9e708acbcd1ab0b8826280498b -->
<g id="node4" class="node">
<title>dir_39053a9e708acbcd1ab0b8826280498b</title>
<g id="a_node4"><a xlink:href="dir_39053a9e708acbcd1ab0b8826280498b.html" target="_top" xlink:title="arch">
<polygon fill="#a2b4d6" stroke="#404040" points="62,-145 24,-145 24,-126 62,-126 62,-145"/>
<text text-anchor="middle" x="43" y="-133" font-family="Helvetica,sans-Serif" font-size="10.00">arch</text>
</a>
</g>
</g>
<!-- dir_39053a9e708acbcd1ab0b8826280498b&#45;&gt;dir_984cd133b143ec7cf21a4bdcb401bfa5 -->
<g id="edge4" class="edge">
<title>dir_39053a9e708acbcd1ab0b8826280498b&#45;&gt;dir_984cd133b143ec7cf21a4bdcb401bfa5</title>
<path fill="none" stroke="#63b8ff" d="M49.59,-125.77C60.71,-111.44 84.41,-82.56 109,-63 121.45,-53.1 136.9,-44.21 149.5,-37.68"/>
<polygon fill="#63b8ff" stroke="#63b8ff" points="151.11,-40.79 158.48,-33.17 147.97,-34.53 151.11,-40.79"/>
<g id="a_edge4&#45;headlabel"><a xlink:href="dir_000014_000058.html" target="_top" xlink:title="1">
<text text-anchor="middle" x="149.18" y="-42.44" font-family="Helvetica,sans-Serif" font-size="10.00" fill="#63b8ff">1</text>
</a>
</g>
</g>
<!-- dir_39053a9e708acbcd1ab0b8826280498b&#45;&gt;dir_6ac4aa95e4478b160428441746083760 -->
<g id="edge5" class="edge">
<title>dir_39053a9e708acbcd1ab0b8826280498b&#45;&gt;dir_6ac4aa95e4478b160428441746083760</title>
<path fill="none" stroke="#63b8ff" d="M62.24,-128.51C65.17,-127.64 68.16,-126.78 71,-126 132.7,-109.09 151.18,-107.31 212.11,-91.52"/>
<polygon fill="#63b8ff" stroke="#63b8ff" points="213.05,-94.89 221.84,-88.97 211.28,-88.12 213.05,-94.89"/>
<g id="a_edge5&#45;headlabel"><a xlink:href="dir_000014_000093.html" target="_top" xlink:title="1">
<text text-anchor="middle" x="210.29" y="-96.05" font-family="Helvetica,sans-Serif" font-size="10.00" fill="#63b8ff">1</text>
</a>
</g>
</g>
<!-- dir_6ac4aa95e4478b160428441746083760&#45;&gt;dir_048287677304621c659962c2a2c2732d -->
<g id="edge8" class="edge">
<title>dir_6ac4aa95e4478b160428441746083760&#45;&gt;dir_048287677304621c659962c2a2c2732d</title>
<path fill="none" stroke="#63b8ff" d="M255.43,-70.75C261.85,-63.18 271.31,-52.05 279.12,-42.84"/>
<polygon fill="#63b8ff" stroke="#63b8ff" points="281.9,-44.98 285.71,-35.09 276.57,-40.45 281.9,-44.98"/>
<g id="a_edge8&#45;headlabel"><a xlink:href="dir_000093_000030.html" target="_top" xlink:title="2">
<text text-anchor="middle" x="281.74" y="-47.06" font-family="Helvetica,sans-Serif" font-size="10.00" fill="#63b8ff">2</text>
</a>
</g>
</g>
<!-- dir_6ac4aa95e4478b160428441746083760&#45;&gt;dir_984cd133b143ec7cf21a4bdcb401bfa5 -->
<g id="edge6" class="edge">
<title>dir_6ac4aa95e4478b160428441746083760&#45;&gt;dir_984cd133b143ec7cf21a4bdcb401bfa5</title>
<path fill="none" stroke="#63b8ff" d="M235.95,-70.98C224.54,-62.92 207.17,-50.65 193.57,-41.03"/>
<polygon fill="#63b8ff" stroke="#63b8ff" points="195.46,-38.08 185.27,-35.17 191.42,-43.8 195.46,-38.08"/>
<g id="a_edge6&#45;headlabel"><a xlink:href="dir_000093_000058.html" target="_top" xlink:title="96">
<text text-anchor="middle" x="200.03" y="-35.34" font-family="Helvetica,sans-Serif" font-size="10.00" fill="#63b8ff">96</text>
</a>
</g>
</g>
<!-- dir_2605f0c6ea8f9a17a384edc9a2df15f4 -->
<g id="node11" class="node">
<title>dir_2605f0c6ea8f9a17a384edc9a2df15f4</title>
<g id="a_node11"><a xlink:href="dir_2605f0c6ea8f9a17a384edc9a2df15f4.html" target="_top" xlink:title="iris">
<polygon fill="#edf0f7" stroke="red" points="473,-35 441,-35 441,-16 473,-16 473,-35"/>
<text text-anchor="middle" x="457" y="-23" font-family="Helvetica,sans-Serif" font-size="10.00">iris</text>
</a>
</g>
</g>
<!-- dir_6ac4aa95e4478b160428441746083760&#45;&gt;dir_2605f0c6ea8f9a17a384edc9a2df15f4 -->
<g id="edge7" class="edge">
<title>dir_6ac4aa95e4478b160428441746083760&#45;&gt;dir_2605f0c6ea8f9a17a384edc9a2df15f4</title>
<path fill="none" stroke="#63b8ff" d="M274.06,-74.83C308.94,-68.26 372.78,-55.16 431.23,-36.73"/>
<polygon fill="#63b8ff" stroke="#63b8ff" points="432.49,-40 440.93,-33.61 430.34,-33.34 432.49,-40"/>
<g id="a_edge7&#45;headlabel"><a xlink:href="dir_000093_000102.html" target="_top" xlink:title="2">
<text text-anchor="middle" x="429.94" y="-41.31" font-family="Helvetica,sans-Serif" font-size="10.00" fill="#63b8ff">2</text>
</a>
</g>
</g>
<!-- dir_17076abbcecdd53a1af3ac0a38ec6e06 -->
<g id="node6" class="node">
<title>dir_17076abbcecdd53a1af3ac0a38ec6e06</title>
<g id="a_node6"><a xlink:href="dir_17076abbcecdd53a1af3ac0a38ec6e06.html" target="_top" xlink:title="iros">
<polygon fill="#a2b4d6" stroke="#404040" points="302.5,-145 267.5,-145 267.5,-126 302.5,-126 302.5,-145"/>
<text text-anchor="middle" x="285" y="-133" font-family="Helvetica,sans-Serif" font-size="10.00">iros</text>
</a>
</g>
</g>
<!-- dir_17076abbcecdd53a1af3ac0a38ec6e06&#45;&gt;dir_984cd133b143ec7cf21a4bdcb401bfa5 -->
<g id="edge11" class="edge">
<title>dir_17076abbcecdd53a1af3ac0a38ec6e06&#45;&gt;dir_984cd133b143ec7cf21a4bdcb401bfa5</title>
<path fill="none" stroke="#63b8ff" d="M267.26,-126.73C251.51,-119.15 228.63,-106.37 213,-90 203.52,-80.07 205.22,-74.68 198,-63 194.02,-56.57 189.41,-49.69 185.23,-43.65"/>
<polygon fill="#63b8ff" stroke="#63b8ff" points="187.8,-41.22 179.19,-35.05 182.08,-45.25 187.8,-41.22"/>
<g id="a_edge11&#45;headlabel"><a xlink:href="dir_000107_000058.html" target="_top" xlink:title="8">
<text text-anchor="middle" x="192.19" y="-40.03" font-family="Helvetica,sans-Serif" font-size="10.00" fill="#63b8ff">8</text>
</a>
</g>
</g>
<!-- dir_17076abbcecdd53a1af3ac0a38ec6e06&#45;&gt;dir_6ac4aa95e4478b160428441746083760 -->
<g id="edge10" class="edge">
<title>dir_17076abbcecdd53a1af3ac0a38ec6e06&#45;&gt;dir_6ac4aa95e4478b160428441746083760</title>
<path fill="none" stroke="#63b8ff" d="M278.89,-125.75C273.72,-118.34 266.15,-107.5 259.81,-98.41"/>
<polygon fill="#63b8ff" stroke="#63b8ff" points="262.59,-96.29 254,-90.09 256.85,-100.29 262.59,-96.29"/>
<g id="a_edge10&#45;headlabel"><a xlink:href="dir_000107_000093.html" target="_top" xlink:title="15">
<text text-anchor="middle" x="266.98" y="-95.11" font-family="Helvetica,sans-Serif" font-size="10.00" fill="#63b8ff">15</text>
</a>
</g>
</g>
<!-- dir_17076abbcecdd53a1af3ac0a38ec6e06&#45;&gt;dir_2605f0c6ea8f9a17a384edc9a2df15f4 -->
<g id="edge9" class="edge">
<title>dir_17076abbcecdd53a1af3ac0a38ec6e06&#45;&gt;dir_2605f0c6ea8f9a17a384edc9a2df15f4</title>
<path fill="none" stroke="#63b8ff" d="M302.58,-128.82C337,-117.64 410.39,-93.57 415,-90 430.48,-78.03 442.11,-58.66 449.15,-44.46"/>
<polygon fill="#63b8ff" stroke="#63b8ff" points="452.41,-45.76 453.47,-35.21 446.07,-42.8 452.41,-45.76"/>
<g id="a_edge9&#45;headlabel"><a xlink:href="dir_000107_000102.html" target="_top" xlink:title="3">
<text text-anchor="middle" x="453.47" y="-47.71" font-family="Helvetica,sans-Serif" font-size="10.00" fill="#63b8ff">3</text>
</a>
</g>
</g>
<!-- dir_7ccd26c404836bc22a606bd372fc0063 -->
<g id="node7" class="node">
<title>dir_7ccd26c404836bc22a606bd372fc0063</title>
<g id="a_node7"><a xlink:href="dir_7ccd26c404836bc22a606bd372fc0063.html" target="_top" xlink:title="linux">
<polygon fill="#a2b4d6" stroke="#404040" points="249.5,-145 208.5,-145 208.5,-126 249.5,-126 249.5,-145"/>
<text text-anchor="middle" x="229" y="-133" font-family="Helvetica,sans-Serif" font-size="10.00">linux</text>
</a>
</g>
</g>
<!-- dir_7ccd26c404836bc22a606bd372fc0063&#45;&gt;dir_048287677304621c659962c2a2c2732d -->
<g id="edge12" class="edge">
<title>dir_7ccd26c404836bc22a606bd372fc0063&#45;&gt;dir_048287677304621c659962c2a2c2732d</title>
<path fill="none" stroke="#63b8ff" d="M244.71,-125.91C257.2,-118.21 274.02,-105.72 283,-90 290.7,-76.51 292.99,-58.91 293.47,-45.66"/>
<polygon fill="#63b8ff" stroke="#63b8ff" points="296.97,-45.37 293.51,-35.35 289.97,-45.34 296.97,-45.37"/>
<g id="a_edge12&#45;headlabel"><a xlink:href="dir_000114_000030.html" target="_top" xlink:title="7">
<text text-anchor="middle" x="299.79" y="-46.48" font-family="Helvetica,sans-Serif" font-size="10.00" fill="#63b8ff">7</text>
</a>
</g>
</g>
<!-- dir_7ccd26c404836bc22a606bd372fc0063&#45;&gt;dir_984cd133b143ec7cf21a4bdcb401bfa5 -->
<g id="edge14" class="edge">
<title>dir_7ccd26c404836bc22a606bd372fc0063&#45;&gt;dir_984cd133b143ec7cf21a4bdcb401bfa5</title>
<path fill="none" stroke="#63b8ff" d="M221.94,-125.69C215.19,-116.99 205.02,-103.11 198,-90 190.22,-75.48 183.52,-57.99 179.01,-45.05"/>
<polygon fill="#63b8ff" stroke="#63b8ff" points="182.28,-43.78 175.77,-35.42 175.64,-46.01 182.28,-43.78"/>
<g id="a_edge14&#45;headlabel"><a xlink:href="dir_000114_000058.html" target="_top" xlink:title="14">
<text text-anchor="middle" x="186.11" y="-43.78" font-family="Helvetica,sans-Serif" font-size="10.00" fill="#63b8ff">14</text>
</a>
</g>
</g>
<!-- dir_7ccd26c404836bc22a606bd372fc0063&#45;&gt;dir_6ac4aa95e4478b160428441746083760 -->
<g id="edge13" class="edge">
<title>dir_7ccd26c404836bc22a606bd372fc0063&#45;&gt;dir_6ac4aa95e4478b160428441746083760</title>
<path fill="none" stroke="#63b8ff" d="M232.14,-125.75C234.68,-118.65 238.36,-108.4 241.53,-99.56"/>
<polygon fill="#63b8ff" stroke="#63b8ff" points="244.84,-100.68 244.92,-90.09 238.25,-98.32 244.84,-100.68"/>
<g id="a_edge13&#45;headlabel"><a xlink:href="dir_000114_000093.html" target="_top" xlink:title="20">
<text text-anchor="middle" x="246.3" y="-102.53" font-family="Helvetica,sans-Serif" font-size="10.00" fill="#63b8ff">20</text>
</a>
</g>
</g>
<!-- dir_53c77cad3f2909eef1204c9f26a60953 -->
<g id="node8" class="node">
<title>dir_53c77cad3f2909eef1204c9f26a60953</title>
<g id="a_node8"><a xlink:href="dir_53c77cad3f2909eef1204c9f26a60953.html" target="_top" xlink:title="posix">
<polygon fill="#a2b4d6" stroke="#404040" points="363.5,-145 320.5,-145 320.5,-126 363.5,-126 363.5,-145"/>
<text text-anchor="middle" x="342" y="-133" font-family="Helvetica,sans-Serif" font-size="10.00">posix</text>
</a>
</g>
</g>
<!-- dir_53c77cad3f2909eef1204c9f26a60953&#45;&gt;dir_048287677304621c659962c2a2c2732d -->
<g id="edge16" class="edge">
<title>dir_53c77cad3f2909eef1204c9f26a60953&#45;&gt;dir_048287677304621c659962c2a2c2732d</title>
<path fill="none" stroke="#63b8ff" d="M337.99,-125.66C329.95,-107.93 311.7,-67.73 301.08,-44.32"/>
<polygon fill="#63b8ff" stroke="#63b8ff" points="304.25,-42.82 296.93,-35.16 297.87,-45.71 304.25,-42.82"/>
<g id="a_edge16&#45;headlabel"><a xlink:href="dir_000138_000030.html" target="_top" xlink:title="2">
<text text-anchor="middle" x="308.32" y="-42.42" font-family="Helvetica,sans-Serif" font-size="10.00" fill="#63b8ff">2</text>
</a>
</g>
</g>
<!-- dir_53c77cad3f2909eef1204c9f26a60953&#45;&gt;dir_6ac4aa95e4478b160428441746083760 -->
<g id="edge15" class="edge">
<title>dir_53c77cad3f2909eef1204c9f26a60953&#45;&gt;dir_6ac4aa95e4478b160428441746083760</title>
<path fill="none" stroke="#63b8ff" d="M326.9,-125.98C312.18,-117.69 289.58,-104.94 272.33,-95.22"/>
<polygon fill="#63b8ff" stroke="#63b8ff" points="273.81,-92.03 263.38,-90.17 270.37,-98.13 273.81,-92.03"/>
<g id="a_edge15&#45;headlabel"><a xlink:href="dir_000138_000093.html" target="_top" xlink:title="2">
<text text-anchor="middle" x="278.33" y="-88.83" font-family="Helvetica,sans-Serif" font-size="10.00" fill="#63b8ff">2</text>
</a>
</g>
</g>
<!-- dir_31e18d227c2c24cfedcd1fb5687b87ef -->
<g id="node9" class="node">
<title>dir_31e18d227c2c24cfedcd1fb5687b87ef</title>
<g id="a_node9"><a xlink:href="dir_31e18d227c2c24cfedcd1fb5687b87ef.html" target="_top" xlink:title="runtime">
<polygon fill="#a2b4d6" stroke="#404040" points="190.5,-145 135.5,-145 135.5,-126 190.5,-126 190.5,-145"/>
<text text-anchor="middle" x="163" y="-133" font-family="Helvetica,sans-Serif" font-size="10.00">runtime</text>
</a>
</g>
</g>
<!-- dir_31e18d227c2c24cfedcd1fb5687b87ef&#45;&gt;dir_984cd133b143ec7cf21a4bdcb401bfa5 -->
<g id="edge18" class="edge">
<title>dir_31e18d227c2c24cfedcd1fb5687b87ef&#45;&gt;dir_984cd133b143ec7cf21a4bdcb401bfa5</title>
<path fill="none" stroke="#63b8ff" d="M163.82,-125.66C165.44,-108.17 169.08,-68.8 171.26,-45.27"/>
<polygon fill="#63b8ff" stroke="#63b8ff" points="174.76,-45.44 172.2,-35.16 167.79,-44.79 174.76,-45.44"/>
<g id="a_edge18&#45;headlabel"><a xlink:href="dir_000148_000058.html" target="_top" xlink:title="15">
<text text-anchor="middle" x="177.26" y="-46.78" font-family="Helvetica,sans-Serif" font-size="10.00" fill="#63b8ff">15</text>
</a>
</g>
</g>
<!-- dir_31e18d227c2c24cfedcd1fb5687b87ef&#45;&gt;dir_6ac4aa95e4478b160428441746083760 -->
<g id="edge17" class="edge">
<title>dir_31e18d227c2c24cfedcd1fb5687b87ef&#45;&gt;dir_6ac4aa95e4478b160428441746083760</title>
<path fill="none" stroke="#63b8ff" d="M176.66,-125.98C189.84,-117.77 210.03,-105.18 225.57,-95.49"/>
<polygon fill="#63b8ff" stroke="#63b8ff" points="227.46,-98.43 234.09,-90.17 223.76,-92.49 227.46,-98.43"/>
<g id="a_edge17&#45;headlabel"><a xlink:href="dir_000148_000093.html" target="_top" xlink:title="5">
<text text-anchor="middle" x="225.91" y="-100.24" font-family="Helvetica,sans-Serif" font-size="10.00" fill="#63b8ff">5</text>
</a>
</g>
</g>
<!-- dir_fa70516c1f0e70fcd30080d69bfe6fb3 -->
<g id="node10" class="node">
<title>dir_fa70516c1f0e70fcd30080d69bfe6fb3</title>
<g id="a_node10"><a xlink:href="dir_fa70516c1f0e70fcd30080d69bfe6fb3.html" target="_top" xlink:title="test">
<polygon fill="#a2b4d6" stroke="#404040" points="416.5,-145 381.5,-145 381.5,-126 416.5,-126 416.5,-145"/>
<text text-anchor="middle" x="399" y="-133" font-family="Helvetica,sans-Serif" font-size="10.00">test</text>
</a>
</g>
</g>
<!-- dir_fa70516c1f0e70fcd30080d69bfe6fb3&#45;&gt;dir_048287677304621c659962c2a2c2732d -->
<g id="edge19" class="edge">
<title>dir_fa70516c1f0e70fcd30080d69bfe6fb3&#45;&gt;dir_048287677304621c659962c2a2c2732d</title>
<path fill="none" stroke="#63b8ff" d="M390.33,-125.66C372.46,-107.46 331.32,-65.55 308.67,-42.47"/>
<polygon fill="#63b8ff" stroke="#63b8ff" points="311,-39.84 301.5,-35.16 306,-44.75 311,-39.84"/>
<g id="a_edge19&#45;headlabel"><a xlink:href="dir_000170_000030.html" target="_top" xlink:title="1">
<text text-anchor="middle" x="315.54" y="-37.92" font-family="Helvetica,sans-Serif" font-size="10.00" fill="#63b8ff">1</text>
</a>
</g>
</g>
<!-- dir_fa70516c1f0e70fcd30080d69bfe6fb3&#45;&gt;dir_6ac4aa95e4478b160428441746083760 -->
<g id="edge20" class="edge">
<title>dir_fa70516c1f0e70fcd30080d69bfe6fb3&#45;&gt;dir_6ac4aa95e4478b160428441746083760</title>
<path fill="none" stroke="#63b8ff" d="M381.38,-128.32C357.02,-119.77 312.57,-104.16 281.72,-93.33"/>
<polygon fill="#63b8ff" stroke="#63b8ff" points="282.81,-90.01 272.22,-90 280.49,-96.61 282.81,-90.01"/>
<g id="a_edge20&#45;headlabel"><a xlink:href="dir_000170_000093.html" target="_top" xlink:title="5">
<text text-anchor="middle" x="287.15" y="-86.02" font-family="Helvetica,sans-Serif" font-size="10.00" fill="#63b8ff">5</text>
</a>
</g>
</g>
</g>
</svg>
