<?xml version="1.0" encoding="UTF-8" standalone="no"?>
<!DOCTYPE svg PUBLIC "-//W3C//DTD SVG 1.1//EN"
 "http://www.w3.org/Graphics/SVG/1.1/DTD/svg11.dtd">
<!-- Generated by graphviz version 2.43.0 (0)
 -->
<!-- Title: libs/di/include/di/container/interface Pages: 1 -->
<svg width="520pt" height="133pt"
 viewBox="0.00 0.00 520.00 133.00" xmlns="http://www.w3.org/2000/svg" xmlns:xlink="http://www.w3.org/1999/xlink">
<g id="graph0" class="graph" transform="scale(1 1) rotate(0) translate(4 129)">
<title>libs/di/include/di/container/interface</title>
<g id="clust1" class="cluster">
<title>clusterdir_521de572ae4fe2915cc70a876c52f5b7</title>
<g id="a_clust1"><a xlink:href="dir_521de572ae4fe2915cc70a876c52f5b7.html" target="_top" xlink:title="container">
<polygon fill="#edf0f7" stroke="#7f7f7f" stroke-dasharray="5,2" points="8,-8 8,-117 274,-117 274,-8 8,-8"/>
<text text-anchor="middle" x="141" y="-105" font-family="Helvetica,sans-Serif" font-size="10.00">container</text>
</a>
</g>
</g>
<!-- dir_093cb0cf41c3d9bb25543a4e1702223c -->
<g id="node1" class="node">
<title>dir_093cb0cf41c3d9bb25543a4e1702223c</title>
<g id="a_node1"><a xlink:href="dir_093cb0cf41c3d9bb25543a4e1702223c.html" target="_top" xlink:title="iterator">
<polygon fill="#a2b4d6" stroke="#404040" points="69.5,-35 16.5,-35 16.5,-16 69.5,-16 69.5,-35"/>
<text text-anchor="middle" x="43" y="-23" font-family="Helvetica,sans-Serif" font-size="10.00">iterator</text>
</a>
</g>
</g>
<!-- dir_28cb5a05dfb61a4b9ad44e468e6394a4 -->
<g id="node2" class="node">
<title>dir_28cb5a05dfb61a4b9ad44e468e6394a4</title>
<g id="a_node2"><a xlink:href="dir_28cb5a05dfb61a4b9ad44e468e6394a4.html" target="_top" xlink:title="view">
<polygon fill="#a2b4d6" stroke="#404040" points="128,-35 88,-35 88,-16 128,-16 128,-35"/>
<text text-anchor="middle" x="108" y="-23" font-family="Helvetica,sans-Serif" font-size="10.00">view</text>
</a>
</g>
</g>
<!-- dir_838362f34bc8d8c3545343b0166aa672 -->
<g id="node3" class="node">
<title>dir_838362f34bc8d8c3545343b0166aa672</title>
<g id="a_node3"><a xlink:href="dir_838362f34bc8d8c3545343b0166aa672.html" target="_top" xlink:title="concepts">
<polygon fill="#a2b4d6" stroke="#404040" points="206,-35 146,-35 146,-16 206,-16 206,-35"/>
<text text-anchor="middle" x="176" y="-23" font-family="Helvetica,sans-Serif" font-size="10.00">concepts</text>
</a>
</g>
</g>
<!-- dir_9f8d33513cfc97e5f9ea6bf2671e5446 -->
<g id="node4" class="node">
<title>dir_9f8d33513cfc97e5f9ea6bf2671e5446</title>
<g id="a_node4"><a xlink:href="dir_9f8d33513cfc97e5f9ea6bf2671e5446.html" target="_top" xlink:title="meta">
<polygon fill="#a2b4d6" stroke="#404040" points="266,-35 224,-35 224,-16 266,-16 266,-35"/>
<text text-anchor="middle" x="245" y="-23" font-family="Helvetica,sans-Serif" font-size="10.00">meta</text>
</a>
</g>
</g>
<!-- dir_dd6c062645334da7e8440ac2e54ccb1d -->
<g id="node5" class="node">
<title>dir_dd6c062645334da7e8440ac2e54ccb1d</title>
<g id="a_node5"><a xlink:href="dir_dd6c062645334da7e8440ac2e54ccb1d.html" target="_top" xlink:title="interface">
<polygon fill="#edf0f7" stroke="#404040" stroke-width="2" points="266,-90 206,-90 206,-71 266,-71 266,-90"/>
<text text-anchor="middle" x="236" y="-78" font-family="Helvetica,sans-Serif" font-size="10.00">interface</text>
</a>
</g>
</g>
<!-- dir_dd6c062645334da7e8440ac2e54ccb1d&#45;&gt;dir_093cb0cf41c3d9bb25543a4e1702223c -->
<g id="edge2" class="edge">
<title>dir_dd6c062645334da7e8440ac2e54ccb1d&#45;&gt;dir_093cb0cf41c3d9bb25543a4e1702223c</title>
<path fill="none" stroke="#63b8ff" d="M205.84,-71.22C171.64,-61.82 115.87,-46.51 79.3,-36.47"/>
<polygon fill="#63b8ff" stroke="#63b8ff" points="80.1,-33.06 69.53,-33.79 78.25,-39.81 80.1,-33.06"/>
<g id="a_edge2&#45;headlabel"><a xlink:href="dir_000095_000108.html" target="_top" xlink:title="2">
<text text-anchor="middle" x="84.32" y="-28.77" font-family="Helvetica,sans-Serif" font-size="10.00" fill="#63b8ff">2</text>
</a>
</g>
</g>
<!-- dir_dd6c062645334da7e8440ac2e54ccb1d&#45;&gt;dir_28cb5a05dfb61a4b9ad44e468e6394a4 -->
<g id="edge3" class="edge">
<title>dir_dd6c062645334da7e8440ac2e54ccb1d&#45;&gt;dir_28cb5a05dfb61a4b9ad44e468e6394a4</title>
<path fill="none" stroke="#63b8ff" d="M215.43,-70.98C194.32,-62.24 161.25,-48.55 137.38,-38.67"/>
<polygon fill="#63b8ff" stroke="#63b8ff" points="138.67,-35.41 128.09,-34.82 135.99,-41.88 138.67,-35.41"/>
<g id="a_edge3&#45;headlabel"><a xlink:href="dir_000095_000188.html" target="_top" xlink:title="1">
<text text-anchor="middle" x="143.08" y="-31.66" font-family="Helvetica,sans-Serif" font-size="10.00" fill="#63b8ff">1</text>
</a>
</g>
</g>
<!-- dir_dd6c062645334da7e8440ac2e54ccb1d&#45;&gt;dir_838362f34bc8d8c3545343b0166aa672 -->
<g id="edge6" class="edge">
<title>dir_dd6c062645334da7e8440ac2e54ccb1d&#45;&gt;dir_838362f34bc8d8c3545343b0166aa672</title>
<path fill="none" stroke="#63b8ff" d="M226.36,-70.98C217.49,-63.15 204.13,-51.34 193.39,-41.86"/>
<polygon fill="#63b8ff" stroke="#63b8ff" points="195.63,-39.17 185.82,-35.17 190.99,-44.41 195.63,-39.17"/>
<g id="a_edge6&#45;headlabel"><a xlink:href="dir_000095_000037.html" target="_top" xlink:title="19">
<text text-anchor="middle" x="200.2" y="-36.92" font-family="Helvetica,sans-Serif" font-size="10.00" fill="#63b8ff">19</text>
</a>
</g>
</g>
<!-- dir_dd6c062645334da7e8440ac2e54ccb1d&#45;&gt;dir_9f8d33513cfc97e5f9ea6bf2671e5446 -->
<g id="edge7" class="edge">
<title>dir_dd6c062645334da7e8440ac2e54ccb1d&#45;&gt;dir_9f8d33513cfc97e5f9ea6bf2671e5446</title>
<path fill="none" stroke="#63b8ff" d="M237.49,-70.75C238.67,-63.8 240.36,-53.85 241.84,-45.13"/>
<polygon fill="#63b8ff" stroke="#63b8ff" points="245.32,-45.53 243.54,-35.09 238.42,-44.36 245.32,-45.53"/>
<g id="a_edge7&#45;headlabel"><a xlink:href="dir_000095_000120.html" target="_top" xlink:title="13">
<text text-anchor="middle" x="247.52" y="-47.05" font-family="Helvetica,sans-Serif" font-size="10.00" fill="#63b8ff">13</text>
</a>
</g>
</g>
<!-- dir_0669efae56692bb73da75efb5ebbccdf -->
<g id="node6" class="node">
<title>dir_0669efae56692bb73da75efb5ebbccdf</title>
<g id="a_node6"><a xlink:href="dir_0669efae56692bb73da75efb5ebbccdf.html" target="_top" xlink:title="function">
<polygon fill="#edf0f7" stroke="red" stroke-dasharray="5,2" points="340,-35 284,-35 284,-16 340,-16 340,-35"/>
<text text-anchor="middle" x="312" y="-23" font-family="Helvetica,sans-Serif" font-size="10.00">function</text>
</a>
</g>
</g>
<!-- dir_dd6c062645334da7e8440ac2e54ccb1d&#45;&gt;dir_0669efae56692bb73da75efb5ebbccdf -->
<g id="edge1" class="edge">
<title>dir_dd6c062645334da7e8440ac2e54ccb1d&#45;&gt;dir_0669efae56692bb73da75efb5ebbccdf</title>
<path fill="none" stroke="#63b8ff" d="M248.21,-70.98C259.78,-62.92 277.38,-50.65 291.16,-41.03"/>
<polygon fill="#63b8ff" stroke="#63b8ff" points="293.37,-43.76 299.57,-35.17 289.36,-38.02 293.37,-43.76"/>
<g id="a_edge1&#45;headlabel"><a xlink:href="dir_000095_000082.html" target="_top" xlink:title="15">
<text text-anchor="middle" x="292.04" y="-45.65" font-family="Helvetica,sans-Serif" font-size="10.00" fill="#63b8ff">15</text>
</a>
</g>
</g>
<!-- dir_30ecaf38acae77be14fb9173f98f8612 -->
<g id="node7" class="node">
<title>dir_30ecaf38acae77be14fb9173f98f8612</title>
<g id="a_node7"><a xlink:href="dir_30ecaf38acae77be14fb9173f98f8612.html" target="_top" xlink:title="types">
<polygon fill="#edf0f7" stroke="#7f7f7f" points="402,-35 358,-35 358,-16 402,-16 402,-35"/>
<text text-anchor="middle" x="380" y="-23" font-family="Helvetica,sans-Serif" font-size="10.00">types</text>
</a>
</g>
</g>
<!-- dir_dd6c062645334da7e8440ac2e54ccb1d&#45;&gt;dir_30ecaf38acae77be14fb9173f98f8612 -->
<g id="edge4" class="edge">
<title>dir_dd6c062645334da7e8440ac2e54ccb1d&#45;&gt;dir_30ecaf38acae77be14fb9173f98f8612</title>
<path fill="none" stroke="#63b8ff" d="M259.14,-70.98C283.25,-62.11 321.2,-48.14 348.13,-38.23"/>
<polygon fill="#63b8ff" stroke="#63b8ff" points="349.69,-41.38 357.87,-34.65 347.27,-34.82 349.69,-41.38"/>
<g id="a_edge4&#45;headlabel"><a xlink:href="dir_000095_000180.html" target="_top" xlink:title="4">
<text text-anchor="middle" x="347.3" y="-42.79" font-family="Helvetica,sans-Serif" font-size="10.00" fill="#63b8ff">4</text>
</a>
</g>
</g>
<!-- dir_4535887b2cdca47e625f259d07db0112 -->
<g id="node8" class="node">
<title>dir_4535887b2cdca47e625f259d07db0112</title>
<g id="a_node8"><a xlink:href="dir_4535887b2cdca47e625f259d07db0112.html" target="_top" xlink:title="util">
<polygon fill="#edf0f7" stroke="#7f7f7f" points="452,-35 420,-35 420,-16 452,-16 452,-35"/>
<text text-anchor="middle" x="436" y="-23" font-family="Helvetica,sans-Serif" font-size="10.00">util</text>
</a>
</g>
</g>
<!-- dir_dd6c062645334da7e8440ac2e54ccb1d&#45;&gt;dir_4535887b2cdca47e625f259d07db0112 -->
<g id="edge5" class="edge">
<title>dir_dd6c062645334da7e8440ac2e54ccb1d&#45;&gt;dir_4535887b2cdca47e625f259d07db0112</title>
<path fill="none" stroke="#63b8ff" d="M266.23,-72.58C299.36,-64.82 354.24,-51.49 410.2,-35.06"/>
<polygon fill="#63b8ff" stroke="#63b8ff" points="411.33,-38.37 419.92,-32.17 409.34,-31.66 411.33,-38.37"/>
<g id="a_edge5&#45;headlabel"><a xlink:href="dir_000095_000185.html" target="_top" xlink:title="14">
<text text-anchor="middle" x="408.69" y="-39.62" font-family="Helvetica,sans-Serif" font-size="10.00" fill="#63b8ff">14</text>
</a>
</g>
</g>
<!-- dir_f555f996eeee1ebe901dc71e0c5de8ff -->
<g id="node9" class="node">
<title>dir_f555f996eeee1ebe901dc71e0c5de8ff</title>
<g id="a_node9"><a xlink:href="dir_f555f996eeee1ebe901dc71e0c5de8ff.html" target="_top" xlink:title="meta">
<polygon fill="#edf0f7" stroke="#7f7f7f" points="512,-35 470,-35 470,-16 512,-16 512,-35"/>
<text text-anchor="middle" x="491" y="-23" font-family="Helvetica,sans-Serif" font-size="10.00">meta</text>
</a>
</g>
</g>
<!-- dir_dd6c062645334da7e8440ac2e54ccb1d&#45;&gt;dir_f555f996eeee1ebe901dc71e0c5de8ff -->
<g id="edge8" class="edge">
<title>dir_dd6c062645334da7e8440ac2e54ccb1d&#45;&gt;dir_f555f996eeee1ebe901dc71e0c5de8ff</title>
<path fill="none" stroke="#63b8ff" d="M266.01,-74.36C307.44,-67.09 384.69,-52.93 459.67,-35.16"/>
<polygon fill="#63b8ff" stroke="#63b8ff" points="460.84,-38.48 469.75,-32.75 459.21,-31.67 460.84,-38.48"/>
<g id="a_edge8&#45;headlabel"><a xlink:href="dir_000095_000122.html" target="_top" xlink:title="32">
<text text-anchor="middle" x="458.01" y="-39.58" font-family="Helvetica,sans-Serif" font-size="10.00" fill="#63b8ff">32</text>
</a>
</g>
</g>
</g>
</svg>
