<?xml version="1.0" encoding="UTF-8" standalone="no"?>
<!DOCTYPE svg PUBLIC "-//W3C//DTD SVG 1.1//EN"
 "http://www.w3.org/Graphics/SVG/1.1/DTD/svg11.dtd">
<!-- Generated by graphviz version 2.43.0 (0)
 -->
<!-- Title: libs/di/include/di/container/ring Pages: 1 -->
<svg width="1008pt" height="133pt"
 viewBox="0.00 0.00 1008.00 133.00" xmlns="http://www.w3.org/2000/svg" xmlns:xlink="http://www.w3.org/1999/xlink">
<g id="graph0" class="graph" transform="scale(1 1) rotate(0) translate(4 129)">
<title>libs/di/include/di/container/ring</title>
<g id="clust1" class="cluster">
<title>clusterdir_521de572ae4fe2915cc70a876c52f5b7</title>
<g id="a_clust1"><a xlink:href="dir_521de572ae4fe2915cc70a876c52f5b7.html" target="_top" xlink:title="container">
<polygon fill="#edf0f7" stroke="#7f7f7f" stroke-dasharray="5,2" points="8,-8 8,-117 569,-117 569,-8 8,-8"/>
<text text-anchor="middle" x="288.5" y="-105" font-family="Helvetica,sans-Serif" font-size="10.00">container</text>
</a>
</g>
</g>
<!-- dir_093cb0cf41c3d9bb25543a4e1702223c -->
<g id="node1" class="node">
<title>dir_093cb0cf41c3d9bb25543a4e1702223c</title>
<g id="a_node1"><a xlink:href="dir_093cb0cf41c3d9bb25543a4e1702223c.html" target="_top" xlink:title="iterator">
<polygon fill="#a2b4d6" stroke="#404040" points="69.5,-35 16.5,-35 16.5,-16 69.5,-16 69.5,-35"/>
<text text-anchor="middle" x="43" y="-23" font-family="Helvetica,sans-Serif" font-size="10.00">iterator</text>
</a>
</g>
</g>
<!-- dir_60528a66b99dd07a1313b3c263e646ab -->
<g id="node2" class="node">
<title>dir_60528a66b99dd07a1313b3c263e646ab</title>
<g id="a_node2"><a xlink:href="dir_60528a66b99dd07a1313b3c263e646ab.html" target="_top" xlink:title="algorithm">
<polygon fill="#a2b4d6" stroke="#404040" points="152,-35 88,-35 88,-16 152,-16 152,-35"/>
<text text-anchor="middle" x="120" y="-23" font-family="Helvetica,sans-Serif" font-size="10.00">algorithm</text>
</a>
</g>
</g>
<!-- dir_75ced0d5626770d74ec0ab0f9ebe51e3 -->
<g id="node3" class="node">
<title>dir_75ced0d5626770d74ec0ab0f9ebe51e3</title>
<g id="a_node3"><a xlink:href="dir_75ced0d5626770d74ec0ab0f9ebe51e3.html" target="_top" xlink:title="allocator">
<polygon fill="#a2b4d6" stroke="#404040" points="229.5,-35 170.5,-35 170.5,-16 229.5,-16 229.5,-35"/>
<text text-anchor="middle" x="200" y="-23" font-family="Helvetica,sans-Serif" font-size="10.00">allocator</text>
</a>
</g>
</g>
<!-- dir_838362f34bc8d8c3545343b0166aa672 -->
<g id="node4" class="node">
<title>dir_838362f34bc8d8c3545343b0166aa672</title>
<g id="a_node4"><a xlink:href="dir_838362f34bc8d8c3545343b0166aa672.html" target="_top" xlink:title="concepts">
<polygon fill="#a2b4d6" stroke="#404040" points="308,-35 248,-35 248,-16 308,-16 308,-35"/>
<text text-anchor="middle" x="278" y="-23" font-family="Helvetica,sans-Serif" font-size="10.00">concepts</text>
</a>
</g>
</g>
<!-- dir_9f8d33513cfc97e5f9ea6bf2671e5446 -->
<g id="node5" class="node">
<title>dir_9f8d33513cfc97e5f9ea6bf2671e5446</title>
<g id="a_node5"><a xlink:href="dir_9f8d33513cfc97e5f9ea6bf2671e5446.html" target="_top" xlink:title="meta">
<polygon fill="#a2b4d6" stroke="#404040" points="368,-35 326,-35 326,-16 368,-16 368,-35"/>
<text text-anchor="middle" x="347" y="-23" font-family="Helvetica,sans-Serif" font-size="10.00">meta</text>
</a>
</g>
</g>
<!-- dir_a7b99681c56fba2abd28393cbbc3f22c -->
<g id="node6" class="node">
<title>dir_a7b99681c56fba2abd28393cbbc3f22c</title>
<g id="a_node6"><a xlink:href="dir_a7b99681c56fba2abd28393cbbc3f22c.html" target="_top" xlink:title="types">
<polygon fill="#a2b4d6" stroke="#404040" points="430,-35 386,-35 386,-16 430,-16 430,-35"/>
<text text-anchor="middle" x="408" y="-23" font-family="Helvetica,sans-Serif" font-size="10.00">types</text>
</a>
</g>
</g>
<!-- dir_d51187963f88a3ef0fe489eb9431bd26 -->
<g id="node7" class="node">
<title>dir_d51187963f88a3ef0fe489eb9431bd26</title>
<g id="a_node7"><a xlink:href="dir_d51187963f88a3ef0fe489eb9431bd26.html" target="_top" xlink:title="action">
<polygon fill="#a2b4d6" stroke="#404040" points="495.5,-35 448.5,-35 448.5,-16 495.5,-16 495.5,-35"/>
<text text-anchor="middle" x="472" y="-23" font-family="Helvetica,sans-Serif" font-size="10.00">action</text>
</a>
</g>
</g>
<!-- dir_f1a41f0d4848adc979771c8b39d6dd9b -->
<g id="node8" class="node">
<title>dir_f1a41f0d4848adc979771c8b39d6dd9b</title>
<g id="a_node8"><a xlink:href="dir_f1a41f0d4848adc979771c8b39d6dd9b.html" target="_top" xlink:title="vector">
<polygon fill="#a2b4d6" stroke="#404040" points="560.5,-35 513.5,-35 513.5,-16 560.5,-16 560.5,-35"/>
<text text-anchor="middle" x="537" y="-23" font-family="Helvetica,sans-Serif" font-size="10.00">vector</text>
</a>
</g>
</g>
<!-- dir_bc7f8e42983fd62e5eb4b3d4660b3cf0 -->
<g id="node9" class="node">
<title>dir_bc7f8e42983fd62e5eb4b3d4660b3cf0</title>
<g id="a_node9"><a xlink:href="dir_bc7f8e42983fd62e5eb4b3d4660b3cf0.html" target="_top" xlink:title="ring">
<polygon fill="#edf0f7" stroke="#404040" stroke-width="2" points="554.5,-90 519.5,-90 519.5,-71 554.5,-71 554.5,-90"/>
<text text-anchor="middle" x="537" y="-78" font-family="Helvetica,sans-Serif" font-size="10.00">ring</text>
</a>
</g>
</g>
<!-- dir_bc7f8e42983fd62e5eb4b3d4660b3cf0&#45;&gt;dir_093cb0cf41c3d9bb25543a4e1702223c -->
<g id="edge1" class="edge">
<title>dir_bc7f8e42983fd62e5eb4b3d4660b3cf0&#45;&gt;dir_093cb0cf41c3d9bb25543a4e1702223c</title>
<path fill="none" stroke="#63b8ff" d="M519.42,-78.65C459.39,-75.56 256.94,-63.69 79.68,-34.87"/>
<polygon fill="#63b8ff" stroke="#63b8ff" points="80.09,-31.39 69.66,-33.22 78.95,-38.3 80.09,-31.39"/>
<g id="a_edge1&#45;headlabel"><a xlink:href="dir_000146_000108.html" target="_top" xlink:title="1">
<text text-anchor="middle" x="84.1" y="-26.67" font-family="Helvetica,sans-Serif" font-size="10.00" fill="#63b8ff">1</text>
</a>
</g>
</g>
<!-- dir_bc7f8e42983fd62e5eb4b3d4660b3cf0&#45;&gt;dir_60528a66b99dd07a1313b3c263e646ab -->
<g id="edge4" class="edge">
<title>dir_bc7f8e42983fd62e5eb4b3d4660b3cf0&#45;&gt;dir_60528a66b99dd07a1313b3c263e646ab</title>
<path fill="none" stroke="#63b8ff" d="M519.36,-77.92C465.56,-73 298.91,-56.94 162,-35 161.9,-34.98 161.8,-34.97 161.7,-34.95"/>
<polygon fill="#63b8ff" stroke="#63b8ff" points="162.51,-31.54 152.05,-33.27 161.3,-38.44 162.51,-31.54"/>
<g id="a_edge4&#45;headlabel"><a xlink:href="dir_000146_000003.html" target="_top" xlink:title="6">
<text text-anchor="middle" x="166.54" y="-26.86" font-family="Helvetica,sans-Serif" font-size="10.00" fill="#63b8ff">6</text>
</a>
</g>
</g>
<!-- dir_bc7f8e42983fd62e5eb4b3d4660b3cf0&#45;&gt;dir_75ced0d5626770d74ec0ab0f9ebe51e3 -->
<g id="edge6" class="edge">
<title>dir_bc7f8e42983fd62e5eb4b3d4660b3cf0&#45;&gt;dir_75ced0d5626770d74ec0ab0f9ebe51e3</title>
<path fill="none" stroke="#63b8ff" d="M519.47,-77.3C474.71,-71.58 352.44,-55.43 239.93,-35.06"/>
<polygon fill="#63b8ff" stroke="#63b8ff" points="240.24,-31.56 229.77,-33.2 238.98,-38.44 240.24,-31.56"/>
<g id="a_edge6&#45;headlabel"><a xlink:href="dir_000146_000005.html" target="_top" xlink:title="5">
<text text-anchor="middle" x="244.28" y="-26.91" font-family="Helvetica,sans-Serif" font-size="10.00" fill="#63b8ff">5</text>
</a>
</g>
</g>
<!-- dir_bc7f8e42983fd62e5eb4b3d4660b3cf0&#45;&gt;dir_838362f34bc8d8c3545343b0166aa672 -->
<g id="edge7" class="edge">
<title>dir_bc7f8e42983fd62e5eb4b3d4660b3cf0&#45;&gt;dir_838362f34bc8d8c3545343b0166aa672</title>
<path fill="none" stroke="#63b8ff" d="M519.3,-76.01C483.37,-68.92 399.06,-52.16 318.08,-35.2"/>
<polygon fill="#63b8ff" stroke="#63b8ff" points="318.73,-31.76 308.22,-33.13 317.29,-38.61 318.73,-31.76"/>
<g id="a_edge7&#45;headlabel"><a xlink:href="dir_000146_000037.html" target="_top" xlink:title="2">
<text text-anchor="middle" x="322.83" y="-27.22" font-family="Helvetica,sans-Serif" font-size="10.00" fill="#63b8ff">2</text>
</a>
</g>
</g>
<!-- dir_bc7f8e42983fd62e5eb4b3d4660b3cf0&#45;&gt;dir_9f8d33513cfc97e5f9ea6bf2671e5446 -->
<g id="edge9" class="edge">
<title>dir_bc7f8e42983fd62e5eb4b3d4660b3cf0&#45;&gt;dir_9f8d33513cfc97e5f9ea6bf2671e5446</title>
<path fill="none" stroke="#63b8ff" d="M519.23,-74.59C491.31,-66.86 435.22,-51.32 378.2,-35.33"/>
<polygon fill="#63b8ff" stroke="#63b8ff" points="378.88,-31.88 368.3,-32.55 376.98,-38.62 378.88,-31.88"/>
<g id="a_edge9&#45;headlabel"><a xlink:href="dir_000146_000120.html" target="_top" xlink:title="2">
<text text-anchor="middle" x="383.1" y="-27.62" font-family="Helvetica,sans-Serif" font-size="10.00" fill="#63b8ff">2</text>
</a>
</g>
</g>
<!-- dir_bc7f8e42983fd62e5eb4b3d4660b3cf0&#45;&gt;dir_a7b99681c56fba2abd28393cbbc3f22c -->
<g id="edge11" class="edge">
<title>dir_bc7f8e42983fd62e5eb4b3d4660b3cf0&#45;&gt;dir_a7b99681c56fba2abd28393cbbc3f22c</title>
<path fill="none" stroke="#63b8ff" d="M519.33,-72.24C498.5,-63.68 463.52,-49.31 438.33,-38.96"/>
<polygon fill="#63b8ff" stroke="#63b8ff" points="439.45,-35.64 428.87,-35.07 436.79,-42.11 439.45,-35.64"/>
<g id="a_edge11&#45;headlabel"><a xlink:href="dir_000146_000178.html" target="_top" xlink:title="3">
<text text-anchor="middle" x="443.85" y="-31.88" font-family="Helvetica,sans-Serif" font-size="10.00" fill="#63b8ff">3</text>
</a>
</g>
</g>
<!-- dir_bc7f8e42983fd62e5eb4b3d4660b3cf0&#45;&gt;dir_d51187963f88a3ef0fe489eb9431bd26 -->
<g id="edge13" class="edge">
<title>dir_bc7f8e42983fd62e5eb4b3d4660b3cf0&#45;&gt;dir_d51187963f88a3ef0fe489eb9431bd26</title>
<path fill="none" stroke="#63b8ff" d="M526.56,-70.98C516.85,-63.07 502.18,-51.11 490.5,-41.58"/>
<polygon fill="#63b8ff" stroke="#63b8ff" points="492.6,-38.78 482.63,-35.17 488.17,-44.2 492.6,-38.78"/>
<g id="a_edge13&#45;headlabel"><a xlink:href="dir_000146_000002.html" target="_top" xlink:title="1">
<text text-anchor="middle" x="497.18" y="-36.35" font-family="Helvetica,sans-Serif" font-size="10.00" fill="#63b8ff">1</text>
</a>
</g>
</g>
<!-- dir_bc7f8e42983fd62e5eb4b3d4660b3cf0&#45;&gt;dir_f1a41f0d4848adc979771c8b39d6dd9b -->
<g id="edge14" class="edge">
<title>dir_bc7f8e42983fd62e5eb4b3d4660b3cf0&#45;&gt;dir_f1a41f0d4848adc979771c8b39d6dd9b</title>
<path fill="none" stroke="#63b8ff" d="M537,-70.75C537,-63.8 537,-53.85 537,-45.13"/>
<polygon fill="#63b8ff" stroke="#63b8ff" points="540.5,-45.09 537,-35.09 533.5,-45.09 540.5,-45.09"/>
<g id="a_edge14&#45;headlabel"><a xlink:href="dir_000146_000187.html" target="_top" xlink:title="5">
<text text-anchor="middle" x="543.34" y="-46.18" font-family="Helvetica,sans-Serif" font-size="10.00" fill="#63b8ff">5</text>
</a>
</g>
</g>
<!-- dir_30ecaf38acae77be14fb9173f98f8612 -->
<g id="node10" class="node">
<title>dir_30ecaf38acae77be14fb9173f98f8612</title>
<g id="a_node10"><a xlink:href="dir_30ecaf38acae77be14fb9173f98f8612.html" target="_top" xlink:title="types">
<polygon fill="#edf0f7" stroke="#7f7f7f" points="623,-35 579,-35 579,-16 623,-16 623,-35"/>
<text text-anchor="middle" x="601" y="-23" font-family="Helvetica,sans-Serif" font-size="10.00">types</text>
</a>
</g>
</g>
<!-- dir_bc7f8e42983fd62e5eb4b3d4660b3cf0&#45;&gt;dir_30ecaf38acae77be14fb9173f98f8612 -->
<g id="edge2" class="edge">
<title>dir_bc7f8e42983fd62e5eb4b3d4660b3cf0&#45;&gt;dir_30ecaf38acae77be14fb9173f98f8612</title>
<path fill="none" stroke="#63b8ff" d="M547.28,-70.98C556.84,-63.07 571.28,-51.11 582.78,-41.58"/>
<polygon fill="#63b8ff" stroke="#63b8ff" points="585.06,-44.24 590.53,-35.17 580.6,-38.85 585.06,-44.24"/>
<g id="a_edge2&#45;headlabel"><a xlink:href="dir_000146_000180.html" target="_top" xlink:title="3">
<text text-anchor="middle" x="584.1" y="-46.22" font-family="Helvetica,sans-Serif" font-size="10.00" fill="#63b8ff">3</text>
</a>
</g>
</g>
<!-- dir_4535887b2cdca47e625f259d07db0112 -->
<g id="node11" class="node">
<title>dir_4535887b2cdca47e625f259d07db0112</title>
<g id="a_node11"><a xlink:href="dir_4535887b2cdca47e625f259d07db0112.html" target="_top" xlink:title="util">
<polygon fill="#edf0f7" stroke="#7f7f7f" points="673,-35 641,-35 641,-16 673,-16 673,-35"/>
<text text-anchor="middle" x="657" y="-23" font-family="Helvetica,sans-Serif" font-size="10.00">util</text>
</a>
</g>
</g>
<!-- dir_bc7f8e42983fd62e5eb4b3d4660b3cf0&#45;&gt;dir_4535887b2cdca47e625f259d07db0112 -->
<g id="edge3" class="edge">
<title>dir_bc7f8e42983fd62e5eb4b3d4660b3cf0&#45;&gt;dir_4535887b2cdca47e625f259d07db0112</title>
<path fill="none" stroke="#63b8ff" d="M554.71,-71.68C575.01,-62.71 608.48,-47.93 631.57,-37.73"/>
<polygon fill="#63b8ff" stroke="#63b8ff" points="633.03,-40.91 640.76,-33.67 630.2,-34.51 633.03,-40.91"/>
<g id="a_edge3&#45;headlabel"><a xlink:href="dir_000146_000185.html" target="_top" xlink:title="4">
<text text-anchor="middle" x="630.89" y="-42.46" font-family="Helvetica,sans-Serif" font-size="10.00" fill="#63b8ff">4</text>
</a>
</g>
</g>
<!-- dir_60d1624911c2c9f7b6f38e44ec895aaa -->
<g id="node12" class="node">
<title>dir_60d1624911c2c9f7b6f38e44ec895aaa</title>
<g id="a_node12"><a xlink:href="dir_60d1624911c2c9f7b6f38e44ec895aaa.html" target="_top" xlink:title="math">
<polygon fill="#edf0f7" stroke="red" stroke-dasharray="5,2" points="733,-35 691,-35 691,-16 733,-16 733,-35"/>
<text text-anchor="middle" x="712" y="-23" font-family="Helvetica,sans-Serif" font-size="10.00">math</text>
</a>
</g>
</g>
<!-- dir_bc7f8e42983fd62e5eb4b3d4660b3cf0&#45;&gt;dir_60d1624911c2c9f7b6f38e44ec895aaa -->
<g id="edge5" class="edge">
<title>dir_bc7f8e42983fd62e5eb4b3d4660b3cf0&#45;&gt;dir_60d1624911c2c9f7b6f38e44ec895aaa</title>
<path fill="none" stroke="#63b8ff" d="M554.74,-74.13C584.45,-65.13 644.59,-46.91 681.29,-35.8"/>
<polygon fill="#63b8ff" stroke="#63b8ff" points="682.41,-39.12 690.97,-32.87 680.38,-32.42 682.41,-39.12"/>
<g id="a_edge5&#45;headlabel"><a xlink:href="dir_000146_000117.html" target="_top" xlink:title="1">
<text text-anchor="middle" x="679.79" y="-40.38" font-family="Helvetica,sans-Serif" font-size="10.00" fill="#63b8ff">1</text>
</a>
</g>
</g>
<!-- dir_942cfae36a92b6b1c4b510e99e852d40 -->
<g id="node13" class="node">
<title>dir_942cfae36a92b6b1c4b510e99e852d40</title>
<g id="a_node13"><a xlink:href="dir_942cfae36a92b6b1c4b510e99e852d40.html" target="_top" xlink:title="vocab">
<polygon fill="#edf0f7" stroke="red" stroke-dasharray="5,2" points="797,-35 751,-35 751,-16 797,-16 797,-35"/>
<text text-anchor="middle" x="774" y="-23" font-family="Helvetica,sans-Serif" font-size="10.00">vocab</text>
</a>
</g>
</g>
<!-- dir_bc7f8e42983fd62e5eb4b3d4660b3cf0&#45;&gt;dir_942cfae36a92b6b1c4b510e99e852d40 -->
<g id="edge8" class="edge">
<title>dir_bc7f8e42983fd62e5eb4b3d4660b3cf0&#45;&gt;dir_942cfae36a92b6b1c4b510e99e852d40</title>
<path fill="none" stroke="#63b8ff" d="M554.61,-75.96C588.63,-69.07 665.93,-53.1 740.88,-35.18"/>
<polygon fill="#63b8ff" stroke="#63b8ff" points="742.06,-38.5 750.96,-32.76 740.42,-31.69 742.06,-38.5"/>
<g id="a_edge8&#45;headlabel"><a xlink:href="dir_000146_000189.html" target="_top" xlink:title="5">
<text text-anchor="middle" x="739.23" y="-39.6" font-family="Helvetica,sans-Serif" font-size="10.00" fill="#63b8ff">5</text>
</a>
</g>
</g>
<!-- dir_a60d4453151dca6bdd8e5fcc350e379b -->
<g id="node14" class="node">
<title>dir_a60d4453151dca6bdd8e5fcc350e379b</title>
<g id="a_node14"><a xlink:href="dir_a60d4453151dca6bdd8e5fcc350e379b.html" target="_top" xlink:title="assert">
<polygon fill="#edf0f7" stroke="#7f7f7f" points="862.5,-35 815.5,-35 815.5,-16 862.5,-16 862.5,-35"/>
<text text-anchor="middle" x="839" y="-23" font-family="Helvetica,sans-Serif" font-size="10.00">assert</text>
</a>
</g>
</g>
<!-- dir_bc7f8e42983fd62e5eb4b3d4660b3cf0&#45;&gt;dir_a60d4453151dca6bdd8e5fcc350e379b -->
<g id="edge10" class="edge">
<title>dir_bc7f8e42983fd62e5eb4b3d4660b3cf0&#45;&gt;dir_a60d4453151dca6bdd8e5fcc350e379b</title>
<path fill="none" stroke="#63b8ff" d="M554.73,-77.12C596.53,-71.39 704.7,-55.89 805.25,-34.99"/>
<polygon fill="#63b8ff" stroke="#63b8ff" points="806.2,-38.36 815.27,-32.88 804.76,-31.51 806.2,-38.36"/>
<g id="a_edge10&#45;headlabel"><a xlink:href="dir_000146_000018.html" target="_top" xlink:title="1">
<text text-anchor="middle" x="803.27" y="-39.38" font-family="Helvetica,sans-Serif" font-size="10.00" fill="#63b8ff">1</text>
</a>
</g>
</g>
<!-- dir_aaf67126bd5deefc4d96704f76f22cc2 -->
<g id="node15" class="node">
<title>dir_aaf67126bd5deefc4d96704f76f22cc2</title>
<g id="a_node15"><a xlink:href="dir_aaf67126bd5deefc4d96704f76f22cc2.html" target="_top" xlink:title="platform">
<polygon fill="#edf0f7" stroke="#7f7f7f" points="939.5,-35 880.5,-35 880.5,-16 939.5,-16 939.5,-35"/>
<text text-anchor="middle" x="910" y="-23" font-family="Helvetica,sans-Serif" font-size="10.00">platform</text>
</a>
</g>
</g>
<!-- dir_bc7f8e42983fd62e5eb4b3d4660b3cf0&#45;&gt;dir_aaf67126bd5deefc4d96704f76f22cc2 -->
<g id="edge12" class="edge">
<title>dir_bc7f8e42983fd62e5eb4b3d4660b3cf0&#45;&gt;dir_aaf67126bd5deefc4d96704f76f22cc2</title>
<path fill="none" stroke="#63b8ff" d="M554.52,-77.72C603.12,-72.68 743.88,-57.29 870.33,-35.17"/>
<polygon fill="#63b8ff" stroke="#63b8ff" points="870.94,-38.62 880.18,-33.43 869.72,-31.73 870.94,-38.62"/>
<g id="a_edge12&#45;headlabel"><a xlink:href="dir_000146_000135.html" target="_top" xlink:title="1">
<text text-anchor="middle" x="867.9" y="-39.54" font-family="Helvetica,sans-Serif" font-size="10.00" fill="#63b8ff">1</text>
</a>
</g>
</g>
<!-- dir_f555f996eeee1ebe901dc71e0c5de8ff -->
<g id="node16" class="node">
<title>dir_f555f996eeee1ebe901dc71e0c5de8ff</title>
<g id="a_node16"><a xlink:href="dir_f555f996eeee1ebe901dc71e0c5de8ff.html" target="_top" xlink:title="meta">
<polygon fill="#edf0f7" stroke="#7f7f7f" points="1000,-35 958,-35 958,-16 1000,-16 1000,-35"/>
<text text-anchor="middle" x="979" y="-23" font-family="Helvetica,sans-Serif" font-size="10.00">meta</text>
</a>
</g>
</g>
<!-- dir_bc7f8e42983fd62e5eb4b3d4660b3cf0&#45;&gt;dir_f555f996eeee1ebe901dc71e0c5de8ff -->
<g id="edge15" class="edge">
<title>dir_bc7f8e42983fd62e5eb4b3d4660b3cf0&#45;&gt;dir_f555f996eeee1ebe901dc71e0c5de8ff</title>
<path fill="none" stroke="#63b8ff" d="M554.83,-78.65C611.2,-75.74 790.65,-64.75 947.95,-34.88"/>
<polygon fill="#63b8ff" stroke="#63b8ff" points="948.65,-38.32 957.8,-32.98 947.32,-31.44 948.65,-38.32"/>
<g id="a_edge15&#45;headlabel"><a xlink:href="dir_000146_000122.html" target="_top" xlink:title="2">
<text text-anchor="middle" x="945.65" y="-39.28" font-family="Helvetica,sans-Serif" font-size="10.00" fill="#63b8ff">2</text>
</a>
</g>
</g>
</g>
</svg>
