<?xml version="1.0" encoding="UTF-8" standalone="no"?>
<!DOCTYPE svg PUBLIC "-//W3C//DTD SVG 1.1//EN"
 "http://www.w3.org/Graphics/SVG/1.1/DTD/svg11.dtd">
<!-- Generated by graphviz version 2.43.0 (0)
 -->
<!-- Title: libs/dius/include/dius/filesystem Pages: 1 -->
<svg width="124pt" height="180pt"
 viewBox="0.00 0.00 124.00 180.00" xmlns="http://www.w3.org/2000/svg" xmlns:xlink="http://www.w3.org/1999/xlink">
<g id="graph0" class="graph" transform="scale(1 1) rotate(0) translate(4 176)">
<title>libs/dius/include/dius/filesystem</title>
<g id="clust1" class="cluster">
<title>clusterdir_2992e835a4b361d9b2ca5047c35dfcd3</title>
<g id="a_clust1"><a xlink:href="dir_2992e835a4b361d9b2ca5047c35dfcd3.html" target="_top" xlink:title="dius">
<polygon fill="#edf0f7" stroke="#7f7f7f" stroke-dasharray="5,2" points="8,-39 8,-164 108,-164 108,-39 8,-39"/>
<text text-anchor="middle" x="58" y="-152" font-family="Helvetica,sans-Serif" font-size="10.00">dius</text>
</a>
</g>
</g>
<g id="clust2" class="cluster">
<title>clusterdir_f31f7b577afa3fa4833a664a74923a48</title>
<g id="a_clust2"><a xlink:href="dir_f31f7b577afa3fa4833a664a74923a48.html" target="_top">
<polygon fill="#edf0f7" stroke="#404040" stroke-width="2" points="16,-47 16,-137 100,-137 100,-47 16,-47"/>
</a>
</g>
</g>
<!-- dir_f31f7b577afa3fa4833a664a74923a48 -->
<g id="node1" class="node">
<title>dir_f31f7b577afa3fa4833a664a74923a48</title>
<text text-anchor="middle" x="58" y="-117" font-family="Helvetica,sans-Serif" font-size="10.00">filesystem</text>
</g>
<!-- dir_ff398fb9fcadcd7a4aa8ca4feb2d1f6d -->
<g id="node2" class="node">
<title>dir_ff398fb9fcadcd7a4aa8ca4feb2d1f6d</title>
<g id="a_node2"><a xlink:href="dir_ff398fb9fcadcd7a4aa8ca4feb2d1f6d.html" target="_top" xlink:title="query">
<polygon fill="#a2b4d6" stroke="#404040" points="74,-74 30,-74 30,-55 74,-55 74,-74"/>
<text text-anchor="middle" x="52" y="-62" font-family="Helvetica,sans-Serif" font-size="10.00">query</text>
</a>
</g>
</g>
<!-- dir_f31f7b577afa3fa4833a664a74923a48&#45;&gt;dir_ff398fb9fcadcd7a4aa8ca4feb2d1f6d -->
<g id="edge2" class="edge">
<title>dir_f31f7b577afa3fa4833a664a74923a48&#45;&gt;dir_ff398fb9fcadcd7a4aa8ca4feb2d1f6d</title>
<path fill="none" stroke="#63b8ff" d="M57.01,-109.75C56.22,-102.8 55.1,-92.85 54.11,-84.13"/>
<polygon fill="#63b8ff" stroke="#63b8ff" points="57.58,-83.63 52.97,-74.09 50.62,-84.42 57.58,-83.63"/>
<g id="a_edge2&#45;headlabel"><a xlink:href="dir_000074_000140.html" target="_top" xlink:title="2">
<text text-anchor="middle" x="60.8" y="-84.38" font-family="Helvetica,sans-Serif" font-size="10.00" fill="#63b8ff">2</text>
</a>
</g>
</g>
<!-- dir_984cd133b143ec7cf21a4bdcb401bfa5 -->
<g id="node3" class="node">
<title>dir_984cd133b143ec7cf21a4bdcb401bfa5</title>
<g id="a_node3"><a xlink:href="dir_984cd133b143ec7cf21a4bdcb401bfa5.html" target="_top" xlink:title="di">
<polygon fill="#edf0f7" stroke="red" stroke-dasharray="5,2" points="91.5,-19 62.5,-19 62.5,0 91.5,0 91.5,-19"/>
<text text-anchor="middle" x="77" y="-7" font-family="Helvetica,sans-Serif" font-size="10.00">di</text>
</a>
</g>
</g>
<!-- dir_f31f7b577afa3fa4833a664a74923a48&#45;&gt;dir_984cd133b143ec7cf21a4bdcb401bfa5 -->
<g id="edge1" class="edge">
<title>dir_f31f7b577afa3fa4833a664a74923a48&#45;&gt;dir_984cd133b143ec7cf21a4bdcb401bfa5</title>
<path fill="none" stroke="#63b8ff" d="M64.63,-109.88C70.76,-101.32 79.46,-87.54 83,-74 86.86,-59.25 84.83,-42 82.13,-29.21"/>
<polygon fill="#63b8ff" stroke="#63b8ff" points="85.48,-28.17 79.72,-19.28 78.68,-29.83 85.48,-28.17"/>
<g id="a_edge1&#45;headlabel"><a xlink:href="dir_000074_000058.html" target="_top" xlink:title="23">
<text text-anchor="middle" x="89.09" y="-28.49" font-family="Helvetica,sans-Serif" font-size="10.00" fill="#63b8ff">23</text>
</a>
</g>
</g>
<!-- dir_ff398fb9fcadcd7a4aa8ca4feb2d1f6d&#45;&gt;dir_984cd133b143ec7cf21a4bdcb401bfa5 -->
<g id="edge3" class="edge">
<title>dir_ff398fb9fcadcd7a4aa8ca4feb2d1f6d&#45;&gt;dir_984cd133b143ec7cf21a4bdcb401bfa5</title>
<path fill="none" stroke="#63b8ff" d="M56.13,-54.75C59.51,-47.57 64.42,-37.18 68.62,-28.27"/>
<polygon fill="#63b8ff" stroke="#63b8ff" points="71.85,-29.63 72.95,-19.09 65.52,-26.64 71.85,-29.63"/>
<g id="a_edge3&#45;headlabel"><a xlink:href="dir_000140_000058.html" target="_top" xlink:title="12">
<text text-anchor="middle" x="72.88" y="-31.59" font-family="Helvetica,sans-Serif" font-size="10.00" fill="#63b8ff">12</text>
</a>
</g>
</g>
</g>
</svg>
