<?xml version="1.0" encoding="UTF-8" standalone="no"?>
<!DOCTYPE svg PUBLIC "-//W3C//DTD SVG 1.1//EN"
 "http://www.w3.org/Graphics/SVG/1.1/DTD/svg11.dtd">
<!-- Generated by graphviz version 2.43.0 (0)
 -->
<!-- Title: libs/di/include/di/bit Pages: 1 -->
<svg width="384pt" height="251pt"
 viewBox="0.00 0.00 384.00 251.00" xmlns="http://www.w3.org/2000/svg" xmlns:xlink="http://www.w3.org/1999/xlink">
<g id="graph0" class="graph" transform="scale(1 1) rotate(0) translate(4 247)">
<title>libs/di/include/di/bit</title>
<g id="clust1" class="cluster">
<title>clusterdir_f95a1a0ab1b96e316090c1bcac3c2c99</title>
<g id="a_clust1"><a xlink:href="dir_f95a1a0ab1b96e316090c1bcac3c2c99.html" target="_top" xlink:title="di">
<polygon fill="#edf0f7" stroke="#7f7f7f" stroke-dasharray="5,2" points="8,-8 8,-235 368,-235 368,-8 8,-8"/>
<text text-anchor="middle" x="188" y="-223" font-family="Helvetica,sans-Serif" font-size="10.00">di</text>
</a>
</g>
</g>
<g id="clust2" class="cluster">
<title>clusterdir_143f1d6bc6d46924c644ec67dc1fb4fc</title>
<g id="a_clust2"><a xlink:href="dir_143f1d6bc6d46924c644ec67dc1fb4fc.html" target="_top">
<polygon fill="#edf0f7" stroke="#404040" stroke-width="2" points="96,-63 96,-208 278,-208 278,-63 96,-63"/>
</a>
</g>
</g>
<!-- dir_30ecaf38acae77be14fb9173f98f8612 -->
<g id="node1" class="node">
<title>dir_30ecaf38acae77be14fb9173f98f8612</title>
<g id="a_node1"><a xlink:href="dir_30ecaf38acae77be14fb9173f98f8612.html" target="_top" xlink:title="types">
<polygon fill="#a2b4d6" stroke="#404040" points="60,-35 16,-35 16,-16 60,-16 60,-35"/>
<text text-anchor="middle" x="38" y="-23" font-family="Helvetica,sans-Serif" font-size="10.00">types</text>
</a>
</g>
</g>
<!-- dir_a60d4453151dca6bdd8e5fcc350e379b -->
<g id="node2" class="node">
<title>dir_a60d4453151dca6bdd8e5fcc350e379b</title>
<g id="a_node2"><a xlink:href="dir_a60d4453151dca6bdd8e5fcc350e379b.html" target="_top" xlink:title="assert">
<polygon fill="#a2b4d6" stroke="#404040" points="185.5,-35 138.5,-35 138.5,-16 185.5,-16 185.5,-35"/>
<text text-anchor="middle" x="162" y="-23" font-family="Helvetica,sans-Serif" font-size="10.00">assert</text>
</a>
</g>
</g>
<!-- dir_60d1624911c2c9f7b6f38e44ec895aaa -->
<g id="node3" class="node">
<title>dir_60d1624911c2c9f7b6f38e44ec895aaa</title>
<g id="a_node3"><a xlink:href="dir_60d1624911c2c9f7b6f38e44ec895aaa.html" target="_top" xlink:title="math">
<polygon fill="#a2b4d6" stroke="red" points="120,-35 78,-35 78,-16 120,-16 120,-35"/>
<text text-anchor="middle" x="99" y="-23" font-family="Helvetica,sans-Serif" font-size="10.00">math</text>
</a>
</g>
</g>
<!-- dir_942cfae36a92b6b1c4b510e99e852d40 -->
<g id="node4" class="node">
<title>dir_942cfae36a92b6b1c4b510e99e852d40</title>
<g id="a_node4"><a xlink:href="dir_942cfae36a92b6b1c4b510e99e852d40.html" target="_top" xlink:title="vocab">
<polygon fill="#a2b4d6" stroke="red" points="250,-35 204,-35 204,-16 250,-16 250,-35"/>
<text text-anchor="middle" x="227" y="-23" font-family="Helvetica,sans-Serif" font-size="10.00">vocab</text>
</a>
</g>
</g>
<!-- dir_4535887b2cdca47e625f259d07db0112 -->
<g id="node5" class="node">
<title>dir_4535887b2cdca47e625f259d07db0112</title>
<g id="a_node5"><a xlink:href="dir_4535887b2cdca47e625f259d07db0112.html" target="_top" xlink:title="util">
<polygon fill="#a2b4d6" stroke="#404040" points="300,-35 268,-35 268,-16 300,-16 300,-35"/>
<text text-anchor="middle" x="284" y="-23" font-family="Helvetica,sans-Serif" font-size="10.00">util</text>
</a>
</g>
</g>
<!-- dir_f555f996eeee1ebe901dc71e0c5de8ff -->
<g id="node6" class="node">
<title>dir_f555f996eeee1ebe901dc71e0c5de8ff</title>
<g id="a_node6"><a xlink:href="dir_f555f996eeee1ebe901dc71e0c5de8ff.html" target="_top" xlink:title="meta">
<polygon fill="#a2b4d6" stroke="#404040" points="360,-35 318,-35 318,-16 360,-16 360,-35"/>
<text text-anchor="middle" x="339" y="-23" font-family="Helvetica,sans-Serif" font-size="10.00">meta</text>
</a>
</g>
</g>
<!-- dir_e41b746b2bc627b26c4c637af42fb69a -->
<g id="node7" class="node">
<title>dir_e41b746b2bc627b26c4c637af42fb69a</title>
<g id="a_node7"><a xlink:href="dir_e41b746b2bc627b26c4c637af42fb69a.html" target="_top" xlink:title="format">
<polygon fill="#a2b4d6" stroke="red" points="360,-90 310,-90 310,-71 360,-71 360,-90"/>
<text text-anchor="middle" x="335" y="-78" font-family="Helvetica,sans-Serif" font-size="10.00">format</text>
</a>
</g>
</g>
<!-- dir_143f1d6bc6d46924c644ec67dc1fb4fc -->
<g id="node8" class="node">
<title>dir_143f1d6bc6d46924c644ec67dc1fb4fc</title>
<text text-anchor="middle" x="177" y="-188" font-family="Helvetica,sans-Serif" font-size="10.00">bit</text>
</g>
<!-- dir_0811e5724a3392528f19c26dd8765a64 -->
<g id="node9" class="node">
<title>dir_0811e5724a3392528f19c26dd8765a64</title>
<g id="a_node9"><a xlink:href="dir_0811e5724a3392528f19c26dd8765a64.html" target="_top" xlink:title="bitset">
<polygon fill="#a2b4d6" stroke="#404040" points="150,-90 106,-90 106,-71 150,-71 150,-90"/>
<text text-anchor="middle" x="128" y="-78" font-family="Helvetica,sans-Serif" font-size="10.00">bitset</text>
</a>
</g>
</g>
<!-- dir_143f1d6bc6d46924c644ec67dc1fb4fc&#45;&gt;dir_0811e5724a3392528f19c26dd8765a64 -->
<g id="edge1" class="edge">
<title>dir_143f1d6bc6d46924c644ec67dc1fb4fc&#45;&gt;dir_0811e5724a3392528f19c26dd8765a64</title>
<path fill="none" stroke="#63b8ff" d="M162.26,-183.56C147.49,-176.72 125.62,-163.93 116,-145 108.78,-130.79 113.26,-112.81 118.69,-99.6"/>
<polygon fill="#63b8ff" stroke="#63b8ff" points="122.01,-100.75 123.04,-90.21 115.66,-97.81 122.01,-100.75"/>
<g id="a_edge1&#45;headlabel"><a xlink:href="dir_000022_000024.html" target="_top" xlink:title="3">
<text text-anchor="middle" x="123.08" y="-102.71" font-family="Helvetica,sans-Serif" font-size="10.00" fill="#63b8ff">3</text>
</a>
</g>
</g>
<!-- dir_1c9126a5db4dc8a791bfa47b354adbe8 -->
<g id="node10" class="node">
<title>dir_1c9126a5db4dc8a791bfa47b354adbe8</title>
<g id="a_node10"><a xlink:href="dir_1c9126a5db4dc8a791bfa47b354adbe8.html" target="_top" xlink:title="bitstruct">
<polygon fill="#a2b4d6" stroke="#404040" points="181.5,-145 124.5,-145 124.5,-126 181.5,-126 181.5,-145"/>
<text text-anchor="middle" x="153" y="-133" font-family="Helvetica,sans-Serif" font-size="10.00">bitstruct</text>
</a>
</g>
</g>
<!-- dir_143f1d6bc6d46924c644ec67dc1fb4fc&#45;&gt;dir_1c9126a5db4dc8a791bfa47b354adbe8 -->
<g id="edge2" class="edge">
<title>dir_143f1d6bc6d46924c644ec67dc1fb4fc&#45;&gt;dir_1c9126a5db4dc8a791bfa47b354adbe8</title>
<path fill="none" stroke="#63b8ff" d="M173.04,-180.75C169.79,-173.57 165.08,-163.18 161.05,-154.27"/>
<polygon fill="#63b8ff" stroke="#63b8ff" points="164.2,-152.75 156.89,-145.09 157.83,-155.64 164.2,-152.75"/>
<g id="a_edge2&#45;headlabel"><a xlink:href="dir_000022_000025.html" target="_top" xlink:title="1">
<text text-anchor="middle" x="168.27" y="-152.36" font-family="Helvetica,sans-Serif" font-size="10.00" fill="#63b8ff">1</text>
</a>
</g>
</g>
<!-- dir_2063da2a3bcafacf9fe62caed04d1449 -->
<g id="node11" class="node">
<title>dir_2063da2a3bcafacf9fe62caed04d1449</title>
<g id="a_node11"><a xlink:href="dir_2063da2a3bcafacf9fe62caed04d1449.html" target="_top" xlink:title="endian">
<polygon fill="#a2b4d6" stroke="#404040" points="270,-145 220,-145 220,-126 270,-126 270,-145"/>
<text text-anchor="middle" x="245" y="-133" font-family="Helvetica,sans-Serif" font-size="10.00">endian</text>
</a>
</g>
</g>
<!-- dir_143f1d6bc6d46924c644ec67dc1fb4fc&#45;&gt;dir_2063da2a3bcafacf9fe62caed04d1449 -->
<g id="edge3" class="edge">
<title>dir_143f1d6bc6d46924c644ec67dc1fb4fc&#45;&gt;dir_2063da2a3bcafacf9fe62caed04d1449</title>
<path fill="none" stroke="#63b8ff" d="M187.93,-180.98C198.08,-173.07 213.42,-161.11 225.65,-151.58"/>
<polygon fill="#63b8ff" stroke="#63b8ff" points="228.14,-154.08 233.88,-145.17 223.84,-148.56 228.14,-154.08"/>
<g id="a_edge3&#45;headlabel"><a xlink:href="dir_000022_000068.html" target="_top" xlink:title="1">
<text text-anchor="middle" x="227.05" y="-156.03" font-family="Helvetica,sans-Serif" font-size="10.00" fill="#63b8ff">1</text>
</a>
</g>
</g>
<!-- dir_ed2711737aff2fecea23f82ff0788684 -->
<g id="node12" class="node">
<title>dir_ed2711737aff2fecea23f82ff0788684</title>
<g id="a_node12"><a xlink:href="dir_ed2711737aff2fecea23f82ff0788684.html" target="_top" xlink:title="operation">
<polygon fill="#a2b4d6" stroke="#404040" points="231.5,-90 168.5,-90 168.5,-71 231.5,-71 231.5,-90"/>
<text text-anchor="middle" x="200" y="-78" font-family="Helvetica,sans-Serif" font-size="10.00">operation</text>
</a>
</g>
</g>
<!-- dir_143f1d6bc6d46924c644ec67dc1fb4fc&#45;&gt;dir_ed2711737aff2fecea23f82ff0788684 -->
<g id="edge4" class="edge">
<title>dir_143f1d6bc6d46924c644ec67dc1fb4fc&#45;&gt;dir_ed2711737aff2fecea23f82ff0788684</title>
<path fill="none" stroke="#63b8ff" d="M180.22,-180.75C183.38,-171.86 188.14,-157.64 191,-145 194.35,-130.2 196.69,-113.16 198.14,-100.46"/>
<polygon fill="#63b8ff" stroke="#63b8ff" points="201.65,-100.52 199.22,-90.21 194.69,-99.78 201.65,-100.52"/>
<g id="a_edge4&#45;headlabel"><a xlink:href="dir_000022_000130.html" target="_top" xlink:title="3">
<text text-anchor="middle" x="204.09" y="-101.9" font-family="Helvetica,sans-Serif" font-size="10.00" fill="#63b8ff">3</text>
</a>
</g>
</g>
<!-- dir_0811e5724a3392528f19c26dd8765a64&#45;&gt;dir_30ecaf38acae77be14fb9173f98f8612 -->
<g id="edge5" class="edge">
<title>dir_0811e5724a3392528f19c26dd8765a64&#45;&gt;dir_30ecaf38acae77be14fb9173f98f8612</title>
<path fill="none" stroke="#63b8ff" d="M114.85,-70.98C110.76,-68.38 106.21,-65.54 102,-63 89.03,-55.19 74.37,-46.8 62.36,-40.04"/>
<polygon fill="#63b8ff" stroke="#63b8ff" points="63.81,-36.84 53.38,-35 60.39,-42.94 63.81,-36.84"/>
<g id="a_edge5&#45;headlabel"><a xlink:href="dir_000024_000180.html" target="_top" xlink:title="3">
<text text-anchor="middle" x="68.33" y="-33.62" font-family="Helvetica,sans-Serif" font-size="10.00" fill="#63b8ff">3</text>
</a>
</g>
</g>
<!-- dir_0811e5724a3392528f19c26dd8765a64&#45;&gt;dir_a60d4453151dca6bdd8e5fcc350e379b -->
<g id="edge8" class="edge">
<title>dir_0811e5724a3392528f19c26dd8765a64&#45;&gt;dir_a60d4453151dca6bdd8e5fcc350e379b</title>
<path fill="none" stroke="#63b8ff" d="M133.61,-70.75C138.32,-63.42 145.17,-52.73 150.97,-43.7"/>
<polygon fill="#63b8ff" stroke="#63b8ff" points="154.04,-45.4 156.49,-35.09 148.14,-41.62 154.04,-45.4"/>
<g id="a_edge8&#45;headlabel"><a xlink:href="dir_000024_000018.html" target="_top" xlink:title="1">
<text text-anchor="middle" x="154.49" y="-47.45" font-family="Helvetica,sans-Serif" font-size="10.00" fill="#63b8ff">1</text>
</a>
</g>
</g>
<!-- dir_0811e5724a3392528f19c26dd8765a64&#45;&gt;dir_60d1624911c2c9f7b6f38e44ec895aaa -->
<g id="edge6" class="edge">
<title>dir_0811e5724a3392528f19c26dd8765a64&#45;&gt;dir_60d1624911c2c9f7b6f38e44ec895aaa</title>
<path fill="none" stroke="#63b8ff" d="M123.21,-70.75C119.24,-63.49 113.47,-52.95 108.57,-43.98"/>
<polygon fill="#63b8ff" stroke="#63b8ff" points="111.57,-42.18 103.7,-35.09 105.43,-45.54 111.57,-42.18"/>
<g id="a_edge6&#45;headlabel"><a xlink:href="dir_000024_000117.html" target="_top" xlink:title="1">
<text text-anchor="middle" x="115.79" y="-41.47" font-family="Helvetica,sans-Serif" font-size="10.00" fill="#63b8ff">1</text>
</a>
</g>
</g>
<!-- dir_0811e5724a3392528f19c26dd8765a64&#45;&gt;dir_942cfae36a92b6b1c4b510e99e852d40 -->
<g id="edge7" class="edge">
<title>dir_0811e5724a3392528f19c26dd8765a64&#45;&gt;dir_942cfae36a92b6b1c4b510e99e852d40</title>
<path fill="none" stroke="#63b8ff" d="M143.91,-70.98C159.55,-62.61 183.66,-49.7 201.88,-39.95"/>
<polygon fill="#63b8ff" stroke="#63b8ff" points="203.64,-42.98 210.8,-35.17 200.34,-36.8 203.64,-42.98"/>
<g id="a_edge7&#45;headlabel"><a xlink:href="dir_000024_000189.html" target="_top" xlink:title="1">
<text text-anchor="middle" x="201.81" y="-44.68" font-family="Helvetica,sans-Serif" font-size="10.00" fill="#63b8ff">1</text>
</a>
</g>
</g>
<!-- dir_1c9126a5db4dc8a791bfa47b354adbe8&#45;&gt;dir_30ecaf38acae77be14fb9173f98f8612 -->
<g id="edge10" class="edge">
<title>dir_1c9126a5db4dc8a791bfa47b354adbe8&#45;&gt;dir_30ecaf38acae77be14fb9173f98f8612</title>
<path fill="none" stroke="#63b8ff" d="M137.86,-125.95C124.04,-117.74 103.48,-104.48 88,-90 73.01,-75.98 58.83,-57.26 49.43,-43.78"/>
<polygon fill="#63b8ff" stroke="#63b8ff" points="52.25,-41.7 43.73,-35.4 46.46,-45.64 52.25,-41.7"/>
<g id="a_edge10&#45;headlabel"><a xlink:href="dir_000025_000180.html" target="_top" xlink:title="1">
<text text-anchor="middle" x="56.62" y="-40.57" font-family="Helvetica,sans-Serif" font-size="10.00" fill="#63b8ff">1</text>
</a>
</g>
</g>
<!-- dir_1c9126a5db4dc8a791bfa47b354adbe8&#45;&gt;dir_60d1624911c2c9f7b6f38e44ec895aaa -->
<g id="edge12" class="edge">
<title>dir_1c9126a5db4dc8a791bfa47b354adbe8&#45;&gt;dir_60d1624911c2c9f7b6f38e44ec895aaa</title>
<path fill="none" stroke="#63b8ff" d="M135.23,-125.96C121.99,-118.51 104.88,-106.33 97,-90 90.26,-76.03 91.53,-58.25 94.04,-45.06"/>
<polygon fill="#63b8ff" stroke="#63b8ff" points="97.47,-45.77 96.29,-35.24 90.64,-44.2 97.47,-45.77"/>
<g id="a_edge12&#45;headlabel"><a xlink:href="dir_000025_000117.html" target="_top" xlink:title="1">
<text text-anchor="middle" x="99.43" y="-47.41" font-family="Helvetica,sans-Serif" font-size="10.00" fill="#63b8ff">1</text>
</a>
</g>
</g>
<!-- dir_1c9126a5db4dc8a791bfa47b354adbe8&#45;&gt;dir_942cfae36a92b6b1c4b510e99e852d40 -->
<g id="edge13" class="edge">
<title>dir_1c9126a5db4dc8a791bfa47b354adbe8&#45;&gt;dir_942cfae36a92b6b1c4b510e99e852d40</title>
<path fill="none" stroke="#63b8ff" d="M181.81,-128.33C202.22,-122.3 228.18,-110.85 241,-90 249.48,-76.21 244.06,-57.93 237.66,-44.53"/>
<polygon fill="#63b8ff" stroke="#63b8ff" points="240.58,-42.57 232.78,-35.39 234.4,-45.86 240.58,-42.57"/>
<g id="a_edge13&#45;headlabel"><a xlink:href="dir_000025_000189.html" target="_top" xlink:title="2">
<text text-anchor="middle" x="244.77" y="-41.9" font-family="Helvetica,sans-Serif" font-size="10.00" fill="#63b8ff">2</text>
</a>
</g>
</g>
<!-- dir_1c9126a5db4dc8a791bfa47b354adbe8&#45;&gt;dir_4535887b2cdca47e625f259d07db0112 -->
<g id="edge11" class="edge">
<title>dir_1c9126a5db4dc8a791bfa47b354adbe8&#45;&gt;dir_4535887b2cdca47e625f259d07db0112</title>
<path fill="none" stroke="#63b8ff" d="M181.88,-126.19C202.25,-119.17 229.15,-107.44 248,-90 261.49,-77.52 271.25,-58.8 277.18,-44.91"/>
<polygon fill="#63b8ff" stroke="#63b8ff" points="280.51,-46.01 280.96,-35.42 274.01,-43.42 280.51,-46.01"/>
<g id="a_edge11&#45;headlabel"><a xlink:href="dir_000025_000185.html" target="_top" xlink:title="2">
<text text-anchor="middle" x="281.81" y="-47.9" font-family="Helvetica,sans-Serif" font-size="10.00" fill="#63b8ff">2</text>
</a>
</g>
</g>
<!-- dir_1c9126a5db4dc8a791bfa47b354adbe8&#45;&gt;dir_f555f996eeee1ebe901dc71e0c5de8ff -->
<g id="edge14" class="edge">
<title>dir_1c9126a5db4dc8a791bfa47b354adbe8&#45;&gt;dir_f555f996eeee1ebe901dc71e0c5de8ff</title>
<path fill="none" stroke="#63b8ff" d="M180.79,-125.95C203.73,-118.27 236.68,-105.79 263,-90 285.64,-76.42 308.47,-56.28 323.11,-42.34"/>
<polygon fill="#63b8ff" stroke="#63b8ff" points="325.61,-44.79 330.35,-35.32 320.73,-39.77 325.61,-44.79"/>
<g id="a_edge14&#45;headlabel"><a xlink:href="dir_000025_000122.html" target="_top" xlink:title="3">
<text text-anchor="middle" x="325.01" y="-46.83" font-family="Helvetica,sans-Serif" font-size="10.00" fill="#63b8ff">3</text>
</a>
</g>
</g>
<!-- dir_1c9126a5db4dc8a791bfa47b354adbe8&#45;&gt;dir_0811e5724a3392528f19c26dd8765a64 -->
<g id="edge9" class="edge">
<title>dir_1c9126a5db4dc8a791bfa47b354adbe8&#45;&gt;dir_0811e5724a3392528f19c26dd8765a64</title>
<path fill="none" stroke="#63b8ff" d="M148.87,-125.75C145.49,-118.57 140.58,-108.18 136.38,-99.27"/>
<polygon fill="#63b8ff" stroke="#63b8ff" points="139.48,-97.64 132.05,-90.09 133.15,-100.63 139.48,-97.64"/>
<g id="a_edge9&#45;headlabel"><a xlink:href="dir_000025_000024.html" target="_top" xlink:title="2">
<text text-anchor="middle" x="143.58" y="-97.18" font-family="Helvetica,sans-Serif" font-size="10.00" fill="#63b8ff">2</text>
</a>
</g>
</g>
<!-- dir_2063da2a3bcafacf9fe62caed04d1449&#45;&gt;dir_e41b746b2bc627b26c4c637af42fb69a -->
<g id="edge15" class="edge">
<title>dir_2063da2a3bcafacf9fe62caed04d1449&#45;&gt;dir_e41b746b2bc627b26c4c637af42fb69a</title>
<path fill="none" stroke="#63b8ff" d="M259.46,-125.98C273.42,-117.77 294.79,-105.18 311.25,-95.49"/>
<polygon fill="#63b8ff" stroke="#63b8ff" points="313.44,-98.26 320.28,-90.17 309.88,-92.23 313.44,-98.26"/>
<g id="a_edge15&#45;headlabel"><a xlink:href="dir_000068_000079.html" target="_top" xlink:title="2">
<text text-anchor="middle" x="311.78" y="-100.03" font-family="Helvetica,sans-Serif" font-size="10.00" fill="#63b8ff">2</text>
</a>
</g>
</g>
<!-- dir_2063da2a3bcafacf9fe62caed04d1449&#45;&gt;dir_ed2711737aff2fecea23f82ff0788684 -->
<g id="edge16" class="edge">
<title>dir_2063da2a3bcafacf9fe62caed04d1449&#45;&gt;dir_ed2711737aff2fecea23f82ff0788684</title>
<path fill="none" stroke="#63b8ff" d="M237.57,-125.75C231.15,-118.18 221.69,-107.05 213.88,-97.84"/>
<polygon fill="#63b8ff" stroke="#63b8ff" points="216.43,-95.45 207.29,-90.09 211.1,-99.98 216.43,-95.45"/>
<g id="a_edge16&#45;headlabel"><a xlink:href="dir_000068_000130.html" target="_top" xlink:title="2">
<text text-anchor="middle" x="220.92" y="-93.85" font-family="Helvetica,sans-Serif" font-size="10.00" fill="#63b8ff">2</text>
</a>
</g>
</g>
<!-- dir_ed2711737aff2fecea23f82ff0788684&#45;&gt;dir_60d1624911c2c9f7b6f38e44ec895aaa -->
<g id="edge18" class="edge">
<title>dir_ed2711737aff2fecea23f82ff0788684&#45;&gt;dir_60d1624911c2c9f7b6f38e44ec895aaa</title>
<path fill="none" stroke="#63b8ff" d="M183.77,-70.98C167.82,-62.61 143.22,-49.7 124.62,-39.95"/>
<polygon fill="#63b8ff" stroke="#63b8ff" points="126,-36.72 115.52,-35.17 122.75,-42.92 126,-36.72"/>
<g id="a_edge18&#45;headlabel"><a xlink:href="dir_000130_000117.html" target="_top" xlink:title="5">
<text text-anchor="middle" x="130.51" y="-33.37" font-family="Helvetica,sans-Serif" font-size="10.00" fill="#63b8ff">5</text>
</a>
</g>
</g>
<!-- dir_ed2711737aff2fecea23f82ff0788684&#45;&gt;dir_4535887b2cdca47e625f259d07db0112 -->
<g id="edge17" class="edge">
<title>dir_ed2711737aff2fecea23f82ff0788684&#45;&gt;dir_4535887b2cdca47e625f259d07db0112</title>
<path fill="none" stroke="#63b8ff" d="M213.5,-70.98C226.4,-62.84 246.1,-50.41 261.4,-40.76"/>
<polygon fill="#63b8ff" stroke="#63b8ff" points="263.67,-43.47 270.26,-35.17 259.93,-37.55 263.67,-43.47"/>
<g id="a_edge17&#45;headlabel"><a xlink:href="dir_000130_000185.html" target="_top" xlink:title="1">
<text text-anchor="middle" x="262.14" y="-45.29" font-family="Helvetica,sans-Serif" font-size="10.00" fill="#63b8ff">1</text>
</a>
</g>
</g>
<!-- dir_ed2711737aff2fecea23f82ff0788684&#45;&gt;dir_f555f996eeee1ebe901dc71e0c5de8ff -->
<g id="edge19" class="edge">
<title>dir_ed2711737aff2fecea23f82ff0788684&#45;&gt;dir_f555f996eeee1ebe901dc71e0c5de8ff</title>
<path fill="none" stroke="#63b8ff" d="M217.81,-70.96C223.57,-68.3 230.01,-65.43 236,-63 260.02,-53.26 287.75,-43.52 308.37,-36.55"/>
<polygon fill="#63b8ff" stroke="#63b8ff" points="309.51,-39.86 317.88,-33.37 307.29,-33.23 309.51,-39.86"/>
<g id="a_edge19&#45;headlabel"><a xlink:href="dir_000130_000122.html" target="_top" xlink:title="8">
<text text-anchor="middle" x="307.01" y="-41.2" font-family="Helvetica,sans-Serif" font-size="10.00" fill="#63b8ff">8</text>
</a>
</g>
</g>
</g>
</svg>
