<?xml version="1.0" encoding="UTF-8" standalone="no"?>
<!DOCTYPE svg PUBLIC "-//W3C//DTD SVG 1.1//EN"
 "http://www.w3.org/Graphics/SVG/1.1/DTD/svg11.dtd">
<!-- Generated by graphviz version 2.43.0 (0)
 -->
<!-- Title: iris/arch/x86/amd64 Pages: 1 -->
<svg width="322pt" height="125pt"
 viewBox="0.00 0.00 322.00 125.00" xmlns="http://www.w3.org/2000/svg" xmlns:xlink="http://www.w3.org/1999/xlink">
<g id="graph0" class="graph" transform="scale(1 1) rotate(0) translate(4 121)">
<title>iris/arch/x86/amd64</title>
<g id="clust1" class="cluster">
<title>clusterdir_32e65aed4d889286673f01f7d9b757f0</title>
<g id="a_clust1"><a xlink:href="dir_32e65aed4d889286673f01f7d9b757f0.html" target="_top" xlink:title="x86">
<polygon fill="#edf0f7" stroke="#7f7f7f" stroke-dasharray="5,2" points="8,-39 8,-109 306,-109 306,-39 8,-39"/>
<text text-anchor="middle" x="157" y="-97" font-family="Helvetica,sans-Serif" font-size="10.00">x86</text>
</a>
</g>
</g>
<g id="clust2" class="cluster">
<title>clusterdir_aa669ff061cea02545a3dc83f842e418</title>
<g id="a_clust2"><a xlink:href="dir_aa669ff061cea02545a3dc83f842e418.html" target="_top">
<polygon fill="#edf0f7" stroke="#404040" stroke-width="2" points="16,-47 16,-82 298,-82 298,-47 16,-47"/>
</a>
</g>
</g>
<!-- dir_aa669ff061cea02545a3dc83f842e418 -->
<g id="node1" class="node">
<title>dir_aa669ff061cea02545a3dc83f842e418</title>
<text text-anchor="middle" x="265" y="-62" font-family="Helvetica,sans-Serif" font-size="10.00">amd64</text>
</g>
<!-- dir_517da09f1a54010d92a7be15f29411f8 -->
<g id="node2" class="node">
<title>dir_517da09f1a54010d92a7be15f29411f8</title>
<g id="a_node2"><a xlink:href="dir_517da09f1a54010d92a7be15f29411f8.html" target="_top" xlink:title="boot">
<polygon fill="#a2b4d6" stroke="#404040" points="222,-74 184,-74 184,-55 222,-55 222,-74"/>
<text text-anchor="middle" x="203" y="-62" font-family="Helvetica,sans-Serif" font-size="10.00">boot</text>
</a>
</g>
</g>
<!-- dir_6719ab1f1f7655efc2fa43f7eb574fd1 -->
<g id="node6" class="node">
<title>dir_6719ab1f1f7655efc2fa43f7eb574fd1</title>
<g id="a_node6"><a xlink:href="dir_6719ab1f1f7655efc2fa43f7eb574fd1.html" target="_top" xlink:title="libs">
<polygon fill="#edf0f7" stroke="red" points="107,-19 73,-19 73,0 107,0 107,-19"/>
<text text-anchor="middle" x="90" y="-7" font-family="Helvetica,sans-Serif" font-size="10.00">libs</text>
</a>
</g>
</g>
<!-- dir_517da09f1a54010d92a7be15f29411f8&#45;&gt;dir_6719ab1f1f7655efc2fa43f7eb574fd1 -->
<g id="edge2" class="edge">
<title>dir_517da09f1a54010d92a7be15f29411f8&#45;&gt;dir_6719ab1f1f7655efc2fa43f7eb574fd1</title>
<path fill="none" stroke="#63b8ff" d="M194.86,-54.81C189.61,-49.63 182.39,-43.25 175,-39 173.66,-38.23 141.16,-27.41 116.75,-19.33"/>
<polygon fill="#63b8ff" stroke="#63b8ff" points="117.81,-16 107.22,-16.18 115.61,-22.64 117.81,-16"/>
<g id="a_edge2&#45;headlabel"><a xlink:href="dir_000026_000109.html" target="_top" xlink:title="1">
<text text-anchor="middle" x="122.12" y="-11.93" font-family="Helvetica,sans-Serif" font-size="10.00" fill="#63b8ff">1</text>
</a>
</g>
</g>
<!-- dir_29a765eed241630f2929477fec556e75 -->
<g id="node7" class="node">
<title>dir_29a765eed241630f2929477fec556e75</title>
<g id="a_node7"><a xlink:href="dir_29a765eed241630f2929477fec556e75.html" target="_top" xlink:title="include">
<polygon fill="#edf0f7" stroke="red" stroke-dasharray="5,2" points="177,-19 125,-19 125,0 177,0 177,-19"/>
<text text-anchor="middle" x="151" y="-7" font-family="Helvetica,sans-Serif" font-size="10.00">include</text>
</a>
</g>
</g>
<!-- dir_517da09f1a54010d92a7be15f29411f8&#45;&gt;dir_29a765eed241630f2929477fec556e75 -->
<g id="edge1" class="edge">
<title>dir_517da09f1a54010d92a7be15f29411f8&#45;&gt;dir_29a765eed241630f2929477fec556e75</title>
<path fill="none" stroke="#63b8ff" d="M194.41,-54.75C186.84,-47.03 175.62,-35.6 166.49,-26.28"/>
<polygon fill="#63b8ff" stroke="#63b8ff" points="168.93,-23.78 159.43,-19.09 163.93,-28.68 168.93,-23.78"/>
<g id="a_edge1&#45;headlabel"><a xlink:href="dir_000026_000090.html" target="_top" xlink:title="33">
<text text-anchor="middle" x="173.47" y="-21.85" font-family="Helvetica,sans-Serif" font-size="10.00" fill="#63b8ff">33</text>
</a>
</g>
</g>
<!-- dir_25b502705390c9016dbab9f33d5f5d84 -->
<g id="node3" class="node">
<title>dir_25b502705390c9016dbab9f33d5f5d84</title>
<g id="a_node3"><a xlink:href="dir_25b502705390c9016dbab9f33d5f5d84.html" target="_top" xlink:title="core">
<polygon fill="#a2b4d6" stroke="#404040" points="166,-74 128,-74 128,-55 166,-55 166,-74"/>
<text text-anchor="middle" x="147" y="-62" font-family="Helvetica,sans-Serif" font-size="10.00">core</text>
</a>
</g>
</g>
<!-- dir_25b502705390c9016dbab9f33d5f5d84&#45;&gt;dir_6719ab1f1f7655efc2fa43f7eb574fd1 -->
<g id="edge4" class="edge">
<title>dir_25b502705390c9016dbab9f33d5f5d84&#45;&gt;dir_6719ab1f1f7655efc2fa43f7eb574fd1</title>
<path fill="none" stroke="#63b8ff" d="M137.84,-54.98C129.5,-47.23 116.97,-35.58 106.82,-26.14"/>
<polygon fill="#63b8ff" stroke="#63b8ff" points="109.03,-23.42 99.32,-19.17 104.26,-28.54 109.03,-23.42"/>
<g id="a_edge4&#45;headlabel"><a xlink:href="dir_000049_000109.html" target="_top" xlink:title="1">
<text text-anchor="middle" x="113.6" y="-21.28" font-family="Helvetica,sans-Serif" font-size="10.00" fill="#63b8ff">1</text>
</a>
</g>
</g>
<!-- dir_25b502705390c9016dbab9f33d5f5d84&#45;&gt;dir_29a765eed241630f2929477fec556e75 -->
<g id="edge3" class="edge">
<title>dir_25b502705390c9016dbab9f33d5f5d84&#45;&gt;dir_29a765eed241630f2929477fec556e75</title>
<path fill="none" stroke="#63b8ff" d="M147.66,-54.75C148.18,-47.8 148.94,-37.85 149.59,-29.13"/>
<polygon fill="#63b8ff" stroke="#63b8ff" points="153.09,-29.32 150.35,-19.09 146.11,-28.8 153.09,-29.32"/>
<g id="a_edge3&#45;headlabel"><a xlink:href="dir_000049_000090.html" target="_top" xlink:title="14">
<text text-anchor="middle" x="155.65" y="-30.62" font-family="Helvetica,sans-Serif" font-size="10.00" fill="#63b8ff">14</text>
</a>
</g>
</g>
<!-- dir_cf5227a2d3549f92c358e592da5438bc -->
<g id="node4" class="node">
<title>dir_cf5227a2d3549f92c358e592da5438bc</title>
<g id="a_node4"><a xlink:href="dir_cf5227a2d3549f92c358e592da5438bc.html" target="_top" xlink:title="hw">
<polygon fill="#a2b4d6" stroke="#404040" points="109.5,-74 78.5,-74 78.5,-55 109.5,-55 109.5,-74"/>
<text text-anchor="middle" x="94" y="-62" font-family="Helvetica,sans-Serif" font-size="10.00">hw</text>
</a>
</g>
</g>
<!-- dir_cf5227a2d3549f92c358e592da5438bc&#45;&gt;dir_6719ab1f1f7655efc2fa43f7eb574fd1 -->
<g id="edge6" class="edge">
<title>dir_cf5227a2d3549f92c358e592da5438bc&#45;&gt;dir_6719ab1f1f7655efc2fa43f7eb574fd1</title>
<path fill="none" stroke="#63b8ff" d="M93.34,-54.75C92.82,-47.8 92.06,-37.85 91.41,-29.13"/>
<polygon fill="#63b8ff" stroke="#63b8ff" points="94.89,-28.8 90.65,-19.09 87.91,-29.32 94.89,-28.8"/>
<g id="a_edge6&#45;headlabel"><a xlink:href="dir_000086_000109.html" target="_top" xlink:title="1">
<text text-anchor="middle" x="97.99" y="-29.67" font-family="Helvetica,sans-Serif" font-size="10.00" fill="#63b8ff">1</text>
</a>
</g>
</g>
<!-- dir_cf5227a2d3549f92c358e592da5438bc&#45;&gt;dir_29a765eed241630f2929477fec556e75 -->
<g id="edge5" class="edge">
<title>dir_cf5227a2d3549f92c358e592da5438bc&#45;&gt;dir_29a765eed241630f2929477fec556e75</title>
<path fill="none" stroke="#63b8ff" d="M102.69,-54.78C107.46,-50.05 113.49,-44.14 119,-39 123.67,-34.64 128.8,-30 133.57,-25.76"/>
<polygon fill="#63b8ff" stroke="#63b8ff" points="135.91,-28.36 141.09,-19.11 131.28,-23.11 135.91,-28.36"/>
<g id="a_edge5&#45;headlabel"><a xlink:href="dir_000086_000090.html" target="_top" xlink:title="60">
<text text-anchor="middle" x="135.1" y="-30.36" font-family="Helvetica,sans-Serif" font-size="10.00" fill="#63b8ff">60</text>
</a>
</g>
</g>
<!-- dir_6d5016d47eb00a3770460beef2b79077 -->
<g id="node5" class="node">
<title>dir_6d5016d47eb00a3770460beef2b79077</title>
<g id="a_node5"><a xlink:href="dir_6d5016d47eb00a3770460beef2b79077.html" target="_top" xlink:title="mm">
<polygon fill="#a2b4d6" stroke="#404040" points="60,-74 24,-74 24,-55 60,-55 60,-74"/>
<text text-anchor="middle" x="42" y="-62" font-family="Helvetica,sans-Serif" font-size="10.00">mm</text>
</a>
</g>
</g>
<!-- dir_6d5016d47eb00a3770460beef2b79077&#45;&gt;dir_6719ab1f1f7655efc2fa43f7eb574fd1 -->
<g id="edge8" class="edge">
<title>dir_6d5016d47eb00a3770460beef2b79077&#45;&gt;dir_6719ab1f1f7655efc2fa43f7eb574fd1</title>
<path fill="none" stroke="#63b8ff" d="M49.93,-54.75C56.85,-47.11 67.07,-35.82 75.45,-26.56"/>
<polygon fill="#63b8ff" stroke="#63b8ff" points="78.1,-28.85 82.22,-19.09 72.91,-24.15 78.1,-28.85"/>
<g id="a_edge8&#45;headlabel"><a xlink:href="dir_000125_000109.html" target="_top" xlink:title="4">
<text text-anchor="middle" x="77.79" y="-30.92" font-family="Helvetica,sans-Serif" font-size="10.00" fill="#63b8ff">4</text>
</a>
</g>
</g>
<!-- dir_6d5016d47eb00a3770460beef2b79077&#45;&gt;dir_29a765eed241630f2929477fec556e75 -->
<g id="edge7" class="edge">
<title>dir_6d5016d47eb00a3770460beef2b79077&#45;&gt;dir_29a765eed241630f2929477fec556e75</title>
<path fill="none" stroke="#63b8ff" d="M50.16,-54.85C55.42,-49.68 62.64,-43.3 70,-39 83.91,-30.88 100.51,-24.53 115.05,-19.91"/>
<polygon fill="#63b8ff" stroke="#63b8ff" points="116.17,-23.23 124.73,-16.99 114.14,-16.53 116.17,-23.23"/>
<g id="a_edge7&#45;headlabel"><a xlink:href="dir_000125_000090.html" target="_top" xlink:title="16">
<text text-anchor="middle" x="113.55" y="-24.49" font-family="Helvetica,sans-Serif" font-size="10.00" fill="#63b8ff">16</text>
</a>
</g>
</g>
</g>
</svg>
