<?xml version="1.0" encoding="UTF-8" standalone="no"?>
<!DOCTYPE svg PUBLIC "-//W3C//DTD SVG 1.1//EN"
 "http://www.w3.org/Graphics/SVG/1.1/DTD/svg11.dtd">
<!-- Generated by graphviz version 2.43.0 (0)
 -->
<!-- Title: libs/di/include/di/vocab/array Pages: 1 -->
<svg width="516pt" height="133pt"
 viewBox="0.00 0.00 516.00 133.00" xmlns="http://www.w3.org/2000/svg" xmlns:xlink="http://www.w3.org/1999/xlink">
<g id="graph0" class="graph" transform="scale(1 1) rotate(0) translate(4 129)">
<title>libs/di/include/di/vocab/array</title>
<g id="clust1" class="cluster">
<title>clusterdir_942cfae36a92b6b1c4b510e99e852d40</title>
<g id="a_clust1"><a xlink:href="dir_942cfae36a92b6b1c4b510e99e852d40.html" target="_top" xlink:title="vocab">
<polygon fill="#edf0f7" stroke="#7f7f7f" stroke-dasharray="5,2" points="8,-8 8,-117 198,-117 198,-8 8,-8"/>
<text text-anchor="middle" x="103" y="-105" font-family="Helvetica,sans-Serif" font-size="10.00">vocab</text>
</a>
</g>
</g>
<!-- dir_470b886410dd06990f67532f35a9ce13 -->
<g id="node1" class="node">
<title>dir_470b886410dd06990f67532f35a9ce13</title>
<g id="a_node1"><a xlink:href="dir_470b886410dd06990f67532f35a9ce13.html" target="_top" xlink:title="span">
<polygon fill="#a2b4d6" stroke="#404040" points="56,-35 16,-35 16,-16 56,-16 56,-35"/>
<text text-anchor="middle" x="36" y="-23" font-family="Helvetica,sans-Serif" font-size="10.00">span</text>
</a>
</g>
</g>
<!-- dir_b61fbbcfa25ab30881b2aeba2d77b3a9 -->
<g id="node2" class="node">
<title>dir_b61fbbcfa25ab30881b2aeba2d77b3a9</title>
<g id="a_node2"><a xlink:href="dir_b61fbbcfa25ab30881b2aeba2d77b3a9.html" target="_top" xlink:title="tuple">
<polygon fill="#a2b4d6" stroke="#404040" points="115.5,-35 74.5,-35 74.5,-16 115.5,-16 115.5,-35"/>
<text text-anchor="middle" x="95" y="-23" font-family="Helvetica,sans-Serif" font-size="10.00">tuple</text>
</a>
</g>
</g>
<!-- dir_fb93aeb8b3e9feea147f4ddef093a0f6 -->
<g id="node3" class="node">
<title>dir_fb93aeb8b3e9feea147f4ddef093a0f6</title>
<g id="a_node3"><a xlink:href="dir_fb93aeb8b3e9feea147f4ddef093a0f6.html" target="_top" xlink:title="optional">
<polygon fill="#a2b4d6" stroke="#404040" points="190,-35 134,-35 134,-16 190,-16 190,-35"/>
<text text-anchor="middle" x="162" y="-23" font-family="Helvetica,sans-Serif" font-size="10.00">optional</text>
</a>
</g>
</g>
<!-- dir_f2746db212e1651cb9c1857c0d141a99 -->
<g id="node4" class="node">
<title>dir_f2746db212e1651cb9c1857c0d141a99</title>
<g id="a_node4"><a xlink:href="dir_f2746db212e1651cb9c1857c0d141a99.html" target="_top" xlink:title="array">
<polygon fill="#edf0f7" stroke="#404040" stroke-width="2" points="190,-90 148,-90 148,-71 190,-71 190,-90"/>
<text text-anchor="middle" x="169" y="-78" font-family="Helvetica,sans-Serif" font-size="10.00">array</text>
</a>
</g>
</g>
<!-- dir_f2746db212e1651cb9c1857c0d141a99&#45;&gt;dir_470b886410dd06990f67532f35a9ce13 -->
<g id="edge3" class="edge">
<title>dir_f2746db212e1651cb9c1857c0d141a99&#45;&gt;dir_470b886410dd06990f67532f35a9ce13</title>
<path fill="none" stroke="#63b8ff" d="M147.93,-71.1C125.68,-62.24 90.45,-48.2 65.46,-38.24"/>
<polygon fill="#63b8ff" stroke="#63b8ff" points="66.69,-34.96 56.11,-34.51 64.1,-41.47 66.69,-34.96"/>
<g id="a_edge3&#45;headlabel"><a xlink:href="dir_000017_000154.html" target="_top" xlink:title="1">
<text text-anchor="middle" x="71.08" y="-31.16" font-family="Helvetica,sans-Serif" font-size="10.00" fill="#63b8ff">1</text>
</a>
</g>
</g>
<!-- dir_f2746db212e1651cb9c1857c0d141a99&#45;&gt;dir_b61fbbcfa25ab30881b2aeba2d77b3a9 -->
<g id="edge6" class="edge">
<title>dir_f2746db212e1651cb9c1857c0d141a99&#45;&gt;dir_b61fbbcfa25ab30881b2aeba2d77b3a9</title>
<path fill="none" stroke="#63b8ff" d="M157.11,-70.98C145.85,-62.92 128.71,-50.65 115.29,-41.03"/>
<polygon fill="#63b8ff" stroke="#63b8ff" points="117.27,-38.15 107.11,-35.17 113.2,-43.84 117.27,-38.15"/>
<g id="a_edge6&#45;headlabel"><a xlink:href="dir_000017_000176.html" target="_top" xlink:title="3">
<text text-anchor="middle" x="121.85" y="-35.43" font-family="Helvetica,sans-Serif" font-size="10.00" fill="#63b8ff">3</text>
</a>
</g>
</g>
<!-- dir_f2746db212e1651cb9c1857c0d141a99&#45;&gt;dir_fb93aeb8b3e9feea147f4ddef093a0f6 -->
<g id="edge8" class="edge">
<title>dir_f2746db212e1651cb9c1857c0d141a99&#45;&gt;dir_fb93aeb8b3e9feea147f4ddef093a0f6</title>
<path fill="none" stroke="#63b8ff" d="M167.84,-70.75C166.93,-63.8 165.61,-53.85 164.46,-45.13"/>
<polygon fill="#63b8ff" stroke="#63b8ff" points="167.91,-44.54 163.13,-35.09 160.97,-45.46 167.91,-44.54"/>
<g id="a_edge8&#45;headlabel"><a xlink:href="dir_000017_000131.html" target="_top" xlink:title="1">
<text text-anchor="middle" x="171.2" y="-45.24" font-family="Helvetica,sans-Serif" font-size="10.00" fill="#63b8ff">1</text>
</a>
</g>
</g>
<!-- dir_30ecaf38acae77be14fb9173f98f8612 -->
<g id="node5" class="node">
<title>dir_30ecaf38acae77be14fb9173f98f8612</title>
<g id="a_node5"><a xlink:href="dir_30ecaf38acae77be14fb9173f98f8612.html" target="_top" xlink:title="types">
<polygon fill="#edf0f7" stroke="#7f7f7f" points="252,-35 208,-35 208,-16 252,-16 252,-35"/>
<text text-anchor="middle" x="230" y="-23" font-family="Helvetica,sans-Serif" font-size="10.00">types</text>
</a>
</g>
</g>
<!-- dir_f2746db212e1651cb9c1857c0d141a99&#45;&gt;dir_30ecaf38acae77be14fb9173f98f8612 -->
<g id="edge1" class="edge">
<title>dir_f2746db212e1651cb9c1857c0d141a99&#45;&gt;dir_30ecaf38acae77be14fb9173f98f8612</title>
<path fill="none" stroke="#63b8ff" d="M178.8,-70.98C187.82,-63.15 201.41,-51.34 212.32,-41.86"/>
<polygon fill="#63b8ff" stroke="#63b8ff" points="214.77,-44.37 220.02,-35.17 210.18,-39.09 214.77,-44.37"/>
<g id="a_edge1&#45;headlabel"><a xlink:href="dir_000017_000180.html" target="_top" xlink:title="1">
<text text-anchor="middle" x="213.92" y="-46.37" font-family="Helvetica,sans-Serif" font-size="10.00" fill="#63b8ff">1</text>
</a>
</g>
</g>
<!-- dir_4535887b2cdca47e625f259d07db0112 -->
<g id="node6" class="node">
<title>dir_4535887b2cdca47e625f259d07db0112</title>
<g id="a_node6"><a xlink:href="dir_4535887b2cdca47e625f259d07db0112.html" target="_top" xlink:title="util">
<polygon fill="#edf0f7" stroke="#7f7f7f" points="302,-35 270,-35 270,-16 302,-16 302,-35"/>
<text text-anchor="middle" x="286" y="-23" font-family="Helvetica,sans-Serif" font-size="10.00">util</text>
</a>
</g>
</g>
<!-- dir_f2746db212e1651cb9c1857c0d141a99&#45;&gt;dir_4535887b2cdca47e625f259d07db0112 -->
<g id="edge2" class="edge">
<title>dir_f2746db212e1651cb9c1857c0d141a99&#45;&gt;dir_4535887b2cdca47e625f259d07db0112</title>
<path fill="none" stroke="#63b8ff" d="M187.8,-70.98C207.52,-62.05 238.63,-47.96 260.54,-38.03"/>
<polygon fill="#63b8ff" stroke="#63b8ff" points="262.22,-41.11 269.89,-33.8 259.33,-34.74 262.22,-41.11"/>
<g id="a_edge2&#45;headlabel"><a xlink:href="dir_000017_000185.html" target="_top" xlink:title="6">
<text text-anchor="middle" x="260.12" y="-42.68" font-family="Helvetica,sans-Serif" font-size="10.00" fill="#63b8ff">6</text>
</a>
</g>
</g>
<!-- dir_521de572ae4fe2915cc70a876c52f5b7 -->
<g id="node7" class="node">
<title>dir_521de572ae4fe2915cc70a876c52f5b7</title>
<g id="a_node7"><a xlink:href="dir_521de572ae4fe2915cc70a876c52f5b7.html" target="_top" xlink:title="container">
<polygon fill="#edf0f7" stroke="red" stroke-dasharray="5,2" points="382,-35 320,-35 320,-16 382,-16 382,-35"/>
<text text-anchor="middle" x="351" y="-23" font-family="Helvetica,sans-Serif" font-size="10.00">container</text>
</a>
</g>
</g>
<!-- dir_f2746db212e1651cb9c1857c0d141a99&#45;&gt;dir_521de572ae4fe2915cc70a876c52f5b7 -->
<g id="edge4" class="edge">
<title>dir_f2746db212e1651cb9c1857c0d141a99&#45;&gt;dir_521de572ae4fe2915cc70a876c52f5b7</title>
<path fill="none" stroke="#63b8ff" d="M190.23,-73.32C219.98,-64.66 274.56,-48.76 311.8,-37.91"/>
<polygon fill="#63b8ff" stroke="#63b8ff" points="313.19,-41.16 321.81,-35 311.23,-34.44 313.19,-41.16"/>
<g id="a_edge4&#45;headlabel"><a xlink:href="dir_000017_000046.html" target="_top" xlink:title="5">
<text text-anchor="middle" x="310.53" y="-42.39" font-family="Helvetica,sans-Serif" font-size="10.00" fill="#63b8ff">5</text>
</a>
</g>
</g>
<!-- dir_a60d4453151dca6bdd8e5fcc350e379b -->
<g id="node8" class="node">
<title>dir_a60d4453151dca6bdd8e5fcc350e379b</title>
<g id="a_node8"><a xlink:href="dir_a60d4453151dca6bdd8e5fcc350e379b.html" target="_top" xlink:title="assert">
<polygon fill="#edf0f7" stroke="#7f7f7f" points="447.5,-35 400.5,-35 400.5,-16 447.5,-16 447.5,-35"/>
<text text-anchor="middle" x="424" y="-23" font-family="Helvetica,sans-Serif" font-size="10.00">assert</text>
</a>
</g>
</g>
<!-- dir_f2746db212e1651cb9c1857c0d141a99&#45;&gt;dir_a60d4453151dca6bdd8e5fcc350e379b -->
<g id="edge5" class="edge">
<title>dir_f2746db212e1651cb9c1857c0d141a99&#45;&gt;dir_a60d4453151dca6bdd8e5fcc350e379b</title>
<path fill="none" stroke="#63b8ff" d="M190.2,-75.65C228.17,-68.66 310.5,-53.14 390.06,-35.11"/>
<polygon fill="#63b8ff" stroke="#63b8ff" points="391.27,-38.42 400.24,-32.78 389.72,-31.6 391.27,-38.42"/>
<g id="a_edge5&#45;headlabel"><a xlink:href="dir_000017_000018.html" target="_top" xlink:title="1">
<text text-anchor="middle" x="388.4" y="-39.49" font-family="Helvetica,sans-Serif" font-size="10.00" fill="#63b8ff">1</text>
</a>
</g>
</g>
<!-- dir_f555f996eeee1ebe901dc71e0c5de8ff -->
<g id="node9" class="node">
<title>dir_f555f996eeee1ebe901dc71e0c5de8ff</title>
<g id="a_node9"><a xlink:href="dir_f555f996eeee1ebe901dc71e0c5de8ff.html" target="_top" xlink:title="meta">
<polygon fill="#edf0f7" stroke="#7f7f7f" points="508,-35 466,-35 466,-16 508,-16 508,-35"/>
<text text-anchor="middle" x="487" y="-23" font-family="Helvetica,sans-Serif" font-size="10.00">meta</text>
</a>
</g>
</g>
<!-- dir_f2746db212e1651cb9c1857c0d141a99&#45;&gt;dir_f555f996eeee1ebe901dc71e0c5de8ff -->
<g id="edge7" class="edge">
<title>dir_f2746db212e1651cb9c1857c0d141a99&#45;&gt;dir_f555f996eeee1ebe901dc71e0c5de8ff</title>
<path fill="none" stroke="#63b8ff" d="M190.12,-77.14C236.52,-71.76 350.93,-57.46 455.97,-34.99"/>
<polygon fill="#63b8ff" stroke="#63b8ff" points="456.75,-38.4 465.78,-32.86 455.26,-31.56 456.75,-38.4"/>
<g id="a_edge7&#45;headlabel"><a xlink:href="dir_000017_000122.html" target="_top" xlink:title="8">
<text text-anchor="middle" x="453.84" y="-39.44" font-family="Helvetica,sans-Serif" font-size="10.00" fill="#63b8ff">8</text>
</a>
</g>
</g>
</g>
</svg>
