<?xml version="1.0" encoding="UTF-8" standalone="no"?>
<!DOCTYPE svg PUBLIC "-//W3C//DTD SVG 1.1//EN"
 "http://www.w3.org/Graphics/SVG/1.1/DTD/svg11.dtd">
<!-- Generated by graphviz version 2.43.0 (0)
 -->
<!-- Title: libs/di/include/di/chrono Pages: 1 -->
<svg width="224pt" height="251pt"
 viewBox="0.00 0.00 224.00 251.00" xmlns="http://www.w3.org/2000/svg" xmlns:xlink="http://www.w3.org/1999/xlink">
<g id="graph0" class="graph" transform="scale(1 1) rotate(0) translate(4 247)">
<title>libs/di/include/di/chrono</title>
<g id="clust1" class="cluster">
<title>clusterdir_f95a1a0ab1b96e316090c1bcac3c2c99</title>
<g id="a_clust1"><a xlink:href="dir_f95a1a0ab1b96e316090c1bcac3c2c99.html" target="_top" xlink:title="di">
<polygon fill="#edf0f7" stroke="#7f7f7f" stroke-dasharray="5,2" points="8,-8 8,-235 208,-235 208,-8 8,-8"/>
<text text-anchor="middle" x="108" y="-223" font-family="Helvetica,sans-Serif" font-size="10.00">di</text>
</a>
</g>
</g>
<g id="clust2" class="cluster">
<title>clusterdir_293164c02f90255ed3402dbdfbf4d86b</title>
<g id="a_clust2"><a xlink:href="dir_293164c02f90255ed3402dbdfbf4d86b.html" target="_top">
<polygon fill="#edf0f7" stroke="#404040" stroke-width="2" points="16,-63 16,-208 200,-208 200,-63 16,-63"/>
</a>
</g>
</g>
<!-- dir_f555f996eeee1ebe901dc71e0c5de8ff -->
<g id="node1" class="node">
<title>dir_f555f996eeee1ebe901dc71e0c5de8ff</title>
<g id="a_node1"><a xlink:href="dir_f555f996eeee1ebe901dc71e0c5de8ff.html" target="_top" xlink:title="meta">
<polygon fill="#a2b4d6" stroke="#404040" points="144,-35 102,-35 102,-16 144,-16 144,-35"/>
<text text-anchor="middle" x="123" y="-23" font-family="Helvetica,sans-Serif" font-size="10.00">meta</text>
</a>
</g>
</g>
<!-- dir_60d1624911c2c9f7b6f38e44ec895aaa -->
<g id="node2" class="node">
<title>dir_60d1624911c2c9f7b6f38e44ec895aaa</title>
<g id="a_node2"><a xlink:href="dir_60d1624911c2c9f7b6f38e44ec895aaa.html" target="_top" xlink:title="math">
<polygon fill="#a2b4d6" stroke="red" points="84,-35 42,-35 42,-16 84,-16 84,-35"/>
<text text-anchor="middle" x="63" y="-23" font-family="Helvetica,sans-Serif" font-size="10.00">math</text>
</a>
</g>
</g>
<!-- dir_293164c02f90255ed3402dbdfbf4d86b -->
<g id="node3" class="node">
<title>dir_293164c02f90255ed3402dbdfbf4d86b</title>
<text text-anchor="middle" x="79" y="-188" font-family="Helvetica,sans-Serif" font-size="10.00">chrono</text>
</g>
<!-- dir_158d203f2f94d8cb335df217f47788e2 -->
<g id="node4" class="node">
<title>dir_158d203f2f94d8cb335df217f47788e2</title>
<g id="a_node4"><a xlink:href="dir_158d203f2f94d8cb335df217f47788e2.html" target="_top" xlink:title="concepts">
<polygon fill="#a2b4d6" stroke="#404040" points="192,-145 132,-145 132,-126 192,-126 192,-145"/>
<text text-anchor="middle" x="162" y="-133" font-family="Helvetica,sans-Serif" font-size="10.00">concepts</text>
</a>
</g>
</g>
<!-- dir_293164c02f90255ed3402dbdfbf4d86b&#45;&gt;dir_158d203f2f94d8cb335df217f47788e2 -->
<g id="edge1" class="edge">
<title>dir_293164c02f90255ed3402dbdfbf4d86b&#45;&gt;dir_158d203f2f94d8cb335df217f47788e2</title>
<path fill="none" stroke="#63b8ff" d="M92.34,-180.98C105.09,-172.84 124.55,-160.41 139.67,-150.76"/>
<polygon fill="#63b8ff" stroke="#63b8ff" points="141.88,-153.5 148.42,-145.17 138.11,-147.6 141.88,-153.5"/>
<g id="a_edge1&#45;headlabel"><a xlink:href="dir_000032_000036.html" target="_top" xlink:title="1">
<text text-anchor="middle" x="140.38" y="-155.33" font-family="Helvetica,sans-Serif" font-size="10.00" fill="#63b8ff">1</text>
</a>
</g>
</g>
<!-- dir_ceecd26fe9d2077898b1cb4924fffa7a -->
<g id="node5" class="node">
<title>dir_ceecd26fe9d2077898b1cb4924fffa7a</title>
<g id="a_node5"><a xlink:href="dir_ceecd26fe9d2077898b1cb4924fffa7a.html" target="_top" xlink:title="duration">
<polygon fill="#a2b4d6" stroke="#404040" points="94.5,-90 37.5,-90 37.5,-71 94.5,-71 94.5,-90"/>
<text text-anchor="middle" x="66" y="-78" font-family="Helvetica,sans-Serif" font-size="10.00">duration</text>
</a>
</g>
</g>
<!-- dir_293164c02f90255ed3402dbdfbf4d86b&#45;&gt;dir_ceecd26fe9d2077898b1cb4924fffa7a -->
<g id="edge3" class="edge">
<title>dir_293164c02f90255ed3402dbdfbf4d86b&#45;&gt;dir_ceecd26fe9d2077898b1cb4924fffa7a</title>
<path fill="none" stroke="#63b8ff" d="M66.22,-181C55.61,-173.1 41.28,-160.27 35,-145 28.27,-128.62 38.99,-110.52 49.62,-97.85"/>
<polygon fill="#63b8ff" stroke="#63b8ff" points="52.27,-100.13 56.41,-90.38 47.09,-95.42 52.27,-100.13"/>
<g id="a_edge3&#45;headlabel"><a xlink:href="dir_000032_000066.html" target="_top" xlink:title="5">
<text text-anchor="middle" x="51.95" y="-102.2" font-family="Helvetica,sans-Serif" font-size="10.00" fill="#63b8ff">5</text>
</a>
</g>
</g>
<!-- dir_79fe9888c3ab8e00bb42c9b576a5de9f -->
<g id="node6" class="node">
<title>dir_79fe9888c3ab8e00bb42c9b576a5de9f</title>
<g id="a_node6"><a xlink:href="dir_79fe9888c3ab8e00bb42c9b576a5de9f.html" target="_top" xlink:title="time_point">
<polygon fill="#a2b4d6" stroke="#404040" points="113.5,-145 44.5,-145 44.5,-126 113.5,-126 113.5,-145"/>
<text text-anchor="middle" x="79" y="-133" font-family="Helvetica,sans-Serif" font-size="10.00">time_point</text>
</a>
</g>
</g>
<!-- dir_293164c02f90255ed3402dbdfbf4d86b&#45;&gt;dir_79fe9888c3ab8e00bb42c9b576a5de9f -->
<g id="edge2" class="edge">
<title>dir_293164c02f90255ed3402dbdfbf4d86b&#45;&gt;dir_79fe9888c3ab8e00bb42c9b576a5de9f</title>
<path fill="none" stroke="#63b8ff" d="M79,-180.75C79,-173.8 79,-163.85 79,-155.13"/>
<polygon fill="#63b8ff" stroke="#63b8ff" points="82.5,-155.09 79,-145.09 75.5,-155.09 82.5,-155.09"/>
<g id="a_edge2&#45;headlabel"><a xlink:href="dir_000032_000173.html" target="_top" xlink:title="1">
<text text-anchor="middle" x="85.34" y="-156.18" font-family="Helvetica,sans-Serif" font-size="10.00" fill="#63b8ff">1</text>
</a>
</g>
</g>
<!-- dir_158d203f2f94d8cb335df217f47788e2&#45;&gt;dir_f555f996eeee1ebe901dc71e0c5de8ff -->
<g id="edge4" class="edge">
<title>dir_158d203f2f94d8cb335df217f47788e2&#45;&gt;dir_f555f996eeee1ebe901dc71e0c5de8ff</title>
<path fill="none" stroke="#63b8ff" d="M158.81,-125.66C152.43,-108.01 138.02,-68.09 129.55,-44.64"/>
<polygon fill="#63b8ff" stroke="#63b8ff" points="132.82,-43.38 126.13,-35.16 126.23,-45.75 132.82,-43.38"/>
<g id="a_edge4&#45;headlabel"><a xlink:href="dir_000036_000122.html" target="_top" xlink:title="2">
<text text-anchor="middle" x="136.71" y="-43.29" font-family="Helvetica,sans-Serif" font-size="10.00" fill="#63b8ff">2</text>
</a>
</g>
</g>
<!-- dir_ceecd26fe9d2077898b1cb4924fffa7a&#45;&gt;dir_f555f996eeee1ebe901dc71e0c5de8ff -->
<g id="edge6" class="edge">
<title>dir_ceecd26fe9d2077898b1cb4924fffa7a&#45;&gt;dir_f555f996eeee1ebe901dc71e0c5de8ff</title>
<path fill="none" stroke="#63b8ff" d="M75.16,-70.98C83.5,-63.23 96.03,-51.58 106.18,-42.14"/>
<polygon fill="#63b8ff" stroke="#63b8ff" points="108.74,-44.54 113.68,-35.17 103.97,-39.42 108.74,-44.54"/>
<g id="a_edge6&#45;headlabel"><a xlink:href="dir_000066_000122.html" target="_top" xlink:title="4">
<text text-anchor="middle" x="108.04" y="-46.57" font-family="Helvetica,sans-Serif" font-size="10.00" fill="#63b8ff">4</text>
</a>
</g>
</g>
<!-- dir_ceecd26fe9d2077898b1cb4924fffa7a&#45;&gt;dir_60d1624911c2c9f7b6f38e44ec895aaa -->
<g id="edge5" class="edge">
<title>dir_ceecd26fe9d2077898b1cb4924fffa7a&#45;&gt;dir_60d1624911c2c9f7b6f38e44ec895aaa</title>
<path fill="none" stroke="#63b8ff" d="M65.5,-70.75C65.11,-63.8 64.55,-53.85 64.05,-45.13"/>
<polygon fill="#63b8ff" stroke="#63b8ff" points="67.55,-44.88 63.49,-35.09 60.56,-45.27 67.55,-44.88"/>
<g id="a_edge5&#45;headlabel"><a xlink:href="dir_000066_000117.html" target="_top" xlink:title="3">
<text text-anchor="middle" x="70.58" y="-45.8" font-family="Helvetica,sans-Serif" font-size="10.00" fill="#63b8ff">3</text>
</a>
</g>
</g>
<!-- dir_79fe9888c3ab8e00bb42c9b576a5de9f&#45;&gt;dir_f555f996eeee1ebe901dc71e0c5de8ff -->
<g id="edge8" class="edge">
<title>dir_79fe9888c3ab8e00bb42c9b576a5de9f&#45;&gt;dir_f555f996eeee1ebe901dc71e0c5de8ff</title>
<path fill="none" stroke="#63b8ff" d="M84.57,-125.93C90.08,-117.17 98.46,-103.05 104,-90 110.19,-75.42 115.22,-58.15 118.54,-45.31"/>
<polygon fill="#63b8ff" stroke="#63b8ff" points="122,-45.89 121.01,-35.34 115.21,-44.21 122,-45.89"/>
<g id="a_edge8&#45;headlabel"><a xlink:href="dir_000173_000122.html" target="_top" xlink:title="3">
<text text-anchor="middle" x="123.89" y="-47.56" font-family="Helvetica,sans-Serif" font-size="10.00" fill="#63b8ff">3</text>
</a>
</g>
</g>
<!-- dir_79fe9888c3ab8e00bb42c9b576a5de9f&#45;&gt;dir_ceecd26fe9d2077898b1cb4924fffa7a -->
<g id="edge7" class="edge">
<title>dir_79fe9888c3ab8e00bb42c9b576a5de9f&#45;&gt;dir_ceecd26fe9d2077898b1cb4924fffa7a</title>
<path fill="none" stroke="#63b8ff" d="M76.85,-125.75C75.13,-118.72 72.65,-108.62 70.5,-99.84"/>
<polygon fill="#63b8ff" stroke="#63b8ff" points="73.89,-98.97 68.11,-90.09 67.09,-100.63 73.89,-98.97"/>
<g id="a_edge7&#45;headlabel"><a xlink:href="dir_000173_000066.html" target="_top" xlink:title="4">
<text text-anchor="middle" x="77.5" y="-99.28" font-family="Helvetica,sans-Serif" font-size="10.00" fill="#63b8ff">4</text>
</a>
</g>
</g>
</g>
</svg>
