<?xml version="1.0" encoding="UTF-8" standalone="no"?>
<!DOCTYPE svg PUBLIC "-//W3C//DTD SVG 1.1//EN"
 "http://www.w3.org/Graphics/SVG/1.1/DTD/svg11.dtd">
<!-- Generated by graphviz version 2.43.0 (0)
 -->
<!-- Title: iris/arch/x86/amd64/hw Pages: 1 -->
<svg width="112pt" height="117pt"
 viewBox="0.00 0.00 112.00 117.00" xmlns="http://www.w3.org/2000/svg" xmlns:xlink="http://www.w3.org/1999/xlink">
<g id="graph0" class="graph" transform="scale(1 1) rotate(0) translate(4 113)">
<title>iris/arch/x86/amd64/hw</title>
<g id="clust1" class="cluster">
<title>clusterdir_aa669ff061cea02545a3dc83f842e418</title>
<g id="a_clust1"><a xlink:href="dir_aa669ff061cea02545a3dc83f842e418.html" target="_top" xlink:title="amd64">
<polygon fill="#edf0f7" stroke="#7f7f7f" stroke-dasharray="5,2" points="31,-47 31,-101 81,-101 81,-47 31,-47"/>
<text text-anchor="middle" x="56" y="-89" font-family="Helvetica,sans-Serif" font-size="10.00">amd64</text>
</a>
</g>
</g>
<!-- dir_cf5227a2d3549f92c358e592da5438bc -->
<g id="node1" class="node">
<title>dir_cf5227a2d3549f92c358e592da5438bc</title>
<g id="a_node1"><a xlink:href="dir_cf5227a2d3549f92c358e592da5438bc.html" target="_top" xlink:title="hw">
<polygon fill="#edf0f7" stroke="#404040" stroke-width="2" points="71.5,-74 40.5,-74 40.5,-55 71.5,-55 71.5,-74"/>
<text text-anchor="middle" x="56" y="-62" font-family="Helvetica,sans-Serif" font-size="10.00">hw</text>
</a>
</g>
</g>
<!-- dir_29a765eed241630f2929477fec556e75 -->
<g id="node2" class="node">
<title>dir_29a765eed241630f2929477fec556e75</title>
<g id="a_node2"><a xlink:href="dir_29a765eed241630f2929477fec556e75.html" target="_top" xlink:title="include">
<polygon fill="#edf0f7" stroke="red" stroke-dasharray="5,2" points="52,-19 0,-19 0,0 52,0 52,-19"/>
<text text-anchor="middle" x="26" y="-7" font-family="Helvetica,sans-Serif" font-size="10.00">include</text>
</a>
</g>
</g>
<!-- dir_cf5227a2d3549f92c358e592da5438bc&#45;&gt;dir_29a765eed241630f2929477fec556e75 -->
<g id="edge1" class="edge">
<title>dir_cf5227a2d3549f92c358e592da5438bc&#45;&gt;dir_29a765eed241630f2929477fec556e75</title>
<path fill="none" stroke="#63b8ff" d="M51.05,-54.75C46.94,-47.49 40.97,-36.95 35.9,-27.98"/>
<polygon fill="#63b8ff" stroke="#63b8ff" points="38.83,-26.07 30.86,-19.09 32.74,-29.52 38.83,-26.07"/>
<g id="a_edge1&#45;headlabel"><a xlink:href="dir_000086_000090.html" target="_top" xlink:title="60">
<text text-anchor="middle" x="43.08" y="-25.3" font-family="Helvetica,sans-Serif" font-size="10.00" fill="#63b8ff">60</text>
</a>
</g>
</g>
<!-- dir_6719ab1f1f7655efc2fa43f7eb574fd1 -->
<g id="node3" class="node">
<title>dir_6719ab1f1f7655efc2fa43f7eb574fd1</title>
<g id="a_node3"><a xlink:href="dir_6719ab1f1f7655efc2fa43f7eb574fd1.html" target="_top" xlink:title="libs">
<polygon fill="#edf0f7" stroke="red" points="104,-19 70,-19 70,0 104,0 104,-19"/>
<text text-anchor="middle" x="87" y="-7" font-family="Helvetica,sans-Serif" font-size="10.00">libs</text>
</a>
</g>
</g>
<!-- dir_cf5227a2d3549f92c358e592da5438bc&#45;&gt;dir_6719ab1f1f7655efc2fa43f7eb574fd1 -->
<g id="edge2" class="edge">
<title>dir_cf5227a2d3549f92c358e592da5438bc&#45;&gt;dir_6719ab1f1f7655efc2fa43f7eb574fd1</title>
<path fill="none" stroke="#63b8ff" d="M61.12,-54.75C65.36,-47.49 71.53,-36.95 76.78,-27.98"/>
<polygon fill="#63b8ff" stroke="#63b8ff" points="79.95,-29.49 81.98,-19.09 73.91,-25.95 79.95,-29.49"/>
<g id="a_edge2&#45;headlabel"><a xlink:href="dir_000086_000109.html" target="_top" xlink:title="1">
<text text-anchor="middle" x="80.58" y="-31.52" font-family="Helvetica,sans-Serif" font-size="10.00" fill="#63b8ff">1</text>
</a>
</g>
</g>
</g>
</svg>
