<?xml version="1.0" encoding="UTF-8" standalone="no"?>
<!DOCTYPE svg PUBLIC "-//W3C//DTD SVG 1.1//EN"
 "http://www.w3.org/Graphics/SVG/1.1/DTD/svg11.dtd">
<!-- Generated by graphviz version 2.43.0 (0)
 -->
<!-- Title: libs/di/include/di/exec Pages: 1 -->
<svg width="182pt" height="196pt"
 viewBox="0.00 0.00 182.00 196.00" xmlns="http://www.w3.org/2000/svg" xmlns:xlink="http://www.w3.org/1999/xlink">
<g id="graph0" class="graph" transform="scale(1 1) rotate(0) translate(4 192)">
<title>libs/di/include/di/exec</title>
<g id="clust1" class="cluster">
<title>clusterdir_f95a1a0ab1b96e316090c1bcac3c2c99</title>
<g id="a_clust1"><a xlink:href="dir_f95a1a0ab1b96e316090c1bcac3c2c99.html" target="_top" xlink:title="di">
<polygon fill="#edf0f7" stroke="#7f7f7f" stroke-dasharray="5,2" points="8,-8 8,-180 166,-180 166,-8 8,-8"/>
<text text-anchor="middle" x="87" y="-168" font-family="Helvetica,sans-Serif" font-size="10.00">di</text>
</a>
</g>
</g>
<g id="clust2" class="cluster">
<title>clusterdir_148d86568bc05e274222eb394c98fc85</title>
<g id="a_clust2"><a xlink:href="dir_148d86568bc05e274222eb394c98fc85.html" target="_top">
<polygon fill="#edf0f7" stroke="#404040" stroke-width="2" points="58,-63 58,-153 114,-153 114,-63 58,-63"/>
</a>
</g>
</g>
<!-- dir_143f1d6bc6d46924c644ec67dc1fb4fc -->
<g id="node1" class="node">
<title>dir_143f1d6bc6d46924c644ec67dc1fb4fc</title>
<g id="a_node1"><a xlink:href="dir_143f1d6bc6d46924c644ec67dc1fb4fc.html" target="_top" xlink:title="bit">
<polygon fill="#a2b4d6" stroke="red" points="45.5,-35 16.5,-35 16.5,-16 45.5,-16 45.5,-35"/>
<text text-anchor="middle" x="31" y="-23" font-family="Helvetica,sans-Serif" font-size="10.00">bit</text>
</a>
</g>
</g>
<!-- dir_30ecaf38acae77be14fb9173f98f8612 -->
<g id="node2" class="node">
<title>dir_30ecaf38acae77be14fb9173f98f8612</title>
<g id="a_node2"><a xlink:href="dir_30ecaf38acae77be14fb9173f98f8612.html" target="_top" xlink:title="types">
<polygon fill="#a2b4d6" stroke="#404040" points="108,-35 64,-35 64,-16 108,-16 108,-35"/>
<text text-anchor="middle" x="86" y="-23" font-family="Helvetica,sans-Serif" font-size="10.00">types</text>
</a>
</g>
</g>
<!-- dir_4535887b2cdca47e625f259d07db0112 -->
<g id="node3" class="node">
<title>dir_4535887b2cdca47e625f259d07db0112</title>
<g id="a_node3"><a xlink:href="dir_4535887b2cdca47e625f259d07db0112.html" target="_top" xlink:title="util">
<polygon fill="#a2b4d6" stroke="#404040" points="158,-35 126,-35 126,-16 158,-16 158,-35"/>
<text text-anchor="middle" x="142" y="-23" font-family="Helvetica,sans-Serif" font-size="10.00">util</text>
</a>
</g>
</g>
<!-- dir_148d86568bc05e274222eb394c98fc85 -->
<g id="node4" class="node">
<title>dir_148d86568bc05e274222eb394c98fc85</title>
<text text-anchor="middle" x="86" y="-133" font-family="Helvetica,sans-Serif" font-size="10.00">exec</text>
</g>
<!-- dir_e09e9e5836bbc774c68d27951c9d977a -->
<g id="node5" class="node">
<title>dir_e09e9e5836bbc774c68d27951c9d977a</title>
<g id="a_node5"><a xlink:href="dir_e09e9e5836bbc774c68d27951c9d977a.html" target="_top" xlink:title="elf">
<polygon fill="#a2b4d6" stroke="#404040" points="100.5,-90 71.5,-90 71.5,-71 100.5,-71 100.5,-90"/>
<text text-anchor="middle" x="86" y="-78" font-family="Helvetica,sans-Serif" font-size="10.00">elf</text>
</a>
</g>
</g>
<!-- dir_148d86568bc05e274222eb394c98fc85&#45;&gt;dir_e09e9e5836bbc774c68d27951c9d977a -->
<g id="edge1" class="edge">
<title>dir_148d86568bc05e274222eb394c98fc85&#45;&gt;dir_e09e9e5836bbc774c68d27951c9d977a</title>
<path fill="none" stroke="#63b8ff" d="M86,-125.75C86,-118.8 86,-108.85 86,-100.13"/>
<polygon fill="#63b8ff" stroke="#63b8ff" points="89.5,-100.09 86,-90.09 82.5,-100.09 89.5,-100.09"/>
<g id="a_edge1&#45;headlabel"><a xlink:href="dir_000071_000067.html" target="_top" xlink:title="1">
<text text-anchor="middle" x="92.34" y="-101.18" font-family="Helvetica,sans-Serif" font-size="10.00" fill="#63b8ff">1</text>
</a>
</g>
</g>
<!-- dir_e09e9e5836bbc774c68d27951c9d977a&#45;&gt;dir_143f1d6bc6d46924c644ec67dc1fb4fc -->
<g id="edge2" class="edge">
<title>dir_e09e9e5836bbc774c68d27951c9d977a&#45;&gt;dir_143f1d6bc6d46924c644ec67dc1fb4fc</title>
<path fill="none" stroke="#63b8ff" d="M76.92,-70.75C68.91,-63.03 57.04,-51.6 47.38,-42.28"/>
<polygon fill="#63b8ff" stroke="#63b8ff" points="49.54,-39.51 39.91,-35.09 44.69,-44.55 49.54,-39.51"/>
<g id="a_edge2&#45;headlabel"><a xlink:href="dir_000067_000022.html" target="_top" xlink:title="1">
<text text-anchor="middle" x="54.1" y="-37.46" font-family="Helvetica,sans-Serif" font-size="10.00" fill="#63b8ff">1</text>
</a>
</g>
</g>
<!-- dir_e09e9e5836bbc774c68d27951c9d977a&#45;&gt;dir_30ecaf38acae77be14fb9173f98f8612 -->
<g id="edge3" class="edge">
<title>dir_e09e9e5836bbc774c68d27951c9d977a&#45;&gt;dir_30ecaf38acae77be14fb9173f98f8612</title>
<path fill="none" stroke="#63b8ff" d="M86,-70.75C86,-63.8 86,-53.85 86,-45.13"/>
<polygon fill="#63b8ff" stroke="#63b8ff" points="89.5,-45.09 86,-35.09 82.5,-45.09 89.5,-45.09"/>
<g id="a_edge3&#45;headlabel"><a xlink:href="dir_000067_000180.html" target="_top" xlink:title="1">
<text text-anchor="middle" x="92.34" y="-46.18" font-family="Helvetica,sans-Serif" font-size="10.00" fill="#63b8ff">1</text>
</a>
</g>
</g>
<!-- dir_e09e9e5836bbc774c68d27951c9d977a&#45;&gt;dir_4535887b2cdca47e625f259d07db0112 -->
<g id="edge4" class="edge">
<title>dir_e09e9e5836bbc774c68d27951c9d977a&#45;&gt;dir_4535887b2cdca47e625f259d07db0112</title>
<path fill="none" stroke="#63b8ff" d="M95,-70.98C103.19,-63.23 115.51,-51.58 125.47,-42.14"/>
<polygon fill="#63b8ff" stroke="#63b8ff" points="127.98,-44.59 132.84,-35.17 123.17,-39.5 127.98,-44.59"/>
<g id="a_edge4&#45;headlabel"><a xlink:href="dir_000067_000185.html" target="_top" xlink:title="1">
<text text-anchor="middle" x="127.32" y="-46.62" font-family="Helvetica,sans-Serif" font-size="10.00" fill="#63b8ff">1</text>
</a>
</g>
</g>
</g>
</svg>
