<?xml version="1.0" encoding="UTF-8" standalone="no"?>
<!DOCTYPE svg PUBLIC "-//W3C//DTD SVG 1.1//EN"
 "http://www.w3.org/Graphics/SVG/1.1/DTD/svg11.dtd">
<!-- Generated by graphviz version 2.43.0 (0)
 -->
<!-- Title: libs/dius/linux Pages: 1 -->
<svg width="398pt" height="141pt"
 viewBox="0.00 0.00 397.50 141.00" xmlns="http://www.w3.org/2000/svg" xmlns:xlink="http://www.w3.org/1999/xlink">
<g id="graph0" class="graph" transform="scale(1 1) rotate(0) translate(4 137)">
<title>libs/dius/linux</title>
<g id="clust1" class="cluster">
<title>clusterdir_2bc9e3f402dd86ba93785edd287294d9</title>
<g id="a_clust1"><a xlink:href="dir_2bc9e3f402dd86ba93785edd287294d9.html" target="_top" xlink:title="dius">
<polygon fill="#edf0f7" stroke="#7f7f7f" stroke-dasharray="5,2" points="8,-8 8,-125 295,-125 295,-8 8,-8"/>
<text text-anchor="middle" x="151.5" y="-113" font-family="Helvetica,sans-Serif" font-size="10.00">dius</text>
</a>
</g>
</g>
<g id="clust2" class="cluster">
<title>clusterdir_7ccd26c404836bc22a606bd372fc0063</title>
<g id="a_clust2"><a xlink:href="dir_7ccd26c404836bc22a606bd372fc0063.html" target="_top">
<polygon fill="#edf0f7" stroke="#404040" stroke-width="2" points="16,-63 16,-98 287,-98 287,-63 16,-63"/>
</a>
</g>
</g>
<!-- dir_6ac4aa95e4478b160428441746083760 -->
<g id="node1" class="node">
<title>dir_6ac4aa95e4478b160428441746083760</title>
<g id="a_node1"><a xlink:href="dir_6ac4aa95e4478b160428441746083760.html" target="_top" xlink:title="include">
<polygon fill="#a2b4d6" stroke="red" points="159,-35 107,-35 107,-16 159,-16 159,-35"/>
<text text-anchor="middle" x="133" y="-23" font-family="Helvetica,sans-Serif" font-size="10.00">include</text>
</a>
</g>
</g>
<!-- dir_7ccd26c404836bc22a606bd372fc0063 -->
<g id="node2" class="node">
<title>dir_7ccd26c404836bc22a606bd372fc0063</title>
<text text-anchor="middle" x="101" y="-78" font-family="Helvetica,sans-Serif" font-size="10.00">linux</text>
</g>
<!-- dir_7ccd26c404836bc22a606bd372fc0063&#45;&gt;dir_6ac4aa95e4478b160428441746083760 -->
<g id="edge1" class="edge">
<title>dir_7ccd26c404836bc22a606bd372fc0063&#45;&gt;dir_6ac4aa95e4478b160428441746083760</title>
<path fill="none" stroke="#63b8ff" d="M106.28,-70.75C110.71,-63.42 117.16,-52.73 122.62,-43.7"/>
<polygon fill="#63b8ff" stroke="#63b8ff" points="125.64,-45.46 127.81,-35.09 119.65,-41.84 125.64,-45.46"/>
<g id="a_edge1&#45;headlabel"><a xlink:href="dir_000114_000093.html" target="_top" xlink:title="20">
<text text-anchor="middle" x="126.21" y="-47.5" font-family="Helvetica,sans-Serif" font-size="10.00" fill="#63b8ff">20</text>
</a>
</g>
</g>
<!-- dir_984cd133b143ec7cf21a4bdcb401bfa5 -->
<g id="node7" class="node">
<title>dir_984cd133b143ec7cf21a4bdcb401bfa5</title>
<g id="a_node7"><a xlink:href="dir_984cd133b143ec7cf21a4bdcb401bfa5.html" target="_top" xlink:title="di">
<polygon fill="#edf0f7" stroke="red" stroke-dasharray="5,2" points="332.5,-35 303.5,-35 303.5,-16 332.5,-16 332.5,-35"/>
<text text-anchor="middle" x="318" y="-23" font-family="Helvetica,sans-Serif" font-size="10.00">di</text>
</a>
</g>
</g>
<!-- dir_7ccd26c404836bc22a606bd372fc0063&#45;&gt;dir_984cd133b143ec7cf21a4bdcb401bfa5 -->
<g id="edge2" class="edge">
<title>dir_7ccd26c404836bc22a606bd372fc0063&#45;&gt;dir_984cd133b143ec7cf21a4bdcb401bfa5</title>
<path fill="none" stroke="#63b8ff" d="M113.81,-70.91C118.7,-67.99 124.43,-64.97 130,-63 198.67,-38.65 223.92,-55.36 293.55,-36.34"/>
<polygon fill="#63b8ff" stroke="#63b8ff" points="294.56,-39.69 303.2,-33.55 292.62,-32.96 294.56,-39.69"/>
<g id="a_edge2&#45;headlabel"><a xlink:href="dir_000114_000058.html" target="_top" xlink:title="14">
<text text-anchor="middle" x="291.9" y="-40.91" font-family="Helvetica,sans-Serif" font-size="10.00" fill="#63b8ff">14</text>
</a>
</g>
</g>
<!-- dir_83ec75ae334b275c5a1cbeb2b647848a -->
<g id="node3" class="node">
<title>dir_83ec75ae334b275c5a1cbeb2b647848a</title>
<g id="a_node3"><a xlink:href="dir_83ec75ae334b275c5a1cbeb2b647848a.html" target="_top" xlink:title="arch">
<polygon fill="#a2b4d6" stroke="#404040" points="62,-90 24,-90 24,-71 62,-71 62,-90"/>
<text text-anchor="middle" x="43" y="-78" font-family="Helvetica,sans-Serif" font-size="10.00">arch</text>
</a>
</g>
</g>
<!-- dir_83ec75ae334b275c5a1cbeb2b647848a&#45;&gt;dir_6ac4aa95e4478b160428441746083760 -->
<g id="edge3" class="edge">
<title>dir_83ec75ae334b275c5a1cbeb2b647848a&#45;&gt;dir_6ac4aa95e4478b160428441746083760</title>
<path fill="none" stroke="#63b8ff" d="M57.46,-70.98C71.42,-62.77 92.79,-50.18 109.25,-40.49"/>
<polygon fill="#63b8ff" stroke="#63b8ff" points="111.44,-43.26 118.28,-35.17 107.88,-37.23 111.44,-43.26"/>
<g id="a_edge3&#45;headlabel"><a xlink:href="dir_000016_000093.html" target="_top" xlink:title="3">
<text text-anchor="middle" x="109.78" y="-45.03" font-family="Helvetica,sans-Serif" font-size="10.00" fill="#63b8ff">3</text>
</a>
</g>
</g>
<!-- dir_3e9ab2ac8e0c181c7b090f831025d676 -->
<g id="node4" class="node">
<title>dir_3e9ab2ac8e0c181c7b090f831025d676</title>
<g id="a_node4"><a xlink:href="dir_3e9ab2ac8e0c181c7b090f831025d676.html" target="_top" xlink:title="filesystem">
<polygon fill="#a2b4d6" stroke="#404040" points="279,-90 211,-90 211,-71 279,-71 279,-90"/>
<text text-anchor="middle" x="245" y="-78" font-family="Helvetica,sans-Serif" font-size="10.00">filesystem</text>
</a>
</g>
</g>
<!-- dir_3e9ab2ac8e0c181c7b090f831025d676&#45;&gt;dir_6ac4aa95e4478b160428441746083760 -->
<g id="edge5" class="edge">
<title>dir_3e9ab2ac8e0c181c7b090f831025d676&#45;&gt;dir_6ac4aa95e4478b160428441746083760</title>
<path fill="none" stroke="#63b8ff" d="M227.01,-70.98C209.07,-62.5 181.28,-49.35 160.57,-39.54"/>
<polygon fill="#63b8ff" stroke="#63b8ff" points="161.86,-36.28 151.32,-35.17 158.86,-42.61 161.86,-36.28"/>
<g id="a_edge5&#45;headlabel"><a xlink:href="dir_000078_000093.html" target="_top" xlink:title="7">
<text text-anchor="middle" x="166.32" y="-32.76" font-family="Helvetica,sans-Serif" font-size="10.00" fill="#63b8ff">7</text>
</a>
</g>
</g>
<!-- dir_048287677304621c659962c2a2c2732d -->
<g id="node6" class="node">
<title>dir_048287677304621c659962c2a2c2732d</title>
<g id="a_node6"><a xlink:href="dir_048287677304621c659962c2a2c2732d.html" target="_top" xlink:title="ccpp">
<polygon fill="#edf0f7" stroke="red" stroke-dasharray="5,2" points="389.5,-35 350.5,-35 350.5,-16 389.5,-16 389.5,-35"/>
<text text-anchor="middle" x="370" y="-23" font-family="Helvetica,sans-Serif" font-size="10.00">ccpp</text>
</a>
</g>
</g>
<!-- dir_3e9ab2ac8e0c181c7b090f831025d676&#45;&gt;dir_048287677304621c659962c2a2c2732d -->
<g id="edge4" class="edge">
<title>dir_3e9ab2ac8e0c181c7b090f831025d676&#45;&gt;dir_048287677304621c659962c2a2c2732d</title>
<path fill="none" stroke="#63b8ff" d="M265.08,-70.98C285.61,-62.28 317.71,-48.67 341,-38.8"/>
<polygon fill="#63b8ff" stroke="#63b8ff" points="342.54,-41.95 350.38,-34.82 339.81,-35.5 342.54,-41.95"/>
<g id="a_edge4&#45;headlabel"><a xlink:href="dir_000078_000030.html" target="_top" xlink:title="6">
<text text-anchor="middle" x="340.34" y="-43.46" font-family="Helvetica,sans-Serif" font-size="10.00" fill="#63b8ff">6</text>
</a>
</g>
</g>
<!-- dir_3e9ab2ac8e0c181c7b090f831025d676&#45;&gt;dir_984cd133b143ec7cf21a4bdcb401bfa5 -->
<g id="edge6" class="edge">
<title>dir_3e9ab2ac8e0c181c7b090f831025d676&#45;&gt;dir_984cd133b143ec7cf21a4bdcb401bfa5</title>
<path fill="none" stroke="#63b8ff" d="M256.73,-70.98C267.73,-63 284.42,-50.88 297.6,-41.31"/>
<polygon fill="#63b8ff" stroke="#63b8ff" points="300.02,-43.88 306.06,-35.17 295.91,-38.21 300.02,-43.88"/>
<g id="a_edge6&#45;headlabel"><a xlink:href="dir_000078_000058.html" target="_top" xlink:title="7">
<text text-anchor="middle" x="298.78" y="-45.79" font-family="Helvetica,sans-Serif" font-size="10.00" fill="#63b8ff">7</text>
</a>
</g>
</g>
<!-- dir_5cb394cea0d37f6d415e9f209ac091a8 -->
<g id="node5" class="node">
<title>dir_5cb394cea0d37f6d415e9f209ac091a8</title>
<g id="a_node5"><a xlink:href="dir_5cb394cea0d37f6d415e9f209ac091a8.html" target="_top" xlink:title="system">
<polygon fill="#a2b4d6" stroke="#404040" points="192.5,-90 139.5,-90 139.5,-71 192.5,-71 192.5,-90"/>
<text text-anchor="middle" x="166" y="-78" font-family="Helvetica,sans-Serif" font-size="10.00">system</text>
</a>
</g>
</g>
<!-- dir_5cb394cea0d37f6d415e9f209ac091a8&#45;&gt;dir_6ac4aa95e4478b160428441746083760 -->
<g id="edge8" class="edge">
<title>dir_5cb394cea0d37f6d415e9f209ac091a8&#45;&gt;dir_6ac4aa95e4478b160428441746083760</title>
<path fill="none" stroke="#63b8ff" d="M160.55,-70.75C155.99,-63.42 149.33,-52.73 143.71,-43.7"/>
<polygon fill="#63b8ff" stroke="#63b8ff" points="146.6,-41.73 138.35,-35.09 140.66,-45.43 146.6,-41.73"/>
<g id="a_edge8&#45;headlabel"><a xlink:href="dir_000167_000093.html" target="_top" xlink:title="3">
<text text-anchor="middle" x="150.91" y="-40.78" font-family="Helvetica,sans-Serif" font-size="10.00" fill="#63b8ff">3</text>
</a>
</g>
</g>
<!-- dir_5cb394cea0d37f6d415e9f209ac091a8&#45;&gt;dir_048287677304621c659962c2a2c2732d -->
<g id="edge7" class="edge">
<title>dir_5cb394cea0d37f6d415e9f209ac091a8&#45;&gt;dir_048287677304621c659962c2a2c2732d</title>
<path fill="none" stroke="#63b8ff" d="M182.53,-70.95C188.54,-68.1 195.46,-65.12 202,-63 259.41,-44.38 278.59,-49.83 340.59,-35.12"/>
<polygon fill="#63b8ff" stroke="#63b8ff" points="341.61,-38.47 350.49,-32.69 339.94,-31.68 341.61,-38.47"/>
<g id="a_edge7&#45;headlabel"><a xlink:href="dir_000167_000030.html" target="_top" xlink:title="1">
<text text-anchor="middle" x="338.8" y="-39.59" font-family="Helvetica,sans-Serif" font-size="10.00" fill="#63b8ff">1</text>
</a>
</g>
</g>
</g>
</svg>
