<?xml version="1.0" encoding="UTF-8" standalone="no"?>
<!DOCTYPE svg PUBLIC "-//W3C//DTD SVG 1.1//EN"
 "http://www.w3.org/Graphics/SVG/1.1/DTD/svg11.dtd">
<!-- Generated by graphviz version 2.43.0 (0)
 -->
<!-- Title: libs/di/include/di/any/concepts Pages: 1 -->
<svg width="446pt" height="133pt"
 viewBox="0.00 0.00 446.00 133.00" xmlns="http://www.w3.org/2000/svg" xmlns:xlink="http://www.w3.org/1999/xlink">
<g id="graph0" class="graph" transform="scale(1 1) rotate(0) translate(4 129)">
<title>libs/di/include/di/any/concepts</title>
<g id="clust1" class="cluster">
<title>clusterdir_e44b40e2f7a090819cf1915a0b103ff1</title>
<g id="a_clust1"><a xlink:href="dir_e44b40e2f7a090819cf1915a0b103ff1.html" target="_top" xlink:title="any">
<polygon fill="#edf0f7" stroke="#7f7f7f" stroke-dasharray="5,2" points="8,-8 8,-117 200,-117 200,-8 8,-8"/>
<text text-anchor="middle" x="104" y="-105" font-family="Helvetica,sans-Serif" font-size="10.00">any</text>
</a>
</g>
</g>
<!-- dir_24863a0596479db7df20b0f483688857 -->
<g id="node1" class="node">
<title>dir_24863a0596479db7df20b0f483688857</title>
<g id="a_node1"><a xlink:href="dir_24863a0596479db7df20b0f483688857.html" target="_top" xlink:title="storage">
<polygon fill="#a2b4d6" stroke="#404040" points="69.5,-35 16.5,-35 16.5,-16 69.5,-16 69.5,-35"/>
<text text-anchor="middle" x="43" y="-23" font-family="Helvetica,sans-Serif" font-size="10.00">storage</text>
</a>
</g>
</g>
<!-- dir_67d9f0ef52e6a8291cee5653a1bfd29e -->
<g id="node2" class="node">
<title>dir_67d9f0ef52e6a8291cee5653a1bfd29e</title>
<g id="a_node2"><a xlink:href="dir_67d9f0ef52e6a8291cee5653a1bfd29e.html" target="_top" xlink:title="meta">
<polygon fill="#a2b4d6" stroke="#404040" points="130,-35 88,-35 88,-16 130,-16 130,-35"/>
<text text-anchor="middle" x="109" y="-23" font-family="Helvetica,sans-Serif" font-size="10.00">meta</text>
</a>
</g>
</g>
<!-- dir_d6a825e771e88c34a7e5a1c5f3d40fba -->
<g id="node3" class="node">
<title>dir_d6a825e771e88c34a7e5a1c5f3d40fba</title>
<g id="a_node3"><a xlink:href="dir_d6a825e771e88c34a7e5a1c5f3d40fba.html" target="_top" xlink:title="types">
<polygon fill="#a2b4d6" stroke="#404040" points="192,-35 148,-35 148,-16 192,-16 192,-35"/>
<text text-anchor="middle" x="170" y="-23" font-family="Helvetica,sans-Serif" font-size="10.00">types</text>
</a>
</g>
</g>
<!-- dir_93a143d10651dfa76952b16fed4fc196 -->
<g id="node4" class="node">
<title>dir_93a143d10651dfa76952b16fed4fc196</title>
<g id="a_node4"><a xlink:href="dir_93a143d10651dfa76952b16fed4fc196.html" target="_top" xlink:title="concepts">
<polygon fill="#edf0f7" stroke="#404040" stroke-width="2" points="192,-90 132,-90 132,-71 192,-71 192,-90"/>
<text text-anchor="middle" x="162" y="-78" font-family="Helvetica,sans-Serif" font-size="10.00">concepts</text>
</a>
</g>
</g>
<!-- dir_93a143d10651dfa76952b16fed4fc196&#45;&gt;dir_24863a0596479db7df20b0f483688857 -->
<g id="edge2" class="edge">
<title>dir_93a143d10651dfa76952b16fed4fc196&#45;&gt;dir_24863a0596479db7df20b0f483688857</title>
<path fill="none" stroke="#63b8ff" d="M142.88,-70.98C123.65,-62.42 93.77,-49.11 71.69,-39.28"/>
<polygon fill="#63b8ff" stroke="#63b8ff" points="73.03,-36.04 62.47,-35.17 70.18,-42.44 73.03,-36.04"/>
<g id="a_edge2&#45;headlabel"><a xlink:href="dir_000035_000159.html" target="_top" xlink:title="1">
<text text-anchor="middle" x="77.47" y="-32.41" font-family="Helvetica,sans-Serif" font-size="10.00" fill="#63b8ff">1</text>
</a>
</g>
</g>
<!-- dir_93a143d10651dfa76952b16fed4fc196&#45;&gt;dir_67d9f0ef52e6a8291cee5653a1bfd29e -->
<g id="edge5" class="edge">
<title>dir_93a143d10651dfa76952b16fed4fc196&#45;&gt;dir_67d9f0ef52e6a8291cee5653a1bfd29e</title>
<path fill="none" stroke="#63b8ff" d="M153.25,-70.75C145.53,-63.03 134.1,-51.6 124.78,-42.28"/>
<polygon fill="#63b8ff" stroke="#63b8ff" points="127.14,-39.69 117.59,-35.09 122.19,-44.64 127.14,-39.69"/>
<g id="a_edge5&#45;headlabel"><a xlink:href="dir_000035_000119.html" target="_top" xlink:title="3">
<text text-anchor="middle" x="131.68" y="-37.72" font-family="Helvetica,sans-Serif" font-size="10.00" fill="#63b8ff">3</text>
</a>
</g>
</g>
<!-- dir_93a143d10651dfa76952b16fed4fc196&#45;&gt;dir_d6a825e771e88c34a7e5a1c5f3d40fba -->
<g id="edge6" class="edge">
<title>dir_93a143d10651dfa76952b16fed4fc196&#45;&gt;dir_d6a825e771e88c34a7e5a1c5f3d40fba</title>
<path fill="none" stroke="#63b8ff" d="M163.32,-70.75C164.37,-63.8 165.87,-53.85 167.19,-45.13"/>
<polygon fill="#63b8ff" stroke="#63b8ff" points="170.67,-45.5 168.7,-35.09 163.75,-44.45 170.67,-45.5"/>
<g id="a_edge6&#45;headlabel"><a xlink:href="dir_000035_000177.html" target="_top" xlink:title="4">
<text text-anchor="middle" x="172.94" y="-46.98" font-family="Helvetica,sans-Serif" font-size="10.00" fill="#63b8ff">4</text>
</a>
</g>
</g>
<!-- dir_0669efae56692bb73da75efb5ebbccdf -->
<g id="node5" class="node">
<title>dir_0669efae56692bb73da75efb5ebbccdf</title>
<g id="a_node5"><a xlink:href="dir_0669efae56692bb73da75efb5ebbccdf.html" target="_top" xlink:title="function">
<polygon fill="#edf0f7" stroke="red" stroke-dasharray="5,2" points="266,-35 210,-35 210,-16 266,-16 266,-35"/>
<text text-anchor="middle" x="238" y="-23" font-family="Helvetica,sans-Serif" font-size="10.00">function</text>
</a>
</g>
</g>
<!-- dir_93a143d10651dfa76952b16fed4fc196&#45;&gt;dir_0669efae56692bb73da75efb5ebbccdf -->
<g id="edge1" class="edge">
<title>dir_93a143d10651dfa76952b16fed4fc196&#45;&gt;dir_0669efae56692bb73da75efb5ebbccdf</title>
<path fill="none" stroke="#63b8ff" d="M174.21,-70.98C185.78,-62.92 203.38,-50.65 217.16,-41.03"/>
<polygon fill="#63b8ff" stroke="#63b8ff" points="219.37,-43.76 225.57,-35.17 215.36,-38.02 219.37,-43.76"/>
<g id="a_edge1&#45;headlabel"><a xlink:href="dir_000035_000082.html" target="_top" xlink:title="2">
<text text-anchor="middle" x="218.04" y="-45.65" font-family="Helvetica,sans-Serif" font-size="10.00" fill="#63b8ff">2</text>
</a>
</g>
</g>
<!-- dir_30ecaf38acae77be14fb9173f98f8612 -->
<g id="node6" class="node">
<title>dir_30ecaf38acae77be14fb9173f98f8612</title>
<g id="a_node6"><a xlink:href="dir_30ecaf38acae77be14fb9173f98f8612.html" target="_top" xlink:title="types">
<polygon fill="#edf0f7" stroke="#7f7f7f" points="328,-35 284,-35 284,-16 328,-16 328,-35"/>
<text text-anchor="middle" x="306" y="-23" font-family="Helvetica,sans-Serif" font-size="10.00">types</text>
</a>
</g>
</g>
<!-- dir_93a143d10651dfa76952b16fed4fc196&#45;&gt;dir_30ecaf38acae77be14fb9173f98f8612 -->
<g id="edge3" class="edge">
<title>dir_93a143d10651dfa76952b16fed4fc196&#45;&gt;dir_30ecaf38acae77be14fb9173f98f8612</title>
<path fill="none" stroke="#63b8ff" d="M185.14,-70.98C209.25,-62.11 247.2,-48.14 274.13,-38.23"/>
<polygon fill="#63b8ff" stroke="#63b8ff" points="275.69,-41.38 283.87,-34.65 273.27,-34.82 275.69,-41.38"/>
<g id="a_edge3&#45;headlabel"><a xlink:href="dir_000035_000180.html" target="_top" xlink:title="3">
<text text-anchor="middle" x="273.3" y="-42.79" font-family="Helvetica,sans-Serif" font-size="10.00" fill="#63b8ff">3</text>
</a>
</g>
</g>
<!-- dir_4535887b2cdca47e625f259d07db0112 -->
<g id="node7" class="node">
<title>dir_4535887b2cdca47e625f259d07db0112</title>
<g id="a_node7"><a xlink:href="dir_4535887b2cdca47e625f259d07db0112.html" target="_top" xlink:title="util">
<polygon fill="#edf0f7" stroke="#7f7f7f" points="378,-35 346,-35 346,-16 378,-16 378,-35"/>
<text text-anchor="middle" x="362" y="-23" font-family="Helvetica,sans-Serif" font-size="10.00">util</text>
</a>
</g>
</g>
<!-- dir_93a143d10651dfa76952b16fed4fc196&#45;&gt;dir_4535887b2cdca47e625f259d07db0112 -->
<g id="edge4" class="edge">
<title>dir_93a143d10651dfa76952b16fed4fc196&#45;&gt;dir_4535887b2cdca47e625f259d07db0112</title>
<path fill="none" stroke="#63b8ff" d="M192.23,-72.58C225.36,-64.82 280.24,-51.49 336.2,-35.06"/>
<polygon fill="#63b8ff" stroke="#63b8ff" points="337.33,-38.37 345.92,-32.17 335.34,-31.66 337.33,-38.37"/>
<g id="a_edge4&#45;headlabel"><a xlink:href="dir_000035_000185.html" target="_top" xlink:title="6">
<text text-anchor="middle" x="334.69" y="-39.62" font-family="Helvetica,sans-Serif" font-size="10.00" fill="#63b8ff">6</text>
</a>
</g>
</g>
<!-- dir_f555f996eeee1ebe901dc71e0c5de8ff -->
<g id="node8" class="node">
<title>dir_f555f996eeee1ebe901dc71e0c5de8ff</title>
<g id="a_node8"><a xlink:href="dir_f555f996eeee1ebe901dc71e0c5de8ff.html" target="_top" xlink:title="meta">
<polygon fill="#edf0f7" stroke="#7f7f7f" points="438,-35 396,-35 396,-16 438,-16 438,-35"/>
<text text-anchor="middle" x="417" y="-23" font-family="Helvetica,sans-Serif" font-size="10.00">meta</text>
</a>
</g>
</g>
<!-- dir_93a143d10651dfa76952b16fed4fc196&#45;&gt;dir_f555f996eeee1ebe901dc71e0c5de8ff -->
<g id="edge7" class="edge">
<title>dir_93a143d10651dfa76952b16fed4fc196&#45;&gt;dir_f555f996eeee1ebe901dc71e0c5de8ff</title>
<path fill="none" stroke="#63b8ff" d="M192.01,-74.36C233.44,-67.09 310.69,-52.93 385.67,-35.16"/>
<polygon fill="#63b8ff" stroke="#63b8ff" points="386.84,-38.48 395.75,-32.75 385.21,-31.67 386.84,-38.48"/>
<g id="a_edge7&#45;headlabel"><a xlink:href="dir_000035_000122.html" target="_top" xlink:title="8">
<text text-anchor="middle" x="384.01" y="-39.58" font-family="Helvetica,sans-Serif" font-size="10.00" fill="#63b8ff">8</text>
</a>
</g>
</g>
</g>
</svg>
