<?xml version="1.0" encoding="UTF-8" standalone="no"?>
<!DOCTYPE svg PUBLIC "-//W3C//DTD SVG 1.1//EN"
 "http://www.w3.org/Graphics/SVG/1.1/DTD/svg11.dtd">
<!-- Generated by graphviz version 2.43.0 (0)
 -->
<!-- Title: libs/di/include/di/meta Pages: 1 -->
<svg width="272pt" height="133pt"
 viewBox="0.00 0.00 272.00 133.00" xmlns="http://www.w3.org/2000/svg" xmlns:xlink="http://www.w3.org/1999/xlink">
<g id="graph0" class="graph" transform="scale(1 1) rotate(0) translate(4 129)">
<title>libs/di/include/di/meta</title>
<g id="clust1" class="cluster">
<title>clusterdir_f95a1a0ab1b96e316090c1bcac3c2c99</title>
<g id="a_clust1"><a xlink:href="dir_f95a1a0ab1b96e316090c1bcac3c2c99.html" target="_top" xlink:title="di">
<polygon fill="#edf0f7" stroke="#7f7f7f" stroke-dasharray="5,2" points="8,-8 8,-117 256,-117 256,-8 8,-8"/>
<text text-anchor="middle" x="132" y="-105" font-family="Helvetica,sans-Serif" font-size="10.00">di</text>
</a>
</g>
</g>
<!-- dir_0669efae56692bb73da75efb5ebbccdf -->
<g id="node1" class="node">
<title>dir_0669efae56692bb73da75efb5ebbccdf</title>
<g id="a_node1"><a xlink:href="dir_0669efae56692bb73da75efb5ebbccdf.html" target="_top" xlink:title="function">
<polygon fill="#a2b4d6" stroke="red" points="72,-35 16,-35 16,-16 72,-16 72,-35"/>
<text text-anchor="middle" x="44" y="-23" font-family="Helvetica,sans-Serif" font-size="10.00">function</text>
</a>
</g>
</g>
<!-- dir_30ecaf38acae77be14fb9173f98f8612 -->
<g id="node2" class="node">
<title>dir_30ecaf38acae77be14fb9173f98f8612</title>
<g id="a_node2"><a xlink:href="dir_30ecaf38acae77be14fb9173f98f8612.html" target="_top" xlink:title="types">
<polygon fill="#a2b4d6" stroke="#404040" points="134,-35 90,-35 90,-16 134,-16 134,-35"/>
<text text-anchor="middle" x="112" y="-23" font-family="Helvetica,sans-Serif" font-size="10.00">types</text>
</a>
</g>
</g>
<!-- dir_4535887b2cdca47e625f259d07db0112 -->
<g id="node3" class="node">
<title>dir_4535887b2cdca47e625f259d07db0112</title>
<g id="a_node3"><a xlink:href="dir_4535887b2cdca47e625f259d07db0112.html" target="_top" xlink:title="util">
<polygon fill="#a2b4d6" stroke="#404040" points="184,-35 152,-35 152,-16 184,-16 184,-35"/>
<text text-anchor="middle" x="168" y="-23" font-family="Helvetica,sans-Serif" font-size="10.00">util</text>
</a>
</g>
</g>
<!-- dir_942cfae36a92b6b1c4b510e99e852d40 -->
<g id="node4" class="node">
<title>dir_942cfae36a92b6b1c4b510e99e852d40</title>
<g id="a_node4"><a xlink:href="dir_942cfae36a92b6b1c4b510e99e852d40.html" target="_top" xlink:title="vocab">
<polygon fill="#a2b4d6" stroke="red" points="248,-35 202,-35 202,-16 248,-16 248,-35"/>
<text text-anchor="middle" x="225" y="-23" font-family="Helvetica,sans-Serif" font-size="10.00">vocab</text>
</a>
</g>
</g>
<!-- dir_f555f996eeee1ebe901dc71e0c5de8ff -->
<g id="node5" class="node">
<title>dir_f555f996eeee1ebe901dc71e0c5de8ff</title>
<g id="a_node5"><a xlink:href="dir_f555f996eeee1ebe901dc71e0c5de8ff.html" target="_top" xlink:title="meta">
<polygon fill="#edf0f7" stroke="#404040" stroke-width="2" points="161,-90 119,-90 119,-71 161,-71 161,-90"/>
<text text-anchor="middle" x="140" y="-78" font-family="Helvetica,sans-Serif" font-size="10.00">meta</text>
</a>
</g>
</g>
<!-- dir_f555f996eeee1ebe901dc71e0c5de8ff&#45;&gt;dir_0669efae56692bb73da75efb5ebbccdf -->
<g id="edge1" class="edge">
<title>dir_f555f996eeee1ebe901dc71e0c5de8ff&#45;&gt;dir_0669efae56692bb73da75efb5ebbccdf</title>
<path fill="none" stroke="#63b8ff" d="M124.58,-70.98C109.55,-62.69 86.46,-49.94 68.84,-40.22"/>
<polygon fill="#63b8ff" stroke="#63b8ff" points="70.15,-36.94 59.7,-35.17 66.77,-43.07 70.15,-36.94"/>
<g id="a_edge1&#45;headlabel"><a xlink:href="dir_000122_000082.html" target="_top" xlink:title="3">
<text text-anchor="middle" x="74.67" y="-33.69" font-family="Helvetica,sans-Serif" font-size="10.00" fill="#63b8ff">3</text>
</a>
</g>
</g>
<!-- dir_f555f996eeee1ebe901dc71e0c5de8ff&#45;&gt;dir_30ecaf38acae77be14fb9173f98f8612 -->
<g id="edge2" class="edge">
<title>dir_f555f996eeee1ebe901dc71e0c5de8ff&#45;&gt;dir_30ecaf38acae77be14fb9173f98f8612</title>
<path fill="none" stroke="#63b8ff" d="M135.38,-70.75C131.54,-63.49 125.98,-52.95 121.24,-43.98"/>
<polygon fill="#63b8ff" stroke="#63b8ff" points="124.3,-42.3 116.54,-35.09 118.11,-45.57 124.3,-42.3"/>
<g id="a_edge2&#45;headlabel"><a xlink:href="dir_000122_000180.html" target="_top" xlink:title="10">
<text text-anchor="middle" x="128.49" y="-41.65" font-family="Helvetica,sans-Serif" font-size="10.00" fill="#63b8ff">10</text>
</a>
</g>
</g>
<!-- dir_f555f996eeee1ebe901dc71e0c5de8ff&#45;&gt;dir_4535887b2cdca47e625f259d07db0112 -->
<g id="edge3" class="edge">
<title>dir_f555f996eeee1ebe901dc71e0c5de8ff&#45;&gt;dir_4535887b2cdca47e625f259d07db0112</title>
<path fill="none" stroke="#63b8ff" d="M144.62,-70.75C148.46,-63.49 154.02,-52.95 158.76,-43.98"/>
<polygon fill="#63b8ff" stroke="#63b8ff" points="161.89,-45.57 163.46,-35.09 155.7,-42.3 161.89,-45.57"/>
<g id="a_edge3&#45;headlabel"><a xlink:href="dir_000122_000185.html" target="_top" xlink:title="7">
<text text-anchor="middle" x="162.72" y="-47.57" font-family="Helvetica,sans-Serif" font-size="10.00" fill="#63b8ff">7</text>
</a>
</g>
</g>
<!-- dir_f555f996eeee1ebe901dc71e0c5de8ff&#45;&gt;dir_942cfae36a92b6b1c4b510e99e852d40 -->
<g id="edge4" class="edge">
<title>dir_f555f996eeee1ebe901dc71e0c5de8ff&#45;&gt;dir_942cfae36a92b6b1c4b510e99e852d40</title>
<path fill="none" stroke="#63b8ff" d="M153.66,-70.98C166.84,-62.77 187.03,-50.18 202.57,-40.49"/>
<polygon fill="#63b8ff" stroke="#63b8ff" points="204.46,-43.43 211.09,-35.17 200.76,-37.49 204.46,-43.43"/>
<g id="a_edge4&#45;headlabel"><a xlink:href="dir_000122_000189.html" target="_top" xlink:title="5">
<text text-anchor="middle" x="202.91" y="-45.24" font-family="Helvetica,sans-Serif" font-size="10.00" fill="#63b8ff">5</text>
</a>
</g>
</g>
</g>
</svg>
