<?xml version="1.0" encoding="UTF-8" standalone="no"?>
<!DOCTYPE svg PUBLIC "-//W3C//DTD SVG 1.1//EN"
 "http://www.w3.org/Graphics/SVG/1.1/DTD/svg11.dtd">
<!-- Generated by graphviz version 2.43.0 (0)
 -->
<!-- Title: libs/di/include/di/vocab/error/meta Pages: 1 -->
<svg width="170pt" height="117pt"
 viewBox="0.00 0.00 170.00 117.00" xmlns="http://www.w3.org/2000/svg" xmlns:xlink="http://www.w3.org/1999/xlink">
<g id="graph0" class="graph" transform="scale(1 1) rotate(0) translate(4 113)">
<title>libs/di/include/di/vocab/error/meta</title>
<g id="clust1" class="cluster">
<title>clusterdir_b143cd2a0fb99c8539a61acbcf4ec7c9</title>
<g id="a_clust1"><a xlink:href="dir_b143cd2a0fb99c8539a61acbcf4ec7c9.html" target="_top" xlink:title="error">
<polygon fill="#edf0f7" stroke="#7f7f7f" stroke-dasharray="5,2" points="47,-47 47,-101 105,-101 105,-47 47,-47"/>
<text text-anchor="middle" x="76" y="-89" font-family="Helvetica,sans-Serif" font-size="10.00">error</text>
</a>
</g>
</g>
<!-- dir_9be9440adbee382fe810fb2fcf6c6333 -->
<g id="node1" class="node">
<title>dir_9be9440adbee382fe810fb2fcf6c6333</title>
<g id="a_node1"><a xlink:href="dir_9be9440adbee382fe810fb2fcf6c6333.html" target="_top" xlink:title="meta">
<polygon fill="#edf0f7" stroke="#404040" stroke-width="2" points="97,-74 55,-74 55,-55 97,-55 97,-74"/>
<text text-anchor="middle" x="76" y="-62" font-family="Helvetica,sans-Serif" font-size="10.00">meta</text>
</a>
</g>
</g>
<!-- dir_4535887b2cdca47e625f259d07db0112 -->
<g id="node2" class="node">
<title>dir_4535887b2cdca47e625f259d07db0112</title>
<g id="a_node2"><a xlink:href="dir_4535887b2cdca47e625f259d07db0112.html" target="_top" xlink:title="util">
<polygon fill="#edf0f7" stroke="#7f7f7f" points="32,-19 0,-19 0,0 32,0 32,-19"/>
<text text-anchor="middle" x="16" y="-7" font-family="Helvetica,sans-Serif" font-size="10.00">util</text>
</a>
</g>
</g>
<!-- dir_9be9440adbee382fe810fb2fcf6c6333&#45;&gt;dir_4535887b2cdca47e625f259d07db0112 -->
<g id="edge1" class="edge">
<title>dir_9be9440adbee382fe810fb2fcf6c6333&#45;&gt;dir_4535887b2cdca47e625f259d07db0112</title>
<path fill="none" stroke="#63b8ff" d="M66.36,-54.98C57.49,-47.15 44.13,-35.34 33.39,-25.86"/>
<polygon fill="#63b8ff" stroke="#63b8ff" points="35.63,-23.17 25.82,-19.17 30.99,-28.41 35.63,-23.17"/>
<g id="a_edge1&#45;headlabel"><a xlink:href="dir_000124_000185.html" target="_top" xlink:title="1">
<text text-anchor="middle" x="40.2" y="-20.92" font-family="Helvetica,sans-Serif" font-size="10.00" fill="#63b8ff">1</text>
</a>
</g>
</g>
<!-- dir_df2174af3210b9b7833edb75ef66180a -->
<g id="node3" class="node">
<title>dir_df2174af3210b9b7833edb75ef66180a</title>
<g id="a_node3"><a xlink:href="dir_df2174af3210b9b7833edb75ef66180a.html" target="_top" xlink:title="variant">
<polygon fill="#edf0f7" stroke="#7f7f7f" points="101.5,-19 50.5,-19 50.5,0 101.5,0 101.5,-19"/>
<text text-anchor="middle" x="76" y="-7" font-family="Helvetica,sans-Serif" font-size="10.00">variant</text>
</a>
</g>
</g>
<!-- dir_9be9440adbee382fe810fb2fcf6c6333&#45;&gt;dir_df2174af3210b9b7833edb75ef66180a -->
<g id="edge2" class="edge">
<title>dir_9be9440adbee382fe810fb2fcf6c6333&#45;&gt;dir_df2174af3210b9b7833edb75ef66180a</title>
<path fill="none" stroke="#63b8ff" d="M76,-54.75C76,-47.8 76,-37.85 76,-29.13"/>
<polygon fill="#63b8ff" stroke="#63b8ff" points="79.5,-29.09 76,-19.09 72.5,-29.09 79.5,-29.09"/>
<g id="a_edge2&#45;headlabel"><a xlink:href="dir_000124_000186.html" target="_top" xlink:title="1">
<text text-anchor="middle" x="82.34" y="-30.18" font-family="Helvetica,sans-Serif" font-size="10.00" fill="#63b8ff">1</text>
</a>
</g>
</g>
<!-- dir_f555f996eeee1ebe901dc71e0c5de8ff -->
<g id="node4" class="node">
<title>dir_f555f996eeee1ebe901dc71e0c5de8ff</title>
<g id="a_node4"><a xlink:href="dir_f555f996eeee1ebe901dc71e0c5de8ff.html" target="_top" xlink:title="meta">
<polygon fill="#edf0f7" stroke="#7f7f7f" points="162,-19 120,-19 120,0 162,0 162,-19"/>
<text text-anchor="middle" x="141" y="-7" font-family="Helvetica,sans-Serif" font-size="10.00">meta</text>
</a>
</g>
</g>
<!-- dir_9be9440adbee382fe810fb2fcf6c6333&#45;&gt;dir_f555f996eeee1ebe901dc71e0c5de8ff -->
<g id="edge3" class="edge">
<title>dir_9be9440adbee382fe810fb2fcf6c6333&#45;&gt;dir_f555f996eeee1ebe901dc71e0c5de8ff</title>
<path fill="none" stroke="#63b8ff" d="M86.44,-54.98C96.15,-47.07 110.82,-35.11 122.5,-25.58"/>
<polygon fill="#63b8ff" stroke="#63b8ff" points="124.83,-28.2 130.37,-19.17 120.4,-22.78 124.83,-28.2"/>
<g id="a_edge3&#45;headlabel"><a xlink:href="dir_000124_000122.html" target="_top" xlink:title="6">
<text text-anchor="middle" x="123.84" y="-30.17" font-family="Helvetica,sans-Serif" font-size="10.00" fill="#63b8ff">6</text>
</a>
</g>
</g>
</g>
</svg>
