<?xml version="1.0" encoding="UTF-8" standalone="no"?>
<!DOCTYPE svg PUBLIC "-//W3C//DTD SVG 1.1//EN"
 "http://www.w3.org/Graphics/SVG/1.1/DTD/svg11.dtd">
<!-- Generated by graphviz version 2.43.0 (0)
 -->
<!-- Title: libs/ccpp Pages: 1 -->
<svg width="761pt" height="196pt"
 viewBox="0.00 0.00 761.00 196.00" xmlns="http://www.w3.org/2000/svg" xmlns:xlink="http://www.w3.org/1999/xlink">
<g id="graph0" class="graph" transform="scale(1 1) rotate(0) translate(4 192)">
<title>libs/ccpp</title>
<g id="clust1" class="cluster">
<title>clusterdir_6719ab1f1f7655efc2fa43f7eb574fd1</title>
<g id="a_clust1"><a xlink:href="dir_6719ab1f1f7655efc2fa43f7eb574fd1.html" target="_top" xlink:title="libs">
<polygon fill="#edf0f7" stroke="#404040" stroke-dasharray="5,2" points="8,-8 8,-180 745,-180 745,-8 8,-8"/>
<text text-anchor="middle" x="376.5" y="-168" font-family="Helvetica,sans-Serif" font-size="10.00">libs</text>
</a>
</g>
</g>
<g id="clust2" class="cluster">
<title>clusterdir_048287677304621c659962c2a2c2732d</title>
<g id="a_clust2"><a xlink:href="dir_048287677304621c659962c2a2c2732d.html" target="_top">
<polygon fill="#edf0f7" stroke="#404040" stroke-width="2" points="16,-63 16,-153 737,-153 737,-63 16,-63"/>
</a>
</g>
</g>
<!-- dir_2bc9e3f402dd86ba93785edd287294d9 -->
<g id="node1" class="node">
<title>dir_2bc9e3f402dd86ba93785edd287294d9</title>
<g id="a_node1"><a xlink:href="dir_2bc9e3f402dd86ba93785edd287294d9.html" target="_top" xlink:title="dius">
<polygon fill="#a2b4d6" stroke="red" points="410.5,-35 373.5,-35 373.5,-16 410.5,-16 410.5,-35"/>
<text text-anchor="middle" x="392" y="-23" font-family="Helvetica,sans-Serif" font-size="10.00">dius</text>
</a>
</g>
</g>
<!-- dir_984cd133b143ec7cf21a4bdcb401bfa5 -->
<g id="node2" class="node">
<title>dir_984cd133b143ec7cf21a4bdcb401bfa5</title>
<g id="a_node2"><a xlink:href="dir_984cd133b143ec7cf21a4bdcb401bfa5.html" target="_top" xlink:title="di">
<polygon fill="#a2b4d6" stroke="red" points="198.5,-35 169.5,-35 169.5,-16 198.5,-16 198.5,-35"/>
<text text-anchor="middle" x="184" y="-23" font-family="Helvetica,sans-Serif" font-size="10.00">di</text>
</a>
</g>
</g>
<!-- dir_048287677304621c659962c2a2c2732d -->
<g id="node3" class="node">
<title>dir_048287677304621c659962c2a2c2732d</title>
<text text-anchor="middle" x="709" y="-133" font-family="Helvetica,sans-Serif" font-size="10.00">ccpp</text>
</g>
<!-- dir_33de5a0e5dea50e75518e2870bda7ea6 -->
<g id="node4" class="node">
<title>dir_33de5a0e5dea50e75518e2870bda7ea6</title>
<g id="a_node4"><a xlink:href="dir_33de5a0e5dea50e75518e2870bda7ea6.html" target="_top" xlink:title="arch">
<polygon fill="#a2b4d6" stroke="#404040" points="245,-145 207,-145 207,-126 245,-126 245,-145"/>
<text text-anchor="middle" x="226" y="-133" font-family="Helvetica,sans-Serif" font-size="10.00">arch</text>
</a>
</g>
</g>
<!-- dir_4a059f36db6300b3f1d6a7b4bd94b473 -->
<g id="node8" class="node">
<title>dir_4a059f36db6300b3f1d6a7b4bd94b473</title>
<g id="a_node8"><a xlink:href="dir_4a059f36db6300b3f1d6a7b4bd94b473.html" target="_top" xlink:title="include">
<polygon fill="#a2b4d6" stroke="#404040" points="311,-90 259,-90 259,-71 311,-71 311,-90"/>
<text text-anchor="middle" x="285" y="-78" font-family="Helvetica,sans-Serif" font-size="10.00">include</text>
</a>
</g>
</g>
<!-- dir_33de5a0e5dea50e75518e2870bda7ea6&#45;&gt;dir_4a059f36db6300b3f1d6a7b4bd94b473 -->
<g id="edge1" class="edge">
<title>dir_33de5a0e5dea50e75518e2870bda7ea6&#45;&gt;dir_4a059f36db6300b3f1d6a7b4bd94b473</title>
<path fill="none" stroke="#63b8ff" d="M235.48,-125.98C244.2,-118.15 257.34,-106.34 267.9,-96.86"/>
<polygon fill="#63b8ff" stroke="#63b8ff" points="270.25,-99.46 275.35,-90.17 265.57,-94.25 270.25,-99.46"/>
<g id="a_edge1&#45;headlabel"><a xlink:href="dir_000012_000091.html" target="_top" xlink:title="2">
<text text-anchor="middle" x="269.47" y="-101.47" font-family="Helvetica,sans-Serif" font-size="10.00" fill="#63b8ff">2</text>
</a>
</g>
</g>
<!-- dir_61d9688be39ee4c5f5b74d4763172c53 -->
<g id="node5" class="node">
<title>dir_61d9688be39ee4c5f5b74d4763172c53</title>
<g id="a_node5"><a xlink:href="dir_61d9688be39ee4c5f5b74d4763172c53.html" target="_top" xlink:title="ctype">
<polygon fill="#a2b4d6" stroke="#404040" points="495,-145 451,-145 451,-126 495,-126 495,-145"/>
<text text-anchor="middle" x="473" y="-133" font-family="Helvetica,sans-Serif" font-size="10.00">ctype</text>
</a>
</g>
</g>
<!-- dir_61d9688be39ee4c5f5b74d4763172c53&#45;&gt;dir_4a059f36db6300b3f1d6a7b4bd94b473 -->
<g id="edge2" class="edge">
<title>dir_61d9688be39ee4c5f5b74d4763172c53&#45;&gt;dir_4a059f36db6300b3f1d6a7b4bd94b473</title>
<path fill="none" stroke="#63b8ff" d="M450.76,-128.25C422.08,-120.18 370.4,-105.64 321.02,-91.7"/>
<polygon fill="#63b8ff" stroke="#63b8ff" points="321.75,-88.27 311.18,-88.92 319.85,-95.01 321.75,-88.27"/>
<g id="a_edge2&#45;headlabel"><a xlink:href="dir_000055_000091.html" target="_top" xlink:title="30">
<text text-anchor="middle" x="325.98" y="-84.01" font-family="Helvetica,sans-Serif" font-size="10.00" fill="#63b8ff">30</text>
</a>
</g>
</g>
<!-- dir_5005efce74e3ac2560dd16b2cc29b63d -->
<g id="node6" class="node">
<title>dir_5005efce74e3ac2560dd16b2cc29b63d</title>
<g id="a_node6"><a xlink:href="dir_5005efce74e3ac2560dd16b2cc29b63d.html" target="_top" xlink:title="errno">
<polygon fill="#a2b4d6" stroke="#404040" points="555,-145 513,-145 513,-126 555,-126 555,-145"/>
<text text-anchor="middle" x="534" y="-133" font-family="Helvetica,sans-Serif" font-size="10.00">errno</text>
</a>
</g>
</g>
<!-- dir_5134f736a7dc8e5d5daa7facadb46105 -->
<g id="node7" class="node">
<title>dir_5134f736a7dc8e5d5daa7facadb46105</title>
<g id="a_node7"><a xlink:href="dir_5134f736a7dc8e5d5daa7facadb46105.html" target="_top" xlink:title="getopt">
<polygon fill="#a2b4d6" stroke="#404040" points="72,-145 24,-145 24,-126 72,-126 72,-145"/>
<text text-anchor="middle" x="48" y="-133" font-family="Helvetica,sans-Serif" font-size="10.00">getopt</text>
</a>
</g>
</g>
<!-- dir_5134f736a7dc8e5d5daa7facadb46105&#45;&gt;dir_984cd133b143ec7cf21a4bdcb401bfa5 -->
<g id="edge4" class="edge">
<title>dir_5134f736a7dc8e5d5daa7facadb46105&#45;&gt;dir_984cd133b143ec7cf21a4bdcb401bfa5</title>
<path fill="none" stroke="#63b8ff" d="M58.8,-125.91C75.7,-112.49 109.4,-85.71 138,-63 146.89,-55.94 156.75,-48.12 165.05,-41.53"/>
<polygon fill="#63b8ff" stroke="#63b8ff" points="167.37,-44.16 173.03,-35.2 163.02,-38.67 167.37,-44.16"/>
<g id="a_edge4&#45;headlabel"><a xlink:href="dir_000084_000058.html" target="_top" xlink:title="3">
<text text-anchor="middle" x="166.32" y="-46.12" font-family="Helvetica,sans-Serif" font-size="10.00" fill="#63b8ff">3</text>
</a>
</g>
</g>
<!-- dir_5134f736a7dc8e5d5daa7facadb46105&#45;&gt;dir_4a059f36db6300b3f1d6a7b4bd94b473 -->
<g id="edge3" class="edge">
<title>dir_5134f736a7dc8e5d5daa7facadb46105&#45;&gt;dir_4a059f36db6300b3f1d6a7b4bd94b473</title>
<path fill="none" stroke="#63b8ff" d="M72.12,-128.34C75.43,-127.54 78.8,-126.73 82,-126 155.27,-109.23 176.89,-108.73 248.84,-91.46"/>
<polygon fill="#63b8ff" stroke="#63b8ff" points="249.96,-94.79 258.85,-89.03 248.31,-87.99 249.96,-94.79"/>
<g id="a_edge3&#45;headlabel"><a xlink:href="dir_000084_000091.html" target="_top" xlink:title="7">
<text text-anchor="middle" x="247.14" y="-95.9" font-family="Helvetica,sans-Serif" font-size="10.00" fill="#63b8ff">7</text>
</a>
</g>
</g>
<!-- dir_4a059f36db6300b3f1d6a7b4bd94b473&#45;&gt;dir_2bc9e3f402dd86ba93785edd287294d9 -->
<g id="edge5" class="edge">
<title>dir_4a059f36db6300b3f1d6a7b4bd94b473&#45;&gt;dir_2bc9e3f402dd86ba93785edd287294d9</title>
<path fill="none" stroke="#63b8ff" d="M300.17,-70.93C304.89,-68.32 310.13,-65.49 315,-63 331.21,-54.71 349.62,-45.96 364.38,-39.1"/>
<polygon fill="#63b8ff" stroke="#63b8ff" points="365.88,-42.26 373.49,-34.89 362.94,-35.91 365.88,-42.26"/>
<g id="a_edge5&#45;headlabel"><a xlink:href="dir_000091_000063.html" target="_top" xlink:title="4">
<text text-anchor="middle" x="363.81" y="-43.85" font-family="Helvetica,sans-Serif" font-size="10.00" fill="#63b8ff">4</text>
</a>
</g>
</g>
<!-- dir_4a059f36db6300b3f1d6a7b4bd94b473&#45;&gt;dir_984cd133b143ec7cf21a4bdcb401bfa5 -->
<g id="edge6" class="edge">
<title>dir_4a059f36db6300b3f1d6a7b4bd94b473&#45;&gt;dir_984cd133b143ec7cf21a4bdcb401bfa5</title>
<path fill="none" stroke="#63b8ff" d="M269.47,-70.85C264.83,-68.3 259.72,-65.51 255,-63 239.44,-54.72 221.83,-45.67 208.03,-38.64"/>
<polygon fill="#63b8ff" stroke="#63b8ff" points="209.25,-35.34 198.75,-33.93 206.08,-41.58 209.25,-35.34"/>
<g id="a_edge6&#45;headlabel"><a xlink:href="dir_000091_000058.html" target="_top" xlink:title="13">
<text text-anchor="middle" x="213.74" y="-31.93" font-family="Helvetica,sans-Serif" font-size="10.00" fill="#63b8ff">13</text>
</a>
</g>
</g>
<!-- dir_c22012bc9cc2a34f85392e4c1bc49cc9 -->
<g id="node9" class="node">
<title>dir_c22012bc9cc2a34f85392e4c1bc49cc9</title>
<g id="a_node9"><a xlink:href="dir_c22012bc9cc2a34f85392e4c1bc49cc9.html" target="_top" xlink:title="locale">
<polygon fill="#a2b4d6" stroke="#404040" points="371,-145 325,-145 325,-126 371,-126 371,-145"/>
<text text-anchor="middle" x="348" y="-133" font-family="Helvetica,sans-Serif" font-size="10.00">locale</text>
</a>
</g>
</g>
<!-- dir_c22012bc9cc2a34f85392e4c1bc49cc9&#45;&gt;dir_4a059f36db6300b3f1d6a7b4bd94b473 -->
<g id="edge7" class="edge">
<title>dir_c22012bc9cc2a34f85392e4c1bc49cc9&#45;&gt;dir_4a059f36db6300b3f1d6a7b4bd94b473</title>
<path fill="none" stroke="#63b8ff" d="M337.88,-125.98C328.56,-118.15 314.53,-106.34 303.26,-96.86"/>
<polygon fill="#63b8ff" stroke="#63b8ff" points="305.21,-93.93 295.31,-90.17 300.71,-99.29 305.21,-93.93"/>
<g id="a_edge7&#45;headlabel"><a xlink:href="dir_000115_000091.html" target="_top" xlink:title="1">
<text text-anchor="middle" x="309.79" y="-91.57" font-family="Helvetica,sans-Serif" font-size="10.00" fill="#63b8ff">1</text>
</a>
</g>
</g>
<!-- dir_655d2fdf70ec12db9c8dc6404b7f8c45 -->
<g id="node10" class="node">
<title>dir_655d2fdf70ec12db9c8dc6404b7f8c45</title>
<g id="a_node10"><a xlink:href="dir_655d2fdf70ec12db9c8dc6404b7f8c45.html" target="_top" xlink:title="stdio">
<polygon fill="#a2b4d6" stroke="#404040" points="188.5,-145 147.5,-145 147.5,-126 188.5,-126 188.5,-145"/>
<text text-anchor="middle" x="168" y="-133" font-family="Helvetica,sans-Serif" font-size="10.00">stdio</text>
</a>
</g>
</g>
<!-- dir_655d2fdf70ec12db9c8dc6404b7f8c45&#45;&gt;dir_2bc9e3f402dd86ba93785edd287294d9 -->
<g id="edge8" class="edge">
<title>dir_655d2fdf70ec12db9c8dc6404b7f8c45&#45;&gt;dir_2bc9e3f402dd86ba93785edd287294d9</title>
<path fill="none" stroke="#63b8ff" d="M188.65,-128.58C229.52,-116.85 317.05,-91.63 320,-90 331.98,-83.4 358.2,-59.16 375.47,-42.61"/>
<polygon fill="#63b8ff" stroke="#63b8ff" points="378.36,-44.68 383.13,-35.22 373.5,-39.64 378.36,-44.68"/>
<g id="a_edge8&#45;headlabel"><a xlink:href="dir_000156_000063.html" target="_top" xlink:title="1">
<text text-anchor="middle" x="377.75" y="-46.72" font-family="Helvetica,sans-Serif" font-size="10.00" fill="#63b8ff">1</text>
</a>
</g>
</g>
<!-- dir_655d2fdf70ec12db9c8dc6404b7f8c45&#45;&gt;dir_984cd133b143ec7cf21a4bdcb401bfa5 -->
<g id="edge10" class="edge">
<title>dir_655d2fdf70ec12db9c8dc6404b7f8c45&#45;&gt;dir_984cd133b143ec7cf21a4bdcb401bfa5</title>
<path fill="none" stroke="#63b8ff" d="M169.31,-125.66C171.9,-108.17 177.73,-68.8 181.22,-45.27"/>
<polygon fill="#63b8ff" stroke="#63b8ff" points="184.71,-45.56 182.72,-35.16 177.79,-44.54 184.71,-45.56"/>
<g id="a_edge10&#45;headlabel"><a xlink:href="dir_000156_000058.html" target="_top" xlink:title="11">
<text text-anchor="middle" x="187" y="-47.04" font-family="Helvetica,sans-Serif" font-size="10.00" fill="#63b8ff">11</text>
</a>
</g>
</g>
<!-- dir_655d2fdf70ec12db9c8dc6404b7f8c45&#45;&gt;dir_4a059f36db6300b3f1d6a7b4bd94b473 -->
<g id="edge9" class="edge">
<title>dir_655d2fdf70ec12db9c8dc6404b7f8c45&#45;&gt;dir_4a059f36db6300b3f1d6a7b4bd94b473</title>
<path fill="none" stroke="#63b8ff" d="M186.8,-125.98C205.62,-117.46 234.82,-104.23 256.5,-94.41"/>
<polygon fill="#63b8ff" stroke="#63b8ff" points="258.2,-97.48 265.86,-90.17 255.31,-91.11 258.2,-97.48"/>
<g id="a_edge9&#45;headlabel"><a xlink:href="dir_000156_000091.html" target="_top" xlink:title="90">
<text text-anchor="middle" x="256.09" y="-99.05" font-family="Helvetica,sans-Serif" font-size="10.00" fill="#63b8ff">90</text>
</a>
</g>
</g>
<!-- dir_a8ca05a97de7391234f976557b664375 -->
<g id="node11" class="node">
<title>dir_a8ca05a97de7391234f976557b664375</title>
<g id="a_node11"><a xlink:href="dir_a8ca05a97de7391234f976557b664375.html" target="_top" xlink:title="stdlib">
<polygon fill="#a2b4d6" stroke="#404040" points="307,-145 263,-145 263,-126 307,-126 307,-145"/>
<text text-anchor="middle" x="285" y="-133" font-family="Helvetica,sans-Serif" font-size="10.00">stdlib</text>
</a>
</g>
</g>
<!-- dir_a8ca05a97de7391234f976557b664375&#45;&gt;dir_2bc9e3f402dd86ba93785edd287294d9 -->
<g id="edge11" class="edge">
<title>dir_a8ca05a97de7391234f976557b664375&#45;&gt;dir_2bc9e3f402dd86ba93785edd287294d9</title>
<path fill="none" stroke="#63b8ff" d="M303.36,-125.94C318.57,-118.17 340.02,-105.57 355,-90 367.83,-76.66 378,-58.06 384.4,-44.43"/>
<polygon fill="#63b8ff" stroke="#63b8ff" points="387.66,-45.71 388.55,-35.16 381.27,-42.86 387.66,-45.71"/>
<g id="a_edge11&#45;headlabel"><a xlink:href="dir_000157_000063.html" target="_top" xlink:title="1">
<text text-anchor="middle" x="388.79" y="-47.65" font-family="Helvetica,sans-Serif" font-size="10.00" fill="#63b8ff">1</text>
</a>
</g>
</g>
<!-- dir_a8ca05a97de7391234f976557b664375&#45;&gt;dir_984cd133b143ec7cf21a4bdcb401bfa5 -->
<g id="edge13" class="edge">
<title>dir_a8ca05a97de7391234f976557b664375&#45;&gt;dir_984cd133b143ec7cf21a4bdcb401bfa5</title>
<path fill="none" stroke="#63b8ff" d="M271.1,-125.71C258.67,-117.44 240.41,-104.22 227,-90 213.77,-75.97 201.75,-57.48 193.8,-44.08"/>
<polygon fill="#63b8ff" stroke="#63b8ff" points="196.8,-42.27 188.77,-35.36 190.73,-45.77 196.8,-42.27"/>
<g id="a_edge13&#45;headlabel"><a xlink:href="dir_000157_000058.html" target="_top" xlink:title="11">
<text text-anchor="middle" x="201.05" y="-41.47" font-family="Helvetica,sans-Serif" font-size="10.00" fill="#63b8ff">11</text>
</a>
</g>
</g>
<!-- dir_a8ca05a97de7391234f976557b664375&#45;&gt;dir_4a059f36db6300b3f1d6a7b4bd94b473 -->
<g id="edge12" class="edge">
<title>dir_a8ca05a97de7391234f976557b664375&#45;&gt;dir_4a059f36db6300b3f1d6a7b4bd94b473</title>
<path fill="none" stroke="#63b8ff" d="M285,-125.75C285,-118.8 285,-108.85 285,-100.13"/>
<polygon fill="#63b8ff" stroke="#63b8ff" points="288.5,-100.09 285,-90.09 281.5,-100.09 288.5,-100.09"/>
<g id="a_edge12&#45;headlabel"><a xlink:href="dir_000157_000091.html" target="_top" xlink:title="23">
<text text-anchor="middle" x="291.34" y="-101.18" font-family="Helvetica,sans-Serif" font-size="10.00" fill="#63b8ff">23</text>
</a>
</g>
</g>
<!-- dir_577fe4ac70d3995ac31134cd119c210d -->
<g id="node12" class="node">
<title>dir_577fe4ac70d3995ac31134cd119c210d</title>
<g id="a_node12"><a xlink:href="dir_577fe4ac70d3995ac31134cd119c210d.html" target="_top" xlink:title="string">
<polygon fill="#a2b4d6" stroke="#404040" points="433,-145 389,-145 389,-126 433,-126 433,-145"/>
<text text-anchor="middle" x="411" y="-133" font-family="Helvetica,sans-Serif" font-size="10.00">string</text>
</a>
</g>
</g>
<!-- dir_577fe4ac70d3995ac31134cd119c210d&#45;&gt;dir_2bc9e3f402dd86ba93785edd287294d9 -->
<g id="edge14" class="edge">
<title>dir_577fe4ac70d3995ac31134cd119c210d&#45;&gt;dir_2bc9e3f402dd86ba93785edd287294d9</title>
<path fill="none" stroke="#63b8ff" d="M409.45,-125.66C406.37,-108.17 399.44,-68.8 395.3,-45.27"/>
<polygon fill="#63b8ff" stroke="#63b8ff" points="398.7,-44.4 393.52,-35.16 391.81,-45.61 398.7,-44.4"/>
<g id="a_edge14&#45;headlabel"><a xlink:href="dir_000160_000063.html" target="_top" xlink:title="1">
<text text-anchor="middle" x="402.12" y="-44.95" font-family="Helvetica,sans-Serif" font-size="10.00" fill="#63b8ff">1</text>
</a>
</g>
</g>
<!-- dir_577fe4ac70d3995ac31134cd119c210d&#45;&gt;dir_984cd133b143ec7cf21a4bdcb401bfa5 -->
<g id="edge15" class="edge">
<title>dir_577fe4ac70d3995ac31134cd119c210d&#45;&gt;dir_984cd133b143ec7cf21a4bdcb401bfa5</title>
<path fill="none" stroke="#63b8ff" d="M388.74,-128.38C344.74,-116.29 250.77,-90.44 250,-90 247.04,-88.31 218.42,-60.39 199.86,-42.14"/>
<polygon fill="#63b8ff" stroke="#63b8ff" points="202.2,-39.53 192.62,-35.01 197.29,-44.52 202.2,-39.53"/>
<g id="a_edge15&#45;headlabel"><a xlink:href="dir_000160_000058.html" target="_top" xlink:title="32">
<text text-anchor="middle" x="206.75" y="-37.53" font-family="Helvetica,sans-Serif" font-size="10.00" fill="#63b8ff">32</text>
</a>
</g>
</g>
<!-- dir_56484080abf04ca67379ec2837b7b193 -->
<g id="node13" class="node">
<title>dir_56484080abf04ca67379ec2837b7b193</title>
<g id="a_node13"><a xlink:href="dir_56484080abf04ca67379ec2837b7b193.html" target="_top" xlink:title="sys">
<polygon fill="#a2b4d6" stroke="#404040" points="606.5,-145 573.5,-145 573.5,-126 606.5,-126 606.5,-145"/>
<text text-anchor="middle" x="590" y="-133" font-family="Helvetica,sans-Serif" font-size="10.00">sys</text>
</a>
</g>
</g>
<!-- dir_56484080abf04ca67379ec2837b7b193&#45;&gt;dir_2bc9e3f402dd86ba93785edd287294d9 -->
<g id="edge16" class="edge">
<title>dir_56484080abf04ca67379ec2837b7b193&#45;&gt;dir_2bc9e3f402dd86ba93785edd287294d9</title>
<path fill="none" stroke="#63b8ff" d="M574.13,-125.84C539.65,-107.04 457.69,-62.33 416.51,-39.87"/>
<polygon fill="#63b8ff" stroke="#63b8ff" points="418.12,-36.76 407.67,-35.05 414.77,-42.91 418.12,-36.76"/>
<g id="a_edge16&#45;headlabel"><a xlink:href="dir_000164_000063.html" target="_top" xlink:title="1">
<text text-anchor="middle" x="422.64" y="-33.49" font-family="Helvetica,sans-Serif" font-size="10.00" fill="#63b8ff">1</text>
</a>
</g>
</g>
<!-- dir_56484080abf04ca67379ec2837b7b193&#45;&gt;dir_4a059f36db6300b3f1d6a7b4bd94b473 -->
<g id="edge17" class="edge">
<title>dir_56484080abf04ca67379ec2837b7b193&#45;&gt;dir_4a059f36db6300b3f1d6a7b4bd94b473</title>
<path fill="none" stroke="#63b8ff" d="M573.34,-128.58C570.26,-127.62 567.05,-126.71 564,-126 458.42,-101.3 426.3,-112.55 321.19,-91.22"/>
<polygon fill="#63b8ff" stroke="#63b8ff" points="321.63,-87.74 311.13,-89.12 320.2,-94.59 321.63,-87.74"/>
<g id="a_edge17&#45;headlabel"><a xlink:href="dir_000164_000091.html" target="_top" xlink:title="1">
<text text-anchor="middle" x="325.73" y="-83.19" font-family="Helvetica,sans-Serif" font-size="10.00" fill="#63b8ff">1</text>
</a>
</g>
</g>
<!-- dir_9dddc263950344b7f80fe87fc983271b -->
<g id="node14" class="node">
<title>dir_9dddc263950344b7f80fe87fc983271b</title>
<g id="a_node14"><a xlink:href="dir_9dddc263950344b7f80fe87fc983271b.html" target="_top" xlink:title="time">
<polygon fill="#a2b4d6" stroke="#404040" points="129.5,-145 90.5,-145 90.5,-126 129.5,-126 129.5,-145"/>
<text text-anchor="middle" x="110" y="-133" font-family="Helvetica,sans-Serif" font-size="10.00">time</text>
</a>
</g>
</g>
<!-- dir_9dddc263950344b7f80fe87fc983271b&#45;&gt;dir_984cd133b143ec7cf21a4bdcb401bfa5 -->
<g id="edge19" class="edge">
<title>dir_9dddc263950344b7f80fe87fc983271b&#45;&gt;dir_984cd133b143ec7cf21a4bdcb401bfa5</title>
<path fill="none" stroke="#63b8ff" d="M116.06,-125.66C128.31,-107.77 156.25,-67 172.22,-43.69"/>
<polygon fill="#63b8ff" stroke="#63b8ff" points="175.3,-45.39 178.07,-35.16 169.53,-41.43 175.3,-45.39"/>
<g id="a_edge19&#45;headlabel"><a xlink:href="dir_000172_000058.html" target="_top" xlink:title="2">
<text text-anchor="middle" x="175.61" y="-47.46" font-family="Helvetica,sans-Serif" font-size="10.00" fill="#63b8ff">2</text>
</a>
</g>
</g>
<!-- dir_9dddc263950344b7f80fe87fc983271b&#45;&gt;dir_4a059f36db6300b3f1d6a7b4bd94b473 -->
<g id="edge18" class="edge">
<title>dir_9dddc263950344b7f80fe87fc983271b&#45;&gt;dir_4a059f36db6300b3f1d6a7b4bd94b473</title>
<path fill="none" stroke="#63b8ff" d="M129.73,-128.52C158.66,-119.76 213.04,-103.29 249.14,-92.36"/>
<polygon fill="#63b8ff" stroke="#63b8ff" points="250.25,-95.68 258.81,-89.43 248.22,-88.98 250.25,-95.68"/>
<g id="a_edge18&#45;headlabel"><a xlink:href="dir_000172_000091.html" target="_top" xlink:title="1">
<text text-anchor="middle" x="247.63" y="-96.94" font-family="Helvetica,sans-Serif" font-size="10.00" fill="#63b8ff">1</text>
</a>
</g>
</g>
<!-- dir_33abc478ca17a8011d6c517179420f87 -->
<g id="node15" class="node">
<title>dir_33abc478ca17a8011d6c517179420f87</title>
<g id="a_node15"><a xlink:href="dir_33abc478ca17a8011d6c517179420f87.html" target="_top" xlink:title="unistd">
<polygon fill="#a2b4d6" stroke="#404040" points="671.5,-145 624.5,-145 624.5,-126 671.5,-126 671.5,-145"/>
<text text-anchor="middle" x="648" y="-133" font-family="Helvetica,sans-Serif" font-size="10.00">unistd</text>
</a>
</g>
</g>
<!-- dir_33abc478ca17a8011d6c517179420f87&#45;&gt;dir_2bc9e3f402dd86ba93785edd287294d9 -->
<g id="edge20" class="edge">
<title>dir_33abc478ca17a8011d6c517179420f87&#45;&gt;dir_2bc9e3f402dd86ba93785edd287294d9</title>
<path fill="none" stroke="#63b8ff" d="M629.3,-125.82C599.42,-112.04 539,-84.52 487,-63 464.72,-53.78 439.2,-44.02 420.22,-36.91"/>
<polygon fill="#63b8ff" stroke="#63b8ff" points="421.27,-33.57 410.68,-33.35 418.83,-40.13 421.27,-33.57"/>
<g id="a_edge20&#45;headlabel"><a xlink:href="dir_000183_000063.html" target="_top" xlink:title="3">
<text text-anchor="middle" x="425.63" y="-29.66" font-family="Helvetica,sans-Serif" font-size="10.00" fill="#63b8ff">3</text>
</a>
</g>
</g>
<!-- dir_33abc478ca17a8011d6c517179420f87&#45;&gt;dir_4a059f36db6300b3f1d6a7b4bd94b473 -->
<g id="edge21" class="edge">
<title>dir_33abc478ca17a8011d6c517179420f87&#45;&gt;dir_4a059f36db6300b3f1d6a7b4bd94b473</title>
<path fill="none" stroke="#63b8ff" d="M624.32,-127.81C621.53,-127.14 618.71,-126.52 616,-126 487.04,-101.29 449.03,-115.67 321.29,-91.16"/>
<polygon fill="#63b8ff" stroke="#63b8ff" points="321.61,-87.65 311.12,-89.16 320.26,-94.52 321.61,-87.65"/>
<g id="a_edge21&#45;headlabel"><a xlink:href="dir_000183_000091.html" target="_top" xlink:title="3">
<text text-anchor="middle" x="325.68" y="-83.06" font-family="Helvetica,sans-Serif" font-size="10.00" fill="#63b8ff">3</text>
</a>
</g>
</g>
</g>
</svg>
