<?xml version="1.0" encoding="UTF-8" standalone="no"?>
<!DOCTYPE svg PUBLIC "-//W3C//DTD SVG 1.1//EN"
 "http://www.w3.org/Graphics/SVG/1.1/DTD/svg11.dtd">
<!-- Generated by graphviz version 2.43.0 (0)
 -->
<!-- Title: libs/di/include/di/container/tree Pages: 1 -->
<svg width="973pt" height="133pt"
 viewBox="0.00 0.00 973.00 133.00" xmlns="http://www.w3.org/2000/svg" xmlns:xlink="http://www.w3.org/1999/xlink">
<g id="graph0" class="graph" transform="scale(1 1) rotate(0) translate(4 129)">
<title>libs/di/include/di/container/tree</title>
<g id="clust1" class="cluster">
<title>clusterdir_521de572ae4fe2915cc70a876c52f5b7</title>
<g id="a_clust1"><a xlink:href="dir_521de572ae4fe2915cc70a876c52f5b7.html" target="_top" xlink:title="container">
<polygon fill="#edf0f7" stroke="#7f7f7f" stroke-dasharray="5,2" points="8,-8 8,-117 520,-117 520,-8 8,-8"/>
<text text-anchor="middle" x="264" y="-105" font-family="Helvetica,sans-Serif" font-size="10.00">container</text>
</a>
</g>
</g>
<!-- dir_093cb0cf41c3d9bb25543a4e1702223c -->
<g id="node1" class="node">
<title>dir_093cb0cf41c3d9bb25543a4e1702223c</title>
<g id="a_node1"><a xlink:href="dir_093cb0cf41c3d9bb25543a4e1702223c.html" target="_top" xlink:title="iterator">
<polygon fill="#a2b4d6" stroke="#404040" points="69.5,-35 16.5,-35 16.5,-16 69.5,-16 69.5,-35"/>
<text text-anchor="middle" x="43" y="-23" font-family="Helvetica,sans-Serif" font-size="10.00">iterator</text>
</a>
</g>
</g>
<!-- dir_28cb5a05dfb61a4b9ad44e468e6394a4 -->
<g id="node2" class="node">
<title>dir_28cb5a05dfb61a4b9ad44e468e6394a4</title>
<g id="a_node2"><a xlink:href="dir_28cb5a05dfb61a4b9ad44e468e6394a4.html" target="_top" xlink:title="view">
<polygon fill="#a2b4d6" stroke="#404040" points="128,-35 88,-35 88,-16 128,-16 128,-35"/>
<text text-anchor="middle" x="108" y="-23" font-family="Helvetica,sans-Serif" font-size="10.00">view</text>
</a>
</g>
</g>
<!-- dir_75ced0d5626770d74ec0ab0f9ebe51e3 -->
<g id="node3" class="node">
<title>dir_75ced0d5626770d74ec0ab0f9ebe51e3</title>
<g id="a_node3"><a xlink:href="dir_75ced0d5626770d74ec0ab0f9ebe51e3.html" target="_top" xlink:title="allocator">
<polygon fill="#a2b4d6" stroke="#404040" points="205.5,-35 146.5,-35 146.5,-16 205.5,-16 205.5,-35"/>
<text text-anchor="middle" x="176" y="-23" font-family="Helvetica,sans-Serif" font-size="10.00">allocator</text>
</a>
</g>
</g>
<!-- dir_838362f34bc8d8c3545343b0166aa672 -->
<g id="node4" class="node">
<title>dir_838362f34bc8d8c3545343b0166aa672</title>
<g id="a_node4"><a xlink:href="dir_838362f34bc8d8c3545343b0166aa672.html" target="_top" xlink:title="concepts">
<polygon fill="#a2b4d6" stroke="#404040" points="284,-35 224,-35 224,-16 284,-16 284,-35"/>
<text text-anchor="middle" x="254" y="-23" font-family="Helvetica,sans-Serif" font-size="10.00">concepts</text>
</a>
</g>
</g>
<!-- dir_8ac75f3e92965d7b87f5a77c8eb4a6b1 -->
<g id="node5" class="node">
<title>dir_8ac75f3e92965d7b87f5a77c8eb4a6b1</title>
<g id="a_node5"><a xlink:href="dir_8ac75f3e92965d7b87f5a77c8eb4a6b1.html" target="_top" xlink:title="associative">
<polygon fill="#a2b4d6" stroke="#404040" points="374,-35 302,-35 302,-16 374,-16 374,-35"/>
<text text-anchor="middle" x="338" y="-23" font-family="Helvetica,sans-Serif" font-size="10.00">associative</text>
</a>
</g>
</g>
<!-- dir_9f8d33513cfc97e5f9ea6bf2671e5446 -->
<g id="node6" class="node">
<title>dir_9f8d33513cfc97e5f9ea6bf2671e5446</title>
<g id="a_node6"><a xlink:href="dir_9f8d33513cfc97e5f9ea6bf2671e5446.html" target="_top" xlink:title="meta">
<polygon fill="#a2b4d6" stroke="#404040" points="434,-35 392,-35 392,-16 434,-16 434,-35"/>
<text text-anchor="middle" x="413" y="-23" font-family="Helvetica,sans-Serif" font-size="10.00">meta</text>
</a>
</g>
</g>
<!-- dir_c0fde34eb1aad6470b7c40f9528ecd51 -->
<g id="node7" class="node">
<title>dir_c0fde34eb1aad6470b7c40f9528ecd51</title>
<g id="a_node7"><a xlink:href="dir_c0fde34eb1aad6470b7c40f9528ecd51.html" target="_top" xlink:title="intrusive">
<polygon fill="#a2b4d6" stroke="#404040" points="511.5,-35 452.5,-35 452.5,-16 511.5,-16 511.5,-35"/>
<text text-anchor="middle" x="482" y="-23" font-family="Helvetica,sans-Serif" font-size="10.00">intrusive</text>
</a>
</g>
</g>
<!-- dir_8aea3e2ac587a42c656c5e8806b5497a -->
<g id="node8" class="node">
<title>dir_8aea3e2ac587a42c656c5e8806b5497a</title>
<g id="a_node8"><a xlink:href="dir_8aea3e2ac587a42c656c5e8806b5497a.html" target="_top" xlink:title="tree">
<polygon fill="#edf0f7" stroke="#404040" stroke-width="2" points="506,-90 470,-90 470,-71 506,-71 506,-90"/>
<text text-anchor="middle" x="488" y="-78" font-family="Helvetica,sans-Serif" font-size="10.00">tree</text>
</a>
</g>
</g>
<!-- dir_8aea3e2ac587a42c656c5e8806b5497a&#45;&gt;dir_093cb0cf41c3d9bb25543a4e1702223c -->
<g id="edge2" class="edge">
<title>dir_8aea3e2ac587a42c656c5e8806b5497a&#45;&gt;dir_093cb0cf41c3d9bb25543a4e1702223c</title>
<path fill="none" stroke="#63b8ff" d="M469.95,-78.34C413.75,-74.54 236.77,-61.34 79.96,-34.94"/>
<polygon fill="#63b8ff" stroke="#63b8ff" points="80.11,-31.41 69.66,-33.18 78.93,-38.32 80.11,-31.41"/>
<g id="a_edge2&#45;headlabel"><a xlink:href="dir_000175_000108.html" target="_top" xlink:title="3">
<text text-anchor="middle" x="84.13" y="-26.72" font-family="Helvetica,sans-Serif" font-size="10.00" fill="#63b8ff">3</text>
</a>
</g>
</g>
<!-- dir_8aea3e2ac587a42c656c5e8806b5497a&#45;&gt;dir_28cb5a05dfb61a4b9ad44e468e6394a4 -->
<g id="edge3" class="edge">
<title>dir_8aea3e2ac587a42c656c5e8806b5497a&#45;&gt;dir_28cb5a05dfb61a4b9ad44e468e6394a4</title>
<path fill="none" stroke="#63b8ff" d="M470,-78.17C418.08,-74.12 263.73,-60.66 138,-35 137.9,-34.98 137.8,-34.96 137.7,-34.94"/>
<polygon fill="#63b8ff" stroke="#63b8ff" points="138.77,-31.6 128.23,-32.68 137.14,-38.4 138.77,-31.6"/>
<g id="a_edge3&#45;headlabel"><a xlink:href="dir_000175_000188.html" target="_top" xlink:title="4">
<text text-anchor="middle" x="142.93" y="-27.17" font-family="Helvetica,sans-Serif" font-size="10.00" fill="#63b8ff">4</text>
</a>
</g>
</g>
<!-- dir_8aea3e2ac587a42c656c5e8806b5497a&#45;&gt;dir_75ced0d5626770d74ec0ab0f9ebe51e3 -->
<g id="edge6" class="edge">
<title>dir_8aea3e2ac587a42c656c5e8806b5497a&#45;&gt;dir_75ced0d5626770d74ec0ab0f9ebe51e3</title>
<path fill="none" stroke="#63b8ff" d="M469.73,-76.86C427.12,-70.64 317.66,-54.25 215.63,-35.03"/>
<polygon fill="#63b8ff" stroke="#63b8ff" points="216.25,-31.59 205.78,-33.16 214.95,-38.46 216.25,-31.59"/>
<g id="a_edge6&#45;headlabel"><a xlink:href="dir_000175_000005.html" target="_top" xlink:title="16">
<text text-anchor="middle" x="220.32" y="-26.97" font-family="Helvetica,sans-Serif" font-size="10.00" fill="#63b8ff">16</text>
</a>
</g>
</g>
<!-- dir_8aea3e2ac587a42c656c5e8806b5497a&#45;&gt;dir_838362f34bc8d8c3545343b0166aa672 -->
<g id="edge7" class="edge">
<title>dir_8aea3e2ac587a42c656c5e8806b5497a&#45;&gt;dir_838362f34bc8d8c3545343b0166aa672</title>
<path fill="none" stroke="#63b8ff" d="M469.64,-75.34C432.04,-66.83 345.52,-47.23 294.24,-35.61"/>
<polygon fill="#63b8ff" stroke="#63b8ff" points="294.69,-32.13 284.16,-33.33 293.14,-38.95 294.69,-32.13"/>
<g id="a_edge7&#45;headlabel"><a xlink:href="dir_000175_000037.html" target="_top" xlink:title="6">
<text text-anchor="middle" x="298.82" y="-27.65" font-family="Helvetica,sans-Serif" font-size="10.00" fill="#63b8ff">6</text>
</a>
</g>
</g>
<!-- dir_8aea3e2ac587a42c656c5e8806b5497a&#45;&gt;dir_8ac75f3e92965d7b87f5a77c8eb4a6b1 -->
<g id="edge8" class="edge">
<title>dir_8aea3e2ac587a42c656c5e8806b5497a&#45;&gt;dir_8ac75f3e92965d7b87f5a77c8eb4a6b1</title>
<path fill="none" stroke="#63b8ff" d="M469.91,-73.11C445.68,-64.55 402.25,-49.2 371.86,-38.46"/>
<polygon fill="#63b8ff" stroke="#63b8ff" points="372.7,-35.05 362.1,-35.02 370.37,-41.65 372.7,-35.05"/>
<g id="a_edge8&#45;headlabel"><a xlink:href="dir_000175_000019.html" target="_top" xlink:title="4">
<text text-anchor="middle" x="377.03" y="-31.07" font-family="Helvetica,sans-Serif" font-size="10.00" fill="#63b8ff">4</text>
</a>
</g>
</g>
<!-- dir_8aea3e2ac587a42c656c5e8806b5497a&#45;&gt;dir_9f8d33513cfc97e5f9ea6bf2671e5446 -->
<g id="edge10" class="edge">
<title>dir_8aea3e2ac587a42c656c5e8806b5497a&#45;&gt;dir_9f8d33513cfc97e5f9ea6bf2671e5446</title>
<path fill="none" stroke="#63b8ff" d="M475.95,-70.98C464.54,-62.92 447.17,-50.65 433.57,-41.03"/>
<polygon fill="#63b8ff" stroke="#63b8ff" points="435.46,-38.08 425.27,-35.17 431.42,-43.8 435.46,-38.08"/>
<g id="a_edge10&#45;headlabel"><a xlink:href="dir_000175_000120.html" target="_top" xlink:title="1">
<text text-anchor="middle" x="440.03" y="-35.34" font-family="Helvetica,sans-Serif" font-size="10.00" fill="#63b8ff">1</text>
</a>
</g>
</g>
<!-- dir_8aea3e2ac587a42c656c5e8806b5497a&#45;&gt;dir_c0fde34eb1aad6470b7c40f9528ecd51 -->
<g id="edge13" class="edge">
<title>dir_8aea3e2ac587a42c656c5e8806b5497a&#45;&gt;dir_c0fde34eb1aad6470b7c40f9528ecd51</title>
<path fill="none" stroke="#63b8ff" d="M487.01,-70.75C486.22,-63.8 485.1,-53.85 484.11,-45.13"/>
<polygon fill="#63b8ff" stroke="#63b8ff" points="487.58,-44.63 482.97,-35.09 480.62,-45.42 487.58,-44.63"/>
<g id="a_edge13&#45;headlabel"><a xlink:href="dir_000175_000098.html" target="_top" xlink:title="1">
<text text-anchor="middle" x="490.8" y="-45.38" font-family="Helvetica,sans-Serif" font-size="10.00" fill="#63b8ff">1</text>
</a>
</g>
</g>
<!-- dir_0669efae56692bb73da75efb5ebbccdf -->
<g id="node9" class="node">
<title>dir_0669efae56692bb73da75efb5ebbccdf</title>
<g id="a_node9"><a xlink:href="dir_0669efae56692bb73da75efb5ebbccdf.html" target="_top" xlink:title="function">
<polygon fill="#edf0f7" stroke="red" stroke-dasharray="5,2" points="586,-35 530,-35 530,-16 586,-16 586,-35"/>
<text text-anchor="middle" x="558" y="-23" font-family="Helvetica,sans-Serif" font-size="10.00">function</text>
</a>
</g>
</g>
<!-- dir_8aea3e2ac587a42c656c5e8806b5497a&#45;&gt;dir_0669efae56692bb73da75efb5ebbccdf -->
<g id="edge1" class="edge">
<title>dir_8aea3e2ac587a42c656c5e8806b5497a&#45;&gt;dir_0669efae56692bb73da75efb5ebbccdf</title>
<path fill="none" stroke="#63b8ff" d="M499.25,-70.98C509.8,-63 525.8,-50.88 538.44,-41.31"/>
<polygon fill="#63b8ff" stroke="#63b8ff" points="540.69,-44 546.55,-35.17 536.46,-38.42 540.69,-44"/>
<g id="a_edge1&#45;headlabel"><a xlink:href="dir_000175_000082.html" target="_top" xlink:title="5">
<text text-anchor="middle" x="539.54" y="-45.93" font-family="Helvetica,sans-Serif" font-size="10.00" fill="#63b8ff">5</text>
</a>
</g>
</g>
<!-- dir_30ecaf38acae77be14fb9173f98f8612 -->
<g id="node10" class="node">
<title>dir_30ecaf38acae77be14fb9173f98f8612</title>
<g id="a_node10"><a xlink:href="dir_30ecaf38acae77be14fb9173f98f8612.html" target="_top" xlink:title="types">
<polygon fill="#edf0f7" stroke="#7f7f7f" points="648,-35 604,-35 604,-16 648,-16 648,-35"/>
<text text-anchor="middle" x="626" y="-23" font-family="Helvetica,sans-Serif" font-size="10.00">types</text>
</a>
</g>
</g>
<!-- dir_8aea3e2ac587a42c656c5e8806b5497a&#45;&gt;dir_30ecaf38acae77be14fb9173f98f8612 -->
<g id="edge4" class="edge">
<title>dir_8aea3e2ac587a42c656c5e8806b5497a&#45;&gt;dir_30ecaf38acae77be14fb9173f98f8612</title>
<path fill="none" stroke="#63b8ff" d="M506.04,-72.57C528.42,-63.97 566.97,-49.17 594.33,-38.66"/>
<polygon fill="#63b8ff" stroke="#63b8ff" points="595.77,-41.86 603.85,-35.01 593.26,-35.33 595.77,-41.86"/>
<g id="a_edge4&#45;headlabel"><a xlink:href="dir_000175_000180.html" target="_top" xlink:title="1">
<text text-anchor="middle" x="593.43" y="-43.3" font-family="Helvetica,sans-Serif" font-size="10.00" fill="#63b8ff">1</text>
</a>
</g>
</g>
<!-- dir_4535887b2cdca47e625f259d07db0112 -->
<g id="node11" class="node">
<title>dir_4535887b2cdca47e625f259d07db0112</title>
<g id="a_node11"><a xlink:href="dir_4535887b2cdca47e625f259d07db0112.html" target="_top" xlink:title="util">
<polygon fill="#edf0f7" stroke="#7f7f7f" points="698,-35 666,-35 666,-16 698,-16 698,-35"/>
<text text-anchor="middle" x="682" y="-23" font-family="Helvetica,sans-Serif" font-size="10.00">util</text>
</a>
</g>
</g>
<!-- dir_8aea3e2ac587a42c656c5e8806b5497a&#45;&gt;dir_4535887b2cdca47e625f259d07db0112 -->
<g id="edge5" class="edge">
<title>dir_8aea3e2ac587a42c656c5e8806b5497a&#45;&gt;dir_4535887b2cdca47e625f259d07db0112</title>
<path fill="none" stroke="#63b8ff" d="M506.12,-75.17C535.61,-68.03 595.98,-53.04 656.25,-35.06"/>
<polygon fill="#63b8ff" stroke="#63b8ff" points="657.35,-38.39 665.92,-32.15 655.33,-31.68 657.35,-38.39"/>
<g id="a_edge5&#45;headlabel"><a xlink:href="dir_000175_000185.html" target="_top" xlink:title="7">
<text text-anchor="middle" x="654.72" y="-39.64" font-family="Helvetica,sans-Serif" font-size="10.00" fill="#63b8ff">7</text>
</a>
</g>
</g>
<!-- dir_942cfae36a92b6b1c4b510e99e852d40 -->
<g id="node12" class="node">
<title>dir_942cfae36a92b6b1c4b510e99e852d40</title>
<g id="a_node12"><a xlink:href="dir_942cfae36a92b6b1c4b510e99e852d40.html" target="_top" xlink:title="vocab">
<polygon fill="#edf0f7" stroke="red" stroke-dasharray="5,2" points="762,-35 716,-35 716,-16 762,-16 762,-35"/>
<text text-anchor="middle" x="739" y="-23" font-family="Helvetica,sans-Serif" font-size="10.00">vocab</text>
</a>
</g>
</g>
<!-- dir_8aea3e2ac587a42c656c5e8806b5497a&#45;&gt;dir_942cfae36a92b6b1c4b510e99e852d40 -->
<g id="edge9" class="edge">
<title>dir_8aea3e2ac587a42c656c5e8806b5497a&#45;&gt;dir_942cfae36a92b6b1c4b510e99e852d40</title>
<path fill="none" stroke="#63b8ff" d="M506.25,-76.17C542.45,-69.48 626.08,-53.64 706.22,-35.07"/>
<polygon fill="#63b8ff" stroke="#63b8ff" points="707.03,-38.48 715.97,-32.79 705.43,-31.66 707.03,-38.48"/>
<g id="a_edge9&#45;headlabel"><a xlink:href="dir_000175_000189.html" target="_top" xlink:title="5">
<text text-anchor="middle" x="704.17" y="-39.56" font-family="Helvetica,sans-Serif" font-size="10.00" fill="#63b8ff">5</text>
</a>
</g>
</g>
<!-- dir_a60d4453151dca6bdd8e5fcc350e379b -->
<g id="node13" class="node">
<title>dir_a60d4453151dca6bdd8e5fcc350e379b</title>
<g id="a_node13"><a xlink:href="dir_a60d4453151dca6bdd8e5fcc350e379b.html" target="_top" xlink:title="assert">
<polygon fill="#edf0f7" stroke="#7f7f7f" points="827.5,-35 780.5,-35 780.5,-16 827.5,-16 827.5,-35"/>
<text text-anchor="middle" x="804" y="-23" font-family="Helvetica,sans-Serif" font-size="10.00">assert</text>
</a>
</g>
</g>
<!-- dir_8aea3e2ac587a42c656c5e8806b5497a&#45;&gt;dir_a60d4453151dca6bdd8e5fcc350e379b -->
<g id="edge11" class="edge">
<title>dir_8aea3e2ac587a42c656c5e8806b5497a&#45;&gt;dir_a60d4453151dca6bdd8e5fcc350e379b</title>
<path fill="none" stroke="#63b8ff" d="M506.32,-77.24C550.15,-71.7 664.67,-56.47 770.4,-34.94"/>
<polygon fill="#63b8ff" stroke="#63b8ff" points="771.18,-38.35 780.27,-32.9 769.77,-31.49 771.18,-38.35"/>
<g id="a_edge11&#45;headlabel"><a xlink:href="dir_000175_000018.html" target="_top" xlink:title="2">
<text text-anchor="middle" x="768.24" y="-39.36" font-family="Helvetica,sans-Serif" font-size="10.00" fill="#63b8ff">2</text>
</a>
</g>
</g>
<!-- dir_aaf67126bd5deefc4d96704f76f22cc2 -->
<g id="node14" class="node">
<title>dir_aaf67126bd5deefc4d96704f76f22cc2</title>
<g id="a_node14"><a xlink:href="dir_aaf67126bd5deefc4d96704f76f22cc2.html" target="_top" xlink:title="platform">
<polygon fill="#edf0f7" stroke="#7f7f7f" points="904.5,-35 845.5,-35 845.5,-16 904.5,-16 904.5,-35"/>
<text text-anchor="middle" x="875" y="-23" font-family="Helvetica,sans-Serif" font-size="10.00">platform</text>
</a>
</g>
</g>
<!-- dir_8aea3e2ac587a42c656c5e8806b5497a&#45;&gt;dir_aaf67126bd5deefc4d96704f76f22cc2 -->
<g id="edge12" class="edge">
<title>dir_8aea3e2ac587a42c656c5e8806b5497a&#45;&gt;dir_aaf67126bd5deefc4d96704f76f22cc2</title>
<path fill="none" stroke="#63b8ff" d="M506.26,-77.78C556.89,-72.88 703.55,-57.82 834.95,-35.23"/>
<polygon fill="#63b8ff" stroke="#63b8ff" points="835.93,-38.61 845.18,-33.45 834.73,-31.71 835.93,-38.61"/>
<g id="a_edge12&#45;headlabel"><a xlink:href="dir_000175_000135.html" target="_top" xlink:title="4">
<text text-anchor="middle" x="832.88" y="-39.52" font-family="Helvetica,sans-Serif" font-size="10.00" fill="#63b8ff">4</text>
</a>
</g>
</g>
<!-- dir_f555f996eeee1ebe901dc71e0c5de8ff -->
<g id="node15" class="node">
<title>dir_f555f996eeee1ebe901dc71e0c5de8ff</title>
<g id="a_node15"><a xlink:href="dir_f555f996eeee1ebe901dc71e0c5de8ff.html" target="_top" xlink:title="meta">
<polygon fill="#edf0f7" stroke="#7f7f7f" points="965,-35 923,-35 923,-16 965,-16 965,-35"/>
<text text-anchor="middle" x="944" y="-23" font-family="Helvetica,sans-Serif" font-size="10.00">meta</text>
</a>
</g>
</g>
<!-- dir_8aea3e2ac587a42c656c5e8806b5497a&#45;&gt;dir_f555f996eeee1ebe901dc71e0c5de8ff -->
<g id="edge14" class="edge">
<title>dir_8aea3e2ac587a42c656c5e8806b5497a&#45;&gt;dir_f555f996eeee1ebe901dc71e0c5de8ff</title>
<path fill="none" stroke="#63b8ff" d="M506.02,-78.73C563.83,-76.02 749.89,-65.51 912.61,-34.94"/>
<polygon fill="#63b8ff" stroke="#63b8ff" points="913.64,-38.31 922.8,-32.99 912.32,-31.43 913.64,-38.31"/>
<g id="a_edge14&#45;headlabel"><a xlink:href="dir_000175_000122.html" target="_top" xlink:title="3">
<text text-anchor="middle" x="910.64" y="-39.27" font-family="Helvetica,sans-Serif" font-size="10.00" fill="#63b8ff">3</text>
</a>
</g>
</g>
</g>
</svg>
