<?xml version="1.0" encoding="UTF-8" standalone="no"?>
<!DOCTYPE svg PUBLIC "-//W3C//DTD SVG 1.1//EN"
 "http://www.w3.org/Graphics/SVG/1.1/DTD/svg11.dtd">
<!-- Generated by graphviz version 2.43.0 (0)
 -->
<!-- Title: libs/di/include/di/container/meta Pages: 1 -->
<svg width="616pt" height="133pt"
 viewBox="0.00 0.00 616.00 133.00" xmlns="http://www.w3.org/2000/svg" xmlns:xlink="http://www.w3.org/1999/xlink">
<g id="graph0" class="graph" transform="scale(1 1) rotate(0) translate(4 129)">
<title>libs/di/include/di/container/meta</title>
<g id="clust1" class="cluster">
<title>clusterdir_521de572ae4fe2915cc70a876c52f5b7</title>
<g id="a_clust1"><a xlink:href="dir_521de572ae4fe2915cc70a876c52f5b7.html" target="_top" xlink:title="container">
<polygon fill="#edf0f7" stroke="#7f7f7f" stroke-dasharray="5,2" points="8,-8 8,-117 292,-117 292,-8 8,-8"/>
<text text-anchor="middle" x="150" y="-105" font-family="Helvetica,sans-Serif" font-size="10.00">container</text>
</a>
</g>
</g>
<!-- dir_093cb0cf41c3d9bb25543a4e1702223c -->
<g id="node1" class="node">
<title>dir_093cb0cf41c3d9bb25543a4e1702223c</title>
<g id="a_node1"><a xlink:href="dir_093cb0cf41c3d9bb25543a4e1702223c.html" target="_top" xlink:title="iterator">
<polygon fill="#a2b4d6" stroke="#404040" points="69.5,-35 16.5,-35 16.5,-16 69.5,-16 69.5,-35"/>
<text text-anchor="middle" x="43" y="-23" font-family="Helvetica,sans-Serif" font-size="10.00">iterator</text>
</a>
</g>
</g>
<!-- dir_28cb5a05dfb61a4b9ad44e468e6394a4 -->
<g id="node2" class="node">
<title>dir_28cb5a05dfb61a4b9ad44e468e6394a4</title>
<g id="a_node2"><a xlink:href="dir_28cb5a05dfb61a4b9ad44e468e6394a4.html" target="_top" xlink:title="view">
<polygon fill="#a2b4d6" stroke="#404040" points="128,-35 88,-35 88,-16 128,-16 128,-35"/>
<text text-anchor="middle" x="108" y="-23" font-family="Helvetica,sans-Serif" font-size="10.00">view</text>
</a>
</g>
</g>
<!-- dir_838362f34bc8d8c3545343b0166aa672 -->
<g id="node3" class="node">
<title>dir_838362f34bc8d8c3545343b0166aa672</title>
<g id="a_node3"><a xlink:href="dir_838362f34bc8d8c3545343b0166aa672.html" target="_top" xlink:title="concepts">
<polygon fill="#a2b4d6" stroke="#404040" points="206,-35 146,-35 146,-16 206,-16 206,-35"/>
<text text-anchor="middle" x="176" y="-23" font-family="Helvetica,sans-Serif" font-size="10.00">concepts</text>
</a>
</g>
</g>
<!-- dir_dd6c062645334da7e8440ac2e54ccb1d -->
<g id="node4" class="node">
<title>dir_dd6c062645334da7e8440ac2e54ccb1d</title>
<g id="a_node4"><a xlink:href="dir_dd6c062645334da7e8440ac2e54ccb1d.html" target="_top" xlink:title="interface">
<polygon fill="#a2b4d6" stroke="#404040" points="284,-35 224,-35 224,-16 284,-16 284,-35"/>
<text text-anchor="middle" x="254" y="-23" font-family="Helvetica,sans-Serif" font-size="10.00">interface</text>
</a>
</g>
</g>
<!-- dir_9f8d33513cfc97e5f9ea6bf2671e5446 -->
<g id="node5" class="node">
<title>dir_9f8d33513cfc97e5f9ea6bf2671e5446</title>
<g id="a_node5"><a xlink:href="dir_9f8d33513cfc97e5f9ea6bf2671e5446.html" target="_top" xlink:title="meta">
<polygon fill="#edf0f7" stroke="#404040" stroke-width="2" points="284,-90 242,-90 242,-71 284,-71 284,-90"/>
<text text-anchor="middle" x="263" y="-78" font-family="Helvetica,sans-Serif" font-size="10.00">meta</text>
</a>
</g>
</g>
<!-- dir_9f8d33513cfc97e5f9ea6bf2671e5446&#45;&gt;dir_093cb0cf41c3d9bb25543a4e1702223c -->
<g id="edge2" class="edge">
<title>dir_9f8d33513cfc97e5f9ea6bf2671e5446&#45;&gt;dir_093cb0cf41c3d9bb25543a4e1702223c</title>
<path fill="none" stroke="#63b8ff" d="M241.91,-74.42C204.51,-65.41 126.17,-46.54 79.75,-35.35"/>
<polygon fill="#63b8ff" stroke="#63b8ff" points="80.34,-31.89 69.79,-32.95 78.7,-38.7 80.34,-31.89"/>
<g id="a_edge2&#45;headlabel"><a xlink:href="dir_000120_000108.html" target="_top" xlink:title="10">
<text text-anchor="middle" x="84.5" y="-27.48" font-family="Helvetica,sans-Serif" font-size="10.00" fill="#63b8ff">10</text>
</a>
</g>
</g>
<!-- dir_9f8d33513cfc97e5f9ea6bf2671e5446&#45;&gt;dir_28cb5a05dfb61a4b9ad44e468e6394a4 -->
<g id="edge3" class="edge">
<title>dir_9f8d33513cfc97e5f9ea6bf2671e5446&#45;&gt;dir_28cb5a05dfb61a4b9ad44e468e6394a4</title>
<path fill="none" stroke="#63b8ff" d="M241.77,-72.24C214.96,-63.07 168.64,-47.23 138.16,-36.81"/>
<polygon fill="#63b8ff" stroke="#63b8ff" points="139.07,-33.43 128.48,-33.5 136.81,-40.05 139.07,-33.43"/>
<g id="a_edge3&#45;headlabel"><a xlink:href="dir_000120_000188.html" target="_top" xlink:title="2">
<text text-anchor="middle" x="143.39" y="-29.4" font-family="Helvetica,sans-Serif" font-size="10.00" fill="#63b8ff">2</text>
</a>
</g>
</g>
<!-- dir_9f8d33513cfc97e5f9ea6bf2671e5446&#45;&gt;dir_838362f34bc8d8c3545343b0166aa672 -->
<g id="edge6" class="edge">
<title>dir_9f8d33513cfc97e5f9ea6bf2671e5446&#45;&gt;dir_838362f34bc8d8c3545343b0166aa672</title>
<path fill="none" stroke="#63b8ff" d="M249.02,-70.98C235.53,-62.77 214.87,-50.18 198.96,-40.49"/>
<polygon fill="#63b8ff" stroke="#63b8ff" points="200.59,-37.38 190.23,-35.17 196.95,-43.36 200.59,-37.38"/>
<g id="a_edge6&#45;headlabel"><a xlink:href="dir_000120_000037.html" target="_top" xlink:title="14">
<text text-anchor="middle" x="205.14" y="-34.33" font-family="Helvetica,sans-Serif" font-size="10.00" fill="#63b8ff">14</text>
</a>
</g>
</g>
<!-- dir_9f8d33513cfc97e5f9ea6bf2671e5446&#45;&gt;dir_dd6c062645334da7e8440ac2e54ccb1d -->
<g id="edge8" class="edge">
<title>dir_9f8d33513cfc97e5f9ea6bf2671e5446&#45;&gt;dir_dd6c062645334da7e8440ac2e54ccb1d</title>
<path fill="none" stroke="#63b8ff" d="M261.51,-70.75C260.33,-63.8 258.64,-53.85 257.16,-45.13"/>
<polygon fill="#63b8ff" stroke="#63b8ff" points="260.58,-44.36 255.46,-35.09 253.68,-45.53 260.58,-44.36"/>
<g id="a_edge8&#45;headlabel"><a xlink:href="dir_000120_000095.html" target="_top" xlink:title="8">
<text text-anchor="middle" x="263.98" y="-44.93" font-family="Helvetica,sans-Serif" font-size="10.00" fill="#63b8ff">8</text>
</a>
</g>
</g>
<!-- dir_0669efae56692bb73da75efb5ebbccdf -->
<g id="node6" class="node">
<title>dir_0669efae56692bb73da75efb5ebbccdf</title>
<g id="a_node6"><a xlink:href="dir_0669efae56692bb73da75efb5ebbccdf.html" target="_top" xlink:title="function">
<polygon fill="#edf0f7" stroke="red" stroke-dasharray="5,2" points="358,-35 302,-35 302,-16 358,-16 358,-35"/>
<text text-anchor="middle" x="330" y="-23" font-family="Helvetica,sans-Serif" font-size="10.00">function</text>
</a>
</g>
</g>
<!-- dir_9f8d33513cfc97e5f9ea6bf2671e5446&#45;&gt;dir_0669efae56692bb73da75efb5ebbccdf -->
<g id="edge1" class="edge">
<title>dir_9f8d33513cfc97e5f9ea6bf2671e5446&#45;&gt;dir_0669efae56692bb73da75efb5ebbccdf</title>
<path fill="none" stroke="#63b8ff" d="M273.76,-70.98C283.77,-63.07 298.89,-51.11 310.93,-41.58"/>
<polygon fill="#63b8ff" stroke="#63b8ff" points="313.37,-44.12 319.04,-35.17 309.03,-38.63 313.37,-44.12"/>
<g id="a_edge1&#45;headlabel"><a xlink:href="dir_000120_000082.html" target="_top" xlink:title="1">
<text text-anchor="middle" x="312.31" y="-46.08" font-family="Helvetica,sans-Serif" font-size="10.00" fill="#63b8ff">1</text>
</a>
</g>
</g>
<!-- dir_30ecaf38acae77be14fb9173f98f8612 -->
<g id="node7" class="node">
<title>dir_30ecaf38acae77be14fb9173f98f8612</title>
<g id="a_node7"><a xlink:href="dir_30ecaf38acae77be14fb9173f98f8612.html" target="_top" xlink:title="types">
<polygon fill="#edf0f7" stroke="#7f7f7f" points="420,-35 376,-35 376,-16 420,-16 420,-35"/>
<text text-anchor="middle" x="398" y="-23" font-family="Helvetica,sans-Serif" font-size="10.00">types</text>
</a>
</g>
</g>
<!-- dir_9f8d33513cfc97e5f9ea6bf2671e5446&#45;&gt;dir_30ecaf38acae77be14fb9173f98f8612 -->
<g id="edge4" class="edge">
<title>dir_9f8d33513cfc97e5f9ea6bf2671e5446&#45;&gt;dir_30ecaf38acae77be14fb9173f98f8612</title>
<path fill="none" stroke="#63b8ff" d="M284.09,-71.22C306.22,-62.53 341.25,-48.78 366.62,-38.82"/>
<polygon fill="#63b8ff" stroke="#63b8ff" points="368.13,-41.99 376.16,-35.07 365.57,-35.47 368.13,-41.99"/>
<g id="a_edge4&#45;headlabel"><a xlink:href="dir_000120_000180.html" target="_top" xlink:title="3">
<text text-anchor="middle" x="365.82" y="-43.44" font-family="Helvetica,sans-Serif" font-size="10.00" fill="#63b8ff">3</text>
</a>
</g>
</g>
<!-- dir_4535887b2cdca47e625f259d07db0112 -->
<g id="node8" class="node">
<title>dir_4535887b2cdca47e625f259d07db0112</title>
<g id="a_node8"><a xlink:href="dir_4535887b2cdca47e625f259d07db0112.html" target="_top" xlink:title="util">
<polygon fill="#edf0f7" stroke="#7f7f7f" points="470,-35 438,-35 438,-16 470,-16 470,-35"/>
<text text-anchor="middle" x="454" y="-23" font-family="Helvetica,sans-Serif" font-size="10.00">util</text>
</a>
</g>
</g>
<!-- dir_9f8d33513cfc97e5f9ea6bf2671e5446&#45;&gt;dir_4535887b2cdca47e625f259d07db0112 -->
<g id="edge5" class="edge">
<title>dir_9f8d33513cfc97e5f9ea6bf2671e5446&#45;&gt;dir_4535887b2cdca47e625f259d07db0112</title>
<path fill="none" stroke="#63b8ff" d="M284.09,-74.32C314.07,-66.86 370.91,-52.33 428.32,-35.05"/>
<polygon fill="#63b8ff" stroke="#63b8ff" points="429.36,-38.4 437.91,-32.14 427.33,-31.7 429.36,-38.4"/>
<g id="a_edge5&#45;headlabel"><a xlink:href="dir_000120_000185.html" target="_top" xlink:title="10">
<text text-anchor="middle" x="426.74" y="-39.66" font-family="Helvetica,sans-Serif" font-size="10.00" fill="#63b8ff">10</text>
</a>
</g>
</g>
<!-- dir_aaf67126bd5deefc4d96704f76f22cc2 -->
<g id="node9" class="node">
<title>dir_aaf67126bd5deefc4d96704f76f22cc2</title>
<g id="a_node9"><a xlink:href="dir_aaf67126bd5deefc4d96704f76f22cc2.html" target="_top" xlink:title="platform">
<polygon fill="#edf0f7" stroke="#7f7f7f" points="547.5,-35 488.5,-35 488.5,-16 547.5,-16 547.5,-35"/>
<text text-anchor="middle" x="518" y="-23" font-family="Helvetica,sans-Serif" font-size="10.00">platform</text>
</a>
</g>
</g>
<!-- dir_9f8d33513cfc97e5f9ea6bf2671e5446&#45;&gt;dir_aaf67126bd5deefc4d96704f76f22cc2 -->
<g id="edge7" class="edge">
<title>dir_9f8d33513cfc97e5f9ea6bf2671e5446&#45;&gt;dir_aaf67126bd5deefc4d96704f76f22cc2</title>
<path fill="none" stroke="#63b8ff" d="M284.17,-75.22C321.29,-67.7 400.77,-51.52 478.27,-35.14"/>
<polygon fill="#63b8ff" stroke="#63b8ff" points="479.14,-38.53 488.2,-33.03 477.69,-31.68 479.14,-38.53"/>
<g id="a_edge7&#45;headlabel"><a xlink:href="dir_000120_000135.html" target="_top" xlink:title="1">
<text text-anchor="middle" x="476.21" y="-39.55" font-family="Helvetica,sans-Serif" font-size="10.00" fill="#63b8ff">1</text>
</a>
</g>
</g>
<!-- dir_f555f996eeee1ebe901dc71e0c5de8ff -->
<g id="node10" class="node">
<title>dir_f555f996eeee1ebe901dc71e0c5de8ff</title>
<g id="a_node10"><a xlink:href="dir_f555f996eeee1ebe901dc71e0c5de8ff.html" target="_top" xlink:title="meta">
<polygon fill="#edf0f7" stroke="#7f7f7f" points="608,-35 566,-35 566,-16 608,-16 608,-35"/>
<text text-anchor="middle" x="587" y="-23" font-family="Helvetica,sans-Serif" font-size="10.00">meta</text>
</a>
</g>
</g>
<!-- dir_9f8d33513cfc97e5f9ea6bf2671e5446&#45;&gt;dir_f555f996eeee1ebe901dc71e0c5de8ff -->
<g id="edge9" class="edge">
<title>dir_9f8d33513cfc97e5f9ea6bf2671e5446&#45;&gt;dir_f555f996eeee1ebe901dc71e0c5de8ff</title>
<path fill="none" stroke="#63b8ff" d="M284.2,-77.22C331.32,-71.95 448.46,-57.79 555.76,-35.03"/>
<polygon fill="#63b8ff" stroke="#63b8ff" points="556.74,-38.4 565.78,-32.87 555.27,-31.55 556.74,-38.4"/>
<g id="a_edge9&#45;headlabel"><a xlink:href="dir_000120_000122.html" target="_top" xlink:title="11">
<text text-anchor="middle" x="553.82" y="-39.43" font-family="Helvetica,sans-Serif" font-size="10.00" fill="#63b8ff">11</text>
</a>
</g>
</g>
</g>
</svg>
