<?xml version="1.0" encoding="UTF-8" standalone="no"?>
<!DOCTYPE svg PUBLIC "-//W3C//DTD SVG 1.1//EN"
 "http://www.w3.org/Graphics/SVG/1.1/DTD/svg11.dtd">
<!-- Generated by graphviz version 2.43.0 (0)
 -->
<!-- Title: libs/di/include/di/format/builtin_formatter Pages: 1 -->
<svg width="588pt" height="133pt"
 viewBox="0.00 0.00 588.00 133.00" xmlns="http://www.w3.org/2000/svg" xmlns:xlink="http://www.w3.org/1999/xlink">
<g id="graph0" class="graph" transform="scale(1 1) rotate(0) translate(4 129)">
<title>libs/di/include/di/format/builtin_formatter</title>
<g id="clust1" class="cluster">
<title>clusterdir_e41b746b2bc627b26c4c637af42fb69a</title>
<g id="a_clust1"><a xlink:href="dir_e41b746b2bc627b26c4c637af42fb69a.html" target="_top" xlink:title="format">
<polygon fill="#edf0f7" stroke="#7f7f7f" stroke-dasharray="5,2" points="8,-8 8,-117 124,-117 124,-8 8,-8"/>
<text text-anchor="middle" x="66" y="-105" font-family="Helvetica,sans-Serif" font-size="10.00">format</text>
</a>
</g>
</g>
<!-- dir_e6fc299be1ce7cfcb6bece793d7977d6 -->
<g id="node1" class="node">
<title>dir_e6fc299be1ce7cfcb6bece793d7977d6</title>
<g id="a_node1"><a xlink:href="dir_e6fc299be1ce7cfcb6bece793d7977d6.html" target="_top" xlink:title="concepts">
<polygon fill="#a2b4d6" stroke="#404040" points="96,-35 36,-35 36,-16 96,-16 96,-35"/>
<text text-anchor="middle" x="66" y="-23" font-family="Helvetica,sans-Serif" font-size="10.00">concepts</text>
</a>
</g>
</g>
<!-- dir_e975c0b35c1e73197e1608db31437f28 -->
<g id="node2" class="node">
<title>dir_e975c0b35c1e73197e1608db31437f28</title>
<g id="a_node2"><a xlink:href="dir_e975c0b35c1e73197e1608db31437f28.html" target="_top" xlink:title="builtin_formatter">
<polygon fill="#edf0f7" stroke="#404040" stroke-width="2" points="115.5,-90 16.5,-90 16.5,-71 115.5,-71 115.5,-90"/>
<text text-anchor="middle" x="66" y="-78" font-family="Helvetica,sans-Serif" font-size="10.00">builtin_formatter</text>
</a>
</g>
</g>
<!-- dir_e975c0b35c1e73197e1608db31437f28&#45;&gt;dir_e6fc299be1ce7cfcb6bece793d7977d6 -->
<g id="edge7" class="edge">
<title>dir_e975c0b35c1e73197e1608db31437f28&#45;&gt;dir_e6fc299be1ce7cfcb6bece793d7977d6</title>
<path fill="none" stroke="#63b8ff" d="M66,-70.75C66,-63.8 66,-53.85 66,-45.13"/>
<polygon fill="#63b8ff" stroke="#63b8ff" points="69.5,-45.09 66,-35.09 62.5,-45.09 69.5,-45.09"/>
<g id="a_edge7&#45;headlabel"><a xlink:href="dir_000029_000039.html" target="_top" xlink:title="2">
<text text-anchor="middle" x="72.34" y="-46.18" font-family="Helvetica,sans-Serif" font-size="10.00" fill="#63b8ff">2</text>
</a>
</g>
</g>
<!-- dir_0669efae56692bb73da75efb5ebbccdf -->
<g id="node3" class="node">
<title>dir_0669efae56692bb73da75efb5ebbccdf</title>
<g id="a_node3"><a xlink:href="dir_0669efae56692bb73da75efb5ebbccdf.html" target="_top" xlink:title="function">
<polygon fill="#edf0f7" stroke="red" stroke-dasharray="5,2" points="188,-35 132,-35 132,-16 188,-16 188,-35"/>
<text text-anchor="middle" x="160" y="-23" font-family="Helvetica,sans-Serif" font-size="10.00">function</text>
</a>
</g>
</g>
<!-- dir_e975c0b35c1e73197e1608db31437f28&#45;&gt;dir_0669efae56692bb73da75efb5ebbccdf -->
<g id="edge1" class="edge">
<title>dir_e975c0b35c1e73197e1608db31437f28&#45;&gt;dir_0669efae56692bb73da75efb5ebbccdf</title>
<path fill="none" stroke="#63b8ff" d="M81.1,-70.98C95.82,-62.69 118.42,-49.94 135.67,-40.22"/>
<polygon fill="#63b8ff" stroke="#63b8ff" points="137.63,-43.13 144.62,-35.17 134.19,-37.03 137.63,-43.13"/>
<g id="a_edge1&#45;headlabel"><a xlink:href="dir_000029_000082.html" target="_top" xlink:title="1">
<text text-anchor="middle" x="135.89" y="-44.87" font-family="Helvetica,sans-Serif" font-size="10.00" fill="#63b8ff">1</text>
</a>
</g>
</g>
<!-- dir_30ecaf38acae77be14fb9173f98f8612 -->
<g id="node4" class="node">
<title>dir_30ecaf38acae77be14fb9173f98f8612</title>
<g id="a_node4"><a xlink:href="dir_30ecaf38acae77be14fb9173f98f8612.html" target="_top" xlink:title="types">
<polygon fill="#edf0f7" stroke="#7f7f7f" points="250,-35 206,-35 206,-16 250,-16 250,-35"/>
<text text-anchor="middle" x="228" y="-23" font-family="Helvetica,sans-Serif" font-size="10.00">types</text>
</a>
</g>
</g>
<!-- dir_e975c0b35c1e73197e1608db31437f28&#45;&gt;dir_30ecaf38acae77be14fb9173f98f8612 -->
<g id="edge2" class="edge">
<title>dir_e975c0b35c1e73197e1608db31437f28&#45;&gt;dir_30ecaf38acae77be14fb9173f98f8612</title>
<path fill="none" stroke="#63b8ff" d="M92.03,-70.98C120.31,-61.73 165.53,-46.94 195.98,-36.98"/>
<polygon fill="#63b8ff" stroke="#63b8ff" points="197.27,-40.24 205.69,-33.8 195.09,-33.58 197.27,-40.24"/>
<g id="a_edge2&#45;headlabel"><a xlink:href="dir_000029_000180.html" target="_top" xlink:title="3">
<text text-anchor="middle" x="194.74" y="-41.55" font-family="Helvetica,sans-Serif" font-size="10.00" fill="#63b8ff">3</text>
</a>
</g>
</g>
<!-- dir_521de572ae4fe2915cc70a876c52f5b7 -->
<g id="node5" class="node">
<title>dir_521de572ae4fe2915cc70a876c52f5b7</title>
<g id="a_node5"><a xlink:href="dir_521de572ae4fe2915cc70a876c52f5b7.html" target="_top" xlink:title="container">
<polygon fill="#edf0f7" stroke="red" stroke-dasharray="5,2" points="330,-35 268,-35 268,-16 330,-16 330,-35"/>
<text text-anchor="middle" x="299" y="-23" font-family="Helvetica,sans-Serif" font-size="10.00">container</text>
</a>
</g>
</g>
<!-- dir_e975c0b35c1e73197e1608db31437f28&#45;&gt;dir_521de572ae4fe2915cc70a876c52f5b7 -->
<g id="edge3" class="edge">
<title>dir_e975c0b35c1e73197e1608db31437f28&#45;&gt;dir_521de572ae4fe2915cc70a876c52f5b7</title>
<path fill="none" stroke="#63b8ff" d="M103.44,-70.98C145.71,-61.37 214.29,-45.77 257.99,-35.83"/>
<polygon fill="#63b8ff" stroke="#63b8ff" points="259.02,-39.18 267.99,-33.55 257.47,-32.36 259.02,-39.18"/>
<g id="a_edge3&#45;headlabel"><a xlink:href="dir_000029_000046.html" target="_top" xlink:title="14">
<text text-anchor="middle" x="256.14" y="-40.25" font-family="Helvetica,sans-Serif" font-size="10.00" fill="#63b8ff">14</text>
</a>
</g>
</g>
<!-- dir_60d1624911c2c9f7b6f38e44ec895aaa -->
<g id="node6" class="node">
<title>dir_60d1624911c2c9f7b6f38e44ec895aaa</title>
<g id="a_node6"><a xlink:href="dir_60d1624911c2c9f7b6f38e44ec895aaa.html" target="_top" xlink:title="math">
<polygon fill="#edf0f7" stroke="red" stroke-dasharray="5,2" points="390,-35 348,-35 348,-16 390,-16 390,-35"/>
<text text-anchor="middle" x="369" y="-23" font-family="Helvetica,sans-Serif" font-size="10.00">math</text>
</a>
</g>
</g>
<!-- dir_e975c0b35c1e73197e1608db31437f28&#45;&gt;dir_60d1624911c2c9f7b6f38e44ec895aaa -->
<g id="edge4" class="edge">
<title>dir_e975c0b35c1e73197e1608db31437f28&#45;&gt;dir_60d1624911c2c9f7b6f38e44ec895aaa</title>
<path fill="none" stroke="#63b8ff" d="M115.64,-73.15C168.51,-66 254.77,-53.22 337.91,-35.03"/>
<polygon fill="#63b8ff" stroke="#63b8ff" points="338.77,-38.42 347.77,-32.84 337.25,-31.59 338.77,-38.42"/>
<g id="a_edge4&#45;headlabel"><a xlink:href="dir_000029_000117.html" target="_top" xlink:title="3">
<text text-anchor="middle" x="335.87" y="-39.47" font-family="Helvetica,sans-Serif" font-size="10.00" fill="#63b8ff">3</text>
</a>
</g>
</g>
<!-- dir_942cfae36a92b6b1c4b510e99e852d40 -->
<g id="node7" class="node">
<title>dir_942cfae36a92b6b1c4b510e99e852d40</title>
<g id="a_node7"><a xlink:href="dir_942cfae36a92b6b1c4b510e99e852d40.html" target="_top" xlink:title="vocab">
<polygon fill="#edf0f7" stroke="red" stroke-dasharray="5,2" points="454,-35 408,-35 408,-16 454,-16 454,-35"/>
<text text-anchor="middle" x="431" y="-23" font-family="Helvetica,sans-Serif" font-size="10.00">vocab</text>
</a>
</g>
</g>
<!-- dir_e975c0b35c1e73197e1608db31437f28&#45;&gt;dir_942cfae36a92b6b1c4b510e99e852d40 -->
<g id="edge5" class="edge">
<title>dir_e975c0b35c1e73197e1608db31437f28&#45;&gt;dir_942cfae36a92b6b1c4b510e99e852d40</title>
<path fill="none" stroke="#63b8ff" d="M115.69,-74.85C179.08,-68.47 292.2,-55.63 397.8,-35.02"/>
<polygon fill="#63b8ff" stroke="#63b8ff" points="398.53,-38.44 407.66,-33.07 397.17,-31.57 398.53,-38.44"/>
<g id="a_edge5&#45;headlabel"><a xlink:href="dir_000029_000189.html" target="_top" xlink:title="1">
<text text-anchor="middle" x="395.56" y="-39.42" font-family="Helvetica,sans-Serif" font-size="10.00" fill="#63b8ff">1</text>
</a>
</g>
</g>
<!-- dir_c63ec87f2f7fd7fbd5b69a04f05a2815 -->
<g id="node8" class="node">
<title>dir_c63ec87f2f7fd7fbd5b69a04f05a2815</title>
<g id="a_node8"><a xlink:href="dir_c63ec87f2f7fd7fbd5b69a04f05a2815.html" target="_top" xlink:title="parser">
<polygon fill="#edf0f7" stroke="red" stroke-dasharray="5,2" points="519.5,-35 472.5,-35 472.5,-16 519.5,-16 519.5,-35"/>
<text text-anchor="middle" x="496" y="-23" font-family="Helvetica,sans-Serif" font-size="10.00">parser</text>
</a>
</g>
</g>
<!-- dir_e975c0b35c1e73197e1608db31437f28&#45;&gt;dir_c63ec87f2f7fd7fbd5b69a04f05a2815 -->
<g id="edge6" class="edge">
<title>dir_e975c0b35c1e73197e1608db31437f28&#45;&gt;dir_c63ec87f2f7fd7fbd5b69a04f05a2815</title>
<path fill="none" stroke="#63b8ff" d="M115.53,-76.19C189.06,-70.8 331.55,-58.45 462.12,-34.89"/>
<polygon fill="#63b8ff" stroke="#63b8ff" points="463.09,-38.27 472.3,-33.03 461.83,-31.39 463.09,-38.27"/>
<g id="a_edge6&#45;headlabel"><a xlink:href="dir_000029_000133.html" target="_top" xlink:title="1">
<text text-anchor="middle" x="460.06" y="-39.21" font-family="Helvetica,sans-Serif" font-size="10.00" fill="#63b8ff">1</text>
</a>
</g>
</g>
<!-- dir_f555f996eeee1ebe901dc71e0c5de8ff -->
<g id="node9" class="node">
<title>dir_f555f996eeee1ebe901dc71e0c5de8ff</title>
<g id="a_node9"><a xlink:href="dir_f555f996eeee1ebe901dc71e0c5de8ff.html" target="_top" xlink:title="meta">
<polygon fill="#edf0f7" stroke="#7f7f7f" points="580,-35 538,-35 538,-16 580,-16 580,-35"/>
<text text-anchor="middle" x="559" y="-23" font-family="Helvetica,sans-Serif" font-size="10.00">meta</text>
</a>
</g>
</g>
<!-- dir_e975c0b35c1e73197e1608db31437f28&#45;&gt;dir_f555f996eeee1ebe901dc71e0c5de8ff -->
<g id="edge8" class="edge">
<title>dir_e975c0b35c1e73197e1608db31437f28&#45;&gt;dir_f555f996eeee1ebe901dc71e0c5de8ff</title>
<path fill="none" stroke="#63b8ff" d="M115.75,-77.66C199.16,-73.93 372.54,-63.46 527.62,-34.92"/>
<polygon fill="#63b8ff" stroke="#63b8ff" points="528.62,-38.29 537.81,-33.02 527.33,-31.41 528.62,-38.29"/>
<g id="a_edge8&#45;headlabel"><a xlink:href="dir_000029_000122.html" target="_top" xlink:title="4">
<text text-anchor="middle" x="525.61" y="-39.25" font-family="Helvetica,sans-Serif" font-size="10.00" fill="#63b8ff">4</text>
</a>
</g>
</g>
</g>
</svg>
