<?xml version="1.0" encoding="UTF-8" standalone="no"?>
<!DOCTYPE svg PUBLIC "-//W3C//DTD SVG 1.1//EN"
 "http://www.w3.org/Graphics/SVG/1.1/DTD/svg11.dtd">
<!-- Generated by graphviz version 2.43.0 (0)
 -->
<!-- Title: libs/di/include/di/function/monad Pages: 1 -->
<svg width="162pt" height="117pt"
 viewBox="0.00 0.00 162.00 117.00" xmlns="http://www.w3.org/2000/svg" xmlns:xlink="http://www.w3.org/1999/xlink">
<g id="graph0" class="graph" transform="scale(1 1) rotate(0) translate(4 113)">
<title>libs/di/include/di/function/monad</title>
<g id="clust1" class="cluster">
<title>clusterdir_0669efae56692bb73da75efb5ebbccdf</title>
<g id="a_clust1"><a xlink:href="dir_0669efae56692bb73da75efb5ebbccdf.html" target="_top" xlink:title="function">
<polygon fill="#edf0f7" stroke="#7f7f7f" stroke-dasharray="5,2" points="45,-47 45,-101 111,-101 111,-47 45,-47"/>
<text text-anchor="middle" x="78" y="-89" font-family="Helvetica,sans-Serif" font-size="10.00">function</text>
</a>
</g>
</g>
<!-- dir_f09ada16cafd282b577fa641a584e35b -->
<g id="node1" class="node">
<title>dir_f09ada16cafd282b577fa641a584e35b</title>
<g id="a_node1"><a xlink:href="dir_f09ada16cafd282b577fa641a584e35b.html" target="_top" xlink:title="monad">
<polygon fill="#edf0f7" stroke="#404040" stroke-width="2" points="103,-74 53,-74 53,-55 103,-55 103,-74"/>
<text text-anchor="middle" x="78" y="-62" font-family="Helvetica,sans-Serif" font-size="10.00">monad</text>
</a>
</g>
</g>
<!-- dir_30ecaf38acae77be14fb9173f98f8612 -->
<g id="node2" class="node">
<title>dir_30ecaf38acae77be14fb9173f98f8612</title>
<g id="a_node2"><a xlink:href="dir_30ecaf38acae77be14fb9173f98f8612.html" target="_top" xlink:title="types">
<polygon fill="#edf0f7" stroke="#7f7f7f" points="44,-19 0,-19 0,0 44,0 44,-19"/>
<text text-anchor="middle" x="22" y="-7" font-family="Helvetica,sans-Serif" font-size="10.00">types</text>
</a>
</g>
</g>
<!-- dir_f09ada16cafd282b577fa641a584e35b&#45;&gt;dir_30ecaf38acae77be14fb9173f98f8612 -->
<g id="edge1" class="edge">
<title>dir_f09ada16cafd282b577fa641a584e35b&#45;&gt;dir_30ecaf38acae77be14fb9173f98f8612</title>
<path fill="none" stroke="#63b8ff" d="M69,-54.98C60.81,-47.23 48.49,-35.58 38.53,-26.14"/>
<polygon fill="#63b8ff" stroke="#63b8ff" points="40.83,-23.5 31.16,-19.17 36.02,-28.59 40.83,-23.5"/>
<g id="a_edge1&#45;headlabel"><a xlink:href="dir_000128_000180.html" target="_top" xlink:title="2">
<text text-anchor="middle" x="45.39" y="-21.41" font-family="Helvetica,sans-Serif" font-size="10.00" fill="#63b8ff">2</text>
</a>
</g>
</g>
<!-- dir_4535887b2cdca47e625f259d07db0112 -->
<g id="node3" class="node">
<title>dir_4535887b2cdca47e625f259d07db0112</title>
<g id="a_node3"><a xlink:href="dir_4535887b2cdca47e625f259d07db0112.html" target="_top" xlink:title="util">
<polygon fill="#edf0f7" stroke="#7f7f7f" points="94,-19 62,-19 62,0 94,0 94,-19"/>
<text text-anchor="middle" x="78" y="-7" font-family="Helvetica,sans-Serif" font-size="10.00">util</text>
</a>
</g>
</g>
<!-- dir_f09ada16cafd282b577fa641a584e35b&#45;&gt;dir_4535887b2cdca47e625f259d07db0112 -->
<g id="edge2" class="edge">
<title>dir_f09ada16cafd282b577fa641a584e35b&#45;&gt;dir_4535887b2cdca47e625f259d07db0112</title>
<path fill="none" stroke="#63b8ff" d="M78,-54.75C78,-47.8 78,-37.85 78,-29.13"/>
<polygon fill="#63b8ff" stroke="#63b8ff" points="81.5,-29.09 78,-19.09 74.5,-29.09 81.5,-29.09"/>
<g id="a_edge2&#45;headlabel"><a xlink:href="dir_000128_000185.html" target="_top" xlink:title="11">
<text text-anchor="middle" x="84.34" y="-30.18" font-family="Helvetica,sans-Serif" font-size="10.00" fill="#63b8ff">11</text>
</a>
</g>
</g>
<!-- dir_f555f996eeee1ebe901dc71e0c5de8ff -->
<g id="node4" class="node">
<title>dir_f555f996eeee1ebe901dc71e0c5de8ff</title>
<g id="a_node4"><a xlink:href="dir_f555f996eeee1ebe901dc71e0c5de8ff.html" target="_top" xlink:title="meta">
<polygon fill="#edf0f7" stroke="#7f7f7f" points="154,-19 112,-19 112,0 154,0 154,-19"/>
<text text-anchor="middle" x="133" y="-7" font-family="Helvetica,sans-Serif" font-size="10.00">meta</text>
</a>
</g>
</g>
<!-- dir_f09ada16cafd282b577fa641a584e35b&#45;&gt;dir_f555f996eeee1ebe901dc71e0c5de8ff -->
<g id="edge3" class="edge">
<title>dir_f09ada16cafd282b577fa641a584e35b&#45;&gt;dir_f555f996eeee1ebe901dc71e0c5de8ff</title>
<path fill="none" stroke="#63b8ff" d="M87.08,-54.75C95.09,-47.03 106.96,-35.6 116.62,-26.28"/>
<polygon fill="#63b8ff" stroke="#63b8ff" points="119.31,-28.55 124.09,-19.09 114.46,-23.51 119.31,-28.55"/>
<g id="a_edge3&#45;headlabel"><a xlink:href="dir_000128_000122.html" target="_top" xlink:title="2">
<text text-anchor="middle" x="118.7" y="-30.59" font-family="Helvetica,sans-Serif" font-size="10.00" fill="#63b8ff">2</text>
</a>
</g>
</g>
</g>
</svg>
