<?xml version="1.0" encoding="UTF-8" standalone="no"?>
<!DOCTYPE svg PUBLIC "-//W3C//DTD SVG 1.1//EN"
 "http://www.w3.org/Graphics/SVG/1.1/DTD/svg11.dtd">
<!-- Generated by graphviz version 2.43.0 (0)
 -->
<!-- Title: libs/di/include/di/assert Pages: 1 -->
<svg width="414pt" height="133pt"
 viewBox="0.00 0.00 414.00 133.00" xmlns="http://www.w3.org/2000/svg" xmlns:xlink="http://www.w3.org/1999/xlink">
<g id="graph0" class="graph" transform="scale(1 1) rotate(0) translate(4 129)">
<title>libs/di/include/di/assert</title>
<g id="clust1" class="cluster">
<title>clusterdir_f95a1a0ab1b96e316090c1bcac3c2c99</title>
<g id="a_clust1"><a xlink:href="dir_f95a1a0ab1b96e316090c1bcac3c2c99.html" target="_top" xlink:title="di">
<polygon fill="#edf0f7" stroke="#7f7f7f" stroke-dasharray="5,2" points="8,-8 8,-117 398,-117 398,-8 8,-8"/>
<text text-anchor="middle" x="203" y="-105" font-family="Helvetica,sans-Serif" font-size="10.00">di</text>
</a>
</g>
</g>
<!-- dir_0669efae56692bb73da75efb5ebbccdf -->
<g id="node1" class="node">
<title>dir_0669efae56692bb73da75efb5ebbccdf</title>
<g id="a_node1"><a xlink:href="dir_0669efae56692bb73da75efb5ebbccdf.html" target="_top" xlink:title="function">
<polygon fill="#a2b4d6" stroke="red" points="72,-35 16,-35 16,-16 72,-16 72,-35"/>
<text text-anchor="middle" x="44" y="-23" font-family="Helvetica,sans-Serif" font-size="10.00">function</text>
</a>
</g>
</g>
<!-- dir_4535887b2cdca47e625f259d07db0112 -->
<g id="node2" class="node">
<title>dir_4535887b2cdca47e625f259d07db0112</title>
<g id="a_node2"><a xlink:href="dir_4535887b2cdca47e625f259d07db0112.html" target="_top" xlink:title="util">
<polygon fill="#a2b4d6" stroke="#404040" points="122,-35 90,-35 90,-16 122,-16 122,-35"/>
<text text-anchor="middle" x="106" y="-23" font-family="Helvetica,sans-Serif" font-size="10.00">util</text>
</a>
</g>
</g>
<!-- dir_521de572ae4fe2915cc70a876c52f5b7 -->
<g id="node3" class="node">
<title>dir_521de572ae4fe2915cc70a876c52f5b7</title>
<g id="a_node3"><a xlink:href="dir_521de572ae4fe2915cc70a876c52f5b7.html" target="_top" xlink:title="container">
<polygon fill="#a2b4d6" stroke="red" points="202,-35 140,-35 140,-16 202,-16 202,-35"/>
<text text-anchor="middle" x="171" y="-23" font-family="Helvetica,sans-Serif" font-size="10.00">container</text>
</a>
</g>
</g>
<!-- dir_60d1624911c2c9f7b6f38e44ec895aaa -->
<g id="node4" class="node">
<title>dir_60d1624911c2c9f7b6f38e44ec895aaa</title>
<g id="a_node4"><a xlink:href="dir_60d1624911c2c9f7b6f38e44ec895aaa.html" target="_top" xlink:title="math">
<polygon fill="#a2b4d6" stroke="red" points="262,-35 220,-35 220,-16 262,-16 262,-35"/>
<text text-anchor="middle" x="241" y="-23" font-family="Helvetica,sans-Serif" font-size="10.00">math</text>
</a>
</g>
</g>
<!-- dir_e41b746b2bc627b26c4c637af42fb69a -->
<g id="node5" class="node">
<title>dir_e41b746b2bc627b26c4c637af42fb69a</title>
<g id="a_node5"><a xlink:href="dir_e41b746b2bc627b26c4c637af42fb69a.html" target="_top" xlink:title="format">
<polygon fill="#a2b4d6" stroke="red" points="330,-35 280,-35 280,-16 330,-16 330,-35"/>
<text text-anchor="middle" x="305" y="-23" font-family="Helvetica,sans-Serif" font-size="10.00">format</text>
</a>
</g>
</g>
<!-- dir_f555f996eeee1ebe901dc71e0c5de8ff -->
<g id="node6" class="node">
<title>dir_f555f996eeee1ebe901dc71e0c5de8ff</title>
<g id="a_node6"><a xlink:href="dir_f555f996eeee1ebe901dc71e0c5de8ff.html" target="_top" xlink:title="meta">
<polygon fill="#a2b4d6" stroke="#404040" points="390,-35 348,-35 348,-16 390,-16 390,-35"/>
<text text-anchor="middle" x="369" y="-23" font-family="Helvetica,sans-Serif" font-size="10.00">meta</text>
</a>
</g>
</g>
<!-- dir_a60d4453151dca6bdd8e5fcc350e379b -->
<g id="node7" class="node">
<title>dir_a60d4453151dca6bdd8e5fcc350e379b</title>
<g id="a_node7"><a xlink:href="dir_a60d4453151dca6bdd8e5fcc350e379b.html" target="_top" xlink:title="assert">
<polygon fill="#edf0f7" stroke="#404040" stroke-width="2" points="229.5,-90 182.5,-90 182.5,-71 229.5,-71 229.5,-90"/>
<text text-anchor="middle" x="206" y="-78" font-family="Helvetica,sans-Serif" font-size="10.00">assert</text>
</a>
</g>
</g>
<!-- dir_a60d4453151dca6bdd8e5fcc350e379b&#45;&gt;dir_0669efae56692bb73da75efb5ebbccdf -->
<g id="edge1" class="edge">
<title>dir_a60d4453151dca6bdd8e5fcc350e379b&#45;&gt;dir_0669efae56692bb73da75efb5ebbccdf</title>
<path fill="none" stroke="#63b8ff" d="M182.44,-71.79C155.44,-62.96 110.89,-48.38 79.64,-38.16"/>
<polygon fill="#63b8ff" stroke="#63b8ff" points="80.59,-34.79 70,-35.01 78.42,-41.44 80.59,-34.79"/>
<g id="a_edge1&#45;headlabel"><a xlink:href="dir_000018_000082.html" target="_top" xlink:title="6">
<text text-anchor="middle" x="84.89" y="-30.71" font-family="Helvetica,sans-Serif" font-size="10.00" fill="#63b8ff">6</text>
</a>
</g>
</g>
<!-- dir_a60d4453151dca6bdd8e5fcc350e379b&#45;&gt;dir_4535887b2cdca47e625f259d07db0112 -->
<g id="edge2" class="edge">
<title>dir_a60d4453151dca6bdd8e5fcc350e379b&#45;&gt;dir_4535887b2cdca47e625f259d07db0112</title>
<path fill="none" stroke="#63b8ff" d="M189.93,-70.98C174.04,-62.56 149.49,-49.55 131.04,-39.77"/>
<polygon fill="#63b8ff" stroke="#63b8ff" points="132.5,-36.58 122.03,-34.99 129.22,-42.77 132.5,-36.58"/>
<g id="a_edge2&#45;headlabel"><a xlink:href="dir_000018_000185.html" target="_top" xlink:title="5">
<text text-anchor="middle" x="137.01" y="-33.26" font-family="Helvetica,sans-Serif" font-size="10.00" fill="#63b8ff">5</text>
</a>
</g>
</g>
<!-- dir_a60d4453151dca6bdd8e5fcc350e379b&#45;&gt;dir_521de572ae4fe2915cc70a876c52f5b7 -->
<g id="edge3" class="edge">
<title>dir_a60d4453151dca6bdd8e5fcc350e379b&#45;&gt;dir_521de572ae4fe2915cc70a876c52f5b7</title>
<path fill="none" stroke="#63b8ff" d="M200.22,-70.75C195.38,-63.42 188.32,-52.73 182.36,-43.7"/>
<polygon fill="#63b8ff" stroke="#63b8ff" points="185.1,-41.5 176.67,-35.09 179.26,-45.36 185.1,-41.5"/>
<g id="a_edge3&#45;headlabel"><a xlink:href="dir_000018_000046.html" target="_top" xlink:title="1">
<text text-anchor="middle" x="189.45" y="-40.44" font-family="Helvetica,sans-Serif" font-size="10.00" fill="#63b8ff">1</text>
</a>
</g>
</g>
<!-- dir_a60d4453151dca6bdd8e5fcc350e379b&#45;&gt;dir_60d1624911c2c9f7b6f38e44ec895aaa -->
<g id="edge4" class="edge">
<title>dir_a60d4453151dca6bdd8e5fcc350e379b&#45;&gt;dir_60d1624911c2c9f7b6f38e44ec895aaa</title>
<path fill="none" stroke="#63b8ff" d="M211.78,-70.75C216.62,-63.42 223.68,-52.73 229.64,-43.7"/>
<polygon fill="#63b8ff" stroke="#63b8ff" points="232.74,-45.36 235.33,-35.09 226.9,-41.5 232.74,-45.36"/>
<g id="a_edge4&#45;headlabel"><a xlink:href="dir_000018_000117.html" target="_top" xlink:title="1">
<text text-anchor="middle" x="233.13" y="-47.43" font-family="Helvetica,sans-Serif" font-size="10.00" fill="#63b8ff">1</text>
</a>
</g>
</g>
<!-- dir_a60d4453151dca6bdd8e5fcc350e379b&#45;&gt;dir_e41b746b2bc627b26c4c637af42fb69a -->
<g id="edge5" class="edge">
<title>dir_a60d4453151dca6bdd8e5fcc350e379b&#45;&gt;dir_e41b746b2bc627b26c4c637af42fb69a</title>
<path fill="none" stroke="#63b8ff" d="M221.91,-70.98C237.55,-62.61 261.66,-49.7 279.88,-39.95"/>
<polygon fill="#63b8ff" stroke="#63b8ff" points="281.64,-42.98 288.8,-35.17 278.34,-36.8 281.64,-42.98"/>
<g id="a_edge5&#45;headlabel"><a xlink:href="dir_000018_000079.html" target="_top" xlink:title="4">
<text text-anchor="middle" x="279.81" y="-44.68" font-family="Helvetica,sans-Serif" font-size="10.00" fill="#63b8ff">4</text>
</a>
</g>
</g>
<!-- dir_a60d4453151dca6bdd8e5fcc350e379b&#45;&gt;dir_f555f996eeee1ebe901dc71e0c5de8ff -->
<g id="edge6" class="edge">
<title>dir_a60d4453151dca6bdd8e5fcc350e379b&#45;&gt;dir_f555f996eeee1ebe901dc71e0c5de8ff</title>
<path fill="none" stroke="#63b8ff" d="M229.7,-71.79C258.38,-62.47 306.74,-46.74 338.27,-36.49"/>
<polygon fill="#63b8ff" stroke="#63b8ff" points="339.44,-39.79 347.86,-33.37 337.27,-33.14 339.44,-39.79"/>
<g id="a_edge6&#45;headlabel"><a xlink:href="dir_000018_000122.html" target="_top" xlink:title="1">
<text text-anchor="middle" x="336.89" y="-41.11" font-family="Helvetica,sans-Serif" font-size="10.00" fill="#63b8ff">1</text>
</a>
</g>
</g>
</g>
</svg>
