<?xml version="1.0" encoding="UTF-8" standalone="no"?>
<!DOCTYPE svg PUBLIC "-//W3C//DTD SVG 1.1//EN"
 "http://www.w3.org/Graphics/SVG/1.1/DTD/svg11.dtd">
<!-- Generated by graphviz version 2.43.0 (0)
 -->
<!-- Title: libs/di/include/di/math/intcmp Pages: 1 -->
<svg width="176pt" height="117pt"
 viewBox="0.00 0.00 176.00 117.00" xmlns="http://www.w3.org/2000/svg" xmlns:xlink="http://www.w3.org/1999/xlink">
<g id="graph0" class="graph" transform="scale(1 1) rotate(0) translate(4 113)">
<title>libs/di/include/di/math/intcmp</title>
<g id="clust1" class="cluster">
<title>clusterdir_60d1624911c2c9f7b6f38e44ec895aaa</title>
<g id="a_clust1"><a xlink:href="dir_60d1624911c2c9f7b6f38e44ec895aaa.html" target="_top" xlink:title="math">
<polygon fill="#edf0f7" stroke="#7f7f7f" stroke-dasharray="5,2" points="52,-47 52,-101 118,-101 118,-47 52,-47"/>
<text text-anchor="middle" x="85" y="-89" font-family="Helvetica,sans-Serif" font-size="10.00">math</text>
</a>
</g>
</g>
<!-- dir_96f7d32698a29650115b9c86e570fc5e -->
<g id="node1" class="node">
<title>dir_96f7d32698a29650115b9c86e570fc5e</title>
<g id="a_node1"><a xlink:href="dir_96f7d32698a29650115b9c86e570fc5e.html" target="_top" xlink:title="intcmp">
<polygon fill="#edf0f7" stroke="#404040" stroke-width="2" points="110,-74 60,-74 60,-55 110,-55 110,-74"/>
<text text-anchor="middle" x="85" y="-62" font-family="Helvetica,sans-Serif" font-size="10.00">intcmp</text>
</a>
</g>
</g>
<!-- dir_30ecaf38acae77be14fb9173f98f8612 -->
<g id="node2" class="node">
<title>dir_30ecaf38acae77be14fb9173f98f8612</title>
<g id="a_node2"><a xlink:href="dir_30ecaf38acae77be14fb9173f98f8612.html" target="_top" xlink:title="types">
<polygon fill="#edf0f7" stroke="#7f7f7f" points="44,-19 0,-19 0,0 44,0 44,-19"/>
<text text-anchor="middle" x="22" y="-7" font-family="Helvetica,sans-Serif" font-size="10.00">types</text>
</a>
</g>
</g>
<!-- dir_96f7d32698a29650115b9c86e570fc5e&#45;&gt;dir_30ecaf38acae77be14fb9173f98f8612 -->
<g id="edge1" class="edge">
<title>dir_96f7d32698a29650115b9c86e570fc5e&#45;&gt;dir_30ecaf38acae77be14fb9173f98f8612</title>
<path fill="none" stroke="#63b8ff" d="M74.88,-54.98C65.56,-47.15 51.53,-35.34 40.26,-25.86"/>
<polygon fill="#63b8ff" stroke="#63b8ff" points="42.21,-22.93 32.31,-19.17 37.71,-28.29 42.21,-22.93"/>
<g id="a_edge1&#45;headlabel"><a xlink:href="dir_000094_000180.html" target="_top" xlink:title="1">
<text text-anchor="middle" x="46.79" y="-20.57" font-family="Helvetica,sans-Serif" font-size="10.00" fill="#63b8ff">1</text>
</a>
</g>
</g>
<!-- dir_942cfae36a92b6b1c4b510e99e852d40 -->
<g id="node3" class="node">
<title>dir_942cfae36a92b6b1c4b510e99e852d40</title>
<g id="a_node3"><a xlink:href="dir_942cfae36a92b6b1c4b510e99e852d40.html" target="_top" xlink:title="vocab">
<polygon fill="#edf0f7" stroke="red" stroke-dasharray="5,2" points="108,-19 62,-19 62,0 108,0 108,-19"/>
<text text-anchor="middle" x="85" y="-7" font-family="Helvetica,sans-Serif" font-size="10.00">vocab</text>
</a>
</g>
</g>
<!-- dir_96f7d32698a29650115b9c86e570fc5e&#45;&gt;dir_942cfae36a92b6b1c4b510e99e852d40 -->
<g id="edge2" class="edge">
<title>dir_96f7d32698a29650115b9c86e570fc5e&#45;&gt;dir_942cfae36a92b6b1c4b510e99e852d40</title>
<path fill="none" stroke="#63b8ff" d="M85,-54.75C85,-47.8 85,-37.85 85,-29.13"/>
<polygon fill="#63b8ff" stroke="#63b8ff" points="88.5,-29.09 85,-19.09 81.5,-29.09 88.5,-29.09"/>
<g id="a_edge2&#45;headlabel"><a xlink:href="dir_000094_000189.html" target="_top" xlink:title="2">
<text text-anchor="middle" x="91.34" y="-30.18" font-family="Helvetica,sans-Serif" font-size="10.00" fill="#63b8ff">2</text>
</a>
</g>
</g>
<!-- dir_f555f996eeee1ebe901dc71e0c5de8ff -->
<g id="node4" class="node">
<title>dir_f555f996eeee1ebe901dc71e0c5de8ff</title>
<g id="a_node4"><a xlink:href="dir_f555f996eeee1ebe901dc71e0c5de8ff.html" target="_top" xlink:title="meta">
<polygon fill="#edf0f7" stroke="#7f7f7f" points="168,-19 126,-19 126,0 168,0 168,-19"/>
<text text-anchor="middle" x="147" y="-7" font-family="Helvetica,sans-Serif" font-size="10.00">meta</text>
</a>
</g>
</g>
<!-- dir_96f7d32698a29650115b9c86e570fc5e&#45;&gt;dir_f555f996eeee1ebe901dc71e0c5de8ff -->
<g id="edge3" class="edge">
<title>dir_96f7d32698a29650115b9c86e570fc5e&#45;&gt;dir_f555f996eeee1ebe901dc71e0c5de8ff</title>
<path fill="none" stroke="#63b8ff" d="M94.96,-54.98C104.13,-47.15 117.94,-35.34 129.03,-25.86"/>
<polygon fill="#63b8ff" stroke="#63b8ff" points="131.53,-28.33 136.86,-19.17 126.98,-23.01 131.53,-28.33"/>
<g id="a_edge3&#45;headlabel"><a xlink:href="dir_000094_000122.html" target="_top" xlink:title="4">
<text text-anchor="middle" x="130.64" y="-30.32" font-family="Helvetica,sans-Serif" font-size="10.00" fill="#63b8ff">4</text>
</a>
</g>
</g>
</g>
</svg>
