<?xml version="1.0" encoding="UTF-8" standalone="no"?>
<!DOCTYPE svg PUBLIC "-//W3C//DTD SVG 1.1//EN"
 "http://www.w3.org/Graphics/SVG/1.1/DTD/svg11.dtd">
<!-- Generated by graphviz version 2.43.0 (0)
 -->
<!-- Title: iris Pages: 1 -->
<svg width="447pt" height="153pt"
 viewBox="0.00 0.00 447.00 153.00" xmlns="http://www.w3.org/2000/svg" xmlns:xlink="http://www.w3.org/1999/xlink">
<g id="graph0" class="graph" transform="scale(1 1) rotate(0) translate(4 149)">
<title>iris</title>
<g id="clust1" class="cluster">
<title>clusterdir_2605f0c6ea8f9a17a384edc9a2df15f4</title>
<g id="a_clust1"><a xlink:href="dir_2605f0c6ea8f9a17a384edc9a2df15f4.html" target="_top">
<polygon fill="#edf0f7" stroke="#404040" stroke-width="2" points="8,-47 8,-137 431,-137 431,-47 8,-47"/>
</a>
</g>
</g>
<!-- dir_2605f0c6ea8f9a17a384edc9a2df15f4 -->
<g id="node1" class="node">
<title>dir_2605f0c6ea8f9a17a384edc9a2df15f4</title>
<text text-anchor="middle" x="407" y="-117" font-family="Helvetica,sans-Serif" font-size="10.00">iris</text>
</g>
<!-- dir_6719ab1f1f7655efc2fa43f7eb574fd1 -->
<g id="node10" class="node">
<title>dir_6719ab1f1f7655efc2fa43f7eb574fd1</title>
<g id="a_node10"><a xlink:href="dir_6719ab1f1f7655efc2fa43f7eb574fd1.html" target="_top" xlink:title="libs">
<polygon fill="#edf0f7" stroke="red" points="257,-19 223,-19 223,0 257,0 257,-19"/>
<text text-anchor="middle" x="240" y="-7" font-family="Helvetica,sans-Serif" font-size="10.00">libs</text>
</a>
</g>
</g>
<!-- dir_2605f0c6ea8f9a17a384edc9a2df15f4&#45;&gt;dir_6719ab1f1f7655efc2fa43f7eb574fd1 -->
<g id="edge1" class="edge">
<title>dir_2605f0c6ea8f9a17a384edc9a2df15f4&#45;&gt;dir_6719ab1f1f7655efc2fa43f7eb574fd1</title>
<path fill="none" stroke="#63b8ff" d="M397.29,-109.85C381.03,-95.62 346.94,-66.88 315,-47 299.62,-37.42 281.35,-28.49 266.7,-21.86"/>
<polygon fill="#63b8ff" stroke="#63b8ff" points="267.78,-18.5 257.21,-17.65 264.94,-24.9 267.78,-18.5"/>
<g id="a_edge1&#45;headlabel"><a xlink:href="dir_000102_000109.html" target="_top" xlink:title="184">
<text text-anchor="middle" x="272.21" y="-14.86" font-family="Helvetica,sans-Serif" font-size="10.00" fill="#63b8ff">184</text>
</a>
</g>
</g>
<!-- dir_f2ff11f222a905ddb637e89c42daf582 -->
<g id="node2" class="node">
<title>dir_f2ff11f222a905ddb637e89c42daf582</title>
<g id="a_node2"><a xlink:href="dir_f2ff11f222a905ddb637e89c42daf582.html" target="_top" xlink:title="arch">
<polygon fill="#a2b4d6" stroke="#404040" points="317,-129 279,-129 279,-110 317,-110 317,-129"/>
<text text-anchor="middle" x="298" y="-117" font-family="Helvetica,sans-Serif" font-size="10.00">arch</text>
</a>
</g>
</g>
<!-- dir_29a765eed241630f2929477fec556e75 -->
<g id="node7" class="node">
<title>dir_29a765eed241630f2929477fec556e75</title>
<g id="a_node7"><a xlink:href="dir_29a765eed241630f2929477fec556e75.html" target="_top" xlink:title="include">
<polygon fill="#a2b4d6" stroke="#404040" points="98,-74 46,-74 46,-55 98,-55 98,-74"/>
<text text-anchor="middle" x="72" y="-62" font-family="Helvetica,sans-Serif" font-size="10.00">include</text>
</a>
</g>
</g>
<!-- dir_f2ff11f222a905ddb637e89c42daf582&#45;&gt;dir_29a765eed241630f2929477fec556e75 -->
<g id="edge3" class="edge">
<title>dir_f2ff11f222a905ddb637e89c42daf582&#45;&gt;dir_29a765eed241630f2929477fec556e75</title>
<path fill="none" stroke="#63b8ff" d="M278.77,-112.46C275.84,-111.6 272.85,-110.75 270,-110 213.87,-95.19 147.96,-81.01 108.12,-72.78"/>
<polygon fill="#63b8ff" stroke="#63b8ff" points="108.59,-69.31 98.09,-70.73 107.19,-76.16 108.59,-69.31"/>
<g id="a_edge3&#45;headlabel"><a xlink:href="dir_000010_000090.html" target="_top" xlink:title="123">
<text text-anchor="middle" x="112.69" y="-64.75" font-family="Helvetica,sans-Serif" font-size="10.00" fill="#63b8ff">123</text>
</a>
</g>
</g>
<!-- dir_f2ff11f222a905ddb637e89c42daf582&#45;&gt;dir_6719ab1f1f7655efc2fa43f7eb574fd1 -->
<g id="edge2" class="edge">
<title>dir_f2ff11f222a905ddb637e89c42daf582&#45;&gt;dir_6719ab1f1f7655efc2fa43f7eb574fd1</title>
<path fill="none" stroke="#63b8ff" d="M295.17,-109.8C290.49,-95.99 280.43,-68.42 268,-47 264.01,-40.13 258.9,-33.09 254.14,-27.05"/>
<polygon fill="#63b8ff" stroke="#63b8ff" points="256.62,-24.56 247.58,-19.05 251.21,-29 256.62,-24.56"/>
<g id="a_edge2&#45;headlabel"><a xlink:href="dir_000010_000109.html" target="_top" xlink:title="7">
<text text-anchor="middle" x="261.1" y="-23.04" font-family="Helvetica,sans-Serif" font-size="10.00" fill="#63b8ff">7</text>
</a>
</g>
</g>
<!-- dir_137ec6a6d255f62d8ed043aa6445439f -->
<g id="node3" class="node">
<title>dir_137ec6a6d255f62d8ed043aa6445439f</title>
<g id="a_node3"><a xlink:href="dir_137ec6a6d255f62d8ed043aa6445439f.html" target="_top" xlink:title="boot">
<polygon fill="#a2b4d6" stroke="#404040" points="373,-129 335,-129 335,-110 373,-110 373,-129"/>
<text text-anchor="middle" x="354" y="-117" font-family="Helvetica,sans-Serif" font-size="10.00">boot</text>
</a>
</g>
</g>
<!-- dir_137ec6a6d255f62d8ed043aa6445439f&#45;&gt;dir_29a765eed241630f2929477fec556e75 -->
<g id="edge4" class="edge">
<title>dir_137ec6a6d255f62d8ed043aa6445439f&#45;&gt;dir_29a765eed241630f2929477fec556e75</title>
<path fill="none" stroke="#63b8ff" d="M334.8,-112.34C331.87,-111.49 328.87,-110.68 326,-110 249.16,-91.68 157.58,-77.47 108.08,-70.41"/>
<polygon fill="#63b8ff" stroke="#63b8ff" points="108.57,-66.95 98.17,-69.02 107.59,-73.88 108.57,-66.95"/>
<g id="a_edge4&#45;headlabel"><a xlink:href="dir_000027_000090.html" target="_top" xlink:title="17">
<text text-anchor="middle" x="112.52" y="-62.14" font-family="Helvetica,sans-Serif" font-size="10.00" fill="#63b8ff">17</text>
</a>
</g>
</g>
<!-- dir_137ec6a6d255f62d8ed043aa6445439f&#45;&gt;dir_6719ab1f1f7655efc2fa43f7eb574fd1 -->
<g id="edge5" class="edge">
<title>dir_137ec6a6d255f62d8ed043aa6445439f&#45;&gt;dir_6719ab1f1f7655efc2fa43f7eb574fd1</title>
<path fill="none" stroke="#63b8ff" d="M346.73,-109.68C335.03,-95.7 311,-67.91 288,-47 279.52,-39.29 269.51,-31.5 260.83,-25.1"/>
<polygon fill="#63b8ff" stroke="#63b8ff" points="262.86,-22.25 252.71,-19.23 258.76,-27.93 262.86,-22.25"/>
<g id="a_edge5&#45;headlabel"><a xlink:href="dir_000027_000109.html" target="_top" xlink:title="2">
<text text-anchor="middle" x="267.44" y="-19.56" font-family="Helvetica,sans-Serif" font-size="10.00" fill="#63b8ff">2</text>
</a>
</g>
</g>
<!-- dir_83b4b359322160b6ecc771995724f605 -->
<g id="node4" class="node">
<title>dir_83b4b359322160b6ecc771995724f605</title>
<g id="a_node4"><a xlink:href="dir_83b4b359322160b6ecc771995724f605.html" target="_top" xlink:title="core">
<polygon fill="#a2b4d6" stroke="#404040" points="54,-129 16,-129 16,-110 54,-110 54,-129"/>
<text text-anchor="middle" x="35" y="-117" font-family="Helvetica,sans-Serif" font-size="10.00">core</text>
</a>
</g>
</g>
<!-- dir_83b4b359322160b6ecc771995724f605&#45;&gt;dir_29a765eed241630f2929477fec556e75 -->
<g id="edge6" class="edge">
<title>dir_83b4b359322160b6ecc771995724f605&#45;&gt;dir_29a765eed241630f2929477fec556e75</title>
<path fill="none" stroke="#63b8ff" d="M41.11,-109.75C46.28,-102.34 53.85,-91.5 60.19,-82.41"/>
<polygon fill="#63b8ff" stroke="#63b8ff" points="63.15,-84.29 66,-74.09 57.41,-80.29 63.15,-84.29"/>
<g id="a_edge6&#45;headlabel"><a xlink:href="dir_000050_000090.html" target="_top" xlink:title="42">
<text text-anchor="middle" x="63.42" y="-86.36" font-family="Helvetica,sans-Serif" font-size="10.00" fill="#63b8ff">42</text>
</a>
</g>
</g>
<!-- dir_83b4b359322160b6ecc771995724f605&#45;&gt;dir_6719ab1f1f7655efc2fa43f7eb574fd1 -->
<g id="edge7" class="edge">
<title>dir_83b4b359322160b6ecc771995724f605&#45;&gt;dir_6719ab1f1f7655efc2fa43f7eb574fd1</title>
<path fill="none" stroke="#63b8ff" d="M50.27,-109.86C65.1,-101.27 88.1,-87.48 107,-74 122.43,-62.99 123.53,-56.38 140,-47 163.35,-33.7 192.45,-23.73 213.22,-17.6"/>
<polygon fill="#63b8ff" stroke="#63b8ff" points="214.31,-20.93 222.97,-14.82 212.39,-14.2 214.31,-20.93"/>
<g id="a_edge7&#45;headlabel"><a xlink:href="dir_000050_000109.html" target="_top" xlink:title="9">
<text text-anchor="middle" x="211.63" y="-22.14" font-family="Helvetica,sans-Serif" font-size="10.00" fill="#63b8ff">9</text>
</a>
</g>
</g>
<!-- dir_fc3be540ee5038c39c0d538e735f8a33 -->
<g id="node5" class="node">
<title>dir_fc3be540ee5038c39c0d538e735f8a33</title>
<g id="a_node5"><a xlink:href="dir_fc3be540ee5038c39c0d538e735f8a33.html" target="_top" xlink:title="fs">
<polygon fill="#a2b4d6" stroke="#404040" points="101.5,-129 72.5,-129 72.5,-110 101.5,-110 101.5,-129"/>
<text text-anchor="middle" x="87" y="-117" font-family="Helvetica,sans-Serif" font-size="10.00">fs</text>
</a>
</g>
</g>
<!-- dir_fc3be540ee5038c39c0d538e735f8a33&#45;&gt;dir_29a765eed241630f2929477fec556e75 -->
<g id="edge8" class="edge">
<title>dir_fc3be540ee5038c39c0d538e735f8a33&#45;&gt;dir_29a765eed241630f2929477fec556e75</title>
<path fill="none" stroke="#63b8ff" d="M84.52,-109.75C82.54,-102.72 79.68,-92.62 77.19,-83.84"/>
<polygon fill="#63b8ff" stroke="#63b8ff" points="80.52,-82.76 74.43,-74.09 73.79,-84.66 80.52,-82.76"/>
<g id="a_edge8&#45;headlabel"><a xlink:href="dir_000080_000090.html" target="_top" xlink:title="35">
<text text-anchor="middle" x="84.23" y="-82.94" font-family="Helvetica,sans-Serif" font-size="10.00" fill="#63b8ff">35</text>
</a>
</g>
</g>
<!-- dir_fc3be540ee5038c39c0d538e735f8a33&#45;&gt;dir_6719ab1f1f7655efc2fa43f7eb574fd1 -->
<g id="edge9" class="edge">
<title>dir_fc3be540ee5038c39c0d538e735f8a33&#45;&gt;dir_6719ab1f1f7655efc2fa43f7eb574fd1</title>
<path fill="none" stroke="#63b8ff" d="M97.03,-109.89C113.45,-95.96 147.3,-67.96 178,-47 189.85,-38.91 203.54,-30.74 215.04,-24.18"/>
<polygon fill="#63b8ff" stroke="#63b8ff" points="217.1,-27.04 224.1,-19.09 213.67,-20.94 217.1,-27.04"/>
<g id="a_edge9&#45;headlabel"><a xlink:href="dir_000080_000109.html" target="_top" xlink:title="20">
<text text-anchor="middle" x="215.36" y="-28.77" font-family="Helvetica,sans-Serif" font-size="10.00" fill="#63b8ff">20</text>
</a>
</g>
</g>
<!-- dir_675dedb16c240190ff5f5386f85fd715 -->
<g id="node6" class="node">
<title>dir_675dedb16c240190ff5f5386f85fd715</title>
<g id="a_node6"><a xlink:href="dir_675dedb16c240190ff5f5386f85fd715.html" target="_top" xlink:title="hw">
<polygon fill="#a2b4d6" stroke="#404040" points="150.5,-129 119.5,-129 119.5,-110 150.5,-110 150.5,-129"/>
<text text-anchor="middle" x="135" y="-117" font-family="Helvetica,sans-Serif" font-size="10.00">hw</text>
</a>
</g>
</g>
<!-- dir_675dedb16c240190ff5f5386f85fd715&#45;&gt;dir_29a765eed241630f2929477fec556e75 -->
<g id="edge10" class="edge">
<title>dir_675dedb16c240190ff5f5386f85fd715&#45;&gt;dir_29a765eed241630f2929477fec556e75</title>
<path fill="none" stroke="#63b8ff" d="M124.88,-109.98C115.56,-102.15 101.53,-90.34 90.26,-80.86"/>
<polygon fill="#63b8ff" stroke="#63b8ff" points="92.21,-77.93 82.31,-74.17 87.71,-83.29 92.21,-77.93"/>
<g id="a_edge10&#45;headlabel"><a xlink:href="dir_000087_000090.html" target="_top" xlink:title="17">
<text text-anchor="middle" x="96.79" y="-75.57" font-family="Helvetica,sans-Serif" font-size="10.00" fill="#63b8ff">17</text>
</a>
</g>
</g>
<!-- dir_675dedb16c240190ff5f5386f85fd715&#45;&gt;dir_6719ab1f1f7655efc2fa43f7eb574fd1 -->
<g id="edge11" class="edge">
<title>dir_675dedb16c240190ff5f5386f85fd715&#45;&gt;dir_6719ab1f1f7655efc2fa43f7eb574fd1</title>
<path fill="none" stroke="#63b8ff" d="M143.59,-109.66C161.29,-91.46 202.04,-49.55 224.48,-26.47"/>
<polygon fill="#63b8ff" stroke="#63b8ff" points="227.12,-28.77 231.58,-19.16 222.1,-23.89 227.12,-28.77"/>
<g id="a_edge11&#45;headlabel"><a xlink:href="dir_000087_000109.html" target="_top" xlink:title="1">
<text text-anchor="middle" x="226.65" y="-30.82" font-family="Helvetica,sans-Serif" font-size="10.00" fill="#63b8ff">1</text>
</a>
</g>
</g>
<!-- dir_29a765eed241630f2929477fec556e75&#45;&gt;dir_6719ab1f1f7655efc2fa43f7eb574fd1 -->
<g id="edge12" class="edge">
<title>dir_29a765eed241630f2929477fec556e75&#45;&gt;dir_6719ab1f1f7655efc2fa43f7eb574fd1</title>
<path fill="none" stroke="#63b8ff" d="M91.36,-55C97.86,-52.28 105.19,-49.37 112,-47 146.34,-35.06 186.81,-24.01 212.91,-17.27"/>
<polygon fill="#63b8ff" stroke="#63b8ff" points="214.01,-20.6 222.83,-14.73 212.27,-13.82 214.01,-20.6"/>
<g id="a_edge12&#45;headlabel"><a xlink:href="dir_000090_000109.html" target="_top" xlink:title="134">
<text text-anchor="middle" x="211.23" y="-21.74" font-family="Helvetica,sans-Serif" font-size="10.00" fill="#63b8ff">134</text>
</a>
</g>
</g>
<!-- dir_8458728a750598b4918c185cdd2ea453 -->
<g id="node8" class="node">
<title>dir_8458728a750598b4918c185cdd2ea453</title>
<g id="a_node8"><a xlink:href="dir_8458728a750598b4918c185cdd2ea453.html" target="_top" xlink:title="mm">
<polygon fill="#a2b4d6" stroke="#404040" points="205,-129 169,-129 169,-110 205,-110 205,-129"/>
<text text-anchor="middle" x="187" y="-117" font-family="Helvetica,sans-Serif" font-size="10.00">mm</text>
</a>
</g>
</g>
<!-- dir_8458728a750598b4918c185cdd2ea453&#45;&gt;dir_29a765eed241630f2929477fec556e75 -->
<g id="edge13" class="edge">
<title>dir_8458728a750598b4918c185cdd2ea453&#45;&gt;dir_29a765eed241630f2929477fec556e75</title>
<path fill="none" stroke="#63b8ff" d="M168.78,-110.1C150.21,-101.55 121.19,-88.17 99.76,-78.29"/>
<polygon fill="#63b8ff" stroke="#63b8ff" points="101.06,-75.04 90.52,-74.03 98.13,-81.4 101.06,-75.04"/>
<g id="a_edge13&#45;headlabel"><a xlink:href="dir_000127_000090.html" target="_top" xlink:title="19">
<text text-anchor="middle" x="105.52" y="-71.47" font-family="Helvetica,sans-Serif" font-size="10.00" fill="#63b8ff">19</text>
</a>
</g>
</g>
<!-- dir_8458728a750598b4918c185cdd2ea453&#45;&gt;dir_6719ab1f1f7655efc2fa43f7eb574fd1 -->
<g id="edge14" class="edge">
<title>dir_8458728a750598b4918c185cdd2ea453&#45;&gt;dir_6719ab1f1f7655efc2fa43f7eb574fd1</title>
<path fill="none" stroke="#63b8ff" d="M193.36,-109.97C199.67,-101.25 209.33,-87.16 216,-74 223.41,-59.38 229.86,-41.91 234.19,-29"/>
<polygon fill="#63b8ff" stroke="#63b8ff" points="237.55,-29.97 237.32,-19.38 230.9,-27.81 237.55,-29.97"/>
<g id="a_edge14&#45;headlabel"><a xlink:href="dir_000127_000109.html" target="_top" xlink:title="6">
<text text-anchor="middle" x="239.14" y="-31.77" font-family="Helvetica,sans-Serif" font-size="10.00" fill="#63b8ff">6</text>
</a>
</g>
</g>
<!-- dir_e895c7bd49bd1e4c3e28946d53f9cbd5 -->
<g id="node9" class="node">
<title>dir_e895c7bd49bd1e4c3e28946d53f9cbd5</title>
<g id="a_node9"><a xlink:href="dir_e895c7bd49bd1e4c3e28946d53f9cbd5.html" target="_top" xlink:title="uapi">
<polygon fill="#a2b4d6" stroke="#404040" points="261,-129 223,-129 223,-110 261,-110 261,-129"/>
<text text-anchor="middle" x="242" y="-117" font-family="Helvetica,sans-Serif" font-size="10.00">uapi</text>
</a>
</g>
</g>
<!-- dir_e895c7bd49bd1e4c3e28946d53f9cbd5&#45;&gt;dir_29a765eed241630f2929477fec556e75 -->
<g id="edge15" class="edge">
<title>dir_e895c7bd49bd1e4c3e28946d53f9cbd5&#45;&gt;dir_29a765eed241630f2929477fec556e75</title>
<path fill="none" stroke="#63b8ff" d="M222.83,-112.52C195.01,-103.85 142.95,-87.62 107.88,-76.69"/>
<polygon fill="#63b8ff" stroke="#63b8ff" points="108.62,-73.25 98.03,-73.61 106.53,-79.93 108.62,-73.25"/>
<g id="a_edge15&#45;headlabel"><a xlink:href="dir_000182_000090.html" target="_top" xlink:title="9">
<text text-anchor="middle" x="112.89" y="-69.11" font-family="Helvetica,sans-Serif" font-size="10.00" fill="#63b8ff">9</text>
</a>
</g>
</g>
<!-- dir_e895c7bd49bd1e4c3e28946d53f9cbd5&#45;&gt;dir_6719ab1f1f7655efc2fa43f7eb574fd1 -->
<g id="edge16" class="edge">
<title>dir_e895c7bd49bd1e4c3e28946d53f9cbd5&#45;&gt;dir_6719ab1f1f7655efc2fa43f7eb574fd1</title>
<path fill="none" stroke="#63b8ff" d="M245.47,-109.68C250.35,-96.16 258.17,-69.52 254,-47 252.86,-40.83 250.71,-34.35 248.44,-28.59"/>
<polygon fill="#63b8ff" stroke="#63b8ff" points="251.57,-27.03 244.4,-19.23 245.15,-29.8 251.57,-27.03"/>
<g id="a_edge16&#45;headlabel"><a xlink:href="dir_000182_000109.html" target="_top" xlink:title="1">
<text text-anchor="middle" x="255.61" y="-26.7" font-family="Helvetica,sans-Serif" font-size="10.00" fill="#63b8ff">1</text>
</a>
</g>
</g>
</g>
</svg>
