<?xml version="1.0" encoding="UTF-8" standalone="no"?>
<!DOCTYPE svg PUBLIC "-//W3C//DTD SVG 1.1//EN"
 "http://www.w3.org/Graphics/SVG/1.1/DTD/svg11.dtd">
<!-- Generated by graphviz version 2.43.0 (0)
 -->
<!-- Title: libs/di/include/di/any/dispatch Pages: 1 -->
<svg width="264pt" height="133pt"
 viewBox="0.00 0.00 264.00 133.00" xmlns="http://www.w3.org/2000/svg" xmlns:xlink="http://www.w3.org/1999/xlink">
<g id="graph0" class="graph" transform="scale(1 1) rotate(0) translate(4 129)">
<title>libs/di/include/di/any/dispatch</title>
<g id="clust1" class="cluster">
<title>clusterdir_e44b40e2f7a090819cf1915a0b103ff1</title>
<g id="a_clust1"><a xlink:href="dir_e44b40e2f7a090819cf1915a0b103ff1.html" target="_top" xlink:title="any">
<polygon fill="#edf0f7" stroke="#7f7f7f" stroke-dasharray="5,2" points="8,-8 8,-117 82,-117 82,-8 8,-8"/>
<text text-anchor="middle" x="45" y="-105" font-family="Helvetica,sans-Serif" font-size="10.00">any</text>
</a>
</g>
</g>
<!-- dir_d6a825e771e88c34a7e5a1c5f3d40fba -->
<g id="node1" class="node">
<title>dir_d6a825e771e88c34a7e5a1c5f3d40fba</title>
<g id="a_node1"><a xlink:href="dir_d6a825e771e88c34a7e5a1c5f3d40fba.html" target="_top" xlink:title="types">
<polygon fill="#a2b4d6" stroke="#404040" points="67,-35 23,-35 23,-16 67,-16 67,-35"/>
<text text-anchor="middle" x="45" y="-23" font-family="Helvetica,sans-Serif" font-size="10.00">types</text>
</a>
</g>
</g>
<!-- dir_fe80feb456c9e3616a5524568c0a73c7 -->
<g id="node2" class="node">
<title>dir_fe80feb456c9e3616a5524568c0a73c7</title>
<g id="a_node2"><a xlink:href="dir_fe80feb456c9e3616a5524568c0a73c7.html" target="_top" xlink:title="dispatch">
<polygon fill="#edf0f7" stroke="#404040" stroke-width="2" points="74,-90 16,-90 16,-71 74,-71 74,-90"/>
<text text-anchor="middle" x="45" y="-78" font-family="Helvetica,sans-Serif" font-size="10.00">dispatch</text>
</a>
</g>
</g>
<!-- dir_fe80feb456c9e3616a5524568c0a73c7&#45;&gt;dir_d6a825e771e88c34a7e5a1c5f3d40fba -->
<g id="edge3" class="edge">
<title>dir_fe80feb456c9e3616a5524568c0a73c7&#45;&gt;dir_d6a825e771e88c34a7e5a1c5f3d40fba</title>
<path fill="none" stroke="#63b8ff" d="M45,-70.75C45,-63.8 45,-53.85 45,-45.13"/>
<polygon fill="#63b8ff" stroke="#63b8ff" points="48.5,-45.09 45,-35.09 41.5,-45.09 48.5,-45.09"/>
<g id="a_edge3&#45;headlabel"><a xlink:href="dir_000060_000177.html" target="_top" xlink:title="1">
<text text-anchor="middle" x="51.34" y="-46.18" font-family="Helvetica,sans-Serif" font-size="10.00" fill="#63b8ff">1</text>
</a>
</g>
</g>
<!-- dir_0669efae56692bb73da75efb5ebbccdf -->
<g id="node3" class="node">
<title>dir_0669efae56692bb73da75efb5ebbccdf</title>
<g id="a_node3"><a xlink:href="dir_0669efae56692bb73da75efb5ebbccdf.html" target="_top" xlink:title="function">
<polygon fill="#edf0f7" stroke="red" stroke-dasharray="5,2" points="146,-35 90,-35 90,-16 146,-16 146,-35"/>
<text text-anchor="middle" x="118" y="-23" font-family="Helvetica,sans-Serif" font-size="10.00">function</text>
</a>
</g>
</g>
<!-- dir_fe80feb456c9e3616a5524568c0a73c7&#45;&gt;dir_0669efae56692bb73da75efb5ebbccdf -->
<g id="edge1" class="edge">
<title>dir_fe80feb456c9e3616a5524568c0a73c7&#45;&gt;dir_0669efae56692bb73da75efb5ebbccdf</title>
<path fill="none" stroke="#63b8ff" d="M56.73,-70.98C67.73,-63 84.42,-50.88 97.6,-41.31"/>
<polygon fill="#63b8ff" stroke="#63b8ff" points="100.02,-43.88 106.06,-35.17 95.91,-38.21 100.02,-43.88"/>
<g id="a_edge1&#45;headlabel"><a xlink:href="dir_000060_000082.html" target="_top" xlink:title="2">
<text text-anchor="middle" x="98.78" y="-45.79" font-family="Helvetica,sans-Serif" font-size="10.00" fill="#63b8ff">2</text>
</a>
</g>
</g>
<!-- dir_4535887b2cdca47e625f259d07db0112 -->
<g id="node4" class="node">
<title>dir_4535887b2cdca47e625f259d07db0112</title>
<g id="a_node4"><a xlink:href="dir_4535887b2cdca47e625f259d07db0112.html" target="_top" xlink:title="util">
<polygon fill="#edf0f7" stroke="#7f7f7f" points="196,-35 164,-35 164,-16 196,-16 196,-35"/>
<text text-anchor="middle" x="180" y="-23" font-family="Helvetica,sans-Serif" font-size="10.00">util</text>
</a>
</g>
</g>
<!-- dir_fe80feb456c9e3616a5524568c0a73c7&#45;&gt;dir_4535887b2cdca47e625f259d07db0112 -->
<g id="edge2" class="edge">
<title>dir_fe80feb456c9e3616a5524568c0a73c7&#45;&gt;dir_4535887b2cdca47e625f259d07db0112</title>
<path fill="none" stroke="#63b8ff" d="M66.69,-70.98C90.64,-61.58 129.16,-46.46 154.53,-36.5"/>
<polygon fill="#63b8ff" stroke="#63b8ff" points="155.84,-39.74 163.87,-32.83 153.28,-33.23 155.84,-39.74"/>
<g id="a_edge2&#45;headlabel"><a xlink:href="dir_000060_000185.html" target="_top" xlink:title="1">
<text text-anchor="middle" x="153.53" y="-41.2" font-family="Helvetica,sans-Serif" font-size="10.00" fill="#63b8ff">1</text>
</a>
</g>
</g>
<!-- dir_f555f996eeee1ebe901dc71e0c5de8ff -->
<g id="node5" class="node">
<title>dir_f555f996eeee1ebe901dc71e0c5de8ff</title>
<g id="a_node5"><a xlink:href="dir_f555f996eeee1ebe901dc71e0c5de8ff.html" target="_top" xlink:title="meta">
<polygon fill="#edf0f7" stroke="#7f7f7f" points="256,-35 214,-35 214,-16 256,-16 256,-35"/>
<text text-anchor="middle" x="235" y="-23" font-family="Helvetica,sans-Serif" font-size="10.00">meta</text>
</a>
</g>
</g>
<!-- dir_fe80feb456c9e3616a5524568c0a73c7&#45;&gt;dir_f555f996eeee1ebe901dc71e0c5de8ff -->
<g id="edge4" class="edge">
<title>dir_fe80feb456c9e3616a5524568c0a73c7&#45;&gt;dir_f555f996eeee1ebe901dc71e0c5de8ff</title>
<path fill="none" stroke="#63b8ff" d="M74.21,-71.42C104.35,-63.08 152.99,-49.58 203.84,-35.32"/>
<polygon fill="#63b8ff" stroke="#63b8ff" points="205.02,-38.62 213.7,-32.55 203.12,-31.88 205.02,-38.62"/>
<g id="a_edge4&#45;headlabel"><a xlink:href="dir_000060_000122.html" target="_top" xlink:title="3">
<text text-anchor="middle" x="202.32" y="-39.83" font-family="Helvetica,sans-Serif" font-size="10.00" fill="#63b8ff">3</text>
</a>
</g>
</g>
</g>
</svg>
