<?xml version="1.0" encoding="UTF-8" standalone="no"?>
<!DOCTYPE svg PUBLIC "-//W3C//DTD SVG 1.1//EN"
 "http://www.w3.org/Graphics/SVG/1.1/DTD/svg11.dtd">
<!-- Generated by graphviz version 2.43.0 (0)
 -->
<!-- Title: libs/di/include/di/any Pages: 1 -->
<svg width="539pt" height="361pt"
 viewBox="0.00 0.00 539.00 361.00" xmlns="http://www.w3.org/2000/svg" xmlns:xlink="http://www.w3.org/1999/xlink">
<g id="graph0" class="graph" transform="scale(1 1) rotate(0) translate(4 357)">
<title>libs/di/include/di/any</title>
<g id="clust1" class="cluster">
<title>clusterdir_f95a1a0ab1b96e316090c1bcac3c2c99</title>
<g id="a_clust1"><a xlink:href="dir_f95a1a0ab1b96e316090c1bcac3c2c99.html" target="_top" xlink:title="di">
<polygon fill="#edf0f7" stroke="#7f7f7f" stroke-dasharray="5,2" points="8,-8 8,-345 523,-345 523,-8 8,-8"/>
<text text-anchor="middle" x="265.5" y="-333" font-family="Helvetica,sans-Serif" font-size="10.00">di</text>
</a>
</g>
</g>
<g id="clust2" class="cluster">
<title>clusterdir_e44b40e2f7a090819cf1915a0b103ff1</title>
<g id="a_clust2"><a xlink:href="dir_e44b40e2f7a090819cf1915a0b103ff1.html" target="_top">
<polygon fill="#edf0f7" stroke="#404040" stroke-width="2" points="51,-63 51,-318 351,-318 351,-63 51,-63"/>
</a>
</g>
</g>
<!-- dir_30ecaf38acae77be14fb9173f98f8612 -->
<g id="node1" class="node">
<title>dir_30ecaf38acae77be14fb9173f98f8612</title>
<g id="a_node1"><a xlink:href="dir_30ecaf38acae77be14fb9173f98f8612.html" target="_top" xlink:title="types">
<polygon fill="#a2b4d6" stroke="#404040" points="110,-35 66,-35 66,-16 110,-16 110,-35"/>
<text text-anchor="middle" x="88" y="-23" font-family="Helvetica,sans-Serif" font-size="10.00">types</text>
</a>
</g>
</g>
<!-- dir_4535887b2cdca47e625f259d07db0112 -->
<g id="node2" class="node">
<title>dir_4535887b2cdca47e625f259d07db0112</title>
<g id="a_node2"><a xlink:href="dir_4535887b2cdca47e625f259d07db0112.html" target="_top" xlink:title="util">
<polygon fill="#a2b4d6" stroke="#404040" points="48,-35 16,-35 16,-16 48,-16 48,-35"/>
<text text-anchor="middle" x="32" y="-23" font-family="Helvetica,sans-Serif" font-size="10.00">util</text>
</a>
</g>
</g>
<!-- dir_f555f996eeee1ebe901dc71e0c5de8ff -->
<g id="node3" class="node">
<title>dir_f555f996eeee1ebe901dc71e0c5de8ff</title>
<g id="a_node3"><a xlink:href="dir_f555f996eeee1ebe901dc71e0c5de8ff.html" target="_top" xlink:title="meta">
<polygon fill="#a2b4d6" stroke="#404040" points="357,-35 315,-35 315,-16 357,-16 357,-35"/>
<text text-anchor="middle" x="336" y="-23" font-family="Helvetica,sans-Serif" font-size="10.00">meta</text>
</a>
</g>
</g>
<!-- dir_0669efae56692bb73da75efb5ebbccdf -->
<g id="node4" class="node">
<title>dir_0669efae56692bb73da75efb5ebbccdf</title>
<g id="a_node4"><a xlink:href="dir_0669efae56692bb73da75efb5ebbccdf.html" target="_top" xlink:title="function">
<polygon fill="#a2b4d6" stroke="red" points="415,-90 359,-90 359,-71 415,-71 415,-90"/>
<text text-anchor="middle" x="387" y="-78" font-family="Helvetica,sans-Serif" font-size="10.00">function</text>
</a>
</g>
</g>
<!-- dir_521de572ae4fe2915cc70a876c52f5b7 -->
<g id="node5" class="node">
<title>dir_521de572ae4fe2915cc70a876c52f5b7</title>
<g id="a_node5"><a xlink:href="dir_521de572ae4fe2915cc70a876c52f5b7.html" target="_top" xlink:title="container">
<polygon fill="#a2b4d6" stroke="red" points="437,-35 375,-35 375,-16 437,-16 437,-35"/>
<text text-anchor="middle" x="406" y="-23" font-family="Helvetica,sans-Serif" font-size="10.00">container</text>
</a>
</g>
</g>
<!-- dir_aaf67126bd5deefc4d96704f76f22cc2 -->
<g id="node6" class="node">
<title>dir_aaf67126bd5deefc4d96704f76f22cc2</title>
<g id="a_node6"><a xlink:href="dir_aaf67126bd5deefc4d96704f76f22cc2.html" target="_top" xlink:title="platform">
<polygon fill="#a2b4d6" stroke="#404040" points="514.5,-35 455.5,-35 455.5,-16 514.5,-16 514.5,-35"/>
<text text-anchor="middle" x="485" y="-23" font-family="Helvetica,sans-Serif" font-size="10.00">platform</text>
</a>
</g>
</g>
<!-- dir_a60d4453151dca6bdd8e5fcc350e379b -->
<g id="node7" class="node">
<title>dir_a60d4453151dca6bdd8e5fcc350e379b</title>
<g id="a_node7"><a xlink:href="dir_a60d4453151dca6bdd8e5fcc350e379b.html" target="_top" xlink:title="assert">
<polygon fill="#a2b4d6" stroke="#404040" points="175.5,-35 128.5,-35 128.5,-16 175.5,-16 175.5,-35"/>
<text text-anchor="middle" x="152" y="-23" font-family="Helvetica,sans-Serif" font-size="10.00">assert</text>
</a>
</g>
</g>
<!-- dir_942cfae36a92b6b1c4b510e99e852d40 -->
<g id="node8" class="node">
<title>dir_942cfae36a92b6b1c4b510e99e852d40</title>
<g id="a_node8"><a xlink:href="dir_942cfae36a92b6b1c4b510e99e852d40.html" target="_top" xlink:title="vocab">
<polygon fill="#a2b4d6" stroke="red" points="297,-35 251,-35 251,-16 297,-16 297,-35"/>
<text text-anchor="middle" x="274" y="-23" font-family="Helvetica,sans-Serif" font-size="10.00">vocab</text>
</a>
</g>
</g>
<!-- dir_9bfc08b7c5b17d043ebb5b9fbb866539 -->
<g id="node9" class="node">
<title>dir_9bfc08b7c5b17d043ebb5b9fbb866539</title>
<g id="a_node9"><a xlink:href="dir_9bfc08b7c5b17d043ebb5b9fbb866539.html" target="_top" xlink:title="sync">
<polygon fill="#a2b4d6" stroke="red" points="232.5,-35 193.5,-35 193.5,-16 232.5,-16 232.5,-35"/>
<text text-anchor="middle" x="213" y="-23" font-family="Helvetica,sans-Serif" font-size="10.00">sync</text>
</a>
</g>
</g>
<!-- dir_e44b40e2f7a090819cf1915a0b103ff1 -->
<g id="node10" class="node">
<title>dir_e44b40e2f7a090819cf1915a0b103ff1</title>
<text text-anchor="middle" x="160" y="-298" font-family="Helvetica,sans-Serif" font-size="10.00">any</text>
</g>
<!-- dir_93a143d10651dfa76952b16fed4fc196 -->
<g id="node11" class="node">
<title>dir_93a143d10651dfa76952b16fed4fc196</title>
<g id="a_node11"><a xlink:href="dir_93a143d10651dfa76952b16fed4fc196.html" target="_top" xlink:title="concepts">
<polygon fill="#a2b4d6" stroke="#404040" points="196,-145 136,-145 136,-126 196,-126 196,-145"/>
<text text-anchor="middle" x="166" y="-133" font-family="Helvetica,sans-Serif" font-size="10.00">concepts</text>
</a>
</g>
</g>
<!-- dir_e44b40e2f7a090819cf1915a0b103ff1&#45;&gt;dir_93a143d10651dfa76952b16fed4fc196 -->
<g id="edge4" class="edge">
<title>dir_e44b40e2f7a090819cf1915a0b103ff1&#45;&gt;dir_93a143d10651dfa76952b16fed4fc196</title>
<path fill="none" stroke="#63b8ff" d="M158.76,-290.99C157.52,-282.05 155.7,-267.57 155,-255 153.01,-219.54 158.65,-178.28 162.57,-154.99"/>
<polygon fill="#63b8ff" stroke="#63b8ff" points="166.03,-155.56 164.32,-145.11 159.13,-154.35 166.03,-155.56"/>
<g id="a_edge4&#45;headlabel"><a xlink:href="dir_000008_000035.html" target="_top" xlink:title="18">
<text text-anchor="middle" x="168.2" y="-157.1" font-family="Helvetica,sans-Serif" font-size="10.00" fill="#63b8ff">18</text>
</a>
</g>
</g>
<!-- dir_cda844dca1e2e0dccf7b3a760fb23d6e -->
<g id="node12" class="node">
<title>dir_cda844dca1e2e0dccf7b3a760fb23d6e</title>
<g id="a_node12"><a xlink:href="dir_cda844dca1e2e0dccf7b3a760fb23d6e.html" target="_top" xlink:title="container">
<polygon fill="#a2b4d6" stroke="#404040" points="241,-255 179,-255 179,-236 241,-236 241,-255"/>
<text text-anchor="middle" x="210" y="-243" font-family="Helvetica,sans-Serif" font-size="10.00">container</text>
</a>
</g>
</g>
<!-- dir_e44b40e2f7a090819cf1915a0b103ff1&#45;&gt;dir_cda844dca1e2e0dccf7b3a760fb23d6e -->
<g id="edge5" class="edge">
<title>dir_e44b40e2f7a090819cf1915a0b103ff1&#45;&gt;dir_cda844dca1e2e0dccf7b3a760fb23d6e</title>
<path fill="none" stroke="#63b8ff" d="M168.26,-290.75C175.46,-283.11 186.11,-271.82 194.85,-262.56"/>
<polygon fill="#63b8ff" stroke="#63b8ff" points="197.58,-264.76 201.9,-255.09 192.49,-259.96 197.58,-264.76"/>
<g id="a_edge5&#45;headlabel"><a xlink:href="dir_000008_000045.html" target="_top" xlink:title="1">
<text text-anchor="middle" x="197.18" y="-266.83" font-family="Helvetica,sans-Serif" font-size="10.00" fill="#63b8ff">1</text>
</a>
</g>
</g>
<!-- dir_fe80feb456c9e3616a5524568c0a73c7 -->
<g id="node13" class="node">
<title>dir_fe80feb456c9e3616a5524568c0a73c7</title>
<g id="a_node13"><a xlink:href="dir_fe80feb456c9e3616a5524568c0a73c7.html" target="_top" xlink:title="dispatch">
<polygon fill="#a2b4d6" stroke="#404040" points="343,-200 285,-200 285,-181 343,-181 343,-200"/>
<text text-anchor="middle" x="314" y="-188" font-family="Helvetica,sans-Serif" font-size="10.00">dispatch</text>
</a>
</g>
</g>
<!-- dir_e44b40e2f7a090819cf1915a0b103ff1&#45;&gt;dir_fe80feb456c9e3616a5524568c0a73c7 -->
<g id="edge7" class="edge">
<title>dir_e44b40e2f7a090819cf1915a0b103ff1&#45;&gt;dir_fe80feb456c9e3616a5524568c0a73c7</title>
<path fill="none" stroke="#63b8ff" d="M177.62,-293.88C197.99,-286.85 231.94,-273.46 257,-255 274.81,-241.89 291.23,-222.47 301.83,-208.56"/>
<polygon fill="#63b8ff" stroke="#63b8ff" points="304.78,-210.46 307.91,-200.34 299.15,-206.3 304.78,-210.46"/>
<g id="a_edge7&#45;headlabel"><a xlink:href="dir_000008_000060.html" target="_top" xlink:title="1">
<text text-anchor="middle" x="304.92" y="-212.54" font-family="Helvetica,sans-Serif" font-size="10.00" fill="#63b8ff">1</text>
</a>
</g>
</g>
<!-- dir_67d9f0ef52e6a8291cee5653a1bfd29e -->
<g id="node14" class="node">
<title>dir_67d9f0ef52e6a8291cee5653a1bfd29e</title>
<g id="a_node14"><a xlink:href="dir_67d9f0ef52e6a8291cee5653a1bfd29e.html" target="_top" xlink:title="meta">
<polygon fill="#a2b4d6" stroke="#404040" points="236,-90 194,-90 194,-71 236,-71 236,-90"/>
<text text-anchor="middle" x="215" y="-78" font-family="Helvetica,sans-Serif" font-size="10.00">meta</text>
</a>
</g>
</g>
<!-- dir_e44b40e2f7a090819cf1915a0b103ff1&#45;&gt;dir_67d9f0ef52e6a8291cee5653a1bfd29e -->
<g id="edge3" class="edge">
<title>dir_e44b40e2f7a090819cf1915a0b103ff1&#45;&gt;dir_67d9f0ef52e6a8291cee5653a1bfd29e</title>
<path fill="none" stroke="#63b8ff" d="M154.39,-290.79C137.93,-264.02 92.95,-181.37 127,-126 133.59,-115.28 161.63,-102.2 184.31,-93"/>
<polygon fill="#63b8ff" stroke="#63b8ff" points="185.61,-96.25 193.62,-89.32 183.04,-89.74 185.61,-96.25"/>
<g id="a_edge3&#45;headlabel"><a xlink:href="dir_000008_000119.html" target="_top" xlink:title="8">
<text text-anchor="middle" x="183.32" y="-97.71" font-family="Helvetica,sans-Serif" font-size="10.00" fill="#63b8ff">8</text>
</a>
</g>
</g>
<!-- dir_24863a0596479db7df20b0f483688857 -->
<g id="node15" class="node">
<title>dir_24863a0596479db7df20b0f483688857</title>
<g id="a_node15"><a xlink:href="dir_24863a0596479db7df20b0f483688857.html" target="_top" xlink:title="storage">
<polygon fill="#a2b4d6" stroke="#404040" points="175.5,-90 122.5,-90 122.5,-71 175.5,-71 175.5,-90"/>
<text text-anchor="middle" x="149" y="-78" font-family="Helvetica,sans-Serif" font-size="10.00">storage</text>
</a>
</g>
</g>
<!-- dir_e44b40e2f7a090819cf1915a0b103ff1&#45;&gt;dir_24863a0596479db7df20b0f483688857 -->
<g id="edge2" class="edge">
<title>dir_e44b40e2f7a090819cf1915a0b103ff1&#45;&gt;dir_24863a0596479db7df20b0f483688857</title>
<path fill="none" stroke="#63b8ff" d="M142.27,-295.92C121.95,-290.76 89.58,-279.08 75,-255 45.06,-205.53 59.16,-173.6 92,-126 100.44,-113.77 113.26,-103.33 124.6,-95.65"/>
<polygon fill="#63b8ff" stroke="#63b8ff" points="126.74,-98.44 133.28,-90.1 122.97,-92.54 126.74,-98.44"/>
<g id="a_edge2&#45;headlabel"><a xlink:href="dir_000008_000159.html" target="_top" xlink:title="4">
<text text-anchor="middle" x="125.25" y="-100.27" font-family="Helvetica,sans-Serif" font-size="10.00" fill="#63b8ff">4</text>
</a>
</g>
</g>
<!-- dir_d6a825e771e88c34a7e5a1c5f3d40fba -->
<g id="node16" class="node">
<title>dir_d6a825e771e88c34a7e5a1c5f3d40fba</title>
<g id="a_node16"><a xlink:href="dir_d6a825e771e88c34a7e5a1c5f3d40fba.html" target="_top" xlink:title="types">
<polygon fill="#a2b4d6" stroke="#404040" points="298,-90 254,-90 254,-71 298,-71 298,-90"/>
<text text-anchor="middle" x="276" y="-78" font-family="Helvetica,sans-Serif" font-size="10.00">types</text>
</a>
</g>
</g>
<!-- dir_e44b40e2f7a090819cf1915a0b103ff1&#45;&gt;dir_d6a825e771e88c34a7e5a1c5f3d40fba -->
<g id="edge6" class="edge">
<title>dir_e44b40e2f7a090819cf1915a0b103ff1&#45;&gt;dir_d6a825e771e88c34a7e5a1c5f3d40fba</title>
<path fill="none" stroke="#63b8ff" d="M160.33,-290.61C161.03,-278.08 163.22,-254.67 170,-236 190.44,-179.72 236.29,-124.49 260.44,-97.9"/>
<polygon fill="#63b8ff" stroke="#63b8ff" points="263.24,-100.03 267.46,-90.31 258.1,-95.28 263.24,-100.03"/>
<g id="a_edge6&#45;headlabel"><a xlink:href="dir_000008_000177.html" target="_top" xlink:title="7">
<text text-anchor="middle" x="262.88" y="-102.1" font-family="Helvetica,sans-Serif" font-size="10.00" fill="#63b8ff">7</text>
</a>
</g>
</g>
<!-- dir_1955f3f9c14887c1467e6cfea7b00bb3 -->
<g id="node17" class="node">
<title>dir_1955f3f9c14887c1467e6cfea7b00bb3</title>
<g id="a_node17"><a xlink:href="dir_1955f3f9c14887c1467e6cfea7b00bb3.html" target="_top" xlink:title="vtable">
<polygon fill="#a2b4d6" stroke="#404040" points="266.5,-200 219.5,-200 219.5,-181 266.5,-181 266.5,-200"/>
<text text-anchor="middle" x="243" y="-188" font-family="Helvetica,sans-Serif" font-size="10.00">vtable</text>
</a>
</g>
</g>
<!-- dir_e44b40e2f7a090819cf1915a0b103ff1&#45;&gt;dir_1955f3f9c14887c1467e6cfea7b00bb3 -->
<g id="edge1" class="edge">
<title>dir_e44b40e2f7a090819cf1915a0b103ff1&#45;&gt;dir_1955f3f9c14887c1467e6cfea7b00bb3</title>
<path fill="none" stroke="#63b8ff" d="M177.6,-296.5C198.99,-291.8 234.18,-280.47 250,-255 258.4,-241.47 255.18,-223.14 250.72,-209.65"/>
<polygon fill="#63b8ff" stroke="#63b8ff" points="253.9,-208.16 247.09,-200.05 247.36,-210.64 253.9,-208.16"/>
<g id="a_edge1&#45;headlabel"><a xlink:href="dir_000008_000190.html" target="_top" xlink:title="2">
<text text-anchor="middle" x="257.83" y="-208.02" font-family="Helvetica,sans-Serif" font-size="10.00" fill="#63b8ff">2</text>
</a>
</g>
</g>
<!-- dir_93a143d10651dfa76952b16fed4fc196&#45;&gt;dir_30ecaf38acae77be14fb9173f98f8612 -->
<g id="edge10" class="edge">
<title>dir_93a143d10651dfa76952b16fed4fc196&#45;&gt;dir_30ecaf38acae77be14fb9173f98f8612</title>
<path fill="none" stroke="#63b8ff" d="M152.92,-126C141.36,-117.92 124.72,-104.83 114,-90 104.19,-76.42 97.31,-58.6 93.1,-45.29"/>
<polygon fill="#63b8ff" stroke="#63b8ff" points="96.37,-43.98 90.19,-35.37 89.65,-45.95 96.37,-43.98"/>
<g id="a_edge10&#45;headlabel"><a xlink:href="dir_000035_000180.html" target="_top" xlink:title="3">
<text text-anchor="middle" x="100.1" y="-44.13" font-family="Helvetica,sans-Serif" font-size="10.00" fill="#63b8ff">3</text>
</a>
</g>
</g>
<!-- dir_93a143d10651dfa76952b16fed4fc196&#45;&gt;dir_4535887b2cdca47e625f259d07db0112 -->
<g id="edge11" class="edge">
<title>dir_93a143d10651dfa76952b16fed4fc196&#45;&gt;dir_4535887b2cdca47e625f259d07db0112</title>
<path fill="none" stroke="#63b8ff" d="M150.08,-125.92C135.21,-117.6 112.72,-104.17 95,-90 76.92,-75.54 58.54,-56.39 46.33,-42.92"/>
<polygon fill="#63b8ff" stroke="#63b8ff" points="48.86,-40.49 39.59,-35.35 43.63,-45.14 48.86,-40.49"/>
<g id="a_edge11&#45;headlabel"><a xlink:href="dir_000035_000185.html" target="_top" xlink:title="6">
<text text-anchor="middle" x="53.37" y="-38.78" font-family="Helvetica,sans-Serif" font-size="10.00" fill="#63b8ff">6</text>
</a>
</g>
</g>
<!-- dir_93a143d10651dfa76952b16fed4fc196&#45;&gt;dir_f555f996eeee1ebe901dc71e0c5de8ff -->
<g id="edge14" class="edge">
<title>dir_93a143d10651dfa76952b16fed4fc196&#45;&gt;dir_f555f996eeee1ebe901dc71e0c5de8ff</title>
<path fill="none" stroke="#63b8ff" d="M196.22,-126.37C235.07,-115.71 298.54,-97.48 307,-90 320.18,-78.34 327.74,-59.48 331.81,-45.34"/>
<polygon fill="#63b8ff" stroke="#63b8ff" points="335.31,-45.79 334.37,-35.24 328.52,-44.07 335.31,-45.79"/>
<g id="a_edge14&#45;headlabel"><a xlink:href="dir_000035_000122.html" target="_top" xlink:title="8">
<text text-anchor="middle" x="337.18" y="-47.47" font-family="Helvetica,sans-Serif" font-size="10.00" fill="#63b8ff">8</text>
</a>
</g>
</g>
<!-- dir_93a143d10651dfa76952b16fed4fc196&#45;&gt;dir_0669efae56692bb73da75efb5ebbccdf -->
<g id="edge8" class="edge">
<title>dir_93a143d10651dfa76952b16fed4fc196&#45;&gt;dir_0669efae56692bb73da75efb5ebbccdf</title>
<path fill="none" stroke="#63b8ff" d="M196.03,-126.96C197.37,-126.64 198.7,-126.31 200,-126 265.53,-110.2 284.61,-107.33 348.92,-91.49"/>
<polygon fill="#63b8ff" stroke="#63b8ff" points="349.88,-94.86 358.74,-89.06 348.2,-88.06 349.88,-94.86"/>
<g id="a_edge8&#45;headlabel"><a xlink:href="dir_000035_000082.html" target="_top" xlink:title="2">
<text text-anchor="middle" x="347.07" y="-95.98" font-family="Helvetica,sans-Serif" font-size="10.00" fill="#63b8ff">2</text>
</a>
</g>
</g>
<!-- dir_93a143d10651dfa76952b16fed4fc196&#45;&gt;dir_67d9f0ef52e6a8291cee5653a1bfd29e -->
<g id="edge12" class="edge">
<title>dir_93a143d10651dfa76952b16fed4fc196&#45;&gt;dir_67d9f0ef52e6a8291cee5653a1bfd29e</title>
<path fill="none" stroke="#63b8ff" d="M168.93,-125.75C174.46,-117.95 184.82,-106.37 194.46,-97"/>
<polygon fill="#63b8ff" stroke="#63b8ff" points="196.97,-99.45 201.93,-90.09 192.21,-94.32 196.97,-99.45"/>
<g id="a_edge12&#45;headlabel"><a xlink:href="dir_000035_000119.html" target="_top" xlink:title="3">
<text text-anchor="middle" x="196.26" y="-101.48" font-family="Helvetica,sans-Serif" font-size="10.00" fill="#63b8ff">3</text>
</a>
</g>
</g>
<!-- dir_93a143d10651dfa76952b16fed4fc196&#45;&gt;dir_24863a0596479db7df20b0f483688857 -->
<g id="edge9" class="edge">
<title>dir_93a143d10651dfa76952b16fed4fc196&#45;&gt;dir_24863a0596479db7df20b0f483688857</title>
<path fill="none" stroke="#63b8ff" d="M158.03,-125.75C154.31,-118.8 150.67,-108.85 148.5,-100.13"/>
<polygon fill="#63b8ff" stroke="#63b8ff" points="151.9,-99.28 146.62,-90.09 145.02,-100.56 151.9,-99.28"/>
<g id="a_edge9&#45;headlabel"><a xlink:href="dir_000035_000159.html" target="_top" xlink:title="1">
<text text-anchor="middle" x="155.35" y="-99.79" font-family="Helvetica,sans-Serif" font-size="10.00" fill="#63b8ff">1</text>
</a>
</g>
</g>
<!-- dir_93a143d10651dfa76952b16fed4fc196&#45;&gt;dir_d6a825e771e88c34a7e5a1c5f3d40fba -->
<g id="edge13" class="edge">
<title>dir_93a143d10651dfa76952b16fed4fc196&#45;&gt;dir_d6a825e771e88c34a7e5a1c5f3d40fba</title>
<path fill="none" stroke="#63b8ff" d="M183.67,-125.98C201.29,-117.5 228.58,-104.35 248.93,-94.54"/>
<polygon fill="#63b8ff" stroke="#63b8ff" points="250.52,-97.66 258.01,-90.17 247.48,-91.36 250.52,-97.66"/>
<g id="a_edge13&#45;headlabel"><a xlink:href="dir_000035_000177.html" target="_top" xlink:title="4">
<text text-anchor="middle" x="248.51" y="-99.28" font-family="Helvetica,sans-Serif" font-size="10.00" fill="#63b8ff">4</text>
</a>
</g>
</g>
<!-- dir_cda844dca1e2e0dccf7b3a760fb23d6e&#45;&gt;dir_4535887b2cdca47e625f259d07db0112 -->
<g id="edge18" class="edge">
<title>dir_cda844dca1e2e0dccf7b3a760fb23d6e&#45;&gt;dir_4535887b2cdca47e625f259d07db0112</title>
<path fill="none" stroke="#63b8ff" d="M179.62,-235.92C139.83,-223.03 70.92,-194.72 35,-145 13.69,-115.5 20.39,-70.21 26.57,-45.03"/>
<polygon fill="#63b8ff" stroke="#63b8ff" points="29.97,-45.85 29.19,-35.28 23.21,-44.03 29.97,-45.85"/>
<g id="a_edge18&#45;headlabel"><a xlink:href="dir_000045_000185.html" target="_top" xlink:title="5">
<text text-anchor="middle" x="31.78" y="-47.55" font-family="Helvetica,sans-Serif" font-size="10.00" fill="#63b8ff">5</text>
</a>
</g>
</g>
<!-- dir_cda844dca1e2e0dccf7b3a760fb23d6e&#45;&gt;dir_f555f996eeee1ebe901dc71e0c5de8ff -->
<g id="edge24" class="edge">
<title>dir_cda844dca1e2e0dccf7b3a760fb23d6e&#45;&gt;dir_f555f996eeee1ebe901dc71e0c5de8ff</title>
<path fill="none" stroke="#63b8ff" d="M241.02,-242.16C274.41,-238.24 327.62,-227.8 364,-200 409.48,-165.24 415.54,-145.12 431,-90 434.24,-78.45 437.8,-72.89 431,-63 427.12,-57.35 393.04,-45.14 366.79,-36.4"/>
<polygon fill="#63b8ff" stroke="#63b8ff" points="367.79,-33.04 357.2,-33.24 365.6,-39.69 367.79,-33.04"/>
<g id="a_edge24&#45;headlabel"><a xlink:href="dir_000045_000122.html" target="_top" xlink:title="3">
<text text-anchor="middle" x="372.09" y="-28.97" font-family="Helvetica,sans-Serif" font-size="10.00" fill="#63b8ff">3</text>
</a>
</g>
</g>
<!-- dir_cda844dca1e2e0dccf7b3a760fb23d6e&#45;&gt;dir_0669efae56692bb73da75efb5ebbccdf -->
<g id="edge15" class="edge">
<title>dir_cda844dca1e2e0dccf7b3a760fb23d6e&#45;&gt;dir_0669efae56692bb73da75efb5ebbccdf</title>
<path fill="none" stroke="#63b8ff" d="M241.25,-242.37C272.88,-238.64 321.39,-228.35 352,-200 380.11,-173.97 386.03,-126.6 387.05,-100.32"/>
<polygon fill="#63b8ff" stroke="#63b8ff" points="390.55,-100.24 387.23,-90.18 383.55,-100.11 390.55,-100.24"/>
<g id="a_edge15&#45;headlabel"><a xlink:href="dir_000045_000082.html" target="_top" xlink:title="1">
<text text-anchor="middle" x="393.32" y="-101.38" font-family="Helvetica,sans-Serif" font-size="10.00" fill="#63b8ff">1</text>
</a>
</g>
</g>
<!-- dir_cda844dca1e2e0dccf7b3a760fb23d6e&#45;&gt;dir_521de572ae4fe2915cc70a876c52f5b7 -->
<g id="edge19" class="edge">
<title>dir_cda844dca1e2e0dccf7b3a760fb23d6e&#45;&gt;dir_521de572ae4fe2915cc70a876c52f5b7</title>
<path fill="none" stroke="#63b8ff" d="M241.15,-242.36C277.06,-238.6 336.59,-228.28 379,-200 424.98,-169.34 429.2,-144.72 437,-90 438.69,-78.12 441.14,-74.26 437,-63 434.2,-55.38 429.03,-48.27 423.7,-42.38"/>
<polygon fill="#63b8ff" stroke="#63b8ff" points="426.08,-39.8 416.55,-35.18 421.11,-44.74 426.08,-39.8"/>
<g id="a_edge19&#45;headlabel"><a xlink:href="dir_000045_000046.html" target="_top" xlink:title="3">
<text text-anchor="middle" x="430.62" y="-37.85" font-family="Helvetica,sans-Serif" font-size="10.00" fill="#63b8ff">3</text>
</a>
</g>
</g>
<!-- dir_cda844dca1e2e0dccf7b3a760fb23d6e&#45;&gt;dir_aaf67126bd5deefc4d96704f76f22cc2 -->
<g id="edge22" class="edge">
<title>dir_cda844dca1e2e0dccf7b3a760fb23d6e&#45;&gt;dir_aaf67126bd5deefc4d96704f76f22cc2</title>
<path fill="none" stroke="#63b8ff" d="M241.21,-243.67C280.35,-241.23 348.01,-232.23 395,-200 449.53,-162.61 473.19,-81.63 481.38,-45.07"/>
<polygon fill="#63b8ff" stroke="#63b8ff" points="484.81,-45.76 483.44,-35.25 477.96,-44.32 484.81,-45.76"/>
<g id="a_edge22&#45;headlabel"><a xlink:href="dir_000045_000135.html" target="_top" xlink:title="3">
<text text-anchor="middle" x="486.85" y="-47.36" font-family="Helvetica,sans-Serif" font-size="10.00" fill="#63b8ff">3</text>
</a>
</g>
</g>
<!-- dir_cda844dca1e2e0dccf7b3a760fb23d6e&#45;&gt;dir_93a143d10651dfa76952b16fed4fc196 -->
<g id="edge21" class="edge">
<title>dir_cda844dca1e2e0dccf7b3a760fb23d6e&#45;&gt;dir_93a143d10651dfa76952b16fed4fc196</title>
<path fill="none" stroke="#63b8ff" d="M200.91,-235.89C192.7,-227.54 181.02,-214.1 175,-200 168.91,-185.74 166.78,-168.21 166.11,-155.19"/>
<polygon fill="#63b8ff" stroke="#63b8ff" points="169.61,-154.99 165.83,-145.09 162.61,-155.19 169.61,-154.99"/>
<g id="a_edge21&#45;headlabel"><a xlink:href="dir_000045_000035.html" target="_top" xlink:title="1">
<text text-anchor="middle" x="172.54" y="-156.01" font-family="Helvetica,sans-Serif" font-size="10.00" fill="#63b8ff">1</text>
</a>
</g>
</g>
<!-- dir_cda844dca1e2e0dccf7b3a760fb23d6e&#45;&gt;dir_67d9f0ef52e6a8291cee5653a1bfd29e -->
<g id="edge20" class="edge">
<title>dir_cda844dca1e2e0dccf7b3a760fb23d6e&#45;&gt;dir_67d9f0ef52e6a8291cee5653a1bfd29e</title>
<path fill="none" stroke="#63b8ff" d="M206.14,-235.85C202.44,-227.04 197.11,-212.87 195,-200 193.63,-191.67 193.86,-189.37 195,-181 197.24,-164.55 201.48,-161.23 205,-145 208.22,-130.14 210.85,-113.1 212.6,-100.42"/>
<polygon fill="#63b8ff" stroke="#63b8ff" points="216.11,-100.56 213.95,-90.19 209.17,-99.64 216.11,-100.56"/>
<g id="a_edge20&#45;headlabel"><a xlink:href="dir_000045_000119.html" target="_top" xlink:title="1">
<text text-anchor="middle" x="218.46" y="-101.99" font-family="Helvetica,sans-Serif" font-size="10.00" fill="#63b8ff">1</text>
</a>
</g>
</g>
<!-- dir_cda844dca1e2e0dccf7b3a760fb23d6e&#45;&gt;dir_24863a0596479db7df20b0f483688857 -->
<g id="edge17" class="edge">
<title>dir_cda844dca1e2e0dccf7b3a760fb23d6e&#45;&gt;dir_24863a0596479db7df20b0f483688857</title>
<path fill="none" stroke="#63b8ff" d="M198.52,-235.96C178.87,-220.48 139.66,-185.59 127,-145 122.07,-129.2 129.36,-111.42 136.84,-98.69"/>
<polygon fill="#63b8ff" stroke="#63b8ff" points="139.92,-100.37 142.4,-90.07 134.04,-96.58 139.92,-100.37"/>
<g id="a_edge17&#45;headlabel"><a xlink:href="dir_000045_000159.html" target="_top" xlink:title="2">
<text text-anchor="middle" x="140.36" y="-102.43" font-family="Helvetica,sans-Serif" font-size="10.00" fill="#63b8ff">2</text>
</a>
</g>
</g>
<!-- dir_cda844dca1e2e0dccf7b3a760fb23d6e&#45;&gt;dir_d6a825e771e88c34a7e5a1c5f3d40fba -->
<g id="edge23" class="edge">
<title>dir_cda844dca1e2e0dccf7b3a760fb23d6e&#45;&gt;dir_d6a825e771e88c34a7e5a1c5f3d40fba</title>
<path fill="none" stroke="#63b8ff" d="M208.43,-235.97C206.5,-223.48 204.25,-199.66 211,-181 217.99,-161.68 228.45,-161.99 240,-145 250.01,-130.28 259.87,-112.6 266.73,-99.63"/>
<polygon fill="#63b8ff" stroke="#63b8ff" points="270.03,-100.88 271.54,-90.4 263.82,-97.65 270.03,-100.88"/>
<g id="a_edge23&#45;headlabel"><a xlink:href="dir_000045_000177.html" target="_top" xlink:title="1">
<text text-anchor="middle" x="270.89" y="-102.88" font-family="Helvetica,sans-Serif" font-size="10.00" fill="#63b8ff">1</text>
</a>
</g>
</g>
<!-- dir_cda844dca1e2e0dccf7b3a760fb23d6e&#45;&gt;dir_1955f3f9c14887c1467e6cfea7b00bb3 -->
<g id="edge16" class="edge">
<title>dir_cda844dca1e2e0dccf7b3a760fb23d6e&#45;&gt;dir_1955f3f9c14887c1467e6cfea7b00bb3</title>
<path fill="none" stroke="#63b8ff" d="M215.45,-235.75C220.01,-228.42 226.67,-217.73 232.29,-208.7"/>
<polygon fill="#63b8ff" stroke="#63b8ff" points="235.34,-210.43 237.65,-200.09 229.4,-206.73 235.34,-210.43"/>
<g id="a_edge16&#45;headlabel"><a xlink:href="dir_000045_000190.html" target="_top" xlink:title="1">
<text text-anchor="middle" x="235.85" y="-212.48" font-family="Helvetica,sans-Serif" font-size="10.00" fill="#63b8ff">1</text>
</a>
</g>
</g>
<!-- dir_fe80feb456c9e3616a5524568c0a73c7&#45;&gt;dir_4535887b2cdca47e625f259d07db0112 -->
<g id="edge26" class="edge">
<title>dir_fe80feb456c9e3616a5524568c0a73c7&#45;&gt;dir_4535887b2cdca47e625f259d07db0112</title>
<path fill="none" stroke="#63b8ff" d="M284.93,-182.96C234.18,-171.48 134.09,-148.58 127,-145 93.23,-127.93 85.05,-120.01 62,-90 51.45,-76.27 43.37,-58.23 38.27,-44.88"/>
<polygon fill="#63b8ff" stroke="#63b8ff" points="41.52,-43.58 34.83,-35.36 34.94,-45.96 41.52,-43.58"/>
<g id="a_edge26&#45;headlabel"><a xlink:href="dir_000060_000185.html" target="_top" xlink:title="1">
<text text-anchor="middle" x="45.41" y="-43.49" font-family="Helvetica,sans-Serif" font-size="10.00" fill="#63b8ff">1</text>
</a>
</g>
</g>
<!-- dir_fe80feb456c9e3616a5524568c0a73c7&#45;&gt;dir_f555f996eeee1ebe901dc71e0c5de8ff -->
<g id="edge28" class="edge">
<title>dir_fe80feb456c9e3616a5524568c0a73c7&#45;&gt;dir_f555f996eeee1ebe901dc71e0c5de8ff</title>
<path fill="none" stroke="#63b8ff" d="M331.15,-180.8C357.56,-166.26 406.91,-134.19 424,-90 428.33,-78.81 430.66,-72.98 424,-63 417.28,-52.94 389.48,-42.45 366.91,-35.31"/>
<polygon fill="#63b8ff" stroke="#63b8ff" points="367.9,-31.96 357.31,-32.38 365.85,-38.65 367.9,-31.96"/>
<g id="a_edge28&#45;headlabel"><a xlink:href="dir_000060_000122.html" target="_top" xlink:title="3">
<text text-anchor="middle" x="372.17" y="-27.79" font-family="Helvetica,sans-Serif" font-size="10.00" fill="#63b8ff">3</text>
</a>
</g>
</g>
<!-- dir_fe80feb456c9e3616a5524568c0a73c7&#45;&gt;dir_0669efae56692bb73da75efb5ebbccdf -->
<g id="edge25" class="edge">
<title>dir_fe80feb456c9e3616a5524568c0a73c7&#45;&gt;dir_0669efae56692bb73da75efb5ebbccdf</title>
<path fill="none" stroke="#63b8ff" d="M327.47,-180.77C338.91,-172.72 355.01,-159.81 365,-145 374.17,-131.4 379.91,-113.58 383.21,-100.28"/>
<polygon fill="#63b8ff" stroke="#63b8ff" points="386.66,-100.89 385.44,-90.36 379.83,-99.35 386.66,-100.89"/>
<g id="a_edge25&#45;headlabel"><a xlink:href="dir_000060_000082.html" target="_top" xlink:title="2">
<text text-anchor="middle" x="388.65" y="-102.52" font-family="Helvetica,sans-Serif" font-size="10.00" fill="#63b8ff">2</text>
</a>
</g>
</g>
<!-- dir_fe80feb456c9e3616a5524568c0a73c7&#45;&gt;dir_d6a825e771e88c34a7e5a1c5f3d40fba -->
<g id="edge27" class="edge">
<title>dir_fe80feb456c9e3616a5524568c0a73c7&#45;&gt;dir_d6a825e771e88c34a7e5a1c5f3d40fba</title>
<path fill="none" stroke="#63b8ff" d="M310.89,-180.66C304.68,-163.01 290.63,-123.09 282.38,-99.64"/>
<polygon fill="#63b8ff" stroke="#63b8ff" points="285.67,-98.43 279.05,-90.16 279.06,-100.75 285.67,-98.43"/>
<g id="a_edge27&#45;headlabel"><a xlink:href="dir_000060_000177.html" target="_top" xlink:title="1">
<text text-anchor="middle" x="289.54" y="-98.38" font-family="Helvetica,sans-Serif" font-size="10.00" fill="#63b8ff">1</text>
</a>
</g>
</g>
<!-- dir_67d9f0ef52e6a8291cee5653a1bfd29e&#45;&gt;dir_f555f996eeee1ebe901dc71e0c5de8ff -->
<g id="edge30" class="edge">
<title>dir_67d9f0ef52e6a8291cee5653a1bfd29e&#45;&gt;dir_f555f996eeee1ebe901dc71e0c5de8ff</title>
<path fill="none" stroke="#63b8ff" d="M229.77,-70.91C234.56,-68.25 239.95,-65.39 245,-63 264.55,-53.75 287.11,-44.69 304.88,-37.91"/>
<polygon fill="#63b8ff" stroke="#63b8ff" points="306.6,-41 314.73,-34.2 304.13,-34.45 306.6,-41"/>
<g id="a_edge30&#45;headlabel"><a xlink:href="dir_000119_000122.html" target="_top" xlink:title="4">
<text text-anchor="middle" x="304.24" y="-42.42" font-family="Helvetica,sans-Serif" font-size="10.00" fill="#63b8ff">4</text>
</a>
</g>
</g>
<!-- dir_67d9f0ef52e6a8291cee5653a1bfd29e&#45;&gt;dir_93a143d10651dfa76952b16fed4fc196 -->
<g id="edge29" class="edge">
<title>dir_67d9f0ef52e6a8291cee5653a1bfd29e&#45;&gt;dir_93a143d10651dfa76952b16fed4fc196</title>
<path fill="none" stroke="#63b8ff" d="M212.13,-90.17C206.61,-97.98 196.17,-109.64 186.49,-119.04"/>
<polygon fill="#63b8ff" stroke="#63b8ff" points="183.95,-116.62 178.99,-125.98 188.7,-121.76 183.95,-116.62"/>
<g id="a_edge29&#45;headlabel"><a xlink:href="dir_000119_000035.html" target="_top" xlink:title="4">
<text text-anchor="middle" x="184.66" y="-109.6" font-family="Helvetica,sans-Serif" font-size="10.00" fill="#63b8ff">4</text>
</a>
</g>
</g>
<!-- dir_24863a0596479db7df20b0f483688857&#45;&gt;dir_30ecaf38acae77be14fb9173f98f8612 -->
<g id="edge31" class="edge">
<title>dir_24863a0596479db7df20b0f483688857&#45;&gt;dir_30ecaf38acae77be14fb9173f98f8612</title>
<path fill="none" stroke="#63b8ff" d="M139.2,-70.98C130.18,-63.15 116.59,-51.34 105.68,-41.86"/>
<polygon fill="#63b8ff" stroke="#63b8ff" points="107.82,-39.09 97.98,-35.17 103.23,-44.37 107.82,-39.09"/>
<g id="a_edge31&#45;headlabel"><a xlink:href="dir_000159_000180.html" target="_top" xlink:title="5">
<text text-anchor="middle" x="112.4" y="-36.8" font-family="Helvetica,sans-Serif" font-size="10.00" fill="#63b8ff">5</text>
</a>
</g>
</g>
<!-- dir_24863a0596479db7df20b0f483688857&#45;&gt;dir_4535887b2cdca47e625f259d07db0112 -->
<g id="edge32" class="edge">
<title>dir_24863a0596479db7df20b0f483688857&#45;&gt;dir_4535887b2cdca47e625f259d07db0112</title>
<path fill="none" stroke="#63b8ff" d="M134.21,-70.96C129.41,-68.3 124.03,-65.43 119,-63 98.78,-53.23 75.27,-43.46 57.79,-36.49"/>
<polygon fill="#63b8ff" stroke="#63b8ff" points="58.85,-33.14 48.26,-32.73 56.28,-39.65 58.85,-33.14"/>
<g id="a_edge32&#45;headlabel"><a xlink:href="dir_000159_000185.html" target="_top" xlink:title="24">
<text text-anchor="middle" x="63.23" y="-29.32" font-family="Helvetica,sans-Serif" font-size="10.00" fill="#63b8ff">24</text>
</a>
</g>
</g>
<!-- dir_24863a0596479db7df20b0f483688857&#45;&gt;dir_f555f996eeee1ebe901dc71e0c5de8ff -->
<g id="edge39" class="edge">
<title>dir_24863a0596479db7df20b0f483688857&#45;&gt;dir_f555f996eeee1ebe901dc71e0c5de8ff</title>
<path fill="none" stroke="#63b8ff" d="M165.92,-70.89C171.85,-68.1 178.62,-65.17 185,-63 234.39,-46.16 250.76,-48.42 304.93,-35.13"/>
<polygon fill="#63b8ff" stroke="#63b8ff" points="305.89,-38.5 314.73,-32.66 304.18,-31.72 305.89,-38.5"/>
<g id="a_edge39&#45;headlabel"><a xlink:href="dir_000159_000122.html" target="_top" xlink:title="18">
<text text-anchor="middle" x="303.1" y="-39.63" font-family="Helvetica,sans-Serif" font-size="10.00" fill="#63b8ff">18</text>
</a>
</g>
</g>
<!-- dir_24863a0596479db7df20b0f483688857&#45;&gt;dir_521de572ae4fe2915cc70a876c52f5b7 -->
<g id="edge33" class="edge">
<title>dir_24863a0596479db7df20b0f483688857&#45;&gt;dir_521de572ae4fe2915cc70a876c52f5b7</title>
<path fill="none" stroke="#63b8ff" d="M165.12,-70.96C171.2,-68.05 178.28,-65.02 185,-63 259.92,-40.51 284.06,-48.95 364.49,-35.15"/>
<polygon fill="#63b8ff" stroke="#63b8ff" points="365.36,-38.55 374.59,-33.35 364.13,-31.65 365.36,-38.55"/>
<g id="a_edge33&#45;headlabel"><a xlink:href="dir_000159_000046.html" target="_top" xlink:title="14">
<text text-anchor="middle" x="362.32" y="-39.47" font-family="Helvetica,sans-Serif" font-size="10.00" fill="#63b8ff">14</text>
</a>
</g>
</g>
<!-- dir_24863a0596479db7df20b0f483688857&#45;&gt;dir_aaf67126bd5deefc4d96704f76f22cc2 -->
<g id="edge38" class="edge">
<title>dir_24863a0596479db7df20b0f483688857&#45;&gt;dir_aaf67126bd5deefc4d96704f76f22cc2</title>
<path fill="none" stroke="#63b8ff" d="M164.71,-70.96C170.87,-67.97 178.11,-64.9 185,-63 294.42,-32.92 328.96,-52.53 445.25,-34.91"/>
<polygon fill="#63b8ff" stroke="#63b8ff" points="445.92,-38.34 455.25,-33.33 444.83,-31.43 445.92,-38.34"/>
<g id="a_edge38&#45;headlabel"><a xlink:href="dir_000159_000135.html" target="_top" xlink:title="3">
<text text-anchor="middle" x="442.81" y="-39.21" font-family="Helvetica,sans-Serif" font-size="10.00" fill="#63b8ff">3</text>
</a>
</g>
</g>
<!-- dir_24863a0596479db7df20b0f483688857&#45;&gt;dir_a60d4453151dca6bdd8e5fcc350e379b -->
<g id="edge37" class="edge">
<title>dir_24863a0596479db7df20b0f483688857&#45;&gt;dir_a60d4453151dca6bdd8e5fcc350e379b</title>
<path fill="none" stroke="#63b8ff" d="M149.5,-70.75C149.89,-63.8 150.45,-53.85 150.95,-45.13"/>
<polygon fill="#63b8ff" stroke="#63b8ff" points="154.44,-45.27 151.51,-35.09 147.45,-44.88 154.44,-45.27"/>
<g id="a_edge37&#45;headlabel"><a xlink:href="dir_000159_000018.html" target="_top" xlink:title="1">
<text text-anchor="middle" x="157.07" y="-46.52" font-family="Helvetica,sans-Serif" font-size="10.00" fill="#63b8ff">1</text>
</a>
</g>
</g>
<!-- dir_24863a0596479db7df20b0f483688857&#45;&gt;dir_942cfae36a92b6b1c4b510e99e852d40 -->
<g id="edge35" class="edge">
<title>dir_24863a0596479db7df20b0f483688857&#45;&gt;dir_942cfae36a92b6b1c4b510e99e852d40</title>
<path fill="none" stroke="#63b8ff" d="M167.25,-70.96C172.92,-68.36 179.2,-65.52 185,-63 204.08,-54.72 225.66,-45.86 242.8,-38.94"/>
<polygon fill="#63b8ff" stroke="#63b8ff" points="244.34,-42.09 252.32,-35.11 241.73,-35.59 244.34,-42.09"/>
<g id="a_edge35&#45;headlabel"><a xlink:href="dir_000159_000189.html" target="_top" xlink:title="6">
<text text-anchor="middle" x="242.07" y="-43.56" font-family="Helvetica,sans-Serif" font-size="10.00" fill="#63b8ff">6</text>
</a>
</g>
</g>
<!-- dir_24863a0596479db7df20b0f483688857&#45;&gt;dir_9bfc08b7c5b17d043ebb5b9fbb866539 -->
<g id="edge36" class="edge">
<title>dir_24863a0596479db7df20b0f483688857&#45;&gt;dir_9bfc08b7c5b17d043ebb5b9fbb866539</title>
<path fill="none" stroke="#63b8ff" d="M159.28,-70.98C168.84,-63.07 183.28,-51.11 194.78,-41.58"/>
<polygon fill="#63b8ff" stroke="#63b8ff" points="197.06,-44.24 202.53,-35.17 192.6,-38.85 197.06,-44.24"/>
<g id="a_edge36&#45;headlabel"><a xlink:href="dir_000159_000162.html" target="_top" xlink:title="1">
<text text-anchor="middle" x="196.1" y="-46.22" font-family="Helvetica,sans-Serif" font-size="10.00" fill="#63b8ff">1</text>
</a>
</g>
</g>
<!-- dir_24863a0596479db7df20b0f483688857&#45;&gt;dir_93a143d10651dfa76952b16fed4fc196 -->
<g id="edge34" class="edge">
<title>dir_24863a0596479db7df20b0f483688857&#45;&gt;dir_93a143d10651dfa76952b16fed4fc196</title>
<path fill="none" stroke="#63b8ff" d="M156.89,-90.09C160.61,-96.99 164.25,-106.93 166.45,-115.66"/>
<polygon fill="#63b8ff" stroke="#63b8ff" points="163.06,-116.57 168.36,-125.75 169.94,-115.27 163.06,-116.57"/>
<g id="a_edge34&#45;headlabel"><a xlink:href="dir_000159_000035.html" target="_top" xlink:title="5">
<text text-anchor="middle" x="159.6" y="-111.07" font-family="Helvetica,sans-Serif" font-size="10.00" fill="#63b8ff">5</text>
</a>
</g>
</g>
<!-- dir_d6a825e771e88c34a7e5a1c5f3d40fba&#45;&gt;dir_f555f996eeee1ebe901dc71e0c5de8ff -->
<g id="edge40" class="edge">
<title>dir_d6a825e771e88c34a7e5a1c5f3d40fba&#45;&gt;dir_f555f996eeee1ebe901dc71e0c5de8ff</title>
<path fill="none" stroke="#63b8ff" d="M285.64,-70.98C294.51,-63.15 307.87,-51.34 318.61,-41.86"/>
<polygon fill="#63b8ff" stroke="#63b8ff" points="321.01,-44.41 326.18,-35.17 316.37,-39.17 321.01,-44.41"/>
<g id="a_edge40&#45;headlabel"><a xlink:href="dir_000177_000122.html" target="_top" xlink:title="1">
<text text-anchor="middle" x="320.19" y="-46.42" font-family="Helvetica,sans-Serif" font-size="10.00" fill="#63b8ff">1</text>
</a>
</g>
</g>
<!-- dir_1955f3f9c14887c1467e6cfea7b00bb3&#45;&gt;dir_4535887b2cdca47e625f259d07db0112 -->
<g id="edge42" class="edge">
<title>dir_1955f3f9c14887c1467e6cfea7b00bb3&#45;&gt;dir_4535887b2cdca47e625f259d07db0112</title>
<path fill="none" stroke="#63b8ff" d="M219.48,-181.96C218.3,-181.63 217.14,-181.3 216,-181 143.89,-161.78 103.46,-199.04 52,-145 26.31,-118.02 26.73,-71.02 29.33,-45.06"/>
<polygon fill="#63b8ff" stroke="#63b8ff" points="32.82,-45.4 30.55,-35.05 25.87,-44.55 32.82,-45.4"/>
<g id="a_edge42&#45;headlabel"><a xlink:href="dir_000190_000185.html" target="_top" xlink:title="3">
<text text-anchor="middle" x="35.2" y="-46.81" font-family="Helvetica,sans-Serif" font-size="10.00" fill="#63b8ff">3</text>
</a>
</g>
</g>
<!-- dir_1955f3f9c14887c1467e6cfea7b00bb3&#45;&gt;dir_f555f996eeee1ebe901dc71e0c5de8ff -->
<g id="edge46" class="edge">
<title>dir_1955f3f9c14887c1467e6cfea7b00bb3&#45;&gt;dir_f555f996eeee1ebe901dc71e0c5de8ff</title>
<path fill="none" stroke="#63b8ff" d="M266.66,-182.36C289.99,-174.81 326.22,-161.69 355,-145 388.92,-125.32 406.98,-125.33 424,-90 429.21,-79.19 430.66,-72.98 424,-63 417.28,-52.94 389.48,-42.45 366.91,-35.31"/>
<polygon fill="#63b8ff" stroke="#63b8ff" points="367.9,-31.96 357.31,-32.38 365.85,-38.65 367.9,-31.96"/>
<g id="a_edge46&#45;headlabel"><a xlink:href="dir_000190_000122.html" target="_top" xlink:title="4">
<text text-anchor="middle" x="372.17" y="-27.79" font-family="Helvetica,sans-Serif" font-size="10.00" fill="#63b8ff">4</text>
</a>
</g>
</g>
<!-- dir_1955f3f9c14887c1467e6cfea7b00bb3&#45;&gt;dir_0669efae56692bb73da75efb5ebbccdf -->
<g id="edge41" class="edge">
<title>dir_1955f3f9c14887c1467e6cfea7b00bb3&#45;&gt;dir_0669efae56692bb73da75efb5ebbccdf</title>
<path fill="none" stroke="#63b8ff" d="M266.54,-182.85C287.91,-175.95 319.44,-163.56 342,-145 357.28,-132.43 369.81,-113.46 377.73,-99.53"/>
<polygon fill="#63b8ff" stroke="#63b8ff" points="380.97,-100.89 382.65,-90.43 374.81,-97.56 380.97,-100.89"/>
<g id="a_edge41&#45;headlabel"><a xlink:href="dir_000190_000082.html" target="_top" xlink:title="1">
<text text-anchor="middle" x="381.75" y="-102.91" font-family="Helvetica,sans-Serif" font-size="10.00" fill="#63b8ff">1</text>
</a>
</g>
</g>
<!-- dir_1955f3f9c14887c1467e6cfea7b00bb3&#45;&gt;dir_942cfae36a92b6b1c4b510e99e852d40 -->
<g id="edge45" class="edge">
<title>dir_1955f3f9c14887c1467e6cfea7b00bb3&#45;&gt;dir_942cfae36a92b6b1c4b510e99e852d40</title>
<path fill="none" stroke="#63b8ff" d="M251.14,-180.79C265.76,-164.5 295.94,-127.64 307,-90 310.38,-78.49 311.31,-74.2 307,-63 304,-55.22 298.49,-48.06 292.82,-42.19"/>
<polygon fill="#63b8ff" stroke="#63b8ff" points="294.89,-39.33 285.21,-35.03 290.1,-44.43 294.89,-39.33"/>
<g id="a_edge45&#45;headlabel"><a xlink:href="dir_000190_000189.html" target="_top" xlink:title="2">
<text text-anchor="middle" x="299.46" y="-37.23" font-family="Helvetica,sans-Serif" font-size="10.00" fill="#63b8ff">2</text>
</a>
</g>
</g>
<!-- dir_1955f3f9c14887c1467e6cfea7b00bb3&#45;&gt;dir_93a143d10651dfa76952b16fed4fc196 -->
<g id="edge44" class="edge">
<title>dir_1955f3f9c14887c1467e6cfea7b00bb3&#45;&gt;dir_93a143d10651dfa76952b16fed4fc196</title>
<path fill="none" stroke="#63b8ff" d="M230.63,-180.98C218.91,-172.92 201.08,-160.65 187.11,-151.03"/>
<polygon fill="#63b8ff" stroke="#63b8ff" points="188.82,-147.96 178.6,-145.17 184.85,-153.72 188.82,-147.96"/>
<g id="a_edge44&#45;headlabel"><a xlink:href="dir_000190_000035.html" target="_top" xlink:title="7">
<text text-anchor="middle" x="193.39" y="-145.16" font-family="Helvetica,sans-Serif" font-size="10.00" fill="#63b8ff">7</text>
</a>
</g>
</g>
<!-- dir_1955f3f9c14887c1467e6cfea7b00bb3&#45;&gt;dir_67d9f0ef52e6a8291cee5653a1bfd29e -->
<g id="edge43" class="edge">
<title>dir_1955f3f9c14887c1467e6cfea7b00bb3&#45;&gt;dir_67d9f0ef52e6a8291cee5653a1bfd29e</title>
<path fill="none" stroke="#63b8ff" d="M240.71,-180.66C236.15,-163.09 225.88,-123.45 219.78,-99.95"/>
<polygon fill="#63b8ff" stroke="#63b8ff" points="223.14,-98.96 217.24,-90.16 216.37,-100.72 223.14,-98.96"/>
<g id="a_edge43&#45;headlabel"><a xlink:href="dir_000190_000119.html" target="_top" xlink:title="3">
<text text-anchor="middle" x="226.79" y="-99.23" font-family="Helvetica,sans-Serif" font-size="10.00" fill="#63b8ff">3</text>
</a>
</g>
</g>
</g>
</svg>
