<?xml version="1.0" encoding="UTF-8" standalone="no"?>
<!DOCTYPE svg PUBLIC "-//W3C//DTD SVG 1.1//EN"
 "http://www.w3.org/Graphics/SVG/1.1/DTD/svg11.dtd">
<!-- Generated by graphviz version 2.43.0 (0)
 -->
<!-- Title: libs/di/include/di/math/rational Pages: 1 -->
<svg width="178pt" height="117pt"
 viewBox="0.00 0.00 178.00 117.00" xmlns="http://www.w3.org/2000/svg" xmlns:xlink="http://www.w3.org/1999/xlink">
<g id="graph0" class="graph" transform="scale(1 1) rotate(0) translate(4 113)">
<title>libs/di/include/di/math/rational</title>
<g id="clust1" class="cluster">
<title>clusterdir_60d1624911c2c9f7b6f38e44ec895aaa</title>
<g id="a_clust1"><a xlink:href="dir_60d1624911c2c9f7b6f38e44ec895aaa.html" target="_top" xlink:title="math">
<polygon fill="#edf0f7" stroke="#7f7f7f" stroke-dasharray="5,2" points="51,-47 51,-101 121,-101 121,-47 51,-47"/>
<text text-anchor="middle" x="86" y="-89" font-family="Helvetica,sans-Serif" font-size="10.00">math</text>
</a>
</g>
</g>
<!-- dir_c8f8998a7451d590aa603b46847dceda -->
<g id="node1" class="node">
<title>dir_c8f8998a7451d590aa603b46847dceda</title>
<g id="a_node1"><a xlink:href="dir_c8f8998a7451d590aa603b46847dceda.html" target="_top" xlink:title="rational">
<polygon fill="#edf0f7" stroke="#404040" stroke-width="2" points="113,-74 59,-74 59,-55 113,-55 113,-74"/>
<text text-anchor="middle" x="86" y="-62" font-family="Helvetica,sans-Serif" font-size="10.00">rational</text>
</a>
</g>
</g>
<!-- dir_30ecaf38acae77be14fb9173f98f8612 -->
<g id="node2" class="node">
<title>dir_30ecaf38acae77be14fb9173f98f8612</title>
<g id="a_node2"><a xlink:href="dir_30ecaf38acae77be14fb9173f98f8612.html" target="_top" xlink:title="types">
<polygon fill="#edf0f7" stroke="#7f7f7f" points="44,-19 0,-19 0,0 44,0 44,-19"/>
<text text-anchor="middle" x="22" y="-7" font-family="Helvetica,sans-Serif" font-size="10.00">types</text>
</a>
</g>
</g>
<!-- dir_c8f8998a7451d590aa603b46847dceda&#45;&gt;dir_30ecaf38acae77be14fb9173f98f8612 -->
<g id="edge1" class="edge">
<title>dir_c8f8998a7451d590aa603b46847dceda&#45;&gt;dir_30ecaf38acae77be14fb9173f98f8612</title>
<path fill="none" stroke="#63b8ff" d="M75.72,-54.98C66.16,-47.07 51.72,-35.11 40.22,-25.58"/>
<polygon fill="#63b8ff" stroke="#63b8ff" points="42.4,-22.85 32.47,-19.17 37.94,-28.24 42.4,-22.85"/>
<g id="a_edge1&#45;headlabel"><a xlink:href="dir_000143_000180.html" target="_top" xlink:title="1">
<text text-anchor="middle" x="46.98" y="-20.46" font-family="Helvetica,sans-Serif" font-size="10.00" fill="#63b8ff">1</text>
</a>
</g>
</g>
<!-- dir_a60d4453151dca6bdd8e5fcc350e379b -->
<g id="node3" class="node">
<title>dir_a60d4453151dca6bdd8e5fcc350e379b</title>
<g id="a_node3"><a xlink:href="dir_a60d4453151dca6bdd8e5fcc350e379b.html" target="_top" xlink:title="assert">
<polygon fill="#edf0f7" stroke="#7f7f7f" points="109.5,-19 62.5,-19 62.5,0 109.5,0 109.5,-19"/>
<text text-anchor="middle" x="86" y="-7" font-family="Helvetica,sans-Serif" font-size="10.00">assert</text>
</a>
</g>
</g>
<!-- dir_c8f8998a7451d590aa603b46847dceda&#45;&gt;dir_a60d4453151dca6bdd8e5fcc350e379b -->
<g id="edge2" class="edge">
<title>dir_c8f8998a7451d590aa603b46847dceda&#45;&gt;dir_a60d4453151dca6bdd8e5fcc350e379b</title>
<path fill="none" stroke="#63b8ff" d="M86,-54.75C86,-47.8 86,-37.85 86,-29.13"/>
<polygon fill="#63b8ff" stroke="#63b8ff" points="89.5,-29.09 86,-19.09 82.5,-29.09 89.5,-29.09"/>
<g id="a_edge2&#45;headlabel"><a xlink:href="dir_000143_000018.html" target="_top" xlink:title="1">
<text text-anchor="middle" x="92.34" y="-30.18" font-family="Helvetica,sans-Serif" font-size="10.00" fill="#63b8ff">1</text>
</a>
</g>
</g>
<!-- dir_f555f996eeee1ebe901dc71e0c5de8ff -->
<g id="node4" class="node">
<title>dir_f555f996eeee1ebe901dc71e0c5de8ff</title>
<g id="a_node4"><a xlink:href="dir_f555f996eeee1ebe901dc71e0c5de8ff.html" target="_top" xlink:title="meta">
<polygon fill="#edf0f7" stroke="#7f7f7f" points="170,-19 128,-19 128,0 170,0 170,-19"/>
<text text-anchor="middle" x="149" y="-7" font-family="Helvetica,sans-Serif" font-size="10.00">meta</text>
</a>
</g>
</g>
<!-- dir_c8f8998a7451d590aa603b46847dceda&#45;&gt;dir_f555f996eeee1ebe901dc71e0c5de8ff -->
<g id="edge3" class="edge">
<title>dir_c8f8998a7451d590aa603b46847dceda&#45;&gt;dir_f555f996eeee1ebe901dc71e0c5de8ff</title>
<path fill="none" stroke="#63b8ff" d="M96.12,-54.98C105.44,-47.15 119.47,-35.34 130.74,-25.86"/>
<polygon fill="#63b8ff" stroke="#63b8ff" points="133.29,-28.29 138.69,-19.17 128.79,-22.93 133.29,-28.29"/>
<g id="a_edge3&#45;headlabel"><a xlink:href="dir_000143_000122.html" target="_top" xlink:title="2">
<text text-anchor="middle" x="132.37" y="-30.27" font-family="Helvetica,sans-Serif" font-size="10.00" fill="#63b8ff">2</text>
</a>
</g>
</g>
</g>
</svg>
