<?xml version="1.0" encoding="UTF-8" standalone="no"?>
<!DOCTYPE svg PUBLIC "-//W3C//DTD SVG 1.1//EN"
 "http://www.w3.org/Graphics/SVG/1.1/DTD/svg11.dtd">
<!-- Generated by graphviz version 2.43.0 (0)
 -->
<!-- Title: iris/include/iris/arch/x86/amd64/core Pages: 1 -->
<svg width="328pt" height="133pt"
 viewBox="0.00 0.00 328.00 133.00" xmlns="http://www.w3.org/2000/svg" xmlns:xlink="http://www.w3.org/1999/xlink">
<g id="graph0" class="graph" transform="scale(1 1) rotate(0) translate(4 129)">
<title>iris/include/iris/arch/x86/amd64/core</title>
<g id="clust1" class="cluster">
<title>clusterdir_69ecb03340787322ec15c613fc74d859</title>
<g id="a_clust1"><a xlink:href="dir_69ecb03340787322ec15c613fc74d859.html" target="_top" xlink:title="amd64">
<polygon fill="#edf0f7" stroke="#7f7f7f" stroke-dasharray="5,2" points="8,-8 8,-117 62,-117 62,-8 8,-8"/>
<text text-anchor="middle" x="35" y="-105" font-family="Helvetica,sans-Serif" font-size="10.00">amd64</text>
</a>
</g>
</g>
<!-- dir_786015ac58edb6a34d6ae4d90a813fcf -->
<g id="node1" class="node">
<title>dir_786015ac58edb6a34d6ae4d90a813fcf</title>
<g id="a_node1"><a xlink:href="dir_786015ac58edb6a34d6ae4d90a813fcf.html" target="_top" xlink:title="hw">
<polygon fill="#a2b4d6" stroke="#404040" points="50.5,-35 19.5,-35 19.5,-16 50.5,-16 50.5,-35"/>
<text text-anchor="middle" x="35" y="-23" font-family="Helvetica,sans-Serif" font-size="10.00">hw</text>
</a>
</g>
</g>
<!-- dir_20d17feb9c2a141ce639d72d812af749 -->
<g id="node2" class="node">
<title>dir_20d17feb9c2a141ce639d72d812af749</title>
<g id="a_node2"><a xlink:href="dir_20d17feb9c2a141ce639d72d812af749.html" target="_top" xlink:title="core">
<polygon fill="#edf0f7" stroke="#404040" stroke-width="2" points="54,-90 16,-90 16,-71 54,-71 54,-90"/>
<text text-anchor="middle" x="35" y="-78" font-family="Helvetica,sans-Serif" font-size="10.00">core</text>
</a>
</g>
</g>
<!-- dir_20d17feb9c2a141ce639d72d812af749&#45;&gt;dir_786015ac58edb6a34d6ae4d90a813fcf -->
<g id="edge3" class="edge">
<title>dir_20d17feb9c2a141ce639d72d812af749&#45;&gt;dir_786015ac58edb6a34d6ae4d90a813fcf</title>
<path fill="none" stroke="#63b8ff" d="M35,-70.75C35,-63.8 35,-53.85 35,-45.13"/>
<polygon fill="#63b8ff" stroke="#63b8ff" points="38.5,-45.09 35,-35.09 31.5,-45.09 38.5,-45.09"/>
<g id="a_edge3&#45;headlabel"><a xlink:href="dir_000051_000088.html" target="_top" xlink:title="1">
<text text-anchor="middle" x="41.34" y="-46.18" font-family="Helvetica,sans-Serif" font-size="10.00" fill="#63b8ff">1</text>
</a>
</g>
</g>
<!-- dir_0d9b91d0f0b9ec0856341172f56c0a57 -->
<g id="node3" class="node">
<title>dir_0d9b91d0f0b9ec0856341172f56c0a57</title>
<g id="a_node3"><a xlink:href="dir_0d9b91d0f0b9ec0856341172f56c0a57.html" target="_top" xlink:title="uapi">
<polygon fill="#edf0f7" stroke="#7f7f7f" points="108,-35 70,-35 70,-16 108,-16 108,-35"/>
<text text-anchor="middle" x="89" y="-23" font-family="Helvetica,sans-Serif" font-size="10.00">uapi</text>
</a>
</g>
</g>
<!-- dir_20d17feb9c2a141ce639d72d812af749&#45;&gt;dir_0d9b91d0f0b9ec0856341172f56c0a57 -->
<g id="edge1" class="edge">
<title>dir_20d17feb9c2a141ce639d72d812af749&#45;&gt;dir_0d9b91d0f0b9ec0856341172f56c0a57</title>
<path fill="none" stroke="#63b8ff" d="M43.92,-70.75C51.78,-63.03 63.43,-51.6 72.92,-42.28"/>
<polygon fill="#63b8ff" stroke="#63b8ff" points="75.56,-44.59 80.25,-35.09 70.66,-39.6 75.56,-44.59"/>
<g id="a_edge1&#45;headlabel"><a xlink:href="dir_000051_000181.html" target="_top" xlink:title="1">
<text text-anchor="middle" x="74.99" y="-46.64" font-family="Helvetica,sans-Serif" font-size="10.00" fill="#63b8ff">1</text>
</a>
</g>
</g>
<!-- dir_6719ab1f1f7655efc2fa43f7eb574fd1 -->
<g id="node4" class="node">
<title>dir_6719ab1f1f7655efc2fa43f7eb574fd1</title>
<g id="a_node4"><a xlink:href="dir_6719ab1f1f7655efc2fa43f7eb574fd1.html" target="_top" xlink:title="libs">
<polygon fill="#edf0f7" stroke="red" points="160,-35 126,-35 126,-16 160,-16 160,-35"/>
<text text-anchor="middle" x="143" y="-23" font-family="Helvetica,sans-Serif" font-size="10.00">libs</text>
</a>
</g>
</g>
<!-- dir_20d17feb9c2a141ce639d72d812af749&#45;&gt;dir_6719ab1f1f7655efc2fa43f7eb574fd1 -->
<g id="edge2" class="edge">
<title>dir_20d17feb9c2a141ce639d72d812af749&#45;&gt;dir_6719ab1f1f7655efc2fa43f7eb574fd1</title>
<path fill="none" stroke="#63b8ff" d="M52.35,-70.98C69.67,-62.49 96.52,-49.31 116.5,-39.5"/>
<polygon fill="#63b8ff" stroke="#63b8ff" points="118.26,-42.54 125.69,-34.99 115.17,-36.26 118.26,-42.54"/>
<g id="a_edge2&#45;headlabel"><a xlink:href="dir_000051_000109.html" target="_top" xlink:title="3">
<text text-anchor="middle" x="116.28" y="-44.17" font-family="Helvetica,sans-Serif" font-size="10.00" fill="#63b8ff">3</text>
</a>
</g>
</g>
<!-- dir_7cd5da72e38cd0f075d57a788b4f2242 -->
<g id="node5" class="node">
<title>dir_7cd5da72e38cd0f075d57a788b4f2242</title>
<g id="a_node5"><a xlink:href="dir_7cd5da72e38cd0f075d57a788b4f2242.html" target="_top" xlink:title="hw">
<polygon fill="#edf0f7" stroke="red" stroke-dasharray="5,2" points="209.5,-35 178.5,-35 178.5,-16 209.5,-16 209.5,-35"/>
<text text-anchor="middle" x="194" y="-23" font-family="Helvetica,sans-Serif" font-size="10.00">hw</text>
</a>
</g>
</g>
<!-- dir_20d17feb9c2a141ce639d72d812af749&#45;&gt;dir_7cd5da72e38cd0f075d57a788b4f2242 -->
<g id="edge4" class="edge">
<title>dir_20d17feb9c2a141ce639d72d812af749&#45;&gt;dir_7cd5da72e38cd0f075d57a788b4f2242</title>
<path fill="none" stroke="#63b8ff" d="M54.1,-73.21C78.43,-65.18 122.01,-50.76 168.71,-35.08"/>
<polygon fill="#63b8ff" stroke="#63b8ff" points="170.04,-38.33 178.4,-31.82 167.81,-31.69 170.04,-38.33"/>
<g id="a_edge4&#45;headlabel"><a xlink:href="dir_000051_000089.html" target="_top" xlink:title="2">
<text text-anchor="middle" x="167.54" y="-39.66" font-family="Helvetica,sans-Serif" font-size="10.00" fill="#63b8ff">2</text>
</a>
</g>
</g>
<!-- dir_945708b8d3397c2507c5e618c4393ffa -->
<g id="node6" class="node">
<title>dir_945708b8d3397c2507c5e618c4393ffa</title>
<g id="a_node6"><a xlink:href="dir_945708b8d3397c2507c5e618c4393ffa.html" target="_top" xlink:title="mm">
<polygon fill="#edf0f7" stroke="#7f7f7f" points="264,-35 228,-35 228,-16 264,-16 264,-35"/>
<text text-anchor="middle" x="246" y="-23" font-family="Helvetica,sans-Serif" font-size="10.00">mm</text>
</a>
</g>
</g>
<!-- dir_20d17feb9c2a141ce639d72d812af749&#45;&gt;dir_945708b8d3397c2507c5e618c4393ffa -->
<g id="edge5" class="edge">
<title>dir_20d17feb9c2a141ce639d72d812af749&#45;&gt;dir_945708b8d3397c2507c5e618c4393ffa</title>
<path fill="none" stroke="#63b8ff" d="M54.18,-75.31C86.19,-68.23 152.69,-53.1 218.11,-35.1"/>
<polygon fill="#63b8ff" stroke="#63b8ff" points="219.05,-38.48 227.75,-32.43 217.18,-31.73 219.05,-38.48"/>
<g id="a_edge5&#45;headlabel"><a xlink:href="dir_000051_000126.html" target="_top" xlink:title="1">
<text text-anchor="middle" x="216.35" y="-39.67" font-family="Helvetica,sans-Serif" font-size="10.00" fill="#63b8ff">1</text>
</a>
</g>
</g>
<!-- dir_be381e3b7aa79a91c125f50d5abcc4e9 -->
<g id="node7" class="node">
<title>dir_be381e3b7aa79a91c125f50d5abcc4e9</title>
<g id="a_node7"><a xlink:href="dir_be381e3b7aa79a91c125f50d5abcc4e9.html" target="_top" xlink:title="core">
<polygon fill="#edf0f7" stroke="#7f7f7f" points="320,-35 282,-35 282,-16 320,-16 320,-35"/>
<text text-anchor="middle" x="301" y="-23" font-family="Helvetica,sans-Serif" font-size="10.00">core</text>
</a>
</g>
</g>
<!-- dir_20d17feb9c2a141ce639d72d812af749&#45;&gt;dir_be381e3b7aa79a91c125f50d5abcc4e9 -->
<g id="edge6" class="edge">
<title>dir_20d17feb9c2a141ce639d72d812af749&#45;&gt;dir_be381e3b7aa79a91c125f50d5abcc4e9</title>
<path fill="none" stroke="#63b8ff" d="M54.28,-76.63C93.47,-70.65 185.4,-55.82 271.83,-35.06"/>
<polygon fill="#63b8ff" stroke="#63b8ff" points="272.91,-38.4 281.8,-32.63 271.25,-31.6 272.91,-38.4"/>
<g id="a_edge6&#45;headlabel"><a xlink:href="dir_000051_000052.html" target="_top" xlink:title="1">
<text text-anchor="middle" x="270.09" y="-39.51" font-family="Helvetica,sans-Serif" font-size="10.00" fill="#63b8ff">1</text>
</a>
</g>
</g>
</g>
</svg>
