<?xml version="1.0" encoding="UTF-8" standalone="no"?>
<!DOCTYPE svg PUBLIC "-//W3C//DTD SVG 1.1//EN"
 "http://www.w3.org/Graphics/SVG/1.1/DTD/svg11.dtd">
<!-- Generated by graphviz version 2.43.0 (0)
 -->
<!-- Title: libs/ccpp/include/ccpp/bits Pages: 1 -->
<svg width="283pt" height="125pt"
 viewBox="0.00 0.00 282.50 125.00" xmlns="http://www.w3.org/2000/svg" xmlns:xlink="http://www.w3.org/1999/xlink">
<g id="graph0" class="graph" transform="scale(1 1) rotate(0) translate(4 121)">
<title>libs/ccpp/include/ccpp/bits</title>
<g id="clust1" class="cluster">
<title>clusterdir_aa9f8c7577a92311a8c2e40690a7e137</title>
<g id="a_clust1"><a xlink:href="dir_aa9f8c7577a92311a8c2e40690a7e137.html" target="_top" xlink:title="ccpp">
<polygon fill="#edf0f7" stroke="#7f7f7f" stroke-dasharray="5,2" points="8,-39 8,-109 245,-109 245,-39 8,-39"/>
<text text-anchor="middle" x="126.5" y="-97" font-family="Helvetica,sans-Serif" font-size="10.00">ccpp</text>
</a>
</g>
</g>
<g id="clust2" class="cluster">
<title>clusterdir_b84d865ffd97944f8878849fa5a1b425</title>
<g id="a_clust2"><a xlink:href="dir_b84d865ffd97944f8878849fa5a1b425.html" target="_top">
<polygon fill="#edf0f7" stroke="#404040" stroke-width="2" points="16,-47 16,-82 237,-82 237,-47 16,-47"/>
</a>
</g>
</g>
<!-- dir_b84d865ffd97944f8878849fa5a1b425 -->
<g id="node1" class="node">
<title>dir_b84d865ffd97944f8878849fa5a1b425</title>
<text text-anchor="middle" x="211" y="-62" font-family="Helvetica,sans-Serif" font-size="10.00">bits</text>
</g>
<!-- dir_2bc9e3f402dd86ba93785edd287294d9 -->
<g id="node5" class="node">
<title>dir_2bc9e3f402dd86ba93785edd287294d9</title>
<g id="a_node5"><a xlink:href="dir_2bc9e3f402dd86ba93785edd287294d9.html" target="_top" xlink:title="dius">
<polygon fill="#edf0f7" stroke="red" stroke-dasharray="5,2" points="176.5,-19 139.5,-19 139.5,0 176.5,0 176.5,-19"/>
<text text-anchor="middle" x="158" y="-7" font-family="Helvetica,sans-Serif" font-size="10.00">dius</text>
</a>
</g>
</g>
<!-- dir_b84d865ffd97944f8878849fa5a1b425&#45;&gt;dir_2bc9e3f402dd86ba93785edd287294d9 -->
<g id="edge1" class="edge">
<title>dir_b84d865ffd97944f8878849fa5a1b425&#45;&gt;dir_2bc9e3f402dd86ba93785edd287294d9</title>
<path fill="none" stroke="#63b8ff" d="M202.25,-54.75C194.53,-47.03 183.1,-35.6 173.78,-26.28"/>
<polygon fill="#63b8ff" stroke="#63b8ff" points="176.14,-23.69 166.59,-19.09 171.19,-28.64 176.14,-23.69"/>
<g id="a_edge1&#45;headlabel"><a xlink:href="dir_000023_000063.html" target="_top" xlink:title="4">
<text text-anchor="middle" x="180.68" y="-21.72" font-family="Helvetica,sans-Serif" font-size="10.00" fill="#63b8ff">4</text>
</a>
</g>
</g>
<!-- dir_5371168e787cb85082629e1689d1d049 -->
<g id="node6" class="node">
<title>dir_5371168e787cb85082629e1689d1d049</title>
<g id="a_node6"><a xlink:href="dir_5371168e787cb85082629e1689d1d049.html" target="_top" xlink:title="sys">
<polygon fill="#edf0f7" stroke="#7f7f7f" points="227.5,-19 194.5,-19 194.5,0 227.5,0 227.5,-19"/>
<text text-anchor="middle" x="211" y="-7" font-family="Helvetica,sans-Serif" font-size="10.00">sys</text>
</a>
</g>
</g>
<!-- dir_b84d865ffd97944f8878849fa5a1b425&#45;&gt;dir_5371168e787cb85082629e1689d1d049 -->
<g id="edge2" class="edge">
<title>dir_b84d865ffd97944f8878849fa5a1b425&#45;&gt;dir_5371168e787cb85082629e1689d1d049</title>
<path fill="none" stroke="#63b8ff" d="M211,-54.75C211,-47.8 211,-37.85 211,-29.13"/>
<polygon fill="#63b8ff" stroke="#63b8ff" points="214.5,-29.09 211,-19.09 207.5,-29.09 214.5,-29.09"/>
<g id="a_edge2&#45;headlabel"><a xlink:href="dir_000023_000163.html" target="_top" xlink:title="3">
<text text-anchor="middle" x="217.34" y="-30.18" font-family="Helvetica,sans-Serif" font-size="10.00" fill="#63b8ff">3</text>
</a>
</g>
</g>
<!-- dir_984cd133b143ec7cf21a4bdcb401bfa5 -->
<g id="node7" class="node">
<title>dir_984cd133b143ec7cf21a4bdcb401bfa5</title>
<g id="a_node7"><a xlink:href="dir_984cd133b143ec7cf21a4bdcb401bfa5.html" target="_top" xlink:title="di">
<polygon fill="#edf0f7" stroke="red" stroke-dasharray="5,2" points="274.5,-19 245.5,-19 245.5,0 274.5,0 274.5,-19"/>
<text text-anchor="middle" x="260" y="-7" font-family="Helvetica,sans-Serif" font-size="10.00">di</text>
</a>
</g>
</g>
<!-- dir_b84d865ffd97944f8878849fa5a1b425&#45;&gt;dir_984cd133b143ec7cf21a4bdcb401bfa5 -->
<g id="edge3" class="edge">
<title>dir_b84d865ffd97944f8878849fa5a1b425&#45;&gt;dir_984cd133b143ec7cf21a4bdcb401bfa5</title>
<path fill="none" stroke="#63b8ff" d="M219.09,-54.75C226.16,-47.11 236.59,-35.82 245.15,-26.56"/>
<polygon fill="#63b8ff" stroke="#63b8ff" points="247.84,-28.81 252.06,-19.09 242.7,-24.06 247.84,-28.81"/>
<g id="a_edge3&#45;headlabel"><a xlink:href="dir_000023_000058.html" target="_top" xlink:title="13">
<text text-anchor="middle" x="247.49" y="-30.87" font-family="Helvetica,sans-Serif" font-size="10.00" fill="#63b8ff">13</text>
</a>
</g>
</g>
<!-- dir_68237f5ad657fbd3a6f57b22369e8d70 -->
<g id="node2" class="node">
<title>dir_68237f5ad657fbd3a6f57b22369e8d70</title>
<g id="a_node2"><a xlink:href="dir_68237f5ad657fbd3a6f57b22369e8d70.html" target="_top" xlink:title="arch">
<polygon fill="#a2b4d6" stroke="#404040" points="175,-74 137,-74 137,-55 175,-55 175,-74"/>
<text text-anchor="middle" x="156" y="-62" font-family="Helvetica,sans-Serif" font-size="10.00">arch</text>
</a>
</g>
</g>
<!-- dir_0c10a90f1e41925b3401affb757a2474 -->
<g id="node3" class="node">
<title>dir_0c10a90f1e41925b3401affb757a2474</title>
<g id="a_node3"><a xlink:href="dir_0c10a90f1e41925b3401affb757a2474.html" target="_top" xlink:title="iros">
<polygon fill="#a2b4d6" stroke="#404040" points="118.5,-74 83.5,-74 83.5,-55 118.5,-55 118.5,-74"/>
<text text-anchor="middle" x="101" y="-62" font-family="Helvetica,sans-Serif" font-size="10.00">iros</text>
</a>
</g>
</g>
<!-- dir_81c5e83c0ae09d86420abd8d1c407ee5 -->
<g id="node4" class="node">
<title>dir_81c5e83c0ae09d86420abd8d1c407ee5</title>
<g id="a_node4"><a xlink:href="dir_81c5e83c0ae09d86420abd8d1c407ee5.html" target="_top" xlink:title="linux">
<polygon fill="#a2b4d6" stroke="#404040" points="65.5,-74 24.5,-74 24.5,-55 65.5,-55 65.5,-74"/>
<text text-anchor="middle" x="45" y="-62" font-family="Helvetica,sans-Serif" font-size="10.00">linux</text>
</a>
</g>
</g>
</g>
</svg>
