<?xml version="1.0" encoding="UTF-8" standalone="no"?>
<!DOCTYPE svg PUBLIC "-//W3C//DTD SVG 1.1//EN"
 "http://www.w3.org/Graphics/SVG/1.1/DTD/svg11.dtd">
<!-- Generated by graphviz version 2.43.0 (0)
 -->
<!-- Title: libs/di/include/di/execution/interface Pages: 1 -->
<svg width="948pt" height="133pt"
 viewBox="0.00 0.00 948.00 133.00" xmlns="http://www.w3.org/2000/svg" xmlns:xlink="http://www.w3.org/1999/xlink">
<g id="graph0" class="graph" transform="scale(1 1) rotate(0) translate(4 129)">
<title>libs/di/include/di/execution/interface</title>
<g id="clust1" class="cluster">
<title>clusterdir_182dab0b86097ba072332b7ad8fceb7f</title>
<g id="a_clust1"><a xlink:href="dir_182dab0b86097ba072332b7ad8fceb7f.html" target="_top" xlink:title="execution">
<polygon fill="#edf0f7" stroke="#7f7f7f" stroke-dasharray="5,2" points="8,-8 8,-117 504,-117 504,-8 8,-8"/>
<text text-anchor="middle" x="256" y="-105" font-family="Helvetica,sans-Serif" font-size="10.00">execution</text>
</a>
</g>
</g>
<!-- dir_38011a79da39fb3448319eccf8c364d9 -->
<g id="node1" class="node">
<title>dir_38011a79da39fb3448319eccf8c364d9</title>
<g id="a_node1"><a xlink:href="dir_38011a79da39fb3448319eccf8c364d9.html" target="_top" xlink:title="query">
<polygon fill="#a2b4d6" stroke="#404040" points="60,-35 16,-35 16,-16 60,-16 60,-35"/>
<text text-anchor="middle" x="38" y="-23" font-family="Helvetica,sans-Serif" font-size="10.00">query</text>
</a>
</g>
</g>
<!-- dir_569ed69d6bb9bf9a95676c3a98a04440 -->
<g id="node2" class="node">
<title>dir_569ed69d6bb9bf9a95676c3a98a04440</title>
<g id="a_node2"><a xlink:href="dir_569ed69d6bb9bf9a95676c3a98a04440.html" target="_top" xlink:title="types">
<polygon fill="#a2b4d6" stroke="#404040" points="122,-35 78,-35 78,-16 122,-16 122,-35"/>
<text text-anchor="middle" x="100" y="-23" font-family="Helvetica,sans-Serif" font-size="10.00">types</text>
</a>
</g>
</g>
<!-- dir_57df25969c72935fa0fddf8bd8d3498c -->
<g id="node3" class="node">
<title>dir_57df25969c72935fa0fddf8bd8d3498c</title>
<g id="a_node3"><a xlink:href="dir_57df25969c72935fa0fddf8bd8d3498c.html" target="_top" xlink:title="meta">
<polygon fill="#a2b4d6" stroke="#404040" points="182,-35 140,-35 140,-16 182,-16 182,-35"/>
<text text-anchor="middle" x="161" y="-23" font-family="Helvetica,sans-Serif" font-size="10.00">meta</text>
</a>
</g>
</g>
<!-- dir_64711c3453254974b931c55eb005475a -->
<g id="node4" class="node">
<title>dir_64711c3453254974b931c55eb005475a</title>
<g id="a_node4"><a xlink:href="dir_64711c3453254974b931c55eb005475a.html" target="_top" xlink:title="coroutine">
<polygon fill="#a2b4d6" stroke="#404040" points="262,-35 200,-35 200,-16 262,-16 262,-35"/>
<text text-anchor="middle" x="231" y="-23" font-family="Helvetica,sans-Serif" font-size="10.00">coroutine</text>
</a>
</g>
</g>
<!-- dir_72b20bf6291bd35729057dcb4ccbac76 -->
<g id="node5" class="node">
<title>dir_72b20bf6291bd35729057dcb4ccbac76</title>
<g id="a_node5"><a xlink:href="dir_72b20bf6291bd35729057dcb4ccbac76.html" target="_top" xlink:title="concepts">
<polygon fill="#a2b4d6" stroke="#404040" points="340,-35 280,-35 280,-16 340,-16 340,-35"/>
<text text-anchor="middle" x="310" y="-23" font-family="Helvetica,sans-Serif" font-size="10.00">concepts</text>
</a>
</g>
</g>
<!-- dir_8620533e8531467fdbfb737d3ec42837 -->
<g id="node6" class="node">
<title>dir_8620533e8531467fdbfb737d3ec42837</title>
<g id="a_node6"><a xlink:href="dir_8620533e8531467fdbfb737d3ec42837.html" target="_top" xlink:title="receiver">
<polygon fill="#a2b4d6" stroke="#404040" points="414,-35 358,-35 358,-16 414,-16 414,-35"/>
<text text-anchor="middle" x="386" y="-23" font-family="Helvetica,sans-Serif" font-size="10.00">receiver</text>
</a>
</g>
</g>
<!-- dir_b7ad26a73b774414b6d3658268280d20 -->
<g id="node7" class="node">
<title>dir_b7ad26a73b774414b6d3658268280d20</title>
<g id="a_node7"><a xlink:href="dir_b7ad26a73b774414b6d3658268280d20.html" target="_top" xlink:title="sequence">
<polygon fill="#a2b4d6" stroke="#404040" points="495.5,-35 432.5,-35 432.5,-16 495.5,-16 495.5,-35"/>
<text text-anchor="middle" x="464" y="-23" font-family="Helvetica,sans-Serif" font-size="10.00">sequence</text>
</a>
</g>
</g>
<!-- dir_27e1a0af1927749316784e6421682a5e -->
<g id="node8" class="node">
<title>dir_27e1a0af1927749316784e6421682a5e</title>
<g id="a_node8"><a xlink:href="dir_27e1a0af1927749316784e6421682a5e.html" target="_top" xlink:title="interface">
<polygon fill="#edf0f7" stroke="#404040" stroke-width="2" points="495,-90 435,-90 435,-71 495,-71 495,-90"/>
<text text-anchor="middle" x="465" y="-78" font-family="Helvetica,sans-Serif" font-size="10.00">interface</text>
</a>
</g>
</g>
<!-- dir_27e1a0af1927749316784e6421682a5e&#45;&gt;dir_38011a79da39fb3448319eccf8c364d9 -->
<g id="edge2" class="edge">
<title>dir_27e1a0af1927749316784e6421682a5e&#45;&gt;dir_38011a79da39fb3448319eccf8c364d9</title>
<path fill="none" stroke="#63b8ff" d="M434.95,-77.73C370.05,-73.55 211.85,-61.55 70.41,-34.99"/>
<polygon fill="#63b8ff" stroke="#63b8ff" points="70.73,-31.48 60.25,-33.05 69.42,-38.36 70.73,-31.48"/>
<g id="a_edge2&#45;headlabel"><a xlink:href="dir_000096_000139.html" target="_top" xlink:title="3">
<text text-anchor="middle" x="74.8" y="-26.87" font-family="Helvetica,sans-Serif" font-size="10.00" fill="#63b8ff">3</text>
</a>
</g>
</g>
<!-- dir_27e1a0af1927749316784e6421682a5e&#45;&gt;dir_569ed69d6bb9bf9a95676c3a98a04440 -->
<g id="edge4" class="edge">
<title>dir_27e1a0af1927749316784e6421682a5e&#45;&gt;dir_569ed69d6bb9bf9a95676c3a98a04440</title>
<path fill="none" stroke="#63b8ff" d="M434.83,-76.86C377.6,-71.56 249.21,-58.25 132.11,-34.98"/>
<polygon fill="#63b8ff" stroke="#63b8ff" points="132.76,-31.54 122.26,-32.99 131.38,-38.4 132.76,-31.54"/>
<g id="a_edge4&#45;headlabel"><a xlink:href="dir_000096_000179.html" target="_top" xlink:title="2">
<text text-anchor="middle" x="136.84" y="-26.97" font-family="Helvetica,sans-Serif" font-size="10.00" fill="#63b8ff">2</text>
</a>
</g>
</g>
<!-- dir_27e1a0af1927749316784e6421682a5e&#45;&gt;dir_57df25969c72935fa0fddf8bd8d3498c -->
<g id="edge5" class="edge">
<title>dir_27e1a0af1927749316784e6421682a5e&#45;&gt;dir_57df25969c72935fa0fddf8bd8d3498c</title>
<path fill="none" stroke="#63b8ff" d="M434.78,-75.75C385.8,-69.42 285.88,-55.48 192.15,-35.04"/>
<polygon fill="#63b8ff" stroke="#63b8ff" points="192.75,-31.58 182.23,-32.84 191.24,-38.42 192.75,-31.58"/>
<g id="a_edge5&#45;headlabel"><a xlink:href="dir_000096_000121.html" target="_top" xlink:title="3">
<text text-anchor="middle" x="196.87" y="-27.09" font-family="Helvetica,sans-Serif" font-size="10.00" fill="#63b8ff">3</text>
</a>
</g>
</g>
<!-- dir_27e1a0af1927749316784e6421682a5e&#45;&gt;dir_64711c3453254974b931c55eb005475a -->
<g id="edge6" class="edge">
<title>dir_27e1a0af1927749316784e6421682a5e&#45;&gt;dir_64711c3453254974b931c55eb005475a</title>
<path fill="none" stroke="#63b8ff" d="M434.89,-72.68C393.37,-63.28 318.42,-46.3 271.88,-35.76"/>
<polygon fill="#63b8ff" stroke="#63b8ff" points="272.64,-32.34 262.11,-33.55 271.09,-39.17 272.64,-32.34"/>
<g id="a_edge6&#45;headlabel"><a xlink:href="dir_000096_000054.html" target="_top" xlink:title="2">
<text text-anchor="middle" x="276.77" y="-27.87" font-family="Helvetica,sans-Serif" font-size="10.00" fill="#63b8ff">2</text>
</a>
</g>
</g>
<!-- dir_27e1a0af1927749316784e6421682a5e&#45;&gt;dir_72b20bf6291bd35729057dcb4ccbac76 -->
<g id="edge7" class="edge">
<title>dir_27e1a0af1927749316784e6421682a5e&#45;&gt;dir_72b20bf6291bd35729057dcb4ccbac76</title>
<path fill="none" stroke="#63b8ff" d="M440.1,-70.98C414.3,-62.16 373.78,-48.31 344.82,-38.41"/>
<polygon fill="#63b8ff" stroke="#63b8ff" points="345.69,-35.01 335.1,-35.08 343.43,-41.63 345.69,-35.01"/>
<g id="a_edge7&#45;headlabel"><a xlink:href="dir_000096_000038.html" target="_top" xlink:title="11">
<text text-anchor="middle" x="350.01" y="-30.98" font-family="Helvetica,sans-Serif" font-size="10.00" fill="#63b8ff">11</text>
</a>
</g>
</g>
<!-- dir_27e1a0af1927749316784e6421682a5e&#45;&gt;dir_8620533e8531467fdbfb737d3ec42837 -->
<g id="edge8" class="edge">
<title>dir_27e1a0af1927749316784e6421682a5e&#45;&gt;dir_8620533e8531467fdbfb737d3ec42837</title>
<path fill="none" stroke="#63b8ff" d="M452.31,-70.98C440.17,-62.84 421.64,-50.41 407.25,-40.76"/>
<polygon fill="#63b8ff" stroke="#63b8ff" points="409.18,-37.84 398.92,-35.17 405.28,-43.65 409.18,-37.84"/>
<g id="a_edge8&#45;headlabel"><a xlink:href="dir_000096_000144.html" target="_top" xlink:title="1">
<text text-anchor="middle" x="413.74" y="-34.98" font-family="Helvetica,sans-Serif" font-size="10.00" fill="#63b8ff">1</text>
</a>
</g>
</g>
<!-- dir_27e1a0af1927749316784e6421682a5e&#45;&gt;dir_b7ad26a73b774414b6d3658268280d20 -->
<g id="edge12" class="edge">
<title>dir_27e1a0af1927749316784e6421682a5e&#45;&gt;dir_b7ad26a73b774414b6d3658268280d20</title>
<path fill="none" stroke="#63b8ff" d="M464.83,-70.75C464.7,-63.8 464.52,-53.85 464.35,-45.13"/>
<polygon fill="#63b8ff" stroke="#63b8ff" points="467.85,-45.02 464.16,-35.09 460.85,-45.15 467.85,-45.02"/>
<g id="a_edge12&#45;headlabel"><a xlink:href="dir_000096_000150.html" target="_top" xlink:title="1">
<text text-anchor="middle" x="470.76" y="-46.06" font-family="Helvetica,sans-Serif" font-size="10.00" fill="#63b8ff">1</text>
</a>
</g>
</g>
<!-- dir_0669efae56692bb73da75efb5ebbccdf -->
<g id="node9" class="node">
<title>dir_0669efae56692bb73da75efb5ebbccdf</title>
<g id="a_node9"><a xlink:href="dir_0669efae56692bb73da75efb5ebbccdf.html" target="_top" xlink:title="function">
<polygon fill="#edf0f7" stroke="red" stroke-dasharray="5,2" points="570,-35 514,-35 514,-16 570,-16 570,-35"/>
<text text-anchor="middle" x="542" y="-23" font-family="Helvetica,sans-Serif" font-size="10.00">function</text>
</a>
</g>
</g>
<!-- dir_27e1a0af1927749316784e6421682a5e&#45;&gt;dir_0669efae56692bb73da75efb5ebbccdf -->
<g id="edge1" class="edge">
<title>dir_27e1a0af1927749316784e6421682a5e&#45;&gt;dir_0669efae56692bb73da75efb5ebbccdf</title>
<path fill="none" stroke="#63b8ff" d="M477.37,-70.98C489.09,-62.92 506.92,-50.65 520.89,-41.03"/>
<polygon fill="#63b8ff" stroke="#63b8ff" points="523.15,-43.72 529.4,-35.17 519.18,-37.96 523.15,-43.72"/>
<g id="a_edge1&#45;headlabel"><a xlink:href="dir_000096_000082.html" target="_top" xlink:title="6">
<text text-anchor="middle" x="521.8" y="-45.6" font-family="Helvetica,sans-Serif" font-size="10.00" fill="#63b8ff">6</text>
</a>
</g>
</g>
<!-- dir_4535887b2cdca47e625f259d07db0112 -->
<g id="node10" class="node">
<title>dir_4535887b2cdca47e625f259d07db0112</title>
<g id="a_node10"><a xlink:href="dir_4535887b2cdca47e625f259d07db0112.html" target="_top" xlink:title="util">
<polygon fill="#edf0f7" stroke="#7f7f7f" points="620,-35 588,-35 588,-16 620,-16 620,-35"/>
<text text-anchor="middle" x="604" y="-23" font-family="Helvetica,sans-Serif" font-size="10.00">util</text>
</a>
</g>
</g>
<!-- dir_27e1a0af1927749316784e6421682a5e&#45;&gt;dir_4535887b2cdca47e625f259d07db0112 -->
<g id="edge3" class="edge">
<title>dir_27e1a0af1927749316784e6421682a5e&#45;&gt;dir_4535887b2cdca47e625f259d07db0112</title>
<path fill="none" stroke="#63b8ff" d="M487.33,-70.98C512.13,-61.53 552.09,-46.29 578.2,-36.34"/>
<polygon fill="#63b8ff" stroke="#63b8ff" points="579.71,-39.51 587.8,-32.68 577.21,-32.97 579.71,-39.51"/>
<g id="a_edge3&#45;headlabel"><a xlink:href="dir_000096_000185.html" target="_top" xlink:title="6">
<text text-anchor="middle" x="577.36" y="-40.94" font-family="Helvetica,sans-Serif" font-size="10.00" fill="#63b8ff">6</text>
</a>
</g>
</g>
<!-- dir_942cfae36a92b6b1c4b510e99e852d40 -->
<g id="node11" class="node">
<title>dir_942cfae36a92b6b1c4b510e99e852d40</title>
<g id="a_node11"><a xlink:href="dir_942cfae36a92b6b1c4b510e99e852d40.html" target="_top" xlink:title="vocab">
<polygon fill="#edf0f7" stroke="red" stroke-dasharray="5,2" points="684,-35 638,-35 638,-16 684,-16 684,-35"/>
<text text-anchor="middle" x="661" y="-23" font-family="Helvetica,sans-Serif" font-size="10.00">vocab</text>
</a>
</g>
</g>
<!-- dir_27e1a0af1927749316784e6421682a5e&#45;&gt;dir_942cfae36a92b6b1c4b510e99e852d40 -->
<g id="edge9" class="edge">
<title>dir_27e1a0af1927749316784e6421682a5e&#45;&gt;dir_942cfae36a92b6b1c4b510e99e852d40</title>
<path fill="none" stroke="#63b8ff" d="M495.2,-71.33C531.12,-61.62 590.89,-45.46 628,-35.42"/>
<polygon fill="#63b8ff" stroke="#63b8ff" points="629.09,-38.75 637.83,-32.77 627.26,-32 629.09,-38.75"/>
<g id="a_edge9&#45;headlabel"><a xlink:href="dir_000096_000189.html" target="_top" xlink:title="2">
<text text-anchor="middle" x="626.36" y="-39.93" font-family="Helvetica,sans-Serif" font-size="10.00" fill="#63b8ff">2</text>
</a>
</g>
</g>
<!-- dir_a60d4453151dca6bdd8e5fcc350e379b -->
<g id="node12" class="node">
<title>dir_a60d4453151dca6bdd8e5fcc350e379b</title>
<g id="a_node12"><a xlink:href="dir_a60d4453151dca6bdd8e5fcc350e379b.html" target="_top" xlink:title="assert">
<polygon fill="#edf0f7" stroke="#7f7f7f" points="749.5,-35 702.5,-35 702.5,-16 749.5,-16 749.5,-35"/>
<text text-anchor="middle" x="726" y="-23" font-family="Helvetica,sans-Serif" font-size="10.00">assert</text>
</a>
</g>
</g>
<!-- dir_27e1a0af1927749316784e6421682a5e&#45;&gt;dir_a60d4453151dca6bdd8e5fcc350e379b -->
<g id="edge10" class="edge">
<title>dir_27e1a0af1927749316784e6421682a5e&#45;&gt;dir_a60d4453151dca6bdd8e5fcc350e379b</title>
<path fill="none" stroke="#63b8ff" d="M495.36,-74.17C537.37,-66.66 615.81,-52.18 692.43,-35.01"/>
<polygon fill="#63b8ff" stroke="#63b8ff" points="693.26,-38.41 702.25,-32.8 691.72,-31.59 693.26,-38.41"/>
<g id="a_edge10&#45;headlabel"><a xlink:href="dir_000096_000018.html" target="_top" xlink:title="1">
<text text-anchor="middle" x="690.38" y="-39.47" font-family="Helvetica,sans-Serif" font-size="10.00" fill="#63b8ff">1</text>
</a>
</g>
</g>
<!-- dir_aaf67126bd5deefc4d96704f76f22cc2 -->
<g id="node13" class="node">
<title>dir_aaf67126bd5deefc4d96704f76f22cc2</title>
<g id="a_node13"><a xlink:href="dir_aaf67126bd5deefc4d96704f76f22cc2.html" target="_top" xlink:title="platform">
<polygon fill="#edf0f7" stroke="#7f7f7f" points="826.5,-35 767.5,-35 767.5,-16 826.5,-16 826.5,-35"/>
<text text-anchor="middle" x="797" y="-23" font-family="Helvetica,sans-Serif" font-size="10.00">platform</text>
</a>
</g>
</g>
<!-- dir_27e1a0af1927749316784e6421682a5e&#45;&gt;dir_aaf67126bd5deefc4d96704f76f22cc2 -->
<g id="edge11" class="edge">
<title>dir_27e1a0af1927749316784e6421682a5e&#45;&gt;dir_aaf67126bd5deefc4d96704f76f22cc2</title>
<path fill="none" stroke="#63b8ff" d="M495.17,-75.64C546.83,-68.88 655.78,-53.96 757.08,-35.26"/>
<polygon fill="#63b8ff" stroke="#63b8ff" points="757.98,-38.65 767.17,-33.38 756.7,-31.77 757.98,-38.65"/>
<g id="a_edge11&#45;headlabel"><a xlink:href="dir_000096_000135.html" target="_top" xlink:title="1">
<text text-anchor="middle" x="754.97" y="-39.6" font-family="Helvetica,sans-Serif" font-size="10.00" fill="#63b8ff">1</text>
</a>
</g>
</g>
<!-- dir_e44b40e2f7a090819cf1915a0b103ff1 -->
<g id="node14" class="node">
<title>dir_e44b40e2f7a090819cf1915a0b103ff1</title>
<g id="a_node14"><a xlink:href="dir_e44b40e2f7a090819cf1915a0b103ff1.html" target="_top" xlink:title="any">
<polygon fill="#edf0f7" stroke="red" stroke-dasharray="5,2" points="879.5,-35 844.5,-35 844.5,-16 879.5,-16 879.5,-35"/>
<text text-anchor="middle" x="862" y="-23" font-family="Helvetica,sans-Serif" font-size="10.00">any</text>
</a>
</g>
</g>
<!-- dir_27e1a0af1927749316784e6421682a5e&#45;&gt;dir_e44b40e2f7a090819cf1915a0b103ff1 -->
<g id="edge13" class="edge">
<title>dir_27e1a0af1927749316784e6421682a5e&#45;&gt;dir_e44b40e2f7a090819cf1915a0b103ff1</title>
<path fill="none" stroke="#63b8ff" d="M495.15,-77.9C557.23,-74.17 703.83,-63.15 834.45,-34.97"/>
<polygon fill="#63b8ff" stroke="#63b8ff" points="835.21,-38.39 844.23,-32.82 833.71,-31.55 835.21,-38.39"/>
<g id="a_edge13&#45;headlabel"><a xlink:href="dir_000096_000008.html" target="_top" xlink:title="2">
<text text-anchor="middle" x="832.31" y="-39.43" font-family="Helvetica,sans-Serif" font-size="10.00" fill="#63b8ff">2</text>
</a>
</g>
</g>
<!-- dir_f555f996eeee1ebe901dc71e0c5de8ff -->
<g id="node15" class="node">
<title>dir_f555f996eeee1ebe901dc71e0c5de8ff</title>
<g id="a_node15"><a xlink:href="dir_f555f996eeee1ebe901dc71e0c5de8ff.html" target="_top" xlink:title="meta">
<polygon fill="#edf0f7" stroke="#7f7f7f" points="940,-35 898,-35 898,-16 940,-16 940,-35"/>
<text text-anchor="middle" x="919" y="-23" font-family="Helvetica,sans-Serif" font-size="10.00">meta</text>
</a>
</g>
</g>
<!-- dir_27e1a0af1927749316784e6421682a5e&#45;&gt;dir_f555f996eeee1ebe901dc71e0c5de8ff -->
<g id="edge14" class="edge">
<title>dir_27e1a0af1927749316784e6421682a5e&#45;&gt;dir_f555f996eeee1ebe901dc71e0c5de8ff</title>
<path fill="none" stroke="#63b8ff" d="M495.07,-78.12C563.35,-74.6 735.31,-63.63 887.79,-34.91"/>
<polygon fill="#63b8ff" stroke="#63b8ff" points="888.64,-38.31 897.8,-32.99 887.32,-31.44 888.64,-38.31"/>
<g id="a_edge14&#45;headlabel"><a xlink:href="dir_000096_000122.html" target="_top" xlink:title="1">
<text text-anchor="middle" x="885.64" y="-39.27" font-family="Helvetica,sans-Serif" font-size="10.00" fill="#63b8ff">1</text>
</a>
</g>
</g>
</g>
</svg>
