<?xml version="1.0" encoding="UTF-8" standalone="no"?>
<!DOCTYPE svg PUBLIC "-//W3C//DTD SVG 1.1//EN"
 "http://www.w3.org/Graphics/SVG/1.1/DTD/svg11.dtd">
<!-- Generated by graphviz version 2.43.0 (0)
 -->
<!-- Title: libs/di/include/di/parser/basic Pages: 1 -->
<svg width="668pt" height="133pt"
 viewBox="0.00 0.00 668.00 133.00" xmlns="http://www.w3.org/2000/svg" xmlns:xlink="http://www.w3.org/1999/xlink">
<g id="graph0" class="graph" transform="scale(1 1) rotate(0) translate(4 129)">
<title>libs/di/include/di/parser/basic</title>
<g id="clust1" class="cluster">
<title>clusterdir_c63ec87f2f7fd7fbd5b69a04f05a2815</title>
<g id="a_clust1"><a xlink:href="dir_c63ec87f2f7fd7fbd5b69a04f05a2815.html" target="_top" xlink:title="parser">
<polygon fill="#edf0f7" stroke="#7f7f7f" stroke-dasharray="5,2" points="8,-8 8,-117 234,-117 234,-8 8,-8"/>
<text text-anchor="middle" x="121" y="-105" font-family="Helvetica,sans-Serif" font-size="10.00">parser</text>
</a>
</g>
</g>
<!-- dir_967eafbc0b7c635d33b7b0b328f0cb12 -->
<g id="node1" class="node">
<title>dir_967eafbc0b7c635d33b7b0b328f0cb12</title>
<g id="a_node1"><a xlink:href="dir_967eafbc0b7c635d33b7b0b328f0cb12.html" target="_top" xlink:title="concepts">
<polygon fill="#a2b4d6" stroke="#404040" points="76,-35 16,-35 16,-16 76,-16 76,-35"/>
<text text-anchor="middle" x="46" y="-23" font-family="Helvetica,sans-Serif" font-size="10.00">concepts</text>
</a>
</g>
</g>
<!-- dir_979062da5ab806b052b4261920d5e719 -->
<g id="node2" class="node">
<title>dir_979062da5ab806b052b4261920d5e719</title>
<g id="a_node2"><a xlink:href="dir_979062da5ab806b052b4261920d5e719.html" target="_top" xlink:title="meta">
<polygon fill="#a2b4d6" stroke="#404040" points="136,-35 94,-35 94,-16 136,-16 136,-35"/>
<text text-anchor="middle" x="115" y="-23" font-family="Helvetica,sans-Serif" font-size="10.00">meta</text>
</a>
</g>
</g>
<!-- dir_b90494a72034161169528f50be8b61b3 -->
<g id="node3" class="node">
<title>dir_b90494a72034161169528f50be8b61b3</title>
<g id="a_node3"><a xlink:href="dir_b90494a72034161169528f50be8b61b3.html" target="_top" xlink:title="combinator">
<polygon fill="#a2b4d6" stroke="#404040" points="226,-35 154,-35 154,-16 226,-16 226,-35"/>
<text text-anchor="middle" x="190" y="-23" font-family="Helvetica,sans-Serif" font-size="10.00">combinator</text>
</a>
</g>
</g>
<!-- dir_352cf3ee91da28188575262295232890 -->
<g id="node4" class="node">
<title>dir_352cf3ee91da28188575262295232890</title>
<g id="a_node4"><a xlink:href="dir_352cf3ee91da28188575262295232890.html" target="_top" xlink:title="basic">
<polygon fill="#edf0f7" stroke="#404040" stroke-width="2" points="226,-90 184,-90 184,-71 226,-71 226,-90"/>
<text text-anchor="middle" x="205" y="-78" font-family="Helvetica,sans-Serif" font-size="10.00">basic</text>
</a>
</g>
</g>
<!-- dir_352cf3ee91da28188575262295232890&#45;&gt;dir_967eafbc0b7c635d33b7b0b328f0cb12 -->
<g id="edge7" class="edge">
<title>dir_352cf3ee91da28188575262295232890&#45;&gt;dir_967eafbc0b7c635d33b7b0b328f0cb12</title>
<path fill="none" stroke="#63b8ff" d="M183.89,-72.46C157.74,-63.75 112.82,-48.77 81.38,-38.29"/>
<polygon fill="#63b8ff" stroke="#63b8ff" points="82.27,-34.9 71.68,-35.06 80.06,-41.54 82.27,-34.9"/>
<g id="a_edge7&#45;headlabel"><a xlink:href="dir_000020_000040.html" target="_top" xlink:title="7">
<text text-anchor="middle" x="86.58" y="-30.85" font-family="Helvetica,sans-Serif" font-size="10.00" fill="#63b8ff">7</text>
</a>
</g>
</g>
<!-- dir_352cf3ee91da28188575262295232890&#45;&gt;dir_979062da5ab806b052b4261920d5e719 -->
<g id="edge8" class="edge">
<title>dir_352cf3ee91da28188575262295232890&#45;&gt;dir_979062da5ab806b052b4261920d5e719</title>
<path fill="none" stroke="#63b8ff" d="M190.54,-70.98C176.58,-62.77 155.21,-50.18 138.75,-40.49"/>
<polygon fill="#63b8ff" stroke="#63b8ff" points="140.12,-37.23 129.72,-35.17 136.56,-43.26 140.12,-37.23"/>
<g id="a_edge8&#45;headlabel"><a xlink:href="dir_000020_000123.html" target="_top" xlink:title="6">
<text text-anchor="middle" x="144.65" y="-34.11" font-family="Helvetica,sans-Serif" font-size="10.00" fill="#63b8ff">6</text>
</a>
</g>
</g>
<!-- dir_352cf3ee91da28188575262295232890&#45;&gt;dir_b90494a72034161169528f50be8b61b3 -->
<g id="edge9" class="edge">
<title>dir_352cf3ee91da28188575262295232890&#45;&gt;dir_b90494a72034161169528f50be8b61b3</title>
<path fill="none" stroke="#63b8ff" d="M202.52,-70.75C200.54,-63.72 197.68,-53.62 195.19,-44.84"/>
<polygon fill="#63b8ff" stroke="#63b8ff" points="198.52,-43.76 192.43,-35.09 191.79,-45.66 198.52,-43.76"/>
<g id="a_edge9&#45;headlabel"><a xlink:href="dir_000020_000034.html" target="_top" xlink:title="6">
<text text-anchor="middle" x="202.23" y="-43.94" font-family="Helvetica,sans-Serif" font-size="10.00" fill="#63b8ff">6</text>
</a>
</g>
</g>
<!-- dir_048287677304621c659962c2a2c2732d -->
<g id="node5" class="node">
<title>dir_048287677304621c659962c2a2c2732d</title>
<g id="a_node5"><a xlink:href="dir_048287677304621c659962c2a2c2732d.html" target="_top" xlink:title="ccpp">
<polygon fill="#edf0f7" stroke="red" stroke-dasharray="5,2" points="283.5,-35 244.5,-35 244.5,-16 283.5,-16 283.5,-35"/>
<text text-anchor="middle" x="264" y="-23" font-family="Helvetica,sans-Serif" font-size="10.00">ccpp</text>
</a>
</g>
</g>
<!-- dir_352cf3ee91da28188575262295232890&#45;&gt;dir_048287677304621c659962c2a2c2732d -->
<g id="edge1" class="edge">
<title>dir_352cf3ee91da28188575262295232890&#45;&gt;dir_048287677304621c659962c2a2c2732d</title>
<path fill="none" stroke="#63b8ff" d="M214.48,-70.98C223.2,-63.15 236.34,-51.34 246.9,-41.86"/>
<polygon fill="#63b8ff" stroke="#63b8ff" points="249.25,-44.46 254.35,-35.17 244.57,-39.25 249.25,-44.46"/>
<g id="a_edge1&#45;headlabel"><a xlink:href="dir_000020_000030.html" target="_top" xlink:title="2">
<text text-anchor="middle" x="248.47" y="-46.47" font-family="Helvetica,sans-Serif" font-size="10.00" fill="#63b8ff">2</text>
</a>
</g>
</g>
<!-- dir_30ecaf38acae77be14fb9173f98f8612 -->
<g id="node6" class="node">
<title>dir_30ecaf38acae77be14fb9173f98f8612</title>
<g id="a_node6"><a xlink:href="dir_30ecaf38acae77be14fb9173f98f8612.html" target="_top" xlink:title="types">
<polygon fill="#edf0f7" stroke="#7f7f7f" points="346,-35 302,-35 302,-16 346,-16 346,-35"/>
<text text-anchor="middle" x="324" y="-23" font-family="Helvetica,sans-Serif" font-size="10.00">types</text>
</a>
</g>
</g>
<!-- dir_352cf3ee91da28188575262295232890&#45;&gt;dir_30ecaf38acae77be14fb9173f98f8612 -->
<g id="edge2" class="edge">
<title>dir_352cf3ee91da28188575262295232890&#45;&gt;dir_30ecaf38acae77be14fb9173f98f8612</title>
<path fill="none" stroke="#63b8ff" d="M224.12,-70.98C243.35,-62.42 273.23,-49.11 295.31,-39.28"/>
<polygon fill="#63b8ff" stroke="#63b8ff" points="296.82,-42.44 304.53,-35.17 293.97,-36.04 296.82,-42.44"/>
<g id="a_edge2&#45;headlabel"><a xlink:href="dir_000020_000180.html" target="_top" xlink:title="1">
<text text-anchor="middle" x="294.69" y="-43.99" font-family="Helvetica,sans-Serif" font-size="10.00" fill="#63b8ff">1</text>
</a>
</g>
</g>
<!-- dir_4535887b2cdca47e625f259d07db0112 -->
<g id="node7" class="node">
<title>dir_4535887b2cdca47e625f259d07db0112</title>
<g id="a_node7"><a xlink:href="dir_4535887b2cdca47e625f259d07db0112.html" target="_top" xlink:title="util">
<polygon fill="#edf0f7" stroke="#7f7f7f" points="396,-35 364,-35 364,-16 396,-16 396,-35"/>
<text text-anchor="middle" x="380" y="-23" font-family="Helvetica,sans-Serif" font-size="10.00">util</text>
</a>
</g>
</g>
<!-- dir_352cf3ee91da28188575262295232890&#45;&gt;dir_4535887b2cdca47e625f259d07db0112 -->
<g id="edge3" class="edge">
<title>dir_352cf3ee91da28188575262295232890&#45;&gt;dir_4535887b2cdca47e625f259d07db0112</title>
<path fill="none" stroke="#63b8ff" d="M226.44,-73.43C253.92,-65.58 303.22,-51.3 354.33,-35.12"/>
<polygon fill="#63b8ff" stroke="#63b8ff" points="355.42,-38.45 363.89,-32.08 353.3,-31.78 355.42,-38.45"/>
<g id="a_edge3&#45;headlabel"><a xlink:href="dir_000020_000185.html" target="_top" xlink:title="1">
<text text-anchor="middle" x="352.86" y="-39.74" font-family="Helvetica,sans-Serif" font-size="10.00" fill="#63b8ff">1</text>
</a>
</g>
</g>
<!-- dir_521de572ae4fe2915cc70a876c52f5b7 -->
<g id="node8" class="node">
<title>dir_521de572ae4fe2915cc70a876c52f5b7</title>
<g id="a_node8"><a xlink:href="dir_521de572ae4fe2915cc70a876c52f5b7.html" target="_top" xlink:title="container">
<polygon fill="#edf0f7" stroke="red" stroke-dasharray="5,2" points="476,-35 414,-35 414,-16 476,-16 476,-35"/>
<text text-anchor="middle" x="445" y="-23" font-family="Helvetica,sans-Serif" font-size="10.00">container</text>
</a>
</g>
</g>
<!-- dir_352cf3ee91da28188575262295232890&#45;&gt;dir_521de572ae4fe2915cc70a876c52f5b7 -->
<g id="edge4" class="edge">
<title>dir_352cf3ee91da28188575262295232890&#45;&gt;dir_521de572ae4fe2915cc70a876c52f5b7</title>
<path fill="none" stroke="#63b8ff" d="M226.3,-74.8C266.09,-66.01 352.35,-46.96 403.85,-35.59"/>
<polygon fill="#63b8ff" stroke="#63b8ff" points="404.65,-39 413.66,-33.42 403.14,-32.16 404.65,-39"/>
<g id="a_edge4&#45;headlabel"><a xlink:href="dir_000020_000046.html" target="_top" xlink:title="10">
<text text-anchor="middle" x="401.75" y="-40.04" font-family="Helvetica,sans-Serif" font-size="10.00" fill="#63b8ff">10</text>
</a>
</g>
</g>
<!-- dir_60d1624911c2c9f7b6f38e44ec895aaa -->
<g id="node9" class="node">
<title>dir_60d1624911c2c9f7b6f38e44ec895aaa</title>
<g id="a_node9"><a xlink:href="dir_60d1624911c2c9f7b6f38e44ec895aaa.html" target="_top" xlink:title="math">
<polygon fill="#edf0f7" stroke="red" stroke-dasharray="5,2" points="536,-35 494,-35 494,-16 536,-16 536,-35"/>
<text text-anchor="middle" x="515" y="-23" font-family="Helvetica,sans-Serif" font-size="10.00">math</text>
</a>
</g>
</g>
<!-- dir_352cf3ee91da28188575262295232890&#45;&gt;dir_60d1624911c2c9f7b6f38e44ec895aaa -->
<g id="edge5" class="edge">
<title>dir_352cf3ee91da28188575262295232890&#45;&gt;dir_60d1624911c2c9f7b6f38e44ec895aaa</title>
<path fill="none" stroke="#63b8ff" d="M226.24,-77C271.74,-71.45 382.15,-57.02 483.95,-35"/>
<polygon fill="#63b8ff" stroke="#63b8ff" points="484.76,-38.41 493.77,-32.85 483.26,-31.57 484.76,-38.41"/>
<g id="a_edge5&#45;headlabel"><a xlink:href="dir_000020_000117.html" target="_top" xlink:title="3">
<text text-anchor="middle" x="481.85" y="-39.45" font-family="Helvetica,sans-Serif" font-size="10.00" fill="#63b8ff">3</text>
</a>
</g>
</g>
<!-- dir_942cfae36a92b6b1c4b510e99e852d40 -->
<g id="node10" class="node">
<title>dir_942cfae36a92b6b1c4b510e99e852d40</title>
<g id="a_node10"><a xlink:href="dir_942cfae36a92b6b1c4b510e99e852d40.html" target="_top" xlink:title="vocab">
<polygon fill="#edf0f7" stroke="red" stroke-dasharray="5,2" points="600,-35 554,-35 554,-16 600,-16 600,-35"/>
<text text-anchor="middle" x="577" y="-23" font-family="Helvetica,sans-Serif" font-size="10.00">vocab</text>
</a>
</g>
</g>
<!-- dir_352cf3ee91da28188575262295232890&#45;&gt;dir_942cfae36a92b6b1c4b510e99e852d40 -->
<g id="edge6" class="edge">
<title>dir_352cf3ee91da28188575262295232890&#45;&gt;dir_942cfae36a92b6b1c4b510e99e852d40</title>
<path fill="none" stroke="#63b8ff" d="M226.24,-77.68C278.57,-73.01 417.95,-59.32 543.5,-35.07"/>
<polygon fill="#63b8ff" stroke="#63b8ff" points="544.52,-38.43 553.66,-33.07 543.18,-31.56 544.52,-38.43"/>
<g id="a_edge6&#45;headlabel"><a xlink:href="dir_000020_000189.html" target="_top" xlink:title="8">
<text text-anchor="middle" x="541.54" y="-39.41" font-family="Helvetica,sans-Serif" font-size="10.00" fill="#63b8ff">8</text>
</a>
</g>
</g>
<!-- dir_f555f996eeee1ebe901dc71e0c5de8ff -->
<g id="node11" class="node">
<title>dir_f555f996eeee1ebe901dc71e0c5de8ff</title>
<g id="a_node11"><a xlink:href="dir_f555f996eeee1ebe901dc71e0c5de8ff.html" target="_top" xlink:title="meta">
<polygon fill="#edf0f7" stroke="#7f7f7f" points="660,-35 618,-35 618,-16 660,-16 660,-35"/>
<text text-anchor="middle" x="639" y="-23" font-family="Helvetica,sans-Serif" font-size="10.00">meta</text>
</a>
</g>
</g>
<!-- dir_352cf3ee91da28188575262295232890&#45;&gt;dir_f555f996eeee1ebe901dc71e0c5de8ff -->
<g id="edge10" class="edge">
<title>dir_352cf3ee91da28188575262295232890&#45;&gt;dir_f555f996eeee1ebe901dc71e0c5de8ff</title>
<path fill="none" stroke="#63b8ff" d="M226.22,-78.41C285.28,-75.11 456.68,-63.77 607.87,-34.91"/>
<polygon fill="#63b8ff" stroke="#63b8ff" points="608.65,-38.32 617.8,-32.98 607.32,-31.45 608.65,-38.32"/>
<g id="a_edge10&#45;headlabel"><a xlink:href="dir_000020_000122.html" target="_top" xlink:title="5">
<text text-anchor="middle" x="605.66" y="-39.29" font-family="Helvetica,sans-Serif" font-size="10.00" fill="#63b8ff">5</text>
</a>
</g>
</g>
</g>
</svg>
