<?xml version="1.0" encoding="UTF-8" standalone="no"?>
<!DOCTYPE svg PUBLIC "-//W3C//DTD SVG 1.1//EN"
 "http://www.w3.org/Graphics/SVG/1.1/DTD/svg11.dtd">
<!-- Generated by graphviz version 2.43.0 (0)
 -->
<!-- Title: libs/di/include/di/vocab/expected Pages: 1 -->
<svg width="396pt" height="133pt"
 viewBox="0.00 0.00 396.00 133.00" xmlns="http://www.w3.org/2000/svg" xmlns:xlink="http://www.w3.org/1999/xlink">
<g id="graph0" class="graph" transform="scale(1 1) rotate(0) translate(4 129)">
<title>libs/di/include/di/vocab/expected</title>
<g id="clust1" class="cluster">
<title>clusterdir_942cfae36a92b6b1c4b510e99e852d40</title>
<g id="a_clust1"><a xlink:href="dir_942cfae36a92b6b1c4b510e99e852d40.html" target="_top" xlink:title="vocab">
<polygon fill="#edf0f7" stroke="#7f7f7f" stroke-dasharray="5,2" points="8,-8 8,-117 86,-117 86,-8 8,-8"/>
<text text-anchor="middle" x="47" y="-105" font-family="Helvetica,sans-Serif" font-size="10.00">vocab</text>
</a>
</g>
</g>
<!-- dir_fb93aeb8b3e9feea147f4ddef093a0f6 -->
<g id="node1" class="node">
<title>dir_fb93aeb8b3e9feea147f4ddef093a0f6</title>
<g id="a_node1"><a xlink:href="dir_fb93aeb8b3e9feea147f4ddef093a0f6.html" target="_top" xlink:title="optional">
<polygon fill="#a2b4d6" stroke="#404040" points="75,-35 19,-35 19,-16 75,-16 75,-35"/>
<text text-anchor="middle" x="47" y="-23" font-family="Helvetica,sans-Serif" font-size="10.00">optional</text>
</a>
</g>
</g>
<!-- dir_371ea777e73685379f49c81b97537e91 -->
<g id="node2" class="node">
<title>dir_371ea777e73685379f49c81b97537e91</title>
<g id="a_node2"><a xlink:href="dir_371ea777e73685379f49c81b97537e91.html" target="_top" xlink:title="expected">
<polygon fill="#edf0f7" stroke="#404040" stroke-width="2" points="78,-90 16,-90 16,-71 78,-71 78,-90"/>
<text text-anchor="middle" x="47" y="-78" font-family="Helvetica,sans-Serif" font-size="10.00">expected</text>
</a>
</g>
</g>
<!-- dir_371ea777e73685379f49c81b97537e91&#45;&gt;dir_fb93aeb8b3e9feea147f4ddef093a0f6 -->
<g id="edge6" class="edge">
<title>dir_371ea777e73685379f49c81b97537e91&#45;&gt;dir_fb93aeb8b3e9feea147f4ddef093a0f6</title>
<path fill="none" stroke="#63b8ff" d="M47,-70.75C47,-63.8 47,-53.85 47,-45.13"/>
<polygon fill="#63b8ff" stroke="#63b8ff" points="50.5,-45.09 47,-35.09 43.5,-45.09 50.5,-45.09"/>
<g id="a_edge6&#45;headlabel"><a xlink:href="dir_000073_000131.html" target="_top" xlink:title="3">
<text text-anchor="middle" x="53.34" y="-46.18" font-family="Helvetica,sans-Serif" font-size="10.00" fill="#63b8ff">3</text>
</a>
</g>
</g>
<!-- dir_0669efae56692bb73da75efb5ebbccdf -->
<g id="node3" class="node">
<title>dir_0669efae56692bb73da75efb5ebbccdf</title>
<g id="a_node3"><a xlink:href="dir_0669efae56692bb73da75efb5ebbccdf.html" target="_top" xlink:title="function">
<polygon fill="#edf0f7" stroke="red" stroke-dasharray="5,2" points="150,-35 94,-35 94,-16 150,-16 150,-35"/>
<text text-anchor="middle" x="122" y="-23" font-family="Helvetica,sans-Serif" font-size="10.00">function</text>
</a>
</g>
</g>
<!-- dir_371ea777e73685379f49c81b97537e91&#45;&gt;dir_0669efae56692bb73da75efb5ebbccdf -->
<g id="edge1" class="edge">
<title>dir_371ea777e73685379f49c81b97537e91&#45;&gt;dir_0669efae56692bb73da75efb5ebbccdf</title>
<path fill="none" stroke="#63b8ff" d="M59.05,-70.98C70.46,-62.92 87.83,-50.65 101.43,-41.03"/>
<polygon fill="#63b8ff" stroke="#63b8ff" points="103.58,-43.8 109.73,-35.17 99.54,-38.08 103.58,-43.8"/>
<g id="a_edge1&#45;headlabel"><a xlink:href="dir_000073_000082.html" target="_top" xlink:title="14">
<text text-anchor="middle" x="102.29" y="-45.69" font-family="Helvetica,sans-Serif" font-size="10.00" fill="#63b8ff">14</text>
</a>
</g>
</g>
<!-- dir_30ecaf38acae77be14fb9173f98f8612 -->
<g id="node4" class="node">
<title>dir_30ecaf38acae77be14fb9173f98f8612</title>
<g id="a_node4"><a xlink:href="dir_30ecaf38acae77be14fb9173f98f8612.html" target="_top" xlink:title="types">
<polygon fill="#edf0f7" stroke="#7f7f7f" points="212,-35 168,-35 168,-16 212,-16 212,-35"/>
<text text-anchor="middle" x="190" y="-23" font-family="Helvetica,sans-Serif" font-size="10.00">types</text>
</a>
</g>
</g>
<!-- dir_371ea777e73685379f49c81b97537e91&#45;&gt;dir_30ecaf38acae77be14fb9173f98f8612 -->
<g id="edge2" class="edge">
<title>dir_371ea777e73685379f49c81b97537e91&#45;&gt;dir_30ecaf38acae77be14fb9173f98f8612</title>
<path fill="none" stroke="#63b8ff" d="M69.98,-70.98C93.78,-62.16 131.16,-48.31 157.89,-38.4"/>
<polygon fill="#63b8ff" stroke="#63b8ff" points="159.39,-41.58 167.55,-34.82 156.96,-35.01 159.39,-41.58"/>
<g id="a_edge2&#45;headlabel"><a xlink:href="dir_000073_000180.html" target="_top" xlink:title="1">
<text text-anchor="middle" x="157.01" y="-42.99" font-family="Helvetica,sans-Serif" font-size="10.00" fill="#63b8ff">1</text>
</a>
</g>
</g>
<!-- dir_4535887b2cdca47e625f259d07db0112 -->
<g id="node5" class="node">
<title>dir_4535887b2cdca47e625f259d07db0112</title>
<g id="a_node5"><a xlink:href="dir_4535887b2cdca47e625f259d07db0112.html" target="_top" xlink:title="util">
<polygon fill="#edf0f7" stroke="#7f7f7f" points="262,-35 230,-35 230,-16 262,-16 262,-35"/>
<text text-anchor="middle" x="246" y="-23" font-family="Helvetica,sans-Serif" font-size="10.00">util</text>
</a>
</g>
</g>
<!-- dir_371ea777e73685379f49c81b97537e91&#45;&gt;dir_4535887b2cdca47e625f259d07db0112 -->
<g id="edge3" class="edge">
<title>dir_371ea777e73685379f49c81b97537e91&#45;&gt;dir_4535887b2cdca47e625f259d07db0112</title>
<path fill="none" stroke="#63b8ff" d="M78,-72.34C111.04,-64.54 165.07,-51.3 220.32,-35.03"/>
<polygon fill="#63b8ff" stroke="#63b8ff" points="221.33,-38.38 229.92,-32.17 219.34,-31.67 221.33,-38.38"/>
<g id="a_edge3&#45;headlabel"><a xlink:href="dir_000073_000185.html" target="_top" xlink:title="22">
<text text-anchor="middle" x="218.7" y="-39.62" font-family="Helvetica,sans-Serif" font-size="10.00" fill="#63b8ff">22</text>
</a>
</g>
</g>
<!-- dir_a60d4453151dca6bdd8e5fcc350e379b -->
<g id="node6" class="node">
<title>dir_a60d4453151dca6bdd8e5fcc350e379b</title>
<g id="a_node6"><a xlink:href="dir_a60d4453151dca6bdd8e5fcc350e379b.html" target="_top" xlink:title="assert">
<polygon fill="#edf0f7" stroke="#7f7f7f" points="327.5,-35 280.5,-35 280.5,-16 327.5,-16 327.5,-35"/>
<text text-anchor="middle" x="304" y="-23" font-family="Helvetica,sans-Serif" font-size="10.00">assert</text>
</a>
</g>
</g>
<!-- dir_371ea777e73685379f49c81b97537e91&#45;&gt;dir_a60d4453151dca6bdd8e5fcc350e379b -->
<g id="edge4" class="edge">
<title>dir_371ea777e73685379f49c81b97537e91&#45;&gt;dir_a60d4453151dca6bdd8e5fcc350e379b</title>
<path fill="none" stroke="#63b8ff" d="M78.28,-73.86C119.82,-66.24 195.69,-51.9 270.22,-35.07"/>
<polygon fill="#63b8ff" stroke="#63b8ff" points="271.27,-38.42 280.25,-32.79 269.72,-31.59 271.27,-38.42"/>
<g id="a_edge4&#45;headlabel"><a xlink:href="dir_000073_000018.html" target="_top" xlink:title="2">
<text text-anchor="middle" x="268.4" y="-39.49" font-family="Helvetica,sans-Serif" font-size="10.00" fill="#63b8ff">2</text>
</a>
</g>
</g>
<!-- dir_f555f996eeee1ebe901dc71e0c5de8ff -->
<g id="node7" class="node">
<title>dir_f555f996eeee1ebe901dc71e0c5de8ff</title>
<g id="a_node7"><a xlink:href="dir_f555f996eeee1ebe901dc71e0c5de8ff.html" target="_top" xlink:title="meta">
<polygon fill="#edf0f7" stroke="#7f7f7f" points="388,-35 346,-35 346,-16 388,-16 388,-35"/>
<text text-anchor="middle" x="367" y="-23" font-family="Helvetica,sans-Serif" font-size="10.00">meta</text>
</a>
</g>
</g>
<!-- dir_371ea777e73685379f49c81b97537e91&#45;&gt;dir_f555f996eeee1ebe901dc71e0c5de8ff -->
<g id="edge5" class="edge">
<title>dir_371ea777e73685379f49c81b97537e91&#45;&gt;dir_f555f996eeee1ebe901dc71e0c5de8ff</title>
<path fill="none" stroke="#63b8ff" d="M78.13,-76.01C129.77,-69.94 236.51,-56.22 335.88,-35.01"/>
<polygon fill="#63b8ff" stroke="#63b8ff" points="336.74,-38.4 345.78,-32.86 335.26,-31.56 336.74,-38.4"/>
<g id="a_edge5&#45;headlabel"><a xlink:href="dir_000073_000122.html" target="_top" xlink:title="36">
<text text-anchor="middle" x="333.83" y="-39.44" font-family="Helvetica,sans-Serif" font-size="10.00" fill="#63b8ff">36</text>
</a>
</g>
</g>
</g>
</svg>
