<?xml version="1.0" encoding="UTF-8" standalone="no"?>
<!DOCTYPE svg PUBLIC "-//W3C//DTD SVG 1.1//EN"
 "http://www.w3.org/Graphics/SVG/1.1/DTD/svg11.dtd">
<!-- Generated by graphviz version 2.43.0 (0)
 -->
<!-- Title: libs/di/include/di/vocab/error Pages: 1 -->
<svg width="571pt" height="251pt"
 viewBox="0.00 0.00 571.11 251.00" xmlns="http://www.w3.org/2000/svg" xmlns:xlink="http://www.w3.org/1999/xlink">
<g id="graph0" class="graph" transform="scale(1 1) rotate(0) translate(4 247)">
<title>libs/di/include/di/vocab/error</title>
<g id="clust1" class="cluster">
<title>clusterdir_942cfae36a92b6b1c4b510e99e852d40</title>
<g id="a_clust1"><a xlink:href="dir_942cfae36a92b6b1c4b510e99e852d40.html" target="_top" xlink:title="vocab">
<polygon fill="#edf0f7" stroke="#7f7f7f" stroke-dasharray="5,2" points="143.97,-8 143.97,-235 327.97,-235 327.97,-8 143.97,-8"/>
<text text-anchor="middle" x="235.97" y="-223" font-family="Helvetica,sans-Serif" font-size="10.00">vocab</text>
</a>
</g>
</g>
<g id="clust2" class="cluster">
<title>clusterdir_b143cd2a0fb99c8539a61acbcf4ec7c9</title>
<g id="a_clust2"><a xlink:href="dir_b143cd2a0fb99c8539a61acbcf4ec7c9.html" target="_top">
<polygon fill="#edf0f7" stroke="#404040" stroke-width="2" points="151.97,-63 151.97,-208 247.97,-208 247.97,-63 151.97,-63"/>
</a>
</g>
</g>
<!-- dir_371ea777e73685379f49c81b97537e91 -->
<g id="node1" class="node">
<title>dir_371ea777e73685379f49c81b97537e91</title>
<g id="a_node1"><a xlink:href="dir_371ea777e73685379f49c81b97537e91.html" target="_top" xlink:title="expected">
<polygon fill="#a2b4d6" stroke="#404040" points="319.97,-145 257.97,-145 257.97,-126 319.97,-126 319.97,-145"/>
<text text-anchor="middle" x="288.97" y="-133" font-family="Helvetica,sans-Serif" font-size="10.00">expected</text>
</a>
</g>
</g>
<!-- dir_df2174af3210b9b7833edb75ef66180a -->
<g id="node2" class="node">
<title>dir_df2174af3210b9b7833edb75ef66180a</title>
<g id="a_node2"><a xlink:href="dir_df2174af3210b9b7833edb75ef66180a.html" target="_top" xlink:title="variant">
<polygon fill="#a2b4d6" stroke="#404040" points="220.47,-35 169.47,-35 169.47,-16 220.47,-16 220.47,-35"/>
<text text-anchor="middle" x="194.97" y="-23" font-family="Helvetica,sans-Serif" font-size="10.00">variant</text>
</a>
</g>
</g>
<!-- dir_b143cd2a0fb99c8539a61acbcf4ec7c9 -->
<g id="node3" class="node">
<title>dir_b143cd2a0fb99c8539a61acbcf4ec7c9</title>
<text text-anchor="middle" x="214.97" y="-188" font-family="Helvetica,sans-Serif" font-size="10.00">error</text>
</g>
<!-- dir_b143cd2a0fb99c8539a61acbcf4ec7c9&#45;&gt;dir_371ea777e73685379f49c81b97537e91 -->
<g id="edge3" class="edge">
<title>dir_b143cd2a0fb99c8539a61acbcf4ec7c9&#45;&gt;dir_371ea777e73685379f49c81b97537e91</title>
<path fill="none" stroke="#63b8ff" d="M226.86,-180.98C238.12,-172.92 255.26,-160.65 268.68,-151.03"/>
<polygon fill="#63b8ff" stroke="#63b8ff" points="270.77,-153.84 276.86,-145.17 266.7,-148.15 270.77,-153.84"/>
<g id="a_edge3&#45;headlabel"><a xlink:href="dir_000070_000073.html" target="_top" xlink:title="1">
<text text-anchor="middle" x="269.5" y="-155.74" font-family="Helvetica,sans-Serif" font-size="10.00" fill="#63b8ff">1</text>
</a>
</g>
</g>
<!-- dir_b430c3e7a58a856d979640078e956f94 -->
<g id="node4" class="node">
<title>dir_b430c3e7a58a856d979640078e956f94</title>
<g id="a_node4"><a xlink:href="dir_b430c3e7a58a856d979640078e956f94.html" target="_top" xlink:title="concepts">
<polygon fill="#a2b4d6" stroke="#404040" points="239.97,-145 179.97,-145 179.97,-126 239.97,-126 239.97,-145"/>
<text text-anchor="middle" x="209.97" y="-133" font-family="Helvetica,sans-Serif" font-size="10.00">concepts</text>
</a>
</g>
</g>
<!-- dir_b143cd2a0fb99c8539a61acbcf4ec7c9&#45;&gt;dir_b430c3e7a58a856d979640078e956f94 -->
<g id="edge9" class="edge">
<title>dir_b143cd2a0fb99c8539a61acbcf4ec7c9&#45;&gt;dir_b430c3e7a58a856d979640078e956f94</title>
<path fill="none" stroke="#63b8ff" d="M214.14,-180.75C213.49,-173.8 212.55,-163.85 211.73,-155.13"/>
<polygon fill="#63b8ff" stroke="#63b8ff" points="215.2,-154.72 210.78,-145.09 208.23,-155.37 215.2,-154.72"/>
<g id="a_edge9&#45;headlabel"><a xlink:href="dir_000070_000043.html" target="_top" xlink:title="4">
<text text-anchor="middle" x="218.37" y="-155.53" font-family="Helvetica,sans-Serif" font-size="10.00" fill="#63b8ff">4</text>
</a>
</g>
</g>
<!-- dir_9be9440adbee382fe810fb2fcf6c6333 -->
<g id="node5" class="node">
<title>dir_9be9440adbee382fe810fb2fcf6c6333</title>
<g id="a_node5"><a xlink:href="dir_9be9440adbee382fe810fb2fcf6c6333.html" target="_top" xlink:title="meta">
<polygon fill="#a2b4d6" stroke="#404040" points="215.97,-90 173.97,-90 173.97,-71 215.97,-71 215.97,-90"/>
<text text-anchor="middle" x="194.97" y="-78" font-family="Helvetica,sans-Serif" font-size="10.00">meta</text>
</a>
</g>
</g>
<!-- dir_b143cd2a0fb99c8539a61acbcf4ec7c9&#45;&gt;dir_9be9440adbee382fe810fb2fcf6c6333 -->
<g id="edge6" class="edge">
<title>dir_b143cd2a0fb99c8539a61acbcf4ec7c9&#45;&gt;dir_9be9440adbee382fe810fb2fcf6c6333</title>
<path fill="none" stroke="#63b8ff" d="M202.19,-181C191.58,-173.1 177.25,-160.27 170.97,-145 164.55,-129.39 172.83,-111.37 181.37,-98.52"/>
<polygon fill="#63b8ff" stroke="#63b8ff" points="184.37,-100.34 187.42,-90.19 178.71,-96.22 184.37,-100.34"/>
<g id="a_edge6&#45;headlabel"><a xlink:href="dir_000070_000124.html" target="_top" xlink:title="3">
<text text-anchor="middle" x="184.56" y="-102.41" font-family="Helvetica,sans-Serif" font-size="10.00" fill="#63b8ff">3</text>
</a>
</g>
</g>
<!-- dir_0669efae56692bb73da75efb5ebbccdf -->
<g id="node6" class="node">
<title>dir_0669efae56692bb73da75efb5ebbccdf</title>
<g id="a_node6"><a xlink:href="dir_0669efae56692bb73da75efb5ebbccdf.html" target="_top" xlink:title="function">
<polygon fill="#edf0f7" stroke="red" stroke-dasharray="5,2" points="73.97,-145 17.97,-145 17.97,-126 73.97,-126 73.97,-145"/>
<text text-anchor="middle" x="45.97" y="-133" font-family="Helvetica,sans-Serif" font-size="10.00">function</text>
</a>
</g>
</g>
<!-- dir_b143cd2a0fb99c8539a61acbcf4ec7c9&#45;&gt;dir_0669efae56692bb73da75efb5ebbccdf -->
<g id="edge1" class="edge">
<title>dir_b143cd2a0fb99c8539a61acbcf4ec7c9&#45;&gt;dir_0669efae56692bb73da75efb5ebbccdf</title>
<path fill="none" stroke="#63b8ff" d="M194.92,-183.21C167.38,-174.58 117.37,-158.89 82.95,-148.1"/>
<polygon fill="#63b8ff" stroke="#63b8ff" points="83.84,-144.71 73.25,-145.05 81.74,-151.39 83.84,-144.71"/>
<g id="a_edge1&#45;headlabel"><a xlink:href="dir_000070_000082.html" target="_top" xlink:title="1">
<text text-anchor="middle" x="88.12" y="-140.57" font-family="Helvetica,sans-Serif" font-size="10.00" fill="#63b8ff">1</text>
</a>
</g>
</g>
<!-- dir_30ecaf38acae77be14fb9173f98f8612 -->
<g id="node7" class="node">
<title>dir_30ecaf38acae77be14fb9173f98f8612</title>
<g id="a_node7"><a xlink:href="dir_30ecaf38acae77be14fb9173f98f8612.html" target="_top" xlink:title="types">
<polygon fill="#edf0f7" stroke="#7f7f7f" points="135.97,-145 91.97,-145 91.97,-126 135.97,-126 135.97,-145"/>
<text text-anchor="middle" x="113.97" y="-133" font-family="Helvetica,sans-Serif" font-size="10.00">types</text>
</a>
</g>
</g>
<!-- dir_b143cd2a0fb99c8539a61acbcf4ec7c9&#45;&gt;dir_30ecaf38acae77be14fb9173f98f8612 -->
<g id="edge2" class="edge">
<title>dir_b143cd2a0fb99c8539a61acbcf4ec7c9&#45;&gt;dir_30ecaf38acae77be14fb9173f98f8612</title>
<path fill="none" stroke="#63b8ff" d="M198.74,-180.98C182.79,-172.61 158.19,-159.7 139.59,-149.95"/>
<polygon fill="#63b8ff" stroke="#63b8ff" points="140.97,-146.72 130.49,-145.17 137.72,-152.92 140.97,-146.72"/>
<g id="a_edge2&#45;headlabel"><a xlink:href="dir_000070_000180.html" target="_top" xlink:title="1">
<text text-anchor="middle" x="145.48" y="-143.37" font-family="Helvetica,sans-Serif" font-size="10.00" fill="#63b8ff">1</text>
</a>
</g>
</g>
<!-- dir_4535887b2cdca47e625f259d07db0112 -->
<g id="node8" class="node">
<title>dir_4535887b2cdca47e625f259d07db0112</title>
<g id="a_node8"><a xlink:href="dir_4535887b2cdca47e625f259d07db0112.html" target="_top" xlink:title="util">
<polygon fill="#edf0f7" stroke="#7f7f7f" points="70.97,-35 38.97,-35 38.97,-16 70.97,-16 70.97,-35"/>
<text text-anchor="middle" x="54.97" y="-23" font-family="Helvetica,sans-Serif" font-size="10.00">util</text>
</a>
</g>
</g>
<!-- dir_b143cd2a0fb99c8539a61acbcf4ec7c9&#45;&gt;dir_4535887b2cdca47e625f259d07db0112 -->
<g id="edge4" class="edge">
<title>dir_b143cd2a0fb99c8539a61acbcf4ec7c9&#45;&gt;dir_4535887b2cdca47e625f259d07db0112</title>
<path fill="none" stroke="#63b8ff" d="M194.79,-188.26C147.59,-184.89 32.24,-173.83 8.97,-145 -16.2,-113.81 17.48,-67.25 39.19,-42.81"/>
<polygon fill="#63b8ff" stroke="#63b8ff" points="42.05,-44.88 46.25,-35.15 36.9,-40.13 42.05,-44.88"/>
<g id="a_edge4&#45;headlabel"><a xlink:href="dir_000070_000185.html" target="_top" xlink:title="5">
<text text-anchor="middle" x="41.7" y="-46.94" font-family="Helvetica,sans-Serif" font-size="10.00" fill="#63b8ff">5</text>
</a>
</g>
</g>
<!-- dir_521de572ae4fe2915cc70a876c52f5b7 -->
<g id="node9" class="node">
<title>dir_521de572ae4fe2915cc70a876c52f5b7</title>
<g id="a_node9"><a xlink:href="dir_521de572ae4fe2915cc70a876c52f5b7.html" target="_top" xlink:title="container">
<polygon fill="#edf0f7" stroke="red" stroke-dasharray="5,2" points="399.97,-145 337.97,-145 337.97,-126 399.97,-126 399.97,-145"/>
<text text-anchor="middle" x="368.97" y="-133" font-family="Helvetica,sans-Serif" font-size="10.00">container</text>
</a>
</g>
</g>
<!-- dir_b143cd2a0fb99c8539a61acbcf4ec7c9&#45;&gt;dir_521de572ae4fe2915cc70a876c52f5b7 -->
<g id="edge5" class="edge">
<title>dir_b143cd2a0fb99c8539a61acbcf4ec7c9&#45;&gt;dir_521de572ae4fe2915cc70a876c52f5b7</title>
<path fill="none" stroke="#63b8ff" d="M235.1,-182.57C260.3,-173.9 303.86,-158.91 334.42,-148.39"/>
<polygon fill="#63b8ff" stroke="#63b8ff" points="335.93,-151.57 344.25,-145.01 333.65,-144.95 335.93,-151.57"/>
<g id="a_edge5&#45;headlabel"><a xlink:href="dir_000070_000046.html" target="_top" xlink:title="2">
<text text-anchor="middle" x="333.46" y="-152.93" font-family="Helvetica,sans-Serif" font-size="10.00" fill="#63b8ff">2</text>
</a>
</g>
</g>
<!-- dir_a60d4453151dca6bdd8e5fcc350e379b -->
<g id="node10" class="node">
<title>dir_a60d4453151dca6bdd8e5fcc350e379b</title>
<g id="a_node10"><a xlink:href="dir_a60d4453151dca6bdd8e5fcc350e379b.html" target="_top" xlink:title="assert">
<polygon fill="#edf0f7" stroke="#7f7f7f" points="465.47,-145 418.47,-145 418.47,-126 465.47,-126 465.47,-145"/>
<text text-anchor="middle" x="441.97" y="-133" font-family="Helvetica,sans-Serif" font-size="10.00">assert</text>
</a>
</g>
</g>
<!-- dir_b143cd2a0fb99c8539a61acbcf4ec7c9&#45;&gt;dir_a60d4453151dca6bdd8e5fcc350e379b -->
<g id="edge7" class="edge">
<title>dir_b143cd2a0fb99c8539a61acbcf4ec7c9&#45;&gt;dir_a60d4453151dca6bdd8e5fcc350e379b</title>
<path fill="none" stroke="#63b8ff" d="M235.12,-185.06C268.83,-177.6 339,-161.9 408.41,-145.08"/>
<polygon fill="#63b8ff" stroke="#63b8ff" points="409.31,-148.47 418.2,-142.7 407.65,-141.67 409.31,-148.47"/>
<g id="a_edge7&#45;headlabel"><a xlink:href="dir_000070_000018.html" target="_top" xlink:title="1">
<text text-anchor="middle" x="406.48" y="-149.58" font-family="Helvetica,sans-Serif" font-size="10.00" fill="#63b8ff">1</text>
</a>
</g>
</g>
<!-- dir_aaf67126bd5deefc4d96704f76f22cc2 -->
<g id="node11" class="node">
<title>dir_aaf67126bd5deefc4d96704f76f22cc2</title>
<g id="a_node11"><a xlink:href="dir_aaf67126bd5deefc4d96704f76f22cc2.html" target="_top" xlink:title="platform">
<polygon fill="#edf0f7" stroke="#7f7f7f" points="542.47,-145 483.47,-145 483.47,-126 542.47,-126 542.47,-145"/>
<text text-anchor="middle" x="512.97" y="-133" font-family="Helvetica,sans-Serif" font-size="10.00">platform</text>
</a>
</g>
</g>
<!-- dir_b143cd2a0fb99c8539a61acbcf4ec7c9&#45;&gt;dir_aaf67126bd5deefc4d96704f76f22cc2 -->
<g id="edge8" class="edge">
<title>dir_b143cd2a0fb99c8539a61acbcf4ec7c9&#45;&gt;dir_aaf67126bd5deefc4d96704f76f22cc2</title>
<path fill="none" stroke="#63b8ff" d="M235.26,-186.39C277.63,-179.81 378.78,-163.7 473.14,-145.29"/>
<polygon fill="#63b8ff" stroke="#63b8ff" points="473.99,-148.69 483.13,-143.32 472.64,-141.82 473.99,-148.69"/>
<g id="a_edge8&#45;headlabel"><a xlink:href="dir_000070_000135.html" target="_top" xlink:title="1">
<text text-anchor="middle" x="471.01" y="-149.67" font-family="Helvetica,sans-Serif" font-size="10.00" fill="#63b8ff">1</text>
</a>
</g>
</g>
<!-- dir_f555f996eeee1ebe901dc71e0c5de8ff -->
<g id="node12" class="node">
<title>dir_f555f996eeee1ebe901dc71e0c5de8ff</title>
<g id="a_node12"><a xlink:href="dir_f555f996eeee1ebe901dc71e0c5de8ff.html" target="_top" xlink:title="meta">
<polygon fill="#edf0f7" stroke="#7f7f7f" points="377.97,-35 335.97,-35 335.97,-16 377.97,-16 377.97,-35"/>
<text text-anchor="middle" x="356.97" y="-23" font-family="Helvetica,sans-Serif" font-size="10.00">meta</text>
</a>
</g>
</g>
<!-- dir_b143cd2a0fb99c8539a61acbcf4ec7c9&#45;&gt;dir_f555f996eeee1ebe901dc71e0c5de8ff -->
<g id="edge10" class="edge">
<title>dir_b143cd2a0fb99c8539a61acbcf4ec7c9&#45;&gt;dir_f555f996eeee1ebe901dc71e0c5de8ff</title>
<path fill="none" stroke="#63b8ff" d="M235.06,-188.36C304.44,-184.24 530.91,-169.02 551.97,-145 604.27,-85.34 455.38,-46.5 388.09,-32.42"/>
<polygon fill="#63b8ff" stroke="#63b8ff" points="388.53,-28.94 378.03,-30.37 387.14,-35.8 388.53,-28.94"/>
<g id="a_edge10&#45;headlabel"><a xlink:href="dir_000070_000122.html" target="_top" xlink:title="12">
<text text-anchor="middle" x="392.62" y="-24.37" font-family="Helvetica,sans-Serif" font-size="10.00" fill="#63b8ff">12</text>
</a>
</g>
</g>
<!-- dir_b430c3e7a58a856d979640078e956f94&#45;&gt;dir_9be9440adbee382fe810fb2fcf6c6333 -->
<g id="edge11" class="edge">
<title>dir_b430c3e7a58a856d979640078e956f94&#45;&gt;dir_9be9440adbee382fe810fb2fcf6c6333</title>
<path fill="none" stroke="#63b8ff" d="M207.49,-125.75C205.5,-118.72 202.65,-108.62 200.16,-99.84"/>
<polygon fill="#63b8ff" stroke="#63b8ff" points="203.49,-98.76 197.4,-90.09 196.76,-100.66 203.49,-98.76"/>
<g id="a_edge11&#45;headlabel"><a xlink:href="dir_000043_000124.html" target="_top" xlink:title="1">
<text text-anchor="middle" x="207.2" y="-98.94" font-family="Helvetica,sans-Serif" font-size="10.00" fill="#63b8ff">1</text>
</a>
</g>
</g>
<!-- dir_b430c3e7a58a856d979640078e956f94&#45;&gt;dir_f555f996eeee1ebe901dc71e0c5de8ff -->
<g id="edge12" class="edge">
<title>dir_b430c3e7a58a856d979640078e956f94&#45;&gt;dir_f555f996eeee1ebe901dc71e0c5de8ff</title>
<path fill="none" stroke="#63b8ff" d="M221.75,-125.84C246.8,-107.44 305.61,-64.23 336.77,-41.34"/>
<polygon fill="#63b8ff" stroke="#63b8ff" points="339.15,-43.94 345.13,-35.2 335,-38.3 339.15,-43.94"/>
<g id="a_edge12&#45;headlabel"><a xlink:href="dir_000043_000122.html" target="_top" xlink:title="4">
<text text-anchor="middle" x="337.93" y="-45.85" font-family="Helvetica,sans-Serif" font-size="10.00" fill="#63b8ff">4</text>
</a>
</g>
</g>
<!-- dir_9be9440adbee382fe810fb2fcf6c6333&#45;&gt;dir_df2174af3210b9b7833edb75ef66180a -->
<g id="edge14" class="edge">
<title>dir_9be9440adbee382fe810fb2fcf6c6333&#45;&gt;dir_df2174af3210b9b7833edb75ef66180a</title>
<path fill="none" stroke="#63b8ff" d="M194.97,-70.75C194.97,-63.8 194.97,-53.85 194.97,-45.13"/>
<polygon fill="#63b8ff" stroke="#63b8ff" points="198.47,-45.09 194.97,-35.09 191.47,-45.09 198.47,-45.09"/>
<g id="a_edge14&#45;headlabel"><a xlink:href="dir_000124_000186.html" target="_top" xlink:title="1">
<text text-anchor="middle" x="201.31" y="-46.18" font-family="Helvetica,sans-Serif" font-size="10.00" fill="#63b8ff">1</text>
</a>
</g>
</g>
<!-- dir_9be9440adbee382fe810fb2fcf6c6333&#45;&gt;dir_4535887b2cdca47e625f259d07db0112 -->
<g id="edge13" class="edge">
<title>dir_9be9440adbee382fe810fb2fcf6c6333&#45;&gt;dir_4535887b2cdca47e625f259d07db0112</title>
<path fill="none" stroke="#63b8ff" d="M173.71,-71.45C148.75,-62 107.37,-46.34 80.64,-36.22"/>
<polygon fill="#63b8ff" stroke="#63b8ff" points="81.77,-32.91 71.18,-32.64 79.3,-39.45 81.77,-32.91"/>
<g id="a_edge13&#45;headlabel"><a xlink:href="dir_000124_000185.html" target="_top" xlink:title="1">
<text text-anchor="middle" x="86.14" y="-29.02" font-family="Helvetica,sans-Serif" font-size="10.00" fill="#63b8ff">1</text>
</a>
</g>
</g>
<!-- dir_9be9440adbee382fe810fb2fcf6c6333&#45;&gt;dir_f555f996eeee1ebe901dc71e0c5de8ff -->
<g id="edge15" class="edge">
<title>dir_9be9440adbee382fe810fb2fcf6c6333&#45;&gt;dir_f555f996eeee1ebe901dc71e0c5de8ff</title>
<path fill="none" stroke="#63b8ff" d="M216.36,-72.65C241.39,-64.62 284.35,-50.76 326,-36.97"/>
<polygon fill="#63b8ff" stroke="#63b8ff" points="327.31,-40.22 335.7,-33.75 325.11,-33.58 327.31,-40.22"/>
<g id="a_edge15&#45;headlabel"><a xlink:href="dir_000124_000122.html" target="_top" xlink:title="6">
<text text-anchor="middle" x="324.79" y="-41.55" font-family="Helvetica,sans-Serif" font-size="10.00" fill="#63b8ff">6</text>
</a>
</g>
</g>
</g>
</svg>
