<?xml version="1.0" encoding="UTF-8" standalone="no"?>
<!DOCTYPE svg PUBLIC "-//W3C//DTD SVG 1.1//EN"
 "http://www.w3.org/Graphics/SVG/1.1/DTD/svg11.dtd">
<!-- Generated by graphviz version 2.43.0 (0)
 -->
<!-- Title: iris/fs Pages: 1 -->
<svg width="128pt" height="133pt"
 viewBox="0.00 0.00 128.00 133.00" xmlns="http://www.w3.org/2000/svg" xmlns:xlink="http://www.w3.org/1999/xlink">
<g id="graph0" class="graph" transform="scale(1 1) rotate(0) translate(4 129)">
<title>iris/fs</title>
<g id="clust1" class="cluster">
<title>clusterdir_2605f0c6ea8f9a17a384edc9a2df15f4</title>
<g id="a_clust1"><a xlink:href="dir_2605f0c6ea8f9a17a384edc9a2df15f4.html" target="_top" xlink:title="iris">
<polygon fill="#edf0f7" stroke="#404040" stroke-dasharray="5,2" points="8,-8 8,-117 76,-117 76,-8 8,-8"/>
<text text-anchor="middle" x="42" y="-105" font-family="Helvetica,sans-Serif" font-size="10.00">iris</text>
</a>
</g>
</g>
<!-- dir_29a765eed241630f2929477fec556e75 -->
<g id="node1" class="node">
<title>dir_29a765eed241630f2929477fec556e75</title>
<g id="a_node1"><a xlink:href="dir_29a765eed241630f2929477fec556e75.html" target="_top" xlink:title="include">
<polygon fill="#a2b4d6" stroke="red" points="68,-35 16,-35 16,-16 68,-16 68,-35"/>
<text text-anchor="middle" x="42" y="-23" font-family="Helvetica,sans-Serif" font-size="10.00">include</text>
</a>
</g>
</g>
<!-- dir_fc3be540ee5038c39c0d538e735f8a33 -->
<g id="node2" class="node">
<title>dir_fc3be540ee5038c39c0d538e735f8a33</title>
<g id="a_node2"><a xlink:href="dir_fc3be540ee5038c39c0d538e735f8a33.html" target="_top" xlink:title="fs">
<polygon fill="#edf0f7" stroke="#404040" stroke-width="2" points="61.5,-90 32.5,-90 32.5,-71 61.5,-71 61.5,-90"/>
<text text-anchor="middle" x="47" y="-78" font-family="Helvetica,sans-Serif" font-size="10.00">fs</text>
</a>
</g>
</g>
<!-- dir_fc3be540ee5038c39c0d538e735f8a33&#45;&gt;dir_29a765eed241630f2929477fec556e75 -->
<g id="edge1" class="edge">
<title>dir_fc3be540ee5038c39c0d538e735f8a33&#45;&gt;dir_29a765eed241630f2929477fec556e75</title>
<path fill="none" stroke="#63b8ff" d="M46.17,-70.75C45.52,-63.8 44.58,-53.85 43.76,-45.13"/>
<polygon fill="#63b8ff" stroke="#63b8ff" points="47.23,-44.72 42.81,-35.09 40.27,-45.37 47.23,-44.72"/>
<g id="a_edge1&#45;headlabel"><a xlink:href="dir_000080_000090.html" target="_top" xlink:title="35">
<text text-anchor="middle" x="50.4" y="-45.53" font-family="Helvetica,sans-Serif" font-size="10.00" fill="#63b8ff">35</text>
</a>
</g>
</g>
<!-- dir_6719ab1f1f7655efc2fa43f7eb574fd1 -->
<g id="node3" class="node">
<title>dir_6719ab1f1f7655efc2fa43f7eb574fd1</title>
<g id="a_node3"><a xlink:href="dir_6719ab1f1f7655efc2fa43f7eb574fd1.html" target="_top" xlink:title="libs">
<polygon fill="#edf0f7" stroke="red" points="120,-35 86,-35 86,-16 120,-16 120,-35"/>
<text text-anchor="middle" x="103" y="-23" font-family="Helvetica,sans-Serif" font-size="10.00">libs</text>
</a>
</g>
</g>
<!-- dir_fc3be540ee5038c39c0d538e735f8a33&#45;&gt;dir_6719ab1f1f7655efc2fa43f7eb574fd1 -->
<g id="edge2" class="edge">
<title>dir_fc3be540ee5038c39c0d538e735f8a33&#45;&gt;dir_6719ab1f1f7655efc2fa43f7eb574fd1</title>
<path fill="none" stroke="#63b8ff" d="M56,-70.98C64.19,-63.23 76.51,-51.58 86.47,-42.14"/>
<polygon fill="#63b8ff" stroke="#63b8ff" points="88.98,-44.59 93.84,-35.17 84.17,-39.5 88.98,-44.59"/>
<g id="a_edge2&#45;headlabel"><a xlink:href="dir_000080_000109.html" target="_top" xlink:title="20">
<text text-anchor="middle" x="88.32" y="-46.62" font-family="Helvetica,sans-Serif" font-size="10.00" fill="#63b8ff">20</text>
</a>
</g>
</g>
</g>
</svg>
