<?xml version="1.0" encoding="UTF-8" standalone="no"?>
<!DOCTYPE svg PUBLIC "-//W3C//DTD SVG 1.1//EN"
 "http://www.w3.org/Graphics/SVG/1.1/DTD/svg11.dtd">
<!-- Generated by graphviz version 2.43.0 (0)
 -->
<!-- Title: libs/di/include/di/container/queue Pages: 1 -->
<svg width="654pt" height="133pt"
 viewBox="0.00 0.00 654.00 133.00" xmlns="http://www.w3.org/2000/svg" xmlns:xlink="http://www.w3.org/1999/xlink">
<g id="graph0" class="graph" transform="scale(1 1) rotate(0) translate(4 129)">
<title>libs/di/include/di/container/queue</title>
<g id="clust1" class="cluster">
<title>clusterdir_521de572ae4fe2915cc70a876c52f5b7</title>
<g id="a_clust1"><a xlink:href="dir_521de572ae4fe2915cc70a876c52f5b7.html" target="_top" xlink:title="container">
<polygon fill="#edf0f7" stroke="#7f7f7f" stroke-dasharray="5,2" points="8,-8 8,-117 540,-117 540,-8 8,-8"/>
<text text-anchor="middle" x="274" y="-105" font-family="Helvetica,sans-Serif" font-size="10.00">container</text>
</a>
</g>
</g>
<!-- dir_093cb0cf41c3d9bb25543a4e1702223c -->
<g id="node1" class="node">
<title>dir_093cb0cf41c3d9bb25543a4e1702223c</title>
<g id="a_node1"><a xlink:href="dir_093cb0cf41c3d9bb25543a4e1702223c.html" target="_top" xlink:title="iterator">
<polygon fill="#a2b4d6" stroke="#404040" points="69.5,-35 16.5,-35 16.5,-16 69.5,-16 69.5,-35"/>
<text text-anchor="middle" x="43" y="-23" font-family="Helvetica,sans-Serif" font-size="10.00">iterator</text>
</a>
</g>
</g>
<!-- dir_28cb5a05dfb61a4b9ad44e468e6394a4 -->
<g id="node2" class="node">
<title>dir_28cb5a05dfb61a4b9ad44e468e6394a4</title>
<g id="a_node2"><a xlink:href="dir_28cb5a05dfb61a4b9ad44e468e6394a4.html" target="_top" xlink:title="view">
<polygon fill="#a2b4d6" stroke="#404040" points="128,-35 88,-35 88,-16 128,-16 128,-35"/>
<text text-anchor="middle" x="108" y="-23" font-family="Helvetica,sans-Serif" font-size="10.00">view</text>
</a>
</g>
</g>
<!-- dir_60528a66b99dd07a1313b3c263e646ab -->
<g id="node3" class="node">
<title>dir_60528a66b99dd07a1313b3c263e646ab</title>
<g id="a_node3"><a xlink:href="dir_60528a66b99dd07a1313b3c263e646ab.html" target="_top" xlink:title="algorithm">
<polygon fill="#a2b4d6" stroke="#404040" points="210,-35 146,-35 146,-16 210,-16 210,-35"/>
<text text-anchor="middle" x="178" y="-23" font-family="Helvetica,sans-Serif" font-size="10.00">algorithm</text>
</a>
</g>
</g>
<!-- dir_838362f34bc8d8c3545343b0166aa672 -->
<g id="node4" class="node">
<title>dir_838362f34bc8d8c3545343b0166aa672</title>
<g id="a_node4"><a xlink:href="dir_838362f34bc8d8c3545343b0166aa672.html" target="_top" xlink:title="concepts">
<polygon fill="#a2b4d6" stroke="#404040" points="288,-35 228,-35 228,-16 288,-16 288,-35"/>
<text text-anchor="middle" x="258" y="-23" font-family="Helvetica,sans-Serif" font-size="10.00">concepts</text>
</a>
</g>
</g>
<!-- dir_9f8d33513cfc97e5f9ea6bf2671e5446 -->
<g id="node5" class="node">
<title>dir_9f8d33513cfc97e5f9ea6bf2671e5446</title>
<g id="a_node5"><a xlink:href="dir_9f8d33513cfc97e5f9ea6bf2671e5446.html" target="_top" xlink:title="meta">
<polygon fill="#a2b4d6" stroke="#404040" points="348,-35 306,-35 306,-16 348,-16 348,-35"/>
<text text-anchor="middle" x="327" y="-23" font-family="Helvetica,sans-Serif" font-size="10.00">meta</text>
</a>
</g>
</g>
<!-- dir_bc7f8e42983fd62e5eb4b3d4660b3cf0 -->
<g id="node6" class="node">
<title>dir_bc7f8e42983fd62e5eb4b3d4660b3cf0</title>
<g id="a_node6"><a xlink:href="dir_bc7f8e42983fd62e5eb4b3d4660b3cf0.html" target="_top" xlink:title="ring">
<polygon fill="#a2b4d6" stroke="#404040" points="401.5,-35 366.5,-35 366.5,-16 401.5,-16 401.5,-35"/>
<text text-anchor="middle" x="384" y="-23" font-family="Helvetica,sans-Serif" font-size="10.00">ring</text>
</a>
</g>
</g>
<!-- dir_d51187963f88a3ef0fe489eb9431bd26 -->
<g id="node7" class="node">
<title>dir_d51187963f88a3ef0fe489eb9431bd26</title>
<g id="a_node7"><a xlink:href="dir_d51187963f88a3ef0fe489eb9431bd26.html" target="_top" xlink:title="action">
<polygon fill="#a2b4d6" stroke="#404040" points="466.5,-35 419.5,-35 419.5,-16 466.5,-16 466.5,-35"/>
<text text-anchor="middle" x="443" y="-23" font-family="Helvetica,sans-Serif" font-size="10.00">action</text>
</a>
</g>
</g>
<!-- dir_f1a41f0d4848adc979771c8b39d6dd9b -->
<g id="node8" class="node">
<title>dir_f1a41f0d4848adc979771c8b39d6dd9b</title>
<g id="a_node8"><a xlink:href="dir_f1a41f0d4848adc979771c8b39d6dd9b.html" target="_top" xlink:title="vector">
<polygon fill="#a2b4d6" stroke="#404040" points="531.5,-35 484.5,-35 484.5,-16 531.5,-16 531.5,-35"/>
<text text-anchor="middle" x="508" y="-23" font-family="Helvetica,sans-Serif" font-size="10.00">vector</text>
</a>
</g>
</g>
<!-- dir_da52151de65f85a4326ffee265c53bbd -->
<g id="node9" class="node">
<title>dir_da52151de65f85a4326ffee265c53bbd</title>
<g id="a_node9"><a xlink:href="dir_da52151de65f85a4326ffee265c53bbd.html" target="_top" xlink:title="queue">
<polygon fill="#edf0f7" stroke="#404040" stroke-width="2" points="378.5,-90 331.5,-90 331.5,-71 378.5,-71 378.5,-90"/>
<text text-anchor="middle" x="355" y="-78" font-family="Helvetica,sans-Serif" font-size="10.00">queue</text>
</a>
</g>
</g>
<!-- dir_da52151de65f85a4326ffee265c53bbd&#45;&gt;dir_093cb0cf41c3d9bb25543a4e1702223c -->
<g id="edge1" class="edge">
<title>dir_da52151de65f85a4326ffee265c53bbd&#45;&gt;dir_093cb0cf41c3d9bb25543a4e1702223c</title>
<path fill="none" stroke="#63b8ff" d="M331.27,-76.26C284.92,-69.81 178.96,-54.45 79.59,-34.99"/>
<polygon fill="#63b8ff" stroke="#63b8ff" points="80.18,-31.53 69.69,-33.03 78.82,-38.4 80.18,-31.53"/>
<g id="a_edge1&#45;headlabel"><a xlink:href="dir_000141_000108.html" target="_top" xlink:title="3">
<text text-anchor="middle" x="84.26" y="-26.95" font-family="Helvetica,sans-Serif" font-size="10.00" fill="#63b8ff">3</text>
</a>
</g>
</g>
<!-- dir_da52151de65f85a4326ffee265c53bbd&#45;&gt;dir_28cb5a05dfb61a4b9ad44e468e6394a4 -->
<g id="edge2" class="edge">
<title>dir_da52151de65f85a4326ffee265c53bbd&#45;&gt;dir_28cb5a05dfb61a4b9ad44e468e6394a4</title>
<path fill="none" stroke="#63b8ff" d="M331.31,-75.34C292.76,-68.42 213.92,-53.67 137.95,-35.07"/>
<polygon fill="#63b8ff" stroke="#63b8ff" points="138.77,-31.67 128.22,-32.66 137.09,-38.46 138.77,-31.67"/>
<g id="a_edge2&#45;headlabel"><a xlink:href="dir_000141_000188.html" target="_top" xlink:title="1">
<text text-anchor="middle" x="142.94" y="-27.27" font-family="Helvetica,sans-Serif" font-size="10.00" fill="#63b8ff">1</text>
</a>
</g>
</g>
<!-- dir_da52151de65f85a4326ffee265c53bbd&#45;&gt;dir_60528a66b99dd07a1313b3c263e646ab -->
<g id="edge4" class="edge">
<title>dir_da52151de65f85a4326ffee265c53bbd&#45;&gt;dir_60528a66b99dd07a1313b3c263e646ab</title>
<path fill="none" stroke="#63b8ff" d="M331.5,-72.46C302.14,-63.67 251.52,-48.51 216.47,-38.02"/>
<polygon fill="#63b8ff" stroke="#63b8ff" points="217.17,-34.58 206.59,-35.06 215.16,-41.28 217.17,-34.58"/>
<g id="a_edge4&#45;headlabel"><a xlink:href="dir_000141_000003.html" target="_top" xlink:title="3">
<text text-anchor="middle" x="221.43" y="-30.39" font-family="Helvetica,sans-Serif" font-size="10.00" fill="#63b8ff">3</text>
</a>
</g>
</g>
<!-- dir_da52151de65f85a4326ffee265c53bbd&#45;&gt;dir_838362f34bc8d8c3545343b0166aa672 -->
<g id="edge5" class="edge">
<title>dir_da52151de65f85a4326ffee265c53bbd&#45;&gt;dir_838362f34bc8d8c3545343b0166aa672</title>
<path fill="none" stroke="#63b8ff" d="M339.42,-70.98C324.23,-62.69 300.9,-49.94 283.1,-40.22"/>
<polygon fill="#63b8ff" stroke="#63b8ff" points="284.32,-36.89 273.87,-35.17 280.97,-43.04 284.32,-36.89"/>
<g id="a_edge5&#45;headlabel"><a xlink:href="dir_000141_000037.html" target="_top" xlink:title="3">
<text text-anchor="middle" x="288.84" y="-33.63" font-family="Helvetica,sans-Serif" font-size="10.00" fill="#63b8ff">3</text>
</a>
</g>
</g>
<!-- dir_da52151de65f85a4326ffee265c53bbd&#45;&gt;dir_9f8d33513cfc97e5f9ea6bf2671e5446 -->
<g id="edge7" class="edge">
<title>dir_da52151de65f85a4326ffee265c53bbd&#45;&gt;dir_9f8d33513cfc97e5f9ea6bf2671e5446</title>
<path fill="none" stroke="#63b8ff" d="M350.38,-70.75C346.54,-63.49 340.98,-52.95 336.24,-43.98"/>
<polygon fill="#63b8ff" stroke="#63b8ff" points="339.3,-42.3 331.54,-35.09 333.11,-45.57 339.3,-42.3"/>
<g id="a_edge7&#45;headlabel"><a xlink:href="dir_000141_000120.html" target="_top" xlink:title="3">
<text text-anchor="middle" x="343.49" y="-41.65" font-family="Helvetica,sans-Serif" font-size="10.00" fill="#63b8ff">3</text>
</a>
</g>
</g>
<!-- dir_da52151de65f85a4326ffee265c53bbd&#45;&gt;dir_bc7f8e42983fd62e5eb4b3d4660b3cf0 -->
<g id="edge8" class="edge">
<title>dir_da52151de65f85a4326ffee265c53bbd&#45;&gt;dir_bc7f8e42983fd62e5eb4b3d4660b3cf0</title>
<path fill="none" stroke="#63b8ff" d="M359.79,-70.75C363.76,-63.49 369.53,-52.95 374.43,-43.98"/>
<polygon fill="#63b8ff" stroke="#63b8ff" points="377.57,-45.54 379.3,-35.09 371.43,-42.18 377.57,-45.54"/>
<g id="a_edge8&#45;headlabel"><a xlink:href="dir_000141_000146.html" target="_top" xlink:title="1">
<text text-anchor="middle" x="378.34" y="-47.56" font-family="Helvetica,sans-Serif" font-size="10.00" fill="#63b8ff">1</text>
</a>
</g>
</g>
<!-- dir_da52151de65f85a4326ffee265c53bbd&#45;&gt;dir_d51187963f88a3ef0fe489eb9431bd26 -->
<g id="edge9" class="edge">
<title>dir_da52151de65f85a4326ffee265c53bbd&#45;&gt;dir_d51187963f88a3ef0fe489eb9431bd26</title>
<path fill="none" stroke="#63b8ff" d="M369.14,-70.98C382.79,-62.77 403.69,-50.18 419.78,-40.49"/>
<polygon fill="#63b8ff" stroke="#63b8ff" points="421.84,-43.33 428.6,-35.17 418.23,-37.33 421.84,-43.33"/>
<g id="a_edge9&#45;headlabel"><a xlink:href="dir_000141_000002.html" target="_top" xlink:title="4">
<text text-anchor="middle" x="420.23" y="-45.11" font-family="Helvetica,sans-Serif" font-size="10.00" fill="#63b8ff">4</text>
</a>
</g>
</g>
<!-- dir_da52151de65f85a4326ffee265c53bbd&#45;&gt;dir_f1a41f0d4848adc979771c8b39d6dd9b -->
<g id="edge10" class="edge">
<title>dir_da52151de65f85a4326ffee265c53bbd&#45;&gt;dir_f1a41f0d4848adc979771c8b39d6dd9b</title>
<path fill="none" stroke="#63b8ff" d="M378.57,-71.33C404.29,-62.43 445.66,-48.09 474.69,-38.04"/>
<polygon fill="#63b8ff" stroke="#63b8ff" points="476.1,-41.25 484.4,-34.67 473.81,-34.64 476.1,-41.25"/>
<g id="a_edge10&#45;headlabel"><a xlink:href="dir_000141_000187.html" target="_top" xlink:title="2">
<text text-anchor="middle" x="473.63" y="-42.61" font-family="Helvetica,sans-Serif" font-size="10.00" fill="#63b8ff">2</text>
</a>
</g>
</g>
<!-- dir_4535887b2cdca47e625f259d07db0112 -->
<g id="node10" class="node">
<title>dir_4535887b2cdca47e625f259d07db0112</title>
<g id="a_node10"><a xlink:href="dir_4535887b2cdca47e625f259d07db0112.html" target="_top" xlink:title="util">
<polygon fill="#edf0f7" stroke="#7f7f7f" points="582,-35 550,-35 550,-16 582,-16 582,-35"/>
<text text-anchor="middle" x="566" y="-23" font-family="Helvetica,sans-Serif" font-size="10.00">util</text>
</a>
</g>
</g>
<!-- dir_da52151de65f85a4326ffee265c53bbd&#45;&gt;dir_4535887b2cdca47e625f259d07db0112 -->
<g id="edge3" class="edge">
<title>dir_da52151de65f85a4326ffee265c53bbd&#45;&gt;dir_4535887b2cdca47e625f259d07db0112</title>
<path fill="none" stroke="#63b8ff" d="M378.55,-75.04C412.76,-68.33 478.29,-54.62 539.9,-36.08"/>
<polygon fill="#63b8ff" stroke="#63b8ff" points="541.21,-39.34 549.75,-33.07 539.16,-32.65 541.21,-39.34"/>
<g id="a_edge3&#45;headlabel"><a xlink:href="dir_000141_000185.html" target="_top" xlink:title="3">
<text text-anchor="middle" x="538.61" y="-40.61" font-family="Helvetica,sans-Serif" font-size="10.00" fill="#63b8ff">3</text>
</a>
</g>
</g>
<!-- dir_942cfae36a92b6b1c4b510e99e852d40 -->
<g id="node11" class="node">
<title>dir_942cfae36a92b6b1c4b510e99e852d40</title>
<g id="a_node11"><a xlink:href="dir_942cfae36a92b6b1c4b510e99e852d40.html" target="_top" xlink:title="vocab">
<polygon fill="#edf0f7" stroke="red" stroke-dasharray="5,2" points="646,-35 600,-35 600,-16 646,-16 646,-35"/>
<text text-anchor="middle" x="623" y="-23" font-family="Helvetica,sans-Serif" font-size="10.00">vocab</text>
</a>
</g>
</g>
<!-- dir_da52151de65f85a4326ffee265c53bbd&#45;&gt;dir_942cfae36a92b6b1c4b510e99e852d40 -->
<g id="edge6" class="edge">
<title>dir_da52151de65f85a4326ffee265c53bbd&#45;&gt;dir_942cfae36a92b6b1c4b510e99e852d40</title>
<path fill="none" stroke="#63b8ff" d="M378.57,-75.65C419.54,-68.82 506.76,-53.73 590.1,-35.06"/>
<polygon fill="#63b8ff" stroke="#63b8ff" points="591,-38.45 599.98,-32.83 589.45,-31.62 591,-38.45"/>
<g id="a_edge6&#45;headlabel"><a xlink:href="dir_000141_000189.html" target="_top" xlink:title="3">
<text text-anchor="middle" x="588.12" y="-39.51" font-family="Helvetica,sans-Serif" font-size="10.00" fill="#63b8ff">3</text>
</a>
</g>
</g>
</g>
</svg>
