<?xml version="1.0" encoding="UTF-8" standalone="no"?>
<!DOCTYPE svg PUBLIC "-//W3C//DTD SVG 1.1//EN"
 "http://www.w3.org/Graphics/SVG/1.1/DTD/svg11.dtd">
<!-- Generated by graphviz version 2.43.0 (0)
 -->
<!-- Title: libs/di/include/di/io Pages: 1 -->
<svg width="530pt" height="196pt"
 viewBox="0.00 0.00 530.00 196.00" xmlns="http://www.w3.org/2000/svg" xmlns:xlink="http://www.w3.org/1999/xlink">
<g id="graph0" class="graph" transform="scale(1 1) rotate(0) translate(4 192)">
<title>libs/di/include/di/io</title>
<g id="clust1" class="cluster">
<title>clusterdir_f95a1a0ab1b96e316090c1bcac3c2c99</title>
<g id="a_clust1"><a xlink:href="dir_f95a1a0ab1b96e316090c1bcac3c2c99.html" target="_top" xlink:title="di">
<polygon fill="#edf0f7" stroke="#7f7f7f" stroke-dasharray="5,2" points="8,-8 8,-180 514,-180 514,-8 8,-8"/>
<text text-anchor="middle" x="261" y="-168" font-family="Helvetica,sans-Serif" font-size="10.00">di</text>
</a>
</g>
</g>
<g id="clust2" class="cluster">
<title>clusterdir_cd43612992eaeb46558dd8835da126ed</title>
<g id="a_clust2"><a xlink:href="dir_cd43612992eaeb46558dd8835da126ed.html" target="_top">
<polygon fill="#edf0f7" stroke="#404040" stroke-width="2" points="264,-63 264,-153 340,-153 340,-63 264,-63"/>
</a>
</g>
</g>
<!-- dir_0669efae56692bb73da75efb5ebbccdf -->
<g id="node1" class="node">
<title>dir_0669efae56692bb73da75efb5ebbccdf</title>
<g id="a_node1"><a xlink:href="dir_0669efae56692bb73da75efb5ebbccdf.html" target="_top" xlink:title="function">
<polygon fill="#a2b4d6" stroke="red" points="92,-90 36,-90 36,-71 92,-71 92,-90"/>
<text text-anchor="middle" x="64" y="-78" font-family="Helvetica,sans-Serif" font-size="10.00">function</text>
</a>
</g>
</g>
<!-- dir_30ecaf38acae77be14fb9173f98f8612 -->
<g id="node2" class="node">
<title>dir_30ecaf38acae77be14fb9173f98f8612</title>
<g id="a_node2"><a xlink:href="dir_30ecaf38acae77be14fb9173f98f8612.html" target="_top" xlink:title="types">
<polygon fill="#a2b4d6" stroke="#404040" points="154,-90 110,-90 110,-71 154,-71 154,-90"/>
<text text-anchor="middle" x="132" y="-78" font-family="Helvetica,sans-Serif" font-size="10.00">types</text>
</a>
</g>
</g>
<!-- dir_4535887b2cdca47e625f259d07db0112 -->
<g id="node3" class="node">
<title>dir_4535887b2cdca47e625f259d07db0112</title>
<g id="a_node3"><a xlink:href="dir_4535887b2cdca47e625f259d07db0112.html" target="_top" xlink:title="util">
<polygon fill="#a2b4d6" stroke="#404040" points="140,-35 108,-35 108,-16 140,-16 140,-35"/>
<text text-anchor="middle" x="124" y="-23" font-family="Helvetica,sans-Serif" font-size="10.00">util</text>
</a>
</g>
</g>
<!-- dir_521de572ae4fe2915cc70a876c52f5b7 -->
<g id="node4" class="node">
<title>dir_521de572ae4fe2915cc70a876c52f5b7</title>
<g id="a_node4"><a xlink:href="dir_521de572ae4fe2915cc70a876c52f5b7.html" target="_top" xlink:title="container">
<polygon fill="#a2b4d6" stroke="red" points="254,-90 192,-90 192,-71 254,-71 254,-90"/>
<text text-anchor="middle" x="223" y="-78" font-family="Helvetica,sans-Serif" font-size="10.00">container</text>
</a>
</g>
</g>
<!-- dir_942cfae36a92b6b1c4b510e99e852d40 -->
<g id="node5" class="node">
<title>dir_942cfae36a92b6b1c4b510e99e852d40</title>
<g id="a_node5"><a xlink:href="dir_942cfae36a92b6b1c4b510e99e852d40.html" target="_top" xlink:title="vocab">
<polygon fill="#a2b4d6" stroke="red" points="246,-35 200,-35 200,-16 246,-16 246,-35"/>
<text text-anchor="middle" x="223" y="-23" font-family="Helvetica,sans-Serif" font-size="10.00">vocab</text>
</a>
</g>
</g>
<!-- dir_a60d4453151dca6bdd8e5fcc350e379b -->
<g id="node6" class="node">
<title>dir_a60d4453151dca6bdd8e5fcc350e379b</title>
<g id="a_node6"><a xlink:href="dir_a60d4453151dca6bdd8e5fcc350e379b.html" target="_top" xlink:title="assert">
<polygon fill="#a2b4d6" stroke="#404040" points="397.5,-90 350.5,-90 350.5,-71 397.5,-71 397.5,-90"/>
<text text-anchor="middle" x="374" y="-78" font-family="Helvetica,sans-Serif" font-size="10.00">assert</text>
</a>
</g>
</g>
<!-- dir_e41b746b2bc627b26c4c637af42fb69a -->
<g id="node7" class="node">
<title>dir_e41b746b2bc627b26c4c637af42fb69a</title>
<g id="a_node7"><a xlink:href="dir_e41b746b2bc627b26c4c637af42fb69a.html" target="_top" xlink:title="format">
<polygon fill="#a2b4d6" stroke="red" points="466,-90 416,-90 416,-71 466,-71 466,-90"/>
<text text-anchor="middle" x="441" y="-78" font-family="Helvetica,sans-Serif" font-size="10.00">format</text>
</a>
</g>
</g>
<!-- dir_e44b40e2f7a090819cf1915a0b103ff1 -->
<g id="node8" class="node">
<title>dir_e44b40e2f7a090819cf1915a0b103ff1</title>
<g id="a_node8"><a xlink:href="dir_e44b40e2f7a090819cf1915a0b103ff1.html" target="_top" xlink:title="any">
<polygon fill="#a2b4d6" stroke="red" points="350.5,-35 315.5,-35 315.5,-16 350.5,-16 350.5,-35"/>
<text text-anchor="middle" x="333" y="-23" font-family="Helvetica,sans-Serif" font-size="10.00">any</text>
</a>
</g>
</g>
<!-- dir_f555f996eeee1ebe901dc71e0c5de8ff -->
<g id="node9" class="node">
<title>dir_f555f996eeee1ebe901dc71e0c5de8ff</title>
<g id="a_node9"><a xlink:href="dir_f555f996eeee1ebe901dc71e0c5de8ff.html" target="_top" xlink:title="meta">
<polygon fill="#a2b4d6" stroke="#404040" points="474,-35 432,-35 432,-16 474,-16 474,-35"/>
<text text-anchor="middle" x="453" y="-23" font-family="Helvetica,sans-Serif" font-size="10.00">meta</text>
</a>
</g>
</g>
<!-- dir_cd43612992eaeb46558dd8835da126ed -->
<g id="node10" class="node">
<title>dir_cd43612992eaeb46558dd8835da126ed</title>
<text text-anchor="middle" x="294" y="-133" font-family="Helvetica,sans-Serif" font-size="10.00">io</text>
</g>
<!-- dir_cd43612992eaeb46558dd8835da126ed&#45;&gt;dir_0669efae56692bb73da75efb5ebbccdf -->
<g id="edge1" class="edge">
<title>dir_cd43612992eaeb46558dd8835da126ed&#45;&gt;dir_0669efae56692bb73da75efb5ebbccdf</title>
<path fill="none" stroke="#63b8ff" d="M279.26,-131.1C243.94,-122.96 153.56,-102.14 101.83,-90.22"/>
<polygon fill="#63b8ff" stroke="#63b8ff" points="102.56,-86.79 92.03,-87.96 100.99,-93.62 102.56,-86.79"/>
<g id="a_edge1&#45;headlabel"><a xlink:href="dir_000100_000082.html" target="_top" xlink:title="1">
<text text-anchor="middle" x="106.7" y="-82.34" font-family="Helvetica,sans-Serif" font-size="10.00" fill="#63b8ff">1</text>
</a>
</g>
</g>
<!-- dir_cd43612992eaeb46558dd8835da126ed&#45;&gt;dir_30ecaf38acae77be14fb9173f98f8612 -->
<g id="edge2" class="edge">
<title>dir_cd43612992eaeb46558dd8835da126ed&#45;&gt;dir_30ecaf38acae77be14fb9173f98f8612</title>
<path fill="none" stroke="#63b8ff" d="M279.34,-129.7C253.39,-121.21 198.84,-103.37 163.89,-91.93"/>
<polygon fill="#63b8ff" stroke="#63b8ff" points="164.75,-88.53 154.16,-88.75 162.57,-95.18 164.75,-88.53"/>
<g id="a_edge2&#45;headlabel"><a xlink:href="dir_000100_000180.html" target="_top" xlink:title="5">
<text text-anchor="middle" x="169.05" y="-84.45" font-family="Helvetica,sans-Serif" font-size="10.00" fill="#63b8ff">5</text>
</a>
</g>
</g>
<!-- dir_cd43612992eaeb46558dd8835da126ed&#45;&gt;dir_4535887b2cdca47e625f259d07db0112 -->
<g id="edge3" class="edge">
<title>dir_cd43612992eaeb46558dd8835da126ed&#45;&gt;dir_4535887b2cdca47e625f259d07db0112</title>
<path fill="none" stroke="#63b8ff" d="M279.24,-134.42C228.11,-133.81 59.88,-128.82 27,-90 19.24,-80.84 20.17,-72.87 27,-63 42.82,-40.14 74.89,-31.58 97.82,-28.38"/>
<polygon fill="#63b8ff" stroke="#63b8ff" points="98.39,-31.84 107.93,-27.23 97.6,-24.89 98.39,-31.84"/>
<g id="a_edge3&#45;headlabel"><a xlink:href="dir_000100_000185.html" target="_top" xlink:title="7">
<text text-anchor="middle" x="95.14" y="-32.57" font-family="Helvetica,sans-Serif" font-size="10.00" fill="#63b8ff">7</text>
</a>
</g>
</g>
<!-- dir_cd43612992eaeb46558dd8835da126ed&#45;&gt;dir_521de572ae4fe2915cc70a876c52f5b7 -->
<g id="edge5" class="edge">
<title>dir_cd43612992eaeb46558dd8835da126ed&#45;&gt;dir_521de572ae4fe2915cc70a876c52f5b7</title>
<path fill="none" stroke="#63b8ff" d="M282.59,-125.98C271.89,-118 255.66,-105.88 242.84,-96.31"/>
<polygon fill="#63b8ff" stroke="#63b8ff" points="244.72,-93.35 234.61,-90.17 240.53,-98.96 244.72,-93.35"/>
<g id="a_edge5&#45;headlabel"><a xlink:href="dir_000100_000046.html" target="_top" xlink:title="31">
<text text-anchor="middle" x="249.3" y="-90.72" font-family="Helvetica,sans-Serif" font-size="10.00" fill="#63b8ff">31</text>
</a>
</g>
</g>
<!-- dir_cd43612992eaeb46558dd8835da126ed&#45;&gt;dir_942cfae36a92b6b1c4b510e99e852d40 -->
<g id="edge6" class="edge">
<title>dir_cd43612992eaeb46558dd8835da126ed&#45;&gt;dir_942cfae36a92b6b1c4b510e99e852d40</title>
<path fill="none" stroke="#63b8ff" d="M279.29,-133.59C254.48,-131.17 204.87,-122.33 183,-90 176.28,-80.06 178.16,-73.98 183,-63 186.76,-54.47 193.62,-47.07 200.6,-41.2"/>
<polygon fill="#63b8ff" stroke="#63b8ff" points="202.84,-43.89 208.68,-35.05 198.6,-38.33 202.84,-43.89"/>
<g id="a_edge6&#45;headlabel"><a xlink:href="dir_000100_000189.html" target="_top" xlink:title="18">
<text text-anchor="middle" x="201.7" y="-45.83" font-family="Helvetica,sans-Serif" font-size="10.00" fill="#63b8ff">18</text>
</a>
</g>
</g>
<!-- dir_cd43612992eaeb46558dd8835da126ed&#45;&gt;dir_a60d4453151dca6bdd8e5fcc350e379b -->
<g id="edge7" class="edge">
<title>dir_cd43612992eaeb46558dd8835da126ed&#45;&gt;dir_a60d4453151dca6bdd8e5fcc350e379b</title>
<path fill="none" stroke="#63b8ff" d="M306.85,-125.98C319.14,-117.84 337.91,-105.41 352.48,-95.76"/>
<polygon fill="#63b8ff" stroke="#63b8ff" points="354.51,-98.61 360.91,-90.17 350.64,-92.78 354.51,-98.61"/>
<g id="a_edge7&#45;headlabel"><a xlink:href="dir_000100_000018.html" target="_top" xlink:title="2">
<text text-anchor="middle" x="353.08" y="-100.46" font-family="Helvetica,sans-Serif" font-size="10.00" fill="#63b8ff">2</text>
</a>
</g>
</g>
<!-- dir_cd43612992eaeb46558dd8835da126ed&#45;&gt;dir_e41b746b2bc627b26c4c637af42fb69a -->
<g id="edge8" class="edge">
<title>dir_cd43612992eaeb46558dd8835da126ed&#45;&gt;dir_e41b746b2bc627b26c4c637af42fb69a</title>
<path fill="none" stroke="#63b8ff" d="M308.63,-129.22C331.57,-120.96 376.57,-104.73 407.69,-93.51"/>
<polygon fill="#63b8ff" stroke="#63b8ff" points="409.04,-96.74 417.26,-90.06 406.67,-90.16 409.04,-96.74"/>
<g id="a_edge8&#45;headlabel"><a xlink:href="dir_000100_000079.html" target="_top" xlink:title="3">
<text text-anchor="middle" x="406.63" y="-98.13" font-family="Helvetica,sans-Serif" font-size="10.00" fill="#63b8ff">3</text>
</a>
</g>
</g>
<!-- dir_cd43612992eaeb46558dd8835da126ed&#45;&gt;dir_e44b40e2f7a090819cf1915a0b103ff1 -->
<g id="edge9" class="edge">
<title>dir_cd43612992eaeb46558dd8835da126ed&#45;&gt;dir_e44b40e2f7a090819cf1915a0b103ff1</title>
<path fill="none" stroke="#63b8ff" d="M308.51,-133.19C347.73,-129.31 454.24,-116.49 475,-90 507.05,-49.11 410.74,-33.82 360.89,-28.74"/>
<polygon fill="#63b8ff" stroke="#63b8ff" points="361.02,-25.24 350.73,-27.78 360.36,-32.21 361.02,-25.24"/>
<g id="a_edge9&#45;headlabel"><a xlink:href="dir_000100_000008.html" target="_top" xlink:title="4">
<text text-anchor="middle" x="364.86" y="-20.25" font-family="Helvetica,sans-Serif" font-size="10.00" fill="#63b8ff">4</text>
</a>
</g>
</g>
<!-- dir_cd43612992eaeb46558dd8835da126ed&#45;&gt;dir_f555f996eeee1ebe901dc71e0c5de8ff -->
<g id="edge10" class="edge">
<title>dir_cd43612992eaeb46558dd8835da126ed&#45;&gt;dir_f555f996eeee1ebe901dc71e0c5de8ff</title>
<path fill="none" stroke="#63b8ff" d="M308.56,-133.34C349,-129.8 461.13,-117.62 483,-90 494.39,-75.62 482.03,-56.2 469.9,-42.64"/>
<polygon fill="#63b8ff" stroke="#63b8ff" points="472.41,-40.21 462.96,-35.42 467.36,-45.06 472.41,-40.21"/>
<g id="a_edge10&#45;headlabel"><a xlink:href="dir_000100_000122.html" target="_top" xlink:title="9">
<text text-anchor="middle" x="476.95" y="-38.34" font-family="Helvetica,sans-Serif" font-size="10.00" fill="#63b8ff">9</text>
</a>
</g>
</g>
<!-- dir_4dea625e9392d7a16632e00d5dbbd6c7 -->
<g id="node11" class="node">
<title>dir_4dea625e9392d7a16632e00d5dbbd6c7</title>
<g id="a_node11"><a xlink:href="dir_4dea625e9392d7a16632e00d5dbbd6c7.html" target="_top" xlink:title="interface">
<polygon fill="#a2b4d6" stroke="#404040" points="332,-90 272,-90 272,-71 332,-71 332,-90"/>
<text text-anchor="middle" x="302" y="-78" font-family="Helvetica,sans-Serif" font-size="10.00">interface</text>
</a>
</g>
</g>
<!-- dir_cd43612992eaeb46558dd8835da126ed&#45;&gt;dir_4dea625e9392d7a16632e00d5dbbd6c7 -->
<g id="edge4" class="edge">
<title>dir_cd43612992eaeb46558dd8835da126ed&#45;&gt;dir_4dea625e9392d7a16632e00d5dbbd6c7</title>
<path fill="none" stroke="#63b8ff" d="M295.32,-125.75C296.37,-118.8 297.87,-108.85 299.19,-100.13"/>
<polygon fill="#63b8ff" stroke="#63b8ff" points="302.67,-100.5 300.7,-90.09 295.75,-99.45 302.67,-100.5"/>
<g id="a_edge4&#45;headlabel"><a xlink:href="dir_000100_000097.html" target="_top" xlink:title="5">
<text text-anchor="middle" x="304.94" y="-101.98" font-family="Helvetica,sans-Serif" font-size="10.00" fill="#63b8ff">5</text>
</a>
</g>
</g>
<!-- dir_4dea625e9392d7a16632e00d5dbbd6c7&#45;&gt;dir_4535887b2cdca47e625f259d07db0112 -->
<g id="edge11" class="edge">
<title>dir_4dea625e9392d7a16632e00d5dbbd6c7&#45;&gt;dir_4535887b2cdca47e625f259d07db0112</title>
<path fill="none" stroke="#63b8ff" d="M286.04,-70.92C280.44,-68.14 274.04,-65.2 268,-63 227.87,-48.35 179.38,-37.38 150.15,-31.45"/>
<polygon fill="#63b8ff" stroke="#63b8ff" points="150.79,-28.01 140.3,-29.5 149.43,-34.88 150.79,-28.01"/>
<g id="a_edge11&#45;headlabel"><a xlink:href="dir_000097_000185.html" target="_top" xlink:title="1">
<text text-anchor="middle" x="154.87" y="-23.43" font-family="Helvetica,sans-Serif" font-size="10.00" fill="#63b8ff">1</text>
</a>
</g>
</g>
<!-- dir_4dea625e9392d7a16632e00d5dbbd6c7&#45;&gt;dir_942cfae36a92b6b1c4b510e99e852d40 -->
<g id="edge12" class="edge">
<title>dir_4dea625e9392d7a16632e00d5dbbd6c7&#45;&gt;dir_942cfae36a92b6b1c4b510e99e852d40</title>
<path fill="none" stroke="#63b8ff" d="M289.31,-70.98C277.17,-62.84 258.64,-50.41 244.25,-40.76"/>
<polygon fill="#63b8ff" stroke="#63b8ff" points="246.18,-37.84 235.92,-35.17 242.28,-43.65 246.18,-37.84"/>
<g id="a_edge12&#45;headlabel"><a xlink:href="dir_000097_000189.html" target="_top" xlink:title="4">
<text text-anchor="middle" x="250.74" y="-34.98" font-family="Helvetica,sans-Serif" font-size="10.00" fill="#63b8ff">4</text>
</a>
</g>
</g>
<!-- dir_4dea625e9392d7a16632e00d5dbbd6c7&#45;&gt;dir_e44b40e2f7a090819cf1915a0b103ff1 -->
<g id="edge13" class="edge">
<title>dir_4dea625e9392d7a16632e00d5dbbd6c7&#45;&gt;dir_e44b40e2f7a090819cf1915a0b103ff1</title>
<path fill="none" stroke="#63b8ff" d="M307.12,-70.75C311.36,-63.49 317.53,-52.95 322.78,-43.98"/>
<polygon fill="#63b8ff" stroke="#63b8ff" points="325.95,-45.49 327.98,-35.09 319.91,-41.95 325.95,-45.49"/>
<g id="a_edge13&#45;headlabel"><a xlink:href="dir_000097_000008.html" target="_top" xlink:title="2">
<text text-anchor="middle" x="326.58" y="-47.52" font-family="Helvetica,sans-Serif" font-size="10.00" fill="#63b8ff">2</text>
</a>
</g>
</g>
<!-- dir_4dea625e9392d7a16632e00d5dbbd6c7&#45;&gt;dir_f555f996eeee1ebe901dc71e0c5de8ff -->
<g id="edge14" class="edge">
<title>dir_4dea625e9392d7a16632e00d5dbbd6c7&#45;&gt;dir_f555f996eeee1ebe901dc71e0c5de8ff</title>
<path fill="none" stroke="#63b8ff" d="M318.38,-70.94C323.9,-68.22 330.14,-65.32 336,-63 364.61,-51.67 398.23,-41.49 422.07,-34.78"/>
<polygon fill="#63b8ff" stroke="#63b8ff" points="423.26,-38.08 431.96,-32.04 421.39,-31.34 423.26,-38.08"/>
<g id="a_edge14&#45;headlabel"><a xlink:href="dir_000097_000122.html" target="_top" xlink:title="1">
<text text-anchor="middle" x="420.56" y="-39.28" font-family="Helvetica,sans-Serif" font-size="10.00" fill="#63b8ff">1</text>
</a>
</g>
</g>
</g>
</svg>
