<?xml version="1.0" encoding="UTF-8" standalone="no"?>
<!DOCTYPE svg PUBLIC "-//W3C//DTD SVG 1.1//EN"
 "http://www.w3.org/Graphics/SVG/1.1/DTD/svg11.dtd">
<!-- Generated by graphviz version 2.43.0 (0)
 -->
<!-- Title: userland/tools Pages: 1 -->
<svg width="92pt" height="117pt"
 viewBox="0.00 0.00 92.00 117.00" xmlns="http://www.w3.org/2000/svg" xmlns:xlink="http://www.w3.org/1999/xlink">
<g id="graph0" class="graph" transform="scale(1 1) rotate(0) translate(4 113)">
<title>userland/tools</title>
<g id="clust1" class="cluster">
<title>clusterdir_902ccc1d1f35ec7608c008c090ce6a24</title>
<g id="a_clust1"><a xlink:href="dir_902ccc1d1f35ec7608c008c090ce6a24.html" target="_top" xlink:title="userland">
<polygon fill="#edf0f7" stroke="#404040" stroke-dasharray="5,2" points="12,-47 12,-101 71,-101 71,-47 12,-47"/>
<text text-anchor="middle" x="41.5" y="-89" font-family="Helvetica,sans-Serif" font-size="10.00">userland</text>
</a>
</g>
</g>
<!-- dir_db7f99a50b1d5589d04ef6bdf0f260c5 -->
<g id="node1" class="node">
<title>dir_db7f99a50b1d5589d04ef6bdf0f260c5</title>
<g id="a_node1"><a xlink:href="dir_db7f99a50b1d5589d04ef6bdf0f260c5.html" target="_top" xlink:title="tools">
<polygon fill="#edf0f7" stroke="#404040" stroke-width="2" points="61.5,-74 20.5,-74 20.5,-55 61.5,-55 61.5,-74"/>
<text text-anchor="middle" x="41" y="-62" font-family="Helvetica,sans-Serif" font-size="10.00">tools</text>
</a>
</g>
</g>
<!-- dir_2605f0c6ea8f9a17a384edc9a2df15f4 -->
<g id="node2" class="node">
<title>dir_2605f0c6ea8f9a17a384edc9a2df15f4</title>
<g id="a_node2"><a xlink:href="dir_2605f0c6ea8f9a17a384edc9a2df15f4.html" target="_top" xlink:title="iris">
<polygon fill="#edf0f7" stroke="red" points="32,-19 0,-19 0,0 32,0 32,-19"/>
<text text-anchor="middle" x="16" y="-7" font-family="Helvetica,sans-Serif" font-size="10.00">iris</text>
</a>
</g>
</g>
<!-- dir_db7f99a50b1d5589d04ef6bdf0f260c5&#45;&gt;dir_2605f0c6ea8f9a17a384edc9a2df15f4 -->
<g id="edge1" class="edge">
<title>dir_db7f99a50b1d5589d04ef6bdf0f260c5&#45;&gt;dir_2605f0c6ea8f9a17a384edc9a2df15f4</title>
<path fill="none" stroke="#63b8ff" d="M36.87,-54.75C33.49,-47.57 28.58,-37.18 24.38,-28.27"/>
<polygon fill="#63b8ff" stroke="#63b8ff" points="27.48,-26.64 20.05,-19.09 21.15,-29.63 27.48,-26.64"/>
<g id="a_edge1&#45;headlabel"><a xlink:href="dir_000174_000102.html" target="_top" xlink:title="1">
<text text-anchor="middle" x="31.58" y="-26.18" font-family="Helvetica,sans-Serif" font-size="10.00" fill="#63b8ff">1</text>
</a>
</g>
</g>
<!-- dir_6719ab1f1f7655efc2fa43f7eb574fd1 -->
<g id="node3" class="node">
<title>dir_6719ab1f1f7655efc2fa43f7eb574fd1</title>
<g id="a_node3"><a xlink:href="dir_6719ab1f1f7655efc2fa43f7eb574fd1.html" target="_top" xlink:title="libs">
<polygon fill="#edf0f7" stroke="red" points="84,-19 50,-19 50,0 84,0 84,-19"/>
<text text-anchor="middle" x="67" y="-7" font-family="Helvetica,sans-Serif" font-size="10.00">libs</text>
</a>
</g>
</g>
<!-- dir_db7f99a50b1d5589d04ef6bdf0f260c5&#45;&gt;dir_6719ab1f1f7655efc2fa43f7eb574fd1 -->
<g id="edge2" class="edge">
<title>dir_db7f99a50b1d5589d04ef6bdf0f260c5&#45;&gt;dir_6719ab1f1f7655efc2fa43f7eb574fd1</title>
<path fill="none" stroke="#63b8ff" d="M45.29,-54.75C48.81,-47.57 53.91,-37.18 58.28,-28.27"/>
<polygon fill="#63b8ff" stroke="#63b8ff" points="61.52,-29.61 62.79,-19.09 55.24,-26.53 61.52,-29.61"/>
<g id="a_edge2&#45;headlabel"><a xlink:href="dir_000174_000109.html" target="_top" xlink:title="15">
<text text-anchor="middle" x="62.49" y="-31.59" font-family="Helvetica,sans-Serif" font-size="10.00" fill="#63b8ff">15</text>
</a>
</g>
</g>
</g>
</svg>
