<?xml version="1.0" encoding="UTF-8" standalone="no"?>
<!DOCTYPE svg PUBLIC "-//W3C//DTD SVG 1.1//EN"
 "http://www.w3.org/Graphics/SVG/1.1/DTD/svg11.dtd">
<!-- Generated by graphviz version 2.43.0 (0)
 -->
<!-- Title: iris/include/iris/core Pages: 1 -->
<svg width="266pt" height="133pt"
 viewBox="0.00 0.00 266.00 133.00" xmlns="http://www.w3.org/2000/svg" xmlns:xlink="http://www.w3.org/1999/xlink">
<g id="graph0" class="graph" transform="scale(1 1) rotate(0) translate(4 129)">
<title>iris/include/iris/core</title>
<g id="clust1" class="cluster">
<title>clusterdir_ffe5edf85fa540270b5bdba28be40ae5</title>
<g id="a_clust1"><a xlink:href="dir_ffe5edf85fa540270b5bdba28be40ae5.html" target="_top" xlink:title="iris">
<polygon fill="#edf0f7" stroke="#7f7f7f" stroke-dasharray="5,2" points="8,-8 8,-117 214,-117 214,-8 8,-8"/>
<text text-anchor="middle" x="111" y="-105" font-family="Helvetica,sans-Serif" font-size="10.00">iris</text>
</a>
</g>
</g>
<!-- dir_0d9b91d0f0b9ec0856341172f56c0a57 -->
<g id="node1" class="node">
<title>dir_0d9b91d0f0b9ec0856341172f56c0a57</title>
<g id="a_node1"><a xlink:href="dir_0d9b91d0f0b9ec0856341172f56c0a57.html" target="_top" xlink:title="uapi">
<polygon fill="#a2b4d6" stroke="#404040" points="54,-35 16,-35 16,-16 54,-16 54,-35"/>
<text text-anchor="middle" x="35" y="-23" font-family="Helvetica,sans-Serif" font-size="10.00">uapi</text>
</a>
</g>
</g>
<!-- dir_7cd5da72e38cd0f075d57a788b4f2242 -->
<g id="node2" class="node">
<title>dir_7cd5da72e38cd0f075d57a788b4f2242</title>
<g id="a_node2"><a xlink:href="dir_7cd5da72e38cd0f075d57a788b4f2242.html" target="_top" xlink:title="hw">
<polygon fill="#a2b4d6" stroke="red" points="103.5,-35 72.5,-35 72.5,-16 103.5,-16 103.5,-35"/>
<text text-anchor="middle" x="88" y="-23" font-family="Helvetica,sans-Serif" font-size="10.00">hw</text>
</a>
</g>
</g>
<!-- dir_945708b8d3397c2507c5e618c4393ffa -->
<g id="node3" class="node">
<title>dir_945708b8d3397c2507c5e618c4393ffa</title>
<g id="a_node3"><a xlink:href="dir_945708b8d3397c2507c5e618c4393ffa.html" target="_top" xlink:title="mm">
<polygon fill="#a2b4d6" stroke="#404040" points="158,-35 122,-35 122,-16 158,-16 158,-35"/>
<text text-anchor="middle" x="140" y="-23" font-family="Helvetica,sans-Serif" font-size="10.00">mm</text>
</a>
</g>
</g>
<!-- dir_a21c0d42bc7a96803f2e083bf7f05619 -->
<g id="node4" class="node">
<title>dir_a21c0d42bc7a96803f2e083bf7f05619</title>
<g id="a_node4"><a xlink:href="dir_a21c0d42bc7a96803f2e083bf7f05619.html" target="_top" xlink:title="fs">
<polygon fill="#a2b4d6" stroke="#404040" points="205.5,-35 176.5,-35 176.5,-16 205.5,-16 205.5,-35"/>
<text text-anchor="middle" x="191" y="-23" font-family="Helvetica,sans-Serif" font-size="10.00">fs</text>
</a>
</g>
</g>
<!-- dir_be381e3b7aa79a91c125f50d5abcc4e9 -->
<g id="node5" class="node">
<title>dir_be381e3b7aa79a91c125f50d5abcc4e9</title>
<g id="a_node5"><a xlink:href="dir_be381e3b7aa79a91c125f50d5abcc4e9.html" target="_top" xlink:title="core">
<polygon fill="#edf0f7" stroke="#404040" stroke-width="2" points="159,-90 121,-90 121,-71 159,-71 159,-90"/>
<text text-anchor="middle" x="140" y="-78" font-family="Helvetica,sans-Serif" font-size="10.00">core</text>
</a>
</g>
</g>
<!-- dir_be381e3b7aa79a91c125f50d5abcc4e9&#45;&gt;dir_0d9b91d0f0b9ec0856341172f56c0a57 -->
<g id="edge1" class="edge">
<title>dir_be381e3b7aa79a91c125f50d5abcc4e9&#45;&gt;dir_0d9b91d0f0b9ec0856341172f56c0a57</title>
<path fill="none" stroke="#63b8ff" d="M123.13,-70.98C106.39,-62.54 80.5,-49.47 61.11,-39.68"/>
<polygon fill="#63b8ff" stroke="#63b8ff" points="62.68,-36.55 52.18,-35.17 59.53,-42.8 62.68,-36.55"/>
<g id="a_edge1&#45;headlabel"><a xlink:href="dir_000052_000181.html" target="_top" xlink:title="1">
<text text-anchor="middle" x="67.17" y="-33.14" font-family="Helvetica,sans-Serif" font-size="10.00" fill="#63b8ff">1</text>
</a>
</g>
</g>
<!-- dir_be381e3b7aa79a91c125f50d5abcc4e9&#45;&gt;dir_7cd5da72e38cd0f075d57a788b4f2242 -->
<g id="edge3" class="edge">
<title>dir_be381e3b7aa79a91c125f50d5abcc4e9&#45;&gt;dir_7cd5da72e38cd0f075d57a788b4f2242</title>
<path fill="none" stroke="#63b8ff" d="M131.41,-70.75C123.84,-63.03 112.62,-51.6 103.49,-42.28"/>
<polygon fill="#63b8ff" stroke="#63b8ff" points="105.93,-39.78 96.43,-35.09 100.93,-44.68 105.93,-39.78"/>
<g id="a_edge3&#45;headlabel"><a xlink:href="dir_000052_000089.html" target="_top" xlink:title="3">
<text text-anchor="middle" x="110.47" y="-37.85" font-family="Helvetica,sans-Serif" font-size="10.00" fill="#63b8ff">3</text>
</a>
</g>
</g>
<!-- dir_be381e3b7aa79a91c125f50d5abcc4e9&#45;&gt;dir_945708b8d3397c2507c5e618c4393ffa -->
<g id="edge4" class="edge">
<title>dir_be381e3b7aa79a91c125f50d5abcc4e9&#45;&gt;dir_945708b8d3397c2507c5e618c4393ffa</title>
<path fill="none" stroke="#63b8ff" d="M140,-70.75C140,-63.8 140,-53.85 140,-45.13"/>
<polygon fill="#63b8ff" stroke="#63b8ff" points="143.5,-45.09 140,-35.09 136.5,-45.09 143.5,-45.09"/>
<g id="a_edge4&#45;headlabel"><a xlink:href="dir_000052_000126.html" target="_top" xlink:title="6">
<text text-anchor="middle" x="146.34" y="-46.18" font-family="Helvetica,sans-Serif" font-size="10.00" fill="#63b8ff">6</text>
</a>
</g>
</g>
<!-- dir_be381e3b7aa79a91c125f50d5abcc4e9&#45;&gt;dir_a21c0d42bc7a96803f2e083bf7f05619 -->
<g id="edge5" class="edge">
<title>dir_be381e3b7aa79a91c125f50d5abcc4e9&#45;&gt;dir_a21c0d42bc7a96803f2e083bf7f05619</title>
<path fill="none" stroke="#63b8ff" d="M148.42,-70.75C155.77,-63.11 166.63,-51.82 175.54,-42.56"/>
<polygon fill="#63b8ff" stroke="#63b8ff" points="178.32,-44.72 182.74,-35.09 173.28,-39.87 178.32,-44.72"/>
<g id="a_edge5&#45;headlabel"><a xlink:href="dir_000052_000081.html" target="_top" xlink:title="6">
<text text-anchor="middle" x="177.88" y="-46.78" font-family="Helvetica,sans-Serif" font-size="10.00" fill="#63b8ff">6</text>
</a>
</g>
</g>
<!-- dir_6719ab1f1f7655efc2fa43f7eb574fd1 -->
<g id="node6" class="node">
<title>dir_6719ab1f1f7655efc2fa43f7eb574fd1</title>
<g id="a_node6"><a xlink:href="dir_6719ab1f1f7655efc2fa43f7eb574fd1.html" target="_top" xlink:title="libs">
<polygon fill="#edf0f7" stroke="red" points="258,-35 224,-35 224,-16 258,-16 258,-35"/>
<text text-anchor="middle" x="241" y="-23" font-family="Helvetica,sans-Serif" font-size="10.00">libs</text>
</a>
</g>
</g>
<!-- dir_be381e3b7aa79a91c125f50d5abcc4e9&#45;&gt;dir_6719ab1f1f7655efc2fa43f7eb574fd1 -->
<g id="edge2" class="edge">
<title>dir_be381e3b7aa79a91c125f50d5abcc4e9&#45;&gt;dir_6719ab1f1f7655efc2fa43f7eb574fd1</title>
<path fill="none" stroke="#63b8ff" d="M156.23,-70.98C172.18,-62.61 196.78,-49.7 215.38,-39.95"/>
<polygon fill="#63b8ff" stroke="#63b8ff" points="217.25,-42.92 224.48,-35.17 214,-36.72 217.25,-42.92"/>
<g id="a_edge2&#45;headlabel"><a xlink:href="dir_000052_000109.html" target="_top" xlink:title="55">
<text text-anchor="middle" x="215.39" y="-44.6" font-family="Helvetica,sans-Serif" font-size="10.00" fill="#63b8ff">55</text>
</a>
</g>
</g>
</g>
</svg>
