<?xml version="1.0" encoding="UTF-8" standalone="no"?>
<!DOCTYPE svg PUBLIC "-//W3C//DTD SVG 1.1//EN"
 "http://www.w3.org/Graphics/SVG/1.1/DTD/svg11.dtd">
<!-- Generated by graphviz version 2.43.0 (0)
 -->
<!-- Title: libs/di/include/di/random/distribution Pages: 1 -->
<svg width="214pt" height="133pt"
 viewBox="0.00 0.00 214.00 133.00" xmlns="http://www.w3.org/2000/svg" xmlns:xlink="http://www.w3.org/1999/xlink">
<g id="graph0" class="graph" transform="scale(1 1) rotate(0) translate(4 129)">
<title>libs/di/include/di/random/distribution</title>
<g id="clust1" class="cluster">
<title>clusterdir_b53b5446bfdc9bc3aeb10a5b96312bdd</title>
<g id="a_clust1"><a xlink:href="dir_b53b5446bfdc9bc3aeb10a5b96312bdd.html" target="_top" xlink:title="random">
<polygon fill="#edf0f7" stroke="#7f7f7f" stroke-dasharray="5,2" points="8,-8 8,-117 96,-117 96,-8 8,-8"/>
<text text-anchor="middle" x="52" y="-105" font-family="Helvetica,sans-Serif" font-size="10.00">random</text>
</a>
</g>
</g>
<!-- dir_764bc2cf7efe5d7246bd38acdd69b920 -->
<g id="node1" class="node">
<title>dir_764bc2cf7efe5d7246bd38acdd69b920</title>
<g id="a_node1"><a xlink:href="dir_764bc2cf7efe5d7246bd38acdd69b920.html" target="_top" xlink:title="concepts">
<polygon fill="#a2b4d6" stroke="#404040" points="82,-35 22,-35 22,-16 82,-16 82,-35"/>
<text text-anchor="middle" x="52" y="-23" font-family="Helvetica,sans-Serif" font-size="10.00">concepts</text>
</a>
</g>
</g>
<!-- dir_6efc779ef093693d5f2860686cf6c9b1 -->
<g id="node2" class="node">
<title>dir_6efc779ef093693d5f2860686cf6c9b1</title>
<g id="a_node2"><a xlink:href="dir_6efc779ef093693d5f2860686cf6c9b1.html" target="_top" xlink:title="distribution">
<polygon fill="#edf0f7" stroke="#404040" stroke-width="2" points="88,-90 16,-90 16,-71 88,-71 88,-90"/>
<text text-anchor="middle" x="52" y="-78" font-family="Helvetica,sans-Serif" font-size="10.00">distribution</text>
</a>
</g>
</g>
<!-- dir_6efc779ef093693d5f2860686cf6c9b1&#45;&gt;dir_764bc2cf7efe5d7246bd38acdd69b920 -->
<g id="edge2" class="edge">
<title>dir_6efc779ef093693d5f2860686cf6c9b1&#45;&gt;dir_764bc2cf7efe5d7246bd38acdd69b920</title>
<path fill="none" stroke="#63b8ff" d="M52,-70.75C52,-63.8 52,-53.85 52,-45.13"/>
<polygon fill="#63b8ff" stroke="#63b8ff" points="55.5,-45.09 52,-35.09 48.5,-45.09 55.5,-45.09"/>
<g id="a_edge2&#45;headlabel"><a xlink:href="dir_000061_000041.html" target="_top" xlink:title="1">
<text text-anchor="middle" x="58.34" y="-46.18" font-family="Helvetica,sans-Serif" font-size="10.00" fill="#63b8ff">1</text>
</a>
</g>
</g>
<!-- dir_60d1624911c2c9f7b6f38e44ec895aaa -->
<g id="node3" class="node">
<title>dir_60d1624911c2c9f7b6f38e44ec895aaa</title>
<g id="a_node3"><a xlink:href="dir_60d1624911c2c9f7b6f38e44ec895aaa.html" target="_top" xlink:title="math">
<polygon fill="#edf0f7" stroke="red" stroke-dasharray="5,2" points="146,-35 104,-35 104,-16 146,-16 146,-35"/>
<text text-anchor="middle" x="125" y="-23" font-family="Helvetica,sans-Serif" font-size="10.00">math</text>
</a>
</g>
</g>
<!-- dir_6efc779ef093693d5f2860686cf6c9b1&#45;&gt;dir_60d1624911c2c9f7b6f38e44ec895aaa -->
<g id="edge1" class="edge">
<title>dir_6efc779ef093693d5f2860686cf6c9b1&#45;&gt;dir_60d1624911c2c9f7b6f38e44ec895aaa</title>
<path fill="none" stroke="#63b8ff" d="M63.73,-70.98C74.73,-63 91.42,-50.88 104.6,-41.31"/>
<polygon fill="#63b8ff" stroke="#63b8ff" points="107.02,-43.88 113.06,-35.17 102.91,-38.21 107.02,-43.88"/>
<g id="a_edge1&#45;headlabel"><a xlink:href="dir_000061_000117.html" target="_top" xlink:title="1">
<text text-anchor="middle" x="105.78" y="-45.79" font-family="Helvetica,sans-Serif" font-size="10.00" fill="#63b8ff">1</text>
</a>
</g>
</g>
<!-- dir_f555f996eeee1ebe901dc71e0c5de8ff -->
<g id="node4" class="node">
<title>dir_f555f996eeee1ebe901dc71e0c5de8ff</title>
<g id="a_node4"><a xlink:href="dir_f555f996eeee1ebe901dc71e0c5de8ff.html" target="_top" xlink:title="meta">
<polygon fill="#edf0f7" stroke="#7f7f7f" points="206,-35 164,-35 164,-16 206,-16 206,-35"/>
<text text-anchor="middle" x="185" y="-23" font-family="Helvetica,sans-Serif" font-size="10.00">meta</text>
</a>
</g>
</g>
<!-- dir_6efc779ef093693d5f2860686cf6c9b1&#45;&gt;dir_f555f996eeee1ebe901dc71e0c5de8ff -->
<g id="edge3" class="edge">
<title>dir_6efc779ef093693d5f2860686cf6c9b1&#45;&gt;dir_f555f996eeee1ebe901dc71e0c5de8ff</title>
<path fill="none" stroke="#63b8ff" d="M73.37,-70.98C95.28,-62.25 129.57,-48.59 154.36,-38.71"/>
<polygon fill="#63b8ff" stroke="#63b8ff" points="155.69,-41.95 163.68,-34.99 153.1,-35.44 155.69,-41.95"/>
<g id="a_edge3&#45;headlabel"><a xlink:href="dir_000061_000122.html" target="_top" xlink:title="2">
<text text-anchor="middle" x="153.4" y="-43.42" font-family="Helvetica,sans-Serif" font-size="10.00" fill="#63b8ff">2</text>
</a>
</g>
</g>
</g>
</svg>
