<?xml version="1.0" encoding="UTF-8" standalone="no"?>
<!DOCTYPE svg PUBLIC "-//W3C//DTD SVG 1.1//EN"
 "http://www.w3.org/Graphics/SVG/1.1/DTD/svg11.dtd">
<!-- Generated by graphviz version 2.43.0 (0)
 -->
<!-- Title: libs/ccpp/time Pages: 1 -->
<svg width="124pt" height="133pt"
 viewBox="0.00 0.00 123.50 133.00" xmlns="http://www.w3.org/2000/svg" xmlns:xlink="http://www.w3.org/1999/xlink">
<g id="graph0" class="graph" transform="scale(1 1) rotate(0) translate(4 129)">
<title>libs/ccpp/time</title>
<g id="clust1" class="cluster">
<title>clusterdir_048287677304621c659962c2a2c2732d</title>
<g id="a_clust1"><a xlink:href="dir_048287677304621c659962c2a2c2732d.html" target="_top" xlink:title="ccpp">
<polygon fill="#edf0f7" stroke="#7f7f7f" stroke-dasharray="5,2" points="8,-8 8,-117 76,-117 76,-8 8,-8"/>
<text text-anchor="middle" x="42" y="-105" font-family="Helvetica,sans-Serif" font-size="10.00">ccpp</text>
</a>
</g>
</g>
<!-- dir_4a059f36db6300b3f1d6a7b4bd94b473 -->
<g id="node1" class="node">
<title>dir_4a059f36db6300b3f1d6a7b4bd94b473</title>
<g id="a_node1"><a xlink:href="dir_4a059f36db6300b3f1d6a7b4bd94b473.html" target="_top" xlink:title="include">
<polygon fill="#a2b4d6" stroke="red" points="68,-35 16,-35 16,-16 68,-16 68,-35"/>
<text text-anchor="middle" x="42" y="-23" font-family="Helvetica,sans-Serif" font-size="10.00">include</text>
</a>
</g>
</g>
<!-- dir_9dddc263950344b7f80fe87fc983271b -->
<g id="node2" class="node">
<title>dir_9dddc263950344b7f80fe87fc983271b</title>
<g id="a_node2"><a xlink:href="dir_9dddc263950344b7f80fe87fc983271b.html" target="_top" xlink:title="time">
<polygon fill="#edf0f7" stroke="#404040" stroke-width="2" points="64.5,-90 25.5,-90 25.5,-71 64.5,-71 64.5,-90"/>
<text text-anchor="middle" x="45" y="-78" font-family="Helvetica,sans-Serif" font-size="10.00">time</text>
</a>
</g>
</g>
<!-- dir_9dddc263950344b7f80fe87fc983271b&#45;&gt;dir_4a059f36db6300b3f1d6a7b4bd94b473 -->
<g id="edge1" class="edge">
<title>dir_9dddc263950344b7f80fe87fc983271b&#45;&gt;dir_4a059f36db6300b3f1d6a7b4bd94b473</title>
<path fill="none" stroke="#63b8ff" d="M44.5,-70.75C44.11,-63.8 43.55,-53.85 43.05,-45.13"/>
<polygon fill="#63b8ff" stroke="#63b8ff" points="46.55,-44.88 42.49,-35.09 39.56,-45.27 46.55,-44.88"/>
<g id="a_edge1&#45;headlabel"><a xlink:href="dir_000172_000091.html" target="_top" xlink:title="1">
<text text-anchor="middle" x="49.58" y="-45.8" font-family="Helvetica,sans-Serif" font-size="10.00" fill="#63b8ff">1</text>
</a>
</g>
</g>
<!-- dir_984cd133b143ec7cf21a4bdcb401bfa5 -->
<g id="node3" class="node">
<title>dir_984cd133b143ec7cf21a4bdcb401bfa5</title>
<g id="a_node3"><a xlink:href="dir_984cd133b143ec7cf21a4bdcb401bfa5.html" target="_top" xlink:title="di">
<polygon fill="#edf0f7" stroke="red" stroke-dasharray="5,2" points="115.5,-35 86.5,-35 86.5,-16 115.5,-16 115.5,-35"/>
<text text-anchor="middle" x="101" y="-23" font-family="Helvetica,sans-Serif" font-size="10.00">di</text>
</a>
</g>
</g>
<!-- dir_9dddc263950344b7f80fe87fc983271b&#45;&gt;dir_984cd133b143ec7cf21a4bdcb401bfa5 -->
<g id="edge2" class="edge">
<title>dir_9dddc263950344b7f80fe87fc983271b&#45;&gt;dir_984cd133b143ec7cf21a4bdcb401bfa5</title>
<path fill="none" stroke="#63b8ff" d="M54,-70.98C62.19,-63.23 74.51,-51.58 84.47,-42.14"/>
<polygon fill="#63b8ff" stroke="#63b8ff" points="86.98,-44.59 91.84,-35.17 82.17,-39.5 86.98,-44.59"/>
<g id="a_edge2&#45;headlabel"><a xlink:href="dir_000172_000058.html" target="_top" xlink:title="2">
<text text-anchor="middle" x="86.32" y="-46.62" font-family="Helvetica,sans-Serif" font-size="10.00" fill="#63b8ff">2</text>
</a>
</g>
</g>
</g>
</svg>
