<?xml version="1.0" encoding="UTF-8" standalone="no"?>
<!DOCTYPE svg PUBLIC "-//W3C//DTD SVG 1.1//EN"
 "http://www.w3.org/Graphics/SVG/1.1/DTD/svg11.dtd">
<!-- Generated by graphviz version 2.43.0 (0)
 -->
<!-- Title: libs/di/include/di/execution/scope Pages: 1 -->
<svg width="1109pt" height="133pt"
 viewBox="0.00 0.00 1109.00 133.00" xmlns="http://www.w3.org/2000/svg" xmlns:xlink="http://www.w3.org/1999/xlink">
<g id="graph0" class="graph" transform="scale(1 1) rotate(0) translate(4 129)">
<title>libs/di/include/di/execution/scope</title>
<g id="clust1" class="cluster">
<title>clusterdir_182dab0b86097ba072332b7ad8fceb7f</title>
<g id="a_clust1"><a xlink:href="dir_182dab0b86097ba072332b7ad8fceb7f.html" target="_top" xlink:title="execution">
<polygon fill="#edf0f7" stroke="#7f7f7f" stroke-dasharray="5,2" points="8,-8 8,-117 584,-117 584,-8 8,-8"/>
<text text-anchor="middle" x="296" y="-105" font-family="Helvetica,sans-Serif" font-size="10.00">execution</text>
</a>
</g>
</g>
<!-- dir_27e1a0af1927749316784e6421682a5e -->
<g id="node1" class="node">
<title>dir_27e1a0af1927749316784e6421682a5e</title>
<g id="a_node1"><a xlink:href="dir_27e1a0af1927749316784e6421682a5e.html" target="_top" xlink:title="interface">
<polygon fill="#a2b4d6" stroke="#404040" points="76,-35 16,-35 16,-16 76,-16 76,-35"/>
<text text-anchor="middle" x="46" y="-23" font-family="Helvetica,sans-Serif" font-size="10.00">interface</text>
</a>
</g>
</g>
<!-- dir_38011a79da39fb3448319eccf8c364d9 -->
<g id="node2" class="node">
<title>dir_38011a79da39fb3448319eccf8c364d9</title>
<g id="a_node2"><a xlink:href="dir_38011a79da39fb3448319eccf8c364d9.html" target="_top" xlink:title="query">
<polygon fill="#a2b4d6" stroke="#404040" points="138,-35 94,-35 94,-16 138,-16 138,-35"/>
<text text-anchor="middle" x="116" y="-23" font-family="Helvetica,sans-Serif" font-size="10.00">query</text>
</a>
</g>
</g>
<!-- dir_42e3132b523eec61d254ecfd76390a40 -->
<g id="node3" class="node">
<title>dir_42e3132b523eec61d254ecfd76390a40</title>
<g id="a_node3"><a xlink:href="dir_42e3132b523eec61d254ecfd76390a40.html" target="_top" xlink:title="algorithm">
<polygon fill="#a2b4d6" stroke="#404040" points="220,-35 156,-35 156,-16 220,-16 220,-35"/>
<text text-anchor="middle" x="188" y="-23" font-family="Helvetica,sans-Serif" font-size="10.00">algorithm</text>
</a>
</g>
</g>
<!-- dir_569ed69d6bb9bf9a95676c3a98a04440 -->
<g id="node4" class="node">
<title>dir_569ed69d6bb9bf9a95676c3a98a04440</title>
<g id="a_node4"><a xlink:href="dir_569ed69d6bb9bf9a95676c3a98a04440.html" target="_top" xlink:title="types">
<polygon fill="#a2b4d6" stroke="#404040" points="282,-35 238,-35 238,-16 282,-16 282,-35"/>
<text text-anchor="middle" x="260" y="-23" font-family="Helvetica,sans-Serif" font-size="10.00">types</text>
</a>
</g>
</g>
<!-- dir_57df25969c72935fa0fddf8bd8d3498c -->
<g id="node5" class="node">
<title>dir_57df25969c72935fa0fddf8bd8d3498c</title>
<g id="a_node5"><a xlink:href="dir_57df25969c72935fa0fddf8bd8d3498c.html" target="_top" xlink:title="meta">
<polygon fill="#a2b4d6" stroke="#404040" points="342,-35 300,-35 300,-16 342,-16 342,-35"/>
<text text-anchor="middle" x="321" y="-23" font-family="Helvetica,sans-Serif" font-size="10.00">meta</text>
</a>
</g>
</g>
<!-- dir_72b20bf6291bd35729057dcb4ccbac76 -->
<g id="node6" class="node">
<title>dir_72b20bf6291bd35729057dcb4ccbac76</title>
<g id="a_node6"><a xlink:href="dir_72b20bf6291bd35729057dcb4ccbac76.html" target="_top" xlink:title="concepts">
<polygon fill="#a2b4d6" stroke="#404040" points="420,-35 360,-35 360,-16 420,-16 420,-35"/>
<text text-anchor="middle" x="390" y="-23" font-family="Helvetica,sans-Serif" font-size="10.00">concepts</text>
</a>
</g>
</g>
<!-- dir_8620533e8531467fdbfb737d3ec42837 -->
<g id="node7" class="node">
<title>dir_8620533e8531467fdbfb737d3ec42837</title>
<g id="a_node7"><a xlink:href="dir_8620533e8531467fdbfb737d3ec42837.html" target="_top" xlink:title="receiver">
<polygon fill="#a2b4d6" stroke="#404040" points="494,-35 438,-35 438,-16 494,-16 494,-35"/>
<text text-anchor="middle" x="466" y="-23" font-family="Helvetica,sans-Serif" font-size="10.00">receiver</text>
</a>
</g>
</g>
<!-- dir_b7ad26a73b774414b6d3658268280d20 -->
<g id="node8" class="node">
<title>dir_b7ad26a73b774414b6d3658268280d20</title>
<g id="a_node8"><a xlink:href="dir_b7ad26a73b774414b6d3658268280d20.html" target="_top" xlink:title="sequence">
<polygon fill="#a2b4d6" stroke="#404040" points="575.5,-35 512.5,-35 512.5,-16 575.5,-16 575.5,-35"/>
<text text-anchor="middle" x="544" y="-23" font-family="Helvetica,sans-Serif" font-size="10.00">sequence</text>
</a>
</g>
</g>
<!-- dir_6760dc3fb5bd31efe7355c24e63385e0 -->
<g id="node9" class="node">
<title>dir_6760dc3fb5bd31efe7355c24e63385e0</title>
<g id="a_node9"><a xlink:href="dir_6760dc3fb5bd31efe7355c24e63385e0.html" target="_top" xlink:title="scope">
<polygon fill="#edf0f7" stroke="#404040" stroke-width="2" points="570.5,-90 525.5,-90 525.5,-71 570.5,-71 570.5,-90"/>
<text text-anchor="middle" x="548" y="-78" font-family="Helvetica,sans-Serif" font-size="10.00">scope</text>
</a>
</g>
</g>
<!-- dir_6760dc3fb5bd31efe7355c24e63385e0&#45;&gt;dir_27e1a0af1927749316784e6421682a5e -->
<g id="edge2" class="edge">
<title>dir_6760dc3fb5bd31efe7355c24e63385e0&#45;&gt;dir_27e1a0af1927749316784e6421682a5e</title>
<path fill="none" stroke="#63b8ff" d="M525.24,-78.27C459.03,-74.5 260.69,-61.77 86.3,-35.02"/>
<polygon fill="#63b8ff" stroke="#63b8ff" points="86.59,-31.52 76.17,-33.45 85.51,-38.44 86.59,-31.52"/>
<g id="a_edge2&#45;headlabel"><a xlink:href="dir_000149_000096.html" target="_top" xlink:title="5">
<text text-anchor="middle" x="90.57" y="-26.77" font-family="Helvetica,sans-Serif" font-size="10.00" fill="#63b8ff">5</text>
</a>
</g>
</g>
<!-- dir_6760dc3fb5bd31efe7355c24e63385e0&#45;&gt;dir_38011a79da39fb3448319eccf8c364d9 -->
<g id="edge4" class="edge">
<title>dir_6760dc3fb5bd31efe7355c24e63385e0&#45;&gt;dir_38011a79da39fb3448319eccf8c364d9</title>
<path fill="none" stroke="#63b8ff" d="M525.2,-78.23C465.08,-74.61 297.18,-62.8 148.47,-34.99"/>
<polygon fill="#63b8ff" stroke="#63b8ff" points="148.73,-31.48 138.25,-33.05 147.42,-38.36 148.73,-31.48"/>
<g id="a_edge4&#45;headlabel"><a xlink:href="dir_000149_000139.html" target="_top" xlink:title="6">
<text text-anchor="middle" x="152.79" y="-26.86" font-family="Helvetica,sans-Serif" font-size="10.00" fill="#63b8ff">6</text>
</a>
</g>
</g>
<!-- dir_6760dc3fb5bd31efe7355c24e63385e0&#45;&gt;dir_42e3132b523eec61d254ecfd76390a40 -->
<g id="edge5" class="edge">
<title>dir_6760dc3fb5bd31efe7355c24e63385e0&#45;&gt;dir_42e3132b523eec61d254ecfd76390a40</title>
<path fill="none" stroke="#63b8ff" d="M525.49,-76.88C474.72,-70.85 347.24,-55.11 230.38,-35.14"/>
<polygon fill="#63b8ff" stroke="#63b8ff" points="230.64,-31.63 220.19,-33.38 229.45,-38.53 230.64,-31.63"/>
<g id="a_edge5&#45;headlabel"><a xlink:href="dir_000149_000004.html" target="_top" xlink:title="4">
<text text-anchor="middle" x="234.66" y="-26.95" font-family="Helvetica,sans-Serif" font-size="10.00" fill="#63b8ff">4</text>
</a>
</g>
</g>
<!-- dir_6760dc3fb5bd31efe7355c24e63385e0&#45;&gt;dir_569ed69d6bb9bf9a95676c3a98a04440 -->
<g id="edge8" class="edge">
<title>dir_6760dc3fb5bd31efe7355c24e63385e0&#45;&gt;dir_569ed69d6bb9bf9a95676c3a98a04440</title>
<path fill="none" stroke="#63b8ff" d="M525.17,-76.3C481.7,-70.05 383.94,-55.22 292.28,-35.11"/>
<polygon fill="#63b8ff" stroke="#63b8ff" points="292.81,-31.64 282.29,-32.89 291.29,-38.47 292.81,-31.64"/>
<g id="a_edge8&#45;headlabel"><a xlink:href="dir_000149_000179.html" target="_top" xlink:title="2">
<text text-anchor="middle" x="296.93" y="-27.15" font-family="Helvetica,sans-Serif" font-size="10.00" fill="#63b8ff">2</text>
</a>
</g>
</g>
<!-- dir_6760dc3fb5bd31efe7355c24e63385e0&#45;&gt;dir_57df25969c72935fa0fddf8bd8d3498c -->
<g id="edge9" class="edge">
<title>dir_6760dc3fb5bd31efe7355c24e63385e0&#45;&gt;dir_57df25969c72935fa0fddf8bd8d3498c</title>
<path fill="none" stroke="#63b8ff" d="M525.45,-74.82C490.47,-67.47 420.8,-52.49 352.35,-35.24"/>
<polygon fill="#63b8ff" stroke="#63b8ff" points="352.82,-31.75 342.27,-32.68 351.1,-38.53 352.82,-31.75"/>
<g id="a_edge9&#45;headlabel"><a xlink:href="dir_000149_000121.html" target="_top" xlink:title="4">
<text text-anchor="middle" x="357" y="-27.38" font-family="Helvetica,sans-Serif" font-size="10.00" fill="#63b8ff">4</text>
</a>
</g>
</g>
<!-- dir_6760dc3fb5bd31efe7355c24e63385e0&#45;&gt;dir_72b20bf6291bd35729057dcb4ccbac76 -->
<g id="edge10" class="edge">
<title>dir_6760dc3fb5bd31efe7355c24e63385e0&#45;&gt;dir_72b20bf6291bd35729057dcb4ccbac76</title>
<path fill="none" stroke="#63b8ff" d="M525.36,-71.91C499.22,-63.14 455.9,-48.6 425.31,-38.35"/>
<polygon fill="#63b8ff" stroke="#63b8ff" points="426.07,-34.91 415.47,-35.05 423.84,-41.54 426.07,-34.91"/>
<g id="a_edge10&#45;headlabel"><a xlink:href="dir_000149_000038.html" target="_top" xlink:title="4">
<text text-anchor="middle" x="430.38" y="-30.86" font-family="Helvetica,sans-Serif" font-size="10.00" fill="#63b8ff">4</text>
</a>
</g>
</g>
<!-- dir_6760dc3fb5bd31efe7355c24e63385e0&#45;&gt;dir_8620533e8531467fdbfb737d3ec42837 -->
<g id="edge11" class="edge">
<title>dir_6760dc3fb5bd31efe7355c24e63385e0&#45;&gt;dir_8620533e8531467fdbfb737d3ec42837</title>
<path fill="none" stroke="#63b8ff" d="M534.83,-70.98C522.23,-62.84 503,-50.41 488.06,-40.76"/>
<polygon fill="#63b8ff" stroke="#63b8ff" points="489.71,-37.66 479.41,-35.17 485.91,-43.54 489.71,-37.66"/>
<g id="a_edge11&#45;headlabel"><a xlink:href="dir_000149_000144.html" target="_top" xlink:title="4">
<text text-anchor="middle" x="494.27" y="-34.73" font-family="Helvetica,sans-Serif" font-size="10.00" fill="#63b8ff">4</text>
</a>
</g>
</g>
<!-- dir_6760dc3fb5bd31efe7355c24e63385e0&#45;&gt;dir_b7ad26a73b774414b6d3658268280d20 -->
<g id="edge15" class="edge">
<title>dir_6760dc3fb5bd31efe7355c24e63385e0&#45;&gt;dir_b7ad26a73b774414b6d3658268280d20</title>
<path fill="none" stroke="#63b8ff" d="M547.34,-70.75C546.82,-63.8 546.06,-53.85 545.41,-45.13"/>
<polygon fill="#63b8ff" stroke="#63b8ff" points="548.89,-44.8 544.65,-35.09 541.91,-45.32 548.89,-44.8"/>
<g id="a_edge15&#45;headlabel"><a xlink:href="dir_000149_000150.html" target="_top" xlink:title="2">
<text text-anchor="middle" x="551.99" y="-45.67" font-family="Helvetica,sans-Serif" font-size="10.00" fill="#63b8ff">2</text>
</a>
</g>
</g>
<!-- dir_0669efae56692bb73da75efb5ebbccdf -->
<g id="node10" class="node">
<title>dir_0669efae56692bb73da75efb5ebbccdf</title>
<g id="a_node10"><a xlink:href="dir_0669efae56692bb73da75efb5ebbccdf.html" target="_top" xlink:title="function">
<polygon fill="#edf0f7" stroke="red" stroke-dasharray="5,2" points="650,-35 594,-35 594,-16 650,-16 650,-35"/>
<text text-anchor="middle" x="622" y="-23" font-family="Helvetica,sans-Serif" font-size="10.00">function</text>
</a>
</g>
</g>
<!-- dir_6760dc3fb5bd31efe7355c24e63385e0&#45;&gt;dir_0669efae56692bb73da75efb5ebbccdf -->
<g id="edge1" class="edge">
<title>dir_6760dc3fb5bd31efe7355c24e63385e0&#45;&gt;dir_0669efae56692bb73da75efb5ebbccdf</title>
<path fill="none" stroke="#63b8ff" d="M559.89,-70.98C571.15,-62.92 588.29,-50.65 601.71,-41.03"/>
<polygon fill="#63b8ff" stroke="#63b8ff" points="603.8,-43.84 609.89,-35.17 599.73,-38.15 603.8,-43.84"/>
<g id="a_edge1&#45;headlabel"><a xlink:href="dir_000149_000082.html" target="_top" xlink:title="3">
<text text-anchor="middle" x="602.53" y="-45.74" font-family="Helvetica,sans-Serif" font-size="10.00" fill="#63b8ff">3</text>
</a>
</g>
</g>
<!-- dir_30ecaf38acae77be14fb9173f98f8612 -->
<g id="node11" class="node">
<title>dir_30ecaf38acae77be14fb9173f98f8612</title>
<g id="a_node11"><a xlink:href="dir_30ecaf38acae77be14fb9173f98f8612.html" target="_top" xlink:title="types">
<polygon fill="#edf0f7" stroke="#7f7f7f" points="712,-35 668,-35 668,-16 712,-16 712,-35"/>
<text text-anchor="middle" x="690" y="-23" font-family="Helvetica,sans-Serif" font-size="10.00">types</text>
</a>
</g>
</g>
<!-- dir_6760dc3fb5bd31efe7355c24e63385e0&#45;&gt;dir_30ecaf38acae77be14fb9173f98f8612 -->
<g id="edge3" class="edge">
<title>dir_6760dc3fb5bd31efe7355c24e63385e0&#45;&gt;dir_30ecaf38acae77be14fb9173f98f8612</title>
<path fill="none" stroke="#63b8ff" d="M570.5,-71.1C594.08,-62.3 631.32,-48.4 657.96,-38.46"/>
<polygon fill="#63b8ff" stroke="#63b8ff" points="659.46,-41.63 667.6,-34.86 657.01,-35.08 659.46,-41.63"/>
<g id="a_edge3&#45;headlabel"><a xlink:href="dir_000149_000180.html" target="_top" xlink:title="1">
<text text-anchor="middle" x="657.09" y="-43.05" font-family="Helvetica,sans-Serif" font-size="10.00" fill="#63b8ff">1</text>
</a>
</g>
</g>
<!-- dir_4535887b2cdca47e625f259d07db0112 -->
<g id="node12" class="node">
<title>dir_4535887b2cdca47e625f259d07db0112</title>
<g id="a_node12"><a xlink:href="dir_4535887b2cdca47e625f259d07db0112.html" target="_top" xlink:title="util">
<polygon fill="#edf0f7" stroke="#7f7f7f" points="762,-35 730,-35 730,-16 762,-16 762,-35"/>
<text text-anchor="middle" x="746" y="-23" font-family="Helvetica,sans-Serif" font-size="10.00">util</text>
</a>
</g>
</g>
<!-- dir_6760dc3fb5bd31efe7355c24e63385e0&#45;&gt;dir_4535887b2cdca47e625f259d07db0112 -->
<g id="edge6" class="edge">
<title>dir_6760dc3fb5bd31efe7355c24e63385e0&#45;&gt;dir_4535887b2cdca47e625f259d07db0112</title>
<path fill="none" stroke="#63b8ff" d="M570.54,-74.28C601.96,-66.88 660.86,-52.56 720.04,-35.11"/>
<polygon fill="#63b8ff" stroke="#63b8ff" points="721.34,-38.38 729.92,-32.17 719.34,-31.67 721.34,-38.38"/>
<g id="a_edge6&#45;headlabel"><a xlink:href="dir_000149_000185.html" target="_top" xlink:title="7">
<text text-anchor="middle" x="718.7" y="-39.62" font-family="Helvetica,sans-Serif" font-size="10.00" fill="#63b8ff">7</text>
</a>
</g>
</g>
<!-- dir_521de572ae4fe2915cc70a876c52f5b7 -->
<g id="node13" class="node">
<title>dir_521de572ae4fe2915cc70a876c52f5b7</title>
<g id="a_node13"><a xlink:href="dir_521de572ae4fe2915cc70a876c52f5b7.html" target="_top" xlink:title="container">
<polygon fill="#edf0f7" stroke="red" stroke-dasharray="5,2" points="842,-35 780,-35 780,-16 842,-16 842,-35"/>
<text text-anchor="middle" x="811" y="-23" font-family="Helvetica,sans-Serif" font-size="10.00">container</text>
</a>
</g>
</g>
<!-- dir_6760dc3fb5bd31efe7355c24e63385e0&#45;&gt;dir_521de572ae4fe2915cc70a876c52f5b7 -->
<g id="edge7" class="edge">
<title>dir_6760dc3fb5bd31efe7355c24e63385e0&#45;&gt;dir_521de572ae4fe2915cc70a876c52f5b7</title>
<path fill="none" stroke="#63b8ff" d="M570.81,-75.04C609.54,-67.46 690.88,-51.44 769.88,-35.21"/>
<polygon fill="#63b8ff" stroke="#63b8ff" points="770.91,-38.57 780,-33.13 769.5,-31.72 770.91,-38.57"/>
<g id="a_edge7&#45;headlabel"><a xlink:href="dir_000149_000046.html" target="_top" xlink:title="3">
<text text-anchor="middle" x="767.96" y="-39.58" font-family="Helvetica,sans-Serif" font-size="10.00" fill="#63b8ff">3</text>
</a>
</g>
</g>
<!-- dir_942cfae36a92b6b1c4b510e99e852d40 -->
<g id="node14" class="node">
<title>dir_942cfae36a92b6b1c4b510e99e852d40</title>
<g id="a_node14"><a xlink:href="dir_942cfae36a92b6b1c4b510e99e852d40.html" target="_top" xlink:title="vocab">
<polygon fill="#edf0f7" stroke="red" stroke-dasharray="5,2" points="906,-35 860,-35 860,-16 906,-16 906,-35"/>
<text text-anchor="middle" x="883" y="-23" font-family="Helvetica,sans-Serif" font-size="10.00">vocab</text>
</a>
</g>
</g>
<!-- dir_6760dc3fb5bd31efe7355c24e63385e0&#45;&gt;dir_942cfae36a92b6b1c4b510e99e852d40 -->
<g id="edge12" class="edge">
<title>dir_6760dc3fb5bd31efe7355c24e63385e0&#45;&gt;dir_942cfae36a92b6b1c4b510e99e852d40</title>
<path fill="none" stroke="#63b8ff" d="M570.58,-77.07C619.64,-71.62 739.78,-57.23 849.73,-35.06"/>
<polygon fill="#63b8ff" stroke="#63b8ff" points="850.56,-38.46 859.65,-33.03 849.16,-31.6 850.56,-38.46"/>
<g id="a_edge12&#45;headlabel"><a xlink:href="dir_000149_000189.html" target="_top" xlink:title="1">
<text text-anchor="middle" x="847.6" y="-39.46" font-family="Helvetica,sans-Serif" font-size="10.00" fill="#63b8ff">1</text>
</a>
</g>
</g>
<!-- dir_9bfc08b7c5b17d043ebb5b9fbb866539 -->
<g id="node15" class="node">
<title>dir_9bfc08b7c5b17d043ebb5b9fbb866539</title>
<g id="a_node15"><a xlink:href="dir_9bfc08b7c5b17d043ebb5b9fbb866539.html" target="_top" xlink:title="sync">
<polygon fill="#edf0f7" stroke="red" stroke-dasharray="5,2" points="963.5,-35 924.5,-35 924.5,-16 963.5,-16 963.5,-35"/>
<text text-anchor="middle" x="944" y="-23" font-family="Helvetica,sans-Serif" font-size="10.00">sync</text>
</a>
</g>
</g>
<!-- dir_6760dc3fb5bd31efe7355c24e63385e0&#45;&gt;dir_9bfc08b7c5b17d043ebb5b9fbb866539 -->
<g id="edge13" class="edge">
<title>dir_6760dc3fb5bd31efe7355c24e63385e0&#45;&gt;dir_9bfc08b7c5b17d043ebb5b9fbb866539</title>
<path fill="none" stroke="#63b8ff" d="M570.55,-78.06C626.9,-74.2 778.48,-62.12 914.29,-34.78"/>
<polygon fill="#63b8ff" stroke="#63b8ff" points="915.36,-38.14 924.45,-32.7 913.96,-31.28 915.36,-38.14"/>
<g id="a_edge13&#45;headlabel"><a xlink:href="dir_000149_000162.html" target="_top" xlink:title="4">
<text text-anchor="middle" x="912.41" y="-39.14" font-family="Helvetica,sans-Serif" font-size="10.00" fill="#63b8ff">4</text>
</a>
</g>
</g>
<!-- dir_aaf67126bd5deefc4d96704f76f22cc2 -->
<g id="node16" class="node">
<title>dir_aaf67126bd5deefc4d96704f76f22cc2</title>
<g id="a_node16"><a xlink:href="dir_aaf67126bd5deefc4d96704f76f22cc2.html" target="_top" xlink:title="platform">
<polygon fill="#edf0f7" stroke="#7f7f7f" points="1040.5,-35 981.5,-35 981.5,-16 1040.5,-16 1040.5,-35"/>
<text text-anchor="middle" x="1011" y="-23" font-family="Helvetica,sans-Serif" font-size="10.00">platform</text>
</a>
</g>
</g>
<!-- dir_6760dc3fb5bd31efe7355c24e63385e0&#45;&gt;dir_aaf67126bd5deefc4d96704f76f22cc2 -->
<g id="edge14" class="edge">
<title>dir_6760dc3fb5bd31efe7355c24e63385e0&#45;&gt;dir_aaf67126bd5deefc4d96704f76f22cc2</title>
<path fill="none" stroke="#63b8ff" d="M570.7,-78.05C633.13,-73.88 812.77,-60.54 971.27,-35.12"/>
<polygon fill="#63b8ff" stroke="#63b8ff" points="971.88,-38.57 981.19,-33.51 970.76,-31.66 971.88,-38.57"/>
<g id="a_edge14&#45;headlabel"><a xlink:href="dir_000149_000135.html" target="_top" xlink:title="1">
<text text-anchor="middle" x="968.79" y="-39.45" font-family="Helvetica,sans-Serif" font-size="10.00" fill="#63b8ff">1</text>
</a>
</g>
</g>
<!-- dir_f555f996eeee1ebe901dc71e0c5de8ff -->
<g id="node17" class="node">
<title>dir_f555f996eeee1ebe901dc71e0c5de8ff</title>
<g id="a_node17"><a xlink:href="dir_f555f996eeee1ebe901dc71e0c5de8ff.html" target="_top" xlink:title="meta">
<polygon fill="#edf0f7" stroke="#7f7f7f" points="1101,-35 1059,-35 1059,-16 1101,-16 1101,-35"/>
<text text-anchor="middle" x="1080" y="-23" font-family="Helvetica,sans-Serif" font-size="10.00">meta</text>
</a>
</g>
</g>
<!-- dir_6760dc3fb5bd31efe7355c24e63385e0&#45;&gt;dir_f555f996eeee1ebe901dc71e0c5de8ff -->
<g id="edge16" class="edge">
<title>dir_6760dc3fb5bd31efe7355c24e63385e0&#45;&gt;dir_f555f996eeee1ebe901dc71e0c5de8ff</title>
<path fill="none" stroke="#63b8ff" d="M570.72,-79C640.75,-77.15 859.5,-68.98 1048.96,-34.84"/>
<polygon fill="#63b8ff" stroke="#63b8ff" points="1049.61,-38.28 1058.81,-33.04 1048.34,-31.39 1049.61,-38.28"/>
<g id="a_edge16&#45;headlabel"><a xlink:href="dir_000149_000122.html" target="_top" xlink:title="4">
<text text-anchor="middle" x="1046.58" y="-39.22" font-family="Helvetica,sans-Serif" font-size="10.00" fill="#63b8ff">4</text>
</a>
</g>
</g>
</g>
</svg>
