<?xml version="1.0" encoding="UTF-8" standalone="no"?>
<!DOCTYPE svg PUBLIC "-//W3C//DTD SVG 1.1//EN"
 "http://www.w3.org/Graphics/SVG/1.1/DTD/svg11.dtd">
<!-- Generated by graphviz version 2.43.0 (0)
 -->
<!-- Title: libs/dius/iros/filesystem Pages: 1 -->
<svg width="158pt" height="117pt"
 viewBox="0.00 0.00 157.50 117.00" xmlns="http://www.w3.org/2000/svg" xmlns:xlink="http://www.w3.org/1999/xlink">
<g id="graph0" class="graph" transform="scale(1 1) rotate(0) translate(4 113)">
<title>libs/dius/iros/filesystem</title>
<g id="clust1" class="cluster">
<title>clusterdir_17076abbcecdd53a1af3ac0a38ec6e06</title>
<g id="a_clust1"><a xlink:href="dir_17076abbcecdd53a1af3ac0a38ec6e06.html" target="_top" xlink:title="iros">
<polygon fill="#edf0f7" stroke="#7f7f7f" stroke-dasharray="5,2" points="34,-47 34,-101 118,-101 118,-47 34,-47"/>
<text text-anchor="middle" x="76" y="-89" font-family="Helvetica,sans-Serif" font-size="10.00">iros</text>
</a>
</g>
</g>
<!-- dir_38f28bc96654b4658cdde4581b3380f4 -->
<g id="node1" class="node">
<title>dir_38f28bc96654b4658cdde4581b3380f4</title>
<g id="a_node1"><a xlink:href="dir_38f28bc96654b4658cdde4581b3380f4.html" target="_top" xlink:title="filesystem">
<polygon fill="#edf0f7" stroke="#404040" stroke-width="2" points="110,-74 42,-74 42,-55 110,-55 110,-74"/>
<text text-anchor="middle" x="76" y="-62" font-family="Helvetica,sans-Serif" font-size="10.00">filesystem</text>
</a>
</g>
</g>
<!-- dir_2605f0c6ea8f9a17a384edc9a2df15f4 -->
<g id="node2" class="node">
<title>dir_2605f0c6ea8f9a17a384edc9a2df15f4</title>
<g id="a_node2"><a xlink:href="dir_2605f0c6ea8f9a17a384edc9a2df15f4.html" target="_top" xlink:title="iris">
<polygon fill="#edf0f7" stroke="red" points="32,-19 0,-19 0,0 32,0 32,-19"/>
<text text-anchor="middle" x="16" y="-7" font-family="Helvetica,sans-Serif" font-size="10.00">iris</text>
</a>
</g>
</g>
<!-- dir_38f28bc96654b4658cdde4581b3380f4&#45;&gt;dir_2605f0c6ea8f9a17a384edc9a2df15f4 -->
<g id="edge1" class="edge">
<title>dir_38f28bc96654b4658cdde4581b3380f4&#45;&gt;dir_2605f0c6ea8f9a17a384edc9a2df15f4</title>
<path fill="none" stroke="#63b8ff" d="M66.36,-54.98C57.49,-47.15 44.13,-35.34 33.39,-25.86"/>
<polygon fill="#63b8ff" stroke="#63b8ff" points="35.63,-23.17 25.82,-19.17 30.99,-28.41 35.63,-23.17"/>
<g id="a_edge1&#45;headlabel"><a xlink:href="dir_000077_000102.html" target="_top" xlink:title="2">
<text text-anchor="middle" x="40.2" y="-20.92" font-family="Helvetica,sans-Serif" font-size="10.00" fill="#63b8ff">2</text>
</a>
</g>
</g>
<!-- dir_6ac4aa95e4478b160428441746083760 -->
<g id="node3" class="node">
<title>dir_6ac4aa95e4478b160428441746083760</title>
<g id="a_node3"><a xlink:href="dir_6ac4aa95e4478b160428441746083760.html" target="_top" xlink:title="include">
<polygon fill="#edf0f7" stroke="red" stroke-dasharray="5,2" points="102,-19 50,-19 50,0 102,0 102,-19"/>
<text text-anchor="middle" x="76" y="-7" font-family="Helvetica,sans-Serif" font-size="10.00">include</text>
</a>
</g>
</g>
<!-- dir_38f28bc96654b4658cdde4581b3380f4&#45;&gt;dir_6ac4aa95e4478b160428441746083760 -->
<g id="edge2" class="edge">
<title>dir_38f28bc96654b4658cdde4581b3380f4&#45;&gt;dir_6ac4aa95e4478b160428441746083760</title>
<path fill="none" stroke="#63b8ff" d="M76,-54.75C76,-47.8 76,-37.85 76,-29.13"/>
<polygon fill="#63b8ff" stroke="#63b8ff" points="79.5,-29.09 76,-19.09 72.5,-29.09 79.5,-29.09"/>
<g id="a_edge2&#45;headlabel"><a xlink:href="dir_000077_000093.html" target="_top" xlink:title="8">
<text text-anchor="middle" x="82.34" y="-30.18" font-family="Helvetica,sans-Serif" font-size="10.00" fill="#63b8ff">8</text>
</a>
</g>
</g>
<!-- dir_984cd133b143ec7cf21a4bdcb401bfa5 -->
<g id="node4" class="node">
<title>dir_984cd133b143ec7cf21a4bdcb401bfa5</title>
<g id="a_node4"><a xlink:href="dir_984cd133b143ec7cf21a4bdcb401bfa5.html" target="_top" xlink:title="di">
<polygon fill="#edf0f7" stroke="red" stroke-dasharray="5,2" points="149.5,-19 120.5,-19 120.5,0 149.5,0 149.5,-19"/>
<text text-anchor="middle" x="135" y="-7" font-family="Helvetica,sans-Serif" font-size="10.00">di</text>
</a>
</g>
</g>
<!-- dir_38f28bc96654b4658cdde4581b3380f4&#45;&gt;dir_984cd133b143ec7cf21a4bdcb401bfa5 -->
<g id="edge3" class="edge">
<title>dir_38f28bc96654b4658cdde4581b3380f4&#45;&gt;dir_984cd133b143ec7cf21a4bdcb401bfa5</title>
<path fill="none" stroke="#63b8ff" d="M85.48,-54.98C94.2,-47.15 107.34,-35.34 117.9,-25.86"/>
<polygon fill="#63b8ff" stroke="#63b8ff" points="120.25,-28.46 125.35,-19.17 115.57,-23.25 120.25,-28.46"/>
<g id="a_edge3&#45;headlabel"><a xlink:href="dir_000077_000058.html" target="_top" xlink:title="4">
<text text-anchor="middle" x="119.47" y="-30.47" font-family="Helvetica,sans-Serif" font-size="10.00" fill="#63b8ff">4</text>
</a>
</g>
</g>
</g>
</svg>
