<?xml version="1.0" encoding="UTF-8" standalone="no"?>
<!DOCTYPE svg PUBLIC "-//W3C//DTD SVG 1.1//EN"
 "http://www.w3.org/Graphics/SVG/1.1/DTD/svg11.dtd">
<!-- Generated by graphviz version 2.43.0 (0)
 -->
<!-- Title: iris/include/iris/mm Pages: 1 -->
<svg width="114pt" height="133pt"
 viewBox="0.00 0.00 114.00 133.00" xmlns="http://www.w3.org/2000/svg" xmlns:xlink="http://www.w3.org/1999/xlink">
<g id="graph0" class="graph" transform="scale(1 1) rotate(0) translate(4 129)">
<title>iris/include/iris/mm</title>
<g id="clust1" class="cluster">
<title>clusterdir_ffe5edf85fa540270b5bdba28be40ae5</title>
<g id="a_clust1"><a xlink:href="dir_ffe5edf85fa540270b5bdba28be40ae5.html" target="_top" xlink:title="iris">
<polygon fill="#edf0f7" stroke="#7f7f7f" stroke-dasharray="5,2" points="8,-8 8,-117 62,-117 62,-8 8,-8"/>
<text text-anchor="middle" x="35" y="-105" font-family="Helvetica,sans-Serif" font-size="10.00">iris</text>
</a>
</g>
</g>
<!-- dir_be381e3b7aa79a91c125f50d5abcc4e9 -->
<g id="node1" class="node">
<title>dir_be381e3b7aa79a91c125f50d5abcc4e9</title>
<g id="a_node1"><a xlink:href="dir_be381e3b7aa79a91c125f50d5abcc4e9.html" target="_top" xlink:title="core">
<polygon fill="#a2b4d6" stroke="#404040" points="54,-35 16,-35 16,-16 54,-16 54,-35"/>
<text text-anchor="middle" x="35" y="-23" font-family="Helvetica,sans-Serif" font-size="10.00">core</text>
</a>
</g>
</g>
<!-- dir_945708b8d3397c2507c5e618c4393ffa -->
<g id="node2" class="node">
<title>dir_945708b8d3397c2507c5e618c4393ffa</title>
<g id="a_node2"><a xlink:href="dir_945708b8d3397c2507c5e618c4393ffa.html" target="_top" xlink:title="mm">
<polygon fill="#edf0f7" stroke="#404040" stroke-width="2" points="53,-90 17,-90 17,-71 53,-71 53,-90"/>
<text text-anchor="middle" x="35" y="-78" font-family="Helvetica,sans-Serif" font-size="10.00">mm</text>
</a>
</g>
</g>
<!-- dir_945708b8d3397c2507c5e618c4393ffa&#45;&gt;dir_be381e3b7aa79a91c125f50d5abcc4e9 -->
<g id="edge2" class="edge">
<title>dir_945708b8d3397c2507c5e618c4393ffa&#45;&gt;dir_be381e3b7aa79a91c125f50d5abcc4e9</title>
<path fill="none" stroke="#63b8ff" d="M35,-70.75C35,-63.8 35,-53.85 35,-45.13"/>
<polygon fill="#63b8ff" stroke="#63b8ff" points="38.5,-45.09 35,-35.09 31.5,-45.09 38.5,-45.09"/>
<g id="a_edge2&#45;headlabel"><a xlink:href="dir_000126_000052.html" target="_top" xlink:title="6">
<text text-anchor="middle" x="41.34" y="-46.18" font-family="Helvetica,sans-Serif" font-size="10.00" fill="#63b8ff">6</text>
</a>
</g>
</g>
<!-- dir_6719ab1f1f7655efc2fa43f7eb574fd1 -->
<g id="node3" class="node">
<title>dir_6719ab1f1f7655efc2fa43f7eb574fd1</title>
<g id="a_node3"><a xlink:href="dir_6719ab1f1f7655efc2fa43f7eb574fd1.html" target="_top" xlink:title="libs">
<polygon fill="#edf0f7" stroke="red" points="106,-35 72,-35 72,-16 106,-16 106,-35"/>
<text text-anchor="middle" x="89" y="-23" font-family="Helvetica,sans-Serif" font-size="10.00">libs</text>
</a>
</g>
</g>
<!-- dir_945708b8d3397c2507c5e618c4393ffa&#45;&gt;dir_6719ab1f1f7655efc2fa43f7eb574fd1 -->
<g id="edge1" class="edge">
<title>dir_945708b8d3397c2507c5e618c4393ffa&#45;&gt;dir_6719ab1f1f7655efc2fa43f7eb574fd1</title>
<path fill="none" stroke="#63b8ff" d="M43.92,-70.75C51.78,-63.03 63.43,-51.6 72.92,-42.28"/>
<polygon fill="#63b8ff" stroke="#63b8ff" points="75.56,-44.59 80.25,-35.09 70.66,-39.6 75.56,-44.59"/>
<g id="a_edge1&#45;headlabel"><a xlink:href="dir_000126_000109.html" target="_top" xlink:title="20">
<text text-anchor="middle" x="74.99" y="-46.64" font-family="Helvetica,sans-Serif" font-size="10.00" fill="#63b8ff">20</text>
</a>
</g>
</g>
</g>
</svg>
