<?xml version="1.0" encoding="UTF-8" standalone="no"?>
<!DOCTYPE svg PUBLIC "-//W3C//DTD SVG 1.1//EN"
 "http://www.w3.org/Graphics/SVG/1.1/DTD/svg11.dtd">
<!-- Generated by graphviz version 2.43.0 (0)
 -->
<!-- Title: libs/di/include/di/random Pages: 1 -->
<svg width="382pt" height="251pt"
 viewBox="0.00 0.00 382.00 251.00" xmlns="http://www.w3.org/2000/svg" xmlns:xlink="http://www.w3.org/1999/xlink">
<g id="graph0" class="graph" transform="scale(1 1) rotate(0) translate(4 247)">
<title>libs/di/include/di/random</title>
<g id="clust1" class="cluster">
<title>clusterdir_f95a1a0ab1b96e316090c1bcac3c2c99</title>
<g id="a_clust1"><a xlink:href="dir_f95a1a0ab1b96e316090c1bcac3c2c99.html" target="_top" xlink:title="di">
<polygon fill="#edf0f7" stroke="#7f7f7f" stroke-dasharray="5,2" points="8,-8 8,-235 366,-235 366,-8 8,-8"/>
<text text-anchor="middle" x="187" y="-223" font-family="Helvetica,sans-Serif" font-size="10.00">di</text>
</a>
</g>
</g>
<g id="clust2" class="cluster">
<title>clusterdir_b53b5446bfdc9bc3aeb10a5b96312bdd</title>
<g id="a_clust2"><a xlink:href="dir_b53b5446bfdc9bc3aeb10a5b96312bdd.html" target="_top">
<polygon fill="#edf0f7" stroke="#404040" stroke-width="2" points="16,-63 16,-208 206,-208 206,-63 16,-63"/>
</a>
</g>
</g>
<!-- dir_0669efae56692bb73da75efb5ebbccdf -->
<g id="node1" class="node">
<title>dir_0669efae56692bb73da75efb5ebbccdf</title>
<g id="a_node1"><a xlink:href="dir_0669efae56692bb73da75efb5ebbccdf.html" target="_top" xlink:title="function">
<polygon fill="#a2b4d6" stroke="red" points="108,-35 52,-35 52,-16 108,-16 108,-35"/>
<text text-anchor="middle" x="80" y="-23" font-family="Helvetica,sans-Serif" font-size="10.00">function</text>
</a>
</g>
</g>
<!-- dir_30ecaf38acae77be14fb9173f98f8612 -->
<g id="node2" class="node">
<title>dir_30ecaf38acae77be14fb9173f98f8612</title>
<g id="a_node2"><a xlink:href="dir_30ecaf38acae77be14fb9173f98f8612.html" target="_top" xlink:title="types">
<polygon fill="#a2b4d6" stroke="#404040" points="338,-90 294,-90 294,-71 338,-71 338,-90"/>
<text text-anchor="middle" x="316" y="-78" font-family="Helvetica,sans-Serif" font-size="10.00">types</text>
</a>
</g>
</g>
<!-- dir_60d1624911c2c9f7b6f38e44ec895aaa -->
<g id="node3" class="node">
<title>dir_60d1624911c2c9f7b6f38e44ec895aaa</title>
<g id="a_node3"><a xlink:href="dir_60d1624911c2c9f7b6f38e44ec895aaa.html" target="_top" xlink:title="math">
<polygon fill="#a2b4d6" stroke="red" points="256,-90 214,-90 214,-71 256,-71 256,-90"/>
<text text-anchor="middle" x="235" y="-78" font-family="Helvetica,sans-Serif" font-size="10.00">math</text>
</a>
</g>
</g>
<!-- dir_f555f996eeee1ebe901dc71e0c5de8ff -->
<g id="node4" class="node">
<title>dir_f555f996eeee1ebe901dc71e0c5de8ff</title>
<g id="a_node4"><a xlink:href="dir_f555f996eeee1ebe901dc71e0c5de8ff.html" target="_top" xlink:title="meta">
<polygon fill="#a2b4d6" stroke="#404040" points="296,-35 254,-35 254,-16 296,-16 296,-35"/>
<text text-anchor="middle" x="275" y="-23" font-family="Helvetica,sans-Serif" font-size="10.00">meta</text>
</a>
</g>
</g>
<!-- dir_b53b5446bfdc9bc3aeb10a5b96312bdd -->
<g id="node5" class="node">
<title>dir_b53b5446bfdc9bc3aeb10a5b96312bdd</title>
<text text-anchor="middle" x="80" y="-188" font-family="Helvetica,sans-Serif" font-size="10.00">random</text>
</g>
<!-- dir_764bc2cf7efe5d7246bd38acdd69b920 -->
<g id="node6" class="node">
<title>dir_764bc2cf7efe5d7246bd38acdd69b920</title>
<g id="a_node6"><a xlink:href="dir_764bc2cf7efe5d7246bd38acdd69b920.html" target="_top" xlink:title="concepts">
<polygon fill="#a2b4d6" stroke="#404040" points="110,-90 50,-90 50,-71 110,-71 110,-90"/>
<text text-anchor="middle" x="80" y="-78" font-family="Helvetica,sans-Serif" font-size="10.00">concepts</text>
</a>
</g>
</g>
<!-- dir_b53b5446bfdc9bc3aeb10a5b96312bdd&#45;&gt;dir_764bc2cf7efe5d7246bd38acdd69b920 -->
<g id="edge2" class="edge">
<title>dir_b53b5446bfdc9bc3aeb10a5b96312bdd&#45;&gt;dir_764bc2cf7efe5d7246bd38acdd69b920</title>
<path fill="none" stroke="#63b8ff" d="M66.32,-180.81C49.99,-169.23 25.94,-147.7 35,-126 39.86,-114.36 49.42,-104.2 58.48,-96.55"/>
<polygon fill="#63b8ff" stroke="#63b8ff" points="60.8,-99.17 66.51,-90.25 56.48,-93.67 60.8,-99.17"/>
<g id="a_edge2&#45;headlabel"><a xlink:href="dir_000142_000041.html" target="_top" xlink:title="2">
<text text-anchor="middle" x="59.73" y="-101.13" font-family="Helvetica,sans-Serif" font-size="10.00" fill="#63b8ff">2</text>
</a>
</g>
</g>
<!-- dir_6efc779ef093693d5f2860686cf6c9b1 -->
<g id="node7" class="node">
<title>dir_6efc779ef093693d5f2860686cf6c9b1</title>
<g id="a_node7"><a xlink:href="dir_6efc779ef093693d5f2860686cf6c9b1.html" target="_top" xlink:title="distribution">
<polygon fill="#a2b4d6" stroke="#404040" points="116,-145 44,-145 44,-126 116,-126 116,-145"/>
<text text-anchor="middle" x="80" y="-133" font-family="Helvetica,sans-Serif" font-size="10.00">distribution</text>
</a>
</g>
</g>
<!-- dir_b53b5446bfdc9bc3aeb10a5b96312bdd&#45;&gt;dir_6efc779ef093693d5f2860686cf6c9b1 -->
<g id="edge1" class="edge">
<title>dir_b53b5446bfdc9bc3aeb10a5b96312bdd&#45;&gt;dir_6efc779ef093693d5f2860686cf6c9b1</title>
<path fill="none" stroke="#63b8ff" d="M80,-180.75C80,-173.8 80,-163.85 80,-155.13"/>
<polygon fill="#63b8ff" stroke="#63b8ff" points="83.5,-155.09 80,-145.09 76.5,-155.09 83.5,-155.09"/>
<g id="a_edge1&#45;headlabel"><a xlink:href="dir_000142_000061.html" target="_top" xlink:title="1">
<text text-anchor="middle" x="86.34" y="-156.18" font-family="Helvetica,sans-Serif" font-size="10.00" fill="#63b8ff">1</text>
</a>
</g>
</g>
<!-- dir_93fb39ec01a9a91046d96c3c4d58a6fe -->
<g id="node8" class="node">
<title>dir_93fb39ec01a9a91046d96c3c4d58a6fe</title>
<g id="a_node8"><a xlink:href="dir_93fb39ec01a9a91046d96c3c4d58a6fe.html" target="_top" xlink:title="generator">
<polygon fill="#a2b4d6" stroke="#404040" points="198,-145 134,-145 134,-126 198,-126 198,-145"/>
<text text-anchor="middle" x="166" y="-133" font-family="Helvetica,sans-Serif" font-size="10.00">generator</text>
</a>
</g>
</g>
<!-- dir_b53b5446bfdc9bc3aeb10a5b96312bdd&#45;&gt;dir_93fb39ec01a9a91046d96c3c4d58a6fe -->
<g id="edge3" class="edge">
<title>dir_b53b5446bfdc9bc3aeb10a5b96312bdd&#45;&gt;dir_93fb39ec01a9a91046d96c3c4d58a6fe</title>
<path fill="none" stroke="#63b8ff" d="M93.82,-180.98C107.15,-172.77 127.58,-160.18 143.31,-150.49"/>
<polygon fill="#63b8ff" stroke="#63b8ff" points="145.25,-153.4 151.93,-145.17 141.58,-147.44 145.25,-153.4"/>
<g id="a_edge3&#45;headlabel"><a xlink:href="dir_000142_000083.html" target="_top" xlink:title="1">
<text text-anchor="middle" x="143.68" y="-155.2" font-family="Helvetica,sans-Serif" font-size="10.00" fill="#63b8ff">1</text>
</a>
</g>
</g>
<!-- dir_764bc2cf7efe5d7246bd38acdd69b920&#45;&gt;dir_0669efae56692bb73da75efb5ebbccdf -->
<g id="edge4" class="edge">
<title>dir_764bc2cf7efe5d7246bd38acdd69b920&#45;&gt;dir_0669efae56692bb73da75efb5ebbccdf</title>
<path fill="none" stroke="#63b8ff" d="M80,-70.75C80,-63.8 80,-53.85 80,-45.13"/>
<polygon fill="#63b8ff" stroke="#63b8ff" points="83.5,-45.09 80,-35.09 76.5,-45.09 83.5,-45.09"/>
<g id="a_edge4&#45;headlabel"><a xlink:href="dir_000041_000082.html" target="_top" xlink:title="1">
<text text-anchor="middle" x="86.34" y="-46.18" font-family="Helvetica,sans-Serif" font-size="10.00" fill="#63b8ff">1</text>
</a>
</g>
</g>
<!-- dir_764bc2cf7efe5d7246bd38acdd69b920&#45;&gt;dir_f555f996eeee1ebe901dc71e0c5de8ff -->
<g id="edge5" class="edge">
<title>dir_764bc2cf7efe5d7246bd38acdd69b920&#45;&gt;dir_f555f996eeee1ebe901dc71e0c5de8ff</title>
<path fill="none" stroke="#63b8ff" d="M95.93,-70.83C101.53,-68.05 107.93,-65.13 114,-63 158.05,-47.55 211.22,-36.98 244.07,-31.34"/>
<polygon fill="#63b8ff" stroke="#63b8ff" points="244.7,-34.79 253.99,-29.68 243.55,-27.88 244.7,-34.79"/>
<g id="a_edge5&#45;headlabel"><a xlink:href="dir_000041_000122.html" target="_top" xlink:title="3">
<text text-anchor="middle" x="241.62" y="-35.68" font-family="Helvetica,sans-Serif" font-size="10.00" fill="#63b8ff">3</text>
</a>
</g>
</g>
<!-- dir_6efc779ef093693d5f2860686cf6c9b1&#45;&gt;dir_60d1624911c2c9f7b6f38e44ec895aaa -->
<g id="edge6" class="edge">
<title>dir_6efc779ef093693d5f2860686cf6c9b1&#45;&gt;dir_60d1624911c2c9f7b6f38e44ec895aaa</title>
<path fill="none" stroke="#63b8ff" d="M104.9,-125.98C131.85,-116.77 174.86,-102.07 203.98,-92.11"/>
<polygon fill="#63b8ff" stroke="#63b8ff" points="205.32,-95.35 213.65,-88.8 203.06,-88.72 205.32,-95.35"/>
<g id="a_edge6&#45;headlabel"><a xlink:href="dir_000061_000117.html" target="_top" xlink:title="1">
<text text-anchor="middle" x="202.84" y="-96.7" font-family="Helvetica,sans-Serif" font-size="10.00" fill="#63b8ff">1</text>
</a>
</g>
</g>
<!-- dir_6efc779ef093693d5f2860686cf6c9b1&#45;&gt;dir_f555f996eeee1ebe901dc71e0c5de8ff -->
<g id="edge8" class="edge">
<title>dir_6efc779ef093693d5f2860686cf6c9b1&#45;&gt;dir_f555f996eeee1ebe901dc71e0c5de8ff</title>
<path fill="none" stroke="#63b8ff" d="M116.16,-126.88C168.55,-115.68 259.9,-95.52 265,-90 275.99,-78.09 277.73,-59.27 277.18,-45.2"/>
<polygon fill="#63b8ff" stroke="#63b8ff" points="280.66,-44.85 276.38,-35.16 273.68,-45.41 280.66,-44.85"/>
<g id="a_edge8&#45;headlabel"><a xlink:href="dir_000061_000122.html" target="_top" xlink:title="2">
<text text-anchor="middle" x="283.78" y="-45.71" font-family="Helvetica,sans-Serif" font-size="10.00" fill="#63b8ff">2</text>
</a>
</g>
</g>
<!-- dir_6efc779ef093693d5f2860686cf6c9b1&#45;&gt;dir_764bc2cf7efe5d7246bd38acdd69b920 -->
<g id="edge7" class="edge">
<title>dir_6efc779ef093693d5f2860686cf6c9b1&#45;&gt;dir_764bc2cf7efe5d7246bd38acdd69b920</title>
<path fill="none" stroke="#63b8ff" d="M80,-125.75C80,-118.8 80,-108.85 80,-100.13"/>
<polygon fill="#63b8ff" stroke="#63b8ff" points="83.5,-100.09 80,-90.09 76.5,-100.09 83.5,-100.09"/>
<g id="a_edge7&#45;headlabel"><a xlink:href="dir_000061_000041.html" target="_top" xlink:title="1">
<text text-anchor="middle" x="86.34" y="-101.18" font-family="Helvetica,sans-Serif" font-size="10.00" fill="#63b8ff">1</text>
</a>
</g>
</g>
<!-- dir_93fb39ec01a9a91046d96c3c4d58a6fe&#45;&gt;dir_30ecaf38acae77be14fb9173f98f8612 -->
<g id="edge9" class="edge">
<title>dir_93fb39ec01a9a91046d96c3c4d58a6fe&#45;&gt;dir_30ecaf38acae77be14fb9173f98f8612</title>
<path fill="none" stroke="#63b8ff" d="M190.1,-125.98C215.62,-116.97 256.03,-102.69 284.16,-92.75"/>
<polygon fill="#63b8ff" stroke="#63b8ff" points="285.65,-95.94 293.91,-89.3 283.32,-89.33 285.65,-95.94"/>
<g id="a_edge9&#45;headlabel"><a xlink:href="dir_000083_000180.html" target="_top" xlink:title="1">
<text text-anchor="middle" x="283.21" y="-97.31" font-family="Helvetica,sans-Serif" font-size="10.00" fill="#63b8ff">1</text>
</a>
</g>
</g>
<!-- dir_93fb39ec01a9a91046d96c3c4d58a6fe&#45;&gt;dir_f555f996eeee1ebe901dc71e0c5de8ff -->
<g id="edge10" class="edge">
<title>dir_93fb39ec01a9a91046d96c3c4d58a6fe&#45;&gt;dir_f555f996eeee1ebe901dc71e0c5de8ff</title>
<path fill="none" stroke="#63b8ff" d="M198.07,-131.3C245.01,-125.89 328.83,-113.17 347,-90 354.4,-80.56 353.28,-73.23 347,-63 337.97,-48.31 320.99,-39.3 305.79,-33.92"/>
<polygon fill="#63b8ff" stroke="#63b8ff" points="306.74,-30.55 296.15,-30.88 304.63,-37.23 306.74,-30.55"/>
<g id="a_edge10&#45;headlabel"><a xlink:href="dir_000083_000122.html" target="_top" xlink:title="1">
<text text-anchor="middle" x="311.02" y="-26.42" font-family="Helvetica,sans-Serif" font-size="10.00" fill="#63b8ff">1</text>
</a>
</g>
</g>
</g>
</svg>
