<?xml version="1.0" encoding="UTF-8" standalone="no"?>
<!DOCTYPE svg PUBLIC "-//W3C//DTD SVG 1.1//EN"
 "http://www.w3.org/Graphics/SVG/1.1/DTD/svg11.dtd">
<!-- Generated by graphviz version 2.43.0 (0)
 -->
<!-- Title: libs/di/include/di/parser/meta Pages: 1 -->
<svg width="258pt" height="133pt"
 viewBox="0.00 0.00 258.00 133.00" xmlns="http://www.w3.org/2000/svg" xmlns:xlink="http://www.w3.org/1999/xlink">
<g id="graph0" class="graph" transform="scale(1 1) rotate(0) translate(4 129)">
<title>libs/di/include/di/parser/meta</title>
<g id="clust1" class="cluster">
<title>clusterdir_c63ec87f2f7fd7fbd5b69a04f05a2815</title>
<g id="a_clust1"><a xlink:href="dir_c63ec87f2f7fd7fbd5b69a04f05a2815.html" target="_top" xlink:title="parser">
<polygon fill="#edf0f7" stroke="#7f7f7f" stroke-dasharray="5,2" points="8,-8 8,-117 84,-117 84,-8 8,-8"/>
<text text-anchor="middle" x="46" y="-105" font-family="Helvetica,sans-Serif" font-size="10.00">parser</text>
</a>
</g>
</g>
<!-- dir_967eafbc0b7c635d33b7b0b328f0cb12 -->
<g id="node1" class="node">
<title>dir_967eafbc0b7c635d33b7b0b328f0cb12</title>
<g id="a_node1"><a xlink:href="dir_967eafbc0b7c635d33b7b0b328f0cb12.html" target="_top" xlink:title="concepts">
<polygon fill="#a2b4d6" stroke="#404040" points="76,-35 16,-35 16,-16 76,-16 76,-35"/>
<text text-anchor="middle" x="46" y="-23" font-family="Helvetica,sans-Serif" font-size="10.00">concepts</text>
</a>
</g>
</g>
<!-- dir_979062da5ab806b052b4261920d5e719 -->
<g id="node2" class="node">
<title>dir_979062da5ab806b052b4261920d5e719</title>
<g id="a_node2"><a xlink:href="dir_979062da5ab806b052b4261920d5e719.html" target="_top" xlink:title="meta">
<polygon fill="#edf0f7" stroke="#404040" stroke-width="2" points="76,-90 34,-90 34,-71 76,-71 76,-90"/>
<text text-anchor="middle" x="55" y="-78" font-family="Helvetica,sans-Serif" font-size="10.00">meta</text>
</a>
</g>
</g>
<!-- dir_979062da5ab806b052b4261920d5e719&#45;&gt;dir_967eafbc0b7c635d33b7b0b328f0cb12 -->
<g id="edge3" class="edge">
<title>dir_979062da5ab806b052b4261920d5e719&#45;&gt;dir_967eafbc0b7c635d33b7b0b328f0cb12</title>
<path fill="none" stroke="#63b8ff" d="M53.51,-70.75C52.33,-63.8 50.64,-53.85 49.16,-45.13"/>
<polygon fill="#63b8ff" stroke="#63b8ff" points="52.58,-44.36 47.46,-35.09 45.68,-45.53 52.58,-44.36"/>
<g id="a_edge3&#45;headlabel"><a xlink:href="dir_000123_000040.html" target="_top" xlink:title="3">
<text text-anchor="middle" x="55.98" y="-44.93" font-family="Helvetica,sans-Serif" font-size="10.00" fill="#63b8ff">3</text>
</a>
</g>
</g>
<!-- dir_4535887b2cdca47e625f259d07db0112 -->
<g id="node3" class="node">
<title>dir_4535887b2cdca47e625f259d07db0112</title>
<g id="a_node3"><a xlink:href="dir_4535887b2cdca47e625f259d07db0112.html" target="_top" xlink:title="util">
<polygon fill="#edf0f7" stroke="#7f7f7f" points="126,-35 94,-35 94,-16 126,-16 126,-35"/>
<text text-anchor="middle" x="110" y="-23" font-family="Helvetica,sans-Serif" font-size="10.00">util</text>
</a>
</g>
</g>
<!-- dir_979062da5ab806b052b4261920d5e719&#45;&gt;dir_4535887b2cdca47e625f259d07db0112 -->
<g id="edge1" class="edge">
<title>dir_979062da5ab806b052b4261920d5e719&#45;&gt;dir_4535887b2cdca47e625f259d07db0112</title>
<path fill="none" stroke="#63b8ff" d="M64.08,-70.75C72.09,-63.03 83.96,-51.6 93.62,-42.28"/>
<polygon fill="#63b8ff" stroke="#63b8ff" points="96.31,-44.55 101.09,-35.09 91.46,-39.51 96.31,-44.55"/>
<g id="a_edge1&#45;headlabel"><a xlink:href="dir_000123_000185.html" target="_top" xlink:title="1">
<text text-anchor="middle" x="95.7" y="-46.59" font-family="Helvetica,sans-Serif" font-size="10.00" fill="#63b8ff">1</text>
</a>
</g>
</g>
<!-- dir_942cfae36a92b6b1c4b510e99e852d40 -->
<g id="node4" class="node">
<title>dir_942cfae36a92b6b1c4b510e99e852d40</title>
<g id="a_node4"><a xlink:href="dir_942cfae36a92b6b1c4b510e99e852d40.html" target="_top" xlink:title="vocab">
<polygon fill="#edf0f7" stroke="red" stroke-dasharray="5,2" points="190,-35 144,-35 144,-16 190,-16 190,-35"/>
<text text-anchor="middle" x="167" y="-23" font-family="Helvetica,sans-Serif" font-size="10.00">vocab</text>
</a>
</g>
</g>
<!-- dir_979062da5ab806b052b4261920d5e719&#45;&gt;dir_942cfae36a92b6b1c4b510e99e852d40 -->
<g id="edge2" class="edge">
<title>dir_979062da5ab806b052b4261920d5e719&#45;&gt;dir_942cfae36a92b6b1c4b510e99e852d40</title>
<path fill="none" stroke="#63b8ff" d="M72.99,-70.98C90.93,-62.5 118.72,-49.35 139.43,-39.54"/>
<polygon fill="#63b8ff" stroke="#63b8ff" points="141.14,-42.61 148.68,-35.17 138.14,-36.28 141.14,-42.61"/>
<g id="a_edge2&#45;headlabel"><a xlink:href="dir_000123_000189.html" target="_top" xlink:title="1">
<text text-anchor="middle" x="139.1" y="-44.22" font-family="Helvetica,sans-Serif" font-size="10.00" fill="#63b8ff">1</text>
</a>
</g>
</g>
<!-- dir_f555f996eeee1ebe901dc71e0c5de8ff -->
<g id="node5" class="node">
<title>dir_f555f996eeee1ebe901dc71e0c5de8ff</title>
<g id="a_node5"><a xlink:href="dir_f555f996eeee1ebe901dc71e0c5de8ff.html" target="_top" xlink:title="meta">
<polygon fill="#edf0f7" stroke="#7f7f7f" points="250,-35 208,-35 208,-16 250,-16 250,-35"/>
<text text-anchor="middle" x="229" y="-23" font-family="Helvetica,sans-Serif" font-size="10.00">meta</text>
</a>
</g>
</g>
<!-- dir_979062da5ab806b052b4261920d5e719&#45;&gt;dir_f555f996eeee1ebe901dc71e0c5de8ff -->
<g id="edge4" class="edge">
<title>dir_979062da5ab806b052b4261920d5e719&#45;&gt;dir_f555f996eeee1ebe901dc71e0c5de8ff</title>
<path fill="none" stroke="#63b8ff" d="M76.34,-73C106.81,-63.72 162.99,-46.61 198.05,-35.93"/>
<polygon fill="#63b8ff" stroke="#63b8ff" points="199.22,-39.23 207.76,-32.97 197.18,-32.53 199.22,-39.23"/>
<g id="a_edge4&#45;headlabel"><a xlink:href="dir_000123_000122.html" target="_top" xlink:title="1">
<text text-anchor="middle" x="196.6" y="-40.49" font-family="Helvetica,sans-Serif" font-size="10.00" fill="#63b8ff">1</text>
</a>
</g>
</g>
</g>
</svg>
