<?xml version="1.0" encoding="UTF-8" standalone="no"?>
<!DOCTYPE svg PUBLIC "-//W3C//DTD SVG 1.1//EN"
 "http://www.w3.org/Graphics/SVG/1.1/DTD/svg11.dtd">
<!-- Generated by graphviz version 2.43.0 (0)
 -->
<!-- Title: libs/ccpp/stdlib Pages: 1 -->
<svg width="179pt" height="133pt"
 viewBox="0.00 0.00 178.50 133.00" xmlns="http://www.w3.org/2000/svg" xmlns:xlink="http://www.w3.org/1999/xlink">
<g id="graph0" class="graph" transform="scale(1 1) rotate(0) translate(4 129)">
<title>libs/ccpp/stdlib</title>
<g id="clust1" class="cluster">
<title>clusterdir_048287677304621c659962c2a2c2732d</title>
<g id="a_clust1"><a xlink:href="dir_048287677304621c659962c2a2c2732d.html" target="_top" xlink:title="ccpp">
<polygon fill="#edf0f7" stroke="#7f7f7f" stroke-dasharray="5,2" points="8,-8 8,-117 76,-117 76,-8 8,-8"/>
<text text-anchor="middle" x="42" y="-105" font-family="Helvetica,sans-Serif" font-size="10.00">ccpp</text>
</a>
</g>
</g>
<!-- dir_4a059f36db6300b3f1d6a7b4bd94b473 -->
<g id="node1" class="node">
<title>dir_4a059f36db6300b3f1d6a7b4bd94b473</title>
<g id="a_node1"><a xlink:href="dir_4a059f36db6300b3f1d6a7b4bd94b473.html" target="_top" xlink:title="include">
<polygon fill="#a2b4d6" stroke="red" points="68,-35 16,-35 16,-16 68,-16 68,-35"/>
<text text-anchor="middle" x="42" y="-23" font-family="Helvetica,sans-Serif" font-size="10.00">include</text>
</a>
</g>
</g>
<!-- dir_a8ca05a97de7391234f976557b664375 -->
<g id="node2" class="node">
<title>dir_a8ca05a97de7391234f976557b664375</title>
<g id="a_node2"><a xlink:href="dir_a8ca05a97de7391234f976557b664375.html" target="_top" xlink:title="stdlib">
<polygon fill="#edf0f7" stroke="#404040" stroke-width="2" points="68,-90 24,-90 24,-71 68,-71 68,-90"/>
<text text-anchor="middle" x="46" y="-78" font-family="Helvetica,sans-Serif" font-size="10.00">stdlib</text>
</a>
</g>
</g>
<!-- dir_a8ca05a97de7391234f976557b664375&#45;&gt;dir_4a059f36db6300b3f1d6a7b4bd94b473 -->
<g id="edge2" class="edge">
<title>dir_a8ca05a97de7391234f976557b664375&#45;&gt;dir_4a059f36db6300b3f1d6a7b4bd94b473</title>
<path fill="none" stroke="#63b8ff" d="M45.34,-70.75C44.82,-63.8 44.06,-53.85 43.41,-45.13"/>
<polygon fill="#63b8ff" stroke="#63b8ff" points="46.89,-44.8 42.65,-35.09 39.91,-45.32 46.89,-44.8"/>
<g id="a_edge2&#45;headlabel"><a xlink:href="dir_000157_000091.html" target="_top" xlink:title="23">
<text text-anchor="middle" x="49.99" y="-45.67" font-family="Helvetica,sans-Serif" font-size="10.00" fill="#63b8ff">23</text>
</a>
</g>
</g>
<!-- dir_2bc9e3f402dd86ba93785edd287294d9 -->
<g id="node3" class="node">
<title>dir_2bc9e3f402dd86ba93785edd287294d9</title>
<g id="a_node3"><a xlink:href="dir_2bc9e3f402dd86ba93785edd287294d9.html" target="_top" xlink:title="dius">
<polygon fill="#edf0f7" stroke="red" stroke-dasharray="5,2" points="123.5,-35 86.5,-35 86.5,-16 123.5,-16 123.5,-35"/>
<text text-anchor="middle" x="105" y="-23" font-family="Helvetica,sans-Serif" font-size="10.00">dius</text>
</a>
</g>
</g>
<!-- dir_a8ca05a97de7391234f976557b664375&#45;&gt;dir_2bc9e3f402dd86ba93785edd287294d9 -->
<g id="edge1" class="edge">
<title>dir_a8ca05a97de7391234f976557b664375&#45;&gt;dir_2bc9e3f402dd86ba93785edd287294d9</title>
<path fill="none" stroke="#63b8ff" d="M55.48,-70.98C64.2,-63.15 77.34,-51.34 87.9,-41.86"/>
<polygon fill="#63b8ff" stroke="#63b8ff" points="90.25,-44.46 95.35,-35.17 85.57,-39.25 90.25,-44.46"/>
<g id="a_edge1&#45;headlabel"><a xlink:href="dir_000157_000063.html" target="_top" xlink:title="1">
<text text-anchor="middle" x="89.47" y="-46.47" font-family="Helvetica,sans-Serif" font-size="10.00" fill="#63b8ff">1</text>
</a>
</g>
</g>
<!-- dir_984cd133b143ec7cf21a4bdcb401bfa5 -->
<g id="node4" class="node">
<title>dir_984cd133b143ec7cf21a4bdcb401bfa5</title>
<g id="a_node4"><a xlink:href="dir_984cd133b143ec7cf21a4bdcb401bfa5.html" target="_top" xlink:title="di">
<polygon fill="#edf0f7" stroke="red" stroke-dasharray="5,2" points="170.5,-35 141.5,-35 141.5,-16 170.5,-16 170.5,-35"/>
<text text-anchor="middle" x="156" y="-23" font-family="Helvetica,sans-Serif" font-size="10.00">di</text>
</a>
</g>
</g>
<!-- dir_a8ca05a97de7391234f976557b664375&#45;&gt;dir_984cd133b143ec7cf21a4bdcb401bfa5 -->
<g id="edge3" class="edge">
<title>dir_a8ca05a97de7391234f976557b664375&#45;&gt;dir_984cd133b143ec7cf21a4bdcb401bfa5</title>
<path fill="none" stroke="#63b8ff" d="M63.67,-70.98C82.23,-62.04 111.53,-47.93 132.13,-38"/>
<polygon fill="#63b8ff" stroke="#63b8ff" points="133.7,-41.13 141.19,-33.63 130.66,-34.82 133.7,-41.13"/>
<g id="a_edge3&#45;headlabel"><a xlink:href="dir_000157_000058.html" target="_top" xlink:title="11">
<text text-anchor="middle" x="131.7" y="-42.75" font-family="Helvetica,sans-Serif" font-size="10.00" fill="#63b8ff">11</text>
</a>
</g>
</g>
</g>
</svg>
