<?xml version="1.0" encoding="UTF-8" standalone="no"?>
<!DOCTYPE svg PUBLIC "-//W3C//DTD SVG 1.1//EN"
 "http://www.w3.org/Graphics/SVG/1.1/DTD/svg11.dtd">
<!-- Generated by graphviz version 2.43.0 (0)
 -->
<!-- Title: iris/include/iris/arch/x86/amd64/hw Pages: 1 -->
<svg width="146pt" height="117pt"
 viewBox="0.00 0.00 146.00 117.00" xmlns="http://www.w3.org/2000/svg" xmlns:xlink="http://www.w3.org/1999/xlink">
<g id="graph0" class="graph" transform="scale(1 1) rotate(0) translate(4 113)">
<title>iris/include/iris/arch/x86/amd64/hw</title>
<g id="clust1" class="cluster">
<title>clusterdir_69ecb03340787322ec15c613fc74d859</title>
<g id="a_clust1"><a xlink:href="dir_69ecb03340787322ec15c613fc74d859.html" target="_top" xlink:title="amd64">
<polygon fill="#edf0f7" stroke="#7f7f7f" stroke-dasharray="5,2" points="43,-47 43,-101 93,-101 93,-47 43,-47"/>
<text text-anchor="middle" x="68" y="-89" font-family="Helvetica,sans-Serif" font-size="10.00">amd64</text>
</a>
</g>
</g>
<!-- dir_786015ac58edb6a34d6ae4d90a813fcf -->
<g id="node1" class="node">
<title>dir_786015ac58edb6a34d6ae4d90a813fcf</title>
<g id="a_node1"><a xlink:href="dir_786015ac58edb6a34d6ae4d90a813fcf.html" target="_top" xlink:title="hw">
<polygon fill="#edf0f7" stroke="#404040" stroke-width="2" points="83.5,-74 52.5,-74 52.5,-55 83.5,-55 83.5,-74"/>
<text text-anchor="middle" x="68" y="-62" font-family="Helvetica,sans-Serif" font-size="10.00">hw</text>
</a>
</g>
</g>
<!-- dir_6719ab1f1f7655efc2fa43f7eb574fd1 -->
<g id="node2" class="node">
<title>dir_6719ab1f1f7655efc2fa43f7eb574fd1</title>
<g id="a_node2"><a xlink:href="dir_6719ab1f1f7655efc2fa43f7eb574fd1.html" target="_top" xlink:title="libs">
<polygon fill="#edf0f7" stroke="red" points="34,-19 0,-19 0,0 34,0 34,-19"/>
<text text-anchor="middle" x="17" y="-7" font-family="Helvetica,sans-Serif" font-size="10.00">libs</text>
</a>
</g>
</g>
<!-- dir_786015ac58edb6a34d6ae4d90a813fcf&#45;&gt;dir_6719ab1f1f7655efc2fa43f7eb574fd1 -->
<g id="edge1" class="edge">
<title>dir_786015ac58edb6a34d6ae4d90a813fcf&#45;&gt;dir_6719ab1f1f7655efc2fa43f7eb574fd1</title>
<path fill="none" stroke="#63b8ff" d="M59.58,-54.75C52.23,-47.11 41.37,-35.82 32.46,-26.56"/>
<polygon fill="#63b8ff" stroke="#63b8ff" points="34.72,-23.87 25.26,-19.09 29.68,-28.72 34.72,-23.87"/>
<g id="a_edge1&#45;headlabel"><a xlink:href="dir_000088_000109.html" target="_top" xlink:title="10">
<text text-anchor="middle" x="39.26" y="-21.99" font-family="Helvetica,sans-Serif" font-size="10.00" fill="#63b8ff">10</text>
</a>
</g>
</g>
<!-- dir_7cd5da72e38cd0f075d57a788b4f2242 -->
<g id="node3" class="node">
<title>dir_7cd5da72e38cd0f075d57a788b4f2242</title>
<g id="a_node3"><a xlink:href="dir_7cd5da72e38cd0f075d57a788b4f2242.html" target="_top" xlink:title="hw">
<polygon fill="#edf0f7" stroke="red" stroke-dasharray="5,2" points="83.5,-19 52.5,-19 52.5,0 83.5,0 83.5,-19"/>
<text text-anchor="middle" x="68" y="-7" font-family="Helvetica,sans-Serif" font-size="10.00">hw</text>
</a>
</g>
</g>
<!-- dir_786015ac58edb6a34d6ae4d90a813fcf&#45;&gt;dir_7cd5da72e38cd0f075d57a788b4f2242 -->
<g id="edge2" class="edge">
<title>dir_786015ac58edb6a34d6ae4d90a813fcf&#45;&gt;dir_7cd5da72e38cd0f075d57a788b4f2242</title>
<path fill="none" stroke="#63b8ff" d="M68,-54.75C68,-47.8 68,-37.85 68,-29.13"/>
<polygon fill="#63b8ff" stroke="#63b8ff" points="71.5,-29.09 68,-19.09 64.5,-29.09 71.5,-29.09"/>
<g id="a_edge2&#45;headlabel"><a xlink:href="dir_000088_000089.html" target="_top" xlink:title="2">
<text text-anchor="middle" x="74.34" y="-30.18" font-family="Helvetica,sans-Serif" font-size="10.00" fill="#63b8ff">2</text>
</a>
</g>
</g>
<!-- dir_945708b8d3397c2507c5e618c4393ffa -->
<g id="node4" class="node">
<title>dir_945708b8d3397c2507c5e618c4393ffa</title>
<g id="a_node4"><a xlink:href="dir_945708b8d3397c2507c5e618c4393ffa.html" target="_top" xlink:title="mm">
<polygon fill="#edf0f7" stroke="#7f7f7f" points="138,-19 102,-19 102,0 138,0 138,-19"/>
<text text-anchor="middle" x="120" y="-7" font-family="Helvetica,sans-Serif" font-size="10.00">mm</text>
</a>
</g>
</g>
<!-- dir_786015ac58edb6a34d6ae4d90a813fcf&#45;&gt;dir_945708b8d3397c2507c5e618c4393ffa -->
<g id="edge3" class="edge">
<title>dir_786015ac58edb6a34d6ae4d90a813fcf&#45;&gt;dir_945708b8d3397c2507c5e618c4393ffa</title>
<path fill="none" stroke="#63b8ff" d="M76.59,-54.75C84.16,-47.03 95.38,-35.6 104.51,-26.28"/>
<polygon fill="#63b8ff" stroke="#63b8ff" points="107.07,-28.68 111.57,-19.09 102.07,-23.78 107.07,-28.68"/>
<g id="a_edge3&#45;headlabel"><a xlink:href="dir_000088_000126.html" target="_top" xlink:title="2">
<text text-anchor="middle" x="106.58" y="-30.73" font-family="Helvetica,sans-Serif" font-size="10.00" fill="#63b8ff">2</text>
</a>
</g>
</g>
</g>
</svg>
