<?xml version="1.0" encoding="UTF-8" standalone="no"?>
<!DOCTYPE svg PUBLIC "-//W3C//DTD SVG 1.1//EN"
 "http://www.w3.org/Graphics/SVG/1.1/DTD/svg11.dtd">
<!-- Generated by graphviz version 2.43.0 (0)
 -->
<!-- Title: libs/di/include/di/math/bigint Pages: 1 -->
<svg width="384pt" height="117pt"
 viewBox="0.00 0.00 383.50 117.00" xmlns="http://www.w3.org/2000/svg" xmlns:xlink="http://www.w3.org/1999/xlink">
<g id="graph0" class="graph" transform="scale(1 1) rotate(0) translate(4 113)">
<title>libs/di/include/di/math/bigint</title>
<g id="clust1" class="cluster">
<title>clusterdir_60d1624911c2c9f7b6f38e44ec895aaa</title>
<g id="a_clust1"><a xlink:href="dir_60d1624911c2c9f7b6f38e44ec895aaa.html" target="_top" xlink:title="math">
<polygon fill="#edf0f7" stroke="#7f7f7f" stroke-dasharray="5,2" points="149,-47 149,-101 209,-101 209,-47 149,-47"/>
<text text-anchor="middle" x="179" y="-89" font-family="Helvetica,sans-Serif" font-size="10.00">math</text>
</a>
</g>
</g>
<!-- dir_a6d9e40a1db007d90a1d86f0cd034598 -->
<g id="node1" class="node">
<title>dir_a6d9e40a1db007d90a1d86f0cd034598</title>
<g id="a_node1"><a xlink:href="dir_a6d9e40a1db007d90a1d86f0cd034598.html" target="_top" xlink:title="bigint">
<polygon fill="#edf0f7" stroke="#404040" stroke-width="2" points="201,-74 157,-74 157,-55 201,-55 201,-74"/>
<text text-anchor="middle" x="179" y="-62" font-family="Helvetica,sans-Serif" font-size="10.00">bigint</text>
</a>
</g>
</g>
<!-- dir_0669efae56692bb73da75efb5ebbccdf -->
<g id="node2" class="node">
<title>dir_0669efae56692bb73da75efb5ebbccdf</title>
<g id="a_node2"><a xlink:href="dir_0669efae56692bb73da75efb5ebbccdf.html" target="_top" xlink:title="function">
<polygon fill="#edf0f7" stroke="red" stroke-dasharray="5,2" points="56,-19 0,-19 0,0 56,0 56,-19"/>
<text text-anchor="middle" x="28" y="-7" font-family="Helvetica,sans-Serif" font-size="10.00">function</text>
</a>
</g>
</g>
<!-- dir_a6d9e40a1db007d90a1d86f0cd034598&#45;&gt;dir_0669efae56692bb73da75efb5ebbccdf -->
<g id="edge1" class="edge">
<title>dir_a6d9e40a1db007d90a1d86f0cd034598&#45;&gt;dir_0669efae56692bb73da75efb5ebbccdf</title>
<path fill="none" stroke="#63b8ff" d="M156.72,-55.68C131.77,-46.92 91.04,-32.63 62.08,-22.46"/>
<polygon fill="#63b8ff" stroke="#63b8ff" points="62.97,-19.07 52.38,-19.06 60.65,-25.67 62.97,-19.07"/>
<g id="a_edge1&#45;headlabel"><a xlink:href="dir_000021_000082.html" target="_top" xlink:title="1">
<text text-anchor="middle" x="67.3" y="-15.08" font-family="Helvetica,sans-Serif" font-size="10.00" fill="#63b8ff">1</text>
</a>
</g>
</g>
<!-- dir_143f1d6bc6d46924c644ec67dc1fb4fc -->
<g id="node3" class="node">
<title>dir_143f1d6bc6d46924c644ec67dc1fb4fc</title>
<g id="a_node3"><a xlink:href="dir_143f1d6bc6d46924c644ec67dc1fb4fc.html" target="_top" xlink:title="bit">
<polygon fill="#edf0f7" stroke="red" stroke-dasharray="5,2" points="103.5,-19 74.5,-19 74.5,0 103.5,0 103.5,-19"/>
<text text-anchor="middle" x="89" y="-7" font-family="Helvetica,sans-Serif" font-size="10.00">bit</text>
</a>
</g>
</g>
<!-- dir_a6d9e40a1db007d90a1d86f0cd034598&#45;&gt;dir_143f1d6bc6d46924c644ec67dc1fb4fc -->
<g id="edge2" class="edge">
<title>dir_a6d9e40a1db007d90a1d86f0cd034598&#45;&gt;dir_143f1d6bc6d46924c644ec67dc1fb4fc</title>
<path fill="none" stroke="#63b8ff" d="M164.54,-54.98C150.58,-46.77 129.21,-34.18 112.75,-24.49"/>
<polygon fill="#63b8ff" stroke="#63b8ff" points="114.12,-21.23 103.72,-19.17 110.56,-27.26 114.12,-21.23"/>
<g id="a_edge2&#45;headlabel"><a xlink:href="dir_000021_000022.html" target="_top" xlink:title="2">
<text text-anchor="middle" x="118.65" y="-18.11" font-family="Helvetica,sans-Serif" font-size="10.00" fill="#63b8ff">2</text>
</a>
</g>
</g>
<!-- dir_30ecaf38acae77be14fb9173f98f8612 -->
<g id="node4" class="node">
<title>dir_30ecaf38acae77be14fb9173f98f8612</title>
<g id="a_node4"><a xlink:href="dir_30ecaf38acae77be14fb9173f98f8612.html" target="_top" xlink:title="types">
<polygon fill="#edf0f7" stroke="#7f7f7f" points="166,-19 122,-19 122,0 166,0 166,-19"/>
<text text-anchor="middle" x="144" y="-7" font-family="Helvetica,sans-Serif" font-size="10.00">types</text>
</a>
</g>
</g>
<!-- dir_a6d9e40a1db007d90a1d86f0cd034598&#45;&gt;dir_30ecaf38acae77be14fb9173f98f8612 -->
<g id="edge3" class="edge">
<title>dir_a6d9e40a1db007d90a1d86f0cd034598&#45;&gt;dir_30ecaf38acae77be14fb9173f98f8612</title>
<path fill="none" stroke="#63b8ff" d="M173.22,-54.75C168.38,-47.42 161.32,-36.73 155.36,-27.7"/>
<polygon fill="#63b8ff" stroke="#63b8ff" points="158.1,-25.5 149.67,-19.09 152.26,-29.36 158.1,-25.5"/>
<g id="a_edge3&#45;headlabel"><a xlink:href="dir_000021_000180.html" target="_top" xlink:title="3">
<text text-anchor="middle" x="162.45" y="-24.44" font-family="Helvetica,sans-Serif" font-size="10.00" fill="#63b8ff">3</text>
</a>
</g>
</g>
<!-- dir_521de572ae4fe2915cc70a876c52f5b7 -->
<g id="node5" class="node">
<title>dir_521de572ae4fe2915cc70a876c52f5b7</title>
<g id="a_node5"><a xlink:href="dir_521de572ae4fe2915cc70a876c52f5b7.html" target="_top" xlink:title="container">
<polygon fill="#edf0f7" stroke="red" stroke-dasharray="5,2" points="246,-19 184,-19 184,0 246,0 246,-19"/>
<text text-anchor="middle" x="215" y="-7" font-family="Helvetica,sans-Serif" font-size="10.00">container</text>
</a>
</g>
</g>
<!-- dir_a6d9e40a1db007d90a1d86f0cd034598&#45;&gt;dir_521de572ae4fe2915cc70a876c52f5b7 -->
<g id="edge4" class="edge">
<title>dir_a6d9e40a1db007d90a1d86f0cd034598&#45;&gt;dir_521de572ae4fe2915cc70a876c52f5b7</title>
<path fill="none" stroke="#63b8ff" d="M184.94,-54.75C189.98,-47.34 197.34,-36.5 203.51,-27.41"/>
<polygon fill="#63b8ff" stroke="#63b8ff" points="206.44,-29.33 209.17,-19.09 200.65,-25.39 206.44,-29.33"/>
<g id="a_edge4&#45;headlabel"><a xlink:href="dir_000021_000046.html" target="_top" xlink:title="6">
<text text-anchor="middle" x="206.77" y="-31.4" font-family="Helvetica,sans-Serif" font-size="10.00" fill="#63b8ff">6</text>
</a>
</g>
</g>
<!-- dir_942cfae36a92b6b1c4b510e99e852d40 -->
<g id="node6" class="node">
<title>dir_942cfae36a92b6b1c4b510e99e852d40</title>
<g id="a_node6"><a xlink:href="dir_942cfae36a92b6b1c4b510e99e852d40.html" target="_top" xlink:title="vocab">
<polygon fill="#edf0f7" stroke="red" stroke-dasharray="5,2" points="310,-19 264,-19 264,0 310,0 310,-19"/>
<text text-anchor="middle" x="287" y="-7" font-family="Helvetica,sans-Serif" font-size="10.00">vocab</text>
</a>
</g>
</g>
<!-- dir_a6d9e40a1db007d90a1d86f0cd034598&#45;&gt;dir_942cfae36a92b6b1c4b510e99e852d40 -->
<g id="edge5" class="edge">
<title>dir_a6d9e40a1db007d90a1d86f0cd034598&#45;&gt;dir_942cfae36a92b6b1c4b510e99e852d40</title>
<path fill="none" stroke="#63b8ff" d="M196.35,-54.98C213.57,-46.54 240.2,-33.47 260.15,-23.68"/>
<polygon fill="#63b8ff" stroke="#63b8ff" points="261.9,-26.72 269.33,-19.17 258.81,-20.43 261.9,-26.72"/>
<g id="a_edge5&#45;headlabel"><a xlink:href="dir_000021_000189.html" target="_top" xlink:title="5">
<text text-anchor="middle" x="259.92" y="-28.35" font-family="Helvetica,sans-Serif" font-size="10.00" fill="#63b8ff">5</text>
</a>
</g>
</g>
<!-- dir_a60d4453151dca6bdd8e5fcc350e379b -->
<g id="node7" class="node">
<title>dir_a60d4453151dca6bdd8e5fcc350e379b</title>
<g id="a_node7"><a xlink:href="dir_a60d4453151dca6bdd8e5fcc350e379b.html" target="_top" xlink:title="assert">
<polygon fill="#edf0f7" stroke="#7f7f7f" points="375.5,-19 328.5,-19 328.5,0 375.5,0 375.5,-19"/>
<text text-anchor="middle" x="352" y="-7" font-family="Helvetica,sans-Serif" font-size="10.00">assert</text>
</a>
</g>
</g>
<!-- dir_a6d9e40a1db007d90a1d86f0cd034598&#45;&gt;dir_a60d4453151dca6bdd8e5fcc350e379b -->
<g id="edge6" class="edge">
<title>dir_a6d9e40a1db007d90a1d86f0cd034598&#45;&gt;dir_a60d4453151dca6bdd8e5fcc350e379b</title>
<path fill="none" stroke="#63b8ff" d="M201.26,-56.68C231.08,-47.54 284.23,-31.26 318.79,-20.67"/>
<polygon fill="#63b8ff" stroke="#63b8ff" points="319.9,-23.99 328.44,-17.72 317.85,-17.3 319.9,-23.99"/>
<g id="a_edge6&#45;headlabel"><a xlink:href="dir_000021_000018.html" target="_top" xlink:title="1">
<text text-anchor="middle" x="317.3" y="-25.26" font-family="Helvetica,sans-Serif" font-size="10.00" fill="#63b8ff">1</text>
</a>
</g>
</g>
</g>
</svg>
