<?xml version="1.0" encoding="UTF-8" standalone="no"?>
<!DOCTYPE svg PUBLIC "-//W3C//DTD SVG 1.1//EN"
 "http://www.w3.org/Graphics/SVG/1.1/DTD/svg11.dtd">
<!-- Generated by graphviz version 2.43.0 (0)
 -->
<!-- Title: libs/di/include/di/container/algorithm Pages: 1 -->
<svg width="672pt" height="133pt"
 viewBox="0.00 0.00 672.00 133.00" xmlns="http://www.w3.org/2000/svg" xmlns:xlink="http://www.w3.org/1999/xlink">
<g id="graph0" class="graph" transform="scale(1 1) rotate(0) translate(4 129)">
<title>libs/di/include/di/container/algorithm</title>
<g id="clust1" class="cluster">
<title>clusterdir_521de572ae4fe2915cc70a876c52f5b7</title>
<g id="a_clust1"><a xlink:href="dir_521de572ae4fe2915cc70a876c52f5b7.html" target="_top" xlink:title="container">
<polygon fill="#edf0f7" stroke="#7f7f7f" stroke-dasharray="5,2" points="8,-8 8,-117 352,-117 352,-8 8,-8"/>
<text text-anchor="middle" x="180" y="-105" font-family="Helvetica,sans-Serif" font-size="10.00">container</text>
</a>
</g>
</g>
<!-- dir_093cb0cf41c3d9bb25543a4e1702223c -->
<g id="node1" class="node">
<title>dir_093cb0cf41c3d9bb25543a4e1702223c</title>
<g id="a_node1"><a xlink:href="dir_093cb0cf41c3d9bb25543a4e1702223c.html" target="_top" xlink:title="iterator">
<polygon fill="#a2b4d6" stroke="#404040" points="69.5,-35 16.5,-35 16.5,-16 69.5,-16 69.5,-35"/>
<text text-anchor="middle" x="43" y="-23" font-family="Helvetica,sans-Serif" font-size="10.00">iterator</text>
</a>
</g>
</g>
<!-- dir_28cb5a05dfb61a4b9ad44e468e6394a4 -->
<g id="node2" class="node">
<title>dir_28cb5a05dfb61a4b9ad44e468e6394a4</title>
<g id="a_node2"><a xlink:href="dir_28cb5a05dfb61a4b9ad44e468e6394a4.html" target="_top" xlink:title="view">
<polygon fill="#a2b4d6" stroke="#404040" points="128,-35 88,-35 88,-16 128,-16 128,-35"/>
<text text-anchor="middle" x="108" y="-23" font-family="Helvetica,sans-Serif" font-size="10.00">view</text>
</a>
</g>
</g>
<!-- dir_838362f34bc8d8c3545343b0166aa672 -->
<g id="node3" class="node">
<title>dir_838362f34bc8d8c3545343b0166aa672</title>
<g id="a_node3"><a xlink:href="dir_838362f34bc8d8c3545343b0166aa672.html" target="_top" xlink:title="concepts">
<polygon fill="#a2b4d6" stroke="#404040" points="206,-35 146,-35 146,-16 206,-16 206,-35"/>
<text text-anchor="middle" x="176" y="-23" font-family="Helvetica,sans-Serif" font-size="10.00">concepts</text>
</a>
</g>
</g>
<!-- dir_9f8d33513cfc97e5f9ea6bf2671e5446 -->
<g id="node4" class="node">
<title>dir_9f8d33513cfc97e5f9ea6bf2671e5446</title>
<g id="a_node4"><a xlink:href="dir_9f8d33513cfc97e5f9ea6bf2671e5446.html" target="_top" xlink:title="meta">
<polygon fill="#a2b4d6" stroke="#404040" points="266,-35 224,-35 224,-16 266,-16 266,-35"/>
<text text-anchor="middle" x="245" y="-23" font-family="Helvetica,sans-Serif" font-size="10.00">meta</text>
</a>
</g>
</g>
<!-- dir_dd6c062645334da7e8440ac2e54ccb1d -->
<g id="node5" class="node">
<title>dir_dd6c062645334da7e8440ac2e54ccb1d</title>
<g id="a_node5"><a xlink:href="dir_dd6c062645334da7e8440ac2e54ccb1d.html" target="_top" xlink:title="interface">
<polygon fill="#a2b4d6" stroke="#404040" points="344,-35 284,-35 284,-16 344,-16 344,-35"/>
<text text-anchor="middle" x="314" y="-23" font-family="Helvetica,sans-Serif" font-size="10.00">interface</text>
</a>
</g>
</g>
<!-- dir_60528a66b99dd07a1313b3c263e646ab -->
<g id="node6" class="node">
<title>dir_60528a66b99dd07a1313b3c263e646ab</title>
<g id="a_node6"><a xlink:href="dir_60528a66b99dd07a1313b3c263e646ab.html" target="_top" xlink:title="algorithm">
<polygon fill="#edf0f7" stroke="#404040" stroke-width="2" points="344,-90 280,-90 280,-71 344,-71 344,-90"/>
<text text-anchor="middle" x="312" y="-78" font-family="Helvetica,sans-Serif" font-size="10.00">algorithm</text>
</a>
</g>
</g>
<!-- dir_60528a66b99dd07a1313b3c263e646ab&#45;&gt;dir_093cb0cf41c3d9bb25543a4e1702223c -->
<g id="edge2" class="edge">
<title>dir_60528a66b99dd07a1313b3c263e646ab&#45;&gt;dir_093cb0cf41c3d9bb25543a4e1702223c</title>
<path fill="none" stroke="#63b8ff" d="M279.88,-73.82C236.7,-66.08 157.34,-51.52 79.66,-35.06"/>
<polygon fill="#63b8ff" stroke="#63b8ff" points="80.22,-31.6 69.71,-32.94 78.76,-38.45 80.22,-31.6"/>
<g id="a_edge2&#45;headlabel"><a xlink:href="dir_000003_000108.html" target="_top" xlink:title="71">
<text text-anchor="middle" x="84.32" y="-27.07" font-family="Helvetica,sans-Serif" font-size="10.00" fill="#63b8ff">71</text>
</a>
</g>
</g>
<!-- dir_60528a66b99dd07a1313b3c263e646ab&#45;&gt;dir_28cb5a05dfb61a4b9ad44e468e6394a4 -->
<g id="edge3" class="edge">
<title>dir_60528a66b99dd07a1313b3c263e646ab&#45;&gt;dir_28cb5a05dfb61a4b9ad44e468e6394a4</title>
<path fill="none" stroke="#63b8ff" d="M279.98,-71.72C246.81,-63.59 193.25,-50.23 138.18,-35.25"/>
<polygon fill="#63b8ff" stroke="#63b8ff" points="138.82,-31.8 128.25,-32.54 136.98,-38.55 138.82,-31.8"/>
<g id="a_edge3&#45;headlabel"><a xlink:href="dir_000003_000188.html" target="_top" xlink:title="6">
<text text-anchor="middle" x="143.04" y="-27.51" font-family="Helvetica,sans-Serif" font-size="10.00" fill="#63b8ff">6</text>
</a>
</g>
</g>
<!-- dir_60528a66b99dd07a1313b3c263e646ab&#45;&gt;dir_838362f34bc8d8c3545343b0166aa672 -->
<g id="edge5" class="edge">
<title>dir_60528a66b99dd07a1313b3c263e646ab&#45;&gt;dir_838362f34bc8d8c3545343b0166aa672</title>
<path fill="none" stroke="#63b8ff" d="M290.15,-70.98C267.88,-62.3 233.1,-48.75 207.78,-38.88"/>
<polygon fill="#63b8ff" stroke="#63b8ff" points="208.84,-35.54 198.25,-35.17 206.29,-42.06 208.84,-35.54"/>
<g id="a_edge5&#45;headlabel"><a xlink:href="dir_000003_000037.html" target="_top" xlink:title="93">
<text text-anchor="middle" x="213.22" y="-31.7" font-family="Helvetica,sans-Serif" font-size="10.00" fill="#63b8ff">93</text>
</a>
</g>
</g>
<!-- dir_60528a66b99dd07a1313b3c263e646ab&#45;&gt;dir_9f8d33513cfc97e5f9ea6bf2671e5446 -->
<g id="edge7" class="edge">
<title>dir_60528a66b99dd07a1313b3c263e646ab&#45;&gt;dir_9f8d33513cfc97e5f9ea6bf2671e5446</title>
<path fill="none" stroke="#63b8ff" d="M301.24,-70.98C291.23,-63.07 276.11,-51.11 264.07,-41.58"/>
<polygon fill="#63b8ff" stroke="#63b8ff" points="265.97,-38.63 255.96,-35.17 261.63,-44.12 265.97,-38.63"/>
<g id="a_edge7&#45;headlabel"><a xlink:href="dir_000003_000120.html" target="_top" xlink:title="88">
<text text-anchor="middle" x="270.56" y="-36.13" font-family="Helvetica,sans-Serif" font-size="10.00" fill="#63b8ff">88</text>
</a>
</g>
</g>
<!-- dir_60528a66b99dd07a1313b3c263e646ab&#45;&gt;dir_dd6c062645334da7e8440ac2e54ccb1d -->
<g id="edge9" class="edge">
<title>dir_60528a66b99dd07a1313b3c263e646ab&#45;&gt;dir_dd6c062645334da7e8440ac2e54ccb1d</title>
<path fill="none" stroke="#63b8ff" d="M312.33,-70.75C312.59,-63.8 312.97,-53.85 313.3,-45.13"/>
<polygon fill="#63b8ff" stroke="#63b8ff" points="316.8,-45.21 313.68,-35.09 309.8,-44.95 316.8,-45.21"/>
<g id="a_edge9&#45;headlabel"><a xlink:href="dir_000003_000095.html" target="_top" xlink:title="3">
<text text-anchor="middle" x="319.5" y="-46.41" font-family="Helvetica,sans-Serif" font-size="10.00" fill="#63b8ff">3</text>
</a>
</g>
</g>
<!-- dir_0669efae56692bb73da75efb5ebbccdf -->
<g id="node7" class="node">
<title>dir_0669efae56692bb73da75efb5ebbccdf</title>
<g id="a_node7"><a xlink:href="dir_0669efae56692bb73da75efb5ebbccdf.html" target="_top" xlink:title="function">
<polygon fill="#edf0f7" stroke="red" stroke-dasharray="5,2" points="418,-35 362,-35 362,-16 418,-16 418,-35"/>
<text text-anchor="middle" x="390" y="-23" font-family="Helvetica,sans-Serif" font-size="10.00">function</text>
</a>
</g>
</g>
<!-- dir_60528a66b99dd07a1313b3c263e646ab&#45;&gt;dir_0669efae56692bb73da75efb5ebbccdf -->
<g id="edge1" class="edge">
<title>dir_60528a66b99dd07a1313b3c263e646ab&#45;&gt;dir_0669efae56692bb73da75efb5ebbccdf</title>
<path fill="none" stroke="#63b8ff" d="M324.53,-70.98C336.4,-62.92 354.46,-50.65 368.61,-41.03"/>
<polygon fill="#63b8ff" stroke="#63b8ff" points="370.94,-43.69 377.24,-35.17 367,-37.9 370.94,-43.69"/>
<g id="a_edge1&#45;headlabel"><a xlink:href="dir_000003_000082.html" target="_top" xlink:title="61">
<text text-anchor="middle" x="369.56" y="-45.55" font-family="Helvetica,sans-Serif" font-size="10.00" fill="#63b8ff">61</text>
</a>
</g>
</g>
<!-- dir_4535887b2cdca47e625f259d07db0112 -->
<g id="node8" class="node">
<title>dir_4535887b2cdca47e625f259d07db0112</title>
<g id="a_node8"><a xlink:href="dir_4535887b2cdca47e625f259d07db0112.html" target="_top" xlink:title="util">
<polygon fill="#edf0f7" stroke="#7f7f7f" points="468,-35 436,-35 436,-16 468,-16 468,-35"/>
<text text-anchor="middle" x="452" y="-23" font-family="Helvetica,sans-Serif" font-size="10.00">util</text>
</a>
</g>
</g>
<!-- dir_60528a66b99dd07a1313b3c263e646ab&#45;&gt;dir_4535887b2cdca47e625f259d07db0112 -->
<g id="edge4" class="edge">
<title>dir_60528a66b99dd07a1313b3c263e646ab&#45;&gt;dir_4535887b2cdca47e625f259d07db0112</title>
<path fill="none" stroke="#63b8ff" d="M334.49,-70.98C359.47,-61.53 399.72,-46.29 426.02,-36.34"/>
<polygon fill="#63b8ff" stroke="#63b8ff" points="427.57,-39.49 435.69,-32.68 425.09,-32.94 427.57,-39.49"/>
<g id="a_edge4&#45;headlabel"><a xlink:href="dir_000003_000185.html" target="_top" xlink:title="76">
<text text-anchor="middle" x="425.22" y="-40.92" font-family="Helvetica,sans-Serif" font-size="10.00" fill="#63b8ff">76</text>
</a>
</g>
</g>
<!-- dir_942cfae36a92b6b1c4b510e99e852d40 -->
<g id="node9" class="node">
<title>dir_942cfae36a92b6b1c4b510e99e852d40</title>
<g id="a_node9"><a xlink:href="dir_942cfae36a92b6b1c4b510e99e852d40.html" target="_top" xlink:title="vocab">
<polygon fill="#edf0f7" stroke="red" stroke-dasharray="5,2" points="532,-35 486,-35 486,-16 532,-16 532,-35"/>
<text text-anchor="middle" x="509" y="-23" font-family="Helvetica,sans-Serif" font-size="10.00">vocab</text>
</a>
</g>
</g>
<!-- dir_60528a66b99dd07a1313b3c263e646ab&#45;&gt;dir_942cfae36a92b6b1c4b510e99e852d40 -->
<g id="edge6" class="edge">
<title>dir_60528a66b99dd07a1313b3c263e646ab&#45;&gt;dir_942cfae36a92b6b1c4b510e99e852d40</title>
<path fill="none" stroke="#63b8ff" d="M343.65,-70.98C379.94,-61.22 439.14,-45.29 475.99,-35.38"/>
<polygon fill="#63b8ff" stroke="#63b8ff" points="477.01,-38.73 485.75,-32.75 475.19,-31.97 477.01,-38.73"/>
<g id="a_edge6&#45;headlabel"><a xlink:href="dir_000003_000189.html" target="_top" xlink:title="4">
<text text-anchor="middle" x="474.27" y="-39.91" font-family="Helvetica,sans-Serif" font-size="10.00" fill="#63b8ff">4</text>
</a>
</g>
</g>
<!-- dir_b53b5446bfdc9bc3aeb10a5b96312bdd -->
<g id="node10" class="node">
<title>dir_b53b5446bfdc9bc3aeb10a5b96312bdd</title>
<g id="a_node10"><a xlink:href="dir_b53b5446bfdc9bc3aeb10a5b96312bdd.html" target="_top" xlink:title="random">
<polygon fill="#edf0f7" stroke="red" stroke-dasharray="5,2" points="604,-35 550,-35 550,-16 604,-16 604,-35"/>
<text text-anchor="middle" x="577" y="-23" font-family="Helvetica,sans-Serif" font-size="10.00">random</text>
</a>
</g>
</g>
<!-- dir_60528a66b99dd07a1313b3c263e646ab&#45;&gt;dir_b53b5446bfdc9bc3aeb10a5b96312bdd -->
<g id="edge8" class="edge">
<title>dir_60528a66b99dd07a1313b3c263e646ab&#45;&gt;dir_b53b5446bfdc9bc3aeb10a5b96312bdd</title>
<path fill="none" stroke="#63b8ff" d="M344.32,-73.64C386.83,-65.84 464.11,-51.35 539.73,-35.21"/>
<polygon fill="#63b8ff" stroke="#63b8ff" points="540.86,-38.54 549.9,-33.02 539.39,-31.7 540.86,-38.54"/>
<g id="a_edge8&#45;headlabel"><a xlink:href="dir_000003_000142.html" target="_top" xlink:title="4">
<text text-anchor="middle" x="537.94" y="-39.57" font-family="Helvetica,sans-Serif" font-size="10.00" fill="#63b8ff">4</text>
</a>
</g>
</g>
<!-- dir_f555f996eeee1ebe901dc71e0c5de8ff -->
<g id="node11" class="node">
<title>dir_f555f996eeee1ebe901dc71e0c5de8ff</title>
<g id="a_node11"><a xlink:href="dir_f555f996eeee1ebe901dc71e0c5de8ff.html" target="_top" xlink:title="meta">
<polygon fill="#edf0f7" stroke="#7f7f7f" points="664,-35 622,-35 622,-16 664,-16 664,-35"/>
<text text-anchor="middle" x="643" y="-23" font-family="Helvetica,sans-Serif" font-size="10.00">meta</text>
</a>
</g>
</g>
<!-- dir_60528a66b99dd07a1313b3c263e646ab&#45;&gt;dir_f555f996eeee1ebe901dc71e0c5de8ff -->
<g id="edge10" class="edge">
<title>dir_60528a66b99dd07a1313b3c263e646ab&#45;&gt;dir_f555f996eeee1ebe901dc71e0c5de8ff</title>
<path fill="none" stroke="#63b8ff" d="M344.32,-76.11C397.98,-70.19 508.94,-56.67 611.85,-35"/>
<polygon fill="#63b8ff" stroke="#63b8ff" points="612.73,-38.39 621.78,-32.88 611.27,-31.55 612.73,-38.39"/>
<g id="a_edge10&#45;headlabel"><a xlink:href="dir_000003_000122.html" target="_top" xlink:title="21">
<text text-anchor="middle" x="609.81" y="-39.42" font-family="Helvetica,sans-Serif" font-size="10.00" fill="#63b8ff">21</text>
</a>
</g>
</g>
</g>
</svg>
