<?xml version="1.0" encoding="UTF-8" standalone="no"?>
<!DOCTYPE svg PUBLIC "-//W3C//DTD SVG 1.1//EN"
 "http://www.w3.org/Graphics/SVG/1.1/DTD/svg11.dtd">
<!-- Generated by graphviz version 2.43.0 (0)
 -->
<!-- Title: libs/di/include/di/container/allocator Pages: 1 -->
<svg width="601pt" height="133pt"
 viewBox="0.00 0.00 601.00 133.00" xmlns="http://www.w3.org/2000/svg" xmlns:xlink="http://www.w3.org/1999/xlink">
<g id="graph0" class="graph" transform="scale(1 1) rotate(0) translate(4 129)">
<title>libs/di/include/di/container/allocator</title>
<g id="clust1" class="cluster">
<title>clusterdir_521de572ae4fe2915cc70a876c52f5b7</title>
<g id="a_clust1"><a xlink:href="dir_521de572ae4fe2915cc70a876c52f5b7.html" target="_top" xlink:title="container">
<polygon fill="#edf0f7" stroke="#7f7f7f" stroke-dasharray="5,2" points="8,-8 8,-117 88,-117 88,-8 8,-8"/>
<text text-anchor="middle" x="48" y="-105" font-family="Helvetica,sans-Serif" font-size="10.00">container</text>
</a>
</g>
</g>
<!-- dir_60528a66b99dd07a1313b3c263e646ab -->
<g id="node1" class="node">
<title>dir_60528a66b99dd07a1313b3c263e646ab</title>
<g id="a_node1"><a xlink:href="dir_60528a66b99dd07a1313b3c263e646ab.html" target="_top" xlink:title="algorithm">
<polygon fill="#a2b4d6" stroke="#404040" points="80,-35 16,-35 16,-16 80,-16 80,-35"/>
<text text-anchor="middle" x="48" y="-23" font-family="Helvetica,sans-Serif" font-size="10.00">algorithm</text>
</a>
</g>
</g>
<!-- dir_75ced0d5626770d74ec0ab0f9ebe51e3 -->
<g id="node2" class="node">
<title>dir_75ced0d5626770d74ec0ab0f9ebe51e3</title>
<g id="a_node2"><a xlink:href="dir_75ced0d5626770d74ec0ab0f9ebe51e3.html" target="_top" xlink:title="allocator">
<polygon fill="#edf0f7" stroke="#404040" stroke-width="2" points="79.5,-90 20.5,-90 20.5,-71 79.5,-71 79.5,-90"/>
<text text-anchor="middle" x="50" y="-78" font-family="Helvetica,sans-Serif" font-size="10.00">allocator</text>
</a>
</g>
</g>
<!-- dir_75ced0d5626770d74ec0ab0f9ebe51e3&#45;&gt;dir_60528a66b99dd07a1313b3c263e646ab -->
<g id="edge4" class="edge">
<title>dir_75ced0d5626770d74ec0ab0f9ebe51e3&#45;&gt;dir_60528a66b99dd07a1313b3c263e646ab</title>
<path fill="none" stroke="#63b8ff" d="M49.67,-70.75C49.41,-63.8 49.03,-53.85 48.7,-45.13"/>
<polygon fill="#63b8ff" stroke="#63b8ff" points="52.2,-44.95 48.32,-35.09 45.2,-45.21 52.2,-44.95"/>
<g id="a_edge4&#45;headlabel"><a xlink:href="dir_000005_000003.html" target="_top" xlink:title="2">
<text text-anchor="middle" x="55.17" y="-45.93" font-family="Helvetica,sans-Serif" font-size="10.00" fill="#63b8ff">2</text>
</a>
</g>
</g>
<!-- dir_0669efae56692bb73da75efb5ebbccdf -->
<g id="node3" class="node">
<title>dir_0669efae56692bb73da75efb5ebbccdf</title>
<g id="a_node3"><a xlink:href="dir_0669efae56692bb73da75efb5ebbccdf.html" target="_top" xlink:title="function">
<polygon fill="#edf0f7" stroke="red" stroke-dasharray="5,2" points="154,-35 98,-35 98,-16 154,-16 154,-35"/>
<text text-anchor="middle" x="126" y="-23" font-family="Helvetica,sans-Serif" font-size="10.00">function</text>
</a>
</g>
</g>
<!-- dir_75ced0d5626770d74ec0ab0f9ebe51e3&#45;&gt;dir_0669efae56692bb73da75efb5ebbccdf -->
<g id="edge1" class="edge">
<title>dir_75ced0d5626770d74ec0ab0f9ebe51e3&#45;&gt;dir_0669efae56692bb73da75efb5ebbccdf</title>
<path fill="none" stroke="#63b8ff" d="M62.21,-70.98C73.78,-62.92 91.38,-50.65 105.16,-41.03"/>
<polygon fill="#63b8ff" stroke="#63b8ff" points="107.37,-43.76 113.57,-35.17 103.36,-38.02 107.37,-43.76"/>
<g id="a_edge1&#45;headlabel"><a xlink:href="dir_000005_000082.html" target="_top" xlink:title="3">
<text text-anchor="middle" x="106.04" y="-45.65" font-family="Helvetica,sans-Serif" font-size="10.00" fill="#63b8ff">3</text>
</a>
</g>
</g>
<!-- dir_30ecaf38acae77be14fb9173f98f8612 -->
<g id="node4" class="node">
<title>dir_30ecaf38acae77be14fb9173f98f8612</title>
<g id="a_node4"><a xlink:href="dir_30ecaf38acae77be14fb9173f98f8612.html" target="_top" xlink:title="types">
<polygon fill="#edf0f7" stroke="#7f7f7f" points="216,-35 172,-35 172,-16 216,-16 216,-35"/>
<text text-anchor="middle" x="194" y="-23" font-family="Helvetica,sans-Serif" font-size="10.00">types</text>
</a>
</g>
</g>
<!-- dir_75ced0d5626770d74ec0ab0f9ebe51e3&#45;&gt;dir_30ecaf38acae77be14fb9173f98f8612 -->
<g id="edge2" class="edge">
<title>dir_75ced0d5626770d74ec0ab0f9ebe51e3&#45;&gt;dir_30ecaf38acae77be14fb9173f98f8612</title>
<path fill="none" stroke="#63b8ff" d="M73.14,-70.98C97.25,-62.11 135.2,-48.14 162.13,-38.23"/>
<polygon fill="#63b8ff" stroke="#63b8ff" points="163.69,-41.38 171.87,-34.65 161.27,-34.82 163.69,-41.38"/>
<g id="a_edge2&#45;headlabel"><a xlink:href="dir_000005_000180.html" target="_top" xlink:title="6">
<text text-anchor="middle" x="161.3" y="-42.79" font-family="Helvetica,sans-Serif" font-size="10.00" fill="#63b8ff">6</text>
</a>
</g>
</g>
<!-- dir_4535887b2cdca47e625f259d07db0112 -->
<g id="node5" class="node">
<title>dir_4535887b2cdca47e625f259d07db0112</title>
<g id="a_node5"><a xlink:href="dir_4535887b2cdca47e625f259d07db0112.html" target="_top" xlink:title="util">
<polygon fill="#edf0f7" stroke="#7f7f7f" points="266,-35 234,-35 234,-16 266,-16 266,-35"/>
<text text-anchor="middle" x="250" y="-23" font-family="Helvetica,sans-Serif" font-size="10.00">util</text>
</a>
</g>
</g>
<!-- dir_75ced0d5626770d74ec0ab0f9ebe51e3&#45;&gt;dir_4535887b2cdca47e625f259d07db0112 -->
<g id="edge3" class="edge">
<title>dir_75ced0d5626770d74ec0ab0f9ebe51e3&#45;&gt;dir_4535887b2cdca47e625f259d07db0112</title>
<path fill="none" stroke="#63b8ff" d="M79.61,-72.72C112.65,-65 167.89,-51.59 224.15,-35.07"/>
<polygon fill="#63b8ff" stroke="#63b8ff" points="225.33,-38.37 233.92,-32.17 223.34,-31.66 225.33,-38.37"/>
<g id="a_edge3&#45;headlabel"><a xlink:href="dir_000005_000185.html" target="_top" xlink:title="2">
<text text-anchor="middle" x="222.69" y="-39.62" font-family="Helvetica,sans-Serif" font-size="10.00" fill="#63b8ff">2</text>
</a>
</g>
</g>
<!-- dir_60d1624911c2c9f7b6f38e44ec895aaa -->
<g id="node6" class="node">
<title>dir_60d1624911c2c9f7b6f38e44ec895aaa</title>
<g id="a_node6"><a xlink:href="dir_60d1624911c2c9f7b6f38e44ec895aaa.html" target="_top" xlink:title="math">
<polygon fill="#edf0f7" stroke="red" stroke-dasharray="5,2" points="326,-35 284,-35 284,-16 326,-16 326,-35"/>
<text text-anchor="middle" x="305" y="-23" font-family="Helvetica,sans-Serif" font-size="10.00">math</text>
</a>
</g>
</g>
<!-- dir_75ced0d5626770d74ec0ab0f9ebe51e3&#45;&gt;dir_60d1624911c2c9f7b6f38e44ec895aaa -->
<g id="edge5" class="edge">
<title>dir_75ced0d5626770d74ec0ab0f9ebe51e3&#45;&gt;dir_60d1624911c2c9f7b6f38e44ec895aaa</title>
<path fill="none" stroke="#63b8ff" d="M79.65,-74.42C120.99,-67.18 198.47,-52.98 273.64,-35.17"/>
<polygon fill="#63b8ff" stroke="#63b8ff" points="274.84,-38.48 283.75,-32.75 273.21,-31.67 274.84,-38.48"/>
<g id="a_edge5&#45;headlabel"><a xlink:href="dir_000005_000117.html" target="_top" xlink:title="1">
<text text-anchor="middle" x="272.01" y="-39.58" font-family="Helvetica,sans-Serif" font-size="10.00" fill="#63b8ff">1</text>
</a>
</g>
</g>
<!-- dir_942cfae36a92b6b1c4b510e99e852d40 -->
<g id="node7" class="node">
<title>dir_942cfae36a92b6b1c4b510e99e852d40</title>
<g id="a_node7"><a xlink:href="dir_942cfae36a92b6b1c4b510e99e852d40.html" target="_top" xlink:title="vocab">
<polygon fill="#edf0f7" stroke="red" stroke-dasharray="5,2" points="390,-35 344,-35 344,-16 390,-16 390,-35"/>
<text text-anchor="middle" x="367" y="-23" font-family="Helvetica,sans-Serif" font-size="10.00">vocab</text>
</a>
</g>
</g>
<!-- dir_75ced0d5626770d74ec0ab0f9ebe51e3&#45;&gt;dir_942cfae36a92b6b1c4b510e99e852d40 -->
<g id="edge6" class="edge">
<title>dir_75ced0d5626770d74ec0ab0f9ebe51e3&#45;&gt;dir_942cfae36a92b6b1c4b510e99e852d40</title>
<path fill="none" stroke="#63b8ff" d="M79.73,-75.9C130.09,-69.58 235.54,-55.38 334.17,-34.98"/>
<polygon fill="#63b8ff" stroke="#63b8ff" points="334.93,-38.39 344,-32.92 333.49,-31.54 334.93,-38.39"/>
<g id="a_edge6&#45;headlabel"><a xlink:href="dir_000005_000189.html" target="_top" xlink:title="15">
<text text-anchor="middle" x="331.99" y="-39.41" font-family="Helvetica,sans-Serif" font-size="10.00" fill="#63b8ff">15</text>
</a>
</g>
</g>
<!-- dir_a60d4453151dca6bdd8e5fcc350e379b -->
<g id="node8" class="node">
<title>dir_a60d4453151dca6bdd8e5fcc350e379b</title>
<g id="a_node8"><a xlink:href="dir_a60d4453151dca6bdd8e5fcc350e379b.html" target="_top" xlink:title="assert">
<polygon fill="#edf0f7" stroke="#7f7f7f" points="455.5,-35 408.5,-35 408.5,-16 455.5,-16 455.5,-35"/>
<text text-anchor="middle" x="432" y="-23" font-family="Helvetica,sans-Serif" font-size="10.00">assert</text>
</a>
</g>
</g>
<!-- dir_75ced0d5626770d74ec0ab0f9ebe51e3&#45;&gt;dir_a60d4453151dca6bdd8e5fcc350e379b -->
<g id="edge7" class="edge">
<title>dir_75ced0d5626770d74ec0ab0f9ebe51e3&#45;&gt;dir_a60d4453151dca6bdd8e5fcc350e379b</title>
<path fill="none" stroke="#63b8ff" d="M79.61,-76.99C138.44,-71.72 274.31,-58.23 398.25,-34.9"/>
<polygon fill="#63b8ff" stroke="#63b8ff" points="399.12,-38.3 408.29,-32.99 397.81,-31.42 399.12,-38.3"/>
<g id="a_edge7&#45;headlabel"><a xlink:href="dir_000005_000018.html" target="_top" xlink:title="4">
<text text-anchor="middle" x="396.12" y="-39.26" font-family="Helvetica,sans-Serif" font-size="10.00" fill="#63b8ff">4</text>
</a>
</g>
</g>
<!-- dir_aaf67126bd5deefc4d96704f76f22cc2 -->
<g id="node9" class="node">
<title>dir_aaf67126bd5deefc4d96704f76f22cc2</title>
<g id="a_node9"><a xlink:href="dir_aaf67126bd5deefc4d96704f76f22cc2.html" target="_top" xlink:title="platform">
<polygon fill="#edf0f7" stroke="#7f7f7f" points="532.5,-35 473.5,-35 473.5,-16 532.5,-16 532.5,-35"/>
<text text-anchor="middle" x="503" y="-23" font-family="Helvetica,sans-Serif" font-size="10.00">platform</text>
</a>
</g>
</g>
<!-- dir_75ced0d5626770d74ec0ab0f9ebe51e3&#45;&gt;dir_aaf67126bd5deefc4d96704f76f22cc2 -->
<g id="edge8" class="edge">
<title>dir_75ced0d5626770d74ec0ab0f9ebe51e3&#45;&gt;dir_aaf67126bd5deefc4d96704f76f22cc2</title>
<path fill="none" stroke="#63b8ff" d="M79.59,-77.48C146.32,-72.69 313.73,-59.29 462.94,-35.18"/>
<polygon fill="#63b8ff" stroke="#63b8ff" points="463.89,-38.57 473.19,-33.5 462.76,-31.66 463.89,-38.57"/>
<g id="a_edge8&#45;headlabel"><a xlink:href="dir_000005_000135.html" target="_top" xlink:title="3">
<text text-anchor="middle" x="460.8" y="-39.45" font-family="Helvetica,sans-Serif" font-size="10.00" fill="#63b8ff">3</text>
</a>
</g>
</g>
<!-- dir_f555f996eeee1ebe901dc71e0c5de8ff -->
<g id="node10" class="node">
<title>dir_f555f996eeee1ebe901dc71e0c5de8ff</title>
<g id="a_node10"><a xlink:href="dir_f555f996eeee1ebe901dc71e0c5de8ff.html" target="_top" xlink:title="meta">
<polygon fill="#edf0f7" stroke="#7f7f7f" points="593,-35 551,-35 551,-16 593,-16 593,-35"/>
<text text-anchor="middle" x="572" y="-23" font-family="Helvetica,sans-Serif" font-size="10.00">meta</text>
</a>
</g>
</g>
<!-- dir_75ced0d5626770d74ec0ab0f9ebe51e3&#45;&gt;dir_f555f996eeee1ebe901dc71e0c5de8ff -->
<g id="edge9" class="edge">
<title>dir_75ced0d5626770d74ec0ab0f9ebe51e3&#45;&gt;dir_f555f996eeee1ebe901dc71e0c5de8ff</title>
<path fill="none" stroke="#63b8ff" d="M79.65,-78.74C155.2,-76.38 361.08,-67.43 540.91,-34.85"/>
<polygon fill="#63b8ff" stroke="#63b8ff" points="541.61,-38.28 550.81,-33.03 540.34,-31.4 541.61,-38.28"/>
<g id="a_edge9&#45;headlabel"><a xlink:href="dir_000005_000122.html" target="_top" xlink:title="6">
<text text-anchor="middle" x="538.59" y="-39.23" font-family="Helvetica,sans-Serif" font-size="10.00" fill="#63b8ff">6</text>
</a>
</g>
</g>
</g>
</svg>
