<?xml version="1.0" encoding="UTF-8" standalone="no"?>
<!DOCTYPE svg PUBLIC "-//W3C//DTD SVG 1.1//EN"
 "http://www.w3.org/Graphics/SVG/1.1/DTD/svg11.dtd">
<!-- Generated by graphviz version 2.43.0 (0)
 -->
<!-- Title: libs/di/include/di/container/path Pages: 1 -->
<svg width="732pt" height="133pt"
 viewBox="0.00 0.00 732.00 133.00" xmlns="http://www.w3.org/2000/svg" xmlns:xlink="http://www.w3.org/1999/xlink">
<g id="graph0" class="graph" transform="scale(1 1) rotate(0) translate(4 129)">
<title>libs/di/include/di/container/path</title>
<g id="clust1" class="cluster">
<title>clusterdir_521de572ae4fe2915cc70a876c52f5b7</title>
<g id="a_clust1"><a xlink:href="dir_521de572ae4fe2915cc70a876c52f5b7.html" target="_top" xlink:title="container">
<polygon fill="#edf0f7" stroke="#7f7f7f" stroke-dasharray="5,2" points="8,-8 8,-117 558,-117 558,-8 8,-8"/>
<text text-anchor="middle" x="283" y="-105" font-family="Helvetica,sans-Serif" font-size="10.00">container</text>
</a>
</g>
</g>
<!-- dir_093cb0cf41c3d9bb25543a4e1702223c -->
<g id="node1" class="node">
<title>dir_093cb0cf41c3d9bb25543a4e1702223c</title>
<g id="a_node1"><a xlink:href="dir_093cb0cf41c3d9bb25543a4e1702223c.html" target="_top" xlink:title="iterator">
<polygon fill="#a2b4d6" stroke="#404040" points="69.5,-35 16.5,-35 16.5,-16 69.5,-16 69.5,-35"/>
<text text-anchor="middle" x="43" y="-23" font-family="Helvetica,sans-Serif" font-size="10.00">iterator</text>
</a>
</g>
</g>
<!-- dir_28cb5a05dfb61a4b9ad44e468e6394a4 -->
<g id="node2" class="node">
<title>dir_28cb5a05dfb61a4b9ad44e468e6394a4</title>
<g id="a_node2"><a xlink:href="dir_28cb5a05dfb61a4b9ad44e468e6394a4.html" target="_top" xlink:title="view">
<polygon fill="#a2b4d6" stroke="#404040" points="128,-35 88,-35 88,-16 128,-16 128,-35"/>
<text text-anchor="middle" x="108" y="-23" font-family="Helvetica,sans-Serif" font-size="10.00">view</text>
</a>
</g>
</g>
<!-- dir_60528a66b99dd07a1313b3c263e646ab -->
<g id="node3" class="node">
<title>dir_60528a66b99dd07a1313b3c263e646ab</title>
<g id="a_node3"><a xlink:href="dir_60528a66b99dd07a1313b3c263e646ab.html" target="_top" xlink:title="algorithm">
<polygon fill="#a2b4d6" stroke="#404040" points="210,-35 146,-35 146,-16 210,-16 210,-35"/>
<text text-anchor="middle" x="178" y="-23" font-family="Helvetica,sans-Serif" font-size="10.00">algorithm</text>
</a>
</g>
</g>
<!-- dir_838362f34bc8d8c3545343b0166aa672 -->
<g id="node4" class="node">
<title>dir_838362f34bc8d8c3545343b0166aa672</title>
<g id="a_node4"><a xlink:href="dir_838362f34bc8d8c3545343b0166aa672.html" target="_top" xlink:title="concepts">
<polygon fill="#a2b4d6" stroke="#404040" points="288,-35 228,-35 228,-16 288,-16 288,-35"/>
<text text-anchor="middle" x="258" y="-23" font-family="Helvetica,sans-Serif" font-size="10.00">concepts</text>
</a>
</g>
</g>
<!-- dir_9f8d33513cfc97e5f9ea6bf2671e5446 -->
<g id="node5" class="node">
<title>dir_9f8d33513cfc97e5f9ea6bf2671e5446</title>
<g id="a_node5"><a xlink:href="dir_9f8d33513cfc97e5f9ea6bf2671e5446.html" target="_top" xlink:title="meta">
<polygon fill="#a2b4d6" stroke="#404040" points="348,-35 306,-35 306,-16 348,-16 348,-35"/>
<text text-anchor="middle" x="327" y="-23" font-family="Helvetica,sans-Serif" font-size="10.00">meta</text>
</a>
</g>
</g>
<!-- dir_a7b99681c56fba2abd28393cbbc3f22c -->
<g id="node6" class="node">
<title>dir_a7b99681c56fba2abd28393cbbc3f22c</title>
<g id="a_node6"><a xlink:href="dir_a7b99681c56fba2abd28393cbbc3f22c.html" target="_top" xlink:title="types">
<polygon fill="#a2b4d6" stroke="#404040" points="410,-35 366,-35 366,-16 410,-16 410,-35"/>
<text text-anchor="middle" x="388" y="-23" font-family="Helvetica,sans-Serif" font-size="10.00">types</text>
</a>
</g>
</g>
<!-- dir_bf60ba46ade030ac31a592c91e9151ea -->
<g id="node7" class="node">
<title>dir_bf60ba46ade030ac31a592c91e9151ea</title>
<g id="a_node7"><a xlink:href="dir_bf60ba46ade030ac31a592c91e9151ea.html" target="_top" xlink:title="string">
<polygon fill="#a2b4d6" stroke="#404040" points="472,-35 428,-35 428,-16 472,-16 472,-35"/>
<text text-anchor="middle" x="450" y="-23" font-family="Helvetica,sans-Serif" font-size="10.00">string</text>
</a>
</g>
</g>
<!-- dir_dd6c062645334da7e8440ac2e54ccb1d -->
<g id="node8" class="node">
<title>dir_dd6c062645334da7e8440ac2e54ccb1d</title>
<g id="a_node8"><a xlink:href="dir_dd6c062645334da7e8440ac2e54ccb1d.html" target="_top" xlink:title="interface">
<polygon fill="#a2b4d6" stroke="#404040" points="550,-35 490,-35 490,-16 550,-16 550,-35"/>
<text text-anchor="middle" x="520" y="-23" font-family="Helvetica,sans-Serif" font-size="10.00">interface</text>
</a>
</g>
</g>
<!-- dir_6190034f2ff9a5a35ab24edd979dda1c -->
<g id="node9" class="node">
<title>dir_6190034f2ff9a5a35ab24edd979dda1c</title>
<g id="a_node9"><a xlink:href="dir_6190034f2ff9a5a35ab24edd979dda1c.html" target="_top" xlink:title="path">
<polygon fill="#edf0f7" stroke="#404040" stroke-width="2" points="407,-90 369,-90 369,-71 407,-71 407,-90"/>
<text text-anchor="middle" x="388" y="-78" font-family="Helvetica,sans-Serif" font-size="10.00">path</text>
</a>
</g>
</g>
<!-- dir_6190034f2ff9a5a35ab24edd979dda1c&#45;&gt;dir_093cb0cf41c3d9bb25543a4e1702223c -->
<g id="edge1" class="edge">
<title>dir_6190034f2ff9a5a35ab24edd979dda1c&#45;&gt;dir_093cb0cf41c3d9bb25543a4e1702223c</title>
<path fill="none" stroke="#63b8ff" d="M368.74,-77.33C321.38,-71.87 195.31,-56.56 79.75,-34.98"/>
<polygon fill="#63b8ff" stroke="#63b8ff" points="80.16,-31.49 69.68,-33.08 78.86,-38.37 80.16,-31.49"/>
<g id="a_edge1&#45;headlabel"><a xlink:href="dir_000134_000108.html" target="_top" xlink:title="1">
<text text-anchor="middle" x="84.21" y="-26.87" font-family="Helvetica,sans-Serif" font-size="10.00" fill="#63b8ff">1</text>
</a>
</g>
</g>
<!-- dir_6190034f2ff9a5a35ab24edd979dda1c&#45;&gt;dir_28cb5a05dfb61a4b9ad44e468e6394a4 -->
<g id="edge2" class="edge">
<title>dir_6190034f2ff9a5a35ab24edd979dda1c&#45;&gt;dir_28cb5a05dfb61a4b9ad44e468e6394a4</title>
<path fill="none" stroke="#63b8ff" d="M368.96,-76.85C328.33,-71.05 229.99,-56.2 138.21,-35.06"/>
<polygon fill="#63b8ff" stroke="#63b8ff" points="138.74,-31.59 128.21,-32.73 137.15,-38.41 138.74,-31.59"/>
<g id="a_edge2&#45;headlabel"><a xlink:href="dir_000134_000188.html" target="_top" xlink:title="2">
<text text-anchor="middle" x="142.89" y="-27.15" font-family="Helvetica,sans-Serif" font-size="10.00" fill="#63b8ff">2</text>
</a>
</g>
</g>
<!-- dir_6190034f2ff9a5a35ab24edd979dda1c&#45;&gt;dir_60528a66b99dd07a1313b3c263e646ab -->
<g id="edge4" class="edge">
<title>dir_6190034f2ff9a5a35ab24edd979dda1c&#45;&gt;dir_60528a66b99dd07a1313b3c263e646ab</title>
<path fill="none" stroke="#63b8ff" d="M368.99,-74.7C335.48,-66.25 265.16,-48.5 219.83,-37.06"/>
<polygon fill="#63b8ff" stroke="#63b8ff" points="220.56,-33.63 210,-34.58 218.84,-40.42 220.56,-33.63"/>
<g id="a_edge4&#45;headlabel"><a xlink:href="dir_000134_000003.html" target="_top" xlink:title="9">
<text text-anchor="middle" x="224.74" y="-29.26" font-family="Helvetica,sans-Serif" font-size="10.00" fill="#63b8ff">9</text>
</a>
</g>
</g>
<!-- dir_6190034f2ff9a5a35ab24edd979dda1c&#45;&gt;dir_838362f34bc8d8c3545343b0166aa672 -->
<g id="edge5" class="edge">
<title>dir_6190034f2ff9a5a35ab24edd979dda1c&#45;&gt;dir_838362f34bc8d8c3545343b0166aa672</title>
<path fill="none" stroke="#63b8ff" d="M368.82,-71.68C347.62,-63.04 313.19,-49 288.33,-38.86"/>
<polygon fill="#63b8ff" stroke="#63b8ff" points="289.57,-35.59 278.99,-35.06 286.92,-42.07 289.57,-35.59"/>
<g id="a_edge5&#45;headlabel"><a xlink:href="dir_000134_000037.html" target="_top" xlink:title="2">
<text text-anchor="middle" x="293.97" y="-31.82" font-family="Helvetica,sans-Serif" font-size="10.00" fill="#63b8ff">2</text>
</a>
</g>
</g>
<!-- dir_6190034f2ff9a5a35ab24edd979dda1c&#45;&gt;dir_9f8d33513cfc97e5f9ea6bf2671e5446 -->
<g id="edge7" class="edge">
<title>dir_6190034f2ff9a5a35ab24edd979dda1c&#45;&gt;dir_9f8d33513cfc97e5f9ea6bf2671e5446</title>
<path fill="none" stroke="#63b8ff" d="M378.2,-70.98C369.18,-63.15 355.59,-51.34 344.68,-41.86"/>
<polygon fill="#63b8ff" stroke="#63b8ff" points="346.82,-39.09 336.98,-35.17 342.23,-44.37 346.82,-39.09"/>
<g id="a_edge7&#45;headlabel"><a xlink:href="dir_000134_000120.html" target="_top" xlink:title="1">
<text text-anchor="middle" x="351.4" y="-36.8" font-family="Helvetica,sans-Serif" font-size="10.00" fill="#63b8ff">1</text>
</a>
</g>
</g>
<!-- dir_6190034f2ff9a5a35ab24edd979dda1c&#45;&gt;dir_a7b99681c56fba2abd28393cbbc3f22c -->
<g id="edge8" class="edge">
<title>dir_6190034f2ff9a5a35ab24edd979dda1c&#45;&gt;dir_a7b99681c56fba2abd28393cbbc3f22c</title>
<path fill="none" stroke="#63b8ff" d="M388,-70.75C388,-63.8 388,-53.85 388,-45.13"/>
<polygon fill="#63b8ff" stroke="#63b8ff" points="391.5,-45.09 388,-35.09 384.5,-45.09 391.5,-45.09"/>
<g id="a_edge8&#45;headlabel"><a xlink:href="dir_000134_000178.html" target="_top" xlink:title="1">
<text text-anchor="middle" x="394.34" y="-46.18" font-family="Helvetica,sans-Serif" font-size="10.00" fill="#63b8ff">1</text>
</a>
</g>
</g>
<!-- dir_6190034f2ff9a5a35ab24edd979dda1c&#45;&gt;dir_bf60ba46ade030ac31a592c91e9151ea -->
<g id="edge9" class="edge">
<title>dir_6190034f2ff9a5a35ab24edd979dda1c&#45;&gt;dir_bf60ba46ade030ac31a592c91e9151ea</title>
<path fill="none" stroke="#63b8ff" d="M397.96,-70.98C407.13,-63.15 420.94,-51.34 432.03,-41.86"/>
<polygon fill="#63b8ff" stroke="#63b8ff" points="434.53,-44.33 439.86,-35.17 429.98,-39.01 434.53,-44.33"/>
<g id="a_edge9&#45;headlabel"><a xlink:href="dir_000134_000161.html" target="_top" xlink:title="11">
<text text-anchor="middle" x="433.64" y="-46.32" font-family="Helvetica,sans-Serif" font-size="10.00" fill="#63b8ff">11</text>
</a>
</g>
</g>
<!-- dir_6190034f2ff9a5a35ab24edd979dda1c&#45;&gt;dir_dd6c062645334da7e8440ac2e54ccb1d -->
<g id="edge10" class="edge">
<title>dir_6190034f2ff9a5a35ab24edd979dda1c&#45;&gt;dir_dd6c062645334da7e8440ac2e54ccb1d</title>
<path fill="none" stroke="#63b8ff" d="M407.19,-71.79C428.66,-63.18 463.72,-49.1 489.07,-38.92"/>
<polygon fill="#63b8ff" stroke="#63b8ff" points="490.62,-42.07 498.59,-35.1 488.01,-35.57 490.62,-42.07"/>
<g id="a_edge10&#45;headlabel"><a xlink:href="dir_000134_000095.html" target="_top" xlink:title="1">
<text text-anchor="middle" x="488.34" y="-43.54" font-family="Helvetica,sans-Serif" font-size="10.00" fill="#63b8ff">1</text>
</a>
</g>
</g>
<!-- dir_4535887b2cdca47e625f259d07db0112 -->
<g id="node10" class="node">
<title>dir_4535887b2cdca47e625f259d07db0112</title>
<g id="a_node10"><a xlink:href="dir_4535887b2cdca47e625f259d07db0112.html" target="_top" xlink:title="util">
<polygon fill="#edf0f7" stroke="#7f7f7f" points="600,-35 568,-35 568,-16 600,-16 600,-35"/>
<text text-anchor="middle" x="584" y="-23" font-family="Helvetica,sans-Serif" font-size="10.00">util</text>
</a>
</g>
</g>
<!-- dir_6190034f2ff9a5a35ab24edd979dda1c&#45;&gt;dir_4535887b2cdca47e625f259d07db0112 -->
<g id="edge3" class="edge">
<title>dir_6190034f2ff9a5a35ab24edd979dda1c&#45;&gt;dir_4535887b2cdca47e625f259d07db0112</title>
<path fill="none" stroke="#63b8ff" d="M407,-75.42C437.52,-68.69 499.47,-54.38 558,-36.12"/>
<polygon fill="#63b8ff" stroke="#63b8ff" points="559.26,-39.39 567.74,-33.03 557.15,-32.71 559.26,-39.39"/>
<g id="a_edge3&#45;headlabel"><a xlink:href="dir_000134_000185.html" target="_top" xlink:title="1">
<text text-anchor="middle" x="556.69" y="-40.68" font-family="Helvetica,sans-Serif" font-size="10.00" fill="#63b8ff">1</text>
</a>
</g>
</g>
<!-- dir_942cfae36a92b6b1c4b510e99e852d40 -->
<g id="node11" class="node">
<title>dir_942cfae36a92b6b1c4b510e99e852d40</title>
<g id="a_node11"><a xlink:href="dir_942cfae36a92b6b1c4b510e99e852d40.html" target="_top" xlink:title="vocab">
<polygon fill="#edf0f7" stroke="red" stroke-dasharray="5,2" points="664,-35 618,-35 618,-16 664,-16 664,-35"/>
<text text-anchor="middle" x="641" y="-23" font-family="Helvetica,sans-Serif" font-size="10.00">vocab</text>
</a>
</g>
</g>
<!-- dir_6190034f2ff9a5a35ab24edd979dda1c&#45;&gt;dir_942cfae36a92b6b1c4b510e99e852d40 -->
<g id="edge6" class="edge">
<title>dir_6190034f2ff9a5a35ab24edd979dda1c&#45;&gt;dir_942cfae36a92b6b1c4b510e99e852d40</title>
<path fill="none" stroke="#63b8ff" d="M407,-76.08C443.85,-69.36 527.78,-53.63 608.18,-35.07"/>
<polygon fill="#63b8ff" stroke="#63b8ff" points="609.02,-38.47 617.97,-32.8 607.44,-31.65 609.02,-38.47"/>
<g id="a_edge6&#45;headlabel"><a xlink:href="dir_000134_000189.html" target="_top" xlink:title="6">
<text text-anchor="middle" x="606.17" y="-39.55" font-family="Helvetica,sans-Serif" font-size="10.00" fill="#63b8ff">6</text>
</a>
</g>
</g>
<!-- dir_f555f996eeee1ebe901dc71e0c5de8ff -->
<g id="node12" class="node">
<title>dir_f555f996eeee1ebe901dc71e0c5de8ff</title>
<g id="a_node12"><a xlink:href="dir_f555f996eeee1ebe901dc71e0c5de8ff.html" target="_top" xlink:title="meta">
<polygon fill="#edf0f7" stroke="#7f7f7f" points="724,-35 682,-35 682,-16 724,-16 724,-35"/>
<text text-anchor="middle" x="703" y="-23" font-family="Helvetica,sans-Serif" font-size="10.00">meta</text>
</a>
</g>
</g>
<!-- dir_6190034f2ff9a5a35ab24edd979dda1c&#45;&gt;dir_f555f996eeee1ebe901dc71e0c5de8ff -->
<g id="edge11" class="edge">
<title>dir_6190034f2ff9a5a35ab24edd979dda1c&#45;&gt;dir_f555f996eeee1ebe901dc71e0c5de8ff</title>
<path fill="none" stroke="#63b8ff" d="M407.16,-77.32C451.87,-72.07 566.7,-57.6 671.95,-35"/>
<polygon fill="#63b8ff" stroke="#63b8ff" points="672.75,-38.41 681.78,-32.86 671.26,-31.57 672.75,-38.41"/>
<g id="a_edge11&#45;headlabel"><a xlink:href="dir_000134_000122.html" target="_top" xlink:title="1">
<text text-anchor="middle" x="669.84" y="-39.44" font-family="Helvetica,sans-Serif" font-size="10.00" fill="#63b8ff">1</text>
</a>
</g>
</g>
</g>
</svg>
