<?xml version="1.0" encoding="UTF-8" standalone="no"?>
<!DOCTYPE svg PUBLIC "-//W3C//DTD SVG 1.1//EN"
 "http://www.w3.org/Graphics/SVG/1.1/DTD/svg11.dtd">
<!-- Generated by graphviz version 2.43.0 (0)
 -->
<!-- Title: libs/di/include/di/execution/any Pages: 1 -->
<svg width="884pt" height="133pt"
 viewBox="0.00 0.00 884.00 133.00" xmlns="http://www.w3.org/2000/svg" xmlns:xlink="http://www.w3.org/1999/xlink">
<g id="graph0" class="graph" transform="scale(1 1) rotate(0) translate(4 129)">
<title>libs/di/include/di/execution/any</title>
<g id="clust1" class="cluster">
<title>clusterdir_182dab0b86097ba072332b7ad8fceb7f</title>
<g id="a_clust1"><a xlink:href="dir_182dab0b86097ba072332b7ad8fceb7f.html" target="_top" xlink:title="execution">
<polygon fill="#edf0f7" stroke="#7f7f7f" stroke-dasharray="5,2" points="8,-8 8,-117 520,-117 520,-8 8,-8"/>
<text text-anchor="middle" x="264" y="-105" font-family="Helvetica,sans-Serif" font-size="10.00">execution</text>
</a>
</g>
</g>
<!-- dir_27e1a0af1927749316784e6421682a5e -->
<g id="node1" class="node">
<title>dir_27e1a0af1927749316784e6421682a5e</title>
<g id="a_node1"><a xlink:href="dir_27e1a0af1927749316784e6421682a5e.html" target="_top" xlink:title="interface">
<polygon fill="#a2b4d6" stroke="#404040" points="76,-35 16,-35 16,-16 76,-16 76,-35"/>
<text text-anchor="middle" x="46" y="-23" font-family="Helvetica,sans-Serif" font-size="10.00">interface</text>
</a>
</g>
</g>
<!-- dir_42e3132b523eec61d254ecfd76390a40 -->
<g id="node2" class="node">
<title>dir_42e3132b523eec61d254ecfd76390a40</title>
<g id="a_node2"><a xlink:href="dir_42e3132b523eec61d254ecfd76390a40.html" target="_top" xlink:title="algorithm">
<polygon fill="#a2b4d6" stroke="#404040" points="158,-35 94,-35 94,-16 158,-16 158,-35"/>
<text text-anchor="middle" x="126" y="-23" font-family="Helvetica,sans-Serif" font-size="10.00">algorithm</text>
</a>
</g>
</g>
<!-- dir_569ed69d6bb9bf9a95676c3a98a04440 -->
<g id="node3" class="node">
<title>dir_569ed69d6bb9bf9a95676c3a98a04440</title>
<g id="a_node3"><a xlink:href="dir_569ed69d6bb9bf9a95676c3a98a04440.html" target="_top" xlink:title="types">
<polygon fill="#a2b4d6" stroke="#404040" points="220,-35 176,-35 176,-16 220,-16 220,-35"/>
<text text-anchor="middle" x="198" y="-23" font-family="Helvetica,sans-Serif" font-size="10.00">types</text>
</a>
</g>
</g>
<!-- dir_57df25969c72935fa0fddf8bd8d3498c -->
<g id="node4" class="node">
<title>dir_57df25969c72935fa0fddf8bd8d3498c</title>
<g id="a_node4"><a xlink:href="dir_57df25969c72935fa0fddf8bd8d3498c.html" target="_top" xlink:title="meta">
<polygon fill="#a2b4d6" stroke="#404040" points="280,-35 238,-35 238,-16 280,-16 280,-35"/>
<text text-anchor="middle" x="259" y="-23" font-family="Helvetica,sans-Serif" font-size="10.00">meta</text>
</a>
</g>
</g>
<!-- dir_64711c3453254974b931c55eb005475a -->
<g id="node5" class="node">
<title>dir_64711c3453254974b931c55eb005475a</title>
<g id="a_node5"><a xlink:href="dir_64711c3453254974b931c55eb005475a.html" target="_top" xlink:title="coroutine">
<polygon fill="#a2b4d6" stroke="#404040" points="360,-35 298,-35 298,-16 360,-16 360,-35"/>
<text text-anchor="middle" x="329" y="-23" font-family="Helvetica,sans-Serif" font-size="10.00">coroutine</text>
</a>
</g>
</g>
<!-- dir_72b20bf6291bd35729057dcb4ccbac76 -->
<g id="node6" class="node">
<title>dir_72b20bf6291bd35729057dcb4ccbac76</title>
<g id="a_node6"><a xlink:href="dir_72b20bf6291bd35729057dcb4ccbac76.html" target="_top" xlink:title="concepts">
<polygon fill="#a2b4d6" stroke="#404040" points="438,-35 378,-35 378,-16 438,-16 438,-35"/>
<text text-anchor="middle" x="408" y="-23" font-family="Helvetica,sans-Serif" font-size="10.00">concepts</text>
</a>
</g>
</g>
<!-- dir_8620533e8531467fdbfb737d3ec42837 -->
<g id="node7" class="node">
<title>dir_8620533e8531467fdbfb737d3ec42837</title>
<g id="a_node7"><a xlink:href="dir_8620533e8531467fdbfb737d3ec42837.html" target="_top" xlink:title="receiver">
<polygon fill="#a2b4d6" stroke="#404040" points="512,-35 456,-35 456,-16 512,-16 512,-35"/>
<text text-anchor="middle" x="484" y="-23" font-family="Helvetica,sans-Serif" font-size="10.00">receiver</text>
</a>
</g>
</g>
<!-- dir_4b549e515c13f825436107b82ffc9c54 -->
<g id="node8" class="node">
<title>dir_4b549e515c13f825436107b82ffc9c54</title>
<g id="a_node8"><a xlink:href="dir_4b549e515c13f825436107b82ffc9c54.html" target="_top" xlink:title="any">
<polygon fill="#edf0f7" stroke="#404040" stroke-width="2" points="501.5,-90 466.5,-90 466.5,-71 501.5,-71 501.5,-90"/>
<text text-anchor="middle" x="484" y="-78" font-family="Helvetica,sans-Serif" font-size="10.00">any</text>
</a>
</g>
</g>
<!-- dir_4b549e515c13f825436107b82ffc9c54&#45;&gt;dir_27e1a0af1927749316784e6421682a5e -->
<g id="edge2" class="edge">
<title>dir_4b549e515c13f825436107b82ffc9c54&#45;&gt;dir_27e1a0af1927749316784e6421682a5e</title>
<path fill="none" stroke="#63b8ff" d="M466.41,-78.19C411.63,-73.98 239.13,-59.7 86.22,-35.04"/>
<polygon fill="#63b8ff" stroke="#63b8ff" points="86.61,-31.56 76.17,-33.4 85.48,-38.47 86.61,-31.56"/>
<g id="a_edge2&#45;headlabel"><a xlink:href="dir_000009_000096.html" target="_top" xlink:title="3">
<text text-anchor="middle" x="90.61" y="-26.83" font-family="Helvetica,sans-Serif" font-size="10.00" fill="#63b8ff">3</text>
</a>
</g>
</g>
<!-- dir_4b549e515c13f825436107b82ffc9c54&#45;&gt;dir_42e3132b523eec61d254ecfd76390a40 -->
<g id="edge4" class="edge">
<title>dir_4b549e515c13f825436107b82ffc9c54&#45;&gt;dir_42e3132b523eec61d254ecfd76390a40</title>
<path fill="none" stroke="#63b8ff" d="M466.41,-77.44C419.63,-71.87 288.08,-55.65 168.27,-35.12"/>
<polygon fill="#63b8ff" stroke="#63b8ff" points="168.64,-31.63 158.19,-33.38 167.45,-38.53 168.64,-31.63"/>
<g id="a_edge4&#45;headlabel"><a xlink:href="dir_000009_000004.html" target="_top" xlink:title="2">
<text text-anchor="middle" x="172.67" y="-26.95" font-family="Helvetica,sans-Serif" font-size="10.00" fill="#63b8ff">2</text>
</a>
</g>
</g>
<!-- dir_4b549e515c13f825436107b82ffc9c54&#45;&gt;dir_569ed69d6bb9bf9a95676c3a98a04440 -->
<g id="edge6" class="edge">
<title>dir_4b549e515c13f825436107b82ffc9c54&#45;&gt;dir_569ed69d6bb9bf9a95676c3a98a04440</title>
<path fill="none" stroke="#63b8ff" d="M466.26,-77C426.03,-71.2 324.62,-55.87 230.27,-35.11"/>
<polygon fill="#63b8ff" stroke="#63b8ff" points="230.81,-31.64 220.29,-32.88 229.29,-38.47 230.81,-31.64"/>
<g id="a_edge6&#45;headlabel"><a xlink:href="dir_000009_000179.html" target="_top" xlink:title="1">
<text text-anchor="middle" x="234.94" y="-27.15" font-family="Helvetica,sans-Serif" font-size="10.00" fill="#63b8ff">1</text>
</a>
</g>
</g>
<!-- dir_4b549e515c13f825436107b82ffc9c54&#45;&gt;dir_57df25969c72935fa0fddf8bd8d3498c -->
<g id="edge7" class="edge">
<title>dir_4b549e515c13f825436107b82ffc9c54&#45;&gt;dir_57df25969c72935fa0fddf8bd8d3498c</title>
<path fill="none" stroke="#63b8ff" d="M466.45,-75.81C433.73,-68.87 361.03,-53.14 290.24,-35.22"/>
<polygon fill="#63b8ff" stroke="#63b8ff" points="290.82,-31.75 280.27,-32.67 289.09,-38.54 290.82,-31.75"/>
<g id="a_edge7&#45;headlabel"><a xlink:href="dir_000009_000121.html" target="_top" xlink:title="1">
<text text-anchor="middle" x="295.01" y="-27.39" font-family="Helvetica,sans-Serif" font-size="10.00" fill="#63b8ff">1</text>
</a>
</g>
</g>
<!-- dir_4b549e515c13f825436107b82ffc9c54&#45;&gt;dir_64711c3453254974b931c55eb005475a -->
<g id="edge8" class="edge">
<title>dir_4b549e515c13f825436107b82ffc9c54&#45;&gt;dir_64711c3453254974b931c55eb005475a</title>
<path fill="none" stroke="#63b8ff" d="M466.22,-73.42C441.32,-64.91 395.56,-49.26 363.76,-38.39"/>
<polygon fill="#63b8ff" stroke="#63b8ff" points="364.57,-34.96 353.97,-35.04 362.3,-41.59 364.57,-34.96"/>
<g id="a_edge8&#45;headlabel"><a xlink:href="dir_000009_000054.html" target="_top" xlink:title="1">
<text text-anchor="middle" x="368.89" y="-30.94" font-family="Helvetica,sans-Serif" font-size="10.00" fill="#63b8ff">1</text>
</a>
</g>
</g>
<!-- dir_4b549e515c13f825436107b82ffc9c54&#45;&gt;dir_72b20bf6291bd35729057dcb4ccbac76 -->
<g id="edge9" class="edge">
<title>dir_4b549e515c13f825436107b82ffc9c54&#45;&gt;dir_72b20bf6291bd35729057dcb4ccbac76</title>
<path fill="none" stroke="#63b8ff" d="M471.79,-70.98C460.22,-62.92 442.62,-50.65 428.84,-41.03"/>
<polygon fill="#63b8ff" stroke="#63b8ff" points="430.64,-38.02 420.43,-35.17 426.63,-43.76 430.64,-38.02"/>
<g id="a_edge9&#45;headlabel"><a xlink:href="dir_000009_000038.html" target="_top" xlink:title="8">
<text text-anchor="middle" x="435.21" y="-35.25" font-family="Helvetica,sans-Serif" font-size="10.00" fill="#63b8ff">8</text>
</a>
</g>
</g>
<!-- dir_4b549e515c13f825436107b82ffc9c54&#45;&gt;dir_8620533e8531467fdbfb737d3ec42837 -->
<g id="edge10" class="edge">
<title>dir_4b549e515c13f825436107b82ffc9c54&#45;&gt;dir_8620533e8531467fdbfb737d3ec42837</title>
<path fill="none" stroke="#63b8ff" d="M484,-70.75C484,-63.8 484,-53.85 484,-45.13"/>
<polygon fill="#63b8ff" stroke="#63b8ff" points="487.5,-45.09 484,-35.09 480.5,-45.09 487.5,-45.09"/>
<g id="a_edge10&#45;headlabel"><a xlink:href="dir_000009_000144.html" target="_top" xlink:title="4">
<text text-anchor="middle" x="490.34" y="-46.18" font-family="Helvetica,sans-Serif" font-size="10.00" fill="#63b8ff">4</text>
</a>
</g>
</g>
<!-- dir_0669efae56692bb73da75efb5ebbccdf -->
<g id="node9" class="node">
<title>dir_0669efae56692bb73da75efb5ebbccdf</title>
<g id="a_node9"><a xlink:href="dir_0669efae56692bb73da75efb5ebbccdf.html" target="_top" xlink:title="function">
<polygon fill="#edf0f7" stroke="red" stroke-dasharray="5,2" points="586,-35 530,-35 530,-16 586,-16 586,-35"/>
<text text-anchor="middle" x="558" y="-23" font-family="Helvetica,sans-Serif" font-size="10.00">function</text>
</a>
</g>
</g>
<!-- dir_4b549e515c13f825436107b82ffc9c54&#45;&gt;dir_0669efae56692bb73da75efb5ebbccdf -->
<g id="edge1" class="edge">
<title>dir_4b549e515c13f825436107b82ffc9c54&#45;&gt;dir_0669efae56692bb73da75efb5ebbccdf</title>
<path fill="none" stroke="#63b8ff" d="M495.89,-70.98C507.15,-62.92 524.29,-50.65 537.71,-41.03"/>
<polygon fill="#63b8ff" stroke="#63b8ff" points="539.8,-43.84 545.89,-35.17 535.73,-38.15 539.8,-43.84"/>
<g id="a_edge1&#45;headlabel"><a xlink:href="dir_000009_000082.html" target="_top" xlink:title="3">
<text text-anchor="middle" x="538.53" y="-45.74" font-family="Helvetica,sans-Serif" font-size="10.00" fill="#63b8ff">3</text>
</a>
</g>
</g>
<!-- dir_30ecaf38acae77be14fb9173f98f8612 -->
<g id="node10" class="node">
<title>dir_30ecaf38acae77be14fb9173f98f8612</title>
<g id="a_node10"><a xlink:href="dir_30ecaf38acae77be14fb9173f98f8612.html" target="_top" xlink:title="types">
<polygon fill="#edf0f7" stroke="#7f7f7f" points="648,-35 604,-35 604,-16 648,-16 648,-35"/>
<text text-anchor="middle" x="626" y="-23" font-family="Helvetica,sans-Serif" font-size="10.00">types</text>
</a>
</g>
</g>
<!-- dir_4b549e515c13f825436107b82ffc9c54&#45;&gt;dir_30ecaf38acae77be14fb9173f98f8612 -->
<g id="edge3" class="edge">
<title>dir_4b549e515c13f825436107b82ffc9c54&#45;&gt;dir_30ecaf38acae77be14fb9173f98f8612</title>
<path fill="none" stroke="#63b8ff" d="M501.7,-72.89C524.84,-64.26 565.79,-48.97 594.34,-38.32"/>
<polygon fill="#63b8ff" stroke="#63b8ff" points="595.73,-41.53 603.87,-34.76 593.28,-34.98 595.73,-41.53"/>
<g id="a_edge3&#45;headlabel"><a xlink:href="dir_000009_000180.html" target="_top" xlink:title="1">
<text text-anchor="middle" x="593.35" y="-42.95" font-family="Helvetica,sans-Serif" font-size="10.00" fill="#63b8ff">1</text>
</a>
</g>
</g>
<!-- dir_4535887b2cdca47e625f259d07db0112 -->
<g id="node11" class="node">
<title>dir_4535887b2cdca47e625f259d07db0112</title>
<g id="a_node11"><a xlink:href="dir_4535887b2cdca47e625f259d07db0112.html" target="_top" xlink:title="util">
<polygon fill="#edf0f7" stroke="#7f7f7f" points="698,-35 666,-35 666,-16 698,-16 698,-35"/>
<text text-anchor="middle" x="682" y="-23" font-family="Helvetica,sans-Serif" font-size="10.00">util</text>
</a>
</g>
</g>
<!-- dir_4b549e515c13f825436107b82ffc9c54&#45;&gt;dir_4535887b2cdca47e625f259d07db0112 -->
<g id="edge5" class="edge">
<title>dir_4b549e515c13f825436107b82ffc9c54&#45;&gt;dir_4535887b2cdca47e625f259d07db0112</title>
<path fill="none" stroke="#63b8ff" d="M501.8,-75.39C531.7,-68.4 594.06,-53.38 655.99,-35.12"/>
<polygon fill="#63b8ff" stroke="#63b8ff" points="657.33,-38.38 665.92,-32.17 655.34,-31.67 657.33,-38.38"/>
<g id="a_edge5&#45;headlabel"><a xlink:href="dir_000009_000185.html" target="_top" xlink:title="3">
<text text-anchor="middle" x="654.7" y="-39.62" font-family="Helvetica,sans-Serif" font-size="10.00" fill="#63b8ff">3</text>
</a>
</g>
</g>
<!-- dir_942cfae36a92b6b1c4b510e99e852d40 -->
<g id="node12" class="node">
<title>dir_942cfae36a92b6b1c4b510e99e852d40</title>
<g id="a_node12"><a xlink:href="dir_942cfae36a92b6b1c4b510e99e852d40.html" target="_top" xlink:title="vocab">
<polygon fill="#edf0f7" stroke="red" stroke-dasharray="5,2" points="762,-35 716,-35 716,-16 762,-16 762,-35"/>
<text text-anchor="middle" x="739" y="-23" font-family="Helvetica,sans-Serif" font-size="10.00">vocab</text>
</a>
</g>
</g>
<!-- dir_4b549e515c13f825436107b82ffc9c54&#45;&gt;dir_942cfae36a92b6b1c4b510e99e852d40 -->
<g id="edge11" class="edge">
<title>dir_4b549e515c13f825436107b82ffc9c54&#45;&gt;dir_942cfae36a92b6b1c4b510e99e852d40</title>
<path fill="none" stroke="#63b8ff" d="M501.71,-76.36C538.08,-69.82 623.99,-53.95 705.99,-35.11"/>
<polygon fill="#63b8ff" stroke="#63b8ff" points="707.02,-38.47 715.97,-32.8 705.44,-31.65 707.02,-38.47"/>
<g id="a_edge11&#45;headlabel"><a xlink:href="dir_000009_000189.html" target="_top" xlink:title="4">
<text text-anchor="middle" x="704.16" y="-39.55" font-family="Helvetica,sans-Serif" font-size="10.00" fill="#63b8ff">4</text>
</a>
</g>
</g>
<!-- dir_e44b40e2f7a090819cf1915a0b103ff1 -->
<g id="node13" class="node">
<title>dir_e44b40e2f7a090819cf1915a0b103ff1</title>
<g id="a_node13"><a xlink:href="dir_e44b40e2f7a090819cf1915a0b103ff1.html" target="_top" xlink:title="any">
<polygon fill="#edf0f7" stroke="red" stroke-dasharray="5,2" points="815.5,-35 780.5,-35 780.5,-16 815.5,-16 815.5,-35"/>
<text text-anchor="middle" x="798" y="-23" font-family="Helvetica,sans-Serif" font-size="10.00">any</text>
</a>
</g>
</g>
<!-- dir_4b549e515c13f825436107b82ffc9c54&#45;&gt;dir_e44b40e2f7a090819cf1915a0b103ff1 -->
<g id="edge12" class="edge">
<title>dir_4b549e515c13f825436107b82ffc9c54&#45;&gt;dir_e44b40e2f7a090819cf1915a0b103ff1</title>
<path fill="none" stroke="#63b8ff" d="M501.65,-77.7C545.49,-73.05 662.94,-59.37 770.36,-34.8"/>
<polygon fill="#63b8ff" stroke="#63b8ff" points="771.44,-38.14 780.39,-32.46 769.85,-31.32 771.44,-38.14"/>
<g id="a_edge12&#45;headlabel"><a xlink:href="dir_000009_000008.html" target="_top" xlink:title="24">
<text text-anchor="middle" x="768.58" y="-39.22" font-family="Helvetica,sans-Serif" font-size="10.00" fill="#63b8ff">24</text>
</a>
</g>
</g>
<!-- dir_f555f996eeee1ebe901dc71e0c5de8ff -->
<g id="node14" class="node">
<title>dir_f555f996eeee1ebe901dc71e0c5de8ff</title>
<g id="a_node14"><a xlink:href="dir_f555f996eeee1ebe901dc71e0c5de8ff.html" target="_top" xlink:title="meta">
<polygon fill="#edf0f7" stroke="#7f7f7f" points="876,-35 834,-35 834,-16 876,-16 876,-35"/>
<text text-anchor="middle" x="855" y="-23" font-family="Helvetica,sans-Serif" font-size="10.00">meta</text>
</a>
</g>
</g>
<!-- dir_4b549e515c13f825436107b82ffc9c54&#45;&gt;dir_f555f996eeee1ebe901dc71e0c5de8ff -->
<g id="edge13" class="edge">
<title>dir_4b549e515c13f825436107b82ffc9c54&#45;&gt;dir_f555f996eeee1ebe901dc71e0c5de8ff</title>
<path fill="none" stroke="#63b8ff" d="M501.54,-78.12C550.84,-74.07 694.92,-60.9 823.75,-34.98"/>
<polygon fill="#63b8ff" stroke="#63b8ff" points="824.69,-38.36 833.79,-32.92 823.29,-31.5 824.69,-38.36"/>
<g id="a_edge13&#45;headlabel"><a xlink:href="dir_000009_000122.html" target="_top" xlink:title="11">
<text text-anchor="middle" x="821.74" y="-39.36" font-family="Helvetica,sans-Serif" font-size="10.00" fill="#63b8ff">11</text>
</a>
</g>
</g>
</g>
</svg>
