<?xml version="1.0" encoding="UTF-8" standalone="no"?>
<!DOCTYPE svg PUBLIC "-//W3C//DTD SVG 1.1//EN"
 "http://www.w3.org/Graphics/SVG/1.1/DTD/svg11.dtd">
<!-- Generated by graphviz version 2.43.0 (0)
 -->
<!-- Title: libs/di/include/di/any/storage Pages: 1 -->
<svg width="600pt" height="133pt"
 viewBox="0.00 0.00 600.00 133.00" xmlns="http://www.w3.org/2000/svg" xmlns:xlink="http://www.w3.org/1999/xlink">
<g id="graph0" class="graph" transform="scale(1 1) rotate(0) translate(4 129)">
<title>libs/di/include/di/any/storage</title>
<g id="clust1" class="cluster">
<title>clusterdir_e44b40e2f7a090819cf1915a0b103ff1</title>
<g id="a_clust1"><a xlink:href="dir_e44b40e2f7a090819cf1915a0b103ff1.html" target="_top" xlink:title="any">
<polygon fill="#edf0f7" stroke="#7f7f7f" stroke-dasharray="5,2" points="8,-8 8,-117 84,-117 84,-8 8,-8"/>
<text text-anchor="middle" x="46" y="-105" font-family="Helvetica,sans-Serif" font-size="10.00">any</text>
</a>
</g>
</g>
<!-- dir_93a143d10651dfa76952b16fed4fc196 -->
<g id="node1" class="node">
<title>dir_93a143d10651dfa76952b16fed4fc196</title>
<g id="a_node1"><a xlink:href="dir_93a143d10651dfa76952b16fed4fc196.html" target="_top" xlink:title="concepts">
<polygon fill="#a2b4d6" stroke="#404040" points="76,-35 16,-35 16,-16 76,-16 76,-35"/>
<text text-anchor="middle" x="46" y="-23" font-family="Helvetica,sans-Serif" font-size="10.00">concepts</text>
</a>
</g>
</g>
<!-- dir_24863a0596479db7df20b0f483688857 -->
<g id="node2" class="node">
<title>dir_24863a0596479db7df20b0f483688857</title>
<g id="a_node2"><a xlink:href="dir_24863a0596479db7df20b0f483688857.html" target="_top" xlink:title="storage">
<polygon fill="#edf0f7" stroke="#404040" stroke-width="2" points="75.5,-90 22.5,-90 22.5,-71 75.5,-71 75.5,-90"/>
<text text-anchor="middle" x="49" y="-78" font-family="Helvetica,sans-Serif" font-size="10.00">storage</text>
</a>
</g>
</g>
<!-- dir_24863a0596479db7df20b0f483688857&#45;&gt;dir_93a143d10651dfa76952b16fed4fc196 -->
<g id="edge4" class="edge">
<title>dir_24863a0596479db7df20b0f483688857&#45;&gt;dir_93a143d10651dfa76952b16fed4fc196</title>
<path fill="none" stroke="#63b8ff" d="M48.5,-70.75C48.11,-63.8 47.55,-53.85 47.05,-45.13"/>
<polygon fill="#63b8ff" stroke="#63b8ff" points="50.55,-44.88 46.49,-35.09 43.56,-45.27 50.55,-44.88"/>
<g id="a_edge4&#45;headlabel"><a xlink:href="dir_000159_000035.html" target="_top" xlink:title="5">
<text text-anchor="middle" x="53.58" y="-45.8" font-family="Helvetica,sans-Serif" font-size="10.00" fill="#63b8ff">5</text>
</a>
</g>
</g>
<!-- dir_30ecaf38acae77be14fb9173f98f8612 -->
<g id="node3" class="node">
<title>dir_30ecaf38acae77be14fb9173f98f8612</title>
<g id="a_node3"><a xlink:href="dir_30ecaf38acae77be14fb9173f98f8612.html" target="_top" xlink:title="types">
<polygon fill="#edf0f7" stroke="#7f7f7f" points="138,-35 94,-35 94,-16 138,-16 138,-35"/>
<text text-anchor="middle" x="116" y="-23" font-family="Helvetica,sans-Serif" font-size="10.00">types</text>
</a>
</g>
</g>
<!-- dir_24863a0596479db7df20b0f483688857&#45;&gt;dir_30ecaf38acae77be14fb9173f98f8612 -->
<g id="edge1" class="edge">
<title>dir_24863a0596479db7df20b0f483688857&#45;&gt;dir_30ecaf38acae77be14fb9173f98f8612</title>
<path fill="none" stroke="#63b8ff" d="M59.76,-70.98C69.77,-63.07 84.89,-51.11 96.93,-41.58"/>
<polygon fill="#63b8ff" stroke="#63b8ff" points="99.37,-44.12 105.04,-35.17 95.03,-38.63 99.37,-44.12"/>
<g id="a_edge1&#45;headlabel"><a xlink:href="dir_000159_000180.html" target="_top" xlink:title="5">
<text text-anchor="middle" x="98.31" y="-46.08" font-family="Helvetica,sans-Serif" font-size="10.00" fill="#63b8ff">5</text>
</a>
</g>
</g>
<!-- dir_4535887b2cdca47e625f259d07db0112 -->
<g id="node4" class="node">
<title>dir_4535887b2cdca47e625f259d07db0112</title>
<g id="a_node4"><a xlink:href="dir_4535887b2cdca47e625f259d07db0112.html" target="_top" xlink:title="util">
<polygon fill="#edf0f7" stroke="#7f7f7f" points="188,-35 156,-35 156,-16 188,-16 188,-35"/>
<text text-anchor="middle" x="172" y="-23" font-family="Helvetica,sans-Serif" font-size="10.00">util</text>
</a>
</g>
</g>
<!-- dir_24863a0596479db7df20b0f483688857&#45;&gt;dir_4535887b2cdca47e625f259d07db0112 -->
<g id="edge2" class="edge">
<title>dir_24863a0596479db7df20b0f483688857&#45;&gt;dir_4535887b2cdca47e625f259d07db0112</title>
<path fill="none" stroke="#63b8ff" d="M68.76,-70.98C89.92,-61.87 123.54,-47.38 146.64,-37.43"/>
<polygon fill="#63b8ff" stroke="#63b8ff" points="148.02,-40.64 155.82,-33.47 145.25,-34.21 148.02,-40.64"/>
<g id="a_edge2&#45;headlabel"><a xlink:href="dir_000159_000185.html" target="_top" xlink:title="24">
<text text-anchor="middle" x="145.84" y="-42.17" font-family="Helvetica,sans-Serif" font-size="10.00" fill="#63b8ff">24</text>
</a>
</g>
</g>
<!-- dir_521de572ae4fe2915cc70a876c52f5b7 -->
<g id="node5" class="node">
<title>dir_521de572ae4fe2915cc70a876c52f5b7</title>
<g id="a_node5"><a xlink:href="dir_521de572ae4fe2915cc70a876c52f5b7.html" target="_top" xlink:title="container">
<polygon fill="#edf0f7" stroke="red" stroke-dasharray="5,2" points="268,-35 206,-35 206,-16 268,-16 268,-35"/>
<text text-anchor="middle" x="237" y="-23" font-family="Helvetica,sans-Serif" font-size="10.00">container</text>
</a>
</g>
</g>
<!-- dir_24863a0596479db7df20b0f483688857&#45;&gt;dir_521de572ae4fe2915cc70a876c52f5b7 -->
<g id="edge3" class="edge">
<title>dir_24863a0596479db7df20b0f483688857&#45;&gt;dir_521de572ae4fe2915cc70a876c52f5b7</title>
<path fill="none" stroke="#63b8ff" d="M75.54,-72.02C107.09,-63.12 160.06,-48.19 196.68,-37.87"/>
<polygon fill="#63b8ff" stroke="#63b8ff" points="197.87,-41.17 206.55,-35.08 195.97,-34.43 197.87,-41.17"/>
<g id="a_edge3&#45;headlabel"><a xlink:href="dir_000159_000046.html" target="_top" xlink:title="14">
<text text-anchor="middle" x="195.18" y="-42.37" font-family="Helvetica,sans-Serif" font-size="10.00" fill="#63b8ff">14</text>
</a>
</g>
</g>
<!-- dir_942cfae36a92b6b1c4b510e99e852d40 -->
<g id="node6" class="node">
<title>dir_942cfae36a92b6b1c4b510e99e852d40</title>
<g id="a_node6"><a xlink:href="dir_942cfae36a92b6b1c4b510e99e852d40.html" target="_top" xlink:title="vocab">
<polygon fill="#edf0f7" stroke="red" stroke-dasharray="5,2" points="332,-35 286,-35 286,-16 332,-16 332,-35"/>
<text text-anchor="middle" x="309" y="-23" font-family="Helvetica,sans-Serif" font-size="10.00">vocab</text>
</a>
</g>
</g>
<!-- dir_24863a0596479db7df20b0f483688857&#45;&gt;dir_942cfae36a92b6b1c4b510e99e852d40 -->
<g id="edge5" class="edge">
<title>dir_24863a0596479db7df20b0f483688857&#45;&gt;dir_942cfae36a92b6b1c4b510e99e852d40</title>
<path fill="none" stroke="#63b8ff" d="M75.8,-74.87C116.78,-67.66 197.69,-52.92 275.95,-35.11"/>
<polygon fill="#63b8ff" stroke="#63b8ff" points="277.01,-38.46 285.97,-32.81 275.44,-31.64 277.01,-38.46"/>
<g id="a_edge5&#45;headlabel"><a xlink:href="dir_000159_000189.html" target="_top" xlink:title="6">
<text text-anchor="middle" x="274.14" y="-39.53" font-family="Helvetica,sans-Serif" font-size="10.00" fill="#63b8ff">6</text>
</a>
</g>
</g>
<!-- dir_9bfc08b7c5b17d043ebb5b9fbb866539 -->
<g id="node7" class="node">
<title>dir_9bfc08b7c5b17d043ebb5b9fbb866539</title>
<g id="a_node7"><a xlink:href="dir_9bfc08b7c5b17d043ebb5b9fbb866539.html" target="_top" xlink:title="sync">
<polygon fill="#edf0f7" stroke="red" stroke-dasharray="5,2" points="389.5,-35 350.5,-35 350.5,-16 389.5,-16 389.5,-35"/>
<text text-anchor="middle" x="370" y="-23" font-family="Helvetica,sans-Serif" font-size="10.00">sync</text>
</a>
</g>
</g>
<!-- dir_24863a0596479db7df20b0f483688857&#45;&gt;dir_9bfc08b7c5b17d043ebb5b9fbb866539 -->
<g id="edge6" class="edge">
<title>dir_24863a0596479db7df20b0f483688857&#45;&gt;dir_9bfc08b7c5b17d043ebb5b9fbb866539</title>
<path fill="none" stroke="#63b8ff" d="M75.79,-76.63C125.86,-71.02 237.13,-57.31 340.46,-34.82"/>
<polygon fill="#63b8ff" stroke="#63b8ff" points="341.43,-38.2 350.44,-32.62 339.92,-31.36 341.43,-38.2"/>
<g id="a_edge6&#45;headlabel"><a xlink:href="dir_000159_000162.html" target="_top" xlink:title="1">
<text text-anchor="middle" x="338.53" y="-39.24" font-family="Helvetica,sans-Serif" font-size="10.00" fill="#63b8ff">1</text>
</a>
</g>
</g>
<!-- dir_a60d4453151dca6bdd8e5fcc350e379b -->
<g id="node8" class="node">
<title>dir_a60d4453151dca6bdd8e5fcc350e379b</title>
<g id="a_node8"><a xlink:href="dir_a60d4453151dca6bdd8e5fcc350e379b.html" target="_top" xlink:title="assert">
<polygon fill="#edf0f7" stroke="#7f7f7f" points="454.5,-35 407.5,-35 407.5,-16 454.5,-16 454.5,-35"/>
<text text-anchor="middle" x="431" y="-23" font-family="Helvetica,sans-Serif" font-size="10.00">assert</text>
</a>
</g>
</g>
<!-- dir_24863a0596479db7df20b0f483688857&#45;&gt;dir_a60d4453151dca6bdd8e5fcc350e379b -->
<g id="edge7" class="edge">
<title>dir_24863a0596479db7df20b0f483688857&#45;&gt;dir_a60d4453151dca6bdd8e5fcc350e379b</title>
<path fill="none" stroke="#63b8ff" d="M75.54,-77.34C132.69,-72.44 271.78,-59.11 397.16,-35.14"/>
<polygon fill="#63b8ff" stroke="#63b8ff" points="398.17,-38.51 407.32,-33.17 396.83,-31.64 398.17,-38.51"/>
<g id="a_edge7&#45;headlabel"><a xlink:href="dir_000159_000018.html" target="_top" xlink:title="1">
<text text-anchor="middle" x="395.18" y="-39.48" font-family="Helvetica,sans-Serif" font-size="10.00" fill="#63b8ff">1</text>
</a>
</g>
</g>
<!-- dir_aaf67126bd5deefc4d96704f76f22cc2 -->
<g id="node9" class="node">
<title>dir_aaf67126bd5deefc4d96704f76f22cc2</title>
<g id="a_node9"><a xlink:href="dir_aaf67126bd5deefc4d96704f76f22cc2.html" target="_top" xlink:title="platform">
<polygon fill="#edf0f7" stroke="#7f7f7f" points="531.5,-35 472.5,-35 472.5,-16 531.5,-16 531.5,-35"/>
<text text-anchor="middle" x="502" y="-23" font-family="Helvetica,sans-Serif" font-size="10.00">platform</text>
</a>
</g>
</g>
<!-- dir_24863a0596479db7df20b0f483688857&#45;&gt;dir_aaf67126bd5deefc4d96704f76f22cc2 -->
<g id="edge8" class="edge">
<title>dir_24863a0596479db7df20b0f483688857&#45;&gt;dir_aaf67126bd5deefc4d96704f76f22cc2</title>
<path fill="none" stroke="#63b8ff" d="M75.85,-77.68C140.66,-73.06 310.98,-59.59 462.26,-35.13"/>
<polygon fill="#63b8ff" stroke="#63b8ff" points="462.89,-38.57 472.19,-33.5 461.76,-31.66 462.89,-38.57"/>
<g id="a_edge8&#45;headlabel"><a xlink:href="dir_000159_000135.html" target="_top" xlink:title="3">
<text text-anchor="middle" x="459.8" y="-39.46" font-family="Helvetica,sans-Serif" font-size="10.00" fill="#63b8ff">3</text>
</a>
</g>
</g>
<!-- dir_f555f996eeee1ebe901dc71e0c5de8ff -->
<g id="node10" class="node">
<title>dir_f555f996eeee1ebe901dc71e0c5de8ff</title>
<g id="a_node10"><a xlink:href="dir_f555f996eeee1ebe901dc71e0c5de8ff.html" target="_top" xlink:title="meta">
<polygon fill="#edf0f7" stroke="#7f7f7f" points="592,-35 550,-35 550,-16 592,-16 592,-35"/>
<text text-anchor="middle" x="571" y="-23" font-family="Helvetica,sans-Serif" font-size="10.00">meta</text>
</a>
</g>
</g>
<!-- dir_24863a0596479db7df20b0f483688857&#45;&gt;dir_f555f996eeee1ebe901dc71e0c5de8ff -->
<g id="edge9" class="edge">
<title>dir_24863a0596479db7df20b0f483688857&#45;&gt;dir_f555f996eeee1ebe901dc71e0c5de8ff</title>
<path fill="none" stroke="#63b8ff" d="M75.64,-78.83C148.57,-76.62 357.64,-67.85 539.78,-34.88"/>
<polygon fill="#63b8ff" stroke="#63b8ff" points="540.61,-38.28 549.81,-33.03 539.34,-31.4 540.61,-38.28"/>
<g id="a_edge9&#45;headlabel"><a xlink:href="dir_000159_000122.html" target="_top" xlink:title="18">
<text text-anchor="middle" x="537.59" y="-39.23" font-family="Helvetica,sans-Serif" font-size="10.00" fill="#63b8ff">18</text>
</a>
</g>
</g>
</g>
</svg>
