<?xml version="1.0" encoding="UTF-8" standalone="no"?>
<!DOCTYPE svg PUBLIC "-//W3C//DTD SVG 1.1//EN"
 "http://www.w3.org/Graphics/SVG/1.1/DTD/svg11.dtd">
<!-- Generated by graphviz version 2.43.0 (0)
 -->
<!-- Title: libs/di/include/di/execution/io Pages: 1 -->
<svg width="1424pt" height="133pt"
 viewBox="0.00 0.00 1424.00 133.00" xmlns="http://www.w3.org/2000/svg" xmlns:xlink="http://www.w3.org/1999/xlink">
<g id="graph0" class="graph" transform="scale(1 1) rotate(0) translate(4 129)">
<title>libs/di/include/di/execution/io</title>
<g id="clust1" class="cluster">
<title>clusterdir_182dab0b86097ba072332b7ad8fceb7f</title>
<g id="a_clust1"><a xlink:href="dir_182dab0b86097ba072332b7ad8fceb7f.html" target="_top" xlink:title="execution">
<polygon fill="#edf0f7" stroke="#7f7f7f" stroke-dasharray="5,2" points="8,-8 8,-117 648,-117 648,-8 8,-8"/>
<text text-anchor="middle" x="328" y="-105" font-family="Helvetica,sans-Serif" font-size="10.00">execution</text>
</a>
</g>
</g>
<!-- dir_27e1a0af1927749316784e6421682a5e -->
<g id="node1" class="node">
<title>dir_27e1a0af1927749316784e6421682a5e</title>
<g id="a_node1"><a xlink:href="dir_27e1a0af1927749316784e6421682a5e.html" target="_top" xlink:title="interface">
<polygon fill="#a2b4d6" stroke="#404040" points="76,-35 16,-35 16,-16 76,-16 76,-35"/>
<text text-anchor="middle" x="46" y="-23" font-family="Helvetica,sans-Serif" font-size="10.00">interface</text>
</a>
</g>
</g>
<!-- dir_38011a79da39fb3448319eccf8c364d9 -->
<g id="node2" class="node">
<title>dir_38011a79da39fb3448319eccf8c364d9</title>
<g id="a_node2"><a xlink:href="dir_38011a79da39fb3448319eccf8c364d9.html" target="_top" xlink:title="query">
<polygon fill="#a2b4d6" stroke="#404040" points="138,-35 94,-35 94,-16 138,-16 138,-35"/>
<text text-anchor="middle" x="116" y="-23" font-family="Helvetica,sans-Serif" font-size="10.00">query</text>
</a>
</g>
</g>
<!-- dir_42e3132b523eec61d254ecfd76390a40 -->
<g id="node3" class="node">
<title>dir_42e3132b523eec61d254ecfd76390a40</title>
<g id="a_node3"><a xlink:href="dir_42e3132b523eec61d254ecfd76390a40.html" target="_top" xlink:title="algorithm">
<polygon fill="#a2b4d6" stroke="#404040" points="220,-35 156,-35 156,-16 220,-16 220,-35"/>
<text text-anchor="middle" x="188" y="-23" font-family="Helvetica,sans-Serif" font-size="10.00">algorithm</text>
</a>
</g>
</g>
<!-- dir_569ed69d6bb9bf9a95676c3a98a04440 -->
<g id="node4" class="node">
<title>dir_569ed69d6bb9bf9a95676c3a98a04440</title>
<g id="a_node4"><a xlink:href="dir_569ed69d6bb9bf9a95676c3a98a04440.html" target="_top" xlink:title="types">
<polygon fill="#a2b4d6" stroke="#404040" points="282,-35 238,-35 238,-16 282,-16 282,-35"/>
<text text-anchor="middle" x="260" y="-23" font-family="Helvetica,sans-Serif" font-size="10.00">types</text>
</a>
</g>
</g>
<!-- dir_57df25969c72935fa0fddf8bd8d3498c -->
<g id="node5" class="node">
<title>dir_57df25969c72935fa0fddf8bd8d3498c</title>
<g id="a_node5"><a xlink:href="dir_57df25969c72935fa0fddf8bd8d3498c.html" target="_top" xlink:title="meta">
<polygon fill="#a2b4d6" stroke="#404040" points="342,-35 300,-35 300,-16 342,-16 342,-35"/>
<text text-anchor="middle" x="321" y="-23" font-family="Helvetica,sans-Serif" font-size="10.00">meta</text>
</a>
</g>
</g>
<!-- dir_6760dc3fb5bd31efe7355c24e63385e0 -->
<g id="node6" class="node">
<title>dir_6760dc3fb5bd31efe7355c24e63385e0</title>
<g id="a_node6"><a xlink:href="dir_6760dc3fb5bd31efe7355c24e63385e0.html" target="_top" xlink:title="scope">
<polygon fill="#a2b4d6" stroke="#404040" points="405.5,-35 360.5,-35 360.5,-16 405.5,-16 405.5,-35"/>
<text text-anchor="middle" x="383" y="-23" font-family="Helvetica,sans-Serif" font-size="10.00">scope</text>
</a>
</g>
</g>
<!-- dir_72b20bf6291bd35729057dcb4ccbac76 -->
<g id="node7" class="node">
<title>dir_72b20bf6291bd35729057dcb4ccbac76</title>
<g id="a_node7"><a xlink:href="dir_72b20bf6291bd35729057dcb4ccbac76.html" target="_top" xlink:title="concepts">
<polygon fill="#a2b4d6" stroke="#404040" points="484,-35 424,-35 424,-16 484,-16 484,-35"/>
<text text-anchor="middle" x="454" y="-23" font-family="Helvetica,sans-Serif" font-size="10.00">concepts</text>
</a>
</g>
</g>
<!-- dir_8620533e8531467fdbfb737d3ec42837 -->
<g id="node8" class="node">
<title>dir_8620533e8531467fdbfb737d3ec42837</title>
<g id="a_node8"><a xlink:href="dir_8620533e8531467fdbfb737d3ec42837.html" target="_top" xlink:title="receiver">
<polygon fill="#a2b4d6" stroke="#404040" points="558,-35 502,-35 502,-16 558,-16 558,-35"/>
<text text-anchor="middle" x="530" y="-23" font-family="Helvetica,sans-Serif" font-size="10.00">receiver</text>
</a>
</g>
</g>
<!-- dir_b7ad26a73b774414b6d3658268280d20 -->
<g id="node9" class="node">
<title>dir_b7ad26a73b774414b6d3658268280d20</title>
<g id="a_node9"><a xlink:href="dir_b7ad26a73b774414b6d3658268280d20.html" target="_top" xlink:title="sequence">
<polygon fill="#a2b4d6" stroke="#404040" points="639.5,-35 576.5,-35 576.5,-16 639.5,-16 639.5,-35"/>
<text text-anchor="middle" x="608" y="-23" font-family="Helvetica,sans-Serif" font-size="10.00">sequence</text>
</a>
</g>
</g>
<!-- dir_af874257b7258482aad98d0f1e548c54 -->
<g id="node10" class="node">
<title>dir_af874257b7258482aad98d0f1e548c54</title>
<g id="a_node10"><a xlink:href="dir_af874257b7258482aad98d0f1e548c54.html" target="_top" xlink:title="io">
<polygon fill="#edf0f7" stroke="#404040" stroke-width="2" points="639.5,-90 610.5,-90 610.5,-71 639.5,-71 639.5,-90"/>
<text text-anchor="middle" x="625" y="-78" font-family="Helvetica,sans-Serif" font-size="10.00">io</text>
</a>
</g>
</g>
<!-- dir_af874257b7258482aad98d0f1e548c54&#45;&gt;dir_27e1a0af1927749316784e6421682a5e -->
<g id="edge3" class="edge">
<title>dir_af874257b7258482aad98d0f1e548c54&#45;&gt;dir_27e1a0af1927749316784e6421682a5e</title>
<path fill="none" stroke="#63b8ff" d="M610.31,-79C548.08,-76.75 299.93,-66.28 86.31,-34.99"/>
<polygon fill="#63b8ff" stroke="#63b8ff" points="86.57,-31.49 76.16,-33.49 85.54,-38.42 86.57,-31.49"/>
<g id="a_edge3&#45;headlabel"><a xlink:href="dir_000099_000096.html" target="_top" xlink:title="3">
<text text-anchor="middle" x="90.54" y="-26.71" font-family="Helvetica,sans-Serif" font-size="10.00" fill="#63b8ff">3</text>
</a>
</g>
</g>
<!-- dir_af874257b7258482aad98d0f1e548c54&#45;&gt;dir_38011a79da39fb3448319eccf8c364d9 -->
<g id="edge5" class="edge">
<title>dir_af874257b7258482aad98d0f1e548c54&#45;&gt;dir_38011a79da39fb3448319eccf8c364d9</title>
<path fill="none" stroke="#63b8ff" d="M610.4,-79.07C552.8,-77.18 335.62,-68.26 148.27,-34.91"/>
<polygon fill="#63b8ff" stroke="#63b8ff" points="148.71,-31.44 138.24,-33.1 147.46,-38.32 148.71,-31.44"/>
<g id="a_edge5&#45;headlabel"><a xlink:href="dir_000099_000139.html" target="_top" xlink:title="4">
<text text-anchor="middle" x="152.75" y="-26.78" font-family="Helvetica,sans-Serif" font-size="10.00" fill="#63b8ff">4</text>
</a>
</g>
</g>
<!-- dir_af874257b7258482aad98d0f1e548c54&#45;&gt;dir_42e3132b523eec61d254ecfd76390a40 -->
<g id="edge6" class="edge">
<title>dir_af874257b7258482aad98d0f1e548c54&#45;&gt;dir_42e3132b523eec61d254ecfd76390a40</title>
<path fill="none" stroke="#63b8ff" d="M610.19,-78.33C558.99,-74.2 384.63,-59.25 230.31,-35.07"/>
<polygon fill="#63b8ff" stroke="#63b8ff" points="230.6,-31.57 220.18,-33.46 229.51,-38.49 230.6,-31.57"/>
<g id="a_edge6&#45;headlabel"><a xlink:href="dir_000099_000004.html" target="_top" xlink:title="14">
<text text-anchor="middle" x="234.6" y="-26.83" font-family="Helvetica,sans-Serif" font-size="10.00" fill="#63b8ff">14</text>
</a>
</g>
</g>
<!-- dir_af874257b7258482aad98d0f1e548c54&#45;&gt;dir_569ed69d6bb9bf9a95676c3a98a04440 -->
<g id="edge9" class="edge">
<title>dir_af874257b7258482aad98d0f1e548c54&#45;&gt;dir_569ed69d6bb9bf9a95676c3a98a04440</title>
<path fill="none" stroke="#63b8ff" d="M610.23,-78.25C564.44,-74.23 420.67,-60.48 292.27,-35.01"/>
<polygon fill="#63b8ff" stroke="#63b8ff" points="292.76,-31.54 282.26,-32.99 291.38,-38.4 292.76,-31.54"/>
<g id="a_edge9&#45;headlabel"><a xlink:href="dir_000099_000179.html" target="_top" xlink:title="5">
<text text-anchor="middle" x="296.84" y="-26.96" font-family="Helvetica,sans-Serif" font-size="10.00" fill="#63b8ff">5</text>
</a>
</g>
</g>
<!-- dir_af874257b7258482aad98d0f1e548c54&#45;&gt;dir_57df25969c72935fa0fddf8bd8d3498c -->
<g id="edge10" class="edge">
<title>dir_af874257b7258482aad98d0f1e548c54&#45;&gt;dir_57df25969c72935fa0fddf8bd8d3498c</title>
<path fill="none" stroke="#63b8ff" d="M610.4,-77.67C569.39,-72.43 449.83,-56.32 352,-35 351.9,-34.98 351.8,-34.96 351.7,-34.94"/>
<polygon fill="#63b8ff" stroke="#63b8ff" points="352.81,-31.6 342.27,-32.65 351.17,-38.41 352.81,-31.6"/>
<g id="a_edge10&#45;headlabel"><a xlink:href="dir_000099_000121.html" target="_top" xlink:title="1">
<text text-anchor="middle" x="356.98" y="-27.19" font-family="Helvetica,sans-Serif" font-size="10.00" fill="#63b8ff">1</text>
</a>
</g>
</g>
<!-- dir_af874257b7258482aad98d0f1e548c54&#45;&gt;dir_6760dc3fb5bd31efe7355c24e63385e0 -->
<g id="edge12" class="edge">
<title>dir_af874257b7258482aad98d0f1e548c54&#45;&gt;dir_6760dc3fb5bd31efe7355c24e63385e0</title>
<path fill="none" stroke="#63b8ff" d="M610.43,-76.68C577.61,-70.26 495.19,-53.85 415.85,-35.1"/>
<polygon fill="#63b8ff" stroke="#63b8ff" points="416.23,-31.59 405.69,-32.68 414.61,-38.4 416.23,-31.59"/>
<g id="a_edge12&#45;headlabel"><a xlink:href="dir_000099_000149.html" target="_top" xlink:title="1">
<text text-anchor="middle" x="420.38" y="-27.16" font-family="Helvetica,sans-Serif" font-size="10.00" fill="#63b8ff">1</text>
</a>
</g>
</g>
<!-- dir_af874257b7258482aad98d0f1e548c54&#45;&gt;dir_72b20bf6291bd35729057dcb4ccbac76 -->
<g id="edge13" class="edge">
<title>dir_af874257b7258482aad98d0f1e548c54&#45;&gt;dir_72b20bf6291bd35729057dcb4ccbac76</title>
<path fill="none" stroke="#63b8ff" d="M610.42,-74.98C584.36,-66.9 529.02,-49.75 491.66,-38.17"/>
<polygon fill="#63b8ff" stroke="#63b8ff" points="492.23,-34.68 481.64,-35.07 490.15,-41.37 492.23,-34.68"/>
<g id="a_edge13&#45;headlabel"><a xlink:href="dir_000099_000038.html" target="_top" xlink:title="6">
<text text-anchor="middle" x="496.5" y="-30.54" font-family="Helvetica,sans-Serif" font-size="10.00" fill="#63b8ff">6</text>
</a>
</g>
</g>
<!-- dir_af874257b7258482aad98d0f1e548c54&#45;&gt;dir_8620533e8531467fdbfb737d3ec42837 -->
<g id="edge15" class="edge">
<title>dir_af874257b7258482aad98d0f1e548c54&#45;&gt;dir_8620533e8531467fdbfb737d3ec42837</title>
<path fill="none" stroke="#63b8ff" d="M610.16,-71.22C595.27,-62.92 572.1,-49.99 554.49,-40.16"/>
<polygon fill="#63b8ff" stroke="#63b8ff" points="555.81,-36.89 545.37,-35.07 552.4,-43 555.81,-36.89"/>
<g id="a_edge15&#45;headlabel"><a xlink:href="dir_000099_000144.html" target="_top" xlink:title="6">
<text text-anchor="middle" x="560.33" y="-33.66" font-family="Helvetica,sans-Serif" font-size="10.00" fill="#63b8ff">6</text>
</a>
</g>
</g>
<!-- dir_af874257b7258482aad98d0f1e548c54&#45;&gt;dir_b7ad26a73b774414b6d3658268280d20 -->
<g id="edge19" class="edge">
<title>dir_af874257b7258482aad98d0f1e548c54&#45;&gt;dir_b7ad26a73b774414b6d3658268280d20</title>
<path fill="none" stroke="#63b8ff" d="M622.19,-70.75C619.94,-63.72 616.7,-53.62 613.88,-44.84"/>
<polygon fill="#63b8ff" stroke="#63b8ff" points="617.14,-43.54 610.75,-35.09 610.48,-45.68 617.14,-43.54"/>
<g id="a_edge19&#45;headlabel"><a xlink:href="dir_000099_000150.html" target="_top" xlink:title="3">
<text text-anchor="middle" x="620.94" y="-43.6" font-family="Helvetica,sans-Serif" font-size="10.00" fill="#63b8ff">3</text>
</a>
</g>
</g>
<!-- dir_0669efae56692bb73da75efb5ebbccdf -->
<g id="node11" class="node">
<title>dir_0669efae56692bb73da75efb5ebbccdf</title>
<g id="a_node11"><a xlink:href="dir_0669efae56692bb73da75efb5ebbccdf.html" target="_top" xlink:title="function">
<polygon fill="#edf0f7" stroke="red" stroke-dasharray="5,2" points="714,-35 658,-35 658,-16 714,-16 714,-35"/>
<text text-anchor="middle" x="686" y="-23" font-family="Helvetica,sans-Serif" font-size="10.00">function</text>
</a>
</g>
</g>
<!-- dir_af874257b7258482aad98d0f1e548c54&#45;&gt;dir_0669efae56692bb73da75efb5ebbccdf -->
<g id="edge1" class="edge">
<title>dir_af874257b7258482aad98d0f1e548c54&#45;&gt;dir_0669efae56692bb73da75efb5ebbccdf</title>
<path fill="none" stroke="#63b8ff" d="M634.8,-70.98C643.82,-63.15 657.41,-51.34 668.32,-41.86"/>
<polygon fill="#63b8ff" stroke="#63b8ff" points="670.77,-44.37 676.02,-35.17 666.18,-39.09 670.77,-44.37"/>
<g id="a_edge1&#45;headlabel"><a xlink:href="dir_000099_000082.html" target="_top" xlink:title="9">
<text text-anchor="middle" x="669.92" y="-46.37" font-family="Helvetica,sans-Serif" font-size="10.00" fill="#63b8ff">9</text>
</a>
</g>
</g>
<!-- dir_143f1d6bc6d46924c644ec67dc1fb4fc -->
<g id="node12" class="node">
<title>dir_143f1d6bc6d46924c644ec67dc1fb4fc</title>
<g id="a_node12"><a xlink:href="dir_143f1d6bc6d46924c644ec67dc1fb4fc.html" target="_top" xlink:title="bit">
<polygon fill="#edf0f7" stroke="red" stroke-dasharray="5,2" points="761.5,-35 732.5,-35 732.5,-16 761.5,-16 761.5,-35"/>
<text text-anchor="middle" x="747" y="-23" font-family="Helvetica,sans-Serif" font-size="10.00">bit</text>
</a>
</g>
</g>
<!-- dir_af874257b7258482aad98d0f1e548c54&#45;&gt;dir_143f1d6bc6d46924c644ec67dc1fb4fc -->
<g id="edge2" class="edge">
<title>dir_af874257b7258482aad98d0f1e548c54&#45;&gt;dir_143f1d6bc6d46924c644ec67dc1fb4fc</title>
<path fill="none" stroke="#63b8ff" d="M639.96,-73C660.65,-64.01 698.24,-47.68 722.91,-36.96"/>
<polygon fill="#63b8ff" stroke="#63b8ff" points="724.52,-40.08 732.3,-32.89 721.73,-33.66 724.52,-40.08"/>
<g id="a_edge2&#45;headlabel"><a xlink:href="dir_000099_000022.html" target="_top" xlink:title="1">
<text text-anchor="middle" x="722.36" y="-41.62" font-family="Helvetica,sans-Serif" font-size="10.00" fill="#63b8ff">1</text>
</a>
</g>
</g>
<!-- dir_30ecaf38acae77be14fb9173f98f8612 -->
<g id="node13" class="node">
<title>dir_30ecaf38acae77be14fb9173f98f8612</title>
<g id="a_node13"><a xlink:href="dir_30ecaf38acae77be14fb9173f98f8612.html" target="_top" xlink:title="types">
<polygon fill="#edf0f7" stroke="#7f7f7f" points="824,-35 780,-35 780,-16 824,-16 824,-35"/>
<text text-anchor="middle" x="802" y="-23" font-family="Helvetica,sans-Serif" font-size="10.00">types</text>
</a>
</g>
</g>
<!-- dir_af874257b7258482aad98d0f1e548c54&#45;&gt;dir_30ecaf38acae77be14fb9173f98f8612 -->
<g id="edge4" class="edge">
<title>dir_af874257b7258482aad98d0f1e548c54&#45;&gt;dir_30ecaf38acae77be14fb9173f98f8612</title>
<path fill="none" stroke="#63b8ff" d="M639.79,-75.07C668.31,-66.53 731.52,-47.6 770.07,-36.06"/>
<polygon fill="#63b8ff" stroke="#63b8ff" points="771.2,-39.38 779.77,-33.16 769.19,-32.67 771.2,-39.38"/>
<g id="a_edge4&#45;headlabel"><a xlink:href="dir_000099_000180.html" target="_top" xlink:title="5">
<text text-anchor="middle" x="768.57" y="-40.63" font-family="Helvetica,sans-Serif" font-size="10.00" fill="#63b8ff">5</text>
</a>
</g>
</g>
<!-- dir_4535887b2cdca47e625f259d07db0112 -->
<g id="node14" class="node">
<title>dir_4535887b2cdca47e625f259d07db0112</title>
<g id="a_node14"><a xlink:href="dir_4535887b2cdca47e625f259d07db0112.html" target="_top" xlink:title="util">
<polygon fill="#edf0f7" stroke="#7f7f7f" points="874,-35 842,-35 842,-16 874,-16 874,-35"/>
<text text-anchor="middle" x="858" y="-23" font-family="Helvetica,sans-Serif" font-size="10.00">util</text>
</a>
</g>
</g>
<!-- dir_af874257b7258482aad98d0f1e548c54&#45;&gt;dir_4535887b2cdca47e625f259d07db0112 -->
<g id="edge7" class="edge">
<title>dir_af874257b7258482aad98d0f1e548c54&#45;&gt;dir_4535887b2cdca47e625f259d07db0112</title>
<path fill="none" stroke="#63b8ff" d="M639.51,-77C672.2,-71.24 754.17,-56.11 831.99,-35.01"/>
<polygon fill="#63b8ff" stroke="#63b8ff" points="833.23,-38.29 841.95,-32.27 831.38,-31.54 833.23,-38.29"/>
<g id="a_edge7&#45;headlabel"><a xlink:href="dir_000099_000185.html" target="_top" xlink:title="6">
<text text-anchor="middle" x="830.52" y="-39.48" font-family="Helvetica,sans-Serif" font-size="10.00" fill="#63b8ff">6</text>
</a>
</g>
</g>
<!-- dir_521de572ae4fe2915cc70a876c52f5b7 -->
<g id="node15" class="node">
<title>dir_521de572ae4fe2915cc70a876c52f5b7</title>
<g id="a_node15"><a xlink:href="dir_521de572ae4fe2915cc70a876c52f5b7.html" target="_top" xlink:title="container">
<polygon fill="#edf0f7" stroke="red" stroke-dasharray="5,2" points="954,-35 892,-35 892,-16 954,-16 954,-35"/>
<text text-anchor="middle" x="923" y="-23" font-family="Helvetica,sans-Serif" font-size="10.00">container</text>
</a>
</g>
</g>
<!-- dir_af874257b7258482aad98d0f1e548c54&#45;&gt;dir_521de572ae4fe2915cc70a876c52f5b7 -->
<g id="edge8" class="edge">
<title>dir_af874257b7258482aad98d0f1e548c54&#45;&gt;dir_521de572ae4fe2915cc70a876c52f5b7</title>
<path fill="none" stroke="#63b8ff" d="M639.58,-77.19C677.64,-71.11 783.27,-53.97 881.49,-35.23"/>
<polygon fill="#63b8ff" stroke="#63b8ff" points="882.42,-38.62 891.58,-33.3 881.1,-31.74 882.42,-38.62"/>
<g id="a_edge8&#45;headlabel"><a xlink:href="dir_000099_000046.html" target="_top" xlink:title="3">
<text text-anchor="middle" x="879.42" y="-39.58" font-family="Helvetica,sans-Serif" font-size="10.00" fill="#63b8ff">3</text>
</a>
</g>
</g>
<!-- dir_60d1624911c2c9f7b6f38e44ec895aaa -->
<g id="node16" class="node">
<title>dir_60d1624911c2c9f7b6f38e44ec895aaa</title>
<g id="a_node16"><a xlink:href="dir_60d1624911c2c9f7b6f38e44ec895aaa.html" target="_top" xlink:title="math">
<polygon fill="#edf0f7" stroke="red" stroke-dasharray="5,2" points="1014,-35 972,-35 972,-16 1014,-16 1014,-35"/>
<text text-anchor="middle" x="993" y="-23" font-family="Helvetica,sans-Serif" font-size="10.00">math</text>
</a>
</g>
</g>
<!-- dir_af874257b7258482aad98d0f1e548c54&#45;&gt;dir_60d1624911c2c9f7b6f38e44ec895aaa -->
<g id="edge11" class="edge">
<title>dir_af874257b7258482aad98d0f1e548c54&#45;&gt;dir_60d1624911c2c9f7b6f38e44ec895aaa</title>
<path fill="none" stroke="#63b8ff" d="M639.62,-78.34C685.62,-74.53 831.57,-61.24 961.66,-35"/>
<polygon fill="#63b8ff" stroke="#63b8ff" points="962.7,-38.36 971.79,-32.92 961.29,-31.5 962.7,-38.36"/>
<g id="a_edge11&#45;headlabel"><a xlink:href="dir_000099_000117.html" target="_top" xlink:title="1">
<text text-anchor="middle" x="959.74" y="-39.36" font-family="Helvetica,sans-Serif" font-size="10.00" fill="#63b8ff">1</text>
</a>
</g>
</g>
<!-- dir_74bda9cbed187d8a7ee6c4f00e4e3b0a -->
<g id="node17" class="node">
<title>dir_74bda9cbed187d8a7ee6c4f00e4e3b0a</title>
<g id="a_node17"><a xlink:href="dir_74bda9cbed187d8a7ee6c4f00e4e3b0a.html" target="_top" xlink:title="serialization">
<polygon fill="#edf0f7" stroke="#7f7f7f" points="1109.5,-35 1032.5,-35 1032.5,-16 1109.5,-16 1109.5,-35"/>
<text text-anchor="middle" x="1071" y="-23" font-family="Helvetica,sans-Serif" font-size="10.00">serialization</text>
</a>
</g>
</g>
<!-- dir_af874257b7258482aad98d0f1e548c54&#45;&gt;dir_74bda9cbed187d8a7ee6c4f00e4e3b0a -->
<g id="edge14" class="edge">
<title>dir_af874257b7258482aad98d0f1e548c54&#45;&gt;dir_74bda9cbed187d8a7ee6c4f00e4e3b0a</title>
<path fill="none" stroke="#63b8ff" d="M639.86,-78.18C691.24,-73.56 866.27,-57.22 1022.03,-35.05"/>
<polygon fill="#63b8ff" stroke="#63b8ff" points="1022.86,-38.46 1032.26,-33.58 1021.87,-31.54 1022.86,-38.46"/>
<g id="a_edge14&#45;headlabel"><a xlink:href="dir_000099_000151.html" target="_top" xlink:title="4">
<text text-anchor="middle" x="1019.71" y="-39.29" font-family="Helvetica,sans-Serif" font-size="10.00" fill="#63b8ff">4</text>
</a>
</g>
</g>
<!-- dir_942cfae36a92b6b1c4b510e99e852d40 -->
<g id="node18" class="node">
<title>dir_942cfae36a92b6b1c4b510e99e852d40</title>
<g id="a_node18"><a xlink:href="dir_942cfae36a92b6b1c4b510e99e852d40.html" target="_top" xlink:title="vocab">
<polygon fill="#edf0f7" stroke="red" stroke-dasharray="5,2" points="1174,-35 1128,-35 1128,-16 1174,-16 1174,-35"/>
<text text-anchor="middle" x="1151" y="-23" font-family="Helvetica,sans-Serif" font-size="10.00">vocab</text>
</a>
</g>
</g>
<!-- dir_af874257b7258482aad98d0f1e548c54&#45;&gt;dir_942cfae36a92b6b1c4b510e99e852d40 -->
<g id="edge16" class="edge">
<title>dir_af874257b7258482aad98d0f1e548c54&#45;&gt;dir_942cfae36a92b6b1c4b510e99e852d40</title>
<path fill="none" stroke="#63b8ff" d="M639.67,-79.09C698.58,-77.24 923.71,-68.39 1117.6,-34.95"/>
<polygon fill="#63b8ff" stroke="#63b8ff" points="1118.44,-38.36 1127.68,-33.18 1117.23,-31.46 1118.44,-38.36"/>
<g id="a_edge16&#45;headlabel"><a xlink:href="dir_000099_000189.html" target="_top" xlink:title="5">
<text text-anchor="middle" x="1115.39" y="-39.27" font-family="Helvetica,sans-Serif" font-size="10.00" fill="#63b8ff">5</text>
</a>
</g>
</g>
<!-- dir_9bfc08b7c5b17d043ebb5b9fbb866539 -->
<g id="node19" class="node">
<title>dir_9bfc08b7c5b17d043ebb5b9fbb866539</title>
<g id="a_node19"><a xlink:href="dir_9bfc08b7c5b17d043ebb5b9fbb866539.html" target="_top" xlink:title="sync">
<polygon fill="#edf0f7" stroke="red" stroke-dasharray="5,2" points="1231.5,-35 1192.5,-35 1192.5,-16 1231.5,-16 1231.5,-35"/>
<text text-anchor="middle" x="1212" y="-23" font-family="Helvetica,sans-Serif" font-size="10.00">sync</text>
</a>
</g>
</g>
<!-- dir_af874257b7258482aad98d0f1e548c54&#45;&gt;dir_9bfc08b7c5b17d043ebb5b9fbb866539 -->
<g id="edge17" class="edge">
<title>dir_af874257b7258482aad98d0f1e548c54&#45;&gt;dir_9bfc08b7c5b17d043ebb5b9fbb866539</title>
<path fill="none" stroke="#63b8ff" d="M639.8,-79.43C703.66,-78.91 961.89,-74.44 1182.34,-34.67"/>
<polygon fill="#63b8ff" stroke="#63b8ff" points="1183.27,-38.06 1192.48,-32.81 1182.01,-31.18 1183.27,-38.06"/>
<g id="a_edge17&#45;headlabel"><a xlink:href="dir_000099_000162.html" target="_top" xlink:title="2">
<text text-anchor="middle" x="1180.25" y="-39" font-family="Helvetica,sans-Serif" font-size="10.00" fill="#63b8ff">2</text>
</a>
</g>
</g>
<!-- dir_aaf67126bd5deefc4d96704f76f22cc2 -->
<g id="node20" class="node">
<title>dir_aaf67126bd5deefc4d96704f76f22cc2</title>
<g id="a_node20"><a xlink:href="dir_aaf67126bd5deefc4d96704f76f22cc2.html" target="_top" xlink:title="platform">
<polygon fill="#edf0f7" stroke="#7f7f7f" points="1308.5,-35 1249.5,-35 1249.5,-16 1308.5,-16 1308.5,-35"/>
<text text-anchor="middle" x="1279" y="-23" font-family="Helvetica,sans-Serif" font-size="10.00">platform</text>
</a>
</g>
</g>
<!-- dir_af874257b7258482aad98d0f1e548c54&#45;&gt;dir_aaf67126bd5deefc4d96704f76f22cc2 -->
<g id="edge18" class="edge">
<title>dir_af874257b7258482aad98d0f1e548c54&#45;&gt;dir_aaf67126bd5deefc4d96704f76f22cc2</title>
<path fill="none" stroke="#63b8ff" d="M639.87,-79.24C707.72,-77.86 994.85,-70.25 1239.08,-35.08"/>
<polygon fill="#63b8ff" stroke="#63b8ff" points="1239.82,-38.51 1249.21,-33.6 1238.81,-31.58 1239.82,-38.51"/>
<g id="a_edge18&#45;headlabel"><a xlink:href="dir_000099_000135.html" target="_top" xlink:title="2">
<text text-anchor="middle" x="1236.67" y="-39.34" font-family="Helvetica,sans-Serif" font-size="10.00" fill="#63b8ff">2</text>
</a>
</g>
</g>
<!-- dir_cd43612992eaeb46558dd8835da126ed -->
<g id="node21" class="node">
<title>dir_cd43612992eaeb46558dd8835da126ed</title>
<g id="a_node21"><a xlink:href="dir_cd43612992eaeb46558dd8835da126ed.html" target="_top" xlink:title="io">
<polygon fill="#edf0f7" stroke="red" stroke-dasharray="5,2" points="1355.5,-35 1326.5,-35 1326.5,-16 1355.5,-16 1355.5,-35"/>
<text text-anchor="middle" x="1341" y="-23" font-family="Helvetica,sans-Serif" font-size="10.00">io</text>
</a>
</g>
</g>
<!-- dir_af874257b7258482aad98d0f1e548c54&#45;&gt;dir_cd43612992eaeb46558dd8835da126ed -->
<g id="edge20" class="edge">
<title>dir_af874257b7258482aad98d0f1e548c54&#45;&gt;dir_cd43612992eaeb46558dd8835da126ed</title>
<path fill="none" stroke="#63b8ff" d="M639.64,-79.14C725.17,-76.93 1161.55,-64.48 1315.91,-34.79"/>
<polygon fill="#63b8ff" stroke="#63b8ff" points="1316.99,-38.14 1326.09,-32.72 1315.59,-31.28 1316.99,-38.14"/>
<g id="a_edge20&#45;headlabel"><a xlink:href="dir_000099_000100.html" target="_top" xlink:title="3">
<text text-anchor="middle" x="1314.03" y="-39.14" font-family="Helvetica,sans-Serif" font-size="10.00" fill="#63b8ff">3</text>
</a>
</g>
</g>
<!-- dir_f555f996eeee1ebe901dc71e0c5de8ff -->
<g id="node22" class="node">
<title>dir_f555f996eeee1ebe901dc71e0c5de8ff</title>
<g id="a_node22"><a xlink:href="dir_f555f996eeee1ebe901dc71e0c5de8ff.html" target="_top" xlink:title="meta">
<polygon fill="#edf0f7" stroke="#7f7f7f" points="1416,-35 1374,-35 1374,-16 1416,-16 1416,-35"/>
<text text-anchor="middle" x="1395" y="-23" font-family="Helvetica,sans-Serif" font-size="10.00">meta</text>
</a>
</g>
</g>
<!-- dir_af874257b7258482aad98d0f1e548c54&#45;&gt;dir_f555f996eeee1ebe901dc71e0c5de8ff -->
<g id="edge21" class="edge">
<title>dir_af874257b7258482aad98d0f1e548c54&#45;&gt;dir_f555f996eeee1ebe901dc71e0c5de8ff</title>
<path fill="none" stroke="#63b8ff" d="M639.74,-79.79C715.46,-81.04 1068.27,-83.92 1363.78,-34.81"/>
<polygon fill="#63b8ff" stroke="#63b8ff" points="1364.55,-38.23 1373.82,-33.11 1363.38,-31.32 1364.55,-38.23"/>
<g id="a_edge21&#45;headlabel"><a xlink:href="dir_000099_000122.html" target="_top" xlink:title="11">
<text text-anchor="middle" x="1361.47" y="-39.12" font-family="Helvetica,sans-Serif" font-size="10.00" fill="#63b8ff">11</text>
</a>
</g>
</g>
</g>
</svg>
