<?xml version="1.0" encoding="UTF-8" standalone="no"?>
<!DOCTYPE svg PUBLIC "-//W3C//DTD SVG 1.1//EN"
 "http://www.w3.org/Graphics/SVG/1.1/DTD/svg11.dtd">
<!-- Generated by graphviz version 2.43.0 (0)
 -->
<!-- Title: libs/di/include/di/execution/query Pages: 1 -->
<svg width="1031pt" height="133pt"
 viewBox="0.00 0.00 1031.00 133.00" xmlns="http://www.w3.org/2000/svg" xmlns:xlink="http://www.w3.org/1999/xlink">
<g id="graph0" class="graph" transform="scale(1 1) rotate(0) translate(4 129)">
<title>libs/di/include/di/execution/query</title>
<g id="clust1" class="cluster">
<title>clusterdir_182dab0b86097ba072332b7ad8fceb7f</title>
<g id="a_clust1"><a xlink:href="dir_182dab0b86097ba072332b7ad8fceb7f.html" target="_top" xlink:title="execution">
<polygon fill="#edf0f7" stroke="#7f7f7f" stroke-dasharray="5,2" points="8,-8 8,-117 446,-117 446,-8 8,-8"/>
<text text-anchor="middle" x="227" y="-105" font-family="Helvetica,sans-Serif" font-size="10.00">execution</text>
</a>
</g>
</g>
<!-- dir_27e1a0af1927749316784e6421682a5e -->
<g id="node1" class="node">
<title>dir_27e1a0af1927749316784e6421682a5e</title>
<g id="a_node1"><a xlink:href="dir_27e1a0af1927749316784e6421682a5e.html" target="_top" xlink:title="interface">
<polygon fill="#a2b4d6" stroke="#404040" points="76,-35 16,-35 16,-16 76,-16 76,-35"/>
<text text-anchor="middle" x="46" y="-23" font-family="Helvetica,sans-Serif" font-size="10.00">interface</text>
</a>
</g>
</g>
<!-- dir_569ed69d6bb9bf9a95676c3a98a04440 -->
<g id="node2" class="node">
<title>dir_569ed69d6bb9bf9a95676c3a98a04440</title>
<g id="a_node2"><a xlink:href="dir_569ed69d6bb9bf9a95676c3a98a04440.html" target="_top" xlink:title="types">
<polygon fill="#a2b4d6" stroke="#404040" points="138,-35 94,-35 94,-16 138,-16 138,-35"/>
<text text-anchor="middle" x="116" y="-23" font-family="Helvetica,sans-Serif" font-size="10.00">types</text>
</a>
</g>
</g>
<!-- dir_57df25969c72935fa0fddf8bd8d3498c -->
<g id="node3" class="node">
<title>dir_57df25969c72935fa0fddf8bd8d3498c</title>
<g id="a_node3"><a xlink:href="dir_57df25969c72935fa0fddf8bd8d3498c.html" target="_top" xlink:title="meta">
<polygon fill="#a2b4d6" stroke="#404040" points="198,-35 156,-35 156,-16 198,-16 198,-35"/>
<text text-anchor="middle" x="177" y="-23" font-family="Helvetica,sans-Serif" font-size="10.00">meta</text>
</a>
</g>
</g>
<!-- dir_64711c3453254974b931c55eb005475a -->
<g id="node4" class="node">
<title>dir_64711c3453254974b931c55eb005475a</title>
<g id="a_node4"><a xlink:href="dir_64711c3453254974b931c55eb005475a.html" target="_top" xlink:title="coroutine">
<polygon fill="#a2b4d6" stroke="#404040" points="278,-35 216,-35 216,-16 278,-16 278,-35"/>
<text text-anchor="middle" x="247" y="-23" font-family="Helvetica,sans-Serif" font-size="10.00">coroutine</text>
</a>
</g>
</g>
<!-- dir_72b20bf6291bd35729057dcb4ccbac76 -->
<g id="node5" class="node">
<title>dir_72b20bf6291bd35729057dcb4ccbac76</title>
<g id="a_node5"><a xlink:href="dir_72b20bf6291bd35729057dcb4ccbac76.html" target="_top" xlink:title="concepts">
<polygon fill="#a2b4d6" stroke="#404040" points="356,-35 296,-35 296,-16 356,-16 356,-35"/>
<text text-anchor="middle" x="326" y="-23" font-family="Helvetica,sans-Serif" font-size="10.00">concepts</text>
</a>
</g>
</g>
<!-- dir_b7ad26a73b774414b6d3658268280d20 -->
<g id="node6" class="node">
<title>dir_b7ad26a73b774414b6d3658268280d20</title>
<g id="a_node6"><a xlink:href="dir_b7ad26a73b774414b6d3658268280d20.html" target="_top" xlink:title="sequence">
<polygon fill="#a2b4d6" stroke="#404040" points="437.5,-35 374.5,-35 374.5,-16 437.5,-16 437.5,-35"/>
<text text-anchor="middle" x="406" y="-23" font-family="Helvetica,sans-Serif" font-size="10.00">sequence</text>
</a>
</g>
</g>
<!-- dir_38011a79da39fb3448319eccf8c364d9 -->
<g id="node7" class="node">
<title>dir_38011a79da39fb3448319eccf8c364d9</title>
<g id="a_node7"><a xlink:href="dir_38011a79da39fb3448319eccf8c364d9.html" target="_top" xlink:title="query">
<polygon fill="#edf0f7" stroke="#404040" stroke-width="2" points="438,-90 394,-90 394,-71 438,-71 438,-90"/>
<text text-anchor="middle" x="416" y="-78" font-family="Helvetica,sans-Serif" font-size="10.00">query</text>
</a>
</g>
</g>
<!-- dir_38011a79da39fb3448319eccf8c364d9&#45;&gt;dir_27e1a0af1927749316784e6421682a5e -->
<g id="edge2" class="edge">
<title>dir_38011a79da39fb3448319eccf8c364d9&#45;&gt;dir_27e1a0af1927749316784e6421682a5e</title>
<path fill="none" stroke="#63b8ff" d="M393.82,-77.15C341.85,-71.5 207.95,-56.18 86.06,-35.06"/>
<polygon fill="#63b8ff" stroke="#63b8ff" points="86.64,-31.61 76.19,-33.33 85.43,-38.5 86.64,-31.61"/>
<g id="a_edge2&#45;headlabel"><a xlink:href="dir_000139_000096.html" target="_top" xlink:title="2">
<text text-anchor="middle" x="90.67" y="-26.93" font-family="Helvetica,sans-Serif" font-size="10.00" fill="#63b8ff">2</text>
</a>
</g>
</g>
<!-- dir_38011a79da39fb3448319eccf8c364d9&#45;&gt;dir_569ed69d6bb9bf9a95676c3a98a04440 -->
<g id="edge6" class="edge">
<title>dir_38011a79da39fb3448319eccf8c364d9&#45;&gt;dir_569ed69d6bb9bf9a95676c3a98a04440</title>
<path fill="none" stroke="#63b8ff" d="M393.89,-76.63C349.26,-70.68 245.08,-55.94 148.23,-35.08"/>
<polygon fill="#63b8ff" stroke="#63b8ff" points="148.8,-31.62 138.28,-32.91 147.31,-38.46 148.8,-31.62"/>
<g id="a_edge6&#45;headlabel"><a xlink:href="dir_000139_000179.html" target="_top" xlink:title="1">
<text text-anchor="middle" x="152.92" y="-27.11" font-family="Helvetica,sans-Serif" font-size="10.00" fill="#63b8ff">1</text>
</a>
</g>
</g>
<!-- dir_38011a79da39fb3448319eccf8c364d9&#45;&gt;dir_57df25969c72935fa0fddf8bd8d3498c -->
<g id="edge7" class="edge">
<title>dir_38011a79da39fb3448319eccf8c364d9&#45;&gt;dir_57df25969c72935fa0fddf8bd8d3498c</title>
<path fill="none" stroke="#63b8ff" d="M393.92,-75.3C357.32,-68.23 281.58,-53.15 208.13,-35.15"/>
<polygon fill="#63b8ff" stroke="#63b8ff" points="208.81,-31.71 198.26,-32.71 207.13,-38.51 208.81,-31.71"/>
<g id="a_edge7&#45;headlabel"><a xlink:href="dir_000139_000121.html" target="_top" xlink:title="3">
<text text-anchor="middle" x="212.98" y="-27.32" font-family="Helvetica,sans-Serif" font-size="10.00" fill="#63b8ff">3</text>
</a>
</g>
</g>
<!-- dir_38011a79da39fb3448319eccf8c364d9&#45;&gt;dir_64711c3453254974b931c55eb005475a -->
<g id="edge9" class="edge">
<title>dir_38011a79da39fb3448319eccf8c364d9&#45;&gt;dir_64711c3453254974b931c55eb005475a</title>
<path fill="none" stroke="#63b8ff" d="M393.91,-72.57C366.01,-63.82 317.62,-48.65 284.04,-38.12"/>
<polygon fill="#63b8ff" stroke="#63b8ff" points="284.72,-34.66 274.13,-35.01 282.62,-41.34 284.72,-34.66"/>
<g id="a_edge9&#45;headlabel"><a xlink:href="dir_000139_000054.html" target="_top" xlink:title="1">
<text text-anchor="middle" x="289" y="-30.53" font-family="Helvetica,sans-Serif" font-size="10.00" fill="#63b8ff">1</text>
</a>
</g>
</g>
<!-- dir_38011a79da39fb3448319eccf8c364d9&#45;&gt;dir_72b20bf6291bd35729057dcb4ccbac76 -->
<g id="edge10" class="edge">
<title>dir_38011a79da39fb3448319eccf8c364d9&#45;&gt;dir_72b20bf6291bd35729057dcb4ccbac76</title>
<path fill="none" stroke="#63b8ff" d="M401.54,-70.98C387.58,-62.77 366.21,-50.18 349.75,-40.49"/>
<polygon fill="#63b8ff" stroke="#63b8ff" points="351.12,-37.23 340.72,-35.17 347.56,-43.26 351.12,-37.23"/>
<g id="a_edge10&#45;headlabel"><a xlink:href="dir_000139_000038.html" target="_top" xlink:title="7">
<text text-anchor="middle" x="355.65" y="-34.11" font-family="Helvetica,sans-Serif" font-size="10.00" fill="#63b8ff">7</text>
</a>
</g>
</g>
<!-- dir_38011a79da39fb3448319eccf8c364d9&#45;&gt;dir_b7ad26a73b774414b6d3658268280d20 -->
<g id="edge14" class="edge">
<title>dir_38011a79da39fb3448319eccf8c364d9&#45;&gt;dir_b7ad26a73b774414b6d3658268280d20</title>
<path fill="none" stroke="#63b8ff" d="M414.35,-70.75C413.04,-63.8 411.16,-53.85 409.52,-45.13"/>
<polygon fill="#63b8ff" stroke="#63b8ff" points="412.91,-44.27 407.62,-35.09 406.04,-45.56 412.91,-44.27"/>
<g id="a_edge14&#45;headlabel"><a xlink:href="dir_000139_000150.html" target="_top" xlink:title="2">
<text text-anchor="middle" x="416.37" y="-44.77" font-family="Helvetica,sans-Serif" font-size="10.00" fill="#63b8ff">2</text>
</a>
</g>
</g>
<!-- dir_0669efae56692bb73da75efb5ebbccdf -->
<g id="node8" class="node">
<title>dir_0669efae56692bb73da75efb5ebbccdf</title>
<g id="a_node8"><a xlink:href="dir_0669efae56692bb73da75efb5ebbccdf.html" target="_top" xlink:title="function">
<polygon fill="#edf0f7" stroke="red" stroke-dasharray="5,2" points="512,-35 456,-35 456,-16 512,-16 512,-35"/>
<text text-anchor="middle" x="484" y="-23" font-family="Helvetica,sans-Serif" font-size="10.00">function</text>
</a>
</g>
</g>
<!-- dir_38011a79da39fb3448319eccf8c364d9&#45;&gt;dir_0669efae56692bb73da75efb5ebbccdf -->
<g id="edge1" class="edge">
<title>dir_38011a79da39fb3448319eccf8c364d9&#45;&gt;dir_0669efae56692bb73da75efb5ebbccdf</title>
<path fill="none" stroke="#63b8ff" d="M426.93,-70.98C437.08,-63.07 452.42,-51.11 464.65,-41.58"/>
<polygon fill="#63b8ff" stroke="#63b8ff" points="467.14,-44.08 472.88,-35.17 462.84,-38.56 467.14,-44.08"/>
<g id="a_edge1&#45;headlabel"><a xlink:href="dir_000139_000082.html" target="_top" xlink:title="14">
<text text-anchor="middle" x="466.05" y="-46.03" font-family="Helvetica,sans-Serif" font-size="10.00" fill="#63b8ff">14</text>
</a>
</g>
</g>
<!-- dir_30ecaf38acae77be14fb9173f98f8612 -->
<g id="node9" class="node">
<title>dir_30ecaf38acae77be14fb9173f98f8612</title>
<g id="a_node9"><a xlink:href="dir_30ecaf38acae77be14fb9173f98f8612.html" target="_top" xlink:title="types">
<polygon fill="#edf0f7" stroke="#7f7f7f" points="574,-35 530,-35 530,-16 574,-16 574,-35"/>
<text text-anchor="middle" x="552" y="-23" font-family="Helvetica,sans-Serif" font-size="10.00">types</text>
</a>
</g>
</g>
<!-- dir_38011a79da39fb3448319eccf8c364d9&#45;&gt;dir_30ecaf38acae77be14fb9173f98f8612 -->
<g id="edge3" class="edge">
<title>dir_38011a79da39fb3448319eccf8c364d9&#45;&gt;dir_30ecaf38acae77be14fb9173f98f8612</title>
<path fill="none" stroke="#63b8ff" d="M437.85,-70.98C460.12,-62.3 494.9,-48.75 520.22,-38.88"/>
<polygon fill="#63b8ff" stroke="#63b8ff" points="521.71,-42.06 529.75,-35.17 519.16,-35.54 521.71,-42.06"/>
<g id="a_edge3&#45;headlabel"><a xlink:href="dir_000139_000180.html" target="_top" xlink:title="1">
<text text-anchor="middle" x="519.39" y="-43.51" font-family="Helvetica,sans-Serif" font-size="10.00" fill="#63b8ff">1</text>
</a>
</g>
</g>
<!-- dir_4535887b2cdca47e625f259d07db0112 -->
<g id="node10" class="node">
<title>dir_4535887b2cdca47e625f259d07db0112</title>
<g id="a_node10"><a xlink:href="dir_4535887b2cdca47e625f259d07db0112.html" target="_top" xlink:title="util">
<polygon fill="#edf0f7" stroke="#7f7f7f" points="624,-35 592,-35 592,-16 624,-16 624,-35"/>
<text text-anchor="middle" x="608" y="-23" font-family="Helvetica,sans-Serif" font-size="10.00">util</text>
</a>
</g>
</g>
<!-- dir_38011a79da39fb3448319eccf8c364d9&#45;&gt;dir_4535887b2cdca47e625f259d07db0112 -->
<g id="edge4" class="edge">
<title>dir_38011a79da39fb3448319eccf8c364d9&#45;&gt;dir_4535887b2cdca47e625f259d07db0112</title>
<path fill="none" stroke="#63b8ff" d="M438.02,-74.14C468.33,-66.64 524.83,-52.29 581.99,-35.15"/>
<polygon fill="#63b8ff" stroke="#63b8ff" points="583.36,-38.39 591.91,-32.15 581.33,-31.69 583.36,-38.39"/>
<g id="a_edge4&#45;headlabel"><a xlink:href="dir_000139_000185.html" target="_top" xlink:title="7">
<text text-anchor="middle" x="580.74" y="-39.65" font-family="Helvetica,sans-Serif" font-size="10.00" fill="#63b8ff">7</text>
</a>
</g>
</g>
<!-- dir_521de572ae4fe2915cc70a876c52f5b7 -->
<g id="node11" class="node">
<title>dir_521de572ae4fe2915cc70a876c52f5b7</title>
<g id="a_node11"><a xlink:href="dir_521de572ae4fe2915cc70a876c52f5b7.html" target="_top" xlink:title="container">
<polygon fill="#edf0f7" stroke="red" stroke-dasharray="5,2" points="704,-35 642,-35 642,-16 704,-16 704,-35"/>
<text text-anchor="middle" x="673" y="-23" font-family="Helvetica,sans-Serif" font-size="10.00">container</text>
</a>
</g>
</g>
<!-- dir_38011a79da39fb3448319eccf8c364d9&#45;&gt;dir_521de572ae4fe2915cc70a876c52f5b7 -->
<g id="edge5" class="edge">
<title>dir_38011a79da39fb3448319eccf8c364d9&#45;&gt;dir_521de572ae4fe2915cc70a876c52f5b7</title>
<path fill="none" stroke="#63b8ff" d="M438.19,-75C475.87,-67.36 555,-51.25 632.12,-35.17"/>
<polygon fill="#63b8ff" stroke="#63b8ff" points="632.92,-38.58 642,-33.11 631.49,-31.73 632.92,-38.58"/>
<g id="a_edge5&#45;headlabel"><a xlink:href="dir_000139_000046.html" target="_top" xlink:title="3">
<text text-anchor="middle" x="629.98" y="-39.59" font-family="Helvetica,sans-Serif" font-size="10.00" fill="#63b8ff">3</text>
</a>
</g>
</g>
<!-- dir_60d1624911c2c9f7b6f38e44ec895aaa -->
<g id="node12" class="node">
<title>dir_60d1624911c2c9f7b6f38e44ec895aaa</title>
<g id="a_node12"><a xlink:href="dir_60d1624911c2c9f7b6f38e44ec895aaa.html" target="_top" xlink:title="math">
<polygon fill="#edf0f7" stroke="red" stroke-dasharray="5,2" points="764,-35 722,-35 722,-16 764,-16 764,-35"/>
<text text-anchor="middle" x="743" y="-23" font-family="Helvetica,sans-Serif" font-size="10.00">math</text>
</a>
</g>
</g>
<!-- dir_38011a79da39fb3448319eccf8c364d9&#45;&gt;dir_60d1624911c2c9f7b6f38e44ec895aaa -->
<g id="edge8" class="edge">
<title>dir_38011a79da39fb3448319eccf8c364d9&#45;&gt;dir_60d1624911c2c9f7b6f38e44ec895aaa</title>
<path fill="none" stroke="#63b8ff" d="M438.16,-77.16C486.25,-71.87 603.91,-57.81 711.71,-35.03"/>
<polygon fill="#63b8ff" stroke="#63b8ff" points="712.74,-38.39 721.78,-32.87 711.27,-31.55 712.74,-38.39"/>
<g id="a_edge8&#45;headlabel"><a xlink:href="dir_000139_000117.html" target="_top" xlink:title="1">
<text text-anchor="middle" x="709.82" y="-39.42" font-family="Helvetica,sans-Serif" font-size="10.00" fill="#63b8ff">1</text>
</a>
</g>
</g>
<!-- dir_942cfae36a92b6b1c4b510e99e852d40 -->
<g id="node13" class="node">
<title>dir_942cfae36a92b6b1c4b510e99e852d40</title>
<g id="a_node13"><a xlink:href="dir_942cfae36a92b6b1c4b510e99e852d40.html" target="_top" xlink:title="vocab">
<polygon fill="#edf0f7" stroke="red" stroke-dasharray="5,2" points="828,-35 782,-35 782,-16 828,-16 828,-35"/>
<text text-anchor="middle" x="805" y="-23" font-family="Helvetica,sans-Serif" font-size="10.00">vocab</text>
</a>
</g>
</g>
<!-- dir_38011a79da39fb3448319eccf8c364d9&#45;&gt;dir_942cfae36a92b6b1c4b510e99e852d40 -->
<g id="edge11" class="edge">
<title>dir_38011a79da39fb3448319eccf8c364d9&#45;&gt;dir_942cfae36a92b6b1c4b510e99e852d40</title>
<path fill="none" stroke="#63b8ff" d="M438.31,-77.78C493.36,-73.31 640.21,-60.02 771.82,-34.99"/>
<polygon fill="#63b8ff" stroke="#63b8ff" points="772.51,-38.42 781.67,-33.09 771.18,-31.55 772.51,-38.42"/>
<g id="a_edge11&#45;headlabel"><a xlink:href="dir_000139_000189.html" target="_top" xlink:title="2">
<text text-anchor="middle" x="769.52" y="-39.39" font-family="Helvetica,sans-Serif" font-size="10.00" fill="#63b8ff">2</text>
</a>
</g>
</g>
<!-- dir_9bfc08b7c5b17d043ebb5b9fbb866539 -->
<g id="node14" class="node">
<title>dir_9bfc08b7c5b17d043ebb5b9fbb866539</title>
<g id="a_node14"><a xlink:href="dir_9bfc08b7c5b17d043ebb5b9fbb866539.html" target="_top" xlink:title="sync">
<polygon fill="#edf0f7" stroke="red" stroke-dasharray="5,2" points="885.5,-35 846.5,-35 846.5,-16 885.5,-16 885.5,-35"/>
<text text-anchor="middle" x="866" y="-23" font-family="Helvetica,sans-Serif" font-size="10.00">sync</text>
</a>
</g>
</g>
<!-- dir_38011a79da39fb3448319eccf8c364d9&#45;&gt;dir_9bfc08b7c5b17d043ebb5b9fbb866539 -->
<g id="edge12" class="edge">
<title>dir_38011a79da39fb3448319eccf8c364d9&#45;&gt;dir_9bfc08b7c5b17d043ebb5b9fbb866539</title>
<path fill="none" stroke="#63b8ff" d="M438.12,-78.56C499.77,-75.66 678.76,-65.24 836.58,-34.69"/>
<polygon fill="#63b8ff" stroke="#63b8ff" points="837.33,-38.11 846.46,-32.74 835.98,-31.24 837.33,-38.11"/>
<g id="a_edge12&#45;headlabel"><a xlink:href="dir_000139_000162.html" target="_top" xlink:title="2">
<text text-anchor="middle" x="834.35" y="-39.09" font-family="Helvetica,sans-Serif" font-size="10.00" fill="#63b8ff">2</text>
</a>
</g>
</g>
<!-- dir_aaf67126bd5deefc4d96704f76f22cc2 -->
<g id="node15" class="node">
<title>dir_aaf67126bd5deefc4d96704f76f22cc2</title>
<g id="a_node15"><a xlink:href="dir_aaf67126bd5deefc4d96704f76f22cc2.html" target="_top" xlink:title="platform">
<polygon fill="#edf0f7" stroke="#7f7f7f" points="962.5,-35 903.5,-35 903.5,-16 962.5,-16 962.5,-35"/>
<text text-anchor="middle" x="933" y="-23" font-family="Helvetica,sans-Serif" font-size="10.00">platform</text>
</a>
</g>
</g>
<!-- dir_38011a79da39fb3448319eccf8c364d9&#45;&gt;dir_aaf67126bd5deefc4d96704f76f22cc2 -->
<g id="edge13" class="edge">
<title>dir_38011a79da39fb3448319eccf8c364d9&#45;&gt;dir_aaf67126bd5deefc4d96704f76f22cc2</title>
<path fill="none" stroke="#63b8ff" d="M438.09,-78.45C505.15,-75.06 712.43,-63.02 893.25,-35.1"/>
<polygon fill="#63b8ff" stroke="#63b8ff" points="893.86,-38.55 903.2,-33.54 892.78,-31.63 893.86,-38.55"/>
<g id="a_edge13&#45;headlabel"><a xlink:href="dir_000139_000135.html" target="_top" xlink:title="1">
<text text-anchor="middle" x="890.75" y="-39.41" font-family="Helvetica,sans-Serif" font-size="10.00" fill="#63b8ff">1</text>
</a>
</g>
</g>
<!-- dir_f555f996eeee1ebe901dc71e0c5de8ff -->
<g id="node16" class="node">
<title>dir_f555f996eeee1ebe901dc71e0c5de8ff</title>
<g id="a_node16"><a xlink:href="dir_f555f996eeee1ebe901dc71e0c5de8ff.html" target="_top" xlink:title="meta">
<polygon fill="#edf0f7" stroke="#7f7f7f" points="1023,-35 981,-35 981,-16 1023,-16 1023,-35"/>
<text text-anchor="middle" x="1002" y="-23" font-family="Helvetica,sans-Serif" font-size="10.00">meta</text>
</a>
</g>
</g>
<!-- dir_38011a79da39fb3448319eccf8c364d9&#45;&gt;dir_f555f996eeee1ebe901dc71e0c5de8ff -->
<g id="edge15" class="edge">
<title>dir_38011a79da39fb3448319eccf8c364d9&#45;&gt;dir_f555f996eeee1ebe901dc71e0c5de8ff</title>
<path fill="none" stroke="#63b8ff" d="M438.18,-79.28C512.43,-78.23 758.98,-72.1 970.76,-34.86"/>
<polygon fill="#63b8ff" stroke="#63b8ff" points="971.59,-38.26 980.82,-33.06 970.36,-31.37 971.59,-38.26"/>
<g id="a_edge15&#45;headlabel"><a xlink:href="dir_000139_000122.html" target="_top" xlink:title="12">
<text text-anchor="middle" x="968.55" y="-39.19" font-family="Helvetica,sans-Serif" font-size="10.00" fill="#63b8ff">12</text>
</a>
</g>
</g>
</g>
</svg>
