<?xml version="1.0" encoding="UTF-8" standalone="no"?>
<!DOCTYPE svg PUBLIC "-//W3C//DTD SVG 1.1//EN"
 "http://www.w3.org/Graphics/SVG/1.1/DTD/svg11.dtd">
<!-- Generated by graphviz version 2.43.0 (0)
 -->
<!-- Title: libs/di/include/di/bit/bitset Pages: 1 -->
<svg width="242pt" height="117pt"
 viewBox="0.00 0.00 241.50 117.00" xmlns="http://www.w3.org/2000/svg" xmlns:xlink="http://www.w3.org/1999/xlink">
<g id="graph0" class="graph" transform="scale(1 1) rotate(0) translate(4 113)">
<title>libs/di/include/di/bit/bitset</title>
<g id="clust1" class="cluster">
<title>clusterdir_143f1d6bc6d46924c644ec67dc1fb4fc</title>
<g id="a_clust1"><a xlink:href="dir_143f1d6bc6d46924c644ec67dc1fb4fc.html" target="_top" xlink:title="bit">
<polygon fill="#edf0f7" stroke="#7f7f7f" stroke-dasharray="5,2" points="84,-47 84,-101 144,-101 144,-47 84,-47"/>
<text text-anchor="middle" x="114" y="-89" font-family="Helvetica,sans-Serif" font-size="10.00">bit</text>
</a>
</g>
</g>
<!-- dir_0811e5724a3392528f19c26dd8765a64 -->
<g id="node1" class="node">
<title>dir_0811e5724a3392528f19c26dd8765a64</title>
<g id="a_node1"><a xlink:href="dir_0811e5724a3392528f19c26dd8765a64.html" target="_top" xlink:title="bitset">
<polygon fill="#edf0f7" stroke="#404040" stroke-width="2" points="136,-74 92,-74 92,-55 136,-55 136,-74"/>
<text text-anchor="middle" x="114" y="-62" font-family="Helvetica,sans-Serif" font-size="10.00">bitset</text>
</a>
</g>
</g>
<!-- dir_30ecaf38acae77be14fb9173f98f8612 -->
<g id="node2" class="node">
<title>dir_30ecaf38acae77be14fb9173f98f8612</title>
<g id="a_node2"><a xlink:href="dir_30ecaf38acae77be14fb9173f98f8612.html" target="_top" xlink:title="types">
<polygon fill="#edf0f7" stroke="#7f7f7f" points="44,-19 0,-19 0,0 44,0 44,-19"/>
<text text-anchor="middle" x="22" y="-7" font-family="Helvetica,sans-Serif" font-size="10.00">types</text>
</a>
</g>
</g>
<!-- dir_0811e5724a3392528f19c26dd8765a64&#45;&gt;dir_30ecaf38acae77be14fb9173f98f8612 -->
<g id="edge1" class="edge">
<title>dir_0811e5724a3392528f19c26dd8765a64&#45;&gt;dir_30ecaf38acae77be14fb9173f98f8612</title>
<path fill="none" stroke="#63b8ff" d="M99.22,-54.98C84.82,-46.69 62.69,-33.94 45.81,-24.22"/>
<polygon fill="#63b8ff" stroke="#63b8ff" points="47.46,-21.13 37.05,-19.17 43.97,-27.19 47.46,-21.13"/>
<g id="a_edge1&#45;headlabel"><a xlink:href="dir_000024_000180.html" target="_top" xlink:title="3">
<text text-anchor="middle" x="51.99" y="-17.96" font-family="Helvetica,sans-Serif" font-size="10.00" fill="#63b8ff">3</text>
</a>
</g>
</g>
<!-- dir_60d1624911c2c9f7b6f38e44ec895aaa -->
<g id="node3" class="node">
<title>dir_60d1624911c2c9f7b6f38e44ec895aaa</title>
<g id="a_node3"><a xlink:href="dir_60d1624911c2c9f7b6f38e44ec895aaa.html" target="_top" xlink:title="math">
<polygon fill="#edf0f7" stroke="red" stroke-dasharray="5,2" points="104,-19 62,-19 62,0 104,0 104,-19"/>
<text text-anchor="middle" x="83" y="-7" font-family="Helvetica,sans-Serif" font-size="10.00">math</text>
</a>
</g>
</g>
<!-- dir_0811e5724a3392528f19c26dd8765a64&#45;&gt;dir_60d1624911c2c9f7b6f38e44ec895aaa -->
<g id="edge2" class="edge">
<title>dir_0811e5724a3392528f19c26dd8765a64&#45;&gt;dir_60d1624911c2c9f7b6f38e44ec895aaa</title>
<path fill="none" stroke="#63b8ff" d="M108.88,-54.75C104.64,-47.49 98.47,-36.95 93.22,-27.98"/>
<polygon fill="#63b8ff" stroke="#63b8ff" points="96.09,-25.95 88.02,-19.09 90.05,-29.49 96.09,-25.95"/>
<g id="a_edge2&#45;headlabel"><a xlink:href="dir_000024_000117.html" target="_top" xlink:title="1">
<text text-anchor="middle" x="100.36" y="-25.12" font-family="Helvetica,sans-Serif" font-size="10.00" fill="#63b8ff">1</text>
</a>
</g>
</g>
<!-- dir_942cfae36a92b6b1c4b510e99e852d40 -->
<g id="node4" class="node">
<title>dir_942cfae36a92b6b1c4b510e99e852d40</title>
<g id="a_node4"><a xlink:href="dir_942cfae36a92b6b1c4b510e99e852d40.html" target="_top" xlink:title="vocab">
<polygon fill="#edf0f7" stroke="red" stroke-dasharray="5,2" points="168,-19 122,-19 122,0 168,0 168,-19"/>
<text text-anchor="middle" x="145" y="-7" font-family="Helvetica,sans-Serif" font-size="10.00">vocab</text>
</a>
</g>
</g>
<!-- dir_0811e5724a3392528f19c26dd8765a64&#45;&gt;dir_942cfae36a92b6b1c4b510e99e852d40 -->
<g id="edge3" class="edge">
<title>dir_0811e5724a3392528f19c26dd8765a64&#45;&gt;dir_942cfae36a92b6b1c4b510e99e852d40</title>
<path fill="none" stroke="#63b8ff" d="M119.12,-54.75C123.36,-47.49 129.53,-36.95 134.78,-27.98"/>
<polygon fill="#63b8ff" stroke="#63b8ff" points="137.95,-29.49 139.98,-19.09 131.91,-25.95 137.95,-29.49"/>
<g id="a_edge3&#45;headlabel"><a xlink:href="dir_000024_000189.html" target="_top" xlink:title="1">
<text text-anchor="middle" x="138.58" y="-31.52" font-family="Helvetica,sans-Serif" font-size="10.00" fill="#63b8ff">1</text>
</a>
</g>
</g>
<!-- dir_a60d4453151dca6bdd8e5fcc350e379b -->
<g id="node5" class="node">
<title>dir_a60d4453151dca6bdd8e5fcc350e379b</title>
<g id="a_node5"><a xlink:href="dir_a60d4453151dca6bdd8e5fcc350e379b.html" target="_top" xlink:title="assert">
<polygon fill="#edf0f7" stroke="#7f7f7f" points="233.5,-19 186.5,-19 186.5,0 233.5,0 233.5,-19"/>
<text text-anchor="middle" x="210" y="-7" font-family="Helvetica,sans-Serif" font-size="10.00">assert</text>
</a>
</g>
</g>
<!-- dir_0811e5724a3392528f19c26dd8765a64&#45;&gt;dir_a60d4453151dca6bdd8e5fcc350e379b -->
<g id="edge4" class="edge">
<title>dir_0811e5724a3392528f19c26dd8765a64&#45;&gt;dir_a60d4453151dca6bdd8e5fcc350e379b</title>
<path fill="none" stroke="#63b8ff" d="M129.42,-54.98C144.45,-46.69 167.54,-33.94 185.16,-24.22"/>
<polygon fill="#63b8ff" stroke="#63b8ff" points="187.23,-27.07 194.3,-19.17 183.85,-20.94 187.23,-27.07"/>
<g id="a_edge4&#45;headlabel"><a xlink:href="dir_000024_000018.html" target="_top" xlink:title="1">
<text text-anchor="middle" x="185.46" y="-28.79" font-family="Helvetica,sans-Serif" font-size="10.00" fill="#63b8ff">1</text>
</a>
</g>
</g>
</g>
</svg>
