<?xml version="1.0" encoding="UTF-8" standalone="no"?>
<!DOCTYPE svg PUBLIC "-//W3C//DTD SVG 1.1//EN"
 "http://www.w3.org/Graphics/SVG/1.1/DTD/svg11.dtd">
<!-- Generated by graphviz version 2.43.0 (0)
 -->
<!-- Title: iris/hw Pages: 1 -->
<svg width="177pt" height="141pt"
 viewBox="0.00 0.00 177.00 141.00" xmlns="http://www.w3.org/2000/svg" xmlns:xlink="http://www.w3.org/1999/xlink">
<g id="graph0" class="graph" transform="scale(1 1) rotate(0) translate(4 137)">
<title>iris/hw</title>
<g id="clust1" class="cluster">
<title>clusterdir_2605f0c6ea8f9a17a384edc9a2df15f4</title>
<g id="a_clust1"><a xlink:href="dir_2605f0c6ea8f9a17a384edc9a2df15f4.html" target="_top" xlink:title="iris">
<polygon fill="#edf0f7" stroke="#404040" stroke-dasharray="5,2" points="8,-8 8,-125 127,-125 127,-8 8,-8"/>
<text text-anchor="middle" x="67.5" y="-113" font-family="Helvetica,sans-Serif" font-size="10.00">iris</text>
</a>
</g>
</g>
<g id="clust2" class="cluster">
<title>clusterdir_675dedb16c240190ff5f5386f85fd715</title>
<g id="a_clust2"><a xlink:href="dir_675dedb16c240190ff5f5386f85fd715.html" target="_top">
<polygon fill="#edf0f7" stroke="#404040" stroke-width="2" points="16,-63 16,-98 119,-98 119,-63 16,-63"/>
</a>
</g>
</g>
<!-- dir_29a765eed241630f2929477fec556e75 -->
<g id="node1" class="node">
<title>dir_29a765eed241630f2929477fec556e75</title>
<g id="a_node1"><a xlink:href="dir_29a765eed241630f2929477fec556e75.html" target="_top" xlink:title="include">
<polygon fill="#a2b4d6" stroke="red" points="93,-35 41,-35 41,-16 93,-16 93,-35"/>
<text text-anchor="middle" x="67" y="-23" font-family="Helvetica,sans-Serif" font-size="10.00">include</text>
</a>
</g>
</g>
<!-- dir_675dedb16c240190ff5f5386f85fd715 -->
<g id="node2" class="node">
<title>dir_675dedb16c240190ff5f5386f85fd715</title>
<text text-anchor="middle" x="95" y="-78" font-family="Helvetica,sans-Serif" font-size="10.00">hw</text>
</g>
<!-- dir_675dedb16c240190ff5f5386f85fd715&#45;&gt;dir_29a765eed241630f2929477fec556e75 -->
<g id="edge1" class="edge">
<title>dir_675dedb16c240190ff5f5386f85fd715&#45;&gt;dir_29a765eed241630f2929477fec556e75</title>
<path fill="none" stroke="#63b8ff" d="M90.38,-70.75C86.54,-63.49 80.98,-52.95 76.24,-43.98"/>
<polygon fill="#63b8ff" stroke="#63b8ff" points="79.3,-42.3 71.54,-35.09 73.11,-45.57 79.3,-42.3"/>
<g id="a_edge1&#45;headlabel"><a xlink:href="dir_000087_000090.html" target="_top" xlink:title="17">
<text text-anchor="middle" x="83.49" y="-41.65" font-family="Helvetica,sans-Serif" font-size="10.00" fill="#63b8ff">17</text>
</a>
</g>
</g>
<!-- dir_6719ab1f1f7655efc2fa43f7eb574fd1 -->
<g id="node4" class="node">
<title>dir_6719ab1f1f7655efc2fa43f7eb574fd1</title>
<g id="a_node4"><a xlink:href="dir_6719ab1f1f7655efc2fa43f7eb574fd1.html" target="_top" xlink:title="libs">
<polygon fill="#edf0f7" stroke="red" points="169,-35 135,-35 135,-16 169,-16 169,-35"/>
<text text-anchor="middle" x="152" y="-23" font-family="Helvetica,sans-Serif" font-size="10.00">libs</text>
</a>
</g>
</g>
<!-- dir_675dedb16c240190ff5f5386f85fd715&#45;&gt;dir_6719ab1f1f7655efc2fa43f7eb574fd1 -->
<g id="edge2" class="edge">
<title>dir_675dedb16c240190ff5f5386f85fd715&#45;&gt;dir_6719ab1f1f7655efc2fa43f7eb574fd1</title>
<path fill="none" stroke="#63b8ff" d="M104.16,-70.98C112.5,-63.23 125.03,-51.58 135.18,-42.14"/>
<polygon fill="#63b8ff" stroke="#63b8ff" points="137.74,-44.54 142.68,-35.17 132.97,-39.42 137.74,-44.54"/>
<g id="a_edge2&#45;headlabel"><a xlink:href="dir_000087_000109.html" target="_top" xlink:title="1">
<text text-anchor="middle" x="137.04" y="-46.57" font-family="Helvetica,sans-Serif" font-size="10.00" fill="#63b8ff">1</text>
</a>
</g>
</g>
<!-- dir_eb55c7e5563ab82bf5acf563f6448908 -->
<g id="node3" class="node">
<title>dir_eb55c7e5563ab82bf5acf563f6448908</title>
<g id="a_node3"><a xlink:href="dir_eb55c7e5563ab82bf5acf563f6448908.html" target="_top" xlink:title="acpi">
<polygon fill="#a2b4d6" stroke="#404040" points="61.5,-90 24.5,-90 24.5,-71 61.5,-71 61.5,-90"/>
<text text-anchor="middle" x="43" y="-78" font-family="Helvetica,sans-Serif" font-size="10.00">acpi</text>
</a>
</g>
</g>
<!-- dir_eb55c7e5563ab82bf5acf563f6448908&#45;&gt;dir_29a765eed241630f2929477fec556e75 -->
<g id="edge3" class="edge">
<title>dir_eb55c7e5563ab82bf5acf563f6448908&#45;&gt;dir_29a765eed241630f2929477fec556e75</title>
<path fill="none" stroke="#63b8ff" d="M46.96,-70.75C50.21,-63.57 54.92,-53.18 58.95,-44.27"/>
<polygon fill="#63b8ff" stroke="#63b8ff" points="62.17,-45.64 63.11,-35.09 55.8,-42.75 62.17,-45.64"/>
<g id="a_edge3&#45;headlabel"><a xlink:href="dir_000000_000090.html" target="_top" xlink:title="8">
<text text-anchor="middle" x="63.28" y="-47.59" font-family="Helvetica,sans-Serif" font-size="10.00" fill="#63b8ff">8</text>
</a>
</g>
</g>
</g>
</svg>
