<?xml version="1.0" encoding="UTF-8" standalone="no"?>
<!DOCTYPE svg PUBLIC "-//W3C//DTD SVG 1.1//EN"
 "http://www.w3.org/Graphics/SVG/1.1/DTD/svg11.dtd">
<!-- Generated by graphviz version 2.43.0 (0)
 -->
<!-- Title: libs/di/include/di/container/vector Pages: 1 -->
<svg width="1007pt" height="133pt"
 viewBox="0.00 0.00 1007.00 133.00" xmlns="http://www.w3.org/2000/svg" xmlns:xlink="http://www.w3.org/1999/xlink">
<g id="graph0" class="graph" transform="scale(1 1) rotate(0) translate(4 129)">
<title>libs/di/include/di/container/vector</title>
<g id="clust1" class="cluster">
<title>clusterdir_521de572ae4fe2915cc70a876c52f5b7</title>
<g id="a_clust1"><a xlink:href="dir_521de572ae4fe2915cc70a876c52f5b7.html" target="_top" xlink:title="container">
<polygon fill="#edf0f7" stroke="#7f7f7f" stroke-dasharray="5,2" points="8,-8 8,-117 568,-117 568,-8 8,-8"/>
<text text-anchor="middle" x="288" y="-105" font-family="Helvetica,sans-Serif" font-size="10.00">container</text>
</a>
</g>
</g>
<!-- dir_28cb5a05dfb61a4b9ad44e468e6394a4 -->
<g id="node1" class="node">
<title>dir_28cb5a05dfb61a4b9ad44e468e6394a4</title>
<g id="a_node1"><a xlink:href="dir_28cb5a05dfb61a4b9ad44e468e6394a4.html" target="_top" xlink:title="view">
<polygon fill="#a2b4d6" stroke="#404040" points="56,-35 16,-35 16,-16 56,-16 56,-35"/>
<text text-anchor="middle" x="36" y="-23" font-family="Helvetica,sans-Serif" font-size="10.00">view</text>
</a>
</g>
</g>
<!-- dir_60528a66b99dd07a1313b3c263e646ab -->
<g id="node2" class="node">
<title>dir_60528a66b99dd07a1313b3c263e646ab</title>
<g id="a_node2"><a xlink:href="dir_60528a66b99dd07a1313b3c263e646ab.html" target="_top" xlink:title="algorithm">
<polygon fill="#a2b4d6" stroke="#404040" points="138,-35 74,-35 74,-16 138,-16 138,-35"/>
<text text-anchor="middle" x="106" y="-23" font-family="Helvetica,sans-Serif" font-size="10.00">algorithm</text>
</a>
</g>
</g>
<!-- dir_75ced0d5626770d74ec0ab0f9ebe51e3 -->
<g id="node3" class="node">
<title>dir_75ced0d5626770d74ec0ab0f9ebe51e3</title>
<g id="a_node3"><a xlink:href="dir_75ced0d5626770d74ec0ab0f9ebe51e3.html" target="_top" xlink:title="allocator">
<polygon fill="#a2b4d6" stroke="#404040" points="215.5,-35 156.5,-35 156.5,-16 215.5,-16 215.5,-35"/>
<text text-anchor="middle" x="186" y="-23" font-family="Helvetica,sans-Serif" font-size="10.00">allocator</text>
</a>
</g>
</g>
<!-- dir_838362f34bc8d8c3545343b0166aa672 -->
<g id="node4" class="node">
<title>dir_838362f34bc8d8c3545343b0166aa672</title>
<g id="a_node4"><a xlink:href="dir_838362f34bc8d8c3545343b0166aa672.html" target="_top" xlink:title="concepts">
<polygon fill="#a2b4d6" stroke="#404040" points="294,-35 234,-35 234,-16 294,-16 294,-35"/>
<text text-anchor="middle" x="264" y="-23" font-family="Helvetica,sans-Serif" font-size="10.00">concepts</text>
</a>
</g>
</g>
<!-- dir_9f8d33513cfc97e5f9ea6bf2671e5446 -->
<g id="node5" class="node">
<title>dir_9f8d33513cfc97e5f9ea6bf2671e5446</title>
<g id="a_node5"><a xlink:href="dir_9f8d33513cfc97e5f9ea6bf2671e5446.html" target="_top" xlink:title="meta">
<polygon fill="#a2b4d6" stroke="#404040" points="354,-35 312,-35 312,-16 354,-16 354,-35"/>
<text text-anchor="middle" x="333" y="-23" font-family="Helvetica,sans-Serif" font-size="10.00">meta</text>
</a>
</g>
</g>
<!-- dir_a7b99681c56fba2abd28393cbbc3f22c -->
<g id="node6" class="node">
<title>dir_a7b99681c56fba2abd28393cbbc3f22c</title>
<g id="a_node6"><a xlink:href="dir_a7b99681c56fba2abd28393cbbc3f22c.html" target="_top" xlink:title="types">
<polygon fill="#a2b4d6" stroke="#404040" points="416,-35 372,-35 372,-16 416,-16 416,-35"/>
<text text-anchor="middle" x="394" y="-23" font-family="Helvetica,sans-Serif" font-size="10.00">types</text>
</a>
</g>
</g>
<!-- dir_d51187963f88a3ef0fe489eb9431bd26 -->
<g id="node7" class="node">
<title>dir_d51187963f88a3ef0fe489eb9431bd26</title>
<g id="a_node7"><a xlink:href="dir_d51187963f88a3ef0fe489eb9431bd26.html" target="_top" xlink:title="action">
<polygon fill="#a2b4d6" stroke="#404040" points="481.5,-35 434.5,-35 434.5,-16 481.5,-16 481.5,-35"/>
<text text-anchor="middle" x="458" y="-23" font-family="Helvetica,sans-Serif" font-size="10.00">action</text>
</a>
</g>
</g>
<!-- dir_dd6c062645334da7e8440ac2e54ccb1d -->
<g id="node8" class="node">
<title>dir_dd6c062645334da7e8440ac2e54ccb1d</title>
<g id="a_node8"><a xlink:href="dir_dd6c062645334da7e8440ac2e54ccb1d.html" target="_top" xlink:title="interface">
<polygon fill="#a2b4d6" stroke="#404040" points="560,-35 500,-35 500,-16 560,-16 560,-35"/>
<text text-anchor="middle" x="530" y="-23" font-family="Helvetica,sans-Serif" font-size="10.00">interface</text>
</a>
</g>
</g>
<!-- dir_f1a41f0d4848adc979771c8b39d6dd9b -->
<g id="node9" class="node">
<title>dir_f1a41f0d4848adc979771c8b39d6dd9b</title>
<g id="a_node9"><a xlink:href="dir_f1a41f0d4848adc979771c8b39d6dd9b.html" target="_top" xlink:title="vector">
<polygon fill="#edf0f7" stroke="#404040" stroke-width="2" points="553.5,-90 506.5,-90 506.5,-71 553.5,-71 553.5,-90"/>
<text text-anchor="middle" x="530" y="-78" font-family="Helvetica,sans-Serif" font-size="10.00">vector</text>
</a>
</g>
</g>
<!-- dir_f1a41f0d4848adc979771c8b39d6dd9b&#45;&gt;dir_28cb5a05dfb61a4b9ad44e468e6394a4 -->
<g id="edge1" class="edge">
<title>dir_f1a41f0d4848adc979771c8b39d6dd9b&#45;&gt;dir_28cb5a05dfb61a4b9ad44e468e6394a4</title>
<path fill="none" stroke="#63b8ff" d="M506.06,-78.81C438.34,-76.52 239.6,-67.48 66.23,-34.87"/>
<polygon fill="#63b8ff" stroke="#63b8ff" points="66.64,-31.38 56.16,-32.94 65.33,-38.26 66.64,-31.38"/>
<g id="a_edge1&#45;headlabel"><a xlink:href="dir_000187_000188.html" target="_top" xlink:title="3">
<text text-anchor="middle" x="70.71" y="-26.77" font-family="Helvetica,sans-Serif" font-size="10.00" fill="#63b8ff">3</text>
</a>
</g>
</g>
<!-- dir_f1a41f0d4848adc979771c8b39d6dd9b&#45;&gt;dir_60528a66b99dd07a1313b3c263e646ab -->
<g id="edge4" class="edge">
<title>dir_f1a41f0d4848adc979771c8b39d6dd9b&#45;&gt;dir_60528a66b99dd07a1313b3c263e646ab</title>
<path fill="none" stroke="#63b8ff" d="M506.21,-77.43C446.02,-72.03 282.84,-56.46 148,-35 147.9,-34.98 147.8,-34.97 147.7,-34.95"/>
<polygon fill="#63b8ff" stroke="#63b8ff" points="148.51,-31.54 138.05,-33.27 147.31,-38.44 148.51,-31.54"/>
<g id="a_edge4&#45;headlabel"><a xlink:href="dir_000187_000003.html" target="_top" xlink:title="9">
<text text-anchor="middle" x="152.53" y="-26.86" font-family="Helvetica,sans-Serif" font-size="10.00" fill="#63b8ff">9</text>
</a>
</g>
</g>
<!-- dir_f1a41f0d4848adc979771c8b39d6dd9b&#45;&gt;dir_75ced0d5626770d74ec0ab0f9ebe51e3 -->
<g id="edge6" class="edge">
<title>dir_f1a41f0d4848adc979771c8b39d6dd9b&#45;&gt;dir_75ced0d5626770d74ec0ab0f9ebe51e3</title>
<path fill="none" stroke="#63b8ff" d="M506.18,-76.6C456.2,-70.39 336.53,-54.89 225.77,-35.02"/>
<polygon fill="#63b8ff" stroke="#63b8ff" points="226.23,-31.55 215.77,-33.21 224.98,-38.44 226.23,-31.55"/>
<g id="a_edge6&#45;headlabel"><a xlink:href="dir_000187_000005.html" target="_top" xlink:title="7">
<text text-anchor="middle" x="230.27" y="-26.89" font-family="Helvetica,sans-Serif" font-size="10.00" fill="#63b8ff">7</text>
</a>
</g>
</g>
<!-- dir_f1a41f0d4848adc979771c8b39d6dd9b&#45;&gt;dir_838362f34bc8d8c3545343b0166aa672 -->
<g id="edge7" class="edge">
<title>dir_f1a41f0d4848adc979771c8b39d6dd9b&#45;&gt;dir_838362f34bc8d8c3545343b0166aa672</title>
<path fill="none" stroke="#63b8ff" d="M506.44,-75.05C466.86,-67.54 384.27,-51.71 304.44,-35.27"/>
<polygon fill="#63b8ff" stroke="#63b8ff" points="304.72,-31.75 294.22,-33.15 303.3,-38.6 304.72,-31.75"/>
<g id="a_edge7&#45;headlabel"><a xlink:href="dir_000187_000037.html" target="_top" xlink:title="5">
<text text-anchor="middle" x="308.82" y="-27.2" font-family="Helvetica,sans-Serif" font-size="10.00" fill="#63b8ff">5</text>
</a>
</g>
</g>
<!-- dir_f1a41f0d4848adc979771c8b39d6dd9b&#45;&gt;dir_9f8d33513cfc97e5f9ea6bf2671e5446 -->
<g id="edge9" class="edge">
<title>dir_f1a41f0d4848adc979771c8b39d6dd9b&#45;&gt;dir_9f8d33513cfc97e5f9ea6bf2671e5446</title>
<path fill="none" stroke="#63b8ff" d="M506.46,-73.35C475.87,-65.33 420.55,-50.75 364.1,-35.27"/>
<polygon fill="#63b8ff" stroke="#63b8ff" points="364.86,-31.85 354.29,-32.58 363.01,-38.6 364.86,-31.85"/>
<g id="a_edge9&#45;headlabel"><a xlink:href="dir_000187_000120.html" target="_top" xlink:title="4">
<text text-anchor="middle" x="369.08" y="-27.57" font-family="Helvetica,sans-Serif" font-size="10.00" fill="#63b8ff">4</text>
</a>
</g>
</g>
<!-- dir_f1a41f0d4848adc979771c8b39d6dd9b&#45;&gt;dir_a7b99681c56fba2abd28393cbbc3f22c -->
<g id="edge11" class="edge">
<title>dir_f1a41f0d4848adc979771c8b39d6dd9b&#45;&gt;dir_a7b99681c56fba2abd28393cbbc3f22c</title>
<path fill="none" stroke="#63b8ff" d="M508.15,-70.98C485.88,-62.3 451.1,-48.75 425.78,-38.88"/>
<polygon fill="#63b8ff" stroke="#63b8ff" points="426.84,-35.54 416.25,-35.17 424.29,-42.06 426.84,-35.54"/>
<g id="a_edge11&#45;headlabel"><a xlink:href="dir_000187_000178.html" target="_top" xlink:title="2">
<text text-anchor="middle" x="431.22" y="-31.7" font-family="Helvetica,sans-Serif" font-size="10.00" fill="#63b8ff">2</text>
</a>
</g>
</g>
<!-- dir_f1a41f0d4848adc979771c8b39d6dd9b&#45;&gt;dir_d51187963f88a3ef0fe489eb9431bd26 -->
<g id="edge13" class="edge">
<title>dir_f1a41f0d4848adc979771c8b39d6dd9b&#45;&gt;dir_d51187963f88a3ef0fe489eb9431bd26</title>
<path fill="none" stroke="#63b8ff" d="M518.43,-70.98C507.58,-63 491.12,-50.88 478.12,-41.31"/>
<polygon fill="#63b8ff" stroke="#63b8ff" points="479.91,-38.28 469.78,-35.17 475.76,-43.92 479.91,-38.28"/>
<g id="a_edge13&#45;headlabel"><a xlink:href="dir_000187_000002.html" target="_top" xlink:title="2">
<text text-anchor="middle" x="484.48" y="-35.62" font-family="Helvetica,sans-Serif" font-size="10.00" fill="#63b8ff">2</text>
</a>
</g>
</g>
<!-- dir_f1a41f0d4848adc979771c8b39d6dd9b&#45;&gt;dir_dd6c062645334da7e8440ac2e54ccb1d -->
<g id="edge14" class="edge">
<title>dir_f1a41f0d4848adc979771c8b39d6dd9b&#45;&gt;dir_dd6c062645334da7e8440ac2e54ccb1d</title>
<path fill="none" stroke="#63b8ff" d="M530,-70.75C530,-63.8 530,-53.85 530,-45.13"/>
<polygon fill="#63b8ff" stroke="#63b8ff" points="533.5,-45.09 530,-35.09 526.5,-45.09 533.5,-45.09"/>
<g id="a_edge14&#45;headlabel"><a xlink:href="dir_000187_000095.html" target="_top" xlink:title="1">
<text text-anchor="middle" x="536.34" y="-46.18" font-family="Helvetica,sans-Serif" font-size="10.00" fill="#63b8ff">1</text>
</a>
</g>
</g>
<!-- dir_30ecaf38acae77be14fb9173f98f8612 -->
<g id="node10" class="node">
<title>dir_30ecaf38acae77be14fb9173f98f8612</title>
<g id="a_node10"><a xlink:href="dir_30ecaf38acae77be14fb9173f98f8612.html" target="_top" xlink:title="types">
<polygon fill="#edf0f7" stroke="#7f7f7f" points="622,-35 578,-35 578,-16 622,-16 622,-35"/>
<text text-anchor="middle" x="600" y="-23" font-family="Helvetica,sans-Serif" font-size="10.00">types</text>
</a>
</g>
</g>
<!-- dir_f1a41f0d4848adc979771c8b39d6dd9b&#45;&gt;dir_30ecaf38acae77be14fb9173f98f8612 -->
<g id="edge2" class="edge">
<title>dir_f1a41f0d4848adc979771c8b39d6dd9b&#45;&gt;dir_30ecaf38acae77be14fb9173f98f8612</title>
<path fill="none" stroke="#63b8ff" d="M541.25,-70.98C551.8,-63 567.8,-50.88 580.44,-41.31"/>
<polygon fill="#63b8ff" stroke="#63b8ff" points="582.69,-44 588.55,-35.17 578.46,-38.42 582.69,-44"/>
<g id="a_edge2&#45;headlabel"><a xlink:href="dir_000187_000180.html" target="_top" xlink:title="14">
<text text-anchor="middle" x="581.54" y="-45.93" font-family="Helvetica,sans-Serif" font-size="10.00" fill="#63b8ff">14</text>
</a>
</g>
</g>
<!-- dir_4535887b2cdca47e625f259d07db0112 -->
<g id="node11" class="node">
<title>dir_4535887b2cdca47e625f259d07db0112</title>
<g id="a_node11"><a xlink:href="dir_4535887b2cdca47e625f259d07db0112.html" target="_top" xlink:title="util">
<polygon fill="#edf0f7" stroke="#7f7f7f" points="672,-35 640,-35 640,-16 672,-16 672,-35"/>
<text text-anchor="middle" x="656" y="-23" font-family="Helvetica,sans-Serif" font-size="10.00">util</text>
</a>
</g>
</g>
<!-- dir_f1a41f0d4848adc979771c8b39d6dd9b&#45;&gt;dir_4535887b2cdca47e625f259d07db0112 -->
<g id="edge3" class="edge">
<title>dir_f1a41f0d4848adc979771c8b39d6dd9b&#45;&gt;dir_4535887b2cdca47e625f259d07db0112</title>
<path fill="none" stroke="#63b8ff" d="M550.24,-70.98C572.04,-61.82 606.75,-47.22 630.42,-37.26"/>
<polygon fill="#63b8ff" stroke="#63b8ff" points="631.95,-40.41 639.81,-33.31 629.24,-33.96 631.95,-40.41"/>
<g id="a_edge3&#45;headlabel"><a xlink:href="dir_000187_000185.html" target="_top" xlink:title="27">
<text text-anchor="middle" x="629.74" y="-41.92" font-family="Helvetica,sans-Serif" font-size="10.00" fill="#63b8ff">27</text>
</a>
</g>
</g>
<!-- dir_60d1624911c2c9f7b6f38e44ec895aaa -->
<g id="node12" class="node">
<title>dir_60d1624911c2c9f7b6f38e44ec895aaa</title>
<g id="a_node12"><a xlink:href="dir_60d1624911c2c9f7b6f38e44ec895aaa.html" target="_top" xlink:title="math">
<polygon fill="#edf0f7" stroke="red" stroke-dasharray="5,2" points="732,-35 690,-35 690,-16 732,-16 732,-35"/>
<text text-anchor="middle" x="711" y="-23" font-family="Helvetica,sans-Serif" font-size="10.00">math</text>
</a>
</g>
</g>
<!-- dir_f1a41f0d4848adc979771c8b39d6dd9b&#45;&gt;dir_60d1624911c2c9f7b6f38e44ec895aaa -->
<g id="edge5" class="edge">
<title>dir_f1a41f0d4848adc979771c8b39d6dd9b&#45;&gt;dir_60d1624911c2c9f7b6f38e44ec895aaa</title>
<path fill="none" stroke="#63b8ff" d="M553.66,-72.57C586.02,-63.1 644.13,-46.08 679.95,-35.59"/>
<polygon fill="#63b8ff" stroke="#63b8ff" points="681.25,-38.86 689.86,-32.69 679.28,-32.14 681.25,-38.86"/>
<g id="a_edge5&#45;headlabel"><a xlink:href="dir_000187_000117.html" target="_top" xlink:title="1">
<text text-anchor="middle" x="678.6" y="-40.09" font-family="Helvetica,sans-Serif" font-size="10.00" fill="#63b8ff">1</text>
</a>
</g>
</g>
<!-- dir_942cfae36a92b6b1c4b510e99e852d40 -->
<g id="node13" class="node">
<title>dir_942cfae36a92b6b1c4b510e99e852d40</title>
<g id="a_node13"><a xlink:href="dir_942cfae36a92b6b1c4b510e99e852d40.html" target="_top" xlink:title="vocab">
<polygon fill="#edf0f7" stroke="red" stroke-dasharray="5,2" points="796,-35 750,-35 750,-16 796,-16 796,-35"/>
<text text-anchor="middle" x="773" y="-23" font-family="Helvetica,sans-Serif" font-size="10.00">vocab</text>
</a>
</g>
</g>
<!-- dir_f1a41f0d4848adc979771c8b39d6dd9b&#45;&gt;dir_942cfae36a92b6b1c4b510e99e852d40 -->
<g id="edge8" class="edge">
<title>dir_f1a41f0d4848adc979771c8b39d6dd9b&#45;&gt;dir_942cfae36a92b6b1c4b510e99e852d40</title>
<path fill="none" stroke="#63b8ff" d="M553.51,-74.96C590.89,-67.64 666.4,-52.5 740.06,-35.13"/>
<polygon fill="#63b8ff" stroke="#63b8ff" points="741.04,-38.49 749.96,-32.77 739.43,-31.68 741.04,-38.49"/>
<g id="a_edge8&#45;headlabel"><a xlink:href="dir_000187_000189.html" target="_top" xlink:title="28">
<text text-anchor="middle" x="738.2" y="-39.58" font-family="Helvetica,sans-Serif" font-size="10.00" fill="#63b8ff">28</text>
</a>
</g>
</g>
<!-- dir_a60d4453151dca6bdd8e5fcc350e379b -->
<g id="node14" class="node">
<title>dir_a60d4453151dca6bdd8e5fcc350e379b</title>
<g id="a_node14"><a xlink:href="dir_a60d4453151dca6bdd8e5fcc350e379b.html" target="_top" xlink:title="assert">
<polygon fill="#edf0f7" stroke="#7f7f7f" points="861.5,-35 814.5,-35 814.5,-16 861.5,-16 861.5,-35"/>
<text text-anchor="middle" x="838" y="-23" font-family="Helvetica,sans-Serif" font-size="10.00">assert</text>
</a>
</g>
</g>
<!-- dir_f1a41f0d4848adc979771c8b39d6dd9b&#45;&gt;dir_a60d4453151dca6bdd8e5fcc350e379b -->
<g id="edge10" class="edge">
<title>dir_f1a41f0d4848adc979771c8b39d6dd9b&#45;&gt;dir_a60d4453151dca6bdd8e5fcc350e379b</title>
<path fill="none" stroke="#63b8ff" d="M553.68,-76.41C599.91,-70.23 705.59,-55.32 804.42,-34.94"/>
<polygon fill="#63b8ff" stroke="#63b8ff" points="805.19,-38.36 814.27,-32.89 803.76,-31.5 805.19,-38.36"/>
<g id="a_edge10&#45;headlabel"><a xlink:href="dir_000187_000018.html" target="_top" xlink:title="3">
<text text-anchor="middle" x="802.25" y="-39.37" font-family="Helvetica,sans-Serif" font-size="10.00" fill="#63b8ff">3</text>
</a>
</g>
</g>
<!-- dir_aaf67126bd5deefc4d96704f76f22cc2 -->
<g id="node15" class="node">
<title>dir_aaf67126bd5deefc4d96704f76f22cc2</title>
<g id="a_node15"><a xlink:href="dir_aaf67126bd5deefc4d96704f76f22cc2.html" target="_top" xlink:title="platform">
<polygon fill="#edf0f7" stroke="#7f7f7f" points="938.5,-35 879.5,-35 879.5,-16 938.5,-16 938.5,-35"/>
<text text-anchor="middle" x="909" y="-23" font-family="Helvetica,sans-Serif" font-size="10.00">platform</text>
</a>
</g>
</g>
<!-- dir_f1a41f0d4848adc979771c8b39d6dd9b&#45;&gt;dir_aaf67126bd5deefc4d96704f76f22cc2 -->
<g id="edge12" class="edge">
<title>dir_f1a41f0d4848adc979771c8b39d6dd9b&#45;&gt;dir_aaf67126bd5deefc4d96704f76f22cc2</title>
<path fill="none" stroke="#63b8ff" d="M553.68,-77.15C607.83,-71.63 745.04,-56.75 869.13,-35.2"/>
<polygon fill="#63b8ff" stroke="#63b8ff" points="869.94,-38.61 879.18,-33.44 868.73,-31.72 869.94,-38.61"/>
<g id="a_edge12&#45;headlabel"><a xlink:href="dir_000187_000135.html" target="_top" xlink:title="2">
<text text-anchor="middle" x="866.89" y="-39.53" font-family="Helvetica,sans-Serif" font-size="10.00" fill="#63b8ff">2</text>
</a>
</g>
</g>
<!-- dir_f555f996eeee1ebe901dc71e0c5de8ff -->
<g id="node16" class="node">
<title>dir_f555f996eeee1ebe901dc71e0c5de8ff</title>
<g id="a_node16"><a xlink:href="dir_f555f996eeee1ebe901dc71e0c5de8ff.html" target="_top" xlink:title="meta">
<polygon fill="#edf0f7" stroke="#7f7f7f" points="999,-35 957,-35 957,-16 999,-16 999,-35"/>
<text text-anchor="middle" x="978" y="-23" font-family="Helvetica,sans-Serif" font-size="10.00">meta</text>
</a>
</g>
</g>
<!-- dir_f1a41f0d4848adc979771c8b39d6dd9b&#45;&gt;dir_f555f996eeee1ebe901dc71e0c5de8ff -->
<g id="edge15" class="edge">
<title>dir_f1a41f0d4848adc979771c8b39d6dd9b&#45;&gt;dir_f555f996eeee1ebe901dc71e0c5de8ff</title>
<path fill="none" stroke="#63b8ff" d="M553.78,-78.39C616.55,-75.15 791.93,-64.18 946.64,-34.94"/>
<polygon fill="#63b8ff" stroke="#63b8ff" points="947.64,-38.31 956.8,-32.99 946.32,-31.44 947.64,-38.31"/>
<g id="a_edge15&#45;headlabel"><a xlink:href="dir_000187_000122.html" target="_top" xlink:title="13">
<text text-anchor="middle" x="944.65" y="-39.28" font-family="Helvetica,sans-Serif" font-size="10.00" fill="#63b8ff">13</text>
</a>
</g>
</g>
</g>
</svg>
