<?xml version="1.0" encoding="UTF-8" standalone="no"?>
<!DOCTYPE svg PUBLIC "-//W3C//DTD SVG 1.1//EN"
 "http://www.w3.org/Graphics/SVG/1.1/DTD/svg11.dtd">
<!-- Generated by graphviz version 2.43.0 (0)
 -->
<!-- Title: libs/di/include/di/container/concepts Pages: 1 -->
<svg width="524pt" height="133pt"
 viewBox="0.00 0.00 524.00 133.00" xmlns="http://www.w3.org/2000/svg" xmlns:xlink="http://www.w3.org/1999/xlink">
<g id="graph0" class="graph" transform="scale(1 1) rotate(0) translate(4 129)">
<title>libs/di/include/di/container/concepts</title>
<g id="clust1" class="cluster">
<title>clusterdir_521de572ae4fe2915cc70a876c52f5b7</title>
<g id="a_clust1"><a xlink:href="dir_521de572ae4fe2915cc70a876c52f5b7.html" target="_top" xlink:title="container">
<polygon fill="#edf0f7" stroke="#7f7f7f" stroke-dasharray="5,2" points="8,-8 8,-117 278,-117 278,-8 8,-8"/>
<text text-anchor="middle" x="143" y="-105" font-family="Helvetica,sans-Serif" font-size="10.00">container</text>
</a>
</g>
</g>
<!-- dir_093cb0cf41c3d9bb25543a4e1702223c -->
<g id="node1" class="node">
<title>dir_093cb0cf41c3d9bb25543a4e1702223c</title>
<g id="a_node1"><a xlink:href="dir_093cb0cf41c3d9bb25543a4e1702223c.html" target="_top" xlink:title="iterator">
<polygon fill="#a2b4d6" stroke="#404040" points="69.5,-35 16.5,-35 16.5,-16 69.5,-16 69.5,-35"/>
<text text-anchor="middle" x="43" y="-23" font-family="Helvetica,sans-Serif" font-size="10.00">iterator</text>
</a>
</g>
</g>
<!-- dir_9f8d33513cfc97e5f9ea6bf2671e5446 -->
<g id="node2" class="node">
<title>dir_9f8d33513cfc97e5f9ea6bf2671e5446</title>
<g id="a_node2"><a xlink:href="dir_9f8d33513cfc97e5f9ea6bf2671e5446.html" target="_top" xlink:title="meta">
<polygon fill="#a2b4d6" stroke="#404040" points="130,-35 88,-35 88,-16 130,-16 130,-35"/>
<text text-anchor="middle" x="109" y="-23" font-family="Helvetica,sans-Serif" font-size="10.00">meta</text>
</a>
</g>
</g>
<!-- dir_a7b99681c56fba2abd28393cbbc3f22c -->
<g id="node3" class="node">
<title>dir_a7b99681c56fba2abd28393cbbc3f22c</title>
<g id="a_node3"><a xlink:href="dir_a7b99681c56fba2abd28393cbbc3f22c.html" target="_top" xlink:title="types">
<polygon fill="#a2b4d6" stroke="#404040" points="192,-35 148,-35 148,-16 192,-16 192,-35"/>
<text text-anchor="middle" x="170" y="-23" font-family="Helvetica,sans-Serif" font-size="10.00">types</text>
</a>
</g>
</g>
<!-- dir_dd6c062645334da7e8440ac2e54ccb1d -->
<g id="node4" class="node">
<title>dir_dd6c062645334da7e8440ac2e54ccb1d</title>
<g id="a_node4"><a xlink:href="dir_dd6c062645334da7e8440ac2e54ccb1d.html" target="_top" xlink:title="interface">
<polygon fill="#a2b4d6" stroke="#404040" points="270,-35 210,-35 210,-16 270,-16 270,-35"/>
<text text-anchor="middle" x="240" y="-23" font-family="Helvetica,sans-Serif" font-size="10.00">interface</text>
</a>
</g>
</g>
<!-- dir_838362f34bc8d8c3545343b0166aa672 -->
<g id="node5" class="node">
<title>dir_838362f34bc8d8c3545343b0166aa672</title>
<g id="a_node5"><a xlink:href="dir_838362f34bc8d8c3545343b0166aa672.html" target="_top" xlink:title="concepts">
<polygon fill="#edf0f7" stroke="#404040" stroke-width="2" points="270,-90 210,-90 210,-71 270,-71 270,-90"/>
<text text-anchor="middle" x="240" y="-78" font-family="Helvetica,sans-Serif" font-size="10.00">concepts</text>
</a>
</g>
</g>
<!-- dir_838362f34bc8d8c3545343b0166aa672&#45;&gt;dir_093cb0cf41c3d9bb25543a4e1702223c -->
<g id="edge2" class="edge">
<title>dir_838362f34bc8d8c3545343b0166aa672&#45;&gt;dir_093cb0cf41c3d9bb25543a4e1702223c</title>
<path fill="none" stroke="#63b8ff" d="M209.65,-71.33C174.63,-61.91 117.06,-46.42 79.59,-36.34"/>
<polygon fill="#63b8ff" stroke="#63b8ff" points="80.16,-32.87 69.59,-33.65 78.34,-39.63 80.16,-32.87"/>
<g id="a_edge2&#45;headlabel"><a xlink:href="dir_000037_000108.html" target="_top" xlink:title="2">
<text text-anchor="middle" x="84.37" y="-28.56" font-family="Helvetica,sans-Serif" font-size="10.00" fill="#63b8ff">2</text>
</a>
</g>
</g>
<!-- dir_838362f34bc8d8c3545343b0166aa672&#45;&gt;dir_9f8d33513cfc97e5f9ea6bf2671e5446 -->
<g id="edge5" class="edge">
<title>dir_838362f34bc8d8c3545343b0166aa672&#45;&gt;dir_9f8d33513cfc97e5f9ea6bf2671e5446</title>
<path fill="none" stroke="#63b8ff" d="M218.95,-70.98C197.59,-62.34 164.3,-48.87 139.94,-39.02"/>
<polygon fill="#63b8ff" stroke="#63b8ff" points="141.01,-35.68 130.43,-35.17 138.39,-42.17 141.01,-35.68"/>
<g id="a_edge5&#45;headlabel"><a xlink:href="dir_000037_000120.html" target="_top" xlink:title="54">
<text text-anchor="middle" x="145.41" y="-31.89" font-family="Helvetica,sans-Serif" font-size="10.00" fill="#63b8ff">54</text>
</a>
</g>
</g>
<!-- dir_838362f34bc8d8c3545343b0166aa672&#45;&gt;dir_a7b99681c56fba2abd28393cbbc3f22c -->
<g id="edge6" class="edge">
<title>dir_838362f34bc8d8c3545343b0166aa672&#45;&gt;dir_a7b99681c56fba2abd28393cbbc3f22c</title>
<path fill="none" stroke="#63b8ff" d="M228.75,-70.98C218.2,-63 202.2,-50.88 189.56,-41.31"/>
<polygon fill="#63b8ff" stroke="#63b8ff" points="191.54,-38.42 181.45,-35.17 187.31,-44 191.54,-38.42"/>
<g id="a_edge6&#45;headlabel"><a xlink:href="dir_000037_000178.html" target="_top" xlink:title="5">
<text text-anchor="middle" x="196.12" y="-35.82" font-family="Helvetica,sans-Serif" font-size="10.00" fill="#63b8ff">5</text>
</a>
</g>
</g>
<!-- dir_838362f34bc8d8c3545343b0166aa672&#45;&gt;dir_dd6c062645334da7e8440ac2e54ccb1d -->
<g id="edge7" class="edge">
<title>dir_838362f34bc8d8c3545343b0166aa672&#45;&gt;dir_dd6c062645334da7e8440ac2e54ccb1d</title>
<path fill="none" stroke="#63b8ff" d="M240,-70.75C240,-63.8 240,-53.85 240,-45.13"/>
<polygon fill="#63b8ff" stroke="#63b8ff" points="243.5,-45.09 240,-35.09 236.5,-45.09 243.5,-45.09"/>
<g id="a_edge7&#45;headlabel"><a xlink:href="dir_000037_000095.html" target="_top" xlink:title="10">
<text text-anchor="middle" x="246.34" y="-46.18" font-family="Helvetica,sans-Serif" font-size="10.00" fill="#63b8ff">10</text>
</a>
</g>
</g>
<!-- dir_0669efae56692bb73da75efb5ebbccdf -->
<g id="node6" class="node">
<title>dir_0669efae56692bb73da75efb5ebbccdf</title>
<g id="a_node6"><a xlink:href="dir_0669efae56692bb73da75efb5ebbccdf.html" target="_top" xlink:title="function">
<polygon fill="#edf0f7" stroke="red" stroke-dasharray="5,2" points="344,-35 288,-35 288,-16 344,-16 344,-35"/>
<text text-anchor="middle" x="316" y="-23" font-family="Helvetica,sans-Serif" font-size="10.00">function</text>
</a>
</g>
</g>
<!-- dir_838362f34bc8d8c3545343b0166aa672&#45;&gt;dir_0669efae56692bb73da75efb5ebbccdf -->
<g id="edge1" class="edge">
<title>dir_838362f34bc8d8c3545343b0166aa672&#45;&gt;dir_0669efae56692bb73da75efb5ebbccdf</title>
<path fill="none" stroke="#63b8ff" d="M252.21,-70.98C263.78,-62.92 281.38,-50.65 295.16,-41.03"/>
<polygon fill="#63b8ff" stroke="#63b8ff" points="297.37,-43.76 303.57,-35.17 293.36,-38.02 297.37,-43.76"/>
<g id="a_edge1&#45;headlabel"><a xlink:href="dir_000037_000082.html" target="_top" xlink:title="8">
<text text-anchor="middle" x="296.04" y="-45.65" font-family="Helvetica,sans-Serif" font-size="10.00" fill="#63b8ff">8</text>
</a>
</g>
</g>
<!-- dir_30ecaf38acae77be14fb9173f98f8612 -->
<g id="node7" class="node">
<title>dir_30ecaf38acae77be14fb9173f98f8612</title>
<g id="a_node7"><a xlink:href="dir_30ecaf38acae77be14fb9173f98f8612.html" target="_top" xlink:title="types">
<polygon fill="#edf0f7" stroke="#7f7f7f" points="406,-35 362,-35 362,-16 406,-16 406,-35"/>
<text text-anchor="middle" x="384" y="-23" font-family="Helvetica,sans-Serif" font-size="10.00">types</text>
</a>
</g>
</g>
<!-- dir_838362f34bc8d8c3545343b0166aa672&#45;&gt;dir_30ecaf38acae77be14fb9173f98f8612 -->
<g id="edge3" class="edge">
<title>dir_838362f34bc8d8c3545343b0166aa672&#45;&gt;dir_30ecaf38acae77be14fb9173f98f8612</title>
<path fill="none" stroke="#63b8ff" d="M263.14,-70.98C287.25,-62.11 325.2,-48.14 352.13,-38.23"/>
<polygon fill="#63b8ff" stroke="#63b8ff" points="353.69,-41.38 361.87,-34.65 351.27,-34.82 353.69,-41.38"/>
<g id="a_edge3&#45;headlabel"><a xlink:href="dir_000037_000180.html" target="_top" xlink:title="2">
<text text-anchor="middle" x="351.3" y="-42.79" font-family="Helvetica,sans-Serif" font-size="10.00" fill="#63b8ff">2</text>
</a>
</g>
</g>
<!-- dir_4535887b2cdca47e625f259d07db0112 -->
<g id="node8" class="node">
<title>dir_4535887b2cdca47e625f259d07db0112</title>
<g id="a_node8"><a xlink:href="dir_4535887b2cdca47e625f259d07db0112.html" target="_top" xlink:title="util">
<polygon fill="#edf0f7" stroke="#7f7f7f" points="456,-35 424,-35 424,-16 456,-16 456,-35"/>
<text text-anchor="middle" x="440" y="-23" font-family="Helvetica,sans-Serif" font-size="10.00">util</text>
</a>
</g>
</g>
<!-- dir_838362f34bc8d8c3545343b0166aa672&#45;&gt;dir_4535887b2cdca47e625f259d07db0112 -->
<g id="edge4" class="edge">
<title>dir_838362f34bc8d8c3545343b0166aa672&#45;&gt;dir_4535887b2cdca47e625f259d07db0112</title>
<path fill="none" stroke="#63b8ff" d="M270.23,-72.58C303.36,-64.82 358.24,-51.49 414.2,-35.06"/>
<polygon fill="#63b8ff" stroke="#63b8ff" points="415.33,-38.37 423.92,-32.17 413.34,-31.66 415.33,-38.37"/>
<g id="a_edge4&#45;headlabel"><a xlink:href="dir_000037_000185.html" target="_top" xlink:title="7">
<text text-anchor="middle" x="412.69" y="-39.62" font-family="Helvetica,sans-Serif" font-size="10.00" fill="#63b8ff">7</text>
</a>
</g>
</g>
<!-- dir_f555f996eeee1ebe901dc71e0c5de8ff -->
<g id="node9" class="node">
<title>dir_f555f996eeee1ebe901dc71e0c5de8ff</title>
<g id="a_node9"><a xlink:href="dir_f555f996eeee1ebe901dc71e0c5de8ff.html" target="_top" xlink:title="meta">
<polygon fill="#edf0f7" stroke="#7f7f7f" points="516,-35 474,-35 474,-16 516,-16 516,-35"/>
<text text-anchor="middle" x="495" y="-23" font-family="Helvetica,sans-Serif" font-size="10.00">meta</text>
</a>
</g>
</g>
<!-- dir_838362f34bc8d8c3545343b0166aa672&#45;&gt;dir_f555f996eeee1ebe901dc71e0c5de8ff -->
<g id="edge8" class="edge">
<title>dir_838362f34bc8d8c3545343b0166aa672&#45;&gt;dir_f555f996eeee1ebe901dc71e0c5de8ff</title>
<path fill="none" stroke="#63b8ff" d="M270.01,-74.36C311.44,-67.09 388.69,-52.93 463.67,-35.16"/>
<polygon fill="#63b8ff" stroke="#63b8ff" points="464.84,-38.48 473.75,-32.75 463.21,-31.67 464.84,-38.48"/>
<g id="a_edge8&#45;headlabel"><a xlink:href="dir_000037_000122.html" target="_top" xlink:title="43">
<text text-anchor="middle" x="462.01" y="-39.58" font-family="Helvetica,sans-Serif" font-size="10.00" fill="#63b8ff">43</text>
</a>
</g>
</g>
</g>
</svg>
