<?xml version="1.0" encoding="UTF-8" standalone="no"?>
<!DOCTYPE svg PUBLIC "-//W3C//DTD SVG 1.1//EN"
 "http://www.w3.org/Graphics/SVG/1.1/DTD/svg11.dtd">
<!-- Generated by graphviz version 2.43.0 (0)
 -->
<!-- Title: libs/di/include/di/execution/coroutine Pages: 1 -->
<svg width="819pt" height="133pt"
 viewBox="0.00 0.00 819.00 133.00" xmlns="http://www.w3.org/2000/svg" xmlns:xlink="http://www.w3.org/1999/xlink">
<g id="graph0" class="graph" transform="scale(1 1) rotate(0) translate(4 129)">
<title>libs/di/include/di/execution/coroutine</title>
<g id="clust1" class="cluster">
<title>clusterdir_182dab0b86097ba072332b7ad8fceb7f</title>
<g id="a_clust1"><a xlink:href="dir_182dab0b86097ba072332b7ad8fceb7f.html" target="_top" xlink:title="execution">
<polygon fill="#edf0f7" stroke="#7f7f7f" stroke-dasharray="5,2" points="8,-8 8,-117 366,-117 366,-8 8,-8"/>
<text text-anchor="middle" x="187" y="-105" font-family="Helvetica,sans-Serif" font-size="10.00">execution</text>
</a>
</g>
</g>
<!-- dir_27e1a0af1927749316784e6421682a5e -->
<g id="node1" class="node">
<title>dir_27e1a0af1927749316784e6421682a5e</title>
<g id="a_node1"><a xlink:href="dir_27e1a0af1927749316784e6421682a5e.html" target="_top" xlink:title="interface">
<polygon fill="#a2b4d6" stroke="#404040" points="76,-35 16,-35 16,-16 76,-16 76,-35"/>
<text text-anchor="middle" x="46" y="-23" font-family="Helvetica,sans-Serif" font-size="10.00">interface</text>
</a>
</g>
</g>
<!-- dir_42e3132b523eec61d254ecfd76390a40 -->
<g id="node2" class="node">
<title>dir_42e3132b523eec61d254ecfd76390a40</title>
<g id="a_node2"><a xlink:href="dir_42e3132b523eec61d254ecfd76390a40.html" target="_top" xlink:title="algorithm">
<polygon fill="#a2b4d6" stroke="#404040" points="158,-35 94,-35 94,-16 158,-16 158,-35"/>
<text text-anchor="middle" x="126" y="-23" font-family="Helvetica,sans-Serif" font-size="10.00">algorithm</text>
</a>
</g>
</g>
<!-- dir_569ed69d6bb9bf9a95676c3a98a04440 -->
<g id="node3" class="node">
<title>dir_569ed69d6bb9bf9a95676c3a98a04440</title>
<g id="a_node3"><a xlink:href="dir_569ed69d6bb9bf9a95676c3a98a04440.html" target="_top" xlink:title="types">
<polygon fill="#a2b4d6" stroke="#404040" points="220,-35 176,-35 176,-16 220,-16 220,-35"/>
<text text-anchor="middle" x="198" y="-23" font-family="Helvetica,sans-Serif" font-size="10.00">types</text>
</a>
</g>
</g>
<!-- dir_57df25969c72935fa0fddf8bd8d3498c -->
<g id="node4" class="node">
<title>dir_57df25969c72935fa0fddf8bd8d3498c</title>
<g id="a_node4"><a xlink:href="dir_57df25969c72935fa0fddf8bd8d3498c.html" target="_top" xlink:title="meta">
<polygon fill="#a2b4d6" stroke="#404040" points="280,-35 238,-35 238,-16 280,-16 280,-35"/>
<text text-anchor="middle" x="259" y="-23" font-family="Helvetica,sans-Serif" font-size="10.00">meta</text>
</a>
</g>
</g>
<!-- dir_72b20bf6291bd35729057dcb4ccbac76 -->
<g id="node5" class="node">
<title>dir_72b20bf6291bd35729057dcb4ccbac76</title>
<g id="a_node5"><a xlink:href="dir_72b20bf6291bd35729057dcb4ccbac76.html" target="_top" xlink:title="concepts">
<polygon fill="#a2b4d6" stroke="#404040" points="358,-35 298,-35 298,-16 358,-16 358,-35"/>
<text text-anchor="middle" x="328" y="-23" font-family="Helvetica,sans-Serif" font-size="10.00">concepts</text>
</a>
</g>
</g>
<!-- dir_64711c3453254974b931c55eb005475a -->
<g id="node6" class="node">
<title>dir_64711c3453254974b931c55eb005475a</title>
<g id="a_node6"><a xlink:href="dir_64711c3453254974b931c55eb005475a.html" target="_top" xlink:title="coroutine">
<polygon fill="#edf0f7" stroke="#404040" stroke-width="2" points="358,-90 296,-90 296,-71 358,-71 358,-90"/>
<text text-anchor="middle" x="327" y="-78" font-family="Helvetica,sans-Serif" font-size="10.00">coroutine</text>
</a>
</g>
</g>
<!-- dir_64711c3453254974b931c55eb005475a&#45;&gt;dir_27e1a0af1927749316784e6421682a5e -->
<g id="edge2" class="edge">
<title>dir_64711c3453254974b931c55eb005475a&#45;&gt;dir_27e1a0af1927749316784e6421682a5e</title>
<path fill="none" stroke="#63b8ff" d="M295.99,-74.13C251.7,-66.39 167.51,-51.41 86.12,-35.17"/>
<polygon fill="#63b8ff" stroke="#63b8ff" points="86.71,-31.72 76.21,-33.19 85.33,-38.58 86.71,-31.72"/>
<g id="a_edge2&#45;headlabel"><a xlink:href="dir_000054_000096.html" target="_top" xlink:title="2">
<text text-anchor="middle" x="90.79" y="-27.14" font-family="Helvetica,sans-Serif" font-size="10.00" fill="#63b8ff">2</text>
</a>
</g>
</g>
<!-- dir_64711c3453254974b931c55eb005475a&#45;&gt;dir_42e3132b523eec61d254ecfd76390a40 -->
<g id="edge4" class="edge">
<title>dir_64711c3453254974b931c55eb005475a&#45;&gt;dir_42e3132b523eec61d254ecfd76390a40</title>
<path fill="none" stroke="#63b8ff" d="M295.59,-71.22C261.23,-62.16 205.99,-47.59 167.94,-37.56"/>
<polygon fill="#63b8ff" stroke="#63b8ff" points="168.74,-34.15 158.18,-34.99 166.96,-40.92 168.74,-34.15"/>
<g id="a_edge4&#45;headlabel"><a xlink:href="dir_000054_000004.html" target="_top" xlink:title="2">
<text text-anchor="middle" x="172.94" y="-29.82" font-family="Helvetica,sans-Serif" font-size="10.00" fill="#63b8ff">2</text>
</a>
</g>
</g>
<!-- dir_64711c3453254974b931c55eb005475a&#45;&gt;dir_569ed69d6bb9bf9a95676c3a98a04440 -->
<g id="edge6" class="edge">
<title>dir_64711c3453254974b931c55eb005475a&#45;&gt;dir_569ed69d6bb9bf9a95676c3a98a04440</title>
<path fill="none" stroke="#63b8ff" d="M306.27,-70.98C285.24,-62.34 252.45,-48.87 228.46,-39.02"/>
<polygon fill="#63b8ff" stroke="#63b8ff" points="229.68,-35.73 219.1,-35.17 227.02,-42.21 229.68,-35.73"/>
<g id="a_edge6&#45;headlabel"><a xlink:href="dir_000054_000179.html" target="_top" xlink:title="1">
<text text-anchor="middle" x="234.09" y="-31.97" font-family="Helvetica,sans-Serif" font-size="10.00" fill="#63b8ff">1</text>
</a>
</g>
</g>
<!-- dir_64711c3453254974b931c55eb005475a&#45;&gt;dir_57df25969c72935fa0fddf8bd8d3498c -->
<g id="edge7" class="edge">
<title>dir_64711c3453254974b931c55eb005475a&#45;&gt;dir_57df25969c72935fa0fddf8bd8d3498c</title>
<path fill="none" stroke="#63b8ff" d="M316.07,-70.98C305.92,-63.07 290.58,-51.11 278.35,-41.58"/>
<polygon fill="#63b8ff" stroke="#63b8ff" points="280.16,-38.56 270.12,-35.17 275.86,-44.08 280.16,-38.56"/>
<g id="a_edge7&#45;headlabel"><a xlink:href="dir_000054_000121.html" target="_top" xlink:title="3">
<text text-anchor="middle" x="284.74" y="-36.03" font-family="Helvetica,sans-Serif" font-size="10.00" fill="#63b8ff">3</text>
</a>
</g>
</g>
<!-- dir_64711c3453254974b931c55eb005475a&#45;&gt;dir_72b20bf6291bd35729057dcb4ccbac76 -->
<g id="edge8" class="edge">
<title>dir_64711c3453254974b931c55eb005475a&#45;&gt;dir_72b20bf6291bd35729057dcb4ccbac76</title>
<path fill="none" stroke="#63b8ff" d="M327.17,-70.75C327.3,-63.8 327.48,-53.85 327.65,-45.13"/>
<polygon fill="#63b8ff" stroke="#63b8ff" points="331.15,-45.15 327.84,-35.09 324.15,-45.02 331.15,-45.15"/>
<g id="a_edge8&#45;headlabel"><a xlink:href="dir_000054_000038.html" target="_top" xlink:title="2">
<text text-anchor="middle" x="333.92" y="-46.3" font-family="Helvetica,sans-Serif" font-size="10.00" fill="#63b8ff">2</text>
</a>
</g>
</g>
<!-- dir_0669efae56692bb73da75efb5ebbccdf -->
<g id="node7" class="node">
<title>dir_0669efae56692bb73da75efb5ebbccdf</title>
<g id="a_node7"><a xlink:href="dir_0669efae56692bb73da75efb5ebbccdf.html" target="_top" xlink:title="function">
<polygon fill="#edf0f7" stroke="red" stroke-dasharray="5,2" points="432,-35 376,-35 376,-16 432,-16 432,-35"/>
<text text-anchor="middle" x="404" y="-23" font-family="Helvetica,sans-Serif" font-size="10.00">function</text>
</a>
</g>
</g>
<!-- dir_64711c3453254974b931c55eb005475a&#45;&gt;dir_0669efae56692bb73da75efb5ebbccdf -->
<g id="edge1" class="edge">
<title>dir_64711c3453254974b931c55eb005475a&#45;&gt;dir_0669efae56692bb73da75efb5ebbccdf</title>
<path fill="none" stroke="#63b8ff" d="M339.37,-70.98C351.09,-62.92 368.92,-50.65 382.89,-41.03"/>
<polygon fill="#63b8ff" stroke="#63b8ff" points="385.15,-43.72 391.4,-35.17 381.18,-37.96 385.15,-43.72"/>
<g id="a_edge1&#45;headlabel"><a xlink:href="dir_000054_000082.html" target="_top" xlink:title="2">
<text text-anchor="middle" x="383.8" y="-45.6" font-family="Helvetica,sans-Serif" font-size="10.00" fill="#63b8ff">2</text>
</a>
</g>
</g>
<!-- dir_30ecaf38acae77be14fb9173f98f8612 -->
<g id="node8" class="node">
<title>dir_30ecaf38acae77be14fb9173f98f8612</title>
<g id="a_node8"><a xlink:href="dir_30ecaf38acae77be14fb9173f98f8612.html" target="_top" xlink:title="types">
<polygon fill="#edf0f7" stroke="#7f7f7f" points="494,-35 450,-35 450,-16 494,-16 494,-35"/>
<text text-anchor="middle" x="472" y="-23" font-family="Helvetica,sans-Serif" font-size="10.00">types</text>
</a>
</g>
</g>
<!-- dir_64711c3453254974b931c55eb005475a&#45;&gt;dir_30ecaf38acae77be14fb9173f98f8612 -->
<g id="edge3" class="edge">
<title>dir_64711c3453254974b931c55eb005475a&#45;&gt;dir_30ecaf38acae77be14fb9173f98f8612</title>
<path fill="none" stroke="#63b8ff" d="M350.3,-70.98C374.68,-62.07 413.13,-48.02 440.27,-38.1"/>
<polygon fill="#63b8ff" stroke="#63b8ff" points="441.52,-41.37 449.71,-34.65 439.12,-34.79 441.52,-41.37"/>
<g id="a_edge3&#45;headlabel"><a xlink:href="dir_000054_000180.html" target="_top" xlink:title="1">
<text text-anchor="middle" x="439.12" y="-42.77" font-family="Helvetica,sans-Serif" font-size="10.00" fill="#63b8ff">1</text>
</a>
</g>
</g>
<!-- dir_4535887b2cdca47e625f259d07db0112 -->
<g id="node9" class="node">
<title>dir_4535887b2cdca47e625f259d07db0112</title>
<g id="a_node9"><a xlink:href="dir_4535887b2cdca47e625f259d07db0112.html" target="_top" xlink:title="util">
<polygon fill="#edf0f7" stroke="#7f7f7f" points="544,-35 512,-35 512,-16 544,-16 544,-35"/>
<text text-anchor="middle" x="528" y="-23" font-family="Helvetica,sans-Serif" font-size="10.00">util</text>
</a>
</g>
</g>
<!-- dir_64711c3453254974b931c55eb005475a&#45;&gt;dir_4535887b2cdca47e625f259d07db0112 -->
<g id="edge5" class="edge">
<title>dir_64711c3453254974b931c55eb005475a&#45;&gt;dir_4535887b2cdca47e625f259d07db0112</title>
<path fill="none" stroke="#63b8ff" d="M358.04,-72.45C391.43,-64.68 446.26,-51.44 502.21,-35.05"/>
<polygon fill="#63b8ff" stroke="#63b8ff" points="503.33,-38.37 511.92,-32.18 501.34,-31.66 503.33,-38.37"/>
<g id="a_edge5&#45;headlabel"><a xlink:href="dir_000054_000185.html" target="_top" xlink:title="5">
<text text-anchor="middle" x="500.69" y="-39.61" font-family="Helvetica,sans-Serif" font-size="10.00" fill="#63b8ff">5</text>
</a>
</g>
</g>
<!-- dir_942cfae36a92b6b1c4b510e99e852d40 -->
<g id="node10" class="node">
<title>dir_942cfae36a92b6b1c4b510e99e852d40</title>
<g id="a_node10"><a xlink:href="dir_942cfae36a92b6b1c4b510e99e852d40.html" target="_top" xlink:title="vocab">
<polygon fill="#edf0f7" stroke="red" stroke-dasharray="5,2" points="608,-35 562,-35 562,-16 608,-16 608,-35"/>
<text text-anchor="middle" x="585" y="-23" font-family="Helvetica,sans-Serif" font-size="10.00">vocab</text>
</a>
</g>
</g>
<!-- dir_64711c3453254974b931c55eb005475a&#45;&gt;dir_942cfae36a92b6b1c4b510e99e852d40 -->
<g id="edge9" class="edge">
<title>dir_64711c3453254974b931c55eb005475a&#45;&gt;dir_942cfae36a92b6b1c4b510e99e852d40</title>
<path fill="none" stroke="#63b8ff" d="M358.21,-74.02C400.06,-66.53 476.87,-52.27 551.88,-35.13"/>
<polygon fill="#63b8ff" stroke="#63b8ff" points="553.01,-38.47 561.97,-32.81 551.44,-31.64 553.01,-38.47"/>
<g id="a_edge9&#45;headlabel"><a xlink:href="dir_000054_000189.html" target="_top" xlink:title="7">
<text text-anchor="middle" x="550.15" y="-39.54" font-family="Helvetica,sans-Serif" font-size="10.00" fill="#63b8ff">7</text>
</a>
</g>
</g>
<!-- dir_a60d4453151dca6bdd8e5fcc350e379b -->
<g id="node11" class="node">
<title>dir_a60d4453151dca6bdd8e5fcc350e379b</title>
<g id="a_node11"><a xlink:href="dir_a60d4453151dca6bdd8e5fcc350e379b.html" target="_top" xlink:title="assert">
<polygon fill="#edf0f7" stroke="#7f7f7f" points="673.5,-35 626.5,-35 626.5,-16 673.5,-16 673.5,-35"/>
<text text-anchor="middle" x="650" y="-23" font-family="Helvetica,sans-Serif" font-size="10.00">assert</text>
</a>
</g>
</g>
<!-- dir_64711c3453254974b931c55eb005475a&#45;&gt;dir_a60d4453151dca6bdd8e5fcc350e379b -->
<g id="edge10" class="edge">
<title>dir_64711c3453254974b931c55eb005475a&#45;&gt;dir_a60d4453151dca6bdd8e5fcc350e379b</title>
<path fill="none" stroke="#63b8ff" d="M358.08,-75.77C409.65,-69.35 516.28,-55.13 616.3,-34.95"/>
<polygon fill="#63b8ff" stroke="#63b8ff" points="617.18,-38.34 626.27,-32.91 615.77,-31.49 617.18,-38.34"/>
<g id="a_edge10&#45;headlabel"><a xlink:href="dir_000054_000018.html" target="_top" xlink:title="1">
<text text-anchor="middle" x="614.22" y="-39.35" font-family="Helvetica,sans-Serif" font-size="10.00" fill="#63b8ff">1</text>
</a>
</g>
</g>
<!-- dir_aaf67126bd5deefc4d96704f76f22cc2 -->
<g id="node12" class="node">
<title>dir_aaf67126bd5deefc4d96704f76f22cc2</title>
<g id="a_node12"><a xlink:href="dir_aaf67126bd5deefc4d96704f76f22cc2.html" target="_top" xlink:title="platform">
<polygon fill="#edf0f7" stroke="#7f7f7f" points="750.5,-35 691.5,-35 691.5,-16 750.5,-16 750.5,-35"/>
<text text-anchor="middle" x="721" y="-23" font-family="Helvetica,sans-Serif" font-size="10.00">platform</text>
</a>
</g>
</g>
<!-- dir_64711c3453254974b931c55eb005475a&#45;&gt;dir_aaf67126bd5deefc4d96704f76f22cc2 -->
<g id="edge11" class="edge">
<title>dir_64711c3453254974b931c55eb005475a&#45;&gt;dir_aaf67126bd5deefc4d96704f76f22cc2</title>
<path fill="none" stroke="#63b8ff" d="M358.1,-76.62C418.52,-70.82 556.13,-56.54 681.06,-35.2"/>
<polygon fill="#63b8ff" stroke="#63b8ff" points="681.93,-38.6 691.18,-33.45 680.73,-31.71 681.93,-38.6"/>
<g id="a_edge11&#45;headlabel"><a xlink:href="dir_000054_000135.html" target="_top" xlink:title="1">
<text text-anchor="middle" x="678.87" y="-39.51" font-family="Helvetica,sans-Serif" font-size="10.00" fill="#63b8ff">1</text>
</a>
</g>
</g>
<!-- dir_f555f996eeee1ebe901dc71e0c5de8ff -->
<g id="node13" class="node">
<title>dir_f555f996eeee1ebe901dc71e0c5de8ff</title>
<g id="a_node13"><a xlink:href="dir_f555f996eeee1ebe901dc71e0c5de8ff.html" target="_top" xlink:title="meta">
<polygon fill="#edf0f7" stroke="#7f7f7f" points="811,-35 769,-35 769,-16 811,-16 811,-35"/>
<text text-anchor="middle" x="790" y="-23" font-family="Helvetica,sans-Serif" font-size="10.00">meta</text>
</a>
</g>
</g>
<!-- dir_64711c3453254974b931c55eb005475a&#45;&gt;dir_f555f996eeee1ebe901dc71e0c5de8ff -->
<g id="edge12" class="edge">
<title>dir_64711c3453254974b931c55eb005475a&#45;&gt;dir_f555f996eeee1ebe901dc71e0c5de8ff</title>
<path fill="none" stroke="#63b8ff" d="M358.25,-78.15C428.33,-74.73 603.45,-63.98 758.61,-34.94"/>
<polygon fill="#63b8ff" stroke="#63b8ff" points="759.63,-38.31 768.8,-33 758.33,-31.43 759.63,-38.31"/>
<g id="a_edge12&#45;headlabel"><a xlink:href="dir_000054_000122.html" target="_top" xlink:title="5">
<text text-anchor="middle" x="756.63" y="-39.27" font-family="Helvetica,sans-Serif" font-size="10.00" fill="#63b8ff">5</text>
</a>
</g>
</g>
</g>
</svg>
