<?xml version="1.0" encoding="UTF-8" standalone="no"?>
<!DOCTYPE svg PUBLIC "-//W3C//DTD SVG 1.1//EN"
 "http://www.w3.org/Graphics/SVG/1.1/DTD/svg11.dtd">
<!-- Generated by graphviz version 2.43.0 (0)
 -->
<!-- Title: iris/arch Pages: 1 -->
<svg width="182pt" height="141pt"
 viewBox="0.00 0.00 182.00 141.00" xmlns="http://www.w3.org/2000/svg" xmlns:xlink="http://www.w3.org/1999/xlink">
<g id="graph0" class="graph" transform="scale(1 1) rotate(0) translate(4 137)">
<title>iris/arch</title>
<g id="clust1" class="cluster">
<title>clusterdir_2605f0c6ea8f9a17a384edc9a2df15f4</title>
<g id="a_clust1"><a xlink:href="dir_2605f0c6ea8f9a17a384edc9a2df15f4.html" target="_top" xlink:title="iris">
<polygon fill="#edf0f7" stroke="#404040" stroke-dasharray="5,2" points="8,-8 8,-125 132,-125 132,-8 8,-8"/>
<text text-anchor="middle" x="70" y="-113" font-family="Helvetica,sans-Serif" font-size="10.00">iris</text>
</a>
</g>
</g>
<g id="clust2" class="cluster">
<title>clusterdir_f2ff11f222a905ddb637e89c42daf582</title>
<g id="a_clust2"><a xlink:href="dir_f2ff11f222a905ddb637e89c42daf582.html" target="_top">
<polygon fill="#edf0f7" stroke="#404040" stroke-width="2" points="16,-63 16,-98 124,-98 124,-63 16,-63"/>
</a>
</g>
</g>
<!-- dir_29a765eed241630f2929477fec556e75 -->
<g id="node1" class="node">
<title>dir_29a765eed241630f2929477fec556e75</title>
<g id="a_node1"><a xlink:href="dir_29a765eed241630f2929477fec556e75.html" target="_top" xlink:title="include">
<polygon fill="#a2b4d6" stroke="red" points="68,-35 16,-35 16,-16 68,-16 68,-35"/>
<text text-anchor="middle" x="42" y="-23" font-family="Helvetica,sans-Serif" font-size="10.00">include</text>
</a>
</g>
</g>
<!-- dir_f2ff11f222a905ddb637e89c42daf582 -->
<g id="node2" class="node">
<title>dir_f2ff11f222a905ddb637e89c42daf582</title>
<text text-anchor="middle" x="97" y="-78" font-family="Helvetica,sans-Serif" font-size="10.00">arch</text>
</g>
<!-- dir_32e65aed4d889286673f01f7d9b757f0 -->
<g id="node3" class="node">
<title>dir_32e65aed4d889286673f01f7d9b757f0</title>
<g id="a_node3"><a xlink:href="dir_32e65aed4d889286673f01f7d9b757f0.html" target="_top" xlink:title="x86">
<polygon fill="#a2b4d6" stroke="#404040" points="59.5,-90 24.5,-90 24.5,-71 59.5,-71 59.5,-90"/>
<text text-anchor="middle" x="42" y="-78" font-family="Helvetica,sans-Serif" font-size="10.00">x86</text>
</a>
</g>
</g>
<!-- dir_32e65aed4d889286673f01f7d9b757f0&#45;&gt;dir_29a765eed241630f2929477fec556e75 -->
<g id="edge1" class="edge">
<title>dir_32e65aed4d889286673f01f7d9b757f0&#45;&gt;dir_29a765eed241630f2929477fec556e75</title>
<path fill="none" stroke="#63b8ff" d="M42,-70.75C42,-63.8 42,-53.85 42,-45.13"/>
<polygon fill="#63b8ff" stroke="#63b8ff" points="45.5,-45.09 42,-35.09 38.5,-45.09 45.5,-45.09"/>
<g id="a_edge1&#45;headlabel"><a xlink:href="dir_000191_000090.html" target="_top" xlink:title="123">
<text text-anchor="middle" x="48.34" y="-46.18" font-family="Helvetica,sans-Serif" font-size="10.00" fill="#63b8ff">123</text>
</a>
</g>
</g>
<!-- dir_6719ab1f1f7655efc2fa43f7eb574fd1 -->
<g id="node4" class="node">
<title>dir_6719ab1f1f7655efc2fa43f7eb574fd1</title>
<g id="a_node4"><a xlink:href="dir_6719ab1f1f7655efc2fa43f7eb574fd1.html" target="_top" xlink:title="libs">
<polygon fill="#edf0f7" stroke="red" points="174,-35 140,-35 140,-16 174,-16 174,-35"/>
<text text-anchor="middle" x="157" y="-23" font-family="Helvetica,sans-Serif" font-size="10.00">libs</text>
</a>
</g>
</g>
<!-- dir_32e65aed4d889286673f01f7d9b757f0&#45;&gt;dir_6719ab1f1f7655efc2fa43f7eb574fd1 -->
<g id="edge2" class="edge">
<title>dir_32e65aed4d889286673f01f7d9b757f0&#45;&gt;dir_6719ab1f1f7655efc2fa43f7eb574fd1</title>
<path fill="none" stroke="#63b8ff" d="M55.22,-70.85C59.54,-68.19 64.4,-65.34 69,-63 74.77,-60.06 106.42,-47.06 130.12,-37.4"/>
<polygon fill="#63b8ff" stroke="#63b8ff" points="131.75,-40.52 139.7,-33.51 129.11,-34.03 131.75,-40.52"/>
<g id="a_edge2&#45;headlabel"><a xlink:href="dir_000191_000109.html" target="_top" xlink:title="7">
<text text-anchor="middle" x="129.49" y="-42" font-family="Helvetica,sans-Serif" font-size="10.00" fill="#63b8ff">7</text>
</a>
</g>
</g>
</g>
</svg>
