<?xml version="1.0" encoding="UTF-8" standalone="no"?>
<!DOCTYPE svg PUBLIC "-//W3C//DTD SVG 1.1//EN"
 "http://www.w3.org/Graphics/SVG/1.1/DTD/svg11.dtd">
<!-- Generated by graphviz version 2.43.0 (0)
 -->
<!-- Title: iris/mm Pages: 1 -->
<svg width="128pt" height="133pt"
 viewBox="0.00 0.00 128.00 133.00" xmlns="http://www.w3.org/2000/svg" xmlns:xlink="http://www.w3.org/1999/xlink">
<g id="graph0" class="graph" transform="scale(1 1) rotate(0) translate(4 129)">
<title>iris/mm</title>
<g id="clust1" class="cluster">
<title>clusterdir_2605f0c6ea8f9a17a384edc9a2df15f4</title>
<g id="a_clust1"><a xlink:href="dir_2605f0c6ea8f9a17a384edc9a2df15f4.html" target="_top" xlink:title="iris">
<polygon fill="#edf0f7" stroke="#404040" stroke-dasharray="5,2" points="8,-8 8,-117 76,-117 76,-8 8,-8"/>
<text text-anchor="middle" x="42" y="-105" font-family="Helvetica,sans-Serif" font-size="10.00">iris</text>
</a>
</g>
</g>
<!-- dir_29a765eed241630f2929477fec556e75 -->
<g id="node1" class="node">
<title>dir_29a765eed241630f2929477fec556e75</title>
<g id="a_node1"><a xlink:href="dir_29a765eed241630f2929477fec556e75.html" target="_top" xlink:title="include">
<polygon fill="#a2b4d6" stroke="red" points="68,-35 16,-35 16,-16 68,-16 68,-35"/>
<text text-anchor="middle" x="42" y="-23" font-family="Helvetica,sans-Serif" font-size="10.00">include</text>
</a>
</g>
</g>
<!-- dir_8458728a750598b4918c185cdd2ea453 -->
<g id="node2" class="node">
<title>dir_8458728a750598b4918c185cdd2ea453</title>
<g id="a_node2"><a xlink:href="dir_8458728a750598b4918c185cdd2ea453.html" target="_top" xlink:title="mm">
<polygon fill="#edf0f7" stroke="#404040" stroke-width="2" points="64,-90 28,-90 28,-71 64,-71 64,-90"/>
<text text-anchor="middle" x="46" y="-78" font-family="Helvetica,sans-Serif" font-size="10.00">mm</text>
</a>
</g>
</g>
<!-- dir_8458728a750598b4918c185cdd2ea453&#45;&gt;dir_29a765eed241630f2929477fec556e75 -->
<g id="edge1" class="edge">
<title>dir_8458728a750598b4918c185cdd2ea453&#45;&gt;dir_29a765eed241630f2929477fec556e75</title>
<path fill="none" stroke="#63b8ff" d="M45.34,-70.75C44.82,-63.8 44.06,-53.85 43.41,-45.13"/>
<polygon fill="#63b8ff" stroke="#63b8ff" points="46.89,-44.8 42.65,-35.09 39.91,-45.32 46.89,-44.8"/>
<g id="a_edge1&#45;headlabel"><a xlink:href="dir_000127_000090.html" target="_top" xlink:title="19">
<text text-anchor="middle" x="49.99" y="-45.67" font-family="Helvetica,sans-Serif" font-size="10.00" fill="#63b8ff">19</text>
</a>
</g>
</g>
<!-- dir_6719ab1f1f7655efc2fa43f7eb574fd1 -->
<g id="node3" class="node">
<title>dir_6719ab1f1f7655efc2fa43f7eb574fd1</title>
<g id="a_node3"><a xlink:href="dir_6719ab1f1f7655efc2fa43f7eb574fd1.html" target="_top" xlink:title="libs">
<polygon fill="#edf0f7" stroke="red" points="120,-35 86,-35 86,-16 120,-16 120,-35"/>
<text text-anchor="middle" x="103" y="-23" font-family="Helvetica,sans-Serif" font-size="10.00">libs</text>
</a>
</g>
</g>
<!-- dir_8458728a750598b4918c185cdd2ea453&#45;&gt;dir_6719ab1f1f7655efc2fa43f7eb574fd1 -->
<g id="edge2" class="edge">
<title>dir_8458728a750598b4918c185cdd2ea453&#45;&gt;dir_6719ab1f1f7655efc2fa43f7eb574fd1</title>
<path fill="none" stroke="#63b8ff" d="M55.16,-70.98C63.5,-63.23 76.03,-51.58 86.18,-42.14"/>
<polygon fill="#63b8ff" stroke="#63b8ff" points="88.74,-44.54 93.68,-35.17 83.97,-39.42 88.74,-44.54"/>
<g id="a_edge2&#45;headlabel"><a xlink:href="dir_000127_000109.html" target="_top" xlink:title="6">
<text text-anchor="middle" x="88.04" y="-46.57" font-family="Helvetica,sans-Serif" font-size="10.00" fill="#63b8ff">6</text>
</a>
</g>
</g>
</g>
</svg>
