<?xml version="1.0" encoding="UTF-8" standalone="no"?>
<!DOCTYPE svg PUBLIC "-//W3C//DTD SVG 1.1//EN"
 "http://www.w3.org/Graphics/SVG/1.1/DTD/svg11.dtd">
<!-- Generated by graphviz version 2.43.0 (0)
 -->
<!-- Title: libs/di/include/di/container/view Pages: 1 -->
<svg width="808pt" height="133pt"
 viewBox="0.00 0.00 808.00 133.00" xmlns="http://www.w3.org/2000/svg" xmlns:xlink="http://www.w3.org/1999/xlink">
<g id="graph0" class="graph" transform="scale(1 1) rotate(0) translate(4 129)">
<title>libs/di/include/di/container/view</title>
<g id="clust1" class="cluster">
<title>clusterdir_521de572ae4fe2915cc70a876c52f5b7</title>
<g id="a_clust1"><a xlink:href="dir_521de572ae4fe2915cc70a876c52f5b7.html" target="_top" xlink:title="container">
<polygon fill="#edf0f7" stroke="#7f7f7f" stroke-dasharray="5,2" points="8,-8 8,-117 438,-117 438,-8 8,-8"/>
<text text-anchor="middle" x="223" y="-105" font-family="Helvetica,sans-Serif" font-size="10.00">container</text>
</a>
</g>
</g>
<!-- dir_093cb0cf41c3d9bb25543a4e1702223c -->
<g id="node1" class="node">
<title>dir_093cb0cf41c3d9bb25543a4e1702223c</title>
<g id="a_node1"><a xlink:href="dir_093cb0cf41c3d9bb25543a4e1702223c.html" target="_top" xlink:title="iterator">
<polygon fill="#a2b4d6" stroke="#404040" points="69.5,-35 16.5,-35 16.5,-16 69.5,-16 69.5,-35"/>
<text text-anchor="middle" x="43" y="-23" font-family="Helvetica,sans-Serif" font-size="10.00">iterator</text>
</a>
</g>
</g>
<!-- dir_60528a66b99dd07a1313b3c263e646ab -->
<g id="node2" class="node">
<title>dir_60528a66b99dd07a1313b3c263e646ab</title>
<g id="a_node2"><a xlink:href="dir_60528a66b99dd07a1313b3c263e646ab.html" target="_top" xlink:title="algorithm">
<polygon fill="#a2b4d6" stroke="#404040" points="152,-35 88,-35 88,-16 152,-16 152,-35"/>
<text text-anchor="middle" x="120" y="-23" font-family="Helvetica,sans-Serif" font-size="10.00">algorithm</text>
</a>
</g>
</g>
<!-- dir_838362f34bc8d8c3545343b0166aa672 -->
<g id="node3" class="node">
<title>dir_838362f34bc8d8c3545343b0166aa672</title>
<g id="a_node3"><a xlink:href="dir_838362f34bc8d8c3545343b0166aa672.html" target="_top" xlink:title="concepts">
<polygon fill="#a2b4d6" stroke="#404040" points="230,-35 170,-35 170,-16 230,-16 230,-35"/>
<text text-anchor="middle" x="200" y="-23" font-family="Helvetica,sans-Serif" font-size="10.00">concepts</text>
</a>
</g>
</g>
<!-- dir_9f8d33513cfc97e5f9ea6bf2671e5446 -->
<g id="node4" class="node">
<title>dir_9f8d33513cfc97e5f9ea6bf2671e5446</title>
<g id="a_node4"><a xlink:href="dir_9f8d33513cfc97e5f9ea6bf2671e5446.html" target="_top" xlink:title="meta">
<polygon fill="#a2b4d6" stroke="#404040" points="290,-35 248,-35 248,-16 290,-16 290,-35"/>
<text text-anchor="middle" x="269" y="-23" font-family="Helvetica,sans-Serif" font-size="10.00">meta</text>
</a>
</g>
</g>
<!-- dir_a7b99681c56fba2abd28393cbbc3f22c -->
<g id="node5" class="node">
<title>dir_a7b99681c56fba2abd28393cbbc3f22c</title>
<g id="a_node5"><a xlink:href="dir_a7b99681c56fba2abd28393cbbc3f22c.html" target="_top" xlink:title="types">
<polygon fill="#a2b4d6" stroke="#404040" points="352,-35 308,-35 308,-16 352,-16 352,-35"/>
<text text-anchor="middle" x="330" y="-23" font-family="Helvetica,sans-Serif" font-size="10.00">types</text>
</a>
</g>
</g>
<!-- dir_dd6c062645334da7e8440ac2e54ccb1d -->
<g id="node6" class="node">
<title>dir_dd6c062645334da7e8440ac2e54ccb1d</title>
<g id="a_node6"><a xlink:href="dir_dd6c062645334da7e8440ac2e54ccb1d.html" target="_top" xlink:title="interface">
<polygon fill="#a2b4d6" stroke="#404040" points="430,-35 370,-35 370,-16 430,-16 430,-35"/>
<text text-anchor="middle" x="400" y="-23" font-family="Helvetica,sans-Serif" font-size="10.00">interface</text>
</a>
</g>
</g>
<!-- dir_28cb5a05dfb61a4b9ad44e468e6394a4 -->
<g id="node7" class="node">
<title>dir_28cb5a05dfb61a4b9ad44e468e6394a4</title>
<g id="a_node7"><a xlink:href="dir_28cb5a05dfb61a4b9ad44e468e6394a4.html" target="_top" xlink:title="view">
<polygon fill="#edf0f7" stroke="#404040" stroke-width="2" points="425,-90 385,-90 385,-71 425,-71 425,-90"/>
<text text-anchor="middle" x="405" y="-78" font-family="Helvetica,sans-Serif" font-size="10.00">view</text>
</a>
</g>
</g>
<!-- dir_28cb5a05dfb61a4b9ad44e468e6394a4&#45;&gt;dir_093cb0cf41c3d9bb25543a4e1702223c -->
<g id="edge2" class="edge">
<title>dir_28cb5a05dfb61a4b9ad44e468e6394a4&#45;&gt;dir_093cb0cf41c3d9bb25543a4e1702223c</title>
<path fill="none" stroke="#63b8ff" d="M384.67,-77.41C334.59,-72.13 201.14,-57.16 79.53,-34.92"/>
<polygon fill="#63b8ff" stroke="#63b8ff" points="80.15,-31.48 69.68,-33.1 78.87,-38.36 80.15,-31.48"/>
<g id="a_edge2&#45;headlabel"><a xlink:href="dir_000188_000108.html" target="_top" xlink:title="59">
<text text-anchor="middle" x="84.2" y="-26.84" font-family="Helvetica,sans-Serif" font-size="10.00" fill="#63b8ff">59</text>
</a>
</g>
</g>
<!-- dir_28cb5a05dfb61a4b9ad44e468e6394a4&#45;&gt;dir_60528a66b99dd07a1313b3c263e646ab -->
<g id="edge5" class="edge">
<title>dir_28cb5a05dfb61a4b9ad44e468e6394a4&#45;&gt;dir_60528a66b99dd07a1313b3c263e646ab</title>
<path fill="none" stroke="#63b8ff" d="M384.72,-75.97C344.37,-68.91 250.92,-52.39 162.17,-35.19"/>
<polygon fill="#63b8ff" stroke="#63b8ff" points="162.7,-31.73 152.21,-33.25 161.36,-38.6 162.7,-31.73"/>
<g id="a_edge5&#45;headlabel"><a xlink:href="dir_000188_000003.html" target="_top" xlink:title="11">
<text text-anchor="middle" x="166.77" y="-27.13" font-family="Helvetica,sans-Serif" font-size="10.00" fill="#63b8ff">11</text>
</a>
</g>
</g>
<!-- dir_28cb5a05dfb61a4b9ad44e468e6394a4&#45;&gt;dir_838362f34bc8d8c3545343b0166aa672 -->
<g id="edge7" class="edge">
<title>dir_28cb5a05dfb61a4b9ad44e468e6394a4&#45;&gt;dir_838362f34bc8d8c3545343b0166aa672</title>
<path fill="none" stroke="#63b8ff" d="M384.97,-74.32C351.51,-65.67 283.62,-48.12 240.06,-36.86"/>
<polygon fill="#63b8ff" stroke="#63b8ff" points="240.9,-33.46 230.35,-34.35 239.15,-40.24 240.9,-33.46"/>
<g id="a_edge7&#45;headlabel"><a xlink:href="dir_000188_000037.html" target="_top" xlink:title="57">
<text text-anchor="middle" x="245.1" y="-29.11" font-family="Helvetica,sans-Serif" font-size="10.00" fill="#63b8ff">57</text>
</a>
</g>
</g>
<!-- dir_28cb5a05dfb61a4b9ad44e468e6394a4&#45;&gt;dir_9f8d33513cfc97e5f9ea6bf2671e5446 -->
<g id="edge9" class="edge">
<title>dir_28cb5a05dfb61a4b9ad44e468e6394a4&#45;&gt;dir_9f8d33513cfc97e5f9ea6bf2671e5446</title>
<path fill="none" stroke="#63b8ff" d="M384.93,-71.68C362.39,-62.9 325.56,-48.54 299.47,-38.37"/>
<polygon fill="#63b8ff" stroke="#63b8ff" points="300.63,-35.07 290.04,-34.7 298.09,-41.59 300.63,-35.07"/>
<g id="a_edge9&#45;headlabel"><a xlink:href="dir_000188_000120.html" target="_top" xlink:title="59">
<text text-anchor="middle" x="305.01" y="-31.23" font-family="Helvetica,sans-Serif" font-size="10.00" fill="#63b8ff">59</text>
</a>
</g>
</g>
<!-- dir_28cb5a05dfb61a4b9ad44e468e6394a4&#45;&gt;dir_a7b99681c56fba2abd28393cbbc3f22c -->
<g id="edge10" class="edge">
<title>dir_28cb5a05dfb61a4b9ad44e468e6394a4&#45;&gt;dir_a7b99681c56fba2abd28393cbbc3f22c</title>
<path fill="none" stroke="#63b8ff" d="M392.95,-70.98C381.54,-62.92 364.17,-50.65 350.57,-41.03"/>
<polygon fill="#63b8ff" stroke="#63b8ff" points="352.46,-38.08 342.27,-35.17 348.42,-43.8 352.46,-38.08"/>
<g id="a_edge10&#45;headlabel"><a xlink:href="dir_000188_000178.html" target="_top" xlink:title="12">
<text text-anchor="middle" x="357.03" y="-35.34" font-family="Helvetica,sans-Serif" font-size="10.00" fill="#63b8ff">12</text>
</a>
</g>
</g>
<!-- dir_28cb5a05dfb61a4b9ad44e468e6394a4&#45;&gt;dir_dd6c062645334da7e8440ac2e54ccb1d -->
<g id="edge11" class="edge">
<title>dir_28cb5a05dfb61a4b9ad44e468e6394a4&#45;&gt;dir_dd6c062645334da7e8440ac2e54ccb1d</title>
<path fill="none" stroke="#63b8ff" d="M404.17,-70.75C403.52,-63.8 402.58,-53.85 401.76,-45.13"/>
<polygon fill="#63b8ff" stroke="#63b8ff" points="405.23,-44.72 400.81,-35.09 398.27,-45.37 405.23,-44.72"/>
<g id="a_edge11&#45;headlabel"><a xlink:href="dir_000188_000095.html" target="_top" xlink:title="25">
<text text-anchor="middle" x="408.4" y="-45.53" font-family="Helvetica,sans-Serif" font-size="10.00" fill="#63b8ff">25</text>
</a>
</g>
</g>
<!-- dir_0669efae56692bb73da75efb5ebbccdf -->
<g id="node8" class="node">
<title>dir_0669efae56692bb73da75efb5ebbccdf</title>
<g id="a_node8"><a xlink:href="dir_0669efae56692bb73da75efb5ebbccdf.html" target="_top" xlink:title="function">
<polygon fill="#edf0f7" stroke="red" stroke-dasharray="5,2" points="504,-35 448,-35 448,-16 504,-16 504,-35"/>
<text text-anchor="middle" x="476" y="-23" font-family="Helvetica,sans-Serif" font-size="10.00">function</text>
</a>
</g>
</g>
<!-- dir_28cb5a05dfb61a4b9ad44e468e6394a4&#45;&gt;dir_0669efae56692bb73da75efb5ebbccdf -->
<g id="edge1" class="edge">
<title>dir_28cb5a05dfb61a4b9ad44e468e6394a4&#45;&gt;dir_0669efae56692bb73da75efb5ebbccdf</title>
<path fill="none" stroke="#63b8ff" d="M416.41,-70.98C427.11,-63 443.34,-50.88 456.16,-41.31"/>
<polygon fill="#63b8ff" stroke="#63b8ff" points="458.47,-43.96 464.39,-35.17 454.28,-38.35 458.47,-43.96"/>
<g id="a_edge1&#45;headlabel"><a xlink:href="dir_000188_000082.html" target="_top" xlink:title="54">
<text text-anchor="middle" x="457.28" y="-45.88" font-family="Helvetica,sans-Serif" font-size="10.00" fill="#63b8ff">54</text>
</a>
</g>
</g>
<!-- dir_30ecaf38acae77be14fb9173f98f8612 -->
<g id="node9" class="node">
<title>dir_30ecaf38acae77be14fb9173f98f8612</title>
<g id="a_node9"><a xlink:href="dir_30ecaf38acae77be14fb9173f98f8612.html" target="_top" xlink:title="types">
<polygon fill="#edf0f7" stroke="#7f7f7f" points="566,-35 522,-35 522,-16 566,-16 566,-35"/>
<text text-anchor="middle" x="544" y="-23" font-family="Helvetica,sans-Serif" font-size="10.00">types</text>
</a>
</g>
</g>
<!-- dir_28cb5a05dfb61a4b9ad44e468e6394a4&#45;&gt;dir_30ecaf38acae77be14fb9173f98f8612 -->
<g id="edge3" class="edge">
<title>dir_28cb5a05dfb61a4b9ad44e468e6394a4&#45;&gt;dir_30ecaf38acae77be14fb9173f98f8612</title>
<path fill="none" stroke="#63b8ff" d="M425.21,-71.79C448.05,-63.09 485.5,-48.8 512.25,-38.61"/>
<polygon fill="#63b8ff" stroke="#63b8ff" points="513.83,-41.75 521.93,-34.92 511.34,-35.21 513.83,-41.75"/>
<g id="a_edge3&#45;headlabel"><a xlink:href="dir_000188_000180.html" target="_top" xlink:title="4">
<text text-anchor="middle" x="511.48" y="-43.18" font-family="Helvetica,sans-Serif" font-size="10.00" fill="#63b8ff">4</text>
</a>
</g>
</g>
<!-- dir_4535887b2cdca47e625f259d07db0112 -->
<g id="node10" class="node">
<title>dir_4535887b2cdca47e625f259d07db0112</title>
<g id="a_node10"><a xlink:href="dir_4535887b2cdca47e625f259d07db0112.html" target="_top" xlink:title="util">
<polygon fill="#edf0f7" stroke="#7f7f7f" points="616,-35 584,-35 584,-16 616,-16 616,-35"/>
<text text-anchor="middle" x="600" y="-23" font-family="Helvetica,sans-Serif" font-size="10.00">util</text>
</a>
</g>
</g>
<!-- dir_28cb5a05dfb61a4b9ad44e468e6394a4&#45;&gt;dir_4535887b2cdca47e625f259d07db0112 -->
<g id="edge4" class="edge">
<title>dir_28cb5a05dfb61a4b9ad44e468e6394a4&#45;&gt;dir_4535887b2cdca47e625f259d07db0112</title>
<path fill="none" stroke="#63b8ff" d="M425.02,-74.75C455.25,-67.48 514.55,-52.81 573.99,-35.14"/>
<polygon fill="#63b8ff" stroke="#63b8ff" points="575.34,-38.38 583.92,-32.16 573.33,-31.68 575.34,-38.38"/>
<g id="a_edge4&#45;headlabel"><a xlink:href="dir_000188_000185.html" target="_top" xlink:title="79">
<text text-anchor="middle" x="572.72" y="-39.64" font-family="Helvetica,sans-Serif" font-size="10.00" fill="#63b8ff">79</text>
</a>
</g>
</g>
<!-- dir_60d1624911c2c9f7b6f38e44ec895aaa -->
<g id="node11" class="node">
<title>dir_60d1624911c2c9f7b6f38e44ec895aaa</title>
<g id="a_node11"><a xlink:href="dir_60d1624911c2c9f7b6f38e44ec895aaa.html" target="_top" xlink:title="math">
<polygon fill="#edf0f7" stroke="red" stroke-dasharray="5,2" points="676,-35 634,-35 634,-16 676,-16 676,-35"/>
<text text-anchor="middle" x="655" y="-23" font-family="Helvetica,sans-Serif" font-size="10.00">math</text>
</a>
</g>
</g>
<!-- dir_28cb5a05dfb61a4b9ad44e468e6394a4&#45;&gt;dir_60d1624911c2c9f7b6f38e44ec895aaa -->
<g id="edge6" class="edge">
<title>dir_28cb5a05dfb61a4b9ad44e468e6394a4&#45;&gt;dir_60d1624911c2c9f7b6f38e44ec895aaa</title>
<path fill="none" stroke="#63b8ff" d="M425.13,-75.96C462.39,-69.3 544.78,-54.04 623.65,-35.18"/>
<polygon fill="#63b8ff" stroke="#63b8ff" points="624.85,-38.49 633.75,-32.74 623.21,-31.69 624.85,-38.49"/>
<g id="a_edge6&#45;headlabel"><a xlink:href="dir_000188_000117.html" target="_top" xlink:title="5">
<text text-anchor="middle" x="622.02" y="-39.59" font-family="Helvetica,sans-Serif" font-size="10.00" fill="#63b8ff">5</text>
</a>
</g>
</g>
<!-- dir_942cfae36a92b6b1c4b510e99e852d40 -->
<g id="node12" class="node">
<title>dir_942cfae36a92b6b1c4b510e99e852d40</title>
<g id="a_node12"><a xlink:href="dir_942cfae36a92b6b1c4b510e99e852d40.html" target="_top" xlink:title="vocab">
<polygon fill="#edf0f7" stroke="red" stroke-dasharray="5,2" points="740,-35 694,-35 694,-16 740,-16 740,-35"/>
<text text-anchor="middle" x="717" y="-23" font-family="Helvetica,sans-Serif" font-size="10.00">vocab</text>
</a>
</g>
</g>
<!-- dir_28cb5a05dfb61a4b9ad44e468e6394a4&#45;&gt;dir_942cfae36a92b6b1c4b510e99e852d40 -->
<g id="edge8" class="edge">
<title>dir_28cb5a05dfb61a4b9ad44e468e6394a4&#45;&gt;dir_942cfae36a92b6b1c4b510e99e852d40</title>
<path fill="none" stroke="#63b8ff" d="M425.16,-77.01C469.94,-71.34 581.2,-56.41 684.07,-35"/>
<polygon fill="#63b8ff" stroke="#63b8ff" points="684.93,-38.4 694,-32.91 683.49,-31.55 684.93,-38.4"/>
<g id="a_edge8&#45;headlabel"><a xlink:href="dir_000188_000189.html" target="_top" xlink:title="11">
<text text-anchor="middle" x="682" y="-39.42" font-family="Helvetica,sans-Serif" font-size="10.00" fill="#63b8ff">11</text>
</a>
</g>
</g>
<!-- dir_f555f996eeee1ebe901dc71e0c5de8ff -->
<g id="node13" class="node">
<title>dir_f555f996eeee1ebe901dc71e0c5de8ff</title>
<g id="a_node13"><a xlink:href="dir_f555f996eeee1ebe901dc71e0c5de8ff.html" target="_top" xlink:title="meta">
<polygon fill="#edf0f7" stroke="#7f7f7f" points="800,-35 758,-35 758,-16 800,-16 800,-35"/>
<text text-anchor="middle" x="779" y="-23" font-family="Helvetica,sans-Serif" font-size="10.00">meta</text>
</a>
</g>
</g>
<!-- dir_28cb5a05dfb61a4b9ad44e468e6394a4&#45;&gt;dir_f555f996eeee1ebe901dc71e0c5de8ff -->
<g id="edge12" class="edge">
<title>dir_28cb5a05dfb61a4b9ad44e468e6394a4&#45;&gt;dir_f555f996eeee1ebe901dc71e0c5de8ff</title>
<path fill="none" stroke="#63b8ff" d="M425.33,-77.92C477.43,-73.67 619.99,-60.62 747.83,-34.96"/>
<polygon fill="#63b8ff" stroke="#63b8ff" points="748.69,-38.36 757.79,-32.93 747.29,-31.5 748.69,-38.36"/>
<g id="a_edge12&#45;headlabel"><a xlink:href="dir_000188_000122.html" target="_top" xlink:title="52">
<text text-anchor="middle" x="745.74" y="-39.36" font-family="Helvetica,sans-Serif" font-size="10.00" fill="#63b8ff">52</text>
</a>
</g>
</g>
</g>
</svg>
