<?xml version="1.0" encoding="UTF-8" standalone="no"?>
<!DOCTYPE svg PUBLIC "-//W3C//DTD SVG 1.1//EN"
 "http://www.w3.org/Graphics/SVG/1.1/DTD/svg11.dtd">
<!-- Generated by graphviz version 2.43.0 (0)
 -->
<!-- Title: libs/dius/iros Pages: 1 -->
<svg width="330pt" height="141pt"
 viewBox="0.00 0.00 329.50 141.00" xmlns="http://www.w3.org/2000/svg" xmlns:xlink="http://www.w3.org/1999/xlink">
<g id="graph0" class="graph" transform="scale(1 1) rotate(0) translate(4 137)">
<title>libs/dius/iros</title>
<g id="clust1" class="cluster">
<title>clusterdir_2bc9e3f402dd86ba93785edd287294d9</title>
<g id="a_clust1"><a xlink:href="dir_2bc9e3f402dd86ba93785edd287294d9.html" target="_top" xlink:title="dius">
<polygon fill="#edf0f7" stroke="#7f7f7f" stroke-dasharray="5,2" points="8,-8 8,-125 234,-125 234,-8 8,-8"/>
<text text-anchor="middle" x="121" y="-113" font-family="Helvetica,sans-Serif" font-size="10.00">dius</text>
</a>
</g>
</g>
<g id="clust2" class="cluster">
<title>clusterdir_17076abbcecdd53a1af3ac0a38ec6e06</title>
<g id="a_clust2"><a xlink:href="dir_17076abbcecdd53a1af3ac0a38ec6e06.html" target="_top">
<polygon fill="#edf0f7" stroke="#404040" stroke-width="2" points="16,-63 16,-98 226,-98 226,-63 16,-63"/>
</a>
</g>
</g>
<!-- dir_6ac4aa95e4478b160428441746083760 -->
<g id="node1" class="node">
<title>dir_6ac4aa95e4478b160428441746083760</title>
<g id="a_node1"><a xlink:href="dir_6ac4aa95e4478b160428441746083760.html" target="_top" xlink:title="include">
<polygon fill="#a2b4d6" stroke="red" points="156,-35 104,-35 104,-16 156,-16 156,-35"/>
<text text-anchor="middle" x="130" y="-23" font-family="Helvetica,sans-Serif" font-size="10.00">include</text>
</a>
</g>
</g>
<!-- dir_17076abbcecdd53a1af3ac0a38ec6e06 -->
<g id="node2" class="node">
<title>dir_17076abbcecdd53a1af3ac0a38ec6e06</title>
<text text-anchor="middle" x="200" y="-78" font-family="Helvetica,sans-Serif" font-size="10.00">iros</text>
</g>
<!-- dir_17076abbcecdd53a1af3ac0a38ec6e06&#45;&gt;dir_6ac4aa95e4478b160428441746083760 -->
<g id="edge2" class="edge">
<title>dir_17076abbcecdd53a1af3ac0a38ec6e06&#45;&gt;dir_6ac4aa95e4478b160428441746083760</title>
<path fill="none" stroke="#63b8ff" d="M188.75,-70.98C178.2,-63 162.2,-50.88 149.56,-41.31"/>
<polygon fill="#63b8ff" stroke="#63b8ff" points="151.54,-38.42 141.45,-35.17 147.31,-44 151.54,-38.42"/>
<g id="a_edge2&#45;headlabel"><a xlink:href="dir_000107_000093.html" target="_top" xlink:title="15">
<text text-anchor="middle" x="156.12" y="-35.82" font-family="Helvetica,sans-Serif" font-size="10.00" fill="#63b8ff">15</text>
</a>
</g>
</g>
<!-- dir_2605f0c6ea8f9a17a384edc9a2df15f4 -->
<g id="node5" class="node">
<title>dir_2605f0c6ea8f9a17a384edc9a2df15f4</title>
<g id="a_node5"><a xlink:href="dir_2605f0c6ea8f9a17a384edc9a2df15f4.html" target="_top" xlink:title="iris">
<polygon fill="#edf0f7" stroke="red" points="274,-35 242,-35 242,-16 274,-16 274,-35"/>
<text text-anchor="middle" x="258" y="-23" font-family="Helvetica,sans-Serif" font-size="10.00">iris</text>
</a>
</g>
</g>
<!-- dir_17076abbcecdd53a1af3ac0a38ec6e06&#45;&gt;dir_2605f0c6ea8f9a17a384edc9a2df15f4 -->
<g id="edge1" class="edge">
<title>dir_17076abbcecdd53a1af3ac0a38ec6e06&#45;&gt;dir_2605f0c6ea8f9a17a384edc9a2df15f4</title>
<path fill="none" stroke="#63b8ff" d="M209.32,-70.98C217.81,-63.23 230.56,-51.58 240.88,-42.14"/>
<polygon fill="#63b8ff" stroke="#63b8ff" points="243.49,-44.5 248.51,-35.17 238.77,-39.33 243.49,-44.5"/>
<g id="a_edge1&#45;headlabel"><a xlink:href="dir_000107_000102.html" target="_top" xlink:title="3">
<text text-anchor="middle" x="242.75" y="-46.52" font-family="Helvetica,sans-Serif" font-size="10.00" fill="#63b8ff">3</text>
</a>
</g>
</g>
<!-- dir_984cd133b143ec7cf21a4bdcb401bfa5 -->
<g id="node6" class="node">
<title>dir_984cd133b143ec7cf21a4bdcb401bfa5</title>
<g id="a_node6"><a xlink:href="dir_984cd133b143ec7cf21a4bdcb401bfa5.html" target="_top" xlink:title="di">
<polygon fill="#edf0f7" stroke="red" stroke-dasharray="5,2" points="321.5,-35 292.5,-35 292.5,-16 321.5,-16 321.5,-35"/>
<text text-anchor="middle" x="307" y="-23" font-family="Helvetica,sans-Serif" font-size="10.00">di</text>
</a>
</g>
</g>
<!-- dir_17076abbcecdd53a1af3ac0a38ec6e06&#45;&gt;dir_984cd133b143ec7cf21a4bdcb401bfa5 -->
<g id="edge3" class="edge">
<title>dir_17076abbcecdd53a1af3ac0a38ec6e06&#45;&gt;dir_984cd133b143ec7cf21a4bdcb401bfa5</title>
<path fill="none" stroke="#63b8ff" d="M217.19,-70.98C235.06,-62.13 263.17,-48.21 283.17,-38.3"/>
<polygon fill="#63b8ff" stroke="#63b8ff" points="284.86,-41.37 292.26,-33.8 281.75,-35.1 284.86,-41.37"/>
<g id="a_edge3&#45;headlabel"><a xlink:href="dir_000107_000058.html" target="_top" xlink:title="8">
<text text-anchor="middle" x="282.89" y="-43.01" font-family="Helvetica,sans-Serif" font-size="10.00" fill="#63b8ff">8</text>
</a>
</g>
</g>
<!-- dir_38f28bc96654b4658cdde4581b3380f4 -->
<g id="node3" class="node">
<title>dir_38f28bc96654b4658cdde4581b3380f4</title>
<g id="a_node3"><a xlink:href="dir_38f28bc96654b4658cdde4581b3380f4.html" target="_top" xlink:title="filesystem">
<polygon fill="#a2b4d6" stroke="#404040" points="164,-90 96,-90 96,-71 164,-71 164,-90"/>
<text text-anchor="middle" x="130" y="-78" font-family="Helvetica,sans-Serif" font-size="10.00">filesystem</text>
</a>
</g>
</g>
<!-- dir_38f28bc96654b4658cdde4581b3380f4&#45;&gt;dir_6ac4aa95e4478b160428441746083760 -->
<g id="edge5" class="edge">
<title>dir_38f28bc96654b4658cdde4581b3380f4&#45;&gt;dir_6ac4aa95e4478b160428441746083760</title>
<path fill="none" stroke="#63b8ff" d="M130,-70.75C130,-63.8 130,-53.85 130,-45.13"/>
<polygon fill="#63b8ff" stroke="#63b8ff" points="133.5,-45.09 130,-35.09 126.5,-45.09 133.5,-45.09"/>
<g id="a_edge5&#45;headlabel"><a xlink:href="dir_000077_000093.html" target="_top" xlink:title="8">
<text text-anchor="middle" x="136.34" y="-46.18" font-family="Helvetica,sans-Serif" font-size="10.00" fill="#63b8ff">8</text>
</a>
</g>
</g>
<!-- dir_38f28bc96654b4658cdde4581b3380f4&#45;&gt;dir_2605f0c6ea8f9a17a384edc9a2df15f4 -->
<g id="edge4" class="edge">
<title>dir_38f28bc96654b4658cdde4581b3380f4&#45;&gt;dir_2605f0c6ea8f9a17a384edc9a2df15f4</title>
<path fill="none" stroke="#63b8ff" d="M151.14,-70.87C170.89,-62.79 201.44,-50.25 232.28,-37.38"/>
<polygon fill="#63b8ff" stroke="#63b8ff" points="233.97,-40.47 241.85,-33.38 231.27,-34.01 233.97,-40.47"/>
<g id="a_edge4&#45;headlabel"><a xlink:href="dir_000077_000102.html" target="_top" xlink:title="2">
<text text-anchor="middle" x="231.75" y="-41.97" font-family="Helvetica,sans-Serif" font-size="10.00" fill="#63b8ff">2</text>
</a>
</g>
</g>
<!-- dir_38f28bc96654b4658cdde4581b3380f4&#45;&gt;dir_984cd133b143ec7cf21a4bdcb401bfa5 -->
<g id="edge6" class="edge">
<title>dir_38f28bc96654b4658cdde4581b3380f4&#45;&gt;dir_984cd133b143ec7cf21a4bdcb401bfa5</title>
<path fill="none" stroke="#63b8ff" d="M151.32,-70.98C158.47,-68.26 166.53,-65.35 174,-63 218.91,-48.86 233.46,-49.45 282.73,-34.84"/>
<polygon fill="#63b8ff" stroke="#63b8ff" points="283.79,-38.17 292.35,-31.92 281.76,-31.47 283.79,-38.17"/>
<g id="a_edge6&#45;headlabel"><a xlink:href="dir_000077_000058.html" target="_top" xlink:title="4">
<text text-anchor="middle" x="281.17" y="-39.43" font-family="Helvetica,sans-Serif" font-size="10.00" fill="#63b8ff">4</text>
</a>
</g>
</g>
<!-- dir_0ff8333f2ae8fd5604cef0f979a000bb -->
<g id="node4" class="node">
<title>dir_0ff8333f2ae8fd5604cef0f979a000bb</title>
<g id="a_node4"><a xlink:href="dir_0ff8333f2ae8fd5604cef0f979a000bb.html" target="_top" xlink:title="system">
<polygon fill="#a2b4d6" stroke="#404040" points="77.5,-90 24.5,-90 24.5,-71 77.5,-71 77.5,-90"/>
<text text-anchor="middle" x="51" y="-78" font-family="Helvetica,sans-Serif" font-size="10.00">system</text>
</a>
</g>
</g>
<!-- dir_0ff8333f2ae8fd5604cef0f979a000bb&#45;&gt;dir_6ac4aa95e4478b160428441746083760 -->
<g id="edge7" class="edge">
<title>dir_0ff8333f2ae8fd5604cef0f979a000bb&#45;&gt;dir_6ac4aa95e4478b160428441746083760</title>
<path fill="none" stroke="#63b8ff" d="M63.69,-70.98C75.83,-62.84 94.36,-50.41 108.75,-40.76"/>
<polygon fill="#63b8ff" stroke="#63b8ff" points="110.72,-43.65 117.08,-35.17 106.82,-37.84 110.72,-43.65"/>
<g id="a_edge7&#45;headlabel"><a xlink:href="dir_000166_000093.html" target="_top" xlink:title="2">
<text text-anchor="middle" x="109.32" y="-45.51" font-family="Helvetica,sans-Serif" font-size="10.00" fill="#63b8ff">2</text>
</a>
</g>
</g>
</g>
</svg>
