<?xml version="1.0" encoding="UTF-8" standalone="no"?>
<!DOCTYPE svg PUBLIC "-//W3C//DTD SVG 1.1//EN"
 "http://www.w3.org/Graphics/SVG/1.1/DTD/svg11.dtd">
<!-- Generated by graphviz version 2.43.0 (0)
 -->
<!-- Title: libs/di/include/di/execution/context Pages: 1 -->
<svg width="625pt" height="133pt"
 viewBox="0.00 0.00 624.50 133.00" xmlns="http://www.w3.org/2000/svg" xmlns:xlink="http://www.w3.org/1999/xlink">
<g id="graph0" class="graph" transform="scale(1 1) rotate(0) translate(4 129)">
<title>libs/di/include/di/execution/context</title>
<g id="clust1" class="cluster">
<title>clusterdir_182dab0b86097ba072332b7ad8fceb7f</title>
<g id="a_clust1"><a xlink:href="dir_182dab0b86097ba072332b7ad8fceb7f.html" target="_top" xlink:title="execution">
<polygon fill="#edf0f7" stroke="#7f7f7f" stroke-dasharray="5,2" points="8,-8 8,-117 286,-117 286,-8 8,-8"/>
<text text-anchor="middle" x="147" y="-105" font-family="Helvetica,sans-Serif" font-size="10.00">execution</text>
</a>
</g>
</g>
<!-- dir_27e1a0af1927749316784e6421682a5e -->
<g id="node1" class="node">
<title>dir_27e1a0af1927749316784e6421682a5e</title>
<g id="a_node1"><a xlink:href="dir_27e1a0af1927749316784e6421682a5e.html" target="_top" xlink:title="interface">
<polygon fill="#a2b4d6" stroke="#404040" points="76,-35 16,-35 16,-16 76,-16 76,-35"/>
<text text-anchor="middle" x="46" y="-23" font-family="Helvetica,sans-Serif" font-size="10.00">interface</text>
</a>
</g>
</g>
<!-- dir_38011a79da39fb3448319eccf8c364d9 -->
<g id="node2" class="node">
<title>dir_38011a79da39fb3448319eccf8c364d9</title>
<g id="a_node2"><a xlink:href="dir_38011a79da39fb3448319eccf8c364d9.html" target="_top" xlink:title="query">
<polygon fill="#a2b4d6" stroke="#404040" points="138,-35 94,-35 94,-16 138,-16 138,-35"/>
<text text-anchor="middle" x="116" y="-23" font-family="Helvetica,sans-Serif" font-size="10.00">query</text>
</a>
</g>
</g>
<!-- dir_569ed69d6bb9bf9a95676c3a98a04440 -->
<g id="node3" class="node">
<title>dir_569ed69d6bb9bf9a95676c3a98a04440</title>
<g id="a_node3"><a xlink:href="dir_569ed69d6bb9bf9a95676c3a98a04440.html" target="_top" xlink:title="types">
<polygon fill="#a2b4d6" stroke="#404040" points="200,-35 156,-35 156,-16 200,-16 200,-35"/>
<text text-anchor="middle" x="178" y="-23" font-family="Helvetica,sans-Serif" font-size="10.00">types</text>
</a>
</g>
</g>
<!-- dir_72b20bf6291bd35729057dcb4ccbac76 -->
<g id="node4" class="node">
<title>dir_72b20bf6291bd35729057dcb4ccbac76</title>
<g id="a_node4"><a xlink:href="dir_72b20bf6291bd35729057dcb4ccbac76.html" target="_top" xlink:title="concepts">
<polygon fill="#a2b4d6" stroke="#404040" points="278,-35 218,-35 218,-16 278,-16 278,-35"/>
<text text-anchor="middle" x="248" y="-23" font-family="Helvetica,sans-Serif" font-size="10.00">concepts</text>
</a>
</g>
</g>
<!-- dir_327ae4384e5e6037a079ed60a15477ad -->
<g id="node5" class="node">
<title>dir_327ae4384e5e6037a079ed60a15477ad</title>
<g id="a_node5"><a xlink:href="dir_327ae4384e5e6037a079ed60a15477ad.html" target="_top" xlink:title="context">
<polygon fill="#edf0f7" stroke="#404040" stroke-width="2" points="277.5,-90 224.5,-90 224.5,-71 277.5,-71 277.5,-90"/>
<text text-anchor="middle" x="251" y="-78" font-family="Helvetica,sans-Serif" font-size="10.00">context</text>
</a>
</g>
</g>
<!-- dir_327ae4384e5e6037a079ed60a15477ad&#45;&gt;dir_27e1a0af1927749316784e6421682a5e -->
<g id="edge2" class="edge">
<title>dir_327ae4384e5e6037a079ed60a15477ad&#45;&gt;dir_27e1a0af1927749316784e6421682a5e</title>
<path fill="none" stroke="#63b8ff" d="M224.2,-72.57C188.98,-63.47 126.82,-47.4 86.02,-36.85"/>
<polygon fill="#63b8ff" stroke="#63b8ff" points="86.7,-33.41 76.14,-34.29 84.94,-40.18 86.7,-33.41"/>
<g id="a_edge2&#45;headlabel"><a xlink:href="dir_000048_000096.html" target="_top" xlink:title="5">
<text text-anchor="middle" x="90.89" y="-29.06" font-family="Helvetica,sans-Serif" font-size="10.00" fill="#63b8ff">5</text>
</a>
</g>
</g>
<!-- dir_327ae4384e5e6037a079ed60a15477ad&#45;&gt;dir_38011a79da39fb3448319eccf8c364d9 -->
<g id="edge3" class="edge">
<title>dir_327ae4384e5e6037a079ed60a15477ad&#45;&gt;dir_38011a79da39fb3448319eccf8c364d9</title>
<path fill="none" stroke="#63b8ff" d="M229.31,-70.98C207.2,-62.3 172.68,-48.75 147.55,-38.88"/>
<polygon fill="#63b8ff" stroke="#63b8ff" points="148.67,-35.57 138.08,-35.17 146.11,-42.08 148.67,-35.57"/>
<g id="a_edge3&#45;headlabel"><a xlink:href="dir_000048_000139.html" target="_top" xlink:title="2">
<text text-anchor="middle" x="153.06" y="-31.74" font-family="Helvetica,sans-Serif" font-size="10.00" fill="#63b8ff">2</text>
</a>
</g>
</g>
<!-- dir_327ae4384e5e6037a079ed60a15477ad&#45;&gt;dir_569ed69d6bb9bf9a95676c3a98a04440 -->
<g id="edge6" class="edge">
<title>dir_327ae4384e5e6037a079ed60a15477ad&#45;&gt;dir_569ed69d6bb9bf9a95676c3a98a04440</title>
<path fill="none" stroke="#63b8ff" d="M239.27,-70.98C228.27,-63 211.58,-50.88 198.4,-41.31"/>
<polygon fill="#63b8ff" stroke="#63b8ff" points="200.09,-38.21 189.94,-35.17 195.98,-43.88 200.09,-38.21"/>
<g id="a_edge6&#45;headlabel"><a xlink:href="dir_000048_000179.html" target="_top" xlink:title="1">
<text text-anchor="middle" x="204.67" y="-35.53" font-family="Helvetica,sans-Serif" font-size="10.00" fill="#63b8ff">1</text>
</a>
</g>
</g>
<!-- dir_327ae4384e5e6037a079ed60a15477ad&#45;&gt;dir_72b20bf6291bd35729057dcb4ccbac76 -->
<g id="edge7" class="edge">
<title>dir_327ae4384e5e6037a079ed60a15477ad&#45;&gt;dir_72b20bf6291bd35729057dcb4ccbac76</title>
<path fill="none" stroke="#63b8ff" d="M250.5,-70.75C250.11,-63.8 249.55,-53.85 249.05,-45.13"/>
<polygon fill="#63b8ff" stroke="#63b8ff" points="252.55,-44.88 248.49,-35.09 245.56,-45.27 252.55,-44.88"/>
<g id="a_edge7&#45;headlabel"><a xlink:href="dir_000048_000038.html" target="_top" xlink:title="5">
<text text-anchor="middle" x="255.58" y="-45.8" font-family="Helvetica,sans-Serif" font-size="10.00" fill="#63b8ff">5</text>
</a>
</g>
</g>
<!-- dir_0669efae56692bb73da75efb5ebbccdf -->
<g id="node6" class="node">
<title>dir_0669efae56692bb73da75efb5ebbccdf</title>
<g id="a_node6"><a xlink:href="dir_0669efae56692bb73da75efb5ebbccdf.html" target="_top" xlink:title="function">
<polygon fill="#edf0f7" stroke="red" stroke-dasharray="5,2" points="352,-35 296,-35 296,-16 352,-16 352,-35"/>
<text text-anchor="middle" x="324" y="-23" font-family="Helvetica,sans-Serif" font-size="10.00">function</text>
</a>
</g>
</g>
<!-- dir_327ae4384e5e6037a079ed60a15477ad&#45;&gt;dir_0669efae56692bb73da75efb5ebbccdf -->
<g id="edge1" class="edge">
<title>dir_327ae4384e5e6037a079ed60a15477ad&#45;&gt;dir_0669efae56692bb73da75efb5ebbccdf</title>
<path fill="none" stroke="#63b8ff" d="M262.73,-70.98C273.73,-63 290.42,-50.88 303.6,-41.31"/>
<polygon fill="#63b8ff" stroke="#63b8ff" points="306.02,-43.88 312.06,-35.17 301.91,-38.21 306.02,-43.88"/>
<g id="a_edge1&#45;headlabel"><a xlink:href="dir_000048_000082.html" target="_top" xlink:title="2">
<text text-anchor="middle" x="304.78" y="-45.79" font-family="Helvetica,sans-Serif" font-size="10.00" fill="#63b8ff">2</text>
</a>
</g>
</g>
<!-- dir_4535887b2cdca47e625f259d07db0112 -->
<g id="node7" class="node">
<title>dir_4535887b2cdca47e625f259d07db0112</title>
<g id="a_node7"><a xlink:href="dir_4535887b2cdca47e625f259d07db0112.html" target="_top" xlink:title="util">
<polygon fill="#edf0f7" stroke="#7f7f7f" points="402,-35 370,-35 370,-16 402,-16 402,-35"/>
<text text-anchor="middle" x="386" y="-23" font-family="Helvetica,sans-Serif" font-size="10.00">util</text>
</a>
</g>
</g>
<!-- dir_327ae4384e5e6037a079ed60a15477ad&#45;&gt;dir_4535887b2cdca47e625f259d07db0112 -->
<g id="edge4" class="edge">
<title>dir_327ae4384e5e6037a079ed60a15477ad&#45;&gt;dir_4535887b2cdca47e625f259d07db0112</title>
<path fill="none" stroke="#63b8ff" d="M272.69,-70.98C296.64,-61.58 335.16,-46.46 360.53,-36.5"/>
<polygon fill="#63b8ff" stroke="#63b8ff" points="361.84,-39.74 369.87,-32.83 359.28,-33.23 361.84,-39.74"/>
<g id="a_edge4&#45;headlabel"><a xlink:href="dir_000048_000185.html" target="_top" xlink:title="1">
<text text-anchor="middle" x="359.53" y="-41.2" font-family="Helvetica,sans-Serif" font-size="10.00" fill="#63b8ff">1</text>
</a>
</g>
</g>
<!-- dir_521de572ae4fe2915cc70a876c52f5b7 -->
<g id="node8" class="node">
<title>dir_521de572ae4fe2915cc70a876c52f5b7</title>
<g id="a_node8"><a xlink:href="dir_521de572ae4fe2915cc70a876c52f5b7.html" target="_top" xlink:title="container">
<polygon fill="#edf0f7" stroke="red" stroke-dasharray="5,2" points="482,-35 420,-35 420,-16 482,-16 482,-35"/>
<text text-anchor="middle" x="451" y="-23" font-family="Helvetica,sans-Serif" font-size="10.00">container</text>
</a>
</g>
</g>
<!-- dir_327ae4384e5e6037a079ed60a15477ad&#45;&gt;dir_521de572ae4fe2915cc70a876c52f5b7 -->
<g id="edge5" class="edge">
<title>dir_327ae4384e5e6037a079ed60a15477ad&#45;&gt;dir_521de572ae4fe2915cc70a876c52f5b7</title>
<path fill="none" stroke="#63b8ff" d="M277.56,-72.46C311.38,-63.5 370.18,-47.92 409.83,-37.41"/>
<polygon fill="#63b8ff" stroke="#63b8ff" points="410.95,-40.73 419.72,-34.79 409.16,-33.97 410.95,-40.73"/>
<g id="a_edge5&#45;headlabel"><a xlink:href="dir_000048_000046.html" target="_top" xlink:title="2">
<text text-anchor="middle" x="408.2" y="-41.9" font-family="Helvetica,sans-Serif" font-size="10.00" fill="#63b8ff">2</text>
</a>
</g>
</g>
<!-- dir_9bfc08b7c5b17d043ebb5b9fbb866539 -->
<g id="node9" class="node">
<title>dir_9bfc08b7c5b17d043ebb5b9fbb866539</title>
<g id="a_node9"><a xlink:href="dir_9bfc08b7c5b17d043ebb5b9fbb866539.html" target="_top" xlink:title="sync">
<polygon fill="#edf0f7" stroke="red" stroke-dasharray="5,2" points="539.5,-35 500.5,-35 500.5,-16 539.5,-16 539.5,-35"/>
<text text-anchor="middle" x="520" y="-23" font-family="Helvetica,sans-Serif" font-size="10.00">sync</text>
</a>
</g>
</g>
<!-- dir_327ae4384e5e6037a079ed60a15477ad&#45;&gt;dir_9bfc08b7c5b17d043ebb5b9fbb866539 -->
<g id="edge8" class="edge">
<title>dir_327ae4384e5e6037a079ed60a15477ad&#45;&gt;dir_9bfc08b7c5b17d043ebb5b9fbb866539</title>
<path fill="none" stroke="#63b8ff" d="M277.82,-75.44C320.68,-68.76 407.4,-54.44 490.56,-34.88"/>
<polygon fill="#63b8ff" stroke="#63b8ff" points="491.5,-38.25 500.42,-32.53 489.88,-31.45 491.5,-38.25"/>
<g id="a_edge8&#45;headlabel"><a xlink:href="dir_000048_000162.html" target="_top" xlink:title="2">
<text text-anchor="middle" x="488.66" y="-39.35" font-family="Helvetica,sans-Serif" font-size="10.00" fill="#63b8ff">2</text>
</a>
</g>
</g>
<!-- dir_aaf67126bd5deefc4d96704f76f22cc2 -->
<g id="node10" class="node">
<title>dir_aaf67126bd5deefc4d96704f76f22cc2</title>
<g id="a_node10"><a xlink:href="dir_aaf67126bd5deefc4d96704f76f22cc2.html" target="_top" xlink:title="platform">
<polygon fill="#edf0f7" stroke="#7f7f7f" points="616.5,-35 557.5,-35 557.5,-16 616.5,-16 616.5,-35"/>
<text text-anchor="middle" x="587" y="-23" font-family="Helvetica,sans-Serif" font-size="10.00">platform</text>
</a>
</g>
</g>
<!-- dir_327ae4384e5e6037a079ed60a15477ad&#45;&gt;dir_aaf67126bd5deefc4d96704f76f22cc2 -->
<g id="edge9" class="edge">
<title>dir_327ae4384e5e6037a079ed60a15477ad&#45;&gt;dir_aaf67126bd5deefc4d96704f76f22cc2</title>
<path fill="none" stroke="#63b8ff" d="M277.82,-76.15C328.52,-69.68 442.1,-54.52 547.04,-35.26"/>
<polygon fill="#63b8ff" stroke="#63b8ff" points="547.98,-38.65 557.17,-33.38 546.7,-31.77 547.98,-38.65"/>
<g id="a_edge9&#45;headlabel"><a xlink:href="dir_000048_000135.html" target="_top" xlink:title="1">
<text text-anchor="middle" x="544.96" y="-39.59" font-family="Helvetica,sans-Serif" font-size="10.00" fill="#63b8ff">1</text>
</a>
</g>
</g>
</g>
</svg>
