<?xml version="1.0" encoding="UTF-8" standalone="no"?>
<!DOCTYPE svg PUBLIC "-//W3C//DTD SVG 1.1//EN"
 "http://www.w3.org/Graphics/SVG/1.1/DTD/svg11.dtd">
<!-- Generated by graphviz version 2.43.0 (0)
 -->
<!-- Title: libs/di/include/di/parser/concepts Pages: 1 -->
<svg width="284pt" height="133pt"
 viewBox="0.00 0.00 284.00 133.00" xmlns="http://www.w3.org/2000/svg" xmlns:xlink="http://www.w3.org/1999/xlink">
<g id="graph0" class="graph" transform="scale(1 1) rotate(0) translate(4 129)">
<title>libs/di/include/di/parser/concepts</title>
<g id="clust1" class="cluster">
<title>clusterdir_c63ec87f2f7fd7fbd5b69a04f05a2815</title>
<g id="a_clust1"><a xlink:href="dir_c63ec87f2f7fd7fbd5b69a04f05a2815.html" target="_top" xlink:title="parser">
<polygon fill="#edf0f7" stroke="#7f7f7f" stroke-dasharray="5,2" points="8,-8 8,-117 84,-117 84,-8 8,-8"/>
<text text-anchor="middle" x="46" y="-105" font-family="Helvetica,sans-Serif" font-size="10.00">parser</text>
</a>
</g>
</g>
<!-- dir_979062da5ab806b052b4261920d5e719 -->
<g id="node1" class="node">
<title>dir_979062da5ab806b052b4261920d5e719</title>
<g id="a_node1"><a xlink:href="dir_979062da5ab806b052b4261920d5e719.html" target="_top" xlink:title="meta">
<polygon fill="#a2b4d6" stroke="#404040" points="67,-35 25,-35 25,-16 67,-16 67,-35"/>
<text text-anchor="middle" x="46" y="-23" font-family="Helvetica,sans-Serif" font-size="10.00">meta</text>
</a>
</g>
</g>
<!-- dir_967eafbc0b7c635d33b7b0b328f0cb12 -->
<g id="node2" class="node">
<title>dir_967eafbc0b7c635d33b7b0b328f0cb12</title>
<g id="a_node2"><a xlink:href="dir_967eafbc0b7c635d33b7b0b328f0cb12.html" target="_top" xlink:title="concepts">
<polygon fill="#edf0f7" stroke="#404040" stroke-width="2" points="76,-90 16,-90 16,-71 76,-71 76,-90"/>
<text text-anchor="middle" x="46" y="-78" font-family="Helvetica,sans-Serif" font-size="10.00">concepts</text>
</a>
</g>
</g>
<!-- dir_967eafbc0b7c635d33b7b0b328f0cb12&#45;&gt;dir_979062da5ab806b052b4261920d5e719 -->
<g id="edge3" class="edge">
<title>dir_967eafbc0b7c635d33b7b0b328f0cb12&#45;&gt;dir_979062da5ab806b052b4261920d5e719</title>
<path fill="none" stroke="#63b8ff" d="M46,-70.75C46,-63.8 46,-53.85 46,-45.13"/>
<polygon fill="#63b8ff" stroke="#63b8ff" points="49.5,-45.09 46,-35.09 42.5,-45.09 49.5,-45.09"/>
<g id="a_edge3&#45;headlabel"><a xlink:href="dir_000040_000123.html" target="_top" xlink:title="1">
<text text-anchor="middle" x="52.34" y="-46.18" font-family="Helvetica,sans-Serif" font-size="10.00" fill="#63b8ff">1</text>
</a>
</g>
</g>
<!-- dir_30ecaf38acae77be14fb9173f98f8612 -->
<g id="node3" class="node">
<title>dir_30ecaf38acae77be14fb9173f98f8612</title>
<g id="a_node3"><a xlink:href="dir_30ecaf38acae77be14fb9173f98f8612.html" target="_top" xlink:title="types">
<polygon fill="#edf0f7" stroke="#7f7f7f" points="136,-35 92,-35 92,-16 136,-16 136,-35"/>
<text text-anchor="middle" x="114" y="-23" font-family="Helvetica,sans-Serif" font-size="10.00">types</text>
</a>
</g>
</g>
<!-- dir_967eafbc0b7c635d33b7b0b328f0cb12&#45;&gt;dir_30ecaf38acae77be14fb9173f98f8612 -->
<g id="edge1" class="edge">
<title>dir_967eafbc0b7c635d33b7b0b328f0cb12&#45;&gt;dir_30ecaf38acae77be14fb9173f98f8612</title>
<path fill="none" stroke="#63b8ff" d="M56.93,-70.98C67.08,-63.07 82.42,-51.11 94.65,-41.58"/>
<polygon fill="#63b8ff" stroke="#63b8ff" points="97.14,-44.08 102.88,-35.17 92.84,-38.56 97.14,-44.08"/>
<g id="a_edge1&#45;headlabel"><a xlink:href="dir_000040_000180.html" target="_top" xlink:title="1">
<text text-anchor="middle" x="96.05" y="-46.03" font-family="Helvetica,sans-Serif" font-size="10.00" fill="#63b8ff">1</text>
</a>
</g>
</g>
<!-- dir_521de572ae4fe2915cc70a876c52f5b7 -->
<g id="node4" class="node">
<title>dir_521de572ae4fe2915cc70a876c52f5b7</title>
<g id="a_node4"><a xlink:href="dir_521de572ae4fe2915cc70a876c52f5b7.html" target="_top" xlink:title="container">
<polygon fill="#edf0f7" stroke="red" stroke-dasharray="5,2" points="216,-35 154,-35 154,-16 216,-16 216,-35"/>
<text text-anchor="middle" x="185" y="-23" font-family="Helvetica,sans-Serif" font-size="10.00">container</text>
</a>
</g>
</g>
<!-- dir_967eafbc0b7c635d33b7b0b328f0cb12&#45;&gt;dir_521de572ae4fe2915cc70a876c52f5b7 -->
<g id="edge2" class="edge">
<title>dir_967eafbc0b7c635d33b7b0b328f0cb12&#45;&gt;dir_521de572ae4fe2915cc70a876c52f5b7</title>
<path fill="none" stroke="#63b8ff" d="M68.33,-70.98C91.2,-62.27 126.96,-48.63 152.86,-38.75"/>
<polygon fill="#63b8ff" stroke="#63b8ff" points="154.16,-42 162.26,-35.17 151.67,-35.46 154.16,-42"/>
<g id="a_edge2&#45;headlabel"><a xlink:href="dir_000040_000046.html" target="_top" xlink:title="3">
<text text-anchor="middle" x="151.82" y="-43.44" font-family="Helvetica,sans-Serif" font-size="10.00" fill="#63b8ff">3</text>
</a>
</g>
</g>
<!-- dir_f555f996eeee1ebe901dc71e0c5de8ff -->
<g id="node5" class="node">
<title>dir_f555f996eeee1ebe901dc71e0c5de8ff</title>
<g id="a_node5"><a xlink:href="dir_f555f996eeee1ebe901dc71e0c5de8ff.html" target="_top" xlink:title="meta">
<polygon fill="#edf0f7" stroke="#7f7f7f" points="276,-35 234,-35 234,-16 276,-16 276,-35"/>
<text text-anchor="middle" x="255" y="-23" font-family="Helvetica,sans-Serif" font-size="10.00">meta</text>
</a>
</g>
</g>
<!-- dir_967eafbc0b7c635d33b7b0b328f0cb12&#45;&gt;dir_f555f996eeee1ebe901dc71e0c5de8ff -->
<g id="edge4" class="edge">
<title>dir_967eafbc0b7c635d33b7b0b328f0cb12&#45;&gt;dir_f555f996eeee1ebe901dc71e0c5de8ff</title>
<path fill="none" stroke="#63b8ff" d="M76.16,-72.32C109.86,-64.23 166.25,-50.48 223.74,-35.27"/>
<polygon fill="#63b8ff" stroke="#63b8ff" points="224.95,-38.57 233.72,-32.62 223.15,-31.81 224.95,-38.57"/>
<g id="a_edge4&#45;headlabel"><a xlink:href="dir_000040_000122.html" target="_top" xlink:title="4">
<text text-anchor="middle" x="222.21" y="-39.74" font-family="Helvetica,sans-Serif" font-size="10.00" fill="#63b8ff">4</text>
</a>
</g>
</g>
</g>
</svg>
