<?xml version="1.0" encoding="UTF-8" standalone="no"?>
<!DOCTYPE svg PUBLIC "-//W3C//DTD SVG 1.1//EN"
 "http://www.w3.org/Graphics/SVG/1.1/DTD/svg11.dtd">
<!-- Generated by graphviz version 2.43.0 (0)
 -->
<!-- Title: libs/di/include/di/function Pages: 1 -->
<svg width="506pt" height="251pt"
 viewBox="0.00 0.00 506.00 251.00" xmlns="http://www.w3.org/2000/svg" xmlns:xlink="http://www.w3.org/1999/xlink">
<g id="graph0" class="graph" transform="scale(1 1) rotate(0) translate(4 247)">
<title>libs/di/include/di/function</title>
<g id="clust1" class="cluster">
<title>clusterdir_f95a1a0ab1b96e316090c1bcac3c2c99</title>
<g id="a_clust1"><a xlink:href="dir_f95a1a0ab1b96e316090c1bcac3c2c99.html" target="_top" xlink:title="di">
<polygon fill="#edf0f7" stroke="#7f7f7f" stroke-dasharray="5,2" points="8,-8 8,-235 490,-235 490,-8 8,-8"/>
<text text-anchor="middle" x="249" y="-223" font-family="Helvetica,sans-Serif" font-size="10.00">di</text>
</a>
</g>
</g>
<g id="clust2" class="cluster">
<title>clusterdir_0669efae56692bb73da75efb5ebbccdf</title>
<g id="a_clust2"><a xlink:href="dir_0669efae56692bb73da75efb5ebbccdf.html" target="_top">
<polygon fill="#edf0f7" stroke="#404040" stroke-width="2" points="164,-63 164,-208 262,-208 262,-63 164,-63"/>
</a>
</g>
</g>
<!-- dir_30ecaf38acae77be14fb9173f98f8612 -->
<g id="node1" class="node">
<title>dir_30ecaf38acae77be14fb9173f98f8612</title>
<g id="a_node1"><a xlink:href="dir_30ecaf38acae77be14fb9173f98f8612.html" target="_top" xlink:title="types">
<polygon fill="#a2b4d6" stroke="#404040" points="130,-35 86,-35 86,-16 130,-16 130,-35"/>
<text text-anchor="middle" x="108" y="-23" font-family="Helvetica,sans-Serif" font-size="10.00">types</text>
</a>
</g>
</g>
<!-- dir_4535887b2cdca47e625f259d07db0112 -->
<g id="node2" class="node">
<title>dir_4535887b2cdca47e625f259d07db0112</title>
<g id="a_node2"><a xlink:href="dir_4535887b2cdca47e625f259d07db0112.html" target="_top" xlink:title="util">
<polygon fill="#a2b4d6" stroke="#404040" points="259,-35 227,-35 227,-16 259,-16 259,-35"/>
<text text-anchor="middle" x="243" y="-23" font-family="Helvetica,sans-Serif" font-size="10.00">util</text>
</a>
</g>
</g>
<!-- dir_521de572ae4fe2915cc70a876c52f5b7 -->
<g id="node3" class="node">
<title>dir_521de572ae4fe2915cc70a876c52f5b7</title>
<g id="a_node3"><a xlink:href="dir_521de572ae4fe2915cc70a876c52f5b7.html" target="_top" xlink:title="container">
<polygon fill="#a2b4d6" stroke="red" points="332,-90 270,-90 270,-71 332,-71 332,-90"/>
<text text-anchor="middle" x="301" y="-78" font-family="Helvetica,sans-Serif" font-size="10.00">container</text>
</a>
</g>
</g>
<!-- dir_60d1624911c2c9f7b6f38e44ec895aaa -->
<g id="node4" class="node">
<title>dir_60d1624911c2c9f7b6f38e44ec895aaa</title>
<g id="a_node4"><a xlink:href="dir_60d1624911c2c9f7b6f38e44ec895aaa.html" target="_top" xlink:title="math">
<polygon fill="#a2b4d6" stroke="red" points="334,-145 292,-145 292,-126 334,-126 334,-145"/>
<text text-anchor="middle" x="313" y="-133" font-family="Helvetica,sans-Serif" font-size="10.00">math</text>
</a>
</g>
</g>
<!-- dir_942cfae36a92b6b1c4b510e99e852d40 -->
<g id="node5" class="node">
<title>dir_942cfae36a92b6b1c4b510e99e852d40</title>
<g id="a_node5"><a xlink:href="dir_942cfae36a92b6b1c4b510e99e852d40.html" target="_top" xlink:title="vocab">
<polygon fill="#a2b4d6" stroke="red" points="396,-90 350,-90 350,-71 396,-71 396,-90"/>
<text text-anchor="middle" x="373" y="-78" font-family="Helvetica,sans-Serif" font-size="10.00">vocab</text>
</a>
</g>
</g>
<!-- dir_a60d4453151dca6bdd8e5fcc350e379b -->
<g id="node6" class="node">
<title>dir_a60d4453151dca6bdd8e5fcc350e379b</title>
<g id="a_node6"><a xlink:href="dir_a60d4453151dca6bdd8e5fcc350e379b.html" target="_top" xlink:title="assert">
<polygon fill="#a2b4d6" stroke="#404040" points="461.5,-90 414.5,-90 414.5,-71 461.5,-71 461.5,-90"/>
<text text-anchor="middle" x="438" y="-78" font-family="Helvetica,sans-Serif" font-size="10.00">assert</text>
</a>
</g>
</g>
<!-- dir_aaf67126bd5deefc4d96704f76f22cc2 -->
<g id="node7" class="node">
<title>dir_aaf67126bd5deefc4d96704f76f22cc2</title>
<g id="a_node7"><a xlink:href="dir_aaf67126bd5deefc4d96704f76f22cc2.html" target="_top" xlink:title="platform">
<polygon fill="#a2b4d6" stroke="#404040" points="155.5,-90 96.5,-90 96.5,-71 155.5,-71 155.5,-90"/>
<text text-anchor="middle" x="126" y="-78" font-family="Helvetica,sans-Serif" font-size="10.00">platform</text>
</a>
</g>
</g>
<!-- dir_f555f996eeee1ebe901dc71e0c5de8ff -->
<g id="node8" class="node">
<title>dir_f555f996eeee1ebe901dc71e0c5de8ff</title>
<g id="a_node8"><a xlink:href="dir_f555f996eeee1ebe901dc71e0c5de8ff.html" target="_top" xlink:title="meta">
<polygon fill="#a2b4d6" stroke="#404040" points="68,-35 26,-35 26,-16 68,-16 68,-35"/>
<text text-anchor="middle" x="47" y="-23" font-family="Helvetica,sans-Serif" font-size="10.00">meta</text>
</a>
</g>
</g>
<!-- dir_0669efae56692bb73da75efb5ebbccdf -->
<g id="node9" class="node">
<title>dir_0669efae56692bb73da75efb5ebbccdf</title>
<text text-anchor="middle" x="226" y="-188" font-family="Helvetica,sans-Serif" font-size="10.00">function</text>
</g>
<!-- dir_0669efae56692bb73da75efb5ebbccdf&#45;&gt;dir_30ecaf38acae77be14fb9173f98f8612 -->
<g id="edge2" class="edge">
<title>dir_0669efae56692bb73da75efb5ebbccdf&#45;&gt;dir_30ecaf38acae77be14fb9173f98f8612</title>
<path fill="none" stroke="#63b8ff" d="M200.54,-180.91C165.74,-167.63 104.71,-138.45 79,-90 73.37,-79.4 75.05,-74.33 79,-63 81.58,-55.61 86.35,-48.59 91.29,-42.72"/>
<polygon fill="#63b8ff" stroke="#63b8ff" points="94.18,-44.74 98.41,-35.03 89.05,-39.99 94.18,-44.74"/>
<g id="a_edge2&#45;headlabel"><a xlink:href="dir_000082_000180.html" target="_top" xlink:title="17">
<text text-anchor="middle" x="93.83" y="-46.81" font-family="Helvetica,sans-Serif" font-size="10.00" fill="#63b8ff">17</text>
</a>
</g>
</g>
<!-- dir_0669efae56692bb73da75efb5ebbccdf&#45;&gt;dir_4535887b2cdca47e625f259d07db0112 -->
<g id="edge3" class="edge">
<title>dir_0669efae56692bb73da75efb5ebbccdf&#45;&gt;dir_4535887b2cdca47e625f259d07db0112</title>
<path fill="none" stroke="#63b8ff" d="M254.03,-186.01C331.05,-175.36 535.99,-139.22 471,-63 445.33,-32.89 323.68,-27.51 269.34,-26.63"/>
<polygon fill="#63b8ff" stroke="#63b8ff" points="269.16,-23.13 259.11,-26.5 269.07,-30.13 269.16,-23.13"/>
<g id="a_edge3&#45;headlabel"><a xlink:href="dir_000082_000185.html" target="_top" xlink:title="60">
<text text-anchor="middle" x="272.79" y="-17.83" font-family="Helvetica,sans-Serif" font-size="10.00" fill="#63b8ff">60</text>
</a>
</g>
</g>
<!-- dir_0669efae56692bb73da75efb5ebbccdf&#45;&gt;dir_521de572ae4fe2915cc70a876c52f5b7 -->
<g id="edge4" class="edge">
<title>dir_0669efae56692bb73da75efb5ebbccdf&#45;&gt;dir_521de572ae4fe2915cc70a876c52f5b7</title>
<path fill="none" stroke="#63b8ff" d="M233.79,-180.95C241.58,-172.22 253.71,-158.12 263,-145 273.54,-130.13 284.06,-112.24 291.36,-99.25"/>
<polygon fill="#63b8ff" stroke="#63b8ff" points="294.47,-100.84 296.25,-90.4 288.35,-97.45 294.47,-100.84"/>
<g id="a_edge4&#45;headlabel"><a xlink:href="dir_000082_000046.html" target="_top" xlink:title="9">
<text text-anchor="middle" x="295.22" y="-102.86" font-family="Helvetica,sans-Serif" font-size="10.00" fill="#63b8ff">9</text>
</a>
</g>
</g>
<!-- dir_0669efae56692bb73da75efb5ebbccdf&#45;&gt;dir_60d1624911c2c9f7b6f38e44ec895aaa -->
<g id="edge5" class="edge">
<title>dir_0669efae56692bb73da75efb5ebbccdf&#45;&gt;dir_60d1624911c2c9f7b6f38e44ec895aaa</title>
<path fill="none" stroke="#63b8ff" d="M239.98,-180.98C253.47,-172.77 274.13,-160.18 290.04,-150.49"/>
<polygon fill="#63b8ff" stroke="#63b8ff" points="292.05,-153.36 298.77,-145.17 288.41,-147.38 292.05,-153.36"/>
<g id="a_edge5&#45;headlabel"><a xlink:href="dir_000082_000117.html" target="_top" xlink:title="10">
<text text-anchor="middle" x="290.46" y="-155.16" font-family="Helvetica,sans-Serif" font-size="10.00" fill="#63b8ff">10</text>
</a>
</g>
</g>
<!-- dir_0669efae56692bb73da75efb5ebbccdf&#45;&gt;dir_942cfae36a92b6b1c4b510e99e852d40 -->
<g id="edge6" class="edge">
<title>dir_0669efae56692bb73da75efb5ebbccdf&#45;&gt;dir_942cfae36a92b6b1c4b510e99e852d40</title>
<path fill="none" stroke="#63b8ff" d="M254.22,-184.97C280.11,-179.51 318.11,-168.02 343,-145 356,-132.98 363.9,-114.17 368.31,-100.14"/>
<polygon fill="#63b8ff" stroke="#63b8ff" points="371.78,-100.7 371.12,-90.13 365.05,-98.81 371.78,-100.7"/>
<g id="a_edge6&#45;headlabel"><a xlink:href="dir_000082_000189.html" target="_top" xlink:title="10">
<text text-anchor="middle" x="373.54" y="-102.43" font-family="Helvetica,sans-Serif" font-size="10.00" fill="#63b8ff">10</text>
</a>
</g>
</g>
<!-- dir_0669efae56692bb73da75efb5ebbccdf&#45;&gt;dir_a60d4453151dca6bdd8e5fcc350e379b -->
<g id="edge7" class="edge">
<title>dir_0669efae56692bb73da75efb5ebbccdf&#45;&gt;dir_a60d4453151dca6bdd8e5fcc350e379b</title>
<path fill="none" stroke="#63b8ff" d="M254.01,-182.5C280.66,-175.21 321.43,-162.41 354,-145 378.99,-131.64 404.51,-111.18 420.76,-97.12"/>
<polygon fill="#63b8ff" stroke="#63b8ff" points="423.17,-99.66 428.36,-90.42 418.54,-94.41 423.17,-99.66"/>
<g id="a_edge7&#45;headlabel"><a xlink:href="dir_000082_000018.html" target="_top" xlink:title="3">
<text text-anchor="middle" x="422.35" y="-101.66" font-family="Helvetica,sans-Serif" font-size="10.00" fill="#63b8ff">3</text>
</a>
</g>
</g>
<!-- dir_0669efae56692bb73da75efb5ebbccdf&#45;&gt;dir_f555f996eeee1ebe901dc71e0c5de8ff -->
<g id="edge9" class="edge">
<title>dir_0669efae56692bb73da75efb5ebbccdf&#45;&gt;dir_f555f996eeee1ebe901dc71e0c5de8ff</title>
<path fill="none" stroke="#63b8ff" d="M197.88,-184.85C171.25,-179.24 131.38,-167.6 104,-145 72.42,-118.93 57.11,-71.22 50.77,-44.99"/>
<polygon fill="#63b8ff" stroke="#63b8ff" points="54.18,-44.19 48.59,-35.19 47.35,-45.71 54.18,-44.19"/>
<g id="a_edge9&#45;headlabel"><a xlink:href="dir_000082_000122.html" target="_top" xlink:title="62">
<text text-anchor="middle" x="57.74" y="-44.58" font-family="Helvetica,sans-Serif" font-size="10.00" fill="#63b8ff">62</text>
</a>
</g>
</g>
<!-- dir_245820651058c18a4fe2211d255e5f91 -->
<g id="node10" class="node">
<title>dir_245820651058c18a4fe2211d255e5f91</title>
<g id="a_node10"><a xlink:href="dir_245820651058c18a4fe2211d255e5f91.html" target="_top" xlink:title="container">
<polygon fill="#a2b4d6" stroke="#404040" points="254,-145 192,-145 192,-126 254,-126 254,-145"/>
<text text-anchor="middle" x="223" y="-133" font-family="Helvetica,sans-Serif" font-size="10.00">container</text>
</a>
</g>
</g>
<!-- dir_0669efae56692bb73da75efb5ebbccdf&#45;&gt;dir_245820651058c18a4fe2211d255e5f91 -->
<g id="edge1" class="edge">
<title>dir_0669efae56692bb73da75efb5ebbccdf&#45;&gt;dir_245820651058c18a4fe2211d255e5f91</title>
<path fill="none" stroke="#63b8ff" d="M225.5,-180.75C225.11,-173.8 224.55,-163.85 224.05,-155.13"/>
<polygon fill="#63b8ff" stroke="#63b8ff" points="227.55,-154.88 223.49,-145.09 220.56,-155.27 227.55,-154.88"/>
<g id="a_edge1&#45;headlabel"><a xlink:href="dir_000082_000047.html" target="_top" xlink:title="1">
<text text-anchor="middle" x="230.58" y="-155.8" font-family="Helvetica,sans-Serif" font-size="10.00" fill="#63b8ff">1</text>
</a>
</g>
</g>
<!-- dir_f09ada16cafd282b577fa641a584e35b -->
<g id="node11" class="node">
<title>dir_f09ada16cafd282b577fa641a584e35b</title>
<g id="a_node11"><a xlink:href="dir_f09ada16cafd282b577fa641a584e35b.html" target="_top" xlink:title="monad">
<polygon fill="#a2b4d6" stroke="#404040" points="224,-90 174,-90 174,-71 224,-71 224,-90"/>
<text text-anchor="middle" x="199" y="-78" font-family="Helvetica,sans-Serif" font-size="10.00">monad</text>
</a>
</g>
</g>
<!-- dir_0669efae56692bb73da75efb5ebbccdf&#45;&gt;dir_f09ada16cafd282b577fa641a584e35b -->
<g id="edge8" class="edge">
<title>dir_0669efae56692bb73da75efb5ebbccdf&#45;&gt;dir_f09ada16cafd282b577fa641a584e35b</title>
<path fill="none" stroke="#63b8ff" d="M213.51,-180.93C203.13,-172.99 189.12,-160.14 183,-145 177.02,-130.2 182.41,-112.52 188.51,-99.58"/>
<polygon fill="#63b8ff" stroke="#63b8ff" points="191.79,-100.85 193.34,-90.37 185.59,-97.6 191.79,-100.85"/>
<g id="a_edge8&#45;headlabel"><a xlink:href="dir_000082_000128.html" target="_top" xlink:title="2">
<text text-anchor="middle" x="192.64" y="-102.85" font-family="Helvetica,sans-Serif" font-size="10.00" fill="#63b8ff">2</text>
</a>
</g>
</g>
<!-- dir_245820651058c18a4fe2211d255e5f91&#45;&gt;dir_30ecaf38acae77be14fb9173f98f8612 -->
<g id="edge10" class="edge">
<title>dir_245820651058c18a4fe2211d255e5f91&#45;&gt;dir_30ecaf38acae77be14fb9173f98f8612</title>
<path fill="none" stroke="#63b8ff" d="M191.93,-126.32C154.05,-116.03 94.27,-98.67 88,-90 77.98,-76.15 86.21,-57.11 94.95,-43.5"/>
<polygon fill="#63b8ff" stroke="#63b8ff" points="97.98,-45.27 100.86,-35.08 92.25,-41.25 97.98,-45.27"/>
<g id="a_edge10&#45;headlabel"><a xlink:href="dir_000047_000180.html" target="_top" xlink:title="2">
<text text-anchor="middle" x="98.24" y="-47.35" font-family="Helvetica,sans-Serif" font-size="10.00" fill="#63b8ff">2</text>
</a>
</g>
</g>
<!-- dir_245820651058c18a4fe2211d255e5f91&#45;&gt;dir_4535887b2cdca47e625f259d07db0112 -->
<g id="edge11" class="edge">
<title>dir_245820651058c18a4fe2211d255e5f91&#45;&gt;dir_4535887b2cdca47e625f259d07db0112</title>
<path fill="none" stroke="#63b8ff" d="M225.16,-125.67C227.31,-116.72 230.62,-102.44 233,-90 235.85,-75.06 238.5,-58.03 240.36,-45.37"/>
<polygon fill="#63b8ff" stroke="#63b8ff" points="243.87,-45.55 241.82,-35.16 236.94,-44.56 243.87,-45.55"/>
<g id="a_edge11&#45;headlabel"><a xlink:href="dir_000047_000185.html" target="_top" xlink:title="7">
<text text-anchor="middle" x="246.17" y="-47.01" font-family="Helvetica,sans-Serif" font-size="10.00" fill="#63b8ff">7</text>
</a>
</g>
</g>
<!-- dir_245820651058c18a4fe2211d255e5f91&#45;&gt;dir_521de572ae4fe2915cc70a876c52f5b7 -->
<g id="edge12" class="edge">
<title>dir_245820651058c18a4fe2211d255e5f91&#45;&gt;dir_521de572ae4fe2915cc70a876c52f5b7</title>
<path fill="none" stroke="#63b8ff" d="M235.53,-125.98C247.4,-117.92 265.46,-105.65 279.61,-96.03"/>
<polygon fill="#63b8ff" stroke="#63b8ff" points="281.94,-98.69 288.24,-90.17 278,-92.9 281.94,-98.69"/>
<g id="a_edge12&#45;headlabel"><a xlink:href="dir_000047_000046.html" target="_top" xlink:title="3">
<text text-anchor="middle" x="280.56" y="-100.55" font-family="Helvetica,sans-Serif" font-size="10.00" fill="#63b8ff">3</text>
</a>
</g>
</g>
<!-- dir_245820651058c18a4fe2211d255e5f91&#45;&gt;dir_942cfae36a92b6b1c4b510e99e852d40 -->
<g id="edge13" class="edge">
<title>dir_245820651058c18a4fe2211d255e5f91&#45;&gt;dir_942cfae36a92b6b1c4b510e99e852d40</title>
<path fill="none" stroke="#63b8ff" d="M247.1,-125.98C272.33,-117.07 312.1,-103.02 340.18,-93.1"/>
<polygon fill="#63b8ff" stroke="#63b8ff" points="341.68,-96.28 349.94,-89.65 339.35,-89.68 341.68,-96.28"/>
<g id="a_edge13&#45;headlabel"><a xlink:href="dir_000047_000189.html" target="_top" xlink:title="4">
<text text-anchor="middle" x="339.24" y="-97.65" font-family="Helvetica,sans-Serif" font-size="10.00" fill="#63b8ff">4</text>
</a>
</g>
</g>
<!-- dir_245820651058c18a4fe2211d255e5f91&#45;&gt;dir_a60d4453151dca6bdd8e5fcc350e379b -->
<g id="edge14" class="edge">
<title>dir_245820651058c18a4fe2211d255e5f91&#45;&gt;dir_a60d4453151dca6bdd8e5fcc350e379b</title>
<path fill="none" stroke="#63b8ff" d="M254.09,-126.95C294.63,-117.09 364.26,-100.13 404.43,-90.11"/>
<polygon fill="#63b8ff" stroke="#63b8ff" points="405.37,-93.49 414.22,-87.66 403.67,-86.7 405.37,-93.49"/>
<g id="a_edge14&#45;headlabel"><a xlink:href="dir_000047_000018.html" target="_top" xlink:title="2">
<text text-anchor="middle" x="402.57" y="-94.62" font-family="Helvetica,sans-Serif" font-size="10.00" fill="#63b8ff">2</text>
</a>
</g>
</g>
<!-- dir_245820651058c18a4fe2211d255e5f91&#45;&gt;dir_aaf67126bd5deefc4d96704f76f22cc2 -->
<g id="edge15" class="edge">
<title>dir_245820651058c18a4fe2211d255e5f91&#45;&gt;dir_aaf67126bd5deefc4d96704f76f22cc2</title>
<path fill="none" stroke="#63b8ff" d="M207.42,-125.98C192.23,-117.69 168.9,-104.94 151.1,-95.22"/>
<polygon fill="#63b8ff" stroke="#63b8ff" points="152.32,-91.89 141.87,-90.17 148.97,-98.04 152.32,-91.89"/>
<g id="a_edge15&#45;headlabel"><a xlink:href="dir_000047_000135.html" target="_top" xlink:title="1">
<text text-anchor="middle" x="156.84" y="-88.63" font-family="Helvetica,sans-Serif" font-size="10.00" fill="#63b8ff">1</text>
</a>
</g>
</g>
<!-- dir_245820651058c18a4fe2211d255e5f91&#45;&gt;dir_f555f996eeee1ebe901dc71e0c5de8ff -->
<g id="edge17" class="edge">
<title>dir_245820651058c18a4fe2211d255e5f91&#45;&gt;dir_f555f996eeee1ebe901dc71e0c5de8ff</title>
<path fill="none" stroke="#63b8ff" d="M191.84,-126.27C152.19,-115.58 87.77,-97.41 79,-90 65.18,-78.31 56.69,-59.18 51.96,-44.97"/>
<polygon fill="#63b8ff" stroke="#63b8ff" points="55.28,-43.84 49.05,-35.26 48.57,-45.85 55.28,-43.84"/>
<g id="a_edge17&#45;headlabel"><a xlink:href="dir_000047_000122.html" target="_top" xlink:title="8">
<text text-anchor="middle" x="59.03" y="-43.97" font-family="Helvetica,sans-Serif" font-size="10.00" fill="#63b8ff">8</text>
</a>
</g>
</g>
<!-- dir_245820651058c18a4fe2211d255e5f91&#45;&gt;dir_f09ada16cafd282b577fa641a584e35b -->
<g id="edge16" class="edge">
<title>dir_245820651058c18a4fe2211d255e5f91&#45;&gt;dir_f09ada16cafd282b577fa641a584e35b</title>
<path fill="none" stroke="#63b8ff" d="M219.04,-125.75C215.79,-118.57 211.08,-108.18 207.05,-99.27"/>
<polygon fill="#63b8ff" stroke="#63b8ff" points="210.2,-97.75 202.89,-90.09 203.83,-100.64 210.2,-97.75"/>
<g id="a_edge16&#45;headlabel"><a xlink:href="dir_000047_000128.html" target="_top" xlink:title="1">
<text text-anchor="middle" x="214.27" y="-97.36" font-family="Helvetica,sans-Serif" font-size="10.00" fill="#63b8ff">1</text>
</a>
</g>
</g>
<!-- dir_f09ada16cafd282b577fa641a584e35b&#45;&gt;dir_30ecaf38acae77be14fb9173f98f8612 -->
<g id="edge18" class="edge">
<title>dir_f09ada16cafd282b577fa641a584e35b&#45;&gt;dir_30ecaf38acae77be14fb9173f98f8612</title>
<path fill="none" stroke="#63b8ff" d="M184.38,-70.98C170.14,-62.69 148.25,-49.94 131.55,-40.22"/>
<polygon fill="#63b8ff" stroke="#63b8ff" points="133.29,-37.18 122.89,-35.17 129.77,-43.23 133.29,-37.18"/>
<g id="a_edge18&#45;headlabel"><a xlink:href="dir_000128_000180.html" target="_top" xlink:title="2">
<text text-anchor="middle" x="137.82" y="-34.03" font-family="Helvetica,sans-Serif" font-size="10.00" fill="#63b8ff">2</text>
</a>
</g>
</g>
<!-- dir_f09ada16cafd282b577fa641a584e35b&#45;&gt;dir_4535887b2cdca47e625f259d07db0112 -->
<g id="edge19" class="edge">
<title>dir_f09ada16cafd282b577fa641a584e35b&#45;&gt;dir_4535887b2cdca47e625f259d07db0112</title>
<path fill="none" stroke="#63b8ff" d="M206.27,-70.75C212.54,-63.18 221.79,-52.05 229.43,-42.84"/>
<polygon fill="#63b8ff" stroke="#63b8ff" points="232.17,-45.02 235.87,-35.09 226.79,-40.55 232.17,-45.02"/>
<g id="a_edge19&#45;headlabel"><a xlink:href="dir_000128_000185.html" target="_top" xlink:title="11">
<text text-anchor="middle" x="232.06" y="-47.1" font-family="Helvetica,sans-Serif" font-size="10.00" fill="#63b8ff">11</text>
</a>
</g>
</g>
<!-- dir_f09ada16cafd282b577fa641a584e35b&#45;&gt;dir_f555f996eeee1ebe901dc71e0c5de8ff -->
<g id="edge20" class="edge">
<title>dir_f09ada16cafd282b577fa641a584e35b&#45;&gt;dir_f555f996eeee1ebe901dc71e0c5de8ff</title>
<path fill="none" stroke="#63b8ff" d="M185.46,-70.95C180.7,-68.17 175.22,-65.23 170,-63 161.43,-59.35 111.59,-44.9 78.04,-35.31"/>
<polygon fill="#63b8ff" stroke="#63b8ff" points="78.79,-31.89 68.21,-32.51 76.87,-38.62 78.79,-31.89"/>
<g id="a_edge20&#45;headlabel"><a xlink:href="dir_000128_000122.html" target="_top" xlink:title="2">
<text text-anchor="middle" x="83.02" y="-27.64" font-family="Helvetica,sans-Serif" font-size="10.00" fill="#63b8ff">2</text>
</a>
</g>
</g>
</g>
</svg>
