<?xml version="1.0" encoding="UTF-8" standalone="no"?>
<!DOCTYPE svg PUBLIC "-//W3C//DTD SVG 1.1//EN"
 "http://www.w3.org/Graphics/SVG/1.1/DTD/svg11.dtd">
<!-- Generated by graphviz version 2.43.0 (0)
 -->
<!-- Title: libs/di/include/di/container/action Pages: 1 -->
<svg width="590pt" height="133pt"
 viewBox="0.00 0.00 590.00 133.00" xmlns="http://www.w3.org/2000/svg" xmlns:xlink="http://www.w3.org/1999/xlink">
<g id="graph0" class="graph" transform="scale(1 1) rotate(0) translate(4 129)">
<title>libs/di/include/di/container/action</title>
<g id="clust1" class="cluster">
<title>clusterdir_521de572ae4fe2915cc70a876c52f5b7</title>
<g id="a_clust1"><a xlink:href="dir_521de572ae4fe2915cc70a876c52f5b7.html" target="_top" xlink:title="container">
<polygon fill="#edf0f7" stroke="#7f7f7f" stroke-dasharray="5,2" points="8,-8 8,-117 342,-117 342,-8 8,-8"/>
<text text-anchor="middle" x="175" y="-105" font-family="Helvetica,sans-Serif" font-size="10.00">container</text>
</a>
</g>
</g>
<!-- dir_28cb5a05dfb61a4b9ad44e468e6394a4 -->
<g id="node1" class="node">
<title>dir_28cb5a05dfb61a4b9ad44e468e6394a4</title>
<g id="a_node1"><a xlink:href="dir_28cb5a05dfb61a4b9ad44e468e6394a4.html" target="_top" xlink:title="view">
<polygon fill="#a2b4d6" stroke="#404040" points="56,-35 16,-35 16,-16 56,-16 56,-35"/>
<text text-anchor="middle" x="36" y="-23" font-family="Helvetica,sans-Serif" font-size="10.00">view</text>
</a>
</g>
</g>
<!-- dir_838362f34bc8d8c3545343b0166aa672 -->
<g id="node2" class="node">
<title>dir_838362f34bc8d8c3545343b0166aa672</title>
<g id="a_node2"><a xlink:href="dir_838362f34bc8d8c3545343b0166aa672.html" target="_top" xlink:title="concepts">
<polygon fill="#a2b4d6" stroke="#404040" points="134,-35 74,-35 74,-16 134,-16 134,-35"/>
<text text-anchor="middle" x="104" y="-23" font-family="Helvetica,sans-Serif" font-size="10.00">concepts</text>
</a>
</g>
</g>
<!-- dir_9f8d33513cfc97e5f9ea6bf2671e5446 -->
<g id="node3" class="node">
<title>dir_9f8d33513cfc97e5f9ea6bf2671e5446</title>
<g id="a_node3"><a xlink:href="dir_9f8d33513cfc97e5f9ea6bf2671e5446.html" target="_top" xlink:title="meta">
<polygon fill="#a2b4d6" stroke="#404040" points="194,-35 152,-35 152,-16 194,-16 194,-35"/>
<text text-anchor="middle" x="173" y="-23" font-family="Helvetica,sans-Serif" font-size="10.00">meta</text>
</a>
</g>
</g>
<!-- dir_a7b99681c56fba2abd28393cbbc3f22c -->
<g id="node4" class="node">
<title>dir_a7b99681c56fba2abd28393cbbc3f22c</title>
<g id="a_node4"><a xlink:href="dir_a7b99681c56fba2abd28393cbbc3f22c.html" target="_top" xlink:title="types">
<polygon fill="#a2b4d6" stroke="#404040" points="256,-35 212,-35 212,-16 256,-16 256,-35"/>
<text text-anchor="middle" x="234" y="-23" font-family="Helvetica,sans-Serif" font-size="10.00">types</text>
</a>
</g>
</g>
<!-- dir_dd6c062645334da7e8440ac2e54ccb1d -->
<g id="node5" class="node">
<title>dir_dd6c062645334da7e8440ac2e54ccb1d</title>
<g id="a_node5"><a xlink:href="dir_dd6c062645334da7e8440ac2e54ccb1d.html" target="_top" xlink:title="interface">
<polygon fill="#a2b4d6" stroke="#404040" points="334,-35 274,-35 274,-16 334,-16 334,-35"/>
<text text-anchor="middle" x="304" y="-23" font-family="Helvetica,sans-Serif" font-size="10.00">interface</text>
</a>
</g>
</g>
<!-- dir_d51187963f88a3ef0fe489eb9431bd26 -->
<g id="node6" class="node">
<title>dir_d51187963f88a3ef0fe489eb9431bd26</title>
<g id="a_node6"><a xlink:href="dir_d51187963f88a3ef0fe489eb9431bd26.html" target="_top" xlink:title="action">
<polygon fill="#edf0f7" stroke="#404040" stroke-width="2" points="327.5,-90 280.5,-90 280.5,-71 327.5,-71 327.5,-90"/>
<text text-anchor="middle" x="304" y="-78" font-family="Helvetica,sans-Serif" font-size="10.00">action</text>
</a>
</g>
</g>
<!-- dir_d51187963f88a3ef0fe489eb9431bd26&#45;&gt;dir_28cb5a05dfb61a4b9ad44e468e6394a4 -->
<g id="edge2" class="edge">
<title>dir_d51187963f88a3ef0fe489eb9431bd26&#45;&gt;dir_28cb5a05dfb61a4b9ad44e468e6394a4</title>
<path fill="none" stroke="#63b8ff" d="M280.43,-75.92C239,-69.46 150.3,-54.86 66.18,-35.08"/>
<polygon fill="#63b8ff" stroke="#63b8ff" points="66.75,-31.62 56.21,-32.71 65.13,-38.43 66.75,-31.62"/>
<g id="a_edge2&#45;headlabel"><a xlink:href="dir_000002_000188.html" target="_top" xlink:title="3">
<text text-anchor="middle" x="70.9" y="-27.19" font-family="Helvetica,sans-Serif" font-size="10.00" fill="#63b8ff">3</text>
</a>
</g>
</g>
<!-- dir_d51187963f88a3ef0fe489eb9431bd26&#45;&gt;dir_838362f34bc8d8c3545343b0166aa672 -->
<g id="edge4" class="edge">
<title>dir_d51187963f88a3ef0fe489eb9431bd26&#45;&gt;dir_838362f34bc8d8c3545343b0166aa672</title>
<path fill="none" stroke="#63b8ff" d="M280.27,-73.21C246.7,-64.31 184.87,-47.93 144.1,-37.13"/>
<polygon fill="#63b8ff" stroke="#63b8ff" points="144.78,-33.68 134.21,-34.51 142.98,-40.45 144.78,-33.68"/>
<g id="a_edge4&#45;headlabel"><a xlink:href="dir_000002_000037.html" target="_top" xlink:title="4">
<text text-anchor="middle" x="148.98" y="-29.36" font-family="Helvetica,sans-Serif" font-size="10.00" fill="#63b8ff">4</text>
</a>
</g>
</g>
<!-- dir_d51187963f88a3ef0fe489eb9431bd26&#45;&gt;dir_9f8d33513cfc97e5f9ea6bf2671e5446 -->
<g id="edge6" class="edge">
<title>dir_d51187963f88a3ef0fe489eb9431bd26&#45;&gt;dir_9f8d33513cfc97e5f9ea6bf2671e5446</title>
<path fill="none" stroke="#63b8ff" d="M282.95,-70.98C261.59,-62.34 228.3,-48.87 203.94,-39.02"/>
<polygon fill="#63b8ff" stroke="#63b8ff" points="205.01,-35.68 194.43,-35.17 202.39,-42.17 205.01,-35.68"/>
<g id="a_edge6&#45;headlabel"><a xlink:href="dir_000002_000120.html" target="_top" xlink:title="5">
<text text-anchor="middle" x="209.41" y="-31.89" font-family="Helvetica,sans-Serif" font-size="10.00" fill="#63b8ff">5</text>
</a>
</g>
</g>
<!-- dir_d51187963f88a3ef0fe489eb9431bd26&#45;&gt;dir_a7b99681c56fba2abd28393cbbc3f22c -->
<g id="edge7" class="edge">
<title>dir_d51187963f88a3ef0fe489eb9431bd26&#45;&gt;dir_a7b99681c56fba2abd28393cbbc3f22c</title>
<path fill="none" stroke="#63b8ff" d="M292.75,-70.98C282.2,-63 266.2,-50.88 253.56,-41.31"/>
<polygon fill="#63b8ff" stroke="#63b8ff" points="255.54,-38.42 245.45,-35.17 251.31,-44 255.54,-38.42"/>
<g id="a_edge7&#45;headlabel"><a xlink:href="dir_000002_000178.html" target="_top" xlink:title="3">
<text text-anchor="middle" x="260.12" y="-35.82" font-family="Helvetica,sans-Serif" font-size="10.00" fill="#63b8ff">3</text>
</a>
</g>
</g>
<!-- dir_d51187963f88a3ef0fe489eb9431bd26&#45;&gt;dir_dd6c062645334da7e8440ac2e54ccb1d -->
<g id="edge8" class="edge">
<title>dir_d51187963f88a3ef0fe489eb9431bd26&#45;&gt;dir_dd6c062645334da7e8440ac2e54ccb1d</title>
<path fill="none" stroke="#63b8ff" d="M304,-70.75C304,-63.8 304,-53.85 304,-45.13"/>
<polygon fill="#63b8ff" stroke="#63b8ff" points="307.5,-45.09 304,-35.09 300.5,-45.09 307.5,-45.09"/>
<g id="a_edge8&#45;headlabel"><a xlink:href="dir_000002_000095.html" target="_top" xlink:title="1">
<text text-anchor="middle" x="310.34" y="-46.18" font-family="Helvetica,sans-Serif" font-size="10.00" fill="#63b8ff">1</text>
</a>
</g>
</g>
<!-- dir_0669efae56692bb73da75efb5ebbccdf -->
<g id="node7" class="node">
<title>dir_0669efae56692bb73da75efb5ebbccdf</title>
<g id="a_node7"><a xlink:href="dir_0669efae56692bb73da75efb5ebbccdf.html" target="_top" xlink:title="function">
<polygon fill="#edf0f7" stroke="red" stroke-dasharray="5,2" points="408,-35 352,-35 352,-16 408,-16 408,-35"/>
<text text-anchor="middle" x="380" y="-23" font-family="Helvetica,sans-Serif" font-size="10.00">function</text>
</a>
</g>
</g>
<!-- dir_d51187963f88a3ef0fe489eb9431bd26&#45;&gt;dir_0669efae56692bb73da75efb5ebbccdf -->
<g id="edge1" class="edge">
<title>dir_d51187963f88a3ef0fe489eb9431bd26&#45;&gt;dir_0669efae56692bb73da75efb5ebbccdf</title>
<path fill="none" stroke="#63b8ff" d="M316.21,-70.98C327.78,-62.92 345.38,-50.65 359.16,-41.03"/>
<polygon fill="#63b8ff" stroke="#63b8ff" points="361.37,-43.76 367.57,-35.17 357.36,-38.02 361.37,-43.76"/>
<g id="a_edge1&#45;headlabel"><a xlink:href="dir_000002_000082.html" target="_top" xlink:title="4">
<text text-anchor="middle" x="360.04" y="-45.65" font-family="Helvetica,sans-Serif" font-size="10.00" fill="#63b8ff">4</text>
</a>
</g>
</g>
<!-- dir_4535887b2cdca47e625f259d07db0112 -->
<g id="node8" class="node">
<title>dir_4535887b2cdca47e625f259d07db0112</title>
<g id="a_node8"><a xlink:href="dir_4535887b2cdca47e625f259d07db0112.html" target="_top" xlink:title="util">
<polygon fill="#edf0f7" stroke="#7f7f7f" points="458,-35 426,-35 426,-16 458,-16 458,-35"/>
<text text-anchor="middle" x="442" y="-23" font-family="Helvetica,sans-Serif" font-size="10.00">util</text>
</a>
</g>
</g>
<!-- dir_d51187963f88a3ef0fe489eb9431bd26&#45;&gt;dir_4535887b2cdca47e625f259d07db0112 -->
<g id="edge3" class="edge">
<title>dir_d51187963f88a3ef0fe489eb9431bd26&#45;&gt;dir_4535887b2cdca47e625f259d07db0112</title>
<path fill="none" stroke="#63b8ff" d="M326.17,-70.98C350.79,-61.53 390.47,-46.29 416.39,-36.34"/>
<polygon fill="#63b8ff" stroke="#63b8ff" points="417.84,-39.53 425.92,-32.68 415.33,-32.99 417.84,-39.53"/>
<g id="a_edge3&#45;headlabel"><a xlink:href="dir_000002_000185.html" target="_top" xlink:title="5">
<text text-anchor="middle" x="415.5" y="-40.97" font-family="Helvetica,sans-Serif" font-size="10.00" fill="#63b8ff">5</text>
</a>
</g>
</g>
<!-- dir_942cfae36a92b6b1c4b510e99e852d40 -->
<g id="node9" class="node">
<title>dir_942cfae36a92b6b1c4b510e99e852d40</title>
<g id="a_node9"><a xlink:href="dir_942cfae36a92b6b1c4b510e99e852d40.html" target="_top" xlink:title="vocab">
<polygon fill="#edf0f7" stroke="red" stroke-dasharray="5,2" points="522,-35 476,-35 476,-16 522,-16 522,-35"/>
<text text-anchor="middle" x="499" y="-23" font-family="Helvetica,sans-Serif" font-size="10.00">vocab</text>
</a>
</g>
</g>
<!-- dir_d51187963f88a3ef0fe489eb9431bd26&#45;&gt;dir_942cfae36a92b6b1c4b510e99e852d40 -->
<g id="edge5" class="edge">
<title>dir_d51187963f88a3ef0fe489eb9431bd26&#45;&gt;dir_942cfae36a92b6b1c4b510e99e852d40</title>
<path fill="none" stroke="#63b8ff" d="M327.52,-73.11C362.02,-63.73 426.49,-46.21 465.8,-35.52"/>
<polygon fill="#63b8ff" stroke="#63b8ff" points="466.97,-38.83 475.7,-32.83 465.13,-32.08 466.97,-38.83"/>
<g id="a_edge5&#45;headlabel"><a xlink:href="dir_000002_000189.html" target="_top" xlink:title="3">
<text text-anchor="middle" x="464.24" y="-40.02" font-family="Helvetica,sans-Serif" font-size="10.00" fill="#63b8ff">3</text>
</a>
</g>
</g>
<!-- dir_f555f996eeee1ebe901dc71e0c5de8ff -->
<g id="node10" class="node">
<title>dir_f555f996eeee1ebe901dc71e0c5de8ff</title>
<g id="a_node10"><a xlink:href="dir_f555f996eeee1ebe901dc71e0c5de8ff.html" target="_top" xlink:title="meta">
<polygon fill="#edf0f7" stroke="#7f7f7f" points="582,-35 540,-35 540,-16 582,-16 582,-35"/>
<text text-anchor="middle" x="561" y="-23" font-family="Helvetica,sans-Serif" font-size="10.00">meta</text>
</a>
</g>
</g>
<!-- dir_d51187963f88a3ef0fe489eb9431bd26&#45;&gt;dir_f555f996eeee1ebe901dc71e0c5de8ff -->
<g id="edge9" class="edge">
<title>dir_d51187963f88a3ef0fe489eb9431bd26&#45;&gt;dir_f555f996eeee1ebe901dc71e0c5de8ff</title>
<path fill="none" stroke="#63b8ff" d="M327.67,-75.52C367.4,-68.71 450.21,-53.9 529.59,-35.18"/>
<polygon fill="#63b8ff" stroke="#63b8ff" points="530.84,-38.48 539.75,-32.75 529.21,-31.67 530.84,-38.48"/>
<g id="a_edge9&#45;headlabel"><a xlink:href="dir_000002_000122.html" target="_top" xlink:title="6">
<text text-anchor="middle" x="528" y="-39.57" font-family="Helvetica,sans-Serif" font-size="10.00" fill="#63b8ff">6</text>
</a>
</g>
</g>
</g>
</svg>
