<?xml version="1.0" encoding="UTF-8" standalone="no"?>
<!DOCTYPE svg PUBLIC "-//W3C//DTD SVG 1.1//EN"
 "http://www.w3.org/Graphics/SVG/1.1/DTD/svg11.dtd">
<!-- Generated by graphviz version 2.43.0 (0)
 -->
<!-- Title: libs/di/include/di/function/container Pages: 1 -->
<svg width="543pt" height="133pt"
 viewBox="0.00 0.00 543.00 133.00" xmlns="http://www.w3.org/2000/svg" xmlns:xlink="http://www.w3.org/1999/xlink">
<g id="graph0" class="graph" transform="scale(1 1) rotate(0) translate(4 129)">
<title>libs/di/include/di/function/container</title>
<g id="clust1" class="cluster">
<title>clusterdir_0669efae56692bb73da75efb5ebbccdf</title>
<g id="a_clust1"><a xlink:href="dir_0669efae56692bb73da75efb5ebbccdf.html" target="_top" xlink:title="function">
<polygon fill="#edf0f7" stroke="#7f7f7f" stroke-dasharray="5,2" points="8,-8 8,-117 86,-117 86,-8 8,-8"/>
<text text-anchor="middle" x="47" y="-105" font-family="Helvetica,sans-Serif" font-size="10.00">function</text>
</a>
</g>
</g>
<!-- dir_f09ada16cafd282b577fa641a584e35b -->
<g id="node1" class="node">
<title>dir_f09ada16cafd282b577fa641a584e35b</title>
<g id="a_node1"><a xlink:href="dir_f09ada16cafd282b577fa641a584e35b.html" target="_top" xlink:title="monad">
<polygon fill="#a2b4d6" stroke="#404040" points="72,-35 22,-35 22,-16 72,-16 72,-35"/>
<text text-anchor="middle" x="47" y="-23" font-family="Helvetica,sans-Serif" font-size="10.00">monad</text>
</a>
</g>
</g>
<!-- dir_245820651058c18a4fe2211d255e5f91 -->
<g id="node2" class="node">
<title>dir_245820651058c18a4fe2211d255e5f91</title>
<g id="a_node2"><a xlink:href="dir_245820651058c18a4fe2211d255e5f91.html" target="_top" xlink:title="container">
<polygon fill="#edf0f7" stroke="#404040" stroke-width="2" points="78,-90 16,-90 16,-71 78,-71 78,-90"/>
<text text-anchor="middle" x="47" y="-78" font-family="Helvetica,sans-Serif" font-size="10.00">container</text>
</a>
</g>
</g>
<!-- dir_245820651058c18a4fe2211d255e5f91&#45;&gt;dir_f09ada16cafd282b577fa641a584e35b -->
<g id="edge7" class="edge">
<title>dir_245820651058c18a4fe2211d255e5f91&#45;&gt;dir_f09ada16cafd282b577fa641a584e35b</title>
<path fill="none" stroke="#63b8ff" d="M47,-70.75C47,-63.8 47,-53.85 47,-45.13"/>
<polygon fill="#63b8ff" stroke="#63b8ff" points="50.5,-45.09 47,-35.09 43.5,-45.09 50.5,-45.09"/>
<g id="a_edge7&#45;headlabel"><a xlink:href="dir_000047_000128.html" target="_top" xlink:title="1">
<text text-anchor="middle" x="53.34" y="-46.18" font-family="Helvetica,sans-Serif" font-size="10.00" fill="#63b8ff">1</text>
</a>
</g>
</g>
<!-- dir_30ecaf38acae77be14fb9173f98f8612 -->
<g id="node3" class="node">
<title>dir_30ecaf38acae77be14fb9173f98f8612</title>
<g id="a_node3"><a xlink:href="dir_30ecaf38acae77be14fb9173f98f8612.html" target="_top" xlink:title="types">
<polygon fill="#edf0f7" stroke="#7f7f7f" points="138,-35 94,-35 94,-16 138,-16 138,-35"/>
<text text-anchor="middle" x="116" y="-23" font-family="Helvetica,sans-Serif" font-size="10.00">types</text>
</a>
</g>
</g>
<!-- dir_245820651058c18a4fe2211d255e5f91&#45;&gt;dir_30ecaf38acae77be14fb9173f98f8612 -->
<g id="edge1" class="edge">
<title>dir_245820651058c18a4fe2211d255e5f91&#45;&gt;dir_30ecaf38acae77be14fb9173f98f8612</title>
<path fill="none" stroke="#63b8ff" d="M58.09,-70.98C68.49,-63 84.26,-50.88 96.72,-41.31"/>
<polygon fill="#63b8ff" stroke="#63b8ff" points="98.91,-44.04 104.71,-35.17 94.65,-38.49 98.91,-44.04"/>
<g id="a_edge1&#45;headlabel"><a xlink:href="dir_000047_000180.html" target="_top" xlink:title="2">
<text text-anchor="middle" x="97.79" y="-45.98" font-family="Helvetica,sans-Serif" font-size="10.00" fill="#63b8ff">2</text>
</a>
</g>
</g>
<!-- dir_4535887b2cdca47e625f259d07db0112 -->
<g id="node4" class="node">
<title>dir_4535887b2cdca47e625f259d07db0112</title>
<g id="a_node4"><a xlink:href="dir_4535887b2cdca47e625f259d07db0112.html" target="_top" xlink:title="util">
<polygon fill="#edf0f7" stroke="#7f7f7f" points="188,-35 156,-35 156,-16 188,-16 188,-35"/>
<text text-anchor="middle" x="172" y="-23" font-family="Helvetica,sans-Serif" font-size="10.00">util</text>
</a>
</g>
</g>
<!-- dir_245820651058c18a4fe2211d255e5f91&#45;&gt;dir_4535887b2cdca47e625f259d07db0112 -->
<g id="edge2" class="edge">
<title>dir_245820651058c18a4fe2211d255e5f91&#45;&gt;dir_4535887b2cdca47e625f259d07db0112</title>
<path fill="none" stroke="#63b8ff" d="M67.08,-70.98C88.7,-61.82 123.14,-47.22 146.62,-37.26"/>
<polygon fill="#63b8ff" stroke="#63b8ff" points="148.1,-40.44 155.94,-33.31 145.37,-33.99 148.1,-40.44"/>
<g id="a_edge2&#45;headlabel"><a xlink:href="dir_000047_000185.html" target="_top" xlink:title="7">
<text text-anchor="middle" x="145.9" y="-41.95" font-family="Helvetica,sans-Serif" font-size="10.00" fill="#63b8ff">7</text>
</a>
</g>
</g>
<!-- dir_521de572ae4fe2915cc70a876c52f5b7 -->
<g id="node5" class="node">
<title>dir_521de572ae4fe2915cc70a876c52f5b7</title>
<g id="a_node5"><a xlink:href="dir_521de572ae4fe2915cc70a876c52f5b7.html" target="_top" xlink:title="container">
<polygon fill="#edf0f7" stroke="red" stroke-dasharray="5,2" points="268,-35 206,-35 206,-16 268,-16 268,-35"/>
<text text-anchor="middle" x="237" y="-23" font-family="Helvetica,sans-Serif" font-size="10.00">container</text>
</a>
</g>
</g>
<!-- dir_245820651058c18a4fe2211d255e5f91&#45;&gt;dir_521de572ae4fe2915cc70a876c52f5b7 -->
<g id="edge3" class="edge">
<title>dir_245820651058c18a4fe2211d255e5f91&#45;&gt;dir_521de572ae4fe2915cc70a876c52f5b7</title>
<path fill="none" stroke="#63b8ff" d="M77.53,-70.98C109.7,-62.01 160.56,-47.82 196.17,-37.89"/>
<polygon fill="#63b8ff" stroke="#63b8ff" points="197.54,-41.14 206.23,-35.08 195.66,-34.4 197.54,-41.14"/>
<g id="a_edge3&#45;headlabel"><a xlink:href="dir_000047_000046.html" target="_top" xlink:title="3">
<text text-anchor="middle" x="194.84" y="-42.34" font-family="Helvetica,sans-Serif" font-size="10.00" fill="#63b8ff">3</text>
</a>
</g>
</g>
<!-- dir_942cfae36a92b6b1c4b510e99e852d40 -->
<g id="node6" class="node">
<title>dir_942cfae36a92b6b1c4b510e99e852d40</title>
<g id="a_node6"><a xlink:href="dir_942cfae36a92b6b1c4b510e99e852d40.html" target="_top" xlink:title="vocab">
<polygon fill="#edf0f7" stroke="red" stroke-dasharray="5,2" points="332,-35 286,-35 286,-16 332,-16 332,-35"/>
<text text-anchor="middle" x="309" y="-23" font-family="Helvetica,sans-Serif" font-size="10.00">vocab</text>
</a>
</g>
</g>
<!-- dir_245820651058c18a4fe2211d255e5f91&#45;&gt;dir_942cfae36a92b6b1c4b510e99e852d40 -->
<g id="edge4" class="edge">
<title>dir_245820651058c18a4fe2211d255e5f91&#45;&gt;dir_942cfae36a92b6b1c4b510e99e852d40</title>
<path fill="none" stroke="#63b8ff" d="M78.02,-74.19C120.52,-66.78 199.42,-52.46 276.15,-35.07"/>
<polygon fill="#63b8ff" stroke="#63b8ff" points="277.01,-38.46 285.97,-32.82 275.45,-31.64 277.01,-38.46"/>
<g id="a_edge4&#45;headlabel"><a xlink:href="dir_000047_000189.html" target="_top" xlink:title="4">
<text text-anchor="middle" x="274.14" y="-39.53" font-family="Helvetica,sans-Serif" font-size="10.00" fill="#63b8ff">4</text>
</a>
</g>
</g>
<!-- dir_a60d4453151dca6bdd8e5fcc350e379b -->
<g id="node7" class="node">
<title>dir_a60d4453151dca6bdd8e5fcc350e379b</title>
<g id="a_node7"><a xlink:href="dir_a60d4453151dca6bdd8e5fcc350e379b.html" target="_top" xlink:title="assert">
<polygon fill="#edf0f7" stroke="#7f7f7f" points="397.5,-35 350.5,-35 350.5,-16 397.5,-16 397.5,-35"/>
<text text-anchor="middle" x="374" y="-23" font-family="Helvetica,sans-Serif" font-size="10.00">assert</text>
</a>
</g>
</g>
<!-- dir_245820651058c18a4fe2211d255e5f91&#45;&gt;dir_a60d4453151dca6bdd8e5fcc350e379b -->
<g id="edge5" class="edge">
<title>dir_245820651058c18a4fe2211d255e5f91&#45;&gt;dir_a60d4453151dca6bdd8e5fcc350e379b</title>
<path fill="none" stroke="#63b8ff" d="M78.08,-75.85C130.24,-69.51 238.84,-55.31 340.46,-34.91"/>
<polygon fill="#63b8ff" stroke="#63b8ff" points="341.17,-38.34 350.27,-32.92 339.78,-31.48 341.17,-38.34"/>
<g id="a_edge5&#45;headlabel"><a xlink:href="dir_000047_000018.html" target="_top" xlink:title="2">
<text text-anchor="middle" x="338.21" y="-39.34" font-family="Helvetica,sans-Serif" font-size="10.00" fill="#63b8ff">2</text>
</a>
</g>
</g>
<!-- dir_aaf67126bd5deefc4d96704f76f22cc2 -->
<g id="node8" class="node">
<title>dir_aaf67126bd5deefc4d96704f76f22cc2</title>
<g id="a_node8"><a xlink:href="dir_aaf67126bd5deefc4d96704f76f22cc2.html" target="_top" xlink:title="platform">
<polygon fill="#edf0f7" stroke="#7f7f7f" points="474.5,-35 415.5,-35 415.5,-16 474.5,-16 474.5,-35"/>
<text text-anchor="middle" x="445" y="-23" font-family="Helvetica,sans-Serif" font-size="10.00">platform</text>
</a>
</g>
</g>
<!-- dir_245820651058c18a4fe2211d255e5f91&#45;&gt;dir_aaf67126bd5deefc4d96704f76f22cc2 -->
<g id="edge6" class="edge">
<title>dir_245820651058c18a4fe2211d255e5f91&#45;&gt;dir_aaf67126bd5deefc4d96704f76f22cc2</title>
<path fill="none" stroke="#63b8ff" d="M78.45,-76.65C139.55,-70.89 278.71,-56.68 404.96,-35.22"/>
<polygon fill="#63b8ff" stroke="#63b8ff" points="405.92,-38.6 415.18,-33.46 404.74,-31.7 405.92,-38.6"/>
<g id="a_edge6&#45;headlabel"><a xlink:href="dir_000047_000135.html" target="_top" xlink:title="1">
<text text-anchor="middle" x="402.86" y="-39.51" font-family="Helvetica,sans-Serif" font-size="10.00" fill="#63b8ff">1</text>
</a>
</g>
</g>
<!-- dir_f555f996eeee1ebe901dc71e0c5de8ff -->
<g id="node9" class="node">
<title>dir_f555f996eeee1ebe901dc71e0c5de8ff</title>
<g id="a_node9"><a xlink:href="dir_f555f996eeee1ebe901dc71e0c5de8ff.html" target="_top" xlink:title="meta">
<polygon fill="#edf0f7" stroke="#7f7f7f" points="535,-35 493,-35 493,-16 535,-16 535,-35"/>
<text text-anchor="middle" x="514" y="-23" font-family="Helvetica,sans-Serif" font-size="10.00">meta</text>
</a>
</g>
</g>
<!-- dir_245820651058c18a4fe2211d255e5f91&#45;&gt;dir_f555f996eeee1ebe901dc71e0c5de8ff -->
<g id="edge8" class="edge">
<title>dir_245820651058c18a4fe2211d255e5f91&#45;&gt;dir_f555f996eeee1ebe901dc71e0c5de8ff</title>
<path fill="none" stroke="#63b8ff" d="M78.27,-78.19C148.82,-74.84 325.8,-64.2 482.51,-34.95"/>
<polygon fill="#63b8ff" stroke="#63b8ff" points="483.63,-38.3 492.8,-33 482.33,-31.43 483.63,-38.3"/>
<g id="a_edge8&#45;headlabel"><a xlink:href="dir_000047_000122.html" target="_top" xlink:title="8">
<text text-anchor="middle" x="480.63" y="-39.26" font-family="Helvetica,sans-Serif" font-size="10.00" fill="#63b8ff">8</text>
</a>
</g>
</g>
</g>
</svg>
