<?xml version="1.0" encoding="UTF-8" standalone="no"?>
<!DOCTYPE svg PUBLIC "-//W3C//DTD SVG 1.1//EN"
 "http://www.w3.org/Graphics/SVG/1.1/DTD/svg11.dtd">
<!-- Generated by graphviz version 2.43.0 (0)
 -->
<!-- Title: libs/di/include/di/format/concepts Pages: 1 -->
<svg width="194pt" height="117pt"
 viewBox="0.00 0.00 194.00 117.00" xmlns="http://www.w3.org/2000/svg" xmlns:xlink="http://www.w3.org/1999/xlink">
<g id="graph0" class="graph" transform="scale(1 1) rotate(0) translate(4 113)">
<title>libs/di/include/di/format/concepts</title>
<g id="clust1" class="cluster">
<title>clusterdir_e41b746b2bc627b26c4c637af42fb69a</title>
<g id="a_clust1"><a xlink:href="dir_e41b746b2bc627b26c4c637af42fb69a.html" target="_top" xlink:title="format">
<polygon fill="#edf0f7" stroke="#7f7f7f" stroke-dasharray="5,2" points="65,-47 65,-101 141,-101 141,-47 65,-47"/>
<text text-anchor="middle" x="103" y="-89" font-family="Helvetica,sans-Serif" font-size="10.00">format</text>
</a>
</g>
</g>
<!-- dir_e6fc299be1ce7cfcb6bece793d7977d6 -->
<g id="node1" class="node">
<title>dir_e6fc299be1ce7cfcb6bece793d7977d6</title>
<g id="a_node1"><a xlink:href="dir_e6fc299be1ce7cfcb6bece793d7977d6.html" target="_top" xlink:title="concepts">
<polygon fill="#edf0f7" stroke="#404040" stroke-width="2" points="133,-74 73,-74 73,-55 133,-55 133,-74"/>
<text text-anchor="middle" x="103" y="-62" font-family="Helvetica,sans-Serif" font-size="10.00">concepts</text>
</a>
</g>
</g>
<!-- dir_521de572ae4fe2915cc70a876c52f5b7 -->
<g id="node2" class="node">
<title>dir_521de572ae4fe2915cc70a876c52f5b7</title>
<g id="a_node2"><a xlink:href="dir_521de572ae4fe2915cc70a876c52f5b7.html" target="_top" xlink:title="container">
<polygon fill="#edf0f7" stroke="red" stroke-dasharray="5,2" points="62,-19 0,-19 0,0 62,0 62,-19"/>
<text text-anchor="middle" x="31" y="-7" font-family="Helvetica,sans-Serif" font-size="10.00">container</text>
</a>
</g>
</g>
<!-- dir_e6fc299be1ce7cfcb6bece793d7977d6&#45;&gt;dir_521de572ae4fe2915cc70a876c52f5b7 -->
<g id="edge1" class="edge">
<title>dir_e6fc299be1ce7cfcb6bece793d7977d6&#45;&gt;dir_521de572ae4fe2915cc70a876c52f5b7</title>
<path fill="none" stroke="#63b8ff" d="M91.43,-54.98C80.58,-47 64.12,-34.88 51.12,-25.31"/>
<polygon fill="#63b8ff" stroke="#63b8ff" points="52.91,-22.28 42.78,-19.17 48.76,-27.92 52.91,-22.28"/>
<g id="a_edge1&#45;headlabel"><a xlink:href="dir_000039_000046.html" target="_top" xlink:title="2">
<text text-anchor="middle" x="57.48" y="-19.62" font-family="Helvetica,sans-Serif" font-size="10.00" fill="#63b8ff">2</text>
</a>
</g>
</g>
<!-- dir_942cfae36a92b6b1c4b510e99e852d40 -->
<g id="node3" class="node">
<title>dir_942cfae36a92b6b1c4b510e99e852d40</title>
<g id="a_node3"><a xlink:href="dir_942cfae36a92b6b1c4b510e99e852d40.html" target="_top" xlink:title="vocab">
<polygon fill="#edf0f7" stroke="red" stroke-dasharray="5,2" points="126,-19 80,-19 80,0 126,0 126,-19"/>
<text text-anchor="middle" x="103" y="-7" font-family="Helvetica,sans-Serif" font-size="10.00">vocab</text>
</a>
</g>
</g>
<!-- dir_e6fc299be1ce7cfcb6bece793d7977d6&#45;&gt;dir_942cfae36a92b6b1c4b510e99e852d40 -->
<g id="edge2" class="edge">
<title>dir_e6fc299be1ce7cfcb6bece793d7977d6&#45;&gt;dir_942cfae36a92b6b1c4b510e99e852d40</title>
<path fill="none" stroke="#63b8ff" d="M103,-54.75C103,-47.8 103,-37.85 103,-29.13"/>
<polygon fill="#63b8ff" stroke="#63b8ff" points="106.5,-29.09 103,-19.09 99.5,-29.09 106.5,-29.09"/>
<g id="a_edge2&#45;headlabel"><a xlink:href="dir_000039_000189.html" target="_top" xlink:title="1">
<text text-anchor="middle" x="109.34" y="-30.18" font-family="Helvetica,sans-Serif" font-size="10.00" fill="#63b8ff">1</text>
</a>
</g>
</g>
<!-- dir_f555f996eeee1ebe901dc71e0c5de8ff -->
<g id="node4" class="node">
<title>dir_f555f996eeee1ebe901dc71e0c5de8ff</title>
<g id="a_node4"><a xlink:href="dir_f555f996eeee1ebe901dc71e0c5de8ff.html" target="_top" xlink:title="meta">
<polygon fill="#edf0f7" stroke="#7f7f7f" points="186,-19 144,-19 144,0 186,0 186,-19"/>
<text text-anchor="middle" x="165" y="-7" font-family="Helvetica,sans-Serif" font-size="10.00">meta</text>
</a>
</g>
</g>
<!-- dir_e6fc299be1ce7cfcb6bece793d7977d6&#45;&gt;dir_f555f996eeee1ebe901dc71e0c5de8ff -->
<g id="edge3" class="edge">
<title>dir_e6fc299be1ce7cfcb6bece793d7977d6&#45;&gt;dir_f555f996eeee1ebe901dc71e0c5de8ff</title>
<path fill="none" stroke="#63b8ff" d="M112.96,-54.98C122.13,-47.15 135.94,-35.34 147.03,-25.86"/>
<polygon fill="#63b8ff" stroke="#63b8ff" points="149.53,-28.33 154.86,-19.17 144.98,-23.01 149.53,-28.33"/>
<g id="a_edge3&#45;headlabel"><a xlink:href="dir_000039_000122.html" target="_top" xlink:title="1">
<text text-anchor="middle" x="148.64" y="-30.32" font-family="Helvetica,sans-Serif" font-size="10.00" fill="#63b8ff">1</text>
</a>
</g>
</g>
</g>
</svg>
