<?xml version="1.0" encoding="UTF-8" standalone="no"?>
<!DOCTYPE svg PUBLIC "-//W3C//DTD SVG 1.1//EN"
 "http://www.w3.org/Graphics/SVG/1.1/DTD/svg11.dtd">
<!-- Generated by graphviz version 2.43.0 (0)
 -->
<!-- Title: libs/di/include/di/container/hash/node Pages: 1 -->
<svg width="1166pt" height="117pt"
 viewBox="0.00 0.00 1166.00 117.00" xmlns="http://www.w3.org/2000/svg" xmlns:xlink="http://www.w3.org/1999/xlink">
<g id="graph0" class="graph" transform="scale(1 1) rotate(0) translate(4 113)">
<title>libs/di/include/di/container/hash/node</title>
<g id="clust1" class="cluster">
<title>clusterdir_289c3fc9695217b968c29372e2a5940c</title>
<g id="a_clust1"><a xlink:href="dir_289c3fc9695217b968c29372e2a5940c.html" target="_top" xlink:title="hash">
<polygon fill="#edf0f7" stroke="#7f7f7f" stroke-dasharray="5,2" points="561,-47 561,-101 619,-101 619,-47 561,-47"/>
<text text-anchor="middle" x="590" y="-89" font-family="Helvetica,sans-Serif" font-size="10.00">hash</text>
</a>
</g>
</g>
<!-- dir_08634ce485991c3177b7abdfcbda00d8 -->
<g id="node1" class="node">
<title>dir_08634ce485991c3177b7abdfcbda00d8</title>
<g id="a_node1"><a xlink:href="dir_08634ce485991c3177b7abdfcbda00d8.html" target="_top" xlink:title="node">
<polygon fill="#edf0f7" stroke="#404040" stroke-width="2" points="610.5,-74 569.5,-74 569.5,-55 610.5,-55 610.5,-74"/>
<text text-anchor="middle" x="590" y="-62" font-family="Helvetica,sans-Serif" font-size="10.00">node</text>
</a>
</g>
</g>
<!-- dir_0669efae56692bb73da75efb5ebbccdf -->
<g id="node2" class="node">
<title>dir_0669efae56692bb73da75efb5ebbccdf</title>
<g id="a_node2"><a xlink:href="dir_0669efae56692bb73da75efb5ebbccdf.html" target="_top" xlink:title="function">
<polygon fill="#edf0f7" stroke="red" stroke-dasharray="5,2" points="56,-19 0,-19 0,0 56,0 56,-19"/>
<text text-anchor="middle" x="28" y="-7" font-family="Helvetica,sans-Serif" font-size="10.00">function</text>
</a>
</g>
</g>
<!-- dir_08634ce485991c3177b7abdfcbda00d8&#45;&gt;dir_0669efae56692bb73da75efb5ebbccdf -->
<g id="edge1" class="edge">
<title>dir_08634ce485991c3177b7abdfcbda00d8&#45;&gt;dir_0669efae56692bb73da75efb5ebbccdf</title>
<path fill="none" stroke="#63b8ff" d="M569.36,-62.8C499.82,-60.22 267.64,-49.82 66.37,-18.99"/>
<polygon fill="#63b8ff" stroke="#63b8ff" points="66.62,-15.49 56.2,-17.41 65.55,-22.4 66.62,-15.49"/>
<g id="a_edge1&#45;headlabel"><a xlink:href="dir_000129_000082.html" target="_top" xlink:title="10">
<text text-anchor="middle" x="70.61" y="-10.73" font-family="Helvetica,sans-Serif" font-size="10.00" fill="#63b8ff">10</text>
</a>
</g>
</g>
<!-- dir_093cb0cf41c3d9bb25543a4e1702223c -->
<g id="node3" class="node">
<title>dir_093cb0cf41c3d9bb25543a4e1702223c</title>
<g id="a_node3"><a xlink:href="dir_093cb0cf41c3d9bb25543a4e1702223c.html" target="_top" xlink:title="iterator">
<polygon fill="#edf0f7" stroke="#7f7f7f" points="127.5,-19 74.5,-19 74.5,0 127.5,0 127.5,-19"/>
<text text-anchor="middle" x="101" y="-7" font-family="Helvetica,sans-Serif" font-size="10.00">iterator</text>
</a>
</g>
</g>
<!-- dir_08634ce485991c3177b7abdfcbda00d8&#45;&gt;dir_093cb0cf41c3d9bb25543a4e1702223c -->
<g id="edge2" class="edge">
<title>dir_08634ce485991c3177b7abdfcbda00d8&#45;&gt;dir_093cb0cf41c3d9bb25543a4e1702223c</title>
<path fill="none" stroke="#63b8ff" d="M569.1,-62.45C505.7,-59.04 309.91,-46.97 137.66,-18.87"/>
<polygon fill="#63b8ff" stroke="#63b8ff" points="138.09,-15.39 127.66,-17.21 136.95,-22.3 138.09,-15.39"/>
<g id="a_edge2&#45;headlabel"><a xlink:href="dir_000129_000108.html" target="_top" xlink:title="2">
<text text-anchor="middle" x="142.1" y="-10.68" font-family="Helvetica,sans-Serif" font-size="10.00" fill="#63b8ff">2</text>
</a>
</g>
</g>
<!-- dir_28cb5a05dfb61a4b9ad44e468e6394a4 -->
<g id="node4" class="node">
<title>dir_28cb5a05dfb61a4b9ad44e468e6394a4</title>
<g id="a_node4"><a xlink:href="dir_28cb5a05dfb61a4b9ad44e468e6394a4.html" target="_top" xlink:title="view">
<polygon fill="#edf0f7" stroke="#7f7f7f" points="186,-19 146,-19 146,0 186,0 186,-19"/>
<text text-anchor="middle" x="166" y="-7" font-family="Helvetica,sans-Serif" font-size="10.00">view</text>
</a>
</g>
</g>
<!-- dir_08634ce485991c3177b7abdfcbda00d8&#45;&gt;dir_28cb5a05dfb61a4b9ad44e468e6394a4 -->
<g id="edge3" class="edge">
<title>dir_08634ce485991c3177b7abdfcbda00d8&#45;&gt;dir_28cb5a05dfb61a4b9ad44e468e6394a4</title>
<path fill="none" stroke="#63b8ff" d="M569.24,-62.43C511.52,-59.19 344.14,-47.98 196.33,-18.93"/>
<polygon fill="#63b8ff" stroke="#63b8ff" points="196.66,-15.43 186.17,-16.9 195.29,-22.29 196.66,-15.43"/>
<g id="a_edge3&#45;headlabel"><a xlink:href="dir_000129_000188.html" target="_top" xlink:title="4">
<text text-anchor="middle" x="200.74" y="-10.85" font-family="Helvetica,sans-Serif" font-size="10.00" fill="#63b8ff">4</text>
</a>
</g>
</g>
<!-- dir_30ecaf38acae77be14fb9173f98f8612 -->
<g id="node5" class="node">
<title>dir_30ecaf38acae77be14fb9173f98f8612</title>
<g id="a_node5"><a xlink:href="dir_30ecaf38acae77be14fb9173f98f8612.html" target="_top" xlink:title="types">
<polygon fill="#edf0f7" stroke="#7f7f7f" points="248,-19 204,-19 204,0 248,0 248,-19"/>
<text text-anchor="middle" x="226" y="-7" font-family="Helvetica,sans-Serif" font-size="10.00">types</text>
</a>
</g>
</g>
<!-- dir_08634ce485991c3177b7abdfcbda00d8&#45;&gt;dir_30ecaf38acae77be14fb9173f98f8612 -->
<g id="edge4" class="edge">
<title>dir_08634ce485991c3177b7abdfcbda00d8&#45;&gt;dir_30ecaf38acae77be14fb9173f98f8612</title>
<path fill="none" stroke="#63b8ff" d="M569.18,-61.7C517.92,-57.07 381.35,-43.47 258.24,-19"/>
<polygon fill="#63b8ff" stroke="#63b8ff" points="258.76,-15.54 248.26,-16.99 257.38,-22.4 258.76,-15.54"/>
<g id="a_edge4&#45;headlabel"><a xlink:href="dir_000129_000180.html" target="_top" xlink:title="1">
<text text-anchor="middle" x="262.84" y="-10.97" font-family="Helvetica,sans-Serif" font-size="10.00" fill="#63b8ff">1</text>
</a>
</g>
</g>
<!-- dir_4535887b2cdca47e625f259d07db0112 -->
<g id="node6" class="node">
<title>dir_4535887b2cdca47e625f259d07db0112</title>
<g id="a_node6"><a xlink:href="dir_4535887b2cdca47e625f259d07db0112.html" target="_top" xlink:title="util">
<polygon fill="#edf0f7" stroke="#7f7f7f" points="298,-19 266,-19 266,0 298,0 298,-19"/>
<text text-anchor="middle" x="282" y="-7" font-family="Helvetica,sans-Serif" font-size="10.00">util</text>
</a>
</g>
</g>
<!-- dir_08634ce485991c3177b7abdfcbda00d8&#45;&gt;dir_4535887b2cdca47e625f259d07db0112 -->
<g id="edge5" class="edge">
<title>dir_08634ce485991c3177b7abdfcbda00d8&#45;&gt;dir_4535887b2cdca47e625f259d07db0112</title>
<path fill="none" stroke="#63b8ff" d="M569.16,-61.46C523.46,-56.74 410.91,-43.67 307.95,-18.84"/>
<polygon fill="#63b8ff" stroke="#63b8ff" points="308.56,-15.39 298.02,-16.4 306.89,-22.18 308.56,-15.39"/>
<g id="a_edge5&#45;headlabel"><a xlink:href="dir_000129_000185.html" target="_top" xlink:title="6">
<text text-anchor="middle" x="312.73" y="-10.99" font-family="Helvetica,sans-Serif" font-size="10.00" fill="#63b8ff">6</text>
</a>
</g>
</g>
<!-- dir_60528a66b99dd07a1313b3c263e646ab -->
<g id="node7" class="node">
<title>dir_60528a66b99dd07a1313b3c263e646ab</title>
<g id="a_node7"><a xlink:href="dir_60528a66b99dd07a1313b3c263e646ab.html" target="_top" xlink:title="algorithm">
<polygon fill="#edf0f7" stroke="#7f7f7f" points="380,-19 316,-19 316,0 380,0 380,-19"/>
<text text-anchor="middle" x="348" y="-7" font-family="Helvetica,sans-Serif" font-size="10.00">algorithm</text>
</a>
</g>
</g>
<!-- dir_08634ce485991c3177b7abdfcbda00d8&#45;&gt;dir_60528a66b99dd07a1313b3c263e646ab -->
<g id="edge6" class="edge">
<title>dir_08634ce485991c3177b7abdfcbda00d8&#45;&gt;dir_60528a66b99dd07a1313b3c263e646ab</title>
<path fill="none" stroke="#63b8ff" d="M569.37,-58.98C529.83,-50.32 442.66,-31.23 390.28,-19.76"/>
<polygon fill="#63b8ff" stroke="#63b8ff" points="390.81,-16.29 380.29,-17.57 389.31,-23.13 390.81,-16.29"/>
<g id="a_edge6&#45;headlabel"><a xlink:href="dir_000129_000003.html" target="_top" xlink:title="2">
<text text-anchor="middle" x="394.92" y="-11.79" font-family="Helvetica,sans-Serif" font-size="10.00" fill="#63b8ff">2</text>
</a>
</g>
</g>
<!-- dir_75ced0d5626770d74ec0ab0f9ebe51e3 -->
<g id="node8" class="node">
<title>dir_75ced0d5626770d74ec0ab0f9ebe51e3</title>
<g id="a_node8"><a xlink:href="dir_75ced0d5626770d74ec0ab0f9ebe51e3.html" target="_top" xlink:title="allocator">
<polygon fill="#edf0f7" stroke="#7f7f7f" points="457.5,-19 398.5,-19 398.5,0 457.5,0 457.5,-19"/>
<text text-anchor="middle" x="428" y="-7" font-family="Helvetica,sans-Serif" font-size="10.00">allocator</text>
</a>
</g>
</g>
<!-- dir_08634ce485991c3177b7abdfcbda00d8&#45;&gt;dir_75ced0d5626770d74ec0ab0f9ebe51e3 -->
<g id="edge7" class="edge">
<title>dir_08634ce485991c3177b7abdfcbda00d8&#45;&gt;dir_75ced0d5626770d74ec0ab0f9ebe51e3</title>
<path fill="none" stroke="#63b8ff" d="M569.48,-56.79C542.94,-48.1 496.27,-32.83 463.82,-22.22"/>
<polygon fill="#63b8ff" stroke="#63b8ff" points="464.83,-18.87 454.24,-19.09 462.66,-25.52 464.83,-18.87"/>
<g id="a_edge7&#45;headlabel"><a xlink:href="dir_000129_000005.html" target="_top" xlink:title="16">
<text text-anchor="middle" x="469.13" y="-14.79" font-family="Helvetica,sans-Serif" font-size="10.00" fill="#63b8ff">16</text>
</a>
</g>
</g>
<!-- dir_838362f34bc8d8c3545343b0166aa672 -->
<g id="node9" class="node">
<title>dir_838362f34bc8d8c3545343b0166aa672</title>
<g id="a_node9"><a xlink:href="dir_838362f34bc8d8c3545343b0166aa672.html" target="_top" xlink:title="concepts">
<polygon fill="#edf0f7" stroke="#7f7f7f" points="536,-19 476,-19 476,0 536,0 536,-19"/>
<text text-anchor="middle" x="506" y="-7" font-family="Helvetica,sans-Serif" font-size="10.00">concepts</text>
</a>
</g>
</g>
<!-- dir_08634ce485991c3177b7abdfcbda00d8&#45;&gt;dir_838362f34bc8d8c3545343b0166aa672 -->
<g id="edge8" class="edge">
<title>dir_08634ce485991c3177b7abdfcbda00d8&#45;&gt;dir_838362f34bc8d8c3545343b0166aa672</title>
<path fill="none" stroke="#63b8ff" d="M576.5,-54.98C563.6,-46.84 543.9,-34.41 528.6,-24.76"/>
<polygon fill="#63b8ff" stroke="#63b8ff" points="530.07,-21.55 519.74,-19.17 526.33,-27.47 530.07,-21.55"/>
<g id="a_edge8&#45;headlabel"><a xlink:href="dir_000129_000037.html" target="_top" xlink:title="4">
<text text-anchor="middle" x="534.62" y="-18.56" font-family="Helvetica,sans-Serif" font-size="10.00" fill="#63b8ff">4</text>
</a>
</g>
</g>
<!-- dir_8ac75f3e92965d7b87f5a77c8eb4a6b1 -->
<g id="node10" class="node">
<title>dir_8ac75f3e92965d7b87f5a77c8eb4a6b1</title>
<g id="a_node10"><a xlink:href="dir_8ac75f3e92965d7b87f5a77c8eb4a6b1.html" target="_top" xlink:title="associative">
<polygon fill="#edf0f7" stroke="#7f7f7f" points="626,-19 554,-19 554,0 626,0 626,-19"/>
<text text-anchor="middle" x="590" y="-7" font-family="Helvetica,sans-Serif" font-size="10.00">associative</text>
</a>
</g>
</g>
<!-- dir_08634ce485991c3177b7abdfcbda00d8&#45;&gt;dir_8ac75f3e92965d7b87f5a77c8eb4a6b1 -->
<g id="edge9" class="edge">
<title>dir_08634ce485991c3177b7abdfcbda00d8&#45;&gt;dir_8ac75f3e92965d7b87f5a77c8eb4a6b1</title>
<path fill="none" stroke="#63b8ff" d="M590,-54.75C590,-47.8 590,-37.85 590,-29.13"/>
<polygon fill="#63b8ff" stroke="#63b8ff" points="593.5,-29.09 590,-19.09 586.5,-29.09 593.5,-29.09"/>
<g id="a_edge9&#45;headlabel"><a xlink:href="dir_000129_000019.html" target="_top" xlink:title="4">
<text text-anchor="middle" x="596.34" y="-30.18" font-family="Helvetica,sans-Serif" font-size="10.00" fill="#63b8ff">4</text>
</a>
</g>
</g>
<!-- dir_942cfae36a92b6b1c4b510e99e852d40 -->
<g id="node11" class="node">
<title>dir_942cfae36a92b6b1c4b510e99e852d40</title>
<g id="a_node11"><a xlink:href="dir_942cfae36a92b6b1c4b510e99e852d40.html" target="_top" xlink:title="vocab">
<polygon fill="#edf0f7" stroke="red" stroke-dasharray="5,2" points="690,-19 644,-19 644,0 690,0 690,-19"/>
<text text-anchor="middle" x="667" y="-7" font-family="Helvetica,sans-Serif" font-size="10.00">vocab</text>
</a>
</g>
</g>
<!-- dir_08634ce485991c3177b7abdfcbda00d8&#45;&gt;dir_942cfae36a92b6b1c4b510e99e852d40 -->
<g id="edge10" class="edge">
<title>dir_08634ce485991c3177b7abdfcbda00d8&#45;&gt;dir_942cfae36a92b6b1c4b510e99e852d40</title>
<path fill="none" stroke="#63b8ff" d="M602.37,-54.98C614.09,-46.92 631.92,-34.65 645.89,-25.03"/>
<polygon fill="#63b8ff" stroke="#63b8ff" points="648.15,-27.72 654.4,-19.17 644.18,-21.96 648.15,-27.72"/>
<g id="a_edge10&#45;headlabel"><a xlink:href="dir_000129_000189.html" target="_top" xlink:title="8">
<text text-anchor="middle" x="646.8" y="-29.6" font-family="Helvetica,sans-Serif" font-size="10.00" fill="#63b8ff">8</text>
</a>
</g>
</g>
<!-- dir_9f8d33513cfc97e5f9ea6bf2671e5446 -->
<g id="node12" class="node">
<title>dir_9f8d33513cfc97e5f9ea6bf2671e5446</title>
<g id="a_node12"><a xlink:href="dir_9f8d33513cfc97e5f9ea6bf2671e5446.html" target="_top" xlink:title="meta">
<polygon fill="#edf0f7" stroke="#7f7f7f" points="750,-19 708,-19 708,0 750,0 750,-19"/>
<text text-anchor="middle" x="729" y="-7" font-family="Helvetica,sans-Serif" font-size="10.00">meta</text>
</a>
</g>
</g>
<!-- dir_08634ce485991c3177b7abdfcbda00d8&#45;&gt;dir_9f8d33513cfc97e5f9ea6bf2671e5446 -->
<g id="edge11" class="edge">
<title>dir_08634ce485991c3177b7abdfcbda00d8&#45;&gt;dir_9f8d33513cfc97e5f9ea6bf2671e5446</title>
<path fill="none" stroke="#63b8ff" d="M610.51,-55.68C633.68,-46.85 671.63,-32.38 698.32,-22.2"/>
<polygon fill="#63b8ff" stroke="#63b8ff" points="699.85,-25.36 707.95,-18.53 697.36,-18.82 699.85,-25.36"/>
<g id="a_edge11&#45;headlabel"><a xlink:href="dir_000129_000120.html" target="_top" xlink:title="1">
<text text-anchor="middle" x="697.51" y="-26.79" font-family="Helvetica,sans-Serif" font-size="10.00" fill="#63b8ff">1</text>
</a>
</g>
</g>
<!-- dir_a60d4453151dca6bdd8e5fcc350e379b -->
<g id="node13" class="node">
<title>dir_a60d4453151dca6bdd8e5fcc350e379b</title>
<g id="a_node13"><a xlink:href="dir_a60d4453151dca6bdd8e5fcc350e379b.html" target="_top" xlink:title="assert">
<polygon fill="#edf0f7" stroke="#7f7f7f" points="815.5,-19 768.5,-19 768.5,0 815.5,0 815.5,-19"/>
<text text-anchor="middle" x="792" y="-7" font-family="Helvetica,sans-Serif" font-size="10.00">assert</text>
</a>
</g>
</g>
<!-- dir_08634ce485991c3177b7abdfcbda00d8&#45;&gt;dir_a60d4453151dca6bdd8e5fcc350e379b -->
<g id="edge12" class="edge">
<title>dir_08634ce485991c3177b7abdfcbda00d8&#45;&gt;dir_a60d4453151dca6bdd8e5fcc350e379b</title>
<path fill="none" stroke="#63b8ff" d="M610.86,-58.03C645.87,-48.84 716.75,-30.24 758.72,-19.23"/>
<polygon fill="#63b8ff" stroke="#63b8ff" points="759.69,-22.6 768.47,-16.67 757.91,-15.83 759.69,-22.6"/>
<g id="a_edge12&#45;headlabel"><a xlink:href="dir_000129_000018.html" target="_top" xlink:title="1">
<text text-anchor="middle" x="756.93" y="-23.76" font-family="Helvetica,sans-Serif" font-size="10.00" fill="#63b8ff">1</text>
</a>
</g>
</g>
<!-- dir_a7b99681c56fba2abd28393cbbc3f22c -->
<g id="node14" class="node">
<title>dir_a7b99681c56fba2abd28393cbbc3f22c</title>
<g id="a_node14"><a xlink:href="dir_a7b99681c56fba2abd28393cbbc3f22c.html" target="_top" xlink:title="types">
<polygon fill="#edf0f7" stroke="#7f7f7f" points="878,-19 834,-19 834,0 878,0 878,-19"/>
<text text-anchor="middle" x="856" y="-7" font-family="Helvetica,sans-Serif" font-size="10.00">types</text>
</a>
</g>
</g>
<!-- dir_08634ce485991c3177b7abdfcbda00d8&#45;&gt;dir_a7b99681c56fba2abd28393cbbc3f22c -->
<g id="edge13" class="edge">
<title>dir_08634ce485991c3177b7abdfcbda00d8&#45;&gt;dir_a7b99681c56fba2abd28393cbbc3f22c</title>
<path fill="none" stroke="#63b8ff" d="M610.55,-60.18C650.02,-53.69 739.36,-38.4 823.95,-19.09"/>
<polygon fill="#63b8ff" stroke="#63b8ff" points="824.75,-22.5 833.7,-16.84 823.17,-15.68 824.75,-22.5"/>
<g id="a_edge13&#45;headlabel"><a xlink:href="dir_000129_000178.html" target="_top" xlink:title="1">
<text text-anchor="middle" x="821.88" y="-23.58" font-family="Helvetica,sans-Serif" font-size="10.00" fill="#63b8ff">1</text>
</a>
</g>
</g>
<!-- dir_aaf67126bd5deefc4d96704f76f22cc2 -->
<g id="node15" class="node">
<title>dir_aaf67126bd5deefc4d96704f76f22cc2</title>
<g id="a_node15"><a xlink:href="dir_aaf67126bd5deefc4d96704f76f22cc2.html" target="_top" xlink:title="platform">
<polygon fill="#edf0f7" stroke="#7f7f7f" points="955.5,-19 896.5,-19 896.5,0 955.5,0 955.5,-19"/>
<text text-anchor="middle" x="926" y="-7" font-family="Helvetica,sans-Serif" font-size="10.00">platform</text>
</a>
</g>
</g>
<!-- dir_08634ce485991c3177b7abdfcbda00d8&#45;&gt;dir_aaf67126bd5deefc4d96704f76f22cc2 -->
<g id="edge14" class="edge">
<title>dir_08634ce485991c3177b7abdfcbda00d8&#45;&gt;dir_aaf67126bd5deefc4d96704f76f22cc2</title>
<path fill="none" stroke="#63b8ff" d="M610.6,-60.89C657.58,-54.83 776.43,-38.95 886.31,-19.02"/>
<polygon fill="#63b8ff" stroke="#63b8ff" points="887.02,-22.44 896.23,-17.2 885.76,-15.56 887.02,-22.44"/>
<g id="a_edge14&#45;headlabel"><a xlink:href="dir_000129_000135.html" target="_top" xlink:title="4">
<text text-anchor="middle" x="884" y="-23.38" font-family="Helvetica,sans-Serif" font-size="10.00" fill="#63b8ff">4</text>
</a>
</g>
</g>
<!-- dir_c0fde34eb1aad6470b7c40f9528ecd51 -->
<g id="node16" class="node">
<title>dir_c0fde34eb1aad6470b7c40f9528ecd51</title>
<g id="a_node16"><a xlink:href="dir_c0fde34eb1aad6470b7c40f9528ecd51.html" target="_top" xlink:title="intrusive">
<polygon fill="#edf0f7" stroke="#7f7f7f" points="1032.5,-19 973.5,-19 973.5,0 1032.5,0 1032.5,-19"/>
<text text-anchor="middle" x="1003" y="-7" font-family="Helvetica,sans-Serif" font-size="10.00">intrusive</text>
</a>
</g>
</g>
<!-- dir_08634ce485991c3177b7abdfcbda00d8&#45;&gt;dir_c0fde34eb1aad6470b7c40f9528ecd51 -->
<g id="edge15" class="edge">
<title>dir_08634ce485991c3177b7abdfcbda00d8&#45;&gt;dir_c0fde34eb1aad6470b7c40f9528ecd51</title>
<path fill="none" stroke="#63b8ff" d="M610.84,-61.78C666.48,-57.02 823.31,-42.59 963.15,-19.17"/>
<polygon fill="#63b8ff" stroke="#63b8ff" points="963.91,-22.59 973.19,-17.47 962.74,-15.69 963.91,-22.59"/>
<g id="a_edge15&#45;headlabel"><a xlink:href="dir_000129_000098.html" target="_top" xlink:title="8">
<text text-anchor="middle" x="960.84" y="-23.49" font-family="Helvetica,sans-Serif" font-size="10.00" fill="#63b8ff">8</text>
</a>
</g>
</g>
<!-- dir_f1a41f0d4848adc979771c8b39d6dd9b -->
<g id="node17" class="node">
<title>dir_f1a41f0d4848adc979771c8b39d6dd9b</title>
<g id="a_node17"><a xlink:href="dir_f1a41f0d4848adc979771c8b39d6dd9b.html" target="_top" xlink:title="vector">
<polygon fill="#edf0f7" stroke="#7f7f7f" points="1097.5,-19 1050.5,-19 1050.5,0 1097.5,0 1097.5,-19"/>
<text text-anchor="middle" x="1074" y="-7" font-family="Helvetica,sans-Serif" font-size="10.00">vector</text>
</a>
</g>
</g>
<!-- dir_08634ce485991c3177b7abdfcbda00d8&#45;&gt;dir_f1a41f0d4848adc979771c8b39d6dd9b -->
<g id="edge16" class="edge">
<title>dir_08634ce485991c3177b7abdfcbda00d8&#45;&gt;dir_f1a41f0d4848adc979771c8b39d6dd9b</title>
<path fill="none" stroke="#63b8ff" d="M610.89,-62.64C674.25,-59.8 869.86,-49.16 1040.43,-19.02"/>
<polygon fill="#63b8ff" stroke="#63b8ff" points="1041.11,-22.45 1050.33,-17.24 1039.87,-15.56 1041.11,-22.45"/>
<g id="a_edge16&#45;headlabel"><a xlink:href="dir_000129_000187.html" target="_top" xlink:title="8">
<text text-anchor="middle" x="1038.07" y="-23.38" font-family="Helvetica,sans-Serif" font-size="10.00" fill="#63b8ff">8</text>
</a>
</g>
</g>
<!-- dir_f555f996eeee1ebe901dc71e0c5de8ff -->
<g id="node18" class="node">
<title>dir_f555f996eeee1ebe901dc71e0c5de8ff</title>
<g id="a_node18"><a xlink:href="dir_f555f996eeee1ebe901dc71e0c5de8ff.html" target="_top" xlink:title="meta">
<polygon fill="#edf0f7" stroke="#7f7f7f" points="1158,-19 1116,-19 1116,0 1158,0 1158,-19"/>
<text text-anchor="middle" x="1137" y="-7" font-family="Helvetica,sans-Serif" font-size="10.00">meta</text>
</a>
</g>
</g>
<!-- dir_08634ce485991c3177b7abdfcbda00d8&#45;&gt;dir_f555f996eeee1ebe901dc71e0c5de8ff -->
<g id="edge17" class="edge">
<title>dir_08634ce485991c3177b7abdfcbda00d8&#45;&gt;dir_f555f996eeee1ebe901dc71e0c5de8ff</title>
<path fill="none" stroke="#63b8ff" d="M610.87,-63.12C680.14,-61.58 908.71,-54.12 1105.86,-18.85"/>
<polygon fill="#63b8ff" stroke="#63b8ff" points="1106.6,-22.27 1115.81,-17.04 1105.35,-15.39 1106.6,-22.27"/>
<g id="a_edge17&#45;headlabel"><a xlink:href="dir_000129_000122.html" target="_top" xlink:title="6">
<text text-anchor="middle" x="1103.57" y="-23.21" font-family="Helvetica,sans-Serif" font-size="10.00" fill="#63b8ff">6</text>
</a>
</g>
</g>
</g>
</svg>
