<?xml version="1.0" encoding="UTF-8" standalone="no"?>
<!DOCTYPE svg PUBLIC "-//W3C//DTD SVG 1.1//EN"
 "http://www.w3.org/Graphics/SVG/1.1/DTD/svg11.dtd">
<!-- Generated by graphviz version 2.43.0 (0)
 -->
<!-- Title: libs/di/include/di/vocab/tuple Pages: 1 -->
<svg width="314pt" height="117pt"
 viewBox="0.00 0.00 314.00 117.00" xmlns="http://www.w3.org/2000/svg" xmlns:xlink="http://www.w3.org/1999/xlink">
<g id="graph0" class="graph" transform="scale(1 1) rotate(0) translate(4 113)">
<title>libs/di/include/di/vocab/tuple</title>
<g id="clust1" class="cluster">
<title>clusterdir_942cfae36a92b6b1c4b510e99e852d40</title>
<g id="a_clust1"><a xlink:href="dir_942cfae36a92b6b1c4b510e99e852d40.html" target="_top" xlink:title="vocab">
<polygon fill="#edf0f7" stroke="#7f7f7f" stroke-dasharray="5,2" points="123,-47 123,-101 181,-101 181,-47 123,-47"/>
<text text-anchor="middle" x="152" y="-89" font-family="Helvetica,sans-Serif" font-size="10.00">vocab</text>
</a>
</g>
</g>
<!-- dir_b61fbbcfa25ab30881b2aeba2d77b3a9 -->
<g id="node1" class="node">
<title>dir_b61fbbcfa25ab30881b2aeba2d77b3a9</title>
<g id="a_node1"><a xlink:href="dir_b61fbbcfa25ab30881b2aeba2d77b3a9.html" target="_top" xlink:title="tuple">
<polygon fill="#edf0f7" stroke="#404040" stroke-width="2" points="172.5,-74 131.5,-74 131.5,-55 172.5,-55 172.5,-74"/>
<text text-anchor="middle" x="152" y="-62" font-family="Helvetica,sans-Serif" font-size="10.00">tuple</text>
</a>
</g>
</g>
<!-- dir_0669efae56692bb73da75efb5ebbccdf -->
<g id="node2" class="node">
<title>dir_0669efae56692bb73da75efb5ebbccdf</title>
<g id="a_node2"><a xlink:href="dir_0669efae56692bb73da75efb5ebbccdf.html" target="_top" xlink:title="function">
<polygon fill="#edf0f7" stroke="red" stroke-dasharray="5,2" points="56,-19 0,-19 0,0 56,0 56,-19"/>
<text text-anchor="middle" x="28" y="-7" font-family="Helvetica,sans-Serif" font-size="10.00">function</text>
</a>
</g>
</g>
<!-- dir_b61fbbcfa25ab30881b2aeba2d77b3a9&#45;&gt;dir_0669efae56692bb73da75efb5ebbccdf -->
<g id="edge1" class="edge">
<title>dir_b61fbbcfa25ab30881b2aeba2d77b3a9&#45;&gt;dir_0669efae56692bb73da75efb5ebbccdf</title>
<path fill="none" stroke="#63b8ff" d="M132.08,-54.98C111.95,-46.38 80.62,-32.99 57.59,-23.15"/>
<polygon fill="#63b8ff" stroke="#63b8ff" points="58.86,-19.88 48.29,-19.17 56.1,-26.32 58.86,-19.88"/>
<g id="a_edge1&#45;headlabel"><a xlink:href="dir_000176_000082.html" target="_top" xlink:title="13">
<text text-anchor="middle" x="63.28" y="-16.18" font-family="Helvetica,sans-Serif" font-size="10.00" fill="#63b8ff">13</text>
</a>
</g>
</g>
<!-- dir_30ecaf38acae77be14fb9173f98f8612 -->
<g id="node3" class="node">
<title>dir_30ecaf38acae77be14fb9173f98f8612</title>
<g id="a_node3"><a xlink:href="dir_30ecaf38acae77be14fb9173f98f8612.html" target="_top" xlink:title="types">
<polygon fill="#edf0f7" stroke="#7f7f7f" points="118,-19 74,-19 74,0 118,0 118,-19"/>
<text text-anchor="middle" x="96" y="-7" font-family="Helvetica,sans-Serif" font-size="10.00">types</text>
</a>
</g>
</g>
<!-- dir_b61fbbcfa25ab30881b2aeba2d77b3a9&#45;&gt;dir_30ecaf38acae77be14fb9173f98f8612 -->
<g id="edge2" class="edge">
<title>dir_b61fbbcfa25ab30881b2aeba2d77b3a9&#45;&gt;dir_30ecaf38acae77be14fb9173f98f8612</title>
<path fill="none" stroke="#63b8ff" d="M143,-54.98C134.81,-47.23 122.49,-35.58 112.53,-26.14"/>
<polygon fill="#63b8ff" stroke="#63b8ff" points="114.83,-23.5 105.16,-19.17 110.02,-28.59 114.83,-23.5"/>
<g id="a_edge2&#45;headlabel"><a xlink:href="dir_000176_000180.html" target="_top" xlink:title="8">
<text text-anchor="middle" x="119.39" y="-21.41" font-family="Helvetica,sans-Serif" font-size="10.00" fill="#63b8ff">8</text>
</a>
</g>
</g>
<!-- dir_4535887b2cdca47e625f259d07db0112 -->
<g id="node4" class="node">
<title>dir_4535887b2cdca47e625f259d07db0112</title>
<g id="a_node4"><a xlink:href="dir_4535887b2cdca47e625f259d07db0112.html" target="_top" xlink:title="util">
<polygon fill="#edf0f7" stroke="#7f7f7f" points="168,-19 136,-19 136,0 168,0 168,-19"/>
<text text-anchor="middle" x="152" y="-7" font-family="Helvetica,sans-Serif" font-size="10.00">util</text>
</a>
</g>
</g>
<!-- dir_b61fbbcfa25ab30881b2aeba2d77b3a9&#45;&gt;dir_4535887b2cdca47e625f259d07db0112 -->
<g id="edge3" class="edge">
<title>dir_b61fbbcfa25ab30881b2aeba2d77b3a9&#45;&gt;dir_4535887b2cdca47e625f259d07db0112</title>
<path fill="none" stroke="#63b8ff" d="M152,-54.75C152,-47.8 152,-37.85 152,-29.13"/>
<polygon fill="#63b8ff" stroke="#63b8ff" points="155.5,-29.09 152,-19.09 148.5,-29.09 155.5,-29.09"/>
<g id="a_edge3&#45;headlabel"><a xlink:href="dir_000176_000185.html" target="_top" xlink:title="19">
<text text-anchor="middle" x="158.34" y="-30.18" font-family="Helvetica,sans-Serif" font-size="10.00" fill="#63b8ff">19</text>
</a>
</g>
</g>
<!-- dir_aaf67126bd5deefc4d96704f76f22cc2 -->
<g id="node5" class="node">
<title>dir_aaf67126bd5deefc4d96704f76f22cc2</title>
<g id="a_node5"><a xlink:href="dir_aaf67126bd5deefc4d96704f76f22cc2.html" target="_top" xlink:title="platform">
<polygon fill="#edf0f7" stroke="#7f7f7f" points="245.5,-19 186.5,-19 186.5,0 245.5,0 245.5,-19"/>
<text text-anchor="middle" x="216" y="-7" font-family="Helvetica,sans-Serif" font-size="10.00">platform</text>
</a>
</g>
</g>
<!-- dir_b61fbbcfa25ab30881b2aeba2d77b3a9&#45;&gt;dir_aaf67126bd5deefc4d96704f76f22cc2 -->
<g id="edge4" class="edge">
<title>dir_b61fbbcfa25ab30881b2aeba2d77b3a9&#45;&gt;dir_aaf67126bd5deefc4d96704f76f22cc2</title>
<path fill="none" stroke="#63b8ff" d="M162.28,-54.98C171.84,-47.07 186.28,-35.11 197.78,-25.58"/>
<polygon fill="#63b8ff" stroke="#63b8ff" points="200.06,-28.24 205.53,-19.17 195.6,-22.85 200.06,-28.24"/>
<g id="a_edge4&#45;headlabel"><a xlink:href="dir_000176_000135.html" target="_top" xlink:title="1">
<text text-anchor="middle" x="199.1" y="-30.22" font-family="Helvetica,sans-Serif" font-size="10.00" fill="#63b8ff">1</text>
</a>
</g>
</g>
<!-- dir_f555f996eeee1ebe901dc71e0c5de8ff -->
<g id="node6" class="node">
<title>dir_f555f996eeee1ebe901dc71e0c5de8ff</title>
<g id="a_node6"><a xlink:href="dir_f555f996eeee1ebe901dc71e0c5de8ff.html" target="_top" xlink:title="meta">
<polygon fill="#edf0f7" stroke="#7f7f7f" points="306,-19 264,-19 264,0 306,0 306,-19"/>
<text text-anchor="middle" x="285" y="-7" font-family="Helvetica,sans-Serif" font-size="10.00">meta</text>
</a>
</g>
</g>
<!-- dir_b61fbbcfa25ab30881b2aeba2d77b3a9&#45;&gt;dir_f555f996eeee1ebe901dc71e0c5de8ff -->
<g id="edge5" class="edge">
<title>dir_b61fbbcfa25ab30881b2aeba2d77b3a9&#45;&gt;dir_f555f996eeee1ebe901dc71e0c5de8ff</title>
<path fill="none" stroke="#63b8ff" d="M172.78,-55.22C194.71,-46.48 229.5,-32.62 254.53,-22.64"/>
<polygon fill="#63b8ff" stroke="#63b8ff" points="255.93,-25.85 263.93,-18.9 253.34,-19.35 255.93,-25.85"/>
<g id="a_edge5&#45;headlabel"><a xlink:href="dir_000176_000122.html" target="_top" xlink:title="26">
<text text-anchor="middle" x="253.64" y="-27.32" font-family="Helvetica,sans-Serif" font-size="10.00" fill="#63b8ff">26</text>
</a>
</g>
</g>
</g>
</svg>
