<?xml version="1.0" encoding="UTF-8" standalone="no"?>
<!DOCTYPE svg PUBLIC "-//W3C//DTD SVG 1.1//EN"
 "http://www.w3.org/Graphics/SVG/1.1/DTD/svg11.dtd">
<!-- Generated by graphviz version 2.43.0 (0)
 -->
<!-- Title: libs/di/include/di/execution/concepts Pages: 1 -->
<svg width="526pt" height="133pt"
 viewBox="0.00 0.00 526.00 133.00" xmlns="http://www.w3.org/2000/svg" xmlns:xlink="http://www.w3.org/1999/xlink">
<g id="graph0" class="graph" transform="scale(1 1) rotate(0) translate(4 129)">
<title>libs/di/include/di/execution/concepts</title>
<g id="clust1" class="cluster">
<title>clusterdir_182dab0b86097ba072332b7ad8fceb7f</title>
<g id="a_clust1"><a xlink:href="dir_182dab0b86097ba072332b7ad8fceb7f.html" target="_top" xlink:title="execution">
<polygon fill="#edf0f7" stroke="#7f7f7f" stroke-dasharray="5,2" points="8,-8 8,-117 342,-117 342,-8 8,-8"/>
<text text-anchor="middle" x="175" y="-105" font-family="Helvetica,sans-Serif" font-size="10.00">execution</text>
</a>
</g>
</g>
<!-- dir_27e1a0af1927749316784e6421682a5e -->
<g id="node1" class="node">
<title>dir_27e1a0af1927749316784e6421682a5e</title>
<g id="a_node1"><a xlink:href="dir_27e1a0af1927749316784e6421682a5e.html" target="_top" xlink:title="interface">
<polygon fill="#a2b4d6" stroke="#404040" points="76,-35 16,-35 16,-16 76,-16 76,-35"/>
<text text-anchor="middle" x="46" y="-23" font-family="Helvetica,sans-Serif" font-size="10.00">interface</text>
</a>
</g>
</g>
<!-- dir_38011a79da39fb3448319eccf8c364d9 -->
<g id="node2" class="node">
<title>dir_38011a79da39fb3448319eccf8c364d9</title>
<g id="a_node2"><a xlink:href="dir_38011a79da39fb3448319eccf8c364d9.html" target="_top" xlink:title="query">
<polygon fill="#a2b4d6" stroke="#404040" points="138,-35 94,-35 94,-16 138,-16 138,-35"/>
<text text-anchor="middle" x="116" y="-23" font-family="Helvetica,sans-Serif" font-size="10.00">query</text>
</a>
</g>
</g>
<!-- dir_569ed69d6bb9bf9a95676c3a98a04440 -->
<g id="node3" class="node">
<title>dir_569ed69d6bb9bf9a95676c3a98a04440</title>
<g id="a_node3"><a xlink:href="dir_569ed69d6bb9bf9a95676c3a98a04440.html" target="_top" xlink:title="types">
<polygon fill="#a2b4d6" stroke="#404040" points="200,-35 156,-35 156,-16 200,-16 200,-35"/>
<text text-anchor="middle" x="178" y="-23" font-family="Helvetica,sans-Serif" font-size="10.00">types</text>
</a>
</g>
</g>
<!-- dir_57df25969c72935fa0fddf8bd8d3498c -->
<g id="node4" class="node">
<title>dir_57df25969c72935fa0fddf8bd8d3498c</title>
<g id="a_node4"><a xlink:href="dir_57df25969c72935fa0fddf8bd8d3498c.html" target="_top" xlink:title="meta">
<polygon fill="#a2b4d6" stroke="#404040" points="260,-35 218,-35 218,-16 260,-16 260,-35"/>
<text text-anchor="middle" x="239" y="-23" font-family="Helvetica,sans-Serif" font-size="10.00">meta</text>
</a>
</g>
</g>
<!-- dir_8620533e8531467fdbfb737d3ec42837 -->
<g id="node5" class="node">
<title>dir_8620533e8531467fdbfb737d3ec42837</title>
<g id="a_node5"><a xlink:href="dir_8620533e8531467fdbfb737d3ec42837.html" target="_top" xlink:title="receiver">
<polygon fill="#a2b4d6" stroke="#404040" points="334,-35 278,-35 278,-16 334,-16 334,-35"/>
<text text-anchor="middle" x="306" y="-23" font-family="Helvetica,sans-Serif" font-size="10.00">receiver</text>
</a>
</g>
</g>
<!-- dir_72b20bf6291bd35729057dcb4ccbac76 -->
<g id="node6" class="node">
<title>dir_72b20bf6291bd35729057dcb4ccbac76</title>
<g id="a_node6"><a xlink:href="dir_72b20bf6291bd35729057dcb4ccbac76.html" target="_top" xlink:title="concepts">
<polygon fill="#edf0f7" stroke="#404040" stroke-width="2" points="301,-90 241,-90 241,-71 301,-71 301,-90"/>
<text text-anchor="middle" x="271" y="-78" font-family="Helvetica,sans-Serif" font-size="10.00">concepts</text>
</a>
</g>
</g>
<!-- dir_72b20bf6291bd35729057dcb4ccbac76&#45;&gt;dir_27e1a0af1927749316784e6421682a5e -->
<g id="edge2" class="edge">
<title>dir_72b20bf6291bd35729057dcb4ccbac76&#45;&gt;dir_27e1a0af1927749316784e6421682a5e</title>
<path fill="none" stroke="#63b8ff" d="M240.66,-72.35C200.7,-62.94 130.36,-46.37 86.07,-35.94"/>
<polygon fill="#63b8ff" stroke="#63b8ff" points="86.76,-32.51 76.22,-33.62 85.15,-39.32 86.76,-32.51"/>
<g id="a_edge2&#45;headlabel"><a xlink:href="dir_000038_000096.html" target="_top" xlink:title="7">
<text text-anchor="middle" x="90.91" y="-28.07" font-family="Helvetica,sans-Serif" font-size="10.00" fill="#63b8ff">7</text>
</a>
</g>
</g>
<!-- dir_72b20bf6291bd35729057dcb4ccbac76&#45;&gt;dir_38011a79da39fb3448319eccf8c364d9 -->
<g id="edge3" class="edge">
<title>dir_72b20bf6291bd35729057dcb4ccbac76&#45;&gt;dir_38011a79da39fb3448319eccf8c364d9</title>
<path fill="none" stroke="#63b8ff" d="M246.1,-70.98C219.46,-61.88 177.12,-47.4 148.02,-37.45"/>
<polygon fill="#63b8ff" stroke="#63b8ff" points="148.92,-34.06 138.33,-34.13 146.66,-40.68 148.92,-34.06"/>
<g id="a_edge3&#45;headlabel"><a xlink:href="dir_000038_000139.html" target="_top" xlink:title="2">
<text text-anchor="middle" x="153.24" y="-30.03" font-family="Helvetica,sans-Serif" font-size="10.00" fill="#63b8ff">2</text>
</a>
</g>
</g>
<!-- dir_72b20bf6291bd35729057dcb4ccbac76&#45;&gt;dir_569ed69d6bb9bf9a95676c3a98a04440 -->
<g id="edge5" class="edge">
<title>dir_72b20bf6291bd35729057dcb4ccbac76&#45;&gt;dir_569ed69d6bb9bf9a95676c3a98a04440</title>
<path fill="none" stroke="#63b8ff" d="M256.06,-70.98C241.5,-62.69 219.13,-49.94 202.07,-40.22"/>
<polygon fill="#63b8ff" stroke="#63b8ff" points="203.64,-37.08 193.21,-35.17 200.17,-43.16 203.64,-37.08"/>
<g id="a_edge5&#45;headlabel"><a xlink:href="dir_000038_000179.html" target="_top" xlink:title="4">
<text text-anchor="middle" x="208.16" y="-33.89" font-family="Helvetica,sans-Serif" font-size="10.00" fill="#63b8ff">4</text>
</a>
</g>
</g>
<!-- dir_72b20bf6291bd35729057dcb4ccbac76&#45;&gt;dir_57df25969c72935fa0fddf8bd8d3498c -->
<g id="edge6" class="edge">
<title>dir_72b20bf6291bd35729057dcb4ccbac76&#45;&gt;dir_57df25969c72935fa0fddf8bd8d3498c</title>
<path fill="none" stroke="#63b8ff" d="M265.72,-70.75C261.29,-63.42 254.84,-52.73 249.38,-43.7"/>
<polygon fill="#63b8ff" stroke="#63b8ff" points="252.35,-41.84 244.19,-35.09 246.36,-45.46 252.35,-41.84"/>
<g id="a_edge6&#45;headlabel"><a xlink:href="dir_000038_000121.html" target="_top" xlink:title="7">
<text text-anchor="middle" x="256.64" y="-40.95" font-family="Helvetica,sans-Serif" font-size="10.00" fill="#63b8ff">7</text>
</a>
</g>
</g>
<!-- dir_72b20bf6291bd35729057dcb4ccbac76&#45;&gt;dir_8620533e8531467fdbfb737d3ec42837 -->
<g id="edge7" class="edge">
<title>dir_72b20bf6291bd35729057dcb4ccbac76&#45;&gt;dir_8620533e8531467fdbfb737d3ec42837</title>
<path fill="none" stroke="#63b8ff" d="M276.78,-70.75C281.62,-63.42 288.68,-52.73 294.64,-43.7"/>
<polygon fill="#63b8ff" stroke="#63b8ff" points="297.74,-45.36 300.33,-35.09 291.9,-41.5 297.74,-45.36"/>
<g id="a_edge7&#45;headlabel"><a xlink:href="dir_000038_000144.html" target="_top" xlink:title="7">
<text text-anchor="middle" x="298.13" y="-47.43" font-family="Helvetica,sans-Serif" font-size="10.00" fill="#63b8ff">7</text>
</a>
</g>
</g>
<!-- dir_0669efae56692bb73da75efb5ebbccdf -->
<g id="node7" class="node">
<title>dir_0669efae56692bb73da75efb5ebbccdf</title>
<g id="a_node7"><a xlink:href="dir_0669efae56692bb73da75efb5ebbccdf.html" target="_top" xlink:title="function">
<polygon fill="#edf0f7" stroke="red" stroke-dasharray="5,2" points="408,-35 352,-35 352,-16 408,-16 408,-35"/>
<text text-anchor="middle" x="380" y="-23" font-family="Helvetica,sans-Serif" font-size="10.00">function</text>
</a>
</g>
</g>
<!-- dir_72b20bf6291bd35729057dcb4ccbac76&#45;&gt;dir_0669efae56692bb73da75efb5ebbccdf -->
<g id="edge1" class="edge">
<title>dir_72b20bf6291bd35729057dcb4ccbac76&#45;&gt;dir_0669efae56692bb73da75efb5ebbccdf</title>
<path fill="none" stroke="#63b8ff" d="M288.51,-70.98C305.97,-62.5 333.01,-49.35 353.17,-39.54"/>
<polygon fill="#63b8ff" stroke="#63b8ff" points="354.71,-42.69 362.17,-35.17 351.64,-36.4 354.71,-42.69"/>
<g id="a_edge1&#45;headlabel"><a xlink:href="dir_000038_000082.html" target="_top" xlink:title="1">
<text text-anchor="middle" x="352.71" y="-44.32" font-family="Helvetica,sans-Serif" font-size="10.00" fill="#63b8ff">1</text>
</a>
</g>
</g>
<!-- dir_4535887b2cdca47e625f259d07db0112 -->
<g id="node8" class="node">
<title>dir_4535887b2cdca47e625f259d07db0112</title>
<g id="a_node8"><a xlink:href="dir_4535887b2cdca47e625f259d07db0112.html" target="_top" xlink:title="util">
<polygon fill="#edf0f7" stroke="#7f7f7f" points="458,-35 426,-35 426,-16 458,-16 458,-35"/>
<text text-anchor="middle" x="442" y="-23" font-family="Helvetica,sans-Serif" font-size="10.00">util</text>
</a>
</g>
</g>
<!-- dir_72b20bf6291bd35729057dcb4ccbac76&#45;&gt;dir_4535887b2cdca47e625f259d07db0112 -->
<g id="edge4" class="edge">
<title>dir_72b20bf6291bd35729057dcb4ccbac76&#45;&gt;dir_4535887b2cdca47e625f259d07db0112</title>
<path fill="none" stroke="#63b8ff" d="M299.89,-70.99C327.45,-62.81 370.34,-49.91 416.09,-35.22"/>
<polygon fill="#63b8ff" stroke="#63b8ff" points="417.44,-38.46 425.89,-32.06 415.3,-31.8 417.44,-38.46"/>
<g id="a_edge4&#45;headlabel"><a xlink:href="dir_000038_000185.html" target="_top" xlink:title="3">
<text text-anchor="middle" x="414.89" y="-39.77" font-family="Helvetica,sans-Serif" font-size="10.00" fill="#63b8ff">3</text>
</a>
</g>
</g>
<!-- dir_f555f996eeee1ebe901dc71e0c5de8ff -->
<g id="node9" class="node">
<title>dir_f555f996eeee1ebe901dc71e0c5de8ff</title>
<g id="a_node9"><a xlink:href="dir_f555f996eeee1ebe901dc71e0c5de8ff.html" target="_top" xlink:title="meta">
<polygon fill="#edf0f7" stroke="#7f7f7f" points="518,-35 476,-35 476,-16 518,-16 518,-35"/>
<text text-anchor="middle" x="497" y="-23" font-family="Helvetica,sans-Serif" font-size="10.00">meta</text>
</a>
</g>
</g>
<!-- dir_72b20bf6291bd35729057dcb4ccbac76&#45;&gt;dir_f555f996eeee1ebe901dc71e0c5de8ff -->
<g id="edge8" class="edge">
<title>dir_72b20bf6291bd35729057dcb4ccbac76&#45;&gt;dir_f555f996eeee1ebe901dc71e0c5de8ff</title>
<path fill="none" stroke="#63b8ff" d="M301,-73.2C337.68,-65.4 401.85,-51.37 465.88,-35.19"/>
<polygon fill="#63b8ff" stroke="#63b8ff" points="466.9,-38.53 475.73,-32.68 465.18,-31.75 466.9,-38.53"/>
<g id="a_edge8&#45;headlabel"><a xlink:href="dir_000038_000122.html" target="_top" xlink:title="16">
<text text-anchor="middle" x="464.12" y="-39.67" font-family="Helvetica,sans-Serif" font-size="10.00" fill="#63b8ff">16</text>
</a>
</g>
</g>
</g>
</svg>
