<?xml version="1.0" encoding="UTF-8" standalone="no"?>
<!DOCTYPE svg PUBLIC "-//W3C//DTD SVG 1.1//EN"
 "http://www.w3.org/Graphics/SVG/1.1/DTD/svg11.dtd">
<!-- Generated by graphviz version 2.43.0 (0)
 -->
<!-- Title: libs/ccpp/sys Pages: 1 -->
<svg width="181pt" height="141pt"
 viewBox="0.00 0.00 180.50 141.00" xmlns="http://www.w3.org/2000/svg" xmlns:xlink="http://www.w3.org/1999/xlink">
<g id="graph0" class="graph" transform="scale(1 1) rotate(0) translate(4 137)">
<title>libs/ccpp/sys</title>
<g id="clust1" class="cluster">
<title>clusterdir_048287677304621c659962c2a2c2732d</title>
<g id="a_clust1"><a xlink:href="dir_048287677304621c659962c2a2c2732d.html" target="_top" xlink:title="ccpp">
<polygon fill="#edf0f7" stroke="#7f7f7f" stroke-dasharray="5,2" points="8,-8 8,-125 127,-125 127,-8 8,-8"/>
<text text-anchor="middle" x="67.5" y="-113" font-family="Helvetica,sans-Serif" font-size="10.00">ccpp</text>
</a>
</g>
</g>
<g id="clust2" class="cluster">
<title>clusterdir_56484080abf04ca67379ec2837b7b193</title>
<g id="a_clust2"><a xlink:href="dir_56484080abf04ca67379ec2837b7b193.html" target="_top">
<polygon fill="#edf0f7" stroke="#404040" stroke-width="2" points="16,-63 16,-98 119,-98 119,-63 16,-63"/>
</a>
</g>
</g>
<!-- dir_4a059f36db6300b3f1d6a7b4bd94b473 -->
<g id="node1" class="node">
<title>dir_4a059f36db6300b3f1d6a7b4bd94b473</title>
<g id="a_node1"><a xlink:href="dir_4a059f36db6300b3f1d6a7b4bd94b473.html" target="_top" xlink:title="include">
<polygon fill="#a2b4d6" stroke="red" points="68,-35 16,-35 16,-16 68,-16 68,-35"/>
<text text-anchor="middle" x="42" y="-23" font-family="Helvetica,sans-Serif" font-size="10.00">include</text>
</a>
</g>
</g>
<!-- dir_56484080abf04ca67379ec2837b7b193 -->
<g id="node2" class="node">
<title>dir_56484080abf04ca67379ec2837b7b193</title>
<text text-anchor="middle" x="94" y="-78" font-family="Helvetica,sans-Serif" font-size="10.00">sys</text>
</g>
<!-- dir_fb39453a2e5f8516753325aa73ce680d -->
<g id="node3" class="node">
<title>dir_fb39453a2e5f8516753325aa73ce680d</title>
<g id="a_node3"><a xlink:href="dir_fb39453a2e5f8516753325aa73ce680d.html" target="_top" xlink:title="stat">
<polygon fill="#a2b4d6" stroke="#404040" points="59.5,-90 24.5,-90 24.5,-71 59.5,-71 59.5,-90"/>
<text text-anchor="middle" x="42" y="-78" font-family="Helvetica,sans-Serif" font-size="10.00">stat</text>
</a>
</g>
</g>
<!-- dir_fb39453a2e5f8516753325aa73ce680d&#45;&gt;dir_4a059f36db6300b3f1d6a7b4bd94b473 -->
<g id="edge2" class="edge">
<title>dir_fb39453a2e5f8516753325aa73ce680d&#45;&gt;dir_4a059f36db6300b3f1d6a7b4bd94b473</title>
<path fill="none" stroke="#63b8ff" d="M42,-70.75C42,-63.8 42,-53.85 42,-45.13"/>
<polygon fill="#63b8ff" stroke="#63b8ff" points="45.5,-45.09 42,-35.09 38.5,-45.09 45.5,-45.09"/>
<g id="a_edge2&#45;headlabel"><a xlink:href="dir_000155_000091.html" target="_top" xlink:title="1">
<text text-anchor="middle" x="48.34" y="-46.18" font-family="Helvetica,sans-Serif" font-size="10.00" fill="#63b8ff">1</text>
</a>
</g>
</g>
<!-- dir_2bc9e3f402dd86ba93785edd287294d9 -->
<g id="node4" class="node">
<title>dir_2bc9e3f402dd86ba93785edd287294d9</title>
<g id="a_node4"><a xlink:href="dir_2bc9e3f402dd86ba93785edd287294d9.html" target="_top" xlink:title="dius">
<polygon fill="#edf0f7" stroke="red" stroke-dasharray="5,2" points="172.5,-35 135.5,-35 135.5,-16 172.5,-16 172.5,-35"/>
<text text-anchor="middle" x="154" y="-23" font-family="Helvetica,sans-Serif" font-size="10.00">dius</text>
</a>
</g>
</g>
<!-- dir_fb39453a2e5f8516753325aa73ce680d&#45;&gt;dir_2bc9e3f402dd86ba93785edd287294d9 -->
<g id="edge1" class="edge">
<title>dir_fb39453a2e5f8516753325aa73ce680d&#45;&gt;dir_2bc9e3f402dd86ba93785edd287294d9</title>
<path fill="none" stroke="#63b8ff" d="M55.24,-70.89C59.55,-68.23 64.41,-65.37 69,-63 87.43,-53.47 108.91,-44.27 125.66,-37.48"/>
<polygon fill="#63b8ff" stroke="#63b8ff" points="127.42,-40.55 135.41,-33.59 124.83,-34.05 127.42,-40.55"/>
<g id="a_edge1&#45;headlabel"><a xlink:href="dir_000155_000063.html" target="_top" xlink:title="1">
<text text-anchor="middle" x="125.13" y="-42.02" font-family="Helvetica,sans-Serif" font-size="10.00" fill="#63b8ff">1</text>
</a>
</g>
</g>
</g>
</svg>
