<?xml version="1.0" encoding="UTF-8" standalone="no"?>
<!DOCTYPE svg PUBLIC "-//W3C//DTD SVG 1.1//EN"
 "http://www.w3.org/Graphics/SVG/1.1/DTD/svg11.dtd">
<!-- Generated by graphviz version 2.43.0 (0)
 -->
<!-- Title: libs/di/include/di/vocab/variant Pages: 1 -->
<svg width="574pt" height="133pt"
 viewBox="0.00 0.00 574.00 133.00" xmlns="http://www.w3.org/2000/svg" xmlns:xlink="http://www.w3.org/1999/xlink">
<g id="graph0" class="graph" transform="scale(1 1) rotate(0) translate(4 129)">
<title>libs/di/include/di/vocab/variant</title>
<g id="clust1" class="cluster">
<title>clusterdir_942cfae36a92b6b1c4b510e99e852d40</title>
<g id="a_clust1"><a xlink:href="dir_942cfae36a92b6b1c4b510e99e852d40.html" target="_top" xlink:title="vocab">
<polygon fill="#edf0f7" stroke="#7f7f7f" stroke-dasharray="5,2" points="8,-8 8,-117 190,-117 190,-8 8,-8"/>
<text text-anchor="middle" x="99" y="-105" font-family="Helvetica,sans-Serif" font-size="10.00">vocab</text>
</a>
</g>
</g>
<!-- dir_bf9e2a3d6b93982a82bbe9d883f4fbeb -->
<g id="node1" class="node">
<title>dir_bf9e2a3d6b93982a82bbe9d883f4fbeb</title>
<g id="a_node1"><a xlink:href="dir_bf9e2a3d6b93982a82bbe9d883f4fbeb.html" target="_top" xlink:title="md">
<polygon fill="#a2b4d6" stroke="red" points="48,-35 16,-35 16,-16 48,-16 48,-35"/>
<text text-anchor="middle" x="32" y="-23" font-family="Helvetica,sans-Serif" font-size="10.00">md</text>
</a>
</g>
</g>
<!-- dir_f2746db212e1651cb9c1857c0d141a99 -->
<g id="node2" class="node">
<title>dir_f2746db212e1651cb9c1857c0d141a99</title>
<g id="a_node2"><a xlink:href="dir_f2746db212e1651cb9c1857c0d141a99.html" target="_top" xlink:title="array">
<polygon fill="#a2b4d6" stroke="#404040" points="108,-35 66,-35 66,-16 108,-16 108,-35"/>
<text text-anchor="middle" x="87" y="-23" font-family="Helvetica,sans-Serif" font-size="10.00">array</text>
</a>
</g>
</g>
<!-- dir_fb93aeb8b3e9feea147f4ddef093a0f6 -->
<g id="node3" class="node">
<title>dir_fb93aeb8b3e9feea147f4ddef093a0f6</title>
<g id="a_node3"><a xlink:href="dir_fb93aeb8b3e9feea147f4ddef093a0f6.html" target="_top" xlink:title="optional">
<polygon fill="#a2b4d6" stroke="#404040" points="182,-35 126,-35 126,-16 182,-16 182,-35"/>
<text text-anchor="middle" x="154" y="-23" font-family="Helvetica,sans-Serif" font-size="10.00">optional</text>
</a>
</g>
</g>
<!-- dir_df2174af3210b9b7833edb75ef66180a -->
<g id="node4" class="node">
<title>dir_df2174af3210b9b7833edb75ef66180a</title>
<g id="a_node4"><a xlink:href="dir_df2174af3210b9b7833edb75ef66180a.html" target="_top" xlink:title="variant">
<polygon fill="#edf0f7" stroke="#404040" stroke-width="2" points="181.5,-90 130.5,-90 130.5,-71 181.5,-71 181.5,-90"/>
<text text-anchor="middle" x="156" y="-78" font-family="Helvetica,sans-Serif" font-size="10.00">variant</text>
</a>
</g>
</g>
<!-- dir_df2174af3210b9b7833edb75ef66180a&#45;&gt;dir_bf9e2a3d6b93982a82bbe9d883f4fbeb -->
<g id="edge6" class="edge">
<title>dir_df2174af3210b9b7833edb75ef66180a&#45;&gt;dir_bf9e2a3d6b93982a82bbe9d883f4fbeb</title>
<path fill="none" stroke="#63b8ff" d="M136.08,-70.98C114.75,-61.87 80.85,-47.38 57.57,-37.43"/>
<polygon fill="#63b8ff" stroke="#63b8ff" points="58.88,-34.18 48.31,-33.47 56.13,-40.62 58.88,-34.18"/>
<g id="a_edge6&#45;headlabel"><a xlink:href="dir_000186_000118.html" target="_top" xlink:title="1">
<text text-anchor="middle" x="63.3" y="-30.49" font-family="Helvetica,sans-Serif" font-size="10.00" fill="#63b8ff">1</text>
</a>
</g>
</g>
<!-- dir_df2174af3210b9b7833edb75ef66180a&#45;&gt;dir_f2746db212e1651cb9c1857c0d141a99 -->
<g id="edge7" class="edge">
<title>dir_df2174af3210b9b7833edb75ef66180a&#45;&gt;dir_f2746db212e1651cb9c1857c0d141a99</title>
<path fill="none" stroke="#63b8ff" d="M144.91,-70.98C134.51,-63 118.74,-50.88 106.28,-41.31"/>
<polygon fill="#63b8ff" stroke="#63b8ff" points="108.35,-38.49 98.29,-35.17 104.09,-44.04 108.35,-38.49"/>
<g id="a_edge7&#45;headlabel"><a xlink:href="dir_000186_000017.html" target="_top" xlink:title="1">
<text text-anchor="middle" x="112.93" y="-35.92" font-family="Helvetica,sans-Serif" font-size="10.00" fill="#63b8ff">1</text>
</a>
</g>
</g>
<!-- dir_df2174af3210b9b7833edb75ef66180a&#45;&gt;dir_fb93aeb8b3e9feea147f4ddef093a0f6 -->
<g id="edge9" class="edge">
<title>dir_df2174af3210b9b7833edb75ef66180a&#45;&gt;dir_fb93aeb8b3e9feea147f4ddef093a0f6</title>
<path fill="none" stroke="#63b8ff" d="M155.67,-70.75C155.41,-63.8 155.03,-53.85 154.7,-45.13"/>
<polygon fill="#63b8ff" stroke="#63b8ff" points="158.2,-44.95 154.32,-35.09 151.2,-45.21 158.2,-44.95"/>
<g id="a_edge9&#45;headlabel"><a xlink:href="dir_000186_000131.html" target="_top" xlink:title="1">
<text text-anchor="middle" x="161.17" y="-45.93" font-family="Helvetica,sans-Serif" font-size="10.00" fill="#63b8ff">1</text>
</a>
</g>
</g>
<!-- dir_0669efae56692bb73da75efb5ebbccdf -->
<g id="node5" class="node">
<title>dir_0669efae56692bb73da75efb5ebbccdf</title>
<g id="a_node5"><a xlink:href="dir_0669efae56692bb73da75efb5ebbccdf.html" target="_top" xlink:title="function">
<polygon fill="#edf0f7" stroke="red" stroke-dasharray="5,2" points="256,-35 200,-35 200,-16 256,-16 256,-35"/>
<text text-anchor="middle" x="228" y="-23" font-family="Helvetica,sans-Serif" font-size="10.00">function</text>
</a>
</g>
</g>
<!-- dir_df2174af3210b9b7833edb75ef66180a&#45;&gt;dir_0669efae56692bb73da75efb5ebbccdf -->
<g id="edge1" class="edge">
<title>dir_df2174af3210b9b7833edb75ef66180a&#45;&gt;dir_0669efae56692bb73da75efb5ebbccdf</title>
<path fill="none" stroke="#63b8ff" d="M167.57,-70.98C178.42,-63 194.88,-50.88 207.88,-41.31"/>
<polygon fill="#63b8ff" stroke="#63b8ff" points="210.24,-43.92 216.22,-35.17 206.09,-38.28 210.24,-43.92"/>
<g id="a_edge1&#45;headlabel"><a xlink:href="dir_000186_000082.html" target="_top" xlink:title="7">
<text text-anchor="middle" x="209.03" y="-45.83" font-family="Helvetica,sans-Serif" font-size="10.00" fill="#63b8ff">7</text>
</a>
</g>
</g>
<!-- dir_30ecaf38acae77be14fb9173f98f8612 -->
<g id="node6" class="node">
<title>dir_30ecaf38acae77be14fb9173f98f8612</title>
<g id="a_node6"><a xlink:href="dir_30ecaf38acae77be14fb9173f98f8612.html" target="_top" xlink:title="types">
<polygon fill="#edf0f7" stroke="#7f7f7f" points="318,-35 274,-35 274,-16 318,-16 318,-35"/>
<text text-anchor="middle" x="296" y="-23" font-family="Helvetica,sans-Serif" font-size="10.00">types</text>
</a>
</g>
</g>
<!-- dir_df2174af3210b9b7833edb75ef66180a&#45;&gt;dir_30ecaf38acae77be14fb9173f98f8612 -->
<g id="edge2" class="edge">
<title>dir_df2174af3210b9b7833edb75ef66180a&#45;&gt;dir_30ecaf38acae77be14fb9173f98f8612</title>
<path fill="none" stroke="#63b8ff" d="M178.49,-70.98C201.66,-62.21 237.97,-48.47 264.1,-38.58"/>
<polygon fill="#63b8ff" stroke="#63b8ff" points="265.45,-41.81 273.56,-34.99 262.97,-35.26 265.45,-41.81"/>
<g id="a_edge2&#45;headlabel"><a xlink:href="dir_000186_000180.html" target="_top" xlink:title="6">
<text text-anchor="middle" x="263.09" y="-43.24" font-family="Helvetica,sans-Serif" font-size="10.00" fill="#63b8ff">6</text>
</a>
</g>
</g>
<!-- dir_4535887b2cdca47e625f259d07db0112 -->
<g id="node7" class="node">
<title>dir_4535887b2cdca47e625f259d07db0112</title>
<g id="a_node7"><a xlink:href="dir_4535887b2cdca47e625f259d07db0112.html" target="_top" xlink:title="util">
<polygon fill="#edf0f7" stroke="#7f7f7f" points="368,-35 336,-35 336,-16 368,-16 368,-35"/>
<text text-anchor="middle" x="352" y="-23" font-family="Helvetica,sans-Serif" font-size="10.00">util</text>
</a>
</g>
</g>
<!-- dir_df2174af3210b9b7833edb75ef66180a&#45;&gt;dir_4535887b2cdca47e625f259d07db0112 -->
<g id="edge3" class="edge">
<title>dir_df2174af3210b9b7833edb75ef66180a&#45;&gt;dir_4535887b2cdca47e625f259d07db0112</title>
<path fill="none" stroke="#63b8ff" d="M181.66,-73.44C213.41,-65.82 269.32,-51.95 326.07,-35.11"/>
<polygon fill="#63b8ff" stroke="#63b8ff" points="327.34,-38.38 335.92,-32.16 325.33,-31.68 327.34,-38.38"/>
<g id="a_edge3&#45;headlabel"><a xlink:href="dir_000186_000185.html" target="_top" xlink:title="14">
<text text-anchor="middle" x="324.71" y="-39.63" font-family="Helvetica,sans-Serif" font-size="10.00" fill="#63b8ff">14</text>
</a>
</g>
</g>
<!-- dir_60d1624911c2c9f7b6f38e44ec895aaa -->
<g id="node8" class="node">
<title>dir_60d1624911c2c9f7b6f38e44ec895aaa</title>
<g id="a_node8"><a xlink:href="dir_60d1624911c2c9f7b6f38e44ec895aaa.html" target="_top" xlink:title="math">
<polygon fill="#edf0f7" stroke="red" stroke-dasharray="5,2" points="428,-35 386,-35 386,-16 428,-16 428,-35"/>
<text text-anchor="middle" x="407" y="-23" font-family="Helvetica,sans-Serif" font-size="10.00">math</text>
</a>
</g>
</g>
<!-- dir_df2174af3210b9b7833edb75ef66180a&#45;&gt;dir_60d1624911c2c9f7b6f38e44ec895aaa -->
<g id="edge4" class="edge">
<title>dir_df2174af3210b9b7833edb75ef66180a&#45;&gt;dir_60d1624911c2c9f7b6f38e44ec895aaa</title>
<path fill="none" stroke="#63b8ff" d="M181.66,-75C221.31,-67.9 300.01,-53.25 376.01,-35.09"/>
<polygon fill="#63b8ff" stroke="#63b8ff" points="376.85,-38.49 385.75,-32.74 375.21,-31.68 376.85,-38.49"/>
<g id="a_edge4&#45;headlabel"><a xlink:href="dir_000186_000117.html" target="_top" xlink:title="1">
<text text-anchor="middle" x="374.02" y="-39.59" font-family="Helvetica,sans-Serif" font-size="10.00" fill="#63b8ff">1</text>
</a>
</g>
</g>
<!-- dir_aaf67126bd5deefc4d96704f76f22cc2 -->
<g id="node9" class="node">
<title>dir_aaf67126bd5deefc4d96704f76f22cc2</title>
<g id="a_node9"><a xlink:href="dir_aaf67126bd5deefc4d96704f76f22cc2.html" target="_top" xlink:title="platform">
<polygon fill="#edf0f7" stroke="#7f7f7f" points="505.5,-35 446.5,-35 446.5,-16 505.5,-16 505.5,-35"/>
<text text-anchor="middle" x="476" y="-23" font-family="Helvetica,sans-Serif" font-size="10.00">platform</text>
</a>
</g>
</g>
<!-- dir_df2174af3210b9b7833edb75ef66180a&#45;&gt;dir_aaf67126bd5deefc4d96704f76f22cc2 -->
<g id="edge5" class="edge">
<title>dir_df2174af3210b9b7833edb75ef66180a&#45;&gt;dir_aaf67126bd5deefc4d96704f76f22cc2</title>
<path fill="none" stroke="#63b8ff" d="M181.66,-75.94C229.58,-69.19 336.15,-53.66 436.25,-35.04"/>
<polygon fill="#63b8ff" stroke="#63b8ff" points="437.04,-38.46 446.23,-33.17 435.75,-31.58 437.04,-38.46"/>
<g id="a_edge5&#45;headlabel"><a xlink:href="dir_000186_000135.html" target="_top" xlink:title="1">
<text text-anchor="middle" x="434.03" y="-39.41" font-family="Helvetica,sans-Serif" font-size="10.00" fill="#63b8ff">1</text>
</a>
</g>
</g>
<!-- dir_f555f996eeee1ebe901dc71e0c5de8ff -->
<g id="node10" class="node">
<title>dir_f555f996eeee1ebe901dc71e0c5de8ff</title>
<g id="a_node10"><a xlink:href="dir_f555f996eeee1ebe901dc71e0c5de8ff.html" target="_top" xlink:title="meta">
<polygon fill="#edf0f7" stroke="#7f7f7f" points="566,-35 524,-35 524,-16 566,-16 566,-35"/>
<text text-anchor="middle" x="545" y="-23" font-family="Helvetica,sans-Serif" font-size="10.00">meta</text>
</a>
</g>
</g>
<!-- dir_df2174af3210b9b7833edb75ef66180a&#45;&gt;dir_f555f996eeee1ebe901dc71e0c5de8ff -->
<g id="edge8" class="edge">
<title>dir_df2174af3210b9b7833edb75ef66180a&#45;&gt;dir_f555f996eeee1ebe901dc71e0c5de8ff</title>
<path fill="none" stroke="#63b8ff" d="M181.9,-77.65C239.77,-73.24 384.01,-60.64 513.69,-34.97"/>
<polygon fill="#63b8ff" stroke="#63b8ff" points="514.68,-38.35 523.79,-32.94 513.3,-31.48 514.68,-38.35"/>
<g id="a_edge8&#45;headlabel"><a xlink:href="dir_000186_000122.html" target="_top" xlink:title="20">
<text text-anchor="middle" x="511.72" y="-39.34" font-family="Helvetica,sans-Serif" font-size="10.00" fill="#63b8ff">20</text>
</a>
</g>
</g>
</g>
</svg>
