<?xml version="1.0" encoding="UTF-8" standalone="no"?>
<!DOCTYPE svg PUBLIC "-//W3C//DTD SVG 1.1//EN"
 "http://www.w3.org/Graphics/SVG/1.1/DTD/svg11.dtd">
<!-- Generated by graphviz version 2.43.0 (0)
 -->
<!-- Title: libs/di/include/di/util Pages: 1 -->
<svg width="694pt" height="133pt"
 viewBox="0.00 0.00 694.00 133.00" xmlns="http://www.w3.org/2000/svg" xmlns:xlink="http://www.w3.org/1999/xlink">
<g id="graph0" class="graph" transform="scale(1 1) rotate(0) translate(4 129)">
<title>libs/di/include/di/util</title>
<g id="clust1" class="cluster">
<title>clusterdir_f95a1a0ab1b96e316090c1bcac3c2c99</title>
<g id="a_clust1"><a xlink:href="dir_f95a1a0ab1b96e316090c1bcac3c2c99.html" target="_top" xlink:title="di">
<polygon fill="#edf0f7" stroke="#7f7f7f" stroke-dasharray="5,2" points="8,-8 8,-117 678,-117 678,-8 8,-8"/>
<text text-anchor="middle" x="343" y="-105" font-family="Helvetica,sans-Serif" font-size="10.00">di</text>
</a>
</g>
</g>
<!-- dir_0669efae56692bb73da75efb5ebbccdf -->
<g id="node1" class="node">
<title>dir_0669efae56692bb73da75efb5ebbccdf</title>
<g id="a_node1"><a xlink:href="dir_0669efae56692bb73da75efb5ebbccdf.html" target="_top" xlink:title="function">
<polygon fill="#a2b4d6" stroke="red" points="72,-35 16,-35 16,-16 72,-16 72,-35"/>
<text text-anchor="middle" x="44" y="-23" font-family="Helvetica,sans-Serif" font-size="10.00">function</text>
</a>
</g>
</g>
<!-- dir_143f1d6bc6d46924c644ec67dc1fb4fc -->
<g id="node2" class="node">
<title>dir_143f1d6bc6d46924c644ec67dc1fb4fc</title>
<g id="a_node2"><a xlink:href="dir_143f1d6bc6d46924c644ec67dc1fb4fc.html" target="_top" xlink:title="bit">
<polygon fill="#a2b4d6" stroke="red" points="119.5,-35 90.5,-35 90.5,-16 119.5,-16 119.5,-35"/>
<text text-anchor="middle" x="105" y="-23" font-family="Helvetica,sans-Serif" font-size="10.00">bit</text>
</a>
</g>
</g>
<!-- dir_30ecaf38acae77be14fb9173f98f8612 -->
<g id="node3" class="node">
<title>dir_30ecaf38acae77be14fb9173f98f8612</title>
<g id="a_node3"><a xlink:href="dir_30ecaf38acae77be14fb9173f98f8612.html" target="_top" xlink:title="types">
<polygon fill="#a2b4d6" stroke="#404040" points="182,-35 138,-35 138,-16 182,-16 182,-35"/>
<text text-anchor="middle" x="160" y="-23" font-family="Helvetica,sans-Serif" font-size="10.00">types</text>
</a>
</g>
</g>
<!-- dir_521de572ae4fe2915cc70a876c52f5b7 -->
<g id="node4" class="node">
<title>dir_521de572ae4fe2915cc70a876c52f5b7</title>
<g id="a_node4"><a xlink:href="dir_521de572ae4fe2915cc70a876c52f5b7.html" target="_top" xlink:title="container">
<polygon fill="#a2b4d6" stroke="red" points="262,-35 200,-35 200,-16 262,-16 262,-35"/>
<text text-anchor="middle" x="231" y="-23" font-family="Helvetica,sans-Serif" font-size="10.00">container</text>
</a>
</g>
</g>
<!-- dir_942cfae36a92b6b1c4b510e99e852d40 -->
<g id="node5" class="node">
<title>dir_942cfae36a92b6b1c4b510e99e852d40</title>
<g id="a_node5"><a xlink:href="dir_942cfae36a92b6b1c4b510e99e852d40.html" target="_top" xlink:title="vocab">
<polygon fill="#a2b4d6" stroke="red" points="326,-35 280,-35 280,-16 326,-16 326,-35"/>
<text text-anchor="middle" x="303" y="-23" font-family="Helvetica,sans-Serif" font-size="10.00">vocab</text>
</a>
</g>
</g>
<!-- dir_aaf67126bd5deefc4d96704f76f22cc2 -->
<g id="node6" class="node">
<title>dir_aaf67126bd5deefc4d96704f76f22cc2</title>
<g id="a_node6"><a xlink:href="dir_aaf67126bd5deefc4d96704f76f22cc2.html" target="_top" xlink:title="platform">
<polygon fill="#a2b4d6" stroke="#404040" points="403.5,-35 344.5,-35 344.5,-16 403.5,-16 403.5,-35"/>
<text text-anchor="middle" x="374" y="-23" font-family="Helvetica,sans-Serif" font-size="10.00">platform</text>
</a>
</g>
</g>
<!-- dir_b53b5446bfdc9bc3aeb10a5b96312bdd -->
<g id="node7" class="node">
<title>dir_b53b5446bfdc9bc3aeb10a5b96312bdd</title>
<g id="a_node7"><a xlink:href="dir_b53b5446bfdc9bc3aeb10a5b96312bdd.html" target="_top" xlink:title="random">
<polygon fill="#a2b4d6" stroke="red" points="476,-35 422,-35 422,-16 476,-16 476,-35"/>
<text text-anchor="middle" x="449" y="-23" font-family="Helvetica,sans-Serif" font-size="10.00">random</text>
</a>
</g>
</g>
<!-- dir_c63ec87f2f7fd7fbd5b69a04f05a2815 -->
<g id="node8" class="node">
<title>dir_c63ec87f2f7fd7fbd5b69a04f05a2815</title>
<g id="a_node8"><a xlink:href="dir_c63ec87f2f7fd7fbd5b69a04f05a2815.html" target="_top" xlink:title="parser">
<polygon fill="#a2b4d6" stroke="red" points="541.5,-35 494.5,-35 494.5,-16 541.5,-16 541.5,-35"/>
<text text-anchor="middle" x="518" y="-23" font-family="Helvetica,sans-Serif" font-size="10.00">parser</text>
</a>
</g>
</g>
<!-- dir_e41b746b2bc627b26c4c637af42fb69a -->
<g id="node9" class="node">
<title>dir_e41b746b2bc627b26c4c637af42fb69a</title>
<g id="a_node9"><a xlink:href="dir_e41b746b2bc627b26c4c637af42fb69a.html" target="_top" xlink:title="format">
<polygon fill="#a2b4d6" stroke="red" points="610,-35 560,-35 560,-16 610,-16 610,-35"/>
<text text-anchor="middle" x="585" y="-23" font-family="Helvetica,sans-Serif" font-size="10.00">format</text>
</a>
</g>
</g>
<!-- dir_f555f996eeee1ebe901dc71e0c5de8ff -->
<g id="node10" class="node">
<title>dir_f555f996eeee1ebe901dc71e0c5de8ff</title>
<g id="a_node10"><a xlink:href="dir_f555f996eeee1ebe901dc71e0c5de8ff.html" target="_top" xlink:title="meta">
<polygon fill="#a2b4d6" stroke="#404040" points="670,-35 628,-35 628,-16 670,-16 670,-35"/>
<text text-anchor="middle" x="649" y="-23" font-family="Helvetica,sans-Serif" font-size="10.00">meta</text>
</a>
</g>
</g>
<!-- dir_4535887b2cdca47e625f259d07db0112 -->
<g id="node11" class="node">
<title>dir_4535887b2cdca47e625f259d07db0112</title>
<g id="a_node11"><a xlink:href="dir_4535887b2cdca47e625f259d07db0112.html" target="_top" xlink:title="util">
<polygon fill="#edf0f7" stroke="#404040" stroke-width="2" points="354,-90 322,-90 322,-71 354,-71 354,-90"/>
<text text-anchor="middle" x="338" y="-78" font-family="Helvetica,sans-Serif" font-size="10.00">util</text>
</a>
</g>
</g>
<!-- dir_4535887b2cdca47e625f259d07db0112&#45;&gt;dir_0669efae56692bb73da75efb5ebbccdf -->
<g id="edge1" class="edge">
<title>dir_4535887b2cdca47e625f259d07db0112&#45;&gt;dir_0669efae56692bb73da75efb5ebbccdf</title>
<path fill="none" stroke="#63b8ff" d="M321.78,-76.96C281.23,-70.54 172.26,-52.93 82,-35 81.9,-34.98 81.8,-34.96 81.7,-34.94"/>
<polygon fill="#63b8ff" stroke="#63b8ff" points="82.69,-31.57 72.19,-32.96 81.27,-38.43 82.69,-31.57"/>
<g id="a_edge1&#45;headlabel"><a xlink:href="dir_000185_000082.html" target="_top" xlink:title="14">
<text text-anchor="middle" x="86.79" y="-27.02" font-family="Helvetica,sans-Serif" font-size="10.00" fill="#63b8ff">14</text>
</a>
</g>
</g>
<!-- dir_4535887b2cdca47e625f259d07db0112&#45;&gt;dir_143f1d6bc6d46924c644ec67dc1fb4fc -->
<g id="edge2" class="edge">
<title>dir_4535887b2cdca47e625f259d07db0112&#45;&gt;dir_143f1d6bc6d46924c644ec67dc1fb4fc</title>
<path fill="none" stroke="#63b8ff" d="M321.83,-76.8C287.94,-70.99 206.89,-56.28 129.53,-34.81"/>
<polygon fill="#63b8ff" stroke="#63b8ff" points="130.2,-31.37 119.63,-32.02 128.3,-38.1 130.2,-31.37"/>
<g id="a_edge2&#45;headlabel"><a xlink:href="dir_000185_000022.html" target="_top" xlink:title="1">
<text text-anchor="middle" x="134.43" y="-27.11" font-family="Helvetica,sans-Serif" font-size="10.00" fill="#63b8ff">1</text>
</a>
</g>
</g>
<!-- dir_4535887b2cdca47e625f259d07db0112&#45;&gt;dir_30ecaf38acae77be14fb9173f98f8612 -->
<g id="edge3" class="edge">
<title>dir_4535887b2cdca47e625f259d07db0112&#45;&gt;dir_30ecaf38acae77be14fb9173f98f8612</title>
<path fill="none" stroke="#63b8ff" d="M321.89,-74.7C292.59,-65.98 230.07,-47.36 191.88,-35.99"/>
<polygon fill="#63b8ff" stroke="#63b8ff" points="192.84,-32.63 182.26,-33.13 190.84,-39.34 192.84,-32.63"/>
<g id="a_edge3&#45;headlabel"><a xlink:href="dir_000185_000180.html" target="_top" xlink:title="13">
<text text-anchor="middle" x="197.1" y="-28.43" font-family="Helvetica,sans-Serif" font-size="10.00" fill="#63b8ff">13</text>
</a>
</g>
</g>
<!-- dir_4535887b2cdca47e625f259d07db0112&#45;&gt;dir_521de572ae4fe2915cc70a876c52f5b7 -->
<g id="edge4" class="edge">
<title>dir_4535887b2cdca47e625f259d07db0112&#45;&gt;dir_521de572ae4fe2915cc70a876c52f5b7</title>
<path fill="none" stroke="#63b8ff" d="M321.75,-71.45C304.69,-63 277.6,-49.58 257.45,-39.6"/>
<polygon fill="#63b8ff" stroke="#63b8ff" points="258.99,-36.46 248.47,-35.15 255.88,-42.73 258.99,-36.46"/>
<g id="a_edge4&#45;headlabel"><a xlink:href="dir_000185_000046.html" target="_top" xlink:title="2">
<text text-anchor="middle" x="263.47" y="-33.01" font-family="Helvetica,sans-Serif" font-size="10.00" fill="#63b8ff">2</text>
</a>
</g>
</g>
<!-- dir_4535887b2cdca47e625f259d07db0112&#45;&gt;dir_942cfae36a92b6b1c4b510e99e852d40 -->
<g id="edge5" class="edge">
<title>dir_4535887b2cdca47e625f259d07db0112&#45;&gt;dir_942cfae36a92b6b1c4b510e99e852d40</title>
<path fill="none" stroke="#63b8ff" d="M332.22,-70.75C327.38,-63.42 320.32,-52.73 314.36,-43.7"/>
<polygon fill="#63b8ff" stroke="#63b8ff" points="317.1,-41.5 308.67,-35.09 311.26,-45.36 317.1,-41.5"/>
<g id="a_edge5&#45;headlabel"><a xlink:href="dir_000185_000189.html" target="_top" xlink:title="8">
<text text-anchor="middle" x="321.45" y="-40.44" font-family="Helvetica,sans-Serif" font-size="10.00" fill="#63b8ff">8</text>
</a>
</g>
</g>
<!-- dir_4535887b2cdca47e625f259d07db0112&#45;&gt;dir_aaf67126bd5deefc4d96704f76f22cc2 -->
<g id="edge6" class="edge">
<title>dir_4535887b2cdca47e625f259d07db0112&#45;&gt;dir_aaf67126bd5deefc4d96704f76f22cc2</title>
<path fill="none" stroke="#63b8ff" d="M343.94,-70.75C348.98,-63.34 356.34,-52.5 362.51,-43.41"/>
<polygon fill="#63b8ff" stroke="#63b8ff" points="365.44,-45.33 368.17,-35.09 359.65,-41.39 365.44,-45.33"/>
<g id="a_edge6&#45;headlabel"><a xlink:href="dir_000185_000135.html" target="_top" xlink:title="2">
<text text-anchor="middle" x="365.77" y="-47.4" font-family="Helvetica,sans-Serif" font-size="10.00" fill="#63b8ff">2</text>
</a>
</g>
</g>
<!-- dir_4535887b2cdca47e625f259d07db0112&#45;&gt;dir_b53b5446bfdc9bc3aeb10a5b96312bdd -->
<g id="edge7" class="edge">
<title>dir_4535887b2cdca47e625f259d07db0112&#45;&gt;dir_b53b5446bfdc9bc3aeb10a5b96312bdd</title>
<path fill="none" stroke="#63b8ff" d="M354.38,-71.68C372.16,-63.19 400.84,-49.5 421.97,-39.41"/>
<polygon fill="#63b8ff" stroke="#63b8ff" points="423.57,-42.52 431.08,-35.06 420.55,-36.21 423.57,-42.52"/>
<g id="a_edge7&#45;headlabel"><a xlink:href="dir_000185_000142.html" target="_top" xlink:title="1">
<text text-anchor="middle" x="421.54" y="-44.13" font-family="Helvetica,sans-Serif" font-size="10.00" fill="#63b8ff">1</text>
</a>
</g>
</g>
<!-- dir_4535887b2cdca47e625f259d07db0112&#45;&gt;dir_c63ec87f2f7fd7fbd5b69a04f05a2815 -->
<g id="edge8" class="edge">
<title>dir_4535887b2cdca47e625f259d07db0112&#45;&gt;dir_c63ec87f2f7fd7fbd5b69a04f05a2815</title>
<path fill="none" stroke="#63b8ff" d="M354.29,-74.7C383.61,-66.07 445.79,-47.76 484.51,-36.36"/>
<polygon fill="#63b8ff" stroke="#63b8ff" points="485.69,-39.66 494.3,-33.48 483.71,-32.95 485.69,-39.66"/>
<g id="a_edge8&#45;headlabel"><a xlink:href="dir_000185_000133.html" target="_top" xlink:title="1">
<text text-anchor="middle" x="483.04" y="-40.9" font-family="Helvetica,sans-Serif" font-size="10.00" fill="#63b8ff">1</text>
</a>
</g>
</g>
<!-- dir_4535887b2cdca47e625f259d07db0112&#45;&gt;dir_e41b746b2bc627b26c4c637af42fb69a -->
<g id="edge9" class="edge">
<title>dir_4535887b2cdca47e625f259d07db0112&#45;&gt;dir_e41b746b2bc627b26c4c637af42fb69a</title>
<path fill="none" stroke="#63b8ff" d="M354.08,-76.36C388.2,-69.66 470.59,-53.23 549.65,-35.24"/>
<polygon fill="#63b8ff" stroke="#63b8ff" points="550.81,-38.57 559.78,-32.92 549.25,-31.74 550.81,-38.57"/>
<g id="a_edge9&#45;headlabel"><a xlink:href="dir_000185_000079.html" target="_top" xlink:title="2">
<text text-anchor="middle" x="547.94" y="-39.63" font-family="Helvetica,sans-Serif" font-size="10.00" fill="#63b8ff">2</text>
</a>
</g>
</g>
<!-- dir_4535887b2cdca47e625f259d07db0112&#45;&gt;dir_f555f996eeee1ebe901dc71e0c5de8ff -->
<g id="edge10" class="edge">
<title>dir_4535887b2cdca47e625f259d07db0112&#45;&gt;dir_f555f996eeee1ebe901dc71e0c5de8ff</title>
<path fill="none" stroke="#63b8ff" d="M354.28,-77.61C396.33,-72.59 512.09,-57.85 617.9,-35.01"/>
<polygon fill="#63b8ff" stroke="#63b8ff" points="618.75,-38.41 627.77,-32.85 617.26,-31.57 618.75,-38.41"/>
<g id="a_edge10&#45;headlabel"><a xlink:href="dir_000185_000122.html" target="_top" xlink:title="48">
<text text-anchor="middle" x="615.85" y="-39.45" font-family="Helvetica,sans-Serif" font-size="10.00" fill="#63b8ff">48</text>
</a>
</g>
</g>
</g>
</svg>
