<?xml version="1.0" encoding="UTF-8" standalone="no"?>
<!DOCTYPE svg PUBLIC "-//W3C//DTD SVG 1.1//EN"
 "http://www.w3.org/Graphics/SVG/1.1/DTD/svg11.dtd">
<!-- Generated by graphviz version 2.43.0 (0)
 -->
<!-- Title: iris/include/iris/arch Pages: 1 -->
<svg width="274pt" height="141pt"
 viewBox="0.00 0.00 274.00 141.00" xmlns="http://www.w3.org/2000/svg" xmlns:xlink="http://www.w3.org/1999/xlink">
<g id="graph0" class="graph" transform="scale(1 1) rotate(0) translate(4 137)">
<title>iris/include/iris/arch</title>
<g id="clust1" class="cluster">
<title>clusterdir_ffe5edf85fa540270b5bdba28be40ae5</title>
<g id="a_clust1"><a xlink:href="dir_ffe5edf85fa540270b5bdba28be40ae5.html" target="_top" xlink:title="iris">
<polygon fill="#edf0f7" stroke="#7f7f7f" stroke-dasharray="5,2" points="8,-8 8,-125 222,-125 222,-8 8,-8"/>
<text text-anchor="middle" x="115" y="-113" font-family="Helvetica,sans-Serif" font-size="10.00">iris</text>
</a>
</g>
</g>
<g id="clust2" class="cluster">
<title>clusterdir_5fe499bcb7f32920606defa2f08a6cab</title>
<g id="a_clust2"><a xlink:href="dir_5fe499bcb7f32920606defa2f08a6cab.html" target="_top">
<polygon fill="#edf0f7" stroke="#404040" stroke-width="2" points="106,-63 106,-98 214,-98 214,-63 106,-63"/>
</a>
</g>
</g>
<!-- dir_945708b8d3397c2507c5e618c4393ffa -->
<g id="node1" class="node">
<title>dir_945708b8d3397c2507c5e618c4393ffa</title>
<g id="a_node1"><a xlink:href="dir_945708b8d3397c2507c5e618c4393ffa.html" target="_top" xlink:title="mm">
<polygon fill="#a2b4d6" stroke="#404040" points="52,-35 16,-35 16,-16 52,-16 52,-35"/>
<text text-anchor="middle" x="34" y="-23" font-family="Helvetica,sans-Serif" font-size="10.00">mm</text>
</a>
</g>
</g>
<!-- dir_7cd5da72e38cd0f075d57a788b4f2242 -->
<g id="node2" class="node">
<title>dir_7cd5da72e38cd0f075d57a788b4f2242</title>
<g id="a_node2"><a xlink:href="dir_7cd5da72e38cd0f075d57a788b4f2242.html" target="_top" xlink:title="hw">
<polygon fill="#a2b4d6" stroke="red" points="101.5,-35 70.5,-35 70.5,-16 101.5,-16 101.5,-35"/>
<text text-anchor="middle" x="86" y="-23" font-family="Helvetica,sans-Serif" font-size="10.00">hw</text>
</a>
</g>
</g>
<!-- dir_be381e3b7aa79a91c125f50d5abcc4e9 -->
<g id="node3" class="node">
<title>dir_be381e3b7aa79a91c125f50d5abcc4e9</title>
<g id="a_node3"><a xlink:href="dir_be381e3b7aa79a91c125f50d5abcc4e9.html" target="_top" xlink:title="core">
<polygon fill="#a2b4d6" stroke="#404040" points="158,-35 120,-35 120,-16 158,-16 158,-35"/>
<text text-anchor="middle" x="139" y="-23" font-family="Helvetica,sans-Serif" font-size="10.00">core</text>
</a>
</g>
</g>
<!-- dir_0d9b91d0f0b9ec0856341172f56c0a57 -->
<g id="node4" class="node">
<title>dir_0d9b91d0f0b9ec0856341172f56c0a57</title>
<g id="a_node4"><a xlink:href="dir_0d9b91d0f0b9ec0856341172f56c0a57.html" target="_top" xlink:title="uapi">
<polygon fill="#a2b4d6" stroke="#404040" points="214,-35 176,-35 176,-16 214,-16 214,-35"/>
<text text-anchor="middle" x="195" y="-23" font-family="Helvetica,sans-Serif" font-size="10.00">uapi</text>
</a>
</g>
</g>
<!-- dir_5fe499bcb7f32920606defa2f08a6cab -->
<g id="node5" class="node">
<title>dir_5fe499bcb7f32920606defa2f08a6cab</title>
<text text-anchor="middle" x="187" y="-78" font-family="Helvetica,sans-Serif" font-size="10.00">arch</text>
</g>
<!-- dir_407e6dd7785b117805c64851fb4bc1a2 -->
<g id="node6" class="node">
<title>dir_407e6dd7785b117805c64851fb4bc1a2</title>
<g id="a_node6"><a xlink:href="dir_407e6dd7785b117805c64851fb4bc1a2.html" target="_top" xlink:title="x86">
<polygon fill="#a2b4d6" stroke="#404040" points="149.5,-90 114.5,-90 114.5,-71 149.5,-71 149.5,-90"/>
<text text-anchor="middle" x="132" y="-78" font-family="Helvetica,sans-Serif" font-size="10.00">x86</text>
</a>
</g>
</g>
<!-- dir_407e6dd7785b117805c64851fb4bc1a2&#45;&gt;dir_945708b8d3397c2507c5e618c4393ffa -->
<g id="edge4" class="edge">
<title>dir_407e6dd7785b117805c64851fb4bc1a2&#45;&gt;dir_945708b8d3397c2507c5e618c4393ffa</title>
<path fill="none" stroke="#63b8ff" d="M116.25,-70.98C100.77,-62.61 76.91,-49.7 58.86,-39.95"/>
<polygon fill="#63b8ff" stroke="#63b8ff" points="60.49,-36.85 50.03,-35.17 57.16,-43.01 60.49,-36.85"/>
<g id="a_edge4&#45;headlabel"><a xlink:href="dir_000192_000126.html" target="_top" xlink:title="4">
<text text-anchor="middle" x="65.01" y="-33.56" font-family="Helvetica,sans-Serif" font-size="10.00" fill="#63b8ff">4</text>
</a>
</g>
</g>
<!-- dir_407e6dd7785b117805c64851fb4bc1a2&#45;&gt;dir_7cd5da72e38cd0f075d57a788b4f2242 -->
<g id="edge3" class="edge">
<title>dir_407e6dd7785b117805c64851fb4bc1a2&#45;&gt;dir_7cd5da72e38cd0f075d57a788b4f2242</title>
<path fill="none" stroke="#63b8ff" d="M124.4,-70.75C117.84,-63.18 108.18,-52.05 100.19,-42.84"/>
<polygon fill="#63b8ff" stroke="#63b8ff" points="102.65,-40.35 93.45,-35.09 97.37,-44.94 102.65,-40.35"/>
<g id="a_edge3&#45;headlabel"><a xlink:href="dir_000192_000089.html" target="_top" xlink:title="4">
<text text-anchor="middle" x="107.15" y="-38.7" font-family="Helvetica,sans-Serif" font-size="10.00" fill="#63b8ff">4</text>
</a>
</g>
</g>
<!-- dir_407e6dd7785b117805c64851fb4bc1a2&#45;&gt;dir_be381e3b7aa79a91c125f50d5abcc4e9 -->
<g id="edge5" class="edge">
<title>dir_407e6dd7785b117805c64851fb4bc1a2&#45;&gt;dir_be381e3b7aa79a91c125f50d5abcc4e9</title>
<path fill="none" stroke="#63b8ff" d="M133.16,-70.75C134.07,-63.8 135.39,-53.85 136.54,-45.13"/>
<polygon fill="#63b8ff" stroke="#63b8ff" points="140.03,-45.46 137.87,-35.09 133.09,-44.54 140.03,-45.46"/>
<g id="a_edge5&#45;headlabel"><a xlink:href="dir_000192_000052.html" target="_top" xlink:title="1">
<text text-anchor="middle" x="142.37" y="-46.9" font-family="Helvetica,sans-Serif" font-size="10.00" fill="#63b8ff">1</text>
</a>
</g>
</g>
<!-- dir_407e6dd7785b117805c64851fb4bc1a2&#45;&gt;dir_0d9b91d0f0b9ec0856341172f56c0a57 -->
<g id="edge1" class="edge">
<title>dir_407e6dd7785b117805c64851fb4bc1a2&#45;&gt;dir_0d9b91d0f0b9ec0856341172f56c0a57</title>
<path fill="none" stroke="#63b8ff" d="M142.12,-70.98C151.44,-63.15 165.47,-51.34 176.74,-41.86"/>
<polygon fill="#63b8ff" stroke="#63b8ff" points="179.29,-44.29 184.69,-35.17 174.79,-38.93 179.29,-44.29"/>
<g id="a_edge1&#45;headlabel"><a xlink:href="dir_000192_000181.html" target="_top" xlink:title="1">
<text text-anchor="middle" x="178.37" y="-46.27" font-family="Helvetica,sans-Serif" font-size="10.00" fill="#63b8ff">1</text>
</a>
</g>
</g>
<!-- dir_6719ab1f1f7655efc2fa43f7eb574fd1 -->
<g id="node7" class="node">
<title>dir_6719ab1f1f7655efc2fa43f7eb574fd1</title>
<g id="a_node7"><a xlink:href="dir_6719ab1f1f7655efc2fa43f7eb574fd1.html" target="_top" xlink:title="libs">
<polygon fill="#edf0f7" stroke="red" points="266,-35 232,-35 232,-16 266,-16 266,-35"/>
<text text-anchor="middle" x="249" y="-23" font-family="Helvetica,sans-Serif" font-size="10.00">libs</text>
</a>
</g>
</g>
<!-- dir_407e6dd7785b117805c64851fb4bc1a2&#45;&gt;dir_6719ab1f1f7655efc2fa43f7eb574fd1 -->
<g id="edge2" class="edge">
<title>dir_407e6dd7785b117805c64851fb4bc1a2&#45;&gt;dir_6719ab1f1f7655efc2fa43f7eb574fd1</title>
<path fill="none" stroke="#63b8ff" d="M145.21,-70.83C149.52,-68.17 154.39,-65.32 159,-63 170.42,-57.24 199.93,-45.48 222.07,-36.86"/>
<polygon fill="#63b8ff" stroke="#63b8ff" points="223.57,-40.03 231.63,-33.16 221.04,-33.51 223.57,-40.03"/>
<g id="a_edge2&#45;headlabel"><a xlink:href="dir_000192_000109.html" target="_top" xlink:title="23">
<text text-anchor="middle" x="221.24" y="-41.48" font-family="Helvetica,sans-Serif" font-size="10.00" fill="#63b8ff">23</text>
</a>
</g>
</g>
</g>
</svg>
