<?xml version="1.0" encoding="UTF-8" standalone="no"?>
<!DOCTYPE svg PUBLIC "-//W3C//DTD SVG 1.1//EN"
 "http://www.w3.org/Graphics/SVG/1.1/DTD/svg11.dtd">
<!-- Generated by graphviz version 2.43.0 (0)
 -->
<!-- Title: iris/include/iris/arch/x86/amd64 Pages: 1 -->
<svg width="312pt" height="180pt"
 viewBox="0.00 0.00 311.98 180.00" xmlns="http://www.w3.org/2000/svg" xmlns:xlink="http://www.w3.org/1999/xlink">
<g id="graph0" class="graph" transform="scale(1 1) rotate(0) translate(4 176)">
<title>iris/include/iris/arch/x86/amd64</title>
<g id="clust1" class="cluster">
<title>clusterdir_407e6dd7785b117805c64851fb4bc1a2</title>
<g id="a_clust1"><a xlink:href="dir_407e6dd7785b117805c64851fb4bc1a2.html" target="_top" xlink:title="x86">
<polygon fill="#edf0f7" stroke="#7f7f7f" stroke-dasharray="5,2" points="29.98,-39 29.98,-164 167.98,-164 167.98,-39 29.98,-39"/>
<text text-anchor="middle" x="98.98" y="-152" font-family="Helvetica,sans-Serif" font-size="10.00">x86</text>
</a>
</g>
</g>
<g id="clust2" class="cluster">
<title>clusterdir_69ecb03340787322ec15c613fc74d859</title>
<g id="a_clust2"><a xlink:href="dir_69ecb03340787322ec15c613fc74d859.html" target="_top">
<polygon fill="#edf0f7" stroke="#404040" stroke-width="2" points="37.98,-47 37.98,-137 159.98,-137 159.98,-47 37.98,-47"/>
</a>
</g>
</g>
<!-- dir_69ecb03340787322ec15c613fc74d859 -->
<g id="node1" class="node">
<title>dir_69ecb03340787322ec15c613fc74d859</title>
<text text-anchor="middle" x="70.98" y="-117" font-family="Helvetica,sans-Serif" font-size="10.00">amd64</text>
</g>
<!-- dir_6719ab1f1f7655efc2fa43f7eb574fd1 -->
<g id="node4" class="node">
<title>dir_6719ab1f1f7655efc2fa43f7eb574fd1</title>
<g id="a_node4"><a xlink:href="dir_6719ab1f1f7655efc2fa43f7eb574fd1.html" target="_top" xlink:title="libs">
<polygon fill="#edf0f7" stroke="red" points="34.98,-19 0.98,-19 0.98,0 34.98,0 34.98,-19"/>
<text text-anchor="middle" x="17.98" y="-7" font-family="Helvetica,sans-Serif" font-size="10.00">libs</text>
</a>
</g>
</g>
<!-- dir_69ecb03340787322ec15c613fc74d859&#45;&gt;dir_6719ab1f1f7655efc2fa43f7eb574fd1 -->
<g id="edge1" class="edge">
<title>dir_69ecb03340787322ec15c613fc74d859&#45;&gt;dir_6719ab1f1f7655efc2fa43f7eb574fd1</title>
<path fill="none" stroke="#63b8ff" d="M47.87,-109.98C32.39,-102.92 13.22,-91.23 3.98,-74 -3.67,-59.73 1.64,-41.52 7.8,-28.26"/>
<polygon fill="#63b8ff" stroke="#63b8ff" points="10.98,-29.72 12.47,-19.23 4.77,-26.5 10.98,-29.72"/>
<g id="a_edge1&#45;headlabel"><a xlink:href="dir_000007_000109.html" target="_top" xlink:title="23">
<text text-anchor="middle" x="11.85" y="-31.72" font-family="Helvetica,sans-Serif" font-size="10.00" fill="#63b8ff">23</text>
</a>
</g>
</g>
<!-- dir_945708b8d3397c2507c5e618c4393ffa -->
<g id="node5" class="node">
<title>dir_945708b8d3397c2507c5e618c4393ffa</title>
<g id="a_node5"><a xlink:href="dir_945708b8d3397c2507c5e618c4393ffa.html" target="_top" xlink:title="mm">
<polygon fill="#edf0f7" stroke="#7f7f7f" points="123.98,-19 87.98,-19 87.98,0 123.98,0 123.98,-19"/>
<text text-anchor="middle" x="105.98" y="-7" font-family="Helvetica,sans-Serif" font-size="10.00">mm</text>
</a>
</g>
</g>
<!-- dir_69ecb03340787322ec15c613fc74d859&#45;&gt;dir_945708b8d3397c2507c5e618c4393ffa -->
<g id="edge2" class="edge">
<title>dir_69ecb03340787322ec15c613fc74d859&#45;&gt;dir_945708b8d3397c2507c5e618c4393ffa</title>
<path fill="none" stroke="#63b8ff" d="M73.9,-109.99C76.97,-101.04 81.89,-86.56 85.98,-74 90.91,-58.87 96.32,-41.65 100.27,-28.96"/>
<polygon fill="#63b8ff" stroke="#63b8ff" points="103.7,-29.73 103.32,-19.15 97.01,-27.66 103.7,-29.73"/>
<g id="a_edge2&#45;headlabel"><a xlink:href="dir_000007_000126.html" target="_top" xlink:title="4">
<text text-anchor="middle" x="105.34" y="-31.51" font-family="Helvetica,sans-Serif" font-size="10.00" fill="#63b8ff">4</text>
</a>
</g>
</g>
<!-- dir_20d17feb9c2a141ce639d72d812af749 -->
<g id="node2" class="node">
<title>dir_20d17feb9c2a141ce639d72d812af749</title>
<g id="a_node2"><a xlink:href="dir_20d17feb9c2a141ce639d72d812af749.html" target="_top" xlink:title="core">
<polygon fill="#a2b4d6" stroke="#404040" points="151.98,-129 113.98,-129 113.98,-110 151.98,-110 151.98,-129"/>
<text text-anchor="middle" x="132.98" y="-117" font-family="Helvetica,sans-Serif" font-size="10.00">core</text>
</a>
</g>
</g>
<!-- dir_786015ac58edb6a34d6ae4d90a813fcf -->
<g id="node3" class="node">
<title>dir_786015ac58edb6a34d6ae4d90a813fcf</title>
<g id="a_node3"><a xlink:href="dir_786015ac58edb6a34d6ae4d90a813fcf.html" target="_top" xlink:title="hw">
<polygon fill="#a2b4d6" stroke="#404040" points="77.48,-74 46.48,-74 46.48,-55 77.48,-55 77.48,-74"/>
<text text-anchor="middle" x="61.98" y="-62" font-family="Helvetica,sans-Serif" font-size="10.00">hw</text>
</a>
</g>
</g>
<!-- dir_20d17feb9c2a141ce639d72d812af749&#45;&gt;dir_786015ac58edb6a34d6ae4d90a813fcf -->
<g id="edge5" class="edge">
<title>dir_20d17feb9c2a141ce639d72d812af749&#45;&gt;dir_786015ac58edb6a34d6ae4d90a813fcf</title>
<path fill="none" stroke="#63b8ff" d="M121.57,-109.98C110.87,-102 94.64,-89.88 81.82,-80.31"/>
<polygon fill="#63b8ff" stroke="#63b8ff" points="83.7,-77.35 73.59,-74.17 79.51,-82.96 83.7,-77.35"/>
<g id="a_edge5&#45;headlabel"><a xlink:href="dir_000051_000088.html" target="_top" xlink:title="1">
<text text-anchor="middle" x="88.28" y="-74.72" font-family="Helvetica,sans-Serif" font-size="10.00" fill="#63b8ff">1</text>
</a>
</g>
</g>
<!-- dir_20d17feb9c2a141ce639d72d812af749&#45;&gt;dir_6719ab1f1f7655efc2fa43f7eb574fd1 -->
<g id="edge4" class="edge">
<title>dir_20d17feb9c2a141ce639d72d812af749&#45;&gt;dir_6719ab1f1f7655efc2fa43f7eb574fd1</title>
<path fill="none" stroke="#63b8ff" d="M113.81,-111.76C88.97,-102.67 47.56,-86.22 36.98,-74 26.27,-61.63 21.59,-43.41 19.55,-29.66"/>
<polygon fill="#63b8ff" stroke="#63b8ff" points="22.99,-28.92 18.39,-19.38 16.04,-29.71 22.99,-28.92"/>
<g id="a_edge4&#45;headlabel"><a xlink:href="dir_000051_000109.html" target="_top" xlink:title="3">
<text text-anchor="middle" x="26.22" y="-29.67" font-family="Helvetica,sans-Serif" font-size="10.00" fill="#63b8ff">3</text>
</a>
</g>
</g>
<!-- dir_20d17feb9c2a141ce639d72d812af749&#45;&gt;dir_945708b8d3397c2507c5e618c4393ffa -->
<g id="edge7" class="edge">
<title>dir_20d17feb9c2a141ce639d72d812af749&#45;&gt;dir_945708b8d3397c2507c5e618c4393ffa</title>
<path fill="none" stroke="#63b8ff" d="M132.41,-109.95C131.24,-95.18 127.98,-64.04 119.98,-39 118.84,-35.43 117.31,-31.74 115.69,-28.25"/>
<polygon fill="#63b8ff" stroke="#63b8ff" points="118.74,-26.53 111.09,-19.2 112.5,-29.7 118.74,-26.53"/>
<g id="a_edge7&#45;headlabel"><a xlink:href="dir_000051_000126.html" target="_top" xlink:title="1">
<text text-anchor="middle" x="122.9" y="-25.95" font-family="Helvetica,sans-Serif" font-size="10.00" fill="#63b8ff">1</text>
</a>
</g>
</g>
<!-- dir_7cd5da72e38cd0f075d57a788b4f2242 -->
<g id="node6" class="node">
<title>dir_7cd5da72e38cd0f075d57a788b4f2242</title>
<g id="a_node6"><a xlink:href="dir_7cd5da72e38cd0f075d57a788b4f2242.html" target="_top" xlink:title="hw">
<polygon fill="#edf0f7" stroke="red" stroke-dasharray="5,2" points="185.48,-19 154.48,-19 154.48,0 185.48,0 185.48,-19"/>
<text text-anchor="middle" x="169.98" y="-7" font-family="Helvetica,sans-Serif" font-size="10.00">hw</text>
</a>
</g>
</g>
<!-- dir_20d17feb9c2a141ce639d72d812af749&#45;&gt;dir_7cd5da72e38cd0f075d57a788b4f2242 -->
<g id="edge6" class="edge">
<title>dir_20d17feb9c2a141ce639d72d812af749&#45;&gt;dir_7cd5da72e38cd0f075d57a788b4f2242</title>
<path fill="none" stroke="#63b8ff" d="M136.01,-109.66C142.05,-92.01 155.73,-52.09 163.77,-28.64"/>
<polygon fill="#63b8ff" stroke="#63b8ff" points="167.08,-29.75 167.01,-19.16 160.46,-27.48 167.08,-29.75"/>
<g id="a_edge6&#45;headlabel"><a xlink:href="dir_000051_000089.html" target="_top" xlink:title="2">
<text text-anchor="middle" x="168.6" y="-31.57" font-family="Helvetica,sans-Serif" font-size="10.00" fill="#63b8ff">2</text>
</a>
</g>
</g>
<!-- dir_be381e3b7aa79a91c125f50d5abcc4e9 -->
<g id="node7" class="node">
<title>dir_be381e3b7aa79a91c125f50d5abcc4e9</title>
<g id="a_node7"><a xlink:href="dir_be381e3b7aa79a91c125f50d5abcc4e9.html" target="_top" xlink:title="core">
<polygon fill="#edf0f7" stroke="#7f7f7f" points="247.98,-74 209.98,-74 209.98,-55 247.98,-55 247.98,-74"/>
<text text-anchor="middle" x="228.98" y="-62" font-family="Helvetica,sans-Serif" font-size="10.00">core</text>
</a>
</g>
</g>
<!-- dir_20d17feb9c2a141ce639d72d812af749&#45;&gt;dir_be381e3b7aa79a91c125f50d5abcc4e9 -->
<g id="edge8" class="edge">
<title>dir_20d17feb9c2a141ce639d72d812af749&#45;&gt;dir_be381e3b7aa79a91c125f50d5abcc4e9</title>
<path fill="none" stroke="#63b8ff" d="M148.4,-109.98C163.43,-101.69 186.52,-88.94 204.14,-79.22"/>
<polygon fill="#63b8ff" stroke="#63b8ff" points="206.21,-82.07 213.27,-74.17 202.83,-75.94 206.21,-82.07"/>
<g id="a_edge8&#45;headlabel"><a xlink:href="dir_000051_000052.html" target="_top" xlink:title="1">
<text text-anchor="middle" x="204.44" y="-83.79" font-family="Helvetica,sans-Serif" font-size="10.00" fill="#63b8ff">1</text>
</a>
</g>
</g>
<!-- dir_0d9b91d0f0b9ec0856341172f56c0a57 -->
<g id="node8" class="node">
<title>dir_0d9b91d0f0b9ec0856341172f56c0a57</title>
<g id="a_node8"><a xlink:href="dir_0d9b91d0f0b9ec0856341172f56c0a57.html" target="_top" xlink:title="uapi">
<polygon fill="#edf0f7" stroke="#7f7f7f" points="303.98,-74 265.98,-74 265.98,-55 303.98,-55 303.98,-74"/>
<text text-anchor="middle" x="284.98" y="-62" font-family="Helvetica,sans-Serif" font-size="10.00">uapi</text>
</a>
</g>
</g>
<!-- dir_20d17feb9c2a141ce639d72d812af749&#45;&gt;dir_0d9b91d0f0b9ec0856341172f56c0a57 -->
<g id="edge3" class="edge">
<title>dir_20d17feb9c2a141ce639d72d812af749&#45;&gt;dir_0d9b91d0f0b9ec0856341172f56c0a57</title>
<path fill="none" stroke="#63b8ff" d="M152.23,-111.79C178.5,-102.63 225.78,-86.14 256.25,-75.52"/>
<polygon fill="#63b8ff" stroke="#63b8ff" points="257.59,-78.76 265.88,-72.16 255.29,-72.15 257.59,-78.76"/>
<g id="a_edge3&#45;headlabel"><a xlink:href="dir_000051_000181.html" target="_top" xlink:title="1">
<text text-anchor="middle" x="255.13" y="-80.12" font-family="Helvetica,sans-Serif" font-size="10.00" fill="#63b8ff">1</text>
</a>
</g>
</g>
<!-- dir_786015ac58edb6a34d6ae4d90a813fcf&#45;&gt;dir_6719ab1f1f7655efc2fa43f7eb574fd1 -->
<g id="edge9" class="edge">
<title>dir_786015ac58edb6a34d6ae4d90a813fcf&#45;&gt;dir_6719ab1f1f7655efc2fa43f7eb574fd1</title>
<path fill="none" stroke="#63b8ff" d="M54.71,-54.75C48.43,-47.18 39.19,-36.05 31.55,-26.84"/>
<polygon fill="#63b8ff" stroke="#63b8ff" points="34.19,-24.55 25.11,-19.09 28.8,-29.02 34.19,-24.55"/>
<g id="a_edge9&#45;headlabel"><a xlink:href="dir_000088_000109.html" target="_top" xlink:title="10">
<text text-anchor="middle" x="38.67" y="-23" font-family="Helvetica,sans-Serif" font-size="10.00" fill="#63b8ff">10</text>
</a>
</g>
</g>
<!-- dir_786015ac58edb6a34d6ae4d90a813fcf&#45;&gt;dir_945708b8d3397c2507c5e618c4393ffa -->
<g id="edge11" class="edge">
<title>dir_786015ac58edb6a34d6ae4d90a813fcf&#45;&gt;dir_945708b8d3397c2507c5e618c4393ffa</title>
<path fill="none" stroke="#63b8ff" d="M69.24,-54.75C75.52,-47.18 84.77,-36.05 92.41,-26.84"/>
<polygon fill="#63b8ff" stroke="#63b8ff" points="95.15,-29.02 98.85,-19.09 89.77,-24.55 95.15,-29.02"/>
<g id="a_edge11&#45;headlabel"><a xlink:href="dir_000088_000126.html" target="_top" xlink:title="2">
<text text-anchor="middle" x="95.04" y="-31.1" font-family="Helvetica,sans-Serif" font-size="10.00" fill="#63b8ff">2</text>
</a>
</g>
</g>
<!-- dir_786015ac58edb6a34d6ae4d90a813fcf&#45;&gt;dir_7cd5da72e38cd0f075d57a788b4f2242 -->
<g id="edge10" class="edge">
<title>dir_786015ac58edb6a34d6ae4d90a813fcf&#45;&gt;dir_7cd5da72e38cd0f075d57a788b4f2242</title>
<path fill="none" stroke="#63b8ff" d="M77.91,-55.68C95.64,-46.98 124.51,-32.81 145.19,-22.66"/>
<polygon fill="#63b8ff" stroke="#63b8ff" points="146.89,-25.73 154.33,-18.18 143.81,-19.44 146.89,-25.73"/>
<g id="a_edge10&#45;headlabel"><a xlink:href="dir_000088_000089.html" target="_top" xlink:title="2">
<text text-anchor="middle" x="144.92" y="-27.36" font-family="Helvetica,sans-Serif" font-size="10.00" fill="#63b8ff">2</text>
</a>
</g>
</g>
</g>
</svg>
