<?xml version="1.0" encoding="UTF-8" standalone="no"?>
<!DOCTYPE svg PUBLIC "-//W3C//DTD SVG 1.1//EN"
 "http://www.w3.org/Graphics/SVG/1.1/DTD/svg11.dtd">
<!-- Generated by graphviz version 2.43.0 (0)
 -->
<!-- Title: libs/di/include/di/container/string Pages: 1 -->
<svg width="941pt" height="133pt"
 viewBox="0.00 0.00 941.00 133.00" xmlns="http://www.w3.org/2000/svg" xmlns:xlink="http://www.w3.org/1999/xlink">
<g id="graph0" class="graph" transform="scale(1 1) rotate(0) translate(4 129)">
<title>libs/di/include/di/container/string</title>
<g id="clust1" class="cluster">
<title>clusterdir_521de572ae4fe2915cc70a876c52f5b7</title>
<g id="a_clust1"><a xlink:href="dir_521de572ae4fe2915cc70a876c52f5b7.html" target="_top" xlink:title="container">
<polygon fill="#edf0f7" stroke="#7f7f7f" stroke-dasharray="5,2" points="8,-8 8,-117 500,-117 500,-8 8,-8"/>
<text text-anchor="middle" x="254" y="-105" font-family="Helvetica,sans-Serif" font-size="10.00">container</text>
</a>
</g>
</g>
<!-- dir_093cb0cf41c3d9bb25543a4e1702223c -->
<g id="node1" class="node">
<title>dir_093cb0cf41c3d9bb25543a4e1702223c</title>
<g id="a_node1"><a xlink:href="dir_093cb0cf41c3d9bb25543a4e1702223c.html" target="_top" xlink:title="iterator">
<polygon fill="#a2b4d6" stroke="#404040" points="69.5,-35 16.5,-35 16.5,-16 69.5,-16 69.5,-35"/>
<text text-anchor="middle" x="43" y="-23" font-family="Helvetica,sans-Serif" font-size="10.00">iterator</text>
</a>
</g>
</g>
<!-- dir_28cb5a05dfb61a4b9ad44e468e6394a4 -->
<g id="node2" class="node">
<title>dir_28cb5a05dfb61a4b9ad44e468e6394a4</title>
<g id="a_node2"><a xlink:href="dir_28cb5a05dfb61a4b9ad44e468e6394a4.html" target="_top" xlink:title="view">
<polygon fill="#a2b4d6" stroke="#404040" points="128,-35 88,-35 88,-16 128,-16 128,-35"/>
<text text-anchor="middle" x="108" y="-23" font-family="Helvetica,sans-Serif" font-size="10.00">view</text>
</a>
</g>
</g>
<!-- dir_60528a66b99dd07a1313b3c263e646ab -->
<g id="node3" class="node">
<title>dir_60528a66b99dd07a1313b3c263e646ab</title>
<g id="a_node3"><a xlink:href="dir_60528a66b99dd07a1313b3c263e646ab.html" target="_top" xlink:title="algorithm">
<polygon fill="#a2b4d6" stroke="#404040" points="210,-35 146,-35 146,-16 210,-16 210,-35"/>
<text text-anchor="middle" x="178" y="-23" font-family="Helvetica,sans-Serif" font-size="10.00">algorithm</text>
</a>
</g>
</g>
<!-- dir_838362f34bc8d8c3545343b0166aa672 -->
<g id="node4" class="node">
<title>dir_838362f34bc8d8c3545343b0166aa672</title>
<g id="a_node4"><a xlink:href="dir_838362f34bc8d8c3545343b0166aa672.html" target="_top" xlink:title="concepts">
<polygon fill="#a2b4d6" stroke="#404040" points="288,-35 228,-35 228,-16 288,-16 288,-35"/>
<text text-anchor="middle" x="258" y="-23" font-family="Helvetica,sans-Serif" font-size="10.00">concepts</text>
</a>
</g>
</g>
<!-- dir_9f8d33513cfc97e5f9ea6bf2671e5446 -->
<g id="node5" class="node">
<title>dir_9f8d33513cfc97e5f9ea6bf2671e5446</title>
<g id="a_node5"><a xlink:href="dir_9f8d33513cfc97e5f9ea6bf2671e5446.html" target="_top" xlink:title="meta">
<polygon fill="#a2b4d6" stroke="#404040" points="348,-35 306,-35 306,-16 348,-16 348,-35"/>
<text text-anchor="middle" x="327" y="-23" font-family="Helvetica,sans-Serif" font-size="10.00">meta</text>
</a>
</g>
</g>
<!-- dir_dd6c062645334da7e8440ac2e54ccb1d -->
<g id="node6" class="node">
<title>dir_dd6c062645334da7e8440ac2e54ccb1d</title>
<g id="a_node6"><a xlink:href="dir_dd6c062645334da7e8440ac2e54ccb1d.html" target="_top" xlink:title="interface">
<polygon fill="#a2b4d6" stroke="#404040" points="426,-35 366,-35 366,-16 426,-16 426,-35"/>
<text text-anchor="middle" x="396" y="-23" font-family="Helvetica,sans-Serif" font-size="10.00">interface</text>
</a>
</g>
</g>
<!-- dir_f1a41f0d4848adc979771c8b39d6dd9b -->
<g id="node7" class="node">
<title>dir_f1a41f0d4848adc979771c8b39d6dd9b</title>
<g id="a_node7"><a xlink:href="dir_f1a41f0d4848adc979771c8b39d6dd9b.html" target="_top" xlink:title="vector">
<polygon fill="#a2b4d6" stroke="#404040" points="491.5,-35 444.5,-35 444.5,-16 491.5,-16 491.5,-35"/>
<text text-anchor="middle" x="468" y="-23" font-family="Helvetica,sans-Serif" font-size="10.00">vector</text>
</a>
</g>
</g>
<!-- dir_bf60ba46ade030ac31a592c91e9151ea -->
<g id="node8" class="node">
<title>dir_bf60ba46ade030ac31a592c91e9151ea</title>
<g id="a_node8"><a xlink:href="dir_bf60ba46ade030ac31a592c91e9151ea.html" target="_top" xlink:title="string">
<polygon fill="#edf0f7" stroke="#404040" stroke-width="2" points="491,-90 447,-90 447,-71 491,-71 491,-90"/>
<text text-anchor="middle" x="469" y="-78" font-family="Helvetica,sans-Serif" font-size="10.00">string</text>
</a>
</g>
</g>
<!-- dir_bf60ba46ade030ac31a592c91e9151ea&#45;&gt;dir_093cb0cf41c3d9bb25543a4e1702223c -->
<g id="edge2" class="edge">
<title>dir_bf60ba46ade030ac31a592c91e9151ea&#45;&gt;dir_093cb0cf41c3d9bb25543a4e1702223c</title>
<path fill="none" stroke="#63b8ff" d="M446.88,-77.9C388.53,-73.48 225.51,-59.88 79.69,-34.91"/>
<polygon fill="#63b8ff" stroke="#63b8ff" points="80.12,-31.43 69.66,-33.17 78.92,-38.32 80.12,-31.43"/>
<g id="a_edge2&#45;headlabel"><a xlink:href="dir_000161_000108.html" target="_top" xlink:title="2">
<text text-anchor="middle" x="84.14" y="-26.74" font-family="Helvetica,sans-Serif" font-size="10.00" fill="#63b8ff">2</text>
</a>
</g>
</g>
<!-- dir_bf60ba46ade030ac31a592c91e9151ea&#45;&gt;dir_28cb5a05dfb61a4b9ad44e468e6394a4 -->
<g id="edge3" class="edge">
<title>dir_bf60ba46ade030ac31a592c91e9151ea&#45;&gt;dir_28cb5a05dfb61a4b9ad44e468e6394a4</title>
<path fill="none" stroke="#63b8ff" d="M446.65,-77.69C394.3,-73.19 259.55,-60.17 138.02,-34.92"/>
<polygon fill="#63b8ff" stroke="#63b8ff" points="138.69,-31.48 128.18,-32.84 137.24,-38.33 138.69,-31.48"/>
<g id="a_edge3&#45;headlabel"><a xlink:href="dir_000161_000188.html" target="_top" xlink:title="16">
<text text-anchor="middle" x="142.79" y="-26.95" font-family="Helvetica,sans-Serif" font-size="10.00" fill="#63b8ff">16</text>
</a>
</g>
</g>
<!-- dir_bf60ba46ade030ac31a592c91e9151ea&#45;&gt;dir_60528a66b99dd07a1313b3c263e646ab -->
<g id="edge6" class="edge">
<title>dir_bf60ba46ade030ac31a592c91e9151ea&#45;&gt;dir_60528a66b99dd07a1313b3c263e646ab</title>
<path fill="none" stroke="#63b8ff" d="M446.89,-75.78C404.83,-68.66 310.15,-52.41 220.29,-35.21"/>
<polygon fill="#63b8ff" stroke="#63b8ff" points="220.69,-31.72 210.21,-33.27 219.37,-38.59 220.69,-31.72"/>
<g id="a_edge6&#45;headlabel"><a xlink:href="dir_000161_000003.html" target="_top" xlink:title="12">
<text text-anchor="middle" x="224.76" y="-27.11" font-family="Helvetica,sans-Serif" font-size="10.00" fill="#63b8ff">12</text>
</a>
</g>
</g>
<!-- dir_bf60ba46ade030ac31a592c91e9151ea&#45;&gt;dir_838362f34bc8d8c3545343b0166aa672 -->
<g id="edge7" class="edge">
<title>dir_bf60ba46ade030ac31a592c91e9151ea&#45;&gt;dir_838362f34bc8d8c3545343b0166aa672</title>
<path fill="none" stroke="#63b8ff" d="M446.82,-73.93C411.58,-65.08 342.29,-47.67 298.16,-36.59"/>
<polygon fill="#63b8ff" stroke="#63b8ff" points="298.88,-33.16 288.33,-34.12 297.18,-39.95 298.88,-33.16"/>
<g id="a_edge7&#45;headlabel"><a xlink:href="dir_000161_000037.html" target="_top" xlink:title="1">
<text text-anchor="middle" x="303.06" y="-28.78" font-family="Helvetica,sans-Serif" font-size="10.00" fill="#63b8ff">1</text>
</a>
</g>
</g>
<!-- dir_bf60ba46ade030ac31a592c91e9151ea&#45;&gt;dir_9f8d33513cfc97e5f9ea6bf2671e5446 -->
<g id="edge9" class="edge">
<title>dir_bf60ba46ade030ac31a592c91e9151ea&#45;&gt;dir_9f8d33513cfc97e5f9ea6bf2671e5446</title>
<path fill="none" stroke="#63b8ff" d="M446.81,-71.22C422.88,-62.29 384.61,-48 357.78,-37.99"/>
<polygon fill="#63b8ff" stroke="#63b8ff" points="358.7,-34.6 348.11,-34.38 356.25,-41.15 358.7,-34.6"/>
<g id="a_edge9&#45;headlabel"><a xlink:href="dir_000161_000120.html" target="_top" xlink:title="3">
<text text-anchor="middle" x="363.06" y="-30.69" font-family="Helvetica,sans-Serif" font-size="10.00" fill="#63b8ff">3</text>
</a>
</g>
</g>
<!-- dir_bf60ba46ade030ac31a592c91e9151ea&#45;&gt;dir_dd6c062645334da7e8440ac2e54ccb1d -->
<g id="edge12" class="edge">
<title>dir_bf60ba46ade030ac31a592c91e9151ea&#45;&gt;dir_dd6c062645334da7e8440ac2e54ccb1d</title>
<path fill="none" stroke="#63b8ff" d="M457.27,-70.98C446.27,-63 429.58,-50.88 416.4,-41.31"/>
<polygon fill="#63b8ff" stroke="#63b8ff" points="418.09,-38.21 407.94,-35.17 413.98,-43.88 418.09,-38.21"/>
<g id="a_edge12&#45;headlabel"><a xlink:href="dir_000161_000095.html" target="_top" xlink:title="1">
<text text-anchor="middle" x="422.67" y="-35.53" font-family="Helvetica,sans-Serif" font-size="10.00" fill="#63b8ff">1</text>
</a>
</g>
</g>
<!-- dir_bf60ba46ade030ac31a592c91e9151ea&#45;&gt;dir_f1a41f0d4848adc979771c8b39d6dd9b -->
<g id="edge13" class="edge">
<title>dir_bf60ba46ade030ac31a592c91e9151ea&#45;&gt;dir_f1a41f0d4848adc979771c8b39d6dd9b</title>
<path fill="none" stroke="#63b8ff" d="M468.83,-70.75C468.7,-63.8 468.52,-53.85 468.35,-45.13"/>
<polygon fill="#63b8ff" stroke="#63b8ff" points="471.85,-45.02 468.16,-35.09 464.85,-45.15 471.85,-45.02"/>
<g id="a_edge13&#45;headlabel"><a xlink:href="dir_000161_000187.html" target="_top" xlink:title="10">
<text text-anchor="middle" x="474.76" y="-46.06" font-family="Helvetica,sans-Serif" font-size="10.00" fill="#63b8ff">10</text>
</a>
</g>
</g>
<!-- dir_0669efae56692bb73da75efb5ebbccdf -->
<g id="node9" class="node">
<title>dir_0669efae56692bb73da75efb5ebbccdf</title>
<g id="a_node9"><a xlink:href="dir_0669efae56692bb73da75efb5ebbccdf.html" target="_top" xlink:title="function">
<polygon fill="#edf0f7" stroke="red" stroke-dasharray="5,2" points="566,-35 510,-35 510,-16 566,-16 566,-35"/>
<text text-anchor="middle" x="538" y="-23" font-family="Helvetica,sans-Serif" font-size="10.00">function</text>
</a>
</g>
</g>
<!-- dir_bf60ba46ade030ac31a592c91e9151ea&#45;&gt;dir_0669efae56692bb73da75efb5ebbccdf -->
<g id="edge1" class="edge">
<title>dir_bf60ba46ade030ac31a592c91e9151ea&#45;&gt;dir_0669efae56692bb73da75efb5ebbccdf</title>
<path fill="none" stroke="#63b8ff" d="M480.09,-70.98C490.49,-63 506.26,-50.88 518.72,-41.31"/>
<polygon fill="#63b8ff" stroke="#63b8ff" points="520.91,-44.04 526.71,-35.17 516.65,-38.49 520.91,-44.04"/>
<g id="a_edge1&#45;headlabel"><a xlink:href="dir_000161_000082.html" target="_top" xlink:title="3">
<text text-anchor="middle" x="519.79" y="-45.98" font-family="Helvetica,sans-Serif" font-size="10.00" fill="#63b8ff">3</text>
</a>
</g>
</g>
<!-- dir_30ecaf38acae77be14fb9173f98f8612 -->
<g id="node10" class="node">
<title>dir_30ecaf38acae77be14fb9173f98f8612</title>
<g id="a_node10"><a xlink:href="dir_30ecaf38acae77be14fb9173f98f8612.html" target="_top" xlink:title="types">
<polygon fill="#edf0f7" stroke="#7f7f7f" points="628,-35 584,-35 584,-16 628,-16 628,-35"/>
<text text-anchor="middle" x="606" y="-23" font-family="Helvetica,sans-Serif" font-size="10.00">types</text>
</a>
</g>
</g>
<!-- dir_bf60ba46ade030ac31a592c91e9151ea&#45;&gt;dir_30ecaf38acae77be14fb9173f98f8612 -->
<g id="edge4" class="edge">
<title>dir_bf60ba46ade030ac31a592c91e9151ea&#45;&gt;dir_30ecaf38acae77be14fb9173f98f8612</title>
<path fill="none" stroke="#63b8ff" d="M491.01,-70.98C513.45,-62.3 548.48,-48.75 573.99,-38.88"/>
<polygon fill="#63b8ff" stroke="#63b8ff" points="575.52,-42.04 583.59,-35.17 573,-35.51 575.52,-42.04"/>
<g id="a_edge4&#45;headlabel"><a xlink:href="dir_000161_000180.html" target="_top" xlink:title="2">
<text text-anchor="middle" x="573.2" y="-43.49" font-family="Helvetica,sans-Serif" font-size="10.00" fill="#63b8ff">2</text>
</a>
</g>
</g>
<!-- dir_4535887b2cdca47e625f259d07db0112 -->
<g id="node11" class="node">
<title>dir_4535887b2cdca47e625f259d07db0112</title>
<g id="a_node11"><a xlink:href="dir_4535887b2cdca47e625f259d07db0112.html" target="_top" xlink:title="util">
<polygon fill="#edf0f7" stroke="#7f7f7f" points="678,-35 646,-35 646,-16 678,-16 678,-35"/>
<text text-anchor="middle" x="662" y="-23" font-family="Helvetica,sans-Serif" font-size="10.00">util</text>
</a>
</g>
</g>
<!-- dir_bf60ba46ade030ac31a592c91e9151ea&#45;&gt;dir_4535887b2cdca47e625f259d07db0112 -->
<g id="edge5" class="edge">
<title>dir_bf60ba46ade030ac31a592c91e9151ea&#45;&gt;dir_4535887b2cdca47e625f259d07db0112</title>
<path fill="none" stroke="#63b8ff" d="M491.15,-74.15C521.72,-66.65 578.72,-52.28 636.3,-35.05"/>
<polygon fill="#63b8ff" stroke="#63b8ff" points="637.35,-38.39 645.91,-32.15 635.33,-31.69 637.35,-38.39"/>
<g id="a_edge5&#45;headlabel"><a xlink:href="dir_000161_000185.html" target="_top" xlink:title="3">
<text text-anchor="middle" x="634.73" y="-39.65" font-family="Helvetica,sans-Serif" font-size="10.00" fill="#63b8ff">3</text>
</a>
</g>
</g>
<!-- dir_942cfae36a92b6b1c4b510e99e852d40 -->
<g id="node12" class="node">
<title>dir_942cfae36a92b6b1c4b510e99e852d40</title>
<g id="a_node12"><a xlink:href="dir_942cfae36a92b6b1c4b510e99e852d40.html" target="_top" xlink:title="vocab">
<polygon fill="#edf0f7" stroke="red" stroke-dasharray="5,2" points="742,-35 696,-35 696,-16 742,-16 742,-35"/>
<text text-anchor="middle" x="719" y="-23" font-family="Helvetica,sans-Serif" font-size="10.00">vocab</text>
</a>
</g>
</g>
<!-- dir_bf60ba46ade030ac31a592c91e9151ea&#45;&gt;dir_942cfae36a92b6b1c4b510e99e852d40 -->
<g id="edge8" class="edge">
<title>dir_bf60ba46ade030ac31a592c91e9151ea&#45;&gt;dir_942cfae36a92b6b1c4b510e99e852d40</title>
<path fill="none" stroke="#63b8ff" d="M491.06,-75.44C528.91,-68.37 608.82,-53.05 686.07,-35.11"/>
<polygon fill="#63b8ff" stroke="#63b8ff" points="687.03,-38.48 695.97,-32.79 685.43,-31.66 687.03,-38.48"/>
<g id="a_edge8&#45;headlabel"><a xlink:href="dir_000161_000189.html" target="_top" xlink:title="5">
<text text-anchor="middle" x="684.18" y="-39.56" font-family="Helvetica,sans-Serif" font-size="10.00" fill="#63b8ff">5</text>
</a>
</g>
</g>
<!-- dir_a60d4453151dca6bdd8e5fcc350e379b -->
<g id="node13" class="node">
<title>dir_a60d4453151dca6bdd8e5fcc350e379b</title>
<g id="a_node13"><a xlink:href="dir_a60d4453151dca6bdd8e5fcc350e379b.html" target="_top" xlink:title="assert">
<polygon fill="#edf0f7" stroke="#7f7f7f" points="807.5,-35 760.5,-35 760.5,-16 807.5,-16 807.5,-35"/>
<text text-anchor="middle" x="784" y="-23" font-family="Helvetica,sans-Serif" font-size="10.00">assert</text>
</a>
</g>
</g>
<!-- dir_bf60ba46ade030ac31a592c91e9151ea&#45;&gt;dir_a60d4453151dca6bdd8e5fcc350e379b -->
<g id="edge10" class="edge">
<title>dir_bf60ba46ade030ac31a592c91e9151ea&#45;&gt;dir_a60d4453151dca6bdd8e5fcc350e379b</title>
<path fill="none" stroke="#63b8ff" d="M491.07,-76.75C537.27,-70.83 647.71,-55.88 750.36,-34.95"/>
<polygon fill="#63b8ff" stroke="#63b8ff" points="751.18,-38.35 760.27,-32.9 749.77,-31.5 751.18,-38.35"/>
<g id="a_edge10&#45;headlabel"><a xlink:href="dir_000161_000018.html" target="_top" xlink:title="1">
<text text-anchor="middle" x="748.24" y="-39.36" font-family="Helvetica,sans-Serif" font-size="10.00" fill="#63b8ff">1</text>
</a>
</g>
</g>
<!-- dir_c63ec87f2f7fd7fbd5b69a04f05a2815 -->
<g id="node14" class="node">
<title>dir_c63ec87f2f7fd7fbd5b69a04f05a2815</title>
<g id="a_node14"><a xlink:href="dir_c63ec87f2f7fd7fbd5b69a04f05a2815.html" target="_top" xlink:title="parser">
<polygon fill="#edf0f7" stroke="red" stroke-dasharray="5,2" points="872.5,-35 825.5,-35 825.5,-16 872.5,-16 872.5,-35"/>
<text text-anchor="middle" x="849" y="-23" font-family="Helvetica,sans-Serif" font-size="10.00">parser</text>
</a>
</g>
</g>
<!-- dir_bf60ba46ade030ac31a592c91e9151ea&#45;&gt;dir_c63ec87f2f7fd7fbd5b69a04f05a2815 -->
<g id="edge11" class="edge">
<title>dir_bf60ba46ade030ac31a592c91e9151ea&#45;&gt;dir_c63ec87f2f7fd7fbd5b69a04f05a2815</title>
<path fill="none" stroke="#63b8ff" d="M491.15,-77.69C545.07,-73.08 687.58,-59.59 815.36,-35.1"/>
<polygon fill="#63b8ff" stroke="#63b8ff" points="816.17,-38.51 825.32,-33.17 814.83,-31.64 816.17,-38.51"/>
<g id="a_edge11&#45;headlabel"><a xlink:href="dir_000161_000133.html" target="_top" xlink:title="1">
<text text-anchor="middle" x="813.18" y="-39.48" font-family="Helvetica,sans-Serif" font-size="10.00" fill="#63b8ff">1</text>
</a>
</g>
</g>
<!-- dir_f555f996eeee1ebe901dc71e0c5de8ff -->
<g id="node15" class="node">
<title>dir_f555f996eeee1ebe901dc71e0c5de8ff</title>
<g id="a_node15"><a xlink:href="dir_f555f996eeee1ebe901dc71e0c5de8ff.html" target="_top" xlink:title="meta">
<polygon fill="#edf0f7" stroke="#7f7f7f" points="933,-35 891,-35 891,-16 933,-16 933,-35"/>
<text text-anchor="middle" x="912" y="-23" font-family="Helvetica,sans-Serif" font-size="10.00">meta</text>
</a>
</g>
</g>
<!-- dir_bf60ba46ade030ac31a592c91e9151ea&#45;&gt;dir_f555f996eeee1ebe901dc71e0c5de8ff -->
<g id="edge14" class="edge">
<title>dir_bf60ba46ade030ac31a592c91e9151ea&#45;&gt;dir_f555f996eeee1ebe901dc71e0c5de8ff</title>
<path fill="none" stroke="#63b8ff" d="M491.13,-78.43C551.93,-75.22 726.66,-64.14 880.69,-34.93"/>
<polygon fill="#63b8ff" stroke="#63b8ff" points="881.65,-38.31 890.8,-32.98 880.32,-31.44 881.65,-38.31"/>
<g id="a_edge14&#45;headlabel"><a xlink:href="dir_000161_000122.html" target="_top" xlink:title="8">
<text text-anchor="middle" x="878.65" y="-39.28" font-family="Helvetica,sans-Serif" font-size="10.00" fill="#63b8ff">8</text>
</a>
</g>
</g>
</g>
</svg>
