<?xml version="1.0" encoding="UTF-8" standalone="no"?>
<!DOCTYPE svg PUBLIC "-//W3C//DTD SVG 1.1//EN"
 "http://www.w3.org/Graphics/SVG/1.1/DTD/svg11.dtd">
<!-- Generated by graphviz version 2.43.0 (0)
 -->
<!-- Title: libs/dius/linux/filesystem Pages: 1 -->
<svg width="165pt" height="117pt"
 viewBox="0.00 0.00 165.00 117.00" xmlns="http://www.w3.org/2000/svg" xmlns:xlink="http://www.w3.org/1999/xlink">
<g id="graph0" class="graph" transform="scale(1 1) rotate(0) translate(4 113)">
<title>libs/dius/linux/filesystem</title>
<g id="clust1" class="cluster">
<title>clusterdir_7ccd26c404836bc22a606bd372fc0063</title>
<g id="a_clust1"><a xlink:href="dir_7ccd26c404836bc22a606bd372fc0063.html" target="_top" xlink:title="linux">
<polygon fill="#edf0f7" stroke="#7f7f7f" stroke-dasharray="5,2" points="41.5,-47 41.5,-101 125.5,-101 125.5,-47 41.5,-47"/>
<text text-anchor="middle" x="83.5" y="-89" font-family="Helvetica,sans-Serif" font-size="10.00">linux</text>
</a>
</g>
</g>
<!-- dir_3e9ab2ac8e0c181c7b090f831025d676 -->
<g id="node1" class="node">
<title>dir_3e9ab2ac8e0c181c7b090f831025d676</title>
<g id="a_node1"><a xlink:href="dir_3e9ab2ac8e0c181c7b090f831025d676.html" target="_top" xlink:title="filesystem">
<polygon fill="#edf0f7" stroke="#404040" stroke-width="2" points="117.5,-74 49.5,-74 49.5,-55 117.5,-55 117.5,-74"/>
<text text-anchor="middle" x="83.5" y="-62" font-family="Helvetica,sans-Serif" font-size="10.00">filesystem</text>
</a>
</g>
</g>
<!-- dir_048287677304621c659962c2a2c2732d -->
<g id="node2" class="node">
<title>dir_048287677304621c659962c2a2c2732d</title>
<g id="a_node2"><a xlink:href="dir_048287677304621c659962c2a2c2732d.html" target="_top" xlink:title="ccpp">
<polygon fill="#edf0f7" stroke="red" stroke-dasharray="5,2" points="39,-19 0,-19 0,0 39,0 39,-19"/>
<text text-anchor="middle" x="19.5" y="-7" font-family="Helvetica,sans-Serif" font-size="10.00">ccpp</text>
</a>
</g>
</g>
<!-- dir_3e9ab2ac8e0c181c7b090f831025d676&#45;&gt;dir_048287677304621c659962c2a2c2732d -->
<g id="edge1" class="edge">
<title>dir_3e9ab2ac8e0c181c7b090f831025d676&#45;&gt;dir_048287677304621c659962c2a2c2732d</title>
<path fill="none" stroke="#63b8ff" d="M73.22,-54.98C63.66,-47.07 49.22,-35.11 37.72,-25.58"/>
<polygon fill="#63b8ff" stroke="#63b8ff" points="39.9,-22.85 29.97,-19.17 35.44,-28.24 39.9,-22.85"/>
<g id="a_edge1&#45;headlabel"><a xlink:href="dir_000078_000030.html" target="_top" xlink:title="6">
<text text-anchor="middle" x="44.48" y="-20.46" font-family="Helvetica,sans-Serif" font-size="10.00" fill="#63b8ff">6</text>
</a>
</g>
</g>
<!-- dir_6ac4aa95e4478b160428441746083760 -->
<g id="node3" class="node">
<title>dir_6ac4aa95e4478b160428441746083760</title>
<g id="a_node3"><a xlink:href="dir_6ac4aa95e4478b160428441746083760.html" target="_top" xlink:title="include">
<polygon fill="#edf0f7" stroke="red" stroke-dasharray="5,2" points="109.5,-19 57.5,-19 57.5,0 109.5,0 109.5,-19"/>
<text text-anchor="middle" x="83.5" y="-7" font-family="Helvetica,sans-Serif" font-size="10.00">include</text>
</a>
</g>
</g>
<!-- dir_3e9ab2ac8e0c181c7b090f831025d676&#45;&gt;dir_6ac4aa95e4478b160428441746083760 -->
<g id="edge2" class="edge">
<title>dir_3e9ab2ac8e0c181c7b090f831025d676&#45;&gt;dir_6ac4aa95e4478b160428441746083760</title>
<path fill="none" stroke="#63b8ff" d="M83.5,-54.75C83.5,-47.8 83.5,-37.85 83.5,-29.13"/>
<polygon fill="#63b8ff" stroke="#63b8ff" points="87,-29.09 83.5,-19.09 80,-29.09 87,-29.09"/>
<g id="a_edge2&#45;headlabel"><a xlink:href="dir_000078_000093.html" target="_top" xlink:title="7">
<text text-anchor="middle" x="89.84" y="-30.18" font-family="Helvetica,sans-Serif" font-size="10.00" fill="#63b8ff">7</text>
</a>
</g>
</g>
<!-- dir_984cd133b143ec7cf21a4bdcb401bfa5 -->
<g id="node4" class="node">
<title>dir_984cd133b143ec7cf21a4bdcb401bfa5</title>
<g id="a_node4"><a xlink:href="dir_984cd133b143ec7cf21a4bdcb401bfa5.html" target="_top" xlink:title="di">
<polygon fill="#edf0f7" stroke="red" stroke-dasharray="5,2" points="157,-19 128,-19 128,0 157,0 157,-19"/>
<text text-anchor="middle" x="142.5" y="-7" font-family="Helvetica,sans-Serif" font-size="10.00">di</text>
</a>
</g>
</g>
<!-- dir_3e9ab2ac8e0c181c7b090f831025d676&#45;&gt;dir_984cd133b143ec7cf21a4bdcb401bfa5 -->
<g id="edge3" class="edge">
<title>dir_3e9ab2ac8e0c181c7b090f831025d676&#45;&gt;dir_984cd133b143ec7cf21a4bdcb401bfa5</title>
<path fill="none" stroke="#63b8ff" d="M92.98,-54.98C101.7,-47.15 114.84,-35.34 125.4,-25.86"/>
<polygon fill="#63b8ff" stroke="#63b8ff" points="127.75,-28.46 132.85,-19.17 123.07,-23.25 127.75,-28.46"/>
<g id="a_edge3&#45;headlabel"><a xlink:href="dir_000078_000058.html" target="_top" xlink:title="7">
<text text-anchor="middle" x="126.97" y="-30.47" font-family="Helvetica,sans-Serif" font-size="10.00" fill="#63b8ff">7</text>
</a>
</g>
</g>
</g>
</svg>
