<?xml version="1.0" encoding="UTF-8" standalone="no"?>
<!DOCTYPE svg PUBLIC "-//W3C//DTD SVG 1.1//EN"
 "http://www.w3.org/Graphics/SVG/1.1/DTD/svg11.dtd">
<!-- Generated by graphviz version 2.43.0 (0)
 -->
<!-- Title: libs/di/include/di/execution/sequence Pages: 1 -->
<svg width="1110pt" height="133pt"
 viewBox="0.00 0.00 1110.00 133.00" xmlns="http://www.w3.org/2000/svg" xmlns:xlink="http://www.w3.org/1999/xlink">
<g id="graph0" class="graph" transform="scale(1 1) rotate(0) translate(4 129)">
<title>libs/di/include/di/execution/sequence</title>
<g id="clust1" class="cluster">
<title>clusterdir_182dab0b86097ba072332b7ad8fceb7f</title>
<g id="a_clust1"><a xlink:href="dir_182dab0b86097ba072332b7ad8fceb7f.html" target="_top" xlink:title="execution">
<polygon fill="#edf0f7" stroke="#7f7f7f" stroke-dasharray="5,2" points="8,-8 8,-117 582,-117 582,-8 8,-8"/>
<text text-anchor="middle" x="295" y="-105" font-family="Helvetica,sans-Serif" font-size="10.00">execution</text>
</a>
</g>
</g>
<!-- dir_27e1a0af1927749316784e6421682a5e -->
<g id="node1" class="node">
<title>dir_27e1a0af1927749316784e6421682a5e</title>
<g id="a_node1"><a xlink:href="dir_27e1a0af1927749316784e6421682a5e.html" target="_top" xlink:title="interface">
<polygon fill="#a2b4d6" stroke="#404040" points="76,-35 16,-35 16,-16 76,-16 76,-35"/>
<text text-anchor="middle" x="46" y="-23" font-family="Helvetica,sans-Serif" font-size="10.00">interface</text>
</a>
</g>
</g>
<!-- dir_38011a79da39fb3448319eccf8c364d9 -->
<g id="node2" class="node">
<title>dir_38011a79da39fb3448319eccf8c364d9</title>
<g id="a_node2"><a xlink:href="dir_38011a79da39fb3448319eccf8c364d9.html" target="_top" xlink:title="query">
<polygon fill="#a2b4d6" stroke="#404040" points="138,-35 94,-35 94,-16 138,-16 138,-35"/>
<text text-anchor="middle" x="116" y="-23" font-family="Helvetica,sans-Serif" font-size="10.00">query</text>
</a>
</g>
</g>
<!-- dir_42e3132b523eec61d254ecfd76390a40 -->
<g id="node3" class="node">
<title>dir_42e3132b523eec61d254ecfd76390a40</title>
<g id="a_node3"><a xlink:href="dir_42e3132b523eec61d254ecfd76390a40.html" target="_top" xlink:title="algorithm">
<polygon fill="#a2b4d6" stroke="#404040" points="220,-35 156,-35 156,-16 220,-16 220,-35"/>
<text text-anchor="middle" x="188" y="-23" font-family="Helvetica,sans-Serif" font-size="10.00">algorithm</text>
</a>
</g>
</g>
<!-- dir_569ed69d6bb9bf9a95676c3a98a04440 -->
<g id="node4" class="node">
<title>dir_569ed69d6bb9bf9a95676c3a98a04440</title>
<g id="a_node4"><a xlink:href="dir_569ed69d6bb9bf9a95676c3a98a04440.html" target="_top" xlink:title="types">
<polygon fill="#a2b4d6" stroke="#404040" points="282,-35 238,-35 238,-16 282,-16 282,-35"/>
<text text-anchor="middle" x="260" y="-23" font-family="Helvetica,sans-Serif" font-size="10.00">types</text>
</a>
</g>
</g>
<!-- dir_57df25969c72935fa0fddf8bd8d3498c -->
<g id="node5" class="node">
<title>dir_57df25969c72935fa0fddf8bd8d3498c</title>
<g id="a_node5"><a xlink:href="dir_57df25969c72935fa0fddf8bd8d3498c.html" target="_top" xlink:title="meta">
<polygon fill="#a2b4d6" stroke="#404040" points="342,-35 300,-35 300,-16 342,-16 342,-35"/>
<text text-anchor="middle" x="321" y="-23" font-family="Helvetica,sans-Serif" font-size="10.00">meta</text>
</a>
</g>
</g>
<!-- dir_64711c3453254974b931c55eb005475a -->
<g id="node6" class="node">
<title>dir_64711c3453254974b931c55eb005475a</title>
<g id="a_node6"><a xlink:href="dir_64711c3453254974b931c55eb005475a.html" target="_top" xlink:title="coroutine">
<polygon fill="#a2b4d6" stroke="#404040" points="422,-35 360,-35 360,-16 422,-16 422,-35"/>
<text text-anchor="middle" x="391" y="-23" font-family="Helvetica,sans-Serif" font-size="10.00">coroutine</text>
</a>
</g>
</g>
<!-- dir_72b20bf6291bd35729057dcb4ccbac76 -->
<g id="node7" class="node">
<title>dir_72b20bf6291bd35729057dcb4ccbac76</title>
<g id="a_node7"><a xlink:href="dir_72b20bf6291bd35729057dcb4ccbac76.html" target="_top" xlink:title="concepts">
<polygon fill="#a2b4d6" stroke="#404040" points="500,-35 440,-35 440,-16 500,-16 500,-35"/>
<text text-anchor="middle" x="470" y="-23" font-family="Helvetica,sans-Serif" font-size="10.00">concepts</text>
</a>
</g>
</g>
<!-- dir_8620533e8531467fdbfb737d3ec42837 -->
<g id="node8" class="node">
<title>dir_8620533e8531467fdbfb737d3ec42837</title>
<g id="a_node8"><a xlink:href="dir_8620533e8531467fdbfb737d3ec42837.html" target="_top" xlink:title="receiver">
<polygon fill="#a2b4d6" stroke="#404040" points="574,-35 518,-35 518,-16 574,-16 574,-35"/>
<text text-anchor="middle" x="546" y="-23" font-family="Helvetica,sans-Serif" font-size="10.00">receiver</text>
</a>
</g>
</g>
<!-- dir_b7ad26a73b774414b6d3658268280d20 -->
<g id="node9" class="node">
<title>dir_b7ad26a73b774414b6d3658268280d20</title>
<g id="a_node9"><a xlink:href="dir_b7ad26a73b774414b6d3658268280d20.html" target="_top" xlink:title="sequence">
<polygon fill="#edf0f7" stroke="#404040" stroke-width="2" points="573.5,-90 510.5,-90 510.5,-71 573.5,-71 573.5,-90"/>
<text text-anchor="middle" x="542" y="-78" font-family="Helvetica,sans-Serif" font-size="10.00">sequence</text>
</a>
</g>
</g>
<!-- dir_b7ad26a73b774414b6d3658268280d20&#45;&gt;dir_27e1a0af1927749316784e6421682a5e -->
<g id="edge2" class="edge">
<title>dir_b7ad26a73b774414b6d3658268280d20&#45;&gt;dir_27e1a0af1927749316784e6421682a5e</title>
<path fill="none" stroke="#63b8ff" d="M510.26,-77.7C437.22,-73.28 251.51,-60.47 86.5,-35.05"/>
<polygon fill="#63b8ff" stroke="#63b8ff" points="86.59,-31.53 76.17,-33.44 85.51,-38.44 86.59,-31.53"/>
<g id="a_edge2&#45;headlabel"><a xlink:href="dir_000150_000096.html" target="_top" xlink:title="20">
<text text-anchor="middle" x="90.58" y="-26.77" font-family="Helvetica,sans-Serif" font-size="10.00" fill="#63b8ff">20</text>
</a>
</g>
</g>
<!-- dir_b7ad26a73b774414b6d3658268280d20&#45;&gt;dir_38011a79da39fb3448319eccf8c364d9 -->
<g id="edge3" class="edge">
<title>dir_b7ad26a73b774414b6d3658268280d20&#45;&gt;dir_38011a79da39fb3448319eccf8c364d9</title>
<path fill="none" stroke="#63b8ff" d="M510.26,-77.6C444.44,-73.32 288.23,-61.28 148.3,-34.97"/>
<polygon fill="#63b8ff" stroke="#63b8ff" points="148.73,-31.49 138.25,-33.05 147.42,-38.36 148.73,-31.49"/>
<g id="a_edge3&#45;headlabel"><a xlink:href="dir_000150_000139.html" target="_top" xlink:title="22">
<text text-anchor="middle" x="152.8" y="-26.87" font-family="Helvetica,sans-Serif" font-size="10.00" fill="#63b8ff">22</text>
</a>
</g>
</g>
<!-- dir_b7ad26a73b774414b6d3658268280d20&#45;&gt;dir_42e3132b523eec61d254ecfd76390a40 -->
<g id="edge4" class="edge">
<title>dir_b7ad26a73b774414b6d3658268280d20&#45;&gt;dir_42e3132b523eec61d254ecfd76390a40</title>
<path fill="none" stroke="#63b8ff" d="M510.35,-75.67C455.45,-68.89 338.8,-53.83 230.33,-35.14"/>
<polygon fill="#63b8ff" stroke="#63b8ff" points="230.64,-31.64 220.19,-33.37 229.44,-38.54 230.64,-31.64"/>
<g id="a_edge4&#45;headlabel"><a xlink:href="dir_000150_000004.html" target="_top" xlink:title="6">
<text text-anchor="middle" x="234.67" y="-26.96" font-family="Helvetica,sans-Serif" font-size="10.00" fill="#63b8ff">6</text>
</a>
</g>
</g>
<!-- dir_b7ad26a73b774414b6d3658268280d20&#45;&gt;dir_569ed69d6bb9bf9a95676c3a98a04440 -->
<g id="edge7" class="edge">
<title>dir_b7ad26a73b774414b6d3658268280d20&#45;&gt;dir_569ed69d6bb9bf9a95676c3a98a04440</title>
<path fill="none" stroke="#63b8ff" d="M510.11,-74.81C464.08,-67.83 376.17,-53.73 292.24,-35.11"/>
<polygon fill="#63b8ff" stroke="#63b8ff" points="292.81,-31.65 282.29,-32.88 291.28,-38.48 292.81,-31.65"/>
<g id="a_edge7&#45;headlabel"><a xlink:href="dir_000150_000179.html" target="_top" xlink:title="10">
<text text-anchor="middle" x="296.94" y="-27.17" font-family="Helvetica,sans-Serif" font-size="10.00" fill="#63b8ff">10</text>
</a>
</g>
</g>
<!-- dir_b7ad26a73b774414b6d3658268280d20&#45;&gt;dir_57df25969c72935fa0fddf8bd8d3498c -->
<g id="edge8" class="edge">
<title>dir_b7ad26a73b774414b6d3658268280d20&#45;&gt;dir_57df25969c72935fa0fddf8bd8d3498c</title>
<path fill="none" stroke="#63b8ff" d="M510.46,-72.63C474.42,-64.68 413.47,-50.91 352.12,-35.2"/>
<polygon fill="#63b8ff" stroke="#63b8ff" points="352.83,-31.77 342.27,-32.66 351.08,-38.55 352.83,-31.77"/>
<g id="a_edge8&#45;headlabel"><a xlink:href="dir_000150_000121.html" target="_top" xlink:title="27">
<text text-anchor="middle" x="357.02" y="-27.41" font-family="Helvetica,sans-Serif" font-size="10.00" fill="#63b8ff">27</text>
</a>
</g>
</g>
<!-- dir_b7ad26a73b774414b6d3658268280d20&#45;&gt;dir_64711c3453254974b931c55eb005475a -->
<g id="edge9" class="edge">
<title>dir_b7ad26a73b774414b6d3658268280d20&#45;&gt;dir_64711c3453254974b931c55eb005475a</title>
<path fill="none" stroke="#63b8ff" d="M517.74,-70.98C492.68,-62.19 453.37,-48.39 425.17,-38.49"/>
<polygon fill="#63b8ff" stroke="#63b8ff" points="426.3,-35.18 415.7,-35.17 423.98,-41.78 426.3,-35.18"/>
<g id="a_edge9&#45;headlabel"><a xlink:href="dir_000150_000054.html" target="_top" xlink:title="2">
<text text-anchor="middle" x="430.63" y="-31.19" font-family="Helvetica,sans-Serif" font-size="10.00" fill="#63b8ff">2</text>
</a>
</g>
</g>
<!-- dir_b7ad26a73b774414b6d3658268280d20&#45;&gt;dir_72b20bf6291bd35729057dcb4ccbac76 -->
<g id="edge10" class="edge">
<title>dir_b7ad26a73b774414b6d3658268280d20&#45;&gt;dir_72b20bf6291bd35729057dcb4ccbac76</title>
<path fill="none" stroke="#63b8ff" d="M530.43,-70.98C519.58,-63 503.12,-50.88 490.12,-41.31"/>
<polygon fill="#63b8ff" stroke="#63b8ff" points="491.91,-38.28 481.78,-35.17 487.76,-43.92 491.91,-38.28"/>
<g id="a_edge10&#45;headlabel"><a xlink:href="dir_000150_000038.html" target="_top" xlink:title="27">
<text text-anchor="middle" x="496.48" y="-35.62" font-family="Helvetica,sans-Serif" font-size="10.00" fill="#63b8ff">27</text>
</a>
</g>
</g>
<!-- dir_b7ad26a73b774414b6d3658268280d20&#45;&gt;dir_8620533e8531467fdbfb737d3ec42837 -->
<g id="edge11" class="edge">
<title>dir_b7ad26a73b774414b6d3658268280d20&#45;&gt;dir_8620533e8531467fdbfb737d3ec42837</title>
<path fill="none" stroke="#63b8ff" d="M542.66,-70.75C543.18,-63.8 543.94,-53.85 544.59,-45.13"/>
<polygon fill="#63b8ff" stroke="#63b8ff" points="548.09,-45.32 545.35,-35.09 541.11,-44.8 548.09,-45.32"/>
<g id="a_edge11&#45;headlabel"><a xlink:href="dir_000150_000144.html" target="_top" xlink:title="17">
<text text-anchor="middle" x="550.65" y="-46.62" font-family="Helvetica,sans-Serif" font-size="10.00" fill="#63b8ff">17</text>
</a>
</g>
</g>
<!-- dir_0669efae56692bb73da75efb5ebbccdf -->
<g id="node10" class="node">
<title>dir_0669efae56692bb73da75efb5ebbccdf</title>
<g id="a_node10"><a xlink:href="dir_0669efae56692bb73da75efb5ebbccdf.html" target="_top" xlink:title="function">
<polygon fill="#edf0f7" stroke="red" stroke-dasharray="5,2" points="648,-35 592,-35 592,-16 648,-16 648,-35"/>
<text text-anchor="middle" x="620" y="-23" font-family="Helvetica,sans-Serif" font-size="10.00">function</text>
</a>
</g>
</g>
<!-- dir_b7ad26a73b774414b6d3658268280d20&#45;&gt;dir_0669efae56692bb73da75efb5ebbccdf -->
<g id="edge1" class="edge">
<title>dir_b7ad26a73b774414b6d3658268280d20&#45;&gt;dir_0669efae56692bb73da75efb5ebbccdf</title>
<path fill="none" stroke="#63b8ff" d="M554.53,-70.98C566.4,-62.92 584.46,-50.65 598.61,-41.03"/>
<polygon fill="#63b8ff" stroke="#63b8ff" points="600.94,-43.69 607.24,-35.17 597,-37.9 600.94,-43.69"/>
<g id="a_edge1&#45;headlabel"><a xlink:href="dir_000150_000082.html" target="_top" xlink:title="24">
<text text-anchor="middle" x="599.56" y="-45.55" font-family="Helvetica,sans-Serif" font-size="10.00" fill="#63b8ff">24</text>
</a>
</g>
</g>
<!-- dir_4535887b2cdca47e625f259d07db0112 -->
<g id="node11" class="node">
<title>dir_4535887b2cdca47e625f259d07db0112</title>
<g id="a_node11"><a xlink:href="dir_4535887b2cdca47e625f259d07db0112.html" target="_top" xlink:title="util">
<polygon fill="#edf0f7" stroke="#7f7f7f" points="698,-35 666,-35 666,-16 698,-16 698,-35"/>
<text text-anchor="middle" x="682" y="-23" font-family="Helvetica,sans-Serif" font-size="10.00">util</text>
</a>
</g>
</g>
<!-- dir_b7ad26a73b774414b6d3658268280d20&#45;&gt;dir_4535887b2cdca47e625f259d07db0112 -->
<g id="edge5" class="edge">
<title>dir_b7ad26a73b774414b6d3658268280d20&#45;&gt;dir_4535887b2cdca47e625f259d07db0112</title>
<path fill="none" stroke="#63b8ff" d="M564.49,-70.98C589.47,-61.53 629.72,-46.29 656.02,-36.34"/>
<polygon fill="#63b8ff" stroke="#63b8ff" points="657.57,-39.49 665.69,-32.68 655.09,-32.94 657.57,-39.49"/>
<g id="a_edge5&#45;headlabel"><a xlink:href="dir_000150_000185.html" target="_top" xlink:title="26">
<text text-anchor="middle" x="655.22" y="-40.92" font-family="Helvetica,sans-Serif" font-size="10.00" fill="#63b8ff">26</text>
</a>
</g>
</g>
<!-- dir_521de572ae4fe2915cc70a876c52f5b7 -->
<g id="node12" class="node">
<title>dir_521de572ae4fe2915cc70a876c52f5b7</title>
<g id="a_node12"><a xlink:href="dir_521de572ae4fe2915cc70a876c52f5b7.html" target="_top" xlink:title="container">
<polygon fill="#edf0f7" stroke="red" stroke-dasharray="5,2" points="778,-35 716,-35 716,-16 778,-16 778,-35"/>
<text text-anchor="middle" x="747" y="-23" font-family="Helvetica,sans-Serif" font-size="10.00">container</text>
</a>
</g>
</g>
<!-- dir_b7ad26a73b774414b6d3658268280d20&#45;&gt;dir_521de572ae4fe2915cc70a876c52f5b7 -->
<g id="edge6" class="edge">
<title>dir_b7ad26a73b774414b6d3658268280d20&#45;&gt;dir_521de572ae4fe2915cc70a876c52f5b7</title>
<path fill="none" stroke="#63b8ff" d="M573.58,-71.33C609.05,-62.17 666.73,-47.25 705.74,-37.17"/>
<polygon fill="#63b8ff" stroke="#63b8ff" points="706.91,-40.48 715.72,-34.59 705.16,-33.7 706.91,-40.48"/>
<g id="a_edge6&#45;headlabel"><a xlink:href="dir_000150_000046.html" target="_top" xlink:title="7">
<text text-anchor="middle" x="704.14" y="-41.63" font-family="Helvetica,sans-Serif" font-size="10.00" fill="#63b8ff">7</text>
</a>
</g>
</g>
<!-- dir_942cfae36a92b6b1c4b510e99e852d40 -->
<g id="node13" class="node">
<title>dir_942cfae36a92b6b1c4b510e99e852d40</title>
<g id="a_node13"><a xlink:href="dir_942cfae36a92b6b1c4b510e99e852d40.html" target="_top" xlink:title="vocab">
<polygon fill="#edf0f7" stroke="red" stroke-dasharray="5,2" points="842,-35 796,-35 796,-16 842,-16 842,-35"/>
<text text-anchor="middle" x="819" y="-23" font-family="Helvetica,sans-Serif" font-size="10.00">vocab</text>
</a>
</g>
</g>
<!-- dir_b7ad26a73b774414b6d3658268280d20&#45;&gt;dir_942cfae36a92b6b1c4b510e99e852d40 -->
<g id="edge12" class="edge">
<title>dir_b7ad26a73b774414b6d3658268280d20&#45;&gt;dir_942cfae36a92b6b1c4b510e99e852d40</title>
<path fill="none" stroke="#63b8ff" d="M573.88,-74.55C618.95,-67.36 704.07,-53.12 786.01,-35.07"/>
<polygon fill="#63b8ff" stroke="#63b8ff" points="786.98,-38.44 795.98,-32.85 785.46,-31.61 786.98,-38.44"/>
<g id="a_edge12&#45;headlabel"><a xlink:href="dir_000150_000189.html" target="_top" xlink:title="13">
<text text-anchor="middle" x="784.09" y="-39.49" font-family="Helvetica,sans-Serif" font-size="10.00" fill="#63b8ff">13</text>
</a>
</g>
</g>
<!-- dir_9bfc08b7c5b17d043ebb5b9fbb866539 -->
<g id="node14" class="node">
<title>dir_9bfc08b7c5b17d043ebb5b9fbb866539</title>
<g id="a_node14"><a xlink:href="dir_9bfc08b7c5b17d043ebb5b9fbb866539.html" target="_top" xlink:title="sync">
<polygon fill="#edf0f7" stroke="red" stroke-dasharray="5,2" points="899.5,-35 860.5,-35 860.5,-16 899.5,-16 899.5,-35"/>
<text text-anchor="middle" x="880" y="-23" font-family="Helvetica,sans-Serif" font-size="10.00">sync</text>
</a>
</g>
</g>
<!-- dir_b7ad26a73b774414b6d3658268280d20&#45;&gt;dir_9bfc08b7c5b17d043ebb5b9fbb866539 -->
<g id="edge13" class="edge">
<title>dir_b7ad26a73b774414b6d3658268280d20&#45;&gt;dir_9bfc08b7c5b17d043ebb5b9fbb866539</title>
<path fill="none" stroke="#63b8ff" d="M573.85,-76.42C628.48,-70.82 743.65,-57.6 850.46,-34.8"/>
<polygon fill="#63b8ff" stroke="#63b8ff" points="851.41,-38.18 860.44,-32.64 849.93,-31.34 851.41,-38.18"/>
<g id="a_edge13&#45;headlabel"><a xlink:href="dir_000150_000162.html" target="_top" xlink:title="13">
<text text-anchor="middle" x="848.5" y="-39.22" font-family="Helvetica,sans-Serif" font-size="10.00" fill="#63b8ff">13</text>
</a>
</g>
</g>
<!-- dir_a60d4453151dca6bdd8e5fcc350e379b -->
<g id="node15" class="node">
<title>dir_a60d4453151dca6bdd8e5fcc350e379b</title>
<g id="a_node15"><a xlink:href="dir_a60d4453151dca6bdd8e5fcc350e379b.html" target="_top" xlink:title="assert">
<polygon fill="#edf0f7" stroke="#7f7f7f" points="964.5,-35 917.5,-35 917.5,-16 964.5,-16 964.5,-35"/>
<text text-anchor="middle" x="941" y="-23" font-family="Helvetica,sans-Serif" font-size="10.00">assert</text>
</a>
</g>
</g>
<!-- dir_b7ad26a73b774414b6d3658268280d20&#45;&gt;dir_a60d4453151dca6bdd8e5fcc350e379b -->
<g id="edge14" class="edge">
<title>dir_b7ad26a73b774414b6d3658268280d20&#45;&gt;dir_a60d4453151dca6bdd8e5fcc350e379b</title>
<path fill="none" stroke="#63b8ff" d="M573.65,-77.15C635.87,-72.22 778.61,-59.33 907.29,-35.1"/>
<polygon fill="#63b8ff" stroke="#63b8ff" points="908.15,-38.5 917.32,-33.18 906.84,-31.62 908.15,-38.5"/>
<g id="a_edge14&#45;headlabel"><a xlink:href="dir_000150_000018.html" target="_top" xlink:title="1">
<text text-anchor="middle" x="905.16" y="-39.46" font-family="Helvetica,sans-Serif" font-size="10.00" fill="#63b8ff">1</text>
</a>
</g>
</g>
<!-- dir_aaf67126bd5deefc4d96704f76f22cc2 -->
<g id="node16" class="node">
<title>dir_aaf67126bd5deefc4d96704f76f22cc2</title>
<g id="a_node16"><a xlink:href="dir_aaf67126bd5deefc4d96704f76f22cc2.html" target="_top" xlink:title="platform">
<polygon fill="#edf0f7" stroke="#7f7f7f" points="1041.5,-35 982.5,-35 982.5,-16 1041.5,-16 1041.5,-35"/>
<text text-anchor="middle" x="1012" y="-23" font-family="Helvetica,sans-Serif" font-size="10.00">platform</text>
</a>
</g>
</g>
<!-- dir_b7ad26a73b774414b6d3658268280d20&#45;&gt;dir_aaf67126bd5deefc4d96704f76f22cc2 -->
<g id="edge15" class="edge">
<title>dir_b7ad26a73b774414b6d3658268280d20&#45;&gt;dir_aaf67126bd5deefc4d96704f76f22cc2</title>
<path fill="none" stroke="#63b8ff" d="M573.61,-77.52C643.67,-72.86 817.48,-59.8 972.04,-35.15"/>
<polygon fill="#63b8ff" stroke="#63b8ff" points="972.88,-38.56 982.19,-33.51 971.76,-31.65 972.88,-38.56"/>
<g id="a_edge15&#45;headlabel"><a xlink:href="dir_000150_000135.html" target="_top" xlink:title="6">
<text text-anchor="middle" x="969.78" y="-39.44" font-family="Helvetica,sans-Serif" font-size="10.00" fill="#63b8ff">6</text>
</a>
</g>
</g>
<!-- dir_f555f996eeee1ebe901dc71e0c5de8ff -->
<g id="node17" class="node">
<title>dir_f555f996eeee1ebe901dc71e0c5de8ff</title>
<g id="a_node17"><a xlink:href="dir_f555f996eeee1ebe901dc71e0c5de8ff.html" target="_top" xlink:title="meta">
<polygon fill="#edf0f7" stroke="#7f7f7f" points="1102,-35 1060,-35 1060,-16 1102,-16 1102,-35"/>
<text text-anchor="middle" x="1081" y="-23" font-family="Helvetica,sans-Serif" font-size="10.00">meta</text>
</a>
</g>
</g>
<!-- dir_b7ad26a73b774414b6d3658268280d20&#45;&gt;dir_f555f996eeee1ebe901dc71e0c5de8ff -->
<g id="edge16" class="edge">
<title>dir_b7ad26a73b774414b6d3658268280d20&#45;&gt;dir_f555f996eeee1ebe901dc71e0c5de8ff</title>
<path fill="none" stroke="#63b8ff" d="M573.55,-78.81C652.46,-76.64 864.73,-68.12 1049.9,-34.85"/>
<polygon fill="#63b8ff" stroke="#63b8ff" points="1050.6,-38.28 1059.81,-33.04 1049.35,-31.39 1050.6,-38.28"/>
<g id="a_edge16&#45;headlabel"><a xlink:href="dir_000150_000122.html" target="_top" xlink:title="26">
<text text-anchor="middle" x="1047.58" y="-39.22" font-family="Helvetica,sans-Serif" font-size="10.00" fill="#63b8ff">26</text>
</a>
</g>
</g>
</g>
</svg>
