<?xml version="1.0" encoding="UTF-8" standalone="no"?>
<!DOCTYPE svg PUBLIC "-//W3C//DTD SVG 1.1//EN"
 "http://www.w3.org/Graphics/SVG/1.1/DTD/svg11.dtd">
<!-- Generated by graphviz version 2.43.0 (0)
 -->
<!-- Title: libs/dius/include/dius/linux Pages: 1 -->
<svg width="271pt" height="141pt"
 viewBox="0.00 0.00 270.50 141.00" xmlns="http://www.w3.org/2000/svg" xmlns:xlink="http://www.w3.org/1999/xlink">
<g id="graph0" class="graph" transform="scale(1 1) rotate(0) translate(4 137)">
<title>libs/dius/include/dius/linux</title>
<g id="clust1" class="cluster">
<title>clusterdir_2992e835a4b361d9b2ca5047c35dfcd3</title>
<g id="a_clust1"><a xlink:href="dir_2992e835a4b361d9b2ca5047c35dfcd3.html" target="_top" xlink:title="dius">
<polygon fill="#edf0f7" stroke="#7f7f7f" stroke-dasharray="5,2" points="8,-8 8,-125 168,-125 168,-8 8,-8"/>
<text text-anchor="middle" x="88" y="-113" font-family="Helvetica,sans-Serif" font-size="10.00">dius</text>
</a>
</g>
</g>
<g id="clust2" class="cluster">
<title>clusterdir_e043b7fd757103055e525488867886a8</title>
<g id="a_clust2"><a xlink:href="dir_e043b7fd757103055e525488867886a8.html" target="_top">
<polygon fill="#edf0f7" stroke="#404040" stroke-width="2" points="16,-63 16,-98 160,-98 160,-63 16,-63"/>
</a>
</g>
</g>
<!-- dir_8663e1f92e7e252284972f31150b7e2c -->
<g id="node1" class="node">
<title>dir_8663e1f92e7e252284972f31150b7e2c</title>
<g id="a_node1"><a xlink:href="dir_8663e1f92e7e252284972f31150b7e2c.html" target="_top" xlink:title="posix">
<polygon fill="#a2b4d6" stroke="#404040" points="85.5,-35 42.5,-35 42.5,-16 85.5,-16 85.5,-35"/>
<text text-anchor="middle" x="64" y="-23" font-family="Helvetica,sans-Serif" font-size="10.00">posix</text>
</a>
</g>
</g>
<!-- dir_9b74ca6f6a343c08895628384376fe76 -->
<g id="node2" class="node">
<title>dir_9b74ca6f6a343c08895628384376fe76</title>
<g id="a_node2"><a xlink:href="dir_9b74ca6f6a343c08895628384376fe76.html" target="_top" xlink:title="runtime">
<polygon fill="#a2b4d6" stroke="#404040" points="158.5,-35 103.5,-35 103.5,-16 158.5,-16 158.5,-35"/>
<text text-anchor="middle" x="131" y="-23" font-family="Helvetica,sans-Serif" font-size="10.00">runtime</text>
</a>
</g>
</g>
<!-- dir_e043b7fd757103055e525488867886a8 -->
<g id="node3" class="node">
<title>dir_e043b7fd757103055e525488867886a8</title>
<text text-anchor="middle" x="131" y="-78" font-family="Helvetica,sans-Serif" font-size="10.00">linux</text>
</g>
<!-- dir_e043b7fd757103055e525488867886a8&#45;&gt;dir_8663e1f92e7e252284972f31150b7e2c -->
<g id="edge2" class="edge">
<title>dir_e043b7fd757103055e525488867886a8&#45;&gt;dir_8663e1f92e7e252284972f31150b7e2c</title>
<path fill="none" stroke="#63b8ff" d="M120.24,-70.98C110.23,-63.07 95.11,-51.11 83.07,-41.58"/>
<polygon fill="#63b8ff" stroke="#63b8ff" points="84.97,-38.63 74.96,-35.17 80.63,-44.12 84.97,-38.63"/>
<g id="a_edge2&#45;headlabel"><a xlink:href="dir_000113_000137.html" target="_top" xlink:title="1">
<text text-anchor="middle" x="89.56" y="-36.13" font-family="Helvetica,sans-Serif" font-size="10.00" fill="#63b8ff">1</text>
</a>
</g>
</g>
<!-- dir_e043b7fd757103055e525488867886a8&#45;&gt;dir_9b74ca6f6a343c08895628384376fe76 -->
<g id="edge4" class="edge">
<title>dir_e043b7fd757103055e525488867886a8&#45;&gt;dir_9b74ca6f6a343c08895628384376fe76</title>
<path fill="none" stroke="#63b8ff" d="M131,-70.75C131,-63.8 131,-53.85 131,-45.13"/>
<polygon fill="#63b8ff" stroke="#63b8ff" points="134.5,-45.09 131,-35.09 127.5,-45.09 134.5,-45.09"/>
<g id="a_edge4&#45;headlabel"><a xlink:href="dir_000113_000147.html" target="_top" xlink:title="1">
<text text-anchor="middle" x="137.34" y="-46.18" font-family="Helvetica,sans-Serif" font-size="10.00" fill="#63b8ff">1</text>
</a>
</g>
</g>
<!-- dir_048287677304621c659962c2a2c2732d -->
<g id="node5" class="node">
<title>dir_048287677304621c659962c2a2c2732d</title>
<g id="a_node5"><a xlink:href="dir_048287677304621c659962c2a2c2732d.html" target="_top" xlink:title="ccpp">
<polygon fill="#edf0f7" stroke="red" stroke-dasharray="5,2" points="215.5,-35 176.5,-35 176.5,-16 215.5,-16 215.5,-35"/>
<text text-anchor="middle" x="196" y="-23" font-family="Helvetica,sans-Serif" font-size="10.00">ccpp</text>
</a>
</g>
</g>
<!-- dir_e043b7fd757103055e525488867886a8&#45;&gt;dir_048287677304621c659962c2a2c2732d -->
<g id="edge1" class="edge">
<title>dir_e043b7fd757103055e525488867886a8&#45;&gt;dir_048287677304621c659962c2a2c2732d</title>
<path fill="none" stroke="#63b8ff" d="M141.44,-70.98C151.15,-63.07 165.82,-51.11 177.5,-41.58"/>
<polygon fill="#63b8ff" stroke="#63b8ff" points="179.83,-44.2 185.37,-35.17 175.4,-38.78 179.83,-44.2"/>
<g id="a_edge1&#45;headlabel"><a xlink:href="dir_000113_000030.html" target="_top" xlink:title="2">
<text text-anchor="middle" x="178.84" y="-46.17" font-family="Helvetica,sans-Serif" font-size="10.00" fill="#63b8ff">2</text>
</a>
</g>
</g>
<!-- dir_984cd133b143ec7cf21a4bdcb401bfa5 -->
<g id="node6" class="node">
<title>dir_984cd133b143ec7cf21a4bdcb401bfa5</title>
<g id="a_node6"><a xlink:href="dir_984cd133b143ec7cf21a4bdcb401bfa5.html" target="_top" xlink:title="di">
<polygon fill="#edf0f7" stroke="red" stroke-dasharray="5,2" points="262.5,-35 233.5,-35 233.5,-16 262.5,-16 262.5,-35"/>
<text text-anchor="middle" x="248" y="-23" font-family="Helvetica,sans-Serif" font-size="10.00">di</text>
</a>
</g>
</g>
<!-- dir_e043b7fd757103055e525488867886a8&#45;&gt;dir_984cd133b143ec7cf21a4bdcb401bfa5 -->
<g id="edge3" class="edge">
<title>dir_e043b7fd757103055e525488867886a8&#45;&gt;dir_984cd133b143ec7cf21a4bdcb401bfa5</title>
<path fill="none" stroke="#63b8ff" d="M149.8,-70.98C169.96,-61.85 202.05,-47.32 224.02,-37.36"/>
<polygon fill="#63b8ff" stroke="#63b8ff" points="225.66,-40.46 233.32,-33.15 222.77,-34.09 225.66,-40.46"/>
<g id="a_edge3&#45;headlabel"><a xlink:href="dir_000113_000058.html" target="_top" xlink:title="21">
<text text-anchor="middle" x="223.55" y="-42.03" font-family="Helvetica,sans-Serif" font-size="10.00" fill="#63b8ff">21</text>
</a>
</g>
</g>
<!-- dir_7857628ec6effa767790b1155ef996c2 -->
<g id="node4" class="node">
<title>dir_7857628ec6effa767790b1155ef996c2</title>
<g id="a_node4"><a xlink:href="dir_7857628ec6effa767790b1155ef996c2.html" target="_top" xlink:title="filesystem">
<polygon fill="#a2b4d6" stroke="#404040" points="92,-90 24,-90 24,-71 92,-71 92,-90"/>
<text text-anchor="middle" x="58" y="-78" font-family="Helvetica,sans-Serif" font-size="10.00">filesystem</text>
</a>
</g>
</g>
</g>
</svg>
