<?xml version="1.0" encoding="UTF-8" standalone="no"?>
<!DOCTYPE svg PUBLIC "-//W3C//DTD SVG 1.1//EN"
 "http://www.w3.org/Graphics/SVG/1.1/DTD/svg11.dtd">
<!-- Generated by graphviz version 2.43.0 (0)
 -->
<!-- Title: libs/ccpp/include/ccpp Pages: 1 -->
<svg width="234pt" height="141pt"
 viewBox="0.00 0.00 233.50 141.00" xmlns="http://www.w3.org/2000/svg" xmlns:xlink="http://www.w3.org/1999/xlink">
<g id="graph0" class="graph" transform="scale(1 1) rotate(0) translate(4 137)">
<title>libs/ccpp/include/ccpp</title>
<g id="clust1" class="cluster">
<title>clusterdir_4a059f36db6300b3f1d6a7b4bd94b473</title>
<g id="a_clust1"><a xlink:href="dir_4a059f36db6300b3f1d6a7b4bd94b473.html" target="_top" xlink:title="include">
<polygon fill="#edf0f7" stroke="#7f7f7f" stroke-dasharray="5,2" points="8,-8 8,-125 133,-125 133,-8 8,-8"/>
<text text-anchor="middle" x="70.5" y="-113" font-family="Helvetica,sans-Serif" font-size="10.00">include</text>
</a>
</g>
</g>
<g id="clust2" class="cluster">
<title>clusterdir_aa9f8c7577a92311a8c2e40690a7e137</title>
<g id="a_clust2"><a xlink:href="dir_aa9f8c7577a92311a8c2e40690a7e137.html" target="_top">
<polygon fill="#edf0f7" stroke="#404040" stroke-width="2" points="16,-63 16,-98 125,-98 125,-63 16,-63"/>
</a>
</g>
</g>
<!-- dir_5371168e787cb85082629e1689d1d049 -->
<g id="node1" class="node">
<title>dir_5371168e787cb85082629e1689d1d049</title>
<g id="a_node1"><a xlink:href="dir_5371168e787cb85082629e1689d1d049.html" target="_top" xlink:title="sys">
<polygon fill="#a2b4d6" stroke="#404040" points="58.5,-35 25.5,-35 25.5,-16 58.5,-16 58.5,-35"/>
<text text-anchor="middle" x="42" y="-23" font-family="Helvetica,sans-Serif" font-size="10.00">sys</text>
</a>
</g>
</g>
<!-- dir_aa9f8c7577a92311a8c2e40690a7e137 -->
<g id="node2" class="node">
<title>dir_aa9f8c7577a92311a8c2e40690a7e137</title>
<text text-anchor="middle" x="97" y="-78" font-family="Helvetica,sans-Serif" font-size="10.00">ccpp</text>
</g>
<!-- dir_b84d865ffd97944f8878849fa5a1b425 -->
<g id="node3" class="node">
<title>dir_b84d865ffd97944f8878849fa5a1b425</title>
<g id="a_node3"><a xlink:href="dir_b84d865ffd97944f8878849fa5a1b425.html" target="_top" xlink:title="bits">
<polygon fill="#a2b4d6" stroke="#404040" points="59.5,-90 24.5,-90 24.5,-71 59.5,-71 59.5,-90"/>
<text text-anchor="middle" x="42" y="-78" font-family="Helvetica,sans-Serif" font-size="10.00">bits</text>
</a>
</g>
</g>
<!-- dir_b84d865ffd97944f8878849fa5a1b425&#45;&gt;dir_5371168e787cb85082629e1689d1d049 -->
<g id="edge2" class="edge">
<title>dir_b84d865ffd97944f8878849fa5a1b425&#45;&gt;dir_5371168e787cb85082629e1689d1d049</title>
<path fill="none" stroke="#63b8ff" d="M42,-70.75C42,-63.8 42,-53.85 42,-45.13"/>
<polygon fill="#63b8ff" stroke="#63b8ff" points="45.5,-45.09 42,-35.09 38.5,-45.09 45.5,-45.09"/>
<g id="a_edge2&#45;headlabel"><a xlink:href="dir_000023_000163.html" target="_top" xlink:title="3">
<text text-anchor="middle" x="48.34" y="-46.18" font-family="Helvetica,sans-Serif" font-size="10.00" fill="#63b8ff">3</text>
</a>
</g>
</g>
<!-- dir_2bc9e3f402dd86ba93785edd287294d9 -->
<g id="node4" class="node">
<title>dir_2bc9e3f402dd86ba93785edd287294d9</title>
<g id="a_node4"><a xlink:href="dir_2bc9e3f402dd86ba93785edd287294d9.html" target="_top" xlink:title="dius">
<polygon fill="#edf0f7" stroke="red" stroke-dasharray="5,2" points="178.5,-35 141.5,-35 141.5,-16 178.5,-16 178.5,-35"/>
<text text-anchor="middle" x="160" y="-23" font-family="Helvetica,sans-Serif" font-size="10.00">dius</text>
</a>
</g>
</g>
<!-- dir_b84d865ffd97944f8878849fa5a1b425&#45;&gt;dir_2bc9e3f402dd86ba93785edd287294d9 -->
<g id="edge1" class="edge">
<title>dir_b84d865ffd97944f8878849fa5a1b425&#45;&gt;dir_2bc9e3f402dd86ba93785edd287294d9</title>
<path fill="none" stroke="#63b8ff" d="M54.93,-70.99C59.31,-68.28 64.29,-65.36 69,-63 80.4,-57.28 109.63,-45.75 131.91,-37.18"/>
<polygon fill="#63b8ff" stroke="#63b8ff" points="133.18,-40.44 141.26,-33.59 130.67,-33.9 133.18,-40.44"/>
<g id="a_edge1&#45;headlabel"><a xlink:href="dir_000023_000063.html" target="_top" xlink:title="4">
<text text-anchor="middle" x="130.84" y="-41.88" font-family="Helvetica,sans-Serif" font-size="10.00" fill="#63b8ff">4</text>
</a>
</g>
</g>
<!-- dir_984cd133b143ec7cf21a4bdcb401bfa5 -->
<g id="node5" class="node">
<title>dir_984cd133b143ec7cf21a4bdcb401bfa5</title>
<g id="a_node5"><a xlink:href="dir_984cd133b143ec7cf21a4bdcb401bfa5.html" target="_top" xlink:title="di">
<polygon fill="#edf0f7" stroke="red" stroke-dasharray="5,2" points="225.5,-35 196.5,-35 196.5,-16 225.5,-16 225.5,-35"/>
<text text-anchor="middle" x="211" y="-23" font-family="Helvetica,sans-Serif" font-size="10.00">di</text>
</a>
</g>
</g>
<!-- dir_b84d865ffd97944f8878849fa5a1b425&#45;&gt;dir_984cd133b143ec7cf21a4bdcb401bfa5 -->
<g id="edge3" class="edge">
<title>dir_b84d865ffd97944f8878849fa5a1b425&#45;&gt;dir_984cd133b143ec7cf21a4bdcb401bfa5</title>
<path fill="none" stroke="#63b8ff" d="M54.2,-70.91C58.69,-68.06 63.92,-65.09 69,-63 116.41,-43.52 133.97,-49.82 186.62,-35.06"/>
<polygon fill="#63b8ff" stroke="#63b8ff" points="187.88,-38.34 196.49,-32.17 185.91,-31.62 187.88,-38.34"/>
<g id="a_edge3&#45;headlabel"><a xlink:href="dir_000023_000058.html" target="_top" xlink:title="13">
<text text-anchor="middle" x="185.23" y="-39.58" font-family="Helvetica,sans-Serif" font-size="10.00" fill="#63b8ff">13</text>
</a>
</g>
</g>
</g>
</svg>
