<?xml version="1.0" encoding="UTF-8" standalone="no"?>
<!DOCTYPE svg PUBLIC "-//W3C//DTD SVG 1.1//EN"
 "http://www.w3.org/Graphics/SVG/1.1/DTD/svg11.dtd">
<!-- Generated by graphviz version 2.43.0 (0)
 -->
<!-- Title: libs/ccpp/stdio Pages: 1 -->
<svg width="179pt" height="133pt"
 viewBox="0.00 0.00 178.50 133.00" xmlns="http://www.w3.org/2000/svg" xmlns:xlink="http://www.w3.org/1999/xlink">
<g id="graph0" class="graph" transform="scale(1 1) rotate(0) translate(4 129)">
<title>libs/ccpp/stdio</title>
<g id="clust1" class="cluster">
<title>clusterdir_048287677304621c659962c2a2c2732d</title>
<g id="a_clust1"><a xlink:href="dir_048287677304621c659962c2a2c2732d.html" target="_top" xlink:title="ccpp">
<polygon fill="#edf0f7" stroke="#7f7f7f" stroke-dasharray="5,2" points="8,-8 8,-117 76,-117 76,-8 8,-8"/>
<text text-anchor="middle" x="42" y="-105" font-family="Helvetica,sans-Serif" font-size="10.00">ccpp</text>
</a>
</g>
</g>
<!-- dir_4a059f36db6300b3f1d6a7b4bd94b473 -->
<g id="node1" class="node">
<title>dir_4a059f36db6300b3f1d6a7b4bd94b473</title>
<g id="a_node1"><a xlink:href="dir_4a059f36db6300b3f1d6a7b4bd94b473.html" target="_top" xlink:title="include">
<polygon fill="#a2b4d6" stroke="red" points="68,-35 16,-35 16,-16 68,-16 68,-35"/>
<text text-anchor="middle" x="42" y="-23" font-family="Helvetica,sans-Serif" font-size="10.00">include</text>
</a>
</g>
</g>
<!-- dir_655d2fdf70ec12db9c8dc6404b7f8c45 -->
<g id="node2" class="node">
<title>dir_655d2fdf70ec12db9c8dc6404b7f8c45</title>
<g id="a_node2"><a xlink:href="dir_655d2fdf70ec12db9c8dc6404b7f8c45.html" target="_top" xlink:title="stdio">
<polygon fill="#edf0f7" stroke="#404040" stroke-width="2" points="67.5,-90 26.5,-90 26.5,-71 67.5,-71 67.5,-90"/>
<text text-anchor="middle" x="47" y="-78" font-family="Helvetica,sans-Serif" font-size="10.00">stdio</text>
</a>
</g>
</g>
<!-- dir_655d2fdf70ec12db9c8dc6404b7f8c45&#45;&gt;dir_4a059f36db6300b3f1d6a7b4bd94b473 -->
<g id="edge2" class="edge">
<title>dir_655d2fdf70ec12db9c8dc6404b7f8c45&#45;&gt;dir_4a059f36db6300b3f1d6a7b4bd94b473</title>
<path fill="none" stroke="#63b8ff" d="M46.17,-70.75C45.52,-63.8 44.58,-53.85 43.76,-45.13"/>
<polygon fill="#63b8ff" stroke="#63b8ff" points="47.23,-44.72 42.81,-35.09 40.27,-45.37 47.23,-44.72"/>
<g id="a_edge2&#45;headlabel"><a xlink:href="dir_000156_000091.html" target="_top" xlink:title="90">
<text text-anchor="middle" x="50.4" y="-45.53" font-family="Helvetica,sans-Serif" font-size="10.00" fill="#63b8ff">90</text>
</a>
</g>
</g>
<!-- dir_2bc9e3f402dd86ba93785edd287294d9 -->
<g id="node3" class="node">
<title>dir_2bc9e3f402dd86ba93785edd287294d9</title>
<g id="a_node3"><a xlink:href="dir_2bc9e3f402dd86ba93785edd287294d9.html" target="_top" xlink:title="dius">
<polygon fill="#edf0f7" stroke="red" stroke-dasharray="5,2" points="123.5,-35 86.5,-35 86.5,-16 123.5,-16 123.5,-35"/>
<text text-anchor="middle" x="105" y="-23" font-family="Helvetica,sans-Serif" font-size="10.00">dius</text>
</a>
</g>
</g>
<!-- dir_655d2fdf70ec12db9c8dc6404b7f8c45&#45;&gt;dir_2bc9e3f402dd86ba93785edd287294d9 -->
<g id="edge1" class="edge">
<title>dir_655d2fdf70ec12db9c8dc6404b7f8c45&#45;&gt;dir_2bc9e3f402dd86ba93785edd287294d9</title>
<path fill="none" stroke="#63b8ff" d="M56.32,-70.98C64.81,-63.23 77.56,-51.58 87.88,-42.14"/>
<polygon fill="#63b8ff" stroke="#63b8ff" points="90.49,-44.5 95.51,-35.17 85.77,-39.33 90.49,-44.5"/>
<g id="a_edge1&#45;headlabel"><a xlink:href="dir_000156_000063.html" target="_top" xlink:title="1">
<text text-anchor="middle" x="89.75" y="-46.52" font-family="Helvetica,sans-Serif" font-size="10.00" fill="#63b8ff">1</text>
</a>
</g>
</g>
<!-- dir_984cd133b143ec7cf21a4bdcb401bfa5 -->
<g id="node4" class="node">
<title>dir_984cd133b143ec7cf21a4bdcb401bfa5</title>
<g id="a_node4"><a xlink:href="dir_984cd133b143ec7cf21a4bdcb401bfa5.html" target="_top" xlink:title="di">
<polygon fill="#edf0f7" stroke="red" stroke-dasharray="5,2" points="170.5,-35 141.5,-35 141.5,-16 170.5,-16 170.5,-35"/>
<text text-anchor="middle" x="156" y="-23" font-family="Helvetica,sans-Serif" font-size="10.00">di</text>
</a>
</g>
</g>
<!-- dir_655d2fdf70ec12db9c8dc6404b7f8c45&#45;&gt;dir_984cd133b143ec7cf21a4bdcb401bfa5 -->
<g id="edge3" class="edge">
<title>dir_655d2fdf70ec12db9c8dc6404b7f8c45&#45;&gt;dir_984cd133b143ec7cf21a4bdcb401bfa5</title>
<path fill="none" stroke="#63b8ff" d="M64.51,-70.98C82.82,-62.08 111.67,-48.05 132.07,-38.13"/>
<polygon fill="#63b8ff" stroke="#63b8ff" points="133.86,-41.16 141.33,-33.63 130.8,-34.86 133.86,-41.16"/>
<g id="a_edge3&#45;headlabel"><a xlink:href="dir_000156_000058.html" target="_top" xlink:title="11">
<text text-anchor="middle" x="131.87" y="-42.78" font-family="Helvetica,sans-Serif" font-size="10.00" fill="#63b8ff">11</text>
</a>
</g>
</g>
</g>
</svg>
