<?xml version="1.0" encoding="UTF-8" standalone="no"?>
<!DOCTYPE svg PUBLIC "-//W3C//DTD SVG 1.1//EN"
 "http://www.w3.org/Graphics/SVG/1.1/DTD/svg11.dtd">
<!-- Generated by graphviz version 2.43.0 (0)
 -->
<!-- Title: libs/di/include/di/platform Pages: 1 -->
<svg width="228pt" height="133pt"
 viewBox="0.00 0.00 228.00 133.00" xmlns="http://www.w3.org/2000/svg" xmlns:xlink="http://www.w3.org/1999/xlink">
<g id="graph0" class="graph" transform="scale(1 1) rotate(0) translate(4 129)">
<title>libs/di/include/di/platform</title>
<g id="clust1" class="cluster">
<title>clusterdir_f95a1a0ab1b96e316090c1bcac3c2c99</title>
<g id="a_clust1"><a xlink:href="dir_f95a1a0ab1b96e316090c1bcac3c2c99.html" target="_top" xlink:title="di">
<polygon fill="#edf0f7" stroke="#7f7f7f" stroke-dasharray="5,2" points="8,-8 8,-117 212,-117 212,-8 8,-8"/>
<text text-anchor="middle" x="110" y="-105" font-family="Helvetica,sans-Serif" font-size="10.00">di</text>
</a>
</g>
</g>
<!-- dir_30ecaf38acae77be14fb9173f98f8612 -->
<g id="node1" class="node">
<title>dir_30ecaf38acae77be14fb9173f98f8612</title>
<g id="a_node1"><a xlink:href="dir_30ecaf38acae77be14fb9173f98f8612.html" target="_top" xlink:title="types">
<polygon fill="#a2b4d6" stroke="#404040" points="60,-35 16,-35 16,-16 60,-16 60,-35"/>
<text text-anchor="middle" x="38" y="-23" font-family="Helvetica,sans-Serif" font-size="10.00">types</text>
</a>
</g>
</g>
<!-- dir_521de572ae4fe2915cc70a876c52f5b7 -->
<g id="node2" class="node">
<title>dir_521de572ae4fe2915cc70a876c52f5b7</title>
<g id="a_node2"><a xlink:href="dir_521de572ae4fe2915cc70a876c52f5b7.html" target="_top" xlink:title="container">
<polygon fill="#a2b4d6" stroke="red" points="140,-35 78,-35 78,-16 140,-16 140,-35"/>
<text text-anchor="middle" x="109" y="-23" font-family="Helvetica,sans-Serif" font-size="10.00">container</text>
</a>
</g>
</g>
<!-- dir_942cfae36a92b6b1c4b510e99e852d40 -->
<g id="node3" class="node">
<title>dir_942cfae36a92b6b1c4b510e99e852d40</title>
<g id="a_node3"><a xlink:href="dir_942cfae36a92b6b1c4b510e99e852d40.html" target="_top" xlink:title="vocab">
<polygon fill="#a2b4d6" stroke="red" points="204,-35 158,-35 158,-16 204,-16 204,-35"/>
<text text-anchor="middle" x="181" y="-23" font-family="Helvetica,sans-Serif" font-size="10.00">vocab</text>
</a>
</g>
</g>
<!-- dir_aaf67126bd5deefc4d96704f76f22cc2 -->
<g id="node4" class="node">
<title>dir_aaf67126bd5deefc4d96704f76f22cc2</title>
<g id="a_node4"><a xlink:href="dir_aaf67126bd5deefc4d96704f76f22cc2.html" target="_top" xlink:title="platform">
<polygon fill="#edf0f7" stroke="#404040" stroke-width="2" points="138.5,-90 79.5,-90 79.5,-71 138.5,-71 138.5,-90"/>
<text text-anchor="middle" x="109" y="-78" font-family="Helvetica,sans-Serif" font-size="10.00">platform</text>
</a>
</g>
</g>
<!-- dir_aaf67126bd5deefc4d96704f76f22cc2&#45;&gt;dir_30ecaf38acae77be14fb9173f98f8612 -->
<g id="edge1" class="edge">
<title>dir_aaf67126bd5deefc4d96704f76f22cc2&#45;&gt;dir_30ecaf38acae77be14fb9173f98f8612</title>
<path fill="none" stroke="#63b8ff" d="M97.59,-70.98C86.89,-63 70.66,-50.88 57.84,-41.31"/>
<polygon fill="#63b8ff" stroke="#63b8ff" points="59.72,-38.35 49.61,-35.17 55.53,-43.96 59.72,-38.35"/>
<g id="a_edge1&#45;headlabel"><a xlink:href="dir_000135_000180.html" target="_top" xlink:title="1">
<text text-anchor="middle" x="64.3" y="-35.72" font-family="Helvetica,sans-Serif" font-size="10.00" fill="#63b8ff">1</text>
</a>
</g>
</g>
<!-- dir_aaf67126bd5deefc4d96704f76f22cc2&#45;&gt;dir_521de572ae4fe2915cc70a876c52f5b7 -->
<g id="edge2" class="edge">
<title>dir_aaf67126bd5deefc4d96704f76f22cc2&#45;&gt;dir_521de572ae4fe2915cc70a876c52f5b7</title>
<path fill="none" stroke="#63b8ff" d="M109,-70.75C109,-63.8 109,-53.85 109,-45.13"/>
<polygon fill="#63b8ff" stroke="#63b8ff" points="112.5,-45.09 109,-35.09 105.5,-45.09 112.5,-45.09"/>
<g id="a_edge2&#45;headlabel"><a xlink:href="dir_000135_000046.html" target="_top" xlink:title="4">
<text text-anchor="middle" x="115.34" y="-46.18" font-family="Helvetica,sans-Serif" font-size="10.00" fill="#63b8ff">4</text>
</a>
</g>
</g>
<!-- dir_aaf67126bd5deefc4d96704f76f22cc2&#45;&gt;dir_942cfae36a92b6b1c4b510e99e852d40 -->
<g id="edge3" class="edge">
<title>dir_aaf67126bd5deefc4d96704f76f22cc2&#45;&gt;dir_942cfae36a92b6b1c4b510e99e852d40</title>
<path fill="none" stroke="#63b8ff" d="M120.57,-70.98C131.42,-63 147.88,-50.88 160.88,-41.31"/>
<polygon fill="#63b8ff" stroke="#63b8ff" points="163.24,-43.92 169.22,-35.17 159.09,-38.28 163.24,-43.92"/>
<g id="a_edge3&#45;headlabel"><a xlink:href="dir_000135_000189.html" target="_top" xlink:title="4">
<text text-anchor="middle" x="162.03" y="-45.83" font-family="Helvetica,sans-Serif" font-size="10.00" fill="#63b8ff">4</text>
</a>
</g>
</g>
</g>
</svg>
