<?xml version="1.0" encoding="UTF-8" standalone="no"?>
<!DOCTYPE svg PUBLIC "-//W3C//DTD SVG 1.1//EN"
 "http://www.w3.org/Graphics/SVG/1.1/DTD/svg11.dtd">
<!-- Generated by graphviz version 2.43.0 (0)
 -->
<!-- Title: libs/dius/include Pages: 1 -->
<svg width="185pt" height="125pt"
 viewBox="0.00 0.00 184.50 125.00" xmlns="http://www.w3.org/2000/svg" xmlns:xlink="http://www.w3.org/1999/xlink">
<g id="graph0" class="graph" transform="scale(1 1) rotate(0) translate(4 121)">
<title>libs/dius/include</title>
<g id="clust1" class="cluster">
<title>clusterdir_2bc9e3f402dd86ba93785edd287294d9</title>
<g id="a_clust1"><a xlink:href="dir_2bc9e3f402dd86ba93785edd287294d9.html" target="_top" xlink:title="dius">
<polygon fill="#edf0f7" stroke="#7f7f7f" stroke-dasharray="5,2" points="28.5,-39 28.5,-109 168.5,-109 168.5,-39 28.5,-39"/>
<text text-anchor="middle" x="98.5" y="-97" font-family="Helvetica,sans-Serif" font-size="10.00">dius</text>
</a>
</g>
</g>
<g id="clust2" class="cluster">
<title>clusterdir_6ac4aa95e4478b160428441746083760</title>
<g id="a_clust2"><a xlink:href="dir_6ac4aa95e4478b160428441746083760.html" target="_top">
<polygon fill="#edf0f7" stroke="#404040" stroke-width="2" points="36.5,-47 36.5,-82 160.5,-82 160.5,-47 36.5,-47"/>
</a>
</g>
</g>
<!-- dir_6ac4aa95e4478b160428441746083760 -->
<g id="node1" class="node">
<title>dir_6ac4aa95e4478b160428441746083760</title>
<text text-anchor="middle" x="126.5" y="-62" font-family="Helvetica,sans-Serif" font-size="10.00">include</text>
</g>
<!-- dir_2992e835a4b361d9b2ca5047c35dfcd3 -->
<g id="node2" class="node">
<title>dir_2992e835a4b361d9b2ca5047c35dfcd3</title>
<g id="a_node2"><a xlink:href="dir_2992e835a4b361d9b2ca5047c35dfcd3.html" target="_top" xlink:title="dius">
<polygon fill="#a2b4d6" stroke="#404040" points="82,-74 45,-74 45,-55 82,-55 82,-74"/>
<text text-anchor="middle" x="63.5" y="-62" font-family="Helvetica,sans-Serif" font-size="10.00">dius</text>
</a>
</g>
</g>
<!-- dir_984cd133b143ec7cf21a4bdcb401bfa5 -->
<g id="node3" class="node">
<title>dir_984cd133b143ec7cf21a4bdcb401bfa5</title>
<g id="a_node3"><a xlink:href="dir_984cd133b143ec7cf21a4bdcb401bfa5.html" target="_top" xlink:title="di">
<polygon fill="#edf0f7" stroke="red" stroke-dasharray="5,2" points="29,-19 0,-19 0,0 29,0 29,-19"/>
<text text-anchor="middle" x="14.5" y="-7" font-family="Helvetica,sans-Serif" font-size="10.00">di</text>
</a>
</g>
</g>
<!-- dir_2992e835a4b361d9b2ca5047c35dfcd3&#45;&gt;dir_984cd133b143ec7cf21a4bdcb401bfa5 -->
<g id="edge1" class="edge">
<title>dir_2992e835a4b361d9b2ca5047c35dfcd3&#45;&gt;dir_984cd133b143ec7cf21a4bdcb401bfa5</title>
<path fill="none" stroke="#63b8ff" d="M55.41,-54.75C48.34,-47.11 37.91,-35.82 29.35,-26.56"/>
<polygon fill="#63b8ff" stroke="#63b8ff" points="31.8,-24.06 22.44,-19.09 26.66,-28.81 31.8,-24.06"/>
<g id="a_edge1&#45;headlabel"><a xlink:href="dir_000064_000058.html" target="_top" xlink:title="96">
<text text-anchor="middle" x="36.32" y="-22.27" font-family="Helvetica,sans-Serif" font-size="10.00" fill="#63b8ff">96</text>
</a>
</g>
</g>
<!-- dir_2605f0c6ea8f9a17a384edc9a2df15f4 -->
<g id="node4" class="node">
<title>dir_2605f0c6ea8f9a17a384edc9a2df15f4</title>
<g id="a_node4"><a xlink:href="dir_2605f0c6ea8f9a17a384edc9a2df15f4.html" target="_top" xlink:title="iris">
<polygon fill="#edf0f7" stroke="red" points="79.5,-19 47.5,-19 47.5,0 79.5,0 79.5,-19"/>
<text text-anchor="middle" x="63.5" y="-7" font-family="Helvetica,sans-Serif" font-size="10.00">iris</text>
</a>
</g>
</g>
<!-- dir_2992e835a4b361d9b2ca5047c35dfcd3&#45;&gt;dir_2605f0c6ea8f9a17a384edc9a2df15f4 -->
<g id="edge2" class="edge">
<title>dir_2992e835a4b361d9b2ca5047c35dfcd3&#45;&gt;dir_2605f0c6ea8f9a17a384edc9a2df15f4</title>
<path fill="none" stroke="#63b8ff" d="M63.5,-54.75C63.5,-47.8 63.5,-37.85 63.5,-29.13"/>
<polygon fill="#63b8ff" stroke="#63b8ff" points="67,-29.09 63.5,-19.09 60,-29.09 67,-29.09"/>
<g id="a_edge2&#45;headlabel"><a xlink:href="dir_000064_000102.html" target="_top" xlink:title="2">
<text text-anchor="middle" x="69.84" y="-30.18" font-family="Helvetica,sans-Serif" font-size="10.00" fill="#63b8ff">2</text>
</a>
</g>
</g>
<!-- dir_048287677304621c659962c2a2c2732d -->
<g id="node5" class="node">
<title>dir_048287677304621c659962c2a2c2732d</title>
<g id="a_node5"><a xlink:href="dir_048287677304621c659962c2a2c2732d.html" target="_top" xlink:title="ccpp">
<polygon fill="#edf0f7" stroke="red" stroke-dasharray="5,2" points="137,-19 98,-19 98,0 137,0 137,-19"/>
<text text-anchor="middle" x="117.5" y="-7" font-family="Helvetica,sans-Serif" font-size="10.00">ccpp</text>
</a>
</g>
</g>
<!-- dir_2992e835a4b361d9b2ca5047c35dfcd3&#45;&gt;dir_048287677304621c659962c2a2c2732d -->
<g id="edge3" class="edge">
<title>dir_2992e835a4b361d9b2ca5047c35dfcd3&#45;&gt;dir_048287677304621c659962c2a2c2732d</title>
<path fill="none" stroke="#63b8ff" d="M72.42,-54.75C80.28,-47.03 91.93,-35.6 101.42,-26.28"/>
<polygon fill="#63b8ff" stroke="#63b8ff" points="104.06,-28.59 108.75,-19.09 99.16,-23.6 104.06,-28.59"/>
<g id="a_edge3&#45;headlabel"><a xlink:href="dir_000064_000030.html" target="_top" xlink:title="2">
<text text-anchor="middle" x="103.49" y="-30.64" font-family="Helvetica,sans-Serif" font-size="10.00" fill="#63b8ff">2</text>
</a>
</g>
</g>
</g>
</svg>
