<?xml version="1.0" encoding="UTF-8" standalone="no"?>
<!DOCTYPE svg PUBLIC "-//W3C//DTD SVG 1.1//EN"
 "http://www.w3.org/Graphics/SVG/1.1/DTD/svg11.dtd">
<!-- Generated by graphviz version 2.43.0 (0)
 -->
<!-- Title: libs/di/include/di/execution/receiver Pages: 1 -->
<svg width="538pt" height="133pt"
 viewBox="0.00 0.00 538.00 133.00" xmlns="http://www.w3.org/2000/svg" xmlns:xlink="http://www.w3.org/1999/xlink">
<g id="graph0" class="graph" transform="scale(1 1) rotate(0) translate(4 129)">
<title>libs/di/include/di/execution/receiver</title>
<g id="clust1" class="cluster">
<title>clusterdir_182dab0b86097ba072332b7ad8fceb7f</title>
<g id="a_clust1"><a xlink:href="dir_182dab0b86097ba072332b7ad8fceb7f.html" target="_top" xlink:title="execution">
<polygon fill="#edf0f7" stroke="#7f7f7f" stroke-dasharray="5,2" points="8,-8 8,-117 290,-117 290,-8 8,-8"/>
<text text-anchor="middle" x="149" y="-105" font-family="Helvetica,sans-Serif" font-size="10.00">execution</text>
</a>
</g>
</g>
<!-- dir_38011a79da39fb3448319eccf8c364d9 -->
<g id="node1" class="node">
<title>dir_38011a79da39fb3448319eccf8c364d9</title>
<g id="a_node1"><a xlink:href="dir_38011a79da39fb3448319eccf8c364d9.html" target="_top" xlink:title="query">
<polygon fill="#a2b4d6" stroke="#404040" points="60,-35 16,-35 16,-16 60,-16 60,-35"/>
<text text-anchor="middle" x="38" y="-23" font-family="Helvetica,sans-Serif" font-size="10.00">query</text>
</a>
</g>
</g>
<!-- dir_569ed69d6bb9bf9a95676c3a98a04440 -->
<g id="node2" class="node">
<title>dir_569ed69d6bb9bf9a95676c3a98a04440</title>
<g id="a_node2"><a xlink:href="dir_569ed69d6bb9bf9a95676c3a98a04440.html" target="_top" xlink:title="types">
<polygon fill="#a2b4d6" stroke="#404040" points="122,-35 78,-35 78,-16 122,-16 122,-35"/>
<text text-anchor="middle" x="100" y="-23" font-family="Helvetica,sans-Serif" font-size="10.00">types</text>
</a>
</g>
</g>
<!-- dir_72b20bf6291bd35729057dcb4ccbac76 -->
<g id="node3" class="node">
<title>dir_72b20bf6291bd35729057dcb4ccbac76</title>
<g id="a_node3"><a xlink:href="dir_72b20bf6291bd35729057dcb4ccbac76.html" target="_top" xlink:title="concepts">
<polygon fill="#a2b4d6" stroke="#404040" points="200,-35 140,-35 140,-16 200,-16 200,-35"/>
<text text-anchor="middle" x="170" y="-23" font-family="Helvetica,sans-Serif" font-size="10.00">concepts</text>
</a>
</g>
</g>
<!-- dir_b7ad26a73b774414b6d3658268280d20 -->
<g id="node4" class="node">
<title>dir_b7ad26a73b774414b6d3658268280d20</title>
<g id="a_node4"><a xlink:href="dir_b7ad26a73b774414b6d3658268280d20.html" target="_top" xlink:title="sequence">
<polygon fill="#a2b4d6" stroke="#404040" points="281.5,-35 218.5,-35 218.5,-16 281.5,-16 281.5,-35"/>
<text text-anchor="middle" x="250" y="-23" font-family="Helvetica,sans-Serif" font-size="10.00">sequence</text>
</a>
</g>
</g>
<!-- dir_8620533e8531467fdbfb737d3ec42837 -->
<g id="node5" class="node">
<title>dir_8620533e8531467fdbfb737d3ec42837</title>
<g id="a_node5"><a xlink:href="dir_8620533e8531467fdbfb737d3ec42837.html" target="_top" xlink:title="receiver">
<polygon fill="#edf0f7" stroke="#404040" stroke-width="2" points="280,-90 224,-90 224,-71 280,-71 280,-90"/>
<text text-anchor="middle" x="252" y="-78" font-family="Helvetica,sans-Serif" font-size="10.00">receiver</text>
</a>
</g>
</g>
<!-- dir_8620533e8531467fdbfb737d3ec42837&#45;&gt;dir_38011a79da39fb3448319eccf8c364d9 -->
<g id="edge2" class="edge">
<title>dir_8620533e8531467fdbfb737d3ec42837&#45;&gt;dir_38011a79da39fb3448319eccf8c364d9</title>
<path fill="none" stroke="#63b8ff" d="M223.72,-72.89C189.61,-64.86 130.29,-50.72 70.34,-35.29"/>
<polygon fill="#63b8ff" stroke="#63b8ff" points="70.89,-31.82 60.33,-32.71 69.14,-38.6 70.89,-31.82"/>
<g id="a_edge2&#45;headlabel"><a xlink:href="dir_000144_000139.html" target="_top" xlink:title="1">
<text text-anchor="middle" x="75.08" y="-27.47" font-family="Helvetica,sans-Serif" font-size="10.00" fill="#63b8ff">1</text>
</a>
</g>
</g>
<!-- dir_8620533e8531467fdbfb737d3ec42837&#45;&gt;dir_569ed69d6bb9bf9a95676c3a98a04440 -->
<g id="edge4" class="edge">
<title>dir_8620533e8531467fdbfb737d3ec42837&#45;&gt;dir_569ed69d6bb9bf9a95676c3a98a04440</title>
<path fill="none" stroke="#63b8ff" d="M227.58,-70.98C201.6,-61.93 160.41,-47.56 131.89,-37.62"/>
<polygon fill="#63b8ff" stroke="#63b8ff" points="132.97,-34.29 122.38,-34.3 130.67,-40.9 132.97,-34.29"/>
<g id="a_edge4&#45;headlabel"><a xlink:href="dir_000144_000179.html" target="_top" xlink:title="1">
<text text-anchor="middle" x="137.3" y="-30.29" font-family="Helvetica,sans-Serif" font-size="10.00" fill="#63b8ff">1</text>
</a>
</g>
</g>
<!-- dir_8620533e8531467fdbfb737d3ec42837&#45;&gt;dir_72b20bf6291bd35729057dcb4ccbac76 -->
<g id="edge5" class="edge">
<title>dir_8620533e8531467fdbfb737d3ec42837&#45;&gt;dir_72b20bf6291bd35729057dcb4ccbac76</title>
<path fill="none" stroke="#63b8ff" d="M238.83,-70.98C226.23,-62.84 207,-50.41 192.06,-40.76"/>
<polygon fill="#63b8ff" stroke="#63b8ff" points="193.71,-37.66 183.41,-35.17 189.91,-43.54 193.71,-37.66"/>
<g id="a_edge5&#45;headlabel"><a xlink:href="dir_000144_000038.html" target="_top" xlink:title="1">
<text text-anchor="middle" x="198.27" y="-34.73" font-family="Helvetica,sans-Serif" font-size="10.00" fill="#63b8ff">1</text>
</a>
</g>
</g>
<!-- dir_8620533e8531467fdbfb737d3ec42837&#45;&gt;dir_b7ad26a73b774414b6d3658268280d20 -->
<g id="edge7" class="edge">
<title>dir_8620533e8531467fdbfb737d3ec42837&#45;&gt;dir_b7ad26a73b774414b6d3658268280d20</title>
<path fill="none" stroke="#63b8ff" d="M251.67,-70.75C251.41,-63.8 251.03,-53.85 250.7,-45.13"/>
<polygon fill="#63b8ff" stroke="#63b8ff" points="254.2,-44.95 250.32,-35.09 247.2,-45.21 254.2,-44.95"/>
<g id="a_edge7&#45;headlabel"><a xlink:href="dir_000144_000150.html" target="_top" xlink:title="1">
<text text-anchor="middle" x="257.17" y="-45.93" font-family="Helvetica,sans-Serif" font-size="10.00" fill="#63b8ff">1</text>
</a>
</g>
</g>
<!-- dir_0669efae56692bb73da75efb5ebbccdf -->
<g id="node6" class="node">
<title>dir_0669efae56692bb73da75efb5ebbccdf</title>
<g id="a_node6"><a xlink:href="dir_0669efae56692bb73da75efb5ebbccdf.html" target="_top" xlink:title="function">
<polygon fill="#edf0f7" stroke="red" stroke-dasharray="5,2" points="356,-35 300,-35 300,-16 356,-16 356,-35"/>
<text text-anchor="middle" x="328" y="-23" font-family="Helvetica,sans-Serif" font-size="10.00">function</text>
</a>
</g>
</g>
<!-- dir_8620533e8531467fdbfb737d3ec42837&#45;&gt;dir_0669efae56692bb73da75efb5ebbccdf -->
<g id="edge1" class="edge">
<title>dir_8620533e8531467fdbfb737d3ec42837&#45;&gt;dir_0669efae56692bb73da75efb5ebbccdf</title>
<path fill="none" stroke="#63b8ff" d="M264.21,-70.98C275.78,-62.92 293.38,-50.65 307.16,-41.03"/>
<polygon fill="#63b8ff" stroke="#63b8ff" points="309.37,-43.76 315.57,-35.17 305.36,-38.02 309.37,-43.76"/>
<g id="a_edge1&#45;headlabel"><a xlink:href="dir_000144_000082.html" target="_top" xlink:title="4">
<text text-anchor="middle" x="308.04" y="-45.65" font-family="Helvetica,sans-Serif" font-size="10.00" fill="#63b8ff">4</text>
</a>
</g>
</g>
<!-- dir_4535887b2cdca47e625f259d07db0112 -->
<g id="node7" class="node">
<title>dir_4535887b2cdca47e625f259d07db0112</title>
<g id="a_node7"><a xlink:href="dir_4535887b2cdca47e625f259d07db0112.html" target="_top" xlink:title="util">
<polygon fill="#edf0f7" stroke="#7f7f7f" points="406,-35 374,-35 374,-16 406,-16 406,-35"/>
<text text-anchor="middle" x="390" y="-23" font-family="Helvetica,sans-Serif" font-size="10.00">util</text>
</a>
</g>
</g>
<!-- dir_8620533e8531467fdbfb737d3ec42837&#45;&gt;dir_4535887b2cdca47e625f259d07db0112 -->
<g id="edge3" class="edge">
<title>dir_8620533e8531467fdbfb737d3ec42837&#45;&gt;dir_4535887b2cdca47e625f259d07db0112</title>
<path fill="none" stroke="#63b8ff" d="M274.17,-70.98C298.79,-61.53 338.47,-46.29 364.39,-36.34"/>
<polygon fill="#63b8ff" stroke="#63b8ff" points="365.84,-39.53 373.92,-32.68 363.33,-32.99 365.84,-39.53"/>
<g id="a_edge3&#45;headlabel"><a xlink:href="dir_000144_000185.html" target="_top" xlink:title="1">
<text text-anchor="middle" x="363.5" y="-40.97" font-family="Helvetica,sans-Serif" font-size="10.00" fill="#63b8ff">1</text>
</a>
</g>
</g>
<!-- dir_942cfae36a92b6b1c4b510e99e852d40 -->
<g id="node8" class="node">
<title>dir_942cfae36a92b6b1c4b510e99e852d40</title>
<g id="a_node8"><a xlink:href="dir_942cfae36a92b6b1c4b510e99e852d40.html" target="_top" xlink:title="vocab">
<polygon fill="#edf0f7" stroke="red" stroke-dasharray="5,2" points="470,-35 424,-35 424,-16 470,-16 470,-35"/>
<text text-anchor="middle" x="447" y="-23" font-family="Helvetica,sans-Serif" font-size="10.00">vocab</text>
</a>
</g>
</g>
<!-- dir_8620533e8531467fdbfb737d3ec42837&#45;&gt;dir_942cfae36a92b6b1c4b510e99e852d40 -->
<g id="edge6" class="edge">
<title>dir_8620533e8531467fdbfb737d3ec42837&#45;&gt;dir_942cfae36a92b6b1c4b510e99e852d40</title>
<path fill="none" stroke="#63b8ff" d="M280.35,-71.79C315.79,-62.16 376.33,-45.71 413.86,-35.51"/>
<polygon fill="#63b8ff" stroke="#63b8ff" points="415.07,-38.81 423.8,-32.81 413.23,-32.05 415.07,-38.81"/>
<g id="a_edge6&#45;headlabel"><a xlink:href="dir_000144_000189.html" target="_top" xlink:title="1">
<text text-anchor="middle" x="412.35" y="-39.99" font-family="Helvetica,sans-Serif" font-size="10.00" fill="#63b8ff">1</text>
</a>
</g>
</g>
<!-- dir_f555f996eeee1ebe901dc71e0c5de8ff -->
<g id="node9" class="node">
<title>dir_f555f996eeee1ebe901dc71e0c5de8ff</title>
<g id="a_node9"><a xlink:href="dir_f555f996eeee1ebe901dc71e0c5de8ff.html" target="_top" xlink:title="meta">
<polygon fill="#edf0f7" stroke="#7f7f7f" points="530,-35 488,-35 488,-16 530,-16 530,-35"/>
<text text-anchor="middle" x="509" y="-23" font-family="Helvetica,sans-Serif" font-size="10.00">meta</text>
</a>
</g>
</g>
<!-- dir_8620533e8531467fdbfb737d3ec42837&#45;&gt;dir_f555f996eeee1ebe901dc71e0c5de8ff -->
<g id="edge8" class="edge">
<title>dir_8620533e8531467fdbfb737d3ec42837&#45;&gt;dir_f555f996eeee1ebe901dc71e0c5de8ff</title>
<path fill="none" stroke="#63b8ff" d="M280.12,-74.76C321.41,-67.63 401.03,-53.25 477.91,-35.1"/>
<polygon fill="#63b8ff" stroke="#63b8ff" points="478.84,-38.48 487.75,-32.75 477.21,-31.67 478.84,-38.48"/>
<g id="a_edge8&#45;headlabel"><a xlink:href="dir_000144_000122.html" target="_top" xlink:title="1">
<text text-anchor="middle" x="476" y="-39.58" font-family="Helvetica,sans-Serif" font-size="10.00" fill="#63b8ff">1</text>
</a>
</g>
</g>
</g>
</svg>
