<?xml version="1.0" encoding="UTF-8" standalone="no"?>
<!DOCTYPE svg PUBLIC "-//W3C//DTD SVG 1.1//EN"
 "http://www.w3.org/Graphics/SVG/1.1/DTD/svg11.dtd">
<!-- Generated by graphviz version 2.43.0 (0)
 -->
<!-- Title: libs/di/include/di/any/vtable Pages: 1 -->
<svg width="392pt" height="133pt"
 viewBox="0.00 0.00 392.00 133.00" xmlns="http://www.w3.org/2000/svg" xmlns:xlink="http://www.w3.org/1999/xlink">
<g id="graph0" class="graph" transform="scale(1 1) rotate(0) translate(4 129)">
<title>libs/di/include/di/any/vtable</title>
<g id="clust1" class="cluster">
<title>clusterdir_e44b40e2f7a090819cf1915a0b103ff1</title>
<g id="a_clust1"><a xlink:href="dir_e44b40e2f7a090819cf1915a0b103ff1.html" target="_top" xlink:title="any">
<polygon fill="#edf0f7" stroke="#7f7f7f" stroke-dasharray="5,2" points="8,-8 8,-117 144,-117 144,-8 8,-8"/>
<text text-anchor="middle" x="76" y="-105" font-family="Helvetica,sans-Serif" font-size="10.00">any</text>
</a>
</g>
</g>
<!-- dir_67d9f0ef52e6a8291cee5653a1bfd29e -->
<g id="node1" class="node">
<title>dir_67d9f0ef52e6a8291cee5653a1bfd29e</title>
<g id="a_node1"><a xlink:href="dir_67d9f0ef52e6a8291cee5653a1bfd29e.html" target="_top" xlink:title="meta">
<polygon fill="#a2b4d6" stroke="#404040" points="58,-35 16,-35 16,-16 58,-16 58,-35"/>
<text text-anchor="middle" x="37" y="-23" font-family="Helvetica,sans-Serif" font-size="10.00">meta</text>
</a>
</g>
</g>
<!-- dir_93a143d10651dfa76952b16fed4fc196 -->
<g id="node2" class="node">
<title>dir_93a143d10651dfa76952b16fed4fc196</title>
<g id="a_node2"><a xlink:href="dir_93a143d10651dfa76952b16fed4fc196.html" target="_top" xlink:title="concepts">
<polygon fill="#a2b4d6" stroke="#404040" points="136,-35 76,-35 76,-16 136,-16 136,-35"/>
<text text-anchor="middle" x="106" y="-23" font-family="Helvetica,sans-Serif" font-size="10.00">concepts</text>
</a>
</g>
</g>
<!-- dir_1955f3f9c14887c1467e6cfea7b00bb3 -->
<g id="node3" class="node">
<title>dir_1955f3f9c14887c1467e6cfea7b00bb3</title>
<g id="a_node3"><a xlink:href="dir_1955f3f9c14887c1467e6cfea7b00bb3.html" target="_top" xlink:title="vtable">
<polygon fill="#edf0f7" stroke="#404040" stroke-width="2" points="135.5,-90 88.5,-90 88.5,-71 135.5,-71 135.5,-90"/>
<text text-anchor="middle" x="112" y="-78" font-family="Helvetica,sans-Serif" font-size="10.00">vtable</text>
</a>
</g>
</g>
<!-- dir_1955f3f9c14887c1467e6cfea7b00bb3&#45;&gt;dir_67d9f0ef52e6a8291cee5653a1bfd29e -->
<g id="edge3" class="edge">
<title>dir_1955f3f9c14887c1467e6cfea7b00bb3&#45;&gt;dir_67d9f0ef52e6a8291cee5653a1bfd29e</title>
<path fill="none" stroke="#63b8ff" d="M99.95,-70.98C88.54,-62.92 71.17,-50.65 57.57,-41.03"/>
<polygon fill="#63b8ff" stroke="#63b8ff" points="59.46,-38.08 49.27,-35.17 55.42,-43.8 59.46,-38.08"/>
<g id="a_edge3&#45;headlabel"><a xlink:href="dir_000190_000119.html" target="_top" xlink:title="3">
<text text-anchor="middle" x="64.03" y="-35.34" font-family="Helvetica,sans-Serif" font-size="10.00" fill="#63b8ff">3</text>
</a>
</g>
</g>
<!-- dir_1955f3f9c14887c1467e6cfea7b00bb3&#45;&gt;dir_93a143d10651dfa76952b16fed4fc196 -->
<g id="edge4" class="edge">
<title>dir_1955f3f9c14887c1467e6cfea7b00bb3&#45;&gt;dir_93a143d10651dfa76952b16fed4fc196</title>
<path fill="none" stroke="#63b8ff" d="M111.01,-70.75C110.22,-63.8 109.1,-53.85 108.11,-45.13"/>
<polygon fill="#63b8ff" stroke="#63b8ff" points="111.58,-44.63 106.97,-35.09 104.62,-45.42 111.58,-44.63"/>
<g id="a_edge4&#45;headlabel"><a xlink:href="dir_000190_000035.html" target="_top" xlink:title="7">
<text text-anchor="middle" x="114.8" y="-45.38" font-family="Helvetica,sans-Serif" font-size="10.00" fill="#63b8ff">7</text>
</a>
</g>
</g>
<!-- dir_0669efae56692bb73da75efb5ebbccdf -->
<g id="node4" class="node">
<title>dir_0669efae56692bb73da75efb5ebbccdf</title>
<g id="a_node4"><a xlink:href="dir_0669efae56692bb73da75efb5ebbccdf.html" target="_top" xlink:title="function">
<polygon fill="#edf0f7" stroke="red" stroke-dasharray="5,2" points="210,-35 154,-35 154,-16 210,-16 210,-35"/>
<text text-anchor="middle" x="182" y="-23" font-family="Helvetica,sans-Serif" font-size="10.00">function</text>
</a>
</g>
</g>
<!-- dir_1955f3f9c14887c1467e6cfea7b00bb3&#45;&gt;dir_0669efae56692bb73da75efb5ebbccdf -->
<g id="edge1" class="edge">
<title>dir_1955f3f9c14887c1467e6cfea7b00bb3&#45;&gt;dir_0669efae56692bb73da75efb5ebbccdf</title>
<path fill="none" stroke="#63b8ff" d="M123.25,-70.98C133.8,-63 149.8,-50.88 162.44,-41.31"/>
<polygon fill="#63b8ff" stroke="#63b8ff" points="164.69,-44 170.55,-35.17 160.46,-38.42 164.69,-44"/>
<g id="a_edge1&#45;headlabel"><a xlink:href="dir_000190_000082.html" target="_top" xlink:title="1">
<text text-anchor="middle" x="163.54" y="-45.93" font-family="Helvetica,sans-Serif" font-size="10.00" fill="#63b8ff">1</text>
</a>
</g>
</g>
<!-- dir_4535887b2cdca47e625f259d07db0112 -->
<g id="node5" class="node">
<title>dir_4535887b2cdca47e625f259d07db0112</title>
<g id="a_node5"><a xlink:href="dir_4535887b2cdca47e625f259d07db0112.html" target="_top" xlink:title="util">
<polygon fill="#edf0f7" stroke="#7f7f7f" points="260,-35 228,-35 228,-16 260,-16 260,-35"/>
<text text-anchor="middle" x="244" y="-23" font-family="Helvetica,sans-Serif" font-size="10.00">util</text>
</a>
</g>
</g>
<!-- dir_1955f3f9c14887c1467e6cfea7b00bb3&#45;&gt;dir_4535887b2cdca47e625f259d07db0112 -->
<g id="edge2" class="edge">
<title>dir_1955f3f9c14887c1467e6cfea7b00bb3&#45;&gt;dir_4535887b2cdca47e625f259d07db0112</title>
<path fill="none" stroke="#63b8ff" d="M133.21,-70.98C156.4,-61.67 193.55,-46.76 218.36,-36.8"/>
<polygon fill="#63b8ff" stroke="#63b8ff" points="219.86,-39.96 227.84,-32.99 217.25,-33.47 219.86,-39.96"/>
<g id="a_edge2&#45;headlabel"><a xlink:href="dir_000190_000185.html" target="_top" xlink:title="3">
<text text-anchor="middle" x="217.58" y="-41.44" font-family="Helvetica,sans-Serif" font-size="10.00" fill="#63b8ff">3</text>
</a>
</g>
</g>
<!-- dir_942cfae36a92b6b1c4b510e99e852d40 -->
<g id="node6" class="node">
<title>dir_942cfae36a92b6b1c4b510e99e852d40</title>
<g id="a_node6"><a xlink:href="dir_942cfae36a92b6b1c4b510e99e852d40.html" target="_top" xlink:title="vocab">
<polygon fill="#edf0f7" stroke="red" stroke-dasharray="5,2" points="324,-35 278,-35 278,-16 324,-16 324,-35"/>
<text text-anchor="middle" x="301" y="-23" font-family="Helvetica,sans-Serif" font-size="10.00">vocab</text>
</a>
</g>
</g>
<!-- dir_1955f3f9c14887c1467e6cfea7b00bb3&#45;&gt;dir_942cfae36a92b6b1c4b510e99e852d40 -->
<g id="edge5" class="edge">
<title>dir_1955f3f9c14887c1467e6cfea7b00bb3&#45;&gt;dir_942cfae36a92b6b1c4b510e99e852d40</title>
<path fill="none" stroke="#63b8ff" d="M135.55,-72.89C168.84,-63.56 229.8,-46.47 267.7,-35.84"/>
<polygon fill="#63b8ff" stroke="#63b8ff" points="269.06,-39.09 277.74,-33.02 267.17,-32.35 269.06,-39.09"/>
<g id="a_edge5&#45;headlabel"><a xlink:href="dir_000190_000189.html" target="_top" xlink:title="2">
<text text-anchor="middle" x="266.36" y="-40.3" font-family="Helvetica,sans-Serif" font-size="10.00" fill="#63b8ff">2</text>
</a>
</g>
</g>
<!-- dir_f555f996eeee1ebe901dc71e0c5de8ff -->
<g id="node7" class="node">
<title>dir_f555f996eeee1ebe901dc71e0c5de8ff</title>
<g id="a_node7"><a xlink:href="dir_f555f996eeee1ebe901dc71e0c5de8ff.html" target="_top" xlink:title="meta">
<polygon fill="#edf0f7" stroke="#7f7f7f" points="384,-35 342,-35 342,-16 384,-16 384,-35"/>
<text text-anchor="middle" x="363" y="-23" font-family="Helvetica,sans-Serif" font-size="10.00">meta</text>
</a>
</g>
</g>
<!-- dir_1955f3f9c14887c1467e6cfea7b00bb3&#45;&gt;dir_f555f996eeee1ebe901dc71e0c5de8ff -->
<g id="edge6" class="edge">
<title>dir_1955f3f9c14887c1467e6cfea7b00bb3&#45;&gt;dir_f555f996eeee1ebe901dc71e0c5de8ff</title>
<path fill="none" stroke="#63b8ff" d="M135.68,-75.35C174.61,-68.4 254.74,-53.54 331.87,-35.12"/>
<polygon fill="#63b8ff" stroke="#63b8ff" points="332.85,-38.49 341.75,-32.74 331.21,-31.68 332.85,-38.49"/>
<g id="a_edge6&#45;headlabel"><a xlink:href="dir_000190_000122.html" target="_top" xlink:title="4">
<text text-anchor="middle" x="330.02" y="-39.59" font-family="Helvetica,sans-Serif" font-size="10.00" fill="#63b8ff">4</text>
</a>
</g>
</g>
</g>
</svg>
