<?xml version="1.0" encoding="UTF-8" standalone="no"?>
<!DOCTYPE svg PUBLIC "-//W3C//DTD SVG 1.1//EN"
 "http://www.w3.org/Graphics/SVG/1.1/DTD/svg11.dtd">
<!-- Generated by graphviz version 2.43.0 (0)
 -->
<!-- Title: libs/di/include/di/execution/meta Pages: 1 -->
<svg width="534pt" height="133pt"
 viewBox="0.00 0.00 534.00 133.00" xmlns="http://www.w3.org/2000/svg" xmlns:xlink="http://www.w3.org/1999/xlink">
<g id="graph0" class="graph" transform="scale(1 1) rotate(0) translate(4 129)">
<title>libs/di/include/di/execution/meta</title>
<g id="clust1" class="cluster">
<title>clusterdir_182dab0b86097ba072332b7ad8fceb7f</title>
<g id="a_clust1"><a xlink:href="dir_182dab0b86097ba072332b7ad8fceb7f.html" target="_top" xlink:title="execution">
<polygon fill="#edf0f7" stroke="#7f7f7f" stroke-dasharray="5,2" points="8,-8 8,-117 360,-117 360,-8 8,-8"/>
<text text-anchor="middle" x="184" y="-105" font-family="Helvetica,sans-Serif" font-size="10.00">execution</text>
</a>
</g>
</g>
<!-- dir_27e1a0af1927749316784e6421682a5e -->
<g id="node1" class="node">
<title>dir_27e1a0af1927749316784e6421682a5e</title>
<g id="a_node1"><a xlink:href="dir_27e1a0af1927749316784e6421682a5e.html" target="_top" xlink:title="interface">
<polygon fill="#a2b4d6" stroke="#404040" points="76,-35 16,-35 16,-16 76,-16 76,-35"/>
<text text-anchor="middle" x="46" y="-23" font-family="Helvetica,sans-Serif" font-size="10.00">interface</text>
</a>
</g>
</g>
<!-- dir_38011a79da39fb3448319eccf8c364d9 -->
<g id="node2" class="node">
<title>dir_38011a79da39fb3448319eccf8c364d9</title>
<g id="a_node2"><a xlink:href="dir_38011a79da39fb3448319eccf8c364d9.html" target="_top" xlink:title="query">
<polygon fill="#a2b4d6" stroke="#404040" points="138,-35 94,-35 94,-16 138,-16 138,-35"/>
<text text-anchor="middle" x="116" y="-23" font-family="Helvetica,sans-Serif" font-size="10.00">query</text>
</a>
</g>
</g>
<!-- dir_569ed69d6bb9bf9a95676c3a98a04440 -->
<g id="node3" class="node">
<title>dir_569ed69d6bb9bf9a95676c3a98a04440</title>
<g id="a_node3"><a xlink:href="dir_569ed69d6bb9bf9a95676c3a98a04440.html" target="_top" xlink:title="types">
<polygon fill="#a2b4d6" stroke="#404040" points="200,-35 156,-35 156,-16 200,-16 200,-35"/>
<text text-anchor="middle" x="178" y="-23" font-family="Helvetica,sans-Serif" font-size="10.00">types</text>
</a>
</g>
</g>
<!-- dir_72b20bf6291bd35729057dcb4ccbac76 -->
<g id="node4" class="node">
<title>dir_72b20bf6291bd35729057dcb4ccbac76</title>
<g id="a_node4"><a xlink:href="dir_72b20bf6291bd35729057dcb4ccbac76.html" target="_top" xlink:title="concepts">
<polygon fill="#a2b4d6" stroke="#404040" points="278,-35 218,-35 218,-16 278,-16 278,-35"/>
<text text-anchor="middle" x="248" y="-23" font-family="Helvetica,sans-Serif" font-size="10.00">concepts</text>
</a>
</g>
</g>
<!-- dir_8620533e8531467fdbfb737d3ec42837 -->
<g id="node5" class="node">
<title>dir_8620533e8531467fdbfb737d3ec42837</title>
<g id="a_node5"><a xlink:href="dir_8620533e8531467fdbfb737d3ec42837.html" target="_top" xlink:title="receiver">
<polygon fill="#a2b4d6" stroke="#404040" points="352,-35 296,-35 296,-16 352,-16 352,-35"/>
<text text-anchor="middle" x="324" y="-23" font-family="Helvetica,sans-Serif" font-size="10.00">receiver</text>
</a>
</g>
</g>
<!-- dir_57df25969c72935fa0fddf8bd8d3498c -->
<g id="node6" class="node">
<title>dir_57df25969c72935fa0fddf8bd8d3498c</title>
<g id="a_node6"><a xlink:href="dir_57df25969c72935fa0fddf8bd8d3498c.html" target="_top" xlink:title="meta">
<polygon fill="#edf0f7" stroke="#404040" stroke-width="2" points="307,-90 265,-90 265,-71 307,-71 307,-90"/>
<text text-anchor="middle" x="286" y="-78" font-family="Helvetica,sans-Serif" font-size="10.00">meta</text>
</a>
</g>
</g>
<!-- dir_57df25969c72935fa0fddf8bd8d3498c&#45;&gt;dir_27e1a0af1927749316784e6421682a5e -->
<g id="edge1" class="edge">
<title>dir_57df25969c72935fa0fddf8bd8d3498c&#45;&gt;dir_27e1a0af1927749316784e6421682a5e</title>
<path fill="none" stroke="#63b8ff" d="M264.7,-74.8C224.67,-65.96 137.61,-46.73 86.23,-35.38"/>
<polygon fill="#63b8ff" stroke="#63b8ff" points="86.66,-31.9 76.14,-33.16 85.15,-38.73 86.66,-31.9"/>
<g id="a_edge1&#45;headlabel"><a xlink:href="dir_000121_000096.html" target="_top" xlink:title="3">
<text text-anchor="middle" x="90.79" y="-27.4" font-family="Helvetica,sans-Serif" font-size="10.00" fill="#63b8ff">3</text>
</a>
</g>
</g>
<!-- dir_57df25969c72935fa0fddf8bd8d3498c&#45;&gt;dir_38011a79da39fb3448319eccf8c364d9 -->
<g id="edge2" class="edge">
<title>dir_57df25969c72935fa0fddf8bd8d3498c&#45;&gt;dir_38011a79da39fb3448319eccf8c364d9</title>
<path fill="none" stroke="#63b8ff" d="M264.81,-72.89C235.53,-63.77 182.44,-47.21 148.23,-36.55"/>
<polygon fill="#63b8ff" stroke="#63b8ff" points="148.85,-33.08 138.26,-33.44 146.77,-39.76 148.85,-33.08"/>
<g id="a_edge2&#45;headlabel"><a xlink:href="dir_000121_000139.html" target="_top" xlink:title="2">
<text text-anchor="middle" x="153.13" y="-28.94" font-family="Helvetica,sans-Serif" font-size="10.00" fill="#63b8ff">2</text>
</a>
</g>
</g>
<!-- dir_57df25969c72935fa0fddf8bd8d3498c&#45;&gt;dir_569ed69d6bb9bf9a95676c3a98a04440 -->
<g id="edge4" class="edge">
<title>dir_57df25969c72935fa0fddf8bd8d3498c&#45;&gt;dir_569ed69d6bb9bf9a95676c3a98a04440</title>
<path fill="none" stroke="#63b8ff" d="M268.65,-70.98C251.43,-62.54 224.8,-49.47 204.85,-39.68"/>
<polygon fill="#63b8ff" stroke="#63b8ff" points="206.19,-36.43 195.67,-35.17 203.1,-42.72 206.19,-36.43"/>
<g id="a_edge4&#45;headlabel"><a xlink:href="dir_000121_000179.html" target="_top" xlink:title="5">
<text text-anchor="middle" x="210.66" y="-32.97" font-family="Helvetica,sans-Serif" font-size="10.00" fill="#63b8ff">5</text>
</a>
</g>
</g>
<!-- dir_57df25969c72935fa0fddf8bd8d3498c&#45;&gt;dir_72b20bf6291bd35729057dcb4ccbac76 -->
<g id="edge5" class="edge">
<title>dir_57df25969c72935fa0fddf8bd8d3498c&#45;&gt;dir_72b20bf6291bd35729057dcb4ccbac76</title>
<path fill="none" stroke="#63b8ff" d="M279.73,-70.75C274.41,-63.34 266.64,-52.5 260.12,-43.41"/>
<polygon fill="#63b8ff" stroke="#63b8ff" points="262.83,-41.18 254.16,-35.09 257.14,-45.26 262.83,-41.18"/>
<g id="a_edge5&#45;headlabel"><a xlink:href="dir_000121_000038.html" target="_top" xlink:title="11">
<text text-anchor="middle" x="267.23" y="-39.94" font-family="Helvetica,sans-Serif" font-size="10.00" fill="#63b8ff">11</text>
</a>
</g>
</g>
<!-- dir_57df25969c72935fa0fddf8bd8d3498c&#45;&gt;dir_8620533e8531467fdbfb737d3ec42837 -->
<g id="edge6" class="edge">
<title>dir_57df25969c72935fa0fddf8bd8d3498c&#45;&gt;dir_8620533e8531467fdbfb737d3ec42837</title>
<path fill="none" stroke="#63b8ff" d="M292.27,-70.75C297.59,-63.34 305.36,-52.5 311.88,-43.41"/>
<polygon fill="#63b8ff" stroke="#63b8ff" points="314.86,-45.26 317.84,-35.09 309.17,-41.18 314.86,-45.26"/>
<g id="a_edge6&#45;headlabel"><a xlink:href="dir_000121_000144.html" target="_top" xlink:title="3">
<text text-anchor="middle" x="315.07" y="-47.33" font-family="Helvetica,sans-Serif" font-size="10.00" fill="#63b8ff">3</text>
</a>
</g>
</g>
<!-- dir_4535887b2cdca47e625f259d07db0112 -->
<g id="node7" class="node">
<title>dir_4535887b2cdca47e625f259d07db0112</title>
<g id="a_node7"><a xlink:href="dir_4535887b2cdca47e625f259d07db0112.html" target="_top" xlink:title="util">
<polygon fill="#edf0f7" stroke="#7f7f7f" points="402,-35 370,-35 370,-16 402,-16 402,-35"/>
<text text-anchor="middle" x="386" y="-23" font-family="Helvetica,sans-Serif" font-size="10.00">util</text>
</a>
</g>
</g>
<!-- dir_57df25969c72935fa0fddf8bd8d3498c&#45;&gt;dir_4535887b2cdca47e625f259d07db0112 -->
<g id="edge3" class="edge">
<title>dir_57df25969c72935fa0fddf8bd8d3498c&#45;&gt;dir_4535887b2cdca47e625f259d07db0112</title>
<path fill="none" stroke="#63b8ff" d="M302.07,-70.98C317.96,-62.56 342.51,-49.55 360.96,-39.77"/>
<polygon fill="#63b8ff" stroke="#63b8ff" points="362.78,-42.77 369.97,-34.99 359.5,-36.58 362.78,-42.77"/>
<g id="a_edge3&#45;headlabel"><a xlink:href="dir_000121_000185.html" target="_top" xlink:title="2">
<text text-anchor="middle" x="360.93" y="-44.46" font-family="Helvetica,sans-Serif" font-size="10.00" fill="#63b8ff">2</text>
</a>
</g>
</g>
<!-- dir_942cfae36a92b6b1c4b510e99e852d40 -->
<g id="node8" class="node">
<title>dir_942cfae36a92b6b1c4b510e99e852d40</title>
<g id="a_node8"><a xlink:href="dir_942cfae36a92b6b1c4b510e99e852d40.html" target="_top" xlink:title="vocab">
<polygon fill="#edf0f7" stroke="red" stroke-dasharray="5,2" points="466,-35 420,-35 420,-16 466,-16 466,-35"/>
<text text-anchor="middle" x="443" y="-23" font-family="Helvetica,sans-Serif" font-size="10.00">vocab</text>
</a>
</g>
</g>
<!-- dir_57df25969c72935fa0fddf8bd8d3498c&#45;&gt;dir_942cfae36a92b6b1c4b510e99e852d40 -->
<g id="edge7" class="edge">
<title>dir_57df25969c72935fa0fddf8bd8d3498c&#45;&gt;dir_942cfae36a92b6b1c4b510e99e852d40</title>
<path fill="none" stroke="#63b8ff" d="M307.17,-72.35C333.68,-63.4 379.37,-47.98 410.37,-37.52"/>
<polygon fill="#63b8ff" stroke="#63b8ff" points="411.51,-40.82 419.87,-34.31 409.28,-34.19 411.51,-40.82"/>
<g id="a_edge7&#45;headlabel"><a xlink:href="dir_000121_000189.html" target="_top" xlink:title="2">
<text text-anchor="middle" x="409.02" y="-42.16" font-family="Helvetica,sans-Serif" font-size="10.00" fill="#63b8ff">2</text>
</a>
</g>
</g>
<!-- dir_f555f996eeee1ebe901dc71e0c5de8ff -->
<g id="node9" class="node">
<title>dir_f555f996eeee1ebe901dc71e0c5de8ff</title>
<g id="a_node9"><a xlink:href="dir_f555f996eeee1ebe901dc71e0c5de8ff.html" target="_top" xlink:title="meta">
<polygon fill="#edf0f7" stroke="#7f7f7f" points="526,-35 484,-35 484,-16 526,-16 526,-35"/>
<text text-anchor="middle" x="505" y="-23" font-family="Helvetica,sans-Serif" font-size="10.00">meta</text>
</a>
</g>
</g>
<!-- dir_57df25969c72935fa0fddf8bd8d3498c&#45;&gt;dir_f555f996eeee1ebe901dc71e0c5de8ff -->
<g id="edge8" class="edge">
<title>dir_57df25969c72935fa0fddf8bd8d3498c&#45;&gt;dir_f555f996eeee1ebe901dc71e0c5de8ff</title>
<path fill="none" stroke="#63b8ff" d="M307.05,-74.87C340.4,-67.46 407.61,-52.25 473.95,-35.19"/>
<polygon fill="#63b8ff" stroke="#63b8ff" points="474.92,-38.55 483.73,-32.65 473.17,-31.77 474.92,-38.55"/>
<g id="a_edge8&#45;headlabel"><a xlink:href="dir_000121_000122.html" target="_top" xlink:title="12">
<text text-anchor="middle" x="472.15" y="-39.7" font-family="Helvetica,sans-Serif" font-size="10.00" fill="#63b8ff">12</text>
</a>
</g>
</g>
</g>
</svg>
