<?xml version="1.0" encoding="UTF-8" standalone="no"?>
<!DOCTYPE svg PUBLIC "-//W3C//DTD SVG 1.1//EN"
 "http://www.w3.org/Graphics/SVG/1.1/DTD/svg11.dtd">
<!-- Generated by graphviz version 2.43.0 (0)
 -->
<!-- Title: iris/include/iris/fs Pages: 1 -->
<svg width="224pt" height="133pt"
 viewBox="0.00 0.00 224.00 133.00" xmlns="http://www.w3.org/2000/svg" xmlns:xlink="http://www.w3.org/1999/xlink">
<g id="graph0" class="graph" transform="scale(1 1) rotate(0) translate(4 129)">
<title>iris/include/iris/fs</title>
<g id="clust1" class="cluster">
<title>clusterdir_ffe5edf85fa540270b5bdba28be40ae5</title>
<g id="a_clust1"><a xlink:href="dir_ffe5edf85fa540270b5bdba28be40ae5.html" target="_top" xlink:title="iris">
<polygon fill="#edf0f7" stroke="#7f7f7f" stroke-dasharray="5,2" points="8,-8 8,-117 172,-117 172,-8 8,-8"/>
<text text-anchor="middle" x="90" y="-105" font-family="Helvetica,sans-Serif" font-size="10.00">iris</text>
</a>
</g>
</g>
<!-- dir_0d9b91d0f0b9ec0856341172f56c0a57 -->
<g id="node1" class="node">
<title>dir_0d9b91d0f0b9ec0856341172f56c0a57</title>
<g id="a_node1"><a xlink:href="dir_0d9b91d0f0b9ec0856341172f56c0a57.html" target="_top" xlink:title="uapi">
<polygon fill="#a2b4d6" stroke="#404040" points="54,-35 16,-35 16,-16 54,-16 54,-35"/>
<text text-anchor="middle" x="35" y="-23" font-family="Helvetica,sans-Serif" font-size="10.00">uapi</text>
</a>
</g>
</g>
<!-- dir_945708b8d3397c2507c5e618c4393ffa -->
<g id="node2" class="node">
<title>dir_945708b8d3397c2507c5e618c4393ffa</title>
<g id="a_node2"><a xlink:href="dir_945708b8d3397c2507c5e618c4393ffa.html" target="_top" xlink:title="mm">
<polygon fill="#a2b4d6" stroke="#404040" points="108,-35 72,-35 72,-16 108,-16 108,-35"/>
<text text-anchor="middle" x="90" y="-23" font-family="Helvetica,sans-Serif" font-size="10.00">mm</text>
</a>
</g>
</g>
<!-- dir_be381e3b7aa79a91c125f50d5abcc4e9 -->
<g id="node3" class="node">
<title>dir_be381e3b7aa79a91c125f50d5abcc4e9</title>
<g id="a_node3"><a xlink:href="dir_be381e3b7aa79a91c125f50d5abcc4e9.html" target="_top" xlink:title="core">
<polygon fill="#a2b4d6" stroke="#404040" points="164,-35 126,-35 126,-16 164,-16 164,-35"/>
<text text-anchor="middle" x="145" y="-23" font-family="Helvetica,sans-Serif" font-size="10.00">core</text>
</a>
</g>
</g>
<!-- dir_a21c0d42bc7a96803f2e083bf7f05619 -->
<g id="node4" class="node">
<title>dir_a21c0d42bc7a96803f2e083bf7f05619</title>
<g id="a_node4"><a xlink:href="dir_a21c0d42bc7a96803f2e083bf7f05619.html" target="_top" xlink:title="fs">
<polygon fill="#edf0f7" stroke="#404040" stroke-width="2" points="131.5,-90 102.5,-90 102.5,-71 131.5,-71 131.5,-90"/>
<text text-anchor="middle" x="117" y="-78" font-family="Helvetica,sans-Serif" font-size="10.00">fs</text>
</a>
</g>
</g>
<!-- dir_a21c0d42bc7a96803f2e083bf7f05619&#45;&gt;dir_0d9b91d0f0b9ec0856341172f56c0a57 -->
<g id="edge1" class="edge">
<title>dir_a21c0d42bc7a96803f2e083bf7f05619&#45;&gt;dir_0d9b91d0f0b9ec0856341172f56c0a57</title>
<path fill="none" stroke="#63b8ff" d="M103.83,-70.98C91.23,-62.84 72,-50.41 57.06,-40.76"/>
<polygon fill="#63b8ff" stroke="#63b8ff" points="58.71,-37.66 48.41,-35.17 54.91,-43.54 58.71,-37.66"/>
<g id="a_edge1&#45;headlabel"><a xlink:href="dir_000081_000181.html" target="_top" xlink:title="5">
<text text-anchor="middle" x="63.27" y="-34.73" font-family="Helvetica,sans-Serif" font-size="10.00" fill="#63b8ff">5</text>
</a>
</g>
</g>
<!-- dir_a21c0d42bc7a96803f2e083bf7f05619&#45;&gt;dir_945708b8d3397c2507c5e618c4393ffa -->
<g id="edge3" class="edge">
<title>dir_a21c0d42bc7a96803f2e083bf7f05619&#45;&gt;dir_945708b8d3397c2507c5e618c4393ffa</title>
<path fill="none" stroke="#63b8ff" d="M112.54,-70.75C108.88,-63.57 103.59,-53.18 99.05,-44.27"/>
<polygon fill="#63b8ff" stroke="#63b8ff" points="102.03,-42.41 94.38,-35.09 95.8,-45.59 102.03,-42.41"/>
<g id="a_edge3&#45;headlabel"><a xlink:href="dir_000081_000126.html" target="_top" xlink:title="2">
<text text-anchor="middle" x="106.2" y="-41.82" font-family="Helvetica,sans-Serif" font-size="10.00" fill="#63b8ff">2</text>
</a>
</g>
</g>
<!-- dir_a21c0d42bc7a96803f2e083bf7f05619&#45;&gt;dir_be381e3b7aa79a91c125f50d5abcc4e9 -->
<g id="edge4" class="edge">
<title>dir_a21c0d42bc7a96803f2e083bf7f05619&#45;&gt;dir_be381e3b7aa79a91c125f50d5abcc4e9</title>
<path fill="none" stroke="#63b8ff" d="M121.62,-70.75C125.46,-63.49 131.02,-52.95 135.76,-43.98"/>
<polygon fill="#63b8ff" stroke="#63b8ff" points="138.89,-45.57 140.46,-35.09 132.7,-42.3 138.89,-45.57"/>
<g id="a_edge4&#45;headlabel"><a xlink:href="dir_000081_000052.html" target="_top" xlink:title="8">
<text text-anchor="middle" x="139.72" y="-47.57" font-family="Helvetica,sans-Serif" font-size="10.00" fill="#63b8ff">8</text>
</a>
</g>
</g>
<!-- dir_6719ab1f1f7655efc2fa43f7eb574fd1 -->
<g id="node5" class="node">
<title>dir_6719ab1f1f7655efc2fa43f7eb574fd1</title>
<g id="a_node5"><a xlink:href="dir_6719ab1f1f7655efc2fa43f7eb574fd1.html" target="_top" xlink:title="libs">
<polygon fill="#edf0f7" stroke="red" points="216,-35 182,-35 182,-16 216,-16 216,-35"/>
<text text-anchor="middle" x="199" y="-23" font-family="Helvetica,sans-Serif" font-size="10.00">libs</text>
</a>
</g>
</g>
<!-- dir_a21c0d42bc7a96803f2e083bf7f05619&#45;&gt;dir_6719ab1f1f7655efc2fa43f7eb574fd1 -->
<g id="edge2" class="edge">
<title>dir_a21c0d42bc7a96803f2e083bf7f05619&#45;&gt;dir_6719ab1f1f7655efc2fa43f7eb574fd1</title>
<path fill="none" stroke="#63b8ff" d="M130.17,-70.98C142.77,-62.84 162,-50.41 176.94,-40.76"/>
<polygon fill="#63b8ff" stroke="#63b8ff" points="179.09,-43.54 185.59,-35.17 175.29,-37.66 179.09,-43.54"/>
<g id="a_edge2&#45;headlabel"><a xlink:href="dir_000081_000109.html" target="_top" xlink:title="21">
<text text-anchor="middle" x="177.61" y="-45.37" font-family="Helvetica,sans-Serif" font-size="10.00" fill="#63b8ff">21</text>
</a>
</g>
</g>
</g>
</svg>
