<?xml version="1.0" encoding="UTF-8" standalone="no"?>
<!DOCTYPE svg PUBLIC "-//W3C//DTD SVG 1.1//EN"
 "http://www.w3.org/Graphics/SVG/1.1/DTD/svg11.dtd">
<!-- Generated by graphviz version 2.43.0 (0)
 -->
<!-- Title: libs/di/include/di/container/hash Pages: 1 -->
<svg width="1183pt" height="141pt"
 viewBox="0.00 0.00 1183.00 141.00" xmlns="http://www.w3.org/2000/svg" xmlns:xlink="http://www.w3.org/1999/xlink">
<g id="graph0" class="graph" transform="scale(1 1) rotate(0) translate(4 137)">
<title>libs/di/include/di/container/hash</title>
<g id="clust1" class="cluster">
<title>clusterdir_521de572ae4fe2915cc70a876c52f5b7</title>
<g id="a_clust1"><a xlink:href="dir_521de572ae4fe2915cc70a876c52f5b7.html" target="_top" xlink:title="container">
<polygon fill="#edf0f7" stroke="#7f7f7f" stroke-dasharray="5,2" points="8,-8 8,-125 730,-125 730,-8 8,-8"/>
<text text-anchor="middle" x="369" y="-113" font-family="Helvetica,sans-Serif" font-size="10.00">container</text>
</a>
</g>
</g>
<g id="clust2" class="cluster">
<title>clusterdir_289c3fc9695217b968c29372e2a5940c</title>
<g id="a_clust2"><a xlink:href="dir_289c3fc9695217b968c29372e2a5940c.html" target="_top">
<polygon fill="#edf0f7" stroke="#404040" stroke-width="2" points="606,-63 606,-98 722,-98 722,-63 606,-63"/>
</a>
</g>
</g>
<!-- dir_838362f34bc8d8c3545343b0166aa672 -->
<g id="node1" class="node">
<title>dir_838362f34bc8d8c3545343b0166aa672</title>
<g id="a_node1"><a xlink:href="dir_838362f34bc8d8c3545343b0166aa672.html" target="_top" xlink:title="concepts">
<polygon fill="#a2b4d6" stroke="#404040" points="722,-35 662,-35 662,-16 722,-16 722,-35"/>
<text text-anchor="middle" x="692" y="-23" font-family="Helvetica,sans-Serif" font-size="10.00">concepts</text>
</a>
</g>
</g>
<!-- dir_9f8d33513cfc97e5f9ea6bf2671e5446 -->
<g id="node2" class="node">
<title>dir_9f8d33513cfc97e5f9ea6bf2671e5446</title>
<g id="a_node2"><a xlink:href="dir_9f8d33513cfc97e5f9ea6bf2671e5446.html" target="_top" xlink:title="meta">
<polygon fill="#a2b4d6" stroke="#404040" points="644,-35 602,-35 602,-16 644,-16 644,-35"/>
<text text-anchor="middle" x="623" y="-23" font-family="Helvetica,sans-Serif" font-size="10.00">meta</text>
</a>
</g>
</g>
<!-- dir_c0fde34eb1aad6470b7c40f9528ecd51 -->
<g id="node3" class="node">
<title>dir_c0fde34eb1aad6470b7c40f9528ecd51</title>
<g id="a_node3"><a xlink:href="dir_c0fde34eb1aad6470b7c40f9528ecd51.html" target="_top" xlink:title="intrusive">
<polygon fill="#a2b4d6" stroke="#404040" points="583.5,-35 524.5,-35 524.5,-16 583.5,-16 583.5,-35"/>
<text text-anchor="middle" x="554" y="-23" font-family="Helvetica,sans-Serif" font-size="10.00">intrusive</text>
</a>
</g>
</g>
<!-- dir_093cb0cf41c3d9bb25543a4e1702223c -->
<g id="node4" class="node">
<title>dir_093cb0cf41c3d9bb25543a4e1702223c</title>
<g id="a_node4"><a xlink:href="dir_093cb0cf41c3d9bb25543a4e1702223c.html" target="_top" xlink:title="iterator">
<polygon fill="#a2b4d6" stroke="#404040" points="69.5,-35 16.5,-35 16.5,-16 69.5,-16 69.5,-35"/>
<text text-anchor="middle" x="43" y="-23" font-family="Helvetica,sans-Serif" font-size="10.00">iterator</text>
</a>
</g>
</g>
<!-- dir_a7b99681c56fba2abd28393cbbc3f22c -->
<g id="node5" class="node">
<title>dir_a7b99681c56fba2abd28393cbbc3f22c</title>
<g id="a_node5"><a xlink:href="dir_a7b99681c56fba2abd28393cbbc3f22c.html" target="_top" xlink:title="types">
<polygon fill="#a2b4d6" stroke="#404040" points="132,-35 88,-35 88,-16 132,-16 132,-35"/>
<text text-anchor="middle" x="110" y="-23" font-family="Helvetica,sans-Serif" font-size="10.00">types</text>
</a>
</g>
</g>
<!-- dir_75ced0d5626770d74ec0ab0f9ebe51e3 -->
<g id="node6" class="node">
<title>dir_75ced0d5626770d74ec0ab0f9ebe51e3</title>
<g id="a_node6"><a xlink:href="dir_75ced0d5626770d74ec0ab0f9ebe51e3.html" target="_top" xlink:title="allocator">
<polygon fill="#a2b4d6" stroke="#404040" points="209.5,-35 150.5,-35 150.5,-16 209.5,-16 209.5,-35"/>
<text text-anchor="middle" x="180" y="-23" font-family="Helvetica,sans-Serif" font-size="10.00">allocator</text>
</a>
</g>
</g>
<!-- dir_8ac75f3e92965d7b87f5a77c8eb4a6b1 -->
<g id="node7" class="node">
<title>dir_8ac75f3e92965d7b87f5a77c8eb4a6b1</title>
<g id="a_node7"><a xlink:href="dir_8ac75f3e92965d7b87f5a77c8eb4a6b1.html" target="_top" xlink:title="associative">
<polygon fill="#a2b4d6" stroke="#404040" points="300,-35 228,-35 228,-16 300,-16 300,-35"/>
<text text-anchor="middle" x="264" y="-23" font-family="Helvetica,sans-Serif" font-size="10.00">associative</text>
</a>
</g>
</g>
<!-- dir_f1a41f0d4848adc979771c8b39d6dd9b -->
<g id="node8" class="node">
<title>dir_f1a41f0d4848adc979771c8b39d6dd9b</title>
<g id="a_node8"><a xlink:href="dir_f1a41f0d4848adc979771c8b39d6dd9b.html" target="_top" xlink:title="vector">
<polygon fill="#a2b4d6" stroke="#404040" points="365.5,-35 318.5,-35 318.5,-16 365.5,-16 365.5,-35"/>
<text text-anchor="middle" x="342" y="-23" font-family="Helvetica,sans-Serif" font-size="10.00">vector</text>
</a>
</g>
</g>
<!-- dir_28cb5a05dfb61a4b9ad44e468e6394a4 -->
<g id="node9" class="node">
<title>dir_28cb5a05dfb61a4b9ad44e468e6394a4</title>
<g id="a_node9"><a xlink:href="dir_28cb5a05dfb61a4b9ad44e468e6394a4.html" target="_top" xlink:title="view">
<polygon fill="#a2b4d6" stroke="#404040" points="424,-35 384,-35 384,-16 424,-16 424,-35"/>
<text text-anchor="middle" x="404" y="-23" font-family="Helvetica,sans-Serif" font-size="10.00">view</text>
</a>
</g>
</g>
<!-- dir_60528a66b99dd07a1313b3c263e646ab -->
<g id="node10" class="node">
<title>dir_60528a66b99dd07a1313b3c263e646ab</title>
<g id="a_node10"><a xlink:href="dir_60528a66b99dd07a1313b3c263e646ab.html" target="_top" xlink:title="algorithm">
<polygon fill="#a2b4d6" stroke="#404040" points="506,-35 442,-35 442,-16 506,-16 506,-35"/>
<text text-anchor="middle" x="474" y="-23" font-family="Helvetica,sans-Serif" font-size="10.00">algorithm</text>
</a>
</g>
</g>
<!-- dir_289c3fc9695217b968c29372e2a5940c -->
<g id="node11" class="node">
<title>dir_289c3fc9695217b968c29372e2a5940c</title>
<text text-anchor="middle" x="694" y="-78" font-family="Helvetica,sans-Serif" font-size="10.00">hash</text>
</g>
<!-- dir_289c3fc9695217b968c29372e2a5940c&#45;&gt;dir_838362f34bc8d8c3545343b0166aa672 -->
<g id="edge4" class="edge">
<title>dir_289c3fc9695217b968c29372e2a5940c&#45;&gt;dir_838362f34bc8d8c3545343b0166aa672</title>
<path fill="none" stroke="#63b8ff" d="M693.67,-70.75C693.41,-63.8 693.03,-53.85 692.7,-45.13"/>
<polygon fill="#63b8ff" stroke="#63b8ff" points="696.2,-44.95 692.32,-35.09 689.2,-45.21 696.2,-44.95"/>
<g id="a_edge4&#45;headlabel"><a xlink:href="dir_000085_000037.html" target="_top" xlink:title="5">
<text text-anchor="middle" x="699.17" y="-45.93" font-family="Helvetica,sans-Serif" font-size="10.00" fill="#63b8ff">5</text>
</a>
</g>
</g>
<!-- dir_289c3fc9695217b968c29372e2a5940c&#45;&gt;dir_9f8d33513cfc97e5f9ea6bf2671e5446 -->
<g id="edge6" class="edge">
<title>dir_289c3fc9695217b968c29372e2a5940c&#45;&gt;dir_9f8d33513cfc97e5f9ea6bf2671e5446</title>
<path fill="none" stroke="#63b8ff" d="M682.59,-70.98C671.89,-63 655.66,-50.88 642.84,-41.31"/>
<polygon fill="#63b8ff" stroke="#63b8ff" points="644.72,-38.35 634.61,-35.17 640.53,-43.96 644.72,-38.35"/>
<g id="a_edge6&#45;headlabel"><a xlink:href="dir_000085_000120.html" target="_top" xlink:title="2">
<text text-anchor="middle" x="649.3" y="-35.72" font-family="Helvetica,sans-Serif" font-size="10.00" fill="#63b8ff">2</text>
</a>
</g>
</g>
<!-- dir_0669efae56692bb73da75efb5ebbccdf -->
<g id="node13" class="node">
<title>dir_0669efae56692bb73da75efb5ebbccdf</title>
<g id="a_node13"><a xlink:href="dir_0669efae56692bb73da75efb5ebbccdf.html" target="_top" xlink:title="function">
<polygon fill="#edf0f7" stroke="red" stroke-dasharray="5,2" points="939,-35 883,-35 883,-16 939,-16 939,-35"/>
<text text-anchor="middle" x="911" y="-23" font-family="Helvetica,sans-Serif" font-size="10.00">function</text>
</a>
</g>
</g>
<!-- dir_289c3fc9695217b968c29372e2a5940c&#45;&gt;dir_0669efae56692bb73da75efb5ebbccdf -->
<g id="edge1" class="edge">
<title>dir_289c3fc9695217b968c29372e2a5940c&#45;&gt;dir_0669efae56692bb73da75efb5ebbccdf</title>
<path fill="none" stroke="#63b8ff" d="M714.03,-74.61C750.12,-65.79 826.62,-47.11 872.95,-35.79"/>
<polygon fill="#63b8ff" stroke="#63b8ff" points="874.03,-39.13 882.91,-33.36 872.36,-32.33 874.03,-39.13"/>
<g id="a_edge1&#45;headlabel"><a xlink:href="dir_000085_000082.html" target="_top" xlink:title="14">
<text text-anchor="middle" x="871.21" y="-40.24" font-family="Helvetica,sans-Serif" font-size="10.00" fill="#63b8ff">14</text>
</a>
</g>
</g>
<!-- dir_30ecaf38acae77be14fb9173f98f8612 -->
<g id="node14" class="node">
<title>dir_30ecaf38acae77be14fb9173f98f8612</title>
<g id="a_node14"><a xlink:href="dir_30ecaf38acae77be14fb9173f98f8612.html" target="_top" xlink:title="types">
<polygon fill="#edf0f7" stroke="#7f7f7f" points="1001,-35 957,-35 957,-16 1001,-16 1001,-35"/>
<text text-anchor="middle" x="979" y="-23" font-family="Helvetica,sans-Serif" font-size="10.00">types</text>
</a>
</g>
</g>
<!-- dir_289c3fc9695217b968c29372e2a5940c&#45;&gt;dir_30ecaf38acae77be14fb9173f98f8612 -->
<g id="edge2" class="edge">
<title>dir_289c3fc9695217b968c29372e2a5940c&#45;&gt;dir_30ecaf38acae77be14fb9173f98f8612</title>
<path fill="none" stroke="#63b8ff" d="M714.21,-76.62C755.92,-70.54 854.66,-55.42 946.94,-35.06"/>
<polygon fill="#63b8ff" stroke="#63b8ff" points="947.71,-38.48 956.71,-32.88 946.19,-31.64 947.71,-38.48"/>
<g id="a_edge2&#45;headlabel"><a xlink:href="dir_000085_000180.html" target="_top" xlink:title="4">
<text text-anchor="middle" x="944.83" y="-39.53" font-family="Helvetica,sans-Serif" font-size="10.00" fill="#63b8ff">4</text>
</a>
</g>
</g>
<!-- dir_4535887b2cdca47e625f259d07db0112 -->
<g id="node15" class="node">
<title>dir_4535887b2cdca47e625f259d07db0112</title>
<g id="a_node15"><a xlink:href="dir_4535887b2cdca47e625f259d07db0112.html" target="_top" xlink:title="util">
<polygon fill="#edf0f7" stroke="#7f7f7f" points="1051,-35 1019,-35 1019,-16 1051,-16 1051,-35"/>
<text text-anchor="middle" x="1035" y="-23" font-family="Helvetica,sans-Serif" font-size="10.00">util</text>
</a>
</g>
</g>
<!-- dir_289c3fc9695217b968c29372e2a5940c&#45;&gt;dir_4535887b2cdca47e625f259d07db0112 -->
<g id="edge3" class="edge">
<title>dir_289c3fc9695217b968c29372e2a5940c&#45;&gt;dir_4535887b2cdca47e625f259d07db0112</title>
<path fill="none" stroke="#63b8ff" d="M714.21,-77.98C763.29,-74.01 892.71,-61.88 1009.2,-34.76"/>
<polygon fill="#63b8ff" stroke="#63b8ff" points="1010.07,-38.15 1018.99,-32.44 1008.45,-31.34 1010.07,-38.15"/>
<g id="a_edge3&#45;headlabel"><a xlink:href="dir_000085_000185.html" target="_top" xlink:title="10">
<text text-anchor="middle" x="1007.23" y="-39.24" font-family="Helvetica,sans-Serif" font-size="10.00" fill="#63b8ff">10</text>
</a>
</g>
</g>
<!-- dir_942cfae36a92b6b1c4b510e99e852d40 -->
<g id="node16" class="node">
<title>dir_942cfae36a92b6b1c4b510e99e852d40</title>
<g id="a_node16"><a xlink:href="dir_942cfae36a92b6b1c4b510e99e852d40.html" target="_top" xlink:title="vocab">
<polygon fill="#edf0f7" stroke="red" stroke-dasharray="5,2" points="1115,-35 1069,-35 1069,-16 1115,-16 1115,-35"/>
<text text-anchor="middle" x="1092" y="-23" font-family="Helvetica,sans-Serif" font-size="10.00">vocab</text>
</a>
</g>
</g>
<!-- dir_289c3fc9695217b968c29372e2a5940c&#45;&gt;dir_942cfae36a92b6b1c4b510e99e852d40 -->
<g id="edge5" class="edge">
<title>dir_289c3fc9695217b968c29372e2a5940c&#45;&gt;dir_942cfae36a92b6b1c4b510e99e852d40</title>
<path fill="none" stroke="#63b8ff" d="M714.39,-78.02C768.76,-73.86 921.85,-60.78 1058.45,-35.05"/>
<polygon fill="#63b8ff" stroke="#63b8ff" points="1059.5,-38.41 1068.67,-33.1 1058.19,-31.54 1059.5,-38.41"/>
<g id="a_edge5&#45;headlabel"><a xlink:href="dir_000085_000189.html" target="_top" xlink:title="16">
<text text-anchor="middle" x="1056.51" y="-39.38" font-family="Helvetica,sans-Serif" font-size="10.00" fill="#63b8ff">16</text>
</a>
</g>
</g>
<!-- dir_f555f996eeee1ebe901dc71e0c5de8ff -->
<g id="node17" class="node">
<title>dir_f555f996eeee1ebe901dc71e0c5de8ff</title>
<g id="a_node17"><a xlink:href="dir_f555f996eeee1ebe901dc71e0c5de8ff.html" target="_top" xlink:title="meta">
<polygon fill="#edf0f7" stroke="#7f7f7f" points="1175,-35 1133,-35 1133,-16 1175,-16 1175,-35"/>
<text text-anchor="middle" x="1154" y="-23" font-family="Helvetica,sans-Serif" font-size="10.00">meta</text>
</a>
</g>
</g>
<!-- dir_289c3fc9695217b968c29372e2a5940c&#45;&gt;dir_f555f996eeee1ebe901dc71e0c5de8ff -->
<g id="edge7" class="edge">
<title>dir_289c3fc9695217b968c29372e2a5940c&#45;&gt;dir_f555f996eeee1ebe901dc71e0c5de8ff</title>
<path fill="none" stroke="#63b8ff" d="M714.33,-78.65C775.03,-75.83 960.3,-65.36 1122.64,-34.93"/>
<polygon fill="#63b8ff" stroke="#63b8ff" points="1123.64,-38.31 1132.8,-33 1122.33,-31.43 1123.64,-38.31"/>
<g id="a_edge7&#45;headlabel"><a xlink:href="dir_000085_000122.html" target="_top" xlink:title="13">
<text text-anchor="middle" x="1120.64" y="-39.27" font-family="Helvetica,sans-Serif" font-size="10.00" fill="#63b8ff">13</text>
</a>
</g>
</g>
<!-- dir_08634ce485991c3177b7abdfcbda00d8 -->
<g id="node12" class="node">
<title>dir_08634ce485991c3177b7abdfcbda00d8</title>
<g id="a_node12"><a xlink:href="dir_08634ce485991c3177b7abdfcbda00d8.html" target="_top" xlink:title="node">
<polygon fill="#a2b4d6" stroke="#404040" points="655.5,-90 614.5,-90 614.5,-71 655.5,-71 655.5,-90"/>
<text text-anchor="middle" x="635" y="-78" font-family="Helvetica,sans-Serif" font-size="10.00">node</text>
</a>
</g>
</g>
<!-- dir_08634ce485991c3177b7abdfcbda00d8&#45;&gt;dir_838362f34bc8d8c3545343b0166aa672 -->
<g id="edge15" class="edge">
<title>dir_08634ce485991c3177b7abdfcbda00d8&#45;&gt;dir_838362f34bc8d8c3545343b0166aa672</title>
<path fill="none" stroke="#63b8ff" d="M644.16,-70.98C652.5,-63.23 665.03,-51.58 675.18,-42.14"/>
<polygon fill="#63b8ff" stroke="#63b8ff" points="677.74,-44.54 682.68,-35.17 672.97,-39.42 677.74,-44.54"/>
<g id="a_edge15&#45;headlabel"><a xlink:href="dir_000129_000037.html" target="_top" xlink:title="4">
<text text-anchor="middle" x="677.04" y="-46.57" font-family="Helvetica,sans-Serif" font-size="10.00" fill="#63b8ff">4</text>
</a>
</g>
</g>
<!-- dir_08634ce485991c3177b7abdfcbda00d8&#45;&gt;dir_9f8d33513cfc97e5f9ea6bf2671e5446 -->
<g id="edge18" class="edge">
<title>dir_08634ce485991c3177b7abdfcbda00d8&#45;&gt;dir_9f8d33513cfc97e5f9ea6bf2671e5446</title>
<path fill="none" stroke="#63b8ff" d="M633.02,-70.75C631.43,-63.72 629.14,-53.62 627.15,-44.84"/>
<polygon fill="#63b8ff" stroke="#63b8ff" points="630.57,-44.07 624.94,-35.09 623.74,-45.62 630.57,-44.07"/>
<g id="a_edge18&#45;headlabel"><a xlink:href="dir_000129_000120.html" target="_top" xlink:title="1">
<text text-anchor="middle" x="634.13" y="-44.45" font-family="Helvetica,sans-Serif" font-size="10.00" fill="#63b8ff">1</text>
</a>
</g>
</g>
<!-- dir_08634ce485991c3177b7abdfcbda00d8&#45;&gt;dir_c0fde34eb1aad6470b7c40f9528ecd51 -->
<g id="edge22" class="edge">
<title>dir_08634ce485991c3177b7abdfcbda00d8&#45;&gt;dir_c0fde34eb1aad6470b7c40f9528ecd51</title>
<path fill="none" stroke="#63b8ff" d="M621.99,-70.98C609.54,-62.84 590.54,-50.41 575.79,-40.76"/>
<polygon fill="#63b8ff" stroke="#63b8ff" points="577.54,-37.72 567.25,-35.17 573.7,-43.57 577.54,-37.72"/>
<g id="a_edge22&#45;headlabel"><a xlink:href="dir_000129_000098.html" target="_top" xlink:title="8">
<text text-anchor="middle" x="582.1" y="-34.81" font-family="Helvetica,sans-Serif" font-size="10.00" fill="#63b8ff">8</text>
</a>
</g>
</g>
<!-- dir_08634ce485991c3177b7abdfcbda00d8&#45;&gt;dir_093cb0cf41c3d9bb25543a4e1702223c -->
<g id="edge9" class="edge">
<title>dir_08634ce485991c3177b7abdfcbda00d8&#45;&gt;dir_093cb0cf41c3d9bb25543a4e1702223c</title>
<path fill="none" stroke="#63b8ff" d="M614.42,-78.98C542.3,-76.92 294.27,-67.87 79.83,-34.86"/>
<polygon fill="#63b8ff" stroke="#63b8ff" points="80.07,-31.35 69.65,-33.27 78.99,-38.27 80.07,-31.35"/>
<g id="a_edge9&#45;headlabel"><a xlink:href="dir_000129_000108.html" target="_top" xlink:title="2">
<text text-anchor="middle" x="84.06" y="-26.6" font-family="Helvetica,sans-Serif" font-size="10.00" fill="#63b8ff">2</text>
</a>
</g>
</g>
<!-- dir_08634ce485991c3177b7abdfcbda00d8&#45;&gt;dir_a7b99681c56fba2abd28393cbbc3f22c -->
<g id="edge20" class="edge">
<title>dir_08634ce485991c3177b7abdfcbda00d8&#45;&gt;dir_a7b99681c56fba2abd28393cbbc3f22c</title>
<path fill="none" stroke="#63b8ff" d="M614.17,-78.88C547.13,-76.63 330.89,-67.32 142.36,-34.71"/>
<polygon fill="#63b8ff" stroke="#63b8ff" points="142.73,-31.22 132.27,-32.93 141.52,-38.11 142.73,-31.22"/>
<g id="a_edge20&#45;headlabel"><a xlink:href="dir_000129_000178.html" target="_top" xlink:title="1">
<text text-anchor="middle" x="146.76" y="-26.54" font-family="Helvetica,sans-Serif" font-size="10.00" fill="#63b8ff">1</text>
</a>
</g>
</g>
<!-- dir_08634ce485991c3177b7abdfcbda00d8&#45;&gt;dir_75ced0d5626770d74ec0ab0f9ebe51e3 -->
<g id="edge14" class="edge">
<title>dir_08634ce485991c3177b7abdfcbda00d8&#45;&gt;dir_75ced0d5626770d74ec0ab0f9ebe51e3</title>
<path fill="none" stroke="#63b8ff" d="M614.12,-78.07C554.35,-73.8 377.4,-60 220.08,-34.99"/>
<polygon fill="#63b8ff" stroke="#63b8ff" points="220.18,-31.46 209.75,-33.33 219.06,-38.37 220.18,-31.46"/>
<g id="a_edge14&#45;headlabel"><a xlink:href="dir_000129_000005.html" target="_top" xlink:title="16">
<text text-anchor="middle" x="224.18" y="-26.73" font-family="Helvetica,sans-Serif" font-size="10.00" fill="#63b8ff">16</text>
</a>
</g>
</g>
<!-- dir_08634ce485991c3177b7abdfcbda00d8&#45;&gt;dir_8ac75f3e92965d7b87f5a77c8eb4a6b1 -->
<g id="edge16" class="edge">
<title>dir_08634ce485991c3177b7abdfcbda00d8&#45;&gt;dir_8ac75f3e92965d7b87f5a77c8eb4a6b1</title>
<path fill="none" stroke="#63b8ff" d="M614.42,-77.02C562.98,-70.75 424.71,-53.44 310,-35 309.9,-34.98 309.8,-34.97 309.7,-34.95"/>
<polygon fill="#63b8ff" stroke="#63b8ff" points="310.57,-31.55 300.13,-33.34 309.41,-38.45 310.57,-31.55"/>
<g id="a_edge16&#45;headlabel"><a xlink:href="dir_000129_000019.html" target="_top" xlink:title="4">
<text text-anchor="middle" x="314.59" y="-26.85" font-family="Helvetica,sans-Serif" font-size="10.00" fill="#63b8ff">4</text>
</a>
</g>
</g>
<!-- dir_08634ce485991c3177b7abdfcbda00d8&#45;&gt;dir_f1a41f0d4848adc979771c8b39d6dd9b -->
<g id="edge23" class="edge">
<title>dir_08634ce485991c3177b7abdfcbda00d8&#45;&gt;dir_f1a41f0d4848adc979771c8b39d6dd9b</title>
<path fill="none" stroke="#63b8ff" d="M614.33,-76.56C571.68,-70.35 470.67,-55.02 375.78,-35.01"/>
<polygon fill="#63b8ff" stroke="#63b8ff" points="376.25,-31.53 365.74,-32.86 374.79,-38.37 376.25,-31.53"/>
<g id="a_edge23&#45;headlabel"><a xlink:href="dir_000129_000187.html" target="_top" xlink:title="8">
<text text-anchor="middle" x="380.36" y="-27" font-family="Helvetica,sans-Serif" font-size="10.00" fill="#63b8ff">8</text>
</a>
</g>
</g>
<!-- dir_08634ce485991c3177b7abdfcbda00d8&#45;&gt;dir_28cb5a05dfb61a4b9ad44e468e6394a4 -->
<g id="edge10" class="edge">
<title>dir_08634ce485991c3177b7abdfcbda00d8&#45;&gt;dir_28cb5a05dfb61a4b9ad44e468e6394a4</title>
<path fill="none" stroke="#63b8ff" d="M614.24,-75.41C579.16,-68.41 505.74,-53.3 434.3,-35.19"/>
<polygon fill="#63b8ff" stroke="#63b8ff" points="434.79,-31.71 424.23,-32.62 433.05,-38.49 434.79,-31.71"/>
<g id="a_edge10&#45;headlabel"><a xlink:href="dir_000129_000188.html" target="_top" xlink:title="4">
<text text-anchor="middle" x="438.97" y="-27.35" font-family="Helvetica,sans-Serif" font-size="10.00" fill="#63b8ff">4</text>
</a>
</g>
</g>
<!-- dir_08634ce485991c3177b7abdfcbda00d8&#45;&gt;dir_60528a66b99dd07a1313b3c263e646ab -->
<g id="edge13" class="edge">
<title>dir_08634ce485991c3177b7abdfcbda00d8&#45;&gt;dir_60528a66b99dd07a1313b3c263e646ab</title>
<path fill="none" stroke="#63b8ff" d="M614.28,-72.68C587.92,-64 541.96,-48.87 509.86,-38.3"/>
<polygon fill="#63b8ff" stroke="#63b8ff" points="510.56,-34.85 499.96,-35.05 508.37,-41.5 510.56,-34.85"/>
<g id="a_edge13&#45;headlabel"><a xlink:href="dir_000129_000003.html" target="_top" xlink:title="2">
<text text-anchor="middle" x="514.86" y="-30.78" font-family="Helvetica,sans-Serif" font-size="10.00" fill="#63b8ff">2</text>
</a>
</g>
</g>
<!-- dir_08634ce485991c3177b7abdfcbda00d8&#45;&gt;dir_0669efae56692bb73da75efb5ebbccdf -->
<g id="edge8" class="edge">
<title>dir_08634ce485991c3177b7abdfcbda00d8&#45;&gt;dir_0669efae56692bb73da75efb5ebbccdf</title>
<path fill="none" stroke="#63b8ff" d="M648.26,-70.83C653.31,-67.9 659.24,-64.9 665,-63 750.98,-34.7 779.82,-50.55 872.67,-35.04"/>
<polygon fill="#63b8ff" stroke="#63b8ff" points="873.53,-38.44 882.77,-33.27 872.32,-31.54 873.53,-38.44"/>
<g id="a_edge8&#45;headlabel"><a xlink:href="dir_000129_000082.html" target="_top" xlink:title="10">
<text text-anchor="middle" x="870.48" y="-39.36" font-family="Helvetica,sans-Serif" font-size="10.00" fill="#63b8ff">10</text>
</a>
</g>
</g>
<!-- dir_08634ce485991c3177b7abdfcbda00d8&#45;&gt;dir_30ecaf38acae77be14fb9173f98f8612 -->
<g id="edge11" class="edge">
<title>dir_08634ce485991c3177b7abdfcbda00d8&#45;&gt;dir_30ecaf38acae77be14fb9173f98f8612</title>
<path fill="none" stroke="#63b8ff" d="M647.92,-70.89C653.04,-67.9 659.1,-64.83 665,-63 782.65,-26.51 821.74,-56.41 946.8,-34.87"/>
<polygon fill="#63b8ff" stroke="#63b8ff" points="947.53,-38.3 956.75,-33.08 946.29,-31.41 947.53,-38.3"/>
<g id="a_edge11&#45;headlabel"><a xlink:href="dir_000129_000180.html" target="_top" xlink:title="1">
<text text-anchor="middle" x="944.5" y="-39.23" font-family="Helvetica,sans-Serif" font-size="10.00" fill="#63b8ff">1</text>
</a>
</g>
</g>
<!-- dir_08634ce485991c3177b7abdfcbda00d8&#45;&gt;dir_4535887b2cdca47e625f259d07db0112 -->
<g id="edge12" class="edge">
<title>dir_08634ce485991c3177b7abdfcbda00d8&#45;&gt;dir_4535887b2cdca47e625f259d07db0112</title>
<path fill="none" stroke="#63b8ff" d="M647.91,-70.84C653.02,-67.84 659.08,-64.78 665,-63 809.16,-19.68 857.3,-64.22 1008.63,-34.72"/>
<polygon fill="#63b8ff" stroke="#63b8ff" points="1009.65,-38.08 1018.75,-32.67 1008.26,-31.22 1009.65,-38.08"/>
<g id="a_edge12&#45;headlabel"><a xlink:href="dir_000129_000185.html" target="_top" xlink:title="6">
<text text-anchor="middle" x="1006.69" y="-39.08" font-family="Helvetica,sans-Serif" font-size="10.00" fill="#63b8ff">6</text>
</a>
</g>
</g>
<!-- dir_08634ce485991c3177b7abdfcbda00d8&#45;&gt;dir_942cfae36a92b6b1c4b510e99e852d40 -->
<g id="edge17" class="edge">
<title>dir_08634ce485991c3177b7abdfcbda00d8&#45;&gt;dir_942cfae36a92b6b1c4b510e99e852d40</title>
<path fill="none" stroke="#63b8ff" d="M647.6,-70.98C652.77,-67.92 658.96,-64.78 665,-63 830.67,-14.14 884.41,-62.09 1058.68,-34.86"/>
<polygon fill="#63b8ff" stroke="#63b8ff" points="1059.38,-38.29 1068.69,-33.24 1058.26,-31.38 1059.38,-38.29"/>
<g id="a_edge17&#45;headlabel"><a xlink:href="dir_000129_000189.html" target="_top" xlink:title="8">
<text text-anchor="middle" x="1056.29" y="-39.17" font-family="Helvetica,sans-Serif" font-size="10.00" fill="#63b8ff">8</text>
</a>
</g>
</g>
<!-- dir_08634ce485991c3177b7abdfcbda00d8&#45;&gt;dir_f555f996eeee1ebe901dc71e0c5de8ff -->
<g id="edge24" class="edge">
<title>dir_08634ce485991c3177b7abdfcbda00d8&#45;&gt;dir_f555f996eeee1ebe901dc71e0c5de8ff</title>
<path fill="none" stroke="#63b8ff" d="M647.6,-70.95C652.76,-67.88 658.95,-64.75 665,-63 858.15,-7.06 920.51,-67.27 1122.77,-34.78"/>
<polygon fill="#63b8ff" stroke="#63b8ff" points="1123.53,-38.2 1132.82,-33.11 1122.39,-31.3 1123.53,-38.2"/>
<g id="a_edge24&#45;headlabel"><a xlink:href="dir_000129_000122.html" target="_top" xlink:title="6">
<text text-anchor="middle" x="1120.45" y="-39.09" font-family="Helvetica,sans-Serif" font-size="10.00" fill="#63b8ff">6</text>
</a>
</g>
</g>
<!-- dir_aaf67126bd5deefc4d96704f76f22cc2 -->
<g id="node18" class="node">
<title>dir_aaf67126bd5deefc4d96704f76f22cc2</title>
<g id="a_node18"><a xlink:href="dir_aaf67126bd5deefc4d96704f76f22cc2.html" target="_top" xlink:title="platform">
<polygon fill="#edf0f7" stroke="#7f7f7f" points="799.5,-35 740.5,-35 740.5,-16 799.5,-16 799.5,-35"/>
<text text-anchor="middle" x="770" y="-23" font-family="Helvetica,sans-Serif" font-size="10.00">platform</text>
</a>
</g>
</g>
<!-- dir_08634ce485991c3177b7abdfcbda00d8&#45;&gt;dir_aaf67126bd5deefc4d96704f76f22cc2 -->
<g id="edge21" class="edge">
<title>dir_08634ce485991c3177b7abdfcbda00d8&#45;&gt;dir_aaf67126bd5deefc4d96704f76f22cc2</title>
<path fill="none" stroke="#63b8ff" d="M649.4,-70.94C654.26,-68.22 659.79,-65.32 665,-63 686.42,-53.47 711.15,-44.76 731.23,-38.25"/>
<polygon fill="#63b8ff" stroke="#63b8ff" points="732.51,-41.51 740.97,-35.14 730.38,-34.85 732.51,-41.51"/>
<g id="a_edge21&#45;headlabel"><a xlink:href="dir_000129_000135.html" target="_top" xlink:title="4">
<text text-anchor="middle" x="729.95" y="-42.81" font-family="Helvetica,sans-Serif" font-size="10.00" fill="#63b8ff">4</text>
</a>
</g>
</g>
<!-- dir_a60d4453151dca6bdd8e5fcc350e379b -->
<g id="node19" class="node">
<title>dir_a60d4453151dca6bdd8e5fcc350e379b</title>
<g id="a_node19"><a xlink:href="dir_a60d4453151dca6bdd8e5fcc350e379b.html" target="_top" xlink:title="assert">
<polygon fill="#edf0f7" stroke="#7f7f7f" points="864.5,-35 817.5,-35 817.5,-16 864.5,-16 864.5,-35"/>
<text text-anchor="middle" x="841" y="-23" font-family="Helvetica,sans-Serif" font-size="10.00">assert</text>
</a>
</g>
</g>
<!-- dir_08634ce485991c3177b7abdfcbda00d8&#45;&gt;dir_a60d4453151dca6bdd8e5fcc350e379b -->
<g id="edge19" class="edge">
<title>dir_08634ce485991c3177b7abdfcbda00d8&#45;&gt;dir_a60d4453151dca6bdd8e5fcc350e379b</title>
<path fill="none" stroke="#63b8ff" d="M648.62,-70.84C653.61,-67.98 659.41,-65.02 665,-63 723.43,-41.84 743.57,-48.84 807.52,-35.17"/>
<polygon fill="#63b8ff" stroke="#63b8ff" points="808.28,-38.58 817.28,-32.99 806.76,-31.75 808.28,-38.58"/>
<g id="a_edge19&#45;headlabel"><a xlink:href="dir_000129_000018.html" target="_top" xlink:title="1">
<text text-anchor="middle" x="805.39" y="-39.63" font-family="Helvetica,sans-Serif" font-size="10.00" fill="#63b8ff">1</text>
</a>
</g>
</g>
</g>
</svg>
