<?xml version="1.0" encoding="UTF-8" standalone="no"?>
<!DOCTYPE svg PUBLIC "-//W3C//DTD SVG 1.1//EN"
 "http://www.w3.org/Graphics/SVG/1.1/DTD/svg11.dtd">
<!-- Generated by graphviz version 2.43.0 (0)
 -->
<!-- Title: libs/di/include/di/execution/macro Pages: 1 -->
<svg width="202pt" height="133pt"
 viewBox="0.00 0.00 202.00 133.00" xmlns="http://www.w3.org/2000/svg" xmlns:xlink="http://www.w3.org/1999/xlink">
<g id="graph0" class="graph" transform="scale(1 1) rotate(0) translate(4 129)">
<title>libs/di/include/di/execution/macro</title>
<g id="clust1" class="cluster">
<title>clusterdir_182dab0b86097ba072332b7ad8fceb7f</title>
<g id="a_clust1"><a xlink:href="dir_182dab0b86097ba072332b7ad8fceb7f.html" target="_top" xlink:title="execution">
<polygon fill="#edf0f7" stroke="#7f7f7f" stroke-dasharray="5,2" points="8,-8 8,-117 88,-117 88,-8 8,-8"/>
<text text-anchor="middle" x="48" y="-105" font-family="Helvetica,sans-Serif" font-size="10.00">execution</text>
</a>
</g>
</g>
<!-- dir_42e3132b523eec61d254ecfd76390a40 -->
<g id="node1" class="node">
<title>dir_42e3132b523eec61d254ecfd76390a40</title>
<g id="a_node1"><a xlink:href="dir_42e3132b523eec61d254ecfd76390a40.html" target="_top" xlink:title="algorithm">
<polygon fill="#a2b4d6" stroke="#404040" points="80,-35 16,-35 16,-16 80,-16 80,-35"/>
<text text-anchor="middle" x="48" y="-23" font-family="Helvetica,sans-Serif" font-size="10.00">algorithm</text>
</a>
</g>
</g>
<!-- dir_c230a3ac39ace2ae84167ccd353e9e0e -->
<g id="node2" class="node">
<title>dir_c230a3ac39ace2ae84167ccd353e9e0e</title>
<g id="a_node2"><a xlink:href="dir_c230a3ac39ace2ae84167ccd353e9e0e.html" target="_top" xlink:title="macro">
<polygon fill="#edf0f7" stroke="#404040" stroke-width="2" points="79.5,-90 32.5,-90 32.5,-71 79.5,-71 79.5,-90"/>
<text text-anchor="middle" x="56" y="-78" font-family="Helvetica,sans-Serif" font-size="10.00">macro</text>
</a>
</g>
</g>
<!-- dir_c230a3ac39ace2ae84167ccd353e9e0e&#45;&gt;dir_42e3132b523eec61d254ecfd76390a40 -->
<g id="edge1" class="edge">
<title>dir_c230a3ac39ace2ae84167ccd353e9e0e&#45;&gt;dir_42e3132b523eec61d254ecfd76390a40</title>
<path fill="none" stroke="#63b8ff" d="M54.68,-70.75C53.63,-63.8 52.13,-53.85 50.81,-45.13"/>
<polygon fill="#63b8ff" stroke="#63b8ff" points="54.25,-44.45 49.3,-35.09 47.33,-45.5 54.25,-44.45"/>
<g id="a_edge1&#45;headlabel"><a xlink:href="dir_000116_000004.html" target="_top" xlink:title="1">
<text text-anchor="middle" x="57.59" y="-45.09" font-family="Helvetica,sans-Serif" font-size="10.00" fill="#63b8ff">1</text>
</a>
</g>
</g>
<!-- dir_4535887b2cdca47e625f259d07db0112 -->
<g id="node3" class="node">
<title>dir_4535887b2cdca47e625f259d07db0112</title>
<g id="a_node3"><a xlink:href="dir_4535887b2cdca47e625f259d07db0112.html" target="_top" xlink:title="util">
<polygon fill="#edf0f7" stroke="#7f7f7f" points="130,-35 98,-35 98,-16 130,-16 130,-35"/>
<text text-anchor="middle" x="114" y="-23" font-family="Helvetica,sans-Serif" font-size="10.00">util</text>
</a>
</g>
</g>
<!-- dir_c230a3ac39ace2ae84167ccd353e9e0e&#45;&gt;dir_4535887b2cdca47e625f259d07db0112 -->
<g id="edge2" class="edge">
<title>dir_c230a3ac39ace2ae84167ccd353e9e0e&#45;&gt;dir_4535887b2cdca47e625f259d07db0112</title>
<path fill="none" stroke="#63b8ff" d="M65.32,-70.98C73.81,-63.23 86.56,-51.58 96.88,-42.14"/>
<polygon fill="#63b8ff" stroke="#63b8ff" points="99.49,-44.5 104.51,-35.17 94.77,-39.33 99.49,-44.5"/>
<g id="a_edge2&#45;headlabel"><a xlink:href="dir_000116_000185.html" target="_top" xlink:title="1">
<text text-anchor="middle" x="98.75" y="-46.52" font-family="Helvetica,sans-Serif" font-size="10.00" fill="#63b8ff">1</text>
</a>
</g>
</g>
<!-- dir_942cfae36a92b6b1c4b510e99e852d40 -->
<g id="node4" class="node">
<title>dir_942cfae36a92b6b1c4b510e99e852d40</title>
<g id="a_node4"><a xlink:href="dir_942cfae36a92b6b1c4b510e99e852d40.html" target="_top" xlink:title="vocab">
<polygon fill="#edf0f7" stroke="red" stroke-dasharray="5,2" points="194,-35 148,-35 148,-16 194,-16 194,-35"/>
<text text-anchor="middle" x="171" y="-23" font-family="Helvetica,sans-Serif" font-size="10.00">vocab</text>
</a>
</g>
</g>
<!-- dir_c230a3ac39ace2ae84167ccd353e9e0e&#45;&gt;dir_942cfae36a92b6b1c4b510e99e852d40 -->
<g id="edge3" class="edge">
<title>dir_c230a3ac39ace2ae84167ccd353e9e0e&#45;&gt;dir_942cfae36a92b6b1c4b510e99e852d40</title>
<path fill="none" stroke="#63b8ff" d="M74.48,-70.98C92.98,-62.46 121.68,-49.23 142.98,-39.41"/>
<polygon fill="#63b8ff" stroke="#63b8ff" points="144.57,-42.53 152.19,-35.17 141.64,-36.18 144.57,-42.53"/>
<g id="a_edge3&#45;headlabel"><a xlink:href="dir_000116_000189.html" target="_top" xlink:title="1">
<text text-anchor="middle" x="142.49" y="-44.12" font-family="Helvetica,sans-Serif" font-size="10.00" fill="#63b8ff">1</text>
</a>
</g>
</g>
</g>
</svg>
