<?xml version="1.0" encoding="UTF-8" standalone="no"?>
<!DOCTYPE svg PUBLIC "-//W3C//DTD SVG 1.1//EN"
 "http://www.w3.org/Graphics/SVG/1.1/DTD/svg11.dtd">
<!-- Generated by graphviz version 2.43.0 (0)
 -->
<!-- Title: libs/di/include/di/vocab/optional Pages: 1 -->
<svg width="382pt" height="117pt"
 viewBox="0.00 0.00 382.00 117.00" xmlns="http://www.w3.org/2000/svg" xmlns:xlink="http://www.w3.org/1999/xlink">
<g id="graph0" class="graph" transform="scale(1 1) rotate(0) translate(4 113)">
<title>libs/di/include/di/vocab/optional</title>
<g id="clust1" class="cluster">
<title>clusterdir_942cfae36a92b6b1c4b510e99e852d40</title>
<g id="a_clust1"><a xlink:href="dir_942cfae36a92b6b1c4b510e99e852d40.html" target="_top" xlink:title="vocab">
<polygon fill="#edf0f7" stroke="#7f7f7f" stroke-dasharray="5,2" points="148,-47 148,-101 220,-101 220,-47 148,-47"/>
<text text-anchor="middle" x="184" y="-89" font-family="Helvetica,sans-Serif" font-size="10.00">vocab</text>
</a>
</g>
</g>
<!-- dir_fb93aeb8b3e9feea147f4ddef093a0f6 -->
<g id="node1" class="node">
<title>dir_fb93aeb8b3e9feea147f4ddef093a0f6</title>
<g id="a_node1"><a xlink:href="dir_fb93aeb8b3e9feea147f4ddef093a0f6.html" target="_top" xlink:title="optional">
<polygon fill="#edf0f7" stroke="#404040" stroke-width="2" points="212,-74 156,-74 156,-55 212,-55 212,-74"/>
<text text-anchor="middle" x="184" y="-62" font-family="Helvetica,sans-Serif" font-size="10.00">optional</text>
</a>
</g>
</g>
<!-- dir_0669efae56692bb73da75efb5ebbccdf -->
<g id="node2" class="node">
<title>dir_0669efae56692bb73da75efb5ebbccdf</title>
<g id="a_node2"><a xlink:href="dir_0669efae56692bb73da75efb5ebbccdf.html" target="_top" xlink:title="function">
<polygon fill="#edf0f7" stroke="red" stroke-dasharray="5,2" points="56,-19 0,-19 0,0 56,0 56,-19"/>
<text text-anchor="middle" x="28" y="-7" font-family="Helvetica,sans-Serif" font-size="10.00">function</text>
</a>
</g>
</g>
<!-- dir_fb93aeb8b3e9feea147f4ddef093a0f6&#45;&gt;dir_0669efae56692bb73da75efb5ebbccdf -->
<g id="edge1" class="edge">
<title>dir_fb93aeb8b3e9feea147f4ddef093a0f6&#45;&gt;dir_0669efae56692bb73da75efb5ebbccdf</title>
<path fill="none" stroke="#63b8ff" d="M158.94,-54.98C132.97,-46.16 92.19,-32.31 63.04,-22.41"/>
<polygon fill="#63b8ff" stroke="#63b8ff" points="63.85,-18.99 53.26,-19.08 61.6,-25.61 63.85,-18.99"/>
<g id="a_edge1&#45;headlabel"><a xlink:href="dir_000131_000082.html" target="_top" xlink:title="10">
<text text-anchor="middle" x="68.17" y="-14.95" font-family="Helvetica,sans-Serif" font-size="10.00" fill="#63b8ff">10</text>
</a>
</g>
</g>
<!-- dir_30ecaf38acae77be14fb9173f98f8612 -->
<g id="node3" class="node">
<title>dir_30ecaf38acae77be14fb9173f98f8612</title>
<g id="a_node3"><a xlink:href="dir_30ecaf38acae77be14fb9173f98f8612.html" target="_top" xlink:title="types">
<polygon fill="#edf0f7" stroke="#7f7f7f" points="118,-19 74,-19 74,0 118,0 118,-19"/>
<text text-anchor="middle" x="96" y="-7" font-family="Helvetica,sans-Serif" font-size="10.00">types</text>
</a>
</g>
</g>
<!-- dir_fb93aeb8b3e9feea147f4ddef093a0f6&#45;&gt;dir_30ecaf38acae77be14fb9173f98f8612 -->
<g id="edge2" class="edge">
<title>dir_fb93aeb8b3e9feea147f4ddef093a0f6&#45;&gt;dir_30ecaf38acae77be14fb9173f98f8612</title>
<path fill="none" stroke="#63b8ff" d="M169.86,-54.98C156.21,-46.77 135.31,-34.18 119.22,-24.49"/>
<polygon fill="#63b8ff" stroke="#63b8ff" points="120.77,-21.33 110.4,-19.17 117.16,-27.33 120.77,-21.33"/>
<g id="a_edge2&#45;headlabel"><a xlink:href="dir_000131_000180.html" target="_top" xlink:title="3">
<text text-anchor="middle" x="125.31" y="-18.25" font-family="Helvetica,sans-Serif" font-size="10.00" fill="#63b8ff">3</text>
</a>
</g>
</g>
<!-- dir_4535887b2cdca47e625f259d07db0112 -->
<g id="node4" class="node">
<title>dir_4535887b2cdca47e625f259d07db0112</title>
<g id="a_node4"><a xlink:href="dir_4535887b2cdca47e625f259d07db0112.html" target="_top" xlink:title="util">
<polygon fill="#edf0f7" stroke="#7f7f7f" points="168,-19 136,-19 136,0 168,0 168,-19"/>
<text text-anchor="middle" x="152" y="-7" font-family="Helvetica,sans-Serif" font-size="10.00">util</text>
</a>
</g>
</g>
<!-- dir_fb93aeb8b3e9feea147f4ddef093a0f6&#45;&gt;dir_4535887b2cdca47e625f259d07db0112 -->
<g id="edge3" class="edge">
<title>dir_fb93aeb8b3e9feea147f4ddef093a0f6&#45;&gt;dir_4535887b2cdca47e625f259d07db0112</title>
<path fill="none" stroke="#63b8ff" d="M178.72,-54.75C174.29,-47.42 167.84,-36.73 162.38,-27.7"/>
<polygon fill="#63b8ff" stroke="#63b8ff" points="165.35,-25.84 157.19,-19.09 159.36,-29.46 165.35,-25.84"/>
<g id="a_edge3&#45;headlabel"><a xlink:href="dir_000131_000185.html" target="_top" xlink:title="16">
<text text-anchor="middle" x="169.64" y="-24.95" font-family="Helvetica,sans-Serif" font-size="10.00" fill="#63b8ff">16</text>
</a>
</g>
</g>
<!-- dir_521de572ae4fe2915cc70a876c52f5b7 -->
<g id="node5" class="node">
<title>dir_521de572ae4fe2915cc70a876c52f5b7</title>
<g id="a_node5"><a xlink:href="dir_521de572ae4fe2915cc70a876c52f5b7.html" target="_top" xlink:title="container">
<polygon fill="#edf0f7" stroke="red" stroke-dasharray="5,2" points="248,-19 186,-19 186,0 248,0 248,-19"/>
<text text-anchor="middle" x="217" y="-7" font-family="Helvetica,sans-Serif" font-size="10.00">container</text>
</a>
</g>
</g>
<!-- dir_fb93aeb8b3e9feea147f4ddef093a0f6&#45;&gt;dir_521de572ae4fe2915cc70a876c52f5b7 -->
<g id="edge4" class="edge">
<title>dir_fb93aeb8b3e9feea147f4ddef093a0f6&#45;&gt;dir_521de572ae4fe2915cc70a876c52f5b7</title>
<path fill="none" stroke="#63b8ff" d="M189.45,-54.75C194.01,-47.42 200.67,-36.73 206.29,-27.7"/>
<polygon fill="#63b8ff" stroke="#63b8ff" points="209.34,-29.43 211.65,-19.09 203.4,-25.73 209.34,-29.43"/>
<g id="a_edge4&#45;headlabel"><a xlink:href="dir_000131_000046.html" target="_top" xlink:title="2">
<text text-anchor="middle" x="209.85" y="-31.48" font-family="Helvetica,sans-Serif" font-size="10.00" fill="#63b8ff">2</text>
</a>
</g>
</g>
<!-- dir_a60d4453151dca6bdd8e5fcc350e379b -->
<g id="node6" class="node">
<title>dir_a60d4453151dca6bdd8e5fcc350e379b</title>
<g id="a_node6"><a xlink:href="dir_a60d4453151dca6bdd8e5fcc350e379b.html" target="_top" xlink:title="assert">
<polygon fill="#edf0f7" stroke="#7f7f7f" points="313.5,-19 266.5,-19 266.5,0 313.5,0 313.5,-19"/>
<text text-anchor="middle" x="290" y="-7" font-family="Helvetica,sans-Serif" font-size="10.00">assert</text>
</a>
</g>
</g>
<!-- dir_fb93aeb8b3e9feea147f4ddef093a0f6&#45;&gt;dir_a60d4453151dca6bdd8e5fcc350e379b -->
<g id="edge5" class="edge">
<title>dir_fb93aeb8b3e9feea147f4ddef093a0f6&#45;&gt;dir_a60d4453151dca6bdd8e5fcc350e379b</title>
<path fill="none" stroke="#63b8ff" d="M201.03,-54.98C217.93,-46.54 244.06,-33.47 263.64,-23.68"/>
<polygon fill="#63b8ff" stroke="#63b8ff" points="265.28,-26.77 272.66,-19.17 262.15,-20.51 265.28,-26.77"/>
<g id="a_edge5&#45;headlabel"><a xlink:href="dir_000131_000018.html" target="_top" xlink:title="2">
<text text-anchor="middle" x="263.34" y="-28.42" font-family="Helvetica,sans-Serif" font-size="10.00" fill="#63b8ff">2</text>
</a>
</g>
</g>
<!-- dir_f555f996eeee1ebe901dc71e0c5de8ff -->
<g id="node7" class="node">
<title>dir_f555f996eeee1ebe901dc71e0c5de8ff</title>
<g id="a_node7"><a xlink:href="dir_f555f996eeee1ebe901dc71e0c5de8ff.html" target="_top" xlink:title="meta">
<polygon fill="#edf0f7" stroke="#7f7f7f" points="374,-19 332,-19 332,0 374,0 374,-19"/>
<text text-anchor="middle" x="353" y="-7" font-family="Helvetica,sans-Serif" font-size="10.00">meta</text>
</a>
</g>
</g>
<!-- dir_fb93aeb8b3e9feea147f4ddef093a0f6&#45;&gt;dir_f555f996eeee1ebe901dc71e0c5de8ff -->
<g id="edge6" class="edge">
<title>dir_fb93aeb8b3e9feea147f4ddef093a0f6&#45;&gt;dir_f555f996eeee1ebe901dc71e0c5de8ff</title>
<path fill="none" stroke="#63b8ff" d="M211.15,-54.98C241.46,-45.48 290.41,-30.13 322.15,-20.18"/>
<polygon fill="#63b8ff" stroke="#63b8ff" points="323.3,-23.48 331.8,-17.15 321.21,-16.8 323.3,-23.48"/>
<g id="a_edge6&#45;headlabel"><a xlink:href="dir_000131_000122.html" target="_top" xlink:title="21">
<text text-anchor="middle" x="320.72" y="-24.77" font-family="Helvetica,sans-Serif" font-size="10.00" fill="#63b8ff">21</text>
</a>
</g>
</g>
</g>
</svg>
