<?xml version="1.0" encoding="UTF-8" standalone="no"?>
<!DOCTYPE svg PUBLIC "-//W3C//DTD SVG 1.1//EN"
 "http://www.w3.org/Graphics/SVG/1.1/DTD/svg11.dtd">
<!-- Generated by graphviz version 2.43.0 (0)
 -->
<!-- Title: libs/di/include/di/cli Pages: 1 -->
<svg width="428pt" height="133pt"
 viewBox="0.00 0.00 428.00 133.00" xmlns="http://www.w3.org/2000/svg" xmlns:xlink="http://www.w3.org/1999/xlink">
<g id="graph0" class="graph" transform="scale(1 1) rotate(0) translate(4 129)">
<title>libs/di/include/di/cli</title>
<g id="clust1" class="cluster">
<title>clusterdir_f95a1a0ab1b96e316090c1bcac3c2c99</title>
<g id="a_clust1"><a xlink:href="dir_f95a1a0ab1b96e316090c1bcac3c2c99.html" target="_top" xlink:title="di">
<polygon fill="#edf0f7" stroke="#7f7f7f" stroke-dasharray="5,2" points="8,-8 8,-117 412,-117 412,-8 8,-8"/>
<text text-anchor="middle" x="210" y="-105" font-family="Helvetica,sans-Serif" font-size="10.00">di</text>
</a>
</g>
</g>
<!-- dir_0669efae56692bb73da75efb5ebbccdf -->
<g id="node1" class="node">
<title>dir_0669efae56692bb73da75efb5ebbccdf</title>
<g id="a_node1"><a xlink:href="dir_0669efae56692bb73da75efb5ebbccdf.html" target="_top" xlink:title="function">
<polygon fill="#a2b4d6" stroke="red" points="72,-35 16,-35 16,-16 72,-16 72,-35"/>
<text text-anchor="middle" x="44" y="-23" font-family="Helvetica,sans-Serif" font-size="10.00">function</text>
</a>
</g>
</g>
<!-- dir_30ecaf38acae77be14fb9173f98f8612 -->
<g id="node2" class="node">
<title>dir_30ecaf38acae77be14fb9173f98f8612</title>
<g id="a_node2"><a xlink:href="dir_30ecaf38acae77be14fb9173f98f8612.html" target="_top" xlink:title="types">
<polygon fill="#a2b4d6" stroke="#404040" points="134,-35 90,-35 90,-16 134,-16 134,-35"/>
<text text-anchor="middle" x="112" y="-23" font-family="Helvetica,sans-Serif" font-size="10.00">types</text>
</a>
</g>
</g>
<!-- dir_521de572ae4fe2915cc70a876c52f5b7 -->
<g id="node3" class="node">
<title>dir_521de572ae4fe2915cc70a876c52f5b7</title>
<g id="a_node3"><a xlink:href="dir_521de572ae4fe2915cc70a876c52f5b7.html" target="_top" xlink:title="container">
<polygon fill="#a2b4d6" stroke="red" points="214,-35 152,-35 152,-16 214,-16 214,-35"/>
<text text-anchor="middle" x="183" y="-23" font-family="Helvetica,sans-Serif" font-size="10.00">container</text>
</a>
</g>
</g>
<!-- dir_942cfae36a92b6b1c4b510e99e852d40 -->
<g id="node4" class="node">
<title>dir_942cfae36a92b6b1c4b510e99e852d40</title>
<g id="a_node4"><a xlink:href="dir_942cfae36a92b6b1c4b510e99e852d40.html" target="_top" xlink:title="vocab">
<polygon fill="#a2b4d6" stroke="red" points="278,-35 232,-35 232,-16 278,-16 278,-35"/>
<text text-anchor="middle" x="255" y="-23" font-family="Helvetica,sans-Serif" font-size="10.00">vocab</text>
</a>
</g>
</g>
<!-- dir_c63ec87f2f7fd7fbd5b69a04f05a2815 -->
<g id="node5" class="node">
<title>dir_c63ec87f2f7fd7fbd5b69a04f05a2815</title>
<g id="a_node5"><a xlink:href="dir_c63ec87f2f7fd7fbd5b69a04f05a2815.html" target="_top" xlink:title="parser">
<polygon fill="#a2b4d6" stroke="red" points="343.5,-35 296.5,-35 296.5,-16 343.5,-16 343.5,-35"/>
<text text-anchor="middle" x="320" y="-23" font-family="Helvetica,sans-Serif" font-size="10.00">parser</text>
</a>
</g>
</g>
<!-- dir_f555f996eeee1ebe901dc71e0c5de8ff -->
<g id="node6" class="node">
<title>dir_f555f996eeee1ebe901dc71e0c5de8ff</title>
<g id="a_node6"><a xlink:href="dir_f555f996eeee1ebe901dc71e0c5de8ff.html" target="_top" xlink:title="meta">
<polygon fill="#a2b4d6" stroke="#404040" points="404,-35 362,-35 362,-16 404,-16 404,-35"/>
<text text-anchor="middle" x="383" y="-23" font-family="Helvetica,sans-Serif" font-size="10.00">meta</text>
</a>
</g>
</g>
<!-- dir_5aacf5baaab43f58ec0f7691fd33c9e3 -->
<g id="node7" class="node">
<title>dir_5aacf5baaab43f58ec0f7691fd33c9e3</title>
<g id="a_node7"><a xlink:href="dir_5aacf5baaab43f58ec0f7691fd33c9e3.html" target="_top" xlink:title="cli">
<polygon fill="#edf0f7" stroke="#404040" stroke-width="2" points="233.5,-90 204.5,-90 204.5,-71 233.5,-71 233.5,-90"/>
<text text-anchor="middle" x="219" y="-78" font-family="Helvetica,sans-Serif" font-size="10.00">cli</text>
</a>
</g>
</g>
<!-- dir_5aacf5baaab43f58ec0f7691fd33c9e3&#45;&gt;dir_0669efae56692bb73da75efb5ebbccdf -->
<g id="edge1" class="edge">
<title>dir_5aacf5baaab43f58ec0f7691fd33c9e3&#45;&gt;dir_0669efae56692bb73da75efb5ebbccdf</title>
<path fill="none" stroke="#63b8ff" d="M204.38,-75.07C177.69,-66.99 120.27,-49.6 81.88,-37.97"/>
<polygon fill="#63b8ff" stroke="#63b8ff" points="82.67,-34.55 72.08,-35.01 80.64,-41.25 82.67,-34.55"/>
<g id="a_edge1&#45;headlabel"><a xlink:href="dir_000033_000082.html" target="_top" xlink:title="3">
<text text-anchor="middle" x="86.93" y="-30.38" font-family="Helvetica,sans-Serif" font-size="10.00" fill="#63b8ff">3</text>
</a>
</g>
</g>
<!-- dir_5aacf5baaab43f58ec0f7691fd33c9e3&#45;&gt;dir_30ecaf38acae77be14fb9173f98f8612 -->
<g id="edge2" class="edge">
<title>dir_5aacf5baaab43f58ec0f7691fd33c9e3&#45;&gt;dir_30ecaf38acae77be14fb9173f98f8612</title>
<path fill="none" stroke="#63b8ff" d="M204.12,-72.13C187.17,-63.73 159.13,-49.85 138.44,-39.6"/>
<polygon fill="#63b8ff" stroke="#63b8ff" points="139.74,-36.34 129.23,-35.03 136.64,-42.61 139.74,-36.34"/>
<g id="a_edge2&#45;headlabel"><a xlink:href="dir_000033_000180.html" target="_top" xlink:title="1">
<text text-anchor="middle" x="144.22" y="-32.89" font-family="Helvetica,sans-Serif" font-size="10.00" fill="#63b8ff">1</text>
</a>
</g>
</g>
<!-- dir_5aacf5baaab43f58ec0f7691fd33c9e3&#45;&gt;dir_521de572ae4fe2915cc70a876c52f5b7 -->
<g id="edge3" class="edge">
<title>dir_5aacf5baaab43f58ec0f7691fd33c9e3&#45;&gt;dir_521de572ae4fe2915cc70a876c52f5b7</title>
<path fill="none" stroke="#63b8ff" d="M213.06,-70.75C208.02,-63.34 200.66,-52.5 194.49,-43.41"/>
<polygon fill="#63b8ff" stroke="#63b8ff" points="197.35,-41.39 188.83,-35.09 191.56,-45.33 197.35,-41.39"/>
<g id="a_edge3&#45;headlabel"><a xlink:href="dir_000033_000046.html" target="_top" xlink:title="9">
<text text-anchor="middle" x="201.72" y="-40.27" font-family="Helvetica,sans-Serif" font-size="10.00" fill="#63b8ff">9</text>
</a>
</g>
</g>
<!-- dir_5aacf5baaab43f58ec0f7691fd33c9e3&#45;&gt;dir_942cfae36a92b6b1c4b510e99e852d40 -->
<g id="edge4" class="edge">
<title>dir_5aacf5baaab43f58ec0f7691fd33c9e3&#45;&gt;dir_942cfae36a92b6b1c4b510e99e852d40</title>
<path fill="none" stroke="#63b8ff" d="M224.94,-70.75C229.98,-63.34 237.34,-52.5 243.51,-43.41"/>
<polygon fill="#63b8ff" stroke="#63b8ff" points="246.44,-45.33 249.17,-35.09 240.65,-41.39 246.44,-45.33"/>
<g id="a_edge4&#45;headlabel"><a xlink:href="dir_000033_000189.html" target="_top" xlink:title="2">
<text text-anchor="middle" x="246.77" y="-47.4" font-family="Helvetica,sans-Serif" font-size="10.00" fill="#63b8ff">2</text>
</a>
</g>
</g>
<!-- dir_5aacf5baaab43f58ec0f7691fd33c9e3&#45;&gt;dir_c63ec87f2f7fd7fbd5b69a04f05a2815 -->
<g id="edge5" class="edge">
<title>dir_5aacf5baaab43f58ec0f7691fd33c9e3&#45;&gt;dir_c63ec87f2f7fd7fbd5b69a04f05a2815</title>
<path fill="none" stroke="#63b8ff" d="M233.9,-71.68C249.86,-63.3 275.48,-49.86 294.62,-39.82"/>
<polygon fill="#63b8ff" stroke="#63b8ff" points="296.47,-42.8 303.7,-35.06 293.21,-36.6 296.47,-42.8"/>
<g id="a_edge5&#45;headlabel"><a xlink:href="dir_000033_000133.html" target="_top" xlink:title="2">
<text text-anchor="middle" x="294.6" y="-44.49" font-family="Helvetica,sans-Serif" font-size="10.00" fill="#63b8ff">2</text>
</a>
</g>
</g>
<!-- dir_5aacf5baaab43f58ec0f7691fd33c9e3&#45;&gt;dir_f555f996eeee1ebe901dc71e0c5de8ff -->
<g id="edge6" class="edge">
<title>dir_5aacf5baaab43f58ec0f7691fd33c9e3&#45;&gt;dir_f555f996eeee1ebe901dc71e0c5de8ff</title>
<path fill="none" stroke="#63b8ff" d="M233.55,-74.8C260.02,-66.24 316.58,-47.96 352.03,-36.51"/>
<polygon fill="#63b8ff" stroke="#63b8ff" points="353.42,-39.74 361.86,-33.33 351.27,-33.08 353.42,-39.74"/>
<g id="a_edge6&#45;headlabel"><a xlink:href="dir_000033_000122.html" target="_top" xlink:title="2">
<text text-anchor="middle" x="350.87" y="-41.05" font-family="Helvetica,sans-Serif" font-size="10.00" fill="#63b8ff">2</text>
</a>
</g>
</g>
</g>
</svg>
