<?xml version="1.0" encoding="UTF-8" standalone="no"?>
<!DOCTYPE svg PUBLIC "-//W3C//DTD SVG 1.1//EN"
 "http://www.w3.org/Graphics/SVG/1.1/DTD/svg11.dtd">
<!-- Generated by graphviz version 2.43.0 (0)
 -->
<!-- Title: libs/di/include/di/container/linked Pages: 1 -->
<svg width="706pt" height="133pt"
 viewBox="0.00 0.00 705.50 133.00" xmlns="http://www.w3.org/2000/svg" xmlns:xlink="http://www.w3.org/1999/xlink">
<g id="graph0" class="graph" transform="scale(1 1) rotate(0) translate(4 129)">
<title>libs/di/include/di/container/linked</title>
<g id="clust1" class="cluster">
<title>clusterdir_521de572ae4fe2915cc70a876c52f5b7</title>
<g id="a_clust1"><a xlink:href="dir_521de572ae4fe2915cc70a876c52f5b7.html" target="_top" xlink:title="container">
<polygon fill="#edf0f7" stroke="#7f7f7f" stroke-dasharray="5,2" points="8,-8 8,-117 454,-117 454,-8 8,-8"/>
<text text-anchor="middle" x="231" y="-105" font-family="Helvetica,sans-Serif" font-size="10.00">container</text>
</a>
</g>
</g>
<!-- dir_093cb0cf41c3d9bb25543a4e1702223c -->
<g id="node1" class="node">
<title>dir_093cb0cf41c3d9bb25543a4e1702223c</title>
<g id="a_node1"><a xlink:href="dir_093cb0cf41c3d9bb25543a4e1702223c.html" target="_top" xlink:title="iterator">
<polygon fill="#a2b4d6" stroke="#404040" points="69.5,-35 16.5,-35 16.5,-16 69.5,-16 69.5,-35"/>
<text text-anchor="middle" x="43" y="-23" font-family="Helvetica,sans-Serif" font-size="10.00">iterator</text>
</a>
</g>
</g>
<!-- dir_60528a66b99dd07a1313b3c263e646ab -->
<g id="node2" class="node">
<title>dir_60528a66b99dd07a1313b3c263e646ab</title>
<g id="a_node2"><a xlink:href="dir_60528a66b99dd07a1313b3c263e646ab.html" target="_top" xlink:title="algorithm">
<polygon fill="#a2b4d6" stroke="#404040" points="152,-35 88,-35 88,-16 152,-16 152,-35"/>
<text text-anchor="middle" x="120" y="-23" font-family="Helvetica,sans-Serif" font-size="10.00">algorithm</text>
</a>
</g>
</g>
<!-- dir_75ced0d5626770d74ec0ab0f9ebe51e3 -->
<g id="node3" class="node">
<title>dir_75ced0d5626770d74ec0ab0f9ebe51e3</title>
<g id="a_node3"><a xlink:href="dir_75ced0d5626770d74ec0ab0f9ebe51e3.html" target="_top" xlink:title="allocator">
<polygon fill="#a2b4d6" stroke="#404040" points="229.5,-35 170.5,-35 170.5,-16 229.5,-16 229.5,-35"/>
<text text-anchor="middle" x="200" y="-23" font-family="Helvetica,sans-Serif" font-size="10.00">allocator</text>
</a>
</g>
</g>
<!-- dir_838362f34bc8d8c3545343b0166aa672 -->
<g id="node4" class="node">
<title>dir_838362f34bc8d8c3545343b0166aa672</title>
<g id="a_node4"><a xlink:href="dir_838362f34bc8d8c3545343b0166aa672.html" target="_top" xlink:title="concepts">
<polygon fill="#a2b4d6" stroke="#404040" points="308,-35 248,-35 248,-16 308,-16 308,-35"/>
<text text-anchor="middle" x="278" y="-23" font-family="Helvetica,sans-Serif" font-size="10.00">concepts</text>
</a>
</g>
</g>
<!-- dir_9f8d33513cfc97e5f9ea6bf2671e5446 -->
<g id="node5" class="node">
<title>dir_9f8d33513cfc97e5f9ea6bf2671e5446</title>
<g id="a_node5"><a xlink:href="dir_9f8d33513cfc97e5f9ea6bf2671e5446.html" target="_top" xlink:title="meta">
<polygon fill="#a2b4d6" stroke="#404040" points="368,-35 326,-35 326,-16 368,-16 368,-35"/>
<text text-anchor="middle" x="347" y="-23" font-family="Helvetica,sans-Serif" font-size="10.00">meta</text>
</a>
</g>
</g>
<!-- dir_c0fde34eb1aad6470b7c40f9528ecd51 -->
<g id="node6" class="node">
<title>dir_c0fde34eb1aad6470b7c40f9528ecd51</title>
<g id="a_node6"><a xlink:href="dir_c0fde34eb1aad6470b7c40f9528ecd51.html" target="_top" xlink:title="intrusive">
<polygon fill="#a2b4d6" stroke="#404040" points="445.5,-35 386.5,-35 386.5,-16 445.5,-16 445.5,-35"/>
<text text-anchor="middle" x="416" y="-23" font-family="Helvetica,sans-Serif" font-size="10.00">intrusive</text>
</a>
</g>
</g>
<!-- dir_b39e5f70542361740799687c73559dcd -->
<g id="node7" class="node">
<title>dir_b39e5f70542361740799687c73559dcd</title>
<g id="a_node7"><a xlink:href="dir_b39e5f70542361740799687c73559dcd.html" target="_top" xlink:title="linked">
<polygon fill="#edf0f7" stroke="#404040" stroke-width="2" points="404,-90 358,-90 358,-71 404,-71 404,-90"/>
<text text-anchor="middle" x="381" y="-78" font-family="Helvetica,sans-Serif" font-size="10.00">linked</text>
</a>
</g>
</g>
<!-- dir_b39e5f70542361740799687c73559dcd&#45;&gt;dir_093cb0cf41c3d9bb25543a4e1702223c -->
<g id="edge1" class="edge">
<title>dir_b39e5f70542361740799687c73559dcd&#45;&gt;dir_093cb0cf41c3d9bb25543a4e1702223c</title>
<path fill="none" stroke="#63b8ff" d="M357.77,-76.77C308.47,-70.82 189.56,-55.69 79.61,-34.96"/>
<polygon fill="#63b8ff" stroke="#63b8ff" points="80.16,-31.5 69.68,-33.07 78.85,-38.38 80.16,-31.5"/>
<g id="a_edge1&#45;headlabel"><a xlink:href="dir_000110_000108.html" target="_top" xlink:title="1">
<text text-anchor="middle" x="84.22" y="-26.89" font-family="Helvetica,sans-Serif" font-size="10.00" fill="#63b8ff">1</text>
</a>
</g>
</g>
<!-- dir_b39e5f70542361740799687c73559dcd&#45;&gt;dir_60528a66b99dd07a1313b3c263e646ab -->
<g id="edge3" class="edge">
<title>dir_b39e5f70542361740799687c73559dcd&#45;&gt;dir_60528a66b99dd07a1313b3c263e646ab</title>
<path fill="none" stroke="#63b8ff" d="M357.84,-74.8C313.91,-65.88 217.93,-46.39 162.26,-35.08"/>
<polygon fill="#63b8ff" stroke="#63b8ff" points="162.85,-31.63 152.35,-33.07 161.46,-38.49 162.85,-31.63"/>
<g id="a_edge3&#45;headlabel"><a xlink:href="dir_000110_000003.html" target="_top" xlink:title="2">
<text text-anchor="middle" x="166.94" y="-27.06" font-family="Helvetica,sans-Serif" font-size="10.00" fill="#63b8ff">2</text>
</a>
</g>
</g>
<!-- dir_b39e5f70542361740799687c73559dcd&#45;&gt;dir_75ced0d5626770d74ec0ab0f9ebe51e3 -->
<g id="edge5" class="edge">
<title>dir_b39e5f70542361740799687c73559dcd&#45;&gt;dir_75ced0d5626770d74ec0ab0f9ebe51e3</title>
<path fill="none" stroke="#63b8ff" d="M357.71,-72.68C327.69,-63.89 275.06,-48.48 238.91,-37.89"/>
<polygon fill="#63b8ff" stroke="#63b8ff" points="239.77,-34.5 229.19,-35.05 237.8,-41.22 239.77,-34.5"/>
<g id="a_edge5&#45;headlabel"><a xlink:href="dir_000110_000005.html" target="_top" xlink:title="5">
<text text-anchor="middle" x="244.02" y="-30.28" font-family="Helvetica,sans-Serif" font-size="10.00" fill="#63b8ff">5</text>
</a>
</g>
</g>
<!-- dir_b39e5f70542361740799687c73559dcd&#45;&gt;dir_838362f34bc8d8c3545343b0166aa672 -->
<g id="edge6" class="edge">
<title>dir_b39e5f70542361740799687c73559dcd&#45;&gt;dir_838362f34bc8d8c3545343b0166aa672</title>
<path fill="none" stroke="#63b8ff" d="M364.45,-70.98C348.11,-62.57 322.87,-49.59 303.87,-39.81"/>
<polygon fill="#63b8ff" stroke="#63b8ff" points="305.34,-36.63 294.85,-35.17 302.14,-42.86 305.34,-36.63"/>
<g id="a_edge6&#45;headlabel"><a xlink:href="dir_000110_000037.html" target="_top" xlink:title="1">
<text text-anchor="middle" x="309.84" y="-33.25" font-family="Helvetica,sans-Serif" font-size="10.00" fill="#63b8ff">1</text>
</a>
</g>
</g>
<!-- dir_b39e5f70542361740799687c73559dcd&#45;&gt;dir_9f8d33513cfc97e5f9ea6bf2671e5446 -->
<g id="edge8" class="edge">
<title>dir_b39e5f70542361740799687c73559dcd&#45;&gt;dir_9f8d33513cfc97e5f9ea6bf2671e5446</title>
<path fill="none" stroke="#63b8ff" d="M375.39,-70.75C370.68,-63.42 363.83,-52.73 358.03,-43.7"/>
<polygon fill="#63b8ff" stroke="#63b8ff" points="360.86,-41.62 352.51,-35.09 354.96,-45.4 360.86,-41.62"/>
<g id="a_edge8&#45;headlabel"><a xlink:href="dir_000110_000120.html" target="_top" xlink:title="1">
<text text-anchor="middle" x="365.19" y="-40.61" font-family="Helvetica,sans-Serif" font-size="10.00" fill="#63b8ff">1</text>
</a>
</g>
</g>
<!-- dir_b39e5f70542361740799687c73559dcd&#45;&gt;dir_c0fde34eb1aad6470b7c40f9528ecd51 -->
<g id="edge10" class="edge">
<title>dir_b39e5f70542361740799687c73559dcd&#45;&gt;dir_c0fde34eb1aad6470b7c40f9528ecd51</title>
<path fill="none" stroke="#63b8ff" d="M386.78,-70.75C391.62,-63.42 398.68,-52.73 404.64,-43.7"/>
<polygon fill="#63b8ff" stroke="#63b8ff" points="407.74,-45.36 410.33,-35.09 401.9,-41.5 407.74,-45.36"/>
<g id="a_edge10&#45;headlabel"><a xlink:href="dir_000110_000098.html" target="_top" xlink:title="1">
<text text-anchor="middle" x="408.13" y="-47.43" font-family="Helvetica,sans-Serif" font-size="10.00" fill="#63b8ff">1</text>
</a>
</g>
</g>
<!-- dir_4535887b2cdca47e625f259d07db0112 -->
<g id="node8" class="node">
<title>dir_4535887b2cdca47e625f259d07db0112</title>
<g id="a_node8"><a xlink:href="dir_4535887b2cdca47e625f259d07db0112.html" target="_top" xlink:title="util">
<polygon fill="#edf0f7" stroke="#7f7f7f" points="496,-35 464,-35 464,-16 496,-16 496,-35"/>
<text text-anchor="middle" x="480" y="-23" font-family="Helvetica,sans-Serif" font-size="10.00">util</text>
</a>
</g>
</g>
<!-- dir_b39e5f70542361740799687c73559dcd&#45;&gt;dir_4535887b2cdca47e625f259d07db0112 -->
<g id="edge2" class="edge">
<title>dir_b39e5f70542361740799687c73559dcd&#45;&gt;dir_4535887b2cdca47e625f259d07db0112</title>
<path fill="none" stroke="#63b8ff" d="M396.91,-70.98C412.55,-62.61 436.66,-49.7 454.88,-39.95"/>
<polygon fill="#63b8ff" stroke="#63b8ff" points="456.64,-42.98 463.8,-35.17 453.34,-36.8 456.64,-42.98"/>
<g id="a_edge2&#45;headlabel"><a xlink:href="dir_000110_000185.html" target="_top" xlink:title="2">
<text text-anchor="middle" x="454.81" y="-44.68" font-family="Helvetica,sans-Serif" font-size="10.00" fill="#63b8ff">2</text>
</a>
</g>
</g>
<!-- dir_60d1624911c2c9f7b6f38e44ec895aaa -->
<g id="node9" class="node">
<title>dir_60d1624911c2c9f7b6f38e44ec895aaa</title>
<g id="a_node9"><a xlink:href="dir_60d1624911c2c9f7b6f38e44ec895aaa.html" target="_top" xlink:title="math">
<polygon fill="#edf0f7" stroke="red" stroke-dasharray="5,2" points="556,-35 514,-35 514,-16 556,-16 556,-35"/>
<text text-anchor="middle" x="535" y="-23" font-family="Helvetica,sans-Serif" font-size="10.00">math</text>
</a>
</g>
</g>
<!-- dir_b39e5f70542361740799687c73559dcd&#45;&gt;dir_60d1624911c2c9f7b6f38e44ec895aaa -->
<g id="edge4" class="edge">
<title>dir_b39e5f70542361740799687c73559dcd&#45;&gt;dir_60d1624911c2c9f7b6f38e44ec895aaa</title>
<path fill="none" stroke="#63b8ff" d="M404.06,-71.57C430.63,-62.42 474.42,-47.35 503.97,-37.18"/>
<polygon fill="#63b8ff" stroke="#63b8ff" points="505.46,-40.37 513.77,-33.81 503.18,-33.75 505.46,-40.37"/>
<g id="a_edge4&#45;headlabel"><a xlink:href="dir_000110_000117.html" target="_top" xlink:title="1">
<text text-anchor="middle" x="502.98" y="-41.72" font-family="Helvetica,sans-Serif" font-size="10.00" fill="#63b8ff">1</text>
</a>
</g>
</g>
<!-- dir_942cfae36a92b6b1c4b510e99e852d40 -->
<g id="node10" class="node">
<title>dir_942cfae36a92b6b1c4b510e99e852d40</title>
<g id="a_node10"><a xlink:href="dir_942cfae36a92b6b1c4b510e99e852d40.html" target="_top" xlink:title="vocab">
<polygon fill="#edf0f7" stroke="red" stroke-dasharray="5,2" points="620,-35 574,-35 574,-16 620,-16 620,-35"/>
<text text-anchor="middle" x="597" y="-23" font-family="Helvetica,sans-Serif" font-size="10.00">vocab</text>
</a>
</g>
</g>
<!-- dir_b39e5f70542361740799687c73559dcd&#45;&gt;dir_942cfae36a92b6b1c4b510e99e852d40 -->
<g id="edge7" class="edge">
<title>dir_b39e5f70542361740799687c73559dcd&#45;&gt;dir_942cfae36a92b6b1c4b510e99e852d40</title>
<path fill="none" stroke="#63b8ff" d="M404.28,-74.05C437.53,-66.22 500.77,-51.19 564.18,-35.17"/>
<polygon fill="#63b8ff" stroke="#63b8ff" points="565.11,-38.54 573.94,-32.69 563.39,-31.75 565.11,-38.54"/>
<g id="a_edge7&#45;headlabel"><a xlink:href="dir_000110_000189.html" target="_top" xlink:title="2">
<text text-anchor="middle" x="562.32" y="-39.68" font-family="Helvetica,sans-Serif" font-size="10.00" fill="#63b8ff">2</text>
</a>
</g>
</g>
<!-- dir_aaf67126bd5deefc4d96704f76f22cc2 -->
<g id="node11" class="node">
<title>dir_aaf67126bd5deefc4d96704f76f22cc2</title>
<g id="a_node11"><a xlink:href="dir_aaf67126bd5deefc4d96704f76f22cc2.html" target="_top" xlink:title="platform">
<polygon fill="#edf0f7" stroke="#7f7f7f" points="697.5,-35 638.5,-35 638.5,-16 697.5,-16 697.5,-35"/>
<text text-anchor="middle" x="668" y="-23" font-family="Helvetica,sans-Serif" font-size="10.00">platform</text>
</a>
</g>
</g>
<!-- dir_b39e5f70542361740799687c73559dcd&#45;&gt;dir_aaf67126bd5deefc4d96704f76f22cc2 -->
<g id="edge9" class="edge">
<title>dir_b39e5f70542361740799687c73559dcd&#45;&gt;dir_aaf67126bd5deefc4d96704f76f22cc2</title>
<path fill="none" stroke="#63b8ff" d="M404.3,-75.61C446.72,-68.48 539.59,-52.57 628.26,-35.08"/>
<polygon fill="#63b8ff" stroke="#63b8ff" points="629.08,-38.49 638.21,-33.11 627.72,-31.62 629.08,-38.49"/>
<g id="a_edge9&#45;headlabel"><a xlink:href="dir_000110_000135.html" target="_top" xlink:title="1">
<text text-anchor="middle" x="626.11" y="-39.47" font-family="Helvetica,sans-Serif" font-size="10.00" fill="#63b8ff">1</text>
</a>
</g>
</g>
</g>
</svg>
