<?xml version="1.0" encoding="UTF-8" standalone="no"?>
<!DOCTYPE svg PUBLIC "-//W3C//DTD SVG 1.1//EN"
 "http://www.w3.org/Graphics/SVG/1.1/DTD/svg11.dtd">
<!-- Generated by graphviz version 2.43.0 (0)
 -->
<!-- Title: libs/di/include/di/vocab/pointer Pages: 1 -->
<svg width="670pt" height="133pt"
 viewBox="0.00 0.00 670.00 133.00" xmlns="http://www.w3.org/2000/svg" xmlns:xlink="http://www.w3.org/1999/xlink">
<g id="graph0" class="graph" transform="scale(1 1) rotate(0) translate(4 129)">
<title>libs/di/include/di/vocab/pointer</title>
<g id="clust1" class="cluster">
<title>clusterdir_942cfae36a92b6b1c4b510e99e852d40</title>
<g id="a_clust1"><a xlink:href="dir_942cfae36a92b6b1c4b510e99e852d40.html" target="_top" xlink:title="vocab">
<polygon fill="#edf0f7" stroke="#7f7f7f" stroke-dasharray="5,2" points="8,-8 8,-117 144,-117 144,-8 8,-8"/>
<text text-anchor="middle" x="76" y="-105" font-family="Helvetica,sans-Serif" font-size="10.00">vocab</text>
</a>
</g>
</g>
<!-- dir_371ea777e73685379f49c81b97537e91 -->
<g id="node1" class="node">
<title>dir_371ea777e73685379f49c81b97537e91</title>
<g id="a_node1"><a xlink:href="dir_371ea777e73685379f49c81b97537e91.html" target="_top" xlink:title="expected">
<polygon fill="#a2b4d6" stroke="#404040" points="78,-35 16,-35 16,-16 78,-16 78,-35"/>
<text text-anchor="middle" x="47" y="-23" font-family="Helvetica,sans-Serif" font-size="10.00">expected</text>
</a>
</g>
</g>
<!-- dir_b143cd2a0fb99c8539a61acbcf4ec7c9 -->
<g id="node2" class="node">
<title>dir_b143cd2a0fb99c8539a61acbcf4ec7c9</title>
<g id="a_node2"><a xlink:href="dir_b143cd2a0fb99c8539a61acbcf4ec7c9.html" target="_top" xlink:title="error">
<polygon fill="#a2b4d6" stroke="red" points="136,-35 96,-35 96,-16 136,-16 136,-35"/>
<text text-anchor="middle" x="116" y="-23" font-family="Helvetica,sans-Serif" font-size="10.00">error</text>
</a>
</g>
</g>
<!-- dir_fd5fe5e204e739a96c14f20b18464965 -->
<g id="node3" class="node">
<title>dir_fd5fe5e204e739a96c14f20b18464965</title>
<g id="a_node3"><a xlink:href="dir_fd5fe5e204e739a96c14f20b18464965.html" target="_top" xlink:title="pointer">
<polygon fill="#edf0f7" stroke="#404040" stroke-width="2" points="135.5,-90 84.5,-90 84.5,-71 135.5,-71 135.5,-90"/>
<text text-anchor="middle" x="110" y="-78" font-family="Helvetica,sans-Serif" font-size="10.00">pointer</text>
</a>
</g>
</g>
<!-- dir_fd5fe5e204e739a96c14f20b18464965&#45;&gt;dir_371ea777e73685379f49c81b97537e91 -->
<g id="edge3" class="edge">
<title>dir_fd5fe5e204e739a96c14f20b18464965&#45;&gt;dir_371ea777e73685379f49c81b97537e91</title>
<path fill="none" stroke="#63b8ff" d="M99.88,-70.98C90.56,-63.15 76.53,-51.34 65.26,-41.86"/>
<polygon fill="#63b8ff" stroke="#63b8ff" points="67.21,-38.93 57.31,-35.17 62.71,-44.29 67.21,-38.93"/>
<g id="a_edge3&#45;headlabel"><a xlink:href="dir_000136_000073.html" target="_top" xlink:title="7">
<text text-anchor="middle" x="71.79" y="-36.57" font-family="Helvetica,sans-Serif" font-size="10.00" fill="#63b8ff">7</text>
</a>
</g>
</g>
<!-- dir_fd5fe5e204e739a96c14f20b18464965&#45;&gt;dir_b143cd2a0fb99c8539a61acbcf4ec7c9 -->
<g id="edge9" class="edge">
<title>dir_fd5fe5e204e739a96c14f20b18464965&#45;&gt;dir_b143cd2a0fb99c8539a61acbcf4ec7c9</title>
<path fill="none" stroke="#63b8ff" d="M110.99,-70.75C111.78,-63.8 112.9,-53.85 113.89,-45.13"/>
<polygon fill="#63b8ff" stroke="#63b8ff" points="117.38,-45.42 115.03,-35.09 110.42,-44.63 117.38,-45.42"/>
<g id="a_edge9&#45;headlabel"><a xlink:href="dir_000136_000070.html" target="_top" xlink:title="3">
<text text-anchor="middle" x="119.8" y="-46.81" font-family="Helvetica,sans-Serif" font-size="10.00" fill="#63b8ff">3</text>
</a>
</g>
</g>
<!-- dir_0669efae56692bb73da75efb5ebbccdf -->
<g id="node4" class="node">
<title>dir_0669efae56692bb73da75efb5ebbccdf</title>
<g id="a_node4"><a xlink:href="dir_0669efae56692bb73da75efb5ebbccdf.html" target="_top" xlink:title="function">
<polygon fill="#edf0f7" stroke="red" stroke-dasharray="5,2" points="210,-35 154,-35 154,-16 210,-16 210,-35"/>
<text text-anchor="middle" x="182" y="-23" font-family="Helvetica,sans-Serif" font-size="10.00">function</text>
</a>
</g>
</g>
<!-- dir_fd5fe5e204e739a96c14f20b18464965&#45;&gt;dir_0669efae56692bb73da75efb5ebbccdf -->
<g id="edge1" class="edge">
<title>dir_fd5fe5e204e739a96c14f20b18464965&#45;&gt;dir_0669efae56692bb73da75efb5ebbccdf</title>
<path fill="none" stroke="#63b8ff" d="M121.57,-70.98C132.42,-63 148.88,-50.88 161.88,-41.31"/>
<polygon fill="#63b8ff" stroke="#63b8ff" points="164.24,-43.92 170.22,-35.17 160.09,-38.28 164.24,-43.92"/>
<g id="a_edge1&#45;headlabel"><a xlink:href="dir_000136_000082.html" target="_top" xlink:title="1">
<text text-anchor="middle" x="163.03" y="-45.83" font-family="Helvetica,sans-Serif" font-size="10.00" fill="#63b8ff">1</text>
</a>
</g>
</g>
<!-- dir_30ecaf38acae77be14fb9173f98f8612 -->
<g id="node5" class="node">
<title>dir_30ecaf38acae77be14fb9173f98f8612</title>
<g id="a_node5"><a xlink:href="dir_30ecaf38acae77be14fb9173f98f8612.html" target="_top" xlink:title="types">
<polygon fill="#edf0f7" stroke="#7f7f7f" points="272,-35 228,-35 228,-16 272,-16 272,-35"/>
<text text-anchor="middle" x="250" y="-23" font-family="Helvetica,sans-Serif" font-size="10.00">types</text>
</a>
</g>
</g>
<!-- dir_fd5fe5e204e739a96c14f20b18464965&#45;&gt;dir_30ecaf38acae77be14fb9173f98f8612 -->
<g id="edge2" class="edge">
<title>dir_fd5fe5e204e739a96c14f20b18464965&#45;&gt;dir_30ecaf38acae77be14fb9173f98f8612</title>
<path fill="none" stroke="#63b8ff" d="M132.49,-70.98C155.66,-62.21 191.97,-48.47 218.1,-38.58"/>
<polygon fill="#63b8ff" stroke="#63b8ff" points="219.45,-41.81 227.56,-34.99 216.97,-35.26 219.45,-41.81"/>
<g id="a_edge2&#45;headlabel"><a xlink:href="dir_000136_000180.html" target="_top" xlink:title="3">
<text text-anchor="middle" x="217.09" y="-43.24" font-family="Helvetica,sans-Serif" font-size="10.00" fill="#63b8ff">3</text>
</a>
</g>
</g>
<!-- dir_4535887b2cdca47e625f259d07db0112 -->
<g id="node6" class="node">
<title>dir_4535887b2cdca47e625f259d07db0112</title>
<g id="a_node6"><a xlink:href="dir_4535887b2cdca47e625f259d07db0112.html" target="_top" xlink:title="util">
<polygon fill="#edf0f7" stroke="#7f7f7f" points="322,-35 290,-35 290,-16 322,-16 322,-35"/>
<text text-anchor="middle" x="306" y="-23" font-family="Helvetica,sans-Serif" font-size="10.00">util</text>
</a>
</g>
</g>
<!-- dir_fd5fe5e204e739a96c14f20b18464965&#45;&gt;dir_4535887b2cdca47e625f259d07db0112 -->
<g id="edge4" class="edge">
<title>dir_fd5fe5e204e739a96c14f20b18464965&#45;&gt;dir_4535887b2cdca47e625f259d07db0112</title>
<path fill="none" stroke="#63b8ff" d="M135.66,-73.44C167.41,-65.82 223.32,-51.95 280.07,-35.11"/>
<polygon fill="#63b8ff" stroke="#63b8ff" points="281.34,-38.38 289.92,-32.16 279.33,-31.68 281.34,-38.38"/>
<g id="a_edge4&#45;headlabel"><a xlink:href="dir_000136_000185.html" target="_top" xlink:title="7">
<text text-anchor="middle" x="278.71" y="-39.63" font-family="Helvetica,sans-Serif" font-size="10.00" fill="#63b8ff">7</text>
</a>
</g>
</g>
<!-- dir_521de572ae4fe2915cc70a876c52f5b7 -->
<g id="node7" class="node">
<title>dir_521de572ae4fe2915cc70a876c52f5b7</title>
<g id="a_node7"><a xlink:href="dir_521de572ae4fe2915cc70a876c52f5b7.html" target="_top" xlink:title="container">
<polygon fill="#edf0f7" stroke="red" stroke-dasharray="5,2" points="402,-35 340,-35 340,-16 402,-16 402,-35"/>
<text text-anchor="middle" x="371" y="-23" font-family="Helvetica,sans-Serif" font-size="10.00">container</text>
</a>
</g>
</g>
<!-- dir_fd5fe5e204e739a96c14f20b18464965&#45;&gt;dir_521de572ae4fe2915cc70a876c52f5b7 -->
<g id="edge5" class="edge">
<title>dir_fd5fe5e204e739a96c14f20b18464965&#45;&gt;dir_521de572ae4fe2915cc70a876c52f5b7</title>
<path fill="none" stroke="#63b8ff" d="M135.54,-74.45C175.02,-66.62 253.5,-50.98 330.17,-35.15"/>
<polygon fill="#63b8ff" stroke="#63b8ff" points="330.91,-38.57 340,-33.12 329.5,-31.72 330.91,-38.57"/>
<g id="a_edge5&#45;headlabel"><a xlink:href="dir_000136_000046.html" target="_top" xlink:title="9">
<text text-anchor="middle" x="327.97" y="-39.58" font-family="Helvetica,sans-Serif" font-size="10.00" fill="#63b8ff">9</text>
</a>
</g>
</g>
<!-- dir_9bfc08b7c5b17d043ebb5b9fbb866539 -->
<g id="node8" class="node">
<title>dir_9bfc08b7c5b17d043ebb5b9fbb866539</title>
<g id="a_node8"><a xlink:href="dir_9bfc08b7c5b17d043ebb5b9fbb866539.html" target="_top" xlink:title="sync">
<polygon fill="#edf0f7" stroke="red" stroke-dasharray="5,2" points="459.5,-35 420.5,-35 420.5,-16 459.5,-16 459.5,-35"/>
<text text-anchor="middle" x="440" y="-23" font-family="Helvetica,sans-Serif" font-size="10.00">sync</text>
</a>
</g>
</g>
<!-- dir_fd5fe5e204e739a96c14f20b18464965&#45;&gt;dir_9bfc08b7c5b17d043ebb5b9fbb866539 -->
<g id="edge6" class="edge">
<title>dir_fd5fe5e204e739a96c14f20b18464965&#45;&gt;dir_9bfc08b7c5b17d043ebb5b9fbb866539</title>
<path fill="none" stroke="#63b8ff" d="M135.59,-76.93C186.2,-71.58 302.78,-57.99 410.39,-34.83"/>
<polygon fill="#63b8ff" stroke="#63b8ff" points="411.42,-38.19 420.44,-32.63 409.92,-31.35 411.42,-38.19"/>
<g id="a_edge6&#45;headlabel"><a xlink:href="dir_000136_000162.html" target="_top" xlink:title="1">
<text text-anchor="middle" x="408.51" y="-39.23" font-family="Helvetica,sans-Serif" font-size="10.00" fill="#63b8ff">1</text>
</a>
</g>
</g>
<!-- dir_a60d4453151dca6bdd8e5fcc350e379b -->
<g id="node9" class="node">
<title>dir_a60d4453151dca6bdd8e5fcc350e379b</title>
<g id="a_node9"><a xlink:href="dir_a60d4453151dca6bdd8e5fcc350e379b.html" target="_top" xlink:title="assert">
<polygon fill="#edf0f7" stroke="#7f7f7f" points="524.5,-35 477.5,-35 477.5,-16 524.5,-16 524.5,-35"/>
<text text-anchor="middle" x="501" y="-23" font-family="Helvetica,sans-Serif" font-size="10.00">assert</text>
</a>
</g>
</g>
<!-- dir_fd5fe5e204e739a96c14f20b18464965&#45;&gt;dir_a60d4453151dca6bdd8e5fcc350e379b -->
<g id="edge7" class="edge">
<title>dir_fd5fe5e204e739a96c14f20b18464965&#45;&gt;dir_a60d4453151dca6bdd8e5fcc350e379b</title>
<path fill="none" stroke="#63b8ff" d="M135.87,-77.51C193.68,-72.81 337.81,-59.66 467.23,-35.12"/>
<polygon fill="#63b8ff" stroke="#63b8ff" points="468.16,-38.5 477.32,-33.18 466.84,-31.63 468.16,-38.5"/>
<g id="a_edge7&#45;headlabel"><a xlink:href="dir_000136_000018.html" target="_top" xlink:title="3">
<text text-anchor="middle" x="465.17" y="-39.47" font-family="Helvetica,sans-Serif" font-size="10.00" fill="#63b8ff">3</text>
</a>
</g>
</g>
<!-- dir_aaf67126bd5deefc4d96704f76f22cc2 -->
<g id="node10" class="node">
<title>dir_aaf67126bd5deefc4d96704f76f22cc2</title>
<g id="a_node10"><a xlink:href="dir_aaf67126bd5deefc4d96704f76f22cc2.html" target="_top" xlink:title="platform">
<polygon fill="#edf0f7" stroke="#7f7f7f" points="601.5,-35 542.5,-35 542.5,-16 601.5,-16 601.5,-35"/>
<text text-anchor="middle" x="572" y="-23" font-family="Helvetica,sans-Serif" font-size="10.00">platform</text>
</a>
</g>
</g>
<!-- dir_fd5fe5e204e739a96c14f20b18464965&#45;&gt;dir_aaf67126bd5deefc4d96704f76f22cc2 -->
<g id="edge8" class="edge">
<title>dir_fd5fe5e204e739a96c14f20b18464965&#45;&gt;dir_aaf67126bd5deefc4d96704f76f22cc2</title>
<path fill="none" stroke="#63b8ff" d="M135.95,-77.82C201.02,-73.4 376.5,-60.11 531.98,-35.17"/>
<polygon fill="#63b8ff" stroke="#63b8ff" points="532.88,-38.57 542.19,-33.51 531.76,-31.66 532.88,-38.57"/>
<g id="a_edge8&#45;headlabel"><a xlink:href="dir_000136_000135.html" target="_top" xlink:title="2">
<text text-anchor="middle" x="529.79" y="-39.45" font-family="Helvetica,sans-Serif" font-size="10.00" fill="#63b8ff">2</text>
</a>
</g>
</g>
<!-- dir_f555f996eeee1ebe901dc71e0c5de8ff -->
<g id="node11" class="node">
<title>dir_f555f996eeee1ebe901dc71e0c5de8ff</title>
<g id="a_node11"><a xlink:href="dir_f555f996eeee1ebe901dc71e0c5de8ff.html" target="_top" xlink:title="meta">
<polygon fill="#edf0f7" stroke="#7f7f7f" points="662,-35 620,-35 620,-16 662,-16 662,-35"/>
<text text-anchor="middle" x="641" y="-23" font-family="Helvetica,sans-Serif" font-size="10.00">meta</text>
</a>
</g>
</g>
<!-- dir_fd5fe5e204e739a96c14f20b18464965&#45;&gt;dir_f555f996eeee1ebe901dc71e0c5de8ff -->
<g id="edge10" class="edge">
<title>dir_fd5fe5e204e739a96c14f20b18464965&#45;&gt;dir_f555f996eeee1ebe901dc71e0c5de8ff</title>
<path fill="none" stroke="#63b8ff" d="M135.51,-78.92C208.29,-76.91 423.15,-68.52 609.82,-34.87"/>
<polygon fill="#63b8ff" stroke="#63b8ff" points="610.61,-38.28 619.81,-33.03 609.34,-31.39 610.61,-38.28"/>
<g id="a_edge10&#45;headlabel"><a xlink:href="dir_000136_000122.html" target="_top" xlink:title="1">
<text text-anchor="middle" x="607.58" y="-39.22" font-family="Helvetica,sans-Serif" font-size="10.00" fill="#63b8ff">1</text>
</a>
</g>
</g>
</g>
</svg>
