<?xml version="1.0" encoding="UTF-8" standalone="no"?>
<!DOCTYPE svg PUBLIC "-//W3C//DTD SVG 1.1//EN"
 "http://www.w3.org/Graphics/SVG/1.1/DTD/svg11.dtd">
<!-- Generated by graphviz version 2.43.0 (0)
 -->
<!-- Title: libs/di/include/di/container/intrusive Pages: 1 -->
<svg width="664pt" height="133pt"
 viewBox="0.00 0.00 664.00 133.00" xmlns="http://www.w3.org/2000/svg" xmlns:xlink="http://www.w3.org/1999/xlink">
<g id="graph0" class="graph" transform="scale(1 1) rotate(0) translate(4 129)">
<title>libs/di/include/di/container/intrusive</title>
<g id="clust1" class="cluster">
<title>clusterdir_521de572ae4fe2915cc70a876c52f5b7</title>
<g id="a_clust1"><a xlink:href="dir_521de572ae4fe2915cc70a876c52f5b7.html" target="_top" xlink:title="container">
<polygon fill="#edf0f7" stroke="#7f7f7f" stroke-dasharray="5,2" points="8,-8 8,-117 428,-117 428,-8 8,-8"/>
<text text-anchor="middle" x="218" y="-105" font-family="Helvetica,sans-Serif" font-size="10.00">container</text>
</a>
</g>
</g>
<!-- dir_093cb0cf41c3d9bb25543a4e1702223c -->
<g id="node1" class="node">
<title>dir_093cb0cf41c3d9bb25543a4e1702223c</title>
<g id="a_node1"><a xlink:href="dir_093cb0cf41c3d9bb25543a4e1702223c.html" target="_top" xlink:title="iterator">
<polygon fill="#a2b4d6" stroke="#404040" points="69.5,-35 16.5,-35 16.5,-16 69.5,-16 69.5,-35"/>
<text text-anchor="middle" x="43" y="-23" font-family="Helvetica,sans-Serif" font-size="10.00">iterator</text>
</a>
</g>
</g>
<!-- dir_289c3fc9695217b968c29372e2a5940c -->
<g id="node2" class="node">
<title>dir_289c3fc9695217b968c29372e2a5940c</title>
<g id="a_node2"><a xlink:href="dir_289c3fc9695217b968c29372e2a5940c.html" target="_top" xlink:title="hash">
<polygon fill="#a2b4d6" stroke="red" points="128,-35 88,-35 88,-16 128,-16 128,-35"/>
<text text-anchor="middle" x="108" y="-23" font-family="Helvetica,sans-Serif" font-size="10.00">hash</text>
</a>
</g>
</g>
<!-- dir_60528a66b99dd07a1313b3c263e646ab -->
<g id="node3" class="node">
<title>dir_60528a66b99dd07a1313b3c263e646ab</title>
<g id="a_node3"><a xlink:href="dir_60528a66b99dd07a1313b3c263e646ab.html" target="_top" xlink:title="algorithm">
<polygon fill="#a2b4d6" stroke="#404040" points="210,-35 146,-35 146,-16 210,-16 210,-35"/>
<text text-anchor="middle" x="178" y="-23" font-family="Helvetica,sans-Serif" font-size="10.00">algorithm</text>
</a>
</g>
</g>
<!-- dir_8ac75f3e92965d7b87f5a77c8eb4a6b1 -->
<g id="node4" class="node">
<title>dir_8ac75f3e92965d7b87f5a77c8eb4a6b1</title>
<g id="a_node4"><a xlink:href="dir_8ac75f3e92965d7b87f5a77c8eb4a6b1.html" target="_top" xlink:title="associative">
<polygon fill="#a2b4d6" stroke="#404040" points="300,-35 228,-35 228,-16 300,-16 300,-35"/>
<text text-anchor="middle" x="264" y="-23" font-family="Helvetica,sans-Serif" font-size="10.00">associative</text>
</a>
</g>
</g>
<!-- dir_8aea3e2ac587a42c656c5e8806b5497a -->
<g id="node5" class="node">
<title>dir_8aea3e2ac587a42c656c5e8806b5497a</title>
<g id="a_node5"><a xlink:href="dir_8aea3e2ac587a42c656c5e8806b5497a.html" target="_top" xlink:title="tree">
<polygon fill="#a2b4d6" stroke="#404040" points="354,-35 318,-35 318,-16 354,-16 354,-35"/>
<text text-anchor="middle" x="336" y="-23" font-family="Helvetica,sans-Serif" font-size="10.00">tree</text>
</a>
</g>
</g>
<!-- dir_f1a41f0d4848adc979771c8b39d6dd9b -->
<g id="node6" class="node">
<title>dir_f1a41f0d4848adc979771c8b39d6dd9b</title>
<g id="a_node6"><a xlink:href="dir_f1a41f0d4848adc979771c8b39d6dd9b.html" target="_top" xlink:title="vector">
<polygon fill="#a2b4d6" stroke="#404040" points="419.5,-35 372.5,-35 372.5,-16 419.5,-16 419.5,-35"/>
<text text-anchor="middle" x="396" y="-23" font-family="Helvetica,sans-Serif" font-size="10.00">vector</text>
</a>
</g>
</g>
<!-- dir_c0fde34eb1aad6470b7c40f9528ecd51 -->
<g id="node7" class="node">
<title>dir_c0fde34eb1aad6470b7c40f9528ecd51</title>
<g id="a_node7"><a xlink:href="dir_c0fde34eb1aad6470b7c40f9528ecd51.html" target="_top" xlink:title="intrusive">
<polygon fill="#edf0f7" stroke="#404040" stroke-width="2" points="392.5,-90 333.5,-90 333.5,-71 392.5,-71 392.5,-90"/>
<text text-anchor="middle" x="363" y="-78" font-family="Helvetica,sans-Serif" font-size="10.00">intrusive</text>
</a>
</g>
</g>
<!-- dir_c0fde34eb1aad6470b7c40f9528ecd51&#45;&gt;dir_093cb0cf41c3d9bb25543a4e1702223c -->
<g id="edge1" class="edge">
<title>dir_c0fde34eb1aad6470b7c40f9528ecd51&#45;&gt;dir_093cb0cf41c3d9bb25543a4e1702223c</title>
<path fill="none" stroke="#63b8ff" d="M333.43,-75.63C283.33,-68.9 178.37,-54.1 79.54,-34.97"/>
<polygon fill="#63b8ff" stroke="#63b8ff" points="80.17,-31.52 69.69,-33.04 78.83,-38.39 80.17,-31.52"/>
<g id="a_edge1&#45;headlabel"><a xlink:href="dir_000098_000108.html" target="_top" xlink:title="4">
<text text-anchor="middle" x="84.25" y="-26.93" font-family="Helvetica,sans-Serif" font-size="10.00" fill="#63b8ff">4</text>
</a>
</g>
</g>
<!-- dir_c0fde34eb1aad6470b7c40f9528ecd51&#45;&gt;dir_289c3fc9695217b968c29372e2a5940c -->
<g id="edge2" class="edge">
<title>dir_c0fde34eb1aad6470b7c40f9528ecd51&#45;&gt;dir_289c3fc9695217b968c29372e2a5940c</title>
<path fill="none" stroke="#63b8ff" d="M333.2,-74.52C291.65,-67.39 213.79,-53.32 138.36,-35.15"/>
<polygon fill="#63b8ff" stroke="#63b8ff" points="138.76,-31.65 128.22,-32.68 137.1,-38.45 138.76,-31.65"/>
<g id="a_edge2&#45;headlabel"><a xlink:href="dir_000098_000085.html" target="_top" xlink:title="3">
<text text-anchor="middle" x="142.93" y="-27.24" font-family="Helvetica,sans-Serif" font-size="10.00" fill="#63b8ff">3</text>
</a>
</g>
</g>
<!-- dir_c0fde34eb1aad6470b7c40f9528ecd51&#45;&gt;dir_60528a66b99dd07a1313b3c263e646ab -->
<g id="edge5" class="edge">
<title>dir_c0fde34eb1aad6470b7c40f9528ecd51&#45;&gt;dir_60528a66b99dd07a1313b3c263e646ab</title>
<path fill="none" stroke="#63b8ff" d="M333.28,-70.98C301.95,-62.01 252.43,-47.82 217.76,-37.89"/>
<polygon fill="#63b8ff" stroke="#63b8ff" points="218.53,-34.47 207.96,-35.08 216.61,-41.2 218.53,-34.47"/>
<g id="a_edge5&#45;headlabel"><a xlink:href="dir_000098_000003.html" target="_top" xlink:title="2">
<text text-anchor="middle" x="222.77" y="-30.23" font-family="Helvetica,sans-Serif" font-size="10.00" fill="#63b8ff">2</text>
</a>
</g>
</g>
<!-- dir_c0fde34eb1aad6470b7c40f9528ecd51&#45;&gt;dir_8ac75f3e92965d7b87f5a77c8eb4a6b1 -->
<g id="edge6" class="edge">
<title>dir_c0fde34eb1aad6470b7c40f9528ecd51&#45;&gt;dir_8ac75f3e92965d7b87f5a77c8eb4a6b1</title>
<path fill="none" stroke="#63b8ff" d="M347.09,-70.98C331.45,-62.61 307.34,-49.7 289.12,-39.95"/>
<polygon fill="#63b8ff" stroke="#63b8ff" points="290.66,-36.8 280.2,-35.17 287.36,-42.98 290.66,-36.8"/>
<g id="a_edge6&#45;headlabel"><a xlink:href="dir_000098_000019.html" target="_top" xlink:title="2">
<text text-anchor="middle" x="295.17" y="-33.5" font-family="Helvetica,sans-Serif" font-size="10.00" fill="#63b8ff">2</text>
</a>
</g>
</g>
<!-- dir_c0fde34eb1aad6470b7c40f9528ecd51&#45;&gt;dir_8aea3e2ac587a42c656c5e8806b5497a -->
<g id="edge7" class="edge">
<title>dir_c0fde34eb1aad6470b7c40f9528ecd51&#45;&gt;dir_8aea3e2ac587a42c656c5e8806b5497a</title>
<path fill="none" stroke="#63b8ff" d="M358.54,-70.75C354.88,-63.57 349.59,-53.18 345.05,-44.27"/>
<polygon fill="#63b8ff" stroke="#63b8ff" points="348.03,-42.41 340.38,-35.09 341.8,-45.59 348.03,-42.41"/>
<g id="a_edge7&#45;headlabel"><a xlink:href="dir_000098_000175.html" target="_top" xlink:title="1">
<text text-anchor="middle" x="352.2" y="-41.82" font-family="Helvetica,sans-Serif" font-size="10.00" fill="#63b8ff">1</text>
</a>
</g>
</g>
<!-- dir_c0fde34eb1aad6470b7c40f9528ecd51&#45;&gt;dir_f1a41f0d4848adc979771c8b39d6dd9b -->
<g id="edge9" class="edge">
<title>dir_c0fde34eb1aad6470b7c40f9528ecd51&#45;&gt;dir_f1a41f0d4848adc979771c8b39d6dd9b</title>
<path fill="none" stroke="#63b8ff" d="M368.45,-70.75C373.01,-63.42 379.67,-52.73 385.29,-43.7"/>
<polygon fill="#63b8ff" stroke="#63b8ff" points="388.34,-45.43 390.65,-35.09 382.4,-41.73 388.34,-45.43"/>
<g id="a_edge9&#45;headlabel"><a xlink:href="dir_000098_000187.html" target="_top" xlink:title="2">
<text text-anchor="middle" x="388.85" y="-47.48" font-family="Helvetica,sans-Serif" font-size="10.00" fill="#63b8ff">2</text>
</a>
</g>
</g>
<!-- dir_30ecaf38acae77be14fb9173f98f8612 -->
<g id="node8" class="node">
<title>dir_30ecaf38acae77be14fb9173f98f8612</title>
<g id="a_node8"><a xlink:href="dir_30ecaf38acae77be14fb9173f98f8612.html" target="_top" xlink:title="types">
<polygon fill="#edf0f7" stroke="#7f7f7f" points="482,-35 438,-35 438,-16 482,-16 482,-35"/>
<text text-anchor="middle" x="460" y="-23" font-family="Helvetica,sans-Serif" font-size="10.00">types</text>
</a>
</g>
</g>
<!-- dir_c0fde34eb1aad6470b7c40f9528ecd51&#45;&gt;dir_30ecaf38acae77be14fb9173f98f8612 -->
<g id="edge3" class="edge">
<title>dir_c0fde34eb1aad6470b7c40f9528ecd51&#45;&gt;dir_30ecaf38acae77be14fb9173f98f8612</title>
<path fill="none" stroke="#63b8ff" d="M378.58,-70.98C393.77,-62.69 417.1,-49.94 434.9,-40.22"/>
<polygon fill="#63b8ff" stroke="#63b8ff" points="437.03,-43.04 444.13,-35.17 433.68,-36.89 437.03,-43.04"/>
<g id="a_edge3&#45;headlabel"><a xlink:href="dir_000098_000180.html" target="_top" xlink:title="3">
<text text-anchor="middle" x="435.24" y="-44.75" font-family="Helvetica,sans-Serif" font-size="10.00" fill="#63b8ff">3</text>
</a>
</g>
</g>
<!-- dir_4535887b2cdca47e625f259d07db0112 -->
<g id="node9" class="node">
<title>dir_4535887b2cdca47e625f259d07db0112</title>
<g id="a_node9"><a xlink:href="dir_4535887b2cdca47e625f259d07db0112.html" target="_top" xlink:title="util">
<polygon fill="#edf0f7" stroke="#7f7f7f" points="532,-35 500,-35 500,-16 532,-16 532,-35"/>
<text text-anchor="middle" x="516" y="-23" font-family="Helvetica,sans-Serif" font-size="10.00">util</text>
</a>
</g>
</g>
<!-- dir_c0fde34eb1aad6470b7c40f9528ecd51&#45;&gt;dir_4535887b2cdca47e625f259d07db0112 -->
<g id="edge4" class="edge">
<title>dir_c0fde34eb1aad6470b7c40f9528ecd51&#45;&gt;dir_4535887b2cdca47e625f259d07db0112</title>
<path fill="none" stroke="#63b8ff" d="M387.58,-70.98C415.72,-61.24 461.6,-45.35 490.23,-35.43"/>
<polygon fill="#63b8ff" stroke="#63b8ff" points="491.62,-38.65 499.93,-32.07 489.33,-32.03 491.62,-38.65"/>
<g id="a_edge4&#45;headlabel"><a xlink:href="dir_000098_000185.html" target="_top" xlink:title="9">
<text text-anchor="middle" x="489.16" y="-40.01" font-family="Helvetica,sans-Serif" font-size="10.00" fill="#63b8ff">9</text>
</a>
</g>
</g>
<!-- dir_942cfae36a92b6b1c4b510e99e852d40 -->
<g id="node10" class="node">
<title>dir_942cfae36a92b6b1c4b510e99e852d40</title>
<g id="a_node10"><a xlink:href="dir_942cfae36a92b6b1c4b510e99e852d40.html" target="_top" xlink:title="vocab">
<polygon fill="#edf0f7" stroke="red" stroke-dasharray="5,2" points="596,-35 550,-35 550,-16 596,-16 596,-35"/>
<text text-anchor="middle" x="573" y="-23" font-family="Helvetica,sans-Serif" font-size="10.00">vocab</text>
</a>
</g>
</g>
<!-- dir_c0fde34eb1aad6470b7c40f9528ecd51&#45;&gt;dir_942cfae36a92b6b1c4b510e99e852d40 -->
<g id="edge8" class="edge">
<title>dir_c0fde34eb1aad6470b7c40f9528ecd51&#45;&gt;dir_942cfae36a92b6b1c4b510e99e852d40</title>
<path fill="none" stroke="#63b8ff" d="M392.64,-72.23C426.06,-64 482.29,-50.07 539.93,-35.25"/>
<polygon fill="#63b8ff" stroke="#63b8ff" points="541.13,-38.55 549.94,-32.67 539.38,-31.77 541.13,-38.55"/>
<g id="a_edge8&#45;headlabel"><a xlink:href="dir_000098_000189.html" target="_top" xlink:title="2">
<text text-anchor="middle" x="538.36" y="-39.7" font-family="Helvetica,sans-Serif" font-size="10.00" fill="#63b8ff">2</text>
</a>
</g>
</g>
<!-- dir_f555f996eeee1ebe901dc71e0c5de8ff -->
<g id="node11" class="node">
<title>dir_f555f996eeee1ebe901dc71e0c5de8ff</title>
<g id="a_node11"><a xlink:href="dir_f555f996eeee1ebe901dc71e0c5de8ff.html" target="_top" xlink:title="meta">
<polygon fill="#edf0f7" stroke="#7f7f7f" points="656,-35 614,-35 614,-16 656,-16 656,-35"/>
<text text-anchor="middle" x="635" y="-23" font-family="Helvetica,sans-Serif" font-size="10.00">meta</text>
</a>
</g>
</g>
<!-- dir_c0fde34eb1aad6470b7c40f9528ecd51&#45;&gt;dir_f555f996eeee1ebe901dc71e0c5de8ff -->
<g id="edge10" class="edge">
<title>dir_c0fde34eb1aad6470b7c40f9528ecd51&#45;&gt;dir_f555f996eeee1ebe901dc71e0c5de8ff</title>
<path fill="none" stroke="#63b8ff" d="M392.61,-74.98C436.63,-68.06 522.06,-53.86 603.81,-35.1"/>
<polygon fill="#63b8ff" stroke="#63b8ff" points="604.81,-38.46 613.76,-32.79 603.23,-31.64 604.81,-38.46"/>
<g id="a_edge10&#45;headlabel"><a xlink:href="dir_000098_000122.html" target="_top" xlink:title="1">
<text text-anchor="middle" x="601.95" y="-39.54" font-family="Helvetica,sans-Serif" font-size="10.00" fill="#63b8ff">1</text>
</a>
</g>
</g>
</g>
</svg>
