<?xml version="1.0" encoding="UTF-8" standalone="no"?>
<!DOCTYPE svg PUBLIC "-//W3C//DTD SVG 1.1//EN"
 "http://www.w3.org/Graphics/SVG/1.1/DTD/svg11.dtd">
<!-- Generated by graphviz version 2.43.0 (0)
 -->
<!-- Title: libs/dius/arch Pages: 1 -->
<svg width="194pt" height="141pt"
 viewBox="0.00 0.00 193.50 141.00" xmlns="http://www.w3.org/2000/svg" xmlns:xlink="http://www.w3.org/1999/xlink">
<g id="graph0" class="graph" transform="scale(1 1) rotate(0) translate(4 137)">
<title>libs/dius/arch</title>
<g id="clust1" class="cluster">
<title>clusterdir_2bc9e3f402dd86ba93785edd287294d9</title>
<g id="a_clust1"><a xlink:href="dir_2bc9e3f402dd86ba93785edd287294d9.html" target="_top" xlink:title="dius">
<polygon fill="#edf0f7" stroke="#7f7f7f" stroke-dasharray="5,2" points="8,-8 8,-125 148,-125 148,-8 8,-8"/>
<text text-anchor="middle" x="78" y="-113" font-family="Helvetica,sans-Serif" font-size="10.00">dius</text>
</a>
</g>
</g>
<g id="clust2" class="cluster">
<title>clusterdir_39053a9e708acbcd1ab0b8826280498b</title>
<g id="a_clust2"><a xlink:href="dir_39053a9e708acbcd1ab0b8826280498b.html" target="_top">
<polygon fill="#edf0f7" stroke="#404040" stroke-width="2" points="16,-63 16,-98 140,-98 140,-63 16,-63"/>
</a>
</g>
</g>
<!-- dir_6ac4aa95e4478b160428441746083760 -->
<g id="node1" class="node">
<title>dir_6ac4aa95e4478b160428441746083760</title>
<g id="a_node1"><a xlink:href="dir_6ac4aa95e4478b160428441746083760.html" target="_top" xlink:title="include">
<polygon fill="#a2b4d6" stroke="red" points="76,-35 24,-35 24,-16 76,-16 76,-35"/>
<text text-anchor="middle" x="50" y="-23" font-family="Helvetica,sans-Serif" font-size="10.00">include</text>
</a>
</g>
</g>
<!-- dir_39053a9e708acbcd1ab0b8826280498b -->
<g id="node2" class="node">
<title>dir_39053a9e708acbcd1ab0b8826280498b</title>
<text text-anchor="middle" x="113" y="-78" font-family="Helvetica,sans-Serif" font-size="10.00">arch</text>
</g>
<!-- dir_616da29b2899fa5728be5d8d9ef31dfa -->
<g id="node3" class="node">
<title>dir_616da29b2899fa5728be5d8d9ef31dfa</title>
<g id="a_node3"><a xlink:href="dir_616da29b2899fa5728be5d8d9ef31dfa.html" target="_top" xlink:title="x86_64">
<polygon fill="#a2b4d6" stroke="#404040" points="76,-90 24,-90 24,-71 76,-71 76,-90"/>
<text text-anchor="middle" x="50" y="-78" font-family="Helvetica,sans-Serif" font-size="10.00">x86_64</text>
</a>
</g>
</g>
<!-- dir_616da29b2899fa5728be5d8d9ef31dfa&#45;&gt;dir_6ac4aa95e4478b160428441746083760 -->
<g id="edge1" class="edge">
<title>dir_616da29b2899fa5728be5d8d9ef31dfa&#45;&gt;dir_6ac4aa95e4478b160428441746083760</title>
<path fill="none" stroke="#63b8ff" d="M50,-70.75C50,-63.8 50,-53.85 50,-45.13"/>
<polygon fill="#63b8ff" stroke="#63b8ff" points="53.5,-45.09 50,-35.09 46.5,-45.09 53.5,-45.09"/>
<g id="a_edge1&#45;headlabel"><a xlink:href="dir_000195_000093.html" target="_top" xlink:title="1">
<text text-anchor="middle" x="56.34" y="-46.18" font-family="Helvetica,sans-Serif" font-size="10.00" fill="#63b8ff">1</text>
</a>
</g>
</g>
<!-- dir_984cd133b143ec7cf21a4bdcb401bfa5 -->
<g id="node4" class="node">
<title>dir_984cd133b143ec7cf21a4bdcb401bfa5</title>
<g id="a_node4"><a xlink:href="dir_984cd133b143ec7cf21a4bdcb401bfa5.html" target="_top" xlink:title="di">
<polygon fill="#edf0f7" stroke="red" stroke-dasharray="5,2" points="185.5,-35 156.5,-35 156.5,-16 185.5,-16 185.5,-35"/>
<text text-anchor="middle" x="171" y="-23" font-family="Helvetica,sans-Serif" font-size="10.00">di</text>
</a>
</g>
</g>
<!-- dir_616da29b2899fa5728be5d8d9ef31dfa&#45;&gt;dir_984cd133b143ec7cf21a4bdcb401bfa5 -->
<g id="edge2" class="edge">
<title>dir_616da29b2899fa5728be5d8d9ef31dfa&#45;&gt;dir_984cd133b143ec7cf21a4bdcb401bfa5</title>
<path fill="none" stroke="#63b8ff" d="M67.73,-70.95C73.24,-68.35 79.35,-65.51 85,-63 111.61,-51.17 120.63,-48.32 147.2,-37.02"/>
<polygon fill="#63b8ff" stroke="#63b8ff" points="148.69,-40.2 156.49,-33.03 145.92,-33.76 148.69,-40.2"/>
<g id="a_edge2&#45;headlabel"><a xlink:href="dir_000195_000058.html" target="_top" xlink:title="1">
<text text-anchor="middle" x="146.5" y="-41.72" font-family="Helvetica,sans-Serif" font-size="10.00" fill="#63b8ff">1</text>
</a>
</g>
</g>
</g>
</svg>
