<?xml version="1.0" encoding="UTF-8" standalone="no"?>
<!DOCTYPE svg PUBLIC "-//W3C//DTD SVG 1.1//EN"
 "http://www.w3.org/Graphics/SVG/1.1/DTD/svg11.dtd">
<!-- Generated by graphviz version 2.43.0 (0)
 -->
<!-- Title: libs/di/include/di/io/interface Pages: 1 -->
<svg width="218pt" height="117pt"
 viewBox="0.00 0.00 218.00 117.00" xmlns="http://www.w3.org/2000/svg" xmlns:xlink="http://www.w3.org/1999/xlink">
<g id="graph0" class="graph" transform="scale(1 1) rotate(0) translate(4 113)">
<title>libs/di/include/di/io/interface</title>
<g id="clust1" class="cluster">
<title>clusterdir_cd43612992eaeb46558dd8835da126ed</title>
<g id="a_clust1"><a xlink:href="dir_cd43612992eaeb46558dd8835da126ed.html" target="_top" xlink:title="io">
<polygon fill="#edf0f7" stroke="#7f7f7f" stroke-dasharray="5,2" points="64,-47 64,-101 140,-101 140,-47 64,-47"/>
<text text-anchor="middle" x="102" y="-89" font-family="Helvetica,sans-Serif" font-size="10.00">io</text>
</a>
</g>
</g>
<!-- dir_4dea625e9392d7a16632e00d5dbbd6c7 -->
<g id="node1" class="node">
<title>dir_4dea625e9392d7a16632e00d5dbbd6c7</title>
<g id="a_node1"><a xlink:href="dir_4dea625e9392d7a16632e00d5dbbd6c7.html" target="_top" xlink:title="interface">
<polygon fill="#edf0f7" stroke="#404040" stroke-width="2" points="132,-74 72,-74 72,-55 132,-55 132,-74"/>
<text text-anchor="middle" x="102" y="-62" font-family="Helvetica,sans-Serif" font-size="10.00">interface</text>
</a>
</g>
</g>
<!-- dir_4535887b2cdca47e625f259d07db0112 -->
<g id="node2" class="node">
<title>dir_4535887b2cdca47e625f259d07db0112</title>
<g id="a_node2"><a xlink:href="dir_4535887b2cdca47e625f259d07db0112.html" target="_top" xlink:title="util">
<polygon fill="#edf0f7" stroke="#7f7f7f" points="32,-19 0,-19 0,0 32,0 32,-19"/>
<text text-anchor="middle" x="16" y="-7" font-family="Helvetica,sans-Serif" font-size="10.00">util</text>
</a>
</g>
</g>
<!-- dir_4dea625e9392d7a16632e00d5dbbd6c7&#45;&gt;dir_4535887b2cdca47e625f259d07db0112 -->
<g id="edge1" class="edge">
<title>dir_4dea625e9392d7a16632e00d5dbbd6c7&#45;&gt;dir_4535887b2cdca47e625f259d07db0112</title>
<path fill="none" stroke="#63b8ff" d="M88.18,-54.98C74.85,-46.77 54.42,-34.18 38.69,-24.49"/>
<polygon fill="#63b8ff" stroke="#63b8ff" points="40.42,-21.44 30.07,-19.17 36.75,-27.4 40.42,-21.44"/>
<g id="a_edge1&#45;headlabel"><a xlink:href="dir_000097_000185.html" target="_top" xlink:title="1">
<text text-anchor="middle" x="44.97" y="-18.41" font-family="Helvetica,sans-Serif" font-size="10.00" fill="#63b8ff">1</text>
</a>
</g>
</g>
<!-- dir_942cfae36a92b6b1c4b510e99e852d40 -->
<g id="node3" class="node">
<title>dir_942cfae36a92b6b1c4b510e99e852d40</title>
<g id="a_node3"><a xlink:href="dir_942cfae36a92b6b1c4b510e99e852d40.html" target="_top" xlink:title="vocab">
<polygon fill="#edf0f7" stroke="red" stroke-dasharray="5,2" points="96,-19 50,-19 50,0 96,0 96,-19"/>
<text text-anchor="middle" x="73" y="-7" font-family="Helvetica,sans-Serif" font-size="10.00">vocab</text>
</a>
</g>
</g>
<!-- dir_4dea625e9392d7a16632e00d5dbbd6c7&#45;&gt;dir_942cfae36a92b6b1c4b510e99e852d40 -->
<g id="edge2" class="edge">
<title>dir_4dea625e9392d7a16632e00d5dbbd6c7&#45;&gt;dir_942cfae36a92b6b1c4b510e99e852d40</title>
<path fill="none" stroke="#63b8ff" d="M97.21,-54.75C93.24,-47.49 87.47,-36.95 82.57,-27.98"/>
<polygon fill="#63b8ff" stroke="#63b8ff" points="85.57,-26.18 77.7,-19.09 79.43,-29.54 85.57,-26.18"/>
<g id="a_edge2&#45;headlabel"><a xlink:href="dir_000097_000189.html" target="_top" xlink:title="4">
<text text-anchor="middle" x="89.79" y="-25.47" font-family="Helvetica,sans-Serif" font-size="10.00" fill="#63b8ff">4</text>
</a>
</g>
</g>
<!-- dir_e44b40e2f7a090819cf1915a0b103ff1 -->
<g id="node4" class="node">
<title>dir_e44b40e2f7a090819cf1915a0b103ff1</title>
<g id="a_node4"><a xlink:href="dir_e44b40e2f7a090819cf1915a0b103ff1.html" target="_top" xlink:title="any">
<polygon fill="#edf0f7" stroke="red" stroke-dasharray="5,2" points="149.5,-19 114.5,-19 114.5,0 149.5,0 149.5,-19"/>
<text text-anchor="middle" x="132" y="-7" font-family="Helvetica,sans-Serif" font-size="10.00">any</text>
</a>
</g>
</g>
<!-- dir_4dea625e9392d7a16632e00d5dbbd6c7&#45;&gt;dir_e44b40e2f7a090819cf1915a0b103ff1 -->
<g id="edge3" class="edge">
<title>dir_4dea625e9392d7a16632e00d5dbbd6c7&#45;&gt;dir_e44b40e2f7a090819cf1915a0b103ff1</title>
<path fill="none" stroke="#63b8ff" d="M106.95,-54.75C111.06,-47.49 117.03,-36.95 122.1,-27.98"/>
<polygon fill="#63b8ff" stroke="#63b8ff" points="125.26,-29.52 127.14,-19.09 119.17,-26.07 125.26,-29.52"/>
<g id="a_edge3&#45;headlabel"><a xlink:href="dir_000097_000008.html" target="_top" xlink:title="2">
<text text-anchor="middle" x="125.96" y="-31.54" font-family="Helvetica,sans-Serif" font-size="10.00" fill="#63b8ff">2</text>
</a>
</g>
</g>
<!-- dir_f555f996eeee1ebe901dc71e0c5de8ff -->
<g id="node5" class="node">
<title>dir_f555f996eeee1ebe901dc71e0c5de8ff</title>
<g id="a_node5"><a xlink:href="dir_f555f996eeee1ebe901dc71e0c5de8ff.html" target="_top" xlink:title="meta">
<polygon fill="#edf0f7" stroke="#7f7f7f" points="210,-19 168,-19 168,0 210,0 210,-19"/>
<text text-anchor="middle" x="189" y="-7" font-family="Helvetica,sans-Serif" font-size="10.00">meta</text>
</a>
</g>
</g>
<!-- dir_4dea625e9392d7a16632e00d5dbbd6c7&#45;&gt;dir_f555f996eeee1ebe901dc71e0c5de8ff -->
<g id="edge4" class="edge">
<title>dir_4dea625e9392d7a16632e00d5dbbd6c7&#45;&gt;dir_f555f996eeee1ebe901dc71e0c5de8ff</title>
<path fill="none" stroke="#63b8ff" d="M115.98,-54.98C129.47,-46.77 150.13,-34.18 166.04,-24.49"/>
<polygon fill="#63b8ff" stroke="#63b8ff" points="168.05,-27.36 174.77,-19.17 164.41,-21.38 168.05,-27.36"/>
<g id="a_edge4&#45;headlabel"><a xlink:href="dir_000097_000122.html" target="_top" xlink:title="1">
<text text-anchor="middle" x="166.46" y="-29.16" font-family="Helvetica,sans-Serif" font-size="10.00" fill="#63b8ff">1</text>
</a>
</g>
</g>
</g>
</svg>
