<?xml version="1.0" encoding="UTF-8" standalone="no"?>
<!DOCTYPE svg PUBLIC "-//W3C//DTD SVG 1.1//EN"
 "http://www.w3.org/Graphics/SVG/1.1/DTD/svg11.dtd">
<!-- Generated by graphviz version 2.43.0 (0)
 -->
<!-- Title: iris/include/iris/arch/x86 Pages: 1 -->
<svg width="258pt" height="125pt"
 viewBox="0.00 0.00 258.00 125.00" xmlns="http://www.w3.org/2000/svg" xmlns:xlink="http://www.w3.org/1999/xlink">
<g id="graph0" class="graph" transform="scale(1 1) rotate(0) translate(4 121)">
<title>iris/include/iris/arch/x86</title>
<g id="clust1" class="cluster">
<title>clusterdir_5fe499bcb7f32920606defa2f08a6cab</title>
<g id="a_clust1"><a xlink:href="dir_5fe499bcb7f32920606defa2f08a6cab.html" target="_top" xlink:title="arch">
<polygon fill="#edf0f7" stroke="#7f7f7f" stroke-dasharray="5,2" points="83,-39 83,-109 219,-109 219,-39 83,-39"/>
<text text-anchor="middle" x="151" y="-97" font-family="Helvetica,sans-Serif" font-size="10.00">arch</text>
</a>
</g>
</g>
<g id="clust2" class="cluster">
<title>clusterdir_407e6dd7785b117805c64851fb4bc1a2</title>
<g id="a_clust2"><a xlink:href="dir_407e6dd7785b117805c64851fb4bc1a2.html" target="_top">
<polygon fill="#edf0f7" stroke="#404040" stroke-width="2" points="91,-47 91,-82 211,-82 211,-47 91,-47"/>
</a>
</g>
</g>
<!-- dir_407e6dd7785b117805c64851fb4bc1a2 -->
<g id="node1" class="node">
<title>dir_407e6dd7785b117805c64851fb4bc1a2</title>
<text text-anchor="middle" x="185" y="-62" font-family="Helvetica,sans-Serif" font-size="10.00">x86</text>
</g>
<!-- dir_69ecb03340787322ec15c613fc74d859 -->
<g id="node2" class="node">
<title>dir_69ecb03340787322ec15c613fc74d859</title>
<g id="a_node2"><a xlink:href="dir_69ecb03340787322ec15c613fc74d859.html" target="_top" xlink:title="amd64">
<polygon fill="#a2b4d6" stroke="#404040" points="149,-74 99,-74 99,-55 149,-55 149,-74"/>
<text text-anchor="middle" x="124" y="-62" font-family="Helvetica,sans-Serif" font-size="10.00">amd64</text>
</a>
</g>
</g>
<!-- dir_0d9b91d0f0b9ec0856341172f56c0a57 -->
<g id="node3" class="node">
<title>dir_0d9b91d0f0b9ec0856341172f56c0a57</title>
<g id="a_node3"><a xlink:href="dir_0d9b91d0f0b9ec0856341172f56c0a57.html" target="_top" xlink:title="uapi">
<polygon fill="#edf0f7" stroke="#7f7f7f" points="38,-19 0,-19 0,0 38,0 38,-19"/>
<text text-anchor="middle" x="19" y="-7" font-family="Helvetica,sans-Serif" font-size="10.00">uapi</text>
</a>
</g>
</g>
<!-- dir_69ecb03340787322ec15c613fc74d859&#45;&gt;dir_0d9b91d0f0b9ec0856341172f56c0a57 -->
<g id="edge5" class="edge">
<title>dir_69ecb03340787322ec15c613fc74d859&#45;&gt;dir_0d9b91d0f0b9ec0856341172f56c0a57</title>
<path fill="none" stroke="#63b8ff" d="M107.13,-54.98C90.39,-46.54 64.5,-33.47 45.11,-23.68"/>
<polygon fill="#63b8ff" stroke="#63b8ff" points="46.68,-20.55 36.18,-19.17 43.53,-26.8 46.68,-20.55"/>
<g id="a_edge5&#45;headlabel"><a xlink:href="dir_000007_000181.html" target="_top" xlink:title="1">
<text text-anchor="middle" x="51.17" y="-17.14" font-family="Helvetica,sans-Serif" font-size="10.00" fill="#63b8ff">1</text>
</a>
</g>
</g>
<!-- dir_6719ab1f1f7655efc2fa43f7eb574fd1 -->
<g id="node4" class="node">
<title>dir_6719ab1f1f7655efc2fa43f7eb574fd1</title>
<g id="a_node4"><a xlink:href="dir_6719ab1f1f7655efc2fa43f7eb574fd1.html" target="_top" xlink:title="libs">
<polygon fill="#edf0f7" stroke="red" points="90,-19 56,-19 56,0 90,0 90,-19"/>
<text text-anchor="middle" x="73" y="-7" font-family="Helvetica,sans-Serif" font-size="10.00">libs</text>
</a>
</g>
</g>
<!-- dir_69ecb03340787322ec15c613fc74d859&#45;&gt;dir_6719ab1f1f7655efc2fa43f7eb574fd1 -->
<g id="edge1" class="edge">
<title>dir_69ecb03340787322ec15c613fc74d859&#45;&gt;dir_6719ab1f1f7655efc2fa43f7eb574fd1</title>
<path fill="none" stroke="#63b8ff" d="M115.58,-54.75C108.23,-47.11 97.37,-35.82 88.46,-26.56"/>
<polygon fill="#63b8ff" stroke="#63b8ff" points="90.72,-23.87 81.26,-19.09 85.68,-28.72 90.72,-23.87"/>
<g id="a_edge1&#45;headlabel"><a xlink:href="dir_000007_000109.html" target="_top" xlink:title="23">
<text text-anchor="middle" x="95.26" y="-21.99" font-family="Helvetica,sans-Serif" font-size="10.00" fill="#63b8ff">23</text>
</a>
</g>
</g>
<!-- dir_7cd5da72e38cd0f075d57a788b4f2242 -->
<g id="node5" class="node">
<title>dir_7cd5da72e38cd0f075d57a788b4f2242</title>
<g id="a_node5"><a xlink:href="dir_7cd5da72e38cd0f075d57a788b4f2242.html" target="_top" xlink:title="hw">
<polygon fill="#edf0f7" stroke="red" stroke-dasharray="5,2" points="139.5,-19 108.5,-19 108.5,0 139.5,0 139.5,-19"/>
<text text-anchor="middle" x="124" y="-7" font-family="Helvetica,sans-Serif" font-size="10.00">hw</text>
</a>
</g>
</g>
<!-- dir_69ecb03340787322ec15c613fc74d859&#45;&gt;dir_7cd5da72e38cd0f075d57a788b4f2242 -->
<g id="edge3" class="edge">
<title>dir_69ecb03340787322ec15c613fc74d859&#45;&gt;dir_7cd5da72e38cd0f075d57a788b4f2242</title>
<path fill="none" stroke="#63b8ff" d="M124,-54.75C124,-47.8 124,-37.85 124,-29.13"/>
<polygon fill="#63b8ff" stroke="#63b8ff" points="127.5,-29.09 124,-19.09 120.5,-29.09 127.5,-29.09"/>
<g id="a_edge3&#45;headlabel"><a xlink:href="dir_000007_000089.html" target="_top" xlink:title="4">
<text text-anchor="middle" x="130.34" y="-30.18" font-family="Helvetica,sans-Serif" font-size="10.00" fill="#63b8ff">4</text>
</a>
</g>
</g>
<!-- dir_945708b8d3397c2507c5e618c4393ffa -->
<g id="node6" class="node">
<title>dir_945708b8d3397c2507c5e618c4393ffa</title>
<g id="a_node6"><a xlink:href="dir_945708b8d3397c2507c5e618c4393ffa.html" target="_top" xlink:title="mm">
<polygon fill="#edf0f7" stroke="#7f7f7f" points="194,-19 158,-19 158,0 194,0 194,-19"/>
<text text-anchor="middle" x="176" y="-7" font-family="Helvetica,sans-Serif" font-size="10.00">mm</text>
</a>
</g>
</g>
<!-- dir_69ecb03340787322ec15c613fc74d859&#45;&gt;dir_945708b8d3397c2507c5e618c4393ffa -->
<g id="edge2" class="edge">
<title>dir_69ecb03340787322ec15c613fc74d859&#45;&gt;dir_945708b8d3397c2507c5e618c4393ffa</title>
<path fill="none" stroke="#63b8ff" d="M132.59,-54.75C140.16,-47.03 151.38,-35.6 160.51,-26.28"/>
<polygon fill="#63b8ff" stroke="#63b8ff" points="163.07,-28.68 167.57,-19.09 158.07,-23.78 163.07,-28.68"/>
<g id="a_edge2&#45;headlabel"><a xlink:href="dir_000007_000126.html" target="_top" xlink:title="4">
<text text-anchor="middle" x="162.58" y="-30.73" font-family="Helvetica,sans-Serif" font-size="10.00" fill="#63b8ff">4</text>
</a>
</g>
</g>
<!-- dir_be381e3b7aa79a91c125f50d5abcc4e9 -->
<g id="node7" class="node">
<title>dir_be381e3b7aa79a91c125f50d5abcc4e9</title>
<g id="a_node7"><a xlink:href="dir_be381e3b7aa79a91c125f50d5abcc4e9.html" target="_top" xlink:title="core">
<polygon fill="#edf0f7" stroke="#7f7f7f" points="250,-19 212,-19 212,0 250,0 250,-19"/>
<text text-anchor="middle" x="231" y="-7" font-family="Helvetica,sans-Serif" font-size="10.00">core</text>
</a>
</g>
</g>
<!-- dir_69ecb03340787322ec15c613fc74d859&#45;&gt;dir_be381e3b7aa79a91c125f50d5abcc4e9 -->
<g id="edge4" class="edge">
<title>dir_69ecb03340787322ec15c613fc74d859&#45;&gt;dir_be381e3b7aa79a91c125f50d5abcc4e9</title>
<path fill="none" stroke="#63b8ff" d="M134.92,-54.86C141.62,-49.82 150.51,-43.57 159,-39 172.68,-31.64 188.68,-25.11 202.11,-20.17"/>
<polygon fill="#63b8ff" stroke="#63b8ff" points="203.57,-23.37 211.81,-16.72 201.22,-16.78 203.57,-23.37"/>
<g id="a_edge4&#45;headlabel"><a xlink:href="dir_000007_000052.html" target="_top" xlink:title="1">
<text text-anchor="middle" x="201.13" y="-24.75" font-family="Helvetica,sans-Serif" font-size="10.00" fill="#63b8ff">1</text>
</a>
</g>
</g>
</g>
</svg>
