<?xml version="1.0" encoding="UTF-8" standalone="no"?>
<!DOCTYPE svg PUBLIC "-//W3C//DTD SVG 1.1//EN"
 "http://www.w3.org/Graphics/SVG/1.1/DTD/svg11.dtd">
<!-- Generated by graphviz version 2.43.0 (0)
 -->
<!-- Title: libs/di/include/di/vocab/md Pages: 1 -->
<svg width="438pt" height="180pt"
 viewBox="0.00 0.00 438.37 180.00" xmlns="http://www.w3.org/2000/svg" xmlns:xlink="http://www.w3.org/1999/xlink">
<g id="graph0" class="graph" transform="scale(1 1) rotate(0) translate(4 176)">
<title>libs/di/include/di/vocab/md</title>
<g id="clust1" class="cluster">
<title>clusterdir_942cfae36a92b6b1c4b510e99e852d40</title>
<g id="a_clust1"><a xlink:href="dir_942cfae36a92b6b1c4b510e99e852d40.html" target="_top" xlink:title="vocab">
<polygon fill="#edf0f7" stroke="#7f7f7f" stroke-dasharray="5,2" points="79.68,-39 79.68,-164 281.68,-164 281.68,-39 79.68,-39"/>
<text text-anchor="middle" x="180.68" y="-152" font-family="Helvetica,sans-Serif" font-size="10.00">vocab</text>
</a>
</g>
</g>
<g id="clust2" class="cluster">
<title>clusterdir_bf9e2a3d6b93982a82bbe9d883f4fbeb</title>
<g id="a_clust2"><a xlink:href="dir_bf9e2a3d6b93982a82bbe9d883f4fbeb.html" target="_top">
<polygon fill="#edf0f7" stroke="#404040" stroke-width="2" points="87.68,-47 87.68,-137 163.68,-137 163.68,-47 87.68,-47"/>
</a>
</g>
</g>
<!-- dir_470b886410dd06990f67532f35a9ce13 -->
<g id="node1" class="node">
<title>dir_470b886410dd06990f67532f35a9ce13</title>
<g id="a_node1"><a xlink:href="dir_470b886410dd06990f67532f35a9ce13.html" target="_top" xlink:title="span">
<polygon fill="#a2b4d6" stroke="#404040" points="213.68,-74 173.68,-74 173.68,-55 213.68,-55 213.68,-74"/>
<text text-anchor="middle" x="193.68" y="-62" font-family="Helvetica,sans-Serif" font-size="10.00">span</text>
</a>
</g>
</g>
<!-- dir_f2746db212e1651cb9c1857c0d141a99 -->
<g id="node2" class="node">
<title>dir_f2746db212e1651cb9c1857c0d141a99</title>
<g id="a_node2"><a xlink:href="dir_f2746db212e1651cb9c1857c0d141a99.html" target="_top" xlink:title="array">
<polygon fill="#a2b4d6" stroke="#404040" points="273.68,-74 231.68,-74 231.68,-55 273.68,-55 273.68,-74"/>
<text text-anchor="middle" x="252.68" y="-62" font-family="Helvetica,sans-Serif" font-size="10.00">array</text>
</a>
</g>
</g>
<!-- dir_bf9e2a3d6b93982a82bbe9d883f4fbeb -->
<g id="node3" class="node">
<title>dir_bf9e2a3d6b93982a82bbe9d883f4fbeb</title>
<text text-anchor="middle" x="139.68" y="-117" font-family="Helvetica,sans-Serif" font-size="10.00">md</text>
</g>
<!-- dir_bf9e2a3d6b93982a82bbe9d883f4fbeb&#45;&gt;dir_470b886410dd06990f67532f35a9ce13 -->
<g id="edge3" class="edge">
<title>dir_bf9e2a3d6b93982a82bbe9d883f4fbeb&#45;&gt;dir_470b886410dd06990f67532f35a9ce13</title>
<path fill="none" stroke="#63b8ff" d="M148.6,-109.75C156.46,-102.03 168.11,-90.6 177.6,-81.28"/>
<polygon fill="#63b8ff" stroke="#63b8ff" points="180.24,-83.59 184.93,-74.09 175.34,-78.6 180.24,-83.59"/>
<g id="a_edge3&#45;headlabel"><a xlink:href="dir_000118_000154.html" target="_top" xlink:title="3">
<text text-anchor="middle" x="179.67" y="-85.64" font-family="Helvetica,sans-Serif" font-size="10.00" fill="#63b8ff">3</text>
</a>
</g>
</g>
<!-- dir_bf9e2a3d6b93982a82bbe9d883f4fbeb&#45;&gt;dir_f2746db212e1651cb9c1857c0d141a99 -->
<g id="edge7" class="edge">
<title>dir_bf9e2a3d6b93982a82bbe9d883f4fbeb&#45;&gt;dir_f2746db212e1651cb9c1857c0d141a99</title>
<path fill="none" stroke="#63b8ff" d="M155.87,-110.91C173.94,-102.43 203.5,-88.57 225.21,-78.38"/>
<polygon fill="#63b8ff" stroke="#63b8ff" points="226.7,-81.55 234.27,-74.14 223.73,-75.21 226.7,-81.55"/>
<g id="a_edge7&#45;headlabel"><a xlink:href="dir_000118_000017.html" target="_top" xlink:title="2">
<text text-anchor="middle" x="224.65" y="-83.15" font-family="Helvetica,sans-Serif" font-size="10.00" fill="#63b8ff">2</text>
</a>
</g>
</g>
<!-- dir_c6eaad025eec0c5edf1b13e87a245536 -->
<g id="node4" class="node">
<title>dir_c6eaad025eec0c5edf1b13e87a245536</title>
<g id="a_node4"><a xlink:href="dir_c6eaad025eec0c5edf1b13e87a245536.html" target="_top" xlink:title="concepts">
<polygon fill="#a2b4d6" stroke="#404040" points="155.68,-74 95.68,-74 95.68,-55 155.68,-55 155.68,-74"/>
<text text-anchor="middle" x="125.68" y="-62" font-family="Helvetica,sans-Serif" font-size="10.00">concepts</text>
</a>
</g>
</g>
<!-- dir_bf9e2a3d6b93982a82bbe9d883f4fbeb&#45;&gt;dir_c6eaad025eec0c5edf1b13e87a245536 -->
<g id="edge6" class="edge">
<title>dir_bf9e2a3d6b93982a82bbe9d883f4fbeb&#45;&gt;dir_c6eaad025eec0c5edf1b13e87a245536</title>
<path fill="none" stroke="#63b8ff" d="M137.37,-109.75C135.51,-102.72 132.84,-92.62 130.52,-83.84"/>
<polygon fill="#63b8ff" stroke="#63b8ff" points="133.89,-82.86 127.95,-74.09 127.12,-84.65 133.89,-82.86"/>
<g id="a_edge6&#45;headlabel"><a xlink:href="dir_000118_000044.html" target="_top" xlink:title="9">
<text text-anchor="middle" x="137.55" y="-83.11" font-family="Helvetica,sans-Serif" font-size="10.00" fill="#63b8ff">9</text>
</a>
</g>
</g>
<!-- dir_0669efae56692bb73da75efb5ebbccdf -->
<g id="node5" class="node">
<title>dir_0669efae56692bb73da75efb5ebbccdf</title>
<g id="a_node5"><a xlink:href="dir_0669efae56692bb73da75efb5ebbccdf.html" target="_top" xlink:title="function">
<polygon fill="#edf0f7" stroke="red" stroke-dasharray="5,2" points="71.68,-74 15.68,-74 15.68,-55 71.68,-55 71.68,-74"/>
<text text-anchor="middle" x="43.68" y="-62" font-family="Helvetica,sans-Serif" font-size="10.00">function</text>
</a>
</g>
</g>
<!-- dir_bf9e2a3d6b93982a82bbe9d883f4fbeb&#45;&gt;dir_0669efae56692bb73da75efb5ebbccdf -->
<g id="edge1" class="edge">
<title>dir_bf9e2a3d6b93982a82bbe9d883f4fbeb&#45;&gt;dir_0669efae56692bb73da75efb5ebbccdf</title>
<path fill="none" stroke="#63b8ff" d="M124.25,-109.98C109.23,-101.69 86.14,-88.94 68.52,-79.22"/>
<polygon fill="#63b8ff" stroke="#63b8ff" points="69.83,-75.94 59.38,-74.17 66.45,-82.07 69.83,-75.94"/>
<g id="a_edge1&#45;headlabel"><a xlink:href="dir_000118_000082.html" target="_top" xlink:title="4">
<text text-anchor="middle" x="74.35" y="-72.69" font-family="Helvetica,sans-Serif" font-size="10.00" fill="#63b8ff">4</text>
</a>
</g>
</g>
<!-- dir_30ecaf38acae77be14fb9173f98f8612 -->
<g id="node6" class="node">
<title>dir_30ecaf38acae77be14fb9173f98f8612</title>
<g id="a_node6"><a xlink:href="dir_30ecaf38acae77be14fb9173f98f8612.html" target="_top" xlink:title="types">
<polygon fill="#edf0f7" stroke="#7f7f7f" points="97.68,-19 53.68,-19 53.68,0 97.68,0 97.68,-19"/>
<text text-anchor="middle" x="75.68" y="-7" font-family="Helvetica,sans-Serif" font-size="10.00">types</text>
</a>
</g>
</g>
<!-- dir_bf9e2a3d6b93982a82bbe9d883f4fbeb&#45;&gt;dir_30ecaf38acae77be14fb9173f98f8612 -->
<g id="edge2" class="edge">
<title>dir_bf9e2a3d6b93982a82bbe9d883f4fbeb&#45;&gt;dir_30ecaf38acae77be14fb9173f98f8612</title>
<path fill="none" stroke="#63b8ff" d="M123.57,-118.65C94.51,-117.94 33.85,-111.74 6.68,-74 -2.41,-61.38 -1.97,-51.93 6.68,-39 15.03,-26.52 29.96,-19.5 43.8,-15.55"/>
<polygon fill="#63b8ff" stroke="#63b8ff" points="44.68,-18.94 53.57,-13.18 43.03,-12.13 44.68,-18.94"/>
<g id="a_edge2&#45;headlabel"><a xlink:href="dir_000118_000180.html" target="_top" xlink:title="5">
<text text-anchor="middle" x="41.85" y="-20.04" font-family="Helvetica,sans-Serif" font-size="10.00" fill="#63b8ff">5</text>
</a>
</g>
</g>
<!-- dir_521de572ae4fe2915cc70a876c52f5b7 -->
<g id="node7" class="node">
<title>dir_521de572ae4fe2915cc70a876c52f5b7</title>
<g id="a_node7"><a xlink:href="dir_521de572ae4fe2915cc70a876c52f5b7.html" target="_top" xlink:title="container">
<polygon fill="#edf0f7" stroke="red" stroke-dasharray="5,2" points="353.68,-74 291.68,-74 291.68,-55 353.68,-55 353.68,-74"/>
<text text-anchor="middle" x="322.68" y="-62" font-family="Helvetica,sans-Serif" font-size="10.00">container</text>
</a>
</g>
</g>
<!-- dir_bf9e2a3d6b93982a82bbe9d883f4fbeb&#45;&gt;dir_521de572ae4fe2915cc70a876c52f5b7 -->
<g id="edge4" class="edge">
<title>dir_bf9e2a3d6b93982a82bbe9d883f4fbeb&#45;&gt;dir_521de572ae4fe2915cc70a876c52f5b7</title>
<path fill="none" stroke="#63b8ff" d="M155.92,-113.8C184.3,-105.58 243.69,-88.38 283.39,-76.88"/>
<polygon fill="#63b8ff" stroke="#63b8ff" points="284.39,-80.23 293.02,-74.09 282.44,-73.51 284.39,-80.23"/>
<g id="a_edge4&#45;headlabel"><a xlink:href="dir_000118_000046.html" target="_top" xlink:title="5">
<text text-anchor="middle" x="281.73" y="-81.46" font-family="Helvetica,sans-Serif" font-size="10.00" fill="#63b8ff">5</text>
</a>
</g>
</g>
<!-- dir_60d1624911c2c9f7b6f38e44ec895aaa -->
<g id="node8" class="node">
<title>dir_60d1624911c2c9f7b6f38e44ec895aaa</title>
<g id="a_node8"><a xlink:href="dir_60d1624911c2c9f7b6f38e44ec895aaa.html" target="_top" xlink:title="math">
<polygon fill="#edf0f7" stroke="red" stroke-dasharray="5,2" points="413.68,-74 371.68,-74 371.68,-55 413.68,-55 413.68,-74"/>
<text text-anchor="middle" x="392.68" y="-62" font-family="Helvetica,sans-Serif" font-size="10.00">math</text>
</a>
</g>
</g>
<!-- dir_bf9e2a3d6b93982a82bbe9d883f4fbeb&#45;&gt;dir_60d1624911c2c9f7b6f38e44ec895aaa -->
<g id="edge5" class="edge">
<title>dir_bf9e2a3d6b93982a82bbe9d883f4fbeb&#45;&gt;dir_60d1624911c2c9f7b6f38e44ec895aaa</title>
<path fill="none" stroke="#63b8ff" d="M155.73,-115.75C191.12,-109.58 278.71,-93.81 361.61,-74.1"/>
<polygon fill="#63b8ff" stroke="#63b8ff" points="362.52,-77.48 371.43,-71.75 360.89,-70.68 362.52,-77.48"/>
<g id="a_edge5&#45;headlabel"><a xlink:href="dir_000118_000117.html" target="_top" xlink:title="3">
<text text-anchor="middle" x="359.69" y="-78.58" font-family="Helvetica,sans-Serif" font-size="10.00" fill="#63b8ff">3</text>
</a>
</g>
</g>
<!-- dir_f555f996eeee1ebe901dc71e0c5de8ff -->
<g id="node9" class="node">
<title>dir_f555f996eeee1ebe901dc71e0c5de8ff</title>
<g id="a_node9"><a xlink:href="dir_f555f996eeee1ebe901dc71e0c5de8ff.html" target="_top" xlink:title="meta">
<polygon fill="#edf0f7" stroke="#7f7f7f" points="195.68,-19 153.68,-19 153.68,0 195.68,0 195.68,-19"/>
<text text-anchor="middle" x="174.68" y="-7" font-family="Helvetica,sans-Serif" font-size="10.00">meta</text>
</a>
</g>
</g>
<!-- dir_bf9e2a3d6b93982a82bbe9d883f4fbeb&#45;&gt;dir_f555f996eeee1ebe901dc71e0c5de8ff -->
<g id="edge8" class="edge">
<title>dir_bf9e2a3d6b93982a82bbe9d883f4fbeb&#45;&gt;dir_f555f996eeee1ebe901dc71e0c5de8ff</title>
<path fill="none" stroke="#63b8ff" d="M155.69,-118.57C210.3,-118.44 387.77,-114.83 422.68,-74 432.79,-62.18 433.03,-50.61 422.68,-39 408.5,-23.1 269.8,-14.81 206.22,-11.82"/>
<polygon fill="#63b8ff" stroke="#63b8ff" points="206.13,-8.31 195.98,-11.36 205.81,-15.31 206.13,-8.31"/>
<g id="a_edge8&#45;headlabel"><a xlink:href="dir_000118_000122.html" target="_top" xlink:title="19">
<text text-anchor="middle" x="209.85" y="-3.14" font-family="Helvetica,sans-Serif" font-size="10.00" fill="#63b8ff">19</text>
</a>
</g>
</g>
<!-- dir_c6eaad025eec0c5edf1b13e87a245536&#45;&gt;dir_30ecaf38acae77be14fb9173f98f8612 -->
<g id="edge9" class="edge">
<title>dir_c6eaad025eec0c5edf1b13e87a245536&#45;&gt;dir_30ecaf38acae77be14fb9173f98f8612</title>
<path fill="none" stroke="#63b8ff" d="M117.42,-54.75C110.21,-47.11 99.57,-35.82 90.83,-26.56"/>
<polygon fill="#63b8ff" stroke="#63b8ff" points="93.19,-23.96 83.78,-19.09 88.1,-28.76 93.19,-23.96"/>
<g id="a_edge9&#45;headlabel"><a xlink:href="dir_000044_000180.html" target="_top" xlink:title="1">
<text text-anchor="middle" x="97.72" y="-22.13" font-family="Helvetica,sans-Serif" font-size="10.00" fill="#63b8ff">1</text>
</a>
</g>
</g>
<!-- dir_c6eaad025eec0c5edf1b13e87a245536&#45;&gt;dir_f555f996eeee1ebe901dc71e0c5de8ff -->
<g id="edge10" class="edge">
<title>dir_c6eaad025eec0c5edf1b13e87a245536&#45;&gt;dir_f555f996eeee1ebe901dc71e0c5de8ff</title>
<path fill="none" stroke="#63b8ff" d="M133.77,-54.75C140.83,-47.11 151.27,-35.82 159.83,-26.56"/>
<polygon fill="#63b8ff" stroke="#63b8ff" points="162.52,-28.81 166.74,-19.09 157.38,-24.06 162.52,-28.81"/>
<g id="a_edge10&#45;headlabel"><a xlink:href="dir_000044_000122.html" target="_top" xlink:title="7">
<text text-anchor="middle" x="162.16" y="-30.87" font-family="Helvetica,sans-Serif" font-size="10.00" fill="#63b8ff">7</text>
</a>
</g>
</g>
</g>
</svg>
