<?xml version="1.0" encoding="UTF-8" standalone="no"?>
<!DOCTYPE svg PUBLIC "-//W3C//DTD SVG 1.1//EN"
 "http://www.w3.org/Graphics/SVG/1.1/DTD/svg11.dtd">
<!-- Generated by graphviz version 2.43.0 (0)
 -->
<!-- Title: libs/di/include/di/bit/bitstruct Pages: 1 -->
<svg width="376pt" height="133pt"
 viewBox="0.00 0.00 376.00 133.00" xmlns="http://www.w3.org/2000/svg" xmlns:xlink="http://www.w3.org/1999/xlink">
<g id="graph0" class="graph" transform="scale(1 1) rotate(0) translate(4 129)">
<title>libs/di/include/di/bit/bitstruct</title>
<g id="clust1" class="cluster">
<title>clusterdir_143f1d6bc6d46924c644ec67dc1fb4fc</title>
<g id="a_clust1"><a xlink:href="dir_143f1d6bc6d46924c644ec67dc1fb4fc.html" target="_top" xlink:title="bit">
<polygon fill="#edf0f7" stroke="#7f7f7f" stroke-dasharray="5,2" points="8,-8 8,-117 82,-117 82,-8 8,-8"/>
<text text-anchor="middle" x="45" y="-105" font-family="Helvetica,sans-Serif" font-size="10.00">bit</text>
</a>
</g>
</g>
<!-- dir_0811e5724a3392528f19c26dd8765a64 -->
<g id="node1" class="node">
<title>dir_0811e5724a3392528f19c26dd8765a64</title>
<g id="a_node1"><a xlink:href="dir_0811e5724a3392528f19c26dd8765a64.html" target="_top" xlink:title="bitset">
<polygon fill="#a2b4d6" stroke="#404040" points="67,-35 23,-35 23,-16 67,-16 67,-35"/>
<text text-anchor="middle" x="45" y="-23" font-family="Helvetica,sans-Serif" font-size="10.00">bitset</text>
</a>
</g>
</g>
<!-- dir_1c9126a5db4dc8a791bfa47b354adbe8 -->
<g id="node2" class="node">
<title>dir_1c9126a5db4dc8a791bfa47b354adbe8</title>
<g id="a_node2"><a xlink:href="dir_1c9126a5db4dc8a791bfa47b354adbe8.html" target="_top" xlink:title="bitstruct">
<polygon fill="#edf0f7" stroke="#404040" stroke-width="2" points="73.5,-90 16.5,-90 16.5,-71 73.5,-71 73.5,-90"/>
<text text-anchor="middle" x="45" y="-78" font-family="Helvetica,sans-Serif" font-size="10.00">bitstruct</text>
</a>
</g>
</g>
<!-- dir_1c9126a5db4dc8a791bfa47b354adbe8&#45;&gt;dir_0811e5724a3392528f19c26dd8765a64 -->
<g id="edge1" class="edge">
<title>dir_1c9126a5db4dc8a791bfa47b354adbe8&#45;&gt;dir_0811e5724a3392528f19c26dd8765a64</title>
<path fill="none" stroke="#63b8ff" d="M45,-70.75C45,-63.8 45,-53.85 45,-45.13"/>
<polygon fill="#63b8ff" stroke="#63b8ff" points="48.5,-45.09 45,-35.09 41.5,-45.09 48.5,-45.09"/>
<g id="a_edge1&#45;headlabel"><a xlink:href="dir_000025_000024.html" target="_top" xlink:title="2">
<text text-anchor="middle" x="51.34" y="-46.18" font-family="Helvetica,sans-Serif" font-size="10.00" fill="#63b8ff">2</text>
</a>
</g>
</g>
<!-- dir_30ecaf38acae77be14fb9173f98f8612 -->
<g id="node3" class="node">
<title>dir_30ecaf38acae77be14fb9173f98f8612</title>
<g id="a_node3"><a xlink:href="dir_30ecaf38acae77be14fb9173f98f8612.html" target="_top" xlink:title="types">
<polygon fill="#edf0f7" stroke="#7f7f7f" points="134,-35 90,-35 90,-16 134,-16 134,-35"/>
<text text-anchor="middle" x="112" y="-23" font-family="Helvetica,sans-Serif" font-size="10.00">types</text>
</a>
</g>
</g>
<!-- dir_1c9126a5db4dc8a791bfa47b354adbe8&#45;&gt;dir_30ecaf38acae77be14fb9173f98f8612 -->
<g id="edge2" class="edge">
<title>dir_1c9126a5db4dc8a791bfa47b354adbe8&#45;&gt;dir_30ecaf38acae77be14fb9173f98f8612</title>
<path fill="none" stroke="#63b8ff" d="M55.76,-70.98C65.77,-63.07 80.89,-51.11 92.93,-41.58"/>
<polygon fill="#63b8ff" stroke="#63b8ff" points="95.37,-44.12 101.04,-35.17 91.03,-38.63 95.37,-44.12"/>
<g id="a_edge2&#45;headlabel"><a xlink:href="dir_000025_000180.html" target="_top" xlink:title="1">
<text text-anchor="middle" x="94.31" y="-46.08" font-family="Helvetica,sans-Serif" font-size="10.00" fill="#63b8ff">1</text>
</a>
</g>
</g>
<!-- dir_4535887b2cdca47e625f259d07db0112 -->
<g id="node4" class="node">
<title>dir_4535887b2cdca47e625f259d07db0112</title>
<g id="a_node4"><a xlink:href="dir_4535887b2cdca47e625f259d07db0112.html" target="_top" xlink:title="util">
<polygon fill="#edf0f7" stroke="#7f7f7f" points="184,-35 152,-35 152,-16 184,-16 184,-35"/>
<text text-anchor="middle" x="168" y="-23" font-family="Helvetica,sans-Serif" font-size="10.00">util</text>
</a>
</g>
</g>
<!-- dir_1c9126a5db4dc8a791bfa47b354adbe8&#45;&gt;dir_4535887b2cdca47e625f259d07db0112 -->
<g id="edge3" class="edge">
<title>dir_1c9126a5db4dc8a791bfa47b354adbe8&#45;&gt;dir_4535887b2cdca47e625f259d07db0112</title>
<path fill="none" stroke="#63b8ff" d="M64.76,-70.98C85.92,-61.87 119.54,-47.38 142.64,-37.43"/>
<polygon fill="#63b8ff" stroke="#63b8ff" points="144.02,-40.64 151.82,-33.47 141.25,-34.21 144.02,-40.64"/>
<g id="a_edge3&#45;headlabel"><a xlink:href="dir_000025_000185.html" target="_top" xlink:title="2">
<text text-anchor="middle" x="141.84" y="-42.17" font-family="Helvetica,sans-Serif" font-size="10.00" fill="#63b8ff">2</text>
</a>
</g>
</g>
<!-- dir_60d1624911c2c9f7b6f38e44ec895aaa -->
<g id="node5" class="node">
<title>dir_60d1624911c2c9f7b6f38e44ec895aaa</title>
<g id="a_node5"><a xlink:href="dir_60d1624911c2c9f7b6f38e44ec895aaa.html" target="_top" xlink:title="math">
<polygon fill="#edf0f7" stroke="red" stroke-dasharray="5,2" points="244,-35 202,-35 202,-16 244,-16 244,-35"/>
<text text-anchor="middle" x="223" y="-23" font-family="Helvetica,sans-Serif" font-size="10.00">math</text>
</a>
</g>
</g>
<!-- dir_1c9126a5db4dc8a791bfa47b354adbe8&#45;&gt;dir_60d1624911c2c9f7b6f38e44ec895aaa -->
<g id="edge4" class="edge">
<title>dir_1c9126a5db4dc8a791bfa47b354adbe8&#45;&gt;dir_60d1624911c2c9f7b6f38e44ec895aaa</title>
<path fill="none" stroke="#63b8ff" d="M73.6,-70.98C106.11,-61.31 158.97,-45.57 192.32,-35.64"/>
<polygon fill="#63b8ff" stroke="#63b8ff" points="193.41,-38.96 202,-32.75 191.41,-32.25 193.41,-38.96"/>
<g id="a_edge4&#45;headlabel"><a xlink:href="dir_000025_000117.html" target="_top" xlink:title="1">
<text text-anchor="middle" x="190.78" y="-40.21" font-family="Helvetica,sans-Serif" font-size="10.00" fill="#63b8ff">1</text>
</a>
</g>
</g>
<!-- dir_942cfae36a92b6b1c4b510e99e852d40 -->
<g id="node6" class="node">
<title>dir_942cfae36a92b6b1c4b510e99e852d40</title>
<g id="a_node6"><a xlink:href="dir_942cfae36a92b6b1c4b510e99e852d40.html" target="_top" xlink:title="vocab">
<polygon fill="#edf0f7" stroke="red" stroke-dasharray="5,2" points="308,-35 262,-35 262,-16 308,-16 308,-35"/>
<text text-anchor="middle" x="285" y="-23" font-family="Helvetica,sans-Serif" font-size="10.00">vocab</text>
</a>
</g>
</g>
<!-- dir_1c9126a5db4dc8a791bfa47b354adbe8&#45;&gt;dir_942cfae36a92b6b1c4b510e99e852d40 -->
<g id="edge5" class="edge">
<title>dir_1c9126a5db4dc8a791bfa47b354adbe8&#45;&gt;dir_942cfae36a92b6b1c4b510e99e852d40</title>
<path fill="none" stroke="#63b8ff" d="M73.7,-73.82C112.11,-66.12 182.56,-51.65 252.15,-35.11"/>
<polygon fill="#63b8ff" stroke="#63b8ff" points="253.05,-38.49 261.96,-32.76 251.42,-31.69 253.05,-38.49"/>
<g id="a_edge5&#45;headlabel"><a xlink:href="dir_000025_000189.html" target="_top" xlink:title="2">
<text text-anchor="middle" x="250.22" y="-39.59" font-family="Helvetica,sans-Serif" font-size="10.00" fill="#63b8ff">2</text>
</a>
</g>
</g>
<!-- dir_f555f996eeee1ebe901dc71e0c5de8ff -->
<g id="node7" class="node">
<title>dir_f555f996eeee1ebe901dc71e0c5de8ff</title>
<g id="a_node7"><a xlink:href="dir_f555f996eeee1ebe901dc71e0c5de8ff.html" target="_top" xlink:title="meta">
<polygon fill="#edf0f7" stroke="#7f7f7f" points="368,-35 326,-35 326,-16 368,-16 368,-35"/>
<text text-anchor="middle" x="347" y="-23" font-family="Helvetica,sans-Serif" font-size="10.00">meta</text>
</a>
</g>
</g>
<!-- dir_1c9126a5db4dc8a791bfa47b354adbe8&#45;&gt;dir_f555f996eeee1ebe901dc71e0c5de8ff -->
<g id="edge6" class="edge">
<title>dir_1c9126a5db4dc8a791bfa47b354adbe8&#45;&gt;dir_f555f996eeee1ebe901dc71e0c5de8ff</title>
<path fill="none" stroke="#63b8ff" d="M73.79,-75.89C121.96,-69.61 222.04,-55.56 315.84,-35.04"/>
<polygon fill="#63b8ff" stroke="#63b8ff" points="316.77,-38.42 325.77,-32.84 315.25,-31.59 316.77,-38.42"/>
<g id="a_edge6&#45;headlabel"><a xlink:href="dir_000025_000122.html" target="_top" xlink:title="3">
<text text-anchor="middle" x="313.87" y="-39.47" font-family="Helvetica,sans-Serif" font-size="10.00" fill="#63b8ff">3</text>
</a>
</g>
</g>
</g>
</svg>
