<?xml version="1.0" encoding="UTF-8" standalone="no"?>
<!DOCTYPE svg PUBLIC "-//W3C//DTD SVG 1.1//EN"
 "http://www.w3.org/Graphics/SVG/1.1/DTD/svg11.dtd">
<!-- Generated by graphviz version 2.43.0 (0)
 -->
<!-- Title: Graphical Class Hierarchy Pages: 1 -->
<svg width="257pt" height="86pt"
 viewBox="0.00 0.00 257.00 86.00" xmlns="http://www.w3.org/2000/svg" xmlns:xlink="http://www.w3.org/1999/xlink">
<g id="graph0" class="graph" transform="scale(1 1) rotate(0) translate(4 82)">
<title>Graphical Class Hierarchy</title>
<!-- Node0 -->
<g id="Node000000" class="node">
<title>Node0</title>
<g id="a_Node000000"><a xlink:href="structdi_1_1bit_1_1BitField.html" target="_top" xlink:title=" ">
<polygon fill="white" stroke="#666666" points="95,-54 0,-54 0,-24 95,-24 95,-54"/>
<text text-anchor="start" x="8" y="-42" font-family="Helvetica,sans-Serif" font-size="10.00">di::bit::BitField&lt;</text>
<text text-anchor="middle" x="47.5" y="-31" font-family="Helvetica,sans-Serif" font-size="10.00"> 64, 32 &gt;</text>
</a>
</g>
</g>
<!-- Node1 -->
<g id="Node000001" class="node">
<title>Node1</title>
<g id="a_Node000001"><a xlink:href="structiris_1_1x86_1_1amd64_1_1idt_1_1TargetHigh.html" target="_top" xlink:title=" ">
<polygon fill="white" stroke="#666666" points="247,-78 133,-78 133,-48 247,-48 247,-78"/>
<text text-anchor="start" x="141" y="-66" font-family="Helvetica,sans-Serif" font-size="10.00">iris::x86::amd64::idt</text>
<text text-anchor="middle" x="190" y="-55" font-family="Helvetica,sans-Serif" font-size="10.00">::TargetHigh</text>
</a>
</g>
</g>
<!-- Node0&#45;&gt;Node1 -->
<g id="edge44_Node000000_Node000001" class="edge">
<title>Node0&#45;&gt;Node1</title>
<g id="a_edge44_Node000000_Node000001"><a xlink:title=" ">
<path fill="none" stroke="#63b8ff" d="M105.3,-48.7C114.32,-50.24 123.65,-51.84 132.66,-53.38"/>
<polygon fill="#63b8ff" stroke="#63b8ff" points="105.73,-45.23 95.28,-46.99 104.55,-52.13 105.73,-45.23"/>
</a>
</g>
</g>
<!-- Node2 -->
<g id="Node000002" class="node">
<title>Node2</title>
<g id="a_Node000002"><a xlink:href="structiris_1_1x86_1_1amd64_1_1ssd_1_1BaseHigh.html" target="_top" xlink:title=" ">
<polygon fill="white" stroke="#666666" points="249,-30 131,-30 131,0 249,0 249,-30"/>
<text text-anchor="start" x="139" y="-18" font-family="Helvetica,sans-Serif" font-size="10.00">iris::x86::amd64::ssd</text>
<text text-anchor="middle" x="190" y="-7" font-family="Helvetica,sans-Serif" font-size="10.00">::BaseHigh</text>
</a>
</g>
</g>
<!-- Node0&#45;&gt;Node2 -->
<g id="edge45_Node000000_Node000002" class="edge">
<title>Node0&#45;&gt;Node2</title>
<g id="a_edge45_Node000000_Node000002"><a xlink:title=" ">
<path fill="none" stroke="#63b8ff" d="M105.31,-29.3C113.67,-27.87 122.29,-26.4 130.67,-24.96"/>
<polygon fill="#63b8ff" stroke="#63b8ff" points="104.55,-25.87 95.28,-31.01 105.73,-32.77 104.55,-25.87"/>
</a>
</g>
</g>
</g>
</svg>
