<?xml version="1.0" encoding="UTF-8" standalone="no"?>
<!DOCTYPE svg PUBLIC "-//W3C//DTD SVG 1.1//EN"
 "http://www.w3.org/Graphics/SVG/1.1/DTD/svg11.dtd">
<!-- Generated by graphviz version 2.43.0 (0)
 -->
<!-- Title: Graphical Class Hierarchy Pages: 1 -->
<svg width="324pt" height="86pt"
 viewBox="0.00 0.00 324.00 86.00" xmlns="http://www.w3.org/2000/svg" xmlns:xlink="http://www.w3.org/1999/xlink">
<g id="graph0" class="graph" transform="scale(1 1) rotate(0) translate(4 82)">
<title>Graphical Class Hierarchy</title>
<!-- Node0 -->
<g id="Node000000" class="node">
<title>Node0</title>
<g id="a_Node000000"><a xlink:href="structdi_1_1meta_1_1TypeConstant.html" target="_top" xlink:title=" ">
<polygon fill="white" stroke="#666666" points="129,-54 0,-54 0,-24 129,-24 129,-54"/>
<text text-anchor="start" x="8" y="-42" font-family="Helvetica,sans-Serif" font-size="10.00">di::meta::TypeConstant</text>
<text text-anchor="middle" x="64.5" y="-31" font-family="Helvetica,sans-Serif" font-size="10.00">&lt; R volatile &gt;</text>
</a>
</g>
</g>
<!-- Node1 -->
<g id="Node000001" class="node">
<title>Node1</title>
<g id="a_Node000001"><a xlink:href="structdi_1_1meta_1_1detail_1_1UnionCV_3_01T_01volatile_00_01U_01volatile_00_01R_01_4.html" target="_top" xlink:title=" ">
<polygon fill="white" stroke="#666666" points="316,-78 165,-78 165,-48 316,-48 316,-78"/>
<text text-anchor="start" x="173" y="-66" font-family="Helvetica,sans-Serif" font-size="10.00">di::meta::detail::UnionCV</text>
<text text-anchor="middle" x="240.5" y="-55" font-family="Helvetica,sans-Serif" font-size="10.00">&lt; T volatile, U volatile, R &gt;</text>
</a>
</g>
</g>
<!-- Node0&#45;&gt;Node1 -->
<g id="edge498_Node000000_Node000001" class="edge">
<title>Node0&#45;&gt;Node1</title>
<g id="a_edge498_Node000000_Node000001"><a xlink:title=" ">
<path fill="none" stroke="#63b8ff" d="M139.44,-49.2C147.83,-50.36 156.39,-51.54 164.8,-52.7"/>
<polygon fill="#63b8ff" stroke="#63b8ff" points="139.69,-45.7 129.3,-47.8 138.73,-52.63 139.69,-45.7"/>
</a>
</g>
</g>
<!-- Node2 -->
<g id="Node000002" class="node">
<title>Node2</title>
<g id="a_Node000002"><a xlink:href="structdi_1_1meta_1_1detail_1_1UnionCV_3_01T_01volatile_00_01U_00_01R_01_4.html" target="_top" xlink:title=" ">
<polygon fill="white" stroke="#666666" points="310,-30 171,-30 171,0 310,0 310,-30"/>
<text text-anchor="start" x="179" y="-18" font-family="Helvetica,sans-Serif" font-size="10.00">di::meta::detail::UnionCV</text>
<text text-anchor="middle" x="240.5" y="-7" font-family="Helvetica,sans-Serif" font-size="10.00">&lt; T volatile, U, R &gt;</text>
</a>
</g>
</g>
<!-- Node0&#45;&gt;Node2 -->
<g id="edge499_Node000000_Node000002" class="edge">
<title>Node0&#45;&gt;Node2</title>
<g id="a_edge499_Node000000_Node000002"><a xlink:title=" ">
<path fill="none" stroke="#63b8ff" d="M139.22,-28.83C149.67,-27.39 160.38,-25.91 170.72,-24.49"/>
<polygon fill="#63b8ff" stroke="#63b8ff" points="138.73,-25.37 129.3,-30.2 139.69,-32.3 138.73,-25.37"/>
</a>
</g>
</g>
</g>
</svg>
