<?xml version="1.0" encoding="UTF-8" standalone="no"?>
<!DOCTYPE svg PUBLIC "-//W3C//DTD SVG 1.1//EN"
 "http://www.w3.org/Graphics/SVG/1.1/DTD/svg11.dtd">
<!-- Generated by graphviz version 2.43.0 (0)
 -->
<!-- Title: Graphical Class Hierarchy Pages: 1 -->
<svg width="317pt" height="64pt"
 viewBox="0.00 0.00 317.00 64.00" xmlns="http://www.w3.org/2000/svg" xmlns:xlink="http://www.w3.org/1999/xlink">
<g id="graph0" class="graph" transform="scale(1 1) rotate(0) translate(4 60)">
<title>Graphical Class Hierarchy</title>
<!-- Node0 -->
<g id="Node000000" class="node">
<title>Node0</title>
<g id="a_Node000000"><a xlink:title=" ">
<polygon fill="#e0e0e0" stroke="#999999" points="109,-56 0,-56 0,-37 109,-37 109,-56"/>
<text text-anchor="middle" x="54.5" y="-44" font-family="Helvetica,sans-Serif" font-size="10.00">detail::MethodImpl</text>
</a>
</g>
</g>
<!-- Node1 -->
<g id="Node000001" class="node">
<title>Node1</title>
<g id="a_Node000001"><a xlink:href="classdi_1_1any_1_1AnyT_1_1Type.html" target="_top" xlink:title=" ">
<polygon fill="white" stroke="#666666" points="309,-42.5 145,-42.5 145,-12.5 309,-12.5 309,-42.5"/>
<text text-anchor="start" x="153" y="-30.5" font-family="Helvetica,sans-Serif" font-size="10.00">di::any::AnyT&lt; UserInterface,</text>
<text text-anchor="middle" x="227" y="-19.5" font-family="Helvetica,sans-Serif" font-size="10.00"> Storage, VTablePolicy &gt;::Type</text>
</a>
</g>
</g>
<!-- Node0&#45;&gt;Node1 -->
<g id="edge6_Node000000_Node000001" class="edge">
<title>Node0&#45;&gt;Node1</title>
<g id="a_edge6_Node000000_Node000001"><a xlink:title=" ">
<path fill="none" stroke="#8b1a1a" d="M119.45,-39.37C127.79,-38.44 136.42,-37.48 144.99,-36.53"/>
<polygon fill="#8b1a1a" stroke="#8b1a1a" points="119,-35.9 109.45,-40.49 119.77,-42.86 119,-35.9"/>
</a>
</g>
</g>
<!-- Node2 -->
<g id="Node000002" class="node">
<title>Node2</title>
<g id="a_Node000002"><a xlink:title=" ">
<polygon fill="#e0e0e0" stroke="#999999" points="81.5,-19 27.5,-19 27.5,0 81.5,0 81.5,-19"/>
<text text-anchor="middle" x="54.5" y="-7" font-family="Helvetica,sans-Serif" font-size="10.00">Storage</text>
</a>
</g>
</g>
<!-- Node2&#45;&gt;Node1 -->
<g id="edge7_Node000002_Node000001" class="edge">
<title>Node2&#45;&gt;Node1</title>
<g id="a_edge7_Node000002_Node000001"><a xlink:title=" ">
<path fill="none" stroke="#63b8ff" d="M91.93,-13.35C107.43,-14.98 126.18,-16.96 144.67,-18.91"/>
<polygon fill="#63b8ff" stroke="#63b8ff" points="92.08,-9.84 81.77,-12.27 91.34,-16.8 92.08,-9.84"/>
</a>
</g>
</g>
</g>
</svg>
