<?xml version="1.0" encoding="UTF-8" standalone="no"?>
<!DOCTYPE svg PUBLIC "-//W3C//DTD SVG 1.1//EN"
 "http://www.w3.org/Graphics/SVG/1.1/DTD/svg11.dtd">
<!-- Generated by graphviz version 2.43.0 (0)
 -->
<!-- Title: Graphical Class Hierarchy Pages: 1 -->
<svg width="520pt" height="251pt"
 viewBox="0.00 0.00 520.00 250.50" xmlns="http://www.w3.org/2000/svg" xmlns:xlink="http://www.w3.org/1999/xlink">
<g id="graph0" class="graph" transform="scale(1 1) rotate(0) translate(4 246.5)">
<title>Graphical Class Hierarchy</title>
<!-- Node0 -->
<g id="Node000000" class="node">
<title>Node0</title>
<g id="a_Node000000"><a xlink:href="classdi_1_1container_1_1ConstantRingInterface.html" target="_top" xlink:title=" ">
<polygon fill="white" stroke="#666666" points="149,-145 0,-145 0,-115 149,-115 149,-145"/>
<text text-anchor="start" x="8" y="-133" font-family="Helvetica,sans-Serif" font-size="10.00">di::container::ConstantRing</text>
<text text-anchor="middle" x="74.5" y="-122" font-family="Helvetica,sans-Serif" font-size="10.00">Interface&lt; Self, Value &gt;</text>
</a>
</g>
</g>
<!-- Node1 -->
<g id="Node000001" class="node">
<title>Node1</title>
<g id="a_Node000001"><a xlink:href="classdi_1_1container_1_1MutableRingInterface.html" target="_top" xlink:title=" ">
<polygon fill="white" stroke="#666666" points="343,-242.5 185,-242.5 185,-201.5 343,-201.5 343,-242.5"/>
<text text-anchor="start" x="193" y="-230.5" font-family="Helvetica,sans-Serif" font-size="10.00">di::container::MutableRing</text>
<text text-anchor="start" x="193" y="-219.5" font-family="Helvetica,sans-Serif" font-size="10.00">Interface&lt; Ring&lt; T, platform</text>
<text text-anchor="middle" x="264" y="-208.5" font-family="Helvetica,sans-Serif" font-size="10.00">::DefaultAllocator &gt;, T &gt;</text>
</a>
</g>
</g>
<!-- Node0&#45;&gt;Node1 -->
<g id="edge108_Node000000_Node000001" class="edge">
<title>Node0&#45;&gt;Node1</title>
<g id="a_edge108_Node000000_Node000001"><a xlink:title=" ">
<path fill="none" stroke="#63b8ff" d="M107.92,-150.56C129.32,-163.65 158.25,-180.44 185,-193 191.15,-195.89 197.66,-198.69 204.21,-201.34"/>
<polygon fill="#63b8ff" stroke="#63b8ff" points="109.59,-147.47 99.24,-145.2 105.91,-153.43 109.59,-147.47"/>
</a>
</g>
</g>
<!-- Node2 -->
<g id="Node000002" class="node">
<title>Node2</title>
<g id="a_Node000002"><a xlink:href="classdi_1_1container_1_1MutableRingInterface.html" target="_top" xlink:title=" ">
<polygon fill="white" stroke="#666666" points="336.5,-183.5 191.5,-183.5 191.5,-142.5 336.5,-142.5 336.5,-183.5"/>
<text text-anchor="start" x="199.5" y="-171.5" font-family="Helvetica,sans-Serif" font-size="10.00">di::container::MutableRing</text>
<text text-anchor="start" x="199.5" y="-160.5" font-family="Helvetica,sans-Serif" font-size="10.00">Interface&lt; StaticRing&lt;</text>
<text text-anchor="middle" x="264" y="-149.5" font-family="Helvetica,sans-Serif" font-size="10.00"> T, SizeConstant &gt;, T &gt;</text>
</a>
</g>
</g>
<!-- Node0&#45;&gt;Node2 -->
<g id="edge109_Node000000_Node000002" class="edge">
<title>Node0&#45;&gt;Node2</title>
<g id="a_edge109_Node000000_Node000002"><a xlink:title=" ">
<path fill="none" stroke="#63b8ff" d="M158.96,-144.69C169.82,-146.6 180.85,-148.54 191.49,-150.41"/>
<polygon fill="#63b8ff" stroke="#63b8ff" points="159.52,-141.23 149.07,-142.95 158.31,-148.13 159.52,-141.23"/>
</a>
</g>
</g>
<!-- Node4 -->
<g id="Node000004" class="node">
<title>Node4</title>
<g id="a_Node000004"><a xlink:href="classdi_1_1container_1_1MutableRingInterface.html" target="_top" xlink:title=" ">
<polygon fill="white" stroke="#666666" points="337.5,-124 190.5,-124 190.5,-72 337.5,-72 337.5,-124"/>
<text text-anchor="start" x="198.5" y="-112" font-family="Helvetica,sans-Serif" font-size="10.00">di::container::MutableRing</text>
<text text-anchor="start" x="198.5" y="-101" font-family="Helvetica,sans-Serif" font-size="10.00">Interface&lt; Ring&lt; Value,</text>
<text text-anchor="start" x="198.5" y="-90" font-family="Helvetica,sans-Serif" font-size="10.00"> platform::DefaultAllocator</text>
<text text-anchor="middle" x="264" y="-79" font-family="Helvetica,sans-Serif" font-size="10.00"> &gt;, Value &gt;</text>
</a>
</g>
</g>
<!-- Node0&#45;&gt;Node4 -->
<g id="edge111_Node000000_Node000004" class="edge">
<title>Node0&#45;&gt;Node4</title>
<g id="a_edge111_Node000000_Node000004"><a xlink:title=" ">
<path fill="none" stroke="#63b8ff" d="M158.99,-115.75C169.42,-113.97 180.02,-112.16 190.26,-110.41"/>
<polygon fill="#63b8ff" stroke="#63b8ff" points="158.34,-112.31 149.07,-117.44 159.51,-119.21 158.34,-112.31"/>
</a>
</g>
</g>
<!-- Node5 -->
<g id="Node000005" class="node">
<title>Node5</title>
<g id="a_Node000005"><a xlink:href="classdi_1_1container_1_1MutableRingInterface.html" target="_top" xlink:title=" ">
<polygon fill="white" stroke="#666666" points="336.5,-54 191.5,-54 191.5,-24 336.5,-24 336.5,-54"/>
<text text-anchor="start" x="199.5" y="-42" font-family="Helvetica,sans-Serif" font-size="10.00">di::container::MutableRing</text>
<text text-anchor="middle" x="264" y="-31" font-family="Helvetica,sans-Serif" font-size="10.00">Interface&lt; Self, Value &gt;</text>
</a>
</g>
</g>
<!-- Node0&#45;&gt;Node5 -->
<g id="edge112_Node000000_Node000005" class="edge">
<title>Node0&#45;&gt;Node5</title>
<g id="a_edge112_Node000000_Node000005"><a xlink:title=" ">
<path fill="none" stroke="#63b8ff" d="M104.77,-109.29C126.21,-94.83 156.43,-75.89 185,-63 192.23,-59.74 200.03,-56.75 207.81,-54.08"/>
<polygon fill="#63b8ff" stroke="#63b8ff" points="102.72,-106.46 96.43,-114.99 106.67,-112.24 102.72,-106.46"/>
</a>
</g>
</g>
<!-- Node3 -->
<g id="Node000003" class="node">
<title>Node3</title>
<g id="a_Node000003"><a xlink:href="classdi_1_1container_1_1StaticRing.html" target="_top" xlink:title=" ">
<polygon fill="white" stroke="#666666" points="512,-178 379,-178 379,-148 512,-148 512,-178"/>
<text text-anchor="start" x="387" y="-166" font-family="Helvetica,sans-Serif" font-size="10.00">di::container::StaticRing</text>
<text text-anchor="middle" x="445.5" y="-155" font-family="Helvetica,sans-Serif" font-size="10.00">&lt; T, SizeConstant &gt;</text>
</a>
</g>
</g>
<!-- Node2&#45;&gt;Node3 -->
<g id="edge110_Node000002_Node000003" class="edge">
<title>Node2&#45;&gt;Node3</title>
<g id="a_edge110_Node000002_Node000003"><a xlink:title=" ">
<path fill="none" stroke="#63b8ff" d="M346.88,-163C357.54,-163 368.36,-163 378.71,-163"/>
<polygon fill="#63b8ff" stroke="#63b8ff" points="346.72,-159.5 336.72,-163 346.72,-166.5 346.72,-159.5"/>
</a>
</g>
</g>
<!-- Node6 -->
<g id="Node000006" class="node">
<title>Node6</title>
<g id="a_Node000006"><a xlink:href="classdi_1_1container_1_1Ring.html" target="_top" xlink:title=" ">
<polygon fill="white" stroke="#666666" points="498,-78 393,-78 393,-48 498,-48 498,-78"/>
<text text-anchor="start" x="401" y="-66" font-family="Helvetica,sans-Serif" font-size="10.00">di::container::Ring</text>
<text text-anchor="middle" x="445.5" y="-55" font-family="Helvetica,sans-Serif" font-size="10.00">&lt; Value &gt;</text>
</a>
</g>
</g>
<!-- Node5&#45;&gt;Node6 -->
<g id="edge113_Node000005_Node000006" class="edge">
<title>Node5&#45;&gt;Node6</title>
<g id="a_edge113_Node000005_Node000006"><a xlink:title=" ">
<path fill="none" stroke="#63b8ff" d="M346.91,-49.95C362.52,-52.04 378.45,-54.17 392.79,-56.09"/>
<polygon fill="#63b8ff" stroke="#63b8ff" points="347.09,-46.45 336.72,-48.59 346.16,-53.38 347.09,-46.45"/>
</a>
</g>
</g>
<!-- Node7 -->
<g id="Node000007" class="node">
<title>Node7</title>
<g id="a_Node000007"><a xlink:href="classdi_1_1container_1_1Ring.html" target="_top" xlink:title=" ">
<polygon fill="white" stroke="#666666" points="498,-30 393,-30 393,0 498,0 498,-30"/>
<text text-anchor="start" x="401" y="-18" font-family="Helvetica,sans-Serif" font-size="10.00">di::container::Ring</text>
<text text-anchor="middle" x="445.5" y="-7" font-family="Helvetica,sans-Serif" font-size="10.00">&lt; T, Alloc &gt;</text>
</a>
</g>
</g>
<!-- Node5&#45;&gt;Node7 -->
<g id="edge114_Node000005_Node000007" class="edge">
<title>Node5&#45;&gt;Node7</title>
<g id="a_edge114_Node000005_Node000007"><a xlink:title=" ">
<path fill="none" stroke="#63b8ff" d="M346.91,-28.05C362.52,-25.96 378.45,-23.83 392.79,-21.91"/>
<polygon fill="#63b8ff" stroke="#63b8ff" points="346.16,-24.62 336.72,-29.41 347.09,-31.55 346.16,-24.62"/>
</a>
</g>
</g>
</g>
</svg>
