<?xml version="1.0" encoding="UTF-8" standalone="no"?>
<!DOCTYPE svg PUBLIC "-//W3C//DTD SVG 1.1//EN"
 "http://www.w3.org/Graphics/SVG/1.1/DTD/svg11.dtd">
<!-- Generated by graphviz version 2.43.0 (0)
 -->
<!-- Title: Graphical Class Hierarchy Pages: 1 -->
<svg width="341pt" height="86pt"
 viewBox="0.00 0.00 341.00 86.00" xmlns="http://www.w3.org/2000/svg" xmlns:xlink="http://www.w3.org/1999/xlink">
<g id="graph0" class="graph" transform="scale(1 1) rotate(0) translate(4 82)">
<title>Graphical Class Hierarchy</title>
<!-- Node0 -->
<g id="Node000000" class="node">
<title>Node0</title>
<g id="a_Node000000"><a xlink:href="structdi_1_1parser_1_1detail_1_1AlternationParserMarker.html" target="_top" xlink:title=" ">
<polygon fill="white" stroke="#666666" points="165,-78 25,-78 25,-48 165,-48 165,-78"/>
<text text-anchor="start" x="33" y="-66" font-family="Helvetica,sans-Serif" font-size="10.00">di::parser::detail</text>
<text text-anchor="middle" x="95" y="-55" font-family="Helvetica,sans-Serif" font-size="10.00">::AlternationParserMarker</text>
</a>
</g>
</g>
<!-- Node1 -->
<g id="Node000001" class="node">
<title>Node1</title>
<g id="a_Node000001"><a xlink:href="classdi_1_1parser_1_1detail_1_1AlternationParser.html" target="_top" xlink:title=" ">
<polygon fill="white" stroke="#666666" points="333,-59.5 226,-59.5 226,-18.5 333,-18.5 333,-59.5"/>
<text text-anchor="start" x="234" y="-47.5" font-family="Helvetica,sans-Serif" font-size="10.00">di::parser::detail</text>
<text text-anchor="start" x="234" y="-36.5" font-family="Helvetica,sans-Serif" font-size="10.00">::AlternationParser</text>
<text text-anchor="middle" x="279.5" y="-25.5" font-family="Helvetica,sans-Serif" font-size="10.00">&lt; Parsers &gt;</text>
</a>
</g>
</g>
<!-- Node0&#45;&gt;Node1 -->
<g id="edge573_Node000000_Node000001" class="edge">
<title>Node0&#45;&gt;Node1</title>
<g id="a_edge573_Node000000_Node000001"><a xlink:title=" ">
<path fill="none" stroke="#63b8ff" d="M175.24,-52.58C192.33,-50.33 209.99,-48.01 225.78,-45.93"/>
<polygon fill="#63b8ff" stroke="#63b8ff" points="174.71,-49.12 165.26,-53.89 175.63,-56.06 174.71,-49.12"/>
</a>
</g>
</g>
<!-- Node2 -->
<g id="Node000002" class="node">
<title>Node2</title>
<g id="a_Node000002"><a xlink:href="classdi_1_1parser_1_1ParserBase.html" target="_top" xlink:title=" ">
<polygon fill="white" stroke="#666666" points="190,-30 0,-30 0,0 190,0 190,-30"/>
<text text-anchor="start" x="8" y="-18" font-family="Helvetica,sans-Serif" font-size="10.00">di::parser::ParserBase</text>
<text text-anchor="middle" x="95" y="-7" font-family="Helvetica,sans-Serif" font-size="10.00">&lt; AlternationParser&lt; Parsers... &gt; &gt;</text>
</a>
</g>
</g>
<!-- Node2&#45;&gt;Node1 -->
<g id="edge574_Node000002_Node000001" class="edge">
<title>Node2&#45;&gt;Node1</title>
<g id="a_edge574_Node000002_Node000001"><a xlink:title=" ">
<path fill="none" stroke="#63b8ff" d="M200.17,-28.7C208.96,-29.85 217.58,-30.99 225.71,-32.06"/>
<polygon fill="#63b8ff" stroke="#63b8ff" points="200.56,-25.22 190.19,-27.39 199.65,-32.16 200.56,-25.22"/>
</a>
</g>
</g>
</g>
</svg>
