<?xml version="1.0" encoding="UTF-8" standalone="no"?>
<!DOCTYPE svg PUBLIC "-//W3C//DTD SVG 1.1//EN"
 "http://www.w3.org/Graphics/SVG/1.1/DTD/svg11.dtd">
<!-- Generated by graphviz version 2.43.0 (0)
 -->
<!-- Title: Graphical Class Hierarchy Pages: 1 -->
<svg width="353pt" height="386pt"
 viewBox="0.00 0.00 353.00 385.50" xmlns="http://www.w3.org/2000/svg" xmlns:xlink="http://www.w3.org/1999/xlink">
<g id="graph0" class="graph" transform="scale(1 1) rotate(0) translate(4 381.5)">
<title>Graphical Class Hierarchy</title>
<!-- Node0 -->
<g id="Node000000" class="node">
<title>Node0</title>
<g id="a_Node000000"><a xlink:href="structdi_1_1meta_1_1TypeConstant.html" target="_top" xlink:title=" ">
<polygon fill="white" stroke="#666666" points="129,-198 0,-198 0,-168 129,-168 129,-198"/>
<text text-anchor="start" x="8" y="-186" font-family="Helvetica,sans-Serif" font-size="10.00">di::meta::TypeConstant</text>
<text text-anchor="middle" x="64.5" y="-175" font-family="Helvetica,sans-Serif" font-size="10.00">&lt; R const volatile &gt;</text>
</a>
</g>
</g>
<!-- Node1 -->
<g id="Node000001" class="node">
<title>Node1</title>
<g id="a_Node000001"><a xlink:href="structdi_1_1meta_1_1detail_1_1UnionCV_3_01T_01const_01volatile_00_01U_01const_01volatile_00_01R_01_4.html" target="_top" xlink:title=" ">
<polygon fill="white" stroke="#666666" points="328,-377.5 182,-377.5 182,-336.5 328,-336.5 328,-377.5"/>
<text text-anchor="start" x="190" y="-365.5" font-family="Helvetica,sans-Serif" font-size="10.00">di::meta::detail::UnionCV</text>
<text text-anchor="start" x="190" y="-354.5" font-family="Helvetica,sans-Serif" font-size="10.00">&lt; T const volatile, U const</text>
<text text-anchor="middle" x="255" y="-343.5" font-family="Helvetica,sans-Serif" font-size="10.00"> volatile, R &gt;</text>
</a>
</g>
</g>
<!-- Node0&#45;&gt;Node1 -->
<g id="edge490_Node000000_Node000001" class="edge">
<title>Node0&#45;&gt;Node1</title>
<g id="a_edge490_Node000000_Node000001"><a xlink:title=" ">
<path fill="none" stroke="#63b8ff" d="M76.31,-207.49C91.61,-239.43 122.51,-294.99 165,-327 170.21,-330.92 175.96,-334.35 181.97,-337.35"/>
<polygon fill="#63b8ff" stroke="#63b8ff" points="79.29,-205.59 71.9,-198.01 72.94,-208.55 79.29,-205.59"/>
</a>
</g>
</g>
<!-- Node2 -->
<g id="Node000002" class="node">
<title>Node2</title>
<g id="a_Node000002"><a xlink:href="structdi_1_1meta_1_1detail_1_1UnionCV_3_01T_01const_01volatile_00_01U_01const_00_01R_01_4.html" target="_top" xlink:title=" ">
<polygon fill="white" stroke="#666666" points="340,-318 170,-318 170,-288 340,-288 340,-318"/>
<text text-anchor="start" x="178" y="-306" font-family="Helvetica,sans-Serif" font-size="10.00">di::meta::detail::UnionCV</text>
<text text-anchor="middle" x="255" y="-295" font-family="Helvetica,sans-Serif" font-size="10.00">&lt; T const volatile, U const, R &gt;</text>
</a>
</g>
</g>
<!-- Node0&#45;&gt;Node2 -->
<g id="edge491_Node000000_Node000002" class="edge">
<title>Node0&#45;&gt;Node2</title>
<g id="a_edge491_Node000000_Node000002"><a xlink:title=" ">
<path fill="none" stroke="#63b8ff" d="M83.32,-205.92C101.56,-227.82 131.85,-260.22 165,-279 170.99,-282.39 177.47,-285.32 184.12,-287.85"/>
<polygon fill="#63b8ff" stroke="#63b8ff" points="85.97,-203.63 76.94,-198.08 80.54,-208.05 85.97,-203.63"/>
</a>
</g>
</g>
<!-- Node3 -->
<g id="Node000003" class="node">
<title>Node3</title>
<g id="a_Node000003"><a xlink:href="structdi_1_1meta_1_1detail_1_1UnionCV_3_01T_01const_01volatile_00_01U_01volatile_00_01R_01_4.html" target="_top" xlink:title=" ">
<polygon fill="white" stroke="#666666" points="345,-270 165,-270 165,-240 345,-240 345,-270"/>
<text text-anchor="start" x="173" y="-258" font-family="Helvetica,sans-Serif" font-size="10.00">di::meta::detail::UnionCV</text>
<text text-anchor="middle" x="255" y="-247" font-family="Helvetica,sans-Serif" font-size="10.00">&lt; T const volatile, U volatile, R &gt;</text>
</a>
</g>
</g>
<!-- Node0&#45;&gt;Node3 -->
<g id="edge492_Node000000_Node000003" class="edge">
<title>Node0&#45;&gt;Node3</title>
<g id="a_edge492_Node000000_Node000003"><a xlink:title=" ">
<path fill="none" stroke="#63b8ff" d="M102.15,-202.71C120.64,-212.12 143.63,-223.04 165,-231 173.7,-234.24 183.02,-237.24 192.25,-239.95"/>
<polygon fill="#63b8ff" stroke="#63b8ff" points="103.69,-199.56 93.2,-198.08 100.48,-205.78 103.69,-199.56"/>
</a>
</g>
</g>
<!-- Node4 -->
<g id="Node000004" class="node">
<title>Node4</title>
<g id="a_Node000004"><a xlink:href="structdi_1_1meta_1_1detail_1_1UnionCV_3_01T_01const_01volatile_00_01U_00_01R_01_4.html" target="_top" xlink:title=" ">
<polygon fill="white" stroke="#666666" points="325,-222 185,-222 185,-192 325,-192 325,-222"/>
<text text-anchor="start" x="193" y="-210" font-family="Helvetica,sans-Serif" font-size="10.00">di::meta::detail::UnionCV</text>
<text text-anchor="middle" x="255" y="-199" font-family="Helvetica,sans-Serif" font-size="10.00">&lt; T const volatile, U, R &gt;</text>
</a>
</g>
</g>
<!-- Node0&#45;&gt;Node4 -->
<g id="edge493_Node000000_Node000004" class="edge">
<title>Node0&#45;&gt;Node4</title>
<g id="a_edge493_Node000000_Node000004"><a xlink:title=" ">
<path fill="none" stroke="#63b8ff" d="M139.31,-192.4C154.32,-194.31 170.06,-196.31 184.9,-198.2"/>
<polygon fill="#63b8ff" stroke="#63b8ff" points="139.42,-188.88 129.05,-191.09 138.53,-195.83 139.42,-188.88"/>
</a>
</g>
</g>
<!-- Node5 -->
<g id="Node000005" class="node">
<title>Node5</title>
<g id="a_Node000005"><a xlink:href="structdi_1_1meta_1_1detail_1_1UnionCV_3_01T_01const_00_01U_01const_01volatile_00_01R_01_4.html" target="_top" xlink:title=" ">
<polygon fill="white" stroke="#666666" points="340,-174 170,-174 170,-144 340,-144 340,-174"/>
<text text-anchor="start" x="178" y="-162" font-family="Helvetica,sans-Serif" font-size="10.00">di::meta::detail::UnionCV</text>
<text text-anchor="middle" x="255" y="-151" font-family="Helvetica,sans-Serif" font-size="10.00">&lt; T const, U const volatile, R &gt;</text>
</a>
</g>
</g>
<!-- Node0&#45;&gt;Node5 -->
<g id="edge494_Node000000_Node000005" class="edge">
<title>Node0&#45;&gt;Node5</title>
<g id="a_edge494_Node000000_Node000005"><a xlink:title=" ">
<path fill="none" stroke="#63b8ff" d="M139.06,-173.63C149.2,-172.34 159.68,-171.01 169.99,-169.7"/>
<polygon fill="#63b8ff" stroke="#63b8ff" points="138.53,-170.17 129.05,-174.91 139.42,-177.12 138.53,-170.17"/>
</a>
</g>
</g>
<!-- Node6 -->
<g id="Node000006" class="node">
<title>Node6</title>
<g id="a_Node000006"><a xlink:href="structdi_1_1meta_1_1detail_1_1UnionCV_3_01T_01const_00_01U_01volatile_00_01R_01_4.html" target="_top" xlink:title=" ">
<polygon fill="white" stroke="#666666" points="325,-126 185,-126 185,-96 325,-96 325,-126"/>
<text text-anchor="start" x="193" y="-114" font-family="Helvetica,sans-Serif" font-size="10.00">di::meta::detail::UnionCV</text>
<text text-anchor="middle" x="255" y="-103" font-family="Helvetica,sans-Serif" font-size="10.00">&lt; T const, U volatile, R &gt;</text>
</a>
</g>
</g>
<!-- Node0&#45;&gt;Node6 -->
<g id="edge495_Node000000_Node000006" class="edge">
<title>Node0&#45;&gt;Node6</title>
<g id="a_edge495_Node000000_Node000006"><a xlink:title=" ">
<path fill="none" stroke="#63b8ff" d="M102.15,-163.29C120.64,-153.88 143.63,-142.96 165,-135 173.7,-131.76 183.02,-128.76 192.25,-126.05"/>
<polygon fill="#63b8ff" stroke="#63b8ff" points="100.48,-160.22 93.2,-167.92 103.69,-166.44 100.48,-160.22"/>
</a>
</g>
</g>
<!-- Node7 -->
<g id="Node000007" class="node">
<title>Node7</title>
<g id="a_Node000007"><a xlink:href="structdi_1_1meta_1_1detail_1_1UnionCV_3_01T_01volatile_00_01U_01const_01volatile_00_01R_01_4.html" target="_top" xlink:title=" ">
<polygon fill="white" stroke="#666666" points="345,-78 165,-78 165,-48 345,-48 345,-78"/>
<text text-anchor="start" x="173" y="-66" font-family="Helvetica,sans-Serif" font-size="10.00">di::meta::detail::UnionCV</text>
<text text-anchor="middle" x="255" y="-55" font-family="Helvetica,sans-Serif" font-size="10.00">&lt; T volatile, U const volatile, R &gt;</text>
</a>
</g>
</g>
<!-- Node0&#45;&gt;Node7 -->
<g id="edge496_Node000000_Node000007" class="edge">
<title>Node0&#45;&gt;Node7</title>
<g id="a_edge496_Node000000_Node000007"><a xlink:title=" ">
<path fill="none" stroke="#63b8ff" d="M83.32,-160.08C101.56,-138.18 131.85,-105.78 165,-87 170.99,-83.61 177.47,-80.68 184.12,-78.15"/>
<polygon fill="#63b8ff" stroke="#63b8ff" points="80.54,-157.95 76.94,-167.92 85.97,-162.37 80.54,-157.95"/>
</a>
</g>
</g>
<!-- Node8 -->
<g id="Node000008" class="node">
<title>Node8</title>
<g id="a_Node000008"><a xlink:href="structdi_1_1meta_1_1detail_1_1UnionCV_3_01T_01volatile_00_01U_01const_00_01R_01_4.html" target="_top" xlink:title=" ">
<polygon fill="white" stroke="#666666" points="325,-30 185,-30 185,0 325,0 325,-30"/>
<text text-anchor="start" x="193" y="-18" font-family="Helvetica,sans-Serif" font-size="10.00">di::meta::detail::UnionCV</text>
<text text-anchor="middle" x="255" y="-7" font-family="Helvetica,sans-Serif" font-size="10.00">&lt; T volatile, U const, R &gt;</text>
</a>
</g>
</g>
<!-- Node0&#45;&gt;Node8 -->
<g id="edge497_Node000000_Node000008" class="edge">
<title>Node0&#45;&gt;Node8</title>
<g id="a_edge497_Node000000_Node000008"><a xlink:title=" ">
<path fill="none" stroke="#63b8ff" d="M75.83,-158.54C90.73,-126.22 121.36,-69.81 165,-39 171.01,-34.75 177.74,-31.26 184.73,-28.38"/>
<polygon fill="#63b8ff" stroke="#63b8ff" points="72.6,-157.18 71.71,-167.74 78.99,-160.04 72.6,-157.18"/>
</a>
</g>
</g>
</g>
</svg>
