<?xml version="1.0" encoding="UTF-8" standalone="no"?>
<!DOCTYPE svg PUBLIC "-//W3C//DTD SVG 1.1//EN"
 "http://www.w3.org/Graphics/SVG/1.1/DTD/svg11.dtd">
<!-- Generated by graphviz version 2.43.0 (0)
 -->
<!-- Title: Graphical Class Hierarchy Pages: 1 -->
<svg width="361pt" height="98pt"
 viewBox="0.00 0.00 361.00 97.50" xmlns="http://www.w3.org/2000/svg" xmlns:xlink="http://www.w3.org/1999/xlink">
<g id="graph0" class="graph" transform="scale(1 1) rotate(0) translate(4 93.5)">
<title>Graphical Class Hierarchy</title>
<!-- Node0 -->
<g id="Node000000" class="node">
<title>Node0</title>
<g id="a_Node000000"><a xlink:href="classdi_1_1execution_1_1WithAwaitableSenders.html" target="_top" xlink:title=" ">
<polygon fill="white" stroke="#666666" points="156,-57 0,-57 0,-27 156,-27 156,-57"/>
<text text-anchor="start" x="8" y="-45" font-family="Helvetica,sans-Serif" font-size="10.00">di::execution::WithAwaitable</text>
<text text-anchor="middle" x="78" y="-34" font-family="Helvetica,sans-Serif" font-size="10.00">Senders&lt; Self &gt;</text>
</a>
</g>
</g>
<!-- Node1 -->
<g id="Node000001" class="node">
<title>Node1</title>
<g id="a_Node000001"><a xlink:href="structdi_1_1execution_1_1async__generator__ns_1_1PromiseBaseT_1_1Type.html" target="_top" xlink:title=" ">
<polygon fill="white" stroke="#666666" points="353,-89.5 192,-89.5 192,-48.5 353,-48.5 353,-89.5"/>
<text text-anchor="start" x="200" y="-77.5" font-family="Helvetica,sans-Serif" font-size="10.00">di::execution::async</text>
<text text-anchor="start" x="200" y="-66.5" font-family="Helvetica,sans-Serif" font-size="10.00">_generator_ns::PromiseBaseT</text>
<text text-anchor="middle" x="272.5" y="-55.5" font-family="Helvetica,sans-Serif" font-size="10.00">&lt; Self, Ref, Value &gt;::Type</text>
</a>
</g>
</g>
<!-- Node0&#45;&gt;Node1 -->
<g id="edge275_Node000000_Node000001" class="edge">
<title>Node0&#45;&gt;Node1</title>
<g id="a_edge275_Node000000_Node000001"><a xlink:title=" ">
<path fill="none" stroke="#63b8ff" d="M166.15,-54.22C174.69,-55.42 183.32,-56.63 191.78,-57.82"/>
<polygon fill="#63b8ff" stroke="#63b8ff" points="166.58,-50.75 156.19,-52.83 165.6,-57.68 166.58,-50.75"/>
</a>
</g>
</g>
<!-- Node2 -->
<g id="Node000002" class="node">
<title>Node2</title>
<g id="a_Node000002"><a xlink:href="classdi_1_1execution_1_1lazy__ns_1_1PromiseBase.html" target="_top" xlink:title=" ">
<polygon fill="white" stroke="#666666" points="350.5,-30 194.5,-30 194.5,0 350.5,0 350.5,-30"/>
<text text-anchor="start" x="202.5" y="-18" font-family="Helvetica,sans-Serif" font-size="10.00">di::execution::lazy</text>
<text text-anchor="middle" x="272.5" y="-7" font-family="Helvetica,sans-Serif" font-size="10.00">_ns::PromiseBase&lt; Self, T &gt;</text>
</a>
</g>
</g>
<!-- Node0&#45;&gt;Node2 -->
<g id="edge276_Node000000_Node000002" class="edge">
<title>Node0&#45;&gt;Node2</title>
<g id="a_edge276_Node000000_Node000002"><a xlink:title=" ">
<path fill="none" stroke="#63b8ff" d="M166.27,-29.76C175.62,-28.45 185.08,-27.12 194.29,-25.83"/>
<polygon fill="#63b8ff" stroke="#63b8ff" points="165.6,-26.32 156.19,-31.17 166.58,-33.25 165.6,-26.32"/>
</a>
</g>
</g>
</g>
</svg>
