<?xml version="1.0" encoding="UTF-8" standalone="no"?>
<!DOCTYPE svg PUBLIC "-//W3C//DTD SVG 1.1//EN"
 "http://www.w3.org/Graphics/SVG/1.1/DTD/svg11.dtd">
<!-- Generated by graphviz version 2.43.0 (0)
 -->
<!-- Title: Graphical Class Hierarchy Pages: 1 -->
<svg width="362pt" height="230pt"
 viewBox="0.00 0.00 362.00 230.00" xmlns="http://www.w3.org/2000/svg" xmlns:xlink="http://www.w3.org/1999/xlink">
<g id="graph0" class="graph" transform="scale(1 1) rotate(0) translate(4 226)">
<title>Graphical Class Hierarchy</title>
<!-- Node0 -->
<g id="Node000000" class="node">
<title>Node0</title>
<g id="a_Node000000"><a xlink:href="structdi_1_1bit_1_1BitEnum.html" target="_top" xlink:title=" ">
<polygon fill="white" stroke="#666666" points="112,-126 0,-126 0,-96 112,-96 112,-126"/>
<text text-anchor="start" x="8" y="-114" font-family="Helvetica,sans-Serif" font-size="10.00">di::bit::BitEnum&lt; T,</text>
<text text-anchor="middle" x="56" y="-103" font-family="Helvetica,sans-Serif" font-size="10.00"> index, bit_count &gt;</text>
</a>
</g>
</g>
<!-- Node1 -->
<g id="Node000001" class="node">
<title>Node1</title>
<g id="a_Node000001"><a xlink:href="structiris_1_1x86_1_1amd64_1_1ApicInterruptCommandDeliveryMode.html" target="_top" xlink:title=" ">
<polygon fill="white" stroke="#666666" points="333,-222 169,-222 169,-192 333,-192 333,-222"/>
<text text-anchor="start" x="177" y="-210" font-family="Helvetica,sans-Serif" font-size="10.00">iris::x86::amd64::ApicInterrupt</text>
<text text-anchor="middle" x="251" y="-199" font-family="Helvetica,sans-Serif" font-size="10.00">CommandDeliveryMode</text>
</a>
</g>
</g>
<!-- Node0&#45;&gt;Node1 -->
<g id="edge14_Node000000_Node000001" class="edge">
<title>Node0&#45;&gt;Node1</title>
<g id="a_edge14_Node000000_Node000001"><a xlink:title=" ">
<path fill="none" stroke="#63b8ff" d="M79.03,-133.05C96.37,-149.19 121.89,-170.38 148,-183 155.12,-186.44 162.77,-189.41 170.56,-191.96"/>
<polygon fill="#63b8ff" stroke="#63b8ff" points="81.33,-130.4 71.67,-126.04 76.5,-135.47 81.33,-130.4"/>
</a>
</g>
</g>
<!-- Node2 -->
<g id="Node000002" class="node">
<title>Node2</title>
<g id="a_Node000002"><a xlink:href="structiris_1_1x86_1_1amd64_1_1ApicInterruptCommandDestinationShorthand.html" target="_top" xlink:title=" ">
<polygon fill="white" stroke="#666666" points="337.5,-174 164.5,-174 164.5,-144 337.5,-144 337.5,-174"/>
<text text-anchor="start" x="172.5" y="-162" font-family="Helvetica,sans-Serif" font-size="10.00">iris::x86::amd64::ApicInterrupt</text>
<text text-anchor="middle" x="251" y="-151" font-family="Helvetica,sans-Serif" font-size="10.00">CommandDestinationShorthand</text>
</a>
</g>
</g>
<!-- Node0&#45;&gt;Node2 -->
<g id="edge15_Node000000_Node000002" class="edge">
<title>Node0&#45;&gt;Node2</title>
<g id="a_edge15_Node000000_Node000002"><a xlink:title=" ">
<path fill="none" stroke="#63b8ff" d="M122.04,-128.38C130.76,-130.64 139.59,-132.9 148,-135 159.91,-137.97 172.64,-141.05 184.91,-143.96"/>
<polygon fill="#63b8ff" stroke="#63b8ff" points="122.84,-124.97 112.28,-125.83 121.07,-131.74 122.84,-124.97"/>
</a>
</g>
</g>
<!-- Node3 -->
<g id="Node000003" class="node">
<title>Node3</title>
<g id="a_Node000003"><a xlink:href="structiris_1_1x86_1_1amd64_1_1ApicLvtEntryMessageType.html" target="_top" xlink:title=" ">
<polygon fill="white" stroke="#666666" points="319.5,-126 182.5,-126 182.5,-96 319.5,-96 319.5,-126"/>
<text text-anchor="start" x="190.5" y="-114" font-family="Helvetica,sans-Serif" font-size="10.00">iris::x86::amd64::ApicLvt</text>
<text text-anchor="middle" x="251" y="-103" font-family="Helvetica,sans-Serif" font-size="10.00">EntryMessageType</text>
</a>
</g>
</g>
<!-- Node0&#45;&gt;Node3 -->
<g id="edge16_Node000000_Node000003" class="edge">
<title>Node0&#45;&gt;Node3</title>
<g id="a_edge16_Node000000_Node000003"><a xlink:title=" ">
<path fill="none" stroke="#63b8ff" d="M122.25,-111C141.55,-111 162.72,-111 182.17,-111"/>
<polygon fill="#63b8ff" stroke="#63b8ff" points="122.05,-107.5 112.05,-111 122.05,-114.5 122.05,-107.5"/>
</a>
</g>
</g>
<!-- Node4 -->
<g id="Node000004" class="node">
<title>Node4</title>
<g id="a_Node000004"><a xlink:href="structiris_1_1x86_1_1amd64_1_1IoApicRedirectionTableEntryDeliveryMode.html" target="_top" xlink:title=" ">
<polygon fill="white" stroke="#666666" points="346.5,-78 155.5,-78 155.5,-48 346.5,-48 346.5,-78"/>
<text text-anchor="start" x="163.5" y="-66" font-family="Helvetica,sans-Serif" font-size="10.00">iris::x86::amd64::IoApic</text>
<text text-anchor="middle" x="251" y="-55" font-family="Helvetica,sans-Serif" font-size="10.00">RedirectionTableEntryDeliveryMode</text>
</a>
</g>
</g>
<!-- Node0&#45;&gt;Node4 -->
<g id="edge17_Node000000_Node000004" class="edge">
<title>Node0&#45;&gt;Node4</title>
<g id="a_edge17_Node000000_Node000004"><a xlink:title=" ">
<path fill="none" stroke="#63b8ff" d="M122.04,-93.62C130.76,-91.36 139.59,-89.1 148,-87 159.91,-84.03 172.64,-80.95 184.91,-78.04"/>
<polygon fill="#63b8ff" stroke="#63b8ff" points="121.07,-90.26 112.28,-96.17 122.84,-97.03 121.07,-90.26"/>
</a>
</g>
</g>
<!-- Node5 -->
<g id="Node000005" class="node">
<title>Node5</title>
<g id="a_Node000005"><a xlink:href="structiris_1_1x86_1_1amd64_1_1IoApicRedirectionTableEntryDestinationMode.html" target="_top" xlink:title=" ">
<polygon fill="white" stroke="#666666" points="354,-30 148,-30 148,0 354,0 354,-30"/>
<text text-anchor="start" x="156" y="-18" font-family="Helvetica,sans-Serif" font-size="10.00">iris::x86::amd64::IoApic</text>
<text text-anchor="middle" x="251" y="-7" font-family="Helvetica,sans-Serif" font-size="10.00">RedirectionTableEntryDestinationMode</text>
</a>
</g>
</g>
<!-- Node0&#45;&gt;Node5 -->
<g id="edge18_Node000000_Node000005" class="edge">
<title>Node0&#45;&gt;Node5</title>
<g id="a_edge18_Node000000_Node000005"><a xlink:title=" ">
<path fill="none" stroke="#63b8ff" d="M79.03,-88.95C96.37,-72.81 121.89,-51.62 148,-39 155.12,-35.56 162.77,-32.59 170.56,-30.04"/>
<polygon fill="#63b8ff" stroke="#63b8ff" points="76.5,-86.53 71.67,-95.96 81.33,-91.6 76.5,-86.53"/>
</a>
</g>
</g>
</g>
</svg>
