<?xml version="1.0" encoding="UTF-8" standalone="no"?>
<!DOCTYPE svg PUBLIC "-//W3C//DTD SVG 1.1//EN"
 "http://www.w3.org/Graphics/SVG/1.1/DTD/svg11.dtd">
<!-- Generated by graphviz version 2.43.0 (0)
 -->
<!-- Title: Graphical Class Hierarchy Pages: 1 -->
<svg width="740pt" height="135pt"
 viewBox="0.00 0.00 740.00 135.00" xmlns="http://www.w3.org/2000/svg" xmlns:xlink="http://www.w3.org/1999/xlink">
<g id="graph0" class="graph" transform="scale(1 1) rotate(0) translate(4 131)">
<title>Graphical Class Hierarchy</title>
<!-- Node0 -->
<g id="Node000000" class="node">
<title>Node0</title>
<g id="a_Node000000"><a xlink:href="structdi_1_1container_1_1IntrusiveTagBase.html" target="_top" xlink:title=" ">
<polygon fill="white" stroke="#666666" points="167,-73 0,-73 0,-32 167,-32 167,-73"/>
<text text-anchor="start" x="8" y="-61" font-family="Helvetica,sans-Serif" font-size="10.00">di::container::Intrusive</text>
<text text-anchor="start" x="8" y="-50" font-family="Helvetica,sans-Serif" font-size="10.00">TagBase&lt; IntrusiveForwardList</text>
<text text-anchor="middle" x="83.5" y="-39" font-family="Helvetica,sans-Serif" font-size="10.00">Node&lt; Self &gt; &gt;</text>
</a>
</g>
</g>
<!-- Node1 -->
<g id="Node000001" class="node">
<title>Node1</title>
<g id="a_Node000001"><a xlink:href="structdi_1_1container_1_1IntrusiveForwardListTag.html" target="_top" xlink:title=" ">
<polygon fill="white" stroke="#666666" points="334,-67.5 203,-67.5 203,-37.5 334,-37.5 334,-67.5"/>
<text text-anchor="start" x="211" y="-55.5" font-family="Helvetica,sans-Serif" font-size="10.00">di::container::Intrusive</text>
<text text-anchor="middle" x="268.5" y="-44.5" font-family="Helvetica,sans-Serif" font-size="10.00">ForwardListTag&lt; Self &gt;</text>
</a>
</g>
</g>
<!-- Node0&#45;&gt;Node1 -->
<g id="edge169_Node000000_Node000001" class="edge">
<title>Node0&#45;&gt;Node1</title>
<g id="a_edge169_Node000000_Node000001"><a xlink:title=" ">
<path fill="none" stroke="#63b8ff" d="M177.27,-52.5C185.88,-52.5 194.48,-52.5 202.75,-52.5"/>
<polygon fill="#63b8ff" stroke="#63b8ff" points="177.17,-49 167.17,-52.5 177.17,-56 177.17,-49"/>
</a>
</g>
</g>
<!-- Node2 -->
<g id="Node000002" class="node">
<title>Node2</title>
<g id="a_Node000002"><a xlink:href="structdi_1_1container_1_1IntrusiveHashSetTag.html" target="_top" xlink:title=" ">
<polygon fill="white" stroke="#666666" points="534,-127 370,-127 370,-86 534,-86 534,-127"/>
<text text-anchor="start" x="378" y="-115" font-family="Helvetica,sans-Serif" font-size="10.00">di::container::Intrusive</text>
<text text-anchor="start" x="378" y="-104" font-family="Helvetica,sans-Serif" font-size="10.00">HashSetTag&lt; DefaultIntrusive</text>
<text text-anchor="middle" x="452" y="-93" font-family="Helvetica,sans-Serif" font-size="10.00">HashSetTag &gt;</text>
</a>
</g>
</g>
<!-- Node1&#45;&gt;Node2 -->
<g id="edge170_Node000001_Node000002" class="edge">
<title>Node1&#45;&gt;Node2</title>
<g id="a_edge170_Node000001_Node000002"><a xlink:title=" ">
<path fill="none" stroke="#63b8ff" d="M329.73,-70.42C346.49,-75.41 364.84,-80.86 382.06,-85.99"/>
<polygon fill="#63b8ff" stroke="#63b8ff" points="330.64,-67.04 320.06,-67.54 328.64,-73.75 330.64,-67.04"/>
</a>
</g>
</g>
<!-- Node4 -->
<g id="Node000004" class="node">
<title>Node4</title>
<g id="a_Node000004"><a xlink:href="structdi_1_1container_1_1IntrusiveHashSetTag.html" target="_top" xlink:title=" ">
<polygon fill="white" stroke="#666666" points="515,-67.5 389,-67.5 389,-37.5 515,-37.5 515,-67.5"/>
<text text-anchor="start" x="397" y="-55.5" font-family="Helvetica,sans-Serif" font-size="10.00">di::container::Intrusive</text>
<text text-anchor="middle" x="452" y="-44.5" font-family="Helvetica,sans-Serif" font-size="10.00">HashSetTag&lt; Self &gt;</text>
</a>
</g>
</g>
<!-- Node1&#45;&gt;Node4 -->
<g id="edge172_Node000001_Node000004" class="edge">
<title>Node1&#45;&gt;Node4</title>
<g id="a_edge172_Node000001_Node000004"><a xlink:title=" ">
<path fill="none" stroke="#63b8ff" d="M344.17,-52.5C359.02,-52.5 374.46,-52.5 388.84,-52.5"/>
<polygon fill="#63b8ff" stroke="#63b8ff" points="344,-49 334,-52.5 344,-56 344,-49"/>
</a>
</g>
</g>
<!-- Node5 -->
<g id="Node000005" class="node">
<title>Node5</title>
<g id="a_Node000005"><a xlink:href="structiris_1_1detail_1_1InternalObjectTag.html" target="_top" xlink:title=" ">
<polygon fill="white" stroke="#666666" points="530.5,-19 373.5,-19 373.5,0 530.5,0 530.5,-19"/>
<text text-anchor="middle" x="452" y="-7" font-family="Helvetica,sans-Serif" font-size="10.00">iris::detail::InternalObjectTag</text>
</a>
</g>
</g>
<!-- Node1&#45;&gt;Node5 -->
<g id="edge173_Node000001_Node000005" class="edge">
<title>Node1&#45;&gt;Node5</title>
<g id="a_edge173_Node000001_Node000005"><a xlink:title=" ">
<path fill="none" stroke="#63b8ff" d="M341.98,-35.16C351.4,-32.91 360.93,-30.65 370,-28.5 383.07,-25.41 397.34,-22.05 410.2,-19.04"/>
<polygon fill="#63b8ff" stroke="#63b8ff" points="341.13,-31.76 332.22,-37.48 342.75,-38.57 341.13,-31.76"/>
</a>
</g>
</g>
<!-- Node3 -->
<g id="Node000003" class="node">
<title>Node3</title>
<g id="a_Node000003"><a xlink:href="structdi_1_1container_1_1DefaultIntrusiveHashSetTag.html" target="_top" xlink:title=" ">
<polygon fill="white" stroke="#666666" points="732,-121.5 570,-121.5 570,-91.5 732,-91.5 732,-121.5"/>
<text text-anchor="start" x="578" y="-109.5" font-family="Helvetica,sans-Serif" font-size="10.00">di::container::DefaultIntrusive</text>
<text text-anchor="middle" x="651" y="-98.5" font-family="Helvetica,sans-Serif" font-size="10.00">HashSetTag</text>
</a>
</g>
</g>
<!-- Node2&#45;&gt;Node3 -->
<g id="edge171_Node000002_Node000003" class="edge">
<title>Node2&#45;&gt;Node3</title>
<g id="a_edge171_Node000002_Node000003"><a xlink:title=" ">
<path fill="none" stroke="#63b8ff" d="M544.53,-106.5C553,-106.5 561.53,-106.5 569.87,-106.5"/>
<polygon fill="#63b8ff" stroke="#63b8ff" points="544.26,-103 534.26,-106.5 544.26,-110 544.26,-103"/>
</a>
</g>
</g>
</g>
</svg>
