<?xml version="1.0" encoding="UTF-8" standalone="no"?>
<!DOCTYPE svg PUBLIC "-//W3C//DTD SVG 1.1//EN"
 "http://www.w3.org/Graphics/SVG/1.1/DTD/svg11.dtd">
<!-- Generated by graphviz version 2.43.0 (0)
 -->
<!-- Title: Graphical Class Hierarchy Pages: 1 -->
<svg width="257pt" height="86pt"
 viewBox="0.00 0.00 257.00 86.00" xmlns="http://www.w3.org/2000/svg" xmlns:xlink="http://www.w3.org/1999/xlink">
<g id="graph0" class="graph" transform="scale(1 1) rotate(0) translate(4 82)">
<title>Graphical Class Hierarchy</title>
<!-- Node0 -->
<g id="Node000000" class="node">
<title>Node0</title>
<g id="a_Node000000"><a xlink:href="structdi_1_1bit_1_1BitField.html" target="_top" xlink:title=" ">
<polygon fill="white" stroke="#666666" points="95,-54 0,-54 0,-24 95,-24 95,-54"/>
<text text-anchor="start" x="8" y="-42" font-family="Helvetica,sans-Serif" font-size="10.00">di::bit::BitField&lt;</text>
<text text-anchor="middle" x="47.5" y="-31" font-family="Helvetica,sans-Serif" font-size="10.00"> 32, 8 &gt;</text>
</a>
</g>
</g>
<!-- Node1 -->
<g id="Node000001" class="node">
<title>Node1</title>
<g id="a_Node000001"><a xlink:href="structiris_1_1x86_1_1amd64_1_1sd_1_1BaseMid.html" target="_top" xlink:title=" ">
<polygon fill="white" stroke="#666666" points="246.5,-78 133.5,-78 133.5,-48 246.5,-48 246.5,-78"/>
<text text-anchor="start" x="141.5" y="-66" font-family="Helvetica,sans-Serif" font-size="10.00">iris::x86::amd64::sd</text>
<text text-anchor="middle" x="190" y="-55" font-family="Helvetica,sans-Serif" font-size="10.00">::BaseMid</text>
</a>
</g>
</g>
<!-- Node0&#45;&gt;Node1 -->
<g id="edge31_Node000000_Node000001" class="edge">
<title>Node0&#45;&gt;Node1</title>
<g id="a_edge31_Node000000_Node000001"><a xlink:title=" ">
<path fill="none" stroke="#63b8ff" d="M105.15,-48.68C114.38,-50.25 123.94,-51.89 133.16,-53.46"/>
<polygon fill="#63b8ff" stroke="#63b8ff" points="105.73,-45.23 95.28,-46.99 104.55,-52.13 105.73,-45.23"/>
</a>
</g>
</g>
<!-- Node2 -->
<g id="Node000002" class="node">
<title>Node2</title>
<g id="a_Node000002"><a xlink:href="structiris_1_1x86_1_1amd64_1_1ssd_1_1BaseMidLow.html" target="_top" xlink:title=" ">
<polygon fill="white" stroke="#666666" points="249,-30 131,-30 131,0 249,0 249,-30"/>
<text text-anchor="start" x="139" y="-18" font-family="Helvetica,sans-Serif" font-size="10.00">iris::x86::amd64::ssd</text>
<text text-anchor="middle" x="190" y="-7" font-family="Helvetica,sans-Serif" font-size="10.00">::BaseMidLow</text>
</a>
</g>
</g>
<!-- Node0&#45;&gt;Node2 -->
<g id="edge32_Node000000_Node000002" class="edge">
<title>Node0&#45;&gt;Node2</title>
<g id="a_edge32_Node000000_Node000002"><a xlink:title=" ">
<path fill="none" stroke="#63b8ff" d="M105.31,-29.3C113.67,-27.87 122.29,-26.4 130.67,-24.96"/>
<polygon fill="#63b8ff" stroke="#63b8ff" points="104.55,-25.87 95.28,-31.01 105.73,-32.77 104.55,-25.87"/>
</a>
</g>
</g>
</g>
</svg>
