<?xml version="1.0" encoding="UTF-8" standalone="no"?>
<!DOCTYPE svg PUBLIC "-//W3C//DTD SVG 1.1//EN"
 "http://www.w3.org/Graphics/SVG/1.1/DTD/svg11.dtd">
<!-- Generated by graphviz version 2.43.0 (0)
 -->
<!-- Title: Graphical Class Hierarchy Pages: 1 -->
<svg width="342pt" height="227pt"
 viewBox="0.00 0.00 342.00 226.50" xmlns="http://www.w3.org/2000/svg" xmlns:xlink="http://www.w3.org/1999/xlink">
<g id="graph0" class="graph" transform="scale(1 1) rotate(0) translate(4 222.5)">
<title>Graphical Class Hierarchy</title>
<!-- Node0 -->
<g id="Node000000" class="node">
<title>Node0</title>
<g id="a_Node000000"><a xlink:href="classdi_1_1container_1_1ConstantPathInterface.html" target="_top" xlink:title=" ">
<polygon fill="white" stroke="#666666" points="148,-218.5 0,-218.5 0,-177.5 148,-177.5 148,-218.5"/>
<text text-anchor="start" x="8" y="-206.5" font-family="Helvetica,sans-Serif" font-size="10.00">di::container::ConstantPath</text>
<text text-anchor="start" x="8" y="-195.5" font-family="Helvetica,sans-Serif" font-size="10.00">Interface&lt; PathViewImpl</text>
<text text-anchor="middle" x="74" y="-184.5" font-family="Helvetica,sans-Serif" font-size="10.00">&lt; Enc &gt;, Enc &gt;</text>
</a>
</g>
</g>
<!-- Node1 -->
<g id="Node000001" class="node">
<title>Node1</title>
<g id="a_Node000001"><a xlink:href="classdi_1_1container_1_1PathViewImpl.html" target="_top" xlink:title=" ">
<polygon fill="white" stroke="#666666" points="334,-127 184,-127 184,-97 334,-97 334,-127"/>
<text text-anchor="start" x="192" y="-115" font-family="Helvetica,sans-Serif" font-size="10.00">di::container::PathViewImpl</text>
<text text-anchor="middle" x="259" y="-104" font-family="Helvetica,sans-Serif" font-size="10.00">&lt; Enc &gt;</text>
</a>
</g>
</g>
<!-- Node0&#45;&gt;Node1 -->
<g id="edge104_Node000000_Node000001" class="edge">
<title>Node0&#45;&gt;Node1</title>
<g id="a_edge104_Node000000_Node000001"><a xlink:title=" ">
<path fill="none" stroke="#63b8ff" d="M138.17,-173.36C141.51,-171.92 144.8,-170.46 148,-169 176.76,-155.87 208.76,-139.03 230.8,-127.06"/>
<polygon fill="#63b8ff" stroke="#63b8ff" points="136.52,-170.26 128.68,-177.39 139.26,-176.7 136.52,-170.26"/>
</a>
</g>
</g>
<!-- Node2 -->
<g id="Node000002" class="node">
<title>Node2</title>
<g id="a_Node000002"><a xlink:href="classdi_1_1meta_1_1EnableBorrowedContainer.html" target="_top" xlink:title=" ">
<polygon fill="white" stroke="#666666" points="145.5,-159.5 2.5,-159.5 2.5,-118.5 145.5,-118.5 145.5,-159.5"/>
<text text-anchor="start" x="10.5" y="-147.5" font-family="Helvetica,sans-Serif" font-size="10.00">di::meta::EnableBorrowed</text>
<text text-anchor="start" x="10.5" y="-136.5" font-family="Helvetica,sans-Serif" font-size="10.00">Container&lt; PathViewImpl</text>
<text text-anchor="middle" x="74" y="-125.5" font-family="Helvetica,sans-Serif" font-size="10.00">&lt; Enc &gt; &gt;</text>
</a>
</g>
</g>
<!-- Node2&#45;&gt;Node1 -->
<g id="edge105_Node000002_Node000001" class="edge">
<title>Node2&#45;&gt;Node1</title>
<g id="a_edge105_Node000002_Node000001"><a xlink:title=" ">
<path fill="none" stroke="#63b8ff" d="M155.79,-127.08C165.11,-125.71 174.58,-124.31 183.8,-122.95"/>
<polygon fill="#63b8ff" stroke="#63b8ff" points="155.13,-123.64 145.75,-128.56 156.16,-130.56 155.13,-123.64"/>
</a>
</g>
</g>
<!-- Node3 -->
<g id="Node000003" class="node">
<title>Node3</title>
<g id="a_Node000003"><a xlink:href="classdi_1_1meta_1_1EnableView.html" target="_top" xlink:title=" ">
<polygon fill="white" stroke="#666666" points="147,-100 1,-100 1,-70 147,-70 147,-100"/>
<text text-anchor="start" x="9" y="-88" font-family="Helvetica,sans-Serif" font-size="10.00">di::meta::EnableView</text>
<text text-anchor="middle" x="74" y="-77" font-family="Helvetica,sans-Serif" font-size="10.00">&lt; PathViewImpl&lt; Enc &gt; &gt;</text>
</a>
</g>
</g>
<!-- Node3&#45;&gt;Node1 -->
<g id="edge106_Node000003_Node000001" class="edge">
<title>Node3&#45;&gt;Node1</title>
<g id="a_edge106_Node000003_Node000001"><a xlink:title=" ">
<path fill="none" stroke="#63b8ff" d="M157.08,-97.11C166.01,-98.43 175.07,-99.76 183.9,-101.07"/>
<polygon fill="#63b8ff" stroke="#63b8ff" points="157.47,-93.63 147.06,-95.63 156.45,-100.55 157.47,-93.63"/>
</a>
</g>
</g>
<!-- Node4 -->
<g id="Node000004" class="node">
<title>Node4</title>
<g id="a_Node000004"><a xlink:href="structdi_1_1util_1_1OwnedType.html" target="_top" xlink:title=" ">
<polygon fill="white" stroke="#666666" points="141.5,-52 6.5,-52 6.5,0 141.5,0 141.5,-52"/>
<text text-anchor="start" x="14.5" y="-40" font-family="Helvetica,sans-Serif" font-size="10.00">di::util::OwnedType</text>
<text text-anchor="start" x="14.5" y="-29" font-family="Helvetica,sans-Serif" font-size="10.00">&lt; PathViewImpl&lt; Enc</text>
<text text-anchor="start" x="14.5" y="-18" font-family="Helvetica,sans-Serif" font-size="10.00"> &gt;, PathImpl&lt; string</text>
<text text-anchor="middle" x="74" y="-7" font-family="Helvetica,sans-Serif" font-size="10.00">::StringImpl&lt; Enc &gt; &gt; &gt;</text>
</a>
</g>
</g>
<!-- Node4&#45;&gt;Node1 -->
<g id="edge107_Node000004_Node000001" class="edge">
<title>Node4&#45;&gt;Node1</title>
<g id="a_edge107_Node000004_Node000001"><a xlink:title=" ">
<path fill="none" stroke="#63b8ff" d="M139.73,-56.42C168.94,-70.15 202.15,-85.75 225.93,-96.93"/>
<polygon fill="#63b8ff" stroke="#63b8ff" points="140.94,-53.12 130.4,-52.04 137.96,-59.46 140.94,-53.12"/>
</a>
</g>
</g>
</g>
</svg>
