<?xml version="1.0" encoding="UTF-8" standalone="no"?>
<!DOCTYPE svg PUBLIC "-//W3C//DTD SVG 1.1//EN"
 "http://www.w3.org/Graphics/SVG/1.1/DTD/svg11.dtd">
<!-- Generated by graphviz version 2.43.0 (0)
 -->
<!-- Title: Graphical Class Hierarchy Pages: 1 -->
<svg width="360pt" height="1500pt"
 viewBox="0.00 0.00 360.00 1500.00" xmlns="http://www.w3.org/2000/svg" xmlns:xlink="http://www.w3.org/1999/xlink">
<g id="graph0" class="graph" transform="scale(1 1) rotate(0) translate(4 1496)">
<title>Graphical Class Hierarchy</title>
<!-- Node0 -->
<g id="Node000000" class="node">
<title>Node0</title>
<g id="a_Node000000"><a xlink:href="structdi_1_1meta_1_1TypeConstant.html" target="_top" xlink:title=" ">
<polygon fill="white" stroke="#666666" points="129,-772.5 0,-772.5 0,-742.5 129,-742.5 129,-772.5"/>
<text text-anchor="start" x="8" y="-760.5" font-family="Helvetica,sans-Serif" font-size="10.00">di::meta::TypeConstant</text>
<text text-anchor="middle" x="64.5" y="-749.5" font-family="Helvetica,sans-Serif" font-size="10.00">&lt; R(Args...)&gt;</text>
</a>
</g>
</g>
<!-- Node1 -->
<g id="Node000001" class="node">
<title>Node1</title>
<g id="a_Node000001"><a xlink:href="structdi_1_1function_1_1function__ref__ns_1_1SignatureAfterBindFrontHelper_3_01R_07_5_08_07U_00_01Args_8_8_8_08_00_01T_01_4.html" target="_top" xlink:title=" ">
<polygon fill="white" stroke="#666666" points="345.5,-1492 171.5,-1492 171.5,-1451 345.5,-1451 345.5,-1492"/>
<text text-anchor="start" x="179.5" y="-1480" font-family="Helvetica,sans-Serif" font-size="10.00">di::function::function</text>
<text text-anchor="start" x="179.5" y="-1469" font-family="Helvetica,sans-Serif" font-size="10.00">_ref_ns::SignatureAfterBindFront</text>
<text text-anchor="middle" x="258.5" y="-1458" font-family="Helvetica,sans-Serif" font-size="10.00">Helper&lt; R(*)(U, Args...), T &gt;</text>
</a>
</g>
</g>
<!-- Node0&#45;&gt;Node1 -->
<g id="edge500_Node000000_Node000001" class="edge">
<title>Node0&#45;&gt;Node1</title>
<g id="a_edge500_Node000000_Node000001"><a xlink:title=" ">
<path fill="none" stroke="#63b8ff" d="M65.69,-782.77C67.04,-894.14 77.88,-1340.24 165,-1442.5 167.62,-1445.57 170.56,-1448.33 173.74,-1450.79"/>
<polygon fill="#63b8ff" stroke="#63b8ff" points="69.19,-782.47 65.58,-772.5 62.19,-782.54 69.19,-782.47"/>
</a>
</g>
</g>
<!-- Node2 -->
<g id="Node000002" class="node">
<title>Node2</title>
<g id="a_Node000002"><a xlink:href="structdi_1_1meta_1_1detail_1_1RemoveFunctionQualifiersHelper_3_01R_07Args_8_8_8_08_01_6_6_01_4.html" target="_top" xlink:title=" ">
<polygon fill="white" stroke="#666666" points="327,-1433 190,-1433 190,-1392 327,-1392 327,-1433"/>
<text text-anchor="start" x="198" y="-1421" font-family="Helvetica,sans-Serif" font-size="10.00">di::meta::detail::Remove</text>
<text text-anchor="start" x="198" y="-1410" font-family="Helvetica,sans-Serif" font-size="10.00">FunctionQualifiersHelper</text>
<text text-anchor="middle" x="258.5" y="-1399" font-family="Helvetica,sans-Serif" font-size="10.00">&lt; R(Args...) &amp;&amp; &gt;</text>
</a>
</g>
</g>
<!-- Node0&#45;&gt;Node2 -->
<g id="edge501_Node000000_Node000002" class="edge">
<title>Node0&#45;&gt;Node2</title>
<g id="a_edge501_Node000000_Node000002"><a xlink:title=" ">
<path fill="none" stroke="#63b8ff" d="M66.07,-782.6C68.95,-887.68 85.12,-1290.99 165,-1383.5 171.71,-1391.27 180.47,-1396.98 189.93,-1401.18"/>
<polygon fill="#63b8ff" stroke="#63b8ff" points="69.57,-782.5 65.81,-772.6 62.57,-782.68 69.57,-782.5"/>
</a>
</g>
</g>
<!-- Node3 -->
<g id="Node000003" class="node">
<title>Node3</title>
<g id="a_Node000003"><a xlink:href="structdi_1_1meta_1_1detail_1_1RemoveFunctionQualifiersHelper_3_01R_07Args_8_8_8_08_01_6_6noexcept_01_4.html" target="_top" xlink:title=" ">
<polygon fill="white" stroke="#666666" points="332,-1374 185,-1374 185,-1333 332,-1333 332,-1374"/>
<text text-anchor="start" x="193" y="-1362" font-family="Helvetica,sans-Serif" font-size="10.00">di::meta::detail::Remove</text>
<text text-anchor="start" x="193" y="-1351" font-family="Helvetica,sans-Serif" font-size="10.00">FunctionQualifiersHelper</text>
<text text-anchor="middle" x="258.5" y="-1340" font-family="Helvetica,sans-Serif" font-size="10.00">&lt; R(Args...) &amp;&amp;noexcept &gt;</text>
</a>
</g>
</g>
<!-- Node0&#45;&gt;Node3 -->
<g id="edge502_Node000000_Node000003" class="edge">
<title>Node0&#45;&gt;Node3</title>
<g id="a_edge502_Node000000_Node000003"><a xlink:title=" ">
<path fill="none" stroke="#63b8ff" d="M66.53,-782.75C71.07,-881.72 92.4,-1241.78 165,-1324.5 170.55,-1330.82 177.46,-1335.78 184.99,-1339.67"/>
<polygon fill="#63b8ff" stroke="#63b8ff" points="70.03,-782.59 66.09,-772.75 63.04,-782.9 70.03,-782.59"/>
</a>
</g>
</g>
<!-- Node4 -->
<g id="Node000004" class="node">
<title>Node4</title>
<g id="a_Node000004"><a xlink:href="structdi_1_1meta_1_1detail_1_1RemoveFunctionQualifiersHelper_3_01R_07Args_8_8_8_08_01_6noexcept_01_4.html" target="_top" xlink:title=" ">
<polygon fill="white" stroke="#666666" points="328.5,-1315 188.5,-1315 188.5,-1274 328.5,-1274 328.5,-1315"/>
<text text-anchor="start" x="196.5" y="-1303" font-family="Helvetica,sans-Serif" font-size="10.00">di::meta::detail::Remove</text>
<text text-anchor="start" x="196.5" y="-1292" font-family="Helvetica,sans-Serif" font-size="10.00">FunctionQualifiersHelper</text>
<text text-anchor="middle" x="258.5" y="-1281" font-family="Helvetica,sans-Serif" font-size="10.00">&lt; R(Args...) &amp;noexcept &gt;</text>
</a>
</g>
</g>
<!-- Node0&#45;&gt;Node4 -->
<g id="edge503_Node000000_Node000004" class="edge">
<title>Node0&#45;&gt;Node4</title>
<g id="a_edge503_Node000000_Node000004"><a xlink:title=" ">
<path fill="none" stroke="#63b8ff" d="M67.1,-782.76C73.42,-875.07 99.62,-1192.47 165,-1265.5 171.4,-1272.65 179.53,-1278.05 188.31,-1282.13"/>
<polygon fill="#63b8ff" stroke="#63b8ff" points="70.58,-782.4 66.42,-772.65 63.59,-782.86 70.58,-782.4"/>
</a>
</g>
</g>
<!-- Node5 -->
<g id="Node000005" class="node">
<title>Node5</title>
<g id="a_Node000005"><a xlink:href="structdi_1_1meta_1_1detail_1_1RemoveFunctionQualifiersHelper_3_01R_07Args_8_8_8_08_01const_01_6_01_4.html" target="_top" xlink:title=" ">
<polygon fill="white" stroke="#666666" points="327,-1256 190,-1256 190,-1215 327,-1215 327,-1256"/>
<text text-anchor="start" x="198" y="-1244" font-family="Helvetica,sans-Serif" font-size="10.00">di::meta::detail::Remove</text>
<text text-anchor="start" x="198" y="-1233" font-family="Helvetica,sans-Serif" font-size="10.00">FunctionQualifiersHelper</text>
<text text-anchor="middle" x="258.5" y="-1222" font-family="Helvetica,sans-Serif" font-size="10.00">&lt; R(Args...) const &amp; &gt;</text>
</a>
</g>
</g>
<!-- Node0&#45;&gt;Node5 -->
<g id="edge504_Node000000_Node000005" class="edge">
<title>Node0&#45;&gt;Node5</title>
<g id="a_edge504_Node000000_Node000005"><a xlink:title=" ">
<path fill="none" stroke="#63b8ff" d="M67.81,-782.84C76.07,-868.14 106.82,-1143.1 165,-1206.5 171.83,-1213.94 180.54,-1219.49 189.87,-1223.62"/>
<polygon fill="#63b8ff" stroke="#63b8ff" points="71.28,-782.37 66.85,-772.75 64.31,-783.03 71.28,-782.37"/>
</a>
</g>
</g>
<!-- Node6 -->
<g id="Node000006" class="node">
<title>Node6</title>
<g id="a_Node000006"><a xlink:href="structdi_1_1meta_1_1detail_1_1RemoveFunctionQualifiersHelper_3_01R_07Args_8_8_8_08_01const_01_6_6_01_4.html" target="_top" xlink:title=" ">
<polygon fill="white" stroke="#666666" points="327,-1197 190,-1197 190,-1156 327,-1156 327,-1197"/>
<text text-anchor="start" x="198" y="-1185" font-family="Helvetica,sans-Serif" font-size="10.00">di::meta::detail::Remove</text>
<text text-anchor="start" x="198" y="-1174" font-family="Helvetica,sans-Serif" font-size="10.00">FunctionQualifiersHelper</text>
<text text-anchor="middle" x="258.5" y="-1163" font-family="Helvetica,sans-Serif" font-size="10.00">&lt; R(Args...) const &amp;&amp; &gt;</text>
</a>
</g>
</g>
<!-- Node0&#45;&gt;Node6 -->
<g id="edge505_Node000000_Node000006" class="edge">
<title>Node0&#45;&gt;Node6</title>
<g id="a_edge505_Node000000_Node000006"><a xlink:title=" ">
<path fill="none" stroke="#63b8ff" d="M68.78,-783.26C79.23,-861.4 114.04,-1093.71 165,-1147.5 171.83,-1154.71 180.42,-1160.13 189.61,-1164.22"/>
<polygon fill="#63b8ff" stroke="#63b8ff" points="72.19,-782.35 67.42,-772.89 65.25,-783.26 72.19,-782.35"/>
</a>
</g>
</g>
<!-- Node7 -->
<g id="Node000007" class="node">
<title>Node7</title>
<g id="a_Node000007"><a xlink:href="structdi_1_1meta_1_1detail_1_1RemoveFunctionQualifiersHelper_3_01R_07Args_8_8_8_08_01const_01_6_6noexcept_01_4.html" target="_top" xlink:title=" ">
<polygon fill="white" stroke="#666666" points="346.5,-1138 170.5,-1138 170.5,-1097 346.5,-1097 346.5,-1138"/>
<text text-anchor="start" x="178.5" y="-1126" font-family="Helvetica,sans-Serif" font-size="10.00">di::meta::detail::Remove</text>
<text text-anchor="start" x="178.5" y="-1115" font-family="Helvetica,sans-Serif" font-size="10.00">FunctionQualifiersHelper</text>
<text text-anchor="middle" x="258.5" y="-1104" font-family="Helvetica,sans-Serif" font-size="10.00">&lt; R(Args...) const &amp;&amp;noexcept &gt;</text>
</a>
</g>
</g>
<!-- Node0&#45;&gt;Node7 -->
<g id="edge506_Node000000_Node000007" class="edge">
<title>Node0&#45;&gt;Node7</title>
<g id="a_edge506_Node000000_Node000007"><a xlink:title=" ">
<path fill="none" stroke="#63b8ff" d="M65.52,-783.16C67,-844.69 79.43,-1001.91 165,-1088.5 168.08,-1091.61 171.48,-1094.39 175.12,-1096.87"/>
<polygon fill="#63b8ff" stroke="#63b8ff" points="69.02,-782.77 65.36,-772.83 62.02,-782.88 69.02,-782.77"/>
</a>
</g>
</g>
<!-- Node8 -->
<g id="Node000008" class="node">
<title>Node8</title>
<g id="a_Node000008"><a xlink:href="structdi_1_1meta_1_1detail_1_1RemoveFunctionQualifiersHelper_3_01R_07Args_8_8_8_08_01const_01_6noexcept_01_4.html" target="_top" xlink:title=" ">
<polygon fill="white" stroke="#666666" points="343,-1079 174,-1079 174,-1038 343,-1038 343,-1079"/>
<text text-anchor="start" x="182" y="-1067" font-family="Helvetica,sans-Serif" font-size="10.00">di::meta::detail::Remove</text>
<text text-anchor="start" x="182" y="-1056" font-family="Helvetica,sans-Serif" font-size="10.00">FunctionQualifiersHelper</text>
<text text-anchor="middle" x="258.5" y="-1045" font-family="Helvetica,sans-Serif" font-size="10.00">&lt; R(Args...) const &amp;noexcept &gt;</text>
</a>
</g>
</g>
<!-- Node0&#45;&gt;Node8 -->
<g id="edge507_Node000000_Node000008" class="edge">
<title>Node0&#45;&gt;Node8</title>
<g id="a_edge507_Node000000_Node000008"><a xlink:title=" ">
<path fill="none" stroke="#63b8ff" d="M67.46,-782.92C72.95,-836.33 93.17,-960.96 165,-1029.5 168.29,-1032.64 171.91,-1035.43 175.76,-1037.93"/>
<polygon fill="#63b8ff" stroke="#63b8ff" points="70.92,-782.27 66.5,-772.64 63.95,-782.93 70.92,-782.27"/>
</a>
</g>
</g>
<!-- Node9 -->
<g id="Node000009" class="node">
<title>Node9</title>
<g id="a_Node000009"><a xlink:href="structdi_1_1meta_1_1detail_1_1RemoveFunctionQualifiersHelper_3_01R_07Args_8_8_8_08_01const_01_4.html" target="_top" xlink:title=" ">
<polygon fill="white" stroke="#666666" points="327,-1020 190,-1020 190,-979 327,-979 327,-1020"/>
<text text-anchor="start" x="198" y="-1008" font-family="Helvetica,sans-Serif" font-size="10.00">di::meta::detail::Remove</text>
<text text-anchor="start" x="198" y="-997" font-family="Helvetica,sans-Serif" font-size="10.00">FunctionQualifiersHelper</text>
<text text-anchor="middle" x="258.5" y="-986" font-family="Helvetica,sans-Serif" font-size="10.00">&lt; R(Args...) const &gt;</text>
</a>
</g>
</g>
<!-- Node0&#45;&gt;Node9 -->
<g id="edge508_Node000000_Node000009" class="edge">
<title>Node0&#45;&gt;Node9</title>
<g id="a_edge508_Node000000_Node000009"><a xlink:title=" ">
<path fill="none" stroke="#63b8ff" d="M70.32,-782.6C80.14,-826.99 106.68,-919.48 165,-970.5 172.22,-976.82 180.81,-981.76 189.8,-985.62"/>
<polygon fill="#63b8ff" stroke="#63b8ff" points="73.71,-781.71 68.22,-772.65 66.86,-783.16 73.71,-781.71"/>
</a>
</g>
</g>
<!-- Node10 -->
<g id="Node000010" class="node">
<title>Node10</title>
<g id="a_Node000010"><a xlink:href="structdi_1_1meta_1_1detail_1_1RemoveFunctionQualifiersHelper_3_01R_07Args_8_8_8_08_01const_01noexcept_01_4.html" target="_top" xlink:title=" ">
<polygon fill="white" stroke="#666666" points="339,-961 178,-961 178,-920 339,-920 339,-961"/>
<text text-anchor="start" x="186" y="-949" font-family="Helvetica,sans-Serif" font-size="10.00">di::meta::detail::Remove</text>
<text text-anchor="start" x="186" y="-938" font-family="Helvetica,sans-Serif" font-size="10.00">FunctionQualifiersHelper</text>
<text text-anchor="middle" x="258.5" y="-927" font-family="Helvetica,sans-Serif" font-size="10.00">&lt; R(Args...) const noexcept &gt;</text>
</a>
</g>
</g>
<!-- Node0&#45;&gt;Node10 -->
<g id="edge509_Node000000_Node000010" class="edge">
<title>Node0&#45;&gt;Node10</title>
<g id="a_edge509_Node000000_Node000010"><a xlink:title=" ">
<path fill="none" stroke="#63b8ff" d="M75.12,-782.34C89.55,-816.4 120.01,-877.26 165,-911.5 169.15,-914.66 173.65,-917.48 178.36,-919.99"/>
<polygon fill="#63b8ff" stroke="#63b8ff" points="78.19,-780.61 71.15,-772.69 71.71,-783.27 78.19,-780.61"/>
</a>
</g>
</g>
<!-- Node11 -->
<g id="Node000011" class="node">
<title>Node11</title>
<g id="a_Node000011"><a xlink:href="structdi_1_1meta_1_1detail_1_1RemoveFunctionQualifiersHelper_3_01R_07Args_8_8_8_08_01const_01volatile_01_6_01_4.html" target="_top" xlink:title=" ">
<polygon fill="white" stroke="#666666" points="340.5,-902 176.5,-902 176.5,-861 340.5,-861 340.5,-902"/>
<text text-anchor="start" x="184.5" y="-890" font-family="Helvetica,sans-Serif" font-size="10.00">di::meta::detail::Remove</text>
<text text-anchor="start" x="184.5" y="-879" font-family="Helvetica,sans-Serif" font-size="10.00">FunctionQualifiersHelper</text>
<text text-anchor="middle" x="258.5" y="-868" font-family="Helvetica,sans-Serif" font-size="10.00">&lt; R(Args...) const volatile &amp; &gt;</text>
</a>
</g>
</g>
<!-- Node0&#45;&gt;Node11 -->
<g id="edge510_Node000000_Node000011" class="edge">
<title>Node0&#45;&gt;Node11</title>
<g id="a_edge510_Node000000_Node000011"><a xlink:title=" ">
<path fill="none" stroke="#63b8ff" d="M83.85,-780.24C102.28,-801.7 132.53,-833.34 165,-852.5 170.22,-855.58 175.8,-858.37 181.53,-860.88"/>
<polygon fill="#63b8ff" stroke="#63b8ff" points="86.5,-777.96 77.38,-772.57 81.15,-782.47 86.5,-777.96"/>
</a>
</g>
</g>
<!-- Node12 -->
<g id="Node000012" class="node">
<title>Node12</title>
<g id="a_Node000012"><a xlink:href="structdi_1_1meta_1_1detail_1_1RemoveFunctionQualifiersHelper_3_01R_07Args_8_8_8_08_01const_01volatile_01_6_6_01_4.html" target="_top" xlink:title=" ">
<polygon fill="white" stroke="#666666" points="344,-843 173,-843 173,-802 344,-802 344,-843"/>
<text text-anchor="start" x="181" y="-831" font-family="Helvetica,sans-Serif" font-size="10.00">di::meta::detail::Remove</text>
<text text-anchor="start" x="181" y="-820" font-family="Helvetica,sans-Serif" font-size="10.00">FunctionQualifiersHelper</text>
<text text-anchor="middle" x="258.5" y="-809" font-family="Helvetica,sans-Serif" font-size="10.00">&lt; R(Args...) const volatile &amp;&amp; &gt;</text>
</a>
</g>
</g>
<!-- Node0&#45;&gt;Node12 -->
<g id="edge511_Node000000_Node000012" class="edge">
<title>Node0&#45;&gt;Node12</title>
<g id="a_edge511_Node000000_Node000012"><a xlink:title=" ">
<path fill="none" stroke="#63b8ff" d="M117.36,-776.01C132.67,-781.41 149.49,-787.26 165,-792.5 174.12,-795.58 183.76,-798.78 193.24,-801.89"/>
<polygon fill="#63b8ff" stroke="#63b8ff" points="118.14,-772.58 107.54,-772.55 115.8,-779.18 118.14,-772.58"/>
</a>
</g>
</g>
<!-- Node13 -->
<g id="Node000013" class="node">
<title>Node13</title>
<g id="a_Node000013"><a xlink:href="structdi_1_1meta_1_1detail_1_1RemoveFunctionQualifiersHelper_3_01R_07Args_8_8_8_08_01const_01volatile_01_6_6noexcept_01_4.html" target="_top" xlink:title=" ">
<polygon fill="white" stroke="#666666" points="329.5,-783.5 187.5,-783.5 187.5,-731.5 329.5,-731.5 329.5,-783.5"/>
<text text-anchor="start" x="195.5" y="-771.5" font-family="Helvetica,sans-Serif" font-size="10.00">di::meta::detail::Remove</text>
<text text-anchor="start" x="195.5" y="-760.5" font-family="Helvetica,sans-Serif" font-size="10.00">FunctionQualifiersHelper</text>
<text text-anchor="start" x="195.5" y="-749.5" font-family="Helvetica,sans-Serif" font-size="10.00">&lt; R(Args...) const volatile</text>
<text text-anchor="middle" x="258.5" y="-738.5" font-family="Helvetica,sans-Serif" font-size="10.00"> &amp;&amp;noexcept &gt;</text>
</a>
</g>
</g>
<!-- Node0&#45;&gt;Node13 -->
<g id="edge512_Node000000_Node000013" class="edge">
<title>Node0&#45;&gt;Node13</title>
<g id="a_edge512_Node000000_Node000013"><a xlink:title=" ">
<path fill="none" stroke="#63b8ff" d="M139.39,-757.5C155.16,-757.5 171.77,-757.5 187.39,-757.5"/>
<polygon fill="#63b8ff" stroke="#63b8ff" points="139.17,-754 129.17,-757.5 139.17,-761 139.17,-754"/>
</a>
</g>
</g>
<!-- Node14 -->
<g id="Node000014" class="node">
<title>Node14</title>
<g id="a_Node000014"><a xlink:href="structdi_1_1meta_1_1detail_1_1RemoveFunctionQualifiersHelper_3_01R_07Args_8_8_8_08_01const_01volatile_01_6noexcept_01_4.html" target="_top" xlink:title=" ">
<polygon fill="white" stroke="#666666" points="329.5,-713.5 187.5,-713.5 187.5,-661.5 329.5,-661.5 329.5,-713.5"/>
<text text-anchor="start" x="195.5" y="-701.5" font-family="Helvetica,sans-Serif" font-size="10.00">di::meta::detail::Remove</text>
<text text-anchor="start" x="195.5" y="-690.5" font-family="Helvetica,sans-Serif" font-size="10.00">FunctionQualifiersHelper</text>
<text text-anchor="start" x="195.5" y="-679.5" font-family="Helvetica,sans-Serif" font-size="10.00">&lt; R(Args...) const volatile</text>
<text text-anchor="middle" x="258.5" y="-668.5" font-family="Helvetica,sans-Serif" font-size="10.00"> &amp;noexcept &gt;</text>
</a>
</g>
</g>
<!-- Node0&#45;&gt;Node14 -->
<g id="edge513_Node000000_Node000014" class="edge">
<title>Node0&#45;&gt;Node14</title>
<g id="a_edge513_Node000000_Node000014"><a xlink:title=" ">
<path fill="none" stroke="#63b8ff" d="M116.37,-738.96C138.09,-731.04 163.8,-721.66 187.29,-713.1"/>
<polygon fill="#63b8ff" stroke="#63b8ff" points="114.89,-735.77 106.69,-742.48 117.28,-742.35 114.89,-735.77"/>
</a>
</g>
</g>
<!-- Node15 -->
<g id="Node000015" class="node">
<title>Node15</title>
<g id="a_Node000015"><a xlink:href="structdi_1_1meta_1_1detail_1_1RemoveFunctionQualifiersHelper_3_01R_07Args_8_8_8_08_01const_01volatile_01_4.html" target="_top" xlink:title=" ">
<polygon fill="white" stroke="#666666" points="335,-643 182,-643 182,-602 335,-602 335,-643"/>
<text text-anchor="start" x="190" y="-631" font-family="Helvetica,sans-Serif" font-size="10.00">di::meta::detail::Remove</text>
<text text-anchor="start" x="190" y="-620" font-family="Helvetica,sans-Serif" font-size="10.00">FunctionQualifiersHelper</text>
<text text-anchor="middle" x="258.5" y="-609" font-family="Helvetica,sans-Serif" font-size="10.00">&lt; R(Args...) const volatile &gt;</text>
</a>
</g>
</g>
<!-- Node0&#45;&gt;Node15 -->
<g id="edge514_Node000000_Node000015" class="edge">
<title>Node0&#45;&gt;Node15</title>
<g id="a_edge514_Node000000_Node000015"><a xlink:title=" ">
<path fill="none" stroke="#63b8ff" d="M81.95,-734.25C99.85,-710.53 130.57,-674.23 165,-652.5 170.57,-648.99 176.59,-645.85 182.79,-643.05"/>
<polygon fill="#63b8ff" stroke="#63b8ff" points="79.08,-732.24 75.95,-742.37 84.7,-736.41 79.08,-732.24"/>
</a>
</g>
</g>
<!-- Node16 -->
<g id="Node000016" class="node">
<title>Node16</title>
<g id="a_Node000016"><a xlink:href="structdi_1_1meta_1_1detail_1_1RemoveFunctionQualifiersHelper_3_01R_07Args_8_8_8_08_01const_01volatile_01noexcept_01_4.html" target="_top" xlink:title=" ">
<polygon fill="white" stroke="#666666" points="329.5,-583.5 187.5,-583.5 187.5,-531.5 329.5,-531.5 329.5,-583.5"/>
<text text-anchor="start" x="195.5" y="-571.5" font-family="Helvetica,sans-Serif" font-size="10.00">di::meta::detail::Remove</text>
<text text-anchor="start" x="195.5" y="-560.5" font-family="Helvetica,sans-Serif" font-size="10.00">FunctionQualifiersHelper</text>
<text text-anchor="start" x="195.5" y="-549.5" font-family="Helvetica,sans-Serif" font-size="10.00">&lt; R(Args...) const volatile</text>
<text text-anchor="middle" x="258.5" y="-538.5" font-family="Helvetica,sans-Serif" font-size="10.00"> noexcept &gt;</text>
</a>
</g>
</g>
<!-- Node0&#45;&gt;Node16 -->
<g id="edge515_Node000000_Node000016" class="edge">
<title>Node0&#45;&gt;Node16</title>
<g id="a_edge515_Node000000_Node000016"><a xlink:title=" ">
<path fill="none" stroke="#63b8ff" d="M74.63,-732.5C88.78,-696.95 119.26,-631.89 165,-593.5 171.6,-587.96 179.15,-583.21 187.03,-579.16"/>
<polygon fill="#63b8ff" stroke="#63b8ff" points="71.25,-731.51 70.91,-742.1 77.78,-734.04 71.25,-731.51"/>
</a>
</g>
</g>
<!-- Node17 -->
<g id="Node000017" class="node">
<title>Node17</title>
<g id="a_Node000017"><a xlink:href="structdi_1_1meta_1_1detail_1_1RemoveFunctionQualifiersHelper_3_01R_07Args_8_8_8_08_01noexcept_01_4.html" target="_top" xlink:title=" ">
<polygon fill="white" stroke="#666666" points="327,-513 190,-513 190,-472 327,-472 327,-513"/>
<text text-anchor="start" x="198" y="-501" font-family="Helvetica,sans-Serif" font-size="10.00">di::meta::detail::Remove</text>
<text text-anchor="start" x="198" y="-490" font-family="Helvetica,sans-Serif" font-size="10.00">FunctionQualifiersHelper</text>
<text text-anchor="middle" x="258.5" y="-479" font-family="Helvetica,sans-Serif" font-size="10.00">&lt; R(Args...) noexcept &gt;</text>
</a>
</g>
</g>
<!-- Node0&#45;&gt;Node17 -->
<g id="edge516_Node000000_Node000017" class="edge">
<title>Node0&#45;&gt;Node17</title>
<g id="a_edge516_Node000000_Node000017"><a xlink:title=" ">
<path fill="none" stroke="#63b8ff" d="M69.16,-732.28C77.43,-684.47 101.98,-580.27 165,-522.5 172.09,-516 180.61,-510.9 189.57,-506.91"/>
<polygon fill="#63b8ff" stroke="#63b8ff" points="65.67,-731.95 67.52,-742.38 72.58,-733.07 65.67,-731.95"/>
</a>
</g>
</g>
<!-- Node18 -->
<g id="Node000018" class="node">
<title>Node18</title>
<g id="a_Node000018"><a xlink:href="structdi_1_1meta_1_1detail_1_1RemoveFunctionQualifiersHelper_3_01R_07Args_8_8_8_08_01volatile_01_6_01_4.html" target="_top" xlink:title=" ">
<polygon fill="white" stroke="#666666" points="327,-454 190,-454 190,-413 327,-413 327,-454"/>
<text text-anchor="start" x="198" y="-442" font-family="Helvetica,sans-Serif" font-size="10.00">di::meta::detail::Remove</text>
<text text-anchor="start" x="198" y="-431" font-family="Helvetica,sans-Serif" font-size="10.00">FunctionQualifiersHelper</text>
<text text-anchor="middle" x="258.5" y="-420" font-family="Helvetica,sans-Serif" font-size="10.00">&lt; R(Args...) volatile &amp; &gt;</text>
</a>
</g>
</g>
<!-- Node0&#45;&gt;Node18 -->
<g id="edge517_Node000000_Node000018" class="edge">
<title>Node0&#45;&gt;Node18</title>
<g id="a_edge517_Node000000_Node000018"><a xlink:title=" ">
<path fill="none" stroke="#63b8ff" d="M66.71,-732.06C70.77,-675.64 88.43,-539.1 165,-463.5 171.97,-456.62 180.53,-451.32 189.6,-447.23"/>
<polygon fill="#63b8ff" stroke="#63b8ff" points="63.21,-732.03 66.07,-742.23 70.19,-732.47 63.21,-732.03"/>
</a>
</g>
</g>
<!-- Node19 -->
<g id="Node000019" class="node">
<title>Node19</title>
<g id="a_Node000019"><a xlink:href="structdi_1_1meta_1_1detail_1_1RemoveFunctionQualifiersHelper_3_01R_07Args_8_8_8_08_01volatile_01_6_6_01_4.html" target="_top" xlink:title=" ">
<polygon fill="white" stroke="#666666" points="329.5,-395 187.5,-395 187.5,-354 329.5,-354 329.5,-395"/>
<text text-anchor="start" x="195.5" y="-383" font-family="Helvetica,sans-Serif" font-size="10.00">di::meta::detail::Remove</text>
<text text-anchor="start" x="195.5" y="-372" font-family="Helvetica,sans-Serif" font-size="10.00">FunctionQualifiersHelper</text>
<text text-anchor="middle" x="258.5" y="-361" font-family="Helvetica,sans-Serif" font-size="10.00">&lt; R(Args...) volatile &amp;&amp; &gt;</text>
</a>
</g>
</g>
<!-- Node0&#45;&gt;Node19 -->
<g id="edge518_Node000000_Node000019" class="edge">
<title>Node0&#45;&gt;Node19</title>
<g id="a_edge518_Node000000_Node000019"><a xlink:title=" ">
<path fill="none" stroke="#63b8ff" d="M65,-731.98C65.17,-667.86 74.64,-498.44 165,-404.5 171.32,-397.93 179.09,-392.8 187.42,-388.79"/>
<polygon fill="#63b8ff" stroke="#63b8ff" points="61.5,-732.37 65.06,-742.35 68.5,-732.33 61.5,-732.37"/>
</a>
</g>
</g>
<!-- Node20 -->
<g id="Node000020" class="node">
<title>Node20</title>
<g id="a_Node000020"><a xlink:href="structdi_1_1meta_1_1detail_1_1RemoveFunctionQualifiersHelper_3_01R_07Args_8_8_8_08_01volatile_01_6_6noexcept_01_4.html" target="_top" xlink:title=" ">
<polygon fill="white" stroke="#666666" points="352,-336 165,-336 165,-295 352,-295 352,-336"/>
<text text-anchor="start" x="173" y="-324" font-family="Helvetica,sans-Serif" font-size="10.00">di::meta::detail::Remove</text>
<text text-anchor="start" x="173" y="-313" font-family="Helvetica,sans-Serif" font-size="10.00">FunctionQualifiersHelper</text>
<text text-anchor="middle" x="258.5" y="-302" font-family="Helvetica,sans-Serif" font-size="10.00">&lt; R(Args...) volatile &amp;&amp;noexcept &gt;</text>
</a>
</g>
</g>
<!-- Node0&#45;&gt;Node20 -->
<g id="edge519_Node000000_Node000020" class="edge">
<title>Node0&#45;&gt;Node20</title>
<g id="a_edge519_Node000000_Node000020"><a xlink:title=" ">
<path fill="none" stroke="#63b8ff" d="M68.41,-731.92C78.09,-651.1 111.64,-403.12 165,-345.5 168.21,-342.03 171.83,-338.96 175.72,-336.25"/>
<polygon fill="#63b8ff" stroke="#63b8ff" points="64.89,-731.84 67.2,-742.18 71.85,-732.66 64.89,-731.84"/>
</a>
</g>
</g>
<!-- Node21 -->
<g id="Node000021" class="node">
<title>Node21</title>
<g id="a_Node000021"><a xlink:href="structdi_1_1meta_1_1detail_1_1RemoveFunctionQualifiersHelper_3_01R_07Args_8_8_8_08_01volatile_01_6noexcept_01_4.html" target="_top" xlink:title=" ">
<polygon fill="white" stroke="#666666" points="348,-277 169,-277 169,-236 348,-236 348,-277"/>
<text text-anchor="start" x="177" y="-265" font-family="Helvetica,sans-Serif" font-size="10.00">di::meta::detail::Remove</text>
<text text-anchor="start" x="177" y="-254" font-family="Helvetica,sans-Serif" font-size="10.00">FunctionQualifiersHelper</text>
<text text-anchor="middle" x="258.5" y="-243" font-family="Helvetica,sans-Serif" font-size="10.00">&lt; R(Args...) volatile &amp;noexcept &gt;</text>
</a>
</g>
</g>
<!-- Node0&#45;&gt;Node21 -->
<g id="edge520_Node000000_Node000021" class="edge">
<title>Node0&#45;&gt;Node21</title>
<g id="a_edge520_Node000000_Node000021"><a xlink:title=" ">
<path fill="none" stroke="#63b8ff" d="M67.58,-731.82C75.23,-643.45 104.56,-353.68 165,-286.5 168.16,-282.99 171.74,-279.88 175.6,-277.14"/>
<polygon fill="#63b8ff" stroke="#63b8ff" points="64.07,-731.76 66.72,-742.02 71.05,-732.35 64.07,-731.76"/>
</a>
</g>
</g>
<!-- Node22 -->
<g id="Node000022" class="node">
<title>Node22</title>
<g id="a_Node000022"><a xlink:href="structdi_1_1meta_1_1detail_1_1RemoveFunctionQualifiersHelper_3_01R_07Args_8_8_8_08_01volatile_01_4.html" target="_top" xlink:title=" ">
<polygon fill="white" stroke="#666666" points="327,-218 190,-218 190,-177 327,-177 327,-218"/>
<text text-anchor="start" x="198" y="-206" font-family="Helvetica,sans-Serif" font-size="10.00">di::meta::detail::Remove</text>
<text text-anchor="start" x="198" y="-195" font-family="Helvetica,sans-Serif" font-size="10.00">FunctionQualifiersHelper</text>
<text text-anchor="middle" x="258.5" y="-184" font-family="Helvetica,sans-Serif" font-size="10.00">&lt; R(Args...) volatile &gt;</text>
</a>
</g>
</g>
<!-- Node0&#45;&gt;Node22 -->
<g id="edge521_Node000000_Node000022" class="edge">
<title>Node0&#45;&gt;Node22</title>
<g id="a_edge521_Node000000_Node000022"><a xlink:title=" ">
<path fill="none" stroke="#63b8ff" d="M66.89,-732.41C72.6,-637.85 97.27,-304.51 165,-227.5 171.69,-219.89 180.32,-214.21 189.63,-209.95"/>
<polygon fill="#63b8ff" stroke="#63b8ff" points="63.39,-732.3 66.3,-742.49 70.37,-732.71 63.39,-732.3"/>
</a>
</g>
</g>
<!-- Node23 -->
<g id="Node000023" class="node">
<title>Node23</title>
<g id="a_Node000023"><a xlink:href="structdi_1_1meta_1_1detail_1_1RemoveFunctionQualifiersHelper_3_01R_07Args_8_8_8_08_01volatile_01noexcept_01_4.html" target="_top" xlink:title=" ">
<polygon fill="white" stroke="#666666" points="344.5,-159 172.5,-159 172.5,-118 344.5,-118 344.5,-159"/>
<text text-anchor="start" x="180.5" y="-147" font-family="Helvetica,sans-Serif" font-size="10.00">di::meta::detail::Remove</text>
<text text-anchor="start" x="180.5" y="-136" font-family="Helvetica,sans-Serif" font-size="10.00">FunctionQualifiersHelper</text>
<text text-anchor="middle" x="258.5" y="-125" font-family="Helvetica,sans-Serif" font-size="10.00">&lt; R(Args...) volatile noexcept &gt;</text>
</a>
</g>
</g>
<!-- Node0&#45;&gt;Node23 -->
<g id="edge522_Node000000_Node000023" class="edge">
<title>Node0&#45;&gt;Node23</title>
<g id="a_edge522_Node000000_Node000023"><a xlink:title=" ">
<path fill="none" stroke="#63b8ff" d="M66.37,-732.3C70.37,-631.06 90.12,-255.22 165,-168.5 167.98,-165.05 171.36,-161.99 175.02,-159.29"/>
<polygon fill="#63b8ff" stroke="#63b8ff" points="62.87,-732.37 65.99,-742.5 69.86,-732.64 62.87,-732.37"/>
</a>
</g>
</g>
<!-- Node24 -->
<g id="Node000024" class="node">
<title>Node24</title>
<g id="a_Node000024"><a xlink:href="structdi_1_1meta_1_1detail_1_1RemoveFunctionQualifiersHelper_3_01R_07Args_8_8_8_08_6_01_4.html" target="_top" xlink:title=" ">
<polygon fill="white" stroke="#666666" points="327,-100 190,-100 190,-59 327,-59 327,-100"/>
<text text-anchor="start" x="198" y="-88" font-family="Helvetica,sans-Serif" font-size="10.00">di::meta::detail::Remove</text>
<text text-anchor="start" x="198" y="-77" font-family="Helvetica,sans-Serif" font-size="10.00">FunctionQualifiersHelper</text>
<text text-anchor="middle" x="258.5" y="-66" font-family="Helvetica,sans-Serif" font-size="10.00">&lt; R(Args...)&amp; &gt;</text>
</a>
</g>
</g>
<!-- Node0&#45;&gt;Node24 -->
<g id="edge523_Node000000_Node000024" class="edge">
<title>Node0&#45;&gt;Node24</title>
<g id="a_edge523_Node000000_Node000024"><a xlink:title=" ">
<path fill="none" stroke="#63b8ff" d="M65.95,-732.25C68.35,-624.7 82.92,-206.01 165,-109.5 171.67,-101.66 180.42,-95.85 189.87,-91.55"/>
<polygon fill="#63b8ff" stroke="#63b8ff" points="62.44,-732.4 65.74,-742.47 69.44,-732.54 62.44,-732.4"/>
</a>
</g>
</g>
<!-- Node25 -->
<g id="Node000025" class="node">
<title>Node25</title>
<g id="a_Node000025"><a xlink:href="structdi_1_1meta_1_1detail_1_1RemoveFunctionQualifiersHelper_3_01R_07Args_8_8_8_08_4.html" target="_top" xlink:title=" ">
<polygon fill="white" stroke="#666666" points="327,-41 190,-41 190,0 327,0 327,-41"/>
<text text-anchor="start" x="198" y="-29" font-family="Helvetica,sans-Serif" font-size="10.00">di::meta::detail::Remove</text>
<text text-anchor="start" x="198" y="-18" font-family="Helvetica,sans-Serif" font-size="10.00">FunctionQualifiersHelper</text>
<text text-anchor="middle" x="258.5" y="-7" font-family="Helvetica,sans-Serif" font-size="10.00">&lt; R(Args...)&gt;</text>
</a>
</g>
</g>
<!-- Node0&#45;&gt;Node25 -->
<g id="edge524_Node000000_Node000025" class="edge">
<title>Node0&#45;&gt;Node25</title>
<g id="a_edge524_Node000000_Node000025"><a xlink:title=" ">
<path fill="none" stroke="#63b8ff" d="M65.59,-732.16C66.5,-618.54 75.71,-156.83 165,-50.5 171.62,-42.61 180.34,-36.78 189.78,-32.47"/>
<polygon fill="#63b8ff" stroke="#63b8ff" points="62.09,-732.31 65.52,-742.33 69.09,-732.35 62.09,-732.31"/>
</a>
</g>
</g>
</g>
</svg>
