<?xml version="1.0" encoding="UTF-8" standalone="no"?>
<!DOCTYPE svg PUBLIC "-//W3C//DTD SVG 1.1//EN"
 "http://www.w3.org/Graphics/SVG/1.1/DTD/svg11.dtd">
<!-- Generated by graphviz version 2.43.0 (0)
 -->
<!-- Title: Graphical Class Hierarchy Pages: 1 -->
<svg width="360pt" height="179pt"
 viewBox="0.00 0.00 360.00 179.00" xmlns="http://www.w3.org/2000/svg" xmlns:xlink="http://www.w3.org/1999/xlink">
<g id="graph0" class="graph" transform="scale(1 1) rotate(0) translate(4 175)">
<title>Graphical Class Hierarchy</title>
<!-- Node0 -->
<g id="Node000000" class="node">
<title>Node0</title>
<g id="a_Node000000"><a xlink:href="classdi_1_1meta_1_1EnableBorrowedContainer.html" target="_top" xlink:title=" ">
<polygon fill="white" stroke="#666666" points="168,-171 0,-171 0,-130 168,-130 168,-171"/>
<text text-anchor="start" x="8" y="-159" font-family="Helvetica,sans-Serif" font-size="10.00">di::meta::EnableBorrowed</text>
<text text-anchor="start" x="8" y="-148" font-family="Helvetica,sans-Serif" font-size="10.00">Container&lt; RecursiveDirectory</text>
<text text-anchor="middle" x="84" y="-137" font-family="Helvetica,sans-Serif" font-size="10.00">Iterator &gt;</text>
</a>
</g>
</g>
<!-- Node1 -->
<g id="Node000001" class="node">
<title>Node1</title>
<g id="a_Node000001"><a xlink:href="classdius_1_1filesystem_1_1RecursiveDirectoryIterator.html" target="_top" xlink:title=" ">
<polygon fill="white" stroke="#666666" points="352,-111.5 204,-111.5 204,-81.5 352,-81.5 352,-111.5"/>
<text text-anchor="start" x="212" y="-99.5" font-family="Helvetica,sans-Serif" font-size="10.00">dius::filesystem::Recursive</text>
<text text-anchor="middle" x="278" y="-88.5" font-family="Helvetica,sans-Serif" font-size="10.00">DirectoryIterator</text>
</a>
</g>
</g>
<!-- Node0&#45;&gt;Node1 -->
<g id="edge430_Node000000_Node000001" class="edge">
<title>Node0&#45;&gt;Node1</title>
<g id="a_edge430_Node000000_Node000001"><a xlink:title=" ">
<path fill="none" stroke="#63b8ff" d="M167.9,-127.18C186.73,-121.89 206.25,-116.4 223.47,-111.55"/>
<polygon fill="#63b8ff" stroke="#63b8ff" points="166.81,-123.85 158.13,-129.93 168.71,-130.59 166.81,-123.85"/>
</a>
</g>
</g>
<!-- Node2 -->
<g id="Node000002" class="node">
<title>Node2</title>
<g id="a_Node000002"><a xlink:href="classdi_1_1meta_1_1EnableView.html" target="_top" xlink:title=" ">
<polygon fill="white" stroke="#666666" points="168,-111.5 0,-111.5 0,-81.5 168,-81.5 168,-111.5"/>
<text text-anchor="start" x="8" y="-99.5" font-family="Helvetica,sans-Serif" font-size="10.00">di::meta::EnableView</text>
<text text-anchor="middle" x="84" y="-88.5" font-family="Helvetica,sans-Serif" font-size="10.00">&lt; RecursiveDirectoryIterator &gt;</text>
</a>
</g>
</g>
<!-- Node2&#45;&gt;Node1 -->
<g id="edge431_Node000002_Node000001" class="edge">
<title>Node2&#45;&gt;Node1</title>
<g id="a_edge431_Node000002_Node000001"><a xlink:title=" ">
<path fill="none" stroke="#63b8ff" d="M178.15,-96.5C186.74,-96.5 195.36,-96.5 203.73,-96.5"/>
<polygon fill="#63b8ff" stroke="#63b8ff" points="178.1,-93 168.1,-96.5 178.1,-100 178.1,-93"/>
</a>
</g>
</g>
<!-- Node3 -->
<g id="Node000003" class="node">
<title>Node3</title>
<g id="a_Node000003"><a xlink:href="structdi_1_1container_1_1IteratorBase.html" target="_top" xlink:title=" ">
<polygon fill="white" stroke="#666666" points="164,-63 4,-63 4,0 164,0 164,-63"/>
<text text-anchor="start" x="12" y="-51" font-family="Helvetica,sans-Serif" font-size="10.00">di::container::IteratorBase</text>
<text text-anchor="start" x="12" y="-40" font-family="Helvetica,sans-Serif" font-size="10.00">&lt; RecursiveDirectoryIterator,</text>
<text text-anchor="start" x="12" y="-29" font-family="Helvetica,sans-Serif" font-size="10.00"> di::InputIteratorTag, di::</text>
<text text-anchor="start" x="12" y="-18" font-family="Helvetica,sans-Serif" font-size="10.00">Expected&lt; DirectoryEntry, di</text>
<text text-anchor="middle" x="84" y="-7" font-family="Helvetica,sans-Serif" font-size="10.00">::GenericCode &gt;, i64 &gt;</text>
</a>
</g>
</g>
<!-- Node3&#45;&gt;Node1 -->
<g id="edge432_Node000003_Node000001" class="edge">
<title>Node3&#45;&gt;Node1</title>
<g id="a_edge432_Node000003_Node000001"><a xlink:title=" ">
<path fill="none" stroke="#63b8ff" d="M173.84,-61.58C194.22,-68.48 215.04,-75.52 232.59,-81.46"/>
<polygon fill="#63b8ff" stroke="#63b8ff" points="174.8,-58.2 164.2,-58.31 172.55,-64.84 174.8,-58.2"/>
</a>
</g>
</g>
</g>
</svg>
