<?xml version="1.0" encoding="UTF-8" standalone="no"?>
<!DOCTYPE svg PUBLIC "-//W3C//DTD SVG 1.1//EN"
 "http://www.w3.org/Graphics/SVG/1.1/DTD/svg11.dtd">
<!-- Generated by graphviz version 2.43.0 (0)
 -->
<!-- Title: Graphical Class Hierarchy Pages: 1 -->
<svg width="331pt" height="157pt"
 viewBox="0.00 0.00 331.00 156.50" xmlns="http://www.w3.org/2000/svg" xmlns:xlink="http://www.w3.org/1999/xlink">
<g id="graph0" class="graph" transform="scale(1 1) rotate(0) translate(4 152.5)">
<title>Graphical Class Hierarchy</title>
<!-- Node0 -->
<g id="Node000000" class="node">
<title>Node0</title>
<g id="a_Node000000"><a xlink:href="classdi_1_1container_1_1ConstantVectorInterface.html" target="_top" xlink:title=" ">
<polygon fill="white" stroke="#666666" points="168.5,-148.5 7.5,-148.5 7.5,-107.5 168.5,-107.5 168.5,-148.5"/>
<text text-anchor="start" x="15.5" y="-136.5" font-family="Helvetica,sans-Serif" font-size="10.00">di::container::ConstantVector</text>
<text text-anchor="start" x="15.5" y="-125.5" font-family="Helvetica,sans-Serif" font-size="10.00">Interface&lt; Span&lt; T, dynamic</text>
<text text-anchor="middle" x="88" y="-114.5" font-family="Helvetica,sans-Serif" font-size="10.00">_extent &gt;, T &gt;</text>
</a>
</g>
</g>
<!-- Node1 -->
<g id="Node000001" class="node">
<title>Node1</title>
<g id="a_Node000001"><a xlink:href="classdi_1_1vocab_1_1Span_3_01T_00_01dynamic__extent_01_4.html" target="_top" xlink:title=" ">
<polygon fill="white" stroke="#666666" points="323,-84 212,-84 212,-54 323,-54 323,-84"/>
<text text-anchor="start" x="220" y="-72" font-family="Helvetica,sans-Serif" font-size="10.00">di::vocab::Span&lt; T,</text>
<text text-anchor="middle" x="267.5" y="-61" font-family="Helvetica,sans-Serif" font-size="10.00"> dynamic_extent &gt;</text>
</a>
</g>
</g>
<!-- Node0&#45;&gt;Node1 -->
<g id="edge157_Node000000_Node000001" class="edge">
<title>Node0&#45;&gt;Node1</title>
<g id="a_edge157_Node000000_Node000001"><a xlink:title=" ">
<path fill="none" stroke="#63b8ff" d="M160.68,-104.17C181.13,-97.38 202.84,-90.16 221.23,-84.05"/>
<polygon fill="#63b8ff" stroke="#63b8ff" points="159.47,-100.89 151.08,-107.36 161.67,-107.53 159.47,-100.89"/>
</a>
</g>
</g>
<!-- Node2 -->
<g id="Node000002" class="node">
<title>Node2</title>
<g id="a_Node000002"><a xlink:href="classdi_1_1meta_1_1EnableBorrowedContainer.html" target="_top" xlink:title=" ">
<polygon fill="white" stroke="#666666" points="170,-89.5 6,-89.5 6,-48.5 170,-48.5 170,-89.5"/>
<text text-anchor="start" x="14" y="-77.5" font-family="Helvetica,sans-Serif" font-size="10.00">di::meta::EnableBorrowed</text>
<text text-anchor="start" x="14" y="-66.5" font-family="Helvetica,sans-Serif" font-size="10.00">Container&lt; Span&lt; T, dynamic</text>
<text text-anchor="middle" x="88" y="-55.5" font-family="Helvetica,sans-Serif" font-size="10.00">_extent &gt; &gt;</text>
</a>
</g>
</g>
<!-- Node2&#45;&gt;Node1 -->
<g id="edge158_Node000002_Node000001" class="edge">
<title>Node2&#45;&gt;Node1</title>
<g id="a_edge158_Node000002_Node000001"><a xlink:title=" ">
<path fill="none" stroke="#63b8ff" d="M180.52,-69C191.27,-69 201.97,-69 211.98,-69"/>
<polygon fill="#63b8ff" stroke="#63b8ff" points="180.22,-65.5 170.22,-69 180.22,-72.5 180.22,-65.5"/>
</a>
</g>
</g>
<!-- Node3 -->
<g id="Node000003" class="node">
<title>Node3</title>
<g id="a_Node000003"><a xlink:href="classdi_1_1meta_1_1EnableView.html" target="_top" xlink:title=" ">
<polygon fill="white" stroke="#666666" points="176,-30 0,-30 0,0 176,0 176,-30"/>
<text text-anchor="start" x="8" y="-18" font-family="Helvetica,sans-Serif" font-size="10.00">di::meta::EnableView</text>
<text text-anchor="middle" x="88" y="-7" font-family="Helvetica,sans-Serif" font-size="10.00">&lt; Span&lt; T, dynamic_extent &gt; &gt;</text>
</a>
</g>
</g>
<!-- Node3&#45;&gt;Node1 -->
<g id="edge159_Node000003_Node000001" class="edge">
<title>Node3&#45;&gt;Node1</title>
<g id="a_edge159_Node000003_Node000001"><a xlink:title=" ">
<path fill="none" stroke="#63b8ff" d="M152.18,-32.91C160.21,-35.26 168.3,-37.66 176,-40 190.52,-44.41 206.3,-49.4 220.54,-53.98"/>
<polygon fill="#63b8ff" stroke="#63b8ff" points="153.03,-29.51 142.45,-30.08 151.07,-36.23 153.03,-29.51"/>
</a>
</g>
</g>
</g>
</svg>
