<?xml version="1.0" encoding="UTF-8" standalone="no"?>
<!DOCTYPE svg PUBLIC "-//W3C//DTD SVG 1.1//EN"
 "http://www.w3.org/Graphics/SVG/1.1/DTD/svg11.dtd">
<!-- Generated by graphviz version 2.43.0 (0)
 -->
<!-- Title: Graphical Class Hierarchy Pages: 1 -->
<svg width="391pt" height="296pt"
 viewBox="0.00 0.00 391.00 296.00" xmlns="http://www.w3.org/2000/svg" xmlns:xlink="http://www.w3.org/1999/xlink">
<g id="graph0" class="graph" transform="scale(1 1) rotate(0) translate(4 292)">
<title>Graphical Class Hierarchy</title>
<!-- Node0 -->
<g id="Node000000" class="node">
<title>Node0</title>
<g id="a_Node000000"><a xlink:href="classdi_1_1container_1_1SentinelBase.html" target="_top" xlink:title=" ">
<polygon fill="white" stroke="#666666" points="147,-148 0,-148 0,-118 147,-118 147,-148"/>
<text text-anchor="start" x="8" y="-136" font-family="Helvetica,sans-Serif" font-size="10.00">di::container::SentinelBase</text>
<text text-anchor="middle" x="73.5" y="-125" font-family="Helvetica,sans-Serif" font-size="10.00">&lt; Self &gt;</text>
</a>
</g>
</g>
<!-- Node1 -->
<g id="Node000001" class="node">
<title>Node1</title>
<g id="a_Node000001"><a xlink:href="classdi_1_1container_1_1SentinelExtension.html" target="_top" xlink:title=" ">
<polygon fill="white" stroke="#666666" points="383,-288 183,-288 183,-236 383,-236 383,-288"/>
<text text-anchor="start" x="191" y="-276" font-family="Helvetica,sans-Serif" font-size="10.00">di::container::SentinelExtension</text>
<text text-anchor="start" x="191" y="-265" font-family="Helvetica,sans-Serif" font-size="10.00">&lt; Sentinel&lt; is_const &gt;, InnerSentinel</text>
<text text-anchor="start" x="191" y="-254" font-family="Helvetica,sans-Serif" font-size="10.00">&lt; is_const &gt;, Iterator&lt; is_const</text>
<text text-anchor="middle" x="283" y="-243" font-family="Helvetica,sans-Serif" font-size="10.00"> &gt;, InnerIterator&lt; is_const &gt; &gt;</text>
</a>
</g>
</g>
<!-- Node0&#45;&gt;Node1 -->
<g id="edge224_Node000000_Node000001" class="edge">
<title>Node0&#45;&gt;Node1</title>
<g id="a_edge224_Node000000_Node000001"><a xlink:title=" ">
<path fill="none" stroke="#63b8ff" d="M95.55,-155.57C116.14,-176.53 149.23,-207.36 183,-227 188.52,-230.21 194.37,-233.19 200.38,-235.96"/>
<polygon fill="#63b8ff" stroke="#63b8ff" points="98.02,-153.09 88.56,-148.34 92.99,-157.96 98.02,-153.09"/>
</a>
</g>
</g>
<!-- Node2 -->
<g id="Node000002" class="node">
<title>Node2</title>
<g id="a_Node000002"><a xlink:href="classdi_1_1container_1_1SentinelExtension.html" target="_top" xlink:title=" ">
<polygon fill="white" stroke="#666666" points="369,-218 197,-218 197,-166 369,-166 369,-218"/>
<text text-anchor="start" x="205" y="-206" font-family="Helvetica,sans-Serif" font-size="10.00">di::container::SentinelExtension</text>
<text text-anchor="start" x="205" y="-195" font-family="Helvetica,sans-Serif" font-size="10.00">&lt; Sentinel&lt; is_const &gt;, Sent</text>
<text text-anchor="start" x="205" y="-184" font-family="Helvetica,sans-Serif" font-size="10.00">&lt; is_const &gt;, Iterator&lt; is_const</text>
<text text-anchor="middle" x="283" y="-173" font-family="Helvetica,sans-Serif" font-size="10.00"> &gt;, Iter&lt; is_const &gt; &gt;</text>
</a>
</g>
</g>
<!-- Node0&#45;&gt;Node2 -->
<g id="edge225_Node000000_Node000002" class="edge">
<title>Node0&#45;&gt;Node2</title>
<g id="a_edge225_Node000000_Node000002"><a xlink:title=" ">
<path fill="none" stroke="#63b8ff" d="M137.04,-150.78C155.89,-156.14 176.9,-162.12 196.95,-167.82"/>
<polygon fill="#63b8ff" stroke="#63b8ff" points="137.97,-147.41 127.4,-148.04 136.06,-154.14 137.97,-147.41"/>
</a>
</g>
</g>
<!-- Node3 -->
<g id="Node000003" class="node">
<title>Node3</title>
<g id="a_Node000003"><a xlink:href="classdi_1_1container_1_1SentinelExtension.html" target="_top" xlink:title=" ">
<polygon fill="white" stroke="#666666" points="368.5,-148 197.5,-148 197.5,-118 368.5,-118 368.5,-148"/>
<text text-anchor="start" x="205.5" y="-136" font-family="Helvetica,sans-Serif" font-size="10.00">di::container::SentinelExtension</text>
<text text-anchor="middle" x="283" y="-125" font-family="Helvetica,sans-Serif" font-size="10.00">&lt; Sentinel, Sent, Iterator, Iter &gt;</text>
</a>
</g>
</g>
<!-- Node0&#45;&gt;Node3 -->
<g id="edge226_Node000000_Node000003" class="edge">
<title>Node0&#45;&gt;Node3</title>
<g id="a_edge226_Node000000_Node000003"><a xlink:title=" ">
<path fill="none" stroke="#63b8ff" d="M157.1,-133C170.35,-133 184.08,-133 197.37,-133"/>
<polygon fill="#63b8ff" stroke="#63b8ff" points="157.07,-129.5 147.07,-133 157.07,-136.5 157.07,-129.5"/>
</a>
</g>
</g>
<!-- Node4 -->
<g id="Node000004" class="node">
<title>Node4</title>
<g id="a_Node000004"><a xlink:href="classdi_1_1container_1_1SentinelExtension.html" target="_top" xlink:title=" ">
<polygon fill="white" stroke="#666666" points="371,-100 195,-100 195,-48 371,-48 371,-100"/>
<text text-anchor="start" x="203" y="-88" font-family="Helvetica,sans-Serif" font-size="10.00">di::container::SentinelExtension</text>
<text text-anchor="start" x="203" y="-77" font-family="Helvetica,sans-Serif" font-size="10.00">&lt; Sentinel&lt; is_const &gt;, Zentinel</text>
<text text-anchor="start" x="203" y="-66" font-family="Helvetica,sans-Serif" font-size="10.00">&lt; is_const &gt;, Iterator&lt; is_const</text>
<text text-anchor="middle" x="283" y="-55" font-family="Helvetica,sans-Serif" font-size="10.00"> &gt;, Ziperator&lt; is_const &gt; &gt;</text>
</a>
</g>
</g>
<!-- Node0&#45;&gt;Node4 -->
<g id="edge227_Node000000_Node000004" class="edge">
<title>Node0&#45;&gt;Node4</title>
<g id="a_edge227_Node000000_Node000004"><a xlink:title=" ">
<path fill="none" stroke="#63b8ff" d="M137.26,-115.15C155.42,-109.99 175.58,-104.26 194.94,-98.76"/>
<polygon fill="#63b8ff" stroke="#63b8ff" points="136.06,-111.86 127.4,-117.96 137.97,-118.59 136.06,-111.86"/>
</a>
</g>
</g>
<!-- Node5 -->
<g id="Node000005" class="node">
<title>Node5</title>
<g id="a_Node000005"><a xlink:href="classdi_1_1container_1_1SentinelExtension.html" target="_top" xlink:title=" ">
<polygon fill="white" stroke="#666666" points="370,-30 196,-30 196,0 370,0 370,-30"/>
<text text-anchor="start" x="204" y="-18" font-family="Helvetica,sans-Serif" font-size="10.00">di::container::SentinelExtension</text>
<text text-anchor="middle" x="283" y="-7" font-family="Helvetica,sans-Serif" font-size="10.00">&lt; Self, Sent, WrappedIter, Iter &gt;</text>
</a>
</g>
</g>
<!-- Node0&#45;&gt;Node5 -->
<g id="edge228_Node000000_Node000005" class="edge">
<title>Node0&#45;&gt;Node5</title>
<g id="a_edge228_Node000000_Node000005"><a xlink:title=" ">
<path fill="none" stroke="#63b8ff" d="M94.43,-110.37C114.65,-88.83 147.88,-57.1 183,-39 189.68,-35.56 196.87,-32.6 204.22,-30.05"/>
<polygon fill="#63b8ff" stroke="#63b8ff" points="91.79,-108.07 87.6,-117.8 96.94,-112.81 91.79,-108.07"/>
</a>
</g>
</g>
</g>
</svg>
