<?xml version="1.0" encoding="UTF-8" standalone="no"?>
<!DOCTYPE svg PUBLIC "-//W3C//DTD SVG 1.1//EN"
 "http://www.w3.org/Graphics/SVG/1.1/DTD/svg11.dtd">
<!-- Generated by graphviz version 2.43.0 (0)
 -->
<!-- Title: Graphical Class Hierarchy Pages: 1 -->
<svg width="306pt" height="914pt"
 viewBox="0.00 0.00 306.00 914.00" xmlns="http://www.w3.org/2000/svg" xmlns:xlink="http://www.w3.org/1999/xlink">
<g id="graph0" class="graph" transform="scale(1 1) rotate(0) translate(4 910)">
<title>Graphical Class Hierarchy</title>
<!-- Node0 -->
<g id="Node000000" class="node">
<title>Node0</title>
<g id="a_Node000000"><a xlink:title=" ">
<polygon fill="#e0e0e0" stroke="#999999" points="84,-468 0,-468 0,-449 84,-449 84,-468"/>
<text text-anchor="middle" x="42" y="-456" font-family="Helvetica,sans-Serif" font-size="10.00">di::Dispatcher</text>
</a>
</g>
</g>
<!-- Node1 -->
<g id="Node000001" class="node">
<title>Node1</title>
<g id="a_Node000001"><a xlink:href="structiris_1_1FileHACKRawDataFunction.html" target="_top" xlink:title=" ">
<polygon fill="white" stroke="#666666" points="293,-906 125,-906 125,-887 293,-887 293,-906"/>
<text text-anchor="middle" x="209" y="-894" font-family="Helvetica,sans-Serif" font-size="10.00">iris::FileHACKRawDataFunction</text>
</a>
</g>
</g>
<!-- Node0&#45;&gt;Node1 -->
<g id="edge243_Node000000_Node000001" class="edge">
<title>Node0&#45;&gt;Node1</title>
<g id="a_edge243_Node000000_Node000001"><a xlink:title=" ">
<path fill="none" stroke="#63b8ff" d="M43.79,-478.4C47.19,-553.78 63.13,-820.45 120,-878.5 123.27,-881.84 126.99,-884.65 131,-887"/>
<polygon fill="#63b8ff" stroke="#63b8ff" points="47.28,-478.2 43.36,-468.36 40.29,-478.5 47.28,-478.2"/>
</a>
</g>
</g>
<!-- Node2 -->
<g id="Node000002" class="node">
<title>Node2</title>
<g id="a_Node000002"><a xlink:href="structiris_1_1FileMetadataFunction.html" target="_top" xlink:title=" ">
<polygon fill="white" stroke="#666666" points="280.5,-869 137.5,-869 137.5,-850 280.5,-850 280.5,-869"/>
<text text-anchor="middle" x="209" y="-857" font-family="Helvetica,sans-Serif" font-size="10.00">iris::FileMetadataFunction</text>
</a>
</g>
</g>
<!-- Node0&#45;&gt;Node2 -->
<g id="edge244_Node000000_Node000002" class="edge">
<title>Node0&#45;&gt;Node2</title>
<g id="a_edge244_Node000000_Node000002"><a xlink:title=" ">
<path fill="none" stroke="#63b8ff" d="M44.17,-478.44C48.78,-549.55 67.96,-789.28 120,-841.5 124.95,-846.47 130.88,-850.25 137.3,-853.1"/>
<polygon fill="#63b8ff" stroke="#63b8ff" points="47.65,-477.95 43.54,-468.19 40.66,-478.39 47.65,-477.95"/>
</a>
</g>
</g>
<!-- Node3 -->
<g id="Node000003" class="node">
<title>Node3</title>
<g id="a_Node000003"><a xlink:href="structiris_1_1FileTruncateFunction.html" target="_top" xlink:title=" ">
<polygon fill="white" stroke="#666666" points="277.5,-832 140.5,-832 140.5,-813 277.5,-813 277.5,-832"/>
<text text-anchor="middle" x="209" y="-820" font-family="Helvetica,sans-Serif" font-size="10.00">iris::FileTruncateFunction</text>
</a>
</g>
</g>
<!-- Node0&#45;&gt;Node3 -->
<g id="edge245_Node000000_Node000003" class="edge">
<title>Node0&#45;&gt;Node3</title>
<g id="a_edge245_Node000000_Node000003"><a xlink:title=" ">
<path fill="none" stroke="#63b8ff" d="M44.62,-478.22C50.47,-544.55 72.7,-758.01 120,-804.5 125.78,-810.18 132.85,-814.3 140.43,-817.26"/>
<polygon fill="#63b8ff" stroke="#63b8ff" points="48.11,-477.91 43.77,-468.25 41.13,-478.51 48.11,-477.91"/>
</a>
</g>
</g>
<!-- Node4 -->
<g id="Node000004" class="node">
<title>Node4</title>
<g id="a_Node000004"><a xlink:href="structiris_1_1InodeCreateNodeFunction.html" target="_top" xlink:title=" ">
<polygon fill="white" stroke="#666666" points="291,-795 127,-795 127,-776 291,-776 291,-795"/>
<text text-anchor="middle" x="209" y="-783" font-family="Helvetica,sans-Serif" font-size="10.00">iris::InodeCreateNodeFunction</text>
</a>
</g>
</g>
<!-- Node0&#45;&gt;Node4 -->
<g id="edge246_Node000000_Node000004" class="edge">
<title>Node0&#45;&gt;Node4</title>
<g id="a_edge246_Node000000_Node000004"><a xlink:title=" ">
<path fill="none" stroke="#63b8ff" d="M45.17,-478.08C52.36,-539.5 77.45,-726.71 120,-767.5 123.49,-770.84 127.43,-773.64 131.65,-775.98"/>
<polygon fill="#63b8ff" stroke="#63b8ff" points="48.64,-477.68 44.03,-468.14 41.69,-478.47 48.64,-477.68"/>
</a>
</g>
</g>
<!-- Node5 -->
<g id="Node000005" class="node">
<title>Node5</title>
<g id="a_Node000005"><a xlink:href="structiris_1_1InodeHACKRawDataFunction.html" target="_top" xlink:title=" ">
<polygon fill="white" stroke="#666666" points="298,-758 120,-758 120,-739 298,-739 298,-758"/>
<text text-anchor="middle" x="209" y="-746" font-family="Helvetica,sans-Serif" font-size="10.00">iris::InodeHACKRawDataFunction</text>
</a>
</g>
</g>
<!-- Node0&#45;&gt;Node5 -->
<g id="edge247_Node000000_Node000005" class="edge">
<title>Node0&#45;&gt;Node5</title>
<g id="a_edge247_Node000000_Node000005"><a xlink:title=" ">
<path fill="none" stroke="#63b8ff" d="M42.17,-478.41C41.25,-528.77 46.26,-662.03 120,-730.5 123.54,-733.79 127.52,-736.55 131.77,-738.85"/>
<polygon fill="#63b8ff" stroke="#63b8ff" points="45.68,-478.32 42.47,-468.22 38.68,-478.12 45.68,-478.32"/>
</a>
</g>
</g>
<!-- Node6 -->
<g id="Node000006" class="node">
<title>Node6</title>
<g id="a_Node000006"><a xlink:href="structiris_1_1InodeLookupFunction.html" target="_top" xlink:title=" ">
<polygon fill="white" stroke="#666666" points="279,-721 139,-721 139,-702 279,-702 279,-721"/>
<text text-anchor="middle" x="209" y="-709" font-family="Helvetica,sans-Serif" font-size="10.00">iris::InodeLookupFunction</text>
</a>
</g>
</g>
<!-- Node0&#45;&gt;Node6 -->
<g id="edge248_Node000000_Node000006" class="edge">
<title>Node0&#45;&gt;Node6</title>
<g id="a_edge248_Node000000_Node000006"><a xlink:title=" ">
<path fill="none" stroke="#63b8ff" d="M43.22,-478.45C44.85,-523.99 55.59,-636.09 120,-693.5 125.47,-698.38 131.9,-702.07 138.75,-704.85"/>
<polygon fill="#63b8ff" stroke="#63b8ff" points="46.71,-478.29 42.97,-468.38 39.71,-478.46 46.71,-478.29"/>
</a>
</g>
</g>
<!-- Node7 -->
<g id="Node000007" class="node">
<title>Node7</title>
<g id="a_Node000007"><a xlink:href="structiris_1_1InodeMetadataFunction.html" target="_top" xlink:title=" ">
<polygon fill="white" stroke="#666666" points="285,-684 133,-684 133,-665 285,-665 285,-684"/>
<text text-anchor="middle" x="209" y="-672" font-family="Helvetica,sans-Serif" font-size="10.00">iris::InodeMetadataFunction</text>
</a>
</g>
</g>
<!-- Node0&#45;&gt;Node7 -->
<g id="edge249_Node000000_Node000007" class="edge">
<title>Node0&#45;&gt;Node7</title>
<g id="a_edge249_Node000000_Node000007"><a xlink:title=" ">
<path fill="none" stroke="#63b8ff" d="M44.67,-478.14C49.16,-518.05 65.17,-608.81 120,-655.5 124.4,-659.25 129.37,-662.31 134.65,-664.81"/>
<polygon fill="#63b8ff" stroke="#63b8ff" points="48.14,-477.7 43.67,-468.1 41.18,-478.4 48.14,-477.7"/>
</a>
</g>
</g>
<!-- Node8 -->
<g id="Node000008" class="node">
<title>Node8</title>
<g id="a_Node000008"><a xlink:href="structiris_1_1InodeReadDirectoryFunction.html" target="_top" xlink:title=" ">
<polygon fill="white" stroke="#666666" points="276,-646.5 142,-646.5 142,-616.5 276,-616.5 276,-646.5"/>
<text text-anchor="start" x="150" y="-634.5" font-family="Helvetica,sans-Serif" font-size="10.00">iris::InodeReadDirectory</text>
<text text-anchor="middle" x="209" y="-623.5" font-family="Helvetica,sans-Serif" font-size="10.00">Function</text>
</a>
</g>
</g>
<!-- Node0&#45;&gt;Node8 -->
<g id="edge250_Node000000_Node000008" class="edge">
<title>Node0&#45;&gt;Node8</title>
<g id="a_edge250_Node000000_Node000008"><a xlink:title=" ">
<path fill="none" stroke="#63b8ff" d="M47.67,-478.16C56.31,-510.18 77.87,-573.43 120,-607.5 126.4,-612.68 133.84,-616.74 141.62,-619.93"/>
<polygon fill="#63b8ff" stroke="#63b8ff" points="51,-477.06 45.14,-468.23 44.22,-478.79 51,-477.06"/>
</a>
</g>
</g>
<!-- Node9 -->
<g id="Node000009" class="node">
<title>Node9</title>
<g id="a_Node000009"><a xlink:href="structiris_1_1InodeReadFunction.html" target="_top" xlink:title=" ">
<polygon fill="white" stroke="#666666" points="274.5,-598 143.5,-598 143.5,-579 274.5,-579 274.5,-598"/>
<text text-anchor="middle" x="209" y="-586" font-family="Helvetica,sans-Serif" font-size="10.00">iris::InodeReadFunction</text>
</a>
</g>
</g>
<!-- Node0&#45;&gt;Node9 -->
<g id="edge251_Node000000_Node000009" class="edge">
<title>Node0&#45;&gt;Node9</title>
<g id="a_edge251_Node000000_Node000009"><a xlink:title=" ">
<path fill="none" stroke="#63b8ff" d="M50.59,-477.47C61.79,-502.89 85.25,-547.48 120,-570.5 127.02,-575.15 134.99,-578.64 143.21,-581.25"/>
<polygon fill="#63b8ff" stroke="#63b8ff" points="53.77,-476.01 46.66,-468.16 47.32,-478.73 53.77,-476.01"/>
</a>
</g>
</g>
<!-- Node10 -->
<g id="Node000010" class="node">
<title>Node10</title>
<g id="a_Node000010"><a xlink:href="structiris_1_1InodeTruncateFunction.html" target="_top" xlink:title=" ">
<polygon fill="white" stroke="#666666" points="282.5,-561 135.5,-561 135.5,-542 282.5,-542 282.5,-561"/>
<text text-anchor="middle" x="209" y="-549" font-family="Helvetica,sans-Serif" font-size="10.00">iris::InodeTruncateFunction</text>
</a>
</g>
</g>
<!-- Node0&#45;&gt;Node10 -->
<g id="edge252_Node000000_Node000010" class="edge">
<title>Node0&#45;&gt;Node10</title>
<g id="a_edge252_Node000000_Node000010"><a xlink:title=" ">
<path fill="none" stroke="#63b8ff" d="M56.21,-476.31C70.1,-493.69 93.6,-519.52 120,-533.5 126.48,-536.93 133.54,-539.71 140.76,-541.96"/>
<polygon fill="#63b8ff" stroke="#63b8ff" points="58.74,-473.86 49.85,-468.09 53.2,-478.14 58.74,-473.86"/>
</a>
</g>
</g>
<!-- Node11 -->
<g id="Node000011" class="node">
<title>Node11</title>
<g id="a_Node000011"><a xlink:href="structiris_1_1ReadDirectoryFunction.html" target="_top" xlink:title=" ">
<polygon fill="white" stroke="#666666" points="283.5,-524 134.5,-524 134.5,-505 283.5,-505 283.5,-524"/>
<text text-anchor="middle" x="209" y="-512" font-family="Helvetica,sans-Serif" font-size="10.00">iris::ReadDirectoryFunction</text>
</a>
</g>
</g>
<!-- Node0&#45;&gt;Node11 -->
<g id="edge253_Node000000_Node000011" class="edge">
<title>Node0&#45;&gt;Node11</title>
<g id="a_edge253_Node000000_Node000011"><a xlink:title=" ">
<path fill="none" stroke="#63b8ff" d="M68.26,-473.02C82.95,-480.94 102.07,-490.36 120,-496.5 129.74,-499.84 140.3,-502.65 150.62,-504.99"/>
<polygon fill="#63b8ff" stroke="#63b8ff" points="69.74,-469.84 59.29,-468.08 66.36,-475.97 69.74,-469.84"/>
</a>
</g>
</g>
<!-- Node12 -->
<g id="Node000012" class="node">
<title>Node12</title>
<g id="a_Node000012"><a xlink:href="structiris_1_1ReadFileFunction.html" target="_top" xlink:title=" ">
<polygon fill="white" stroke="#666666" points="269.5,-487 148.5,-487 148.5,-468 269.5,-468 269.5,-487"/>
<text text-anchor="middle" x="209" y="-475" font-family="Helvetica,sans-Serif" font-size="10.00">iris::ReadFileFunction</text>
</a>
</g>
</g>
<!-- Node0&#45;&gt;Node12 -->
<g id="edge254_Node000000_Node000012" class="edge">
<title>Node0&#45;&gt;Node12</title>
<g id="a_edge254_Node000000_Node000012"><a xlink:title=" ">
<path fill="none" stroke="#63b8ff" d="M94.53,-464.43C111.59,-466.4 130.72,-468.6 148.33,-470.63"/>
<polygon fill="#63b8ff" stroke="#63b8ff" points="94.55,-460.91 84.21,-463.25 93.74,-467.87 94.55,-460.91"/>
</a>
</g>
</g>
<!-- Node13 -->
<g id="Node000013" class="node">
<title>Node13</title>
<g id="a_Node000013"><a xlink:href="structiris_1_1SeekFileFunction.html" target="_top" xlink:title=" ">
<polygon fill="white" stroke="#666666" points="269,-450 149,-450 149,-431 269,-431 269,-450"/>
<text text-anchor="middle" x="209" y="-438" font-family="Helvetica,sans-Serif" font-size="10.00">iris::SeekFileFunction</text>
</a>
</g>
</g>
<!-- Node0&#45;&gt;Node13 -->
<g id="edge255_Node000000_Node000013" class="edge">
<title>Node0&#45;&gt;Node13</title>
<g id="a_edge255_Node000000_Node000013"><a xlink:title=" ">
<path fill="none" stroke="#63b8ff" d="M94.64,-452.87C111.87,-450.99 131.21,-448.88 148.96,-446.94"/>
<polygon fill="#63b8ff" stroke="#63b8ff" points="93.77,-449.44 84.21,-454 94.53,-456.4 93.77,-449.44"/>
</a>
</g>
</g>
<!-- Node14 -->
<g id="Node000014" class="node">
<title>Node14</title>
<g id="a_Node000014"><a xlink:href="structiris_1_1TimerCalibrateFunction.html" target="_top" xlink:title=" ">
<polygon fill="white" stroke="#666666" points="285,-413 133,-413 133,-394 285,-394 285,-413"/>
<text text-anchor="middle" x="209" y="-401" font-family="Helvetica,sans-Serif" font-size="10.00">iris::TimerCalibrateFunction</text>
</a>
</g>
</g>
<!-- Node0&#45;&gt;Node14 -->
<g id="edge256_Node000000_Node000014" class="edge">
<title>Node0&#45;&gt;Node14</title>
<g id="a_edge256_Node000000_Node000014"><a xlink:title=" ">
<path fill="none" stroke="#63b8ff" d="M69.52,-444.29C84.09,-436.95 102.68,-428.34 120,-422.5 130.96,-418.81 142.94,-415.66 154.43,-413.06"/>
<polygon fill="#63b8ff" stroke="#63b8ff" points="67.87,-441.21 60.58,-448.89 71.07,-447.43 67.87,-441.21"/>
</a>
</g>
</g>
<!-- Node15 -->
<g id="Node000015" class="node">
<title>Node15</title>
<g id="a_Node000015"><a xlink:href="structiris_1_1TimerCapabilitiesFunction.html" target="_top" xlink:title=" ">
<polygon fill="white" stroke="#666666" points="291.5,-376 126.5,-376 126.5,-357 291.5,-357 291.5,-376"/>
<text text-anchor="middle" x="209" y="-364" font-family="Helvetica,sans-Serif" font-size="10.00">iris::TimerCapabilitiesFunction</text>
</a>
</g>
</g>
<!-- Node0&#45;&gt;Node15 -->
<g id="edge257_Node000000_Node000015" class="edge">
<title>Node0&#45;&gt;Node15</title>
<g id="a_edge257_Node000000_Node000015"><a xlink:title=" ">
<path fill="none" stroke="#63b8ff" d="M56.57,-440.97C70.6,-424.1 94.06,-399.19 120,-385.5 127.33,-381.63 135.39,-378.55 143.57,-376.1"/>
<polygon fill="#63b8ff" stroke="#63b8ff" points="53.68,-438.97 50.13,-448.95 59.13,-443.37 53.68,-438.97"/>
</a>
</g>
</g>
<!-- Node16 -->
<g id="Node000016" class="node">
<title>Node16</title>
<g id="a_Node000016"><a xlink:href="structiris_1_1TimerName.html" target="_top" xlink:title=" ">
<polygon fill="white" stroke="#666666" points="256.5,-339 161.5,-339 161.5,-320 256.5,-320 256.5,-339"/>
<text text-anchor="middle" x="209" y="-327" font-family="Helvetica,sans-Serif" font-size="10.00">iris::TimerName</text>
</a>
</g>
</g>
<!-- Node0&#45;&gt;Node16 -->
<g id="edge258_Node000000_Node000016" class="edge">
<title>Node0&#45;&gt;Node16</title>
<g id="a_edge258_Node000000_Node000016"><a xlink:title=" ">
<path fill="none" stroke="#63b8ff" d="M50.89,-439.55C62.31,-414.57 85.87,-371.17 120,-348.5 132.11,-340.46 147.03,-335.75 161.13,-333.02"/>
<polygon fill="#63b8ff" stroke="#63b8ff" points="47.68,-438.15 46.87,-448.72 54.09,-440.96 47.68,-438.15"/>
</a>
</g>
</g>
<!-- Node17 -->
<g id="Node000017" class="node">
<title>Node17</title>
<g id="a_Node000017"><a xlink:href="structiris_1_1TimerResolutionFunction.html" target="_top" xlink:title=" ">
<polygon fill="white" stroke="#666666" points="288.5,-302 129.5,-302 129.5,-283 288.5,-283 288.5,-302"/>
<text text-anchor="middle" x="209" y="-290" font-family="Helvetica,sans-Serif" font-size="10.00">iris::TimerResolutionFunction</text>
</a>
</g>
</g>
<!-- Node0&#45;&gt;Node17 -->
<g id="edge259_Node000000_Node000017" class="edge">
<title>Node0&#45;&gt;Node17</title>
<g id="a_edge259_Node000000_Node000017"><a xlink:title=" ">
<path fill="none" stroke="#63b8ff" d="M47.55,-438.85C56.02,-406.89 77.34,-343.96 120,-311.5 124.98,-307.71 130.54,-304.65 136.4,-302.17"/>
<polygon fill="#63b8ff" stroke="#63b8ff" points="44.1,-438.21 45.08,-448.76 50.89,-439.91 44.1,-438.21"/>
</a>
</g>
</g>
<!-- Node18 -->
<g id="Node000018" class="node">
<title>Node18</title>
<g id="a_Node000018"><a xlink:href="structiris_1_1TimerSetIntervalFunction.html" target="_top" xlink:title=" ">
<polygon fill="white" stroke="#666666" points="289.5,-265 128.5,-265 128.5,-246 289.5,-246 289.5,-265"/>
<text text-anchor="middle" x="209" y="-253" font-family="Helvetica,sans-Serif" font-size="10.00">iris::TimerSetIntervalFunction</text>
</a>
</g>
</g>
<!-- Node0&#45;&gt;Node18 -->
<g id="edge260_Node000000_Node000018" class="edge">
<title>Node0&#45;&gt;Node18</title>
<g id="a_edge260_Node000000_Node000018"><a xlink:title=" ">
<path fill="none" stroke="#63b8ff" d="M45.35,-438.34C50.93,-400.14 68.6,-317.23 120,-274.5 124.57,-270.7 129.72,-267.61 135.18,-265.11"/>
<polygon fill="#63b8ff" stroke="#63b8ff" points="41.83,-438.29 43.99,-448.66 48.77,-439.21 41.83,-438.29"/>
</a>
</g>
</g>
<!-- Node19 -->
<g id="Node000019" class="node">
<title>Node19</title>
<g id="a_Node000019"><a xlink:href="structiris_1_1TimerSetSingleShotFunction.html" target="_top" xlink:title=" ">
<polygon fill="white" stroke="#666666" points="276,-227.5 142,-227.5 142,-197.5 276,-197.5 276,-227.5"/>
<text text-anchor="start" x="150" y="-215.5" font-family="Helvetica,sans-Serif" font-size="10.00">iris::TimerSetSingleShot</text>
<text text-anchor="middle" x="209" y="-204.5" font-family="Helvetica,sans-Serif" font-size="10.00">Function</text>
</a>
</g>
</g>
<!-- Node0&#45;&gt;Node19 -->
<g id="edge261_Node000000_Node000019" class="edge">
<title>Node0&#45;&gt;Node19</title>
<g id="a_edge261_Node000000_Node000019"><a xlink:title=" ">
<path fill="none" stroke="#63b8ff" d="M43.99,-438.89C47.25,-395.95 61.12,-293.03 120,-237.5 126.24,-231.62 133.76,-227.1 141.75,-223.64"/>
<polygon fill="#63b8ff" stroke="#63b8ff" points="40.5,-438.68 43.35,-448.89 47.49,-439.13 40.5,-438.68"/>
</a>
</g>
</g>
<!-- Node20 -->
<g id="Node000020" class="node">
<title>Node20</title>
<g id="a_Node000020"><a xlink:href="structiris_1_1WriteFileFunction.html" target="_top" xlink:title=" ">
<polygon fill="white" stroke="#666666" points="270,-179 148,-179 148,-160 270,-160 270,-179"/>
<text text-anchor="middle" x="209" y="-167" font-family="Helvetica,sans-Serif" font-size="10.00">iris::WriteFileFunction</text>
</a>
</g>
</g>
<!-- Node0&#45;&gt;Node20 -->
<g id="edge262_Node000000_Node000020" class="edge">
<title>Node0&#45;&gt;Node20</title>
<g id="a_edge262_Node000000_Node000020"><a xlink:title=" ">
<path fill="none" stroke="#63b8ff" d="M42.27,-438.78C41.57,-388.9 47.07,-256.83 120,-188.5 127.76,-181.23 137.6,-176.49 147.88,-173.43"/>
<polygon fill="#63b8ff" stroke="#63b8ff" points="38.77,-438.96 42.52,-448.87 45.77,-438.79 38.77,-438.96"/>
</a>
</g>
</g>
<!-- Node21 -->
<g id="Node000021" class="node">
<title>Node21</title>
<g id="a_Node000021"><a xlink:href="structiris_1_1detail_1_1DisableIrqLine.html" target="_top" xlink:title=" ">
<polygon fill="white" stroke="#666666" points="279.5,-142 138.5,-142 138.5,-123 279.5,-123 279.5,-142"/>
<text text-anchor="middle" x="209" y="-130" font-family="Helvetica,sans-Serif" font-size="10.00">iris::detail::DisableIrqLine</text>
</a>
</g>
</g>
<!-- Node0&#45;&gt;Node21 -->
<g id="edge263_Node000000_Node000021" class="edge">
<title>Node0&#45;&gt;Node21</title>
<g id="a_edge263_Node000000_Node000021"><a xlink:title=" ">
<path fill="none" stroke="#63b8ff" d="M45.25,-438.68C52.62,-377.33 77.98,-192.15 120,-151.5 125.28,-146.39 131.59,-142.52 138.37,-139.6"/>
<polygon fill="#63b8ff" stroke="#63b8ff" points="41.74,-438.59 44.05,-448.93 48.69,-439.41 41.74,-438.59"/>
</a>
</g>
</g>
<!-- Node22 -->
<g id="Node000022" class="node">
<title>Node22</title>
<g id="a_Node000022"><a xlink:href="structiris_1_1detail_1_1EnableIrqLine.html" target="_top" xlink:title=" ">
<polygon fill="white" stroke="#666666" points="277.5,-105 140.5,-105 140.5,-86 277.5,-86 277.5,-105"/>
<text text-anchor="middle" x="209" y="-93" font-family="Helvetica,sans-Serif" font-size="10.00">iris::detail::EnableIrqLine</text>
</a>
</g>
</g>
<!-- Node0&#45;&gt;Node22 -->
<g id="edge264_Node000000_Node000022" class="edge">
<title>Node0&#45;&gt;Node22</title>
<g id="a_edge264_Node000000_Node000022"><a xlink:title=" ">
<path fill="none" stroke="#63b8ff" d="M44.69,-438.5C50.71,-372.15 73.29,-160.86 120,-114.5 125.77,-108.77 132.82,-104.59 140.41,-101.56"/>
<polygon fill="#63b8ff" stroke="#63b8ff" points="41.17,-438.55 43.78,-448.82 48.15,-439.16 41.17,-438.55"/>
</a>
</g>
</g>
<!-- Node23 -->
<g id="Node000023" class="node">
<title>Node23</title>
<g id="a_Node000023"><a xlink:href="structiris_1_1detail_1_1ResponsibleIrqLineRange.html" target="_top" xlink:title=" ">
<polygon fill="white" stroke="#666666" points="274.5,-67.5 143.5,-67.5 143.5,-37.5 274.5,-37.5 274.5,-67.5"/>
<text text-anchor="start" x="151.5" y="-55.5" font-family="Helvetica,sans-Serif" font-size="10.00">iris::detail::Responsible</text>
<text text-anchor="middle" x="209" y="-44.5" font-family="Helvetica,sans-Serif" font-size="10.00">IrqLineRange</text>
</a>
</g>
</g>
<!-- Node0&#45;&gt;Node23 -->
<g id="edge265_Node000000_Node000023" class="edge">
<title>Node0&#45;&gt;Node23</title>
<g id="a_edge265_Node000000_Node000023"><a xlink:title=" ">
<path fill="none" stroke="#63b8ff" d="M44.33,-438.8C49.45,-368.5 70.18,-131.34 120,-77.5 126.36,-70.62 134.47,-65.59 143.18,-61.91"/>
<polygon fill="#63b8ff" stroke="#63b8ff" points="40.82,-438.7 43.61,-448.92 47.81,-439.19 40.82,-438.7"/>
</a>
</g>
</g>
<!-- Node24 -->
<g id="Node000024" class="node">
<title>Node24</title>
<g id="a_Node000024"><a xlink:href="structiris_1_1detail_1_1SendEoiFunction.html" target="_top" xlink:title=" ">
<polygon fill="white" stroke="#666666" points="285,-19 133,-19 133,0 285,0 285,-19"/>
<text text-anchor="middle" x="209" y="-7" font-family="Helvetica,sans-Serif" font-size="10.00">iris::detail::SendEoiFunction</text>
</a>
</g>
</g>
<!-- Node0&#45;&gt;Node24 -->
<g id="edge266_Node000000_Node000024" class="edge">
<title>Node0&#45;&gt;Node24</title>
<g id="a_edge266_Node000000_Node000024"><a xlink:title=" ">
<path fill="none" stroke="#63b8ff" d="M43.71,-438.65C46.88,-362.25 62.14,-88.45 120,-28.5 123.8,-24.56 128.2,-21.35 132.98,-18.73"/>
<polygon fill="#63b8ff" stroke="#63b8ff" points="40.21,-438.67 43.32,-448.8 47.21,-438.95 40.21,-438.67"/>
</a>
</g>
</g>
</g>
</svg>
