<?xml version="1.0" encoding="UTF-8" standalone="no"?>
<!DOCTYPE svg PUBLIC "-//W3C//DTD SVG 1.1//EN"
 "http://www.w3.org/Graphics/SVG/1.1/DTD/svg11.dtd">
<!-- Generated by graphviz version 2.43.0 (0)
 -->
<!-- Title: Graphical Class Hierarchy Pages: 1 -->
<svg width="256pt" height="64pt"
 viewBox="0.00 0.00 256.00 64.00" xmlns="http://www.w3.org/2000/svg" xmlns:xlink="http://www.w3.org/1999/xlink">
<g id="graph0" class="graph" transform="scale(1 1) rotate(0) translate(4 60)">
<title>Graphical Class Hierarchy</title>
<!-- Node0 -->
<g id="Node000000" class="node">
<title>Node0</title>
<g id="a_Node000000"><a xlink:href="structiris_1_1acpi_1_1SDTHeader.html" target="_top" xlink:title="System Description Table Header.">
<polygon fill="white" stroke="#666666" points="119,-37 0,-37 0,-18 119,-18 119,-37"/>
<text text-anchor="middle" x="59.5" y="-25" font-family="Helvetica,sans-Serif" font-size="10.00">iris::acpi::SDTHeader</text>
</a>
</g>
</g>
<!-- Node1 -->
<g id="Node000001" class="node">
<title>Node1</title>
<g id="a_Node000001"><a xlink:href="structiris_1_1acpi_1_1MADT.html" target="_top" xlink:title="Multiple APIC Description Table.">
<polygon fill="white" stroke="#666666" points="248,-56 155,-56 155,-37 248,-37 248,-56"/>
<text text-anchor="middle" x="201.5" y="-44" font-family="Helvetica,sans-Serif" font-size="10.00">iris::acpi::MADT</text>
</a>
</g>
</g>
<!-- Node0&#45;&gt;Node1 -->
<g id="edge867_Node000000_Node000001" class="edge">
<title>Node0&#45;&gt;Node1</title>
<g id="a_edge867_Node000000_Node000001"><a xlink:title=" ">
<path fill="none" stroke="#63b8ff" d="M129.25,-36.83C137.97,-38.01 146.72,-39.2 154.95,-40.32"/>
<polygon fill="#63b8ff" stroke="#63b8ff" points="129.44,-33.32 119.06,-35.45 128.5,-40.26 129.44,-33.32"/>
</a>
</g>
</g>
<!-- Node2 -->
<g id="Node000002" class="node">
<title>Node2</title>
<g id="a_Node000002"><a xlink:href="structiris_1_1acpi_1_1RSDT.html" target="_top" xlink:title="Root System Description Table.">
<polygon fill="white" stroke="#666666" points="246.5,-19 156.5,-19 156.5,0 246.5,0 246.5,-19"/>
<text text-anchor="middle" x="201.5" y="-7" font-family="Helvetica,sans-Serif" font-size="10.00">iris::acpi::RSDT</text>
</a>
</g>
</g>
<!-- Node0&#45;&gt;Node2 -->
<g id="edge868_Node000000_Node000002" class="edge">
<title>Node0&#45;&gt;Node2</title>
<g id="a_edge868_Node000000_Node000002"><a xlink:title=" ">
<path fill="none" stroke="#63b8ff" d="M129.05,-18.69C138.29,-17.5 147.57,-16.31 156.23,-15.19"/>
<polygon fill="#63b8ff" stroke="#63b8ff" points="128.53,-15.22 119.06,-19.97 129.43,-22.17 128.53,-15.22"/>
</a>
</g>
</g>
</g>
</svg>
