<?xml version="1.0" encoding="UTF-8" standalone="no"?>
<!DOCTYPE svg PUBLIC "-//W3C//DTD SVG 1.1//EN"
 "http://www.w3.org/Graphics/SVG/1.1/DTD/svg11.dtd">
<!-- Generated by graphviz version 2.43.0 (0)
 -->
<!-- Title: Graphical Class Hierarchy Pages: 1 -->
<svg width="282pt" height="101pt"
 viewBox="0.00 0.00 282.00 101.00" xmlns="http://www.w3.org/2000/svg" xmlns:xlink="http://www.w3.org/1999/xlink">
<g id="graph0" class="graph" transform="scale(1 1) rotate(0) translate(4 97)">
<title>Graphical Class Hierarchy</title>
<!-- Node0 -->
<g id="Node000000" class="node">
<title>Node0</title>
<g id="a_Node000000"><a xlink:href="structdi_1_1bit_1_1BitField.html" target="_top" xlink:title=" ">
<polygon fill="white" stroke="#666666" points="95,-61.5 0,-61.5 0,-31.5 95,-31.5 95,-61.5"/>
<text text-anchor="start" x="8" y="-49.5" font-family="Helvetica,sans-Serif" font-size="10.00">di::bit::BitField&lt;</text>
<text text-anchor="middle" x="47.5" y="-38.5" font-family="Helvetica,sans-Serif" font-size="10.00"> 45, 2 &gt;</text>
</a>
</g>
</g>
<!-- Node1 -->
<g id="Node000001" class="node">
<title>Node1</title>
<g id="a_Node000001"><a xlink:href="structiris_1_1x86_1_1amd64_1_1idt_1_1DPL.html" target="_top" xlink:title=" ">
<polygon fill="white" stroke="#666666" points="272,-93 133,-93 133,-74 272,-74 272,-93"/>
<text text-anchor="middle" x="202.5" y="-81" font-family="Helvetica,sans-Serif" font-size="10.00">iris::x86::amd64::idt::DPL</text>
</a>
</g>
</g>
<!-- Node0&#45;&gt;Node1 -->
<g id="edge36_Node000000_Node000001" class="edge">
<title>Node0&#45;&gt;Node1</title>
<g id="a_edge36_Node000000_Node000001"><a xlink:title=" ">
<path fill="none" stroke="#63b8ff" d="M104.96,-60.15C123.92,-64.74 144.64,-69.75 162.01,-73.95"/>
<polygon fill="#63b8ff" stroke="#63b8ff" points="105.78,-56.75 95.24,-57.8 104.13,-63.55 105.78,-56.75"/>
</a>
</g>
</g>
<!-- Node2 -->
<g id="Node000002" class="node">
<title>Node2</title>
<g id="a_Node000002"><a xlink:href="structiris_1_1x86_1_1amd64_1_1sd_1_1DPL.html" target="_top" xlink:title=" ">
<polygon fill="white" stroke="#666666" points="271,-56 134,-56 134,-37 271,-37 271,-56"/>
<text text-anchor="middle" x="202.5" y="-44" font-family="Helvetica,sans-Serif" font-size="10.00">iris::x86::amd64::sd::DPL</text>
</a>
</g>
</g>
<!-- Node0&#45;&gt;Node2 -->
<g id="edge37_Node000000_Node000002" class="edge">
<title>Node0&#45;&gt;Node2</title>
<g id="a_edge37_Node000000_Node000002"><a xlink:title=" ">
<path fill="none" stroke="#63b8ff" d="M105.49,-46.5C114.76,-46.5 124.44,-46.5 133.93,-46.5"/>
<polygon fill="#63b8ff" stroke="#63b8ff" points="105.24,-43 95.24,-46.5 105.24,-50 105.24,-43"/>
</a>
</g>
</g>
<!-- Node3 -->
<g id="Node000003" class="node">
<title>Node3</title>
<g id="a_Node000003"><a xlink:href="structiris_1_1x86_1_1amd64_1_1ssd_1_1DPL.html" target="_top" xlink:title=" ">
<polygon fill="white" stroke="#666666" points="274,-19 131,-19 131,0 274,0 274,-19"/>
<text text-anchor="middle" x="202.5" y="-7" font-family="Helvetica,sans-Serif" font-size="10.00">iris::x86::amd64::ssd::DPL</text>
</a>
</g>
</g>
<!-- Node0&#45;&gt;Node3 -->
<g id="edge38_Node000000_Node000003" class="edge">
<title>Node0&#45;&gt;Node3</title>
<g id="a_edge38_Node000000_Node000003"><a xlink:title=" ">
<path fill="none" stroke="#63b8ff" d="M104.96,-32.85C123.92,-28.26 144.64,-23.25 162.01,-19.05"/>
<polygon fill="#63b8ff" stroke="#63b8ff" points="104.13,-29.45 95.24,-35.2 105.78,-36.25 104.13,-29.45"/>
</a>
</g>
</g>
</g>
</svg>
