<?xml version="1.0" encoding="UTF-8" standalone="no"?>
<!DOCTYPE svg PUBLIC "-//W3C//DTD SVG 1.1//EN"
 "http://www.w3.org/Graphics/SVG/1.1/DTD/svg11.dtd">
<!-- Generated by graphviz version 2.43.0 (0)
 -->
<!-- Title: Graphical Class Hierarchy Pages: 1 -->
<svg width="385pt" height="157pt"
 viewBox="0.00 0.00 385.00 157.00" xmlns="http://www.w3.org/2000/svg" xmlns:xlink="http://www.w3.org/1999/xlink">
<g id="graph0" class="graph" transform="scale(1 1) rotate(0) translate(4 153)">
<title>Graphical Class Hierarchy</title>
<!-- Node0 -->
<g id="Node000000" class="node">
<title>Node0</title>
<g id="a_Node000000"><a xlink:href="classdi_1_1meta_1_1EnableBorrowedContainer.html" target="_top" xlink:title=" ">
<polygon fill="white" stroke="#666666" points="204,-149 0,-149 0,-108 204,-108 204,-149"/>
<text text-anchor="start" x="8" y="-137" font-family="Helvetica,sans-Serif" font-size="10.00">di::meta::EnableBorrowed</text>
<text text-anchor="start" x="8" y="-126" font-family="Helvetica,sans-Serif" font-size="10.00">Container&lt; Optional&lt; T</text>
<text text-anchor="middle" x="102" y="-115" font-family="Helvetica,sans-Serif" font-size="10.00"> &gt;, concepts::LValueReference&lt; T &gt; &gt;</text>
</a>
</g>
</g>
<!-- Node1 -->
<g id="Node000001" class="node">
<title>Node1</title>
<g id="a_Node000001"><a xlink:href="classdi_1_1vocab_1_1Optional_3_01T_01_4.html" target="_top" xlink:title=" ">
<polygon fill="white" stroke="#666666" points="377,-84 240,-84 240,-65 377,-65 377,-84"/>
<text text-anchor="middle" x="308.5" y="-72" font-family="Helvetica,sans-Serif" font-size="10.00">di::vocab::Optional&lt; T &gt;</text>
</a>
</g>
</g>
<!-- Node0&#45;&gt;Node1 -->
<g id="edge427_Node000000_Node000001" class="edge">
<title>Node0&#45;&gt;Node1</title>
<g id="a_edge427_Node000000_Node000001"><a xlink:title=" ">
<path fill="none" stroke="#63b8ff" d="M190.85,-105.3C219.19,-97.82 249.05,-89.93 271.46,-84.02"/>
<polygon fill="#63b8ff" stroke="#63b8ff" points="189.67,-101.99 180.9,-107.93 191.46,-108.76 189.67,-101.99"/>
</a>
</g>
</g>
<!-- Node2 -->
<g id="Node000002" class="node">
<title>Node2</title>
<g id="a_Node000002"><a xlink:href="classdi_1_1meta_1_1EnableView.html" target="_top" xlink:title=" ">
<polygon fill="white" stroke="#666666" points="162,-89.5 42,-89.5 42,-59.5 162,-59.5 162,-89.5"/>
<text text-anchor="start" x="50" y="-77.5" font-family="Helvetica,sans-Serif" font-size="10.00">di::meta::EnableView</text>
<text text-anchor="middle" x="102" y="-66.5" font-family="Helvetica,sans-Serif" font-size="10.00">&lt; Optional&lt; T &gt; &gt;</text>
</a>
</g>
</g>
<!-- Node2&#45;&gt;Node1 -->
<g id="edge428_Node000002_Node000001" class="edge">
<title>Node2&#45;&gt;Node1</title>
<g id="a_edge428_Node000002_Node000001"><a xlink:title=" ">
<path fill="none" stroke="#63b8ff" d="M172.32,-74.5C194.12,-74.5 218.16,-74.5 239.84,-74.5"/>
<polygon fill="#63b8ff" stroke="#63b8ff" points="172.15,-71 162.15,-74.5 172.15,-78 172.15,-71"/>
</a>
</g>
</g>
<!-- Node3 -->
<g id="Node000003" class="node">
<title>Node3</title>
<g id="a_Node000003"><a xlink:href="classdi_1_1function_1_1monad_1_1MonadInterface.html" target="_top" xlink:title=" ">
<polygon fill="white" stroke="#666666" points="178,-41 26,-41 26,0 178,0 178,-41"/>
<text text-anchor="start" x="34" y="-29" font-family="Helvetica,sans-Serif" font-size="10.00">di::function::monad</text>
<text text-anchor="start" x="34" y="-18" font-family="Helvetica,sans-Serif" font-size="10.00">::MonadInterface&lt; Optional</text>
<text text-anchor="middle" x="102" y="-7" font-family="Helvetica,sans-Serif" font-size="10.00">&lt; T &gt; &gt;</text>
</a>
</g>
</g>
<!-- Node3&#45;&gt;Node1 -->
<g id="edge429_Node000003_Node000001" class="edge">
<title>Node3&#45;&gt;Node1</title>
<g id="a_edge429_Node000003_Node000001"><a xlink:title=" ">
<path fill="none" stroke="#63b8ff" d="M188.06,-42.96C217.16,-50.65 248.18,-58.84 271.31,-64.94"/>
<polygon fill="#63b8ff" stroke="#63b8ff" points="188.84,-39.55 178.28,-40.38 187.05,-46.31 188.84,-39.55"/>
</a>
</g>
</g>
</g>
</svg>
