<?xml version="1.0" encoding="UTF-8" standalone="no"?>
<!DOCTYPE svg PUBLIC "-//W3C//DTD SVG 1.1//EN"
 "http://www.w3.org/Graphics/SVG/1.1/DTD/svg11.dtd">
<!-- Generated by graphviz version 2.43.0 (0)
 -->
<!-- Title: Graphical Class Hierarchy Pages: 1 -->
<svg width="342pt" height="64pt"
 viewBox="0.00 0.00 342.00 64.00" xmlns="http://www.w3.org/2000/svg" xmlns:xlink="http://www.w3.org/1999/xlink">
<g id="graph0" class="graph" transform="scale(1 1) rotate(0) translate(4 60)">
<title>Graphical Class Hierarchy</title>
<!-- Node0 -->
<g id="Node000000" class="node">
<title>Node0</title>
<g id="a_Node000000"><a xlink:title=" ">
<polygon fill="#e0e0e0" stroke="#999999" points="136,-37 0,-37 0,-18 136,-18 136,-37"/>
<text text-anchor="middle" x="68" y="-25" font-family="Helvetica,sans-Serif" font-size="10.00">di::IntrusiveTreeSetNode</text>
</a>
</g>
</g>
<!-- Node1 -->
<g id="Node000001" class="node">
<title>Node1</title>
<g id="a_Node000001"><a xlink:href="structiris_1_1mm_1_1BackedPhysicalPage.html" target="_top" xlink:title="A physical page of memory tracked by a backing object.">
<polygon fill="white" stroke="#666666" points="334,-56 172,-56 172,-37 334,-37 334,-56"/>
<text text-anchor="middle" x="253" y="-44" font-family="Helvetica,sans-Serif" font-size="10.00">iris::mm::BackedPhysicalPage</text>
</a>
</g>
</g>
<!-- Node0&#45;&gt;Node1 -->
<g id="edge340_Node000000_Node000001" class="edge">
<title>Node0&#45;&gt;Node1</title>
<g id="a_edge340_Node000000_Node000001"><a xlink:title=" ">
<path fill="none" stroke="#63b8ff" d="M146.31,-35.53C154.76,-36.4 163.38,-37.3 171.86,-38.18"/>
<polygon fill="#63b8ff" stroke="#63b8ff" points="146.41,-32.02 136.1,-34.47 145.69,-38.98 146.41,-32.02"/>
</a>
</g>
</g>
<!-- Node2 -->
<g id="Node000002" class="node">
<title>Node2</title>
<g id="a_Node000002"><a xlink:href="classiris_1_1mm_1_1Region.html" target="_top" xlink:title=" ">
<polygon fill="white" stroke="#666666" points="301.5,-19 204.5,-19 204.5,0 301.5,0 301.5,-19"/>
<text text-anchor="middle" x="253" y="-7" font-family="Helvetica,sans-Serif" font-size="10.00">iris::mm::Region</text>
</a>
</g>
</g>
<!-- Node0&#45;&gt;Node2 -->
<g id="edge341_Node000000_Node000002" class="edge">
<title>Node0&#45;&gt;Node2</title>
<g id="a_edge341_Node000000_Node000002"><a xlink:title=" ">
<path fill="none" stroke="#63b8ff" d="M146.31,-19.9C166.02,-17.96 186.64,-15.93 204.37,-14.18"/>
<polygon fill="#63b8ff" stroke="#63b8ff" points="145.71,-16.44 136.1,-20.9 146.4,-23.4 145.71,-16.44"/>
</a>
</g>
</g>
</g>
</svg>
