<?xml version="1.0" encoding="UTF-8" standalone="no"?>
<!DOCTYPE svg PUBLIC "-//W3C//DTD SVG 1.1//EN"
 "http://www.w3.org/Graphics/SVG/1.1/DTD/svg11.dtd">
<!-- Generated by graphviz version 2.43.0 (0)
 -->
<!-- Title: Graphical Class Hierarchy Pages: 1 -->
<svg width="471pt" height="477pt"
 viewBox="0.00 0.00 471.00 476.50" xmlns="http://www.w3.org/2000/svg" xmlns:xlink="http://www.w3.org/1999/xlink">
<g id="graph0" class="graph" transform="scale(1 1) rotate(0) translate(4 472.5)">
<title>Graphical Class Hierarchy</title>
<!-- Node0 -->
<g id="Node000000" class="node">
<title>Node0</title>
<g id="a_Node000000"><a xlink:href="structdi_1_1container_1_1IteratorBase.html" target="_top" xlink:title=" ">
<polygon fill="white" stroke="#666666" points="155,-237.5 0,-237.5 0,-196.5 155,-196.5 155,-237.5"/>
<text text-anchor="start" x="8" y="-225.5" font-family="Helvetica,sans-Serif" font-size="10.00">di::container::IteratorBase</text>
<text text-anchor="start" x="8" y="-214.5" font-family="Helvetica,sans-Serif" font-size="10.00">&lt; Self, Category, ValueType,</text>
<text text-anchor="middle" x="77.5" y="-203.5" font-family="Helvetica,sans-Serif" font-size="10.00"> SSizeType &gt;</text>
</a>
</g>
</g>
<!-- Node1 -->
<g id="Node000001" class="node">
<title>Node1</title>
<g id="a_Node000001"><a xlink:href="classdi_1_1container_1_1IteratorExtension.html" target="_top" xlink:title=" ">
<polygon fill="white" stroke="#666666" points="438.5,-468.5 215.5,-468.5 215.5,-383.5 438.5,-383.5 438.5,-468.5"/>
<text text-anchor="start" x="223.5" y="-456.5" font-family="Helvetica,sans-Serif" font-size="10.00">di::container::IteratorExtension</text>
<text text-anchor="start" x="223.5" y="-445.5" font-family="Helvetica,sans-Serif" font-size="10.00">&lt; Iterator&lt; is_const &gt;, InnerIterator</text>
<text text-anchor="start" x="223.5" y="-434.5" font-family="Helvetica,sans-Serif" font-size="10.00">&lt; is_const &gt;, meta::RemoveCVRef&lt;</text>
<text text-anchor="start" x="223.5" y="-423.5" font-family="Helvetica,sans-Serif" font-size="10.00"> detail::InvokeRepeatResult&lt; meta</text>
<text text-anchor="start" x="223.5" y="-412.5" font-family="Helvetica,sans-Serif" font-size="10.00">::MaybeConst&lt; is_const, F &gt; &amp;, meta</text>
<text text-anchor="start" x="223.5" y="-401.5" font-family="Helvetica,sans-Serif" font-size="10.00">::ContainerReference&lt; meta::MaybeConst</text>
<text text-anchor="middle" x="327" y="-390.5" font-family="Helvetica,sans-Serif" font-size="10.00">&lt; is_const, View &gt; &gt;, N &gt; &gt; &gt;</text>
</a>
</g>
</g>
<!-- Node0&#45;&gt;Node1 -->
<g id="edge209_Node000000_Node000001" class="edge">
<title>Node0&#45;&gt;Node1</title>
<g id="a_edge209_Node000000_Node000001"><a xlink:title=" ">
<path fill="none" stroke="#63b8ff" d="M92.85,-246.96C111.11,-282.15 145.78,-340.15 191,-375 198.54,-380.81 206.82,-386.02 215.45,-390.68"/>
<polygon fill="#63b8ff" stroke="#63b8ff" points="95.79,-245.01 88.14,-237.67 89.54,-248.17 95.79,-245.01"/>
</a>
</g>
</g>
<!-- Node2 -->
<g id="Node000002" class="node">
<title>Node2</title>
<g id="a_Node000002"><a xlink:href="classdi_1_1container_1_1IteratorExtension.html" target="_top" xlink:title=" ">
<polygon fill="white" stroke="#666666" points="420.5,-365.5 233.5,-365.5 233.5,-302.5 420.5,-302.5 420.5,-365.5"/>
<text text-anchor="start" x="241.5" y="-353.5" font-family="Helvetica,sans-Serif" font-size="10.00">di::container::IteratorExtension</text>
<text text-anchor="start" x="241.5" y="-342.5" font-family="Helvetica,sans-Serif" font-size="10.00">&lt; Iterator&lt; is_const &gt;, Iter</text>
<text text-anchor="start" x="241.5" y="-331.5" font-family="Helvetica,sans-Serif" font-size="10.00">&lt; is_const &gt;, meta::RemoveCVRef</text>
<text text-anchor="start" x="241.5" y="-320.5" font-family="Helvetica,sans-Serif" font-size="10.00">&lt; meta::TupleElement&lt; Value&lt; is</text>
<text text-anchor="middle" x="327" y="-309.5" font-family="Helvetica,sans-Serif" font-size="10.00">_const &gt;, index &gt; &gt; &gt;</text>
</a>
</g>
</g>
<!-- Node0&#45;&gt;Node2 -->
<g id="edge210_Node000000_Node000002" class="edge">
<title>Node0&#45;&gt;Node2</title>
<g id="a_edge210_Node000000_Node000002"><a xlink:title=" ">
<path fill="none" stroke="#63b8ff" d="M112.57,-243.97C134.08,-259.97 163.01,-279.67 191,-293 204.38,-299.37 218.97,-305.02 233.46,-309.94"/>
<polygon fill="#63b8ff" stroke="#63b8ff" points="114.5,-241.05 104.41,-237.82 110.29,-246.63 114.5,-241.05"/>
</a>
</g>
</g>
<!-- Node3 -->
<g id="Node000003" class="node">
<title>Node3</title>
<g id="a_Node000003"><a xlink:href="classdi_1_1container_1_1IteratorExtension.html" target="_top" xlink:title=" ">
<polygon fill="white" stroke="#666666" points="415.5,-284 238.5,-284 238.5,-232 415.5,-232 415.5,-284"/>
<text text-anchor="start" x="246.5" y="-272" font-family="Helvetica,sans-Serif" font-size="10.00">di::container::IteratorExtension</text>
<text text-anchor="start" x="246.5" y="-261" font-family="Helvetica,sans-Serif" font-size="10.00">&lt; Iterator&lt; is_const &gt;, Iter</text>
<text text-anchor="start" x="246.5" y="-250" font-family="Helvetica,sans-Serif" font-size="10.00">&lt; is_const &gt;, Tuple&lt; Index&lt; is</text>
<text text-anchor="middle" x="327" y="-239" font-family="Helvetica,sans-Serif" font-size="10.00">_const &gt;, Value&lt; is_const &gt; &gt; &gt;</text>
</a>
</g>
</g>
<!-- Node0&#45;&gt;Node3 -->
<g id="edge211_Node000000_Node000003" class="edge">
<title>Node0&#45;&gt;Node3</title>
<g id="a_edge211_Node000000_Node000003"><a xlink:title=" ">
<path fill="none" stroke="#63b8ff" d="M165.11,-231.35C188.74,-235.26 214.36,-239.51 238.06,-243.43"/>
<polygon fill="#63b8ff" stroke="#63b8ff" points="165.55,-227.87 155.12,-229.69 164.41,-234.78 165.55,-227.87"/>
</a>
</g>
</g>
<!-- Node4 -->
<g id="Node000004" class="node">
<title>Node4</title>
<g id="a_Node000004"><a xlink:href="classdi_1_1container_1_1IteratorExtension.html" target="_top" xlink:title=" ">
<polygon fill="white" stroke="#666666" points="440,-214 214,-214 214,-140 440,-140 440,-214"/>
<text text-anchor="start" x="222" y="-202" font-family="Helvetica,sans-Serif" font-size="10.00">di::container::IteratorExtension</text>
<text text-anchor="start" x="222" y="-191" font-family="Helvetica,sans-Serif" font-size="10.00">&lt; Iterator&lt; is_const &gt;, Iter</text>
<text text-anchor="start" x="222" y="-180" font-family="Helvetica,sans-Serif" font-size="10.00">&lt; is_const &gt;, meta::RemoveCVRef</text>
<text text-anchor="start" x="222" y="-169" font-family="Helvetica,sans-Serif" font-size="10.00">&lt; meta::InvokeResult&lt; meta::MaybeConst</text>
<text text-anchor="start" x="222" y="-158" font-family="Helvetica,sans-Serif" font-size="10.00">&lt; is_const, F &gt; &amp;, meta::IteratorReference</text>
<text text-anchor="middle" x="327" y="-147" font-family="Helvetica,sans-Serif" font-size="10.00">&lt; Iter&lt; is_const &gt; &gt; &gt; &gt; &gt;</text>
</a>
</g>
</g>
<!-- Node0&#45;&gt;Node4 -->
<g id="edge212_Node000000_Node000004" class="edge">
<title>Node0&#45;&gt;Node4</title>
<g id="a_edge212_Node000000_Node000004"><a xlink:title=" ">
<path fill="none" stroke="#63b8ff" d="M165.29,-202.97C180.98,-200.44 197.55,-197.76 213.85,-195.13"/>
<polygon fill="#63b8ff" stroke="#63b8ff" points="164.43,-199.57 155.12,-204.62 165.55,-206.48 164.43,-199.57"/>
</a>
</g>
</g>
<!-- Node5 -->
<g id="Node000005" class="node">
<title>Node5</title>
<g id="a_Node000005"><a xlink:href="classdi_1_1container_1_1IteratorExtension.html" target="_top" xlink:title=" ">
<polygon fill="white" stroke="#666666" points="410.5,-122 243.5,-122 243.5,-92 410.5,-92 410.5,-122"/>
<text text-anchor="start" x="251.5" y="-110" font-family="Helvetica,sans-Serif" font-size="10.00">di::container::IteratorExtension</text>
<text text-anchor="middle" x="327" y="-99" font-family="Helvetica,sans-Serif" font-size="10.00">&lt; Iterator, T *, T &gt;</text>
</a>
</g>
</g>
<!-- Node0&#45;&gt;Node5 -->
<g id="edge213_Node000000_Node000005" class="edge">
<title>Node0&#45;&gt;Node5</title>
<g id="a_edge213_Node000000_Node000005"><a xlink:title=" ">
<path fill="none" stroke="#63b8ff" d="M106.32,-189.59C127.71,-170.15 158.93,-145.1 191,-131 207.34,-123.81 225.7,-118.78 243.48,-115.25"/>
<polygon fill="#63b8ff" stroke="#63b8ff" points="103.86,-187.1 98.91,-196.47 108.62,-192.24 103.86,-187.1"/>
</a>
</g>
</g>
<!-- Node6 -->
<g id="Node000006" class="node">
<title>Node6</title>
<g id="a_Node000006"><a xlink:href="classdi_1_1container_1_1IteratorExtension.html" target="_top" xlink:title=" ">
<polygon fill="white" stroke="#666666" points="463,-74 191,-74 191,0 463,0 463,-74"/>
<text text-anchor="start" x="199" y="-62" font-family="Helvetica,sans-Serif" font-size="10.00">di::container::IteratorExtension</text>
<text text-anchor="start" x="199" y="-51" font-family="Helvetica,sans-Serif" font-size="10.00">&lt; Iterator&lt; is_const &gt;, Ziperator</text>
<text text-anchor="start" x="199" y="-40" font-family="Helvetica,sans-Serif" font-size="10.00">&lt; is_const &gt;, meta::RemoveCVRef</text>
<text text-anchor="start" x="199" y="-29" font-family="Helvetica,sans-Serif" font-size="10.00">&lt; meta::InvokeResult&lt; meta::MaybeConst</text>
<text text-anchor="start" x="199" y="-18" font-family="Helvetica,sans-Serif" font-size="10.00">&lt; is_const, F &gt; &amp;, meta::ContainerReference</text>
<text text-anchor="middle" x="327" y="-7" font-family="Helvetica,sans-Serif" font-size="10.00">&lt; meta::MaybeConst&lt; is_const, Views &gt; &gt;... &gt; &gt; &gt;</text>
</a>
</g>
</g>
<!-- Node0&#45;&gt;Node6 -->
<g id="edge214_Node000000_Node000006" class="edge">
<title>Node0&#45;&gt;Node6</title>
<g id="a_edge214_Node000000_Node000006"><a xlink:title=" ">
<path fill="none" stroke="#63b8ff" d="M96.11,-187.83C115.74,-157.6 150.17,-110.96 191,-83 195.6,-79.85 200.43,-76.9 205.42,-74.14"/>
<polygon fill="#63b8ff" stroke="#63b8ff" points="93.16,-185.95 90.73,-196.26 99.06,-189.71 93.16,-185.95"/>
</a>
</g>
</g>
</g>
</svg>
