<?xml version="1.0" encoding="UTF-8" standalone="no"?>
<!DOCTYPE svg PUBLIC "-//W3C//DTD SVG 1.1//EN"
 "http://www.w3.org/Graphics/SVG/1.1/DTD/svg11.dtd">
<!-- Generated by graphviz version 2.43.0 (0)
 -->
<!-- Title: Graphical Class Hierarchy Pages: 1 -->
<svg width="552pt" height="1111pt"
 viewBox="0.00 0.00 552.00 1111.00" xmlns="http://www.w3.org/2000/svg" xmlns:xlink="http://www.w3.org/1999/xlink">
<g id="graph0" class="graph" transform="scale(1 1) rotate(0) translate(4 1107)">
<title>Graphical Class Hierarchy</title>
<!-- Node0 -->
<g id="Node000000" class="node">
<title>Node0</title>
<g id="a_Node000000"><a xlink:href="structdi_1_1util_1_1AddMemberGet.html" target="_top" xlink:title=" ">
<polygon fill="white" stroke="#666666" points="139.5,-648.5 9.5,-648.5 9.5,-618.5 139.5,-618.5 139.5,-648.5"/>
<text text-anchor="start" x="17.5" y="-636.5" font-family="Helvetica,sans-Serif" font-size="10.00">di::util::AddMemberGet</text>
<text text-anchor="middle" x="74.5" y="-625.5" font-family="Helvetica,sans-Serif" font-size="10.00">&lt; Tuple&lt; Types... &gt; &gt;</text>
</a>
</g>
</g>
<!-- Node1 -->
<g id="Node000001" class="node">
<title>Node1</title>
<g id="a_Node000001"><a xlink:href="classdi_1_1vocab_1_1Tuple.html" target="_top" xlink:title=" ">
<polygon fill="white" stroke="#666666" points="341,-847 206,-847 206,-828 341,-828 341,-847"/>
<text text-anchor="middle" x="273.5" y="-835" font-family="Helvetica,sans-Serif" font-size="10.00">di::vocab::Tuple&lt; Es... &gt;</text>
</a>
</g>
</g>
<!-- Node0&#45;&gt;Node1 -->
<g id="edge684_Node000000_Node000001" class="edge">
<title>Node0&#45;&gt;Node1</title>
<g id="a_edge684_Node000000_Node000001"><a xlink:title=" ">
<path fill="none" stroke="#63b8ff" d="M82.81,-658.34C96.09,-698.9 128.22,-778.9 185,-819.5 191.31,-824.01 198.49,-827.45 205.96,-830.05"/>
<polygon fill="#63b8ff" stroke="#63b8ff" points="86.11,-657.17 79.76,-648.69 79.43,-659.28 86.11,-657.17"/>
</a>
</g>
</g>
<!-- Node4 -->
<g id="Node000004" class="node">
<title>Node4</title>
<g id="a_Node000004"><a xlink:href="classdi_1_1vocab_1_1Tuple.html" target="_top" xlink:title=" ">
<polygon fill="white" stroke="#666666" points="341,-810 206,-810 206,-791 341,-791 341,-810"/>
<text text-anchor="middle" x="273.5" y="-798" font-family="Helvetica,sans-Serif" font-size="10.00">di::vocab::Tuple&lt; Fs... &gt;</text>
</a>
</g>
</g>
<!-- Node0&#45;&gt;Node4 -->
<g id="edge686_Node000000_Node000004" class="edge">
<title>Node0&#45;&gt;Node4</title>
<g id="a_edge686_Node000000_Node000004"><a xlink:title=" ">
<path fill="none" stroke="#63b8ff" d="M86.64,-658.04C103.14,-691.48 137.36,-750.71 185,-781.5 191.4,-785.63 198.55,-788.88 205.94,-791.43"/>
<polygon fill="#63b8ff" stroke="#63b8ff" points="89.76,-656.44 82.27,-648.94 83.44,-659.47 89.76,-656.44"/>
</a>
</g>
</g>
<!-- Node6 -->
<g id="Node000006" class="node">
<title>Node6</title>
<g id="a_Node000006"><a xlink:href="classdi_1_1vocab_1_1Tuple.html" target="_top" xlink:title=" ">
<polygon fill="white" stroke="#666666" points="346.5,-772.5 200.5,-772.5 200.5,-720.5 346.5,-720.5 346.5,-772.5"/>
<text text-anchor="start" x="208.5" y="-760.5" font-family="Helvetica,sans-Serif" font-size="10.00">di::vocab::Tuple&lt; meta</text>
<text text-anchor="start" x="208.5" y="-749.5" font-family="Helvetica,sans-Serif" font-size="10.00">::MethodErasedSignature</text>
<text text-anchor="start" x="208.5" y="-738.5" font-family="Helvetica,sans-Serif" font-size="10.00">&lt; meta::Type&lt; Methods &gt;</text>
<text text-anchor="middle" x="273.5" y="-727.5" font-family="Helvetica,sans-Serif" font-size="10.00"> &gt; *... &gt;</text>
</a>
</g>
</g>
<!-- Node0&#45;&gt;Node6 -->
<g id="edge688_Node000000_Node000006" class="edge">
<title>Node0&#45;&gt;Node6</title>
<g id="a_edge688_Node000000_Node000006"><a xlink:title=" ">
<path fill="none" stroke="#63b8ff" d="M101.97,-655.09C123.45,-671.92 154.98,-695.11 185,-711.5 190.74,-714.64 196.83,-717.65 203.01,-720.49"/>
<polygon fill="#63b8ff" stroke="#63b8ff" points="103.99,-652.23 93.98,-648.76 99.64,-657.71 103.99,-652.23"/>
</a>
</g>
</g>
<!-- Node7 -->
<g id="Node000007" class="node">
<title>Node7</title>
<g id="a_Node000007"><a xlink:href="classdi_1_1vocab_1_1Tuple.html" target="_top" xlink:title=" ">
<polygon fill="white" stroke="#666666" points="354,-702 193,-702 193,-683 354,-683 354,-702"/>
<text text-anchor="middle" x="273.5" y="-690" font-family="Helvetica,sans-Serif" font-size="10.00">di::vocab::Tuple&lt; Options... &gt;</text>
</a>
</g>
</g>
<!-- Node0&#45;&gt;Node7 -->
<g id="edge689_Node000000_Node000007" class="edge">
<title>Node0&#45;&gt;Node7</title>
<g id="a_edge689_Node000000_Node000007"><a xlink:title=" ">
<path fill="none" stroke="#63b8ff" d="M121.05,-652.37C140.52,-659.95 163.64,-668.34 185,-674.5 196.03,-677.68 207.99,-680.52 219.43,-682.96"/>
<polygon fill="#63b8ff" stroke="#63b8ff" points="122.11,-649.02 111.52,-648.6 119.54,-655.53 122.11,-649.02"/>
</a>
</g>
</g>
<!-- Node8 -->
<g id="Node000008" class="node">
<title>Node8</title>
<g id="a_Node000008"><a xlink:href="classdi_1_1vocab_1_1Tuple.html" target="_top" xlink:title=" ">
<polygon fill="white" stroke="#666666" points="362,-665 185,-665 185,-646 362,-646 362,-665"/>
<text text-anchor="middle" x="273.5" y="-653" font-family="Helvetica,sans-Serif" font-size="10.00">di::vocab::Tuple&lt; Arguments... &gt;</text>
</a>
</g>
</g>
<!-- Node0&#45;&gt;Node8 -->
<g id="edge690_Node000000_Node000008" class="edge">
<title>Node0&#45;&gt;Node8</title>
<g id="a_edge690_Node000000_Node000008"><a xlink:title=" ">
<path fill="none" stroke="#63b8ff" d="M149.84,-641.8C162.04,-643.16 174.77,-644.59 187.21,-645.98"/>
<polygon fill="#63b8ff" stroke="#63b8ff" points="150.06,-638.3 139.73,-640.67 149.28,-645.26 150.06,-638.3"/>
</a>
</g>
</g>
<!-- Node9 -->
<g id="Node000009" class="node">
<title>Node9</title>
<g id="a_Node000009"><a xlink:href="classdi_1_1vocab_1_1Tuple.html" target="_top" xlink:title=" ">
<polygon fill="white" stroke="#666666" points="337.5,-627.5 209.5,-627.5 209.5,-597.5 337.5,-597.5 337.5,-627.5"/>
<text text-anchor="start" x="217.5" y="-615.5" font-family="Helvetica,sans-Serif" font-size="10.00">di::vocab::Tuple&lt; First,</text>
<text text-anchor="middle" x="273.5" y="-604.5" font-family="Helvetica,sans-Serif" font-size="10.00"> Rest... &gt;</text>
</a>
</g>
</g>
<!-- Node0&#45;&gt;Node9 -->
<g id="edge691_Node000000_Node000009" class="edge">
<title>Node0&#45;&gt;Node9</title>
<g id="a_edge691_Node000000_Node000009"><a xlink:title=" ">
<path fill="none" stroke="#63b8ff" d="M149.84,-625.58C169.45,-623.49 190.41,-621.25 209.36,-619.23"/>
<polygon fill="#63b8ff" stroke="#63b8ff" points="149.31,-622.11 139.73,-626.65 150.05,-629.07 149.31,-622.11"/>
</a>
</g>
</g>
<!-- Node10 -->
<g id="Node000010" class="node">
<title>Node10</title>
<g id="a_Node000010"><a xlink:href="classdi_1_1vocab_1_1Tuple.html" target="_top" xlink:title=" ">
<polygon fill="white" stroke="#666666" points="360.5,-579.5 186.5,-579.5 186.5,-505.5 360.5,-505.5 360.5,-579.5"/>
<text text-anchor="start" x="194.5" y="-567.5" font-family="Helvetica,sans-Serif" font-size="10.00">di::vocab::Tuple&lt; meta</text>
<text text-anchor="start" x="194.5" y="-556.5" font-family="Helvetica,sans-Serif" font-size="10.00">::ContainerIterator&lt; meta</text>
<text text-anchor="start" x="194.5" y="-545.5" font-family="Helvetica,sans-Serif" font-size="10.00">::MaybeConst&lt; is_const, First</text>
<text text-anchor="start" x="194.5" y="-534.5" font-family="Helvetica,sans-Serif" font-size="10.00"> &gt; &gt;, meta::ContainerIterator</text>
<text text-anchor="start" x="194.5" y="-523.5" font-family="Helvetica,sans-Serif" font-size="10.00">&lt; meta::MaybeConst&lt; is_const,</text>
<text text-anchor="middle" x="273.5" y="-512.5" font-family="Helvetica,sans-Serif" font-size="10.00"> Rest &gt; &gt;... &gt;</text>
</a>
</g>
</g>
<!-- Node0&#45;&gt;Node10 -->
<g id="edge692_Node000000_Node000010" class="edge">
<title>Node0&#45;&gt;Node10</title>
<g id="a_edge692_Node000000_Node000010"><a xlink:title=" ">
<path fill="none" stroke="#63b8ff" d="M135.66,-615.03C140.22,-613.27 144.71,-611.43 149,-609.5 165.9,-601.92 168.8,-597.48 185,-588.5 190.25,-585.59 195.71,-582.61 201.21,-579.65"/>
<polygon fill="#63b8ff" stroke="#63b8ff" points="134.42,-611.75 126.25,-618.5 136.84,-618.32 134.42,-611.75"/>
</a>
</g>
</g>
<!-- Node11 -->
<g id="Node000011" class="node">
<title>Node11</title>
<g id="a_Node000011"><a xlink:href="classdi_1_1vocab_1_1Tuple.html" target="_top" xlink:title=" ">
<polygon fill="white" stroke="#666666" points="350,-487 197,-487 197,-468 350,-468 350,-487"/>
<text text-anchor="middle" x="273.5" y="-475" font-family="Helvetica,sans-Serif" font-size="10.00">di::vocab::Tuple&lt; Views... &gt;</text>
</a>
</g>
</g>
<!-- Node0&#45;&gt;Node11 -->
<g id="edge693_Node000000_Node000011" class="edge">
<title>Node0&#45;&gt;Node11</title>
<g id="a_edge693_Node000000_Node000011"><a xlink:title=" ">
<path fill="none" stroke="#63b8ff" d="M145.67,-612.57C146.82,-611.6 147.94,-610.57 149,-609.5 186.14,-572.09 146.01,-531.97 185,-496.5 189.14,-492.73 193.85,-489.65 198.88,-487.14"/>
<polygon fill="#63b8ff" stroke="#63b8ff" points="143.62,-609.74 137.5,-618.39 147.68,-615.44 143.62,-609.74"/>
</a>
</g>
</g>
<!-- Node12 -->
<g id="Node000012" class="node">
<title>Node12</title>
<g id="a_Node000012"><a xlink:href="classdi_1_1vocab_1_1Tuple.html" target="_top" xlink:title=" ">
<polygon fill="white" stroke="#666666" points="358.5,-449.5 188.5,-449.5 188.5,-397.5 358.5,-397.5 358.5,-449.5"/>
<text text-anchor="start" x="196.5" y="-437.5" font-family="Helvetica,sans-Serif" font-size="10.00">di::vocab::Tuple&lt; meta</text>
<text text-anchor="start" x="196.5" y="-426.5" font-family="Helvetica,sans-Serif" font-size="10.00">::ContainerIterator&lt; meta</text>
<text text-anchor="start" x="196.5" y="-415.5" font-family="Helvetica,sans-Serif" font-size="10.00">::MaybeConst&lt; is_const, Views</text>
<text text-anchor="middle" x="273.5" y="-404.5" font-family="Helvetica,sans-Serif" font-size="10.00"> &gt; &gt;... &gt;</text>
</a>
</g>
</g>
<!-- Node0&#45;&gt;Node12 -->
<g id="edge694_Node000000_Node000012" class="edge">
<title>Node0&#45;&gt;Node12</title>
<g id="a_edge694_Node000000_Node000012"><a xlink:title=" ">
<path fill="none" stroke="#63b8ff" d="M146.2,-612.3C147.17,-611.4 148.1,-610.47 149,-609.5 195.5,-559.12 140.41,-511.58 185,-459.5 188.1,-455.88 191.62,-452.62 195.42,-449.68"/>
<polygon fill="#63b8ff" stroke="#63b8ff" points="143.96,-609.6 138.13,-618.44 148.21,-615.17 143.96,-609.6"/>
</a>
</g>
</g>
<!-- Node13 -->
<g id="Node000013" class="node">
<title>Node13</title>
<g id="a_Node000013"><a xlink:href="classdi_1_1vocab_1_1Tuple.html" target="_top" xlink:title=" ">
<polygon fill="white" stroke="#666666" points="358.5,-379.5 188.5,-379.5 188.5,-327.5 358.5,-327.5 358.5,-379.5"/>
<text text-anchor="start" x="196.5" y="-367.5" font-family="Helvetica,sans-Serif" font-size="10.00">di::vocab::Tuple&lt; meta</text>
<text text-anchor="start" x="196.5" y="-356.5" font-family="Helvetica,sans-Serif" font-size="10.00">::ContainerSentinel&lt; meta</text>
<text text-anchor="start" x="196.5" y="-345.5" font-family="Helvetica,sans-Serif" font-size="10.00">::MaybeConst&lt; is_const, Views</text>
<text text-anchor="middle" x="273.5" y="-334.5" font-family="Helvetica,sans-Serif" font-size="10.00"> &gt; &gt;... &gt;</text>
</a>
</g>
</g>
<!-- Node0&#45;&gt;Node13 -->
<g id="edge695_Node000000_Node000013" class="edge">
<title>Node0&#45;&gt;Node13</title>
<g id="a_edge695_Node000000_Node000013"><a xlink:title=" ">
<path fill="none" stroke="#63b8ff" d="M146.68,-612.01C147.48,-611.2 148.26,-610.37 149,-609.5 213.74,-533.92 122.74,-466.14 185,-388.5 187.56,-385.31 190.45,-382.41 193.59,-379.77"/>
<polygon fill="#63b8ff" stroke="#63b8ff" points="144.29,-609.44 138.76,-618.48 148.72,-614.86 144.29,-609.44"/>
</a>
</g>
</g>
<!-- Node14 -->
<g id="Node000014" class="node">
<title>Node14</title>
<g id="a_Node000014"><a xlink:href="classdi_1_1vocab_1_1Tuple.html" target="_top" xlink:title=" ">
<polygon fill="white" stroke="#666666" points="349.5,-309 197.5,-309 197.5,-290 349.5,-290 349.5,-309"/>
<text text-anchor="middle" x="273.5" y="-297" font-family="Helvetica,sans-Serif" font-size="10.00">di::vocab::Tuple&lt; Types... &gt;</text>
</a>
</g>
</g>
<!-- Node0&#45;&gt;Node14 -->
<g id="edge696_Node000000_Node000014" class="edge">
<title>Node0&#45;&gt;Node14</title>
<g id="a_edge696_Node000000_Node000014"><a xlink:title=" ">
<path fill="none" stroke="#63b8ff" d="M147.08,-611.68C147.74,-610.97 148.38,-610.25 149,-609.5 231.87,-508.92 97.12,-414.73 185,-318.5 188.56,-314.6 192.72,-311.4 197.26,-308.78"/>
<polygon fill="#63b8ff" stroke="#63b8ff" points="144.57,-609.22 139.24,-618.38 149.12,-614.54 144.57,-609.22"/>
</a>
</g>
</g>
<!-- Node15 -->
<g id="Node000015" class="node">
<title>Node15</title>
<g id="a_Node000015"><a xlink:href="classdi_1_1vocab_1_1Tuple.html" target="_top" xlink:title=" ">
<polygon fill="white" stroke="#666666" points="357,-272 190,-272 190,-253 357,-253 357,-272"/>
<text text-anchor="middle" x="273.5" y="-260" font-family="Helvetica,sans-Serif" font-size="10.00">di::vocab::Tuple&lt; Factories... &gt;</text>
</a>
</g>
</g>
<!-- Node0&#45;&gt;Node15 -->
<g id="edge697_Node000000_Node000015" class="edge">
<title>Node0&#45;&gt;Node15</title>
<g id="a_edge697_Node000000_Node000015"><a xlink:title=" ">
<path fill="none" stroke="#63b8ff" d="M147.1,-611.69C147.75,-610.98 148.39,-610.25 149,-609.5 241.47,-495.67 86.86,-390.47 185,-281.5 188.33,-277.8 192.19,-274.73 196.41,-272.19"/>
<polygon fill="#63b8ff" stroke="#63b8ff" points="144.58,-609.24 139.29,-618.42 149.15,-614.54 144.58,-609.24"/>
</a>
</g>
</g>
<!-- Node16 -->
<g id="Node000016" class="node">
<title>Node16</title>
<g id="a_Node000016"><a xlink:href="classdi_1_1vocab_1_1Tuple.html" target="_top" xlink:title=" ">
<polygon fill="white" stroke="#666666" points="359,-235 188,-235 188,-216 359,-216 359,-235"/>
<text text-anchor="middle" x="273.5" y="-223" font-family="Helvetica,sans-Serif" font-size="10.00">di::vocab::Tuple&lt; Overrides... &gt;</text>
</a>
</g>
</g>
<!-- Node0&#45;&gt;Node16 -->
<g id="edge698_Node000000_Node000016" class="edge">
<title>Node0&#45;&gt;Node16</title>
<g id="a_edge698_Node000000_Node000016"><a xlink:title=" ">
<path fill="none" stroke="#63b8ff" d="M147.11,-611.7C147.76,-610.99 148.39,-610.26 149,-609.5 200.04,-545.96 130.79,-305.36 185,-244.5 188.31,-240.79 192.16,-237.7 196.36,-235.15"/>
<polygon fill="#63b8ff" stroke="#63b8ff" points="144.59,-609.25 139.34,-618.46 149.18,-614.53 144.59,-609.25"/>
</a>
</g>
</g>
<!-- Node17 -->
<g id="Node000017" class="node">
<title>Node17</title>
<g id="a_Node000017"><a xlink:href="classdi_1_1vocab_1_1Tuple.html" target="_top" xlink:title=" ">
<polygon fill="white" stroke="#666666" points="346.5,-197.5 200.5,-197.5 200.5,-145.5 346.5,-145.5 346.5,-197.5"/>
<text text-anchor="start" x="208.5" y="-185.5" font-family="Helvetica,sans-Serif" font-size="10.00">di::vocab::Tuple&lt; meta</text>
<text text-anchor="start" x="208.5" y="-174.5" font-family="Helvetica,sans-Serif" font-size="10.00">::ConnectResult&lt; Sends,</text>
<text text-anchor="start" x="208.5" y="-163.5" font-family="Helvetica,sans-Serif" font-size="10.00"> Receiver&lt; indices, Sends,</text>
<text text-anchor="middle" x="273.5" y="-152.5" font-family="Helvetica,sans-Serif" font-size="10.00"> Data &gt; &gt;... &gt;</text>
</a>
</g>
</g>
<!-- Node0&#45;&gt;Node17 -->
<g id="edge699_Node000000_Node000017" class="edge">
<title>Node0&#45;&gt;Node17</title>
<g id="a_edge699_Node000000_Node000017"><a xlink:title=" ">
<path fill="none" stroke="#63b8ff" d="M147.12,-611.7C147.77,-610.99 148.4,-610.26 149,-609.5 204.85,-539.32 131.8,-279.71 185,-207.5 189.19,-201.81 194.44,-197.02 200.28,-192.98"/>
<polygon fill="#63b8ff" stroke="#63b8ff" points="144.59,-609.26 139.37,-618.48 149.2,-614.53 144.59,-609.26"/>
</a>
</g>
</g>
<!-- Node18 -->
<g id="Node000018" class="node">
<title>Node18</title>
<g id="a_Node000018"><a xlink:href="classdi_1_1vocab_1_1Tuple.html" target="_top" xlink:title=" ">
<polygon fill="white" stroke="#666666" points="355,-127 192,-127 192,-108 355,-108 355,-127"/>
<text text-anchor="middle" x="273.5" y="-115" font-family="Helvetica,sans-Serif" font-size="10.00">di::vocab::Tuple&lt; Senders... &gt;</text>
</a>
</g>
</g>
<!-- Node0&#45;&gt;Node18 -->
<g id="edge700_Node000000_Node000018" class="edge">
<title>Node0&#45;&gt;Node18</title>
<g id="a_edge700_Node000000_Node000018"><a xlink:title=" ">
<path fill="none" stroke="#63b8ff" d="M147.46,-611.35C147.99,-610.75 148.5,-610.13 149,-609.5 214.09,-526.58 115.77,-216 185,-136.5 188.27,-132.75 192.08,-129.64 196.26,-127.07"/>
<polygon fill="#63b8ff" stroke="#63b8ff" points="144.84,-609 139.75,-618.29 149.52,-614.2 144.84,-609"/>
</a>
</g>
</g>
<!-- Node19 -->
<g id="Node000019" class="node">
<title>Node19</title>
<g id="a_Node000019"><a xlink:href="classdi_1_1vocab_1_1Tuple.html" target="_top" xlink:title=" ">
<polygon fill="white" stroke="#666666" points="343.5,-89.5 203.5,-89.5 203.5,-37.5 343.5,-37.5 343.5,-89.5"/>
<text text-anchor="start" x="211.5" y="-77.5" font-family="Helvetica,sans-Serif" font-size="10.00">di::vocab::Tuple&lt; meta</text>
<text text-anchor="start" x="211.5" y="-66.5" font-family="Helvetica,sans-Serif" font-size="10.00">::SubscribeResult&lt; Seqs,</text>
<text text-anchor="start" x="211.5" y="-55.5" font-family="Helvetica,sans-Serif" font-size="10.00"> Receiver&lt; indices, Seqs,</text>
<text text-anchor="middle" x="273.5" y="-44.5" font-family="Helvetica,sans-Serif" font-size="10.00"> Data &gt; &gt;... &gt;</text>
</a>
</g>
</g>
<!-- Node0&#45;&gt;Node19 -->
<g id="edge701_Node000000_Node000019" class="edge">
<title>Node0&#45;&gt;Node19</title>
<g id="a_edge701_Node000000_Node000019"><a xlink:title=" ">
<path fill="none" stroke="#63b8ff" d="M147.46,-611.36C147.99,-610.75 148.5,-610.13 149,-609.5 218.91,-519.94 118.48,-191.61 185,-99.5 189.9,-92.71 196.33,-87.19 203.47,-82.72"/>
<polygon fill="#63b8ff" stroke="#63b8ff" points="144.84,-609.01 139.77,-618.31 149.54,-614.2 144.84,-609.01"/>
</a>
</g>
</g>
<!-- Node20 -->
<g id="Node000020" class="node">
<title>Node20</title>
<g id="a_Node000020"><a xlink:href="classdi_1_1vocab_1_1Tuple.html" target="_top" xlink:title=" ">
<polygon fill="white" stroke="#666666" points="347,-19 200,-19 200,0 347,0 347,-19"/>
<text text-anchor="middle" x="273.5" y="-7" font-family="Helvetica,sans-Serif" font-size="10.00">di::vocab::Tuple&lt; Seqs... &gt;</text>
</a>
</g>
</g>
<!-- Node0&#45;&gt;Node20 -->
<g id="edge702_Node000000_Node000020" class="edge">
<title>Node0&#45;&gt;Node20</title>
<g id="a_edge702_Node000000_Node000020"><a xlink:title=" ">
<path fill="none" stroke="#63b8ff" d="M147.47,-611.36C148,-610.76 148.51,-610.14 149,-609.5 228.16,-507.19 100.74,-126.65 185,-28.5 189.15,-23.66 194.22,-19.89 199.8,-16.96"/>
<polygon fill="#63b8ff" stroke="#63b8ff" points="144.85,-609.02 139.8,-618.33 149.56,-614.2 144.85,-609.02"/>
</a>
</g>
</g>
<!-- Node21 -->
<g id="Node000021" class="node">
<title>Node21</title>
<g id="a_Node000021"><a xlink:href="classdi_1_1vocab_1_1Tuple.html" target="_top" xlink:title=" ">
<polygon fill="white" stroke="#666666" points="361.5,-1103 185.5,-1103 185.5,-1084 361.5,-1084 361.5,-1103"/>
<text text-anchor="middle" x="273.5" y="-1091" font-family="Helvetica,sans-Serif" font-size="10.00">di::vocab::Tuple&lt; BoundArgs... &gt;</text>
</a>
</g>
</g>
<!-- Node0&#45;&gt;Node21 -->
<g id="edge703_Node000000_Node000021" class="edge">
<title>Node0&#45;&gt;Node21</title>
<g id="a_edge703_Node000000_Node000021"><a xlink:title=" ">
<path fill="none" stroke="#63b8ff" d="M78.24,-658.69C87.95,-743.48 123.56,-1016.47 185,-1075.5 188.47,-1078.83 192.38,-1081.62 196.57,-1083.95"/>
<polygon fill="#63b8ff" stroke="#63b8ff" points="81.7,-658.21 77.11,-648.66 74.75,-658.99 81.7,-658.21"/>
</a>
</g>
</g>
<!-- Node22 -->
<g id="Node000022" class="node">
<title>Node22</title>
<g id="a_Node000022"><a xlink:href="classdi_1_1vocab_1_1Tuple.html" target="_top" xlink:title=" ">
<polygon fill="white" stroke="#666666" points="346.5,-1066 200.5,-1066 200.5,-1047 346.5,-1047 346.5,-1066"/>
<text text-anchor="middle" x="273.5" y="-1054" font-family="Helvetica,sans-Serif" font-size="10.00">di::vocab::Tuple&lt; Args... &gt;</text>
</a>
</g>
</g>
<!-- Node0&#45;&gt;Node22 -->
<g id="edge704_Node000000_Node000022" class="edge">
<title>Node0&#45;&gt;Node22</title>
<g id="a_edge704_Node000000_Node000022"><a xlink:title=" ">
<path fill="none" stroke="#63b8ff" d="M78.88,-658.92C90.05,-739.21 128.37,-985.24 185,-1038.5 189.52,-1042.75 194.76,-1046.11 200.39,-1048.76"/>
<polygon fill="#63b8ff" stroke="#63b8ff" points="82.3,-658.16 77.48,-648.73 75.37,-659.11 82.3,-658.16"/>
</a>
</g>
</g>
<!-- Node23 -->
<g id="Node000023" class="node">
<title>Node23</title>
<g id="a_Node000023"><a xlink:href="classdi_1_1vocab_1_1Tuple.html" target="_top" xlink:title=" ">
<polygon fill="white" stroke="#666666" points="353,-1029 194,-1029 194,-1010 353,-1010 353,-1029"/>
<text text-anchor="middle" x="273.5" y="-1017" font-family="Helvetica,sans-Serif" font-size="10.00">di::vocab::Tuple&lt; Parsers... &gt;</text>
</a>
</g>
</g>
<!-- Node0&#45;&gt;Node23 -->
<g id="edge705_Node000000_Node000023" class="edge">
<title>Node0&#45;&gt;Node23</title>
<g id="a_edge705_Node000000_Node000023"><a xlink:title=" ">
<path fill="none" stroke="#63b8ff" d="M74.9,-658.89C74.8,-725.61 84.29,-907.18 185,-1000.5 189.1,-1004.3 193.79,-1007.41 198.8,-1009.95"/>
<polygon fill="#63b8ff" stroke="#63b8ff" points="78.4,-658.88 74.99,-648.85 71.4,-658.81 78.4,-658.88"/>
</a>
</g>
</g>
<!-- Node24 -->
<g id="Node000024" class="node">
<title>Node24</title>
<g id="a_Node000024"><a xlink:href="classdi_1_1vocab_1_1Tuple.html" target="_top" xlink:title=" ">
<polygon fill="white" stroke="#666666" points="339,-991.5 208,-991.5 208,-961.5 339,-961.5 339,-991.5"/>
<text text-anchor="start" x="216" y="-979.5" font-family="Helvetica,sans-Serif" font-size="10.00">di::vocab::Tuple&lt; Locks</text>
<text text-anchor="middle" x="273.5" y="-968.5" font-family="Helvetica,sans-Serif" font-size="10.00"> &amp;... &gt;</text>
</a>
</g>
</g>
<!-- Node0&#45;&gt;Node24 -->
<g id="edge706_Node000000_Node000024" class="edge">
<title>Node0&#45;&gt;Node24</title>
<g id="a_edge706_Node000000_Node000024"><a xlink:title=" ">
<path fill="none" stroke="#63b8ff" d="M76.53,-658.93C80.37,-719.12 98.6,-871.38 185,-952.5 191.55,-958.65 199.51,-963.24 207.95,-966.68"/>
<polygon fill="#63b8ff" stroke="#63b8ff" points="80.01,-658.59 75.96,-648.8 73.03,-658.97 80.01,-658.59"/>
</a>
</g>
</g>
<!-- Node25 -->
<g id="Node000025" class="node">
<title>Node25</title>
<g id="a_Node000025"><a xlink:href="classdi_1_1vocab_1_1Tuple.html" target="_top" xlink:title=" ">
<polygon fill="white" stroke="#666666" points="339.5,-943 207.5,-943 207.5,-902 339.5,-902 339.5,-943"/>
<text text-anchor="start" x="215.5" y="-931" font-family="Helvetica,sans-Serif" font-size="10.00">di::vocab::Tuple&lt; di</text>
<text text-anchor="start" x="215.5" y="-920" font-family="Helvetica,sans-Serif" font-size="10.00">::TransparentString,</text>
<text text-anchor="middle" x="273.5" y="-909" font-family="Helvetica,sans-Serif" font-size="10.00"> di::Arc&lt; iris::Inode &gt; &gt;</text>
</a>
</g>
</g>
<!-- Node0&#45;&gt;Node25 -->
<g id="edge707_Node000000_Node000025" class="edge">
<title>Node0&#45;&gt;Node25</title>
<g id="a_edge707_Node000000_Node000025"><a xlink:title=" ">
<path fill="none" stroke="#63b8ff" d="M79.04,-658.5C87.63,-709.92 114.32,-828.16 185,-893.5 191.46,-899.47 199.19,-904.22 207.33,-907.99"/>
<polygon fill="#63b8ff" stroke="#63b8ff" points="82.49,-657.92 77.47,-648.59 75.58,-659.01 82.49,-657.92"/>
</a>
</g>
</g>
<!-- Node26 -->
<g id="Node000026" class="node">
<title>Node26</title>
<g id="a_Node000026"><a xlink:href="classdi_1_1vocab_1_1Tuple.html" target="_top" xlink:title=" ">
<polygon fill="white" stroke="#666666" points="345,-884 202,-884 202,-865 345,-865 345,-884"/>
<text text-anchor="middle" x="273.5" y="-872" font-family="Helvetica,sans-Serif" font-size="10.00">di::vocab::Tuple&lt; Types &gt;</text>
</a>
</g>
</g>
<!-- Node0&#45;&gt;Node26 -->
<g id="edge708_Node000000_Node000026" class="edge">
<title>Node0&#45;&gt;Node26</title>
<g id="a_edge708_Node000000_Node000026"><a xlink:title=" ">
<path fill="none" stroke="#63b8ff" d="M80.25,-658.47C90.51,-705.19 119.34,-805.68 185,-856.5 190.03,-860.39 195.69,-863.5 201.66,-865.97"/>
<polygon fill="#63b8ff" stroke="#63b8ff" points="83.65,-657.65 78.18,-648.58 76.8,-659.09 83.65,-657.65"/>
</a>
</g>
</g>
<!-- Node2 -->
<g id="Node000002" class="node">
<title>Node2</title>
<g id="a_Node000002"><a xlink:href="structdi_1_1reflection_1_1Enumerators.html" target="_top" xlink:title=" ">
<polygon fill="white" stroke="#666666" points="544,-857.5 398,-857.5 398,-827.5 544,-827.5 544,-857.5"/>
<text text-anchor="start" x="406" y="-845.5" font-family="Helvetica,sans-Serif" font-size="10.00">di::reflection::Enumerators</text>
<text text-anchor="middle" x="471" y="-834.5" font-family="Helvetica,sans-Serif" font-size="10.00">&lt; Es &gt;</text>
</a>
</g>
</g>
<!-- Node1&#45;&gt;Node2 -->
<g id="edge685_Node000001_Node000002" class="edge">
<title>Node1&#45;&gt;Node2</title>
<g id="a_edge685_Node000001_Node000002"><a xlink:title=" ">
<path fill="none" stroke="#63b8ff" d="M351.65,-839.47C366.89,-839.86 382.82,-840.27 397.88,-840.66"/>
<polygon fill="#63b8ff" stroke="#63b8ff" points="351.32,-835.96 341.23,-839.21 351.14,-842.96 351.32,-835.96"/>
</a>
</g>
</g>
<!-- Node5 -->
<g id="Node000005" class="node">
<title>Node5</title>
<g id="a_Node000005"><a xlink:href="structdi_1_1reflection_1_1Fields.html" target="_top" xlink:title=" ">
<polygon fill="white" stroke="#666666" points="527,-809.5 415,-809.5 415,-779.5 527,-779.5 527,-809.5"/>
<text text-anchor="start" x="423" y="-797.5" font-family="Helvetica,sans-Serif" font-size="10.00">di::reflection::Fields</text>
<text text-anchor="middle" x="471" y="-786.5" font-family="Helvetica,sans-Serif" font-size="10.00">&lt; Fs &gt;</text>
</a>
</g>
</g>
<!-- Node4&#45;&gt;Node5 -->
<g id="edge687_Node000004_Node000005" class="edge">
<title>Node4&#45;&gt;Node5</title>
<g id="a_edge687_Node000004_Node000005"><a xlink:title=" ">
<path fill="none" stroke="#63b8ff" d="M351.51,-798.14C372.69,-797.49 395.24,-796.79 414.92,-796.19"/>
<polygon fill="#63b8ff" stroke="#63b8ff" points="351.12,-794.65 341.23,-798.45 351.34,-801.64 351.12,-794.65"/>
</a>
</g>
</g>
<!-- Node3 -->
<g id="Node000003" class="node">
<title>Node3</title>
<g id="a_Node000003"><a xlink:href="classdi_1_1vocab_1_1TupleImpl.html" target="_top" xlink:title=" ">
<polygon fill="white" stroke="#666666" points="149,-600 0,-600 0,-559 149,-559 149,-600"/>
<text text-anchor="start" x="8" y="-588" font-family="Helvetica,sans-Serif" font-size="10.00">di::vocab::TupleImpl</text>
<text text-anchor="start" x="8" y="-577" font-family="Helvetica,sans-Serif" font-size="10.00">&lt; meta::IndexSequenceFor</text>
<text text-anchor="middle" x="74.5" y="-566" font-family="Helvetica,sans-Serif" font-size="10.00">&lt; Types... &gt;, Types... &gt;</text>
</a>
</g>
</g>
<!-- Node3&#45;&gt;Node1 -->
<g id="edge709_Node000003_Node000001" class="edge">
<title>Node3&#45;&gt;Node1</title>
<g id="a_edge709_Node000003_Node000001"><a xlink:title=" ">
<path fill="none" stroke="#63b8ff" d="M146.78,-606.92C147.55,-607.75 148.29,-608.61 149,-609.5 208.29,-683.34 119.16,-751.44 185,-819.5 190.82,-825.52 198.08,-829.8 205.91,-832.81"/>
<polygon fill="#63b8ff" stroke="#63b8ff" points="148.94,-604.16 139.17,-600.06 144.25,-609.36 148.94,-604.16"/>
</a>
</g>
</g>
<!-- Node3&#45;&gt;Node4 -->
<g id="edge710_Node000003_Node000004" class="edge">
<title>Node3&#45;&gt;Node4</title>
<g id="a_edge710_Node000003_Node000004"><a xlink:title=" ">
<path fill="none" stroke="#63b8ff" d="M146.73,-606.95C147.51,-607.78 148.27,-608.63 149,-609.5 199,-669.5 129.98,-726.07 185,-781.5 190.8,-787.35 197.95,-791.59 205.65,-794.64"/>
<polygon fill="#63b8ff" stroke="#63b8ff" points="148.84,-604.15 139.02,-600.18 144.22,-609.41 148.84,-604.15"/>
</a>
</g>
</g>
<!-- Node3&#45;&gt;Node6 -->
<g id="edge711_Node000003_Node000006" class="edge">
<title>Node3&#45;&gt;Node6</title>
<g id="a_edge711_Node000003_Node000006"><a xlink:title=" ">
<path fill="none" stroke="#63b8ff" d="M145.75,-606.34C146.87,-607.36 147.96,-608.41 149,-609.5 182.16,-644.3 151.71,-676.81 185,-711.5 189.53,-716.22 194.78,-720.32 200.42,-723.88"/>
<polygon fill="#63b8ff" stroke="#63b8ff" points="147.86,-603.54 137.81,-600.16 143.56,-609.07 147.86,-603.54"/>
</a>
</g>
</g>
<!-- Node3&#45;&gt;Node7 -->
<g id="edge712_Node000003_Node000007" class="edge">
<title>Node3&#45;&gt;Node7</title>
<g id="a_edge712_Node000003_Node000007"><a xlink:title=" ">
<path fill="none" stroke="#63b8ff" d="M144.41,-605.74C146,-606.94 147.53,-608.2 149,-609.5 173.69,-631.43 158.39,-654.94 185,-674.5 189.62,-677.9 194.74,-680.69 200.11,-682.98"/>
<polygon fill="#63b8ff" stroke="#63b8ff" points="146.35,-602.83 136.1,-600.15 142.44,-608.64 146.35,-602.83"/>
</a>
</g>
</g>
<!-- Node3&#45;&gt;Node8 -->
<g id="edge713_Node000003_Node000008" class="edge">
<title>Node3&#45;&gt;Node8</title>
<g id="a_edge713_Node000003_Node000008"><a xlink:title=" ">
<path fill="none" stroke="#63b8ff" d="M139.61,-604.5C142.82,-606.11 145.97,-607.78 149,-609.5 166.4,-619.36 166.81,-628.19 185,-636.5 193.48,-640.38 202.8,-643.48 212.08,-645.96"/>
<polygon fill="#63b8ff" stroke="#63b8ff" points="140.96,-601.26 130.43,-600.09 137.93,-607.57 140.96,-601.26"/>
</a>
</g>
</g>
<!-- Node3&#45;&gt;Node9 -->
<g id="edge714_Node000003_Node000009" class="edge">
<title>Node3&#45;&gt;Node9</title>
<g id="a_edge714_Node000003_Node000009"><a xlink:title=" ">
<path fill="none" stroke="#63b8ff" d="M159.44,-593.56C176.15,-596.36 193.42,-599.25 209.29,-601.91"/>
<polygon fill="#63b8ff" stroke="#63b8ff" points="159.58,-590.04 149.14,-591.83 158.42,-596.94 159.58,-590.04"/>
</a>
</g>
</g>
<!-- Node3&#45;&gt;Node10 -->
<g id="edge715_Node000003_Node000010" class="edge">
<title>Node3&#45;&gt;Node10</title>
<g id="a_edge715_Node000003_Node000010"><a xlink:title=" ">
<path fill="none" stroke="#63b8ff" d="M159.19,-563.78C168.18,-562.09 177.33,-560.38 186.34,-558.68"/>
<polygon fill="#63b8ff" stroke="#63b8ff" points="158.32,-560.38 149.14,-565.67 159.61,-567.26 158.32,-560.38"/>
</a>
</g>
</g>
<!-- Node3&#45;&gt;Node11 -->
<g id="edge716_Node000003_Node000011" class="edge">
<title>Node3&#45;&gt;Node11</title>
<g id="a_edge716_Node000003_Node000011"><a xlink:title=" ">
<path fill="none" stroke="#63b8ff" d="M104.24,-552.11C125.09,-533.71 154.83,-510.38 185,-496.5 193.47,-492.6 202.78,-489.49 212.07,-487"/>
<polygon fill="#63b8ff" stroke="#63b8ff" points="101.79,-549.6 96.7,-558.89 106.47,-554.8 101.79,-549.6"/>
</a>
</g>
</g>
<!-- Node3&#45;&gt;Node12 -->
<g id="edge717_Node000003_Node000012" class="edge">
<title>Node3&#45;&gt;Node12</title>
<g id="a_edge717_Node000003_Node000012"><a xlink:title=" ">
<path fill="none" stroke="#63b8ff" d="M96.03,-550.48C116.13,-523.82 148.93,-484.75 185,-459.5 190.11,-455.92 195.64,-452.61 201.34,-449.57"/>
<polygon fill="#63b8ff" stroke="#63b8ff" points="93.11,-548.54 89.96,-558.66 98.73,-552.71 93.11,-548.54"/>
</a>
</g>
</g>
<!-- Node3&#45;&gt;Node13 -->
<g id="edge718_Node000003_Node000013" class="edge">
<title>Node3&#45;&gt;Node13</title>
<g id="a_edge718_Node000003_Node000013"><a xlink:title=" ">
<path fill="none" stroke="#63b8ff" d="M85.54,-549.42C100.83,-507.9 133.69,-433.08 185,-388.5 188.71,-385.28 192.74,-382.34 196.99,-379.64"/>
<polygon fill="#63b8ff" stroke="#63b8ff" points="82.19,-548.39 82.12,-558.98 88.78,-550.75 82.19,-548.39"/>
</a>
</g>
</g>
<!-- Node3&#45;&gt;Node14 -->
<g id="edge719_Node000003_Node000014" class="edge">
<title>Node3&#45;&gt;Node14</title>
<g id="a_edge719_Node000003_Node000014"><a xlink:title=" ">
<path fill="none" stroke="#63b8ff" d="M79.23,-548.58C87.58,-493.43 113.1,-378.29 185,-318.5 189.54,-314.72 194.66,-311.65 200.09,-309.15"/>
<polygon fill="#63b8ff" stroke="#63b8ff" points="75.72,-548.38 77.77,-558.77 82.65,-549.37 75.72,-548.38"/>
</a>
</g>
</g>
<!-- Node3&#45;&gt;Node15 -->
<g id="edge720_Node000003_Node000015" class="edge">
<title>Node3&#45;&gt;Node15</title>
<g id="a_edge720_Node000003_Node000015"><a xlink:title=" ">
<path fill="none" stroke="#63b8ff" d="M77.4,-548.64C82.87,-487.76 104.01,-352 185,-281.5 189.34,-277.72 194.25,-274.64 199.48,-272.13"/>
<polygon fill="#63b8ff" stroke="#63b8ff" points="73.89,-548.51 76.57,-558.77 80.87,-549.08 73.89,-548.51"/>
</a>
</g>
</g>
<!-- Node3&#45;&gt;Node16 -->
<g id="edge721_Node000003_Node000016" class="edge">
<title>Node3&#45;&gt;Node16</title>
<g id="a_edge721_Node000003_Node000016"><a xlink:title=" ">
<path fill="none" stroke="#63b8ff" d="M75.95,-548.66C78.67,-482.4 94.87,-325.87 185,-244.5 189.15,-240.75 193.87,-237.68 198.91,-235.17"/>
<polygon fill="#63b8ff" stroke="#63b8ff" points="72.44,-548.75 75.61,-558.86 79.44,-548.98 72.44,-548.75"/>
</a>
</g>
</g>
<!-- Node3&#45;&gt;Node17 -->
<g id="edge722_Node000003_Node000017" class="edge">
<title>Node3&#45;&gt;Node17</title>
<g id="a_edge722_Node000003_Node000017"><a xlink:title=" ">
<path fill="none" stroke="#63b8ff" d="M75.98,-548.54C78.69,-478.8 94.74,-307.67 185,-207.5 189.4,-202.62 194.56,-198.38 200.13,-194.71"/>
<polygon fill="#63b8ff" stroke="#63b8ff" points="72.47,-548.73 75.65,-558.84 79.47,-548.96 72.47,-548.73"/>
</a>
</g>
</g>
<!-- Node3&#45;&gt;Node18 -->
<g id="edge723_Node000003_Node000018" class="edge">
<title>Node3&#45;&gt;Node18</title>
<g id="a_edge723_Node000003_Node000018"><a xlink:title=" ">
<path fill="none" stroke="#63b8ff" d="M78.92,-548.55C89.57,-457.74 125.08,-194.73 185,-136.5 188.9,-132.71 193.37,-129.6 198.18,-127.05"/>
<polygon fill="#63b8ff" stroke="#63b8ff" points="75.41,-548.41 77.74,-558.75 82.36,-549.21 75.41,-548.41"/>
</a>
</g>
</g>
<!-- Node3&#45;&gt;Node19 -->
<g id="edge724_Node000003_Node000019" class="edge">
<title>Node3&#45;&gt;Node19</title>
<g id="a_edge724_Node000003_Node000019"><a xlink:title=" ">
<path fill="none" stroke="#63b8ff" d="M78.82,-548.71C89.59,-453.95 126.31,-168.84 185,-99.5 190.09,-93.48 196.35,-88.45 203.16,-84.26"/>
<polygon fill="#63b8ff" stroke="#63b8ff" points="75.32,-548.47 77.69,-558.8 82.28,-549.25 75.32,-548.47"/>
</a>
</g>
</g>
<!-- Node3&#45;&gt;Node20 -->
<g id="edge725_Node000003_Node000020" class="edge">
<title>Node3&#45;&gt;Node20</title>
<g id="a_edge725_Node000003_Node000020"><a xlink:title=" ">
<path fill="none" stroke="#63b8ff" d="M77.29,-548.65C84.01,-443.81 111.23,-103.59 185,-28.5 189.25,-24.18 194.23,-20.73 199.63,-17.99"/>
<polygon fill="#63b8ff" stroke="#63b8ff" points="73.78,-548.67 76.65,-558.87 80.77,-549.11 73.78,-548.67"/>
</a>
</g>
</g>
<!-- Node3&#45;&gt;Node21 -->
<g id="edge726_Node000003_Node000021" class="edge">
<title>Node3&#45;&gt;Node21</title>
<g id="a_edge726_Node000003_Node000021"><a xlink:title=" ">
<path fill="none" stroke="#63b8ff" d="M147.22,-607.22C147.84,-607.96 148.43,-608.72 149,-609.5 210.21,-693.41 116.32,-997.59 185,-1075.5 187.87,-1078.76 191.16,-1081.52 194.74,-1083.85"/>
<polygon fill="#63b8ff" stroke="#63b8ff" points="149.47,-604.52 139.87,-600.03 144.57,-609.52 149.47,-604.52"/>
</a>
</g>
</g>
<!-- Node3&#45;&gt;Node22 -->
<g id="edge727_Node000003_Node000022" class="edge">
<title>Node3&#45;&gt;Node22</title>
<g id="a_edge727_Node000003_Node000022"><a xlink:title=" ">
<path fill="none" stroke="#63b8ff" d="M147.22,-607.23C147.83,-607.96 148.43,-608.72 149,-609.5 205.63,-686.61 121.5,-966.94 185,-1038.5 189.32,-1043.37 194.58,-1047.13 200.36,-1050.01"/>
<polygon fill="#63b8ff" stroke="#63b8ff" points="149.45,-604.52 139.85,-600.05 144.57,-609.53 149.45,-604.52"/>
</a>
</g>
</g>
<!-- Node3&#45;&gt;Node23 -->
<g id="edge728_Node000003_Node000023" class="edge">
<title>Node3&#45;&gt;Node23</title>
<g id="a_edge728_Node000003_Node000023"><a xlink:title=" ">
<path fill="none" stroke="#63b8ff" d="M147.21,-607.23C147.83,-607.97 148.43,-608.72 149,-609.5 200.94,-679.62 127.18,-935.15 185,-1000.5 188.3,-1004.23 192.14,-1007.32 196.33,-1009.87"/>
<polygon fill="#63b8ff" stroke="#63b8ff" points="149.43,-604.51 139.81,-600.07 144.56,-609.54 149.43,-604.51"/>
</a>
</g>
</g>
<!-- Node3&#45;&gt;Node24 -->
<g id="edge729_Node000003_Node000024" class="edge">
<title>Node3&#45;&gt;Node24</title>
<g id="a_edge729_Node000003_Node000024"><a xlink:title=" ">
<path fill="none" stroke="#63b8ff" d="M147.19,-607.24C147.82,-607.98 148.42,-608.73 149,-609.5 241.02,-732.09 85.8,-835.64 185,-952.5 191.12,-959.71 199.17,-964.85 207.92,-968.51"/>
<polygon fill="#63b8ff" stroke="#63b8ff" points="149.4,-604.51 139.76,-600.11 144.55,-609.56 149.4,-604.51"/>
</a>
</g>
</g>
<!-- Node3&#45;&gt;Node25 -->
<g id="edge730_Node000003_Node000025" class="edge">
<title>Node3&#45;&gt;Node25</title>
<g id="a_edge730_Node000003_Node000025"><a xlink:title=" ">
<path fill="none" stroke="#63b8ff" d="M147.17,-607.26C147.8,-607.99 148.41,-608.73 149,-609.5 226.47,-710.43 104.17,-795.25 185,-893.5 191,-900.79 198.88,-906.26 207.46,-910.36"/>
<polygon fill="#63b8ff" stroke="#63b8ff" points="149.35,-604.5 139.67,-600.18 144.54,-609.59 149.35,-604.5"/>
</a>
</g>
</g>
<!-- Node3&#45;&gt;Node26 -->
<g id="edge731_Node000003_Node000026" class="edge">
<title>Node3&#45;&gt;Node26</title>
<g id="a_edge731_Node000003_Node000026"><a xlink:title=" ">
<path fill="none" stroke="#63b8ff" d="M147.15,-607.28C147.79,-608 148.41,-608.74 149,-609.5 217.37,-696.87 108.87,-775.81 185,-856.5 189.79,-861.58 195.6,-865.42 201.92,-868.32"/>
<polygon fill="#63b8ff" stroke="#63b8ff" points="149.3,-604.49 139.6,-600.23 144.52,-609.61 149.3,-604.49"/>
</a>
</g>
</g>
</g>
</svg>
