<?xml version="1.0" encoding="UTF-8" standalone="no"?>
<!DOCTYPE svg PUBLIC "-//W3C//DTD SVG 1.1//EN"
 "http://www.w3.org/Graphics/SVG/1.1/DTD/svg11.dtd">
<!-- Generated by graphviz version 2.43.0 (0)
 -->
<!-- Title: Graphical Class Hierarchy Pages: 1 -->
<svg width="330pt" height="887pt"
 viewBox="0.00 0.00 330.00 887.00" xmlns="http://www.w3.org/2000/svg" xmlns:xlink="http://www.w3.org/1999/xlink">
<g id="graph0" class="graph" transform="scale(1 1) rotate(0) translate(4 883)">
<title>Graphical Class Hierarchy</title>
<!-- Node0 -->
<g id="Node000000" class="node">
<title>Node0</title>
<g id="a_Node000000"><a xlink:title=" ">
<polygon fill="#e0e0e0" stroke="#999999" points="98,-443 0,-443 0,-424 98,-424 98,-443"/>
<text text-anchor="middle" x="49" y="-431" font-family="Helvetica,sans-Serif" font-size="10.00">ReceiverAdaptor</text>
</a>
</g>
</g>
<!-- Node1 -->
<g id="Node000001" class="node">
<title>Node1</title>
<g id="a_Node000001"><a xlink:href="structdi_1_1execution_1_1bulk__ns_1_1ReceiverT_1_1Type.html" target="_top" xlink:title=" ">
<polygon fill="white" stroke="#666666" points="294,-879 162,-879 162,-838 294,-838 294,-879"/>
<text text-anchor="start" x="170" y="-867" font-family="Helvetica,sans-Serif" font-size="10.00">di::execution::bulk</text>
<text text-anchor="start" x="170" y="-856" font-family="Helvetica,sans-Serif" font-size="10.00">_ns::ReceiverT&lt; Shape,</text>
<text text-anchor="middle" x="228" y="-845" font-family="Helvetica,sans-Serif" font-size="10.00"> Function, Rec &gt;::Type</text>
</a>
</g>
</g>
<!-- Node0&#45;&gt;Node1 -->
<g id="edge877_Node000000_Node000001" class="edge">
<title>Node0&#45;&gt;Node1</title>
<g id="a_edge877_Node000000_Node000001"><a xlink:title=" ">
<path fill="none" stroke="#63b8ff" d="M51.6,-453.47C57.8,-525.82 82.45,-772.9 134,-829.5 141.52,-837.75 151.34,-843.68 161.78,-847.93"/>
<polygon fill="#63b8ff" stroke="#63b8ff" points="55.06,-452.75 50.74,-443.08 48.08,-453.33 55.06,-452.75"/>
</a>
</g>
</g>
<!-- Node2 -->
<g id="Node000002" class="node">
<title>Node2</title>
<g id="a_Node000002"><a xlink:href="structdi_1_1execution_1_1counting__scope__ns_1_1NestReceiverT_1_1Type.html" target="_top" xlink:title=" ">
<polygon fill="white" stroke="#666666" points="300,-820 156,-820 156,-779 300,-779 300,-820"/>
<text text-anchor="start" x="164" y="-808" font-family="Helvetica,sans-Serif" font-size="10.00">di::execution::counting</text>
<text text-anchor="start" x="164" y="-797" font-family="Helvetica,sans-Serif" font-size="10.00">_scope_ns::NestReceiverT</text>
<text text-anchor="middle" x="228" y="-786" font-family="Helvetica,sans-Serif" font-size="10.00">&lt; Alloc, Rec &gt;::Type</text>
</a>
</g>
</g>
<!-- Node0&#45;&gt;Node2 -->
<g id="edge878_Node000000_Node000002" class="edge">
<title>Node0&#45;&gt;Node2</title>
<g id="a_edge878_Node000000_Node000002"><a xlink:title=" ">
<path fill="none" stroke="#63b8ff" d="M52.39,-453.39C60.61,-518.44 89.59,-723.44 134,-770.5 140.15,-777.02 147.74,-782.08 155.91,-786.01"/>
<polygon fill="#63b8ff" stroke="#63b8ff" points="55.84,-452.74 51.14,-443.25 48.89,-453.6 55.84,-452.74"/>
</a>
</g>
</g>
<!-- Node3 -->
<g id="Node000003" class="node">
<title>Node3</title>
<g id="a_Node000003"><a xlink:href="structdi_1_1execution_1_1first__value__ns_1_1NextReceiverT_1_1Type.html" target="_top" xlink:title=" ">
<polygon fill="white" stroke="#666666" points="304,-761 152,-761 152,-720 304,-720 304,-761"/>
<text text-anchor="start" x="160" y="-749" font-family="Helvetica,sans-Serif" font-size="10.00">di::execution::first</text>
<text text-anchor="start" x="160" y="-738" font-family="Helvetica,sans-Serif" font-size="10.00">_value_ns::NextReceiverT</text>
<text text-anchor="middle" x="228" y="-727" font-family="Helvetica,sans-Serif" font-size="10.00">&lt; Seq, Rec, Next, R &gt;::Type</text>
</a>
</g>
</g>
<!-- Node0&#45;&gt;Node3 -->
<g id="edge879_Node000000_Node000003" class="edge">
<title>Node0&#45;&gt;Node3</title>
<g id="a_edge879_Node000000_Node000003"><a xlink:title=" ">
<path fill="none" stroke="#63b8ff" d="M50.08,-453.33C51.36,-503.56 61.79,-637.01 134,-710.5 139.11,-715.7 145.13,-720.01 151.61,-723.56"/>
<polygon fill="#63b8ff" stroke="#63b8ff" points="53.57,-453.12 49.92,-443.18 46.57,-453.23 53.57,-453.12"/>
</a>
</g>
</g>
<!-- Node4 -->
<g id="Node000004" class="node">
<title>Node4</title>
<g id="a_Node000004"><a xlink:href="structdi_1_1execution_1_1ignore__all__ns_1_1NextReceiverT_1_1Type.html" target="_top" xlink:title=" ">
<polygon fill="white" stroke="#666666" points="301,-701.5 155,-701.5 155,-649.5 301,-649.5 301,-701.5"/>
<text text-anchor="start" x="163" y="-689.5" font-family="Helvetica,sans-Serif" font-size="10.00">di::execution::ignore</text>
<text text-anchor="start" x="163" y="-678.5" font-family="Helvetica,sans-Serif" font-size="10.00">_all_ns::NextReceiverT</text>
<text text-anchor="start" x="163" y="-667.5" font-family="Helvetica,sans-Serif" font-size="10.00">&lt; Seq, Rec, Next, NextRec</text>
<text text-anchor="middle" x="228" y="-656.5" font-family="Helvetica,sans-Serif" font-size="10.00"> &gt;::Type</text>
</a>
</g>
</g>
<!-- Node0&#45;&gt;Node4 -->
<g id="edge880_Node000000_Node000004" class="edge">
<title>Node0&#45;&gt;Node4</title>
<g id="a_edge880_Node000000_Node000004"><a xlink:title=" ">
<path fill="none" stroke="#63b8ff" d="M52.66,-453.21C59.14,-493.79 79.42,-587.3 134,-640.5 140.05,-646.4 147.2,-651.32 154.79,-655.43"/>
<polygon fill="#63b8ff" stroke="#63b8ff" points="56.11,-452.63 51.18,-443.25 49.18,-453.65 56.11,-452.63"/>
</a>
</g>
</g>
<!-- Node5 -->
<g id="Node000005" class="node">
<title>Node5</title>
<g id="a_Node000005"><a xlink:href="structdi_1_1execution_1_1ignore__all__ns_1_1ReceiverT_1_1Type.html" target="_top" xlink:title=" ">
<polygon fill="white" stroke="#666666" points="296.5,-631 159.5,-631 159.5,-590 296.5,-590 296.5,-631"/>
<text text-anchor="start" x="167.5" y="-619" font-family="Helvetica,sans-Serif" font-size="10.00">di::execution::ignore</text>
<text text-anchor="start" x="167.5" y="-608" font-family="Helvetica,sans-Serif" font-size="10.00">_all_ns::ReceiverT&lt; Seq,</text>
<text text-anchor="middle" x="228" y="-597" font-family="Helvetica,sans-Serif" font-size="10.00"> Rec &gt;::Type</text>
</a>
</g>
</g>
<!-- Node0&#45;&gt;Node5 -->
<g id="edge881_Node000000_Node000005" class="edge">
<title>Node0&#45;&gt;Node5</title>
<g id="a_edge881_Node000000_Node000005"><a xlink:title=" ">
<path fill="none" stroke="#63b8ff" d="M55.8,-452.88C66.24,-484.47 91.2,-547 134,-581.5 141.51,-587.55 150.28,-592.34 159.38,-596.14"/>
<polygon fill="#63b8ff" stroke="#63b8ff" points="59.06,-451.57 52.71,-443.09 52.38,-453.68 59.06,-451.57"/>
</a>
</g>
</g>
<!-- Node6 -->
<g id="Node000006" class="node">
<title>Node6</title>
<g id="a_Node000006"><a xlink:href="structdi_1_1execution_1_1into__result__ns_1_1ReceiverT_1_1Type.html" target="_top" xlink:title=" ">
<polygon fill="white" stroke="#666666" points="289,-572 167,-572 167,-531 289,-531 289,-572"/>
<text text-anchor="start" x="175" y="-560" font-family="Helvetica,sans-Serif" font-size="10.00">di::execution::into</text>
<text text-anchor="start" x="175" y="-549" font-family="Helvetica,sans-Serif" font-size="10.00">_result_ns::ReceiverT</text>
<text text-anchor="middle" x="228" y="-538" font-family="Helvetica,sans-Serif" font-size="10.00">&lt; Result, Rec &gt;::Type</text>
</a>
</g>
</g>
<!-- Node0&#45;&gt;Node6 -->
<g id="edge882_Node000000_Node000006" class="edge">
<title>Node0&#45;&gt;Node6</title>
<g id="a_edge882_Node000000_Node000006"><a xlink:title=" ">
<path fill="none" stroke="#63b8ff" d="M62.39,-451.34C77.21,-471.42 103.84,-503.66 134,-522.5 144.04,-528.77 155.54,-533.78 166.96,-537.75"/>
<polygon fill="#63b8ff" stroke="#63b8ff" points="65.12,-449.15 56.44,-443.07 59.44,-453.23 65.12,-449.15"/>
</a>
</g>
</g>
<!-- Node7 -->
<g id="Node000007" class="node">
<title>Node7</title>
<g id="a_Node000007"><a xlink:href="structdi_1_1execution_1_1into__variant__ns_1_1ReceiverT_1_1Type.html" target="_top" xlink:title=" ">
<polygon fill="white" stroke="#666666" points="292,-513 164,-513 164,-472 292,-472 292,-513"/>
<text text-anchor="start" x="172" y="-501" font-family="Helvetica,sans-Serif" font-size="10.00">di::execution::into</text>
<text text-anchor="start" x="172" y="-490" font-family="Helvetica,sans-Serif" font-size="10.00">_variant_ns::ReceiverT</text>
<text text-anchor="middle" x="228" y="-479" font-family="Helvetica,sans-Serif" font-size="10.00">&lt; Value, Rec &gt;::Type</text>
</a>
</g>
</g>
<!-- Node0&#45;&gt;Node7 -->
<g id="edge883_Node000000_Node000007" class="edge">
<title>Node0&#45;&gt;Node7</title>
<g id="a_edge883_Node000000_Node000007"><a xlink:title=" ">
<path fill="none" stroke="#63b8ff" d="M85.83,-446.66C100.69,-452.02 118.13,-458.19 134,-463.5 143.62,-466.72 153.85,-470.02 163.86,-473.19"/>
<polygon fill="#63b8ff" stroke="#63b8ff" points="86.61,-443.22 76.01,-443.1 84.22,-449.8 86.61,-443.22"/>
</a>
</g>
</g>
<!-- Node8 -->
<g id="Node000008" class="node">
<title>Node8</title>
<g id="a_Node000008"><a xlink:href="structdi_1_1execution_1_1on__ns_1_1ReceiverT_1_1Type.html" target="_top" xlink:title=" ">
<polygon fill="white" stroke="#666666" points="295,-454 161,-454 161,-413 295,-413 295,-454"/>
<text text-anchor="start" x="169" y="-442" font-family="Helvetica,sans-Serif" font-size="10.00">di::execution::on_ns</text>
<text text-anchor="start" x="169" y="-431" font-family="Helvetica,sans-Serif" font-size="10.00">::ReceiverT&lt; Send, Rec,</text>
<text text-anchor="middle" x="228" y="-420" font-family="Helvetica,sans-Serif" font-size="10.00"> Sched &gt;::Type</text>
</a>
</g>
</g>
<!-- Node0&#45;&gt;Node8 -->
<g id="edge884_Node000000_Node000008" class="edge">
<title>Node0&#45;&gt;Node8</title>
<g id="a_edge884_Node000000_Node000008"><a xlink:title=" ">
<path fill="none" stroke="#63b8ff" d="M108.55,-433.5C125.28,-433.5 143.62,-433.5 160.78,-433.5"/>
<polygon fill="#63b8ff" stroke="#63b8ff" points="108.37,-430 98.37,-433.5 108.37,-437 108.37,-430"/>
</a>
</g>
</g>
<!-- Node9 -->
<g id="Node000009" class="node">
<title>Node9</title>
<g id="a_Node000009"><a xlink:href="structdi_1_1execution_1_1on__ns_1_1ReceiverWithEnvT_1_1Type.html" target="_top" xlink:title=" ">
<polygon fill="white" stroke="#666666" points="303,-395 153,-395 153,-354 303,-354 303,-395"/>
<text text-anchor="start" x="161" y="-383" font-family="Helvetica,sans-Serif" font-size="10.00">di::execution::on_ns</text>
<text text-anchor="start" x="161" y="-372" font-family="Helvetica,sans-Serif" font-size="10.00">::ReceiverWithEnvT&lt; Send,</text>
<text text-anchor="middle" x="228" y="-361" font-family="Helvetica,sans-Serif" font-size="10.00"> Rec, Sched &gt;::Type</text>
</a>
</g>
</g>
<!-- Node0&#45;&gt;Node9 -->
<g id="edge885_Node000000_Node000009" class="edge">
<title>Node0&#45;&gt;Node9</title>
<g id="a_edge885_Node000000_Node000009"><a xlink:title=" ">
<path fill="none" stroke="#63b8ff" d="M86.9,-420.58C101.54,-415.5 118.54,-409.66 134,-404.5 143.25,-401.41 153.04,-398.2 162.66,-395.07"/>
<polygon fill="#63b8ff" stroke="#63b8ff" points="85.49,-417.37 77.19,-423.96 87.78,-423.98 85.49,-417.37"/>
</a>
</g>
</g>
<!-- Node10 -->
<g id="Node000010" class="node">
<title>Node10</title>
<g id="a_Node000010"><a xlink:href="structdi_1_1execution_1_1repeat__effect__until__ns_1_1ReceiverT_1_1Type.html" target="_top" xlink:title=" ">
<polygon fill="white" stroke="#666666" points="302,-336 154,-336 154,-295 302,-295 302,-336"/>
<text text-anchor="start" x="162" y="-324" font-family="Helvetica,sans-Serif" font-size="10.00">di::execution::repeat</text>
<text text-anchor="start" x="162" y="-313" font-family="Helvetica,sans-Serif" font-size="10.00">_effect_until_ns::ReceiverT</text>
<text text-anchor="middle" x="228" y="-302" font-family="Helvetica,sans-Serif" font-size="10.00">&lt; Send, Rec, Pred &gt;::Type</text>
</a>
</g>
</g>
<!-- Node0&#45;&gt;Node10 -->
<g id="edge886_Node000000_Node000010" class="edge">
<title>Node0&#45;&gt;Node10</title>
<g id="a_edge886_Node000000_Node000010"><a xlink:title=" ">
<path fill="none" stroke="#63b8ff" d="M62.7,-415.61C77.64,-395.79 104.21,-364.19 134,-345.5 140.18,-341.62 146.91,-338.2 153.82,-335.19"/>
<polygon fill="#63b8ff" stroke="#63b8ff" points="59.79,-413.66 56.68,-423.79 65.43,-417.81 59.79,-413.66"/>
</a>
</g>
</g>
<!-- Node11 -->
<g id="Node000011" class="node">
<title>Node11</title>
<g id="a_Node000011"><a xlink:href="structdi_1_1execution_1_1schedule__from__ns_1_1ReceiverT_1_1Type.html" target="_top" xlink:title=" ">
<polygon fill="white" stroke="#666666" points="306,-277 150,-277 150,-236 306,-236 306,-277"/>
<text text-anchor="start" x="158" y="-265" font-family="Helvetica,sans-Serif" font-size="10.00">di::execution::schedule</text>
<text text-anchor="start" x="158" y="-254" font-family="Helvetica,sans-Serif" font-size="10.00">_from_ns::ReceiverT&lt; Rec,</text>
<text text-anchor="middle" x="228" y="-243" font-family="Helvetica,sans-Serif" font-size="10.00"> Sched, Completions &gt;::Type</text>
</a>
</g>
</g>
<!-- Node0&#45;&gt;Node11 -->
<g id="edge887_Node000000_Node000011" class="edge">
<title>Node0&#45;&gt;Node11</title>
<g id="a_edge887_Node000000_Node000011"><a xlink:title=" ">
<path fill="none" stroke="#63b8ff" d="M55.87,-414.3C66.43,-382.99 91.54,-320.97 134,-286.5 138.87,-282.54 144.28,-279.1 149.97,-276.12"/>
<polygon fill="#63b8ff" stroke="#63b8ff" points="52.49,-413.41 52.75,-424 59.15,-415.56 52.49,-413.41"/>
</a>
</g>
</g>
<!-- Node12 -->
<g id="Node000012" class="node">
<title>Node12</title>
<g id="a_Node000012"><a xlink:href="structdi_1_1execution_1_1schedule__from__ns_1_1ScheduleReceiverT_1_1Type.html" target="_top" xlink:title=" ">
<polygon fill="white" stroke="#666666" points="322,-218 134,-218 134,-177 322,-177 322,-218"/>
<text text-anchor="start" x="142" y="-206" font-family="Helvetica,sans-Serif" font-size="10.00">di::execution::schedule</text>
<text text-anchor="start" x="142" y="-195" font-family="Helvetica,sans-Serif" font-size="10.00">_from_ns::ScheduleReceiverT</text>
<text text-anchor="middle" x="228" y="-184" font-family="Helvetica,sans-Serif" font-size="10.00">&lt; Rec, Sched, Completions &gt;::Type</text>
</a>
</g>
</g>
<!-- Node0&#45;&gt;Node12 -->
<g id="edge888_Node000000_Node000012" class="edge">
<title>Node0&#45;&gt;Node12</title>
<g id="a_edge888_Node000000_Node000012"><a xlink:title=" ">
<path fill="none" stroke="#63b8ff" d="M52.48,-413.67C58.64,-372.88 78.35,-279.12 134,-227.5 137.73,-224.04 141.87,-220.98 146.26,-218.27"/>
<polygon fill="#63b8ff" stroke="#63b8ff" points="49,-413.3 51.09,-423.69 55.93,-414.26 49,-413.3"/>
</a>
</g>
</g>
<!-- Node13 -->
<g id="Node000013" class="node">
<title>Node13</title>
<g id="a_Node000013"><a xlink:href="structdi_1_1execution_1_1transform__each__ns_1_1ReceiverT_1_1Type.html" target="_top" xlink:title=" ">
<polygon fill="white" stroke="#666666" points="302,-159 154,-159 154,-118 302,-118 302,-159"/>
<text text-anchor="start" x="162" y="-147" font-family="Helvetica,sans-Serif" font-size="10.00">di::execution::transform</text>
<text text-anchor="start" x="162" y="-136" font-family="Helvetica,sans-Serif" font-size="10.00">_each_ns::ReceiverT&lt; Fun,</text>
<text text-anchor="middle" x="228" y="-125" font-family="Helvetica,sans-Serif" font-size="10.00"> Rec &gt;::Type</text>
</a>
</g>
</g>
<!-- Node0&#45;&gt;Node13 -->
<g id="edge889_Node000000_Node000013" class="edge">
<title>Node0&#45;&gt;Node13</title>
<g id="a_edge889_Node000000_Node000013"><a xlink:title=" ">
<path fill="none" stroke="#63b8ff" d="M50.39,-413.88C52.43,-365.3 64.51,-238.34 134,-168.5 139.74,-162.73 146.6,-158.06 153.96,-154.3"/>
<polygon fill="#63b8ff" stroke="#63b8ff" points="46.89,-413.87 50.07,-423.98 53.88,-414.09 46.89,-413.87"/>
</a>
</g>
</g>
<!-- Node14 -->
<g id="Node000014" class="node">
<title>Node14</title>
<g id="a_Node000014"><a xlink:href="structdi_1_1execution_1_1with__env__ns_1_1ReceiverT_1_1Type.html" target="_top" xlink:title=" ">
<polygon fill="white" stroke="#666666" points="287.5,-100 168.5,-100 168.5,-59 287.5,-59 287.5,-100"/>
<text text-anchor="start" x="176.5" y="-88" font-family="Helvetica,sans-Serif" font-size="10.00">di::execution::with</text>
<text text-anchor="start" x="176.5" y="-77" font-family="Helvetica,sans-Serif" font-size="10.00">_env_ns::ReceiverT&lt;</text>
<text text-anchor="middle" x="228" y="-66" font-family="Helvetica,sans-Serif" font-size="10.00"> Rec, Env &gt;::Type</text>
</a>
</g>
</g>
<!-- Node0&#45;&gt;Node14 -->
<g id="edge890_Node000000_Node000014" class="edge">
<title>Node0&#45;&gt;Node14</title>
<g id="a_edge890_Node000000_Node000014"><a xlink:title=" ">
<path fill="none" stroke="#63b8ff" d="M52.63,-413.58C61.39,-350.2 91.4,-154.67 134,-109.5 143.2,-99.75 155.57,-93.16 168.29,-88.71"/>
<polygon fill="#63b8ff" stroke="#63b8ff" points="49.12,-413.44 51.25,-423.82 56.06,-414.38 49.12,-413.44"/>
</a>
</g>
</g>
<!-- Node15 -->
<g id="Node000015" class="node">
<title>Node15</title>
<g id="a_Node000015"><a xlink:href="structdius_1_1linux_1_1RunSender_1_1OperationStateT_1_1Type_1_1Rec2.html" target="_top" xlink:title=" ">
<polygon fill="white" stroke="#666666" points="293.5,-41 162.5,-41 162.5,0 293.5,0 293.5,-41"/>
<text text-anchor="start" x="170.5" y="-29" font-family="Helvetica,sans-Serif" font-size="10.00">dius::linux::RunSender</text>
<text text-anchor="start" x="170.5" y="-18" font-family="Helvetica,sans-Serif" font-size="10.00">::OperationStateT&lt; Rec</text>
<text text-anchor="middle" x="228" y="-7" font-family="Helvetica,sans-Serif" font-size="10.00"> &gt;::Type::Rec2</text>
</a>
</g>
</g>
<!-- Node0&#45;&gt;Node15 -->
<g id="edge891_Node000000_Node000015" class="edge">
<title>Node0&#45;&gt;Node15</title>
<g id="a_edge891_Node000000_Node000015"><a xlink:title=" ">
<path fill="none" stroke="#63b8ff" d="M51.76,-413.74C58.42,-343.22 84.25,-105.28 134,-50.5 141.64,-42.09 151.65,-36.02 162.27,-31.65"/>
<polygon fill="#63b8ff" stroke="#63b8ff" points="48.26,-413.62 50.83,-423.9 55.23,-414.26 48.26,-413.62"/>
</a>
</g>
</g>
</g>
</svg>
