<?xml version="1.0" encoding="UTF-8" standalone="no"?>
<!DOCTYPE svg PUBLIC "-//W3C//DTD SVG 1.1//EN"
 "http://www.w3.org/Graphics/SVG/1.1/DTD/svg11.dtd">
<!-- Generated by graphviz version 2.43.0 (0)
 -->
<!-- Title: Graphical Class Hierarchy Pages: 1 -->
<svg width="1022pt" height="1970pt"
 viewBox="0.00 0.00 1022.00 1970.13" xmlns="http://www.w3.org/2000/svg" xmlns:xlink="http://www.w3.org/1999/xlink">
<g id="graph0" class="graph" transform="scale(1 1) rotate(0) translate(4 1966.13)">
<title>Graphical Class Hierarchy</title>
<!-- Node0 -->
<g id="Node000000" class="node">
<title>Node0</title>
<g id="a_Node000000"><a xlink:title=" ">
<polygon fill="#e0e0e0" stroke="#999999" points="60,-1716.63 0,-1716.63 0,-1697.63 60,-1697.63 60,-1716.63"/>
<text text-anchor="middle" x="30" y="-1704.63" font-family="Helvetica,sans-Serif" font-size="10.00">Interface</text>
</a>
</g>
</g>
<!-- Node1 -->
<g id="Node000001" class="node">
<title>Node1</title>
<g id="a_Node000001"><a xlink:href="classdi_1_1container_1_1NodeHashTable.html" target="_top" xlink:title=" ">
<polygon fill="white" stroke="#666666" points="299,-1869.13 96,-1869.13 96,-1795.13 299,-1795.13 299,-1869.13"/>
<text text-anchor="start" x="104" y="-1857.13" font-family="Helvetica,sans-Serif" font-size="10.00">di::container::NodeHashTable</text>
<text text-anchor="start" x="104" y="-1846.13" font-family="Helvetica,sans-Serif" font-size="10.00">&lt; Value, Eq, Hasher, Buckets,</text>
<text text-anchor="start" x="104" y="-1835.13" font-family="Helvetica,sans-Serif" font-size="10.00"> Tag, Interface, is_multi, is</text>
<text text-anchor="start" x="104" y="-1824.13" font-family="Helvetica,sans-Serif" font-size="10.00">_map, OwningNodeHashTable&lt; Value,</text>
<text text-anchor="start" x="104" y="-1813.13" font-family="Helvetica,sans-Serif" font-size="10.00"> Eq, Hasher, Buckets, Tag, Alloc,</text>
<text text-anchor="middle" x="197.5" y="-1802.13" font-family="Helvetica,sans-Serif" font-size="10.00"> Interface, is_multi, is_map &gt; &gt;</text>
</a>
</g>
</g>
<!-- Node0&#45;&gt;Node1 -->
<g id="edge837_Node000000_Node000001" class="edge">
<title>Node0&#45;&gt;Node1</title>
<g id="a_edge837_Node000000_Node000001"><a xlink:title=" ">
<path fill="none" stroke="#63b8ff" d="M42.55,-1725.55C54.27,-1743.01 73.79,-1769.05 96,-1786.13 100.03,-1789.24 104.3,-1792.19 108.72,-1794.99"/>
<polygon fill="#63b8ff" stroke="#63b8ff" points="45.27,-1723.31 36.88,-1716.84 39.41,-1727.13 45.27,-1723.31"/>
</a>
</g>
</g>
<!-- Node3 -->
<g id="Node000003" class="node">
<title>Node3</title>
<g id="a_Node000003"><a xlink:href="classdi_1_1container_1_1RBTree.html" target="_top" xlink:title=" ">
<polygon fill="white" stroke="#666666" points="285.5,-1776.63 109.5,-1776.63 109.5,-1713.63 285.5,-1713.63 285.5,-1776.63"/>
<text text-anchor="start" x="117.5" y="-1764.63" font-family="Helvetica,sans-Serif" font-size="10.00">di::container::RBTree</text>
<text text-anchor="start" x="117.5" y="-1753.63" font-family="Helvetica,sans-Serif" font-size="10.00">&lt; Value, Comp, Tag, Interface,</text>
<text text-anchor="start" x="117.5" y="-1742.63" font-family="Helvetica,sans-Serif" font-size="10.00"> is_multi, OwningRBTree&lt; Value,</text>
<text text-anchor="start" x="117.5" y="-1731.63" font-family="Helvetica,sans-Serif" font-size="10.00"> Comp, Tag, Alloc, Interface,</text>
<text text-anchor="middle" x="197.5" y="-1720.63" font-family="Helvetica,sans-Serif" font-size="10.00"> is_multi &gt; &gt;</text>
</a>
</g>
</g>
<!-- Node0&#45;&gt;Node3 -->
<g id="edge839_Node000000_Node000003" class="edge">
<title>Node0&#45;&gt;Node3</title>
<g id="a_edge839_Node000000_Node000003"><a xlink:title=" ">
<path fill="none" stroke="#63b8ff" d="M70.18,-1716.13C82.05,-1718.86 95.61,-1721.97 109.32,-1725.12"/>
<polygon fill="#63b8ff" stroke="#63b8ff" points="70.74,-1712.67 60.21,-1713.84 69.17,-1719.49 70.74,-1712.67"/>
</a>
</g>
</g>
<!-- Node13 -->
<g id="Node000013" class="node">
<title>Node13</title>
<g id="a_Node000013"><a xlink:href="classdi_1_1container_1_1NodeHashTable.html" target="_top" xlink:title="Node based (closed addressing) hash table.">
<polygon fill="white" stroke="#666666" points="278,-1695.13 117,-1695.13 117,-1643.13 278,-1643.13 278,-1695.13"/>
<text text-anchor="start" x="125" y="-1683.13" font-family="Helvetica,sans-Serif" font-size="10.00">di::container::NodeHashTable</text>
<text text-anchor="start" x="125" y="-1672.13" font-family="Helvetica,sans-Serif" font-size="10.00">&lt; Value, Eq, Hasher, Buckets,</text>
<text text-anchor="start" x="125" y="-1661.13" font-family="Helvetica,sans-Serif" font-size="10.00"> Tag, Interface, is_multi, is</text>
<text text-anchor="middle" x="197.5" y="-1650.13" font-family="Helvetica,sans-Serif" font-size="10.00">_map, Self &gt;</text>
</a>
</g>
</g>
<!-- Node0&#45;&gt;Node13 -->
<g id="edge849_Node000000_Node000013" class="edge">
<title>Node0&#45;&gt;Node13</title>
<g id="a_edge849_Node000000_Node000013"><a xlink:title=" ">
<path fill="none" stroke="#63b8ff" d="M70,-1698.18C84.06,-1694.95 100.5,-1691.18 116.78,-1687.44"/>
<polygon fill="#63b8ff" stroke="#63b8ff" points="69.17,-1694.78 60.21,-1700.43 70.74,-1701.6 69.17,-1694.78"/>
</a>
</g>
</g>
<!-- Node14 -->
<g id="Node000014" class="node">
<title>Node14</title>
<g id="a_Node000014"><a xlink:href="classdi_1_1container_1_1RBTree.html" target="_top" xlink:title="General implementation of the Red&#45;Black self&#45;balancing binary tree.">
<polygon fill="white" stroke="#666666" points="279.5,-1025.63 115.5,-1025.63 115.5,-984.63 279.5,-984.63 279.5,-1025.63"/>
<text text-anchor="start" x="123.5" y="-1013.63" font-family="Helvetica,sans-Serif" font-size="10.00">di::container::RBTree</text>
<text text-anchor="start" x="123.5" y="-1002.63" font-family="Helvetica,sans-Serif" font-size="10.00">&lt; Value, Comp, Tag, Interface,</text>
<text text-anchor="middle" x="197.5" y="-991.63" font-family="Helvetica,sans-Serif" font-size="10.00"> is_multi, Self &gt;</text>
</a>
</g>
</g>
<!-- Node0&#45;&gt;Node14 -->
<g id="edge850_Node000000_Node000014" class="edge">
<title>Node0&#45;&gt;Node14</title>
<g id="a_edge850_Node000000_Node000014"><a xlink:title=" ">
<path fill="none" stroke="#63b8ff" d="M35.64,-1687.46C59.4,-1586.66 167.3,-1128.98 191.62,-1025.83"/>
<polygon fill="#63b8ff" stroke="#63b8ff" points="32.16,-1686.94 33.28,-1697.48 38.98,-1688.55 32.16,-1686.94"/>
</a>
</g>
</g>
<!-- Node2 -->
<g id="Node000002" class="node">
<title>Node2</title>
<g id="a_Node000002"><a xlink:href="classdi_1_1container_1_1OwningNodeHashTable.html" target="_top" xlink:title=" ">
<polygon fill="white" stroke="#666666" points="662.5,-1858.13 495.5,-1858.13 495.5,-1806.13 662.5,-1806.13 662.5,-1858.13"/>
<text text-anchor="start" x="503.5" y="-1846.13" font-family="Helvetica,sans-Serif" font-size="10.00">di::container::OwningNode</text>
<text text-anchor="start" x="503.5" y="-1835.13" font-family="Helvetica,sans-Serif" font-size="10.00">HashTable&lt; Value, Eq, Hasher,</text>
<text text-anchor="start" x="503.5" y="-1824.13" font-family="Helvetica,sans-Serif" font-size="10.00"> Buckets, Tag, Alloc, Interface,</text>
<text text-anchor="middle" x="579" y="-1813.13" font-family="Helvetica,sans-Serif" font-size="10.00"> is_multi, is_map &gt;</text>
</a>
</g>
</g>
<!-- Node1&#45;&gt;Node2 -->
<g id="edge838_Node000001_Node000002" class="edge">
<title>Node1&#45;&gt;Node2</title>
<g id="a_edge838_Node000001_Node000002"><a xlink:title=" ">
<path fill="none" stroke="#63b8ff" d="M309.39,-1832.13C368.86,-1832.13 440.9,-1832.13 495.4,-1832.13"/>
<polygon fill="#63b8ff" stroke="#63b8ff" points="309.2,-1828.63 299.2,-1832.13 309.2,-1835.63 309.2,-1828.63"/>
</a>
</g>
</g>
<!-- Node4 -->
<g id="Node000004" class="node">
<title>Node4</title>
<g id="a_Node000004"><a xlink:href="classdi_1_1container_1_1OwningRBTree.html" target="_top" xlink:title=" ">
<polygon fill="white" stroke="#666666" points="656,-1776.63 502,-1776.63 502,-1735.63 656,-1735.63 656,-1776.63"/>
<text text-anchor="start" x="510" y="-1764.63" font-family="Helvetica,sans-Serif" font-size="10.00">di::container::OwningRBTree</text>
<text text-anchor="start" x="510" y="-1753.63" font-family="Helvetica,sans-Serif" font-size="10.00">&lt; Value, Comp, Tag, Alloc,</text>
<text text-anchor="middle" x="579" y="-1742.63" font-family="Helvetica,sans-Serif" font-size="10.00"> Interface, is_multi &gt;</text>
</a>
</g>
</g>
<!-- Node3&#45;&gt;Node4 -->
<g id="edge840_Node000003_Node000004" class="edge">
<title>Node3&#45;&gt;Node4</title>
<g id="a_edge840_Node000003_Node000004"><a xlink:title=" ">
<path fill="none" stroke="#63b8ff" d="M295.69,-1747.95C359.81,-1749.81 442.61,-1752.21 501.93,-1753.93"/>
<polygon fill="#63b8ff" stroke="#63b8ff" points="295.66,-1744.45 285.56,-1747.66 295.46,-1751.45 295.66,-1744.45"/>
</a>
</g>
</g>
<!-- Node5 -->
<g id="Node000005" class="node">
<title>Node5</title>
<g id="a_Node000005"><a xlink:href="classdi_1_1container_1_1TreeMap.html" target="_top" xlink:title=" ">
<polygon fill="white" stroke="#666666" points="1006.5,-1962.13 866.5,-1962.13 866.5,-1932.13 1006.5,-1932.13 1006.5,-1962.13"/>
<text text-anchor="start" x="874.5" y="-1950.13" font-family="Helvetica,sans-Serif" font-size="10.00">di::container::TreeMap</text>
<text text-anchor="middle" x="936.5" y="-1939.13" font-family="Helvetica,sans-Serif" font-size="10.00">&lt; u32, iris::Processor * &gt;</text>
</a>
</g>
</g>
<!-- Node4&#45;&gt;Node5 -->
<g id="edge841_Node000004_Node000005" class="edge">
<title>Node4&#45;&gt;Node5</title>
<g id="a_edge841_Node000004_Node000005"><a xlink:title=" ">
<path fill="none" stroke="#63b8ff" d="M666.24,-1749.17C717.66,-1749.76 780.92,-1759.49 823,-1797.13 866.41,-1835.97 818.35,-1881.43 859,-1923.13 862.3,-1926.52 866.08,-1929.44 870.14,-1931.94"/>
<polygon fill="#63b8ff" stroke="#63b8ff" points="666.12,-1745.67 656.12,-1749.17 666.12,-1752.67 666.12,-1745.67"/>
</a>
</g>
</g>
<!-- Node6 -->
<g id="Node000006" class="node">
<title>Node6</title>
<g id="a_Node000006"><a xlink:href="classdi_1_1container_1_1TreeMap.html" target="_top" xlink:title=" ">
<polygon fill="white" stroke="#666666" points="1002.5,-1913.63 870.5,-1913.63 870.5,-1872.63 1002.5,-1872.63 1002.5,-1913.63"/>
<text text-anchor="start" x="878.5" y="-1901.63" font-family="Helvetica,sans-Serif" font-size="10.00">di::container::TreeMap</text>
<text text-anchor="start" x="878.5" y="-1890.63" font-family="Helvetica,sans-Serif" font-size="10.00">&lt; di::TransparentString,</text>
<text text-anchor="middle" x="936.5" y="-1879.63" font-family="Helvetica,sans-Serif" font-size="10.00"> di::Arc&lt; iris::Inode &gt; &gt;</text>
</a>
</g>
</g>
<!-- Node4&#45;&gt;Node6 -->
<g id="edge842_Node000004_Node000006" class="edge">
<title>Node4&#45;&gt;Node6</title>
<g id="a_edge842_Node000004_Node000006"><a xlink:title=" ">
<path fill="none" stroke="#63b8ff" d="M666.31,-1752.61C716.26,-1754.71 777.96,-1764.81 823,-1797.13 850.46,-1816.84 833.59,-1841.84 859,-1864.13 862.52,-1867.23 866.41,-1870 870.51,-1872.49"/>
<polygon fill="#63b8ff" stroke="#63b8ff" points="666.26,-1749.11 656.16,-1752.28 666.04,-1756.1 666.26,-1749.11"/>
</a>
</g>
</g>
<!-- Node7 -->
<g id="Node000007" class="node">
<title>Node7</title>
<g id="a_Node000007"><a xlink:href="classdi_1_1container_1_1TreeMap.html" target="_top" xlink:title=" ">
<polygon fill="white" stroke="#666666" points="1000,-1854.63 873,-1854.63 873,-1813.63 1000,-1813.63 1000,-1854.63"/>
<text text-anchor="start" x="881" y="-1842.63" font-family="Helvetica,sans-Serif" font-size="10.00">di::container::TreeMap</text>
<text text-anchor="start" x="881" y="-1831.63" font-family="Helvetica,sans-Serif" font-size="10.00">&lt; di::util::StrongInt,</text>
<text text-anchor="middle" x="936.5" y="-1820.63" font-family="Helvetica,sans-Serif" font-size="10.00"> di::Arc&lt; iris::Task &gt; &gt;</text>
</a>
</g>
</g>
<!-- Node4&#45;&gt;Node7 -->
<g id="edge843_Node000004_Node000007" class="edge">
<title>Node4&#45;&gt;Node7</title>
<g id="a_edge843_Node000004_Node000007"><a xlink:title=" ">
<path fill="none" stroke="#63b8ff" d="M666.22,-1767.45C712.96,-1774.4 771.54,-1784.41 823,-1797.13 841.36,-1801.68 861.06,-1807.73 878.75,-1813.63"/>
<polygon fill="#63b8ff" stroke="#63b8ff" points="666.53,-1763.96 656.13,-1765.97 665.52,-1770.89 666.53,-1763.96"/>
</a>
</g>
</g>
<!-- Node8 -->
<g id="Node000008" class="node">
<title>Node8</title>
<g id="a_Node000008"><a xlink:href="classdi_1_1container_1_1TreeSet.html" target="_top" xlink:title=" ">
<polygon fill="white" stroke="#666666" points="996,-1795.13 877,-1795.13 877,-1765.13 996,-1765.13 996,-1795.13"/>
<text text-anchor="start" x="885" y="-1783.13" font-family="Helvetica,sans-Serif" font-size="10.00">di::container::TreeSet</text>
<text text-anchor="middle" x="936.5" y="-1772.13" font-family="Helvetica,sans-Serif" font-size="10.00">&lt; pm::Package &gt;</text>
</a>
</g>
</g>
<!-- Node4&#45;&gt;Node8 -->
<g id="edge844_Node000004_Node000008" class="edge">
<title>Node4&#45;&gt;Node8</title>
<g id="a_edge844_Node000004_Node000008"><a xlink:title=" ">
<path fill="none" stroke="#63b8ff" d="M666.54,-1761.98C731.85,-1766.39 819.69,-1772.32 876.94,-1776.18"/>
<polygon fill="#63b8ff" stroke="#63b8ff" points="666.48,-1758.46 656.26,-1761.28 666.01,-1765.45 666.48,-1758.46"/>
</a>
</g>
</g>
<!-- Node9 -->
<g id="Node000009" class="node">
<title>Node9</title>
<g id="a_Node000009"><a xlink:href="classdi_1_1container_1_1TreeMap.html" target="_top" xlink:title=" ">
<polygon fill="white" stroke="#666666" points="1014,-1747.13 859,-1747.13 859,-1717.13 1014,-1717.13 1014,-1747.13"/>
<text text-anchor="start" x="867" y="-1735.13" font-family="Helvetica,sans-Serif" font-size="10.00">di::container::TreeMap</text>
<text text-anchor="middle" x="936.5" y="-1724.13" font-family="Helvetica,sans-Serif" font-size="10.00">&lt; Key, Value, Comp, Alloc &gt;</text>
</a>
</g>
</g>
<!-- Node4&#45;&gt;Node9 -->
<g id="edge845_Node000004_Node000009" class="edge">
<title>Node4&#45;&gt;Node9</title>
<g id="a_edge845_Node000004_Node000009"><a xlink:title=" ">
<path fill="none" stroke="#63b8ff" d="M666.27,-1750.31C725.03,-1746.34 802.12,-1741.14 858.75,-1737.32"/>
<polygon fill="#63b8ff" stroke="#63b8ff" points="666.01,-1746.82 656.26,-1750.99 666.48,-1753.8 666.01,-1746.82"/>
</a>
</g>
</g>
<!-- Node10 -->
<g id="Node000010" class="node">
<title>Node10</title>
<g id="a_Node000010"><a xlink:href="classdi_1_1container_1_1TreeMultiMap.html" target="_top" xlink:title=" ">
<polygon fill="white" stroke="#666666" points="1005,-1698.63 868,-1698.63 868,-1657.63 1005,-1657.63 1005,-1698.63"/>
<text text-anchor="start" x="876" y="-1686.63" font-family="Helvetica,sans-Serif" font-size="10.00">di::container::TreeMulti</text>
<text text-anchor="start" x="876" y="-1675.63" font-family="Helvetica,sans-Serif" font-size="10.00">Map&lt; Key, Value, Comp,</text>
<text text-anchor="middle" x="936.5" y="-1664.63" font-family="Helvetica,sans-Serif" font-size="10.00"> Alloc &gt;</text>
</a>
</g>
</g>
<!-- Node4&#45;&gt;Node10 -->
<g id="edge846_Node000004_Node000010" class="edge">
<title>Node4&#45;&gt;Node10</title>
<g id="a_edge846_Node000004_Node000010"><a xlink:title=" ">
<path fill="none" stroke="#63b8ff" d="M666.39,-1753.51C713.55,-1750.18 772.46,-1742.89 823,-1727.13 840.27,-1721.75 842.55,-1715.67 859,-1708.13 866,-1704.93 873.46,-1701.74 880.86,-1698.7"/>
<polygon fill="#63b8ff" stroke="#63b8ff" points="665.95,-1750.03 656.2,-1754.18 666.41,-1757.02 665.95,-1750.03"/>
</a>
</g>
</g>
<!-- Node11 -->
<g id="Node000011" class="node">
<title>Node11</title>
<g id="a_Node000011"><a xlink:href="classdi_1_1container_1_1TreeMultiSet.html" target="_top" xlink:title=" ">
<polygon fill="white" stroke="#666666" points="1009.5,-1639.13 863.5,-1639.13 863.5,-1609.13 1009.5,-1609.13 1009.5,-1639.13"/>
<text text-anchor="start" x="871.5" y="-1627.13" font-family="Helvetica,sans-Serif" font-size="10.00">di::container::TreeMulti</text>
<text text-anchor="middle" x="936.5" y="-1616.13" font-family="Helvetica,sans-Serif" font-size="10.00">Set&lt; Value, Comp, Alloc &gt;</text>
</a>
</g>
</g>
<!-- Node4&#45;&gt;Node11 -->
<g id="edge847_Node000004_Node000011" class="edge">
<title>Node4&#45;&gt;Node11</title>
<g id="a_edge847_Node000004_Node000011"><a xlink:title=" ">
<path fill="none" stroke="#63b8ff" d="M666.41,-1765.58C716.54,-1766.56 778.39,-1759.56 823,-1727.13 853.88,-1704.68 830.48,-1674.51 859,-1649.13 863.38,-1645.23 868.39,-1641.94 873.69,-1639.16"/>
<polygon fill="#63b8ff" stroke="#63b8ff" points="666.32,-1762.08 656.22,-1765.27 666.11,-1769.07 666.32,-1762.08"/>
</a>
</g>
</g>
<!-- Node12 -->
<g id="Node000012" class="node">
<title>Node12</title>
<g id="a_Node000012"><a xlink:href="classdi_1_1container_1_1TreeSet.html" target="_top" xlink:title=" ">
<polygon fill="white" stroke="#666666" points="1002,-1591.13 871,-1591.13 871,-1561.13 1002,-1561.13 1002,-1591.13"/>
<text text-anchor="start" x="879" y="-1579.13" font-family="Helvetica,sans-Serif" font-size="10.00">di::container::TreeSet</text>
<text text-anchor="middle" x="936.5" y="-1568.13" font-family="Helvetica,sans-Serif" font-size="10.00">&lt; Value, Comp, Alloc &gt;</text>
</a>
</g>
</g>
<!-- Node4&#45;&gt;Node12 -->
<g id="edge848_Node000004_Node000012" class="edge">
<title>Node4&#45;&gt;Node12</title>
<g id="a_edge848_Node000004_Node000012"><a xlink:title=" ">
<path fill="none" stroke="#63b8ff" d="M666.11,-1767.96C717.34,-1770.09 780.44,-1763.47 823,-1727.13 867.62,-1689.04 818.1,-1642.19 859,-1600.13 862.49,-1596.54 866.52,-1593.49 870.85,-1590.89"/>
<polygon fill="#63b8ff" stroke="#63b8ff" points="666.21,-1764.46 656.04,-1767.42 665.83,-1771.45 666.21,-1764.46"/>
</a>
</g>
</g>
<!-- Node15 -->
<g id="Node000015" class="node">
<title>Node15</title>
<g id="a_Node000015"><a xlink:href="classdi_1_1container_1_1IntrusiveTreeSet.html" target="_top" xlink:title=" ">
<polygon fill="white" stroke="#666666" points="685.5,-1717.63 472.5,-1717.63 472.5,-1676.63 685.5,-1676.63 685.5,-1717.63"/>
<text text-anchor="start" x="480.5" y="-1705.63" font-family="Helvetica,sans-Serif" font-size="10.00">di::container::Intrusive</text>
<text text-anchor="start" x="480.5" y="-1694.63" font-family="Helvetica,sans-Serif" font-size="10.00">TreeSet&lt; iris::mm::Region,</text>
<text text-anchor="middle" x="579" y="-1683.63" font-family="Helvetica,sans-Serif" font-size="10.00"> iris::mm::AddressSpaceRegionListTag &gt;</text>
</a>
</g>
</g>
<!-- Node14&#45;&gt;Node15 -->
<g id="edge851_Node000014_Node000015" class="edge">
<title>Node14&#45;&gt;Node15</title>
<g id="a_edge851_Node000014_Node000015"><a xlink:title=" ">
<path fill="none" stroke="#63b8ff" d="M200.23,-1036.17C207.53,-1155.27 239.98,-1580.8 335,-1668.13 371.36,-1701.56 424.81,-1710.61 472.33,-1710.52"/>
<polygon fill="#63b8ff" stroke="#63b8ff" points="203.71,-1035.7 199.62,-1025.93 196.72,-1036.12 203.71,-1035.7"/>
</a>
</g>
</g>
<!-- Node16 -->
<g id="Node000016" class="node">
<title>Node16</title>
<g id="a_Node000016"><a xlink:href="classdi_1_1container_1_1IntrusiveTreeSet.html" target="_top" xlink:title=" ">
<polygon fill="white" stroke="#666666" points="698.5,-1658.63 459.5,-1658.63 459.5,-1617.63 698.5,-1617.63 698.5,-1658.63"/>
<text text-anchor="start" x="467.5" y="-1646.63" font-family="Helvetica,sans-Serif" font-size="10.00">di::container::Intrusive</text>
<text text-anchor="start" x="467.5" y="-1635.63" font-family="Helvetica,sans-Serif" font-size="10.00">TreeSet&lt; iris::mm::BackedPhysical</text>
<text text-anchor="middle" x="579" y="-1624.63" font-family="Helvetica,sans-Serif" font-size="10.00">Page, iris::mm::BackedPhysicalPageTreeTag &gt;</text>
</a>
</g>
</g>
<!-- Node14&#45;&gt;Node16 -->
<g id="edge852_Node000014_Node000016" class="edge">
<title>Node14&#45;&gt;Node16</title>
<g id="a_edge852_Node000014_Node000016"><a xlink:title=" ">
<path fill="none" stroke="#63b8ff" d="M200.88,-1035.94C210.18,-1147.88 247.97,-1530.67 335,-1609.13 368.29,-1639.15 415.41,-1649.35 459.31,-1650.97"/>
<polygon fill="#63b8ff" stroke="#63b8ff" points="204.34,-1035.36 200.04,-1025.68 197.37,-1035.93 204.34,-1035.36"/>
</a>
</g>
</g>
<!-- Node17 -->
<g id="Node000017" class="node">
<title>Node17</title>
<g id="a_Node000017"><a xlink:href="classdi_1_1container_1_1OwningRBTree.html" target="_top" xlink:title=" ">
<polygon fill="white" stroke="#666666" points="712,-1599.63 446,-1599.63 446,-1426.63 712,-1426.63 712,-1599.63"/>
<text text-anchor="start" x="454" y="-1587.63" font-family="Helvetica,sans-Serif" font-size="10.00">di::container::OwningRBTree</text>
<text text-anchor="start" x="454" y="-1576.63" font-family="Helvetica,sans-Serif" font-size="10.00">&lt; Tuple&lt; Key, Value &gt;, detail</text>
<text text-anchor="start" x="454" y="-1565.63" font-family="Helvetica,sans-Serif" font-size="10.00">::TreeMapCompAdapter&lt; function</text>
<text text-anchor="start" x="454" y="-1554.63" font-family="Helvetica,sans-Serif" font-size="10.00">::Compare, Key &gt;, detail::TreeMapTag</text>
<text text-anchor="start" x="454" y="-1543.63" font-family="Helvetica,sans-Serif" font-size="10.00">&lt; Key, Value &gt;, DefaultAllocator,</text>
<text text-anchor="start" x="454" y="-1532.63" font-family="Helvetica,sans-Serif" font-size="10.00"> MapInterface&lt; TreeMap&lt; Key, Value,</text>
<text text-anchor="start" x="454" y="-1521.63" font-family="Helvetica,sans-Serif" font-size="10.00"> function::Compare, DefaultAllocator</text>
<text text-anchor="start" x="454" y="-1510.63" font-family="Helvetica,sans-Serif" font-size="10.00"> &gt;, Tuple&lt; Key, Value &gt;, Key, Value,</text>
<text text-anchor="start" x="454" y="-1499.63" font-family="Helvetica,sans-Serif" font-size="10.00"> RBTreeIterator&lt; Tuple&lt; Key, Value &gt;,</text>
<text text-anchor="start" x="454" y="-1488.63" font-family="Helvetica,sans-Serif" font-size="10.00"> detail::TreeMapTag&lt; Key, Value &gt; &gt;, container</text>
<text text-anchor="start" x="454" y="-1477.63" font-family="Helvetica,sans-Serif" font-size="10.00">::ConstIteratorImpl&lt; RBTreeIterator&lt; Tuple&lt;</text>
<text text-anchor="start" x="454" y="-1466.63" font-family="Helvetica,sans-Serif" font-size="10.00"> Key, Value &gt;, detail::TreeMapTag&lt; Key, Value</text>
<text text-anchor="start" x="454" y="-1455.63" font-family="Helvetica,sans-Serif" font-size="10.00"> &gt; &gt; &gt;, detail::RBTreeValidForLookup&lt; Tuple&lt; Key,</text>
<text text-anchor="start" x="454" y="-1444.63" font-family="Helvetica,sans-Serif" font-size="10.00"> Value &gt;, detail::TreeMapCompAdapter&lt; function::</text>
<text text-anchor="middle" x="579" y="-1433.63" font-family="Helvetica,sans-Serif" font-size="10.00">Compare, Key &gt; &gt;::template Type, false &gt;, false &gt;</text>
</a>
</g>
</g>
<!-- Node14&#45;&gt;Node17 -->
<g id="edge853_Node000014_Node000017" class="edge">
<title>Node14&#45;&gt;Node17</title>
<g id="a_edge853_Node000014_Node000017"><a xlink:title=" ">
<path fill="none" stroke="#63b8ff" d="M200.08,-1035.96C205.54,-1111.1 229.67,-1305.7 335,-1417.13 364.68,-1448.53 405.91,-1469.86 445.99,-1484.26"/>
<polygon fill="#63b8ff" stroke="#63b8ff" points="203.56,-1035.51 199.4,-1025.76 196.57,-1035.97 203.56,-1035.51"/>
</a>
</g>
</g>
<!-- Node18 -->
<g id="Node000018" class="node">
<title>Node18</title>
<g id="a_Node000018"><a xlink:href="classdi_1_1container_1_1OwningRBTree.html" target="_top" xlink:title=" ">
<polygon fill="white" stroke="#666666" points="735,-1408.13 423,-1408.13 423,-1246.13 735,-1246.13 735,-1408.13"/>
<text text-anchor="start" x="431" y="-1396.13" font-family="Helvetica,sans-Serif" font-size="10.00">di::container::OwningRBTree</text>
<text text-anchor="start" x="431" y="-1385.13" font-family="Helvetica,sans-Serif" font-size="10.00">&lt; Tuple&lt; Key, Value &gt;, detail</text>
<text text-anchor="start" x="431" y="-1374.13" font-family="Helvetica,sans-Serif" font-size="10.00">::TreeMapCompAdapter&lt; function</text>
<text text-anchor="start" x="431" y="-1363.13" font-family="Helvetica,sans-Serif" font-size="10.00">::Compare, Key &gt;, detail::TreeMapTag</text>
<text text-anchor="start" x="431" y="-1352.13" font-family="Helvetica,sans-Serif" font-size="10.00">&lt; Key, Value &gt;, DefaultAllocator,</text>
<text text-anchor="start" x="431" y="-1341.13" font-family="Helvetica,sans-Serif" font-size="10.00"> MapInterface&lt; TreeMultiMap&lt; Key, Value,</text>
<text text-anchor="start" x="431" y="-1330.13" font-family="Helvetica,sans-Serif" font-size="10.00"> function::Compare, DefaultAllocator &gt;</text>
<text text-anchor="start" x="431" y="-1319.13" font-family="Helvetica,sans-Serif" font-size="10.00">, Tuple&lt; Key, Value &gt;, Key, Value, RBTreeIterator</text>
<text text-anchor="start" x="431" y="-1308.13" font-family="Helvetica,sans-Serif" font-size="10.00">&lt; Tuple&lt; Key, Value &gt;, detail::TreeMapTag&lt; Key,</text>
<text text-anchor="start" x="431" y="-1297.13" font-family="Helvetica,sans-Serif" font-size="10.00"> Value &gt; &gt;, container::ConstIteratorImpl&lt; RBTreeIterator</text>
<text text-anchor="start" x="431" y="-1286.13" font-family="Helvetica,sans-Serif" font-size="10.00">&lt; Tuple&lt; Key, Value &gt;, detail::TreeMapTag&lt; Key, Value</text>
<text text-anchor="start" x="431" y="-1275.13" font-family="Helvetica,sans-Serif" font-size="10.00"> &gt; &gt; &gt;, detail::RBTreeValidForLookup&lt; Tuple&lt; Key, Value</text>
<text text-anchor="start" x="431" y="-1264.13" font-family="Helvetica,sans-Serif" font-size="10.00"> &gt;, detail::TreeMapCompAdapter&lt; function::Compare, Key &gt;</text>
<text text-anchor="middle" x="579" y="-1253.13" font-family="Helvetica,sans-Serif" font-size="10.00"> &gt;::template Type, true &gt;, true &gt;</text>
</a>
</g>
</g>
<!-- Node14&#45;&gt;Node18 -->
<g id="edge854_Node000014_Node000018" class="edge">
<title>Node14&#45;&gt;Node18</title>
<g id="a_edge854_Node000014_Node000018"><a xlink:title=" ">
<path fill="none" stroke="#63b8ff" d="M208.65,-1035.34C226.59,-1084.38 268.42,-1181.41 335,-1237.13 360.53,-1258.5 391.6,-1275.03 422.89,-1287.75"/>
<polygon fill="#63b8ff" stroke="#63b8ff" points="211.84,-1033.88 205.18,-1025.64 205.25,-1036.24 211.84,-1033.88"/>
</a>
</g>
</g>
<!-- Node19 -->
<g id="Node000019" class="node">
<title>Node19</title>
<g id="a_Node000019"><a xlink:href="classdi_1_1container_1_1OwningRBTree.html" target="_top" xlink:title=" ">
<polygon fill="white" stroke="#666666" points="699.5,-1228.13 458.5,-1228.13 458.5,-1088.13 699.5,-1088.13 699.5,-1228.13"/>
<text text-anchor="start" x="466.5" y="-1216.13" font-family="Helvetica,sans-Serif" font-size="10.00">di::container::OwningRBTree</text>
<text text-anchor="start" x="466.5" y="-1205.13" font-family="Helvetica,sans-Serif" font-size="10.00">&lt; Value, function::Compare,</text>
<text text-anchor="start" x="466.5" y="-1194.13" font-family="Helvetica,sans-Serif" font-size="10.00"> detail::TreeSetTag&lt; Value</text>
<text text-anchor="start" x="466.5" y="-1183.13" font-family="Helvetica,sans-Serif" font-size="10.00"> &gt;, DefaultAllocator, SetInterface</text>
<text text-anchor="start" x="466.5" y="-1172.13" font-family="Helvetica,sans-Serif" font-size="10.00">&lt; TreeMultiSet&lt; Value, function</text>
<text text-anchor="start" x="466.5" y="-1161.13" font-family="Helvetica,sans-Serif" font-size="10.00">::Compare, DefaultAllocator &gt;, Value,</text>
<text text-anchor="start" x="466.5" y="-1150.13" font-family="Helvetica,sans-Serif" font-size="10.00"> RBTreeIterator&lt; Value, detail::TreeSetTag</text>
<text text-anchor="start" x="466.5" y="-1139.13" font-family="Helvetica,sans-Serif" font-size="10.00">&lt; Value &gt; &gt;, container::ConstIteratorImpl</text>
<text text-anchor="start" x="466.5" y="-1128.13" font-family="Helvetica,sans-Serif" font-size="10.00">&lt; RBTreeIterator&lt; Value, detail::TreeSetTag</text>
<text text-anchor="start" x="466.5" y="-1117.13" font-family="Helvetica,sans-Serif" font-size="10.00">&lt; Value &gt; &gt; &gt;, detail::RBTreeValidForLookup</text>
<text text-anchor="start" x="466.5" y="-1106.13" font-family="Helvetica,sans-Serif" font-size="10.00">&lt; Value, function::Compare &gt;::template Type,</text>
<text text-anchor="middle" x="579" y="-1095.13" font-family="Helvetica,sans-Serif" font-size="10.00"> true &gt;, true &gt;</text>
</a>
</g>
</g>
<!-- Node14&#45;&gt;Node19 -->
<g id="edge855_Node000014_Node000019" class="edge">
<title>Node14&#45;&gt;Node19</title>
<g id="a_edge855_Node000014_Node000019"><a xlink:title=" ">
<path fill="none" stroke="#63b8ff" d="M241.99,-1030.89C268.34,-1045.86 302.96,-1064.41 335,-1078.13 374.4,-1095.01 418.63,-1110.52 458.44,-1123.31"/>
<polygon fill="#63b8ff" stroke="#63b8ff" points="243.45,-1027.69 233.03,-1025.75 239.97,-1033.76 243.45,-1027.69"/>
</a>
</g>
</g>
<!-- Node20 -->
<g id="Node000020" class="node">
<title>Node20</title>
<g id="a_Node000020"><a xlink:href="classdi_1_1container_1_1OwningRBTree.html" target="_top" xlink:title=" ">
<polygon fill="white" stroke="#666666" points="711,-1069.63 447,-1069.63 447,-940.63 711,-940.63 711,-1069.63"/>
<text text-anchor="start" x="455" y="-1057.63" font-family="Helvetica,sans-Serif" font-size="10.00">di::container::OwningRBTree</text>
<text text-anchor="start" x="455" y="-1046.63" font-family="Helvetica,sans-Serif" font-size="10.00">&lt; Value, function::Compare,</text>
<text text-anchor="start" x="455" y="-1035.63" font-family="Helvetica,sans-Serif" font-size="10.00"> detail::TreeSetTag&lt; Value</text>
<text text-anchor="start" x="455" y="-1024.63" font-family="Helvetica,sans-Serif" font-size="10.00"> &gt;, DefaultAllocator, SetInterface</text>
<text text-anchor="start" x="455" y="-1013.63" font-family="Helvetica,sans-Serif" font-size="10.00">&lt; TreeSet&lt; Value, function::Compare,</text>
<text text-anchor="start" x="455" y="-1002.63" font-family="Helvetica,sans-Serif" font-size="10.00"> DefaultAllocator &gt;, Value, RBTreeIterator</text>
<text text-anchor="start" x="455" y="-991.63" font-family="Helvetica,sans-Serif" font-size="10.00">&lt; Value, detail::TreeSetTag&lt; Value &gt; &gt;,</text>
<text text-anchor="start" x="455" y="-980.63" font-family="Helvetica,sans-Serif" font-size="10.00"> container::ConstIteratorImpl&lt; RBTreeIterator</text>
<text text-anchor="start" x="455" y="-969.63" font-family="Helvetica,sans-Serif" font-size="10.00">&lt; Value, detail::TreeSetTag&lt; Value &gt; &gt; &gt;, detail</text>
<text text-anchor="start" x="455" y="-958.63" font-family="Helvetica,sans-Serif" font-size="10.00">::RBTreeValidForLookup&lt; Value, function::Compare</text>
<text text-anchor="middle" x="579" y="-947.63" font-family="Helvetica,sans-Serif" font-size="10.00"> &gt;::template Type, false &gt;, false &gt;</text>
</a>
</g>
</g>
<!-- Node14&#45;&gt;Node20 -->
<g id="edge856_Node000014_Node000020" class="edge">
<title>Node14&#45;&gt;Node20</title>
<g id="a_edge856_Node000014_Node000020"><a xlink:title=" ">
<path fill="none" stroke="#63b8ff" d="M290.07,-1005.13C337.03,-1005.13 395.08,-1005.13 446.72,-1005.13"/>
<polygon fill="#63b8ff" stroke="#63b8ff" points="289.91,-1001.63 279.91,-1005.13 289.91,-1008.63 289.91,-1001.63"/>
</a>
</g>
</g>
<!-- Node21 -->
<g id="Node000021" class="node">
<title>Node21</title>
<g id="a_Node000021"><a xlink:href="classdi_1_1container_1_1OwningRBTree.html" target="_top" xlink:title=" ">
<polygon fill="white" stroke="#666666" points="741,-922.13 417,-922.13 417,-738.13 741,-738.13 741,-922.13"/>
<text text-anchor="start" x="425" y="-910.13" font-family="Helvetica,sans-Serif" font-size="10.00">di::container::OwningRBTree</text>
<text text-anchor="start" x="425" y="-899.13" font-family="Helvetica,sans-Serif" font-size="10.00">&lt; Tuple&lt; u32, iris::Processor</text>
<text text-anchor="start" x="425" y="-888.13" font-family="Helvetica,sans-Serif" font-size="10.00"> * &gt;, detail::TreeMapCompAdapter</text>
<text text-anchor="start" x="425" y="-877.13" font-family="Helvetica,sans-Serif" font-size="10.00">&lt; function::Compare, u32 &gt;, detail</text>
<text text-anchor="start" x="425" y="-866.13" font-family="Helvetica,sans-Serif" font-size="10.00">::TreeMapTag&lt; u32, iris::Processor</text>
<text text-anchor="start" x="425" y="-855.13" font-family="Helvetica,sans-Serif" font-size="10.00"> * &gt;, DefaultAllocator, MapInterface</text>
<text text-anchor="start" x="425" y="-844.13" font-family="Helvetica,sans-Serif" font-size="10.00">&lt; TreeMap&lt; u32, iris::Processor *, function</text>
<text text-anchor="start" x="425" y="-833.13" font-family="Helvetica,sans-Serif" font-size="10.00">::Compare, DefaultAllocator &gt;, Tuple&lt; u32,</text>
<text text-anchor="start" x="425" y="-822.13" font-family="Helvetica,sans-Serif" font-size="10.00"> iris::Processor * &gt;, u32, iris::Processor</text>
<text text-anchor="start" x="425" y="-811.13" font-family="Helvetica,sans-Serif" font-size="10.00"> *, RBTreeIterator&lt; Tuple&lt; u32, iris::Processor</text>
<text text-anchor="start" x="425" y="-800.13" font-family="Helvetica,sans-Serif" font-size="10.00"> * &gt;, detail::TreeMapTag&lt; u32, iris::Processor</text>
<text text-anchor="start" x="425" y="-789.13" font-family="Helvetica,sans-Serif" font-size="10.00"> * &gt; &gt;, container::ConstIteratorImpl&lt; RBTreeIterator</text>
<text text-anchor="start" x="425" y="-778.13" font-family="Helvetica,sans-Serif" font-size="10.00">&lt; Tuple&lt; u32, iris::Processor * &gt;, detail::TreeMapTag</text>
<text text-anchor="start" x="425" y="-767.13" font-family="Helvetica,sans-Serif" font-size="10.00">&lt; u32, iris::Processor * &gt; &gt; &gt;, detail::RBTreeValidForLookup</text>
<text text-anchor="start" x="425" y="-756.13" font-family="Helvetica,sans-Serif" font-size="10.00">&lt; Tuple&lt; u32, iris::Processor * &gt;, detail::TreeMapCompAdapter</text>
<text text-anchor="middle" x="579" y="-745.13" font-family="Helvetica,sans-Serif" font-size="10.00">&lt; function::Compare, u32 &gt; &gt;::template Type, false &gt;, false &gt;</text>
</a>
</g>
</g>
<!-- Node14&#45;&gt;Node21 -->
<g id="edge857_Node000014_Node000021" class="edge">
<title>Node14&#45;&gt;Node21</title>
<g id="a_edge857_Node000014_Node000021"><a xlink:title=" ">
<path fill="none" stroke="#63b8ff" d="M243.17,-979.41C269.54,-964.6 303.77,-946.04 335,-931.13 361.18,-918.64 389.33,-906.13 416.85,-894.38"/>
<polygon fill="#63b8ff" stroke="#63b8ff" points="241.18,-976.51 234.19,-984.48 244.62,-982.61 241.18,-976.51"/>
</a>
</g>
</g>
<!-- Node22 -->
<g id="Node000022" class="node">
<title>Node22</title>
<g id="a_Node000022"><a xlink:href="classdi_1_1container_1_1OwningRBTree.html" target="_top" xlink:title=" ">
<polygon fill="white" stroke="#666666" points="823,-720.13 335,-720.13 335,-514.13 823,-514.13 823,-720.13"/>
<text text-anchor="start" x="343" y="-708.13" font-family="Helvetica,sans-Serif" font-size="10.00">di::container::OwningRBTree</text>
<text text-anchor="start" x="343" y="-697.13" font-family="Helvetica,sans-Serif" font-size="10.00">&lt; Tuple&lt; di::TransparentString,</text>
<text text-anchor="start" x="343" y="-686.13" font-family="Helvetica,sans-Serif" font-size="10.00"> di::Arc&lt; iris::Inode &gt; &gt;, detail</text>
<text text-anchor="start" x="343" y="-675.13" font-family="Helvetica,sans-Serif" font-size="10.00">::TreeMapCompAdapter&lt; function::</text>
<text text-anchor="start" x="343" y="-664.13" font-family="Helvetica,sans-Serif" font-size="10.00">Compare, di::TransparentString &gt;,</text>
<text text-anchor="start" x="343" y="-653.13" font-family="Helvetica,sans-Serif" font-size="10.00"> detail::TreeMapTag&lt; di::TransparentString,</text>
<text text-anchor="start" x="343" y="-642.13" font-family="Helvetica,sans-Serif" font-size="10.00"> di::Arc&lt; iris::Inode &gt; &gt;, DefaultAllocator,</text>
<text text-anchor="start" x="343" y="-631.13" font-family="Helvetica,sans-Serif" font-size="10.00"> MapInterface&lt; TreeMap&lt; di::TransparentString,</text>
<text text-anchor="start" x="343" y="-620.13" font-family="Helvetica,sans-Serif" font-size="10.00"> di::Arc&lt; iris::Inode &gt;, function::Compare, DefaultAllocator</text>
<text text-anchor="start" x="343" y="-609.13" font-family="Helvetica,sans-Serif" font-size="10.00"> &gt;, Tuple&lt; di::TransparentString, di::Arc&lt; iris::Inode</text>
<text text-anchor="start" x="343" y="-598.13" font-family="Helvetica,sans-Serif" font-size="10.00"> &gt; &gt;, di::TransparentString, di::Arc&lt; iris::Inode &gt;, RBTreeIterator</text>
<text text-anchor="start" x="343" y="-587.13" font-family="Helvetica,sans-Serif" font-size="10.00">&lt; Tuple&lt; di::TransparentString, di::Arc&lt; iris::Inode &gt; &gt;, detail</text>
<text text-anchor="start" x="343" y="-576.13" font-family="Helvetica,sans-Serif" font-size="10.00">::TreeMapTag&lt; di::TransparentString, di::Arc&lt; iris::Inode &gt; &gt; &gt;,</text>
<text text-anchor="start" x="343" y="-565.13" font-family="Helvetica,sans-Serif" font-size="10.00"> container::ConstIteratorImpl&lt; RBTreeIterator&lt; Tuple&lt; di::TransparentString,</text>
<text text-anchor="start" x="343" y="-554.13" font-family="Helvetica,sans-Serif" font-size="10.00"> di::Arc&lt; iris::Inode &gt; &gt;, detail::TreeMapTag&lt; di::TransparentString, di</text>
<text text-anchor="start" x="343" y="-543.13" font-family="Helvetica,sans-Serif" font-size="10.00">::Arc&lt; iris::Inode &gt; &gt; &gt; &gt;, detail::RBTreeValidForLookup&lt; Tuple&lt; di::TransparentString,</text>
<text text-anchor="start" x="343" y="-532.13" font-family="Helvetica,sans-Serif" font-size="10.00"> di::Arc&lt; iris::Inode &gt; &gt;, detail::TreeMapCompAdapter&lt; function::Compare, di::TransparentString</text>
<text text-anchor="middle" x="579" y="-521.13" font-family="Helvetica,sans-Serif" font-size="10.00"> &gt; &gt;::template Type, false &gt;, false &gt;</text>
</a>
</g>
</g>
<!-- Node14&#45;&gt;Node22 -->
<g id="edge858_Node000014_Node000022" class="edge">
<title>Node14&#45;&gt;Node22</title>
<g id="a_edge858_Node000014_Node000022"><a xlink:title=" ">
<path fill="none" stroke="#63b8ff" d="M206.35,-974.31C221.98,-918.57 261.93,-800.23 335,-729.13 338.08,-726.14 341.25,-723.21 344.51,-720.36"/>
<polygon fill="#63b8ff" stroke="#63b8ff" points="202.89,-973.71 203.63,-984.27 209.64,-975.55 202.89,-973.71"/>
</a>
</g>
</g>
<!-- Node23 -->
<g id="Node000023" class="node">
<title>Node23</title>
<g id="a_Node000023"><a xlink:href="classdi_1_1container_1_1OwningRBTree.html" target="_top" xlink:title=" ">
<polygon fill="white" stroke="#666666" points="746.5,-496.13 411.5,-496.13 411.5,-268.13 746.5,-268.13 746.5,-496.13"/>
<text text-anchor="start" x="419.5" y="-484.13" font-family="Helvetica,sans-Serif" font-size="10.00">di::container::OwningRBTree</text>
<text text-anchor="start" x="419.5" y="-473.13" font-family="Helvetica,sans-Serif" font-size="10.00">&lt; Tuple&lt; di::util::StrongInt,</text>
<text text-anchor="start" x="419.5" y="-462.13" font-family="Helvetica,sans-Serif" font-size="10.00"> di::Arc&lt; iris::Task &gt; &gt;, detail</text>
<text text-anchor="start" x="419.5" y="-451.13" font-family="Helvetica,sans-Serif" font-size="10.00">::TreeMapCompAdapter&lt; function</text>
<text text-anchor="start" x="419.5" y="-440.13" font-family="Helvetica,sans-Serif" font-size="10.00">::Compare, di::util::StrongInt &gt;</text>
<text text-anchor="start" x="419.5" y="-429.13" font-family="Helvetica,sans-Serif" font-size="10.00">, detail::TreeMapTag&lt; di::util::StrongInt,</text>
<text text-anchor="start" x="419.5" y="-418.13" font-family="Helvetica,sans-Serif" font-size="10.00"> di::Arc&lt; iris::Task &gt; &gt;, DefaultAllocator,</text>
<text text-anchor="start" x="419.5" y="-407.13" font-family="Helvetica,sans-Serif" font-size="10.00"> MapInterface&lt; TreeMap&lt; di::util::StrongInt,</text>
<text text-anchor="start" x="419.5" y="-396.13" font-family="Helvetica,sans-Serif" font-size="10.00"> di::Arc&lt; iris::Task &gt;, function::Compare,</text>
<text text-anchor="start" x="419.5" y="-385.13" font-family="Helvetica,sans-Serif" font-size="10.00"> DefaultAllocator &gt;, Tuple&lt; di::util::StrongInt,</text>
<text text-anchor="start" x="419.5" y="-374.13" font-family="Helvetica,sans-Serif" font-size="10.00"> di::Arc&lt; iris::Task &gt; &gt;, di::util::StrongInt,</text>
<text text-anchor="start" x="419.5" y="-363.13" font-family="Helvetica,sans-Serif" font-size="10.00"> di::Arc&lt; iris::Task &gt;, RBTreeIterator&lt; Tuple&lt; di</text>
<text text-anchor="start" x="419.5" y="-352.13" font-family="Helvetica,sans-Serif" font-size="10.00">::util::StrongInt, di::Arc&lt; iris::Task &gt; &gt;, detail</text>
<text text-anchor="start" x="419.5" y="-341.13" font-family="Helvetica,sans-Serif" font-size="10.00">::TreeMapTag&lt; di::util::StrongInt, di::Arc&lt; iris::Task</text>
<text text-anchor="start" x="419.5" y="-330.13" font-family="Helvetica,sans-Serif" font-size="10.00"> &gt; &gt; &gt;, container::ConstIteratorImpl&lt; RBTreeIterator&lt;</text>
<text text-anchor="start" x="419.5" y="-319.13" font-family="Helvetica,sans-Serif" font-size="10.00"> Tuple&lt; di::util::StrongInt, di::Arc&lt; iris::Task &gt; &gt;, detail</text>
<text text-anchor="start" x="419.5" y="-308.13" font-family="Helvetica,sans-Serif" font-size="10.00">::TreeMapTag&lt; di::util::StrongInt, di::Arc&lt; iris::Task &gt; &gt;</text>
<text text-anchor="start" x="419.5" y="-297.13" font-family="Helvetica,sans-Serif" font-size="10.00"> &gt; &gt;, detail::RBTreeValidForLookup&lt; Tuple&lt; di::util::StrongInt,</text>
<text text-anchor="start" x="419.5" y="-286.13" font-family="Helvetica,sans-Serif" font-size="10.00"> di::Arc&lt; iris::Task &gt; &gt;, detail::TreeMapCompAdapter&lt; function</text>
<text text-anchor="middle" x="579" y="-275.13" font-family="Helvetica,sans-Serif" font-size="10.00">::Compare, di::util::StrongInt &gt; &gt;::template Type, false &gt;, false &gt;</text>
</a>
</g>
</g>
<!-- Node14&#45;&gt;Node23 -->
<g id="edge859_Node000014_Node000023" class="edge">
<title>Node14&#45;&gt;Node23</title>
<g id="a_edge859_Node000014_Node000023"><a xlink:title=" ">
<path fill="none" stroke="#63b8ff" d="M198.62,-974.15C200.54,-889.34 216.74,-650.07 335,-505.13 355.63,-479.86 382.79,-459.27 411.46,-442.68"/>
<polygon fill="#63b8ff" stroke="#63b8ff" points="195.12,-974.33 198.44,-984.39 202.12,-974.45 195.12,-974.33"/>
</a>
</g>
</g>
<!-- Node24 -->
<g id="Node000024" class="node">
<title>Node24</title>
<g id="a_Node000024"><a xlink:href="classdi_1_1container_1_1OwningRBTree.html" target="_top" xlink:title=" ">
<polygon fill="white" stroke="#666666" points="718.5,-250.13 439.5,-250.13 439.5,-110.13 718.5,-110.13 718.5,-250.13"/>
<text text-anchor="start" x="447.5" y="-238.13" font-family="Helvetica,sans-Serif" font-size="10.00">di::container::OwningRBTree</text>
<text text-anchor="start" x="447.5" y="-227.13" font-family="Helvetica,sans-Serif" font-size="10.00">&lt; pm::Package, function</text>
<text text-anchor="start" x="447.5" y="-216.13" font-family="Helvetica,sans-Serif" font-size="10.00">::Compare, detail::TreeSetTag</text>
<text text-anchor="start" x="447.5" y="-205.13" font-family="Helvetica,sans-Serif" font-size="10.00">&lt; pm::Package &gt;, DefaultAllocator,</text>
<text text-anchor="start" x="447.5" y="-194.13" font-family="Helvetica,sans-Serif" font-size="10.00"> SetInterface&lt; TreeSet&lt; pm::Package,</text>
<text text-anchor="start" x="447.5" y="-183.13" font-family="Helvetica,sans-Serif" font-size="10.00"> function::Compare, DefaultAllocator</text>
<text text-anchor="start" x="447.5" y="-172.13" font-family="Helvetica,sans-Serif" font-size="10.00"> &gt;, pm::Package, RBTreeIterator&lt; pm::</text>
<text text-anchor="start" x="447.5" y="-161.13" font-family="Helvetica,sans-Serif" font-size="10.00">Package, detail::TreeSetTag&lt; pm::Package</text>
<text text-anchor="start" x="447.5" y="-150.13" font-family="Helvetica,sans-Serif" font-size="10.00"> &gt; &gt;, container::ConstIteratorImpl&lt; RBTreeIterator</text>
<text text-anchor="start" x="447.5" y="-139.13" font-family="Helvetica,sans-Serif" font-size="10.00">&lt; pm::Package, detail::TreeSetTag&lt; pm::Package</text>
<text text-anchor="start" x="447.5" y="-128.13" font-family="Helvetica,sans-Serif" font-size="10.00"> &gt; &gt; &gt;, detail::RBTreeValidForLookup&lt; pm::Package,</text>
<text text-anchor="middle" x="579" y="-117.13" font-family="Helvetica,sans-Serif" font-size="10.00"> function::Compare &gt;::template Type, false &gt;, false &gt;</text>
</a>
</g>
</g>
<!-- Node14&#45;&gt;Node24 -->
<g id="edge860_Node000014_Node000024" class="edge">
<title>Node14&#45;&gt;Node24</title>
<g id="a_edge860_Node000014_Node000024"><a xlink:title=" ">
<path fill="none" stroke="#63b8ff" d="M200.03,-974.19C206.92,-847.38 238.97,-368.91 335,-259.13 361.8,-228.5 400.6,-209.68 439.36,-198.13"/>
<polygon fill="#63b8ff" stroke="#63b8ff" points="196.53,-974.2 199.49,-984.37 203.52,-974.57 196.53,-974.2"/>
</a>
</g>
</g>
<!-- Node25 -->
<g id="Node000025" class="node">
<title>Node25</title>
<g id="a_Node000025"><a xlink:href="classdi_1_1container_1_1IntrusiveTreeMultiSet.html" target="_top" xlink:title=" ">
<polygon fill="white" stroke="#666666" points="642,-91.63 516,-91.63 516,-50.63 642,-50.63 642,-91.63"/>
<text text-anchor="start" x="524" y="-79.63" font-family="Helvetica,sans-Serif" font-size="10.00">di::container::Intrusive</text>
<text text-anchor="start" x="524" y="-68.63" font-family="Helvetica,sans-Serif" font-size="10.00">TreeMultiSet&lt; T, Tag,</text>
<text text-anchor="middle" x="579" y="-57.63" font-family="Helvetica,sans-Serif" font-size="10.00"> Comp &gt;</text>
</a>
</g>
</g>
<!-- Node14&#45;&gt;Node25 -->
<g id="edge861_Node000014_Node000025" class="edge">
<title>Node14&#45;&gt;Node25</title>
<g id="a_edge861_Node000014_Node000025"><a xlink:title=" ">
<path fill="none" stroke="#63b8ff" d="M198.39,-974.32C198.56,-830.34 206.96,-225.76 335,-101.13 382.06,-55.33 460.83,-53.88 515.89,-59.94"/>
<polygon fill="#63b8ff" stroke="#63b8ff" points="194.89,-974.61 198.39,-984.61 201.89,-974.61 194.89,-974.61"/>
</a>
</g>
</g>
<!-- Node26 -->
<g id="Node000026" class="node">
<title>Node26</title>
<g id="a_Node000026"><a xlink:href="classdi_1_1container_1_1IntrusiveTreeSet.html" target="_top" xlink:title=" ">
<polygon fill="white" stroke="#666666" points="648,-32.13 510,-32.13 510,-2.13 648,-2.13 648,-32.13"/>
<text text-anchor="start" x="518" y="-20.13" font-family="Helvetica,sans-Serif" font-size="10.00">di::container::Intrusive</text>
<text text-anchor="middle" x="579" y="-9.13" font-family="Helvetica,sans-Serif" font-size="10.00">TreeSet&lt; T, Tag, Comp &gt;</text>
</a>
</g>
</g>
<!-- Node14&#45;&gt;Node26 -->
<g id="edge862_Node000014_Node000026" class="edge">
<title>Node14&#45;&gt;Node26</title>
<g id="a_edge862_Node000014_Node000026"><a xlink:title=" ">
<path fill="none" stroke="#63b8ff" d="M198.01,-974.15C196.3,-823.94 197.06,-173.37 335,-41.13 380.52,2.5 455.18,3.53 509.75,-3.26"/>
<polygon fill="#63b8ff" stroke="#63b8ff" points="194.51,-974.52 198.14,-984.47 201.51,-974.43 194.51,-974.52"/>
</a>
</g>
</g>
</g>
</svg>
