<?xml version="1.0" encoding="UTF-8" standalone="no"?>
<!DOCTYPE svg PUBLIC "-//W3C//DTD SVG 1.1//EN"
 "http://www.w3.org/Graphics/SVG/1.1/DTD/svg11.dtd">
<!-- Generated by graphviz version 2.43.0 (0)
 -->
<!-- Title: Graphical Class Hierarchy Pages: 1 -->
<svg width="337pt" height="172pt"
 viewBox="0.00 0.00 337.00 172.00" xmlns="http://www.w3.org/2000/svg" xmlns:xlink="http://www.w3.org/1999/xlink">
<g id="graph0" class="graph" transform="scale(1 1) rotate(0) translate(4 168)">
<title>Graphical Class Hierarchy</title>
<!-- Node0 -->
<g id="Node000000" class="node">
<title>Node0</title>
<g id="a_Node000000"><a xlink:href="structiris_1_1acpi_1_1InterruptControllerStructureHeader.html" target="_top" xlink:title="Interrupt Controller Structure Header.">
<polygon fill="white" stroke="#666666" points="154,-99 0,-99 0,-69 154,-69 154,-99"/>
<text text-anchor="start" x="8" y="-87" font-family="Helvetica,sans-Serif" font-size="10.00">iris::acpi::InterruptController</text>
<text text-anchor="middle" x="77" y="-76" font-family="Helvetica,sans-Serif" font-size="10.00">StructureHeader</text>
</a>
</g>
</g>
<!-- Node1 -->
<g id="Node000001" class="node">
<title>Node1</title>
<g id="a_Node000001"><a xlink:href="structiris_1_1acpi_1_1InterruptSourceOverrideStructure.html" target="_top" xlink:title="Interrupt Source Override Structure.">
<polygon fill="white" stroke="#666666" points="329,-164 190,-164 190,-134 329,-134 329,-164"/>
<text text-anchor="start" x="198" y="-152" font-family="Helvetica,sans-Serif" font-size="10.00">iris::acpi::InterruptSource</text>
<text text-anchor="middle" x="259.5" y="-141" font-family="Helvetica,sans-Serif" font-size="10.00">OverrideStructure</text>
</a>
</g>
</g>
<!-- Node0&#45;&gt;Node1 -->
<g id="edge863_Node000000_Node000001" class="edge">
<title>Node0&#45;&gt;Node1</title>
<g id="a_edge863_Node000000_Node000001"><a xlink:title=" ">
<path fill="none" stroke="#63b8ff" d="M128.16,-102.53C147.47,-109.62 169.74,-117.74 190,-125 198.19,-127.93 206.93,-131.03 215.35,-133.98"/>
<polygon fill="#63b8ff" stroke="#63b8ff" points="129.24,-99.2 118.65,-99.03 126.83,-105.77 129.24,-99.2"/>
</a>
</g>
</g>
<!-- Node2 -->
<g id="Node000002" class="node">
<title>Node2</title>
<g id="a_Node000002"><a xlink:href="structiris_1_1acpi_1_1IoApicStructure.html" target="_top" xlink:title="I/O APIC Structure.">
<polygon fill="white" stroke="#666666" points="328.5,-115.5 190.5,-115.5 190.5,-96.5 328.5,-96.5 328.5,-115.5"/>
<text text-anchor="middle" x="259.5" y="-103.5" font-family="Helvetica,sans-Serif" font-size="10.00">iris::acpi::IoApicStructure</text>
</a>
</g>
</g>
<!-- Node0&#45;&gt;Node2 -->
<g id="edge864_Node000000_Node000002" class="edge">
<title>Node0&#45;&gt;Node2</title>
<g id="a_edge864_Node000000_Node000002"><a xlink:title=" ">
<path fill="none" stroke="#63b8ff" d="M163.96,-94.48C172.8,-95.56 181.7,-96.64 190.31,-97.69"/>
<polygon fill="#63b8ff" stroke="#63b8ff" points="164.38,-91 154.03,-93.27 163.53,-97.95 164.38,-91"/>
</a>
</g>
</g>
<!-- Node3 -->
<g id="Node000003" class="node">
<title>Node3</title>
<g id="a_Node000003"><a xlink:href="structiris_1_1acpi_1_1LocalApicNmiStructure.html" target="_top" xlink:title="Local APIC NMI Structure.">
<polygon fill="white" stroke="#666666" points="325,-78 194,-78 194,-48 325,-48 325,-78"/>
<text text-anchor="start" x="202" y="-66" font-family="Helvetica,sans-Serif" font-size="10.00">iris::acpi::LocalApicNmi</text>
<text text-anchor="middle" x="259.5" y="-55" font-family="Helvetica,sans-Serif" font-size="10.00">Structure</text>
</a>
</g>
</g>
<!-- Node0&#45;&gt;Node3 -->
<g id="edge865_Node000000_Node000003" class="edge">
<title>Node0&#45;&gt;Node3</title>
<g id="a_edge865_Node000000_Node000003"><a xlink:title=" ">
<path fill="none" stroke="#63b8ff" d="M164.06,-73.99C174.13,-72.82 184.28,-71.64 193.99,-70.51"/>
<polygon fill="#63b8ff" stroke="#63b8ff" points="163.55,-70.52 154.03,-75.15 164.36,-77.48 163.55,-70.52"/>
</a>
</g>
</g>
<!-- Node4 -->
<g id="Node000004" class="node">
<title>Node4</title>
<g id="a_Node000004"><a xlink:href="structiris_1_1acpi_1_1ProcessorLocalApicStructure.html" target="_top" xlink:title="Processor Local APIC Structure.">
<polygon fill="white" stroke="#666666" points="328,-30 191,-30 191,0 328,0 328,-30"/>
<text text-anchor="start" x="199" y="-18" font-family="Helvetica,sans-Serif" font-size="10.00">iris::acpi::ProcessorLocal</text>
<text text-anchor="middle" x="259.5" y="-7" font-family="Helvetica,sans-Serif" font-size="10.00">ApicStructure</text>
</a>
</g>
</g>
<!-- Node0&#45;&gt;Node4 -->
<g id="edge866_Node000000_Node000004" class="edge">
<title>Node0&#45;&gt;Node4</title>
<g id="a_edge866_Node000000_Node000004"><a xlink:title=" ">
<path fill="none" stroke="#63b8ff" d="M123.47,-65.19C143.75,-56.94 167.99,-47.27 190,-39 197.9,-36.03 206.36,-32.97 214.54,-30.07"/>
<polygon fill="#63b8ff" stroke="#63b8ff" points="122.09,-61.97 114.16,-68.99 124.74,-68.45 122.09,-61.97"/>
</a>
</g>
</g>
</g>
</svg>
