<?xml version="1.0" encoding="UTF-8" standalone="no"?>
<!DOCTYPE svg PUBLIC "-//W3C//DTD SVG 1.1//EN"
 "http://www.w3.org/Graphics/SVG/1.1/DTD/svg11.dtd">
<!-- Generated by graphviz version 2.43.0 (0)
 -->
<!-- Title: Graphical Class Hierarchy Pages: 1 -->
<svg width="362pt" height="397pt"
 viewBox="0.00 0.00 362.00 397.00" xmlns="http://www.w3.org/2000/svg" xmlns:xlink="http://www.w3.org/1999/xlink">
<g id="graph0" class="graph" transform="scale(1 1) rotate(0) translate(4 393)">
<title>Graphical Class Hierarchy</title>
<!-- Node0 -->
<g id="Node000000" class="node">
<title>Node0</title>
<g id="a_Node000000"><a xlink:href="structdi_1_1execution_1_1ForwardingQuery.html" target="_top" xlink:title=" ">
<polygon fill="white" stroke="#666666" points="139,-221 0,-221 0,-191 139,-191 139,-221"/>
<text text-anchor="start" x="8" y="-209" font-family="Helvetica,sans-Serif" font-size="10.00">di::execution::Forwarding</text>
<text text-anchor="middle" x="69.5" y="-198" font-family="Helvetica,sans-Serif" font-size="10.00">Query</text>
</a>
</g>
</g>
<!-- Node1 -->
<g id="Node000001" class="node">
<title>Node1</title>
<g id="a_Node000001"><a xlink:href="structdi_1_1execution_1_1GetCompletionScheduler.html" target="_top" xlink:title=" ">
<polygon fill="white" stroke="#666666" points="343.5,-389 185.5,-389 185.5,-359 343.5,-359 343.5,-389"/>
<text text-anchor="start" x="193.5" y="-377" font-family="Helvetica,sans-Serif" font-size="10.00">di::execution::GetCompletion</text>
<text text-anchor="middle" x="264.5" y="-366" font-family="Helvetica,sans-Serif" font-size="10.00">Scheduler&lt; CPO &gt;</text>
</a>
</g>
</g>
<!-- Node0&#45;&gt;Node1 -->
<g id="edge267_Node000000_Node000001" class="edge">
<title>Node0&#45;&gt;Node1</title>
<g id="a_edge267_Node000000_Node000001"><a xlink:title=" ">
<path fill="none" stroke="#63b8ff" d="M81.68,-230.46C97.71,-262.76 130.3,-319.16 175,-350 179.98,-353.44 185.43,-356.38 191.1,-358.9"/>
<polygon fill="#63b8ff" stroke="#63b8ff" points="84.74,-228.74 77.24,-221.26 78.43,-231.79 84.74,-228.74"/>
</a>
</g>
</g>
<!-- Node2 -->
<g id="Node000002" class="node">
<title>Node2</title>
<g id="a_Node000002"><a xlink:href="structdi_1_1execution_1_1detail_1_1GetAllocatorFunction.html" target="_top" xlink:title=" ">
<polygon fill="white" stroke="#666666" points="327,-341 202,-341 202,-311 327,-311 327,-341"/>
<text text-anchor="start" x="210" y="-329" font-family="Helvetica,sans-Serif" font-size="10.00">di::execution::detail</text>
<text text-anchor="middle" x="264.5" y="-318" font-family="Helvetica,sans-Serif" font-size="10.00">::GetAllocatorFunction</text>
</a>
</g>
</g>
<!-- Node0&#45;&gt;Node2 -->
<g id="edge268_Node000000_Node000002" class="edge">
<title>Node0&#45;&gt;Node2</title>
<g id="a_edge268_Node000000_Node000002"><a xlink:title=" ">
<path fill="none" stroke="#63b8ff" d="M89.47,-228.87C108.81,-250.75 140.76,-283.12 175,-302 183.22,-306.54 192.36,-310.25 201.55,-313.29"/>
<polygon fill="#63b8ff" stroke="#63b8ff" points="91.89,-226.32 82.69,-221.05 86.6,-230.9 91.89,-226.32"/>
</a>
</g>
</g>
<!-- Node3 -->
<g id="Node000003" class="node">
<title>Node3</title>
<g id="a_Node000003"><a xlink:href="structdi_1_1execution_1_1detail_1_1GetDelegateeSchedulerFunction.html" target="_top" xlink:title=" ">
<polygon fill="white" stroke="#666666" points="354,-293 175,-293 175,-263 354,-263 354,-293"/>
<text text-anchor="start" x="183" y="-281" font-family="Helvetica,sans-Serif" font-size="10.00">di::execution::detail</text>
<text text-anchor="middle" x="264.5" y="-270" font-family="Helvetica,sans-Serif" font-size="10.00">::GetDelegateeSchedulerFunction</text>
</a>
</g>
</g>
<!-- Node0&#45;&gt;Node3 -->
<g id="edge269_Node000000_Node000003" class="edge">
<title>Node0&#45;&gt;Node3</title>
<g id="a_edge269_Node000000_Node000003"><a xlink:title=" ">
<path fill="none" stroke="#63b8ff" d="M109.26,-225.67C128.68,-235.04 152.74,-245.93 175,-254 183.83,-257.2 193.29,-260.2 202.62,-262.92"/>
<polygon fill="#63b8ff" stroke="#63b8ff" points="110.65,-222.45 100.13,-221.21 107.58,-228.74 110.65,-222.45"/>
</a>
</g>
</g>
<!-- Node4 -->
<g id="Node000004" class="node">
<title>Node4</title>
<g id="a_Node000004"><a xlink:href="structdi_1_1execution_1_1detail_1_1GetSchedulerFunction.html" target="_top" xlink:title=" ">
<polygon fill="white" stroke="#666666" points="329,-245 200,-245 200,-215 329,-215 329,-245"/>
<text text-anchor="start" x="208" y="-233" font-family="Helvetica,sans-Serif" font-size="10.00">di::execution::detail</text>
<text text-anchor="middle" x="264.5" y="-222" font-family="Helvetica,sans-Serif" font-size="10.00">::GetSchedulerFunction</text>
</a>
</g>
</g>
<!-- Node0&#45;&gt;Node4 -->
<g id="edge270_Node000000_Node000004" class="edge">
<title>Node0&#45;&gt;Node4</title>
<g id="a_edge270_Node000000_Node000004"><a xlink:title=" ">
<path fill="none" stroke="#63b8ff" d="M149.44,-215.82C166.26,-217.91 183.82,-220.09 199.97,-222.1"/>
<polygon fill="#63b8ff" stroke="#63b8ff" points="149.44,-212.29 139.09,-214.53 148.58,-219.24 149.44,-212.29"/>
</a>
</g>
</g>
<!-- Node5 -->
<g id="Node000005" class="node">
<title>Node5</title>
<g id="a_Node000005"><a xlink:href="structdi_1_1execution_1_1detail_1_1GetStopTokenFunction.html" target="_top" xlink:title=" ">
<polygon fill="white" stroke="#666666" points="330,-197 199,-197 199,-167 330,-167 330,-197"/>
<text text-anchor="start" x="207" y="-185" font-family="Helvetica,sans-Serif" font-size="10.00">di::execution::detail</text>
<text text-anchor="middle" x="264.5" y="-174" font-family="Helvetica,sans-Serif" font-size="10.00">::GetStopTokenFunction</text>
</a>
</g>
</g>
<!-- Node0&#45;&gt;Node5 -->
<g id="edge271_Node000000_Node000005" class="edge">
<title>Node0&#45;&gt;Node5</title>
<g id="a_edge271_Node000000_Node000005"><a xlink:title=" ">
<path fill="none" stroke="#63b8ff" d="M149.22,-196.21C165.66,-194.17 182.82,-192.03 198.69,-190.06"/>
<polygon fill="#63b8ff" stroke="#63b8ff" points="148.58,-192.76 139.09,-197.47 149.44,-199.71 148.58,-192.76"/>
</a>
</g>
</g>
<!-- Node6 -->
<g id="Node000006" class="node">
<title>Node6</title>
<g id="a_Node000006"><a xlink:href="structdi_1_1execution_1_1get__sequence__cardinality__ns_1_1Function.html" target="_top" xlink:title=" ">
<polygon fill="white" stroke="#666666" points="327,-148.5 202,-148.5 202,-107.5 327,-107.5 327,-148.5"/>
<text text-anchor="start" x="210" y="-136.5" font-family="Helvetica,sans-Serif" font-size="10.00">di::execution::get</text>
<text text-anchor="start" x="210" y="-125.5" font-family="Helvetica,sans-Serif" font-size="10.00">_sequence_cardinality</text>
<text text-anchor="middle" x="264.5" y="-114.5" font-family="Helvetica,sans-Serif" font-size="10.00">_ns::Function</text>
</a>
</g>
</g>
<!-- Node0&#45;&gt;Node6 -->
<g id="edge272_Node000000_Node000006" class="edge">
<title>Node0&#45;&gt;Node6</title>
<g id="a_edge272_Node000000_Node000006"><a xlink:title=" ">
<path fill="none" stroke="#63b8ff" d="M110.34,-186.52C129.65,-177.38 153.32,-166.63 175,-158 183.59,-154.58 192.75,-151.2 201.78,-148"/>
<polygon fill="#63b8ff" stroke="#63b8ff" points="108.75,-183.4 101.23,-190.86 111.76,-189.72 108.75,-183.4"/>
</a>
</g>
</g>
<!-- Node7 -->
<g id="Node000007" class="node">
<title>Node7</title>
<g id="a_Node000007"><a xlink:href="structdi_1_1execution_1_1is__always__lockstop__sequence__ns_1_1Function.html" target="_top" xlink:title=" ">
<polygon fill="white" stroke="#666666" points="333,-89.5 196,-89.5 196,-48.5 333,-48.5 333,-89.5"/>
<text text-anchor="start" x="204" y="-77.5" font-family="Helvetica,sans-Serif" font-size="10.00">di::execution::is_always</text>
<text text-anchor="start" x="204" y="-66.5" font-family="Helvetica,sans-Serif" font-size="10.00">_lockstop_sequence_ns::</text>
<text text-anchor="middle" x="264.5" y="-55.5" font-family="Helvetica,sans-Serif" font-size="10.00">Function</text>
</a>
</g>
</g>
<!-- Node0&#45;&gt;Node7 -->
<g id="edge273_Node000000_Node000007" class="edge">
<title>Node0&#45;&gt;Node7</title>
<g id="a_edge273_Node000000_Node000007"><a xlink:title=" ">
<path fill="none" stroke="#63b8ff" d="M87.74,-182.74C106.69,-158.68 139.23,-121.53 175,-99 181.45,-94.94 188.52,-91.35 195.76,-88.21"/>
<polygon fill="#63b8ff" stroke="#63b8ff" points="84.97,-180.61 81.62,-190.66 90.51,-184.89 84.97,-180.61"/>
</a>
</g>
</g>
<!-- Node8 -->
<g id="Node000008" class="node">
<title>Node8</title>
<g id="a_Node000008"><a xlink:href="structdi_1_1execution_1_1is__debug__env__ns_1_1Function.html" target="_top" xlink:title=" ">
<polygon fill="white" stroke="#666666" points="328.5,-30 200.5,-30 200.5,0 328.5,0 328.5,-30"/>
<text text-anchor="start" x="208.5" y="-18" font-family="Helvetica,sans-Serif" font-size="10.00">di::execution::is_debug</text>
<text text-anchor="middle" x="264.5" y="-7" font-family="Helvetica,sans-Serif" font-size="10.00">_env_ns::Function</text>
</a>
</g>
</g>
<!-- Node0&#45;&gt;Node8 -->
<g id="edge274_Node000000_Node000008" class="edge">
<title>Node0&#45;&gt;Node8</title>
<g id="a_edge274_Node000000_Node000008"><a xlink:title=" ">
<path fill="none" stroke="#63b8ff" d="M79.45,-181.1C93.84,-144.6 125.64,-76.91 175,-40 182.54,-34.36 191.31,-29.99 200.34,-26.61"/>
<polygon fill="#63b8ff" stroke="#63b8ff" points="76.15,-179.93 75.85,-190.52 82.69,-182.43 76.15,-179.93"/>
</a>
</g>
</g>
</g>
</svg>
