<?xml version="1.0" encoding="UTF-8" standalone="no"?>
<!DOCTYPE svg PUBLIC "-//W3C//DTD SVG 1.1//EN"
 "http://www.w3.org/Graphics/SVG/1.1/DTD/svg11.dtd">
<!-- Generated by graphviz version 2.43.0 (0)
 -->
<!-- Title: Graphical Class Hierarchy Pages: 1 -->
<svg width="260pt" height="278pt"
 viewBox="0.00 0.00 260.00 278.00" xmlns="http://www.w3.org/2000/svg" xmlns:xlink="http://www.w3.org/1999/xlink">
<g id="graph0" class="graph" transform="scale(1 1) rotate(0) translate(4 274)">
<title>Graphical Class Hierarchy</title>
<!-- Node0 -->
<g id="Node000000" class="node">
<title>Node0</title>
<g id="a_Node000000"><a xlink:title=" ">
<polygon fill="#e0e0e0" stroke="#999999" points="77,-144.5 0,-144.5 0,-125.5 77,-125.5 77,-144.5"/>
<text text-anchor="middle" x="38.5" y="-132.5" font-family="Helvetica,sans-Serif" font-size="10.00">detail::Mixin</text>
</a>
</g>
</g>
<!-- Node1 -->
<g id="Node000001" class="node">
<title>Node1</title>
<g id="a_Node000001"><a xlink:href="classdi_1_1util_1_1StrongInt.html" target="_top" xlink:title=" ">
<polygon fill="white" stroke="#666666" points="250,-270 115,-270 115,-240 250,-240 250,-270"/>
<text text-anchor="start" x="123" y="-258" font-family="Helvetica,sans-Serif" font-size="10.00">di::util::StrongInt</text>
<text text-anchor="middle" x="182.5" y="-247" font-family="Helvetica,sans-Serif" font-size="10.00">&lt; PhysicalAddressTag &gt;</text>
</a>
</g>
</g>
<!-- Node0&#45;&gt;Node1 -->
<g id="edge8_Node000000_Node000001" class="edge">
<title>Node0&#45;&gt;Node1</title>
<g id="a_edge8_Node000000_Node000001"><a xlink:title=" ">
<path fill="none" stroke="#63b8ff" d="M49.22,-153.47C61.42,-174.97 84.26,-210.17 113,-231 117.69,-234.4 122.91,-237.36 128.31,-239.91"/>
<polygon fill="#63b8ff" stroke="#63b8ff" points="52.27,-151.74 44.39,-144.66 46.13,-155.11 52.27,-151.74"/>
</a>
</g>
</g>
<!-- Node2 -->
<g id="Node000002" class="node">
<title>Node2</title>
<g id="a_Node000002"><a xlink:href="classdi_1_1util_1_1StrongInt.html" target="_top" xlink:title=" ">
<polygon fill="white" stroke="#666666" points="246,-222 119,-222 119,-192 246,-192 246,-222"/>
<text text-anchor="start" x="127" y="-210" font-family="Helvetica,sans-Serif" font-size="10.00">di::util::StrongInt</text>
<text text-anchor="middle" x="182.5" y="-199" font-family="Helvetica,sans-Serif" font-size="10.00">&lt; VirtualAddressTag &gt;</text>
</a>
</g>
</g>
<!-- Node0&#45;&gt;Node2 -->
<g id="edge9_Node000000_Node000002" class="edge">
<title>Node0&#45;&gt;Node2</title>
<g id="a_edge9_Node000000_Node000002"><a xlink:title=" ">
<path fill="none" stroke="#63b8ff" d="M60.35,-150.57C74.64,-160.74 94.32,-173.8 113,-183 119.56,-186.23 126.66,-189.23 133.72,-191.93"/>
<polygon fill="#63b8ff" stroke="#63b8ff" points="62.36,-147.7 52.21,-144.67 58.25,-153.37 62.36,-147.7"/>
</a>
</g>
</g>
<!-- Node3 -->
<g id="Node000003" class="node">
<title>Node3</title>
<g id="a_Node000003"><a xlink:href="classdi_1_1util_1_1StrongInt.html" target="_top" xlink:title=" ">
<polygon fill="white" stroke="#666666" points="231.5,-174 133.5,-174 133.5,-144 231.5,-144 231.5,-174"/>
<text text-anchor="start" x="141.5" y="-162" font-family="Helvetica,sans-Serif" font-size="10.00">di::util::StrongInt</text>
<text text-anchor="middle" x="182.5" y="-151" font-family="Helvetica,sans-Serif" font-size="10.00">&lt; IrqLineTag &gt;</text>
</a>
</g>
</g>
<!-- Node0&#45;&gt;Node3 -->
<g id="edge10_Node000000_Node000003" class="edge">
<title>Node0&#45;&gt;Node3</title>
<g id="a_edge10_Node000000_Node000003"><a xlink:title=" ">
<path fill="none" stroke="#63b8ff" d="M87.21,-143.06C102.1,-145.58 118.53,-148.36 133.44,-150.88"/>
<polygon fill="#63b8ff" stroke="#63b8ff" points="87.62,-139.58 77.18,-141.37 86.46,-146.49 87.62,-139.58"/>
</a>
</g>
</g>
<!-- Node4 -->
<g id="Node000004" class="node">
<title>Node4</title>
<g id="a_Node000004"><a xlink:href="classdi_1_1util_1_1StrongInt.html" target="_top" xlink:title=" ">
<polygon fill="white" stroke="#666666" points="231.5,-126 133.5,-126 133.5,-96 231.5,-96 231.5,-126"/>
<text text-anchor="start" x="141.5" y="-114" font-family="Helvetica,sans-Serif" font-size="10.00">di::util::StrongInt</text>
<text text-anchor="middle" x="182.5" y="-103" font-family="Helvetica,sans-Serif" font-size="10.00">&lt; TaskIdTag &gt;</text>
</a>
</g>
</g>
<!-- Node0&#45;&gt;Node4 -->
<g id="edge11_Node000000_Node000004" class="edge">
<title>Node0&#45;&gt;Node4</title>
<g id="a_edge11_Node000000_Node000004"><a xlink:title=" ">
<path fill="none" stroke="#63b8ff" d="M87.21,-126.94C102.1,-124.42 118.53,-121.64 133.44,-119.12"/>
<polygon fill="#63b8ff" stroke="#63b8ff" points="86.46,-123.51 77.18,-128.63 87.62,-130.42 86.46,-123.51"/>
</a>
</g>
</g>
<!-- Node5 -->
<g id="Node000005" class="node">
<title>Node5</title>
<g id="a_Node000005"><a xlink:href="classdi_1_1util_1_1StrongInt.html" target="_top" xlink:title=" ">
<polygon fill="white" stroke="#666666" points="252,-78 113,-78 113,-48 252,-48 252,-78"/>
<text text-anchor="start" x="121" y="-66" font-family="Helvetica,sans-Serif" font-size="10.00">di::util::StrongInt</text>
<text text-anchor="middle" x="182.5" y="-55" font-family="Helvetica,sans-Serif" font-size="10.00">&lt; GlobalIrqNumberTag &gt;</text>
</a>
</g>
</g>
<!-- Node0&#45;&gt;Node5 -->
<g id="edge12_Node000000_Node000005" class="edge">
<title>Node0&#45;&gt;Node5</title>
<g id="a_edge12_Node000000_Node000005"><a xlink:title=" ">
<path fill="none" stroke="#63b8ff" d="M60.35,-119.43C74.64,-109.26 94.32,-96.2 113,-87 119.56,-83.77 126.66,-80.77 133.72,-78.07"/>
<polygon fill="#63b8ff" stroke="#63b8ff" points="58.25,-116.63 52.21,-125.33 62.36,-122.3 58.25,-116.63"/>
</a>
</g>
</g>
<!-- Node6 -->
<g id="Node000006" class="node">
<title>Node6</title>
<g id="a_Node000006"><a xlink:href="classdi_1_1util_1_1StrongInt.html" target="_top" xlink:title=" ">
<polygon fill="white" stroke="#666666" points="231.5,-30 133.5,-30 133.5,0 231.5,0 231.5,-30"/>
<text text-anchor="start" x="141.5" y="-18" font-family="Helvetica,sans-Serif" font-size="10.00">di::util::StrongInt</text>
<text text-anchor="middle" x="182.5" y="-7" font-family="Helvetica,sans-Serif" font-size="10.00">&lt; Tag &gt;</text>
</a>
</g>
</g>
<!-- Node0&#45;&gt;Node6 -->
<g id="edge13_Node000000_Node000006" class="edge">
<title>Node0&#45;&gt;Node6</title>
<g id="a_edge13_Node000000_Node000006"><a xlink:title=" ">
<path fill="none" stroke="#63b8ff" d="M49.22,-116.53C61.42,-95.03 84.26,-59.83 113,-39 119.12,-34.56 126.14,-30.89 133.29,-27.86"/>
<polygon fill="#63b8ff" stroke="#63b8ff" points="46.13,-114.89 44.39,-125.34 52.27,-118.26 46.13,-114.89"/>
</a>
</g>
</g>
</g>
</svg>
