<?xml version="1.0" encoding="UTF-8" standalone="no"?>
<!DOCTYPE svg PUBLIC "-//W3C//DTD SVG 1.1//EN"
 "http://www.w3.org/Graphics/SVG/1.1/DTD/svg11.dtd">
<!-- Generated by graphviz version 2.43.0 (0)
 -->
<!-- Title: Graphical Class Hierarchy Pages: 1 -->
<svg width="357pt" height="216pt"
 viewBox="0.00 0.00 357.00 216.00" xmlns="http://www.w3.org/2000/svg" xmlns:xlink="http://www.w3.org/1999/xlink">
<g id="graph0" class="graph" transform="scale(1 1) rotate(0) translate(4 212)">
<title>Graphical Class Hierarchy</title>
<!-- Node0 -->
<g id="Node000000" class="node">
<title>Node0</title>
<g id="a_Node000000"><a xlink:href="classdi_1_1container_1_1string_1_1ConstantStringInterface.html" target="_top" xlink:title=" ">
<polygon fill="white" stroke="#666666" points="176,-208 0,-208 0,-167 176,-167 176,-208"/>
<text text-anchor="start" x="8" y="-196" font-family="Helvetica,sans-Serif" font-size="10.00">di::container::string</text>
<text text-anchor="start" x="8" y="-185" font-family="Helvetica,sans-Serif" font-size="10.00">::ConstantStringInterface</text>
<text text-anchor="middle" x="88" y="-174" font-family="Helvetica,sans-Serif" font-size="10.00">&lt; StringViewImpl&lt; Enc &gt;, Enc &gt;</text>
</a>
</g>
</g>
<!-- Node1 -->
<g id="Node000001" class="node">
<title>Node1</title>
<g id="a_Node000001"><a xlink:href="classdi_1_1container_1_1string_1_1StringViewImpl.html" target="_top" xlink:title=" ">
<polygon fill="white" stroke="#666666" points="349,-116.5 212,-116.5 212,-86.5 349,-86.5 349,-116.5"/>
<text text-anchor="start" x="220" y="-104.5" font-family="Helvetica,sans-Serif" font-size="10.00">di::container::string</text>
<text text-anchor="middle" x="280.5" y="-93.5" font-family="Helvetica,sans-Serif" font-size="10.00">::StringViewImpl&lt; Enc &gt;</text>
</a>
</g>
</g>
<!-- Node0&#45;&gt;Node1 -->
<g id="edge239_Node000000_Node000001" class="edge">
<title>Node0&#45;&gt;Node1</title>
<g id="a_edge239_Node000000_Node000001"><a xlink:title=" ">
<path fill="none" stroke="#63b8ff" d="M164.69,-163.2C168.54,-161.68 172.33,-160.11 176,-158.5 204,-146.24 234.47,-128.95 255.05,-116.63"/>
<polygon fill="#63b8ff" stroke="#63b8ff" points="163.13,-160.06 155.04,-166.9 165.63,-166.59 163.13,-160.06"/>
</a>
</g>
</g>
<!-- Node2 -->
<g id="Node000002" class="node">
<title>Node2</title>
<g id="a_Node000002"><a xlink:href="classdi_1_1meta_1_1EnableBorrowedContainer.html" target="_top" xlink:title=" ">
<polygon fill="white" stroke="#666666" points="162.5,-149 13.5,-149 13.5,-108 162.5,-108 162.5,-149"/>
<text text-anchor="start" x="21.5" y="-137" font-family="Helvetica,sans-Serif" font-size="10.00">di::meta::EnableBorrowed</text>
<text text-anchor="start" x="21.5" y="-126" font-family="Helvetica,sans-Serif" font-size="10.00">Container&lt; StringViewImpl</text>
<text text-anchor="middle" x="88" y="-115" font-family="Helvetica,sans-Serif" font-size="10.00">&lt; Enc &gt; &gt;</text>
</a>
</g>
</g>
<!-- Node2&#45;&gt;Node1 -->
<g id="edge240_Node000002_Node000001" class="edge">
<title>Node2&#45;&gt;Node1</title>
<g id="a_edge240_Node000002_Node000001"><a xlink:title=" ">
<path fill="none" stroke="#63b8ff" d="M172.63,-116.65C185.79,-114.78 199.24,-112.88 211.97,-111.07"/>
<polygon fill="#63b8ff" stroke="#63b8ff" points="172.06,-113.19 162.65,-118.06 173.04,-120.12 172.06,-113.19"/>
</a>
</g>
</g>
<!-- Node3 -->
<g id="Node000003" class="node">
<title>Node3</title>
<g id="a_Node000003"><a xlink:href="classdi_1_1meta_1_1EnableView.html" target="_top" xlink:title=" ">
<polygon fill="white" stroke="#666666" points="164.5,-89.5 11.5,-89.5 11.5,-59.5 164.5,-59.5 164.5,-89.5"/>
<text text-anchor="start" x="19.5" y="-77.5" font-family="Helvetica,sans-Serif" font-size="10.00">di::meta::EnableView</text>
<text text-anchor="middle" x="88" y="-66.5" font-family="Helvetica,sans-Serif" font-size="10.00">&lt; StringViewImpl&lt; Enc &gt; &gt;</text>
</a>
</g>
</g>
<!-- Node3&#45;&gt;Node1 -->
<g id="edge241_Node000003_Node000001" class="edge">
<title>Node3&#45;&gt;Node1</title>
<g id="a_edge241_Node000003_Node000001"><a xlink:title=" ">
<path fill="none" stroke="#63b8ff" d="M174.51,-86.62C186.98,-88.39 199.69,-90.19 211.75,-91.9"/>
<polygon fill="#63b8ff" stroke="#63b8ff" points="174.96,-83.15 164.56,-85.21 173.97,-90.08 174.96,-83.15"/>
</a>
</g>
</g>
<!-- Node4 -->
<g id="Node000004" class="node">
<title>Node4</title>
<g id="a_Node000004"><a xlink:href="structdi_1_1util_1_1OwnedType.html" target="_top" xlink:title=" ">
<polygon fill="white" stroke="#666666" points="155.5,-41 20.5,-41 20.5,0 155.5,0 155.5,-41"/>
<text text-anchor="start" x="28.5" y="-29" font-family="Helvetica,sans-Serif" font-size="10.00">di::util::OwnedType</text>
<text text-anchor="start" x="28.5" y="-18" font-family="Helvetica,sans-Serif" font-size="10.00">&lt; StringViewImpl&lt; Enc</text>
<text text-anchor="middle" x="88" y="-7" font-family="Helvetica,sans-Serif" font-size="10.00"> &gt;, StringImpl&lt; Enc &gt; &gt;</text>
</a>
</g>
</g>
<!-- Node4&#45;&gt;Node1 -->
<g id="edge242_Node000004_Node000001" class="edge">
<title>Node4&#45;&gt;Node1</title>
<g id="a_edge242_Node000004_Node000001"><a xlink:title=" ">
<path fill="none" stroke="#63b8ff" d="M161.28,-44.64C166.29,-46.55 171.24,-48.51 176,-50.5 202.07,-61.37 230.82,-75.74 251.39,-86.45"/>
<polygon fill="#63b8ff" stroke="#63b8ff" points="162.21,-41.25 151.61,-41.03 159.76,-47.81 162.21,-41.25"/>
</a>
</g>
</g>
</g>
</svg>
