<?xml version="1.0" encoding="UTF-8" standalone="no"?>
<!DOCTYPE svg PUBLIC "-//W3C//DTD SVG 1.1//EN"
 "http://www.w3.org/Graphics/SVG/1.1/DTD/svg11.dtd">
<!-- Generated by graphviz version 2.43.0 (0)
 -->
<!-- Title: Graphical Class Hierarchy Pages: 1 -->
<svg width="281pt" height="86pt"
 viewBox="0.00 0.00 281.00 86.00" xmlns="http://www.w3.org/2000/svg" xmlns:xlink="http://www.w3.org/1999/xlink">
<g id="graph0" class="graph" transform="scale(1 1) rotate(0) translate(4 82)">
<title>Graphical Class Hierarchy</title>
<!-- Node0 -->
<g id="Node000000" class="node">
<title>Node0</title>
<g id="a_Node000000"><a xlink:href="structdi_1_1bit_1_1BitFlag.html" target="_top" xlink:title=" ">
<polygon fill="white" stroke="#666666" points="119,-48.5 0,-48.5 0,-29.5 119,-29.5 119,-48.5"/>
<text text-anchor="middle" x="59.5" y="-36.5" font-family="Helvetica,sans-Serif" font-size="10.00">di::bit::BitFlag&lt; 55 &gt;</text>
</a>
</g>
</g>
<!-- Node1 -->
<g id="Node000001" class="node">
<title>Node1</title>
<g id="a_Node000001"><a xlink:href="structiris_1_1x86_1_1amd64_1_1sd_1_1Granular.html" target="_top" xlink:title=" ">
<polygon fill="white" stroke="#666666" points="270.5,-78 157.5,-78 157.5,-48 270.5,-48 270.5,-78"/>
<text text-anchor="start" x="165.5" y="-66" font-family="Helvetica,sans-Serif" font-size="10.00">iris::x86::amd64::sd</text>
<text text-anchor="middle" x="214" y="-55" font-family="Helvetica,sans-Serif" font-size="10.00">::Granular</text>
</a>
</g>
</g>
<!-- Node0&#45;&gt;Node1 -->
<g id="edge76_Node000000_Node000001" class="edge">
<title>Node0&#45;&gt;Node1</title>
<g id="a_edge76_Node000000_Node000001"><a xlink:title=" ">
<path fill="none" stroke="#63b8ff" d="M129.18,-49.81C138.62,-51.29 148.22,-52.81 157.39,-54.25"/>
<polygon fill="#63b8ff" stroke="#63b8ff" points="129.45,-46.31 119.02,-48.21 128.36,-53.22 129.45,-46.31"/>
</a>
</g>
</g>
<!-- Node2 -->
<g id="Node000002" class="node">
<title>Node2</title>
<g id="a_Node000002"><a xlink:href="structiris_1_1x86_1_1amd64_1_1ssd_1_1Granular.html" target="_top" xlink:title=" ">
<polygon fill="white" stroke="#666666" points="273,-30 155,-30 155,0 273,0 273,-30"/>
<text text-anchor="start" x="163" y="-18" font-family="Helvetica,sans-Serif" font-size="10.00">iris::x86::amd64::ssd</text>
<text text-anchor="middle" x="214" y="-7" font-family="Helvetica,sans-Serif" font-size="10.00">::Granular</text>
</a>
</g>
</g>
<!-- Node0&#45;&gt;Node2 -->
<g id="edge77_Node000000_Node000002" class="edge">
<title>Node0&#45;&gt;Node2</title>
<g id="a_edge77_Node000000_Node000002"><a xlink:title=" ">
<path fill="none" stroke="#63b8ff" d="M129.06,-28.21C137.69,-26.85 146.44,-25.47 154.88,-24.15"/>
<polygon fill="#63b8ff" stroke="#63b8ff" points="128.36,-24.78 119.02,-29.79 129.45,-31.69 128.36,-24.78"/>
</a>
</g>
</g>
</g>
</svg>
