<?xml version="1.0" encoding="UTF-8" standalone="no"?>
<!DOCTYPE svg PUBLIC "-//W3C//DTD SVG 1.1//EN"
 "http://www.w3.org/Graphics/SVG/1.1/DTD/svg11.dtd">
<!-- Generated by graphviz version 2.43.0 (0)
 -->
<!-- Title: Graphical Class Hierarchy Pages: 1 -->
<svg width="332pt" height="76pt"
 viewBox="0.00 0.00 332.00 75.50" xmlns="http://www.w3.org/2000/svg" xmlns:xlink="http://www.w3.org/1999/xlink">
<g id="graph0" class="graph" transform="scale(1 1) rotate(0) translate(4 71.5)">
<title>Graphical Class Hierarchy</title>
<!-- Node0 -->
<g id="Node000000" class="node">
<title>Node0</title>
<g id="a_Node000000"><a xlink:title=" ">
<polygon fill="#e0e0e0" stroke="#999999" points="103,-45.5 0,-45.5 0,-26.5 103,-26.5 103,-45.5"/>
<text text-anchor="middle" x="51.5" y="-33.5" font-family="Helvetica,sans-Serif" font-size="10.00">di::meta::detail::F</text>
</a>
</g>
</g>
<!-- Node1 -->
<g id="Node000001" class="node">
<title>Node1</title>
<g id="a_Node000001"><a xlink:href="structdi_1_1meta_1_1detail_1_1ChainHelper_3_01F_01_4.html" target="_top" xlink:title=" ">
<polygon fill="white" stroke="#666666" points="324,-67.5 139,-67.5 139,-48.5 324,-48.5 324,-67.5"/>
<text text-anchor="middle" x="231.5" y="-55.5" font-family="Helvetica,sans-Serif" font-size="10.00">di::meta::detail::ChainHelper&lt; F &gt;</text>
</a>
</g>
</g>
<!-- Node0&#45;&gt;Node1 -->
<g id="edge420_Node000000_Node000001" class="edge">
<title>Node0&#45;&gt;Node1</title>
<g id="a_edge420_Node000000_Node000001"><a xlink:title=" ">
<path fill="none" stroke="#63b8ff" d="M113.22,-43.51C126.2,-45.11 140.07,-46.82 153.57,-48.49"/>
<polygon fill="#63b8ff" stroke="#63b8ff" points="113.39,-40 103.03,-42.25 112.53,-46.95 113.39,-40"/>
</a>
</g>
</g>
<!-- Node2 -->
<g id="Node000002" class="node">
<title>Node2</title>
<g id="a_Node000002"><a xlink:href="structdi_1_1meta_1_1detail_1_1ComposeHelper_3_01F_01_4.html" target="_top" xlink:title=" ">
<polygon fill="white" stroke="#666666" points="303,-30 160,-30 160,0 303,0 303,-30"/>
<text text-anchor="start" x="168" y="-18" font-family="Helvetica,sans-Serif" font-size="10.00">di::meta::detail::Compose</text>
<text text-anchor="middle" x="231.5" y="-7" font-family="Helvetica,sans-Serif" font-size="10.00">Helper&lt; F &gt;</text>
</a>
</g>
</g>
<!-- Node0&#45;&gt;Node2 -->
<g id="edge421_Node000000_Node000002" class="edge">
<title>Node0&#45;&gt;Node2</title>
<g id="a_edge421_Node000000_Node000002"><a xlink:title=" ">
<path fill="none" stroke="#63b8ff" d="M113.22,-28.84C128.24,-27.06 144.46,-25.15 159.91,-23.33"/>
<polygon fill="#63b8ff" stroke="#63b8ff" points="112.55,-25.39 103.03,-30.04 113.37,-32.34 112.55,-25.39"/>
</a>
</g>
</g>
</g>
</svg>
