<?xml version="1.0" encoding="UTF-8" standalone="no"?>
<!DOCTYPE svg PUBLIC "-//W3C//DTD SVG 1.1//EN"
 "http://www.w3.org/Graphics/SVG/1.1/DTD/svg11.dtd">
<!-- Generated by graphviz version 2.43.0 (0)
 -->
<!-- Title: Graphical Class Hierarchy Pages: 1 -->
<svg width="414pt" height="156pt"
 viewBox="0.00 0.00 414.00 156.00" xmlns="http://www.w3.org/2000/svg" xmlns:xlink="http://www.w3.org/1999/xlink">
<g id="graph0" class="graph" transform="scale(1 1) rotate(0) translate(4 152)">
<title>Graphical Class Hierarchy</title>
<!-- Node0 -->
<g id="Node000000" class="node">
<title>Node0</title>
<g id="a_Node000000"><a xlink:href="classdi_1_1meta_1_1EnableBorrowedContainer.html" target="_top" xlink:title=" ">
<polygon fill="white" stroke="#666666" points="196,-148 29,-148 29,-118 196,-118 196,-148"/>
<text text-anchor="start" x="37" y="-136" font-family="Helvetica,sans-Serif" font-size="10.00">di::meta::EnableBorrowed</text>
<text text-anchor="middle" x="112.5" y="-125" font-family="Helvetica,sans-Serif" font-size="10.00">Container&lt; DirectoryIterator &gt;</text>
</a>
</g>
</g>
<!-- Node1 -->
<g id="Node000001" class="node">
<title>Node1</title>
<g id="a_Node000001"><a xlink:href="classdius_1_1filesystem_1_1DirectoryIterator.html" target="_top" xlink:title=" ">
<polygon fill="white" stroke="#666666" points="406,-100 261,-100 261,-70 406,-70 406,-100"/>
<text text-anchor="start" x="269" y="-88" font-family="Helvetica,sans-Serif" font-size="10.00">dius::filesystem::Directory</text>
<text text-anchor="middle" x="333.5" y="-77" font-family="Helvetica,sans-Serif" font-size="10.00">Iterator</text>
</a>
</g>
</g>
<!-- Node0&#45;&gt;Node1 -->
<g id="edge424_Node000000_Node000001" class="edge">
<title>Node0&#45;&gt;Node1</title>
<g id="a_edge424_Node000000_Node000001"><a xlink:title=" ">
<path fill="none" stroke="#63b8ff" d="M193.73,-115.81C204.25,-113.53 214.89,-111.22 225,-109 238.08,-106.13 252.04,-103.04 265.42,-100.06"/>
<polygon fill="#63b8ff" stroke="#63b8ff" points="192.74,-112.44 183.7,-117.97 194.22,-119.28 192.74,-112.44"/>
</a>
</g>
</g>
<!-- Node2 -->
<g id="Node000002" class="node">
<title>Node2</title>
<g id="a_Node000002"><a xlink:href="classdi_1_1meta_1_1EnableView.html" target="_top" xlink:title=" ">
<polygon fill="white" stroke="#666666" points="172.5,-100 52.5,-100 52.5,-70 172.5,-70 172.5,-100"/>
<text text-anchor="start" x="60.5" y="-88" font-family="Helvetica,sans-Serif" font-size="10.00">di::meta::EnableView</text>
<text text-anchor="middle" x="112.5" y="-77" font-family="Helvetica,sans-Serif" font-size="10.00">&lt; DirectoryIterator &gt;</text>
</a>
</g>
</g>
<!-- Node2&#45;&gt;Node1 -->
<g id="edge425_Node000002_Node000001" class="edge">
<title>Node2&#45;&gt;Node1</title>
<g id="a_edge425_Node000002_Node000001"><a xlink:title=" ">
<path fill="none" stroke="#63b8ff" d="M182.83,-85C207.65,-85 235.67,-85 260.7,-85"/>
<polygon fill="#63b8ff" stroke="#63b8ff" points="182.76,-81.5 172.76,-85 182.76,-88.5 182.76,-81.5"/>
</a>
</g>
</g>
<!-- Node3 -->
<g id="Node000003" class="node">
<title>Node3</title>
<g id="a_Node000003"><a xlink:href="structdi_1_1container_1_1IteratorBase.html" target="_top" xlink:title=" ">
<polygon fill="white" stroke="#666666" points="225,-52 0,-52 0,0 225,0 225,-52"/>
<text text-anchor="start" x="8" y="-40" font-family="Helvetica,sans-Serif" font-size="10.00">di::container::IteratorBase</text>
<text text-anchor="start" x="8" y="-29" font-family="Helvetica,sans-Serif" font-size="10.00">&lt; DirectoryIterator, di</text>
<text text-anchor="start" x="8" y="-18" font-family="Helvetica,sans-Serif" font-size="10.00">::InputIteratorTag, di::Expected</text>
<text text-anchor="middle" x="112.5" y="-7" font-family="Helvetica,sans-Serif" font-size="10.00">&lt; DirectoryEntry, di::GenericCode &gt;, i64 &gt;</text>
</a>
</g>
</g>
<!-- Node3&#45;&gt;Node1 -->
<g id="edge426_Node000003_Node000001" class="edge">
<title>Node3&#45;&gt;Node1</title>
<g id="a_edge426_Node000003_Node000001"><a xlink:title=" ">
<path fill="none" stroke="#63b8ff" d="M220.07,-54.71C239.59,-59.97 259.23,-65.26 276.52,-69.92"/>
<polygon fill="#63b8ff" stroke="#63b8ff" points="220.76,-51.27 210.19,-52.05 218.94,-58.03 220.76,-51.27"/>
</a>
</g>
</g>
</g>
</svg>
