<?xml version="1.0" encoding="UTF-8" standalone="no"?>
<!DOCTYPE svg PUBLIC "-//W3C//DTD SVG 1.1//EN"
 "http://www.w3.org/Graphics/SVG/1.1/DTD/svg11.dtd">
<!-- Generated by graphviz version 2.43.0 (0)
 -->
<!-- Title: Graphical Class Hierarchy Pages: 1 -->
<svg width="514pt" height="427pt"
 viewBox="0.00 0.00 514.00 426.50" xmlns="http://www.w3.org/2000/svg" xmlns:xlink="http://www.w3.org/1999/xlink">
<g id="graph0" class="graph" transform="scale(1 1) rotate(0) translate(4 422.5)">
<title>Graphical Class Hierarchy</title>
<!-- Node0 -->
<g id="Node000000" class="node">
<title>Node0</title>
<g id="a_Node000000"><a xlink:href="structdi_1_1util_1_1AddMemberGet.html" target="_top" xlink:title=" ">
<polygon fill="white" stroke="#666666" points="133,-241 0,-241 0,-211 133,-211 133,-241"/>
<text text-anchor="start" x="8" y="-229" font-family="Helvetica,sans-Serif" font-size="10.00">di::util::AddMemberGet</text>
<text text-anchor="middle" x="66.5" y="-218" font-family="Helvetica,sans-Serif" font-size="10.00">&lt; Variant&lt; Types... &gt; &gt;</text>
</a>
</g>
</g>
<!-- Node1 -->
<g id="Node000001" class="node">
<title>Node1</title>
<g id="a_Node000001"><a xlink:href="classdi_1_1vocab_1_1Variant.html" target="_top" xlink:title=" ">
<polygon fill="white" stroke="#666666" points="335,-418.5 206,-418.5 206,-377.5 335,-377.5 335,-418.5"/>
<text text-anchor="start" x="214" y="-406.5" font-family="Helvetica,sans-Serif" font-size="10.00">di::vocab::Variant</text>
<text text-anchor="start" x="214" y="-395.5" font-family="Helvetica,sans-Serif" font-size="10.00">&lt; Null, Bool, Number,</text>
<text text-anchor="middle" x="270.5" y="-384.5" font-family="Helvetica,sans-Serif" font-size="10.00"> String, Array, Object &gt;</text>
</a>
</g>
</g>
<!-- Node0&#45;&gt;Node1 -->
<g id="edge732_Node000000_Node000001" class="edge">
<title>Node0&#45;&gt;Node1</title>
<g id="a_edge732_Node000000_Node000001"><a xlink:title=" ">
<path fill="none" stroke="#63b8ff" d="M78.62,-250.45C94.29,-282.2 125.87,-337.2 169,-368 179.97,-375.83 192.99,-381.64 205.96,-385.94"/>
<polygon fill="#63b8ff" stroke="#63b8ff" points="81.75,-248.89 74.27,-241.39 75.44,-251.92 81.75,-248.89"/>
</a>
</g>
</g>
<!-- Node3 -->
<g id="Node000003" class="node">
<title>Node3</title>
<g id="a_Node000003"><a xlink:href="classdi_1_1vocab_1_1Variant.html" target="_top" xlink:title=" ">
<polygon fill="white" stroke="#666666" points="321,-359 220,-359 220,-329 321,-329 321,-359"/>
<text text-anchor="start" x="228" y="-347" font-family="Helvetica,sans-Serif" font-size="10.00">di::vocab::Variant</text>
<text text-anchor="middle" x="270.5" y="-336" font-family="Helvetica,sans-Serif" font-size="10.00">&lt; Iter, Sent &gt;</text>
</a>
</g>
</g>
<!-- Node0&#45;&gt;Node3 -->
<g id="edge734_Node000000_Node000003" class="edge">
<title>Node0&#45;&gt;Node3</title>
<g id="a_edge734_Node000000_Node000003"><a xlink:title=" ">
<path fill="none" stroke="#63b8ff" d="M86.08,-248.98C104.78,-270.57 135.57,-302.13 169,-320 184.58,-328.33 203.05,-333.8 219.88,-337.38"/>
<polygon fill="#63b8ff" stroke="#63b8ff" points="88.66,-246.62 79.52,-241.25 83.32,-251.14 88.66,-246.62"/>
</a>
</g>
</g>
<!-- Node4 -->
<g id="Node000004" class="node">
<title>Node4</title>
<g id="a_Node000004"><a xlink:href="classdi_1_1vocab_1_1Variant.html" target="_top" xlink:title=" ">
<polygon fill="white" stroke="#666666" points="357.5,-311 183.5,-311 183.5,-259 357.5,-259 357.5,-311"/>
<text text-anchor="start" x="191.5" y="-299" font-family="Helvetica,sans-Serif" font-size="10.00">di::vocab::Variant</text>
<text text-anchor="start" x="191.5" y="-288" font-family="Helvetica,sans-Serif" font-size="10.00">&lt; meta::ContainerIterator</text>
<text text-anchor="start" x="191.5" y="-277" font-family="Helvetica,sans-Serif" font-size="10.00">&lt; meta::MaybeConst&lt; is_const,</text>
<text text-anchor="middle" x="270.5" y="-266" font-family="Helvetica,sans-Serif" font-size="10.00"> Views &gt; &gt;... &gt;</text>
</a>
</g>
</g>
<!-- Node0&#45;&gt;Node4 -->
<g id="edge735_Node000000_Node000004" class="edge">
<title>Node0&#45;&gt;Node4</title>
<g id="a_edge735_Node000000_Node000004"><a xlink:title=" ">
<path fill="none" stroke="#63b8ff" d="M128.85,-243.92C145.97,-248.92 164.9,-254.45 183.18,-259.79"/>
<polygon fill="#63b8ff" stroke="#63b8ff" points="129.58,-240.48 119,-241.04 127.61,-247.2 129.58,-240.48"/>
</a>
</g>
</g>
<!-- Node5 -->
<g id="Node000005" class="node">
<title>Node5</title>
<g id="a_Node000005"><a xlink:href="classdi_1_1vocab_1_1Variant.html" target="_top" xlink:title=" ">
<polygon fill="white" stroke="#666666" points="339,-241 202,-241 202,-211 339,-211 339,-241"/>
<text text-anchor="start" x="210" y="-229" font-family="Helvetica,sans-Serif" font-size="10.00">di::vocab::Variant</text>
<text text-anchor="middle" x="270.5" y="-218" font-family="Helvetica,sans-Serif" font-size="10.00">&lt; PatternIter, InnerIter &gt;</text>
</a>
</g>
</g>
<!-- Node0&#45;&gt;Node5 -->
<g id="edge736_Node000000_Node000005" class="edge">
<title>Node0&#45;&gt;Node5</title>
<g id="a_edge736_Node000000_Node000005"><a xlink:title=" ">
<path fill="none" stroke="#63b8ff" d="M143.3,-226C162.52,-226 183.03,-226 201.82,-226"/>
<polygon fill="#63b8ff" stroke="#63b8ff" points="143.08,-222.5 133.08,-226 143.08,-229.5 143.08,-222.5"/>
</a>
</g>
</g>
<!-- Node6 -->
<g id="Node000006" class="node">
<title>Node6</title>
<g id="a_Node000006"><a xlink:href="classdi_1_1vocab_1_1Variant.html" target="_top" xlink:title=" ">
<polygon fill="white" stroke="#666666" points="372,-192.5 169,-192.5 169,-107.5 372,-107.5 372,-192.5"/>
<text text-anchor="start" x="177" y="-180.5" font-family="Helvetica,sans-Serif" font-size="10.00">di::vocab::Variant</text>
<text text-anchor="start" x="177" y="-169.5" font-family="Helvetica,sans-Serif" font-size="10.00">&lt; meta::ConnectResult</text>
<text text-anchor="start" x="177" y="-158.5" font-family="Helvetica,sans-Serif" font-size="10.00">&lt; meta::ScheduleResult</text>
<text text-anchor="start" x="177" y="-147.5" font-family="Helvetica,sans-Serif" font-size="10.00">&lt; Sched &gt;, Receiver&lt; Send,</text>
<text text-anchor="start" x="177" y="-136.5" font-family="Helvetica,sans-Serif" font-size="10.00"> Rec, Sched &gt; &gt;, meta::ConnectResult</text>
<text text-anchor="start" x="177" y="-125.5" font-family="Helvetica,sans-Serif" font-size="10.00">&lt; Send, ReceiverWithEnv&lt; Send, Rec,</text>
<text text-anchor="middle" x="270.5" y="-114.5" font-family="Helvetica,sans-Serif" font-size="10.00"> Sched &gt; &gt; &gt;</text>
</a>
</g>
</g>
<!-- Node0&#45;&gt;Node6 -->
<g id="edge737_Node000000_Node000006" class="edge">
<title>Node0&#45;&gt;Node6</title>
<g id="a_edge737_Node000000_Node000006"><a xlink:title=" ">
<path fill="none" stroke="#63b8ff" d="M116.94,-207.4C132.75,-201.45 150.87,-194.63 168.97,-187.82"/>
<polygon fill="#63b8ff" stroke="#63b8ff" points="115.54,-204.19 107.41,-210.98 118,-210.74 115.54,-204.19"/>
</a>
</g>
</g>
<!-- Node7 -->
<g id="Node000007" class="node">
<title>Node7</title>
<g id="a_Node000007"><a xlink:href="classdi_1_1vocab_1_1Variant.html" target="_top" xlink:title=" ">
<polygon fill="white" stroke="#666666" points="333,-89.5 208,-89.5 208,-48.5 333,-48.5 333,-89.5"/>
<text text-anchor="start" x="216" y="-77.5" font-family="Helvetica,sans-Serif" font-size="10.00">di::vocab::Variant</text>
<text text-anchor="start" x="216" y="-66.5" font-family="Helvetica,sans-Serif" font-size="10.00">&lt; di::types::Void, Op1,</text>
<text text-anchor="middle" x="270.5" y="-55.5" font-family="Helvetica,sans-Serif" font-size="10.00"> Op2 &gt;</text>
</a>
</g>
</g>
<!-- Node0&#45;&gt;Node7 -->
<g id="edge738_Node000000_Node000007" class="edge">
<title>Node0&#45;&gt;Node7</title>
<g id="a_edge738_Node000000_Node000007"><a xlink:title=" ">
<path fill="none" stroke="#63b8ff" d="M80.76,-201.62C97.58,-172.92 129.26,-125.8 169,-99 180.62,-91.16 194.35,-85.32 207.86,-80.99"/>
<polygon fill="#63b8ff" stroke="#63b8ff" points="77.55,-200.17 75.63,-210.59 83.63,-203.64 77.55,-200.17"/>
</a>
</g>
</g>
<!-- Node8 -->
<g id="Node000008" class="node">
<title>Node8</title>
<g id="a_Node000008"><a xlink:href="classdi_1_1vocab_1_1Variant.html" target="_top" xlink:title=" ">
<polygon fill="white" stroke="#666666" points="321,-30 220,-30 220,0 321,0 321,-30"/>
<text text-anchor="start" x="228" y="-18" font-family="Helvetica,sans-Serif" font-size="10.00">di::vocab::Variant</text>
<text text-anchor="middle" x="270.5" y="-7" font-family="Helvetica,sans-Serif" font-size="10.00">&lt; Types &gt;</text>
</a>
</g>
</g>
<!-- Node0&#45;&gt;Node8 -->
<g id="edge739_Node000000_Node000008" class="edge">
<title>Node0&#45;&gt;Node8</title>
<g id="a_edge739_Node000000_Node000008"><a xlink:title=" ">
<path fill="none" stroke="#63b8ff" d="M73.99,-201.19C85.84,-160.96 114.88,-81.79 169,-40 183.52,-28.79 202.42,-22.55 219.91,-19.09"/>
<polygon fill="#63b8ff" stroke="#63b8ff" points="70.57,-200.42 71.22,-210.99 77.31,-202.32 70.57,-200.42"/>
</a>
</g>
</g>
<!-- Node2 -->
<g id="Node000002" class="node">
<title>Node2</title>
<g id="a_Node000002"><a xlink:href="classdi_1_1serialization_1_1json_1_1Value.html" target="_top" xlink:title=" ">
<polygon fill="white" stroke="#666666" points="506,-413 408,-413 408,-383 506,-383 506,-413"/>
<text text-anchor="start" x="416" y="-401" font-family="Helvetica,sans-Serif" font-size="10.00">di::serialization::</text>
<text text-anchor="middle" x="457" y="-390" font-family="Helvetica,sans-Serif" font-size="10.00">json::Value</text>
</a>
</g>
</g>
<!-- Node1&#45;&gt;Node2 -->
<g id="edge733_Node000001_Node000002" class="edge">
<title>Node1&#45;&gt;Node2</title>
<g id="a_edge733_Node000001_Node000002"><a xlink:title=" ">
<path fill="none" stroke="#63b8ff" d="M345.46,-398C366.52,-398 388.9,-398 407.97,-398"/>
<polygon fill="#63b8ff" stroke="#63b8ff" points="345.25,-394.5 335.25,-398 345.25,-401.5 345.25,-394.5"/>
</a>
</g>
</g>
</g>
</svg>
