<?xml version="1.0" encoding="UTF-8" standalone="no"?>
<!DOCTYPE svg PUBLIC "-//W3C//DTD SVG 1.1//EN"
 "http://www.w3.org/Graphics/SVG/1.1/DTD/svg11.dtd">
<!-- Generated by graphviz version 2.43.0 (0)
 -->
<!-- Title: Graphical Class Hierarchy Pages: 1 -->
<svg width="537pt" height="275pt"
 viewBox="0.00 0.00 537.00 274.50" xmlns="http://www.w3.org/2000/svg" xmlns:xlink="http://www.w3.org/1999/xlink">
<g id="graph0" class="graph" transform="scale(1 1) rotate(0) translate(4 270.5)">
<title>Graphical Class Hierarchy</title>
<!-- Node0 -->
<g id="Node000000" class="node">
<title>Node0</title>
<g id="a_Node000000"><a xlink:href="structdi_1_1meta_1_1TypeConstant.html" target="_top" xlink:title=" ">
<polygon fill="white" stroke="#666666" points="129,-143 0,-143 0,-113 129,-113 129,-143"/>
<text text-anchor="start" x="8" y="-131" font-family="Helvetica,sans-Serif" font-size="10.00">di::meta::TypeConstant</text>
<text text-anchor="middle" x="64.5" y="-120" font-family="Helvetica,sans-Serif" font-size="10.00">&lt; void &gt;</text>
</a>
</g>
</g>
<!-- Node1 -->
<g id="Node000001" class="node">
<title>Node1</title>
<g id="a_Node000001"><a xlink:href="structdi_1_1meta_1_1detail_1_1CommonComparisonCategoryHelper.html" target="_top" xlink:title=" ">
<polygon fill="white" stroke="#666666" points="326,-266.5 174,-266.5 174,-225.5 326,-225.5 326,-266.5"/>
<text text-anchor="start" x="182" y="-254.5" font-family="Helvetica,sans-Serif" font-size="10.00">di::meta::detail::Common</text>
<text text-anchor="start" x="182" y="-243.5" font-family="Helvetica,sans-Serif" font-size="10.00">ComparisonCategoryHelper</text>
<text text-anchor="middle" x="250" y="-232.5" font-family="Helvetica,sans-Serif" font-size="10.00">&lt; Types... &gt;</text>
</a>
</g>
</g>
<!-- Node0&#45;&gt;Node1 -->
<g id="edge566_Node000000_Node000001" class="edge">
<title>Node0&#45;&gt;Node1</title>
<g id="a_edge566_Node000000_Node000001"><a xlink:title=" ">
<path fill="none" stroke="#63b8ff" d="M85.79,-150.67C104.62,-170.53 134.3,-198.97 165,-217 170.19,-220.05 175.74,-222.84 181.44,-225.38"/>
<polygon fill="#63b8ff" stroke="#63b8ff" points="88.26,-148.19 78.88,-143.26 83.14,-152.96 88.26,-148.19"/>
</a>
</g>
</g>
<!-- Node3 -->
<g id="Node000003" class="node">
<title>Node3</title>
<g id="a_Node000003"><a xlink:href="structdi_1_1execution_1_1into__result__ns_1_1ResultTypeConcatImplHelper_3_4.html" target="_top" xlink:title=" ">
<polygon fill="white" stroke="#666666" points="329.5,-207.5 170.5,-207.5 170.5,-166.5 329.5,-166.5 329.5,-207.5"/>
<text text-anchor="start" x="178.5" y="-195.5" font-family="Helvetica,sans-Serif" font-size="10.00">di::execution::into</text>
<text text-anchor="start" x="178.5" y="-184.5" font-family="Helvetica,sans-Serif" font-size="10.00">_result_ns::ResultTypeConcat</text>
<text text-anchor="middle" x="250" y="-173.5" font-family="Helvetica,sans-Serif" font-size="10.00">ImplHelper&lt;&gt;</text>
</a>
</g>
</g>
<!-- Node0&#45;&gt;Node3 -->
<g id="edge568_Node000000_Node000003" class="edge">
<title>Node0&#45;&gt;Node3</title>
<g id="a_edge568_Node000000_Node000003"><a xlink:title=" ">
<path fill="none" stroke="#63b8ff" d="M121.85,-146.12C141.82,-152.54 164.44,-159.81 185,-166.42"/>
<polygon fill="#63b8ff" stroke="#63b8ff" points="122.87,-142.77 112.28,-143.04 120.73,-149.43 122.87,-142.77"/>
</a>
</g>
</g>
<!-- Node4 -->
<g id="Node000004" class="node">
<title>Node4</title>
<g id="a_Node000004"><a xlink:href="structdi_1_1execution_1_1into__result__ns_1_1ResultTypeImplHelper_3_4.html" target="_top" xlink:title=" ">
<polygon fill="white" stroke="#666666" points="323.5,-148.5 176.5,-148.5 176.5,-107.5 323.5,-107.5 323.5,-148.5"/>
<text text-anchor="start" x="184.5" y="-136.5" font-family="Helvetica,sans-Serif" font-size="10.00">di::execution::into</text>
<text text-anchor="start" x="184.5" y="-125.5" font-family="Helvetica,sans-Serif" font-size="10.00">_result_ns::ResultTypeImpl</text>
<text text-anchor="middle" x="250" y="-114.5" font-family="Helvetica,sans-Serif" font-size="10.00">Helper&lt;&gt;</text>
</a>
</g>
</g>
<!-- Node0&#45;&gt;Node4 -->
<g id="edge569_Node000000_Node000004" class="edge">
<title>Node0&#45;&gt;Node4</title>
<g id="a_edge569_Node000000_Node000004"><a xlink:title=" ">
<path fill="none" stroke="#63b8ff" d="M139.29,-128C151.5,-128 164.15,-128 176.33,-128"/>
<polygon fill="#63b8ff" stroke="#63b8ff" points="139.16,-124.5 129.16,-128 139.16,-131.5 139.16,-124.5"/>
</a>
</g>
</g>
<!-- Node5 -->
<g id="Node000005" class="node">
<title>Node5</title>
<g id="a_Node000005"><a xlink:href="structdi_1_1meta_1_1detail_1_1CommonComparisonCategoryHelper.html" target="_top" xlink:title=" ">
<polygon fill="white" stroke="#666666" points="326,-89.5 174,-89.5 174,-48.5 326,-48.5 326,-89.5"/>
<text text-anchor="start" x="182" y="-77.5" font-family="Helvetica,sans-Serif" font-size="10.00">di::meta::detail::Common</text>
<text text-anchor="start" x="182" y="-66.5" font-family="Helvetica,sans-Serif" font-size="10.00">ComparisonCategoryHelper</text>
<text text-anchor="middle" x="250" y="-55.5" font-family="Helvetica,sans-Serif" font-size="10.00">&lt; Types &gt;</text>
</a>
</g>
</g>
<!-- Node0&#45;&gt;Node5 -->
<g id="edge570_Node000000_Node000005" class="edge">
<title>Node0&#45;&gt;Node5</title>
<g id="a_edge570_Node000000_Node000005"><a xlink:title=" ">
<path fill="none" stroke="#63b8ff" d="M121.85,-109.88C141.82,-103.46 164.44,-96.19 185,-89.58"/>
<polygon fill="#63b8ff" stroke="#63b8ff" points="120.73,-106.57 112.28,-112.96 122.87,-113.23 120.73,-106.57"/>
</a>
</g>
</g>
<!-- Node6 -->
<g id="Node000006" class="node">
<title>Node6</title>
<g id="a_Node000006"><a xlink:href="structdi_1_1meta_1_1detail_1_1CompareThreeWayResultHelper.html" target="_top" xlink:title=" ">
<polygon fill="white" stroke="#666666" points="335,-30 165,-30 165,0 335,0 335,-30"/>
<text text-anchor="start" x="173" y="-18" font-family="Helvetica,sans-Serif" font-size="10.00">di::meta::detail::Compare</text>
<text text-anchor="middle" x="250" y="-7" font-family="Helvetica,sans-Serif" font-size="10.00">ThreeWayResultHelper&lt; T, U &gt;</text>
</a>
</g>
</g>
<!-- Node0&#45;&gt;Node6 -->
<g id="edge571_Node000000_Node000006" class="edge">
<title>Node0&#45;&gt;Node6</title>
<g id="a_edge571_Node000000_Node000006"><a xlink:title=" ">
<path fill="none" stroke="#63b8ff" d="M85.65,-105.28C104.4,-85.44 134.03,-57.19 165,-40 171.92,-36.16 179.49,-32.85 187.17,-30.01"/>
<polygon fill="#63b8ff" stroke="#63b8ff" points="83.02,-102.98 78.79,-112.69 88.15,-107.73 83.02,-102.98"/>
</a>
</g>
</g>
<!-- Node2 -->
<g id="Node000002" class="node">
<title>Node2</title>
<g id="a_Node000002"><a xlink:href="structdi_1_1meta_1_1detail_1_1CommonComparisonCategoryHelper_3_01strong__ordering_00_01Types_8_8_8_01_4.html" target="_top" xlink:title=" ">
<polygon fill="white" stroke="#666666" points="529,-266.5 371,-266.5 371,-225.5 529,-225.5 529,-266.5"/>
<text text-anchor="start" x="379" y="-254.5" font-family="Helvetica,sans-Serif" font-size="10.00">di::meta::detail::Common</text>
<text text-anchor="start" x="379" y="-243.5" font-family="Helvetica,sans-Serif" font-size="10.00">ComparisonCategoryHelper</text>
<text text-anchor="middle" x="450" y="-232.5" font-family="Helvetica,sans-Serif" font-size="10.00">&lt; strong_ordering, Types... &gt;</text>
</a>
</g>
</g>
<!-- Node1&#45;&gt;Node2 -->
<g id="edge567_Node000001_Node000002" class="edge">
<title>Node1&#45;&gt;Node2</title>
<g id="a_edge567_Node000001_Node000002"><a xlink:title=" ">
<path fill="none" stroke="#63b8ff" d="M336.2,-246C347.74,-246 359.54,-246 370.95,-246"/>
<polygon fill="#63b8ff" stroke="#63b8ff" points="336.14,-242.5 326.14,-246 336.14,-249.5 336.14,-242.5"/>
</a>
</g>
</g>
</g>
</svg>
