<?xml version="1.0" encoding="UTF-8" standalone="no"?>
<!DOCTYPE svg PUBLIC "-//W3C//DTD SVG 1.1//EN"
 "http://www.w3.org/Graphics/SVG/1.1/DTD/svg11.dtd">
<!-- Generated by graphviz version 2.43.0 (0)
 -->
<!-- Title: Graphical Class Hierarchy Pages: 1 -->
<svg width="385pt" height="86pt"
 viewBox="0.00 0.00 385.00 86.00" xmlns="http://www.w3.org/2000/svg" xmlns:xlink="http://www.w3.org/1999/xlink">
<g id="graph0" class="graph" transform="scale(1 1) rotate(0) translate(4 82)">
<title>Graphical Class Hierarchy</title>
<!-- Node0 -->
<g id="Node000000" class="node">
<title>Node0</title>
<g id="a_Node000000"><a xlink:href="classdi_1_1parser_1_1ParserBase.html" target="_top" xlink:title=" ">
<polygon fill="white" stroke="#666666" points="183,-78 0,-78 0,-48 183,-48 183,-78"/>
<text text-anchor="start" x="8" y="-66" font-family="Helvetica,sans-Serif" font-size="10.00">di::parser::ParserBase</text>
<text text-anchor="middle" x="91.5" y="-55" font-family="Helvetica,sans-Serif" font-size="10.00">&lt; SequenceParser&lt; Parsers... &gt; &gt;</text>
</a>
</g>
</g>
<!-- Node1 -->
<g id="Node000001" class="node">
<title>Node1</title>
<g id="a_Node000001"><a xlink:href="classdi_1_1parser_1_1detail_1_1SequenceParser.html" target="_top" xlink:title=" ">
<polygon fill="white" stroke="#666666" points="377,-54 219,-54 219,-24 377,-24 377,-54"/>
<text text-anchor="start" x="227" y="-42" font-family="Helvetica,sans-Serif" font-size="10.00">di::parser::detail</text>
<text text-anchor="middle" x="298" y="-31" font-family="Helvetica,sans-Serif" font-size="10.00">::SequenceParser&lt; Parsers &gt;</text>
</a>
</g>
</g>
<!-- Node0&#45;&gt;Node1 -->
<g id="edge582_Node000000_Node000001" class="edge">
<title>Node0&#45;&gt;Node1</title>
<g id="a_edge582_Node000000_Node000001"><a xlink:title=" ">
<path fill="none" stroke="#63b8ff" d="M193.22,-51.18C201.87,-50.16 210.54,-49.15 218.97,-48.16"/>
<polygon fill="#63b8ff" stroke="#63b8ff" points="192.61,-47.73 183.09,-52.37 193.43,-54.68 192.61,-47.73"/>
</a>
</g>
</g>
<!-- Node2 -->
<g id="Node000002" class="node">
<title>Node2</title>
<g id="a_Node000002"><a xlink:href="structdi_1_1parser_1_1detail_1_1SequenceParserMarker.html" target="_top" xlink:title=" ">
<polygon fill="white" stroke="#666666" points="158.5,-30 24.5,-30 24.5,0 158.5,0 158.5,-30"/>
<text text-anchor="start" x="32.5" y="-18" font-family="Helvetica,sans-Serif" font-size="10.00">di::parser::detail</text>
<text text-anchor="middle" x="91.5" y="-7" font-family="Helvetica,sans-Serif" font-size="10.00">::SequenceParserMarker</text>
</a>
</g>
</g>
<!-- Node2&#45;&gt;Node1 -->
<g id="edge583_Node000002_Node000001" class="edge">
<title>Node2&#45;&gt;Node1</title>
<g id="a_edge583_Node000002_Node000001"><a xlink:title=" ">
<path fill="none" stroke="#63b8ff" d="M168.7,-23.94C185.12,-25.87 202.51,-27.91 219,-29.85"/>
<polygon fill="#63b8ff" stroke="#63b8ff" points="168.95,-20.45 158.61,-22.76 168.14,-27.4 168.95,-20.45"/>
</a>
</g>
</g>
</g>
</svg>
