<?xml version="1.0" encoding="UTF-8" standalone="no"?>
<!DOCTYPE svg PUBLIC "-//W3C//DTD SVG 1.1//EN"
 "http://www.w3.org/Graphics/SVG/1.1/DTD/svg11.dtd">
<!-- Generated by graphviz version 2.43.0 (0)
 -->
<!-- Title: Graphical Class Hierarchy Pages: 1 -->
<svg width="281pt" height="134pt"
 viewBox="0.00 0.00 281.00 134.00" xmlns="http://www.w3.org/2000/svg" xmlns:xlink="http://www.w3.org/1999/xlink">
<g id="graph0" class="graph" transform="scale(1 1) rotate(0) translate(4 130)">
<title>Graphical Class Hierarchy</title>
<!-- Node0 -->
<g id="Node000000" class="node">
<title>Node0</title>
<g id="a_Node000000"><a xlink:href="structdi_1_1bit_1_1BitFlag.html" target="_top" xlink:title=" ">
<polygon fill="white" stroke="#666666" points="119,-72.5 0,-72.5 0,-53.5 119,-53.5 119,-72.5"/>
<text text-anchor="middle" x="59.5" y="-60.5" font-family="Helvetica,sans-Serif" font-size="10.00">di::bit::BitFlag&lt; 47 &gt;</text>
</a>
</g>
</g>
<!-- Node1 -->
<g id="Node000001" class="node">
<title>Node1</title>
<g id="a_Node000001"><a xlink:href="structiris_1_1x86_1_1amd64_1_1idt_1_1Present.html" target="_top" xlink:title=" ">
<polygon fill="white" stroke="#666666" points="271,-126 157,-126 157,-96 271,-96 271,-126"/>
<text text-anchor="start" x="165" y="-114" font-family="Helvetica,sans-Serif" font-size="10.00">iris::x86::amd64::idt</text>
<text text-anchor="middle" x="214" y="-103" font-family="Helvetica,sans-Serif" font-size="10.00">::Present</text>
</a>
</g>
</g>
<!-- Node0&#45;&gt;Node1 -->
<g id="edge69_Node000000_Node000001" class="edge">
<title>Node0&#45;&gt;Node1</title>
<g id="a_edge69_Node000000_Node000001"><a xlink:title=" ">
<path fill="none" stroke="#63b8ff" d="M100.62,-75.63C120.41,-81.86 144.41,-89.41 165.14,-95.94"/>
<polygon fill="#63b8ff" stroke="#63b8ff" points="101.58,-72.26 90.99,-72.6 99.48,-78.94 101.58,-72.26"/>
</a>
</g>
</g>
<!-- Node2 -->
<g id="Node000002" class="node">
<title>Node2</title>
<g id="a_Node000002"><a xlink:href="structiris_1_1x86_1_1amd64_1_1sd_1_1Present.html" target="_top" xlink:title=" ">
<polygon fill="white" stroke="#666666" points="270.5,-78 157.5,-78 157.5,-48 270.5,-48 270.5,-78"/>
<text text-anchor="start" x="165.5" y="-66" font-family="Helvetica,sans-Serif" font-size="10.00">iris::x86::amd64::sd</text>
<text text-anchor="middle" x="214" y="-55" font-family="Helvetica,sans-Serif" font-size="10.00">::Present</text>
</a>
</g>
</g>
<!-- Node0&#45;&gt;Node2 -->
<g id="edge70_Node000000_Node000002" class="edge">
<title>Node0&#45;&gt;Node2</title>
<g id="a_edge70_Node000000_Node000002"><a xlink:title=" ">
<path fill="none" stroke="#63b8ff" d="M129.18,-63C138.62,-63 148.22,-63 157.39,-63"/>
<polygon fill="#63b8ff" stroke="#63b8ff" points="129.02,-59.5 119.02,-63 129.02,-66.5 129.02,-59.5"/>
</a>
</g>
</g>
<!-- Node3 -->
<g id="Node000003" class="node">
<title>Node3</title>
<g id="a_Node000003"><a xlink:href="structiris_1_1x86_1_1amd64_1_1ssd_1_1Present.html" target="_top" xlink:title=" ">
<polygon fill="white" stroke="#666666" points="273,-30 155,-30 155,0 273,0 273,-30"/>
<text text-anchor="start" x="163" y="-18" font-family="Helvetica,sans-Serif" font-size="10.00">iris::x86::amd64::ssd</text>
<text text-anchor="middle" x="214" y="-7" font-family="Helvetica,sans-Serif" font-size="10.00">::Present</text>
</a>
</g>
</g>
<!-- Node0&#45;&gt;Node3 -->
<g id="edge71_Node000000_Node000003" class="edge">
<title>Node0&#45;&gt;Node3</title>
<g id="a_edge71_Node000000_Node000003"><a xlink:title=" ">
<path fill="none" stroke="#63b8ff" d="M100.62,-50.37C120.41,-44.14 144.41,-36.59 165.14,-30.06"/>
<polygon fill="#63b8ff" stroke="#63b8ff" points="99.48,-47.06 90.99,-53.4 101.58,-53.74 99.48,-47.06"/>
</a>
</g>
</g>
</g>
</svg>
