<?xml version="1.0" encoding="UTF-8" standalone="no"?>
<!DOCTYPE svg PUBLIC "-//W3C//DTD SVG 1.1//EN"
 "http://www.w3.org/Graphics/SVG/1.1/DTD/svg11.dtd">
<!-- Generated by graphviz version 2.43.0 (0)
 -->
<!-- Title: Graphical Class Hierarchy Pages: 1 -->
<svg width="290pt" height="130pt"
 viewBox="0.00 0.00 290.00 130.00" xmlns="http://www.w3.org/2000/svg" xmlns:xlink="http://www.w3.org/1999/xlink">
<g id="graph0" class="graph" transform="scale(1 1) rotate(0) translate(4 126)">
<title>Graphical Class Hierarchy</title>
<!-- Node0 -->
<g id="Node000000" class="node">
<title>Node0</title>
<g id="a_Node000000"><a xlink:title=" ">
<polygon fill="#e0e0e0" stroke="#999999" points="88,-70.5 0,-70.5 0,-51.5 88,-51.5 88,-70.5"/>
<text text-anchor="middle" x="44" y="-58.5" font-family="Helvetica,sans-Serif" font-size="10.00">ClientOrServer</text>
</a>
</g>
</g>
<!-- Node1 -->
<g id="Node000001" class="node">
<title>Node1</title>
<g id="a_Node000001"><a xlink:href="structdi_1_1execution_1_1ipc__binary__ns_1_1ConnectionTokenT_1_1Type.html" target="_top" xlink:title=" ">
<polygon fill="white" stroke="#666666" points="282,-122 124,-122 124,-70 282,-70 282,-122"/>
<text text-anchor="start" x="132" y="-110" font-family="Helvetica,sans-Serif" font-size="10.00">di::execution::ipc</text>
<text text-anchor="start" x="132" y="-99" font-family="Helvetica,sans-Serif" font-size="10.00">_binary_ns::ConnectionToken</text>
<text text-anchor="start" x="132" y="-88" font-family="Helvetica,sans-Serif" font-size="10.00">T&lt; Proto, Read, Write, Alloc,</text>
<text text-anchor="middle" x="203" y="-77" font-family="Helvetica,sans-Serif" font-size="10.00"> ClientOrServer &gt;::Type</text>
</a>
</g>
</g>
<!-- Node0&#45;&gt;Node1 -->
<g id="edge4_Node000000_Node000001" class="edge">
<title>Node0&#45;&gt;Node1</title>
<g id="a_edge4_Node000000_Node000001"><a xlink:title=" ">
<path fill="none" stroke="#63b8ff" d="M97.86,-72.78C106.23,-74.65 115.03,-76.61 123.83,-78.57"/>
<polygon fill="#63b8ff" stroke="#63b8ff" points="98.42,-69.32 87.9,-70.56 96.9,-76.16 98.42,-69.32"/>
</a>
</g>
</g>
<!-- Node2 -->
<g id="Node000002" class="node">
<title>Node2</title>
<g id="a_Node000002"><a xlink:href="structdi_1_1execution_1_1ipc__binary__ns_1_1MessageDecode_1_1Sender.html" target="_top" xlink:title=" ">
<polygon fill="white" stroke="#666666" points="280.5,-52 125.5,-52 125.5,0 280.5,0 280.5,-52"/>
<text text-anchor="start" x="133.5" y="-40" font-family="Helvetica,sans-Serif" font-size="10.00">di::execution::ipc</text>
<text text-anchor="start" x="133.5" y="-29" font-family="Helvetica,sans-Serif" font-size="10.00">_binary_ns::MessageDecode</text>
<text text-anchor="start" x="133.5" y="-18" font-family="Helvetica,sans-Serif" font-size="10.00">&lt; Proto, ClientOrServer</text>
<text text-anchor="middle" x="203" y="-7" font-family="Helvetica,sans-Serif" font-size="10.00"> &gt;::Sender</text>
</a>
</g>
</g>
<!-- Node0&#45;&gt;Node2 -->
<g id="edge5_Node000000_Node000002" class="edge">
<title>Node0&#45;&gt;Node2</title>
<g id="a_edge5_Node000000_Node000002"><a xlink:title=" ">
<path fill="none" stroke="#63b8ff" d="M97.7,-49.25C106.59,-47.27 115.98,-45.18 125.34,-43.09"/>
<polygon fill="#63b8ff" stroke="#63b8ff" points="96.9,-45.84 87.9,-51.44 98.42,-52.68 96.9,-45.84"/>
</a>
</g>
</g>
</g>
</svg>
