<?xml version="1.0" encoding="UTF-8" standalone="no"?>
<!DOCTYPE svg PUBLIC "-//W3C//DTD SVG 1.1//EN"
 "http://www.w3.org/Graphics/SVG/1.1/DTD/svg11.dtd">
<!-- Generated by graphviz version 2.43.0 (0)
 -->
<!-- Title: Graphical Class Hierarchy Pages: 1 -->
<svg width="392pt" height="394pt"
 viewBox="0.00 0.00 392.00 393.50" xmlns="http://www.w3.org/2000/svg" xmlns:xlink="http://www.w3.org/1999/xlink">
<g id="graph0" class="graph" transform="scale(1 1) rotate(0) translate(4 389.5)">
<title>Graphical Class Hierarchy</title>
<!-- Node0 -->
<g id="Node000000" class="node">
<title>Node0</title>
<g id="a_Node000000"><a xlink:href="structdi_1_1meta_1_1CustomCommonError.html" target="_top" xlink:title=" ">
<polygon fill="white" stroke="#666666" points="187.5,-385.5 19.5,-385.5 19.5,-355.5 187.5,-355.5 187.5,-385.5"/>
<text text-anchor="start" x="27.5" y="-373.5" font-family="Helvetica,sans-Serif" font-size="10.00">di::meta::CustomCommonError</text>
<text text-anchor="middle" x="103.5" y="-362.5" font-family="Helvetica,sans-Serif" font-size="10.00">&lt; T, U &gt;</text>
</a>
</g>
</g>
<!-- Node1 -->
<g id="Node000001" class="node">
<title>Node1</title>
<g id="a_Node000001"><a xlink:href="structdi_1_1meta_1_1detail_1_1CommonErrorHelper_3_01T_00_01U_01_4.html" target="_top" xlink:title=" ">
<polygon fill="white" stroke="#666666" points="384,-313.5 243,-313.5 243,-283.5 384,-283.5 384,-313.5"/>
<text text-anchor="start" x="251" y="-301.5" font-family="Helvetica,sans-Serif" font-size="10.00">di::meta::detail::Common</text>
<text text-anchor="middle" x="313.5" y="-290.5" font-family="Helvetica,sans-Serif" font-size="10.00">ErrorHelper&lt; T, U &gt;</text>
</a>
</g>
</g>
<!-- Node0&#45;&gt;Node1 -->
<g id="edge349_Node000000_Node000001" class="edge">
<title>Node0&#45;&gt;Node1</title>
<g id="a_edge349_Node000000_Node000001"><a xlink:title=" ">
<path fill="none" stroke="#63b8ff" d="M186.8,-352.75C193.68,-350.8 200.49,-348.72 207,-346.5 233.67,-337.41 262.72,-323.91 283.57,-313.54"/>
<polygon fill="#63b8ff" stroke="#63b8ff" points="185.43,-349.49 176.69,-355.49 187.26,-356.25 185.43,-349.49"/>
</a>
</g>
</g>
<!-- Node2 -->
<g id="Node000002" class="node">
<title>Node2</title>
<g id="a_Node000002"><a xlink:href="structdi_1_1meta_1_1TypeConstant.html" target="_top" xlink:title=" ">
<polygon fill="white" stroke="#666666" points="177.5,-241.5 29.5,-241.5 29.5,-211.5 177.5,-211.5 177.5,-241.5"/>
<text text-anchor="start" x="37.5" y="-229.5" font-family="Helvetica,sans-Serif" font-size="10.00">di::meta::TypeConstant</text>
<text text-anchor="middle" x="103.5" y="-218.5" font-family="Helvetica,sans-Serif" font-size="10.00">&lt; CommonType&lt; T, U &gt; &gt;</text>
</a>
</g>
</g>
<!-- Node2&#45;&gt;Node1 -->
<g id="edge350_Node000002_Node000001" class="edge">
<title>Node2&#45;&gt;Node1</title>
<g id="a_edge350_Node000002_Node000001"><a xlink:title=" ">
<path fill="none" stroke="#63b8ff" d="M186.8,-244.25C193.68,-246.2 200.49,-248.28 207,-250.5 233.67,-259.59 262.72,-273.09 283.57,-283.46"/>
<polygon fill="#63b8ff" stroke="#63b8ff" points="187.26,-240.75 176.69,-241.51 185.43,-247.51 187.26,-240.75"/>
</a>
</g>
</g>
<!-- Node3 -->
<g id="Node000003" class="node">
<title>Node3</title>
<g id="a_Node000003"><a xlink:href="structdi_1_1meta_1_1detail_1_1CommonReferenceHelper_3_01T_00_01U_01_4.html" target="_top" xlink:title=" ">
<polygon fill="white" stroke="#666666" points="384,-138.5 243,-138.5 243,-108.5 384,-108.5 384,-138.5"/>
<text text-anchor="start" x="251" y="-126.5" font-family="Helvetica,sans-Serif" font-size="10.00">di::meta::detail::Common</text>
<text text-anchor="middle" x="313.5" y="-115.5" font-family="Helvetica,sans-Serif" font-size="10.00">ReferenceHelper&lt; T, U &gt;</text>
</a>
</g>
</g>
<!-- Node2&#45;&gt;Node3 -->
<g id="edge351_Node000002_Node000003" class="edge">
<title>Node2&#45;&gt;Node3</title>
<g id="a_edge351_Node000002_Node000003"><a xlink:title=" ">
<path fill="none" stroke="#63b8ff" d="M187.56,-209.28C194.26,-206.98 200.81,-204.4 207,-201.5 241.86,-185.18 276.67,-156.41 296.31,-138.75"/>
<polygon fill="#63b8ff" stroke="#63b8ff" points="186.15,-206.06 177.69,-212.45 188.29,-212.72 186.15,-206.06"/>
</a>
</g>
</g>
<!-- Node4 -->
<g id="Node000004" class="node">
<title>Node4</title>
<g id="a_Node000004"><a xlink:href="structdi_1_1meta_1_1TypeConstant.html" target="_top" xlink:title=" ">
<polygon fill="white" stroke="#666666" points="207,-193 0,-193 0,-130 207,-130 207,-193"/>
<text text-anchor="start" x="8" y="-181" font-family="Helvetica,sans-Serif" font-size="10.00">di::meta::TypeConstant</text>
<text text-anchor="start" x="8" y="-170" font-family="Helvetica,sans-Serif" font-size="10.00">&lt; CustomCommonReference</text>
<text text-anchor="start" x="8" y="-159" font-family="Helvetica,sans-Serif" font-size="10.00">&lt; T, U, ProjectQualifiers</text>
<text text-anchor="start" x="8" y="-148" font-family="Helvetica,sans-Serif" font-size="10.00">&lt; T &gt;::template Type, ProjectQualifiers</text>
<text text-anchor="middle" x="103.5" y="-137" font-family="Helvetica,sans-Serif" font-size="10.00">&lt; U &gt;::template Type &gt;::Type &gt;</text>
</a>
</g>
</g>
<!-- Node4&#45;&gt;Node3 -->
<g id="edge352_Node000004_Node000003" class="edge">
<title>Node4&#45;&gt;Node3</title>
<g id="a_edge352_Node000004_Node000003"><a xlink:title=" ">
<path fill="none" stroke="#63b8ff" d="M217.18,-140.91C225.93,-139.32 234.59,-137.73 242.93,-136.21"/>
<polygon fill="#63b8ff" stroke="#63b8ff" points="216.49,-137.48 207.28,-142.72 217.75,-144.37 216.49,-137.48"/>
</a>
</g>
</g>
<!-- Node5 -->
<g id="Node000005" class="node">
<title>Node5</title>
<g id="a_Node000005"><a xlink:href="structdi_1_1meta_1_1TypeConstant.html" target="_top" xlink:title=" ">
<polygon fill="white" stroke="#666666" points="178,-111.5 29,-111.5 29,-59.5 178,-59.5 178,-111.5"/>
<text text-anchor="start" x="37" y="-99.5" font-family="Helvetica,sans-Serif" font-size="10.00">di::meta::TypeConstant</text>
<text text-anchor="start" x="37" y="-88.5" font-family="Helvetica,sans-Serif" font-size="10.00">&lt; decltype(false ? __get</text>
<text text-anchor="start" x="37" y="-77.5" font-family="Helvetica,sans-Serif" font-size="10.00">_value&lt; T &gt;() :__get_value</text>
<text text-anchor="middle" x="103.5" y="-66.5" font-family="Helvetica,sans-Serif" font-size="10.00">&lt; U &gt;())&gt;</text>
</a>
</g>
</g>
<!-- Node5&#45;&gt;Node3 -->
<g id="edge353_Node000005_Node000003" class="edge">
<title>Node5&#45;&gt;Node3</title>
<g id="a_edge353_Node000005_Node000003"><a xlink:title=" ">
<path fill="none" stroke="#63b8ff" d="M188.1,-100.77C206.25,-104.09 225.26,-107.56 242.81,-110.77"/>
<polygon fill="#63b8ff" stroke="#63b8ff" points="188.59,-97.31 178.13,-98.95 187.33,-104.19 188.59,-97.31"/>
</a>
</g>
</g>
<!-- Node7 -->
<g id="Node000007" class="node">
<title>Node7</title>
<g id="a_Node000007"><a xlink:href="structdi_1_1meta_1_1TypeConstant.html" target="_top" xlink:title=" ">
<polygon fill="white" stroke="#666666" points="168,-337.5 39,-337.5 39,-307.5 168,-307.5 168,-337.5"/>
<text text-anchor="start" x="47" y="-325.5" font-family="Helvetica,sans-Serif" font-size="10.00">di::meta::TypeConstant</text>
<text text-anchor="middle" x="103.5" y="-314.5" font-family="Helvetica,sans-Serif" font-size="10.00">&lt; Error &gt;</text>
</a>
</g>
</g>
<!-- Node7&#45;&gt;Node1 -->
<g id="edge354_Node000007_Node000001" class="edge">
<title>Node7&#45;&gt;Node1</title>
<g id="a_edge354_Node000007_Node000001"><a xlink:title=" ">
<path fill="none" stroke="#63b8ff" d="M178.2,-314C199.22,-311.57 222.06,-308.94 242.83,-306.54"/>
<polygon fill="#63b8ff" stroke="#63b8ff" points="177.57,-310.55 168.04,-315.17 178.37,-317.5 177.57,-310.55"/>
</a>
</g>
</g>
<!-- Node6 -->
<g id="Node000006" class="node">
<title>Node6</title>
<g id="a_Node000006"><a xlink:href="structdi_1_1meta_1_1TypeConstant.html" target="_top" xlink:title=" ">
<polygon fill="white" stroke="#666666" points="181,-41 26,-41 26,0 181,0 181,-41"/>
<text text-anchor="start" x="34" y="-29" font-family="Helvetica,sans-Serif" font-size="10.00">di::meta::TypeConstant</text>
<text text-anchor="start" x="34" y="-18" font-family="Helvetica,sans-Serif" font-size="10.00">&lt; SimpleCommonReference</text>
<text text-anchor="middle" x="103.5" y="-7" font-family="Helvetica,sans-Serif" font-size="10.00">&lt; T, U &gt;::Type &gt;</text>
</a>
</g>
</g>
<!-- Node6&#45;&gt;Node3 -->
<g id="edge355_Node000006_Node000003" class="edge">
<title>Node6&#45;&gt;Node3</title>
<g id="a_edge355_Node000006_Node000003"><a xlink:title=" ">
<path fill="none" stroke="#63b8ff" d="M190.62,-43.47C196.24,-45.65 201.75,-47.99 207,-50.5 240.17,-66.32 274.41,-92.07 294.56,-108.38"/>
<polygon fill="#63b8ff" stroke="#63b8ff" points="191.68,-40.13 181.09,-39.95 189.26,-46.7 191.68,-40.13"/>
</a>
</g>
</g>
<!-- Node8 -->
<g id="Node000008" class="node">
<title>Node8</title>
<g id="a_Node000008"><a xlink:href="structdi_1_1meta_1_1TypeConstant.html" target="_top" xlink:title=" ">
<polygon fill="white" stroke="#666666" points="168,-289.5 39,-289.5 39,-259.5 168,-259.5 168,-289.5"/>
<text text-anchor="start" x="47" y="-277.5" font-family="Helvetica,sans-Serif" font-size="10.00">di::meta::TypeConstant</text>
<text text-anchor="middle" x="103.5" y="-266.5" font-family="Helvetica,sans-Serif" font-size="10.00">&lt; Variant&lt; T, U &gt; &gt;</text>
</a>
</g>
</g>
<!-- Node8&#45;&gt;Node1 -->
<g id="edge356_Node000008_Node000001" class="edge">
<title>Node8&#45;&gt;Node1</title>
<g id="a_edge356_Node000008_Node000001"><a xlink:title=" ">
<path fill="none" stroke="#63b8ff" d="M178.2,-283C199.22,-285.43 222.06,-288.06 242.83,-290.46"/>
<polygon fill="#63b8ff" stroke="#63b8ff" points="178.37,-279.5 168.04,-281.83 177.57,-286.45 178.37,-279.5"/>
</a>
</g>
</g>
</g>
</svg>
