<?xml version="1.0" encoding="UTF-8" standalone="no"?>
<!DOCTYPE svg PUBLIC "-//W3C//DTD SVG 1.1//EN"
 "http://www.w3.org/Graphics/SVG/1.1/DTD/svg11.dtd">
<!-- Generated by graphviz version 2.43.0 (0)
 -->
<!-- Title: Graphical Class Hierarchy Pages: 1 -->
<svg width="507pt" height="98pt"
 viewBox="0.00 0.00 507.00 97.50" xmlns="http://www.w3.org/2000/svg" xmlns:xlink="http://www.w3.org/1999/xlink">
<g id="graph0" class="graph" transform="scale(1 1) rotate(0) translate(4 93.5)">
<title>Graphical Class Hierarchy</title>
<!-- Node0 -->
<g id="Node000000" class="node">
<title>Node0</title>
<g id="a_Node000000"><a xlink:href="classdi_1_1vocab_1_1StatusCode_3_01void_01_4.html" target="_top" xlink:title=" ">
<polygon fill="white" stroke="#666666" points="122,-57 0,-57 0,-27 122,-27 122,-57"/>
<text text-anchor="start" x="8" y="-45" font-family="Helvetica,sans-Serif" font-size="10.00">di::vocab::StatusCode</text>
<text text-anchor="middle" x="61" y="-34" font-family="Helvetica,sans-Serif" font-size="10.00">&lt; void &gt;</text>
</a>
</g>
</g>
<!-- Node1 -->
<g id="Node000001" class="node">
<title>Node1</title>
<g id="a_Node000001"><a xlink:href="classdi_1_1vocab_1_1detail_1_1StatusCodeStorage.html" target="_top" xlink:title=" ">
<polygon fill="white" stroke="#666666" points="312,-89.5 158,-89.5 158,-48.5 312,-48.5 312,-89.5"/>
<text text-anchor="start" x="166" y="-77.5" font-family="Helvetica,sans-Serif" font-size="10.00">di::vocab::detail::</text>
<text text-anchor="start" x="166" y="-66.5" font-family="Helvetica,sans-Serif" font-size="10.00">StatusCodeStorage&lt; Erased</text>
<text text-anchor="middle" x="235" y="-55.5" font-family="Helvetica,sans-Serif" font-size="10.00">&lt; T &gt; &gt;</text>
</a>
</g>
</g>
<!-- Node0&#45;&gt;Node1 -->
<g id="edge828_Node000000_Node000001" class="edge">
<title>Node0&#45;&gt;Node1</title>
<g id="a_edge828_Node000000_Node000001"><a xlink:title=" ">
<path fill="none" stroke="#63b8ff" d="M132.3,-53.04C140.72,-54.36 149.35,-55.71 157.85,-57.05"/>
<polygon fill="#63b8ff" stroke="#63b8ff" points="132.58,-49.54 122.16,-51.44 131.49,-56.45 132.58,-49.54"/>
</a>
</g>
</g>
<!-- Node3 -->
<g id="Node000003" class="node">
<title>Node3</title>
<g id="a_Node000003"><a xlink:href="classdi_1_1vocab_1_1detail_1_1StatusCodeStorage.html" target="_top" xlink:title=" ">
<polygon fill="white" stroke="#666666" points="304,-30 166,-30 166,0 304,0 304,-30"/>
<text text-anchor="start" x="174" y="-18" font-family="Helvetica,sans-Serif" font-size="10.00">di::vocab::detail::</text>
<text text-anchor="middle" x="235" y="-7" font-family="Helvetica,sans-Serif" font-size="10.00">StatusCodeStorage&lt; T &gt;</text>
</a>
</g>
</g>
<!-- Node0&#45;&gt;Node3 -->
<g id="edge830_Node000000_Node000003" class="edge">
<title>Node0&#45;&gt;Node3</title>
<g id="a_edge830_Node000000_Node000003"><a xlink:title=" ">
<path fill="none" stroke="#63b8ff" d="M132.25,-30.97C143.37,-29.23 154.86,-27.42 165.94,-25.68"/>
<polygon fill="#63b8ff" stroke="#63b8ff" points="131.49,-27.55 122.16,-32.56 132.58,-34.46 131.49,-27.55"/>
</a>
</g>
</g>
<!-- Node2 -->
<g id="Node000002" class="node">
<title>Node2</title>
<g id="a_Node000002"><a xlink:href="classdi_1_1vocab_1_1StatusCode_3_01Erased_3_01T_01_4_01_4.html" target="_top" xlink:title=" ">
<polygon fill="white" stroke="#666666" points="484.5,-84 362.5,-84 362.5,-54 484.5,-54 484.5,-84"/>
<text text-anchor="start" x="370.5" y="-72" font-family="Helvetica,sans-Serif" font-size="10.00">di::vocab::StatusCode</text>
<text text-anchor="middle" x="423.5" y="-61" font-family="Helvetica,sans-Serif" font-size="10.00">&lt; Erased&lt; T &gt; &gt;</text>
</a>
</g>
</g>
<!-- Node1&#45;&gt;Node2 -->
<g id="edge829_Node000001_Node000002" class="edge">
<title>Node1&#45;&gt;Node2</title>
<g id="a_edge829_Node000001_Node000002"><a xlink:title=" ">
<path fill="none" stroke="#63b8ff" d="M322.39,-69C335.89,-69 349.57,-69 362.32,-69"/>
<polygon fill="#63b8ff" stroke="#63b8ff" points="322.13,-65.5 312.13,-69 322.13,-72.5 322.13,-65.5"/>
</a>
</g>
</g>
<!-- Node4 -->
<g id="Node000004" class="node">
<title>Node4</title>
<g id="a_Node000004"><a xlink:href="classdi_1_1vocab_1_1StatusCode_3_01T_01_4.html" target="_top" xlink:title=" ">
<polygon fill="white" stroke="#666666" points="499,-24.5 348,-24.5 348,-5.5 499,-5.5 499,-24.5"/>
<text text-anchor="middle" x="423.5" y="-12.5" font-family="Helvetica,sans-Serif" font-size="10.00">di::vocab::StatusCode&lt; T &gt;</text>
</a>
</g>
</g>
<!-- Node3&#45;&gt;Node4 -->
<g id="edge831_Node000003_Node000004" class="edge">
<title>Node3&#45;&gt;Node4</title>
<g id="a_edge831_Node000003_Node000004"><a xlink:title=" ">
<path fill="none" stroke="#63b8ff" d="M314.27,-15C325.42,-15 336.87,-15 347.96,-15"/>
<polygon fill="#63b8ff" stroke="#63b8ff" points="314.12,-11.5 304.12,-15 314.12,-18.5 314.12,-11.5"/>
</a>
</g>
</g>
</g>
</svg>
