<?xml version="1.0" encoding="UTF-8" standalone="no"?>
<!DOCTYPE svg PUBLIC "-//W3C//DTD SVG 1.1//EN"
 "http://www.w3.org/Graphics/SVG/1.1/DTD/svg11.dtd">
<!-- Generated by graphviz version 2.43.0 (0)
 -->
<!-- Title: Graphical Class Hierarchy Pages: 1 -->
<svg width="361pt" height="1010pt"
 viewBox="0.00 0.00 361.00 1010.00" xmlns="http://www.w3.org/2000/svg" xmlns:xlink="http://www.w3.org/1999/xlink">
<g id="graph0" class="graph" transform="scale(1 1) rotate(0) translate(4 1006)">
<title>Graphical Class Hierarchy</title>
<!-- Node0 -->
<g id="Node000000" class="node">
<title>Node0</title>
<g id="a_Node000000"><a xlink:href="structdi_1_1bit_1_1BitFlag.html" target="_top" xlink:title=" ">
<polygon fill="white" stroke="#666666" points="134,-516.5 0,-516.5 0,-497.5 134,-497.5 134,-516.5"/>
<text text-anchor="middle" x="67" y="-504.5" font-family="Helvetica,sans-Serif" font-size="10.00">di::bit::BitFlag&lt; index &gt;</text>
</a>
</g>
</g>
<!-- Node1 -->
<g id="Node000001" class="node">
<title>Node1</title>
<g id="a_Node000001"><a xlink:href="structiris_1_1x86_1_1amd64_1_1ApicExtendedControlExtendId.html" target="_top" xlink:title=" ">
<polygon fill="white" stroke="#666666" points="345.5,-1002 177.5,-1002 177.5,-972 345.5,-972 345.5,-1002"/>
<text text-anchor="start" x="185.5" y="-990" font-family="Helvetica,sans-Serif" font-size="10.00">iris::x86::amd64::ApicExtended</text>
<text text-anchor="middle" x="261.5" y="-979" font-family="Helvetica,sans-Serif" font-size="10.00">ControlExtendId</text>
</a>
</g>
</g>
<!-- Node0&#45;&gt;Node1 -->
<g id="edge82_Node000000_Node000001" class="edge">
<title>Node0&#45;&gt;Node1</title>
<g id="a_edge82_Node000000_Node000001"><a xlink:title=" ">
<path fill="none" stroke="#63b8ff" d="M69.75,-526.99C77.09,-606.43 107.97,-898.49 170,-963 173.27,-966.4 176.96,-969.33 180.93,-971.87"/>
<polygon fill="#63b8ff" stroke="#63b8ff" points="73.22,-526.52 68.84,-516.87 66.25,-527.14 73.22,-526.52"/>
</a>
</g>
</g>
<!-- Node2 -->
<g id="Node000002" class="node">
<title>Node2</title>
<g id="a_Node000002"><a xlink:href="structiris_1_1x86_1_1amd64_1_1ApicExtendedControlInterruptEnable.html" target="_top" xlink:title=" ">
<polygon fill="white" stroke="#666666" points="345.5,-954 177.5,-954 177.5,-924 345.5,-924 345.5,-954"/>
<text text-anchor="start" x="185.5" y="-942" font-family="Helvetica,sans-Serif" font-size="10.00">iris::x86::amd64::ApicExtended</text>
<text text-anchor="middle" x="261.5" y="-931" font-family="Helvetica,sans-Serif" font-size="10.00">ControlInterruptEnable</text>
</a>
</g>
</g>
<!-- Node0&#45;&gt;Node2 -->
<g id="edge83_Node000000_Node000002" class="edge">
<title>Node0&#45;&gt;Node2</title>
<g id="a_edge83_Node000000_Node000002"><a xlink:title=" ">
<path fill="none" stroke="#63b8ff" d="M70.28,-526.74C79.19,-600.44 113.92,-858.12 170,-915 173.31,-918.36 177.03,-921.26 181.03,-923.77"/>
<polygon fill="#63b8ff" stroke="#63b8ff" points="73.73,-526.07 69.08,-516.55 66.78,-526.9 73.73,-526.07"/>
</a>
</g>
</g>
<!-- Node3 -->
<g id="Node000003" class="node">
<title>Node3</title>
<g id="a_Node000003"><a xlink:href="structiris_1_1x86_1_1amd64_1_1ApicExtendedControlSpecificEoi.html" target="_top" xlink:title=" ">
<polygon fill="white" stroke="#666666" points="345.5,-906 177.5,-906 177.5,-876 345.5,-876 345.5,-906"/>
<text text-anchor="start" x="185.5" y="-894" font-family="Helvetica,sans-Serif" font-size="10.00">iris::x86::amd64::ApicExtended</text>
<text text-anchor="middle" x="261.5" y="-883" font-family="Helvetica,sans-Serif" font-size="10.00">ControlSpecificEoi</text>
</a>
</g>
</g>
<!-- Node0&#45;&gt;Node3 -->
<g id="edge84_Node000000_Node000003" class="edge">
<title>Node0&#45;&gt;Node3</title>
<g id="a_edge84_Node000000_Node000003"><a xlink:title=" ">
<path fill="none" stroke="#63b8ff" d="M67.3,-526.82C66.3,-587.19 71.87,-770.51 170,-867 173.48,-870.42 177.38,-873.37 181.57,-875.91"/>
<polygon fill="#63b8ff" stroke="#63b8ff" points="70.8,-526.82 67.55,-516.74 63.8,-526.65 70.8,-526.82"/>
</a>
</g>
</g>
<!-- Node4 -->
<g id="Node000004" class="node">
<title>Node4</title>
<g id="a_Node000004"><a xlink:href="structiris_1_1x86_1_1amd64_1_1ApicExtendedFeatureExtendedId.html" target="_top" xlink:title=" ">
<polygon fill="white" stroke="#666666" points="345.5,-858 177.5,-858 177.5,-828 345.5,-828 345.5,-858"/>
<text text-anchor="start" x="185.5" y="-846" font-family="Helvetica,sans-Serif" font-size="10.00">iris::x86::amd64::ApicExtended</text>
<text text-anchor="middle" x="261.5" y="-835" font-family="Helvetica,sans-Serif" font-size="10.00">FeatureExtendedId</text>
</a>
</g>
</g>
<!-- Node0&#45;&gt;Node4 -->
<g id="edge85_Node000000_Node000004" class="edge">
<title>Node0&#45;&gt;Node4</title>
<g id="a_edge85_Node000000_Node000004"><a xlink:title=" ">
<path fill="none" stroke="#63b8ff" d="M68.31,-526.69C70.27,-581.52 83.57,-737.34 170,-819 173.66,-822.46 177.77,-825.44 182.15,-827.99"/>
<polygon fill="#63b8ff" stroke="#63b8ff" points="71.8,-526.48 68.04,-516.58 64.81,-526.67 71.8,-526.48"/>
</a>
</g>
</g>
<!-- Node5 -->
<g id="Node000005" class="node">
<title>Node5</title>
<g id="a_Node000005"><a xlink:href="structiris_1_1x86_1_1amd64_1_1ApicExtendedFeatureInterruptEnable.html" target="_top" xlink:title=" ">
<polygon fill="white" stroke="#666666" points="345.5,-810 177.5,-810 177.5,-780 345.5,-780 345.5,-810"/>
<text text-anchor="start" x="185.5" y="-798" font-family="Helvetica,sans-Serif" font-size="10.00">iris::x86::amd64::ApicExtended</text>
<text text-anchor="middle" x="261.5" y="-787" font-family="Helvetica,sans-Serif" font-size="10.00">FeatureInterruptEnable</text>
</a>
</g>
</g>
<!-- Node0&#45;&gt;Node5 -->
<g id="edge86_Node000000_Node000005" class="edge">
<title>Node0&#45;&gt;Node5</title>
<g id="a_edge86_Node000000_Node000005"><a xlink:title=" ">
<path fill="none" stroke="#63b8ff" d="M69.67,-526.88C74.88,-576.01 95.3,-704.06 170,-771 173.75,-774.36 177.92,-777.26 182.36,-779.76"/>
<polygon fill="#63b8ff" stroke="#63b8ff" points="73.12,-526.27 68.69,-516.65 66.16,-526.94 73.12,-526.27"/>
</a>
</g>
</g>
<!-- Node6 -->
<g id="Node000006" class="node">
<title>Node6</title>
<g id="a_Node000006"><a xlink:href="structiris_1_1x86_1_1amd64_1_1ApicExtendedFeatureSpecificEoi.html" target="_top" xlink:title=" ">
<polygon fill="white" stroke="#666666" points="345.5,-762 177.5,-762 177.5,-732 345.5,-732 345.5,-762"/>
<text text-anchor="start" x="185.5" y="-750" font-family="Helvetica,sans-Serif" font-size="10.00">iris::x86::amd64::ApicExtended</text>
<text text-anchor="middle" x="261.5" y="-739" font-family="Helvetica,sans-Serif" font-size="10.00">FeatureSpecificEoi</text>
</a>
</g>
</g>
<!-- Node0&#45;&gt;Node6 -->
<g id="edge87_Node000000_Node000006" class="edge">
<title>Node0&#45;&gt;Node6</title>
<g id="a_edge87_Node000000_Node000006"><a xlink:title=" ">
<path fill="none" stroke="#63b8ff" d="M71.46,-526.37C80.07,-568.76 106.52,-670.13 170,-723 174.12,-726.43 178.68,-729.38 183.51,-731.91"/>
<polygon fill="#63b8ff" stroke="#63b8ff" points="74.89,-525.66 69.57,-516.5 68.01,-526.98 74.89,-525.66"/>
</a>
</g>
</g>
<!-- Node7 -->
<g id="Node000007" class="node">
<title>Node7</title>
<g id="a_Node000007"><a xlink:href="structiris_1_1x86_1_1amd64_1_1ApicExtendedRegisterPresent.html" target="_top" xlink:title=" ">
<polygon fill="white" stroke="#666666" points="345.5,-714 177.5,-714 177.5,-684 345.5,-684 345.5,-714"/>
<text text-anchor="start" x="185.5" y="-702" font-family="Helvetica,sans-Serif" font-size="10.00">iris::x86::amd64::ApicExtended</text>
<text text-anchor="middle" x="261.5" y="-691" font-family="Helvetica,sans-Serif" font-size="10.00">RegisterPresent</text>
</a>
</g>
</g>
<!-- Node0&#45;&gt;Node7 -->
<g id="edge88_Node000000_Node000007" class="edge">
<title>Node0&#45;&gt;Node7</title>
<g id="a_edge88_Node000000_Node000007"><a xlink:title=" ">
<path fill="none" stroke="#63b8ff" d="M74.25,-526.32C86.65,-561.49 117.75,-635.92 170,-675 174.56,-678.41 179.56,-681.33 184.8,-683.84"/>
<polygon fill="#63b8ff" stroke="#63b8ff" points="77.53,-525.09 71,-516.75 70.9,-527.35 77.53,-525.09"/>
</a>
</g>
</g>
<!-- Node8 -->
<g id="Node000008" class="node">
<title>Node8</title>
<g id="a_Node000008"><a xlink:href="structiris_1_1x86_1_1amd64_1_1ApicInterruptCommandDeliveryStatus.html" target="_top" xlink:title=" ">
<polygon fill="white" stroke="#666666" points="343.5,-666 179.5,-666 179.5,-636 343.5,-636 343.5,-666"/>
<text text-anchor="start" x="187.5" y="-654" font-family="Helvetica,sans-Serif" font-size="10.00">iris::x86::amd64::ApicInterrupt</text>
<text text-anchor="middle" x="261.5" y="-643" font-family="Helvetica,sans-Serif" font-size="10.00">CommandDeliveryStatus</text>
</a>
</g>
</g>
<!-- Node0&#45;&gt;Node8 -->
<g id="edge89_Node000000_Node000008" class="edge">
<title>Node0&#45;&gt;Node8</title>
<g id="a_edge89_Node000000_Node000008"><a xlink:title=" ">
<path fill="none" stroke="#63b8ff" d="M78.65,-525.55C94.89,-552.13 128.4,-600.76 170,-627 175.5,-630.47 181.49,-633.44 187.68,-635.98"/>
<polygon fill="#63b8ff" stroke="#63b8ff" points="81.59,-523.64 73.47,-516.83 75.57,-527.22 81.59,-523.64"/>
</a>
</g>
</g>
<!-- Node9 -->
<g id="Node000009" class="node">
<title>Node9</title>
<g id="a_Node000009"><a xlink:href="structiris_1_1x86_1_1amd64_1_1ApicInterruptCommandDestinationMode.html" target="_top" xlink:title=" ">
<polygon fill="white" stroke="#666666" points="343.5,-618 179.5,-618 179.5,-588 343.5,-588 343.5,-618"/>
<text text-anchor="start" x="187.5" y="-606" font-family="Helvetica,sans-Serif" font-size="10.00">iris::x86::amd64::ApicInterrupt</text>
<text text-anchor="middle" x="261.5" y="-595" font-family="Helvetica,sans-Serif" font-size="10.00">CommandDestinationMode</text>
</a>
</g>
</g>
<!-- Node0&#45;&gt;Node9 -->
<g id="edge90_Node000000_Node000009" class="edge">
<title>Node0&#45;&gt;Node9</title>
<g id="a_edge90_Node000000_Node000009"><a xlink:title=" ">
<path fill="none" stroke="#63b8ff" d="M86.6,-523.24C106.13,-539.52 138.35,-564.22 170,-579 177.22,-582.37 184.99,-585.33 192.83,-587.91"/>
<polygon fill="#63b8ff" stroke="#63b8ff" points="88.69,-520.43 78.8,-516.63 84.16,-525.76 88.69,-520.43"/>
</a>
</g>
</g>
<!-- Node10 -->
<g id="Node000010" class="node">
<title>Node10</title>
<g id="a_Node000010"><a xlink:href="structiris_1_1x86_1_1amd64_1_1ApicInterruptCommandLevel.html" target="_top" xlink:title=" ">
<polygon fill="white" stroke="#666666" points="343.5,-570 179.5,-570 179.5,-540 343.5,-540 343.5,-570"/>
<text text-anchor="start" x="187.5" y="-558" font-family="Helvetica,sans-Serif" font-size="10.00">iris::x86::amd64::ApicInterrupt</text>
<text text-anchor="middle" x="261.5" y="-547" font-family="Helvetica,sans-Serif" font-size="10.00">CommandLevel</text>
</a>
</g>
</g>
<!-- Node0&#45;&gt;Node10 -->
<g id="edge91_Node000000_Node000010" class="edge">
<title>Node0&#45;&gt;Node10</title>
<g id="a_edge91_Node000000_Node000010"><a xlink:title=" ">
<path fill="none" stroke="#63b8ff" d="M116.27,-519.04C141.68,-525.37 173.08,-533.2 200.09,-539.94"/>
<polygon fill="#63b8ff" stroke="#63b8ff" points="117.04,-515.62 106.49,-516.6 115.35,-522.41 117.04,-515.62"/>
</a>
</g>
</g>
<!-- Node11 -->
<g id="Node000011" class="node">
<title>Node11</title>
<g id="a_Node000011"><a xlink:href="structiris_1_1x86_1_1amd64_1_1ApicInterruptCommandTriggerMode.html" target="_top" xlink:title=" ">
<polygon fill="white" stroke="#666666" points="343.5,-522 179.5,-522 179.5,-492 343.5,-492 343.5,-522"/>
<text text-anchor="start" x="187.5" y="-510" font-family="Helvetica,sans-Serif" font-size="10.00">iris::x86::amd64::ApicInterrupt</text>
<text text-anchor="middle" x="261.5" y="-499" font-family="Helvetica,sans-Serif" font-size="10.00">CommandTriggerMode</text>
</a>
</g>
</g>
<!-- Node0&#45;&gt;Node11 -->
<g id="edge92_Node000000_Node000011" class="edge">
<title>Node0&#45;&gt;Node11</title>
<g id="a_edge92_Node000000_Node000011"><a xlink:title=" ">
<path fill="none" stroke="#63b8ff" d="M144.29,-507C155.86,-507 167.83,-507 179.49,-507"/>
<polygon fill="#63b8ff" stroke="#63b8ff" points="144.25,-503.5 134.25,-507 144.25,-510.5 144.25,-503.5"/>
</a>
</g>
</g>
<!-- Node12 -->
<g id="Node000012" class="node">
<title>Node12</title>
<g id="a_Node000012"><a xlink:href="structiris_1_1x86_1_1amd64_1_1ApicLvtEntryDeliveryStatus.html" target="_top" xlink:title=" ">
<polygon fill="white" stroke="#666666" points="330,-474 193,-474 193,-444 330,-444 330,-474"/>
<text text-anchor="start" x="201" y="-462" font-family="Helvetica,sans-Serif" font-size="10.00">iris::x86::amd64::ApicLvt</text>
<text text-anchor="middle" x="261.5" y="-451" font-family="Helvetica,sans-Serif" font-size="10.00">EntryDeliveryStatus</text>
</a>
</g>
</g>
<!-- Node0&#45;&gt;Node12 -->
<g id="edge93_Node000000_Node000012" class="edge">
<title>Node0&#45;&gt;Node12</title>
<g id="a_edge93_Node000000_Node000012"><a xlink:title=" ">
<path fill="none" stroke="#63b8ff" d="M116.27,-494.96C141.68,-488.63 173.08,-480.8 200.09,-474.06"/>
<polygon fill="#63b8ff" stroke="#63b8ff" points="115.35,-491.59 106.49,-497.4 117.04,-498.38 115.35,-491.59"/>
</a>
</g>
</g>
<!-- Node13 -->
<g id="Node000013" class="node">
<title>Node13</title>
<g id="a_Node000013"><a xlink:href="structiris_1_1x86_1_1amd64_1_1ApicLvtEntryMask.html" target="_top" xlink:title=" ">
<polygon fill="white" stroke="#666666" points="330,-426 193,-426 193,-396 330,-396 330,-426"/>
<text text-anchor="start" x="201" y="-414" font-family="Helvetica,sans-Serif" font-size="10.00">iris::x86::amd64::ApicLvt</text>
<text text-anchor="middle" x="261.5" y="-403" font-family="Helvetica,sans-Serif" font-size="10.00">EntryMask</text>
</a>
</g>
</g>
<!-- Node0&#45;&gt;Node13 -->
<g id="edge94_Node000000_Node000013" class="edge">
<title>Node0&#45;&gt;Node13</title>
<g id="a_edge94_Node000000_Node000013"><a xlink:title=" ">
<path fill="none" stroke="#63b8ff" d="M86.6,-490.76C106.13,-474.48 138.35,-449.78 170,-435 177.22,-431.63 184.99,-428.67 192.83,-426.09"/>
<polygon fill="#63b8ff" stroke="#63b8ff" points="84.16,-488.24 78.8,-497.37 88.69,-493.57 84.16,-488.24"/>
</a>
</g>
</g>
<!-- Node14 -->
<g id="Node000014" class="node">
<title>Node14</title>
<g id="a_Node000014"><a xlink:href="structiris_1_1x86_1_1amd64_1_1ApicLvtEntryRemoteIrr.html" target="_top" xlink:title=" ">
<polygon fill="white" stroke="#666666" points="330,-378 193,-378 193,-348 330,-348 330,-378"/>
<text text-anchor="start" x="201" y="-366" font-family="Helvetica,sans-Serif" font-size="10.00">iris::x86::amd64::ApicLvt</text>
<text text-anchor="middle" x="261.5" y="-355" font-family="Helvetica,sans-Serif" font-size="10.00">EntryRemoteIrr</text>
</a>
</g>
</g>
<!-- Node0&#45;&gt;Node14 -->
<g id="edge95_Node000000_Node000014" class="edge">
<title>Node0&#45;&gt;Node14</title>
<g id="a_edge95_Node000000_Node000014"><a xlink:title=" ">
<path fill="none" stroke="#63b8ff" d="M78.65,-488.45C94.89,-461.87 128.4,-413.24 170,-387 177.01,-382.58 184.82,-378.96 192.83,-376.01"/>
<polygon fill="#63b8ff" stroke="#63b8ff" points="75.57,-486.78 73.47,-497.17 81.59,-490.36 75.57,-486.78"/>
</a>
</g>
</g>
<!-- Node15 -->
<g id="Node000015" class="node">
<title>Node15</title>
<g id="a_Node000015"><a xlink:href="structiris_1_1x86_1_1amd64_1_1ApicLvtEntryTimerMode.html" target="_top" xlink:title=" ">
<polygon fill="white" stroke="#666666" points="330,-330 193,-330 193,-300 330,-300 330,-330"/>
<text text-anchor="start" x="201" y="-318" font-family="Helvetica,sans-Serif" font-size="10.00">iris::x86::amd64::ApicLvt</text>
<text text-anchor="middle" x="261.5" y="-307" font-family="Helvetica,sans-Serif" font-size="10.00">EntryTimerMode</text>
</a>
</g>
</g>
<!-- Node0&#45;&gt;Node15 -->
<g id="edge96_Node000000_Node000015" class="edge">
<title>Node0&#45;&gt;Node15</title>
<g id="a_edge96_Node000000_Node000015"><a xlink:title=" ">
<path fill="none" stroke="#63b8ff" d="M74.25,-487.68C86.65,-452.51 117.75,-378.08 170,-339 176.77,-333.94 184.52,-329.94 192.58,-326.79"/>
<polygon fill="#63b8ff" stroke="#63b8ff" points="70.9,-486.65 71,-497.25 77.53,-488.91 70.9,-486.65"/>
</a>
</g>
</g>
<!-- Node16 -->
<g id="Node000016" class="node">
<title>Node16</title>
<g id="a_Node000016"><a xlink:href="structiris_1_1x86_1_1amd64_1_1ApicLvtEntryTriggerMode.html" target="_top" xlink:title=" ">
<polygon fill="white" stroke="#666666" points="330,-282 193,-282 193,-252 330,-252 330,-282"/>
<text text-anchor="start" x="201" y="-270" font-family="Helvetica,sans-Serif" font-size="10.00">iris::x86::amd64::ApicLvt</text>
<text text-anchor="middle" x="261.5" y="-259" font-family="Helvetica,sans-Serif" font-size="10.00">EntryTriggerMode</text>
</a>
</g>
</g>
<!-- Node0&#45;&gt;Node16 -->
<g id="edge97_Node000000_Node000016" class="edge">
<title>Node0&#45;&gt;Node16</title>
<g id="a_edge97_Node000000_Node000016"><a xlink:title=" ">
<path fill="none" stroke="#63b8ff" d="M71.46,-487.63C80.07,-445.24 106.52,-343.87 170,-291 176.74,-285.38 184.67,-281.07 192.98,-277.75"/>
<polygon fill="#63b8ff" stroke="#63b8ff" points="68.01,-487.02 69.57,-497.5 74.89,-488.34 68.01,-487.02"/>
</a>
</g>
</g>
<!-- Node17 -->
<g id="Node000017" class="node">
<title>Node17</title>
<g id="a_Node000017"><a xlink:href="structiris_1_1x86_1_1amd64_1_1IoApicRedirectionTableEntryDeliveryStatus.html" target="_top" xlink:title=" ">
<polygon fill="white" stroke="#666666" points="343.5,-233.5 179.5,-233.5 179.5,-192.5 343.5,-192.5 343.5,-233.5"/>
<text text-anchor="start" x="187.5" y="-221.5" font-family="Helvetica,sans-Serif" font-size="10.00">iris::x86::amd64::IoApic</text>
<text text-anchor="start" x="187.5" y="-210.5" font-family="Helvetica,sans-Serif" font-size="10.00">RedirectionTableEntryDelivery</text>
<text text-anchor="middle" x="261.5" y="-199.5" font-family="Helvetica,sans-Serif" font-size="10.00">Status</text>
</a>
</g>
</g>
<!-- Node0&#45;&gt;Node17 -->
<g id="edge98_Node000000_Node000017" class="edge">
<title>Node0&#45;&gt;Node17</title>
<g id="a_edge98_Node000000_Node000017"><a xlink:title=" ">
<path fill="none" stroke="#63b8ff" d="M69.92,-487.4C75.72,-438.9 97.37,-312.18 170,-243 173.72,-239.46 177.86,-236.34 182.27,-233.59"/>
<polygon fill="#63b8ff" stroke="#63b8ff" points="66.43,-487.17 68.81,-497.49 73.38,-487.93 66.43,-487.17"/>
</a>
</g>
</g>
<!-- Node18 -->
<g id="Node000018" class="node">
<title>Node18</title>
<g id="a_Node000018"><a xlink:href="structiris_1_1x86_1_1amd64_1_1IoApicRedirectionTableEntryMask.html" target="_top" xlink:title=" ">
<polygon fill="white" stroke="#666666" points="336,-174 187,-174 187,-144 336,-144 336,-174"/>
<text text-anchor="start" x="195" y="-162" font-family="Helvetica,sans-Serif" font-size="10.00">iris::x86::amd64::IoApic</text>
<text text-anchor="middle" x="261.5" y="-151" font-family="Helvetica,sans-Serif" font-size="10.00">RedirectionTableEntryMask</text>
</a>
</g>
</g>
<!-- Node0&#45;&gt;Node18 -->
<g id="edge99_Node000000_Node000018" class="edge">
<title>Node0&#45;&gt;Node18</title>
<g id="a_edge99_Node000000_Node000018"><a xlink:title=" ">
<path fill="none" stroke="#63b8ff" d="M68.1,-487.06C69.51,-430.8 81.48,-269.36 170,-184 174.93,-179.25 180.68,-175.38 186.84,-172.24"/>
<polygon fill="#63b8ff" stroke="#63b8ff" points="64.6,-487.35 67.94,-497.41 71.6,-487.46 64.6,-487.35"/>
</a>
</g>
</g>
<!-- Node19 -->
<g id="Node000019" class="node">
<title>Node19</title>
<g id="a_Node000019"><a xlink:href="structiris_1_1x86_1_1amd64_1_1IoApicRedirectionTableEntryPolarity.html" target="_top" xlink:title=" ">
<polygon fill="white" stroke="#666666" points="342,-126 181,-126 181,-96 342,-96 342,-126"/>
<text text-anchor="start" x="189" y="-114" font-family="Helvetica,sans-Serif" font-size="10.00">iris::x86::amd64::IoApic</text>
<text text-anchor="middle" x="261.5" y="-103" font-family="Helvetica,sans-Serif" font-size="10.00">RedirectionTableEntryPolarity</text>
</a>
</g>
</g>
<!-- Node0&#45;&gt;Node19 -->
<g id="edge100_Node000000_Node000019" class="edge">
<title>Node0&#45;&gt;Node19</title>
<g id="a_edge100_Node000000_Node000019"><a xlink:title=" ">
<path fill="none" stroke="#63b8ff" d="M70.8,-487.22C81.02,-417.72 118.43,-186.14 170,-135 173.46,-131.57 177.36,-128.61 181.53,-126.06"/>
<polygon fill="#63b8ff" stroke="#63b8ff" points="67.31,-486.86 69.35,-497.26 74.24,-487.86 67.31,-486.86"/>
</a>
</g>
</g>
<!-- Node20 -->
<g id="Node000020" class="node">
<title>Node20</title>
<g id="a_Node000020"><a xlink:href="structiris_1_1x86_1_1amd64_1_1IoApicRedirectionTableEntryRemoteIrr.html" target="_top" xlink:title=" ">
<polygon fill="white" stroke="#666666" points="347.5,-78 175.5,-78 175.5,-48 347.5,-48 347.5,-78"/>
<text text-anchor="start" x="183.5" y="-66" font-family="Helvetica,sans-Serif" font-size="10.00">iris::x86::amd64::IoApic</text>
<text text-anchor="middle" x="261.5" y="-55" font-family="Helvetica,sans-Serif" font-size="10.00">RedirectionTableEntryRemoteIrr</text>
</a>
</g>
</g>
<!-- Node0&#45;&gt;Node20 -->
<g id="edge101_Node000000_Node000020" class="edge">
<title>Node0&#45;&gt;Node20</title>
<g id="a_edge101_Node000000_Node000020"><a xlink:title=" ">
<path fill="none" stroke="#63b8ff" d="M70.15,-487.15C78.66,-411.93 112.45,-145.77 170,-87 173.3,-83.63 177.01,-80.72 181,-78.2"/>
<polygon fill="#63b8ff" stroke="#63b8ff" points="66.66,-486.84 69.03,-497.17 73.61,-487.61 66.66,-486.84"/>
</a>
</g>
</g>
<!-- Node21 -->
<g id="Node000021" class="node">
<title>Node21</title>
<g id="a_Node000021"><a xlink:href="structiris_1_1x86_1_1amd64_1_1IoApicRedirectionTableEntryTriggerMode.html" target="_top" xlink:title=" ">
<polygon fill="white" stroke="#666666" points="353,-30 170,-30 170,0 353,0 353,-30"/>
<text text-anchor="start" x="178" y="-18" font-family="Helvetica,sans-Serif" font-size="10.00">iris::x86::amd64::IoApic</text>
<text text-anchor="middle" x="261.5" y="-7" font-family="Helvetica,sans-Serif" font-size="10.00">RedirectionTableEntryTriggerMode</text>
</a>
</g>
</g>
<!-- Node0&#45;&gt;Node21 -->
<g id="edge102_Node000000_Node000021" class="edge">
<title>Node0&#45;&gt;Node21</title>
<g id="a_edge102_Node000000_Node000021"><a xlink:title=" ">
<path fill="none" stroke="#63b8ff" d="M69.63,-487.01C76.58,-406.28 106.45,-105.45 170,-39 173.26,-35.59 176.94,-32.65 180.91,-30.11"/>
<polygon fill="#63b8ff" stroke="#63b8ff" points="66.11,-487.01 68.76,-497.27 73.09,-487.6 66.11,-487.01"/>
</a>
</g>
</g>
</g>
</svg>
