<?xml version="1.0" encoding="UTF-8" standalone="no"?>
<!DOCTYPE svg PUBLIC "-//W3C//DTD SVG 1.1//EN"
 "http://www.w3.org/Graphics/SVG/1.1/DTD/svg11.dtd">
<!-- Generated by graphviz version 2.43.0 (0)
 -->
<!-- Title: Graphical Class Hierarchy Pages: 1 -->
<svg width="333pt" height="108pt"
 viewBox="0.00 0.00 333.00 108.00" xmlns="http://www.w3.org/2000/svg" xmlns:xlink="http://www.w3.org/1999/xlink">
<g id="graph0" class="graph" transform="scale(1 1) rotate(0) translate(4 104)">
<title>Graphical Class Hierarchy</title>
<!-- Node0 -->
<g id="Node000000" class="node">
<title>Node0</title>
<g id="a_Node000000"><a xlink:href="structdi_1_1meta_1_1TypeConstant.html" target="_top" xlink:title=" ">
<polygon fill="white" stroke="#666666" points="130,-64.5 0,-64.5 0,-34.5 130,-34.5 130,-64.5"/>
<text text-anchor="start" x="8" y="-52.5" font-family="Helvetica,sans-Serif" font-size="10.00">di::meta::TypeConstant</text>
<text text-anchor="middle" x="65" y="-41.5" font-family="Helvetica,sans-Serif" font-size="10.00">&lt; meta::Decay&lt; T &gt; &gt;</text>
</a>
</g>
</g>
<!-- Node1 -->
<g id="Node000001" class="node">
<title>Node1</title>
<g id="a_Node000001"><a xlink:href="structdi_1_1execution_1_1into__result__ns_1_1ResultTypeConcatImplHelper_3_01T_01_4.html" target="_top" xlink:title=" ">
<polygon fill="white" stroke="#666666" points="325,-100 166,-100 166,-59 325,-59 325,-100"/>
<text text-anchor="start" x="174" y="-88" font-family="Helvetica,sans-Serif" font-size="10.00">di::execution::into</text>
<text text-anchor="start" x="174" y="-77" font-family="Helvetica,sans-Serif" font-size="10.00">_result_ns::ResultTypeConcat</text>
<text text-anchor="middle" x="245.5" y="-66" font-family="Helvetica,sans-Serif" font-size="10.00">ImplHelper&lt; T &gt;</text>
</a>
</g>
</g>
<!-- Node0&#45;&gt;Node1 -->
<g id="edge476_Node000000_Node000001" class="edge">
<title>Node0&#45;&gt;Node1</title>
<g id="a_edge476_Node000000_Node000001"><a xlink:title=" ">
<path fill="none" stroke="#63b8ff" d="M140.1,-61.95C148.63,-63.39 157.35,-64.85 165.94,-66.3"/>
<polygon fill="#63b8ff" stroke="#63b8ff" points="140.63,-58.49 130.19,-60.29 139.47,-65.4 140.63,-58.49"/>
</a>
</g>
</g>
<!-- Node2 -->
<g id="Node000002" class="node">
<title>Node2</title>
<g id="a_Node000002"><a xlink:href="structdi_1_1execution_1_1into__result__ns_1_1ResultTypeImplHelper_3_01T_01_4.html" target="_top" xlink:title=" ">
<polygon fill="white" stroke="#666666" points="319,-41 172,-41 172,0 319,0 319,-41"/>
<text text-anchor="start" x="180" y="-29" font-family="Helvetica,sans-Serif" font-size="10.00">di::execution::into</text>
<text text-anchor="start" x="180" y="-18" font-family="Helvetica,sans-Serif" font-size="10.00">_result_ns::ResultTypeImpl</text>
<text text-anchor="middle" x="245.5" y="-7" font-family="Helvetica,sans-Serif" font-size="10.00">Helper&lt; T &gt;</text>
</a>
</g>
</g>
<!-- Node0&#45;&gt;Node2 -->
<g id="edge477_Node000000_Node000002" class="edge">
<title>Node0&#45;&gt;Node2</title>
<g id="a_edge477_Node000000_Node000002"><a xlink:title=" ">
<path fill="none" stroke="#63b8ff" d="M140.12,-37.46C150.59,-35.76 161.35,-34.01 171.79,-32.31"/>
<polygon fill="#63b8ff" stroke="#63b8ff" points="139.5,-34.01 130.19,-39.07 140.62,-40.92 139.5,-34.01"/>
</a>
</g>
</g>
</g>
</svg>
