<?xml version="1.0" encoding="UTF-8" standalone="no"?>
<!DOCTYPE svg PUBLIC "-//W3C//DTD SVG 1.1//EN"
 "http://www.w3.org/Graphics/SVG/1.1/DTD/svg11.dtd">
<!-- Generated by graphviz version 2.43.0 (0)
 -->
<!-- Title: Graphical Class Hierarchy Pages: 1 -->
<svg width="552pt" height="248pt"
 viewBox="0.00 0.00 552.00 248.00" xmlns="http://www.w3.org/2000/svg" xmlns:xlink="http://www.w3.org/1999/xlink">
<g id="graph0" class="graph" transform="scale(1 1) rotate(0) translate(4 244)">
<title>Graphical Class Hierarchy</title>
<!-- Node0 -->
<g id="Node000000" class="node">
<title>Node0</title>
<g id="a_Node000000"><a xlink:href="classdi_1_1container_1_1string_1_1ConstantStringInterface.html" target="_top" xlink:title=" ">
<polygon fill="white" stroke="#666666" points="138,-107.5 0,-107.5 0,-66.5 138,-66.5 138,-107.5"/>
<text text-anchor="start" x="8" y="-95.5" font-family="Helvetica,sans-Serif" font-size="10.00">di::container::string</text>
<text text-anchor="start" x="8" y="-84.5" font-family="Helvetica,sans-Serif" font-size="10.00">::ConstantStringInterface</text>
<text text-anchor="middle" x="69" y="-73.5" font-family="Helvetica,sans-Serif" font-size="10.00">&lt; Self, Enc &gt;</text>
</a>
</g>
</g>
<!-- Node1 -->
<g id="Node000001" class="node">
<title>Node1</title>
<g id="a_Node000001"><a xlink:href="classdi_1_1container_1_1string_1_1MutableStringInterface.html" target="_top" xlink:title=" ">
<polygon fill="white" stroke="#666666" points="315,-146 174,-146 174,-94 315,-94 315,-146"/>
<text text-anchor="start" x="182" y="-134" font-family="Helvetica,sans-Serif" font-size="10.00">di::container::string</text>
<text text-anchor="start" x="182" y="-123" font-family="Helvetica,sans-Serif" font-size="10.00">::MutableStringInterface</text>
<text text-anchor="start" x="182" y="-112" font-family="Helvetica,sans-Serif" font-size="10.00">&lt; StringImpl&lt; Enc, Vec &gt;</text>
<text text-anchor="middle" x="244.5" y="-101" font-family="Helvetica,sans-Serif" font-size="10.00">, Enc &gt;</text>
</a>
</g>
</g>
<!-- Node0&#45;&gt;Node1 -->
<g id="edge233_Node000000_Node000001" class="edge">
<title>Node0&#45;&gt;Node1</title>
<g id="a_edge233_Node000000_Node000001"><a xlink:title=" ">
<path fill="none" stroke="#63b8ff" d="M148.1,-101.85C156.7,-103.49 165.42,-105.15 173.91,-106.76"/>
<polygon fill="#63b8ff" stroke="#63b8ff" points="148.55,-98.38 138.07,-99.95 147.24,-105.25 148.55,-98.38"/>
</a>
</g>
</g>
<!-- Node6 -->
<g id="Node000006" class="node">
<title>Node6</title>
<g id="a_Node000006"><a xlink:href="classdi_1_1container_1_1string_1_1MutableStringInterface.html" target="_top" xlink:title=" ">
<polygon fill="white" stroke="#666666" points="311.5,-75.5 177.5,-75.5 177.5,-34.5 311.5,-34.5 311.5,-75.5"/>
<text text-anchor="start" x="185.5" y="-63.5" font-family="Helvetica,sans-Serif" font-size="10.00">di::container::string</text>
<text text-anchor="start" x="185.5" y="-52.5" font-family="Helvetica,sans-Serif" font-size="10.00">::MutableStringInterface</text>
<text text-anchor="middle" x="244.5" y="-41.5" font-family="Helvetica,sans-Serif" font-size="10.00">&lt; Self, Enc &gt;</text>
</a>
</g>
</g>
<!-- Node0&#45;&gt;Node6 -->
<g id="edge238_Node000000_Node000006" class="edge">
<title>Node0&#45;&gt;Node6</title>
<g id="a_edge238_Node000000_Node000006"><a xlink:title=" ">
<path fill="none" stroke="#63b8ff" d="M148.15,-72.59C157.9,-70.79 167.79,-68.96 177.33,-67.2"/>
<polygon fill="#63b8ff" stroke="#63b8ff" points="147.27,-69.19 138.07,-74.44 148.54,-76.07 147.27,-69.19"/>
</a>
</g>
</g>
<!-- Node2 -->
<g id="Node000002" class="node">
<title>Node2</title>
<g id="a_Node000002"><a xlink:href="classdi_1_1container_1_1string_1_1StringImpl.html" target="_top" xlink:title=" ">
<polygon fill="white" stroke="#666666" points="544,-240 351,-240 351,-188 544,-188 544,-240"/>
<text text-anchor="start" x="359" y="-228" font-family="Helvetica,sans-Serif" font-size="10.00">di::container::string</text>
<text text-anchor="start" x="359" y="-217" font-family="Helvetica,sans-Serif" font-size="10.00">::StringImpl&lt; Enc, container</text>
<text text-anchor="start" x="359" y="-206" font-family="Helvetica,sans-Serif" font-size="10.00">::StaticVector&lt; meta::EncodingCode</text>
<text text-anchor="middle" x="447.5" y="-195" font-family="Helvetica,sans-Serif" font-size="10.00">Unit&lt; Enc &gt;, SizeConstant &gt; &gt;</text>
</a>
</g>
</g>
<!-- Node1&#45;&gt;Node2 -->
<g id="edge234_Node000001_Node000002" class="edge">
<title>Node1&#45;&gt;Node2</title>
<g id="a_edge234_Node000001_Node000002"><a xlink:title=" ">
<path fill="none" stroke="#63b8ff" d="M297.65,-151.32C314.4,-160.79 333.22,-170.83 351,-179 357.66,-182.06 364.67,-185.05 371.74,-187.9"/>
<polygon fill="#63b8ff" stroke="#63b8ff" points="299,-148.06 288.58,-146.13 295.52,-154.13 299,-148.06"/>
</a>
</g>
</g>
<!-- Node3 -->
<g id="Node000003" class="node">
<title>Node3</title>
<g id="a_Node000003"><a xlink:href="classdi_1_1container_1_1string_1_1StringImpl.html" target="_top" xlink:title=" ">
<polygon fill="white" stroke="#666666" points="504,-170 391,-170 391,-140 504,-140 504,-170"/>
<text text-anchor="start" x="399" y="-158" font-family="Helvetica,sans-Serif" font-size="10.00">di::container::string</text>
<text text-anchor="middle" x="447.5" y="-147" font-family="Helvetica,sans-Serif" font-size="10.00">::StringImpl&lt; Enc &gt;</text>
</a>
</g>
</g>
<!-- Node1&#45;&gt;Node3 -->
<g id="edge235_Node000001_Node000003" class="edge">
<title>Node1&#45;&gt;Node3</title>
<g id="a_edge235_Node000001_Node000003"><a xlink:title=" ">
<path fill="none" stroke="#63b8ff" d="M325.21,-133.88C347.18,-137.71 370.53,-141.77 390.81,-145.3"/>
<polygon fill="#63b8ff" stroke="#63b8ff" points="325.69,-130.41 315.24,-132.14 324.49,-137.31 325.69,-130.41"/>
</a>
</g>
</g>
<!-- Node4 -->
<g id="Node000004" class="node">
<title>Node4</title>
<g id="a_Node000004"><a xlink:href="classdi_1_1container_1_1string_1_1StringImpl.html" target="_top" xlink:title=" ">
<polygon fill="white" stroke="#666666" points="528,-122 367,-122 367,-48 528,-48 528,-122"/>
<text text-anchor="start" x="375" y="-110" font-family="Helvetica,sans-Serif" font-size="10.00">di::container::string</text>
<text text-anchor="start" x="375" y="-99" font-family="Helvetica,sans-Serif" font-size="10.00">::StringImpl&lt; di::container</text>
<text text-anchor="start" x="375" y="-88" font-family="Helvetica,sans-Serif" font-size="10.00">::string::TransparentEncoding,</text>
<text text-anchor="start" x="375" y="-77" font-family="Helvetica,sans-Serif" font-size="10.00"> di::container::StaticVector</text>
<text text-anchor="start" x="375" y="-66" font-family="Helvetica,sans-Serif" font-size="10.00">&lt; char, di::meta::Constexpr&lt;</text>
<text text-anchor="middle" x="447.5" y="-55" font-family="Helvetica,sans-Serif" font-size="10.00"> 12zu &gt; &gt; &gt;</text>
</a>
</g>
</g>
<!-- Node1&#45;&gt;Node4 -->
<g id="edge236_Node000001_Node000004" class="edge">
<title>Node1&#45;&gt;Node4</title>
<g id="a_edge236_Node000001_Node000004"><a xlink:title=" ">
<path fill="none" stroke="#63b8ff" d="M325.13,-106.13C338.87,-103.74 353.16,-101.25 366.9,-98.86"/>
<polygon fill="#63b8ff" stroke="#63b8ff" points="324.49,-102.69 315.24,-107.86 325.69,-109.59 324.49,-102.69"/>
</a>
</g>
</g>
<!-- Node5 -->
<g id="Node000005" class="node">
<title>Node5</title>
<g id="a_Node000005"><a xlink:href="classdi_1_1container_1_1string_1_1StringImpl.html" target="_top" xlink:title=" ">
<polygon fill="white" stroke="#666666" points="515.5,-30 379.5,-30 379.5,0 515.5,0 515.5,-30"/>
<text text-anchor="start" x="387.5" y="-18" font-family="Helvetica,sans-Serif" font-size="10.00">di::container::string</text>
<text text-anchor="middle" x="447.5" y="-7" font-family="Helvetica,sans-Serif" font-size="10.00">::StringImpl&lt; Enc, Vec &gt;</text>
</a>
</g>
</g>
<!-- Node1&#45;&gt;Node5 -->
<g id="edge237_Node000001_Node000005" class="edge">
<title>Node1&#45;&gt;Node5</title>
<g id="a_edge237_Node000001_Node000005"><a xlink:title=" ">
<path fill="none" stroke="#63b8ff" d="M310.9,-88.2C312.3,-87.16 313.67,-86.09 315,-85 335.08,-68.54 329.23,-53.15 351,-39 359.6,-33.41 369.41,-29.12 379.4,-25.83"/>
<polygon fill="#63b8ff" stroke="#63b8ff" points="308.82,-85.38 302.58,-93.94 312.8,-91.15 308.82,-85.38"/>
</a>
</g>
</g>
</g>
</svg>
