<?xml version="1.0" encoding="UTF-8" standalone="no"?>
<!DOCTYPE svg PUBLIC "-//W3C//DTD SVG 1.1//EN"
 "http://www.w3.org/Graphics/SVG/1.1/DTD/svg11.dtd">
<!-- Generated by graphviz version 2.43.0 (0)
 -->
<!-- Title: Graphical Class Hierarchy Pages: 1 -->
<svg width="318pt" height="290pt"
 viewBox="0.00 0.00 318.00 290.00" xmlns="http://www.w3.org/2000/svg" xmlns:xlink="http://www.w3.org/1999/xlink">
<g id="graph0" class="graph" transform="scale(1 1) rotate(0) translate(4 286)">
<title>Graphical Class Hierarchy</title>
<!-- Node0 -->
<g id="Node000000" class="node">
<title>Node0</title>
<g id="a_Node000000"><a xlink:href="structdi_1_1meta_1_1TypeConstant.html" target="_top" xlink:title=" ">
<polygon fill="white" stroke="#666666" points="129,-150 0,-150 0,-120 129,-120 129,-150"/>
<text text-anchor="start" x="8" y="-138" font-family="Helvetica,sans-Serif" font-size="10.00">di::meta::TypeConstant</text>
<text text-anchor="middle" x="64.5" y="-127" font-family="Helvetica,sans-Serif" font-size="10.00">&lt; List&lt;&gt; &gt;</text>
</a>
</g>
</g>
<!-- Node1 -->
<g id="Node000001" class="node">
<title>Node1</title>
<g id="a_Node000001"><a xlink:href="structdi_1_1meta_1_1detail_1_1ConcatHelper_3_4.html" target="_top" xlink:title=" ">
<polygon fill="white" stroke="#666666" points="303,-282 172,-282 172,-252 303,-252 303,-282"/>
<text text-anchor="start" x="180" y="-270" font-family="Helvetica,sans-Serif" font-size="10.00">di::meta::detail::Concat</text>
<text text-anchor="middle" x="237.5" y="-259" font-family="Helvetica,sans-Serif" font-size="10.00">Helper&lt;&gt;</text>
</a>
</g>
</g>
<!-- Node0&#45;&gt;Node1 -->
<g id="edge462_Node000000_Node000001" class="edge">
<title>Node0&#45;&gt;Node1</title>
<g id="a_edge462_Node000000_Node000001"><a xlink:title=" ">
<path fill="none" stroke="#63b8ff" d="M81.55,-158.46C99.33,-182.8 130.13,-220.4 165,-243 170.27,-246.42 176.08,-249.4 182.04,-251.99"/>
<polygon fill="#63b8ff" stroke="#63b8ff" points="84.27,-156.25 75.61,-150.15 78.58,-160.32 84.27,-156.25"/>
</a>
</g>
</g>
<!-- Node2 -->
<g id="Node000002" class="node">
<title>Node2</title>
<g id="a_Node000002"><a xlink:href="structdi_1_1meta_1_1detail_1_1GatherSignaturesHelper_3_01Tag_00_01List_3_4_00_01Tup_01_4.html" target="_top" xlink:title=" ">
<polygon fill="white" stroke="#666666" points="303,-233.5 172,-233.5 172,-192.5 303,-192.5 303,-233.5"/>
<text text-anchor="start" x="180" y="-221.5" font-family="Helvetica,sans-Serif" font-size="10.00">di::meta::detail::Gather</text>
<text text-anchor="start" x="180" y="-210.5" font-family="Helvetica,sans-Serif" font-size="10.00">SignaturesHelper&lt; Tag,</text>
<text text-anchor="middle" x="237.5" y="-199.5" font-family="Helvetica,sans-Serif" font-size="10.00"> List&lt;&gt;, Tup &gt;</text>
</a>
</g>
</g>
<!-- Node0&#45;&gt;Node2 -->
<g id="edge463_Node000000_Node000002" class="edge">
<title>Node0&#45;&gt;Node2</title>
<g id="a_edge463_Node000000_Node000002"><a xlink:title=" ">
<path fill="none" stroke="#63b8ff" d="M104.93,-154.6C123.11,-163.5 145.05,-174.01 165,-183 171.87,-186.1 179.16,-189.27 186.35,-192.35"/>
<polygon fill="#63b8ff" stroke="#63b8ff" points="106.31,-151.38 95.79,-150.12 103.22,-157.67 106.31,-151.38"/>
</a>
</g>
</g>
<!-- Node3 -->
<g id="Node000003" class="node">
<title>Node3</title>
<g id="a_Node000003"><a xlink:href="structdi_1_1meta_1_1detail_1_1PopBackHelper.html" target="_top" xlink:title=" ">
<polygon fill="white" stroke="#666666" points="307,-174 168,-174 168,-144 307,-144 307,-174"/>
<text text-anchor="start" x="176" y="-162" font-family="Helvetica,sans-Serif" font-size="10.00">di::meta::detail::PopBack</text>
<text text-anchor="middle" x="237.5" y="-151" font-family="Helvetica,sans-Serif" font-size="10.00">Helper&lt; T &gt;</text>
</a>
</g>
</g>
<!-- Node0&#45;&gt;Node3 -->
<g id="edge464_Node000000_Node000003" class="edge">
<title>Node0&#45;&gt;Node3</title>
<g id="a_edge464_Node000000_Node000003"><a xlink:title=" ">
<path fill="none" stroke="#63b8ff" d="M139.36,-145.37C148.84,-146.7 158.51,-148.05 167.9,-149.37"/>
<polygon fill="#63b8ff" stroke="#63b8ff" points="139.56,-141.86 129.17,-143.94 138.59,-148.79 139.56,-141.86"/>
</a>
</g>
</g>
<!-- Node4 -->
<g id="Node000004" class="node">
<title>Node4</title>
<g id="a_Node000004"><a xlink:href="structdi_1_1meta_1_1detail_1_1PopFrontHelper.html" target="_top" xlink:title=" ">
<polygon fill="white" stroke="#666666" points="307.5,-126 167.5,-126 167.5,-96 307.5,-96 307.5,-126"/>
<text text-anchor="start" x="175.5" y="-114" font-family="Helvetica,sans-Serif" font-size="10.00">di::meta::detail::PopFront</text>
<text text-anchor="middle" x="237.5" y="-103" font-family="Helvetica,sans-Serif" font-size="10.00">Helper&lt; T &gt;</text>
</a>
</g>
</g>
<!-- Node0&#45;&gt;Node4 -->
<g id="edge465_Node000000_Node000004" class="edge">
<title>Node0&#45;&gt;Node4</title>
<g id="a_edge465_Node000000_Node000004"><a xlink:title=" ">
<path fill="none" stroke="#63b8ff" d="M139.2,-124.66C148.54,-123.35 158.06,-122.01 167.32,-120.71"/>
<polygon fill="#63b8ff" stroke="#63b8ff" points="138.59,-121.21 129.17,-126.06 139.56,-128.14 138.59,-121.21"/>
</a>
</g>
</g>
<!-- Node5 -->
<g id="Node000005" class="node">
<title>Node5</title>
<g id="a_Node000005"><a xlink:href="structdi_1_1meta_1_1detail_1_1RepeatHelper_3_01T_00_010_01_4.html" target="_top" xlink:title=" ">
<polygon fill="white" stroke="#666666" points="303,-78 172,-78 172,-48 303,-48 303,-78"/>
<text text-anchor="start" x="180" y="-66" font-family="Helvetica,sans-Serif" font-size="10.00">di::meta::detail::Repeat</text>
<text text-anchor="middle" x="237.5" y="-55" font-family="Helvetica,sans-Serif" font-size="10.00">Helper&lt; T, 0 &gt;</text>
</a>
</g>
</g>
<!-- Node0&#45;&gt;Node5 -->
<g id="edge466_Node000000_Node000005" class="edge">
<title>Node0&#45;&gt;Node5</title>
<g id="a_edge466_Node000000_Node000005"><a xlink:title=" ">
<path fill="none" stroke="#63b8ff" d="M103.17,-115.44C121.57,-106.25 144.18,-95.48 165,-87 172.64,-83.89 180.85,-80.86 188.89,-78.05"/>
<polygon fill="#63b8ff" stroke="#63b8ff" points="101.59,-112.32 94.24,-119.95 104.74,-118.57 101.59,-112.32"/>
</a>
</g>
</g>
<!-- Node6 -->
<g id="Node000006" class="node">
<title>Node6</title>
<g id="a_Node000006"><a xlink:href="structdi_1_1meta_1_1detail_1_1ZipHelper.html" target="_top" xlink:title=" ">
<polygon fill="white" stroke="#666666" points="310,-30 165,-30 165,0 310,0 310,-30"/>
<text text-anchor="start" x="173" y="-18" font-family="Helvetica,sans-Serif" font-size="10.00">di::meta::detail::ZipHelper</text>
<text text-anchor="middle" x="237.5" y="-7" font-family="Helvetica,sans-Serif" font-size="10.00">&lt; T, U &gt;</text>
</a>
</g>
</g>
<!-- Node0&#45;&gt;Node6 -->
<g id="edge467_Node000000_Node000006" class="edge">
<title>Node0&#45;&gt;Node6</title>
<g id="a_edge467_Node000000_Node000006"><a xlink:title=" ">
<path fill="none" stroke="#63b8ff" d="M83.89,-112.15C102.34,-90.57 132.62,-58.66 165,-39 170.6,-35.6 176.73,-32.62 182.99,-30.01"/>
<polygon fill="#63b8ff" stroke="#63b8ff" points="81.16,-109.96 77.41,-119.87 86.52,-114.46 81.16,-109.96"/>
</a>
</g>
</g>
</g>
</svg>
