<?xml version="1.0" encoding="UTF-8" standalone="no"?>
<!DOCTYPE svg PUBLIC "-//W3C//DTD SVG 1.1//EN"
 "http://www.w3.org/Graphics/SVG/1.1/DTD/svg11.dtd">
<!-- Generated by graphviz version 2.43.0 (0)
 -->
<!-- Title: Graphical Class Hierarchy Pages: 1 -->
<svg width="332pt" height="508pt"
 viewBox="0.00 0.00 332.00 508.00" xmlns="http://www.w3.org/2000/svg" xmlns:xlink="http://www.w3.org/1999/xlink">
<g id="graph0" class="graph" transform="scale(1 1) rotate(0) translate(4 504)">
<title>Graphical Class Hierarchy</title>
<!-- Node0 -->
<g id="Node000000" class="node">
<title>Node0</title>
<g id="a_Node000000"><a xlink:href="structdi_1_1bit_1_1BitField.html" target="_top" xlink:title=" ">
<polygon fill="white" stroke="#666666" points="109,-260 0,-260 0,-230 109,-230 109,-260"/>
<text text-anchor="start" x="8" y="-248" font-family="Helvetica,sans-Serif" font-size="10.00">di::bit::BitField&lt;</text>
<text text-anchor="middle" x="54.5" y="-237" font-family="Helvetica,sans-Serif" font-size="10.00"> index, bit_count &gt;</text>
</a>
</g>
</g>
<!-- Node1 -->
<g id="Node000001" class="node">
<title>Node1</title>
<g id="a_Node000001"><a xlink:href="structiris_1_1x86_1_1amd64_1_1ApicExtendedFeatureExtendedLvtCount.html" target="_top" xlink:title=" ">
<polygon fill="white" stroke="#666666" points="318.5,-500 150.5,-500 150.5,-470 318.5,-470 318.5,-500"/>
<text text-anchor="start" x="158.5" y="-488" font-family="Helvetica,sans-Serif" font-size="10.00">iris::x86::amd64::ApicExtended</text>
<text text-anchor="middle" x="234.5" y="-477" font-family="Helvetica,sans-Serif" font-size="10.00">FeatureExtendedLvtCount</text>
</a>
</g>
</g>
<!-- Node0&#45;&gt;Node1 -->
<g id="edge46_Node000000_Node000001" class="edge">
<title>Node0&#45;&gt;Node1</title>
<g id="a_edge46_Node000000_Node000001"><a xlink:title=" ">
<path fill="none" stroke="#63b8ff" d="M58.7,-270.29C65.77,-315.45 86.99,-409.98 145,-461 148.94,-464.47 153.34,-467.44 158.01,-469.99"/>
<polygon fill="#63b8ff" stroke="#63b8ff" points="62.13,-269.57 57.22,-260.18 55.2,-270.58 62.13,-269.57"/>
</a>
</g>
</g>
<!-- Node2 -->
<g id="Node000002" class="node">
<title>Node2</title>
<g id="a_Node000002"><a xlink:href="structiris_1_1x86_1_1amd64_1_1ApicInterruptCommandDestination.html" target="_top" xlink:title=" ">
<polygon fill="white" stroke="#666666" points="316.5,-452 152.5,-452 152.5,-422 316.5,-422 316.5,-452"/>
<text text-anchor="start" x="160.5" y="-440" font-family="Helvetica,sans-Serif" font-size="10.00">iris::x86::amd64::ApicInterrupt</text>
<text text-anchor="middle" x="234.5" y="-429" font-family="Helvetica,sans-Serif" font-size="10.00">CommandDestination</text>
</a>
</g>
</g>
<!-- Node0&#45;&gt;Node2 -->
<g id="edge47_Node000000_Node000002" class="edge">
<title>Node0&#45;&gt;Node2</title>
<g id="a_edge47_Node000000_Node000002"><a xlink:title=" ">
<path fill="none" stroke="#63b8ff" d="M61.98,-270.13C72.82,-307.08 98.2,-375.69 145,-413 149.36,-416.47 154.18,-419.45 159.25,-421.99"/>
<polygon fill="#63b8ff" stroke="#63b8ff" points="65.26,-268.86 59.19,-260.18 58.52,-270.75 65.26,-268.86"/>
</a>
</g>
</g>
<!-- Node3 -->
<g id="Node000003" class="node">
<title>Node3</title>
<g id="a_Node000003"><a xlink:href="structiris_1_1x86_1_1amd64_1_1ApicInterruptCommandRemoteReadStatus.html" target="_top" xlink:title=" ">
<polygon fill="white" stroke="#666666" points="316.5,-404 152.5,-404 152.5,-374 316.5,-374 316.5,-404"/>
<text text-anchor="start" x="160.5" y="-392" font-family="Helvetica,sans-Serif" font-size="10.00">iris::x86::amd64::ApicInterrupt</text>
<text text-anchor="middle" x="234.5" y="-381" font-family="Helvetica,sans-Serif" font-size="10.00">CommandRemoteReadStatus</text>
</a>
</g>
</g>
<!-- Node0&#45;&gt;Node3 -->
<g id="edge48_Node000000_Node000003" class="edge">
<title>Node0&#45;&gt;Node3</title>
<g id="a_edge48_Node000000_Node000003"><a xlink:title=" ">
<path fill="none" stroke="#63b8ff" d="M67.11,-269C81.58,-296.35 108.86,-340.42 145,-365 150,-368.4 155.47,-371.32 161.15,-373.83"/>
<polygon fill="#63b8ff" stroke="#63b8ff" points="70.22,-267.38 62.54,-260.08 63.99,-270.58 70.22,-267.38"/>
</a>
</g>
</g>
<!-- Node4 -->
<g id="Node000004" class="node">
<title>Node4</title>
<g id="a_Node000004"><a xlink:href="structiris_1_1x86_1_1amd64_1_1ApicInterruptCommandVector.html" target="_top" xlink:title=" ">
<polygon fill="white" stroke="#666666" points="316.5,-356 152.5,-356 152.5,-326 316.5,-326 316.5,-356"/>
<text text-anchor="start" x="160.5" y="-344" font-family="Helvetica,sans-Serif" font-size="10.00">iris::x86::amd64::ApicInterrupt</text>
<text text-anchor="middle" x="234.5" y="-333" font-family="Helvetica,sans-Serif" font-size="10.00">CommandVector</text>
</a>
</g>
</g>
<!-- Node0&#45;&gt;Node4 -->
<g id="edge49_Node000000_Node000004" class="edge">
<title>Node0&#45;&gt;Node4</title>
<g id="a_edge49_Node000000_Node000004"><a xlink:title=" ">
<path fill="none" stroke="#63b8ff" d="M77.54,-267.11C94.61,-283.08 119.57,-304.05 145,-317 151.67,-320.4 158.87,-323.35 166.18,-325.92"/>
<polygon fill="#63b8ff" stroke="#63b8ff" points="79.92,-264.54 70.27,-260.16 75.08,-269.6 79.92,-264.54"/>
</a>
</g>
</g>
<!-- Node5 -->
<g id="Node000005" class="node">
<title>Node5</title>
<g id="a_Node000005"><a xlink:href="structiris_1_1x86_1_1amd64_1_1ApicLvtEntryVector.html" target="_top" xlink:title=" ">
<polygon fill="white" stroke="#666666" points="303,-308 166,-308 166,-278 303,-278 303,-308"/>
<text text-anchor="start" x="174" y="-296" font-family="Helvetica,sans-Serif" font-size="10.00">iris::x86::amd64::ApicLvt</text>
<text text-anchor="middle" x="234.5" y="-285" font-family="Helvetica,sans-Serif" font-size="10.00">EntryVector</text>
</a>
</g>
</g>
<!-- Node0&#45;&gt;Node5 -->
<g id="edge50_Node000000_Node000005" class="edge">
<title>Node0&#45;&gt;Node5</title>
<g id="a_edge50_Node000000_Node000005"><a xlink:title=" ">
<path fill="none" stroke="#63b8ff" d="M119.2,-262.18C138.3,-267.33 159.09,-272.93 177.64,-277.94"/>
<polygon fill="#63b8ff" stroke="#63b8ff" points="119.96,-258.76 109.39,-259.53 118.13,-265.51 119.96,-258.76"/>
</a>
</g>
</g>
<!-- Node6 -->
<g id="Node000006" class="node">
<title>Node6</title>
<g id="a_Node000006"><a xlink:href="structiris_1_1x86_1_1amd64_1_1ApicMaxLvtEntry.html" target="_top" xlink:title=" ">
<polygon fill="white" stroke="#666666" points="306,-260 163,-260 163,-230 306,-230 306,-260"/>
<text text-anchor="start" x="171" y="-248" font-family="Helvetica,sans-Serif" font-size="10.00">iris::x86::amd64::ApicMax</text>
<text text-anchor="middle" x="234.5" y="-237" font-family="Helvetica,sans-Serif" font-size="10.00">LvtEntry</text>
</a>
</g>
</g>
<!-- Node0&#45;&gt;Node6 -->
<g id="edge51_Node000000_Node000006" class="edge">
<title>Node0&#45;&gt;Node6</title>
<g id="a_edge51_Node000000_Node000006"><a xlink:title=" ">
<path fill="none" stroke="#63b8ff" d="M119.43,-245C133.46,-245 148.4,-245 162.69,-245"/>
<polygon fill="#63b8ff" stroke="#63b8ff" points="119.39,-241.5 109.39,-245 119.39,-248.5 119.39,-241.5"/>
</a>
</g>
</g>
<!-- Node7 -->
<g id="Node000007" class="node">
<title>Node7</title>
<g id="a_Node000007"><a xlink:href="structiris_1_1x86_1_1amd64_1_1ApicVersion.html" target="_top" xlink:title=" ">
<polygon fill="white" stroke="#666666" points="313.5,-211.5 155.5,-211.5 155.5,-192.5 313.5,-192.5 313.5,-211.5"/>
<text text-anchor="middle" x="234.5" y="-199.5" font-family="Helvetica,sans-Serif" font-size="10.00">iris::x86::amd64::ApicVersion</text>
</a>
</g>
</g>
<!-- Node0&#45;&gt;Node7 -->
<g id="edge52_Node000000_Node000007" class="edge">
<title>Node0&#45;&gt;Node7</title>
<g id="a_edge52_Node000000_Node000007"><a xlink:title=" ">
<path fill="none" stroke="#63b8ff" d="M119.07,-227.53C127.77,-225.26 136.59,-223.03 145,-221 158.6,-217.72 173.44,-214.42 187.01,-211.52"/>
<polygon fill="#63b8ff" stroke="#63b8ff" points="118.12,-224.16 109.34,-230.09 119.9,-230.93 118.12,-224.16"/>
</a>
</g>
</g>
<!-- Node8 -->
<g id="Node000008" class="node">
<title>Node8</title>
<g id="a_Node000008"><a xlink:href="structiris_1_1x86_1_1amd64_1_1IoApicMaxRedirectionEntry.html" target="_top" xlink:title=" ">
<polygon fill="white" stroke="#666666" points="300,-174 169,-174 169,-144 300,-144 300,-174"/>
<text text-anchor="start" x="177" y="-162" font-family="Helvetica,sans-Serif" font-size="10.00">iris::x86::amd64::IoApic</text>
<text text-anchor="middle" x="234.5" y="-151" font-family="Helvetica,sans-Serif" font-size="10.00">MaxRedirectionEntry</text>
</a>
</g>
</g>
<!-- Node0&#45;&gt;Node8 -->
<g id="edge53_Node000000_Node000008" class="edge">
<title>Node0&#45;&gt;Node8</title>
<g id="a_edge53_Node000000_Node000008"><a xlink:title=" ">
<path fill="none" stroke="#63b8ff" d="M82.33,-223.32C99.42,-210.39 122.51,-194.5 145,-184 153.1,-180.22 161.89,-176.89 170.69,-174.01"/>
<polygon fill="#63b8ff" stroke="#63b8ff" points="79.75,-220.89 73.97,-229.76 84.02,-226.43 79.75,-220.89"/>
</a>
</g>
</g>
<!-- Node9 -->
<g id="Node000009" class="node">
<title>Node9</title>
<g id="a_Node000009"><a xlink:href="structiris_1_1x86_1_1amd64_1_1IoApicRedirectionTableEntryDestination.html" target="_top" xlink:title=" ">
<polygon fill="white" stroke="#666666" points="324,-126 145,-126 145,-96 324,-96 324,-126"/>
<text text-anchor="start" x="153" y="-114" font-family="Helvetica,sans-Serif" font-size="10.00">iris::x86::amd64::IoApic</text>
<text text-anchor="middle" x="234.5" y="-103" font-family="Helvetica,sans-Serif" font-size="10.00">RedirectionTableEntryDestination</text>
</a>
</g>
</g>
<!-- Node0&#45;&gt;Node9 -->
<g id="edge54_Node000000_Node000009" class="edge">
<title>Node0&#45;&gt;Node9</title>
<g id="a_edge54_Node000000_Node000009"><a xlink:title=" ">
<path fill="none" stroke="#63b8ff" d="M68.99,-220.73C84.22,-195.56 111.32,-156.89 145,-135 150.34,-131.53 156.17,-128.56 162.21,-126.01"/>
<polygon fill="#63b8ff" stroke="#63b8ff" points="65.79,-219.25 63.74,-229.65 71.83,-222.8 65.79,-219.25"/>
</a>
</g>
</g>
<!-- Node10 -->
<g id="Node000010" class="node">
<title>Node10</title>
<g id="a_Node000010"><a xlink:href="structiris_1_1x86_1_1amd64_1_1IoApicRedirectionTableEntryVector.html" target="_top" xlink:title="IO APIC Redirection Table Entry.">
<polygon fill="white" stroke="#666666" points="311.5,-78 157.5,-78 157.5,-48 311.5,-48 311.5,-78"/>
<text text-anchor="start" x="165.5" y="-66" font-family="Helvetica,sans-Serif" font-size="10.00">iris::x86::amd64::IoApic</text>
<text text-anchor="middle" x="234.5" y="-55" font-family="Helvetica,sans-Serif" font-size="10.00">RedirectionTableEntryVector</text>
</a>
</g>
</g>
<!-- Node0&#45;&gt;Node10 -->
<g id="edge55_Node000000_Node000010" class="edge">
<title>Node0&#45;&gt;Node10</title>
<g id="a_edge55_Node000000_Node000010"><a xlink:title=" ">
<path fill="none" stroke="#63b8ff" d="M62.91,-219.83C74.56,-184.73 100.54,-121.51 145,-87 149.4,-83.58 154.25,-80.65 159.35,-78.14"/>
<polygon fill="#63b8ff" stroke="#63b8ff" points="59.45,-219.17 59.75,-229.76 66.12,-221.29 59.45,-219.17"/>
</a>
</g>
</g>
<!-- Node11 -->
<g id="Node000011" class="node">
<title>Node11</title>
<g id="a_Node000011"><a xlink:href="structiris_1_1x86_1_1amd64_1_1IoApicVersion.html" target="_top" xlink:title="IO APIC Version Register.">
<polygon fill="white" stroke="#666666" points="300,-30 169,-30 169,0 300,0 300,-30"/>
<text text-anchor="start" x="177" y="-18" font-family="Helvetica,sans-Serif" font-size="10.00">iris::x86::amd64::IoApic</text>
<text text-anchor="middle" x="234.5" y="-7" font-family="Helvetica,sans-Serif" font-size="10.00">Version</text>
</a>
</g>
</g>
<!-- Node0&#45;&gt;Node11 -->
<g id="edge56_Node000000_Node000011" class="edge">
<title>Node0&#45;&gt;Node11</title>
<g id="a_edge56_Node000000_Node000011"><a xlink:title=" ">
<path fill="none" stroke="#63b8ff" d="M59.23,-219.95C67.04,-176.5 89.25,-87.2 145,-39 151.86,-33.07 160.06,-28.58 168.65,-25.2"/>
<polygon fill="#63b8ff" stroke="#63b8ff" points="55.75,-219.51 57.54,-229.95 62.65,-220.68 55.75,-219.51"/>
</a>
</g>
</g>
</g>
</svg>
