<?xml version="1.0" encoding="UTF-8" standalone="no"?>
<!DOCTYPE svg PUBLIC "-//W3C//DTD SVG 1.1//EN"
 "http://www.w3.org/Graphics/SVG/1.1/DTD/svg11.dtd">
<!-- Generated by graphviz version 2.43.0 (0)
 -->
<!-- Title: Graphical Class Hierarchy Pages: 1 -->
<svg width="214pt" height="101pt"
 viewBox="0.00 0.00 214.00 101.00" xmlns="http://www.w3.org/2000/svg" xmlns:xlink="http://www.w3.org/1999/xlink">
<g id="graph0" class="graph" transform="scale(1 1) rotate(0) translate(4 97)">
<title>Graphical Class Hierarchy</title>
<!-- Node0 -->
<g id="Node000000" class="node">
<title>Node0</title>
<g id="a_Node000000"><a xlink:title=" ">
<polygon fill="#e0e0e0" stroke="#999999" points="69,-56 0,-56 0,-37 69,-37 69,-56"/>
<text text-anchor="middle" x="34.5" y="-44" font-family="Helvetica,sans-Serif" font-size="10.00">Dispatcher</text>
</a>
</g>
</g>
<!-- Node1 -->
<g id="Node000001" class="node">
<title>Node1</title>
<g id="a_Node000001"><a xlink:href="structdi_1_1io_1_1Flush.html" target="_top" xlink:title=" ">
<polygon fill="white" stroke="#666666" points="192,-93 119,-93 119,-74 192,-74 192,-93"/>
<text text-anchor="middle" x="155.5" y="-81" font-family="Helvetica,sans-Serif" font-size="10.00">di::io::Flush</text>
</a>
</g>
</g>
<!-- Node0&#45;&gt;Node1 -->
<g id="edge834_Node000000_Node000001" class="edge">
<title>Node0&#45;&gt;Node1</title>
<g id="a_edge834_Node000000_Node000001"><a xlink:title=" ">
<path fill="none" stroke="#63b8ff" d="M76.03,-59.1C91.57,-63.93 109.04,-69.37 123.54,-73.88"/>
<polygon fill="#63b8ff" stroke="#63b8ff" points="76.73,-55.66 66.15,-56.03 74.66,-62.34 76.73,-55.66"/>
</a>
</g>
</g>
<!-- Node2 -->
<g id="Node000002" class="node">
<title>Node2</title>
<g id="a_Node000002"><a xlink:href="structdi_1_1io_1_1ReadSome.html" target="_top" xlink:title=" ">
<polygon fill="white" stroke="#666666" points="205,-56 106,-56 106,-37 205,-37 205,-56"/>
<text text-anchor="middle" x="155.5" y="-44" font-family="Helvetica,sans-Serif" font-size="10.00">di::io::ReadSome</text>
</a>
</g>
</g>
<!-- Node0&#45;&gt;Node2 -->
<g id="edge835_Node000000_Node000002" class="edge">
<title>Node0&#45;&gt;Node2</title>
<g id="a_edge835_Node000000_Node000002"><a xlink:title=" ">
<path fill="none" stroke="#63b8ff" d="M79.51,-46.5C88.13,-46.5 97.22,-46.5 105.97,-46.5"/>
<polygon fill="#63b8ff" stroke="#63b8ff" points="79.28,-43 69.28,-46.5 79.28,-50 79.28,-43"/>
</a>
</g>
</g>
<!-- Node3 -->
<g id="Node000003" class="node">
<title>Node3</title>
<g id="a_Node000003"><a xlink:href="structdi_1_1io_1_1WriteSome.html" target="_top" xlink:title=" ">
<polygon fill="white" stroke="#666666" points="206,-19 105,-19 105,0 206,0 206,-19"/>
<text text-anchor="middle" x="155.5" y="-7" font-family="Helvetica,sans-Serif" font-size="10.00">di::io::WriteSome</text>
</a>
</g>
</g>
<!-- Node0&#45;&gt;Node3 -->
<g id="edge836_Node000000_Node000003" class="edge">
<title>Node0&#45;&gt;Node3</title>
<g id="a_edge836_Node000000_Node000003"><a xlink:title=" ">
<path fill="none" stroke="#63b8ff" d="M76.03,-33.9C91.57,-29.07 109.04,-23.63 123.54,-19.12"/>
<polygon fill="#63b8ff" stroke="#63b8ff" points="74.66,-30.66 66.15,-36.97 76.73,-37.34 74.66,-30.66"/>
</a>
</g>
</g>
</g>
</svg>
