<?xml version="1.0" encoding="UTF-8" standalone="no"?>
<!DOCTYPE svg PUBLIC "-//W3C//DTD SVG 1.1//EN"
 "http://www.w3.org/Graphics/SVG/1.1/DTD/svg11.dtd">
<!-- Generated by graphviz version 2.43.0 (0)
 -->
<!-- Title: Graphical Class Hierarchy Pages: 1 -->
<svg width="257pt" height="134pt"
 viewBox="0.00 0.00 257.00 134.00" xmlns="http://www.w3.org/2000/svg" xmlns:xlink="http://www.w3.org/1999/xlink">
<g id="graph0" class="graph" transform="scale(1 1) rotate(0) translate(4 130)">
<title>Graphical Class Hierarchy</title>
<!-- Node0 -->
<g id="Node000000" class="node">
<title>Node0</title>
<g id="a_Node000000"><a xlink:href="structdi_1_1bit_1_1BitField.html" target="_top" xlink:title=" ">
<polygon fill="white" stroke="#666666" points="95,-78 0,-78 0,-48 95,-48 95,-78"/>
<text text-anchor="start" x="8" y="-66" font-family="Helvetica,sans-Serif" font-size="10.00">di::bit::BitField&lt;</text>
<text text-anchor="middle" x="47.5" y="-55" font-family="Helvetica,sans-Serif" font-size="10.00"> 16, 16 &gt;</text>
</a>
</g>
</g>
<!-- Node1 -->
<g id="Node000001" class="node">
<title>Node1</title>
<g id="a_Node000001"><a xlink:href="structiris_1_1x86_1_1amd64_1_1idt_1_1SegmentSelector.html" target="_top" xlink:title=" ">
<polygon fill="white" stroke="#666666" points="247,-126 133,-126 133,-96 247,-96 247,-126"/>
<text text-anchor="start" x="141" y="-114" font-family="Helvetica,sans-Serif" font-size="10.00">iris::x86::amd64::idt</text>
<text text-anchor="middle" x="190" y="-103" font-family="Helvetica,sans-Serif" font-size="10.00">::SegmentSelector</text>
</a>
</g>
</g>
<!-- Node0&#45;&gt;Node1 -->
<g id="edge25_Node000000_Node000001" class="edge">
<title>Node0&#45;&gt;Node1</title>
<g id="a_edge25_Node000000_Node000001"><a xlink:title=" ">
<path fill="none" stroke="#63b8ff" d="M102.2,-81.35C116.37,-86.19 131.5,-91.36 145.09,-96"/>
<polygon fill="#63b8ff" stroke="#63b8ff" points="103.16,-77.98 92.57,-78.06 100.9,-84.6 103.16,-77.98"/>
</a>
</g>
</g>
<!-- Node2 -->
<g id="Node000002" class="node">
<title>Node2</title>
<g id="a_Node000002"><a xlink:href="structiris_1_1x86_1_1amd64_1_1sd_1_1BaseLow.html" target="_top" xlink:title=" ">
<polygon fill="white" stroke="#666666" points="246.5,-78 133.5,-78 133.5,-48 246.5,-48 246.5,-78"/>
<text text-anchor="start" x="141.5" y="-66" font-family="Helvetica,sans-Serif" font-size="10.00">iris::x86::amd64::sd</text>
<text text-anchor="middle" x="190" y="-55" font-family="Helvetica,sans-Serif" font-size="10.00">::BaseLow</text>
</a>
</g>
</g>
<!-- Node0&#45;&gt;Node2 -->
<g id="edge26_Node000000_Node000002" class="edge">
<title>Node0&#45;&gt;Node2</title>
<g id="a_edge26_Node000000_Node000002"><a xlink:title=" ">
<path fill="none" stroke="#63b8ff" d="M105.44,-63C114.58,-63 124.04,-63 133.16,-63"/>
<polygon fill="#63b8ff" stroke="#63b8ff" points="105.28,-59.5 95.28,-63 105.28,-66.5 105.28,-59.5"/>
</a>
</g>
</g>
<!-- Node3 -->
<g id="Node000003" class="node">
<title>Node3</title>
<g id="a_Node000003"><a xlink:href="structiris_1_1x86_1_1amd64_1_1ssd_1_1BaseLow.html" target="_top" xlink:title=" ">
<polygon fill="white" stroke="#666666" points="249,-30 131,-30 131,0 249,0 249,-30"/>
<text text-anchor="start" x="139" y="-18" font-family="Helvetica,sans-Serif" font-size="10.00">iris::x86::amd64::ssd</text>
<text text-anchor="middle" x="190" y="-7" font-family="Helvetica,sans-Serif" font-size="10.00">::BaseLow</text>
</a>
</g>
</g>
<!-- Node0&#45;&gt;Node3 -->
<g id="edge27_Node000000_Node000003" class="edge">
<title>Node0&#45;&gt;Node3</title>
<g id="a_edge27_Node000000_Node000003"><a xlink:title=" ">
<path fill="none" stroke="#63b8ff" d="M102.2,-44.65C116.37,-39.81 131.5,-34.64 145.09,-30"/>
<polygon fill="#63b8ff" stroke="#63b8ff" points="100.9,-41.4 92.57,-47.94 103.16,-48.02 100.9,-41.4"/>
</a>
</g>
</g>
</g>
</svg>
