<?xml version="1.0" encoding="UTF-8" standalone="no"?>
<!DOCTYPE svg PUBLIC "-//W3C//DTD SVG 1.1//EN"
 "http://www.w3.org/Graphics/SVG/1.1/DTD/svg11.dtd">
<!-- Generated by graphviz version 2.43.0 (0)
 -->
<!-- Title: Graphical Class Hierarchy Pages: 1 -->
<svg width="366pt" height="194pt"
 viewBox="0.00 0.00 366.00 193.50" xmlns="http://www.w3.org/2000/svg" xmlns:xlink="http://www.w3.org/1999/xlink">
<g id="graph0" class="graph" transform="scale(1 1) rotate(0) translate(4 189.5)">
<title>Graphical Class Hierarchy</title>
<!-- Node0 -->
<g id="Node000000" class="node">
<title>Node0</title>
<g id="a_Node000000"><a xlink:href="structdi_1_1meta_1_1TypeConstant.html" target="_top" xlink:title=" ">
<polygon fill="white" stroke="#666666" points="160,-108 1,-108 1,-89 160,-89 160,-108"/>
<text text-anchor="middle" x="80.5" y="-96" font-family="Helvetica,sans-Serif" font-size="10.00">di::meta::TypeConstant&lt; U &gt;</text>
</a>
</g>
</g>
<!-- Node1 -->
<g id="Node000001" class="node">
<title>Node1</title>
<g id="a_Node000001"><a xlink:href="structdi_1_1meta_1_1detail_1_1ConditionalHelper_3_01false_00_01T_00_01U_01_4.html" target="_top" xlink:title=" ">
<polygon fill="white" stroke="#666666" points="353.5,-185.5 201.5,-185.5 201.5,-155.5 353.5,-155.5 353.5,-185.5"/>
<text text-anchor="start" x="209.5" y="-173.5" font-family="Helvetica,sans-Serif" font-size="10.00">di::meta::detail::Conditional</text>
<text text-anchor="middle" x="277.5" y="-162.5" font-family="Helvetica,sans-Serif" font-size="10.00">Helper&lt; false, T, U &gt;</text>
</a>
</g>
</g>
<!-- Node0&#45;&gt;Node1 -->
<g id="edge550_Node000000_Node000001" class="edge">
<title>Node0&#45;&gt;Node1</title>
<g id="a_edge550_Node000000_Node000001"><a xlink:title=" ">
<path fill="none" stroke="#63b8ff" d="M112.24,-112.27C135.32,-122.36 167.84,-136.07 197,-146.5 205.69,-149.61 215,-152.66 224.08,-155.49"/>
<polygon fill="#63b8ff" stroke="#63b8ff" points="113.52,-109.01 102.96,-108.18 110.7,-115.41 113.52,-109.01"/>
</a>
</g>
</g>
<!-- Node2 -->
<g id="Node000002" class="node">
<title>Node2</title>
<g id="a_Node000002"><a xlink:href="structdi_1_1meta_1_1detail_1_1LikeExpectedHelper.html" target="_top" xlink:title=" ">
<polygon fill="white" stroke="#666666" points="358,-137.5 197,-137.5 197,-107.5 358,-107.5 358,-137.5"/>
<text text-anchor="start" x="205" y="-125.5" font-family="Helvetica,sans-Serif" font-size="10.00">di::meta::detail::LikeExpected</text>
<text text-anchor="middle" x="277.5" y="-114.5" font-family="Helvetica,sans-Serif" font-size="10.00">Helper&lt; T, U &gt;</text>
</a>
</g>
</g>
<!-- Node0&#45;&gt;Node2 -->
<g id="edge551_Node000000_Node000002" class="edge">
<title>Node0&#45;&gt;Node2</title>
<g id="a_edge551_Node000000_Node000002"><a xlink:title=" ">
<path fill="none" stroke="#63b8ff" d="M168.84,-109.25C178.11,-110.39 187.51,-111.55 196.69,-112.68"/>
<polygon fill="#63b8ff" stroke="#63b8ff" points="169.2,-105.77 158.85,-108.02 168.35,-112.72 169.2,-105.77"/>
</a>
</g>
</g>
<!-- Node3 -->
<g id="Node000003" class="node">
<title>Node3</title>
<g id="a_Node000003"><a xlink:href="structdi_1_1meta_1_1detail_1_1LikeExpectedHelper_3_01vocab_1_1Expected_3_01X_00_01E_01_4_00_01U_01_4.html" target="_top" xlink:title=" ">
<polygon fill="white" stroke="#666666" points="358,-41 197,-41 197,0 358,0 358,-41"/>
<text text-anchor="start" x="205" y="-29" font-family="Helvetica,sans-Serif" font-size="10.00">di::meta::detail::LikeExpected</text>
<text text-anchor="start" x="205" y="-18" font-family="Helvetica,sans-Serif" font-size="10.00">Helper&lt; vocab::Expected&lt;</text>
<text text-anchor="middle" x="277.5" y="-7" font-family="Helvetica,sans-Serif" font-size="10.00"> X, E &gt;, U &gt;</text>
</a>
</g>
</g>
<!-- Node0&#45;&gt;Node3 -->
<g id="edge552_Node000000_Node000003" class="edge">
<title>Node0&#45;&gt;Node3</title>
<g id="a_edge552_Node000000_Node000003"><a xlink:title=" ">
<path fill="none" stroke="#63b8ff" d="M113.31,-84.95C136.45,-75.17 168.56,-61.77 197,-50.5 204.82,-47.4 213.09,-44.2 221.24,-41.08"/>
<polygon fill="#63b8ff" stroke="#63b8ff" points="111.83,-81.77 103.98,-88.9 114.56,-88.22 111.83,-81.77"/>
</a>
</g>
</g>
<!-- Node5 -->
<g id="Node000005" class="node">
<title>Node5</title>
<g id="a_Node000005"><a xlink:href="structdi_1_1meta_1_1detail_1_1LikeHelper.html" target="_top" xlink:title=" ">
<polygon fill="white" stroke="#666666" points="352,-89.5 203,-89.5 203,-59.5 352,-59.5 352,-89.5"/>
<text text-anchor="start" x="211" y="-77.5" font-family="Helvetica,sans-Serif" font-size="10.00">di::meta::detail::LikeHelper</text>
<text text-anchor="middle" x="277.5" y="-66.5" font-family="Helvetica,sans-Serif" font-size="10.00">&lt; T, U &gt;</text>
</a>
</g>
</g>
<!-- Node0&#45;&gt;Node5 -->
<g id="edge553_Node000000_Node000005" class="edge">
<title>Node0&#45;&gt;Node5</title>
<g id="a_edge553_Node000000_Node000005"><a xlink:title=" ">
<path fill="none" stroke="#63b8ff" d="M169.1,-87.72C180.34,-86.34 191.75,-84.93 202.74,-83.58"/>
<polygon fill="#63b8ff" stroke="#63b8ff" points="168.35,-84.28 158.85,-88.98 169.2,-91.23 168.35,-84.28"/>
</a>
</g>
</g>
<!-- Node4 -->
<g id="Node000004" class="node">
<title>Node4</title>
<g id="a_Node000004"><a xlink:href="structdi_1_1meta_1_1TypeConstant.html" target="_top" xlink:title=" ">
<polygon fill="white" stroke="#666666" points="161,-35.5 0,-35.5 0,-5.5 161,-5.5 161,-35.5"/>
<text text-anchor="start" x="8" y="-23.5" font-family="Helvetica,sans-Serif" font-size="10.00">di::meta::TypeConstant</text>
<text text-anchor="middle" x="80.5" y="-12.5" font-family="Helvetica,sans-Serif" font-size="10.00">&lt; vocab::Expected&lt; U, E &gt; &gt;</text>
</a>
</g>
</g>
<!-- Node4&#45;&gt;Node3 -->
<g id="edge554_Node000004_Node000003" class="edge">
<title>Node4&#45;&gt;Node3</title>
<g id="a_edge554_Node000004_Node000003"><a xlink:title=" ">
<path fill="none" stroke="#63b8ff" d="M171.12,-20.5C179.7,-20.5 188.36,-20.5 196.84,-20.5"/>
<polygon fill="#63b8ff" stroke="#63b8ff" points="171.1,-17 161.1,-20.5 171.1,-24 171.1,-17"/>
</a>
</g>
</g>
</g>
</svg>
