<?xml version="1.0" encoding="UTF-8" standalone="no"?>
<!DOCTYPE svg PUBLIC "-//W3C//DTD SVG 1.1//EN"
 "http://www.w3.org/Graphics/SVG/1.1/DTD/svg11.dtd">
<!-- Generated by graphviz version 2.43.0 (0)
 -->
<!-- Title: Graphical Class Hierarchy Pages: 1 -->
<svg width="939pt" height="38pt"
 viewBox="0.00 0.00 939.00 38.00" xmlns="http://www.w3.org/2000/svg" xmlns:xlink="http://www.w3.org/1999/xlink">
<g id="graph0" class="graph" transform="scale(1 1) rotate(0) translate(4 34)">
<title>Graphical Class Hierarchy</title>
<!-- Node0 -->
<g id="Node000000" class="node">
<title>Node0</title>
<g id="a_Node000000"><a xlink:href="structdi_1_1types_1_1InputIteratorTag.html" target="_top" xlink:title=" ">
<polygon fill="white" stroke="#666666" points="142,-24.5 0,-24.5 0,-5.5 142,-5.5 142,-24.5"/>
<text text-anchor="middle" x="71" y="-12.5" font-family="Helvetica,sans-Serif" font-size="10.00">di::types::InputIteratorTag</text>
</a>
</g>
</g>
<!-- Node1 -->
<g id="Node000001" class="node">
<title>Node1</title>
<g id="a_Node000001"><a xlink:href="structdi_1_1types_1_1ForwardIteratorTag.html" target="_top" xlink:title=" ">
<polygon fill="white" stroke="#666666" points="334,-24.5 178,-24.5 178,-5.5 334,-5.5 334,-24.5"/>
<text text-anchor="middle" x="256" y="-12.5" font-family="Helvetica,sans-Serif" font-size="10.00">di::types::ForwardIteratorTag</text>
</a>
</g>
</g>
<!-- Node0&#45;&gt;Node1 -->
<g id="edge585_Node000000_Node000001" class="edge">
<title>Node0&#45;&gt;Node1</title>
<g id="a_edge585_Node000000_Node000001"><a xlink:title=" ">
<path fill="none" stroke="#63b8ff" d="M152.47,-15C160.94,-15 169.53,-15 177.96,-15"/>
<polygon fill="#63b8ff" stroke="#63b8ff" points="152.23,-11.5 142.23,-15 152.23,-18.5 152.23,-11.5"/>
</a>
</g>
</g>
<!-- Node2 -->
<g id="Node000002" class="node">
<title>Node2</title>
<g id="a_Node000002"><a xlink:href="structdi_1_1types_1_1BidirectionalIteratorTag.html" target="_top" xlink:title=" ">
<polygon fill="white" stroke="#666666" points="496,-30 370,-30 370,0 496,0 496,-30"/>
<text text-anchor="start" x="378" y="-18" font-family="Helvetica,sans-Serif" font-size="10.00">di::types::Bidirectional</text>
<text text-anchor="middle" x="433" y="-7" font-family="Helvetica,sans-Serif" font-size="10.00">IteratorTag</text>
</a>
</g>
</g>
<!-- Node1&#45;&gt;Node2 -->
<g id="edge586_Node000001_Node000002" class="edge">
<title>Node1&#45;&gt;Node2</title>
<g id="a_edge586_Node000001_Node000002"><a xlink:title=" ">
<path fill="none" stroke="#63b8ff" d="M344.19,-15C352.88,-15 361.57,-15 369.93,-15"/>
<polygon fill="#63b8ff" stroke="#63b8ff" points="344.01,-11.5 334.01,-15 344.01,-18.5 344.01,-11.5"/>
</a>
</g>
</g>
<!-- Node3 -->
<g id="Node000003" class="node">
<title>Node3</title>
<g id="a_Node000003"><a xlink:href="structdi_1_1types_1_1RandomAccessIteratorTag.html" target="_top" xlink:title=" ">
<polygon fill="white" stroke="#666666" points="723,-24.5 532,-24.5 532,-5.5 723,-5.5 723,-24.5"/>
<text text-anchor="middle" x="627.5" y="-12.5" font-family="Helvetica,sans-Serif" font-size="10.00">di::types::RandomAccessIteratorTag</text>
</a>
</g>
</g>
<!-- Node2&#45;&gt;Node3 -->
<g id="edge587_Node000002_Node000003" class="edge">
<title>Node2&#45;&gt;Node3</title>
<g id="a_edge587_Node000002_Node000003"><a xlink:title=" ">
<path fill="none" stroke="#63b8ff" d="M506.31,-15C514.68,-15 523.32,-15 531.94,-15"/>
<polygon fill="#63b8ff" stroke="#63b8ff" points="506.23,-11.5 496.23,-15 506.23,-18.5 506.23,-11.5"/>
</a>
</g>
</g>
<!-- Node4 -->
<g id="Node000004" class="node">
<title>Node4</title>
<g id="a_Node000004"><a xlink:href="structdi_1_1types_1_1ContiguousIteratorTag.html" target="_top" xlink:title=" ">
<polygon fill="white" stroke="#666666" points="931,-24.5 759,-24.5 759,-5.5 931,-5.5 931,-24.5"/>
<text text-anchor="middle" x="845" y="-12.5" font-family="Helvetica,sans-Serif" font-size="10.00">di::types::ContiguousIteratorTag</text>
</a>
</g>
</g>
<!-- Node3&#45;&gt;Node4 -->
<g id="edge588_Node000003_Node000004" class="edge">
<title>Node3&#45;&gt;Node4</title>
<g id="a_edge588_Node000003_Node000004"><a xlink:title=" ">
<path fill="none" stroke="#63b8ff" d="M733.08,-15C741.67,-15 750.28,-15 758.71,-15"/>
<polygon fill="#63b8ff" stroke="#63b8ff" points="733.02,-11.5 723.02,-15 733.02,-18.5 733.02,-11.5"/>
</a>
</g>
</g>
</g>
</svg>
