<?xml version="1.0" encoding="UTF-8" standalone="no"?>
<!DOCTYPE svg PUBLIC "-//W3C//DTD SVG 1.1//EN"
 "http://www.w3.org/Graphics/SVG/1.1/DTD/svg11.dtd">
<!-- Generated by graphviz version 2.43.0 (0)
 -->
<!-- Title: di::container::detail::TreeMapTag&lt; Key, Value &gt; Pages: 1 -->
<svg width="172pt" height="181pt"
 viewBox="0.00 0.00 172.00 181.00" xmlns="http://www.w3.org/2000/svg" xmlns:xlink="http://www.w3.org/1999/xlink">
<g id="graph0" class="graph" transform="scale(1 1) rotate(0) translate(4 177)">
<title>di::container::detail::TreeMapTag&lt; Key, Value &gt;</title>
<!-- Node1 -->
<g id="Node000001" class="node">
<title>Node1</title>
<g id="a_Node000001"><a xlink:title=" ">
<polygon fill="#999999" stroke="#666666" points="159,-30 5,-30 5,0 159,0 159,-30"/>
<text text-anchor="start" x="13" y="-18" font-family="Helvetica,sans-Serif" font-size="10.00">di::container::detail</text>
<text text-anchor="middle" x="82" y="-7" font-family="Helvetica,sans-Serif" font-size="10.00">::TreeMapTag&lt; Key, Value &gt;</text>
</a>
</g>
</g>
<!-- Node2 -->
<g id="Node000002" class="node">
<title>Node2</title>
<g id="a_Node000002"><a xlink:href="structdi_1_1container_1_1OwningRBTreeTag.html" target="_top" xlink:title=" ">
<polygon fill="white" stroke="#666666" points="164,-107 0,-107 0,-66 164,-66 164,-107"/>
<text text-anchor="start" x="8" y="-95" font-family="Helvetica,sans-Serif" font-size="10.00">di::container::OwningRBTree</text>
<text text-anchor="start" x="8" y="-84" font-family="Helvetica,sans-Serif" font-size="10.00">Tag&lt; TreeMapTag&lt; Key, Value</text>
<text text-anchor="middle" x="82" y="-73" font-family="Helvetica,sans-Serif" font-size="10.00"> &gt;, Tuple&lt; Key, Value &gt; &gt;</text>
</a>
</g>
</g>
<!-- Node2&#45;&gt;Node1 -->
<g id="edge1_Node000001_Node000002" class="edge">
<title>Node2&#45;&gt;Node1</title>
<g id="a_edge1_Node000001_Node000002"><a xlink:title=" ">
<path fill="none" stroke="#63b8ff" d="M82,-55.66C82,-46.76 82,-37.42 82,-30.04"/>
<polygon fill="#63b8ff" stroke="#63b8ff" points="78.5,-55.77 82,-65.77 85.5,-55.77 78.5,-55.77"/>
</a>
</g>
</g>
<!-- Node3 -->
<g id="Node000003" class="node">
<title>Node3</title>
<g id="a_Node000003"><a xlink:href="structdi_1_1container_1_1IntrusiveTagBase.html" target="_top" xlink:title=" ">
<polygon fill="white" stroke="#666666" points="146,-173 18,-173 18,-143 146,-143 146,-173"/>
<text text-anchor="start" x="26" y="-161" font-family="Helvetica,sans-Serif" font-size="10.00">di::container::Intrusive</text>
<text text-anchor="middle" x="82" y="-150" font-family="Helvetica,sans-Serif" font-size="10.00">TagBase&lt; NodeType &gt;</text>
</a>
</g>
</g>
<!-- Node3&#45;&gt;Node2 -->
<g id="edge2_Node000002_Node000003" class="edge">
<title>Node3&#45;&gt;Node2</title>
<g id="a_edge2_Node000002_Node000003"><a xlink:title=" ">
<path fill="none" stroke="#63b8ff" d="M82,-132.91C82,-124.47 82,-115.1 82,-107.07"/>
<polygon fill="#63b8ff" stroke="#63b8ff" points="78.5,-132.94 82,-142.94 85.5,-132.94 78.5,-132.94"/>
</a>
</g>
</g>
</g>
</svg>
