<?xml version="1.0" encoding="UTF-8" standalone="no"?>
<!DOCTYPE svg PUBLIC "-//W3C//DTD SVG 1.1//EN"
 "http://www.w3.org/Graphics/SVG/1.1/DTD/svg11.dtd">
<!-- Generated by graphviz version 2.43.0 (0)
 -->
<!-- Title: di::meta::detail::MakeSignedHelper&lt; T &gt; Pages: 1 -->
<svg width="376pt" height="76pt"
 viewBox="0.00 0.00 376.00 75.50" xmlns="http://www.w3.org/2000/svg" xmlns:xlink="http://www.w3.org/1999/xlink">
<g id="graph0" class="graph" transform="scale(1 1) rotate(0) translate(4 71.5)">
<title>di::meta::detail::MakeSignedHelper&lt; T &gt;</title>
<!-- Node1 -->
<g id="Node000001" class="node">
<title>Node1</title>
<g id="a_Node000001"><a xlink:title=" ">
<polygon fill="#999999" stroke="#666666" points="368,-45.5 212,-45.5 212,-15.5 368,-15.5 368,-45.5"/>
<text text-anchor="start" x="220" y="-33.5" font-family="Helvetica,sans-Serif" font-size="10.00">di::meta::detail::MakeSigned</text>
<text text-anchor="middle" x="290" y="-22.5" font-family="Helvetica,sans-Serif" font-size="10.00">Helper&lt; T &gt;</text>
</a>
</g>
</g>
<!-- Node2 -->
<g id="Node000002" class="node">
<title>Node2</title>
<g id="a_Node000002"><a xlink:href="structdi_1_1meta_1_1detail_1_1MakeSignedHelper.html" target="_top" xlink:title=" ">
<polygon fill="white" stroke="#666666" points="176,-67.5 0,-67.5 0,-37.5 176,-37.5 176,-67.5"/>
<text text-anchor="start" x="8" y="-55.5" font-family="Helvetica,sans-Serif" font-size="10.00">di::meta::detail::MakeSigned</text>
<text text-anchor="middle" x="88" y="-44.5" font-family="Helvetica,sans-Serif" font-size="10.00">Helper&lt; UnderlyingType&lt; T &gt; &gt;</text>
</a>
</g>
</g>
<!-- Node2&#45;&gt;Node1 -->
<g id="edge1_Node000001_Node000002" class="edge">
<title>Node2&#45;&gt;Node1</title>
<g id="a_edge1_Node000001_Node000002"><a xlink:title=" ">
<path fill="none" stroke="#63b8ff" d="M186.22,-41.81C194.83,-40.86 203.47,-39.91 211.88,-38.98"/>
<polygon fill="#63b8ff" stroke="#63b8ff" points="185.7,-38.34 176.14,-42.91 186.46,-45.3 185.7,-38.34"/>
</a>
</g>
</g>
<!-- Node3 -->
<g id="Node000003" class="node">
<title>Node3</title>
<g id="a_Node000003"><a xlink:href="structdi_1_1meta_1_1TypeConstant.html" target="_top" xlink:title=" ">
<polygon fill="white" stroke="#666666" points="167,-19 9,-19 9,0 167,0 167,-19"/>
<text text-anchor="middle" x="88" y="-7" font-family="Helvetica,sans-Serif" font-size="10.00">di::meta::TypeConstant&lt; T &gt;</text>
</a>
</g>
</g>
<!-- Node3&#45;&gt;Node1 -->
<g id="edge2_Node000001_Node000003" class="edge">
<title>Node3&#45;&gt;Node1</title>
<g id="a_edge2_Node000001_Node000003"><a xlink:title=" ">
<path fill="none" stroke="#63b8ff" d="M177.25,-18.77C188.78,-19.98 200.52,-21.21 211.85,-22.4"/>
<polygon fill="#63b8ff" stroke="#63b8ff" points="177.5,-15.27 167.18,-17.71 176.76,-22.23 177.5,-15.27"/>
</a>
</g>
</g>
</g>
</svg>
