<?xml version="1.0" encoding="UTF-8" standalone="no"?>
<!DOCTYPE svg PUBLIC "-//W3C//DTD SVG 1.1//EN"
 "http://www.w3.org/Graphics/SVG/1.1/DTD/svg11.dtd">
<!-- Generated by graphviz version 2.43.0 (0)
 -->
<!-- Title: di::vocab::IntrusiveRefCount&lt; T &gt; Pages: 1 -->
<svg width="537pt" height="332pt"
 viewBox="0.00 0.00 537.00 331.50" xmlns="http://www.w3.org/2000/svg" xmlns:xlink="http://www.w3.org/1999/xlink">
<g id="graph0" class="graph" transform="scale(1 1) rotate(0) translate(4 327.5)">
<title>di::vocab::IntrusiveRefCount&lt; T &gt;</title>
<!-- Node1 -->
<g id="Node000001" class="node">
<title>Node1</title>
<g id="a_Node000001"><a xlink:title=" ">
<polygon fill="#999999" stroke="#666666" points="328,-182.5 145,-182.5 145,-163.5 328,-163.5 328,-182.5"/>
<text text-anchor="middle" x="236.5" y="-170.5" font-family="Helvetica,sans-Serif" font-size="10.00">di::vocab::IntrusiveRefCount&lt; T &gt;</text>
</a>
</g>
</g>
<!-- Node3 -->
<g id="Node000003" class="node">
<title>Node3</title>
<g id="a_Node000003"><a xlink:href="classiris_1_1Inode.html" target="_top" xlink:title=" ">
<polygon fill="white" stroke="#666666" points="503.5,-323.5 389.5,-323.5 389.5,-304.5 503.5,-304.5 503.5,-323.5"/>
<text text-anchor="middle" x="446.5" y="-311.5" font-family="Helvetica,sans-Serif" font-size="10.00">iris::Inode&lt; Inode &gt;</text>
</a>
</g>
</g>
<!-- Node1&#45;&gt;Node3 -->
<g id="edge2_Node000001_Node000003" class="edge">
<title>Node1&#45;&gt;Node3</title>
<g id="a_edge2_Node000001_Node000003"><a xlink:title=" ">
<path fill="none" stroke="#63b8ff" d="M250.67,-191.09C271.51,-218.32 314.82,-269.49 364,-296 371.78,-300.19 380.48,-303.41 389.22,-305.88"/>
<polygon fill="#63b8ff" stroke="#63b8ff" points="253.28,-188.74 244.48,-182.84 247.68,-192.94 253.28,-188.74"/>
</a>
</g>
</g>
<!-- Node4 -->
<g id="Node000004" class="node">
<title>Node4</title>
<g id="a_Node000004"><a xlink:href="classiris_1_1TNode.html" target="_top" xlink:title=" ">
<polygon fill="white" stroke="#666666" points="508,-286.5 385,-286.5 385,-267.5 508,-267.5 508,-286.5"/>
<text text-anchor="middle" x="446.5" y="-274.5" font-family="Helvetica,sans-Serif" font-size="10.00">iris::TNode&lt; TNode &gt;</text>
</a>
</g>
</g>
<!-- Node1&#45;&gt;Node4 -->
<g id="edge3_Node000001_Node000004" class="edge">
<title>Node1&#45;&gt;Node4</title>
<g id="a_edge3_Node000001_Node000004"><a xlink:title=" ">
<path fill="none" stroke="#63b8ff" d="M256.29,-189.2C279.87,-208.68 322.3,-241.01 364,-259 371.85,-262.39 380.41,-265.17 388.94,-267.44"/>
<polygon fill="#63b8ff" stroke="#63b8ff" points="258.4,-186.4 248.49,-182.65 253.9,-191.76 258.4,-186.4"/>
</a>
</g>
</g>
<!-- Node5 -->
<g id="Node000005" class="node">
<title>Node5</title>
<g id="a_Node000005"><a xlink:href="classiris_1_1Task.html" target="_top" xlink:title=" ">
<polygon fill="white" stroke="#666666" points="498.5,-249.5 394.5,-249.5 394.5,-230.5 498.5,-230.5 498.5,-249.5"/>
<text text-anchor="middle" x="446.5" y="-237.5" font-family="Helvetica,sans-Serif" font-size="10.00">iris::Task&lt; Task &gt;</text>
</a>
</g>
</g>
<!-- Node1&#45;&gt;Node5 -->
<g id="edge4_Node000001_Node000005" class="edge">
<title>Node1&#45;&gt;Node5</title>
<g id="a_edge4_Node000001_Node000005"><a xlink:title=" ">
<path fill="none" stroke="#63b8ff" d="M269.5,-186.5C294.83,-196.86 331.27,-211.02 364,-221 375.4,-224.47 387.85,-227.67 399.52,-230.41"/>
<polygon fill="#63b8ff" stroke="#63b8ff" points="270.61,-183.18 260.04,-182.6 267.95,-189.65 270.61,-183.18"/>
</a>
</g>
</g>
<!-- Node6 -->
<g id="Node000006" class="node">
<title>Node6</title>
<g id="a_Node000006"><a xlink:href="classiris_1_1TaskArguments.html" target="_top" xlink:title=" ">
<polygon fill="white" stroke="#666666" points="503.5,-212 389.5,-212 389.5,-182 503.5,-182 503.5,-212"/>
<text text-anchor="start" x="397.5" y="-200" font-family="Helvetica,sans-Serif" font-size="10.00">iris::TaskArguments</text>
<text text-anchor="middle" x="446.5" y="-189" font-family="Helvetica,sans-Serif" font-size="10.00">&lt; TaskArguments &gt;</text>
</a>
</g>
</g>
<!-- Node1&#45;&gt;Node6 -->
<g id="edge5_Node000001_Node000006" class="edge">
<title>Node1&#45;&gt;Node6</title>
<g id="a_edge5_Node000001_Node000006"><a xlink:title=" ">
<path fill="none" stroke="#63b8ff" d="M330.17,-183.69C350.34,-186.02 371.09,-188.41 389.33,-190.52"/>
<polygon fill="#63b8ff" stroke="#63b8ff" points="330.34,-180.19 320.01,-182.52 329.54,-187.14 330.34,-180.19"/>
</a>
</g>
</g>
<!-- Node7 -->
<g id="Node000007" class="node">
<title>Node7</title>
<g id="a_Node000007"><a xlink:href="classiris_1_1TaskNamespace.html" target="_top" xlink:title=" ">
<polygon fill="white" stroke="#666666" points="506,-164 387,-164 387,-134 506,-134 506,-164"/>
<text text-anchor="start" x="395" y="-152" font-family="Helvetica,sans-Serif" font-size="10.00">iris::TaskNamespace</text>
<text text-anchor="middle" x="446.5" y="-141" font-family="Helvetica,sans-Serif" font-size="10.00">&lt; TaskNamespace &gt;</text>
</a>
</g>
</g>
<!-- Node1&#45;&gt;Node7 -->
<g id="edge6_Node000001_Node000007" class="edge">
<title>Node1&#45;&gt;Node7</title>
<g id="a_edge6_Node000001_Node000007"><a xlink:title=" ">
<path fill="none" stroke="#63b8ff" d="M330.03,-162.32C349.33,-160.1 369.16,-157.81 386.82,-155.77"/>
<polygon fill="#63b8ff" stroke="#63b8ff" points="329.54,-158.86 320.01,-163.48 330.34,-165.81 329.54,-158.86"/>
</a>
</g>
</g>
<!-- Node8 -->
<g id="Node000008" class="node">
<title>Node8</title>
<g id="a_Node000008"><a xlink:href="classiris_1_1TaskStatus.html" target="_top" xlink:title=" ">
<polygon fill="white" stroke="#666666" points="529,-115.5 364,-115.5 364,-96.5 529,-96.5 529,-115.5"/>
<text text-anchor="middle" x="446.5" y="-103.5" font-family="Helvetica,sans-Serif" font-size="10.00">iris::TaskStatus&lt; TaskStatus &gt;</text>
</a>
</g>
</g>
<!-- Node1&#45;&gt;Node8 -->
<g id="edge7_Node000001_Node000008" class="edge">
<title>Node1&#45;&gt;Node8</title>
<g id="a_edge7_Node000001_Node000008"><a xlink:title=" ">
<path fill="none" stroke="#63b8ff" d="M269.5,-159.5C294.83,-149.14 331.27,-134.98 364,-125 375.4,-121.53 387.85,-118.33 399.52,-115.59"/>
<polygon fill="#63b8ff" stroke="#63b8ff" points="267.95,-156.35 260.04,-163.4 270.61,-162.82 267.95,-156.35"/>
</a>
</g>
</g>
<!-- Node9 -->
<g id="Node000009" class="node">
<title>Node9</title>
<g id="a_Node000009"><a xlink:href="classiris_1_1mm_1_1AddressSpace.html" target="_top" xlink:title=" ">
<polygon fill="white" stroke="#666666" points="512,-78 381,-78 381,-48 512,-48 512,-78"/>
<text text-anchor="start" x="389" y="-66" font-family="Helvetica,sans-Serif" font-size="10.00">iris::mm::AddressSpace</text>
<text text-anchor="middle" x="446.5" y="-55" font-family="Helvetica,sans-Serif" font-size="10.00">&lt; AddressSpace &gt;</text>
</a>
</g>
</g>
<!-- Node1&#45;&gt;Node9 -->
<g id="edge8_Node000001_Node000009" class="edge">
<title>Node1&#45;&gt;Node9</title>
<g id="a_edge8_Node000001_Node000009"><a xlink:title=" ">
<path fill="none" stroke="#63b8ff" d="M256.87,-156.98C280.74,-137.93 323.16,-106.31 364,-87 371.07,-83.66 378.7,-80.67 386.36,-78.04"/>
<polygon fill="#63b8ff" stroke="#63b8ff" points="254.53,-154.37 248.96,-163.38 258.93,-159.81 254.53,-154.37"/>
</a>
</g>
</g>
<!-- Node10 -->
<g id="Node000010" class="node">
<title>Node10</title>
<g id="a_Node000010"><a xlink:href="classiris_1_1mm_1_1BackingObject.html" target="_top" xlink:title=" ">
<polygon fill="white" stroke="#666666" points="513.5,-30 379.5,-30 379.5,0 513.5,0 513.5,-30"/>
<text text-anchor="start" x="387.5" y="-18" font-family="Helvetica,sans-Serif" font-size="10.00">iris::mm::BackingObject</text>
<text text-anchor="middle" x="446.5" y="-7" font-family="Helvetica,sans-Serif" font-size="10.00">&lt; BackingObject &gt;</text>
</a>
</g>
</g>
<!-- Node1&#45;&gt;Node10 -->
<g id="edge9_Node000001_Node000010" class="edge">
<title>Node1&#45;&gt;Node10</title>
<g id="a_edge9_Node000001_Node000010"><a xlink:title=" ">
<path fill="none" stroke="#63b8ff" d="M249.66,-154.93C269.96,-126.13 313.56,-69.95 364,-39 369.53,-35.61 375.57,-32.67 381.78,-30.13"/>
<polygon fill="#63b8ff" stroke="#63b8ff" points="246.71,-153.03 243.91,-163.25 252.47,-157.01 246.71,-153.03"/>
</a>
</g>
</g>
<!-- Node2 -->
<g id="Node000002" class="node">
<title>Node2</title>
<g id="a_Node000002"><a xlink:href="structdi_1_1util_1_1Immovable.html" target="_top" xlink:title=" ">
<polygon fill="white" stroke="#666666" points="109,-182.5 0,-182.5 0,-163.5 109,-163.5 109,-182.5"/>
<text text-anchor="middle" x="54.5" y="-170.5" font-family="Helvetica,sans-Serif" font-size="10.00">di::util::Immovable</text>
</a>
</g>
</g>
<!-- Node2&#45;&gt;Node1 -->
<g id="edge1_Node000001_Node000002" class="edge">
<title>Node2&#45;&gt;Node1</title>
<g id="a_edge1_Node000001_Node000002"><a xlink:title=" ">
<path fill="none" stroke="#63b8ff" d="M119.02,-173C127.38,-173 136.07,-173 144.77,-173"/>
<polygon fill="#63b8ff" stroke="#63b8ff" points="119.02,-169.5 109.02,-173 119.02,-176.5 119.02,-169.5"/>
</a>
</g>
</g>
</g>
</svg>
