<?xml version="1.0" encoding="UTF-8" standalone="no"?>
<!DOCTYPE svg PUBLIC "-//W3C//DTD SVG 1.1//EN"
 "http://www.w3.org/Graphics/SVG/1.1/DTD/svg11.dtd">
<!-- Generated by graphviz version 2.43.0 (0)
 -->
<!-- Title: di::execution::RunLoop&lt; Lock &gt;::OperationStateT&lt; Receiver &gt;::Type Pages: 1 -->
<svg width="173pt" height="236pt"
 viewBox="0.00 0.00 173.00 236.00" xmlns="http://www.w3.org/2000/svg" xmlns:xlink="http://www.w3.org/1999/xlink">
<g id="graph0" class="graph" transform="scale(1 1) rotate(0) translate(4 232)">
<title>di::execution::RunLoop&lt; Lock &gt;::OperationStateT&lt; Receiver &gt;::Type</title>
<!-- Node1 -->
<g id="Node000001" class="node">
<title>Node1</title>
<g id="a_Node000001"><a xlink:title=" ">
<polygon fill="#999999" stroke="#666666" points="156,-41 9,-41 9,0 156,0 156,-41"/>
<text text-anchor="start" x="17" y="-29" font-family="Helvetica,sans-Serif" font-size="10.00">di::execution::RunLoop</text>
<text text-anchor="start" x="17" y="-18" font-family="Helvetica,sans-Serif" font-size="10.00">&lt; Lock &gt;::OperationStateT</text>
<text text-anchor="middle" x="82.5" y="-7" font-family="Helvetica,sans-Serif" font-size="10.00">&lt; Receiver &gt;::Type</text>
</a>
</g>
</g>
<!-- Node2 -->
<g id="Node000002" class="node">
<title>Node2</title>
<g id="a_Node000002"><a xlink:title=" ">
<polygon fill="white" stroke="#666666" points="165,-107 0,-107 0,-77 165,-77 165,-107"/>
<text text-anchor="start" x="8" y="-95" font-family="Helvetica,sans-Serif" font-size="10.00">di::execution::RunLoop</text>
<text text-anchor="middle" x="82.5" y="-84" font-family="Helvetica,sans-Serif" font-size="10.00">&lt; Lock &gt;::OperationStateBase</text>
</a>
</g>
</g>
<!-- Node2&#45;&gt;Node1 -->
<g id="edge1_Node000001_Node000002" class="edge">
<title>Node2&#45;&gt;Node1</title>
<g id="a_edge1_Node000001_Node000002"><a xlink:title=" ">
<path fill="none" stroke="#63b8ff" d="M82.5,-66.91C82.5,-58.47 82.5,-49.1 82.5,-41.07"/>
<polygon fill="#63b8ff" stroke="#63b8ff" points="79,-66.94 82.5,-76.94 86,-66.94 79,-66.94"/>
</a>
</g>
</g>
<!-- Node3 -->
<g id="Node000003" class="node">
<title>Node3</title>
<g id="a_Node000003"><a xlink:href="classdi_1_1container_1_1IntrusiveForwardListNode.html" target="_top" xlink:title=" ">
<polygon fill="white" stroke="#666666" points="151,-173 14,-173 14,-143 151,-143 151,-173"/>
<text text-anchor="start" x="22" y="-161" font-family="Helvetica,sans-Serif" font-size="10.00">di::container::Intrusive</text>
<text text-anchor="middle" x="82.5" y="-150" font-family="Helvetica,sans-Serif" font-size="10.00">ForwardListNode&lt; Tag &gt;</text>
</a>
</g>
</g>
<!-- Node3&#45;&gt;Node2 -->
<g id="edge2_Node000002_Node000003" class="edge">
<title>Node3&#45;&gt;Node2</title>
<g id="a_edge2_Node000002_Node000003"><a xlink:title=" ">
<path fill="none" stroke="#63b8ff" d="M82.5,-132.54C82.5,-123.96 82.5,-114.61 82.5,-107.16"/>
<polygon fill="#63b8ff" stroke="#63b8ff" points="79,-132.8 82.5,-142.8 86,-132.8 79,-132.8"/>
</a>
</g>
</g>
<!-- Node4 -->
<g id="Node000004" class="node">
<title>Node4</title>
<g id="a_Node000004"><a xlink:href="structdi_1_1util_1_1Immovable.html" target="_top" xlink:title=" ">
<polygon fill="white" stroke="#666666" points="137,-228 28,-228 28,-209 137,-209 137,-228"/>
<text text-anchor="middle" x="82.5" y="-216" font-family="Helvetica,sans-Serif" font-size="10.00">di::util::Immovable</text>
</a>
</g>
</g>
<!-- Node4&#45;&gt;Node3 -->
<g id="edge3_Node000003_Node000004" class="edge">
<title>Node4&#45;&gt;Node3</title>
<g id="a_edge3_Node000003_Node000004"><a xlink:title=" ">
<path fill="none" stroke="#8b1a1a" d="M82.5,-198.65C82.5,-190.36 82.5,-180.78 82.5,-173.11"/>
<polygon fill="#8b1a1a" stroke="#8b1a1a" points="79,-198.87 82.5,-208.87 86,-198.87 79,-198.87"/>
</a>
</g>
</g>
</g>
</svg>
