<?xml version="1.0" encoding="UTF-8" standalone="no"?>
<!DOCTYPE svg PUBLIC "-//W3C//DTD SVG 1.1//EN"
 "http://www.w3.org/Graphics/SVG/1.1/DTD/svg11.dtd">
<!-- Generated by graphviz version 2.43.0 (0)
 -->
<!-- Title: di::bit::BitFlag&lt; index &gt; Pages: 1 -->
<svg width="384pt" height="1022pt"
 viewBox="0.00 0.00 384.00 1021.50" xmlns="http://www.w3.org/2000/svg" xmlns:xlink="http://www.w3.org/1999/xlink">
<g id="graph0" class="graph" transform="scale(1 1) rotate(0) translate(4 1017.5)">
<title>di::bit::BitFlag&lt; index &gt;</title>
<!-- Node1 -->
<g id="Node000001" class="node">
<title>Node1</title>
<g id="a_Node000001"><a xlink:title=" ">
<polygon fill="#999999" stroke="#666666" points="134,-528 0,-528 0,-509 134,-509 134,-528"/>
<text text-anchor="middle" x="67" y="-516" font-family="Helvetica,sans-Serif" font-size="10.00">di::bit::BitFlag&lt; index &gt;</text>
</a>
</g>
</g>
<!-- Node2 -->
<g id="Node000002" class="node">
<title>Node2</title>
<g id="a_Node000002"><a xlink:href="structiris_1_1x86_1_1amd64_1_1ApicExtendedControlExtendId.html" target="_top" xlink:title=" ">
<polygon fill="white" stroke="#666666" points="357,-1013.5 189,-1013.5 189,-983.5 357,-983.5 357,-1013.5"/>
<text text-anchor="start" x="197" y="-1001.5" font-family="Helvetica,sans-Serif" font-size="10.00">iris::x86::amd64::ApicExtended</text>
<text text-anchor="middle" x="273" y="-990.5" font-family="Helvetica,sans-Serif" font-size="10.00">ControlExtendId&lt; 2 &gt;</text>
</a>
</g>
</g>
<!-- Node1&#45;&gt;Node2 -->
<g id="edge1_Node000001_Node000002" class="edge">
<title>Node1&#45;&gt;Node2</title>
<g id="a_edge1_Node000001_Node000002"><a xlink:title=" ">
<path fill="none" stroke="#63b8ff" d="M69.65,-538.03C76.71,-616.9 106.93,-910.73 170,-974.5 175.37,-979.93 181.73,-984.23 188.6,-987.61"/>
<polygon fill="#63b8ff" stroke="#63b8ff" points="73.13,-537.67 68.78,-528.01 66.16,-538.27 73.13,-537.67"/>
</a>
</g>
</g>
<!-- Node3 -->
<g id="Node000003" class="node">
<title>Node3</title>
<g id="a_Node000003"><a xlink:href="structiris_1_1x86_1_1amd64_1_1ApicExtendedControlInterruptEnable.html" target="_top" xlink:title=" ">
<polygon fill="white" stroke="#666666" points="357,-965.5 189,-965.5 189,-935.5 357,-935.5 357,-965.5"/>
<text text-anchor="start" x="197" y="-953.5" font-family="Helvetica,sans-Serif" font-size="10.00">iris::x86::amd64::ApicExtended</text>
<text text-anchor="middle" x="273" y="-942.5" font-family="Helvetica,sans-Serif" font-size="10.00">ControlInterruptEnable&lt; 0 &gt;</text>
</a>
</g>
</g>
<!-- Node1&#45;&gt;Node3 -->
<g id="edge2_Node000001_Node000003" class="edge">
<title>Node1&#45;&gt;Node3</title>
<g id="a_edge2_Node000001_Node000003"><a xlink:title=" ">
<path fill="none" stroke="#63b8ff" d="M70.23,-538.29C78.96,-612.17 113.13,-870.41 170,-926.5 175.44,-931.87 181.84,-936.12 188.74,-939.47"/>
<polygon fill="#63b8ff" stroke="#63b8ff" points="73.68,-537.61 69.05,-528.08 66.72,-538.42 73.68,-537.61"/>
</a>
</g>
</g>
<!-- Node4 -->
<g id="Node000004" class="node">
<title>Node4</title>
<g id="a_Node000004"><a xlink:href="structiris_1_1x86_1_1amd64_1_1ApicExtendedControlSpecificEoi.html" target="_top" xlink:title=" ">
<polygon fill="white" stroke="#666666" points="357,-917.5 189,-917.5 189,-887.5 357,-887.5 357,-917.5"/>
<text text-anchor="start" x="197" y="-905.5" font-family="Helvetica,sans-Serif" font-size="10.00">iris::x86::amd64::ApicExtended</text>
<text text-anchor="middle" x="273" y="-894.5" font-family="Helvetica,sans-Serif" font-size="10.00">ControlSpecificEoi&lt; 1 &gt;</text>
</a>
</g>
</g>
<!-- Node1&#45;&gt;Node4 -->
<g id="edge3_Node000001_Node000004" class="edge">
<title>Node1&#45;&gt;Node4</title>
<g id="a_edge3_Node000001_Node000004"><a xlink:title=" ">
<path fill="none" stroke="#63b8ff" d="M67.18,-538.45C65.84,-599.17 70.53,-783.4 170,-878.5 175.52,-883.78 181.98,-887.97 188.91,-891.29"/>
<polygon fill="#63b8ff" stroke="#63b8ff" points="70.68,-538.4 67.49,-528.3 63.68,-538.19 70.68,-538.4"/>
</a>
</g>
</g>
<!-- Node5 -->
<g id="Node000005" class="node">
<title>Node5</title>
<g id="a_Node000005"><a xlink:href="structiris_1_1x86_1_1amd64_1_1ApicExtendedFeatureExtendedId.html" target="_top" xlink:title=" ">
<polygon fill="white" stroke="#666666" points="357,-869.5 189,-869.5 189,-839.5 357,-839.5 357,-869.5"/>
<text text-anchor="start" x="197" y="-857.5" font-family="Helvetica,sans-Serif" font-size="10.00">iris::x86::amd64::ApicExtended</text>
<text text-anchor="middle" x="273" y="-846.5" font-family="Helvetica,sans-Serif" font-size="10.00">FeatureExtendedId&lt; 2 &gt;</text>
</a>
</g>
</g>
<!-- Node1&#45;&gt;Node5 -->
<g id="edge4_Node000001_Node000005" class="edge">
<title>Node1&#45;&gt;Node5</title>
<g id="a_edge4_Node000001_Node000005"><a xlink:title=" ">
<path fill="none" stroke="#63b8ff" d="M68.19,-538.31C69.85,-593.47 82.43,-750.06 170,-830.5 175.49,-835.55 181.84,-839.59 188.63,-842.83"/>
<polygon fill="#63b8ff" stroke="#63b8ff" points="71.69,-538.07 67.98,-528.14 64.69,-538.21 71.69,-538.07"/>
</a>
</g>
</g>
<!-- Node6 -->
<g id="Node000006" class="node">
<title>Node6</title>
<g id="a_Node000006"><a xlink:href="structiris_1_1x86_1_1amd64_1_1ApicExtendedFeatureInterruptEnable.html" target="_top" xlink:title=" ">
<polygon fill="white" stroke="#666666" points="357,-821.5 189,-821.5 189,-791.5 357,-791.5 357,-821.5"/>
<text text-anchor="start" x="197" y="-809.5" font-family="Helvetica,sans-Serif" font-size="10.00">iris::x86::amd64::ApicExtended</text>
<text text-anchor="middle" x="273" y="-798.5" font-family="Helvetica,sans-Serif" font-size="10.00">FeatureInterruptEnable&lt; 0 &gt;</text>
</a>
</g>
</g>
<!-- Node1&#45;&gt;Node6 -->
<g id="edge5_Node000001_Node000006" class="edge">
<title>Node1&#45;&gt;Node6</title>
<g id="a_edge5_Node000001_Node000006"><a xlink:title=" ">
<path fill="none" stroke="#63b8ff" d="M69.52,-538.19C74.41,-587.4 94.21,-716.48 170,-782.5 175.62,-787.4 182.06,-791.34 188.91,-794.52"/>
<polygon fill="#63b8ff" stroke="#63b8ff" points="73,-537.87 68.63,-528.22 66.03,-538.49 73,-537.87"/>
</a>
</g>
</g>
<!-- Node7 -->
<g id="Node000007" class="node">
<title>Node7</title>
<g id="a_Node000007"><a xlink:href="structiris_1_1x86_1_1amd64_1_1ApicExtendedFeatureSpecificEoi.html" target="_top" xlink:title=" ">
<polygon fill="white" stroke="#666666" points="357,-773.5 189,-773.5 189,-743.5 357,-743.5 357,-773.5"/>
<text text-anchor="start" x="197" y="-761.5" font-family="Helvetica,sans-Serif" font-size="10.00">iris::x86::amd64::ApicExtended</text>
<text text-anchor="middle" x="273" y="-750.5" font-family="Helvetica,sans-Serif" font-size="10.00">FeatureSpecificEoi&lt; 1 &gt;</text>
</a>
</g>
</g>
<!-- Node1&#45;&gt;Node7 -->
<g id="edge6_Node000001_Node000007" class="edge">
<title>Node1&#45;&gt;Node7</title>
<g id="a_edge6_Node000001_Node000007"><a xlink:title=" ">
<path fill="none" stroke="#63b8ff" d="M71.35,-538.01C79.75,-580.66 105.78,-682.53 170,-734.5 175.66,-739.08 182.04,-742.81 188.77,-745.85"/>
<polygon fill="#63b8ff" stroke="#63b8ff" points="74.77,-537.26 69.51,-528.07 67.89,-538.54 74.77,-537.26"/>
</a>
</g>
</g>
<!-- Node8 -->
<g id="Node000008" class="node">
<title>Node8</title>
<g id="a_Node000008"><a xlink:href="structiris_1_1x86_1_1amd64_1_1ApicExtendedRegisterPresent.html" target="_top" xlink:title=" ">
<polygon fill="white" stroke="#666666" points="357,-725.5 189,-725.5 189,-695.5 357,-695.5 357,-725.5"/>
<text text-anchor="start" x="197" y="-713.5" font-family="Helvetica,sans-Serif" font-size="10.00">iris::x86::amd64::ApicExtended</text>
<text text-anchor="middle" x="273" y="-702.5" font-family="Helvetica,sans-Serif" font-size="10.00">RegisterPresent&lt; 31 &gt;</text>
</a>
</g>
</g>
<!-- Node1&#45;&gt;Node8 -->
<g id="edge7_Node000001_Node000008" class="edge">
<title>Node1&#45;&gt;Node8</title>
<g id="a_edge7_Node000001_Node000008"><a xlink:title=" ">
<path fill="none" stroke="#63b8ff" d="M74.15,-537.96C86.37,-573.36 117.21,-648.16 170,-686.5 175.74,-690.67 182.1,-694.12 188.75,-696.99"/>
<polygon fill="#63b8ff" stroke="#63b8ff" points="77.42,-536.71 70.95,-528.33 70.78,-538.92 77.42,-536.71"/>
</a>
</g>
</g>
<!-- Node9 -->
<g id="Node000009" class="node">
<title>Node9</title>
<g id="a_Node000009"><a xlink:href="structiris_1_1x86_1_1amd64_1_1ApicInterruptCommandDeliveryStatus.html" target="_top" xlink:title=" ">
<polygon fill="white" stroke="#666666" points="359.5,-677.5 186.5,-677.5 186.5,-647.5 359.5,-647.5 359.5,-677.5"/>
<text text-anchor="start" x="194.5" y="-665.5" font-family="Helvetica,sans-Serif" font-size="10.00">iris::x86::amd64::ApicInterrupt</text>
<text text-anchor="middle" x="273" y="-654.5" font-family="Helvetica,sans-Serif" font-size="10.00">CommandDeliveryStatus&lt; 12 &gt;</text>
</a>
</g>
</g>
<!-- Node1&#45;&gt;Node9 -->
<g id="edge8_Node000001_Node000009" class="edge">
<title>Node1&#45;&gt;Node9</title>
<g id="a_edge8_Node000001_Node000009"><a xlink:title=" ">
<path fill="none" stroke="#63b8ff" d="M78.32,-536.81C94.34,-563.5 127.82,-612.72 170,-638.5 175.67,-641.96 181.79,-644.93 188.12,-647.46"/>
<polygon fill="#63b8ff" stroke="#63b8ff" points="81.28,-534.95 73.22,-528.08 75.24,-538.48 81.28,-534.95"/>
</a>
</g>
</g>
<!-- Node10 -->
<g id="Node000010" class="node">
<title>Node10</title>
<g id="a_Node000010"><a xlink:href="structiris_1_1x86_1_1amd64_1_1ApicInterruptCommandDestinationMode.html" target="_top" xlink:title=" ">
<polygon fill="white" stroke="#666666" points="365.5,-629.5 180.5,-629.5 180.5,-599.5 365.5,-599.5 365.5,-629.5"/>
<text text-anchor="start" x="188.5" y="-617.5" font-family="Helvetica,sans-Serif" font-size="10.00">iris::x86::amd64::ApicInterrupt</text>
<text text-anchor="middle" x="273" y="-606.5" font-family="Helvetica,sans-Serif" font-size="10.00">CommandDestinationMode&lt; 11 &gt;</text>
</a>
</g>
</g>
<!-- Node1&#45;&gt;Node10 -->
<g id="edge9_Node000001_Node000010" class="edge">
<title>Node1&#45;&gt;Node10</title>
<g id="a_edge9_Node000001_Node000010"><a xlink:title=" ">
<path fill="none" stroke="#63b8ff" d="M86.51,-534.92C105.98,-551.35 138.15,-576.16 170,-590.5 177.63,-593.93 185.81,-596.91 194.1,-599.48"/>
<polygon fill="#63b8ff" stroke="#63b8ff" points="88.61,-532.11 78.75,-528.25 84.05,-537.42 88.61,-532.11"/>
</a>
</g>
</g>
<!-- Node11 -->
<g id="Node000011" class="node">
<title>Node11</title>
<g id="a_Node000011"><a xlink:href="structiris_1_1x86_1_1amd64_1_1ApicInterruptCommandLevel.html" target="_top" xlink:title=" ">
<polygon fill="white" stroke="#666666" points="355,-581.5 191,-581.5 191,-551.5 355,-551.5 355,-581.5"/>
<text text-anchor="start" x="199" y="-569.5" font-family="Helvetica,sans-Serif" font-size="10.00">iris::x86::amd64::ApicInterrupt</text>
<text text-anchor="middle" x="273" y="-558.5" font-family="Helvetica,sans-Serif" font-size="10.00">CommandLevel&lt; 14 &gt;</text>
</a>
</g>
</g>
<!-- Node1&#45;&gt;Node11 -->
<g id="edge10_Node000001_Node000011" class="edge">
<title>Node1&#45;&gt;Node11</title>
<g id="a_edge10_Node000001_Node000011"><a xlink:title=" ">
<path fill="none" stroke="#63b8ff" d="M118.8,-530.45C145.79,-536.8 179.23,-544.67 207.98,-551.44"/>
<polygon fill="#63b8ff" stroke="#63b8ff" points="119.33,-526.98 108.79,-528.1 117.72,-533.8 119.33,-526.98"/>
</a>
</g>
</g>
<!-- Node12 -->
<g id="Node000012" class="node">
<title>Node12</title>
<g id="a_Node000012"><a xlink:href="structiris_1_1x86_1_1amd64_1_1ApicInterruptCommandTriggerMode.html" target="_top" xlink:title=" ">
<polygon fill="white" stroke="#666666" points="355,-533.5 191,-533.5 191,-503.5 355,-503.5 355,-533.5"/>
<text text-anchor="start" x="199" y="-521.5" font-family="Helvetica,sans-Serif" font-size="10.00">iris::x86::amd64::ApicInterrupt</text>
<text text-anchor="middle" x="273" y="-510.5" font-family="Helvetica,sans-Serif" font-size="10.00">CommandTriggerMode&lt; 15 &gt;</text>
</a>
</g>
</g>
<!-- Node1&#45;&gt;Node12 -->
<g id="edge11_Node000001_Node000012" class="edge">
<title>Node1&#45;&gt;Node12</title>
<g id="a_edge11_Node000001_Node000012"><a xlink:title=" ">
<path fill="none" stroke="#63b8ff" d="M144.54,-518.5C159.63,-518.5 175.52,-518.5 190.77,-518.5"/>
<polygon fill="#63b8ff" stroke="#63b8ff" points="144.23,-515 134.23,-518.5 144.23,-522 144.23,-515"/>
</a>
</g>
</g>
<!-- Node13 -->
<g id="Node000013" class="node">
<title>Node13</title>
<g id="a_Node000013"><a xlink:href="structiris_1_1x86_1_1amd64_1_1ApicLvtEntryDeliveryStatus.html" target="_top" xlink:title=" ">
<polygon fill="white" stroke="#666666" points="347.5,-485.5 198.5,-485.5 198.5,-455.5 347.5,-455.5 347.5,-485.5"/>
<text text-anchor="start" x="206.5" y="-473.5" font-family="Helvetica,sans-Serif" font-size="10.00">iris::x86::amd64::ApicLvt</text>
<text text-anchor="middle" x="273" y="-462.5" font-family="Helvetica,sans-Serif" font-size="10.00">EntryDeliveryStatus&lt; 12 &gt;</text>
</a>
</g>
</g>
<!-- Node1&#45;&gt;Node13 -->
<g id="edge12_Node000001_Node000013" class="edge">
<title>Node1&#45;&gt;Node13</title>
<g id="a_edge12_Node000001_Node000013"><a xlink:title=" ">
<path fill="none" stroke="#63b8ff" d="M118.8,-506.55C145.79,-500.2 179.23,-492.33 207.98,-485.56"/>
<polygon fill="#63b8ff" stroke="#63b8ff" points="117.72,-503.2 108.79,-508.9 119.33,-510.02 117.72,-503.2"/>
</a>
</g>
</g>
<!-- Node14 -->
<g id="Node000014" class="node">
<title>Node14</title>
<g id="a_Node000014"><a xlink:href="structiris_1_1x86_1_1amd64_1_1ApicLvtEntryMask.html" target="_top" xlink:title=" ">
<polygon fill="white" stroke="#666666" points="341.5,-437.5 204.5,-437.5 204.5,-407.5 341.5,-407.5 341.5,-437.5"/>
<text text-anchor="start" x="212.5" y="-425.5" font-family="Helvetica,sans-Serif" font-size="10.00">iris::x86::amd64::ApicLvt</text>
<text text-anchor="middle" x="273" y="-414.5" font-family="Helvetica,sans-Serif" font-size="10.00">EntryMask&lt; 16 &gt;</text>
</a>
</g>
</g>
<!-- Node1&#45;&gt;Node14 -->
<g id="edge13_Node000001_Node000014" class="edge">
<title>Node1&#45;&gt;Node14</title>
<g id="a_edge13_Node000001_Node000014"><a xlink:title=" ">
<path fill="none" stroke="#63b8ff" d="M86.51,-502.08C105.98,-485.65 138.15,-460.84 170,-446.5 180.78,-441.65 192.67,-437.71 204.4,-434.54"/>
<polygon fill="#63b8ff" stroke="#63b8ff" points="84.05,-499.58 78.75,-508.75 88.61,-504.89 84.05,-499.58"/>
</a>
</g>
</g>
<!-- Node15 -->
<g id="Node000015" class="node">
<title>Node15</title>
<g id="a_Node000015"><a xlink:href="structiris_1_1x86_1_1amd64_1_1ApicLvtEntryRemoteIrr.html" target="_top" xlink:title=" ">
<polygon fill="white" stroke="#666666" points="341.5,-389.5 204.5,-389.5 204.5,-359.5 341.5,-359.5 341.5,-389.5"/>
<text text-anchor="start" x="212.5" y="-377.5" font-family="Helvetica,sans-Serif" font-size="10.00">iris::x86::amd64::ApicLvt</text>
<text text-anchor="middle" x="273" y="-366.5" font-family="Helvetica,sans-Serif" font-size="10.00">EntryRemoteIrr&lt; 14 &gt;</text>
</a>
</g>
</g>
<!-- Node1&#45;&gt;Node15 -->
<g id="edge14_Node000001_Node000015" class="edge">
<title>Node1&#45;&gt;Node15</title>
<g id="a_edge14_Node000001_Node000015"><a xlink:title=" ">
<path fill="none" stroke="#63b8ff" d="M78.32,-500.19C94.34,-473.5 127.82,-424.28 170,-398.5 180.4,-392.14 192.34,-387.47 204.31,-384.03"/>
<polygon fill="#63b8ff" stroke="#63b8ff" points="75.24,-498.52 73.22,-508.92 81.28,-502.05 75.24,-498.52"/>
</a>
</g>
</g>
<!-- Node16 -->
<g id="Node000016" class="node">
<title>Node16</title>
<g id="a_Node000016"><a xlink:href="structiris_1_1x86_1_1amd64_1_1ApicLvtEntryTimerMode.html" target="_top" xlink:title=" ">
<polygon fill="white" stroke="#666666" points="341.5,-341.5 204.5,-341.5 204.5,-311.5 341.5,-311.5 341.5,-341.5"/>
<text text-anchor="start" x="212.5" y="-329.5" font-family="Helvetica,sans-Serif" font-size="10.00">iris::x86::amd64::ApicLvt</text>
<text text-anchor="middle" x="273" y="-318.5" font-family="Helvetica,sans-Serif" font-size="10.00">EntryTimerMode&lt; 17 &gt;</text>
</a>
</g>
</g>
<!-- Node1&#45;&gt;Node16 -->
<g id="edge15_Node000001_Node000016" class="edge">
<title>Node1&#45;&gt;Node16</title>
<g id="a_edge15_Node000001_Node000016"><a xlink:title=" ">
<path fill="none" stroke="#63b8ff" d="M74.15,-499.04C86.37,-463.64 117.21,-388.84 170,-350.5 180.16,-343.12 192.25,-337.98 204.49,-334.4"/>
<polygon fill="#63b8ff" stroke="#63b8ff" points="70.78,-498.08 70.95,-508.67 77.42,-500.29 70.78,-498.08"/>
</a>
</g>
</g>
<!-- Node17 -->
<g id="Node000017" class="node">
<title>Node17</title>
<g id="a_Node000017"><a xlink:href="structiris_1_1x86_1_1amd64_1_1ApicLvtEntryTriggerMode.html" target="_top" xlink:title=" ">
<polygon fill="white" stroke="#666666" points="341.5,-293.5 204.5,-293.5 204.5,-263.5 341.5,-263.5 341.5,-293.5"/>
<text text-anchor="start" x="212.5" y="-281.5" font-family="Helvetica,sans-Serif" font-size="10.00">iris::x86::amd64::ApicLvt</text>
<text text-anchor="middle" x="273" y="-270.5" font-family="Helvetica,sans-Serif" font-size="10.00">EntryTriggerMode&lt; 15 &gt;</text>
</a>
</g>
</g>
<!-- Node1&#45;&gt;Node17 -->
<g id="edge16_Node000001_Node000017" class="edge">
<title>Node1&#45;&gt;Node17</title>
<g id="a_edge16_Node000001_Node000017"><a xlink:title=" ">
<path fill="none" stroke="#63b8ff" d="M71.35,-498.99C79.75,-456.34 105.78,-354.47 170,-302.5 179.9,-294.49 192.01,-289.06 204.39,-285.41"/>
<polygon fill="#63b8ff" stroke="#63b8ff" points="67.89,-498.46 69.51,-508.93 74.77,-499.74 67.89,-498.46"/>
</a>
</g>
</g>
<!-- Node18 -->
<g id="Node000018" class="node">
<title>Node18</title>
<g id="a_Node000018"><a xlink:href="structiris_1_1x86_1_1amd64_1_1IoApicRedirectionTableEntryDeliveryStatus.html" target="_top" xlink:title=" ">
<polygon fill="white" stroke="#666666" points="355,-245 191,-245 191,-204 355,-204 355,-245"/>
<text text-anchor="start" x="199" y="-233" font-family="Helvetica,sans-Serif" font-size="10.00">iris::x86::amd64::IoApic</text>
<text text-anchor="start" x="199" y="-222" font-family="Helvetica,sans-Serif" font-size="10.00">RedirectionTableEntryDelivery</text>
<text text-anchor="middle" x="273" y="-211" font-family="Helvetica,sans-Serif" font-size="10.00">Status&lt; 12 &gt;</text>
</a>
</g>
</g>
<!-- Node1&#45;&gt;Node18 -->
<g id="edge17_Node000001_Node000018" class="edge">
<title>Node1&#45;&gt;Node18</title>
<g id="a_edge17_Node000001_Node000018"><a xlink:title=" ">
<path fill="none" stroke="#63b8ff" d="M69.78,-498.75C75.24,-449.89 96.21,-322.43 170,-254.5 176.11,-248.87 183.23,-244.3 190.8,-240.58"/>
<polygon fill="#63b8ff" stroke="#63b8ff" points="66.27,-498.61 68.74,-508.91 73.24,-499.32 66.27,-498.61"/>
</a>
</g>
</g>
<!-- Node19 -->
<g id="Node000019" class="node">
<title>Node19</title>
<g id="a_Node000019"><a xlink:href="structiris_1_1x86_1_1amd64_1_1IoApicRedirectionTableEntryMask.html" target="_top" xlink:title=" ">
<polygon fill="white" stroke="#666666" points="365,-185.5 181,-185.5 181,-155.5 365,-155.5 365,-185.5"/>
<text text-anchor="start" x="189" y="-173.5" font-family="Helvetica,sans-Serif" font-size="10.00">iris::x86::amd64::IoApic</text>
<text text-anchor="middle" x="273" y="-162.5" font-family="Helvetica,sans-Serif" font-size="10.00">RedirectionTableEntryMask&lt; 16 &gt;</text>
</a>
</g>
</g>
<!-- Node1&#45;&gt;Node19 -->
<g id="edge18_Node000001_Node000019" class="edge">
<title>Node1&#45;&gt;Node19</title>
<g id="a_edge18_Node000001_Node000019"><a xlink:title=" ">
<path fill="none" stroke="#63b8ff" d="M67.97,-498.79C69.02,-442.51 80.05,-279.74 170,-195.5 174.13,-191.64 178.75,-188.34 183.69,-185.54"/>
<polygon fill="#63b8ff" stroke="#63b8ff" points="64.47,-498.81 67.88,-508.84 71.47,-498.88 64.47,-498.81"/>
</a>
</g>
</g>
<!-- Node20 -->
<g id="Node000020" class="node">
<title>Node20</title>
<g id="a_Node000020"><a xlink:href="structiris_1_1x86_1_1amd64_1_1IoApicRedirectionTableEntryPolarity.html" target="_top" xlink:title=" ">
<polygon fill="white" stroke="#666666" points="370.5,-137.5 175.5,-137.5 175.5,-107.5 370.5,-107.5 370.5,-137.5"/>
<text text-anchor="start" x="183.5" y="-125.5" font-family="Helvetica,sans-Serif" font-size="10.00">iris::x86::amd64::IoApic</text>
<text text-anchor="middle" x="273" y="-114.5" font-family="Helvetica,sans-Serif" font-size="10.00">RedirectionTableEntryPolarity&lt; 13 &gt;</text>
</a>
</g>
</g>
<!-- Node1&#45;&gt;Node20 -->
<g id="edge19_Node000001_Node000020" class="edge">
<title>Node1&#45;&gt;Node20</title>
<g id="a_edge19_Node000001_Node000020"><a xlink:title=" ">
<path fill="none" stroke="#63b8ff" d="M70.75,-498.67C80.8,-428.99 117.71,-196.91 170,-146.5 173.54,-143.09 177.46,-140.13 181.65,-137.57"/>
<polygon fill="#63b8ff" stroke="#63b8ff" points="67.26,-498.34 69.32,-508.73 74.19,-499.32 67.26,-498.34"/>
</a>
</g>
</g>
<!-- Node21 -->
<g id="Node000021" class="node">
<title>Node21</title>
<g id="a_Node000021"><a xlink:href="structiris_1_1x86_1_1amd64_1_1IoApicRedirectionTableEntryRemoteIrr.html" target="_top" xlink:title=" ">
<polygon fill="white" stroke="#666666" points="376,-89.5 170,-89.5 170,-59.5 376,-59.5 376,-89.5"/>
<text text-anchor="start" x="178" y="-77.5" font-family="Helvetica,sans-Serif" font-size="10.00">iris::x86::amd64::IoApic</text>
<text text-anchor="middle" x="273" y="-66.5" font-family="Helvetica,sans-Serif" font-size="10.00">RedirectionTableEntryRemoteIrr&lt; 14 &gt;</text>
</a>
</g>
</g>
<!-- Node1&#45;&gt;Node21 -->
<g id="edge20_Node000001_Node000021" class="edge">
<title>Node1&#45;&gt;Node21</title>
<g id="a_edge20_Node000001_Node000021"><a xlink:title=" ">
<path fill="none" stroke="#63b8ff" d="M70.09,-498.6C78.43,-423.2 111.63,-156.46 170,-98.5 173.36,-95.17 177.08,-92.26 181.07,-89.74"/>
<polygon fill="#63b8ff" stroke="#63b8ff" points="66.6,-498.32 69.01,-508.64 73.56,-499.08 66.6,-498.32"/>
</a>
</g>
</g>
<!-- Node22 -->
<g id="Node000022" class="node">
<title>Node22</title>
<g id="a_Node000022"><a xlink:href="structiris_1_1x86_1_1amd64_1_1IoApicRedirectionTableEntryTriggerMode.html" target="_top" xlink:title=" ">
<polygon fill="white" stroke="#666666" points="351,-41 195,-41 195,0 351,0 351,-41"/>
<text text-anchor="start" x="203" y="-29" font-family="Helvetica,sans-Serif" font-size="10.00">iris::x86::amd64::IoApic</text>
<text text-anchor="start" x="203" y="-18" font-family="Helvetica,sans-Serif" font-size="10.00">RedirectionTableEntryTrigger</text>
<text text-anchor="middle" x="273" y="-7" font-family="Helvetica,sans-Serif" font-size="10.00">Mode&lt; 15 &gt;</text>
</a>
</g>
</g>
<!-- Node1&#45;&gt;Node22 -->
<g id="edge21_Node000001_Node000022" class="edge">
<title>Node1&#45;&gt;Node22</title>
<g id="a_edge21_Node000001_Node000022"><a xlink:title=" ">
<path fill="none" stroke="#63b8ff" d="M69.68,-498.56C76.83,-418.01 107.35,-117.79 170,-50.5 176.92,-43.07 185.57,-37.45 194.89,-33.2"/>
<polygon fill="#63b8ff" stroke="#63b8ff" points="66.16,-498.53 68.79,-508.79 73.14,-499.13 66.16,-498.53"/>
</a>
</g>
</g>
</g>
</svg>
