<?xml version="1.0" encoding="UTF-8" standalone="no"?>
<!DOCTYPE svg PUBLIC "-//W3C//DTD SVG 1.1//EN"
 "http://www.w3.org/Graphics/SVG/1.1/DTD/svg11.dtd">
<!-- Generated by graphviz version 2.43.0 (0)
 -->
<!-- Title: di::bit::BitEnum&lt; T, index, bit_count &gt; Pages: 1 -->
<svg width="425pt" height="286pt"
 viewBox="0.00 0.00 425.00 286.00" xmlns="http://www.w3.org/2000/svg" xmlns:xlink="http://www.w3.org/1999/xlink">
<g id="graph0" class="graph" transform="scale(1 1) rotate(0) translate(4 282)">
<title>di::bit::BitEnum&lt; T, index, bit_count &gt;</title>
<!-- Node1 -->
<g id="Node000001" class="node">
<title>Node1</title>
<g id="a_Node000001"><a xlink:title=" ">
<polygon fill="#999999" stroke="#666666" points="112,-165 0,-165 0,-135 112,-135 112,-165"/>
<text text-anchor="start" x="8" y="-153" font-family="Helvetica,sans-Serif" font-size="10.00">di::bit::BitEnum&lt; T,</text>
<text text-anchor="middle" x="56" y="-142" font-family="Helvetica,sans-Serif" font-size="10.00"> index, bit_count &gt;</text>
</a>
</g>
</g>
<!-- Node2 -->
<g id="Node000002" class="node">
<title>Node2</title>
<g id="a_Node000002"><a xlink:href="structiris_1_1x86_1_1amd64_1_1ApicInterruptCommandDeliveryMode.html" target="_top" xlink:title=" ">
<polygon fill="white" stroke="#666666" points="417,-278 148,-278 148,-248 417,-248 417,-278"/>
<text text-anchor="start" x="156" y="-266" font-family="Helvetica,sans-Serif" font-size="10.00">iris::x86::amd64::ApicInterrupt</text>
<text text-anchor="middle" x="282.5" y="-255" font-family="Helvetica,sans-Serif" font-size="10.00">CommandDeliveryMode&lt; ApicMessageType, 8, 3 &gt;</text>
</a>
</g>
</g>
<!-- Node1&#45;&gt;Node2 -->
<g id="edge1_Node000001_Node000002" class="edge">
<title>Node1&#45;&gt;Node2</title>
<g id="a_edge1_Node000001_Node000002"><a xlink:title=" ">
<path fill="none" stroke="#63b8ff" d="M73.92,-173.07C90.42,-193.77 117.45,-223.24 148,-239 154.7,-242.45 161.81,-245.42 169.12,-247.96"/>
<polygon fill="#63b8ff" stroke="#63b8ff" points="76.61,-170.83 67.72,-165.07 71.08,-175.12 76.61,-170.83"/>
</a>
</g>
</g>
<!-- Node3 -->
<g id="Node000003" class="node">
<title>Node3</title>
<g id="a_Node000003"><a xlink:href="structiris_1_1x86_1_1amd64_1_1ApicInterruptCommandDestinationShorthand.html" target="_top" xlink:title=" ">
<polygon fill="white" stroke="#666666" points="380.5,-229.5 184.5,-229.5 184.5,-188.5 380.5,-188.5 380.5,-229.5"/>
<text text-anchor="start" x="192.5" y="-217.5" font-family="Helvetica,sans-Serif" font-size="10.00">iris::x86::amd64::ApicInterrupt</text>
<text text-anchor="start" x="192.5" y="-206.5" font-family="Helvetica,sans-Serif" font-size="10.00">CommandDestinationShorthand</text>
<text text-anchor="middle" x="282.5" y="-195.5" font-family="Helvetica,sans-Serif" font-size="10.00">&lt; ApicDestinationShorthand, 18, 2 &gt;</text>
</a>
</g>
</g>
<!-- Node1&#45;&gt;Node3 -->
<g id="edge2_Node000001_Node000003" class="edge">
<title>Node1&#45;&gt;Node3</title>
<g id="a_edge2_Node000001_Node000003"><a xlink:title=" ">
<path fill="none" stroke="#63b8ff" d="M109.59,-168.37C122.1,-172.46 135.46,-176.58 148,-180 159.67,-183.18 171.99,-186.25 184.23,-189.12"/>
<polygon fill="#63b8ff" stroke="#63b8ff" points="110.36,-164.94 99.77,-165.12 108.16,-171.59 110.36,-164.94"/>
</a>
</g>
</g>
<!-- Node4 -->
<g id="Node000004" class="node">
<title>Node4</title>
<g id="a_Node000004"><a xlink:href="structiris_1_1x86_1_1amd64_1_1ApicLvtEntryMessageType.html" target="_top" xlink:title=" ">
<polygon fill="white" stroke="#666666" points="387,-170.5 178,-170.5 178,-129.5 387,-129.5 387,-170.5"/>
<text text-anchor="start" x="186" y="-158.5" font-family="Helvetica,sans-Serif" font-size="10.00">iris::x86::amd64::ApicLvt</text>
<text text-anchor="start" x="186" y="-147.5" font-family="Helvetica,sans-Serif" font-size="10.00">EntryMessageType&lt; ApicMessageType,</text>
<text text-anchor="middle" x="282.5" y="-136.5" font-family="Helvetica,sans-Serif" font-size="10.00"> 8, 3 &gt;</text>
</a>
</g>
</g>
<!-- Node1&#45;&gt;Node4 -->
<g id="edge3_Node000001_Node000004" class="edge">
<title>Node1&#45;&gt;Node4</title>
<g id="a_edge3_Node000001_Node000004"><a xlink:title=" ">
<path fill="none" stroke="#63b8ff" d="M122.23,-150C139.64,-150 158.89,-150 177.82,-150"/>
<polygon fill="#63b8ff" stroke="#63b8ff" points="122.21,-146.5 112.21,-150 122.21,-153.5 122.21,-146.5"/>
</a>
</g>
</g>
<!-- Node5 -->
<g id="Node000005" class="node">
<title>Node5</title>
<g id="a_Node000005"><a xlink:href="structiris_1_1x86_1_1amd64_1_1IoApicRedirectionTableEntryDeliveryMode.html" target="_top" xlink:title=" ">
<polygon fill="white" stroke="#666666" points="371,-111.5 194,-111.5 194,-70.5 371,-70.5 371,-111.5"/>
<text text-anchor="start" x="202" y="-99.5" font-family="Helvetica,sans-Serif" font-size="10.00">iris::x86::amd64::IoApic</text>
<text text-anchor="start" x="202" y="-88.5" font-family="Helvetica,sans-Serif" font-size="10.00">RedirectionTableEntryDelivery</text>
<text text-anchor="middle" x="282.5" y="-77.5" font-family="Helvetica,sans-Serif" font-size="10.00">Mode&lt; ApicMessageType, 8, 3 &gt;</text>
</a>
</g>
</g>
<!-- Node1&#45;&gt;Node5 -->
<g id="edge4_Node000001_Node000005" class="edge">
<title>Node1&#45;&gt;Node5</title>
<g id="a_edge4_Node000001_Node000005"><a xlink:title=" ">
<path fill="none" stroke="#63b8ff" d="M111.52,-131.77C123.48,-128.01 136.12,-124.22 148,-121 162.79,-116.99 178.6,-113.1 193.98,-109.52"/>
<polygon fill="#63b8ff" stroke="#63b8ff" points="110.13,-128.54 101.67,-134.91 112.26,-135.21 110.13,-128.54"/>
</a>
</g>
</g>
<!-- Node6 -->
<g id="Node000006" class="node">
<title>Node6</title>
<g id="a_Node000006"><a xlink:href="structiris_1_1x86_1_1amd64_1_1IoApicRedirectionTableEntryDestinationMode.html" target="_top" xlink:title=" ">
<polygon fill="white" stroke="#666666" points="372,-52 193,-52 193,0 372,0 372,-52"/>
<text text-anchor="start" x="201" y="-40" font-family="Helvetica,sans-Serif" font-size="10.00">iris::x86::amd64::IoApic</text>
<text text-anchor="start" x="201" y="-29" font-family="Helvetica,sans-Serif" font-size="10.00">RedirectionTableEntryDestination</text>
<text text-anchor="start" x="201" y="-18" font-family="Helvetica,sans-Serif" font-size="10.00">Mode&lt; IoApicDestinationMode,</text>
<text text-anchor="middle" x="282.5" y="-7" font-family="Helvetica,sans-Serif" font-size="10.00"> 11, 1 &gt;</text>
</a>
</g>
</g>
<!-- Node1&#45;&gt;Node6 -->
<g id="edge5_Node000001_Node000006" class="edge">
<title>Node1&#45;&gt;Node6</title>
<g id="a_edge5_Node000001_Node000006"><a xlink:title=" ">
<path fill="none" stroke="#63b8ff" d="M74.87,-127.1C91.68,-107.08 118.6,-78.68 148,-62 161.78,-54.18 177.33,-48 192.82,-43.14"/>
<polygon fill="#63b8ff" stroke="#63b8ff" points="72.15,-124.89 68.52,-134.84 77.57,-129.33 72.15,-124.89"/>
</a>
</g>
</g>
</g>
</svg>
