<?xml version="1.0" encoding="UTF-8" standalone="no"?>
<!DOCTYPE svg PUBLIC "-//W3C//DTD SVG 1.1//EN"
 "http://www.w3.org/Graphics/SVG/1.1/DTD/svg11.dtd">
<!-- Generated by graphviz version 2.43.0 (0)
 -->
<!-- Title: di::meta::detail::RemoveAllExtentsHelper&lt; T &gt; Pages: 1 -->
<svg width="190pt" height="170pt"
 viewBox="0.00 0.00 190.00 170.00" xmlns="http://www.w3.org/2000/svg" xmlns:xlink="http://www.w3.org/1999/xlink">
<g id="graph0" class="graph" transform="scale(1 1) rotate(0) translate(4 166)">
<title>di::meta::detail::RemoveAllExtentsHelper&lt; T &gt;</title>
<!-- Node1 -->
<g id="Node000001" class="node">
<title>Node1</title>
<g id="a_Node000001"><a xlink:title=" ">
<polygon fill="#999999" stroke="#666666" points="159.5,-30 22.5,-30 22.5,0 159.5,0 159.5,-30"/>
<text text-anchor="start" x="30.5" y="-18" font-family="Helvetica,sans-Serif" font-size="10.00">di::meta::detail::Remove</text>
<text text-anchor="middle" x="91" y="-7" font-family="Helvetica,sans-Serif" font-size="10.00">AllExtentsHelper&lt; T &gt;</text>
</a>
</g>
</g>
<!-- Node2 -->
<g id="Node000002" class="node">
<title>Node2</title>
<g id="a_Node000002"><a xlink:href="structdi_1_1meta_1_1detail_1_1RemoveAllExtentsHelper.html" target="_top" xlink:title=" ">
<polygon fill="white" stroke="#666666" points="182,-107 0,-107 0,-66 182,-66 182,-107"/>
<text text-anchor="start" x="8" y="-95" font-family="Helvetica,sans-Serif" font-size="10.00">di::meta::detail::Remove</text>
<text text-anchor="start" x="8" y="-84" font-family="Helvetica,sans-Serif" font-size="10.00">AllExtentsHelper&lt; RemoveExtent</text>
<text text-anchor="middle" x="91" y="-73" font-family="Helvetica,sans-Serif" font-size="10.00">&lt; T &gt; &gt;</text>
</a>
</g>
</g>
<!-- Node2&#45;&gt;Node1 -->
<g id="edge1_Node000001_Node000002" class="edge">
<title>Node2&#45;&gt;Node1</title>
<g id="a_edge1_Node000001_Node000002"><a xlink:title=" ">
<path fill="none" stroke="#63b8ff" d="M91,-55.66C91,-46.76 91,-37.42 91,-30.04"/>
<polygon fill="#63b8ff" stroke="#63b8ff" points="87.5,-55.77 91,-65.77 94.5,-55.77 87.5,-55.77"/>
</a>
</g>
</g>
<!-- Node3 -->
<g id="Node000003" class="node">
<title>Node3</title>
<g id="a_Node000003"><a xlink:href="structdi_1_1meta_1_1TypeConstant.html" target="_top" xlink:title=" ">
<polygon fill="white" stroke="#666666" points="170,-162 12,-162 12,-143 170,-143 170,-162"/>
<text text-anchor="middle" x="91" y="-150" font-family="Helvetica,sans-Serif" font-size="10.00">di::meta::TypeConstant&lt; T &gt;</text>
</a>
</g>
</g>
<!-- Node3&#45;&gt;Node2 -->
<g id="edge2_Node000002_Node000003" class="edge">
<title>Node3&#45;&gt;Node2</title>
<g id="a_edge2_Node000002_Node000003"><a xlink:title=" ">
<path fill="none" stroke="#63b8ff" d="M91,-132.63C91,-124.56 91,-115.15 91,-107.01"/>
<polygon fill="#63b8ff" stroke="#63b8ff" points="87.5,-132.87 91,-142.87 94.5,-132.87 87.5,-132.87"/>
</a>
</g>
</g>
</g>
</svg>
