<?xml version="1.0" encoding="UTF-8" standalone="no"?>
<!DOCTYPE svg PUBLIC "-//W3C//DTD SVG 1.1//EN"
 "http://www.w3.org/Graphics/SVG/1.1/DTD/svg11.dtd">
<!-- Generated by graphviz version 2.43.0 (0)
 -->
<!-- Title: iris::acpi::SDTHeader Pages: 1 -->
<svg width="210pt" height="82pt"
 viewBox="0.00 0.00 209.50 82.00" xmlns="http://www.w3.org/2000/svg" xmlns:xlink="http://www.w3.org/1999/xlink">
<g id="graph0" class="graph" transform="scale(1 1) rotate(0) translate(4 78)">
<title>iris::acpi::SDTHeader</title>
<!-- Node1 -->
<g id="Node000001" class="node">
<title>Node1</title>
<g id="a_Node000001"><a xlink:title="System Description Table Header.">
<polygon fill="#999999" stroke="#666666" points="161,-74 42,-74 42,-55 161,-55 161,-74"/>
<text text-anchor="middle" x="101.5" y="-62" font-family="Helvetica,sans-Serif" font-size="10.00">iris::acpi::SDTHeader</text>
</a>
</g>
</g>
<!-- Node2 -->
<g id="Node000002" class="node">
<title>Node2</title>
<g id="a_Node000002"><a xlink:href="structiris_1_1acpi_1_1MADT.html" target="_top" xlink:title="Multiple APIC Description Table.">
<polygon fill="white" stroke="#666666" points="93,-19 0,-19 0,0 93,0 93,-19"/>
<text text-anchor="middle" x="46.5" y="-7" font-family="Helvetica,sans-Serif" font-size="10.00">iris::acpi::MADT</text>
</a>
</g>
</g>
<!-- Node1&#45;&gt;Node2 -->
<g id="edge1_Node000001_Node000002" class="edge">
<title>Node1&#45;&gt;Node2</title>
<g id="a_edge1_Node000001_Node000002"><a xlink:title=" ">
<path fill="none" stroke="#63b8ff" d="M85.21,-47.8C75.46,-38.41 63.45,-26.83 55.41,-19.09"/>
<polygon fill="#63b8ff" stroke="#63b8ff" points="82.79,-50.33 92.42,-54.75 87.65,-45.29 82.79,-50.33"/>
</a>
</g>
</g>
<!-- Node3 -->
<g id="Node000003" class="node">
<title>Node3</title>
<g id="a_Node000003"><a xlink:href="structiris_1_1acpi_1_1RSDT.html" target="_top" xlink:title="Root System Description Table.">
<polygon fill="white" stroke="#666666" points="201.5,-19 111.5,-19 111.5,0 201.5,0 201.5,-19"/>
<text text-anchor="middle" x="156.5" y="-7" font-family="Helvetica,sans-Serif" font-size="10.00">iris::acpi::RSDT</text>
</a>
</g>
</g>
<!-- Node1&#45;&gt;Node3 -->
<g id="edge2_Node000001_Node000003" class="edge">
<title>Node1&#45;&gt;Node3</title>
<g id="a_edge2_Node000001_Node000003"><a xlink:title=" ">
<path fill="none" stroke="#63b8ff" d="M117.79,-47.8C127.54,-38.41 139.55,-26.83 147.59,-19.09"/>
<polygon fill="#63b8ff" stroke="#63b8ff" points="115.35,-45.29 110.58,-54.75 120.21,-50.33 115.35,-45.29"/>
</a>
</g>
</g>
</g>
</svg>
