<?xml version="1.0" encoding="UTF-8" standalone="no"?>
<!DOCTYPE svg PUBLIC "-//W3C//DTD SVG 1.1//EN"
 "http://www.w3.org/Graphics/SVG/1.1/DTD/svg11.dtd">
<!-- Generated by graphviz version 2.43.0 (0)
 -->
<!-- Title: di::meta::detail::LikeExpectedHelper&lt; vocab::Expected&lt; X, E &gt;, U &gt; Pages: 1 -->
<svg width="346pt" height="115pt"
 viewBox="0.00 0.00 346.00 115.00" xmlns="http://www.w3.org/2000/svg" xmlns:xlink="http://www.w3.org/1999/xlink">
<g id="graph0" class="graph" transform="scale(1 1) rotate(0) translate(4 111)">
<title>di::meta::detail::LikeExpectedHelper&lt; vocab::Expected&lt; X, E &gt;, U &gt;</title>
<!-- Node1 -->
<g id="Node000001" class="node">
<title>Node1</title>
<g id="a_Node000001"><a xlink:title=" ">
<polygon fill="#999999" stroke="#666666" points="250,-41 89,-41 89,0 250,0 250,-41"/>
<text text-anchor="start" x="97" y="-29" font-family="Helvetica,sans-Serif" font-size="10.00">di::meta::detail::LikeExpected</text>
<text text-anchor="start" x="97" y="-18" font-family="Helvetica,sans-Serif" font-size="10.00">Helper&lt; vocab::Expected&lt;</text>
<text text-anchor="middle" x="169.5" y="-7" font-family="Helvetica,sans-Serif" font-size="10.00"> X, E &gt;, U &gt;</text>
</a>
</g>
</g>
<!-- Node2 -->
<g id="Node000002" class="node">
<title>Node2</title>
<g id="a_Node000002"><a xlink:href="structdi_1_1meta_1_1TypeConstant.html" target="_top" xlink:title=" ">
<polygon fill="white" stroke="#666666" points="161,-107 0,-107 0,-77 161,-77 161,-107"/>
<text text-anchor="start" x="8" y="-95" font-family="Helvetica,sans-Serif" font-size="10.00">di::meta::TypeConstant</text>
<text text-anchor="middle" x="80.5" y="-84" font-family="Helvetica,sans-Serif" font-size="10.00">&lt; vocab::Expected&lt; U, E &gt; &gt;</text>
</a>
</g>
</g>
<!-- Node2&#45;&gt;Node1 -->
<g id="edge1_Node000001_Node000002" class="edge">
<title>Node2&#45;&gt;Node1</title>
<g id="a_edge1_Node000001_Node000002"><a xlink:title=" ">
<path fill="none" stroke="#63b8ff" d="M106.4,-70.77C118.38,-61.42 132.56,-50.35 144.43,-41.07"/>
<polygon fill="#63b8ff" stroke="#63b8ff" points="104.24,-68.02 98.51,-76.94 108.55,-73.54 104.24,-68.02"/>
</a>
</g>
</g>
<!-- Node3 -->
<g id="Node000003" class="node">
<title>Node3</title>
<g id="a_Node000003"><a xlink:href="structdi_1_1meta_1_1TypeConstant.html" target="_top" xlink:title=" ">
<polygon fill="white" stroke="#666666" points="338,-101.5 179,-101.5 179,-82.5 338,-82.5 338,-101.5"/>
<text text-anchor="middle" x="258.5" y="-89.5" font-family="Helvetica,sans-Serif" font-size="10.00">di::meta::TypeConstant&lt; U &gt;</text>
</a>
</g>
</g>
<!-- Node3&#45;&gt;Node1 -->
<g id="edge2_Node000001_Node000003" class="edge">
<title>Node3&#45;&gt;Node1</title>
<g id="a_edge2_Node000001_Node000003"><a xlink:title=" ">
<path fill="none" stroke="#63b8ff" d="M239.34,-76.04C226.29,-65.84 208.87,-52.24 194.69,-41.17"/>
<polygon fill="#63b8ff" stroke="#63b8ff" points="237.55,-79.08 247.59,-82.48 241.86,-73.56 237.55,-79.08"/>
</a>
</g>
</g>
</g>
</svg>
