<?xml version="1.0" encoding="UTF-8" standalone="no"?>
<!DOCTYPE svg PUBLIC "-//W3C//DTD SVG 1.1//EN"
 "http://www.w3.org/Graphics/SVG/1.1/DTD/svg11.dtd">
<!-- Generated by graphviz version 2.43.0 (0)
 -->
<!-- Title: di::meta::detail::CommonReferenceHelper&lt; T, U &gt; Pages: 1 -->
<svg width="392pt" height="249pt"
 viewBox="0.00 0.00 392.00 248.50" xmlns="http://www.w3.org/2000/svg" xmlns:xlink="http://www.w3.org/1999/xlink">
<g id="graph0" class="graph" transform="scale(1 1) rotate(0) translate(4 244.5)">
<title>di::meta::detail::CommonReferenceHelper&lt; T, U &gt;</title>
<!-- Node1 -->
<g id="Node000001" class="node">
<title>Node1</title>
<g id="a_Node000001"><a xlink:title=" ">
<polygon fill="#999999" stroke="#666666" points="384,-127 243,-127 243,-97 384,-97 384,-127"/>
<text text-anchor="start" x="251" y="-115" font-family="Helvetica,sans-Serif" font-size="10.00">di::meta::detail::Common</text>
<text text-anchor="middle" x="313.5" y="-104" font-family="Helvetica,sans-Serif" font-size="10.00">ReferenceHelper&lt; T, U &gt;</text>
</a>
</g>
</g>
<!-- Node2 -->
<g id="Node000002" class="node">
<title>Node2</title>
<g id="a_Node000002"><a xlink:href="structdi_1_1meta_1_1TypeConstant.html" target="_top" xlink:title=" ">
<polygon fill="white" stroke="#666666" points="181,-240.5 26,-240.5 26,-199.5 181,-199.5 181,-240.5"/>
<text text-anchor="start" x="34" y="-228.5" font-family="Helvetica,sans-Serif" font-size="10.00">di::meta::TypeConstant</text>
<text text-anchor="start" x="34" y="-217.5" font-family="Helvetica,sans-Serif" font-size="10.00">&lt; SimpleCommonReference</text>
<text text-anchor="middle" x="103.5" y="-206.5" font-family="Helvetica,sans-Serif" font-size="10.00">&lt; T, U &gt;::Type &gt;</text>
</a>
</g>
</g>
<!-- Node2&#45;&gt;Node1 -->
<g id="edge1_Node000001_Node000002" class="edge">
<title>Node2&#45;&gt;Node1</title>
<g id="a_edge1_Node000001_Node000002"><a xlink:title=" ">
<path fill="none" stroke="#63b8ff" d="M190.74,-198.14C196.33,-195.95 201.8,-193.57 207,-191 241.66,-173.86 276.54,-144.92 296.24,-127.23"/>
<polygon fill="#63b8ff" stroke="#63b8ff" points="189.4,-194.91 181.24,-201.66 191.83,-201.47 189.4,-194.91"/>
</a>
</g>
</g>
<!-- Node3 -->
<g id="Node000003" class="node">
<title>Node3</title>
<g id="a_Node000003"><a xlink:href="structdi_1_1meta_1_1TypeConstant.html" target="_top" xlink:title=" ">
<polygon fill="white" stroke="#666666" points="207,-181.5 0,-181.5 0,-118.5 207,-118.5 207,-181.5"/>
<text text-anchor="start" x="8" y="-169.5" font-family="Helvetica,sans-Serif" font-size="10.00">di::meta::TypeConstant</text>
<text text-anchor="start" x="8" y="-158.5" font-family="Helvetica,sans-Serif" font-size="10.00">&lt; CustomCommonReference</text>
<text text-anchor="start" x="8" y="-147.5" font-family="Helvetica,sans-Serif" font-size="10.00">&lt; T, U, ProjectQualifiers</text>
<text text-anchor="start" x="8" y="-136.5" font-family="Helvetica,sans-Serif" font-size="10.00">&lt; T &gt;::template Type, ProjectQualifiers</text>
<text text-anchor="middle" x="103.5" y="-125.5" font-family="Helvetica,sans-Serif" font-size="10.00">&lt; U &gt;::template Type &gt;::Type &gt;</text>
</a>
</g>
</g>
<!-- Node3&#45;&gt;Node1 -->
<g id="edge2_Node000001_Node000003" class="edge">
<title>Node3&#45;&gt;Node1</title>
<g id="a_edge2_Node000001_Node000003"><a xlink:title=" ">
<path fill="none" stroke="#63b8ff" d="M217.18,-129.41C225.93,-127.82 234.59,-126.23 242.93,-124.71"/>
<polygon fill="#63b8ff" stroke="#63b8ff" points="216.49,-125.98 207.28,-131.22 217.75,-132.87 216.49,-125.98"/>
</a>
</g>
</g>
<!-- Node4 -->
<g id="Node000004" class="node">
<title>Node4</title>
<g id="a_Node000004"><a xlink:href="structdi_1_1meta_1_1TypeConstant.html" target="_top" xlink:title=" ">
<polygon fill="white" stroke="#666666" points="178,-100 29,-100 29,-48 178,-48 178,-100"/>
<text text-anchor="start" x="37" y="-88" font-family="Helvetica,sans-Serif" font-size="10.00">di::meta::TypeConstant</text>
<text text-anchor="start" x="37" y="-77" font-family="Helvetica,sans-Serif" font-size="10.00">&lt; decltype(false ? __get</text>
<text text-anchor="start" x="37" y="-66" font-family="Helvetica,sans-Serif" font-size="10.00">_value&lt; T &gt;() :__get_value</text>
<text text-anchor="middle" x="103.5" y="-55" font-family="Helvetica,sans-Serif" font-size="10.00">&lt; U &gt;())&gt;</text>
</a>
</g>
</g>
<!-- Node4&#45;&gt;Node1 -->
<g id="edge3_Node000001_Node000004" class="edge">
<title>Node4&#45;&gt;Node1</title>
<g id="a_edge3_Node000001_Node000004"><a xlink:title=" ">
<path fill="none" stroke="#63b8ff" d="M188.1,-89.27C206.25,-92.59 225.26,-96.06 242.81,-99.27"/>
<polygon fill="#63b8ff" stroke="#63b8ff" points="188.59,-85.81 178.13,-87.45 187.33,-92.69 188.59,-85.81"/>
</a>
</g>
</g>
<!-- Node5 -->
<g id="Node000005" class="node">
<title>Node5</title>
<g id="a_Node000005"><a xlink:href="structdi_1_1meta_1_1TypeConstant.html" target="_top" xlink:title=" ">
<polygon fill="white" stroke="#666666" points="177.5,-30 29.5,-30 29.5,0 177.5,0 177.5,-30"/>
<text text-anchor="start" x="37.5" y="-18" font-family="Helvetica,sans-Serif" font-size="10.00">di::meta::TypeConstant</text>
<text text-anchor="middle" x="103.5" y="-7" font-family="Helvetica,sans-Serif" font-size="10.00">&lt; CommonType&lt; T, U &gt; &gt;</text>
</a>
</g>
</g>
<!-- Node5&#45;&gt;Node1 -->
<g id="edge4_Node000001_Node000005" class="edge">
<title>Node5&#45;&gt;Node1</title>
<g id="a_edge4_Node000001_Node000005"><a xlink:title=" ">
<path fill="none" stroke="#63b8ff" d="M187.47,-31.57C194.18,-33.77 200.77,-36.24 207,-39 240.8,-54 275.12,-80.24 295.08,-96.84"/>
<polygon fill="#63b8ff" stroke="#63b8ff" points="188.16,-28.12 177.57,-28.53 186.11,-34.81 188.16,-28.12"/>
</a>
</g>
</g>
</g>
</svg>
