<?xml version="1.0" encoding="UTF-8" standalone="no"?>
<!DOCTYPE svg PUBLIC "-//W3C//DTD SVG 1.1//EN"
 "http://www.w3.org/Graphics/SVG/1.1/DTD/svg11.dtd">
<!-- Generated by graphviz version 2.43.0 (0)
 -->
<!-- Title: dius::linux::OperationStateBase Pages: 1 -->
<svg width="703pt" height="253pt"
 viewBox="0.00 0.00 703.00 252.50" xmlns="http://www.w3.org/2000/svg" xmlns:xlink="http://www.w3.org/1999/xlink">
<g id="graph0" class="graph" transform="scale(1 1) rotate(0) translate(4 248.5)">
<title>dius::linux::OperationStateBase</title>
<!-- Node1 -->
<g id="Node000001" class="node">
<title>Node1</title>
<g id="a_Node000001"><a xlink:title=" ">
<polygon fill="#999999" stroke="#666666" points="488,-120.5 318,-120.5 318,-101.5 488,-101.5 488,-120.5"/>
<text text-anchor="middle" x="403" y="-108.5" font-family="Helvetica,sans-Serif" font-size="10.00">dius::linux::OperationStateBase</text>
</a>
</g>
</g>
<!-- Node4 -->
<g id="Node000004" class="node">
<title>Node4</title>
<g id="a_Node000004"><a xlink:href="structdius_1_1linux_1_1CloseSender_1_1OperationStateT_1_1Type.html" target="_top" xlink:title=" ">
<polygon fill="white" stroke="#666666" points="676.5,-244.5 542.5,-244.5 542.5,-203.5 676.5,-203.5 676.5,-244.5"/>
<text text-anchor="start" x="550.5" y="-232.5" font-family="Helvetica,sans-Serif" font-size="10.00">dius::linux::CloseSender</text>
<text text-anchor="start" x="550.5" y="-221.5" font-family="Helvetica,sans-Serif" font-size="10.00">::OperationStateT&lt; Rec</text>
<text text-anchor="middle" x="609.5" y="-210.5" font-family="Helvetica,sans-Serif" font-size="10.00"> &gt;::Type</text>
</a>
</g>
</g>
<!-- Node1&#45;&gt;Node4 -->
<g id="edge3_Node000001_Node000004" class="edge">
<title>Node1&#45;&gt;Node4</title>
<g id="a_edge3_Node000001_Node000004"><a xlink:title=" ">
<path fill="none" stroke="#63b8ff" d="M423.1,-126.93C445.92,-145.33 485.81,-175.57 524,-195 529.94,-198.02 536.28,-200.85 542.7,-203.46"/>
<polygon fill="#63b8ff" stroke="#63b8ff" points="425.19,-124.12 415.23,-120.5 420.76,-129.54 425.19,-124.12"/>
</a>
</g>
</g>
<!-- Node5 -->
<g id="Node000005" class="node">
<title>Node5</title>
<g id="a_Node000005"><a xlink:href="structdius_1_1linux_1_1OpenSender_1_1OperationStateT_1_1Type.html" target="_top" xlink:title=" ">
<polygon fill="white" stroke="#666666" points="675.5,-185.5 543.5,-185.5 543.5,-144.5 675.5,-144.5 675.5,-185.5"/>
<text text-anchor="start" x="551.5" y="-173.5" font-family="Helvetica,sans-Serif" font-size="10.00">dius::linux::OpenSender</text>
<text text-anchor="start" x="551.5" y="-162.5" font-family="Helvetica,sans-Serif" font-size="10.00">::OperationStateT&lt; Rec</text>
<text text-anchor="middle" x="609.5" y="-151.5" font-family="Helvetica,sans-Serif" font-size="10.00"> &gt;::Type</text>
</a>
</g>
</g>
<!-- Node1&#45;&gt;Node5 -->
<g id="edge4_Node000001_Node000005" class="edge">
<title>Node1&#45;&gt;Node5</title>
<g id="a_edge4_Node000001_Node000005"><a xlink:title=" ">
<path fill="none" stroke="#63b8ff" d="M449.87,-123.11C477.45,-130.39 512.99,-139.78 543.44,-147.82"/>
<polygon fill="#63b8ff" stroke="#63b8ff" points="450.65,-119.7 440.09,-120.53 448.86,-126.47 450.65,-119.7"/>
</a>
</g>
</g>
<!-- Node6 -->
<g id="Node000006" class="node">
<title>Node6</title>
<g id="a_Node000006"><a xlink:href="structdius_1_1linux_1_1ReadSomeSender_1_1OperationStateT_1_1Type.html" target="_top" xlink:title=" ">
<polygon fill="white" stroke="#666666" points="695,-126 524,-126 524,-96 695,-96 695,-126"/>
<text text-anchor="start" x="532" y="-114" font-family="Helvetica,sans-Serif" font-size="10.00">dius::linux::ReadSomeSender</text>
<text text-anchor="middle" x="609.5" y="-103" font-family="Helvetica,sans-Serif" font-size="10.00">::OperationStateT&lt; Rec &gt;::Type</text>
</a>
</g>
</g>
<!-- Node1&#45;&gt;Node6 -->
<g id="edge5_Node000001_Node000006" class="edge">
<title>Node1&#45;&gt;Node6</title>
<g id="a_edge5_Node000001_Node000006"><a xlink:title=" ">
<path fill="none" stroke="#63b8ff" d="M498.07,-111C506.64,-111 515.29,-111 523.77,-111"/>
<polygon fill="#63b8ff" stroke="#63b8ff" points="498.06,-107.5 488.06,-111 498.06,-114.5 498.06,-107.5"/>
</a>
</g>
</g>
<!-- Node7 -->
<g id="Node000007" class="node">
<title>Node7</title>
<g id="a_Node000007"><a xlink:href="structdius_1_1linux_1_1ScheduleSender_1_1OperationStateT_1_1Type.html" target="_top" xlink:title=" ">
<polygon fill="white" stroke="#666666" points="695,-78 524,-78 524,-48 695,-48 695,-78"/>
<text text-anchor="start" x="532" y="-66" font-family="Helvetica,sans-Serif" font-size="10.00">dius::linux::ScheduleSender</text>
<text text-anchor="middle" x="609.5" y="-55" font-family="Helvetica,sans-Serif" font-size="10.00">::OperationStateT&lt; Rec &gt;::Type</text>
</a>
</g>
</g>
<!-- Node1&#45;&gt;Node7 -->
<g id="edge6_Node000001_Node000007" class="edge">
<title>Node1&#45;&gt;Node7</title>
<g id="a_edge6_Node000001_Node000007"><a xlink:title=" ">
<path fill="none" stroke="#63b8ff" d="M454.92,-99.05C481.98,-92.7 515.5,-84.83 544.33,-78.06"/>
<polygon fill="#63b8ff" stroke="#63b8ff" points="453.83,-95.71 444.89,-101.4 455.43,-102.52 453.83,-95.71"/>
</a>
</g>
</g>
<!-- Node8 -->
<g id="Node000008" class="node">
<title>Node8</title>
<g id="a_Node000008"><a xlink:href="structdius_1_1linux_1_1WriteSomeSender_1_1OperationStateT_1_1Type.html" target="_top" xlink:title=" ">
<polygon fill="white" stroke="#666666" points="695,-30 524,-30 524,0 695,0 695,-30"/>
<text text-anchor="start" x="532" y="-18" font-family="Helvetica,sans-Serif" font-size="10.00">dius::linux::WriteSomeSender</text>
<text text-anchor="middle" x="609.5" y="-7" font-family="Helvetica,sans-Serif" font-size="10.00">::OperationStateT&lt; Rec &gt;::Type</text>
</a>
</g>
</g>
<!-- Node1&#45;&gt;Node8 -->
<g id="edge7_Node000001_Node000008" class="edge">
<title>Node1&#45;&gt;Node8</title>
<g id="a_edge7_Node000001_Node000008"><a xlink:title=" ">
<path fill="none" stroke="#63b8ff" d="M425.86,-95.46C449.21,-79.45 487.78,-54.68 524,-39 531.56,-35.73 539.69,-32.77 547.81,-30.14"/>
<polygon fill="#63b8ff" stroke="#63b8ff" points="423.62,-92.75 417.4,-101.33 427.61,-98.5 423.62,-92.75"/>
</a>
</g>
</g>
<!-- Node2 -->
<g id="Node000002" class="node">
<title>Node2</title>
<g id="a_Node000002"><a xlink:href="classdi_1_1container_1_1IntrusiveForwardListNode.html" target="_top" xlink:title=" ">
<polygon fill="white" stroke="#666666" points="282,-126 145,-126 145,-96 282,-96 282,-126"/>
<text text-anchor="start" x="153" y="-114" font-family="Helvetica,sans-Serif" font-size="10.00">di::container::Intrusive</text>
<text text-anchor="middle" x="213.5" y="-103" font-family="Helvetica,sans-Serif" font-size="10.00">ForwardListNode&lt; Tag &gt;</text>
</a>
</g>
</g>
<!-- Node2&#45;&gt;Node1 -->
<g id="edge1_Node000001_Node000002" class="edge">
<title>Node2&#45;&gt;Node1</title>
<g id="a_edge1_Node000001_Node000002"><a xlink:title=" ">
<path fill="none" stroke="#63b8ff" d="M292.32,-111C300.71,-111 309.28,-111 317.75,-111"/>
<polygon fill="#63b8ff" stroke="#63b8ff" points="292.19,-107.5 282.19,-111 292.19,-114.5 292.19,-107.5"/>
</a>
</g>
</g>
<!-- Node3 -->
<g id="Node000003" class="node">
<title>Node3</title>
<g id="a_Node000003"><a xlink:href="structdi_1_1util_1_1Immovable.html" target="_top" xlink:title=" ">
<polygon fill="white" stroke="#666666" points="109,-120.5 0,-120.5 0,-101.5 109,-101.5 109,-120.5"/>
<text text-anchor="middle" x="54.5" y="-108.5" font-family="Helvetica,sans-Serif" font-size="10.00">di::util::Immovable</text>
</a>
</g>
</g>
<!-- Node3&#45;&gt;Node2 -->
<g id="edge2_Node000002_Node000003" class="edge">
<title>Node3&#45;&gt;Node2</title>
<g id="a_edge2_Node000002_Node000003"><a xlink:title=" ">
<path fill="none" stroke="#8b1a1a" d="M119.28,-111C127.75,-111 136.46,-111 144.99,-111"/>
<polygon fill="#8b1a1a" stroke="#8b1a1a" points="119.09,-107.5 109.09,-111 119.09,-114.5 119.09,-107.5"/>
</a>
</g>
</g>
</g>
</svg>
