<?xml version="1.0" encoding="UTF-8" standalone="no"?>
<!DOCTYPE svg PUBLIC "-//W3C//DTD SVG 1.1//EN"
 "http://www.w3.org/Graphics/SVG/1.1/DTD/svg11.dtd">
<!-- Generated by graphviz version 2.43.0 (0)
 -->
<!-- Title: di::container::IntrusiveTagBase&lt; NodeType &gt; Pages: 1 -->
<svg width="567pt" height="512pt"
 viewBox="0.00 0.00 567.00 512.00" xmlns="http://www.w3.org/2000/svg" xmlns:xlink="http://www.w3.org/1999/xlink">
<g id="graph0" class="graph" transform="scale(1 1) rotate(0) translate(4 508)">
<title>di::container::IntrusiveTagBase&lt; NodeType &gt;</title>
<!-- Node1 -->
<g id="Node000001" class="node">
<title>Node1</title>
<g id="a_Node000001"><a xlink:title=" ">
<polygon fill="#999999" stroke="#666666" points="128,-283.5 0,-283.5 0,-253.5 128,-253.5 128,-283.5"/>
<text text-anchor="start" x="8" y="-271.5" font-family="Helvetica,sans-Serif" font-size="10.00">di::container::Intrusive</text>
<text text-anchor="middle" x="64" y="-260.5" font-family="Helvetica,sans-Serif" font-size="10.00">TagBase&lt; NodeType &gt;</text>
</a>
</g>
</g>
<!-- Node2 -->
<g id="Node000002" class="node">
<title>Node2</title>
<g id="a_Node000002"><a xlink:href="structdi_1_1container_1_1IntrusiveForwardListTag.html" target="_top" xlink:title=" ">
<polygon fill="white" stroke="#666666" points="352,-504 173,-504 173,-463 352,-463 352,-504"/>
<text text-anchor="start" x="181" y="-492" font-family="Helvetica,sans-Serif" font-size="10.00">di::container::Intrusive</text>
<text text-anchor="start" x="181" y="-481" font-family="Helvetica,sans-Serif" font-size="10.00">ForwardListTag&lt; DefaultIntrusive</text>
<text text-anchor="middle" x="262.5" y="-470" font-family="Helvetica,sans-Serif" font-size="10.00">ForwardListTag &gt;</text>
</a>
</g>
</g>
<!-- Node1&#45;&gt;Node2 -->
<g id="edge1_Node000001_Node000002" class="edge">
<title>Node1&#45;&gt;Node2</title>
<g id="a_edge1_Node000001_Node000002"><a xlink:title=" ">
<path fill="none" stroke="#63b8ff" d="M71.45,-293.32C83.11,-333.24 111.49,-411.56 164,-454.5 167.83,-457.63 171.99,-460.42 176.35,-462.91"/>
<polygon fill="#63b8ff" stroke="#63b8ff" points="74.79,-292.28 68.72,-283.59 68.05,-294.17 74.79,-292.28"/>
</a>
</g>
</g>
<!-- Node4 -->
<g id="Node000004" class="node">
<title>Node4</title>
<g id="a_Node000004"><a xlink:href="structdi_1_1container_1_1IntrusiveForwardListTag.html" target="_top" xlink:title=" ">
<polygon fill="white" stroke="#666666" points="352,-445 173,-445 173,-404 352,-404 352,-445"/>
<text text-anchor="start" x="181" y="-433" font-family="Helvetica,sans-Serif" font-size="10.00">di::container::Intrusive</text>
<text text-anchor="start" x="181" y="-422" font-family="Helvetica,sans-Serif" font-size="10.00">ForwardListTag&lt; DefaultIntrusive</text>
<text text-anchor="middle" x="262.5" y="-411" font-family="Helvetica,sans-Serif" font-size="10.00">HashSetTag &gt;</text>
</a>
</g>
</g>
<!-- Node1&#45;&gt;Node4 -->
<g id="edge3_Node000001_Node000004" class="edge">
<title>Node1&#45;&gt;Node4</title>
<g id="a_edge3_Node000001_Node000004"><a xlink:title=" ">
<path fill="none" stroke="#63b8ff" d="M77.87,-292.64C94.22,-321.06 125.06,-367.76 164,-394.5 169.11,-398.01 174.65,-401.12 180.39,-403.87"/>
<polygon fill="#63b8ff" stroke="#63b8ff" points="80.83,-290.77 72.89,-283.76 74.73,-294.19 80.83,-290.77"/>
</a>
</g>
</g>
<!-- Node5 -->
<g id="Node000005" class="node">
<title>Node5</title>
<g id="a_Node000005"><a xlink:href="structdi_1_1container_1_1IntrusiveForwardListTag.html" target="_top" xlink:title=" ">
<polygon fill="white" stroke="#666666" points="361,-385.5 164,-385.5 164,-355.5 361,-355.5 361,-385.5"/>
<text text-anchor="start" x="172" y="-373.5" font-family="Helvetica,sans-Serif" font-size="10.00">di::container::Intrusive</text>
<text text-anchor="middle" x="262.5" y="-362.5" font-family="Helvetica,sans-Serif" font-size="10.00">ForwardListTag&lt; InternalObjectTag &gt;</text>
</a>
</g>
</g>
<!-- Node1&#45;&gt;Node5 -->
<g id="edge4_Node000001_Node000005" class="edge">
<title>Node1&#45;&gt;Node5</title>
<g id="a_edge4_Node000001_Node000005"><a xlink:title=" ">
<path fill="none" stroke="#63b8ff" d="M87.5,-290.89C106.41,-308.48 134.93,-332.3 164,-346.5 171.05,-349.94 178.63,-352.92 186.34,-355.48"/>
<polygon fill="#63b8ff" stroke="#63b8ff" points="89.68,-288.13 80.02,-283.78 84.86,-293.2 89.68,-288.13"/>
</a>
</g>
</g>
<!-- Node6 -->
<g id="Node000006" class="node">
<title>Node6</title>
<g id="a_Node000006"><a xlink:href="structdi_1_1container_1_1IntrusiveListTag.html" target="_top" xlink:title=" ">
<polygon fill="white" stroke="#666666" points="355,-337.5 170,-337.5 170,-307.5 355,-307.5 355,-337.5"/>
<text text-anchor="start" x="178" y="-325.5" font-family="Helvetica,sans-Serif" font-size="10.00">di::container::Intrusive</text>
<text text-anchor="middle" x="262.5" y="-314.5" font-family="Helvetica,sans-Serif" font-size="10.00">ListTag&lt; DefaultIntrusiveListTag &gt;</text>
</a>
</g>
</g>
<!-- Node1&#45;&gt;Node6 -->
<g id="edge5_Node000001_Node000006" class="edge">
<title>Node1&#45;&gt;Node6</title>
<g id="a_edge5_Node000001_Node000006"><a xlink:title=" ">
<path fill="none" stroke="#63b8ff" d="M122.41,-286.46C136,-290.55 150.48,-294.79 164,-298.5 175.1,-301.54 186.95,-304.61 198.44,-307.49"/>
<polygon fill="#63b8ff" stroke="#63b8ff" points="123.27,-283.06 112.69,-283.51 121.24,-289.76 123.27,-283.06"/>
</a>
</g>
</g>
<!-- Node8 -->
<g id="Node000008" class="node">
<title>Node8</title>
<g id="a_Node000008"><a xlink:href="structdi_1_1container_1_1IntrusiveTreeSetTag.html" target="_top" xlink:title=" ">
<polygon fill="white" stroke="#666666" points="342,-289 183,-289 183,-248 342,-248 342,-289"/>
<text text-anchor="start" x="191" y="-277" font-family="Helvetica,sans-Serif" font-size="10.00">di::container::Intrusive</text>
<text text-anchor="start" x="191" y="-266" font-family="Helvetica,sans-Serif" font-size="10.00">TreeSetTag&lt; DefaultIntrusive</text>
<text text-anchor="middle" x="262.5" y="-255" font-family="Helvetica,sans-Serif" font-size="10.00">TreeSetTag &gt;</text>
</a>
</g>
</g>
<!-- Node1&#45;&gt;Node8 -->
<g id="edge7_Node000001_Node000008" class="edge">
<title>Node1&#45;&gt;Node8</title>
<g id="a_edge7_Node000001_Node000008"><a xlink:title=" ">
<path fill="none" stroke="#63b8ff" d="M138.62,-268.5C153.06,-268.5 168.26,-268.5 182.86,-268.5"/>
<polygon fill="#63b8ff" stroke="#63b8ff" points="138.26,-265 128.26,-268.5 138.26,-272 138.26,-265"/>
</a>
</g>
</g>
<!-- Node10 -->
<g id="Node000010" class="node">
<title>Node10</title>
<g id="a_Node000010"><a xlink:href="structdi_1_1container_1_1OwningHashNodeTag.html" target="_top" xlink:title=" ">
<polygon fill="white" stroke="#666666" points="341.5,-229.5 183.5,-229.5 183.5,-177.5 341.5,-177.5 341.5,-229.5"/>
<text text-anchor="start" x="191.5" y="-217.5" font-family="Helvetica,sans-Serif" font-size="10.00">di::container::OwningHash</text>
<text text-anchor="start" x="191.5" y="-206.5" font-family="Helvetica,sans-Serif" font-size="10.00">NodeTag&lt; NodeHashMapTag</text>
<text text-anchor="start" x="191.5" y="-195.5" font-family="Helvetica,sans-Serif" font-size="10.00">&lt; Key, Value &gt;, Tuple&lt; Key,</text>
<text text-anchor="middle" x="262.5" y="-184.5" font-family="Helvetica,sans-Serif" font-size="10.00"> Value &gt; &gt;</text>
</a>
</g>
</g>
<!-- Node1&#45;&gt;Node10 -->
<g id="edge9_Node000001_Node000010" class="edge">
<title>Node1&#45;&gt;Node10</title>
<g id="a_edge9_Node000001_Node000010"><a xlink:title=" ">
<path fill="none" stroke="#63b8ff" d="M120.25,-250.22C139.85,-243.74 162.3,-236.31 183.45,-229.32"/>
<polygon fill="#63b8ff" stroke="#63b8ff" points="118.97,-246.96 110.57,-253.42 121.17,-253.61 118.97,-246.96"/>
</a>
</g>
</g>
<!-- Node12 -->
<g id="Node000012" class="node">
<title>Node12</title>
<g id="a_Node000012"><a xlink:href="structdi_1_1container_1_1OwningHashNodeTag.html" target="_top" xlink:title=" ">
<polygon fill="white" stroke="#666666" points="338.5,-159 186.5,-159 186.5,-118 338.5,-118 338.5,-159"/>
<text text-anchor="start" x="194.5" y="-147" font-family="Helvetica,sans-Serif" font-size="10.00">di::container::OwningHash</text>
<text text-anchor="start" x="194.5" y="-136" font-family="Helvetica,sans-Serif" font-size="10.00">NodeTag&lt; NodeHashSetTag</text>
<text text-anchor="middle" x="262.5" y="-125" font-family="Helvetica,sans-Serif" font-size="10.00">&lt; Value &gt;, Value &gt;</text>
</a>
</g>
</g>
<!-- Node1&#45;&gt;Node12 -->
<g id="edge11_Node000001_Node000012" class="edge">
<title>Node1&#45;&gt;Node12</title>
<g id="a_edge11_Node000001_Node000012"><a xlink:title=" ">
<path fill="none" stroke="#63b8ff" d="M82.35,-245.23C100.4,-222.58 130.65,-188.7 164,-168.5 170.97,-164.28 178.58,-160.61 186.38,-157.42"/>
<polygon fill="#63b8ff" stroke="#63b8ff" points="79.44,-243.28 76.05,-253.31 84.96,-247.58 79.44,-243.28"/>
</a>
</g>
</g>
<!-- Node14 -->
<g id="Node000014" class="node">
<title>Node14</title>
<g id="a_Node000014"><a xlink:href="structdi_1_1container_1_1OwningRBTreeTag.html" target="_top" xlink:title=" ">
<polygon fill="white" stroke="#666666" points="344.5,-100 180.5,-100 180.5,-59 344.5,-59 344.5,-100"/>
<text text-anchor="start" x="188.5" y="-88" font-family="Helvetica,sans-Serif" font-size="10.00">di::container::OwningRBTree</text>
<text text-anchor="start" x="188.5" y="-77" font-family="Helvetica,sans-Serif" font-size="10.00">Tag&lt; TreeMapTag&lt; Key, Value</text>
<text text-anchor="middle" x="262.5" y="-66" font-family="Helvetica,sans-Serif" font-size="10.00"> &gt;, Tuple&lt; Key, Value &gt; &gt;</text>
</a>
</g>
</g>
<!-- Node1&#45;&gt;Node14 -->
<g id="edge13_Node000001_Node000014" class="edge">
<title>Node1&#45;&gt;Node14</title>
<g id="a_edge13_Node000001_Node000014"><a xlink:title=" ">
<path fill="none" stroke="#63b8ff" d="M73.89,-243.81C87.75,-208.81 117.8,-145.07 164,-109.5 169.05,-105.61 174.61,-102.22 180.43,-99.27"/>
<polygon fill="#63b8ff" stroke="#63b8ff" points="70.58,-242.69 70.26,-253.28 77.11,-245.2 70.58,-242.69"/>
</a>
</g>
</g>
<!-- Node16 -->
<g id="Node000016" class="node">
<title>Node16</title>
<g id="a_Node000016"><a xlink:href="structdi_1_1container_1_1OwningRBTreeTag.html" target="_top" xlink:title=" ">
<polygon fill="white" stroke="#666666" points="339.5,-41 185.5,-41 185.5,0 339.5,0 339.5,-41"/>
<text text-anchor="start" x="193.5" y="-29" font-family="Helvetica,sans-Serif" font-size="10.00">di::container::OwningRBTree</text>
<text text-anchor="start" x="193.5" y="-18" font-family="Helvetica,sans-Serif" font-size="10.00">Tag&lt; TreeSetTag&lt; Value &gt;</text>
<text text-anchor="middle" x="262.5" y="-7" font-family="Helvetica,sans-Serif" font-size="10.00">, Value &gt;</text>
</a>
</g>
</g>
<!-- Node1&#45;&gt;Node16 -->
<g id="edge15_Node000001_Node000016" class="edge">
<title>Node1&#45;&gt;Node16</title>
<g id="a_edge15_Node000001_Node000016"><a xlink:title=" ">
<path fill="none" stroke="#63b8ff" d="M69.27,-243.57C78.36,-198.2 103.91,-101.96 164,-49.5 170.25,-44.04 177.5,-39.61 185.16,-36.01"/>
<polygon fill="#63b8ff" stroke="#63b8ff" points="65.82,-242.98 67.39,-253.46 72.7,-244.29 65.82,-242.98"/>
</a>
</g>
</g>
<!-- Node3 -->
<g id="Node000003" class="node">
<title>Node3</title>
<g id="a_Node000003"><a xlink:href="structdi_1_1container_1_1DefaultIntrusiveForwardListTag.html" target="_top" xlink:title=" ">
<polygon fill="white" stroke="#666666" points="559,-498.5 397,-498.5 397,-468.5 559,-468.5 559,-498.5"/>
<text text-anchor="start" x="405" y="-486.5" font-family="Helvetica,sans-Serif" font-size="10.00">di::container::DefaultIntrusive</text>
<text text-anchor="middle" x="478" y="-475.5" font-family="Helvetica,sans-Serif" font-size="10.00">ForwardListTag</text>
</a>
</g>
</g>
<!-- Node2&#45;&gt;Node3 -->
<g id="edge2_Node000002_Node000003" class="edge">
<title>Node2&#45;&gt;Node3</title>
<g id="a_edge2_Node000002_Node000003"><a xlink:title=" ">
<path fill="none" stroke="#63b8ff" d="M362.29,-483.5C373.84,-483.5 385.52,-483.5 396.78,-483.5"/>
<polygon fill="#63b8ff" stroke="#63b8ff" points="362.19,-480 352.19,-483.5 362.19,-487 362.19,-480"/>
</a>
</g>
</g>
<!-- Node7 -->
<g id="Node000007" class="node">
<title>Node7</title>
<g id="a_Node000007"><a xlink:href="structdi_1_1container_1_1DefaultIntrusiveListTag.html" target="_top" xlink:title=" ">
<polygon fill="white" stroke="#666666" points="559,-337.5 397,-337.5 397,-307.5 559,-307.5 559,-337.5"/>
<text text-anchor="start" x="405" y="-325.5" font-family="Helvetica,sans-Serif" font-size="10.00">di::container::DefaultIntrusive</text>
<text text-anchor="middle" x="478" y="-314.5" font-family="Helvetica,sans-Serif" font-size="10.00">ListTag</text>
</a>
</g>
</g>
<!-- Node6&#45;&gt;Node7 -->
<g id="edge6_Node000006_Node000007" class="edge">
<title>Node6&#45;&gt;Node7</title>
<g id="a_edge6_Node000006_Node000007"><a xlink:title=" ">
<path fill="none" stroke="#63b8ff" d="M365.35,-322.5C375.88,-322.5 386.47,-322.5 396.72,-322.5"/>
<polygon fill="#63b8ff" stroke="#63b8ff" points="365.28,-319 355.28,-322.5 365.28,-326 365.28,-319"/>
</a>
</g>
</g>
<!-- Node9 -->
<g id="Node000009" class="node">
<title>Node9</title>
<g id="a_Node000009"><a xlink:href="structdi_1_1container_1_1DefaultIntrusiveTreeSetTag.html" target="_top" xlink:title=" ">
<polygon fill="white" stroke="#666666" points="559,-283.5 397,-283.5 397,-253.5 559,-253.5 559,-283.5"/>
<text text-anchor="start" x="405" y="-271.5" font-family="Helvetica,sans-Serif" font-size="10.00">di::container::DefaultIntrusive</text>
<text text-anchor="middle" x="478" y="-260.5" font-family="Helvetica,sans-Serif" font-size="10.00">TreeSetTag</text>
</a>
</g>
</g>
<!-- Node8&#45;&gt;Node9 -->
<g id="edge8_Node000008_Node000009" class="edge">
<title>Node8&#45;&gt;Node9</title>
<g id="a_edge8_Node000008_Node000009"><a xlink:title=" ">
<path fill="none" stroke="#63b8ff" d="M352.23,-268.5C367,-268.5 382.25,-268.5 396.79,-268.5"/>
<polygon fill="#63b8ff" stroke="#63b8ff" points="352.09,-265 342.09,-268.5 352.09,-272 352.09,-265"/>
</a>
</g>
</g>
<!-- Node11 -->
<g id="Node000011" class="node">
<title>Node11</title>
<g id="a_Node000011"><a xlink:href="structdi_1_1container_1_1detail_1_1NodeHashMapTag.html" target="_top" xlink:title=" ">
<polygon fill="white" stroke="#666666" points="549.5,-224 406.5,-224 406.5,-183 549.5,-183 549.5,-224"/>
<text text-anchor="start" x="414.5" y="-212" font-family="Helvetica,sans-Serif" font-size="10.00">di::container::detail</text>
<text text-anchor="start" x="414.5" y="-201" font-family="Helvetica,sans-Serif" font-size="10.00">::NodeHashMapTag&lt; Key,</text>
<text text-anchor="middle" x="478" y="-190" font-family="Helvetica,sans-Serif" font-size="10.00"> Value &gt;</text>
</a>
</g>
</g>
<!-- Node10&#45;&gt;Node11 -->
<g id="edge10_Node000010_Node000011" class="edge">
<title>Node10&#45;&gt;Node11</title>
<g id="a_edge10_Node000010_Node000011"><a xlink:title=" ">
<path fill="none" stroke="#63b8ff" d="M351.82,-203.5C370.04,-203.5 389.01,-203.5 406.5,-203.5"/>
<polygon fill="#63b8ff" stroke="#63b8ff" points="351.79,-200 341.79,-203.5 351.79,-207 351.79,-200"/>
</a>
</g>
</g>
<!-- Node13 -->
<g id="Node000013" class="node">
<title>Node13</title>
<g id="a_Node000013"><a xlink:href="structdi_1_1container_1_1detail_1_1NodeHashSetTag.html" target="_top" xlink:title=" ">
<polygon fill="white" stroke="#666666" points="555.5,-153.5 400.5,-153.5 400.5,-123.5 555.5,-123.5 555.5,-153.5"/>
<text text-anchor="start" x="408.5" y="-141.5" font-family="Helvetica,sans-Serif" font-size="10.00">di::container::detail</text>
<text text-anchor="middle" x="478" y="-130.5" font-family="Helvetica,sans-Serif" font-size="10.00">::NodeHashSetTag&lt; Value &gt;</text>
</a>
</g>
</g>
<!-- Node12&#45;&gt;Node13 -->
<g id="edge12_Node000012_Node000013" class="edge">
<title>Node12&#45;&gt;Node13</title>
<g id="a_edge12_Node000012_Node000013"><a xlink:title=" ">
<path fill="none" stroke="#63b8ff" d="M349.17,-138.5C366.06,-138.5 383.68,-138.5 400.24,-138.5"/>
<polygon fill="#63b8ff" stroke="#63b8ff" points="348.77,-135 338.77,-138.5 348.77,-142 348.77,-135"/>
</a>
</g>
</g>
<!-- Node15 -->
<g id="Node000015" class="node">
<title>Node15</title>
<g id="a_Node000015"><a xlink:href="structdi_1_1container_1_1detail_1_1TreeMapTag.html" target="_top" xlink:title=" ">
<polygon fill="white" stroke="#666666" points="555,-94.5 401,-94.5 401,-64.5 555,-64.5 555,-94.5"/>
<text text-anchor="start" x="409" y="-82.5" font-family="Helvetica,sans-Serif" font-size="10.00">di::container::detail</text>
<text text-anchor="middle" x="478" y="-71.5" font-family="Helvetica,sans-Serif" font-size="10.00">::TreeMapTag&lt; Key, Value &gt;</text>
</a>
</g>
</g>
<!-- Node14&#45;&gt;Node15 -->
<g id="edge14_Node000014_Node000015" class="edge">
<title>Node14&#45;&gt;Node15</title>
<g id="a_edge14_Node000014_Node000015"><a xlink:title=" ">
<path fill="none" stroke="#63b8ff" d="M354.6,-79.5C370.05,-79.5 385.95,-79.5 400.96,-79.5"/>
<polygon fill="#63b8ff" stroke="#63b8ff" points="354.52,-76 344.52,-79.5 354.52,-83 354.52,-76"/>
</a>
</g>
</g>
<!-- Node17 -->
<g id="Node000017" class="node">
<title>Node17</title>
<g id="a_Node000017"><a xlink:href="structdi_1_1container_1_1detail_1_1TreeSetTag.html" target="_top" xlink:title=" ">
<polygon fill="white" stroke="#666666" points="540.5,-35.5 415.5,-35.5 415.5,-5.5 540.5,-5.5 540.5,-35.5"/>
<text text-anchor="start" x="423.5" y="-23.5" font-family="Helvetica,sans-Serif" font-size="10.00">di::container::detail</text>
<text text-anchor="middle" x="478" y="-12.5" font-family="Helvetica,sans-Serif" font-size="10.00">::TreeSetTag&lt; Value &gt;</text>
</a>
</g>
</g>
<!-- Node16&#45;&gt;Node17 -->
<g id="edge16_Node000016_Node000017" class="edge">
<title>Node16&#45;&gt;Node17</title>
<g id="a_edge16_Node000016_Node000017"><a xlink:title=" ">
<path fill="none" stroke="#63b8ff" d="M349.96,-20.5C371.83,-20.5 394.88,-20.5 415.25,-20.5"/>
<polygon fill="#63b8ff" stroke="#63b8ff" points="349.67,-17 339.67,-20.5 349.67,-24 349.67,-17"/>
</a>
</g>
</g>
</g>
</svg>
