<?xml version="1.0" encoding="UTF-8" standalone="no"?>
<!DOCTYPE svg PUBLIC "-//W3C//DTD SVG 1.1//EN"
 "http://www.w3.org/Graphics/SVG/1.1/DTD/svg11.dtd">
<!-- Generated by graphviz version 2.43.0 (0)
 -->
<!-- Title: di::reflection::Fields&lt; Fs &gt; Pages: 1 -->
<svg width="476pt" height="98pt"
 viewBox="0.00 0.00 476.00 97.50" xmlns="http://www.w3.org/2000/svg" xmlns:xlink="http://www.w3.org/1999/xlink">
<g id="graph0" class="graph" transform="scale(1 1) rotate(0) translate(4 93.5)">
<title>di::reflection::Fields&lt; Fs &gt;</title>
<!-- Node1 -->
<g id="Node000001" class="node">
<title>Node1</title>
<g id="a_Node000001"><a xlink:title=" ">
<polygon fill="#999999" stroke="#666666" points="468,-57 356,-57 356,-27 468,-27 468,-57"/>
<text text-anchor="start" x="364" y="-45" font-family="Helvetica,sans-Serif" font-size="10.00">di::reflection::Fields</text>
<text text-anchor="middle" x="412" y="-34" font-family="Helvetica,sans-Serif" font-size="10.00">&lt; Fs &gt;</text>
</a>
</g>
</g>
<!-- Node2 -->
<g id="Node000002" class="node">
<title>Node2</title>
<g id="a_Node000002"><a xlink:href="classdi_1_1vocab_1_1Tuple.html" target="_top" xlink:title=" ">
<polygon fill="white" stroke="#666666" points="320,-51.5 185,-51.5 185,-32.5 320,-32.5 320,-51.5"/>
<text text-anchor="middle" x="252.5" y="-39.5" font-family="Helvetica,sans-Serif" font-size="10.00">di::vocab::Tuple&lt; Fs... &gt;</text>
</a>
</g>
</g>
<!-- Node2&#45;&gt;Node1 -->
<g id="edge1_Node000001_Node000002" class="edge">
<title>Node2&#45;&gt;Node1</title>
<g id="a_edge1_Node000001_Node000002"><a xlink:title=" ">
<path fill="none" stroke="#63b8ff" d="M330.54,-42C338.97,-42 347.42,-42 355.52,-42"/>
<polygon fill="#63b8ff" stroke="#63b8ff" points="330.29,-38.5 320.29,-42 330.29,-45.5 330.29,-38.5"/>
</a>
</g>
</g>
<!-- Node3 -->
<g id="Node000003" class="node">
<title>Node3</title>
<g id="a_Node000003"><a xlink:href="classdi_1_1vocab_1_1TupleImpl.html" target="_top" xlink:title=" ">
<polygon fill="white" stroke="#666666" points="149,-89.5 0,-89.5 0,-48.5 149,-48.5 149,-89.5"/>
<text text-anchor="start" x="8" y="-77.5" font-family="Helvetica,sans-Serif" font-size="10.00">di::vocab::TupleImpl</text>
<text text-anchor="start" x="8" y="-66.5" font-family="Helvetica,sans-Serif" font-size="10.00">&lt; meta::IndexSequenceFor</text>
<text text-anchor="middle" x="74.5" y="-55.5" font-family="Helvetica,sans-Serif" font-size="10.00">&lt; Types... &gt;, Types... &gt;</text>
</a>
</g>
</g>
<!-- Node3&#45;&gt;Node2 -->
<g id="edge2_Node000002_Node000003" class="edge">
<title>Node3&#45;&gt;Node2</title>
<g id="a_edge2_Node000002_Node000003"><a xlink:title=" ">
<path fill="none" stroke="#63b8ff" d="M159.22,-56.16C169.36,-54.6 179.58,-53.03 189.33,-51.54"/>
<polygon fill="#63b8ff" stroke="#63b8ff" points="158.47,-52.73 149.12,-57.71 159.54,-59.65 158.47,-52.73"/>
</a>
</g>
</g>
<!-- Node4 -->
<g id="Node000004" class="node">
<title>Node4</title>
<g id="a_Node000004"><a xlink:href="structdi_1_1util_1_1AddMemberGet.html" target="_top" xlink:title=" ">
<polygon fill="white" stroke="#666666" points="139.5,-30 9.5,-30 9.5,0 139.5,0 139.5,-30"/>
<text text-anchor="start" x="17.5" y="-18" font-family="Helvetica,sans-Serif" font-size="10.00">di::util::AddMemberGet</text>
<text text-anchor="middle" x="74.5" y="-7" font-family="Helvetica,sans-Serif" font-size="10.00">&lt; Tuple&lt; Types... &gt; &gt;</text>
</a>
</g>
</g>
<!-- Node4&#45;&gt;Node2 -->
<g id="edge3_Node000002_Node000004" class="edge">
<title>Node4&#45;&gt;Node2</title>
<g id="a_edge3_Node000002_Node000004"><a xlink:title=" ">
<path fill="none" stroke="#63b8ff" d="M149.61,-26.37C162.91,-28.41 176.65,-30.52 189.57,-32.5"/>
<polygon fill="#63b8ff" stroke="#63b8ff" points="149.95,-22.88 139.54,-24.82 148.89,-29.8 149.95,-22.88"/>
</a>
</g>
</g>
</g>
</svg>
