<?xml version="1.0" encoding="UTF-8" standalone="no"?>
<!DOCTYPE svg PUBLIC "-//W3C//DTD SVG 1.1//EN"
 "http://www.w3.org/Graphics/SVG/1.1/DTD/svg11.dtd">
<!-- Generated by graphviz version 2.43.0 (0)
 -->
<!-- Title: di::util::SelfPointer&lt; T &gt; Pages: 1 -->
<svg width="300pt" height="93pt"
 viewBox="0.00 0.00 300.00 93.00" xmlns="http://www.w3.org/2000/svg" xmlns:xlink="http://www.w3.org/1999/xlink">
<g id="graph0" class="graph" transform="scale(1 1) rotate(0) translate(4 89)">
<title>di::util::SelfPointer&lt; T &gt;</title>
<!-- Node1 -->
<g id="Node000001" class="node">
<title>Node1</title>
<g id="a_Node000001"><a xlink:title=" ">
<polygon fill="#999999" stroke="#666666" points="204,-85 69,-85 69,-66 204,-66 204,-85"/>
<text text-anchor="middle" x="136.5" y="-73" font-family="Helvetica,sans-Serif" font-size="10.00">di::util::SelfPointer&lt; T &gt;</text>
</a>
</g>
</g>
<!-- Node2 -->
<g id="Node000002" class="node">
<title>Node2</title>
<g id="a_Node000002"><a xlink:href="structdius_1_1PlatformThread.html" target="_top" xlink:title=" ">
<polygon fill="white" stroke="#666666" points="119,-30 0,-30 0,0 119,0 119,-30"/>
<text text-anchor="start" x="8" y="-18" font-family="Helvetica,sans-Serif" font-size="10.00">dius::PlatformThread</text>
<text text-anchor="middle" x="59.5" y="-7" font-family="Helvetica,sans-Serif" font-size="10.00">&lt; PlatformThread &gt;</text>
</a>
</g>
</g>
<!-- Node1&#45;&gt;Node2 -->
<g id="edge1_Node000001_Node000002" class="edge">
<title>Node1&#45;&gt;Node2</title>
<g id="a_edge1_Node000001_Node000002"><a xlink:title=" ">
<path fill="none" stroke="#63b8ff" d="M117.11,-59.77C105.15,-50.68 89.89,-39.09 78.08,-30.11"/>
<polygon fill="#63b8ff" stroke="#63b8ff" points="115.06,-62.61 125.14,-65.87 119.29,-57.03 115.06,-62.61"/>
</a>
</g>
</g>
<!-- Node3 -->
<g id="Node000003" class="node">
<title>Node3</title>
<g id="a_Node000003"><a xlink:href="classiris_1_1Processor.html" target="_top" xlink:title=" ">
<polygon fill="white" stroke="#666666" points="292,-24.5 137,-24.5 137,-5.5 292,-5.5 292,-24.5"/>
<text text-anchor="middle" x="214.5" y="-12.5" font-family="Helvetica,sans-Serif" font-size="10.00">iris::Processor&lt; Processor &gt;</text>
</a>
</g>
</g>
<!-- Node1&#45;&gt;Node3 -->
<g id="edge2_Node000001_Node000003" class="edge">
<title>Node1&#45;&gt;Node3</title>
<g id="a_edge2_Node000001_Node000003"><a xlink:title=" ">
<path fill="none" stroke="#63b8ff" d="M156.04,-59.85C170.81,-48.77 190.6,-33.93 202.94,-24.67"/>
<polygon fill="#63b8ff" stroke="#63b8ff" points="153.91,-57.07 148.01,-65.87 158.11,-62.67 153.91,-57.07"/>
</a>
</g>
</g>
</g>
</svg>
