<?xml version="1.0" encoding="UTF-8" standalone="no"?>
<!DOCTYPE svg PUBLIC "-//W3C//DTD SVG 1.1//EN"
 "http://www.w3.org/Graphics/SVG/1.1/DTD/svg11.dtd">
<!-- Generated by graphviz version 2.43.0 (0)
 -->
<!-- Title: di::container::IntrusiveForwardListTag&lt; Self &gt; Pages: 1 -->
<svg width="740pt" height="146pt"
 viewBox="0.00 0.00 740.00 145.50" xmlns="http://www.w3.org/2000/svg" xmlns:xlink="http://www.w3.org/1999/xlink">
<g id="graph0" class="graph" transform="scale(1 1) rotate(0) translate(4 141.5)">
<title>di::container::IntrusiveForwardListTag&lt; Self &gt;</title>
<!-- Node1 -->
<g id="Node000001" class="node">
<title>Node1</title>
<g id="a_Node000001"><a xlink:title=" ">
<polygon fill="#999999" stroke="#666666" points="334,-78 203,-78 203,-48 334,-48 334,-78"/>
<text text-anchor="start" x="211" y="-66" font-family="Helvetica,sans-Serif" font-size="10.00">di::container::Intrusive</text>
<text text-anchor="middle" x="268.5" y="-55" font-family="Helvetica,sans-Serif" font-size="10.00">ForwardListTag&lt; Self &gt;</text>
</a>
</g>
</g>
<!-- Node3 -->
<g id="Node000003" class="node">
<title>Node3</title>
<g id="a_Node000003"><a xlink:href="structdi_1_1container_1_1IntrusiveHashSetTag.html" target="_top" xlink:title=" ">
<polygon fill="white" stroke="#666666" points="534,-137.5 370,-137.5 370,-96.5 534,-96.5 534,-137.5"/>
<text text-anchor="start" x="378" y="-125.5" font-family="Helvetica,sans-Serif" font-size="10.00">di::container::Intrusive</text>
<text text-anchor="start" x="378" y="-114.5" font-family="Helvetica,sans-Serif" font-size="10.00">HashSetTag&lt; DefaultIntrusive</text>
<text text-anchor="middle" x="452" y="-103.5" font-family="Helvetica,sans-Serif" font-size="10.00">HashSetTag &gt;</text>
</a>
</g>
</g>
<!-- Node1&#45;&gt;Node3 -->
<g id="edge2_Node000001_Node000003" class="edge">
<title>Node1&#45;&gt;Node3</title>
<g id="a_edge2_Node000001_Node000003"><a xlink:title=" ">
<path fill="none" stroke="#63b8ff" d="M329.73,-80.92C346.49,-85.91 364.84,-91.36 382.06,-96.49"/>
<polygon fill="#63b8ff" stroke="#63b8ff" points="330.64,-77.54 320.06,-78.04 328.64,-84.25 330.64,-77.54"/>
</a>
</g>
</g>
<!-- Node5 -->
<g id="Node000005" class="node">
<title>Node5</title>
<g id="a_Node000005"><a xlink:href="structdi_1_1container_1_1IntrusiveHashSetTag.html" target="_top" xlink:title=" ">
<polygon fill="white" stroke="#666666" points="515,-78 389,-78 389,-48 515,-48 515,-78"/>
<text text-anchor="start" x="397" y="-66" font-family="Helvetica,sans-Serif" font-size="10.00">di::container::Intrusive</text>
<text text-anchor="middle" x="452" y="-55" font-family="Helvetica,sans-Serif" font-size="10.00">HashSetTag&lt; Self &gt;</text>
</a>
</g>
</g>
<!-- Node1&#45;&gt;Node5 -->
<g id="edge4_Node000001_Node000005" class="edge">
<title>Node1&#45;&gt;Node5</title>
<g id="a_edge4_Node000001_Node000005"><a xlink:title=" ">
<path fill="none" stroke="#63b8ff" d="M344.17,-63C359.02,-63 374.46,-63 388.84,-63"/>
<polygon fill="#63b8ff" stroke="#63b8ff" points="344,-59.5 334,-63 344,-66.5 344,-59.5"/>
</a>
</g>
</g>
<!-- Node6 -->
<g id="Node000006" class="node">
<title>Node6</title>
<g id="a_Node000006"><a xlink:href="structiris_1_1detail_1_1InternalObjectTag.html" target="_top" xlink:title=" ">
<polygon fill="white" stroke="#666666" points="522.5,-30 381.5,-30 381.5,0 522.5,0 522.5,-30"/>
<text text-anchor="start" x="389.5" y="-18" font-family="Helvetica,sans-Serif" font-size="10.00">iris::detail::InternalObject</text>
<text text-anchor="middle" x="452" y="-7" font-family="Helvetica,sans-Serif" font-size="10.00">Tag&lt; InternalObjectTag &gt;</text>
</a>
</g>
</g>
<!-- Node1&#45;&gt;Node6 -->
<g id="edge5_Node000001_Node000006" class="edge">
<title>Node1&#45;&gt;Node6</title>
<g id="a_edge5_Node000001_Node000006"><a xlink:title=" ">
<path fill="none" stroke="#63b8ff" d="M336.24,-45.35C355.29,-40.31 375.87,-34.87 394.27,-30"/>
<polygon fill="#63b8ff" stroke="#63b8ff" points="335.2,-42 326.43,-47.94 336.99,-48.77 335.2,-42"/>
</a>
</g>
</g>
<!-- Node2 -->
<g id="Node000002" class="node">
<title>Node2</title>
<g id="a_Node000002"><a xlink:href="structdi_1_1container_1_1IntrusiveTagBase.html" target="_top" xlink:title=" ">
<polygon fill="white" stroke="#666666" points="167,-83.5 0,-83.5 0,-42.5 167,-42.5 167,-83.5"/>
<text text-anchor="start" x="8" y="-71.5" font-family="Helvetica,sans-Serif" font-size="10.00">di::container::Intrusive</text>
<text text-anchor="start" x="8" y="-60.5" font-family="Helvetica,sans-Serif" font-size="10.00">TagBase&lt; IntrusiveForwardList</text>
<text text-anchor="middle" x="83.5" y="-49.5" font-family="Helvetica,sans-Serif" font-size="10.00">Node&lt; Self &gt; &gt;</text>
</a>
</g>
</g>
<!-- Node2&#45;&gt;Node1 -->
<g id="edge1_Node000001_Node000002" class="edge">
<title>Node2&#45;&gt;Node1</title>
<g id="a_edge1_Node000001_Node000002"><a xlink:title=" ">
<path fill="none" stroke="#63b8ff" d="M177.27,-63C185.88,-63 194.48,-63 202.75,-63"/>
<polygon fill="#63b8ff" stroke="#63b8ff" points="177.17,-59.5 167.17,-63 177.17,-66.5 177.17,-59.5"/>
</a>
</g>
</g>
<!-- Node4 -->
<g id="Node000004" class="node">
<title>Node4</title>
<g id="a_Node000004"><a xlink:href="structdi_1_1container_1_1DefaultIntrusiveHashSetTag.html" target="_top" xlink:title=" ">
<polygon fill="white" stroke="#666666" points="732,-132 570,-132 570,-102 732,-102 732,-132"/>
<text text-anchor="start" x="578" y="-120" font-family="Helvetica,sans-Serif" font-size="10.00">di::container::DefaultIntrusive</text>
<text text-anchor="middle" x="651" y="-109" font-family="Helvetica,sans-Serif" font-size="10.00">HashSetTag</text>
</a>
</g>
</g>
<!-- Node3&#45;&gt;Node4 -->
<g id="edge3_Node000003_Node000004" class="edge">
<title>Node3&#45;&gt;Node4</title>
<g id="a_edge3_Node000003_Node000004"><a xlink:title=" ">
<path fill="none" stroke="#63b8ff" d="M544.53,-117C553,-117 561.53,-117 569.87,-117"/>
<polygon fill="#63b8ff" stroke="#63b8ff" points="544.26,-113.5 534.26,-117 544.26,-120.5 544.26,-113.5"/>
</a>
</g>
</g>
</g>
</svg>
