<?xml version="1.0" encoding="UTF-8" standalone="no"?>
<!DOCTYPE svg PUBLIC "-//W3C//DTD SVG 1.1//EN"
 "http://www.w3.org/Graphics/SVG/1.1/DTD/svg11.dtd">
<!-- Generated by graphviz version 2.43.0 (0)
 -->
<!-- Title: di::meta::detail::CommonComparisonCategoryHelper&lt; strong_ordering, Types... &gt; Pages: 1 -->
<svg width="166pt" height="192pt"
 viewBox="0.00 0.00 166.00 192.00" xmlns="http://www.w3.org/2000/svg" xmlns:xlink="http://www.w3.org/1999/xlink">
<g id="graph0" class="graph" transform="scale(1 1) rotate(0) translate(4 188)">
<title>di::meta::detail::CommonComparisonCategoryHelper&lt; strong_ordering, Types... &gt;</title>
<!-- Node1 -->
<g id="Node000001" class="node">
<title>Node1</title>
<g id="a_Node000001"><a xlink:title=" ">
<polygon fill="#999999" stroke="#666666" points="158,-41 0,-41 0,0 158,0 158,-41"/>
<text text-anchor="start" x="8" y="-29" font-family="Helvetica,sans-Serif" font-size="10.00">di::meta::detail::Common</text>
<text text-anchor="start" x="8" y="-18" font-family="Helvetica,sans-Serif" font-size="10.00">ComparisonCategoryHelper</text>
<text text-anchor="middle" x="79" y="-7" font-family="Helvetica,sans-Serif" font-size="10.00">&lt; strong_ordering, Types... &gt;</text>
</a>
</g>
</g>
<!-- Node2 -->
<g id="Node000002" class="node">
<title>Node2</title>
<g id="a_Node000002"><a xlink:href="structdi_1_1meta_1_1detail_1_1CommonComparisonCategoryHelper.html" target="_top" xlink:title=" ">
<polygon fill="white" stroke="#666666" points="155,-118 3,-118 3,-77 155,-77 155,-118"/>
<text text-anchor="start" x="11" y="-106" font-family="Helvetica,sans-Serif" font-size="10.00">di::meta::detail::Common</text>
<text text-anchor="start" x="11" y="-95" font-family="Helvetica,sans-Serif" font-size="10.00">ComparisonCategoryHelper</text>
<text text-anchor="middle" x="79" y="-84" font-family="Helvetica,sans-Serif" font-size="10.00">&lt; Types... &gt;</text>
</a>
</g>
</g>
<!-- Node2&#45;&gt;Node1 -->
<g id="edge1_Node000001_Node000002" class="edge">
<title>Node2&#45;&gt;Node1</title>
<g id="a_edge1_Node000001_Node000002"><a xlink:title=" ">
<path fill="none" stroke="#63b8ff" d="M79,-66.69C79,-58.08 79,-48.9 79,-41.07"/>
<polygon fill="#63b8ff" stroke="#63b8ff" points="75.5,-66.79 79,-76.79 82.5,-66.79 75.5,-66.79"/>
</a>
</g>
</g>
<!-- Node3 -->
<g id="Node000003" class="node">
<title>Node3</title>
<g id="a_Node000003"><a xlink:href="structdi_1_1meta_1_1TypeConstant.html" target="_top" xlink:title=" ">
<polygon fill="white" stroke="#666666" points="143.5,-184 14.5,-184 14.5,-154 143.5,-154 143.5,-184"/>
<text text-anchor="start" x="22.5" y="-172" font-family="Helvetica,sans-Serif" font-size="10.00">di::meta::TypeConstant</text>
<text text-anchor="middle" x="79" y="-161" font-family="Helvetica,sans-Serif" font-size="10.00">&lt; void &gt;</text>
</a>
</g>
</g>
<!-- Node3&#45;&gt;Node2 -->
<g id="edge2_Node000002_Node000003" class="edge">
<title>Node3&#45;&gt;Node2</title>
<g id="a_edge2_Node000002_Node000003"><a xlink:title=" ">
<path fill="none" stroke="#63b8ff" d="M79,-143.91C79,-135.47 79,-126.1 79,-118.07"/>
<polygon fill="#63b8ff" stroke="#63b8ff" points="75.5,-143.94 79,-153.94 82.5,-143.94 75.5,-143.94"/>
</a>
</g>
</g>
</g>
</svg>
