<?xml version="1.0" encoding="UTF-8" standalone="no"?>
<!DOCTYPE svg PUBLIC "-//W3C//DTD SVG 1.1//EN"
 "http://www.w3.org/Graphics/SVG/1.1/DTD/svg11.dtd">
<!-- Generated by graphviz version 2.43.0 (0)
 -->
<!-- Title: dius::linux::WriteSomeSender::OperationStateT&lt; Rec &gt;::Type Pages: 1 -->
<svg width="179pt" height="214pt"
 viewBox="0.00 0.00 179.00 214.00" xmlns="http://www.w3.org/2000/svg" xmlns:xlink="http://www.w3.org/1999/xlink">
<g id="graph0" class="graph" transform="scale(1 1) rotate(0) translate(4 210)">
<title>dius::linux::WriteSomeSender::OperationStateT&lt; Rec &gt;::Type</title>
<!-- Node1 -->
<g id="Node000001" class="node">
<title>Node1</title>
<g id="a_Node000001"><a xlink:title=" ">
<polygon fill="#999999" stroke="#666666" points="171,-30 0,-30 0,0 171,0 171,-30"/>
<text text-anchor="start" x="8" y="-18" font-family="Helvetica,sans-Serif" font-size="10.00">dius::linux::WriteSomeSender</text>
<text text-anchor="middle" x="85.5" y="-7" font-family="Helvetica,sans-Serif" font-size="10.00">::OperationStateT&lt; Rec &gt;::Type</text>
</a>
</g>
</g>
<!-- Node2 -->
<g id="Node000002" class="node">
<title>Node2</title>
<g id="a_Node000002"><a xlink:href="structdius_1_1linux_1_1OperationStateBase.html" target="_top" xlink:title=" ">
<polygon fill="white" stroke="#666666" points="170.5,-85 0.5,-85 0.5,-66 170.5,-66 170.5,-85"/>
<text text-anchor="middle" x="85.5" y="-73" font-family="Helvetica,sans-Serif" font-size="10.00">dius::linux::OperationStateBase</text>
</a>
</g>
</g>
<!-- Node2&#45;&gt;Node1 -->
<g id="edge1_Node000001_Node000002" class="edge">
<title>Node2&#45;&gt;Node1</title>
<g id="a_edge1_Node000001_Node000002"><a xlink:title=" ">
<path fill="none" stroke="#63b8ff" d="M85.5,-55.65C85.5,-47.36 85.5,-37.78 85.5,-30.11"/>
<polygon fill="#63b8ff" stroke="#63b8ff" points="82,-55.87 85.5,-65.87 89,-55.87 82,-55.87"/>
</a>
</g>
</g>
<!-- Node3 -->
<g id="Node000003" class="node">
<title>Node3</title>
<g id="a_Node000003"><a xlink:href="classdi_1_1container_1_1IntrusiveForwardListNode.html" target="_top" xlink:title=" ">
<polygon fill="white" stroke="#666666" points="154,-151 17,-151 17,-121 154,-121 154,-151"/>
<text text-anchor="start" x="25" y="-139" font-family="Helvetica,sans-Serif" font-size="10.00">di::container::Intrusive</text>
<text text-anchor="middle" x="85.5" y="-128" font-family="Helvetica,sans-Serif" font-size="10.00">ForwardListNode&lt; Tag &gt;</text>
</a>
</g>
</g>
<!-- Node3&#45;&gt;Node2 -->
<g id="edge2_Node000002_Node000003" class="edge">
<title>Node3&#45;&gt;Node2</title>
<g id="a_edge2_Node000002_Node000003"><a xlink:title=" ">
<path fill="none" stroke="#63b8ff" d="M85.5,-110.75C85.5,-101.72 85.5,-92.03 85.5,-85.27"/>
<polygon fill="#63b8ff" stroke="#63b8ff" points="82,-110.84 85.5,-120.84 89,-110.84 82,-110.84"/>
</a>
</g>
</g>
<!-- Node4 -->
<g id="Node000004" class="node">
<title>Node4</title>
<g id="a_Node000004"><a xlink:href="structdi_1_1util_1_1Immovable.html" target="_top" xlink:title=" ">
<polygon fill="white" stroke="#666666" points="140,-206 31,-206 31,-187 140,-187 140,-206"/>
<text text-anchor="middle" x="85.5" y="-194" font-family="Helvetica,sans-Serif" font-size="10.00">di::util::Immovable</text>
</a>
</g>
</g>
<!-- Node4&#45;&gt;Node3 -->
<g id="edge3_Node000003_Node000004" class="edge">
<title>Node4&#45;&gt;Node3</title>
<g id="a_edge3_Node000003_Node000004"><a xlink:title=" ">
<path fill="none" stroke="#8b1a1a" d="M85.5,-176.65C85.5,-168.36 85.5,-158.78 85.5,-151.11"/>
<polygon fill="#8b1a1a" stroke="#8b1a1a" points="82,-176.87 85.5,-186.87 89,-176.87 82,-176.87"/>
</a>
</g>
</g>
</g>
</svg>
