<?xml version="1.0" encoding="UTF-8" standalone="no"?>
<!DOCTYPE svg PUBLIC "-//W3C//DTD SVG 1.1//EN"
 "http://www.w3.org/Graphics/SVG/1.1/DTD/svg11.dtd">
<!-- Generated by graphviz version 2.43.0 (0)
 -->
<!-- Title: di::meta::detail::MakeUnsignedHelper&lt; T &gt; Pages: 1 -->
<svg width="389pt" height="76pt"
 viewBox="0.00 0.00 389.00 75.50" xmlns="http://www.w3.org/2000/svg" xmlns:xlink="http://www.w3.org/1999/xlink">
<g id="graph0" class="graph" transform="scale(1 1) rotate(0) translate(4 71.5)">
<title>di::meta::detail::MakeUnsignedHelper&lt; T &gt;</title>
<!-- Node1 -->
<g id="Node000001" class="node">
<title>Node1</title>
<g id="a_Node000001"><a xlink:title=" ">
<polygon fill="#999999" stroke="#666666" points="381,-45.5 212,-45.5 212,-15.5 381,-15.5 381,-45.5"/>
<text text-anchor="start" x="220" y="-33.5" font-family="Helvetica,sans-Serif" font-size="10.00">di::meta::detail::MakeUnsigned</text>
<text text-anchor="middle" x="296.5" y="-22.5" font-family="Helvetica,sans-Serif" font-size="10.00">Helper&lt; T &gt;</text>
</a>
</g>
</g>
<!-- Node2 -->
<g id="Node000002" class="node">
<title>Node2</title>
<g id="a_Node000002"><a xlink:href="structdi_1_1meta_1_1detail_1_1MakeUnsignedHelper.html" target="_top" xlink:title=" ">
<polygon fill="white" stroke="#666666" points="176,-67.5 0,-67.5 0,-37.5 176,-37.5 176,-67.5"/>
<text text-anchor="start" x="8" y="-55.5" font-family="Helvetica,sans-Serif" font-size="10.00">di::meta::detail::MakeUnsigned</text>
<text text-anchor="middle" x="88" y="-44.5" font-family="Helvetica,sans-Serif" font-size="10.00">Helper&lt; UnderlyingType&lt; T &gt; &gt;</text>
</a>
</g>
</g>
<!-- Node2&#45;&gt;Node1 -->
<g id="edge1_Node000001_Node000002" class="edge">
<title>Node2&#45;&gt;Node1</title>
<g id="a_edge1_Node000001_Node000002"><a xlink:title=" ">
<path fill="none" stroke="#63b8ff" d="M186.27,-42.14C194.81,-41.23 203.41,-40.31 211.83,-39.41"/>
<polygon fill="#63b8ff" stroke="#63b8ff" points="185.85,-38.66 176.28,-43.2 186.59,-45.62 185.85,-38.66"/>
</a>
</g>
</g>
<!-- Node3 -->
<g id="Node000003" class="node">
<title>Node3</title>
<g id="a_Node000003"><a xlink:href="structdi_1_1meta_1_1TypeConstant.html" target="_top" xlink:title=" ">
<polygon fill="white" stroke="#666666" points="167,-19 9,-19 9,0 167,0 167,-19"/>
<text text-anchor="middle" x="88" y="-7" font-family="Helvetica,sans-Serif" font-size="10.00">di::meta::TypeConstant&lt; T &gt;</text>
</a>
</g>
</g>
<!-- Node3&#45;&gt;Node1 -->
<g id="edge2_Node000001_Node000003" class="edge">
<title>Node3&#45;&gt;Node1</title>
<g id="a_edge2_Node000001_Node000003"><a xlink:title=" ">
<path fill="none" stroke="#63b8ff" d="M177.1,-18.46C188.61,-19.63 200.37,-20.83 211.81,-21.99"/>
<polygon fill="#63b8ff" stroke="#63b8ff" points="177.37,-14.97 167.07,-17.44 176.66,-21.93 177.37,-14.97"/>
</a>
</g>
</g>
</g>
</svg>
