<?xml version="1.0" encoding="UTF-8" standalone="no"?>
<!DOCTYPE svg PUBLIC "-//W3C//DTD SVG 1.1//EN"
 "http://www.w3.org/Graphics/SVG/1.1/DTD/svg11.dtd">
<!-- Generated by graphviz version 2.43.0 (0)
 -->
<!-- Title: di::container::DefaultIntrusiveHashSetTag Pages: 1 -->
<svg width="175pt" height="258pt"
 viewBox="0.00 0.00 175.00 258.00" xmlns="http://www.w3.org/2000/svg" xmlns:xlink="http://www.w3.org/1999/xlink">
<g id="graph0" class="graph" transform="scale(1 1) rotate(0) translate(4 254)">
<title>di::container::DefaultIntrusiveHashSetTag</title>
<!-- Node1 -->
<g id="Node000001" class="node">
<title>Node1</title>
<g id="a_Node000001"><a xlink:title=" ">
<polygon fill="#999999" stroke="#666666" points="164.5,-30 2.5,-30 2.5,0 164.5,0 164.5,-30"/>
<text text-anchor="start" x="10.5" y="-18" font-family="Helvetica,sans-Serif" font-size="10.00">di::container::DefaultIntrusive</text>
<text text-anchor="middle" x="83.5" y="-7" font-family="Helvetica,sans-Serif" font-size="10.00">HashSetTag</text>
</a>
</g>
</g>
<!-- Node2 -->
<g id="Node000002" class="node">
<title>Node2</title>
<g id="a_Node000002"><a xlink:href="structdi_1_1container_1_1IntrusiveHashSetTag.html" target="_top" xlink:title=" ">
<polygon fill="white" stroke="#666666" points="165.5,-107 1.5,-107 1.5,-66 165.5,-66 165.5,-107"/>
<text text-anchor="start" x="9.5" y="-95" font-family="Helvetica,sans-Serif" font-size="10.00">di::container::Intrusive</text>
<text text-anchor="start" x="9.5" y="-84" font-family="Helvetica,sans-Serif" font-size="10.00">HashSetTag&lt; DefaultIntrusive</text>
<text text-anchor="middle" x="83.5" y="-73" font-family="Helvetica,sans-Serif" font-size="10.00">HashSetTag &gt;</text>
</a>
</g>
</g>
<!-- Node2&#45;&gt;Node1 -->
<g id="edge1_Node000001_Node000002" class="edge">
<title>Node2&#45;&gt;Node1</title>
<g id="a_edge1_Node000001_Node000002"><a xlink:title=" ">
<path fill="none" stroke="#63b8ff" d="M83.5,-55.66C83.5,-46.76 83.5,-37.42 83.5,-30.04"/>
<polygon fill="#63b8ff" stroke="#63b8ff" points="80,-55.77 83.5,-65.77 87,-55.77 80,-55.77"/>
</a>
</g>
</g>
<!-- Node3 -->
<g id="Node000003" class="node">
<title>Node3</title>
<g id="a_Node000003"><a xlink:href="structdi_1_1container_1_1IntrusiveForwardListTag.html" target="_top" xlink:title=" ">
<polygon fill="white" stroke="#666666" points="149,-173 18,-173 18,-143 149,-143 149,-173"/>
<text text-anchor="start" x="26" y="-161" font-family="Helvetica,sans-Serif" font-size="10.00">di::container::Intrusive</text>
<text text-anchor="middle" x="83.5" y="-150" font-family="Helvetica,sans-Serif" font-size="10.00">ForwardListTag&lt; Self &gt;</text>
</a>
</g>
</g>
<!-- Node3&#45;&gt;Node2 -->
<g id="edge2_Node000002_Node000003" class="edge">
<title>Node3&#45;&gt;Node2</title>
<g id="a_edge2_Node000002_Node000003"><a xlink:title=" ">
<path fill="none" stroke="#63b8ff" d="M83.5,-132.91C83.5,-124.47 83.5,-115.1 83.5,-107.07"/>
<polygon fill="#63b8ff" stroke="#63b8ff" points="80,-132.94 83.5,-142.94 87,-132.94 80,-132.94"/>
</a>
</g>
</g>
<!-- Node4 -->
<g id="Node000004" class="node">
<title>Node4</title>
<g id="a_Node000004"><a xlink:href="structdi_1_1container_1_1IntrusiveTagBase.html" target="_top" xlink:title=" ">
<polygon fill="white" stroke="#666666" points="167,-250 0,-250 0,-209 167,-209 167,-250"/>
<text text-anchor="start" x="8" y="-238" font-family="Helvetica,sans-Serif" font-size="10.00">di::container::Intrusive</text>
<text text-anchor="start" x="8" y="-227" font-family="Helvetica,sans-Serif" font-size="10.00">TagBase&lt; IntrusiveForwardList</text>
<text text-anchor="middle" x="83.5" y="-216" font-family="Helvetica,sans-Serif" font-size="10.00">Node&lt; Self &gt; &gt;</text>
</a>
</g>
</g>
<!-- Node4&#45;&gt;Node3 -->
<g id="edge3_Node000003_Node000004" class="edge">
<title>Node4&#45;&gt;Node3</title>
<g id="a_edge3_Node000003_Node000004"><a xlink:title=" ">
<path fill="none" stroke="#63b8ff" d="M83.5,-198.66C83.5,-189.76 83.5,-180.42 83.5,-173.04"/>
<polygon fill="#63b8ff" stroke="#63b8ff" points="80,-198.77 83.5,-208.77 87,-198.77 80,-198.77"/>
</a>
</g>
</g>
</g>
</svg>
