<?xml version="1.0" encoding="UTF-8" standalone="no"?>
<!DOCTYPE svg PUBLIC "-//W3C//DTD SVG 1.1//EN"
 "http://www.w3.org/Graphics/SVG/1.1/DTD/svg11.dtd">
<!-- Generated by graphviz version 2.43.0 (0)
 -->
<!-- Title: di::meta::detail::CompareThreeWayResultHelper&lt; T, U &gt; Pages: 1 -->
<svg width="426pt" height="98pt"
 viewBox="0.00 0.00 426.00 97.50" xmlns="http://www.w3.org/2000/svg" xmlns:xlink="http://www.w3.org/1999/xlink">
<g id="graph0" class="graph" transform="scale(1 1) rotate(0) translate(4 93.5)">
<title>di::meta::detail::CompareThreeWayResultHelper&lt; T, U &gt;</title>
<!-- Node1 -->
<g id="Node000001" class="node">
<title>Node1</title>
<g id="a_Node000001"><a xlink:title=" ">
<polygon fill="#999999" stroke="#666666" points="418,-68 248,-68 248,-38 418,-38 418,-68"/>
<text text-anchor="start" x="256" y="-56" font-family="Helvetica,sans-Serif" font-size="10.00">di::meta::detail::Compare</text>
<text text-anchor="middle" x="333" y="-45" font-family="Helvetica,sans-Serif" font-size="10.00">ThreeWayResultHelper&lt; T, U &gt;</text>
</a>
</g>
</g>
<!-- Node2 -->
<g id="Node000002" class="node">
<title>Node2</title>
<g id="a_Node000002"><a xlink:href="structdi_1_1meta_1_1TypeConstant.html" target="_top" xlink:title=" ">
<polygon fill="white" stroke="#666666" points="185,-89.5 27,-89.5 27,-70.5 185,-70.5 185,-89.5"/>
<text text-anchor="middle" x="106" y="-77.5" font-family="Helvetica,sans-Serif" font-size="10.00">di::meta::TypeConstant&lt; T &gt;</text>
</a>
</g>
</g>
<!-- Node2&#45;&gt;Node1 -->
<g id="edge1_Node000001_Node000002" class="edge">
<title>Node2&#45;&gt;Node1</title>
<g id="a_edge1_Node000001_Node000002"><a xlink:title=" ">
<path fill="none" stroke="#63b8ff" d="M195.18,-69.42C212.54,-67.34 230.72,-65.15 247.94,-63.09"/>
<polygon fill="#63b8ff" stroke="#63b8ff" points="194.57,-65.97 185.06,-70.63 195.41,-72.92 194.57,-65.97"/>
</a>
</g>
</g>
<!-- Node3 -->
<g id="Node000003" class="node">
<title>Node3</title>
<g id="a_Node000003"><a xlink:href="structdi_1_1meta_1_1TypeConstant.html" target="_top" xlink:title=" ">
<polygon fill="white" stroke="#666666" points="212,-52 0,-52 0,0 212,0 212,-52"/>
<text text-anchor="start" x="8" y="-40" font-family="Helvetica,sans-Serif" font-size="10.00">di::meta::TypeConstant</text>
<text text-anchor="start" x="8" y="-29" font-family="Helvetica,sans-Serif" font-size="10.00">&lt; meta::Type&lt; concepts</text>
<text text-anchor="start" x="8" y="-18" font-family="Helvetica,sans-Serif" font-size="10.00">::detail::DefinitelyThreeWayComparable</text>
<text text-anchor="middle" x="106" y="-7" font-family="Helvetica,sans-Serif" font-size="10.00">With&lt; T, U &gt; &gt; &gt;</text>
</a>
</g>
</g>
<!-- Node3&#45;&gt;Node1 -->
<g id="edge2_Node000001_Node000003" class="edge">
<title>Node3&#45;&gt;Node1</title>
<g id="a_edge2_Node000001_Node000003"><a xlink:title=" ">
<path fill="none" stroke="#63b8ff" d="M222.3,-39.84C230.87,-40.86 239.41,-41.89 247.73,-42.89"/>
<polygon fill="#63b8ff" stroke="#63b8ff" points="222.6,-36.35 212.25,-38.63 221.77,-43.3 222.6,-36.35"/>
</a>
</g>
</g>
</g>
</svg>
