<?xml version="1.0" encoding="UTF-8" standalone="no"?>
<!DOCTYPE svg PUBLIC "-//W3C//DTD SVG 1.1//EN"
 "http://www.w3.org/Graphics/SVG/1.1/DTD/svg11.dtd">
<!-- Generated by graphviz version 2.43.0 (0)
 -->
<!-- Title: di::bit::BitField&lt; index, bit_count &gt; Pages: 1 -->
<svg width="360pt" height="553pt"
 viewBox="0.00 0.00 360.00 552.50" xmlns="http://www.w3.org/2000/svg" xmlns:xlink="http://www.w3.org/1999/xlink">
<g id="graph0" class="graph" transform="scale(1 1) rotate(0) translate(4 548.5)">
<title>di::bit::BitField&lt; index, bit_count &gt;</title>
<!-- Node1 -->
<g id="Node000001" class="node">
<title>Node1</title>
<g id="a_Node000001"><a xlink:title=" ">
<polygon fill="#999999" stroke="#666666" points="109,-293 0,-293 0,-263 109,-263 109,-293"/>
<text text-anchor="start" x="8" y="-281" font-family="Helvetica,sans-Serif" font-size="10.00">di::bit::BitField&lt;</text>
<text text-anchor="middle" x="54.5" y="-270" font-family="Helvetica,sans-Serif" font-size="10.00"> index, bit_count &gt;</text>
</a>
</g>
</g>
<!-- Node2 -->
<g id="Node000002" class="node">
<title>Node2</title>
<g id="a_Node000002"><a xlink:href="structiris_1_1x86_1_1amd64_1_1ApicExtendedFeatureExtendedLvtCount.html" target="_top" xlink:title=" ">
<polygon fill="white" stroke="#666666" points="332.5,-544.5 164.5,-544.5 164.5,-503.5 332.5,-503.5 332.5,-544.5"/>
<text text-anchor="start" x="172.5" y="-532.5" font-family="Helvetica,sans-Serif" font-size="10.00">iris::x86::amd64::ApicExtended</text>
<text text-anchor="start" x="172.5" y="-521.5" font-family="Helvetica,sans-Serif" font-size="10.00">FeatureExtendedLvtCount&lt;</text>
<text text-anchor="middle" x="248.5" y="-510.5" font-family="Helvetica,sans-Serif" font-size="10.00"> 16, 8 &gt;</text>
</a>
</g>
</g>
<!-- Node1&#45;&gt;Node2 -->
<g id="edge1_Node000001_Node000002" class="edge">
<title>Node1&#45;&gt;Node2</title>
<g id="a_edge1_Node000001_Node000002"><a xlink:title=" ">
<path fill="none" stroke="#63b8ff" d="M58.8,-303.18C66.03,-348.15 87.51,-442.41 145,-494 150.73,-499.14 157.29,-503.4 164.27,-506.93"/>
<polygon fill="#63b8ff" stroke="#63b8ff" points="62.23,-302.48 57.29,-293.11 55.31,-303.52 62.23,-302.48"/>
</a>
</g>
</g>
<!-- Node3 -->
<g id="Node000003" class="node">
<title>Node3</title>
<g id="a_Node000003"><a xlink:href="structiris_1_1x86_1_1amd64_1_1ApicInterruptCommandDestination.html" target="_top" xlink:title=" ">
<polygon fill="white" stroke="#666666" points="333.5,-485 163.5,-485 163.5,-455 333.5,-455 333.5,-485"/>
<text text-anchor="start" x="171.5" y="-473" font-family="Helvetica,sans-Serif" font-size="10.00">iris::x86::amd64::ApicInterrupt</text>
<text text-anchor="middle" x="248.5" y="-462" font-family="Helvetica,sans-Serif" font-size="10.00">CommandDestination&lt; 56, 8 &gt;</text>
</a>
</g>
</g>
<!-- Node1&#45;&gt;Node3 -->
<g id="edge2_Node000001_Node000003" class="edge">
<title>Node1&#45;&gt;Node3</title>
<g id="a_edge2_Node000001_Node000003"><a xlink:title=" ">
<path fill="none" stroke="#63b8ff" d="M61.73,-303.06C72.32,-340.21 97.44,-409.42 145,-446 150.58,-450.29 156.8,-453.83 163.34,-456.76"/>
<polygon fill="#63b8ff" stroke="#63b8ff" points="65.02,-301.8 59.02,-293.06 58.26,-303.63 65.02,-301.8"/>
</a>
</g>
</g>
<!-- Node4 -->
<g id="Node000004" class="node">
<title>Node4</title>
<g id="a_Node000004"><a xlink:href="structiris_1_1x86_1_1amd64_1_1ApicInterruptCommandRemoteReadStatus.html" target="_top" xlink:title=" ">
<polygon fill="white" stroke="#666666" points="352,-437 145,-437 145,-407 352,-407 352,-437"/>
<text text-anchor="start" x="153" y="-425" font-family="Helvetica,sans-Serif" font-size="10.00">iris::x86::amd64::ApicInterrupt</text>
<text text-anchor="middle" x="248.5" y="-414" font-family="Helvetica,sans-Serif" font-size="10.00">CommandRemoteReadStatus&lt; 16, 2 &gt;</text>
</a>
</g>
</g>
<!-- Node1&#45;&gt;Node4 -->
<g id="edge3_Node000001_Node000004" class="edge">
<title>Node1&#45;&gt;Node4</title>
<g id="a_edge3_Node000001_Node000004"><a xlink:title=" ">
<path fill="none" stroke="#63b8ff" d="M66.97,-302.22C81.29,-329.78 108.44,-374.05 145,-398 150.27,-401.46 155.99,-404.42 161.93,-406.95"/>
<polygon fill="#63b8ff" stroke="#63b8ff" points="70.06,-300.59 62.44,-293.23 63.81,-303.74 70.06,-300.59"/>
</a>
</g>
</g>
<!-- Node5 -->
<g id="Node000005" class="node">
<title>Node5</title>
<g id="a_Node000005"><a xlink:href="structiris_1_1x86_1_1amd64_1_1ApicInterruptCommandVector.html" target="_top" xlink:title=" ">
<polygon fill="white" stroke="#666666" points="330.5,-389 166.5,-389 166.5,-359 330.5,-359 330.5,-389"/>
<text text-anchor="start" x="174.5" y="-377" font-family="Helvetica,sans-Serif" font-size="10.00">iris::x86::amd64::ApicInterrupt</text>
<text text-anchor="middle" x="248.5" y="-366" font-family="Helvetica,sans-Serif" font-size="10.00">CommandVector&lt; 0, 8 &gt;</text>
</a>
</g>
</g>
<!-- Node1&#45;&gt;Node5 -->
<g id="edge4_Node000001_Node000005" class="edge">
<title>Node1&#45;&gt;Node5</title>
<g id="a_edge4_Node000001_Node000005"><a xlink:title=" ">
<path fill="none" stroke="#63b8ff" d="M77.1,-300.07C94.11,-316.22 119.2,-337.42 145,-350 152.06,-353.44 159.65,-356.41 167.37,-358.96"/>
<polygon fill="#63b8ff" stroke="#63b8ff" points="79.49,-297.51 69.88,-293.06 74.61,-302.54 79.49,-297.51"/>
</a>
</g>
</g>
<!-- Node6 -->
<g id="Node000006" class="node">
<title>Node6</title>
<g id="a_Node000006"><a xlink:href="structiris_1_1x86_1_1amd64_1_1ApicLvtEntryVector.html" target="_top" xlink:title=" ">
<polygon fill="white" stroke="#666666" points="317,-341 180,-341 180,-311 317,-311 317,-341"/>
<text text-anchor="start" x="188" y="-329" font-family="Helvetica,sans-Serif" font-size="10.00">iris::x86::amd64::ApicLvt</text>
<text text-anchor="middle" x="248.5" y="-318" font-family="Helvetica,sans-Serif" font-size="10.00">EntryVector&lt; 0, 8 &gt;</text>
</a>
</g>
</g>
<!-- Node1&#45;&gt;Node6 -->
<g id="edge5_Node000001_Node000006" class="edge">
<title>Node1&#45;&gt;Node6</title>
<g id="a_edge5_Node000001_Node000006"><a xlink:title=" ">
<path fill="none" stroke="#63b8ff" d="M119.11,-295.33C127.8,-297.61 136.61,-299.89 145,-302 156.88,-304.98 169.56,-308.05 181.81,-310.95"/>
<polygon fill="#63b8ff" stroke="#63b8ff" points="119.94,-291.93 109.38,-292.75 118.15,-298.69 119.94,-291.93"/>
</a>
</g>
</g>
<!-- Node7 -->
<g id="Node000007" class="node">
<title>Node7</title>
<g id="a_Node000007"><a xlink:href="structiris_1_1x86_1_1amd64_1_1ApicMaxLvtEntry.html" target="_top" xlink:title=" ">
<polygon fill="white" stroke="#666666" points="320,-293 177,-293 177,-263 320,-263 320,-293"/>
<text text-anchor="start" x="185" y="-281" font-family="Helvetica,sans-Serif" font-size="10.00">iris::x86::amd64::ApicMax</text>
<text text-anchor="middle" x="248.5" y="-270" font-family="Helvetica,sans-Serif" font-size="10.00">LvtEntry&lt; 16, 8 &gt;</text>
</a>
</g>
</g>
<!-- Node1&#45;&gt;Node7 -->
<g id="edge6_Node000001_Node000007" class="edge">
<title>Node1&#45;&gt;Node7</title>
<g id="a_edge6_Node000001_Node000007"><a xlink:title=" ">
<path fill="none" stroke="#63b8ff" d="M119.29,-278C137.76,-278 158.03,-278 176.88,-278"/>
<polygon fill="#63b8ff" stroke="#63b8ff" points="119.24,-274.5 109.24,-278 119.24,-281.5 119.24,-274.5"/>
</a>
</g>
</g>
<!-- Node8 -->
<g id="Node000008" class="node">
<title>Node8</title>
<g id="a_Node000008"><a xlink:href="structiris_1_1x86_1_1amd64_1_1ApicVersion.html" target="_top" xlink:title=" ">
<polygon fill="white" stroke="#666666" points="327.5,-245 169.5,-245 169.5,-215 327.5,-215 327.5,-245"/>
<text text-anchor="start" x="177.5" y="-233" font-family="Helvetica,sans-Serif" font-size="10.00">iris::x86::amd64::ApicVersion</text>
<text text-anchor="middle" x="248.5" y="-222" font-family="Helvetica,sans-Serif" font-size="10.00">&lt; 0, 8 &gt;</text>
</a>
</g>
</g>
<!-- Node1&#45;&gt;Node8 -->
<g id="edge7_Node000001_Node000008" class="edge">
<title>Node1&#45;&gt;Node8</title>
<g id="a_edge7_Node000001_Node000008"><a xlink:title=" ">
<path fill="none" stroke="#63b8ff" d="M119.11,-260.67C127.8,-258.39 136.61,-256.11 145,-254 156.88,-251.02 169.56,-247.95 181.81,-245.05"/>
<polygon fill="#63b8ff" stroke="#63b8ff" points="118.15,-257.31 109.38,-263.25 119.94,-264.07 118.15,-257.31"/>
</a>
</g>
</g>
<!-- Node9 -->
<g id="Node000009" class="node">
<title>Node9</title>
<g id="a_Node000009"><a xlink:href="structiris_1_1x86_1_1amd64_1_1IoApicMaxRedirectionEntry.html" target="_top" xlink:title=" ">
<polygon fill="white" stroke="#666666" points="331,-197 166,-197 166,-167 331,-167 331,-197"/>
<text text-anchor="start" x="174" y="-185" font-family="Helvetica,sans-Serif" font-size="10.00">iris::x86::amd64::IoApic</text>
<text text-anchor="middle" x="248.5" y="-174" font-family="Helvetica,sans-Serif" font-size="10.00">MaxRedirectionEntry&lt; 16, 8 &gt;</text>
</a>
</g>
</g>
<!-- Node1&#45;&gt;Node9 -->
<g id="edge8_Node000001_Node000009" class="edge">
<title>Node1&#45;&gt;Node9</title>
<g id="a_edge8_Node000001_Node000009"><a xlink:title=" ">
<path fill="none" stroke="#63b8ff" d="M77.1,-255.93C94.11,-239.78 119.2,-218.58 145,-206 152.06,-202.56 159.65,-199.59 167.37,-197.04"/>
<polygon fill="#63b8ff" stroke="#63b8ff" points="74.61,-253.46 69.88,-262.94 79.49,-258.49 74.61,-253.46"/>
</a>
</g>
</g>
<!-- Node10 -->
<g id="Node000010" class="node">
<title>Node10</title>
<g id="a_Node000010"><a xlink:href="structiris_1_1x86_1_1amd64_1_1IoApicRedirectionTableEntryDestination.html" target="_top" xlink:title=" ">
<polygon fill="white" stroke="#666666" points="338,-148.5 159,-148.5 159,-107.5 338,-107.5 338,-148.5"/>
<text text-anchor="start" x="167" y="-136.5" font-family="Helvetica,sans-Serif" font-size="10.00">iris::x86::amd64::IoApic</text>
<text text-anchor="start" x="167" y="-125.5" font-family="Helvetica,sans-Serif" font-size="10.00">RedirectionTableEntryDestination</text>
<text text-anchor="middle" x="248.5" y="-114.5" font-family="Helvetica,sans-Serif" font-size="10.00">&lt; 56, 8 &gt;</text>
</a>
</g>
</g>
<!-- Node1&#45;&gt;Node10 -->
<g id="edge9_Node000001_Node000010" class="edge">
<title>Node1&#45;&gt;Node10</title>
<g id="a_edge9_Node000001_Node000010"><a xlink:title=" ">
<path fill="none" stroke="#63b8ff" d="M67.39,-253.77C81.99,-226.52 109.27,-182.83 145,-158 150.1,-154.46 155.62,-151.32 161.37,-148.56"/>
<polygon fill="#63b8ff" stroke="#63b8ff" points="64.1,-252.51 62.6,-263 70.31,-255.74 64.1,-252.51"/>
</a>
</g>
</g>
<!-- Node11 -->
<g id="Node000011" class="node">
<title>Node11</title>
<g id="a_Node000011"><a xlink:href="structiris_1_1x86_1_1amd64_1_1IoApicRedirectionTableEntryVector.html" target="_top" xlink:title="IO APIC Redirection Table Entry.">
<polygon fill="white" stroke="#666666" points="325.5,-89.5 171.5,-89.5 171.5,-48.5 325.5,-48.5 325.5,-89.5"/>
<text text-anchor="start" x="179.5" y="-77.5" font-family="Helvetica,sans-Serif" font-size="10.00">iris::x86::amd64::IoApic</text>
<text text-anchor="start" x="179.5" y="-66.5" font-family="Helvetica,sans-Serif" font-size="10.00">RedirectionTableEntryVector</text>
<text text-anchor="middle" x="248.5" y="-55.5" font-family="Helvetica,sans-Serif" font-size="10.00">&lt; 0, 8 &gt;</text>
</a>
</g>
</g>
<!-- Node1&#45;&gt;Node11 -->
<g id="edge10_Node000001_Node000011" class="edge">
<title>Node1&#45;&gt;Node11</title>
<g id="a_edge10_Node000001_Node000011"><a xlink:title=" ">
<path fill="none" stroke="#63b8ff" d="M61.16,-253.04C71.24,-214.3 96.01,-139.92 145,-99 152.76,-92.52 161.85,-87.44 171.37,-83.46"/>
<polygon fill="#63b8ff" stroke="#63b8ff" points="57.71,-252.41 58.7,-262.96 64.5,-254.1 57.71,-252.41"/>
</a>
</g>
</g>
<!-- Node12 -->
<g id="Node000012" class="node">
<title>Node12</title>
<g id="a_Node000012"><a xlink:href="structiris_1_1x86_1_1amd64_1_1IoApicVersion.html" target="_top" xlink:title="IO APIC Version Register.">
<polygon fill="white" stroke="#666666" points="314,-30 183,-30 183,0 314,0 314,-30"/>
<text text-anchor="start" x="191" y="-18" font-family="Helvetica,sans-Serif" font-size="10.00">iris::x86::amd64::IoApic</text>
<text text-anchor="middle" x="248.5" y="-7" font-family="Helvetica,sans-Serif" font-size="10.00">Version&lt; 0, 8 &gt;</text>
</a>
</g>
</g>
<!-- Node1&#45;&gt;Node12 -->
<g id="edge11_Node000001_Node000012" class="edge">
<title>Node1&#45;&gt;Node12</title>
<g id="a_edge11_Node000001_Node000012"><a xlink:title=" ">
<path fill="none" stroke="#63b8ff" d="M57.44,-252.76C62.59,-204.01 80.96,-96.75 145,-40 155.62,-30.58 169.21,-24.58 182.99,-20.78"/>
<polygon fill="#63b8ff" stroke="#63b8ff" points="53.95,-252.48 56.49,-262.76 60.92,-253.14 53.95,-252.48"/>
</a>
</g>
</g>
</g>
</svg>
