<?xml version="1.0" encoding="UTF-8" standalone="no"?>
<!DOCTYPE svg PUBLIC "-//W3C//DTD SVG 1.1//EN"
 "http://www.w3.org/Graphics/SVG/1.1/DTD/svg11.dtd">
<!-- Generated by graphviz version 2.43.0 (0)
 -->
<!-- Title: di::function::function_ref_ns::SignatureAfterBindFrontHelper&lt; M G::*, T &gt; Pages: 1 -->
<svg width="406pt" height="108pt"
 viewBox="0.00 0.00 406.00 108.00" xmlns="http://www.w3.org/2000/svg" xmlns:xlink="http://www.w3.org/1999/xlink">
<g id="graph0" class="graph" transform="scale(1 1) rotate(0) translate(4 104)">
<title>di::function::function_ref_ns::SignatureAfterBindFrontHelper&lt; M G::*, T &gt;</title>
<!-- Node1 -->
<g id="Node000001" class="node">
<title>Node1</title>
<g id="a_Node000001"><a xlink:title=" ">
<polygon fill="#999999" stroke="#666666" points="398,-70 224,-70 224,-29 398,-29 398,-70"/>
<text text-anchor="start" x="232" y="-58" font-family="Helvetica,sans-Serif" font-size="10.00">di::function::function</text>
<text text-anchor="start" x="232" y="-47" font-family="Helvetica,sans-Serif" font-size="10.00">_ref_ns::SignatureAfterBindFront</text>
<text text-anchor="middle" x="311" y="-36" font-family="Helvetica,sans-Serif" font-size="10.00">Helper&lt; M G::*, T &gt;</text>
</a>
</g>
</g>
<!-- Node2 -->
<g id="Node000002" class="node">
<title>Node2</title>
<g id="a_Node000002"><a xlink:href="structdi_1_1meta_1_1TypeConstant.html" target="_top" xlink:title=" ">
<polygon fill="white" stroke="#666666" points="159.5,-100 28.5,-100 28.5,-59 159.5,-59 159.5,-100"/>
<text text-anchor="start" x="36.5" y="-88" font-family="Helvetica,sans-Serif" font-size="10.00">di::meta::TypeConstant</text>
<text text-anchor="start" x="36.5" y="-77" font-family="Helvetica,sans-Serif" font-size="10.00">&lt; meta::InvokeResult&lt;</text>
<text text-anchor="middle" x="94" y="-66" font-family="Helvetica,sans-Serif" font-size="10.00"> M G::*, T &gt; &gt;</text>
</a>
</g>
</g>
<!-- Node2&#45;&gt;Node1 -->
<g id="edge1_Node000001_Node000002" class="edge">
<title>Node2&#45;&gt;Node1</title>
<g id="a_edge1_Node000001_Node000002"><a xlink:title=" ">
<path fill="none" stroke="#63b8ff" d="M169.61,-69.09C187.05,-66.66 205.76,-64.05 223.66,-61.55"/>
<polygon fill="#63b8ff" stroke="#63b8ff" points="168.93,-65.65 159.51,-70.5 169.89,-72.58 168.93,-65.65"/>
</a>
</g>
</g>
<!-- Node3 -->
<g id="Node000003" class="node">
<title>Node3</title>
<g id="a_Node000003"><a xlink:href="structdi_1_1meta_1_1TypeConstant.html" target="_top" xlink:title=" ">
<polygon fill="white" stroke="#666666" points="188,-41 0,-41 0,0 188,0 188,-41"/>
<text text-anchor="start" x="8" y="-29" font-family="Helvetica,sans-Serif" font-size="10.00">di::meta::TypeConstant</text>
<text text-anchor="start" x="8" y="-18" font-family="Helvetica,sans-Serif" font-size="10.00">&lt; meta::RemoveFunctionQualifiers</text>
<text text-anchor="middle" x="94" y="-7" font-family="Helvetica,sans-Serif" font-size="10.00">&lt; M &gt; &gt;</text>
</a>
</g>
</g>
<!-- Node3&#45;&gt;Node1 -->
<g id="edge2_Node000001_Node000003" class="edge">
<title>Node3&#45;&gt;Node1</title>
<g id="a_edge2_Node000001_Node000003"><a xlink:title=" ">
<path fill="none" stroke="#63b8ff" d="M198.15,-34.41C206.78,-35.58 215.44,-36.75 223.92,-37.89"/>
<polygon fill="#63b8ff" stroke="#63b8ff" points="198.43,-30.92 188.05,-33.05 197.49,-37.86 198.43,-30.92"/>
</a>
</g>
</g>
</g>
</svg>
