<?xml version="1.0" encoding="UTF-8" standalone="no"?>
<!DOCTYPE svg PUBLIC "-//W3C//DTD SVG 1.1//EN"
 "http://www.w3.org/Graphics/SVG/1.1/DTD/svg11.dtd">
<!-- Generated by graphviz version 2.43.0 (0)
 -->
<!-- Title: di::meta::detail::CommonTypeHelper&lt; T, U &gt; Pages: 1 -->
<svg width="343pt" height="226pt"
 viewBox="0.00 0.00 343.00 226.00" xmlns="http://www.w3.org/2000/svg" xmlns:xlink="http://www.w3.org/1999/xlink">
<g id="graph0" class="graph" transform="scale(1 1) rotate(0) translate(4 222)">
<title>di::meta::detail::CommonTypeHelper&lt; T, U &gt;</title>
<!-- Node1 -->
<g id="Node000001" class="node">
<title>Node1</title>
<g id="a_Node000001"><a xlink:title=" ">
<polygon fill="#999999" stroke="#666666" points="335,-118.5 194,-118.5 194,-88.5 335,-88.5 335,-118.5"/>
<text text-anchor="start" x="202" y="-106.5" font-family="Helvetica,sans-Serif" font-size="10.00">di::meta::detail::Common</text>
<text text-anchor="middle" x="264.5" y="-95.5" font-family="Helvetica,sans-Serif" font-size="10.00">TypeHelper&lt; T, U &gt;</text>
</a>
</g>
</g>
<!-- Node2 -->
<g id="Node000002" class="node">
<title>Node2</title>
<g id="a_Node000002"><a xlink:href="structdi_1_1meta_1_1detail_1_1CommonTypeHelper.html" target="_top" xlink:title=" ">
<polygon fill="white" stroke="#666666" points="156.5,-218 1.5,-218 1.5,-177 156.5,-177 156.5,-218"/>
<text text-anchor="start" x="9.5" y="-206" font-family="Helvetica,sans-Serif" font-size="10.00">di::meta::detail::Common</text>
<text text-anchor="start" x="9.5" y="-195" font-family="Helvetica,sans-Serif" font-size="10.00">TypeHelper&lt; meta::Decay</text>
<text text-anchor="middle" x="79" y="-184" font-family="Helvetica,sans-Serif" font-size="10.00">&lt; T &gt;, meta::Decay&lt; U &gt; &gt;</text>
</a>
</g>
</g>
<!-- Node2&#45;&gt;Node1 -->
<g id="edge1_Node000001_Node000002" class="edge">
<title>Node2&#45;&gt;Node1</title>
<g id="a_edge1_Node000001_Node000002"><a xlink:title=" ">
<path fill="none" stroke="#63b8ff" d="M148.51,-172.91C151.74,-171.48 154.92,-170 158,-168.5 188.16,-153.78 220.74,-132.86 241.59,-118.77"/>
<polygon fill="#63b8ff" stroke="#63b8ff" points="147.11,-169.7 139.29,-176.86 149.86,-176.14 147.11,-169.7"/>
</a>
</g>
</g>
<!-- Node3 -->
<g id="Node000003" class="node">
<title>Node3</title>
<g id="a_Node000003"><a xlink:href="structdi_1_1meta_1_1TypeConstant.html" target="_top" xlink:title=" ">
<polygon fill="white" stroke="#666666" points="155,-159 3,-159 3,-118 155,-118 155,-159"/>
<text text-anchor="start" x="11" y="-147" font-family="Helvetica,sans-Serif" font-size="10.00">di::meta::TypeConstant</text>
<text text-anchor="start" x="11" y="-136" font-family="Helvetica,sans-Serif" font-size="10.00">&lt; CustomCommonType&lt; T,</text>
<text text-anchor="middle" x="79" y="-125" font-family="Helvetica,sans-Serif" font-size="10.00"> U &gt;::Type &gt;</text>
</a>
</g>
</g>
<!-- Node3&#45;&gt;Node1 -->
<g id="edge2_Node000001_Node000003" class="edge">
<title>Node3&#45;&gt;Node1</title>
<g id="a_edge2_Node000001_Node000003"><a xlink:title=" ">
<path fill="none" stroke="#63b8ff" d="M165.11,-122.27C174.71,-120.44 184.4,-118.59 193.77,-116.8"/>
<polygon fill="#63b8ff" stroke="#63b8ff" points="164.33,-118.85 155.17,-124.16 165.64,-125.73 164.33,-118.85"/>
</a>
</g>
</g>
<!-- Node4 -->
<g id="Node000004" class="node">
<title>Node4</title>
<g id="a_Node000004"><a xlink:href="structdi_1_1meta_1_1TypeConstant.html" target="_top" xlink:title=" ">
<polygon fill="white" stroke="#666666" points="150.5,-100 7.5,-100 7.5,-37 150.5,-37 150.5,-100"/>
<text text-anchor="start" x="15.5" y="-88" font-family="Helvetica,sans-Serif" font-size="10.00">di::meta::TypeConstant</text>
<text text-anchor="start" x="15.5" y="-77" font-family="Helvetica,sans-Serif" font-size="10.00">&lt; meta::Decay&lt; decltype</text>
<text text-anchor="start" x="15.5" y="-66" font-family="Helvetica,sans-Serif" font-size="10.00">(false ? util::declval&lt;</text>
<text text-anchor="start" x="15.5" y="-55" font-family="Helvetica,sans-Serif" font-size="10.00"> T &gt;() :util::declval&lt; U</text>
<text text-anchor="middle" x="79" y="-44" font-family="Helvetica,sans-Serif" font-size="10.00"> &gt;())&gt; &gt;</text>
</a>
</g>
</g>
<!-- Node4&#45;&gt;Node1 -->
<g id="edge3_Node000001_Node000004" class="edge">
<title>Node4&#45;&gt;Node1</title>
<g id="a_edge3_Node000001_Node000004"><a xlink:title=" ">
<path fill="none" stroke="#63b8ff" d="M160.72,-83.9C171.73,-86 182.96,-88.14 193.76,-90.2"/>
<polygon fill="#63b8ff" stroke="#63b8ff" points="161.16,-80.42 150.68,-81.98 159.85,-87.29 161.16,-80.42"/>
</a>
</g>
</g>
<!-- Node5 -->
<g id="Node000005" class="node">
<title>Node5</title>
<g id="a_Node000005"><a xlink:href="structdi_1_1meta_1_1TypeConstant.html" target="_top" xlink:title=" ">
<polygon fill="white" stroke="#666666" points="158,-19 0,-19 0,0 158,0 158,-19"/>
<text text-anchor="middle" x="79" y="-7" font-family="Helvetica,sans-Serif" font-size="10.00">di::meta::TypeConstant&lt; T &gt;</text>
</a>
</g>
</g>
<!-- Node5&#45;&gt;Node1 -->
<g id="edge4_Node000001_Node000005" class="edge">
<title>Node5&#45;&gt;Node1</title>
<g id="a_edge4_Node000001_Node000005"><a xlink:title=" ">
<path fill="none" stroke="#63b8ff" d="M141.11,-22C146.92,-23.89 152.64,-26.05 158,-28.5 192.14,-44.09 226.63,-71.26 246.49,-88.26"/>
<polygon fill="#63b8ff" stroke="#63b8ff" points="141.88,-18.57 131.29,-19.05 139.86,-25.28 141.88,-18.57"/>
</a>
</g>
</g>
</g>
</svg>
