<?xml version="1.0" encoding="UTF-8" standalone="no"?>
<!DOCTYPE svg PUBLIC "-//W3C//DTD SVG 1.1//EN"
 "http://www.w3.org/Graphics/SVG/1.1/DTD/svg11.dtd">
<!-- Generated by graphviz version 2.43.0 (0)
 -->
<!-- Title: di::meta::detail::SimpleCommonReference&lt; T, U &gt; Pages: 1 -->
<svg width="466pt" height="271pt"
 viewBox="0.00 0.00 466.00 271.00" xmlns="http://www.w3.org/2000/svg" xmlns:xlink="http://www.w3.org/1999/xlink">
<g id="graph0" class="graph" transform="scale(1 1) rotate(0) translate(4 267)">
<title>di::meta::detail::SimpleCommonReference&lt; T, U &gt;</title>
<!-- Node1 -->
<g id="Node000001" class="node">
<title>Node1</title>
<g id="a_Node000001"><a xlink:title=" ">
<polygon fill="#999999" stroke="#666666" points="458,-97 306,-97 306,-67 458,-67 458,-97"/>
<text text-anchor="start" x="314" y="-85" font-family="Helvetica,sans-Serif" font-size="10.00">di::meta::detail::Simple</text>
<text text-anchor="middle" x="382" y="-74" font-family="Helvetica,sans-Serif" font-size="10.00">CommonReference&lt; T, U &gt;</text>
</a>
</g>
</g>
<!-- Node2 -->
<g id="Node000002" class="node">
<title>Node2</title>
<g id="a_Node000002"><a xlink:href="structdi_1_1meta_1_1TypeConstant.html" target="_top" xlink:title=" ">
<polygon fill="white" stroke="#666666" points="270,-263 0,-263 0,-145 270,-145 270,-263"/>
<text text-anchor="start" x="8" y="-251" font-family="Helvetica,sans-Serif" font-size="10.00">di::meta::TypeConstant</text>
<text text-anchor="start" x="8" y="-240" font-family="Helvetica,sans-Serif" font-size="10.00">&lt; decltype(false ? util</text>
<text text-anchor="start" x="8" y="-229" font-family="Helvetica,sans-Serif" font-size="10.00">::declval&lt; UnionCV&lt; meta</text>
<text text-anchor="start" x="8" y="-218" font-family="Helvetica,sans-Serif" font-size="10.00">::RemoveReference&lt; T &gt;, meta</text>
<text text-anchor="start" x="8" y="-207" font-family="Helvetica,sans-Serif" font-size="10.00">::RemoveReference&lt; U &gt;, meta</text>
<text text-anchor="start" x="8" y="-196" font-family="Helvetica,sans-Serif" font-size="10.00">::RemoveReference&lt; T &gt; &gt;::Type</text>
<text text-anchor="start" x="8" y="-185" font-family="Helvetica,sans-Serif" font-size="10.00"> &amp; &gt;() :util::declval&lt; UnionCV</text>
<text text-anchor="start" x="8" y="-174" font-family="Helvetica,sans-Serif" font-size="10.00">&lt; meta::RemoveReference&lt; T &gt;, meta</text>
<text text-anchor="start" x="8" y="-163" font-family="Helvetica,sans-Serif" font-size="10.00">::RemoveReference&lt; U &gt;, meta::RemoveReference</text>
<text text-anchor="middle" x="135" y="-152" font-family="Helvetica,sans-Serif" font-size="10.00">&lt; U &gt; &gt;::Type &amp; &gt;())&gt;</text>
</a>
</g>
</g>
<!-- Node2&#45;&gt;Node1 -->
<g id="edge1_Node000001_Node000002" class="edge">
<title>Node2&#45;&gt;Node1</title>
<g id="a_edge1_Node000001_Node000002"><a xlink:title=" ">
<path fill="none" stroke="#63b8ff" d="M263.75,-140.39C296.34,-124.16 328.43,-108.18 350.78,-97.05"/>
<polygon fill="#63b8ff" stroke="#63b8ff" points="261.94,-137.37 254.55,-144.97 265.06,-143.64 261.94,-137.37"/>
</a>
</g>
</g>
<!-- Node3 -->
<g id="Node000003" class="node">
<title>Node3</title>
<g id="a_Node000003"><a xlink:href="structdi_1_1meta_1_1TypeConstant.html" target="_top" xlink:title=" ">
<polygon fill="white" stroke="#666666" points="212.5,-126.5 57.5,-126.5 57.5,-85.5 212.5,-85.5 212.5,-126.5"/>
<text text-anchor="start" x="65.5" y="-114.5" font-family="Helvetica,sans-Serif" font-size="10.00">di::meta::TypeConstant</text>
<text text-anchor="start" x="65.5" y="-103.5" font-family="Helvetica,sans-Serif" font-size="10.00">&lt; SimpleCommonReference</text>
<text text-anchor="middle" x="135" y="-92.5" font-family="Helvetica,sans-Serif" font-size="10.00">&lt; T &amp;, U &amp; &gt;::Type &gt;</text>
</a>
</g>
</g>
<!-- Node3&#45;&gt;Node1 -->
<g id="edge2_Node000001_Node000003" class="edge">
<title>Node3&#45;&gt;Node1</title>
<g id="a_edge2_Node000001_Node000003"><a xlink:title=" ">
<path fill="none" stroke="#63b8ff" d="M222.78,-97.5C249.92,-94.84 279.64,-91.93 305.91,-89.36"/>
<polygon fill="#63b8ff" stroke="#63b8ff" points="222.12,-94.05 212.51,-98.5 222.81,-101.01 222.12,-94.05"/>
</a>
</g>
</g>
<!-- Node4 -->
<g id="Node000004" class="node">
<title>Node4</title>
<g id="a_Node000004"><a xlink:href="structdi_1_1meta_1_1TypeConstant.html" target="_top" xlink:title=" ">
<polygon fill="white" stroke="#666666" points="214,-67.5 56,-67.5 56,-48.5 214,-48.5 214,-67.5"/>
<text text-anchor="middle" x="135" y="-55.5" font-family="Helvetica,sans-Serif" font-size="10.00">di::meta::TypeConstant&lt; T &gt;</text>
</a>
</g>
</g>
<!-- Node4&#45;&gt;Node1 -->
<g id="edge3_Node000001_Node000004" class="edge">
<title>Node4&#45;&gt;Node1</title>
<g id="a_edge3_Node000001_Node000004"><a xlink:title=" ">
<path fill="none" stroke="#63b8ff" d="M224.28,-66.65C250.92,-69.26 279.92,-72.1 305.64,-74.62"/>
<polygon fill="#63b8ff" stroke="#63b8ff" points="224.49,-63.15 214.19,-65.66 223.8,-70.12 224.49,-63.15"/>
</a>
</g>
</g>
<!-- Node5 -->
<g id="Node000005" class="node">
<title>Node5</title>
<g id="a_Node000005"><a xlink:href="structdi_1_1meta_1_1detail_1_1SimpleCommonReference.html" target="_top" xlink:title=" ">
<polygon fill="white" stroke="#666666" points="211,-30 59,-30 59,0 211,0 211,-30"/>
<text text-anchor="start" x="67" y="-18" font-family="Helvetica,sans-Serif" font-size="10.00">di::meta::detail::Simple</text>
<text text-anchor="middle" x="135" y="-7" font-family="Helvetica,sans-Serif" font-size="10.00">CommonReference&lt; U, T &gt;</text>
</a>
</g>
</g>
<!-- Node5&#45;&gt;Node1 -->
<g id="edge4_Node000001_Node000005" class="edge">
<title>Node5&#45;&gt;Node1</title>
<g id="a_edge4_Node000001_Node000005"><a xlink:title=" ">
<path fill="none" stroke="#63b8ff" d="M221.36,-28.58C237.63,-31.83 254.43,-35.64 270,-40 295.99,-47.28 324.45,-58.11 346.04,-66.95"/>
<polygon fill="#63b8ff" stroke="#63b8ff" points="221.8,-25.1 211.31,-26.63 220.46,-31.97 221.8,-25.1"/>
</a>
</g>
</g>
</g>
</svg>
