<?xml version="1.0" encoding="UTF-8" standalone="no"?>
<!DOCTYPE svg PUBLIC "-//W3C//DTD SVG 1.1//EN"
 "http://www.w3.org/Graphics/SVG/1.1/DTD/svg11.dtd">
<!-- Generated by graphviz version 2.43.0 (0)
 -->
<!-- Title: di::types::InputIteratorTag Pages: 1 -->
<svg width="199pt" height="258pt"
 viewBox="0.00 0.00 199.00 258.00" xmlns="http://www.w3.org/2000/svg" xmlns:xlink="http://www.w3.org/1999/xlink">
<g id="graph0" class="graph" transform="scale(1 1) rotate(0) translate(4 254)">
<title>di::types::InputIteratorTag</title>
<!-- Node1 -->
<g id="Node000001" class="node">
<title>Node1</title>
<g id="a_Node000001"><a xlink:title=" ">
<polygon fill="#999999" stroke="#666666" points="166.5,-250 24.5,-250 24.5,-231 166.5,-231 166.5,-250"/>
<text text-anchor="middle" x="95.5" y="-238" font-family="Helvetica,sans-Serif" font-size="10.00">di::types::InputIteratorTag</text>
</a>
</g>
</g>
<!-- Node2 -->
<g id="Node000002" class="node">
<title>Node2</title>
<g id="a_Node000002"><a xlink:href="structdi_1_1types_1_1ForwardIteratorTag.html" target="_top" xlink:title=" ">
<polygon fill="white" stroke="#666666" points="173.5,-195 17.5,-195 17.5,-176 173.5,-176 173.5,-195"/>
<text text-anchor="middle" x="95.5" y="-183" font-family="Helvetica,sans-Serif" font-size="10.00">di::types::ForwardIteratorTag</text>
</a>
</g>
</g>
<!-- Node1&#45;&gt;Node2 -->
<g id="edge1_Node000001_Node000002" class="edge">
<title>Node1&#45;&gt;Node2</title>
<g id="a_edge1_Node000001_Node000002"><a xlink:title=" ">
<path fill="none" stroke="#63b8ff" d="M95.5,-220.66C95.5,-211.93 95.5,-201.99 95.5,-195.09"/>
<polygon fill="#63b8ff" stroke="#63b8ff" points="92,-220.75 95.5,-230.75 99,-220.75 92,-220.75"/>
</a>
</g>
</g>
<!-- Node3 -->
<g id="Node000003" class="node">
<title>Node3</title>
<g id="a_Node000003"><a xlink:href="structdi_1_1types_1_1BidirectionalIteratorTag.html" target="_top" xlink:title=" ">
<polygon fill="white" stroke="#666666" points="158.5,-140 32.5,-140 32.5,-110 158.5,-110 158.5,-140"/>
<text text-anchor="start" x="40.5" y="-128" font-family="Helvetica,sans-Serif" font-size="10.00">di::types::Bidirectional</text>
<text text-anchor="middle" x="95.5" y="-117" font-family="Helvetica,sans-Serif" font-size="10.00">IteratorTag</text>
</a>
</g>
</g>
<!-- Node2&#45;&gt;Node3 -->
<g id="edge2_Node000002_Node000003" class="edge">
<title>Node2&#45;&gt;Node3</title>
<g id="a_edge2_Node000002_Node000003"><a xlink:title=" ">
<path fill="none" stroke="#63b8ff" d="M95.5,-165.65C95.5,-157.36 95.5,-147.78 95.5,-140.11"/>
<polygon fill="#63b8ff" stroke="#63b8ff" points="92,-165.87 95.5,-175.87 99,-165.87 92,-165.87"/>
</a>
</g>
</g>
<!-- Node4 -->
<g id="Node000004" class="node">
<title>Node4</title>
<g id="a_Node000004"><a xlink:href="structdi_1_1types_1_1RandomAccessIteratorTag.html" target="_top" xlink:title=" ">
<polygon fill="white" stroke="#666666" points="191,-74 0,-74 0,-55 191,-55 191,-74"/>
<text text-anchor="middle" x="95.5" y="-62" font-family="Helvetica,sans-Serif" font-size="10.00">di::types::RandomAccessIteratorTag</text>
</a>
</g>
</g>
<!-- Node3&#45;&gt;Node4 -->
<g id="edge3_Node000003_Node000004" class="edge">
<title>Node3&#45;&gt;Node4</title>
<g id="a_edge3_Node000003_Node000004"><a xlink:title=" ">
<path fill="none" stroke="#63b8ff" d="M95.5,-99.75C95.5,-90.72 95.5,-81.03 95.5,-74.27"/>
<polygon fill="#63b8ff" stroke="#63b8ff" points="92,-99.84 95.5,-109.84 99,-99.84 92,-99.84"/>
</a>
</g>
</g>
<!-- Node5 -->
<g id="Node000005" class="node">
<title>Node5</title>
<g id="a_Node000005"><a xlink:href="structdi_1_1types_1_1ContiguousIteratorTag.html" target="_top" xlink:title=" ">
<polygon fill="white" stroke="#666666" points="181.5,-19 9.5,-19 9.5,0 181.5,0 181.5,-19"/>
<text text-anchor="middle" x="95.5" y="-7" font-family="Helvetica,sans-Serif" font-size="10.00">di::types::ContiguousIteratorTag</text>
</a>
</g>
</g>
<!-- Node4&#45;&gt;Node5 -->
<g id="edge4_Node000004_Node000005" class="edge">
<title>Node4&#45;&gt;Node5</title>
<g id="a_edge4_Node000004_Node000005"><a xlink:title=" ">
<path fill="none" stroke="#63b8ff" d="M95.5,-44.66C95.5,-35.93 95.5,-25.99 95.5,-19.09"/>
<polygon fill="#63b8ff" stroke="#63b8ff" points="92,-44.75 95.5,-54.75 99,-44.75 92,-44.75"/>
</a>
</g>
</g>
</g>
</svg>
