<?xml version="1.0" encoding="UTF-8" standalone="no"?>
<!DOCTYPE svg PUBLIC "-//W3C//DTD SVG 1.1//EN"
 "http://www.w3.org/Graphics/SVG/1.1/DTD/svg11.dtd">
<!-- Generated by graphviz version 2.43.0 (0)
 -->
<!-- Title: di::meta::detail::CommonErrorHelper&lt; T, U &gt; Pages: 1 -->
<svg width="353pt" height="182pt"
 viewBox="0.00 0.00 353.00 182.00" xmlns="http://www.w3.org/2000/svg" xmlns:xlink="http://www.w3.org/1999/xlink">
<g id="graph0" class="graph" transform="scale(1 1) rotate(0) translate(4 178)">
<title>di::meta::detail::CommonErrorHelper&lt; T, U &gt;</title>
<!-- Node1 -->
<g id="Node000001" class="node">
<title>Node1</title>
<g id="a_Node000001"><a xlink:title=" ">
<polygon fill="#999999" stroke="#666666" points="345,-102 204,-102 204,-72 345,-72 345,-102"/>
<text text-anchor="start" x="212" y="-90" font-family="Helvetica,sans-Serif" font-size="10.00">di::meta::detail::Common</text>
<text text-anchor="middle" x="274.5" y="-79" font-family="Helvetica,sans-Serif" font-size="10.00">ErrorHelper&lt; T, U &gt;</text>
</a>
</g>
</g>
<!-- Node2 -->
<g id="Node000002" class="node">
<title>Node2</title>
<g id="a_Node000002"><a xlink:href="structdi_1_1meta_1_1CustomCommonError.html" target="_top" xlink:title=" ">
<polygon fill="white" stroke="#666666" points="168,-174 0,-174 0,-144 168,-144 168,-174"/>
<text text-anchor="start" x="8" y="-162" font-family="Helvetica,sans-Serif" font-size="10.00">di::meta::CustomCommonError</text>
<text text-anchor="middle" x="84" y="-151" font-family="Helvetica,sans-Serif" font-size="10.00">&lt; T, U &gt;</text>
</a>
</g>
</g>
<!-- Node2&#45;&gt;Node1 -->
<g id="edge1_Node000001_Node000002" class="edge">
<title>Node2&#45;&gt;Node1</title>
<g id="a_edge1_Node000001_Node000002"><a xlink:title=" ">
<path fill="none" stroke="#63b8ff" d="M150.95,-140.89C156.75,-139.01 162.5,-137.03 168,-135 194.05,-125.37 222.67,-112.17 243.52,-102.05"/>
<polygon fill="#63b8ff" stroke="#63b8ff" points="149.66,-137.62 141.17,-143.96 151.76,-144.3 149.66,-137.62"/>
</a>
</g>
</g>
<!-- Node3 -->
<g id="Node000003" class="node">
<title>Node3</title>
<g id="a_Node000003"><a xlink:href="structdi_1_1meta_1_1TypeConstant.html" target="_top" xlink:title=" ">
<polygon fill="white" stroke="#666666" points="158,-126 10,-126 10,-96 158,-96 158,-126"/>
<text text-anchor="start" x="18" y="-114" font-family="Helvetica,sans-Serif" font-size="10.00">di::meta::TypeConstant</text>
<text text-anchor="middle" x="84" y="-103" font-family="Helvetica,sans-Serif" font-size="10.00">&lt; CommonType&lt; T, U &gt; &gt;</text>
</a>
</g>
</g>
<!-- Node3&#45;&gt;Node1 -->
<g id="edge2_Node000001_Node000003" class="edge">
<title>Node3&#45;&gt;Node1</title>
<g id="a_edge2_Node000001_Node000003"><a xlink:title=" ">
<path fill="none" stroke="#63b8ff" d="M168.09,-100.42C180.01,-98.9 192.17,-97.36 203.79,-95.88"/>
<polygon fill="#63b8ff" stroke="#63b8ff" points="167.63,-96.95 158.15,-101.69 168.51,-103.9 167.63,-96.95"/>
</a>
</g>
</g>
<!-- Node4 -->
<g id="Node000004" class="node">
<title>Node4</title>
<g id="a_Node000004"><a xlink:href="structdi_1_1meta_1_1TypeConstant.html" target="_top" xlink:title=" ">
<polygon fill="white" stroke="#666666" points="148.5,-78 19.5,-78 19.5,-48 148.5,-48 148.5,-78"/>
<text text-anchor="start" x="27.5" y="-66" font-family="Helvetica,sans-Serif" font-size="10.00">di::meta::TypeConstant</text>
<text text-anchor="middle" x="84" y="-55" font-family="Helvetica,sans-Serif" font-size="10.00">&lt; Error &gt;</text>
</a>
</g>
</g>
<!-- Node4&#45;&gt;Node1 -->
<g id="edge3_Node000001_Node000004" class="edge">
<title>Node4&#45;&gt;Node1</title>
<g id="a_edge3_Node000001_Node000004"><a xlink:title=" ">
<path fill="none" stroke="#63b8ff" d="M158.69,-72.38C173.52,-74.27 189.06,-76.25 203.75,-78.12"/>
<polygon fill="#63b8ff" stroke="#63b8ff" points="158.92,-68.88 148.55,-71.09 158.03,-75.83 158.92,-68.88"/>
</a>
</g>
</g>
<!-- Node5 -->
<g id="Node000005" class="node">
<title>Node5</title>
<g id="a_Node000005"><a xlink:href="structdi_1_1meta_1_1TypeConstant.html" target="_top" xlink:title=" ">
<polygon fill="white" stroke="#666666" points="148.5,-30 19.5,-30 19.5,0 148.5,0 148.5,-30"/>
<text text-anchor="start" x="27.5" y="-18" font-family="Helvetica,sans-Serif" font-size="10.00">di::meta::TypeConstant</text>
<text text-anchor="middle" x="84" y="-7" font-family="Helvetica,sans-Serif" font-size="10.00">&lt; Variant&lt; T, U &gt; &gt;</text>
</a>
</g>
</g>
<!-- Node5&#45;&gt;Node1 -->
<g id="edge4_Node000001_Node000005" class="edge">
<title>Node5&#45;&gt;Node1</title>
<g id="a_edge4_Node000001_Node000005"><a xlink:title=" ">
<path fill="none" stroke="#63b8ff" d="M150.95,-33.11C156.75,-34.99 162.5,-36.97 168,-39 194.05,-48.63 222.67,-61.83 243.52,-71.95"/>
<polygon fill="#63b8ff" stroke="#63b8ff" points="151.76,-29.7 141.17,-30.04 149.66,-36.38 151.76,-29.7"/>
</a>
</g>
</g>
</g>
</svg>
