<?xml version="1.0" encoding="UTF-8" standalone="no"?>
<!DOCTYPE svg PUBLIC "-//W3C//DTD SVG 1.1//EN"
 "http://www.w3.org/Graphics/SVG/1.1/DTD/svg11.dtd">
<!-- Generated by graphviz version 2.43.0 (0)
 -->
<!-- Title: di::meta::TypeConstant&lt; T &gt; Pages: 1 -->
<svg width="575pt" height="1986pt"
 viewBox="0.00 0.00 575.00 1986.00" xmlns="http://www.w3.org/2000/svg" xmlns:xlink="http://www.w3.org/1999/xlink">
<g id="graph0" class="graph" transform="scale(1 1) rotate(0) translate(4 1982)">
<title>di::meta::TypeConstant&lt; T &gt;</title>
<!-- Node1 -->
<g id="Node000001" class="node">
<title>Node1</title>
<g id="a_Node000001"><a xlink:title=" ">
<polygon fill="#999999" stroke="#666666" points="158,-998 0,-998 0,-979 158,-979 158,-998"/>
<text text-anchor="middle" x="79" y="-986" font-family="Helvetica,sans-Serif" font-size="10.00">di::meta::TypeConstant&lt; T &gt;</text>
</a>
</g>
</g>
<!-- Node2 -->
<g id="Node000002" class="node">
<title>Node2</title>
<g id="a_Node000002"><a xlink:href="structdi_1_1meta_1_1detail_1_1RemoveAllExtentsHelper.html" target="_top" xlink:title=" ">
<polygon fill="white" stroke="#666666" points="385,-1978 203,-1978 203,-1937 385,-1937 385,-1978"/>
<text text-anchor="start" x="211" y="-1966" font-family="Helvetica,sans-Serif" font-size="10.00">di::meta::detail::Remove</text>
<text text-anchor="start" x="211" y="-1955" font-family="Helvetica,sans-Serif" font-size="10.00">AllExtentsHelper&lt; RemoveExtent</text>
<text text-anchor="middle" x="294" y="-1944" font-family="Helvetica,sans-Serif" font-size="10.00">&lt; T &gt; &gt;</text>
</a>
</g>
</g>
<!-- Node1&#45;&gt;Node2 -->
<g id="edge1_Node000001_Node000002" class="edge">
<title>Node1&#45;&gt;Node2</title>
<g id="a_edge1_Node000001_Node000002"><a xlink:title=" ">
<path fill="none" stroke="#63b8ff" d="M79.69,-1008.04C78.13,-1128.97 75.52,-1774.85 194,-1922.5 198.56,-1928.19 204.12,-1932.95 210.24,-1936.94"/>
<polygon fill="#63b8ff" stroke="#63b8ff" points="83.19,-1008.06 79.83,-998.01 76.19,-1007.96 83.19,-1008.06"/>
</a>
</g>
</g>
<!-- Node3 -->
<g id="Node000003" class="node">
<title>Node3</title>
<g id="a_Node000003"><a xlink:href="structdi_1_1meta_1_1detail_1_1RemoveAllExtentsHelper_3_01T_01_4.html" target="_top" xlink:title=" ">
<polygon fill="white" stroke="#666666" points="567,-1947.5 430,-1947.5 430,-1917.5 567,-1917.5 567,-1947.5"/>
<text text-anchor="start" x="438" y="-1935.5" font-family="Helvetica,sans-Serif" font-size="10.00">di::meta::detail::Remove</text>
<text text-anchor="middle" x="498.5" y="-1924.5" font-family="Helvetica,sans-Serif" font-size="10.00">AllExtentsHelper&lt; T &gt;</text>
</a>
</g>
</g>
<!-- Node1&#45;&gt;Node3 -->
<g id="edge20_Node000001_Node000003" class="edge">
<title>Node1&#45;&gt;Node3</title>
<g id="a_edge20_Node000001_Node000003"><a xlink:title=" ">
<path fill="none" stroke="#63b8ff" d="M81.08,-1008.25C88.16,-1134.39 129.68,-1824.22 194,-1889.5 210.29,-1906.04 345.39,-1920.01 429.76,-1927.23"/>
<polygon fill="#63b8ff" stroke="#63b8ff" points="84.57,-1007.91 80.52,-998.12 77.58,-1008.3 84.57,-1007.91"/>
</a>
</g>
</g>
<!-- Node4 -->
<g id="Node000004" class="node">
<title>Node4</title>
<g id="a_Node000004"><a xlink:href="structdi_1_1concepts_1_1detail_1_1MonadValue_3_01Monad_3_01T_00_01Args_8_8_8_01_4_01_4.html" target="_top" xlink:title=" ">
<polygon fill="white" stroke="#666666" points="361.5,-1880 226.5,-1880 226.5,-1839 361.5,-1839 361.5,-1880"/>
<text text-anchor="start" x="234.5" y="-1868" font-family="Helvetica,sans-Serif" font-size="10.00">di::concepts::detail</text>
<text text-anchor="start" x="234.5" y="-1857" font-family="Helvetica,sans-Serif" font-size="10.00">::MonadValue&lt; Monad&lt;</text>
<text text-anchor="middle" x="294" y="-1846" font-family="Helvetica,sans-Serif" font-size="10.00"> T, Args... &gt; &gt;</text>
</a>
</g>
</g>
<!-- Node1&#45;&gt;Node4 -->
<g id="edge3_Node000001_Node000004" class="edge">
<title>Node1&#45;&gt;Node4</title>
<g id="a_edge3_Node000001_Node000004"><a xlink:title=" ">
<path fill="none" stroke="#63b8ff" d="M79.87,-1008.3C79.5,-1123.01 83.23,-1701.68 194,-1830.5 202.47,-1840.35 214.08,-1846.94 226.37,-1851.34"/>
<polygon fill="#63b8ff" stroke="#63b8ff" points="83.37,-1008.18 79.92,-998.16 76.37,-1008.14 83.37,-1008.18"/>
</a>
</g>
</g>
<!-- Node5 -->
<g id="Node000005" class="node">
<title>Node5</title>
<g id="a_Node000005"><a xlink:href="structdi_1_1execution_1_1connect__awaitable__ns_1_1CompletionSignatures.html" target="_top" xlink:title=" ">
<polygon fill="white" stroke="#666666" points="394,-1821 194,-1821 194,-1780 394,-1780 394,-1821"/>
<text text-anchor="start" x="202" y="-1809" font-family="Helvetica,sans-Serif" font-size="10.00">di::execution::connect</text>
<text text-anchor="start" x="202" y="-1798" font-family="Helvetica,sans-Serif" font-size="10.00">_awaitable_ns::CompletionSignatures</text>
<text text-anchor="middle" x="294" y="-1787" font-family="Helvetica,sans-Serif" font-size="10.00">&lt; Awaitable, Receiver, Result &gt;</text>
</a>
</g>
</g>
<!-- Node1&#45;&gt;Node5 -->
<g id="edge4_Node000001_Node000005" class="edge">
<title>Node1&#45;&gt;Node5</title>
<g id="a_edge4_Node000001_Node000005"><a xlink:title=" ">
<path fill="none" stroke="#63b8ff" d="M80.11,-1008.24C81.13,-1117.86 91.35,-1651.24 194,-1770.5 197.05,-1774.04 200.49,-1777.17 204.23,-1779.94"/>
<polygon fill="#63b8ff" stroke="#63b8ff" points="83.61,-1008.2 80.03,-998.23 76.61,-1008.25 83.61,-1008.2"/>
</a>
</g>
</g>
<!-- Node6 -->
<g id="Node000006" class="node">
<title>Node6</title>
<g id="a_Node000006"><a xlink:href="structdi_1_1meta_1_1detail_1_1AddLValueReferenceHelper.html" target="_top" xlink:title=" ">
<polygon fill="white" stroke="#666666" points="367.5,-1761.5 220.5,-1761.5 220.5,-1731.5 367.5,-1731.5 367.5,-1761.5"/>
<text text-anchor="start" x="228.5" y="-1749.5" font-family="Helvetica,sans-Serif" font-size="10.00">di::meta::detail::AddLValue</text>
<text text-anchor="middle" x="294" y="-1738.5" font-family="Helvetica,sans-Serif" font-size="10.00">ReferenceHelper&lt; T &gt;</text>
</a>
</g>
</g>
<!-- Node1&#45;&gt;Node6 -->
<g id="edge5_Node000001_Node000006" class="edge">
<title>Node1&#45;&gt;Node6</title>
<g id="a_edge5_Node000001_Node000006"><a xlink:title=" ">
<path fill="none" stroke="#63b8ff" d="M80.21,-1008.42C81.76,-1114.7 94.3,-1614.08 194,-1722.5 201.18,-1730.31 210.44,-1735.78 220.4,-1739.57"/>
<polygon fill="#63b8ff" stroke="#63b8ff" points="83.71,-1008.12 80.08,-998.17 76.71,-1008.21 83.71,-1008.12"/>
</a>
</g>
</g>
<!-- Node7 -->
<g id="Node000007" class="node">
<title>Node7</title>
<g id="a_Node000007"><a xlink:href="structdi_1_1meta_1_1detail_1_1AddPointerHelper.html" target="_top" xlink:title=" ">
<polygon fill="white" stroke="#666666" points="369,-1713.5 219,-1713.5 219,-1683.5 369,-1683.5 369,-1713.5"/>
<text text-anchor="start" x="227" y="-1701.5" font-family="Helvetica,sans-Serif" font-size="10.00">di::meta::detail::AddPointer</text>
<text text-anchor="middle" x="294" y="-1690.5" font-family="Helvetica,sans-Serif" font-size="10.00">Helper&lt; T &gt;</text>
</a>
</g>
</g>
<!-- Node1&#45;&gt;Node7 -->
<g id="edge6_Node000001_Node000007" class="edge">
<title>Node1&#45;&gt;Node7</title>
<g id="a_edge6_Node000001_Node000007"><a xlink:title=" ">
<path fill="none" stroke="#63b8ff" d="M80.44,-1008.07C83.12,-1109.43 100.42,-1573.81 194,-1674.5 200.86,-1681.88 209.58,-1687.17 218.98,-1690.93"/>
<polygon fill="#63b8ff" stroke="#63b8ff" points="83.94,-1007.92 80.19,-998.01 76.94,-1008.1 83.94,-1007.92"/>
</a>
</g>
</g>
<!-- Node8 -->
<g id="Node000008" class="node">
<title>Node8</title>
<g id="a_Node000008"><a xlink:href="structdi_1_1meta_1_1detail_1_1AddRValueReferenceHelper.html" target="_top" xlink:title=" ">
<polygon fill="white" stroke="#666666" points="368.5,-1665.5 219.5,-1665.5 219.5,-1635.5 368.5,-1635.5 368.5,-1665.5"/>
<text text-anchor="start" x="227.5" y="-1653.5" font-family="Helvetica,sans-Serif" font-size="10.00">di::meta::detail::AddRValue</text>
<text text-anchor="middle" x="294" y="-1642.5" font-family="Helvetica,sans-Serif" font-size="10.00">ReferenceHelper&lt; T &gt;</text>
</a>
</g>
</g>
<!-- Node1&#45;&gt;Node8 -->
<g id="edge7_Node000001_Node000008" class="edge">
<title>Node1&#45;&gt;Node8</title>
<g id="a_edge7_Node000001_Node000008"><a xlink:title=" ">
<path fill="none" stroke="#63b8ff" d="M80.72,-1008.52C84.68,-1106.43 106.76,-1533.77 194,-1626.5 200.91,-1633.84 209.65,-1639.1 219.06,-1642.85"/>
<polygon fill="#63b8ff" stroke="#63b8ff" points="84.21,-1008.12 80.33,-998.26 77.22,-1008.39 84.21,-1008.12"/>
</a>
</g>
</g>
<!-- Node9 -->
<g id="Node000009" class="node">
<title>Node9</title>
<g id="a_Node000009"><a xlink:href="structdi_1_1meta_1_1detail_1_1AtHelper_3_010_00_01T_00_01Rest_8_8_8_01_4.html" target="_top" xlink:title=" ">
<polygon fill="white" stroke="#666666" points="364,-1617.5 224,-1617.5 224,-1587.5 364,-1587.5 364,-1617.5"/>
<text text-anchor="start" x="232" y="-1605.5" font-family="Helvetica,sans-Serif" font-size="10.00">di::meta::detail::AtHelper</text>
<text text-anchor="middle" x="294" y="-1594.5" font-family="Helvetica,sans-Serif" font-size="10.00">&lt; 0, T, Rest... &gt;</text>
</a>
</g>
</g>
<!-- Node1&#45;&gt;Node9 -->
<g id="edge8_Node000001_Node000009" class="edge">
<title>Node1&#45;&gt;Node9</title>
<g id="a_edge8_Node000001_Node000009"><a xlink:title=" ">
<path fill="none" stroke="#63b8ff" d="M81.04,-1008.49C86.29,-1101.79 112.94,-1493.54 194,-1578.5 202.12,-1587.01 212.7,-1592.72 223.92,-1596.5"/>
<polygon fill="#63b8ff" stroke="#63b8ff" points="84.53,-1008.21 80.49,-998.41 77.54,-1008.59 84.53,-1008.21"/>
</a>
</g>
</g>
<!-- Node10 -->
<g id="Node000010" class="node">
<title>Node10</title>
<g id="a_Node000010"><a xlink:href="structdi_1_1meta_1_1detail_1_1BackHelper_3_01T_01_4.html" target="_top" xlink:title=" ">
<polygon fill="white" stroke="#666666" points="385,-1569 203,-1569 203,-1550 385,-1550 385,-1569"/>
<text text-anchor="middle" x="294" y="-1557" font-family="Helvetica,sans-Serif" font-size="10.00">di::meta::detail::BackHelper&lt; T &gt;</text>
</a>
</g>
</g>
<!-- Node1&#45;&gt;Node10 -->
<g id="edge9_Node000001_Node000010" class="edge">
<title>Node1&#45;&gt;Node10</title>
<g id="a_edge9_Node000001_Node000010"><a xlink:title=" ">
<path fill="none" stroke="#63b8ff" d="M81.23,-1008.4C87.16,-1098.07 115.9,-1463.49 194,-1540.5 197.74,-1544.19 201.96,-1547.27 206.5,-1549.84"/>
<polygon fill="#63b8ff" stroke="#63b8ff" points="84.71,-1008 80.57,-998.25 77.72,-1008.45 84.71,-1008"/>
</a>
</g>
</g>
<!-- Node11 -->
<g id="Node000011" class="node">
<title>Node11</title>
<g id="a_Node000011"><a xlink:href="structdi_1_1meta_1_1detail_1_1CommonReferenceHelper_3_01T_01_4.html" target="_top" xlink:title=" ">
<polygon fill="white" stroke="#666666" points="364.5,-1531.5 223.5,-1531.5 223.5,-1501.5 364.5,-1501.5 364.5,-1531.5"/>
<text text-anchor="start" x="231.5" y="-1519.5" font-family="Helvetica,sans-Serif" font-size="10.00">di::meta::detail::Common</text>
<text text-anchor="middle" x="294" y="-1508.5" font-family="Helvetica,sans-Serif" font-size="10.00">ReferenceHelper&lt; T &gt;</text>
</a>
</g>
</g>
<!-- Node1&#45;&gt;Node11 -->
<g id="edge10_Node000001_Node000011" class="edge">
<title>Node1&#45;&gt;Node11</title>
<g id="a_edge10_Node000001_Node000011"><a xlink:title=" ">
<path fill="none" stroke="#63b8ff" d="M81.72,-1008.18C89.48,-1092.39 123.89,-1421.3 194,-1492.5 202.07,-1500.69 212.42,-1506.27 223.38,-1510.03"/>
<polygon fill="#63b8ff" stroke="#63b8ff" points="85.2,-1007.82 80.82,-998.17 78.23,-1008.44 85.2,-1007.82"/>
</a>
</g>
</g>
<!-- Node12 -->
<g id="Node000012" class="node">
<title>Node12</title>
<g id="a_Node000012"><a xlink:href="structdi_1_1meta_1_1detail_1_1CommonTypeHelper_3_01T_00_01U_01_4.html" target="_top" xlink:title=" ">
<polygon fill="white" stroke="#666666" points="364.5,-1483.5 223.5,-1483.5 223.5,-1453.5 364.5,-1453.5 364.5,-1483.5"/>
<text text-anchor="start" x="231.5" y="-1471.5" font-family="Helvetica,sans-Serif" font-size="10.00">di::meta::detail::Common</text>
<text text-anchor="middle" x="294" y="-1460.5" font-family="Helvetica,sans-Serif" font-size="10.00">TypeHelper&lt; T, U &gt;</text>
</a>
</g>
</g>
<!-- Node1&#45;&gt;Node12 -->
<g id="edge11_Node000001_Node000012" class="edge">
<title>Node1&#45;&gt;Node12</title>
<g id="a_edge11_Node000001_Node000012"><a xlink:title=" ">
<path fill="none" stroke="#63b8ff" d="M82.21,-1008.04C91.5,-1086.96 129.98,-1380.93 194,-1444.5 202.09,-1452.54 212.4,-1458.05 223.28,-1461.79"/>
<polygon fill="#63b8ff" stroke="#63b8ff" points="85.67,-1007.55 81.05,-998.01 78.72,-1008.35 85.67,-1007.55"/>
</a>
</g>
</g>
<!-- Node13 -->
<g id="Node000013" class="node">
<title>Node13</title>
<g id="a_Node000013"><a xlink:href="structdi_1_1meta_1_1detail_1_1CompareThreeWayResultHelper_3_01T_00_01U_01_4.html" target="_top" xlink:title=" ">
<polygon fill="white" stroke="#666666" points="379,-1435.5 209,-1435.5 209,-1405.5 379,-1405.5 379,-1435.5"/>
<text text-anchor="start" x="217" y="-1423.5" font-family="Helvetica,sans-Serif" font-size="10.00">di::meta::detail::Compare</text>
<text text-anchor="middle" x="294" y="-1412.5" font-family="Helvetica,sans-Serif" font-size="10.00">ThreeWayResultHelper&lt; T, U &gt;</text>
</a>
</g>
</g>
<!-- Node1&#45;&gt;Node13 -->
<g id="edge12_Node000001_Node000013" class="edge">
<title>Node1&#45;&gt;Node13</title>
<g id="a_edge12_Node000001_Node000013"><a xlink:title=" ">
<path fill="none" stroke="#63b8ff" d="M82.86,-1008.31C93.91,-1082.23 136.13,-1340.6 194,-1396.5 198.45,-1400.8 203.54,-1404.37 209,-1407.34"/>
<polygon fill="#63b8ff" stroke="#63b8ff" points="86.27,-1007.47 81.35,-998.09 79.35,-1008.49 86.27,-1007.47"/>
</a>
</g>
</g>
<!-- Node14 -->
<g id="Node000014" class="node">
<title>Node14</title>
<g id="a_Node000014"><a xlink:href="structdi_1_1meta_1_1detail_1_1ConcatHelper_3_01T_01_4.html" target="_top" xlink:title=" ">
<polygon fill="white" stroke="#666666" points="359.5,-1387.5 228.5,-1387.5 228.5,-1357.5 359.5,-1357.5 359.5,-1387.5"/>
<text text-anchor="start" x="236.5" y="-1375.5" font-family="Helvetica,sans-Serif" font-size="10.00">di::meta::detail::Concat</text>
<text text-anchor="middle" x="294" y="-1364.5" font-family="Helvetica,sans-Serif" font-size="10.00">Helper&lt; T &gt;</text>
</a>
</g>
</g>
<!-- Node1&#45;&gt;Node14 -->
<g id="edge13_Node000001_Node000014" class="edge">
<title>Node1&#45;&gt;Node14</title>
<g id="a_edge13_Node000001_Node000014"><a xlink:title=" ">
<path fill="none" stroke="#63b8ff" d="M79.94,-1008.07C80.86,-1068.46 92.25,-1253.52 194,-1348.5 203.5,-1357.37 215.71,-1363.12 228.28,-1366.82"/>
<polygon fill="#63b8ff" stroke="#63b8ff" points="83.44,-1007.98 79.87,-998.01 76.44,-1008.03 83.44,-1007.98"/>
</a>
</g>
</g>
<!-- Node15 -->
<g id="Node000015" class="node">
<title>Node15</title>
<g id="a_Node000015"><a xlink:href="structdi_1_1meta_1_1detail_1_1ConditionalHelper.html" target="_top" xlink:title=" ">
<polygon fill="white" stroke="#666666" points="370,-1339.5 218,-1339.5 218,-1309.5 370,-1309.5 370,-1339.5"/>
<text text-anchor="start" x="226" y="-1327.5" font-family="Helvetica,sans-Serif" font-size="10.00">di::meta::detail::Conditional</text>
<text text-anchor="middle" x="294" y="-1316.5" font-family="Helvetica,sans-Serif" font-size="10.00">Helper&lt; value, T, U &gt;</text>
</a>
</g>
</g>
<!-- Node1&#45;&gt;Node15 -->
<g id="edge14_Node000001_Node000015" class="edge">
<title>Node1&#45;&gt;Node15</title>
<g id="a_edge14_Node000001_Node000015"><a xlink:title=" ">
<path fill="none" stroke="#63b8ff" d="M81.05,-1008.34C85.08,-1063.57 104.26,-1220.33 194,-1300.5 200.92,-1306.69 209.17,-1311.34 217.91,-1314.84"/>
<polygon fill="#63b8ff" stroke="#63b8ff" points="84.53,-1007.91 80.4,-998.16 77.54,-1008.36 84.53,-1007.91"/>
</a>
</g>
</g>
<!-- Node16 -->
<g id="Node000016" class="node">
<title>Node16</title>
<g id="a_Node000016"><a xlink:href="structdi_1_1meta_1_1detail_1_1LikeHelper_3_01T_01const_01_6_6_00_01U_01_4.html" target="_top" xlink:title=" ">
<polygon fill="white" stroke="#666666" points="368.5,-1291.5 219.5,-1291.5 219.5,-1261.5 368.5,-1261.5 368.5,-1291.5"/>
<text text-anchor="start" x="227.5" y="-1279.5" font-family="Helvetica,sans-Serif" font-size="10.00">di::meta::detail::LikeHelper</text>
<text text-anchor="middle" x="294" y="-1268.5" font-family="Helvetica,sans-Serif" font-size="10.00">&lt; T const &amp;&amp;, U &gt;</text>
</a>
</g>
</g>
<!-- Node1&#45;&gt;Node16 -->
<g id="edge15_Node000001_Node000016" class="edge">
<title>Node1&#45;&gt;Node16</title>
<g id="a_edge15_Node000001_Node000016"><a xlink:title=" ">
<path fill="none" stroke="#63b8ff" d="M82.5,-1008.22C89.83,-1057.47 115.92,-1186.67 194,-1252.5 201.44,-1258.77 210.25,-1263.45 219.5,-1266.94"/>
<polygon fill="#63b8ff" stroke="#63b8ff" points="85.96,-1007.65 81.11,-998.23 79.02,-1008.61 85.96,-1007.65"/>
</a>
</g>
</g>
<!-- Node17 -->
<g id="Node000017" class="node">
<title>Node17</title>
<g id="a_Node000017"><a xlink:href="structdi_1_1meta_1_1detail_1_1LikeHelper_3_01T_01const_01_6_00_01U_01_4.html" target="_top" xlink:title=" ">
<polygon fill="white" stroke="#666666" points="368.5,-1243.5 219.5,-1243.5 219.5,-1213.5 368.5,-1213.5 368.5,-1243.5"/>
<text text-anchor="start" x="227.5" y="-1231.5" font-family="Helvetica,sans-Serif" font-size="10.00">di::meta::detail::LikeHelper</text>
<text text-anchor="middle" x="294" y="-1220.5" font-family="Helvetica,sans-Serif" font-size="10.00">&lt; T const &amp;, U &gt;</text>
</a>
</g>
</g>
<!-- Node1&#45;&gt;Node17 -->
<g id="edge16_Node000001_Node000017" class="edge">
<title>Node1&#45;&gt;Node17</title>
<g id="a_edge16_Node000001_Node000017"><a xlink:title=" ">
<path fill="none" stroke="#63b8ff" d="M84.5,-1008.02C95.4,-1050.69 127.35,-1152.61 194,-1204.5 201.54,-1210.37 210.3,-1214.83 219.43,-1218.21"/>
<polygon fill="#63b8ff" stroke="#63b8ff" points="87.85,-1006.96 82.08,-998.08 81.05,-1008.62 87.85,-1006.96"/>
</a>
</g>
</g>
<!-- Node18 -->
<g id="Node000018" class="node">
<title>Node18</title>
<g id="a_Node000018"><a xlink:href="structdi_1_1meta_1_1detail_1_1LikeHelper_3_01T_01const_00_01U_01_4.html" target="_top" xlink:title=" ">
<polygon fill="white" stroke="#666666" points="368.5,-1195.5 219.5,-1195.5 219.5,-1165.5 368.5,-1165.5 368.5,-1195.5"/>
<text text-anchor="start" x="227.5" y="-1183.5" font-family="Helvetica,sans-Serif" font-size="10.00">di::meta::detail::LikeHelper</text>
<text text-anchor="middle" x="294" y="-1172.5" font-family="Helvetica,sans-Serif" font-size="10.00">&lt; T const, U &gt;</text>
</a>
</g>
</g>
<!-- Node1&#45;&gt;Node18 -->
<g id="edge17_Node000001_Node000018" class="edge">
<title>Node1&#45;&gt;Node18</title>
<g id="a_edge17_Node000001_Node000018"><a xlink:title=" ">
<path fill="none" stroke="#63b8ff" d="M87.56,-1007.95C102.36,-1043.33 138.61,-1118.1 194,-1156.5 201.63,-1161.79 210.29,-1165.92 219.25,-1169.14"/>
<polygon fill="#63b8ff" stroke="#63b8ff" points="90.66,-1006.27 83.66,-998.32 84.17,-1008.9 90.66,-1006.27"/>
</a>
</g>
</g>
<!-- Node19 -->
<g id="Node000019" class="node">
<title>Node19</title>
<g id="a_Node000019"><a xlink:href="structdi_1_1meta_1_1detail_1_1MakeSignedHelper_3_01T_01_4.html" target="_top" xlink:title=" ">
<polygon fill="white" stroke="#666666" points="372,-1147.5 216,-1147.5 216,-1117.5 372,-1117.5 372,-1147.5"/>
<text text-anchor="start" x="224" y="-1135.5" font-family="Helvetica,sans-Serif" font-size="10.00">di::meta::detail::MakeSigned</text>
<text text-anchor="middle" x="294" y="-1124.5" font-family="Helvetica,sans-Serif" font-size="10.00">Helper&lt; T &gt;</text>
</a>
</g>
</g>
<!-- Node1&#45;&gt;Node19 -->
<g id="edge18_Node000001_Node000019" class="edge">
<title>Node1&#45;&gt;Node19</title>
<g id="a_edge18_Node000001_Node000019"><a xlink:title=" ">
<path fill="none" stroke="#63b8ff" d="M91.85,-1006.4C110.38,-1032.93 148.83,-1082.37 194,-1108.5 200.81,-1112.44 208.25,-1115.74 215.88,-1118.49"/>
<polygon fill="#63b8ff" stroke="#63b8ff" points="94.67,-1004.33 86.14,-998.04 88.89,-1008.28 94.67,-1004.33"/>
</a>
</g>
</g>
<!-- Node20 -->
<g id="Node000020" class="node">
<title>Node20</title>
<g id="a_Node000020"><a xlink:href="structdi_1_1meta_1_1detail_1_1MakeUnsignedHelper_3_01T_01_4.html" target="_top" xlink:title=" ">
<polygon fill="white" stroke="#666666" points="378.5,-1099.5 209.5,-1099.5 209.5,-1069.5 378.5,-1069.5 378.5,-1099.5"/>
<text text-anchor="start" x="217.5" y="-1087.5" font-family="Helvetica,sans-Serif" font-size="10.00">di::meta::detail::MakeUnsigned</text>
<text text-anchor="middle" x="294" y="-1076.5" font-family="Helvetica,sans-Serif" font-size="10.00">Helper&lt; T &gt;</text>
</a>
</g>
</g>
<!-- Node1&#45;&gt;Node20 -->
<g id="edge19_Node000001_Node000020" class="edge">
<title>Node1&#45;&gt;Node20</title>
<g id="a_edge19_Node000001_Node000020"><a xlink:title=" ">
<path fill="none" stroke="#63b8ff" d="M100.46,-1004.33C122.44,-1020.62 158.95,-1045.66 194,-1060.5 201.98,-1063.88 210.53,-1066.84 219.14,-1069.43"/>
<polygon fill="#63b8ff" stroke="#63b8ff" points="102.33,-1001.37 92.24,-998.15 98.12,-1006.96 102.33,-1001.37"/>
</a>
</g>
</g>
<!-- Node21 -->
<g id="Node000021" class="node">
<title>Node21</title>
<g id="a_Node000021"><a xlink:href="structdi_1_1meta_1_1detail_1_1RemoveConstHelper.html" target="_top" xlink:title=" ">
<polygon fill="white" stroke="#666666" points="362.5,-1051.5 225.5,-1051.5 225.5,-1021.5 362.5,-1021.5 362.5,-1051.5"/>
<text text-anchor="start" x="233.5" y="-1039.5" font-family="Helvetica,sans-Serif" font-size="10.00">di::meta::detail::Remove</text>
<text text-anchor="middle" x="294" y="-1028.5" font-family="Helvetica,sans-Serif" font-size="10.00">ConstHelper&lt; T &gt;</text>
</a>
</g>
</g>
<!-- Node1&#45;&gt;Node21 -->
<g id="edge21_Node000001_Node000021" class="edge">
<title>Node1&#45;&gt;Node21</title>
<g id="a_edge21_Node000001_Node000021"><a xlink:title=" ">
<path fill="none" stroke="#63b8ff" d="M132.45,-1000.32C160.81,-1006.71 196.14,-1014.67 226.42,-1021.5"/>
<polygon fill="#63b8ff" stroke="#63b8ff" points="132.86,-996.82 122.34,-998.04 131.32,-1003.65 132.86,-996.82"/>
</a>
</g>
</g>
<!-- Node22 -->
<g id="Node000022" class="node">
<title>Node22</title>
<g id="a_Node000022"><a xlink:href="structdi_1_1meta_1_1detail_1_1RemoveConstHelper_3_01T_01const_01_4.html" target="_top" xlink:title=" ">
<polygon fill="white" stroke="#666666" points="362.5,-1003.5 225.5,-1003.5 225.5,-973.5 362.5,-973.5 362.5,-1003.5"/>
<text text-anchor="start" x="233.5" y="-991.5" font-family="Helvetica,sans-Serif" font-size="10.00">di::meta::detail::Remove</text>
<text text-anchor="middle" x="294" y="-980.5" font-family="Helvetica,sans-Serif" font-size="10.00">ConstHelper&lt; T const &gt;</text>
</a>
</g>
</g>
<!-- Node1&#45;&gt;Node22 -->
<g id="edge22_Node000001_Node000022" class="edge">
<title>Node1&#45;&gt;Node22</title>
<g id="a_edge22_Node000001_Node000022"><a xlink:title=" ">
<path fill="none" stroke="#63b8ff" d="M168.3,-988.5C187.4,-988.5 207.29,-988.5 225.44,-988.5"/>
<polygon fill="#63b8ff" stroke="#63b8ff" points="168.1,-985 158.1,-988.5 168.1,-992 168.1,-985"/>
</a>
</g>
</g>
<!-- Node23 -->
<g id="Node000023" class="node">
<title>Node23</title>
<g id="a_Node000023"><a xlink:href="structdi_1_1meta_1_1detail_1_1RemoveExtentHelper.html" target="_top" xlink:title=" ">
<polygon fill="white" stroke="#666666" points="362.5,-955.5 225.5,-955.5 225.5,-925.5 362.5,-925.5 362.5,-955.5"/>
<text text-anchor="start" x="233.5" y="-943.5" font-family="Helvetica,sans-Serif" font-size="10.00">di::meta::detail::Remove</text>
<text text-anchor="middle" x="294" y="-932.5" font-family="Helvetica,sans-Serif" font-size="10.00">ExtentHelper&lt; T &gt;</text>
</a>
</g>
</g>
<!-- Node1&#45;&gt;Node23 -->
<g id="edge23_Node000001_Node000023" class="edge">
<title>Node1&#45;&gt;Node23</title>
<g id="a_edge23_Node000001_Node000023"><a xlink:title=" ">
<path fill="none" stroke="#63b8ff" d="M132.45,-976.68C160.81,-970.29 196.14,-962.33 226.42,-955.5"/>
<polygon fill="#63b8ff" stroke="#63b8ff" points="131.32,-973.35 122.34,-978.96 132.86,-980.18 131.32,-973.35"/>
</a>
</g>
</g>
<!-- Node24 -->
<g id="Node000024" class="node">
<title>Node24</title>
<g id="a_Node000024"><a xlink:href="structdi_1_1meta_1_1detail_1_1RemoveExtentHelper_3_01T_0fN_0e_4.html" target="_top" xlink:title=" ">
<polygon fill="white" stroke="#666666" points="362.5,-907.5 225.5,-907.5 225.5,-877.5 362.5,-877.5 362.5,-907.5"/>
<text text-anchor="start" x="233.5" y="-895.5" font-family="Helvetica,sans-Serif" font-size="10.00">di::meta::detail::Remove</text>
<text text-anchor="middle" x="294" y="-884.5" font-family="Helvetica,sans-Serif" font-size="10.00">ExtentHelper&lt; T[N]&gt;</text>
</a>
</g>
</g>
<!-- Node1&#45;&gt;Node24 -->
<g id="edge24_Node000001_Node000024" class="edge">
<title>Node1&#45;&gt;Node24</title>
<g id="a_edge24_Node000001_Node000024"><a xlink:title=" ">
<path fill="none" stroke="#63b8ff" d="M100.46,-972.67C122.44,-956.38 158.95,-931.34 194,-916.5 203.93,-912.29 214.75,-908.73 225.48,-905.74"/>
<polygon fill="#63b8ff" stroke="#63b8ff" points="98.12,-970.04 92.24,-978.85 102.33,-975.63 98.12,-970.04"/>
</a>
</g>
</g>
<!-- Node25 -->
<g id="Node000025" class="node">
<title>Node25</title>
<g id="a_Node000025"><a xlink:href="structdi_1_1meta_1_1detail_1_1RemoveExtentHelper_3_01T_0f_0e_4.html" target="_top" xlink:title=" ">
<polygon fill="white" stroke="#666666" points="362.5,-859.5 225.5,-859.5 225.5,-829.5 362.5,-829.5 362.5,-859.5"/>
<text text-anchor="start" x="233.5" y="-847.5" font-family="Helvetica,sans-Serif" font-size="10.00">di::meta::detail::Remove</text>
<text text-anchor="middle" x="294" y="-836.5" font-family="Helvetica,sans-Serif" font-size="10.00">ExtentHelper&lt; T[]&gt;</text>
</a>
</g>
</g>
<!-- Node1&#45;&gt;Node25 -->
<g id="edge25_Node000001_Node000025" class="edge">
<title>Node1&#45;&gt;Node25</title>
<g id="a_edge25_Node000001_Node000025"><a xlink:title=" ">
<path fill="none" stroke="#63b8ff" d="M91.85,-970.6C110.38,-944.07 148.83,-894.63 194,-868.5 203.64,-862.92 214.54,-858.63 225.48,-855.34"/>
<polygon fill="#63b8ff" stroke="#63b8ff" points="88.89,-968.72 86.14,-978.96 94.67,-972.67 88.89,-968.72"/>
</a>
</g>
</g>
<!-- Node26 -->
<g id="Node000026" class="node">
<title>Node26</title>
<g id="a_Node000026"><a xlink:href="structdi_1_1meta_1_1detail_1_1RemovePointerHelper.html" target="_top" xlink:title=" ">
<polygon fill="white" stroke="#666666" points="362.5,-811.5 225.5,-811.5 225.5,-781.5 362.5,-781.5 362.5,-811.5"/>
<text text-anchor="start" x="233.5" y="-799.5" font-family="Helvetica,sans-Serif" font-size="10.00">di::meta::detail::Remove</text>
<text text-anchor="middle" x="294" y="-788.5" font-family="Helvetica,sans-Serif" font-size="10.00">PointerHelper&lt; T &gt;</text>
</a>
</g>
</g>
<!-- Node1&#45;&gt;Node26 -->
<g id="edge26_Node000001_Node000026" class="edge">
<title>Node1&#45;&gt;Node26</title>
<g id="a_edge26_Node000001_Node000026"><a xlink:title=" ">
<path fill="none" stroke="#63b8ff" d="M87.56,-969.05C102.36,-933.67 138.61,-858.9 194,-820.5 203.37,-814 214.31,-809.25 225.42,-805.79"/>
<polygon fill="#63b8ff" stroke="#63b8ff" points="84.17,-968.1 83.66,-978.68 90.66,-970.73 84.17,-968.1"/>
</a>
</g>
</g>
<!-- Node27 -->
<g id="Node000027" class="node">
<title>Node27</title>
<g id="a_Node000027"><a xlink:href="structdi_1_1meta_1_1detail_1_1RemovePointerHelper_3_01T_01_5_01_4.html" target="_top" xlink:title=" ">
<polygon fill="white" stroke="#666666" points="362.5,-763.5 225.5,-763.5 225.5,-733.5 362.5,-733.5 362.5,-763.5"/>
<text text-anchor="start" x="233.5" y="-751.5" font-family="Helvetica,sans-Serif" font-size="10.00">di::meta::detail::Remove</text>
<text text-anchor="middle" x="294" y="-740.5" font-family="Helvetica,sans-Serif" font-size="10.00">PointerHelper&lt; T * &gt;</text>
</a>
</g>
</g>
<!-- Node1&#45;&gt;Node27 -->
<g id="edge27_Node000001_Node000027" class="edge">
<title>Node1&#45;&gt;Node27</title>
<g id="a_edge27_Node000001_Node000027"><a xlink:title=" ">
<path fill="none" stroke="#63b8ff" d="M84.5,-968.98C95.4,-926.31 127.35,-824.39 194,-772.5 203.14,-765.38 214.08,-760.34 225.31,-756.77"/>
<polygon fill="#63b8ff" stroke="#63b8ff" points="81.05,-968.38 82.08,-978.92 87.85,-970.04 81.05,-968.38"/>
</a>
</g>
</g>
<!-- Node28 -->
<g id="Node000028" class="node">
<title>Node28</title>
<g id="a_Node000028"><a xlink:href="structdi_1_1meta_1_1detail_1_1RemovePointerHelper_3_01T_01_5const_01_4.html" target="_top" xlink:title=" ">
<polygon fill="white" stroke="#666666" points="367,-715.5 221,-715.5 221,-685.5 367,-685.5 367,-715.5"/>
<text text-anchor="start" x="229" y="-703.5" font-family="Helvetica,sans-Serif" font-size="10.00">di::meta::detail::Remove</text>
<text text-anchor="middle" x="294" y="-692.5" font-family="Helvetica,sans-Serif" font-size="10.00">PointerHelper&lt; T *const &gt;</text>
</a>
</g>
</g>
<!-- Node1&#45;&gt;Node28 -->
<g id="edge28_Node000001_Node000028" class="edge">
<title>Node1&#45;&gt;Node28</title>
<g id="a_edge28_Node000001_Node000028"><a xlink:title=" ">
<path fill="none" stroke="#63b8ff" d="M82.5,-968.78C89.83,-919.53 115.92,-790.33 194,-724.5 201.77,-717.95 211.05,-713.12 220.76,-709.59"/>
<polygon fill="#63b8ff" stroke="#63b8ff" points="79.02,-968.39 81.11,-978.77 85.96,-969.35 79.02,-968.39"/>
</a>
</g>
</g>
<!-- Node29 -->
<g id="Node000029" class="node">
<title>Node29</title>
<g id="a_Node000029"><a xlink:href="structdi_1_1meta_1_1detail_1_1RemovePointerHelper_3_01T_01_5const_01volatile_01_4.html" target="_top" xlink:title=" ">
<polygon fill="white" stroke="#666666" points="362.5,-667 225.5,-667 225.5,-626 362.5,-626 362.5,-667"/>
<text text-anchor="start" x="233.5" y="-655" font-family="Helvetica,sans-Serif" font-size="10.00">di::meta::detail::Remove</text>
<text text-anchor="start" x="233.5" y="-644" font-family="Helvetica,sans-Serif" font-size="10.00">PointerHelper&lt; T *const</text>
<text text-anchor="middle" x="294" y="-633" font-family="Helvetica,sans-Serif" font-size="10.00"> volatile &gt;</text>
</a>
</g>
</g>
<!-- Node1&#45;&gt;Node29 -->
<g id="edge29_Node000001_Node000029" class="edge">
<title>Node1&#45;&gt;Node29</title>
<g id="a_edge29_Node000001_Node000029"><a xlink:title=" ">
<path fill="none" stroke="#63b8ff" d="M81.28,-968.92C85.93,-914.35 106.56,-759.17 194,-676.5 202.81,-668.17 213.86,-662.15 225.35,-657.8"/>
<polygon fill="#63b8ff" stroke="#63b8ff" points="77.79,-968.74 80.52,-978.97 84.77,-969.27 77.79,-968.74"/>
</a>
</g>
</g>
<!-- Node30 -->
<g id="Node000030" class="node">
<title>Node30</title>
<g id="a_Node000030"><a xlink:href="structdi_1_1meta_1_1detail_1_1RemovePointerHelper_3_01T_01_5volatile_01_4.html" target="_top" xlink:title=" ">
<polygon fill="white" stroke="#666666" points="372.5,-607.5 215.5,-607.5 215.5,-577.5 372.5,-577.5 372.5,-607.5"/>
<text text-anchor="start" x="223.5" y="-595.5" font-family="Helvetica,sans-Serif" font-size="10.00">di::meta::detail::Remove</text>
<text text-anchor="middle" x="294" y="-584.5" font-family="Helvetica,sans-Serif" font-size="10.00">PointerHelper&lt; T *volatile &gt;</text>
</a>
</g>
</g>
<!-- Node1&#45;&gt;Node30 -->
<g id="edge30_Node000001_Node000030" class="edge">
<title>Node1&#45;&gt;Node30</title>
<g id="a_edge30_Node000001_Node000030"><a xlink:title=" ">
<path fill="none" stroke="#63b8ff" d="M79.77,-968.39C80.2,-906.33 90.3,-716.06 194,-617.5 200.17,-611.64 207.5,-607.1 215.35,-603.58"/>
<polygon fill="#63b8ff" stroke="#63b8ff" points="76.27,-968.74 79.78,-978.73 83.27,-968.73 76.27,-968.74"/>
</a>
</g>
</g>
<!-- Node31 -->
<g id="Node000031" class="node">
<title>Node31</title>
<g id="a_Node000031"><a xlink:href="structdi_1_1meta_1_1detail_1_1RemoveReferenceHelper.html" target="_top" xlink:title=" ">
<polygon fill="white" stroke="#666666" points="362.5,-559.5 225.5,-559.5 225.5,-529.5 362.5,-529.5 362.5,-559.5"/>
<text text-anchor="start" x="233.5" y="-547.5" font-family="Helvetica,sans-Serif" font-size="10.00">di::meta::detail::Remove</text>
<text text-anchor="middle" x="294" y="-536.5" font-family="Helvetica,sans-Serif" font-size="10.00">ReferenceHelper&lt; T &gt;</text>
</a>
</g>
</g>
<!-- Node1&#45;&gt;Node31 -->
<g id="edge31_Node000001_Node000031" class="edge">
<title>Node1&#45;&gt;Node31</title>
<g id="a_edge31_Node000001_Node000031"><a xlink:title=" ">
<path fill="none" stroke="#63b8ff" d="M82.7,-968.59C93.34,-893.14 134.64,-626.26 194,-568.5 202.68,-560.05 213.81,-554.41 225.44,-550.67"/>
<polygon fill="#63b8ff" stroke="#63b8ff" points="79.22,-968.25 81.31,-978.64 86.15,-969.21 79.22,-968.25"/>
</a>
</g>
</g>
<!-- Node32 -->
<g id="Node000032" class="node">
<title>Node32</title>
<g id="a_Node000032"><a xlink:href="structdi_1_1meta_1_1detail_1_1RemoveReferenceHelper_3_01T_01_6_01_4.html" target="_top" xlink:title=" ">
<polygon fill="white" stroke="#666666" points="362.5,-511.5 225.5,-511.5 225.5,-481.5 362.5,-481.5 362.5,-511.5"/>
<text text-anchor="start" x="233.5" y="-499.5" font-family="Helvetica,sans-Serif" font-size="10.00">di::meta::detail::Remove</text>
<text text-anchor="middle" x="294" y="-488.5" font-family="Helvetica,sans-Serif" font-size="10.00">ReferenceHelper&lt; T &amp; &gt;</text>
</a>
</g>
</g>
<!-- Node1&#45;&gt;Node32 -->
<g id="edge32_Node000001_Node000032" class="edge">
<title>Node1&#45;&gt;Node32</title>
<g id="a_edge32_Node000001_Node000032"><a xlink:title=" ">
<path fill="none" stroke="#63b8ff" d="M82.13,-968.45C91.12,-887.48 128.59,-585.84 194,-520.5 202.57,-511.94 213.64,-506.24 225.26,-502.49"/>
<polygon fill="#63b8ff" stroke="#63b8ff" points="78.61,-968.42 81.01,-978.74 85.57,-969.18 78.61,-968.42"/>
</a>
</g>
</g>
<!-- Node33 -->
<g id="Node000033" class="node">
<title>Node33</title>
<g id="a_Node000033"><a xlink:href="structdi_1_1meta_1_1detail_1_1RemoveReferenceHelper_3_01T_01_6_6_01_4.html" target="_top" xlink:title=" ">
<polygon fill="white" stroke="#666666" points="366.5,-463.5 221.5,-463.5 221.5,-433.5 366.5,-433.5 366.5,-463.5"/>
<text text-anchor="start" x="229.5" y="-451.5" font-family="Helvetica,sans-Serif" font-size="10.00">di::meta::detail::Remove</text>
<text text-anchor="middle" x="294" y="-440.5" font-family="Helvetica,sans-Serif" font-size="10.00">ReferenceHelper&lt; T &amp;&amp; &gt;</text>
</a>
</g>
</g>
<!-- Node1&#45;&gt;Node33 -->
<g id="edge33_Node000001_Node000033" class="edge">
<title>Node1&#45;&gt;Node33</title>
<g id="a_edge33_Node000001_Node000033"><a xlink:title=" ">
<path fill="none" stroke="#63b8ff" d="M81.63,-968.62C89.04,-882.85 122.41,-545.56 194,-472.5 201.55,-464.79 211.12,-459.4 221.33,-455.65"/>
<polygon fill="#63b8ff" stroke="#63b8ff" points="78.14,-968.34 80.78,-978.6 85.11,-968.93 78.14,-968.34"/>
</a>
</g>
</g>
<!-- Node34 -->
<g id="Node000034" class="node">
<title>Node34</title>
<g id="a_Node000034"><a xlink:href="structdi_1_1meta_1_1detail_1_1RemoveVolatile.html" target="_top" xlink:title=" ">
<polygon fill="white" stroke="#666666" points="362.5,-415.5 225.5,-415.5 225.5,-385.5 362.5,-385.5 362.5,-415.5"/>
<text text-anchor="start" x="233.5" y="-403.5" font-family="Helvetica,sans-Serif" font-size="10.00">di::meta::detail::Remove</text>
<text text-anchor="middle" x="294" y="-392.5" font-family="Helvetica,sans-Serif" font-size="10.00">Volatile&lt; T &gt;</text>
</a>
</g>
</g>
<!-- Node1&#45;&gt;Node34 -->
<g id="edge34_Node000001_Node000034" class="edge">
<title>Node1&#45;&gt;Node34</title>
<g id="a_edge34_Node000001_Node000034"><a xlink:title=" ">
<path fill="none" stroke="#63b8ff" d="M81.23,-968.54C87.22,-877.8 116.28,-505.26 194,-424.5 202.52,-415.64 213.71,-409.83 225.5,-406.05"/>
<polygon fill="#63b8ff" stroke="#63b8ff" points="77.73,-968.38 80.59,-978.59 84.72,-968.83 77.73,-968.38"/>
</a>
</g>
</g>
<!-- Node35 -->
<g id="Node000035" class="node">
<title>Node35</title>
<g id="a_Node000035"><a xlink:href="structdi_1_1meta_1_1detail_1_1RemoveVolatile_3_01T_01volatile_01_4.html" target="_top" xlink:title=" ">
<polygon fill="white" stroke="#666666" points="362.5,-367.5 225.5,-367.5 225.5,-337.5 362.5,-337.5 362.5,-367.5"/>
<text text-anchor="start" x="233.5" y="-355.5" font-family="Helvetica,sans-Serif" font-size="10.00">di::meta::detail::Remove</text>
<text text-anchor="middle" x="294" y="-344.5" font-family="Helvetica,sans-Serif" font-size="10.00">Volatile&lt; T volatile &gt;</text>
</a>
</g>
</g>
<!-- Node1&#45;&gt;Node35 -->
<g id="edge35_Node000001_Node000035" class="edge">
<title>Node1&#45;&gt;Node35</title>
<g id="a_edge35_Node000001_Node000035"><a xlink:title=" ">
<path fill="none" stroke="#63b8ff" d="M80.88,-968.68C85.5,-873.59 110.06,-465.07 194,-376.5 202.45,-367.58 213.62,-361.73 225.39,-357.95"/>
<polygon fill="#63b8ff" stroke="#63b8ff" points="77.38,-968.53 80.41,-978.68 84.38,-968.86 77.38,-968.53"/>
</a>
</g>
</g>
<!-- Node36 -->
<g id="Node000036" class="node">
<title>Node36</title>
<g id="a_Node000036"><a xlink:href="structdi_1_1meta_1_1detail_1_1SimpleCommonReference_3_01T_00_01U_01_4.html" target="_top" xlink:title=" ">
<polygon fill="white" stroke="#666666" points="370,-319.5 218,-319.5 218,-289.5 370,-289.5 370,-319.5"/>
<text text-anchor="start" x="226" y="-307.5" font-family="Helvetica,sans-Serif" font-size="10.00">di::meta::detail::Simple</text>
<text text-anchor="middle" x="294" y="-296.5" font-family="Helvetica,sans-Serif" font-size="10.00">CommonReference&lt; T, U &gt;</text>
</a>
</g>
</g>
<!-- Node1&#45;&gt;Node36 -->
<g id="edge36_Node000001_Node000036" class="edge">
<title>Node1&#45;&gt;Node36</title>
<g id="a_edge36_Node000001_Node000036"><a xlink:title=" ">
<path fill="none" stroke="#63b8ff" d="M80.59,-968.74C83.94,-869.32 103.84,-424.89 194,-328.5 200.52,-321.53 208.7,-316.43 217.54,-312.72"/>
<polygon fill="#63b8ff" stroke="#63b8ff" points="77.08,-968.77 80.26,-978.88 84.08,-969 77.08,-968.77"/>
</a>
</g>
</g>
<!-- Node37 -->
<g id="Node000037" class="node">
<title>Node37</title>
<g id="a_Node000037"><a xlink:href="structdi_1_1meta_1_1detail_1_1StatusCodeDomainHelper.html" target="_top" xlink:title=" ">
<polygon fill="white" stroke="#666666" points="364,-271.5 224,-271.5 224,-241.5 364,-241.5 364,-271.5"/>
<text text-anchor="start" x="232" y="-259.5" font-family="Helvetica,sans-Serif" font-size="10.00">di::meta::detail::Status</text>
<text text-anchor="middle" x="294" y="-248.5" font-family="Helvetica,sans-Serif" font-size="10.00">CodeDomainHelper&lt; T &gt;</text>
</a>
</g>
</g>
<!-- Node1&#45;&gt;Node37 -->
<g id="edge37_Node000001_Node000037" class="edge">
<title>Node1&#45;&gt;Node37</title>
<g id="a_edge37_Node000001_Node000037"><a xlink:title=" ">
<path fill="none" stroke="#63b8ff" d="M80.34,-968.62C82.5,-864.7 97.66,-384.68 194,-280.5 202.04,-271.8 212.66,-266.01 223.95,-262.2"/>
<polygon fill="#63b8ff" stroke="#63b8ff" points="76.84,-968.62 80.14,-978.68 83.83,-968.75 76.84,-968.62"/>
</a>
</g>
</g>
<!-- Node38 -->
<g id="Node000038" class="node">
<title>Node38</title>
<g id="a_Node000038"><a xlink:href="structdi_1_1meta_1_1detail_1_1StatusCodeDomainValueHelper_3_01vocab_1_1Erased_3_01T_01_4_01_4.html" target="_top" xlink:title=" ">
<polygon fill="white" stroke="#666666" points="363.5,-223 224.5,-223 224.5,-182 363.5,-182 363.5,-223"/>
<text text-anchor="start" x="232.5" y="-211" font-family="Helvetica,sans-Serif" font-size="10.00">di::meta::detail::Status</text>
<text text-anchor="start" x="232.5" y="-200" font-family="Helvetica,sans-Serif" font-size="10.00">CodeDomainValueHelper</text>
<text text-anchor="middle" x="294" y="-189" font-family="Helvetica,sans-Serif" font-size="10.00">&lt; vocab::Erased&lt; T &gt; &gt;</text>
</a>
</g>
</g>
<!-- Node1&#45;&gt;Node38 -->
<g id="edge38_Node000001_Node000038" class="edge">
<title>Node1&#45;&gt;Node38</title>
<g id="a_edge38_Node000001_Node000038"><a xlink:title=" ">
<path fill="none" stroke="#63b8ff" d="M80.22,-968.75C81.82,-861.28 94.62,-347.4 194,-232.5 202.05,-223.2 212.88,-216.72 224.42,-212.23"/>
<polygon fill="#63b8ff" stroke="#63b8ff" points="76.72,-968.8 80.09,-978.84 83.72,-968.89 76.72,-968.8"/>
</a>
</g>
</g>
<!-- Node39 -->
<g id="Node000039" class="node">
<title>Node39</title>
<g id="a_Node000039"><a xlink:href="structdi_1_1meta_1_1detail_1_1UnionCV_3_01T_01const_00_01U_01const_00_01R_01_4.html" target="_top" xlink:title=" ">
<polygon fill="white" stroke="#666666" points="363.5,-163.5 224.5,-163.5 224.5,-133.5 363.5,-133.5 363.5,-163.5"/>
<text text-anchor="start" x="232.5" y="-151.5" font-family="Helvetica,sans-Serif" font-size="10.00">di::meta::detail::UnionCV</text>
<text text-anchor="middle" x="294" y="-140.5" font-family="Helvetica,sans-Serif" font-size="10.00">&lt; T const, U const, R &gt;</text>
</a>
</g>
</g>
<!-- Node1&#45;&gt;Node39 -->
<g id="edge39_Node000001_Node000039" class="edge">
<title>Node1&#45;&gt;Node39</title>
<g id="a_edge39_Node000001_Node000039"><a xlink:title=" ">
<path fill="none" stroke="#63b8ff" d="M79.89,-968.57C79.7,-855.55 84.35,-295.73 194,-173.5 202.05,-164.53 212.81,-158.56 224.27,-154.63"/>
<polygon fill="#63b8ff" stroke="#63b8ff" points="76.39,-968.87 79.93,-978.86 83.39,-968.84 76.39,-968.87"/>
</a>
</g>
</g>
<!-- Node40 -->
<g id="Node000040" class="node">
<title>Node40</title>
<g id="a_Node000040"><a xlink:href="structdi_1_1meta_1_1detail_1_1UnionCV_3_01T_01const_00_01U_00_01R_01_4.html" target="_top" xlink:title=" ">
<polygon fill="white" stroke="#666666" points="363.5,-115.5 224.5,-115.5 224.5,-85.5 363.5,-85.5 363.5,-115.5"/>
<text text-anchor="start" x="232.5" y="-103.5" font-family="Helvetica,sans-Serif" font-size="10.00">di::meta::detail::UnionCV</text>
<text text-anchor="middle" x="294" y="-92.5" font-family="Helvetica,sans-Serif" font-size="10.00">&lt; T const, U, R &gt;</text>
</a>
</g>
</g>
<!-- Node1&#45;&gt;Node40 -->
<g id="edge40_Node000001_Node000040" class="edge">
<title>Node1&#45;&gt;Node40</title>
<g id="a_edge40_Node000001_Node000040"><a xlink:title=" ">
<path fill="none" stroke="#63b8ff" d="M79.7,-968.47C78.36,-851.21 77.41,-254.24 194,-124.5 202.04,-115.56 212.79,-109.67 224.25,-105.85"/>
<polygon fill="#63b8ff" stroke="#63b8ff" points="76.2,-968.87 79.83,-978.82 83.2,-968.78 76.2,-968.87"/>
</a>
</g>
</g>
<!-- Node41 -->
<g id="Node000041" class="node">
<title>Node41</title>
<g id="a_Node000041"><a xlink:href="structdi_1_1meta_1_1detail_1_1UnwrapReferenceHelper.html" target="_top" xlink:title=" ">
<polygon fill="white" stroke="#666666" points="361,-67.5 227,-67.5 227,-37.5 361,-37.5 361,-67.5"/>
<text text-anchor="start" x="235" y="-55.5" font-family="Helvetica,sans-Serif" font-size="10.00">di::meta::detail::Unwrap</text>
<text text-anchor="middle" x="294" y="-44.5" font-family="Helvetica,sans-Serif" font-size="10.00">ReferenceHelper&lt; T &gt;</text>
</a>
</g>
</g>
<!-- Node1&#45;&gt;Node41 -->
<g id="edge41_Node000001_Node000041" class="edge">
<title>Node1&#45;&gt;Node41</title>
<g id="a_edge41_Node000001_Node000041"><a xlink:title=" ">
<path fill="none" stroke="#63b8ff" d="M81.15,-968.59C88.63,-841.4 132.24,-145.69 194,-76.5 202.66,-66.8 214.5,-60.69 226.99,-56.92"/>
<polygon fill="#63b8ff" stroke="#63b8ff" points="77.64,-968.62 80.55,-978.8 84.63,-969.03 77.64,-968.62"/>
</a>
</g>
</g>
<!-- Node42 -->
<g id="Node000042" class="node">
<title>Node42</title>
<g id="a_Node000042"><a xlink:href="structdi_1_1meta_1_1detail_1_1WrapReference.html" target="_top" xlink:title=" ">
<polygon fill="white" stroke="#666666" points="394,-19 194,-19 194,0 394,0 394,-19"/>
<text text-anchor="middle" x="294" y="-7" font-family="Helvetica,sans-Serif" font-size="10.00">di::meta::detail::WrapReference&lt; T &gt;</text>
</a>
</g>
</g>
<!-- Node1&#45;&gt;Node42 -->
<g id="edge42_Node000001_Node000042" class="edge">
<title>Node1&#45;&gt;Node42</title>
<g id="a_edge42_Node000001_Node000042"><a xlink:title=" ">
<path fill="none" stroke="#63b8ff" d="M80.96,-968.74C87.52,-837.94 127.32,-100.12 194,-28.5 197.46,-24.79 201.4,-21.67 205.68,-19.06"/>
<polygon fill="#63b8ff" stroke="#63b8ff" points="77.46,-968.72 80.46,-978.88 84.45,-969.07 77.46,-968.72"/>
</a>
</g>
</g>
<!-- Node2&#45;&gt;Node3 -->
<g id="edge2_Node000002_Node000003" class="edge">
<title>Node2&#45;&gt;Node3</title>
<g id="a_edge2_Node000002_Node000003"><a xlink:title=" ">
<path fill="none" stroke="#63b8ff" d="M395.51,-1945.09C407.15,-1943.65 418.81,-1942.22 429.86,-1940.85"/>
<polygon fill="#63b8ff" stroke="#63b8ff" points="394.79,-1941.65 385.29,-1946.35 395.65,-1948.6 394.79,-1941.65"/>
</a>
</g>
</g>
</g>
</svg>
