<?xml version="1.0" encoding="UTF-8" standalone="no"?>
<!DOCTYPE svg PUBLIC "-//W3C//DTD SVG 1.1//EN"
 "http://www.w3.org/Graphics/SVG/1.1/DTD/svg11.dtd">
<!-- Generated by graphviz version 2.43.0 (0)
 -->
<!-- Title: iris::detail::InternalObjectTag Pages: 1 -->
<svg width="175pt" height="170pt"
 viewBox="0.00 0.00 175.00 170.00" xmlns="http://www.w3.org/2000/svg" xmlns:xlink="http://www.w3.org/1999/xlink">
<g id="graph0" class="graph" transform="scale(1 1) rotate(0) translate(4 166)">
<title>iris::detail::InternalObjectTag</title>
<!-- Node1 -->
<g id="Node000001" class="node">
<title>Node1</title>
<g id="a_Node000001"><a xlink:title=" ">
<polygon fill="#999999" stroke="#666666" points="162,-19 5,-19 5,0 162,0 162,-19"/>
<text text-anchor="middle" x="83.5" y="-7" font-family="Helvetica,sans-Serif" font-size="10.00">iris::detail::InternalObjectTag</text>
</a>
</g>
</g>
<!-- Node2 -->
<g id="Node000002" class="node">
<title>Node2</title>
<g id="a_Node000002"><a xlink:href="structdi_1_1container_1_1IntrusiveForwardListTag.html" target="_top" xlink:title=" ">
<polygon fill="white" stroke="#666666" points="149,-85 18,-85 18,-55 149,-55 149,-85"/>
<text text-anchor="start" x="26" y="-73" font-family="Helvetica,sans-Serif" font-size="10.00">di::container::Intrusive</text>
<text text-anchor="middle" x="83.5" y="-62" font-family="Helvetica,sans-Serif" font-size="10.00">ForwardListTag&lt; Self &gt;</text>
</a>
</g>
</g>
<!-- Node2&#45;&gt;Node1 -->
<g id="edge1_Node000001_Node000002" class="edge">
<title>Node2&#45;&gt;Node1</title>
<g id="a_edge1_Node000001_Node000002"><a xlink:title=" ">
<path fill="none" stroke="#63b8ff" d="M83.5,-44.75C83.5,-35.72 83.5,-26.03 83.5,-19.27"/>
<polygon fill="#63b8ff" stroke="#63b8ff" points="80,-44.84 83.5,-54.84 87,-44.84 80,-44.84"/>
</a>
</g>
</g>
<!-- Node3 -->
<g id="Node000003" class="node">
<title>Node3</title>
<g id="a_Node000003"><a xlink:href="structdi_1_1container_1_1IntrusiveTagBase.html" target="_top" xlink:title=" ">
<polygon fill="white" stroke="#666666" points="167,-162 0,-162 0,-121 167,-121 167,-162"/>
<text text-anchor="start" x="8" y="-150" font-family="Helvetica,sans-Serif" font-size="10.00">di::container::Intrusive</text>
<text text-anchor="start" x="8" y="-139" font-family="Helvetica,sans-Serif" font-size="10.00">TagBase&lt; IntrusiveForwardList</text>
<text text-anchor="middle" x="83.5" y="-128" font-family="Helvetica,sans-Serif" font-size="10.00">Node&lt; Self &gt; &gt;</text>
</a>
</g>
</g>
<!-- Node3&#45;&gt;Node2 -->
<g id="edge2_Node000002_Node000003" class="edge">
<title>Node3&#45;&gt;Node2</title>
<g id="a_edge2_Node000002_Node000003"><a xlink:title=" ">
<path fill="none" stroke="#63b8ff" d="M83.5,-110.66C83.5,-101.76 83.5,-92.42 83.5,-85.04"/>
<polygon fill="#63b8ff" stroke="#63b8ff" points="80,-110.77 83.5,-120.77 87,-110.77 80,-110.77"/>
</a>
</g>
</g>
</g>
</svg>
